<svg xmlns="http://www.w3.org/2000/svg" width="120" height="120" fill="none" viewBox="0 0 120 120">
    <style>
        @media (prefers-color-scheme:dark){path{fill:#fff;stroke:#fff}}
    </style>
    <path fill="#0F131A" stroke="#0F131A" d="M56.415 73.812H22.33a2.18 2.18 0 0 1-2.023-1.365 2.529 2.529 0 0 1 .203-2.731L64.506 7.969a2.174 2.174 0 0 1 2.63-.809 2.528 2.528 0 0 1 1.466 2.782l-4.551 32.112-.2 3.134h34.085c.86 0 1.669.506 2.023 1.365a2.53 2.53 0 0 1-.202 2.73L55.76 111.032a2.179 2.179 0 0 1-2.63.809 2.53 2.53 0 0 1-1.466-2.782l4.552-32.112z"/>
</svg>
