<svg xmlns="http://www.w3.org/2000/svg" width="120" height="120" fill="none" viewBox="0 0 120 120">
    <style>
        @media (prefers-color-scheme:dark){path{fill:#fff}}
    </style>
    <path fill="#000" d="M66.457 5.075a7.5 7.5 0 0 1 7.81 4.176l.132.29.119.295a7.5 7.5 0 0 1 .163 4.847l-9.6 30.1-.08.23h35.016a10 10 0 0 1 9.038 5.684 10 10 0 0 1-1.255 10.617 5 5 0 0 1-.295.332L58.038 112.61a7.5 7.5 0 0 1-4.146 2.291 7.505 7.505 0 0 1-8.256-4.416 7.5 7.5 0 0 1-.34-4.949l.058-.193 9.6-30.1.08-.23H20.016v-.002a10 10 0 0 1-9.037-5.683 10 10 0 0 1 1.255-10.616 5 5 0 0 1 .295-.332L61.983 7.43a7.5 7.5 0 0 1 4.16-2.304z"/>
</svg>
