<svg width="7" height="12" viewBox="0 0 7 12" xmlns="http://www.w3.org/2000/svg">
  <title>arrow icon</title>
  <path d="M0.99115 0C1.08407 0 1.17699 0.0309277 1.26991 0.123712L6.87611 5.72165C6.96903 5.81443 7 5.90722 7 6C7 6.09278 6.96903 6.18557 6.87611 6.27835L1.26991 11.8763C1.17699 11.9691 1.08407 12 0.99115 12C0.89823 12 0.80531 11.9691 0.712389 11.8763L0.123894 11.2887C0.0309734 11.1959 0 11.1031 0 11.0103C0 10.9175 0.0309734 10.8247 0.123894 10.732L4.86283 6L0.123894 1.26804C0.0309734 1.17526 0 1.08247 0 0.989691C0 0.896907 0.0309734 0.804124 0.123894 0.71134L0.712389 0.123712C0.80531 0.0618563 0.89823 0 0.99115 0Z" fill-rule="evenodd" />
</svg>
