<svg width="24" height="24" viewBox="0 0 24 24" fill="none" xmlns="http://www.w3.org/2000/svg">
<path d="M15.8889 19H8.11111C7.81643 19 7.53381 18.8841 7.32544 18.6778C7.11706 18.4715 7 18.1917 7 17.9V8H17V17.9C17 18.1917 16.8829 18.4715 16.6746 18.6778C16.4662 18.8841 16.1836 19 15.8889 19Z" stroke="#212933" stroke-width="2" stroke-linecap="round" stroke-linejoin="round"/>
<path d="M10.5 15.5V11.5" stroke="#212933" stroke-width="2" stroke-linecap="round" stroke-linejoin="round"/>
<path d="M13.5 15.5V11.5" stroke="#212933" stroke-width="2" stroke-linecap="round" stroke-linejoin="round"/>
<path d="M5 8H19" stroke="#212933" stroke-width="2" stroke-linecap="round" stroke-linejoin="round"/>
<path d="M13.8 5H10.2C9.88174 5 9.57652 5.15804 9.35147 5.43934C9.12643 5.72064 9 6.10218 9 6.5V8H15V6.5C15 6.10218 14.8736 5.72064 14.6485 5.43934C14.4235 5.15804 14.1183 5 13.8 5Z" stroke="#212933" stroke-width="2" stroke-linecap="round" stroke-linejoin="round"/>
</svg>
