<svg width="24" height="24" viewBox="0 0 24 24" fill="none" xmlns="http://www.w3.org/2000/svg">
<path d="M4.91399 15.6342C4.91399 15.8792 5.10279 15.9082 5.27079 15.9082C6.01239 15.9082 6.25559 15.3892 6.25559 14.9153C6.25559 14.3214 5.84439 13.8919 5.18199 13.8919C5.04119 13.8919 4.97639 13.9016 4.91399 13.9048V15.6342ZM4.57799 14.1433C4.57799 13.8572 4.41719 13.8758 4.26279 13.8726V13.7904C4.39639 13.796 4.53319 13.796 4.66759 13.796C4.81159 13.796 5.00679 13.7904 5.26119 13.7904C6.14919 13.7904 6.63319 14.34 6.63319 14.9024C6.63319 15.2175 6.43399 16.0097 5.21959 16.0097C5.04519 16.0097 4.88359 16.0033 4.72279 16.0033C4.56759 16.0033 4.41719 16.0065 4.26279 16.0097V15.9267C4.46839 15.9074 4.56759 15.9009 4.57799 15.6849V14.1425V14.1433ZM7.12119 14.0668C7.03159 14.0668 6.95319 13.9902 6.95319 13.908C6.95319 13.8282 7.03479 13.7549 7.12119 13.7549C7.20919 13.7549 7.28919 13.8218 7.28919 13.908C7.28919 13.9934 7.21319 14.0668 7.12119 14.0668ZM6.75319 15.9267H6.81879C6.91479 15.9267 6.98359 15.9267 6.98359 15.8219V14.9597C6.98359 14.8202 6.93239 14.8009 6.80519 14.7381V14.6865C6.96599 14.6422 7.15799 14.5817 7.17239 14.572C7.19132 14.5617 7.21246 14.5562 7.23399 14.5559C7.25079 14.5559 7.25799 14.5753 7.25799 14.6011V15.8211C7.25799 15.9259 7.33319 15.9259 7.42919 15.9259H7.48759V16.0097C7.37079 16.0097 7.25079 16.0033 7.12759 16.0033C7.00439 16.0033 6.88039 16.0065 6.75399 16.0097V15.9267H6.75319ZM7.81399 14.979C7.81399 14.8613 7.77639 14.8299 7.61479 14.7695V14.709C7.76199 14.6647 7.90279 14.6228 8.06759 14.5559C8.07799 14.5559 8.08759 14.5632 8.08759 14.5882V14.7953C8.28359 14.6647 8.45239 14.5567 8.68199 14.5567C8.97399 14.5567 9.07639 14.7534 9.07639 15.0016V15.8211C9.07639 15.9259 9.15239 15.9259 9.24759 15.9259H9.30999V16.0097C9.18999 16.0097 9.06999 16.0033 8.94679 16.0033C8.82279 16.0033 8.69879 16.0065 8.57559 16.0097V15.9267H8.63719C8.73319 15.9267 8.80199 15.9267 8.80199 15.8219V14.9983C8.80199 14.817 8.68199 14.7284 8.48679 14.7284C8.37639 14.7284 8.20199 14.8106 8.08759 14.8815V15.8211C8.08759 15.9259 8.16439 15.9259 8.26039 15.9259H8.32199V16.0097C8.20199 16.0097 8.08199 16.0033 7.95719 16.0033C7.83479 16.0033 7.71079 16.0065 7.58759 16.0097V15.9267H7.64919C7.74519 15.9267 7.81399 15.9267 7.81399 15.8219V14.979ZM10.178 15.0298C10.2636 15.0298 10.274 14.9895 10.274 14.9508C10.274 14.788 10.1676 14.6583 9.97559 14.6583C9.76599 14.6583 9.62199 14.8009 9.58119 15.0298H10.178ZM9.57079 15.1321C9.56258 15.1934 9.56258 15.2554 9.57079 15.3167C9.59079 15.6189 9.80039 15.8663 10.0748 15.8663C10.2636 15.8663 10.4116 15.7712 10.5388 15.6535L10.5868 15.6978C10.4284 15.8912 10.2332 16.0572 9.95159 16.0572C9.40599 16.0572 9.29559 15.5673 9.29559 15.3642C9.29559 14.7405 9.74919 14.5567 9.98919 14.5567C10.2668 14.5567 10.5652 14.7179 10.5692 15.0556C10.5692 15.0749 10.5692 15.0934 10.566 15.1128L10.534 15.1321H9.57079ZM10.6476 15.9267H10.7412C10.8372 15.9267 10.9052 15.9267 10.9052 15.8219V14.9274C10.9052 14.8291 10.778 14.8098 10.7268 14.784V14.7372C10.9772 14.6381 11.1148 14.5559 11.146 14.5559C11.166 14.5559 11.1764 14.5648 11.1764 14.597V14.8831H11.1844C11.2692 14.759 11.4132 14.5559 11.6228 14.5559C11.7084 14.5559 11.818 14.6091 11.818 14.7244C11.8184 14.7674 11.8016 14.8089 11.7714 14.8394C11.7411 14.8698 11.7 14.8868 11.6572 14.8863C11.55 14.8863 11.55 14.8098 11.43 14.8098C11.3716 14.8098 11.1796 14.8823 11.1796 15.0741V15.8203C11.1796 15.9251 11.2484 15.9251 11.3444 15.9251H11.5364V16.0089C11.3476 16.0057 11.2044 16.0024 11.0564 16.0024C10.9156 16.0024 10.7716 16.0057 10.6484 16.0089V15.9267H10.6476ZM11.9692 15.5673C12.014 15.7768 12.1508 15.9557 12.4012 15.9557C12.6036 15.9557 12.6788 15.8405 12.6788 15.7301C12.6788 15.3545 11.9316 15.4746 11.9316 14.9637C11.9316 14.7848 12.086 14.5567 12.4636 14.5567C12.5732 14.5567 12.7204 14.5849 12.854 14.6486L12.878 14.9726H12.7996C12.7652 14.7727 12.6452 14.6583 12.4252 14.6583C12.2876 14.6583 12.158 14.7308 12.158 14.8678C12.158 15.2401 12.954 15.1257 12.954 15.6253C12.954 15.8348 12.7716 16.0572 12.3636 16.0572C12.2178 16.0537 12.0747 16.0168 11.9452 15.9493L11.9076 15.5834L11.9692 15.5673ZM16.0516 14.3657H15.966C15.9012 13.9934 15.6164 13.8444 15.2324 13.8444C14.8372 13.8444 14.2644 14.0893 14.2644 14.8517C14.2644 15.4948 14.7588 15.9557 15.2868 15.9557C15.6268 15.9557 15.9084 15.7397 15.9764 15.4053L16.0556 15.4246L15.9764 15.8888C15.8324 15.9718 15.4444 16.0572 15.218 16.0572C14.4156 16.0572 13.9076 15.577 13.9076 14.8613C13.9076 14.2102 14.5356 13.742 15.2084 13.742C15.486 13.742 15.7532 13.825 16.018 13.9112L16.0516 14.3657ZM16.1756 15.9267H16.2412C16.3372 15.9267 16.406 15.9267 16.406 15.8219V14.0515C16.406 13.8444 16.354 13.8379 16.2236 13.8033V13.7509C16.3452 13.7154 16.4636 13.6695 16.5772 13.6139C16.6148 13.5953 16.642 13.5792 16.6524 13.5792C16.6732 13.5792 16.6796 13.5986 16.6796 13.6244V15.8203C16.6796 15.9251 16.7556 15.9251 16.8516 15.9251H16.91V16.0089C16.794 16.0089 16.6732 16.0024 16.55 16.0024C16.426 16.0024 16.3028 16.0057 16.1756 16.0089V15.9267ZM18.3788 15.834C18.3788 15.892 18.4164 15.8945 18.4748 15.8945L18.6124 15.892V15.9589C18.4453 15.9806 18.2799 16.0134 18.1172 16.0572L18.1012 16.0476V15.7897C17.8948 15.946 17.7364 16.0572 17.4932 16.0572C17.3076 16.0572 17.1156 15.946 17.1156 15.6785V14.8646C17.1156 14.7824 17.102 14.7026 16.91 14.6873V14.6268C17.034 14.6228 17.3076 14.6043 17.3524 14.6043C17.3908 14.6043 17.3908 14.6268 17.3908 14.6961V15.5165C17.3908 15.6116 17.3908 15.8856 17.6892 15.8856C17.8052 15.8856 17.9596 15.8026 18.1036 15.6922V14.8364C18.1036 14.7719 17.9396 14.7381 17.8156 14.7058V14.6486C18.1244 14.6293 18.3172 14.6043 18.3516 14.6043C18.3788 14.6043 18.3788 14.6268 18.3788 14.6615V15.834ZM19.0612 15.6503C19.0612 15.7712 19.1844 15.9742 19.4148 15.9742C19.7828 15.9742 19.9364 15.6406 19.9364 15.357C19.9364 15.0145 19.6548 14.7284 19.3876 14.7284C19.2596 14.7284 19.154 14.8041 19.0612 14.8783V15.6503ZM19.0612 14.7848C19.1988 14.6776 19.3844 14.5567 19.5732 14.5567C19.9708 14.5567 20.2108 14.8783 20.2108 15.224C20.2108 15.6406 19.882 16.0572 19.39 16.0572C19.1364 16.0572 19.0028 15.9807 18.914 15.946L18.81 16.0186L18.7388 15.9839C18.7701 15.797 18.7862 15.6078 18.7868 15.4182V14.0515C18.7868 13.8444 18.7356 13.8379 18.6052 13.8033V13.7509C18.7428 13.7106 18.886 13.6534 18.9588 13.6139C18.9956 13.5953 19.0228 13.5792 19.034 13.5792C19.0548 13.5792 19.0612 13.5986 19.0612 13.6244V14.7848ZM4.25879 17.8575H4.28519C4.35159 17.8575 4.42279 17.8495 4.42279 17.7592V16.8534C4.42279 16.7632 4.35159 16.7543 4.28519 16.7543H4.25879V16.7019C4.33159 16.7019 4.44359 16.7092 4.53559 16.7092C4.62839 16.7092 4.74039 16.7019 4.82839 16.7019V16.7543H4.80199C4.73479 16.7543 4.66359 16.7624 4.66359 16.8534V17.7592C4.66359 17.8495 4.73559 17.8575 4.80199 17.8575H4.82839V17.9099C4.73879 17.9099 4.62599 17.9035 4.53319 17.9035C4.44199 17.9035 4.33159 17.9099 4.25879 17.9099V17.8575Z" fill="#1A1918"/>
<path d="M4.82058 17.9027V17.8656H4.80218C4.73578 17.8656 4.65578 17.8551 4.65578 17.7592V16.8535C4.65578 16.7576 4.73578 16.7471 4.80218 16.7471H4.82058V16.71C4.73418 16.71 4.62618 16.7165 4.53578 16.7165C4.44698 16.7165 4.33978 16.71 4.26698 16.71V16.7471H4.28538C4.35178 16.7471 4.43098 16.7576 4.43098 16.8535V17.7592C4.43098 17.8551 4.35098 17.8656 4.28538 17.8656H4.26698V17.9027C4.33898 17.9019 4.44538 17.8954 4.53338 17.8954C4.62458 17.8954 4.73258 17.9019 4.82058 17.9027ZM4.82858 17.9172C4.73818 17.9172 4.62618 17.9107 4.53338 17.9107C4.44218 17.9107 4.33258 17.9172 4.25898 17.9172H4.25098V17.8511H4.28538C4.35258 17.8495 4.41498 17.8439 4.41498 17.7592V16.8535C4.41498 16.7688 4.35258 16.7632 4.28538 16.7616H4.25098V16.6947H4.25898C4.33258 16.6947 4.44378 16.702 4.53578 16.702C4.62858 16.702 4.73978 16.6947 4.82858 16.6947H4.83658V16.7616H4.80218C4.73418 16.7632 4.67258 16.7688 4.67178 16.8535V17.7592C4.67178 17.8439 4.73418 17.8495 4.80218 17.8511H4.83658V17.9172H4.82858ZM6.11178 17.5691L6.11498 17.5658V16.9171C6.11498 16.7753 6.00858 16.7543 5.95178 16.7543H5.91178V16.702C5.99898 16.702 6.08458 16.7092 6.17258 16.7092C6.24938 16.7092 6.32618 16.702 6.40218 16.702V16.7543H6.37418C6.29578 16.7543 6.20778 16.768 6.20778 16.9735V17.7617C6.20778 17.8221 6.21018 17.8825 6.21898 17.9357H6.14778L5.18698 16.9429V17.6553C5.18698 17.8068 5.21818 17.8576 5.36218 17.8576H5.39418V17.9099C5.31418 17.9099 5.23338 17.9035 5.15258 17.9035C5.06938 17.9035 4.98298 17.9099 4.89898 17.9099V17.8576H4.92538C5.05418 17.8576 5.09338 17.777 5.09338 17.6384V16.9099C5.09338 16.8132 5.00698 16.7543 4.92378 16.7543H4.89978V16.702C4.97018 16.702 5.04298 16.7092 5.11338 16.7092C5.16938 16.7092 5.22458 16.702 5.27978 16.702L6.11178 17.5691Z" fill="#1A1918"/>
<path d="M6.10663 17.5659V17.5651L6.10502 17.5643L6.10663 17.5659ZM6.11063 17.5691L6.11703 17.5643L6.11063 17.5691ZM6.14742 17.9285H6.20982C6.20191 17.8733 6.19843 17.8175 6.19942 17.7617V16.9736C6.19942 16.7665 6.29382 16.7471 6.37382 16.7471H6.39382V16.7101C6.32022 16.7101 6.24663 16.7165 6.17223 16.7165C6.08663 16.7165 6.00423 16.7101 5.91863 16.7101V16.7471H5.95142C6.00902 16.7471 6.12262 16.7713 6.12262 16.9164L6.12022 17.5707L6.11623 17.5739L6.10983 17.5796L5.27942 16.7101C5.22422 16.7101 5.16982 16.7165 5.11302 16.7165C5.04502 16.7165 4.97463 16.7101 4.90743 16.7101V16.7471H4.92342C5.01142 16.7471 5.10103 16.8092 5.10103 16.9099V17.6384C5.10103 17.777 5.05943 17.8657 4.92503 17.8657H4.90743V17.9027C4.98743 17.9019 5.07063 17.8955 5.15222 17.8955C5.23063 17.8955 5.30822 17.9019 5.38502 17.9027V17.8657H5.36103C5.21463 17.8657 5.17862 17.806 5.17862 17.6561V16.9228L6.14742 17.9285ZM6.21942 17.9438L6.14182 17.9414L5.19383 16.9623V17.6553C5.19703 17.806 5.22103 17.8487 5.36182 17.8511H5.40183V17.9172H5.39383C5.31303 17.9172 5.23223 17.9108 5.15222 17.9108C5.06903 17.9108 4.98343 17.9172 4.89863 17.9172H4.89062V17.8511H4.92503C5.04823 17.8495 5.08343 17.7762 5.08503 17.6384V16.9099C5.08503 16.818 5.00342 16.7616 4.92342 16.7616H4.89062V16.6947H4.89863C4.97063 16.6947 5.04262 16.702 5.11302 16.702C5.16902 16.702 5.22262 16.6947 5.28582 16.698L6.10663 17.553V16.9164C6.10503 16.7794 6.00662 16.7632 5.95142 16.7616H5.90343V16.6947H5.91142C5.99942 16.6947 6.08583 16.702 6.17303 16.702C6.24903 16.702 6.32503 16.6947 6.40263 16.6947H6.41062V16.7616H6.37462C6.29782 16.764 6.21863 16.7697 6.21623 16.9736V17.7617C6.21623 17.8213 6.21862 17.8826 6.22742 17.935L6.22902 17.943H6.21942V17.9438ZM6.68103 16.789C6.54103 16.789 6.53623 16.8205 6.50823 16.9462H6.45222C6.45942 16.8978 6.46823 16.8495 6.47462 16.7995C6.48209 16.7507 6.48583 16.7014 6.48583 16.652H6.53063C6.54583 16.7044 6.59222 16.702 6.64262 16.702H7.60582C7.65622 16.702 7.70263 16.7004 7.70662 16.6488L7.75143 16.6561C7.74423 16.702 7.73622 16.7487 7.73062 16.7963C7.72662 16.8422 7.72662 16.8898 7.72662 16.9357L7.67062 16.955C7.66742 16.8906 7.65782 16.789 7.53302 16.789H7.22662V17.7093C7.22662 17.8431 7.29222 17.8576 7.38182 17.8576H7.41702V17.91C7.34503 17.91 7.21382 17.9035 7.11302 17.9035C7.00102 17.9035 6.86982 17.91 6.79702 17.91V17.8576H6.83302C6.93542 17.8576 6.98742 17.8495 6.98742 17.7125V16.789H6.68103Z" fill="#1A1918"/>
<path d="M7.41856 17.9173C7.34416 17.9173 7.21376 17.9108 7.11376 17.9108C7.00176 17.9108 6.87136 17.9173 6.79776 17.9173H6.78976V17.8512H6.83376C6.93616 17.8488 6.97776 17.8471 6.98016 17.7134V16.7963H6.68176V16.7818H6.99616V17.7134C6.99616 17.852 6.93616 17.8665 6.83376 17.8665H6.80576V17.9028C6.88016 17.9019 7.00576 17.8955 7.11376 17.8955C7.21136 17.8955 7.33536 17.9019 7.40976 17.9028V17.8657H7.38256C7.29216 17.8657 7.21936 17.8455 7.21936 17.7093V16.781H7.53376C7.65936 16.781 7.67536 16.8793 7.67936 16.9438L7.72016 16.9301C7.72016 16.8849 7.72016 16.8398 7.72336 16.7939L7.74256 16.6609L7.71456 16.6569C7.70496 16.7069 7.65296 16.7101 7.60656 16.7093H6.63376C6.58976 16.7093 6.54176 16.7077 6.52496 16.6593H6.49376C6.49376 16.7077 6.49056 16.7536 6.48336 16.7995C6.47776 16.8471 6.46896 16.893 6.46256 16.9381H6.50256C6.52656 16.8173 6.54256 16.7786 6.68176 16.781V16.7955C6.54416 16.7979 6.54736 16.8197 6.51616 16.947V16.9534H6.44336L6.44416 16.9446C6.45216 16.8962 6.46176 16.8479 6.46736 16.7971C6.47536 16.7488 6.47856 16.7004 6.47856 16.6521V16.644H6.53776L6.53856 16.6496C6.55136 16.6932 6.58576 16.6932 6.63376 16.694H7.60656C7.65776 16.694 7.69616 16.6923 7.69936 16.6472V16.6392L7.70816 16.6408L7.76096 16.6488L7.76016 16.6561C7.75216 16.7028 7.74496 16.7488 7.74016 16.7955C7.73616 16.8414 7.73616 16.889 7.73616 16.9349V16.9406L7.73056 16.9422L7.66416 16.9647V16.9543C7.65936 16.8898 7.65136 16.7955 7.53376 16.7955H7.23536V17.7085C7.23776 17.8391 7.29376 17.848 7.38256 17.8504H7.42576V17.9164H7.41776L7.41856 17.9173ZM7.81136 17.8576H7.83776C7.90496 17.8576 7.97616 17.8496 7.97616 17.7593V16.8535C7.97616 16.7633 7.90496 16.7544 7.83776 16.7544H7.81136V16.702C7.92496 16.702 8.12016 16.7093 8.27616 16.7093C8.43376 16.7093 8.62736 16.702 8.75376 16.702C8.75136 16.7907 8.75296 16.8793 8.75856 16.9671L8.70256 16.9808C8.69296 16.868 8.67056 16.7794 8.47456 16.7794H8.21536V17.2315H8.43696C8.54896 17.2315 8.57376 17.1734 8.58416 17.08H8.64016C8.63296 17.2129 8.63296 17.3459 8.64016 17.4797L8.58416 17.4893C8.57376 17.3862 8.56816 17.3185 8.43856 17.3185H8.21616V17.7214C8.21616 17.8343 8.32416 17.8343 8.44336 17.8343C8.66736 17.8343 8.76656 17.8206 8.82256 17.6231L8.87456 17.6352C8.85056 17.7271 8.82816 17.8181 8.81056 17.91C8.69216 17.91 8.47696 17.9036 8.30896 17.9036C8.14096 17.9036 7.91856 17.91 7.81296 17.91V17.8576" fill="#1A1918"/>
<path d="M8.80273 17.9027C8.81873 17.8148 8.84033 17.7278 8.86353 17.6408L8.82673 17.6327C8.77073 17.8261 8.66273 17.8422 8.44273 17.8414C8.32433 17.8414 8.20673 17.8414 8.20593 17.7206V17.3112H8.43793C8.56913 17.3096 8.58193 17.3829 8.59073 17.4804L8.63073 17.4732C8.6241 17.3443 8.6241 17.2152 8.63073 17.0863H8.59073C8.58033 17.1774 8.55073 17.2403 8.43633 17.2395H8.20593V16.7713H8.47393C8.66833 16.7696 8.70033 16.8631 8.70833 16.9711L8.74833 16.9614C8.74336 16.8777 8.74229 16.7938 8.74513 16.71C8.61793 16.71 8.42913 16.7165 8.27553 16.7165C8.12273 16.7165 7.93313 16.71 7.81953 16.71V16.7471H7.83713C7.90353 16.7471 7.98353 16.7576 7.98353 16.8535V17.7592C7.98353 17.8551 7.90353 17.8656 7.83713 17.8656H7.81873V17.9027C7.92753 17.9027 8.14353 17.8954 8.30673 17.8954C8.47233 17.8954 8.68273 17.9019 8.80273 17.9027ZM8.80993 17.9172C8.68993 17.9172 8.47553 17.9099 8.30753 17.9099C8.13953 17.9099 7.91793 17.918 7.81153 17.918H7.80353V17.8511H7.83713C7.90433 17.8495 7.96673 17.8439 7.96673 17.7592V16.8535C7.96673 16.7688 7.90433 16.7632 7.83713 16.7616H7.80273V16.6947H7.81073C7.92513 16.6947 8.11953 16.702 8.27553 16.702C8.43233 16.702 8.62673 16.6947 8.75313 16.6947H8.76113V16.7028C8.75793 16.7906 8.75873 16.8784 8.76433 16.9663L8.76513 16.9727L8.75953 16.9743L8.69393 16.9905V16.9816C8.68193 16.8688 8.66673 16.7882 8.47393 16.7858H8.22193V17.2242H8.43633C8.54433 17.2242 8.56273 17.1718 8.57553 17.0791L8.57633 17.0718H8.64833V17.0799C8.64033 17.2129 8.64033 17.3458 8.64833 17.4796V17.4853L8.64193 17.4869L8.57633 17.4981V17.4901C8.56273 17.3853 8.56193 17.3273 8.43793 17.3257H8.22193V17.7206C8.22193 17.8269 8.32033 17.8253 8.44193 17.8269C8.66673 17.8253 8.75713 17.8148 8.81313 17.6206L8.81473 17.6134L8.82273 17.615L8.88273 17.6295L8.88113 17.6368C8.85713 17.7278 8.83473 17.8197 8.81713 17.9107V17.9172H8.80913H8.80993ZM9.36433 17.287H9.45553C9.64273 17.287 9.74353 17.2217 9.74353 17.017C9.74353 16.8639 9.63633 16.7648 9.47073 16.7648C9.41473 16.7648 9.39073 16.7705 9.36433 16.7713V17.287ZM9.12513 16.8857C9.12513 16.7592 9.05073 16.7543 8.99313 16.7543H8.95873V16.702C9.01873 16.702 9.13473 16.7092 9.24833 16.7092C9.36033 16.7092 9.44993 16.702 9.54913 16.702C9.78353 16.702 9.99313 16.7608 9.99313 17.0066C9.99313 17.1629 9.88113 17.2572 9.73393 17.312L10.0539 17.7536C10.1051 17.8277 10.1419 17.8479 10.2339 17.8584V17.9099C10.1723 17.9099 10.1131 17.9035 10.0515 17.9035C9.99313 17.9035 9.93313 17.9099 9.87553 17.9099C9.73309 17.7325 9.60343 17.5451 9.48753 17.3491H9.36433V17.7198C9.36433 17.8535 9.43153 17.8576 9.51713 17.8576H9.55153V17.9099C9.44433 17.9099 9.33553 17.9035 9.22993 17.9035C9.14033 17.9035 9.05233 17.9099 8.95873 17.9099V17.8576H8.99313C9.06113 17.8576 9.12513 17.8285 9.12513 17.7649V16.8857Z" fill="#1A1918"/>
<path d="M9.45597 17.2798C9.64077 17.2781 9.73437 17.2185 9.73597 17.0179C9.73437 16.8664 9.63357 16.7729 9.47117 16.7721C9.41997 16.7721 9.39677 16.7761 9.37277 16.7785V17.2798H9.45597ZM9.36477 17.2943H9.35677V16.7648H9.36317C9.38877 16.7616 9.41437 16.7576 9.47117 16.7576C9.64077 16.7576 9.75117 16.8599 9.75117 17.0179C9.75117 17.2242 9.64397 17.2943 9.45597 17.2943H9.36477ZM9.36477 17.3426H9.49277L9.49437 17.3458C9.61597 17.5449 9.73837 17.731 9.87597 17.9027C9.93357 17.9027 9.99357 17.8954 10.0512 17.8954C10.1104 17.8954 10.1688 17.9011 10.2264 17.9027V17.864C10.1528 17.8623 10.0852 17.8227 10.0472 17.7592L9.72157 17.308L9.73117 17.3047C9.87757 17.2507 9.98557 17.1589 9.98557 17.0066C9.98557 16.7672 9.78397 16.7108 9.54957 16.71C9.45117 16.71 9.36077 16.7165 9.24877 16.7165C9.13917 16.7165 9.02877 16.71 8.96717 16.71V16.7471H8.99357C9.05117 16.7471 9.13357 16.7551 9.13357 16.8857V17.7641C9.13357 17.8342 9.06397 17.8656 8.99357 17.8656H8.96717V17.9027C9.05757 17.9027 9.14237 17.8954 9.22957 17.8954C9.33437 17.8954 9.43917 17.9019 9.54317 17.9027V17.8656H9.51757C9.43277 17.8656 9.35677 17.8559 9.35677 17.7198V17.3418H9.36477V17.3426ZM10.2344 17.9172C10.172 17.9172 10.1128 17.9107 10.0504 17.9107C9.99437 17.9107 9.93437 17.9172 9.86957 17.9148C9.728 17.7382 9.59889 17.5519 9.48317 17.3571H9.37277V17.7198C9.37437 17.8495 9.43117 17.8487 9.51757 17.8511H9.55917V17.9172H9.55117C9.44397 17.9172 9.33517 17.9107 9.22957 17.9107C9.14077 17.9107 9.05357 17.9172 8.95917 17.9172H8.95117V17.8511H8.99357C9.05997 17.8503 9.11677 17.8229 9.11757 17.7649V16.8865C9.11597 16.7632 9.05117 16.7632 8.99357 16.7616H8.95117V16.6947H8.95917C9.01997 16.6947 9.13517 16.702 9.24877 16.702C9.36077 16.702 9.45037 16.6947 9.54957 16.6947C9.78477 16.6947 10.0016 16.7559 10.0024 17.0066C10.0024 17.1629 9.89037 17.2604 9.74637 17.3144L10.06 17.7496C10.112 17.8221 10.1448 17.8398 10.236 17.8511H10.2424V17.9172H10.2344ZM11.5016 17.5691L11.5056 17.5658V16.9171C11.5056 16.7753 11.3992 16.7543 11.3432 16.7543H11.3024V16.702C11.3904 16.702 11.4752 16.7092 11.564 16.7092C11.64 16.7092 11.716 16.702 11.7936 16.702V16.7543H11.7656C11.6872 16.7543 11.5992 16.768 11.5992 16.9735V17.7617C11.5992 17.8221 11.6008 17.8825 11.6104 17.9357H11.5392L10.5784 16.9429V17.6553C10.5784 17.8068 10.6104 17.8576 10.7544 17.8576H10.7856V17.9099C10.7056 17.9099 10.6248 17.9035 10.544 17.9035C10.46 17.9035 10.3744 17.9099 10.2904 17.9099V17.8576H10.316C10.4456 17.8576 10.484 17.777 10.484 17.6384V16.9099C10.484 16.8132 10.3984 16.7543 10.3144 16.7543H10.2904V16.702C10.3608 16.702 10.4344 16.7092 10.5048 16.7092C10.5608 16.7092 10.6152 16.702 10.6712 16.702L11.5016 17.5691Z" fill="#1A1918"/>
<path d="M11.4974 17.5659V17.5651L11.4958 17.5643L11.4974 17.5659ZM11.5014 17.5691L11.5078 17.5643L11.5014 17.5691ZM11.539 17.9285H11.6006C11.5934 17.8732 11.5902 17.8175 11.591 17.7617V16.9736C11.591 16.7665 11.6854 16.7479 11.7654 16.7471H11.7846V16.7101C11.7118 16.7101 11.6374 16.7165 11.5638 16.7165C11.4782 16.7165 11.3942 16.7101 11.3102 16.7101V16.7471H11.343C11.4006 16.7471 11.5142 16.7713 11.5142 16.9164L11.511 17.5707L11.5078 17.574L11.5014 17.5804L10.671 16.7101C10.615 16.7101 10.5614 16.7165 10.5046 16.7165C10.4358 16.7165 10.3662 16.7101 10.2982 16.7101V16.7471H10.3142C10.4022 16.7471 10.4926 16.8084 10.4926 16.9099V17.6384C10.4926 17.777 10.4502 17.8657 10.3166 17.8657H10.2982V17.9027C10.379 17.9019 10.4622 17.8955 10.5438 17.8955C10.6222 17.8955 10.6998 17.9019 10.7766 17.9027V17.8657H10.7534C10.6062 17.8657 10.5694 17.8068 10.5694 17.6562V16.9228L11.539 17.9285ZM11.6102 17.9438L11.5334 17.9414L10.5854 16.9623V17.6553C10.5878 17.8068 10.6126 17.8488 10.7534 17.8512H10.7934V17.9172H10.7854C10.7038 17.9172 10.6238 17.91 10.5438 17.91C10.4606 17.91 10.3742 17.9181 10.2902 17.9181H10.2822V17.8512H10.3158C10.439 17.8504 10.475 17.7762 10.4758 17.6384V16.9099C10.4758 16.8181 10.395 16.7616 10.3142 16.7616H10.2822V16.6948H10.2902C10.3614 16.6948 10.4342 16.702 10.5046 16.702C10.5606 16.702 10.6142 16.6948 10.6766 16.6972L11.4974 17.553V16.9164C11.4974 16.7794 11.3974 16.7633 11.343 16.7616H11.2942V16.6948H11.3022C11.3902 16.6948 11.4766 16.702 11.5638 16.702C11.6398 16.702 11.7158 16.6948 11.7934 16.6948H11.8014V16.7616H11.7654C11.6886 16.7633 11.6094 16.7697 11.607 16.9736V17.7617C11.607 17.8214 11.6086 17.8818 11.6182 17.935L11.619 17.943H11.6102V17.9438ZM12.3662 16.8962H12.3622L12.1886 17.3862H12.5374L12.3662 16.8962ZM12.0942 17.6626C12.075 17.7214 12.0518 17.7674 12.0518 17.7972C12.0518 17.8496 12.1318 17.8576 12.1926 17.8576H12.2134V17.91C12.0709 17.9021 11.928 17.9021 11.7854 17.91V17.8576H11.7966C11.8691 17.8595 11.9345 17.8143 11.959 17.7456L12.2574 16.9518C12.2814 16.8874 12.3158 16.8011 12.327 16.7367C12.3862 16.7181 12.4614 16.6835 12.4966 16.6625C12.5022 16.6609 12.5054 16.6593 12.5118 16.6593C12.5174 16.6593 12.5206 16.6593 12.5246 16.6641L12.5414 16.7077L12.8854 17.6126C12.907 17.6731 12.9302 17.7375 12.9542 17.7899C12.9766 17.8383 13.0158 17.8576 13.0774 17.8576H13.0886V17.91C12.9095 17.9021 12.7301 17.9021 12.551 17.91V17.8576H12.5718C12.6142 17.8576 12.687 17.8512 12.687 17.8085C12.68 17.7653 12.6673 17.7233 12.6494 17.6836L12.5774 17.4821H12.1534L12.0942 17.6626Z" fill="#1A1918"/>
<path d="M12.3583 16.8986L12.3623 16.897L12.3583 16.8986ZM12.1999 17.3781H12.5263L12.3639 16.9147L12.1999 17.3781ZM12.1775 17.3942L12.3559 16.889H12.3663V16.8962H12.3647H12.3663V16.8881H12.3719L12.5487 17.3934H12.1775V17.3942ZM12.5591 17.9019C12.6511 17.8995 12.7423 17.8955 12.8311 17.8955C12.9183 17.8955 12.9991 17.8995 13.0807 17.9019V17.8657H13.0775C13.0135 17.8657 12.9695 17.8431 12.9463 17.7923C12.9223 17.7399 12.8999 17.6755 12.8775 17.615L12.5335 16.7101L12.5175 16.6681C12.5159 16.6665 12.5175 16.6665 12.5151 16.6665H12.5119C12.5081 16.6667 12.5043 16.6675 12.5007 16.669C12.4482 16.6988 12.3924 16.722 12.3343 16.7383C12.3231 16.8035 12.2895 16.8898 12.2655 16.9542L11.9663 17.748C11.9404 17.8196 11.8724 17.8668 11.7967 17.8657H11.7935V17.9019C11.8575 17.8995 11.9215 17.8955 11.9871 17.8955C12.0591 17.8955 12.1327 17.8995 12.2047 17.9019V17.8657H12.1927C12.1319 17.8657 12.0463 17.8592 12.0447 17.798C12.0447 17.7633 12.0671 17.719 12.0855 17.661L12.0935 17.6626L12.0855 17.6602L12.1471 17.4748H12.5823L12.6567 17.6811C12.6755 17.7215 12.6884 17.7644 12.6951 17.8084C12.6927 17.8608 12.6135 17.8648 12.5719 17.8657H12.5591V17.9019ZM13.0879 17.918C13.0027 17.9133 12.9173 17.9106 12.8319 17.91C12.7399 17.91 12.6471 17.914 12.5519 17.918H12.5431V17.8503H12.5719C12.6151 17.8503 12.6791 17.8415 12.6791 17.8084C12.672 17.7662 12.6597 17.7251 12.6423 17.6859L12.5711 17.4901H12.1599L12.1015 17.665C12.0823 17.7238 12.0607 17.7698 12.0607 17.798C12.0607 17.8399 12.1311 17.8503 12.1935 17.8503H12.2215V17.918H12.2135C12.1384 17.9134 12.0632 17.9107 11.9879 17.91C11.9207 17.91 11.8535 17.914 11.7863 17.918H11.7783V17.8503H11.7975C11.8667 17.8524 11.9292 17.809 11.9519 17.7432L12.2511 16.9494C12.2751 16.8849 12.3087 16.7987 12.3247 16.7302C12.3831 16.7117 12.4583 16.6762 12.4943 16.6553C12.4999 16.6536 12.5047 16.6512 12.5127 16.6512C12.5167 16.6512 12.5271 16.6528 12.5327 16.6617L12.5495 16.7052L12.8935 17.6102C12.9159 17.6706 12.9383 17.7343 12.9623 17.7859C12.9839 17.8318 13.0183 17.8503 13.0783 17.8503H13.0975V17.918H13.0879ZM13.1711 16.789C13.0303 16.789 13.0255 16.8205 12.9975 16.9462H12.9415C12.9487 16.8978 12.9575 16.8495 12.9631 16.7995C12.9711 16.7511 12.9751 16.7028 12.9751 16.652H13.0199C13.0343 16.7044 13.0815 16.702 13.1319 16.702H14.0951C14.1455 16.702 14.1911 16.7004 14.1951 16.6488L14.2399 16.6561C14.2319 16.7028 14.2263 16.7495 14.2199 16.7963C14.2159 16.8422 14.2159 16.8898 14.2159 16.9357L14.1599 16.955C14.1567 16.8906 14.1471 16.789 14.0223 16.789H13.7159V17.7093C13.7159 17.8431 13.7815 17.8576 13.8711 17.8576H13.9063V17.91C13.8335 17.91 13.7031 17.9035 13.6023 17.9035C13.4903 17.9035 13.3591 17.91 13.2863 17.91V17.8576H13.3215C13.4255 17.8576 13.4767 17.8495 13.4767 17.7125V16.789H13.1711Z" fill="#1A1918"/>
<path d="M13.906 17.9173C13.8332 17.9173 13.702 17.9108 13.602 17.9108C13.49 17.9108 13.3596 17.9173 13.286 17.9173H13.278V17.8512H13.3212C13.4252 17.8488 13.4652 17.8471 13.4684 17.7134V16.7963H13.1708V16.7818H13.4844V17.7134C13.4844 17.852 13.4244 17.8657 13.3212 17.8665H13.294V17.9028C13.3676 17.9019 13.4932 17.8955 13.602 17.8955C13.6988 17.8955 13.8244 17.9019 13.898 17.9028V17.8657H13.87C13.7804 17.8657 13.7076 17.8455 13.7076 17.7093V16.781H14.022C14.1476 16.781 14.1636 16.8793 14.1668 16.9438L14.2076 16.9301C14.2076 16.8849 14.2076 16.8398 14.2116 16.7939C14.2164 16.7496 14.2236 16.7052 14.2308 16.6617L14.2028 16.6569C14.194 16.7069 14.1412 16.7101 14.0948 16.7093H13.122C13.0772 16.7093 13.03 16.7077 13.0132 16.6585H12.9828C12.982 16.7069 12.9788 16.7536 12.9708 16.7995C12.966 16.8479 12.9572 16.893 12.95 16.9381H12.99C13.014 16.8173 13.03 16.7786 13.1708 16.781V16.7955C13.0316 16.7979 13.0348 16.8197 13.0044 16.947L13.0036 16.9534H12.9316L12.9324 16.9446C12.9404 16.8962 12.9492 16.8479 12.9548 16.7979C12.9628 16.7496 12.966 16.7012 12.966 16.6512V16.6432H13.0252L13.0268 16.6496C13.0396 16.6932 13.0748 16.6932 13.122 16.694H14.0948C14.146 16.694 14.1844 16.6923 14.1868 16.6472V16.6392L14.1964 16.6408L14.2492 16.6488L14.2476 16.6561C14.2398 16.7024 14.2331 16.7489 14.2276 16.7955C14.2236 16.8414 14.2236 16.889 14.2236 16.9349V16.9406L14.218 16.9422L14.1524 16.9647V16.9543C14.1476 16.8898 14.1396 16.7955 14.022 16.7955H13.7236V17.7085C13.7252 17.8391 13.7812 17.848 13.87 17.8504H13.914V17.9164H13.906V17.9173ZM14.3092 17.8576H14.3348C14.4028 17.8576 14.4732 17.8496 14.4732 17.7593V16.8535C14.4732 16.7633 14.4028 16.7544 14.3348 16.7544H14.3092V16.702C14.3812 16.702 14.4932 16.7093 14.5852 16.7093C14.678 16.7093 14.79 16.702 14.8788 16.702V16.7544H14.8524C14.7852 16.7544 14.7132 16.7625 14.7132 16.8535V17.7593C14.7132 17.8496 14.7852 17.8576 14.8524 17.8576H14.8788V17.91C14.7884 17.91 14.6772 17.9036 14.5828 17.9036C14.4916 17.9036 14.382 17.91 14.3092 17.91V17.8576Z" fill="#1A1918"/>
<path d="M14.8706 17.9027V17.8656H14.853C14.7858 17.8656 14.7066 17.8551 14.7066 17.7592V16.8534C14.7066 16.7575 14.7866 16.7471 14.853 16.7471H14.8706V16.71C14.7842 16.71 14.677 16.7164 14.5858 16.7164C14.497 16.7164 14.3898 16.71 14.3178 16.71V16.7471H14.3354C14.4018 16.7471 14.4818 16.7575 14.4818 16.8534V17.7592C14.4818 17.8551 14.4018 17.8656 14.3354 17.8656H14.3178V17.9027C14.3898 17.9011 14.4954 17.8954 14.5842 17.8954C14.6746 17.8954 14.7826 17.9019 14.8706 17.9027ZM14.8786 17.9172C14.789 17.9172 14.677 17.9099 14.5842 17.9099C14.4922 17.9099 14.3826 17.918 14.3098 17.918H14.3018V17.8511H14.3354C14.4034 17.8495 14.465 17.8438 14.465 17.7592V16.8534C14.465 16.7688 14.4034 16.7632 14.3354 16.7616H14.3018V16.6947H14.3098C14.3818 16.6947 14.4938 16.7019 14.5858 16.7019C14.6786 16.7019 14.7906 16.6947 14.8794 16.6947H14.8866V16.7616H14.853C14.785 16.7632 14.7234 16.7688 14.7226 16.8534V17.7592C14.7226 17.8438 14.785 17.8495 14.853 17.8511H14.8866V17.9172H14.8786ZM15.6514 17.86C16.0146 17.86 16.077 17.5642 16.077 17.312C16.077 17.0589 15.9298 16.7527 15.6202 16.7527C15.293 16.7527 15.1962 17.0227 15.1962 17.2539C15.1962 17.5642 15.3498 17.86 15.6522 17.86H15.6514ZM15.6234 16.6761C16.0218 16.6761 16.3386 16.905 16.3386 17.2733C16.3386 17.6714 16.0306 17.9357 15.633 17.9357C15.237 17.9357 14.9354 17.6875 14.9354 17.3152C14.9354 16.955 15.2354 16.6761 15.6234 16.6761Z" fill="#1A1918"/>
<path d="M15.1884 17.254C15.1884 17.0211 15.2876 16.7446 15.6204 16.7446C15.9372 16.7455 16.0844 17.0573 16.0852 17.312C16.0852 17.5642 16.0212 17.8672 15.6516 17.8672V17.8527C16.0076 17.8527 16.0684 17.5642 16.0692 17.312C16.0692 17.0605 15.9236 16.7608 15.6204 16.76C15.3004 16.76 15.2044 17.0235 15.2044 17.254C15.2044 17.5626 15.3564 17.8519 15.6524 17.8527V17.8672C15.342 17.8672 15.1884 17.5658 15.1884 17.2548V17.254ZM14.9268 17.3144C14.9276 16.9509 15.2308 16.6697 15.6236 16.6689V16.6842C15.2396 16.6842 14.9428 16.9582 14.9428 17.3144C14.9428 17.6827 15.2412 17.9277 15.6332 17.9285C16.0268 17.9285 16.3308 17.6674 16.3316 17.2733C16.3316 16.909 16.0188 16.685 15.6236 16.6842V16.6681C16.0244 16.6697 16.346 16.9002 16.3468 17.2725C16.3468 17.6754 16.0348 17.943 15.6332 17.9438C15.234 17.943 14.9276 17.6907 14.9268 17.3152V17.3144ZM17.5972 17.569L17.6012 17.5658V16.9171C17.6012 16.7753 17.4948 16.7543 17.438 16.7543H17.398V16.7019C17.4852 16.7019 17.5716 16.7092 17.6588 16.7092C17.7356 16.7092 17.8124 16.7019 17.8884 16.7019V16.7543H17.8604C17.782 16.7543 17.694 16.768 17.694 16.9735V17.7616C17.694 17.8221 17.6964 17.8825 17.7052 17.9357H17.634L16.6732 16.9429V17.6553C16.6732 17.8068 16.7052 17.8575 16.8492 17.8575H16.8804V17.9099C16.8004 17.9099 16.7204 17.9035 16.6396 17.9035C16.5556 17.9035 16.4692 17.9099 16.3852 17.9099V17.8575H16.4116C16.5404 17.8575 16.5796 17.777 16.5796 17.6383V16.9099C16.5796 16.8131 16.494 16.7543 16.4092 16.7543H16.3852V16.7019C16.4564 16.7019 16.5292 16.7092 16.6004 16.7092C16.6564 16.7092 16.71 16.7019 16.766 16.7019L17.598 17.569H17.5972Z" fill="#1A1918"/>
<path d="M17.5922 17.5659V17.5651L17.5906 17.5643L17.5922 17.5659ZM17.597 17.5691L17.6034 17.5643L17.597 17.5691ZM17.6338 17.9285H17.6954C17.6879 17.8733 17.6847 17.8175 17.6858 17.7617V16.9736C17.6858 16.7665 17.7802 16.7479 17.8602 16.7471H17.8802V16.7101C17.8066 16.7101 17.733 16.7165 17.6578 16.7165C17.5738 16.7165 17.4898 16.7101 17.405 16.7101V16.7471H17.4378C17.4962 16.7471 17.609 16.7713 17.609 16.9164L17.6066 17.5707L17.6034 17.574L17.597 17.5804L16.7658 16.7101C16.7106 16.7101 16.6562 16.7165 16.6002 16.7165C16.5306 16.7165 16.461 16.7101 16.393 16.7101V16.7471H16.409C16.497 16.7471 16.5874 16.8084 16.5874 16.9099V17.6384C16.5874 17.777 16.5458 17.8657 16.4114 17.8657H16.393V17.9027C16.4746 17.9019 16.557 17.8955 16.6394 17.8955C16.717 17.8955 16.7946 17.9019 16.8714 17.9027V17.8657H16.8474C16.701 17.8657 16.665 17.8068 16.665 17.6562V16.9228L17.6338 17.9285ZM17.7058 17.9438L17.6282 17.9414L16.6802 16.9623V17.6553C16.6826 17.8068 16.7074 17.8488 16.8482 17.8504H16.8882V17.9172H16.8802C16.7994 17.9172 16.7194 17.9108 16.6394 17.9108C16.5554 17.9108 16.4698 17.9172 16.385 17.9172H16.377V17.8504H16.4114C16.5346 17.8504 16.5698 17.7762 16.5714 17.6384V16.9099C16.5714 16.8181 16.4898 16.7616 16.409 16.7616H16.377V16.6948H16.385C16.457 16.6948 16.529 16.702 16.6002 16.702C16.6554 16.702 16.709 16.6948 16.7722 16.698L17.5922 17.553V16.9164C17.5922 16.7794 17.493 16.7633 17.4378 16.7616H17.3898V16.6948H17.3978C17.4858 16.6948 17.5714 16.702 17.6578 16.702C17.7346 16.702 17.8106 16.6948 17.8882 16.6948H17.8962V16.7616H17.8602C17.7834 16.7641 17.7042 16.7697 17.7026 16.9736V17.7617C17.7026 17.8214 17.7042 17.8826 17.7122 17.935L17.7138 17.943H17.7058V17.9438ZM18.461 16.8962H18.457L18.2834 17.3862H18.633L18.461 16.8962ZM18.1882 17.6626C18.1698 17.7214 18.1482 17.7674 18.1482 17.7972C18.1482 17.8496 18.2266 17.8576 18.2874 17.8576H18.3082V17.91C18.1659 17.9021 18.0232 17.9021 17.881 17.91V17.8576H17.8914C17.9638 17.8595 18.0293 17.8143 18.0538 17.7456L18.353 16.9518C18.377 16.8874 18.4106 16.8011 18.4218 16.7367C18.4818 16.7181 18.5562 16.6835 18.5914 16.6625C18.5978 16.6609 18.601 16.6593 18.6074 16.6593C18.6122 16.6593 18.6154 16.6593 18.6194 16.6641L18.637 16.7077L18.981 17.6126C19.0018 17.6731 19.025 17.7375 19.049 17.7899C19.0714 17.8383 19.1114 17.8576 19.173 17.8576H19.1834V17.91C19.0042 17.9021 18.8249 17.9021 18.6458 17.91V17.8576H18.6666C18.709 17.8576 18.7826 17.8512 18.7826 17.8085C18.7753 17.7654 18.7626 17.7234 18.745 17.6836L18.6722 17.4821H18.2482L18.1882 17.6626Z" fill="#1A1918"/>
<path d="M18.4538 16.8986L18.457 16.897L18.4538 16.8986ZM18.2946 17.3781H18.6218L18.4586 16.9147L18.2946 17.3781ZM18.2722 17.3926L18.4522 16.8889H18.4602V16.8961H18.4594H18.461V16.8881H18.4666L18.6434 17.3926H18.2722ZM18.6538 17.9019C18.7458 17.8994 18.8378 17.8954 18.9258 17.8954C19.013 17.8954 19.0938 17.8994 19.1754 17.9019V17.8656H19.1722C19.109 17.8656 19.065 17.843 19.0418 17.7923C19.017 17.7399 18.9946 17.6754 18.9722 17.615L18.629 16.71C18.6235 16.6964 18.6182 16.6827 18.613 16.6689C18.6114 16.6665 18.6114 16.6665 18.6098 16.6665H18.6066C18.6026 16.6665 18.601 16.6673 18.5962 16.6689C18.5436 16.6989 18.4874 16.7222 18.429 16.7382C18.4186 16.8035 18.3842 16.8897 18.3602 16.9542L18.061 17.7479C18.0356 17.8199 17.9672 17.8673 17.8914 17.8656H17.8882V17.9019C17.9522 17.8994 18.017 17.8954 18.0818 17.8954C18.1538 17.8954 18.2282 17.8994 18.3002 17.9019V17.8656H18.2874C18.2266 17.8656 18.1418 17.8592 18.1394 17.7971C18.1394 17.7633 18.1634 17.7189 18.181 17.6601L18.1882 17.6625L18.181 17.6601L18.2426 17.4748H18.6778L18.7522 17.6811C18.7704 17.7216 18.7831 17.7644 18.7898 17.8084C18.7874 17.8608 18.709 17.8648 18.6658 17.8656H18.6538V17.9019ZM19.1834 17.918C19.0994 17.9148 19.0154 17.9099 18.9258 17.9099C18.8346 17.9099 18.7418 17.9148 18.6458 17.918H18.6378V17.8511H18.6658C18.7098 17.8511 18.7738 17.8414 18.7746 17.8084C18.7673 17.7661 18.7547 17.725 18.737 17.6859L18.6658 17.4901H18.2538L18.1962 17.6649C18.1778 17.7246 18.1554 17.7697 18.1562 17.7971C18.1562 17.8398 18.2258 17.8511 18.2874 17.8511H18.3154V17.918H18.3074C18.233 17.9148 18.1562 17.9099 18.0818 17.9099C18.0146 17.9099 17.9482 17.9148 17.881 17.918H17.873V17.8511H17.8914C17.9608 17.8522 18.0231 17.8088 18.0466 17.7431L18.345 16.9493C18.369 16.8849 18.4026 16.7986 18.4186 16.7301C18.4778 16.7116 18.553 16.6761 18.589 16.6552C18.5947 16.6531 18.6006 16.652 18.6066 16.652C18.6149 16.6507 18.6231 16.6545 18.6274 16.6616C18.633 16.6753 18.6378 16.6915 18.6442 16.7052L18.9882 17.6101C19.0098 17.6706 19.0322 17.7342 19.057 17.7858C19.0786 17.8318 19.113 17.8503 19.1722 17.8503H19.1914V17.918H19.1834ZM19.6546 17.7399C19.6546 17.81 19.7066 17.8301 19.7666 17.8374C19.8426 17.843 19.9266 17.843 20.013 17.8342C20.0822 17.8273 20.1461 17.7938 20.1914 17.7407C20.2182 17.7029 20.2379 17.6606 20.2498 17.6158H20.3034C20.2834 17.7149 20.257 17.8116 20.2346 17.9099C20.0698 17.9099 19.9058 17.9035 19.7418 17.9035C19.5778 17.9035 19.4138 17.9099 19.249 17.9099V17.8575H19.2746C19.3426 17.8575 19.4154 17.8495 19.4154 17.7423V16.8534C19.4154 16.7632 19.3426 16.7543 19.2746 16.7543H19.249V16.7019C19.3474 16.7019 19.445 16.7092 19.5434 16.7092C19.6394 16.7092 19.7322 16.7019 19.8282 16.7019V16.7543H19.7802C19.7098 16.7543 19.6546 16.7567 19.6546 16.8478V17.7407V17.7399Z" fill="#1A1918"/>
<path d="M20.2282 17.9028C20.2498 17.8085 20.2738 17.7166 20.2938 17.6231H20.2554C20.244 17.667 20.2244 17.7082 20.1978 17.7448C20.1509 17.7998 20.0847 17.8344 20.013 17.8415C19.9306 17.8501 19.8476 17.8512 19.765 17.8447C19.7042 17.8383 19.645 17.8149 19.6458 17.74V16.8479C19.6458 16.7512 19.7114 16.7472 19.781 16.7472H19.8194V16.7101C19.7274 16.7101 19.6362 16.7165 19.5434 16.7165C19.4466 16.7165 19.3514 16.7101 19.257 16.7101V16.7472H19.2746C19.341 16.7472 19.4226 16.7576 19.4226 16.8527V17.7424C19.4226 17.8536 19.3418 17.8657 19.2746 17.8657H19.257V17.9028C19.417 17.9028 19.5794 17.8955 19.7418 17.8955C19.9042 17.8955 20.0658 17.902 20.2282 17.9028ZM20.2346 17.9173C20.0698 17.9173 19.9058 17.9108 19.7418 17.9108C19.5778 17.9108 19.4138 17.9173 19.2482 17.9173H19.2402V17.8512H19.2746C19.3426 17.8496 19.4066 17.8447 19.4074 17.7424V16.8527C19.4066 16.7689 19.3434 16.7633 19.2746 16.7617H19.241V16.6948H19.249C19.3482 16.6948 19.445 16.702 19.5434 16.702C19.6394 16.702 19.7322 16.6948 19.8282 16.6948H19.8354V16.7617H19.781C19.709 16.7633 19.6634 16.7609 19.661 16.8479V17.7408C19.6626 17.8053 19.7074 17.8222 19.7666 17.8294C19.8482 17.8351 19.9298 17.8343 20.0114 17.827C20.0785 17.82 20.1405 17.7878 20.185 17.7368C20.211 17.6997 20.23 17.6582 20.241 17.6143L20.2434 17.6078H20.3138L20.3114 17.6175C20.2906 17.7166 20.265 17.8133 20.2426 17.9116L20.2402 17.9173H20.2346ZM20.2522 16.8552H20.2762C20.3018 16.8552 20.3138 16.8358 20.3138 16.8044C20.3138 16.7721 20.2946 16.7609 20.2738 16.7609H20.2522V16.8552ZM20.185 16.9615V16.9519C20.209 16.9486 20.2138 16.9494 20.2138 16.9341V16.785C20.2138 16.7633 20.2114 16.756 20.1858 16.7576V16.7472H20.2882C20.3226 16.7472 20.3554 16.7641 20.3554 16.8004C20.3554 16.831 20.3362 16.8527 20.3082 16.8616L20.3402 16.9083C20.3528 16.9261 20.3679 16.9418 20.385 16.9551V16.9615H20.3458C20.3274 16.9615 20.3114 16.922 20.2738 16.8689H20.2522V16.9357C20.2522 16.9494 20.257 16.9486 20.281 16.9519V16.9615H20.185ZM20.2842 17.0187C20.3722 17.0171 20.4442 16.9446 20.4426 16.8552C20.4433 16.8122 20.4269 16.7707 20.3972 16.7399C20.3675 16.7091 20.3269 16.6914 20.2842 16.6908C20.1956 16.6925 20.1249 16.7659 20.1258 16.8552C20.1252 16.898 20.1415 16.9394 20.1713 16.9701C20.201 17.0008 20.2417 17.0183 20.2842 17.0187ZM20.2842 16.6537C20.3986 16.6537 20.4842 16.7423 20.4842 16.8552C20.4842 16.9688 20.3986 17.0566 20.2842 17.0566C20.2309 17.0577 20.1793 17.0369 20.1416 16.9988C20.1039 16.9608 20.0831 16.9089 20.0842 16.8552C20.0842 16.7423 20.1706 16.6537 20.2842 16.6537Z" fill="#1A1918"/>
<path d="M2.48 20.4396H21.52V4.48352H2.48V20.4396ZM2 4H22V20.9231H2V4Z" fill="#0069AA"/>
<path d="M13.0202 10.2486C13.0245 9.46133 12.5519 8.75091 11.8274 8.45559V12.0417C12.5519 11.7464 13.0245 11.0359 13.0202 10.2486ZM10.497 12.0409V8.45479C9.77264 8.75065 9.30042 9.4613 9.30498 10.2486C9.30085 11.0355 9.77304 11.7454 10.497 12.0409ZM11.1626 7.21699C9.54338 7.21699 8.23218 8.57406 8.23218 10.2486C8.23218 11.9224 9.54418 13.2787 11.1626 13.2787C12.781 13.2787 14.093 11.9224 14.0938 10.2486C14.0938 8.57406 12.7818 7.21779 11.1626 7.21699ZM11.1554 13.5656C9.38418 13.5736 7.92578 12.09 7.92578 10.2833C7.92578 8.30893 9.38418 6.94299 11.1554 6.94299H11.9858C13.7354 6.94299 15.3338 8.30812 15.3338 10.2833C15.3338 12.0884 13.7354 13.5656 11.9858 13.5656H11.1554Z" fill="#0069AA"/>
</svg>
