<svg width="32" height="23" viewBox="0 0 32 23" xmlns="http://www.w3.org/2000/svg">
    <title>
        Discover
    </title>
    <g transform="translate(2 2)" fill="none" fill-rule="evenodd">
        <path d="M.128.17L29.826.168v18.687l-29.694.001L.128.17"/>
        <path d="M29.721 10.561s-8.115 5.658-22.978 8.19h22.978v-8.19" fill="#E7792B"/>
        <path d="M29.826.06L.023.065v18.9h29.911L29.932.06h-.106zm-.108.215V18.75H.24L.238.276h29.48z" fill="#1A1918"/>
        <path d="M2.638 5.845H1.4v4.276h1.233c.655 0 1.129-.153 1.544-.493a2.136 2.136 0 0 0 .786-1.642c0-1.262-.954-2.141-2.324-2.141zm.987 3.212c-.266.237-.61.34-1.156.34h-.226V6.57h.226c.546 0 .877.097 1.156.346.292.257.467.655.467 1.065 0 .41-.175.82-.467 1.077zM5.35 5.845h.845v4.276H5.35zM8.26 7.486c-.508-.185-.656-.308-.656-.539 0-.269.265-.474.629-.474.253 0 .46.103.68.347l.442-.572a1.907 1.907 0 0 0-1.272-.474c-.766 0-1.35.526-1.35 1.226 0 .589.272.89 1.065 1.172.33.115.5.192.584.244a.51.51 0 0 1 .253.442c0 .347-.279.603-.655.603-.403 0-.727-.199-.922-.57l-.545.519c.389.564.856.814 1.498.814.878 0 1.493-.576 1.493-1.404 0-.68-.285-.987-1.245-1.334M9.77 7.986c0 1.257 1 2.232 2.285 2.232.363 0 .675-.071 1.059-.25v-.981c-.338.333-.637.468-1.02.468-.85 0-1.453-.61-1.453-1.475 0-.821.622-1.469 1.414-1.469.403 0 .708.142 1.059.481v-.981c-.371-.186-.676-.263-1.04-.263-1.278 0-2.304.995-2.304 2.238M19.808 8.717l-1.155-2.872h-.922l1.837 4.386h.454l1.87-4.386h-.915l-1.17 2.872M22.274 10.121h2.394v-.724h-1.55V8.243h1.493v-.724h-1.494v-.95h1.551v-.724h-2.394v4.276M28.011 7.107c0-.8-.558-1.262-1.532-1.262h-1.252v4.276h.844V8.403h.11l1.168 1.718h1.039L27.025 8.32c.636-.128.986-.558.986-1.213zm-1.694.707h-.246V6.518h.26c.525 0 .811.218.811.634 0 .43-.286.662-.825.662z" fill="#1A1918"/>
        <ellipse fill="#E7792B" cx="15.67" cy="8" rx="2.28" ry="2.26"/>
    </g>
</svg>
