<svg width="24" height="24" viewBox="0 0 24 24" fill="none" xmlns="http://www.w3.org/2000/svg">
<path d="M6 6C6 5.44772 6.44772 5 7 5H12.4893C12.7268 5 12.9564 5.08448 13.1373 5.23832L17.648 9.07552C17.8713 9.26552 18 9.54397 18 9.8372V18C18 18.5523 17.5523 19 17 19H7C6.44772 19 6 18.5523 6 18V6Z" stroke="#212933" stroke-width="2"/>
<line x1="12" y1="6" x2="12" y2="8" stroke="#212933" stroke-width="2"/>
<line x1="12" y1="9" x2="12" y2="11" stroke="#212933" stroke-width="2"/>
<line x1="12" y1="12" x2="12" y2="14" stroke="#212933" stroke-width="2"/>
<line x1="11" y1="12" x2="11" y2="14" stroke="#212933" stroke-width="2"/>
<line x1="13" y1="12" x2="13" y2="14" stroke="#212933" stroke-width="2"/>
<line x1="13" y1="13" x2="13" y2="15" stroke="#212933" stroke-width="2"/>
<line x1="11" y1="13" x2="11" y2="15" stroke="#212933" stroke-width="2"/>
</svg>
