<svg width="24" height="24" viewBox="0 0 24 24" fill="none" xmlns="http://www.w3.org/2000/svg">
<path fill-rule="evenodd" clip-rule="evenodd" d="M5.5 6H18.5C19.6046 6 20.5 6.89543 20.5 8V16C20.5 17.1046 19.6046 18 18.5 18H5.5C4.39543 18 3.5 17.1046 3.5 16V8C3.5 6.89543 4.39543 6 5.5 6ZM5.5 6.5C4.67157 6.5 4 7.17157 4 8V16C4 16.8284 4.67157 17.5 5.5 17.5H18.5C19.3284 17.5 20 16.8284 20 16V8C20 7.17157 19.3284 6.5 18.5 6.5H5.5Z" fill="#D8DDE1"/>
<g clip-path="url(#clip0)">
<path fill-rule="evenodd" clip-rule="evenodd" d="M4 15.8828C4 16.7759 4.716 17.5 5.6 17.5H18.4C19.2837 17.5 20 16.7761 20 15.8828V8.11716C20 7.22406 19.284 6.5 18.4 6.5H5.6C4.71632 6.5 4 7.2239 4 8.11716V15.8828Z" fill="white"/>
<path fill-rule="evenodd" clip-rule="evenodd" d="M10.9242 10.8962V6.5H8.77288V10.8962H4V13.1038H8.77288V17.5H10.9242V13.1038H20V10.8962H10.9242Z" fill="#003580"/>
</g>
<defs>
<clipPath id="clip0">
<rect x="4" y="6.5" width="16" height="11" fill="white"/>
</clipPath>
</defs>
</svg>
