<svg width="24" height="24" viewBox="0 0 24 24" fill="none" xmlns="http://www.w3.org/2000/svg">
<rect x="3" y="3" width="18" height="18" rx="1" stroke="#212933" stroke-width="2"/>
<path d="M9.4375 7.75C9.54875 7.75 9.65751 7.78299 9.75001 7.8448C9.84251 7.90661 9.91461 7.99446 9.95718 8.09724C9.99976 8.20002 10.0109 8.31312 9.98919 8.42224C9.96749 8.53135 9.91392 8.63158 9.83525 8.71025C9.75658 8.78892 9.65635 8.84249 9.54724 8.86419C9.43812 8.8859 9.32502 8.87476 9.22224 8.83218C9.11946 8.78961 9.03161 8.71751 8.9698 8.62501C8.90799 8.53251 8.875 8.42375 8.875 8.3125C8.875 8.16332 8.93426 8.02024 9.03975 7.91475C9.14524 7.80926 9.28832 7.75 9.4375 7.75" stroke="#212933" stroke-width="2" stroke-linecap="round" stroke-linejoin="round"/>
<path d="M21 16L16.2253 10.2704C16.1152 10.1382 15.9075 10.1542 15.8189 10.3018L13.1349 14.7752C13.0615 14.8976 12.9006 14.9337 12.7818 14.8546L10.2142 13.1428C10.0969 13.0646 9.93825 13.0988 9.86355 13.2183L5 21" stroke="#212933" stroke-width="2"/>
</svg>
