<?xml version="1.0" encoding="UTF-8"?>
<svg width="24px" height="24px" viewBox="0 0 24 24" version="1.1" xmlns="http://www.w3.org/2000/svg" xmlns:xlink="http://www.w3.org/1999/xlink">
    <!-- Generator: Sketch 50.2 (55047) - http://www.bohemiancoding.com/sketch -->
    <desc>Created with Sketch.</desc>
    <defs>
        <path d="M7,18 L17,18 L17,17.2281474 C16.5263589,16.2311412 16.1959307,15.5382468 13.8713031,15.2365656 L13,15.1234913 L13,12.9518673 L13.2688512,12.6637333 C14.4407949,11.4077342 15,10.1925951 15,9 C15,7.39445628 13.5770176,6 12,6 C10.4255316,6 9,7.39853184 9,9 C9,10.6386132 9.2810448,11.1773578 10.7157022,12.6475457 L11,12.9388844 L11,15.1661457 L10.0818253,15.2415283 C8.01775876,15.4109894 7.69669724,16.0953531 7,17.2807581 L7,18 Z M18.9353849,16.6726465 L19,16.843559 L19,20 L5,20 L5,16.7871036 L5.10821809,16.5738124 C5.96492186,14.8853015 6.52107963,13.8354015 8.69188449,13.4142041 C7.39933992,11.9733231 7,10.9675905 7,9 C7,6.28531184 9.32943157,4 12,4 C14.6726235,4 17,6.2807202 17,9 C17,10.5314636 16.4031101,12.0151864 15.2455754,13.4387677 C17.7050857,13.9464149 18.3037562,15.0019351 18.9353849,16.6726465 Z" id="path-1"></path>
    </defs>
    <g id="Icon/-24-/-Employees-/-Empty" stroke="none" stroke-width="1" fill="none" fill-rule="evenodd">
        <mask id="mask-2" fill="white">
            <use xlink:href="#path-1"></use>
        </mask>
        <use id="Path-7" fill="#FFFFFF" fill-rule="nonzero" xlink:href="#path-1"></use>
        <g id="Colours/Neutral/100" mask="url(#mask-2)" fill="#FAFBFC">
            <g transform="translate(-20.000000, -20.000000)" id="Grey/100">
                <rect x="0" y="0" width="64" height="64"></rect>
            </g>
        </g>
    </g>
</svg>