<?xml version="1.0" encoding="UTF-8"?>
<svg width="24px" height="24px" viewBox="0 0 24 24" version="1.1" xmlns="http://www.w3.org/2000/svg" xmlns:xlink="http://www.w3.org/1999/xlink">
    <g stroke="none" stroke-width="1" fill="none" fill-rule="evenodd">
        <rect id="circle" fill="#FF7559" x="0" y="0" width="24" height="24" rx="12"></rect>
        <path d="M13.3160836,11.1999728 L13.3160836,8.79998833 C13.3160836,7.80588223 12.4972031,7 11.4870627,7 L9.04836817,12.399965 L9.04836817,19 L15.9254868,18.9999222 C16.5335062,19.0066868 17.0536641,18.5715706 17.144834,17.9799288 L17.9861836,12.5799638 C18.0398691,12.2318793 17.935518,11.8781537 17.7007701,11.6124787 C17.4660222,11.3468037 17.1245634,11.195986 16.7668364,11.1999728 L13.3160836,11.1999728 Z M9.04836817,18.9999222 L7.21934727,18.9999222 C6.54592037,18.9999222 6,18.4626674 6,17.79993 L6,13.5999572 C6,12.9372198 6.54592037,12.399965 7.21934727,12.399965 L9.04836817,12.399965 L9.04836817,18.9999222 Z" id="thumbs-up" stroke="#FFFFFF" stroke-width="2" stroke-linecap="round" stroke-linejoin="round" transform="translate(12.000000, 13.000000) scale(1, -1) translate(-12.000000, -13.000000) "></path>
    </g>
</svg>
