<svg width="24" height="24" viewBox="0 0 24 24" fill="none" xmlns="http://www.w3.org/2000/svg">
<path fill-rule="evenodd" clip-rule="evenodd" d="M10 6.5C10 5.39543 10.8954 4.5 12 4.5C13.1046 4.5 14 5.39543 14 6.5C14 7.60457 13.1046 8.5 12 8.5C10.8954 8.5 10 7.60457 10 6.5ZM12 2.5C9.79086 2.5 8 4.29086 8 6.5C8 8.70914 9.79086 10.5 12 10.5C14.2091 10.5 16 8.70914 16 6.5C16 4.29086 14.2091 2.5 12 2.5ZM12 14C14.7019 14 16.9337 16.2088 16.9985 19H7.00145C7.06632 16.2088 9.29812 14 12 14ZM12 12C8.11467 12 5 15.2095 5 19.125C5 20.1605 5.83947 21 6.875 21H17.125C18.1605 21 19 20.1605 19 19.125C19 15.2095 15.8853 12 12 12Z" fill="#212933"/>
</svg>
