<svg width="24" height="24" viewBox="0 0 24 24" fill="none" xmlns="http://www.w3.org/2000/svg">
<path fill-rule="evenodd" clip-rule="evenodd" d="M12 2C6.4775 2 2 6.47667 2 12C2 16.2367 4.63583 19.855 8.35583 21.3117C8.26833 20.5208 8.18917 19.3075 8.39083 18.4442C8.5725 17.6633 9.56333 13.4733 9.56333 13.4733C9.56333 13.4733 9.26417 12.8742 9.26417 11.9883C9.26417 10.5983 10.07 9.56 11.0733 9.56C11.9258 9.56 12.3383 10.2008 12.3383 10.9683C12.3383 11.8258 11.7925 13.1083 11.51 14.2975C11.2742 15.2925 12.0092 16.105 12.9908 16.105C14.7683 16.105 16.1342 14.2308 16.1342 11.5258C16.1342 9.13167 14.4142 7.4575 11.9575 7.4575C9.1125 7.4575 7.4425 9.59167 7.4425 11.7967C7.4425 12.6558 7.77333 13.5783 8.18667 14.0783C8.26833 14.1775 8.28 14.265 8.25583 14.3658L7.97833 15.4992C7.93417 15.6825 7.83333 15.7217 7.64333 15.6333C6.39417 15.0517 5.61333 13.2258 5.61333 11.7592C5.61333 8.605 7.905 5.7075 12.2208 5.7075C15.69 5.7075 18.3858 8.18 18.3858 11.4833C18.3858 14.93 16.2133 17.7033 13.1967 17.7033C12.1833 17.7033 11.2308 17.1775 10.905 16.555L10.2817 18.9325C10.0558 19.8017 9.44667 20.8908 9.03833 21.5542C9.975 21.8433 10.9692 22 12 22C17.5225 22 22 17.5225 22 12C22 6.47667 17.5225 2 12 2V2Z" fill="#212933"/>
</svg>
