<svg width="24" height="24" viewBox="0 0 24 24" fill="none" xmlns="http://www.w3.org/2000/svg">
<path d="M15.8182 9H16.9091C17.1984 9 17.4759 9.10536 17.6805 9.29289C17.8851 9.48043 18 9.73478 18 10V18C18 18.2652 17.8851 18.5196 17.6805 18.7071C17.4759 18.8946 17.1984 19 16.9091 19H7.09091C6.80158 19 6.5241 18.8946 6.31952 18.7071C6.11493 18.5196 6 18.2652 6 18V10C6 9.73478 6.11493 9.48043 6.31952 9.29289C6.5241 9.10536 6.80158 9 7.09091 9H8.18182" stroke="#212933" stroke-width="2" stroke-linecap="round" stroke-linejoin="round"/>
<path d="M12 13L12 4.5M12 4.5L9.5 6M12 4.5L14.5 6" stroke="#212933" stroke-width="1.75" stroke-linecap="round" stroke-linejoin="round"/>
</svg>
