<svg width="24" height="24" viewBox="0 0 24 24" fill="none" xmlns="http://www.w3.org/2000/svg">
<path d="M5 4C4.44772 4 4 4.44772 4 5C4 5.55228 4.44772 6 5 6V4ZM7 5L7.94868 4.68377L7.72076 4H7V5ZM17 16C17.5523 16 18 15.5523 18 15C18 14.4477 17.5523 14 17 14V16ZM7.3618 14.2764L8.25623 14.7236L7.3618 14.2764ZM18.8191 7.3618L19.7135 7.80902L18.8191 7.3618ZM17.2764 10.4472L16.382 10L17.2764 10.4472ZM5 6H7V4H5V6ZM9 12H16.382V10H9V12ZM18.1708 10.8944L19.7135 7.80902L17.9247 6.91459L16.382 10L18.1708 10.8944ZM6.05132 5.31623L6.71798 7.31623L8.61535 6.68377L7.94868 4.68377L6.05132 5.31623ZM6.71798 7.31623L8.05132 11.3162L9.94868 10.6838L8.61535 6.68377L6.71798 7.31623ZM18.5955 6H7.66667V8H18.5955V6ZM7.80799 16C7.81148 16 7.81497 16 7.81848 16C7.82199 16 7.82551 16 7.82904 16C7.83256 16 7.8361 16 7.83965 16C7.8432 16 7.84675 16 7.85032 16C7.85389 16 7.85746 16 7.86105 16C7.86464 16 7.86823 16 7.87184 16C7.87544 16 7.87906 16 7.88268 16C7.88631 16 7.88994 16 7.89359 16C7.89723 16 7.90088 16 7.90455 16C7.90821 16 7.91188 16 7.91557 16C7.91925 16 7.92294 16 7.92664 16C7.93034 16 7.93405 16 7.93778 16C7.9415 16 7.94523 16 7.94897 16C7.9527 16 7.95645 16 7.96021 16C7.96397 16 7.96774 16 7.97152 16C7.97529 16 7.97908 16 7.98288 16C7.98667 16 7.99048 16 7.99429 16C7.99811 16 8.00193 16 8.00576 16C8.0096 16 8.01344 16 8.01729 16C8.02114 16 8.02501 16 8.02888 16C8.03275 16 8.03663 16 8.04052 16C8.0444 16 8.0483 16 8.05221 16C8.05612 16 8.06003 16 8.06396 16C8.06789 16 8.07182 16 8.07577 16C8.07971 16 8.08366 16 8.08763 16C8.09159 16 8.09556 16 8.09954 16C8.10352 16 8.10751 16 8.11151 16C8.11551 16 8.11952 16 8.12353 16C8.12755 16 8.13157 16 8.13561 16C8.13964 16 8.14369 16 8.14774 16C8.15179 16 8.15586 16 8.15993 16C8.164 16 8.16808 16 8.17217 16C8.17625 16 8.18035 16 8.18446 16C8.18856 16 8.19268 16 8.1968 16C8.20093 16 8.20506 16 8.2092 16C8.21334 16 8.2175 16 8.22165 16C8.22581 16 8.22998 16 8.23416 16C8.23834 16 8.24252 16 8.24672 16C8.25091 16 8.25511 16 8.25933 16C8.26354 16 8.26776 16 8.27199 16C8.27622 16 8.28046 16 8.2847 16C8.28895 16 8.2932 16 8.29747 16C8.30173 16 8.306 16 8.31029 16C8.31457 16 8.31886 16 8.32315 16C8.32745 16 8.33176 16 8.33608 16C8.34039 16 8.34471 16 8.34905 16C8.35338 16 8.35772 16 8.36207 16C8.36642 16 8.37078 16 8.37514 16C8.37951 16 8.38388 16 8.38827 16C8.39265 16 8.39704 16 8.40144 16C8.40584 16 8.41025 16 8.41467 16C8.41908 16 8.42351 16 8.42794 16C8.43238 16 8.43682 16 8.44127 16C8.44572 16 8.45018 16 8.45464 16C8.45911 16 8.46358 16 8.46807 16C8.47255 16 8.47704 16 8.48154 16C8.48604 16 8.49055 16 8.49506 16C8.49958 16 8.5041 16 8.50864 16C8.51317 16 8.51771 16 8.52226 16C8.52681 16 8.53136 16 8.53593 16C8.54049 16 8.54507 16 8.54965 16C8.55423 16 8.55882 16 8.56341 16C8.56801 16 8.57262 16 8.57723 16C8.58184 16 8.58646 16 8.59109 16C8.59572 16 8.60036 16 8.605 16C8.60965 16 8.6143 16 8.61896 16C8.62362 16 8.62829 16 8.63297 16C8.63765 16 8.64233 16 8.64702 16C8.65171 16 8.65641 16 8.66112 16C8.66583 16 8.67055 16 8.67527 16C8.67999 16 8.68473 16 8.68947 16C8.69421 16 8.69895 16 8.70371 16C8.70846 16 8.71322 16 8.718 16C8.72277 16 8.72754 16 8.73233 16C8.73712 16 8.74191 16 8.74671 16C8.75151 16 8.75632 16 8.76114 16C8.76595 16 8.77078 16 8.77561 16C8.78044 16 8.78528 16 8.79013 16C8.79497 16 8.79983 16 8.80469 16C8.80955 16 8.81442 16 8.8193 16C8.82417 16 8.82906 16 8.83395 16C8.83884 16 8.84374 16 8.84865 16C8.85356 16 8.85847 16 8.86339 16C8.86831 16 8.87324 16 8.87818 16C8.88312 16 8.88806 16 8.89301 16C8.89796 16 8.90292 16 8.90789 16C8.91285 16 8.91783 16 8.92281 16C8.92779 16 8.93278 16 8.93777 16C8.94277 16 8.94777 16 8.95278 16C8.95779 16 8.96281 16 8.96783 16C8.97286 16 8.97789 16 8.98293 16C8.98797 16 8.99301 16 8.99806 16C9.00312 16 9.00818 16 9.01325 16C9.01831 16 9.02339 16 9.02847 16C9.03355 16 9.03864 16 9.04374 16C9.04883 16 9.05393 16 9.05904 16C9.06415 16 9.06927 16 9.07439 16C9.07952 16 9.08465 16 9.08979 16C9.09493 16 9.10007 16 9.10522 16C9.11037 16 9.11553 16 9.1207 16C9.12587 16 9.13104 16 9.13622 16C9.1414 16 9.14658 16 9.15178 16C9.15697 16 9.16217 16 9.16738 16C9.17259 16 9.1778 16 9.18302 16C9.18824 16 9.19347 16 9.1987 16C9.20394 16 9.20918 16 9.21443 16C9.21968 16 9.22493 16 9.23019 16C9.23545 16 9.24072 16 9.246 16C9.25127 16 9.25655 16 9.26184 16C9.26713 16 9.27243 16 9.27773 16C9.28303 16 9.28834 16 9.29365 16C9.29897 16 9.30429 16 9.30962 16C9.31494 16 9.32028 16 9.32562 16C9.33096 16 9.33631 16 9.34166 16C9.34702 16 9.35238 16 9.35775 16C9.36311 16 9.36849 16 9.37387 16C9.37925 16 9.38463 16 9.39003 16C9.39542 16 9.40082 16 9.40623 16C9.41163 16 9.41704 16 9.42246 16C9.42788 16 9.43331 16 9.43874 16C9.44417 16 9.44961 16 9.45505 16C9.4605 16 9.46595 16 9.4714 16C9.47686 16 9.48232 16 9.48779 16C9.49326 16 9.49874 16 9.50422 16C9.5097 16 9.51519 16 9.52068 16C9.52618 16 9.53168 16 9.53719 16C9.54269 16 9.5482 16 9.55372 16C9.55924 16 9.56477 16 9.5703 16C9.57583 16 9.58137 16 9.58691 16C9.59245 16 9.598 16 9.60356 16C9.60912 16 9.61468 16 9.62024 16C9.62581 16 9.63139 16 9.63697 16C9.64255 16 9.64813 16 9.65372 16C9.65931 16 9.66491 16 9.67052 16C9.67612 16 9.68173 16 9.68734 16C9.69296 16 9.69858 16 9.70421 16C9.70984 16 9.71547 16 9.72111 16C9.72675 16 9.73239 16 9.73804 16C9.74369 16 9.74935 16 9.75501 16C9.76067 16 9.76634 16 9.77202 16C9.77769 16 9.78337 16 9.78905 16C9.79474 16 9.80043 16 9.80613 16C9.81182 16 9.81753 16 9.82324 16C9.82894 16 9.83466 16 9.84038 16C9.8461 16 9.85182 16 9.85755 16C9.86328 16 9.86902 16 9.87476 16C9.8805 16 9.88625 16 9.892 16C9.89776 16 9.90352 16 9.90928 16C9.91504 16 9.92081 16 9.92659 16C9.93237 16 9.93815 16 9.94393 16C9.94972 16 9.95551 16 9.96131 16C9.9671 16 9.97291 16 9.97872 16C9.98452 16 9.99034 16 9.99616 16C10.002 16 10.0078 16 10.0136 16C10.0195 16 10.0253 16 10.0311 16C10.037 16 10.0428 16 10.0487 16C10.0545 16 10.0604 16 10.0662 16C10.0721 16 10.078 16 10.0838 16C10.0897 16 10.0956 16 10.1015 16C10.1074 16 10.1132 16 10.1191 16C10.125 16 10.1309 16 10.1368 16C10.1427 16 10.1486 16 10.1546 16C10.1605 16 10.1664 16 10.1723 16C10.1782 16 10.1842 16 10.1901 16C10.196 16 10.202 16 10.2079 16C10.2139 16 10.2198 16 10.2258 16C10.2317 16 10.2377 16 10.2436 16C10.2496 16 10.2556 16 10.2615 16C10.2675 16 10.2735 16 10.2795 16C10.2855 16 10.2915 16 10.2974 16C10.3034 16 10.3094 16 10.3154 16C10.3214 16 10.3275 16 10.3335 16C10.3395 16 10.3455 16 10.3515 16C10.3575 16 10.3636 16 10.3696 16C10.3756 16 10.3817 16 10.3877 16C10.3938 16 10.3998 16 10.4059 16C10.4119 16 10.418 16 10.424 16C10.4301 16 10.4362 16 10.4422 16C10.4483 16 10.4544 16 10.4604 16C10.4665 16 10.4726 16 10.4787 16C10.4848 16 10.4909 16 10.497 16C10.5031 16 10.5092 16 10.5153 16C10.5214 16 10.5275 16 10.5336 16C10.5397 16 10.5459 16 10.552 16C10.5581 16 10.5642 16 10.5704 16C10.5765 16 10.5826 16 10.5888 16C10.5949 16 10.6011 16 10.6072 16C10.6134 16 10.6195 16 10.6257 16C10.6319 16 10.638 16 10.6442 16C10.6504 16 10.6565 16 10.6627 16C10.6689 16 10.6751 16 10.6813 16C10.6874 16 10.6936 16 10.6998 16C10.706 16 10.7122 16 10.7184 16C10.7246 16 10.7308 16 10.737 16C10.7433 16 10.7495 16 10.7557 16C10.7619 16 10.7681 16 10.7744 16C10.7806 16 10.7868 16 10.7931 16C10.7993 16 10.8055 16 10.8118 16C10.818 16 10.8243 16 10.8305 16C10.8368 16 10.843 16 10.8493 16C10.8556 16 10.8618 16 10.8681 16C10.8744 16 10.8806 16 10.8869 16C10.8932 16 10.8995 16 10.9058 16C10.9121 16 10.9183 16 10.9246 16C10.9309 16 10.9372 16 10.9435 16C10.9498 16 10.9561 16 10.9624 16C10.9687 16 10.9751 16 10.9814 16C10.9877 16 10.994 16 11.0003 16C11.0067 16 11.013 16 11.0193 16C11.0256 16 11.032 16 11.0383 16C11.0447 16 11.051 16 11.0573 16C11.0637 16 11.07 16 11.0764 16C11.0828 16 11.0891 16 11.0955 16C11.1018 16 11.1082 16 11.1146 16C11.1209 16 11.1273 16 11.1337 16C11.1401 16 11.1464 16 11.1528 16C11.1592 16 11.1656 16 11.172 16C11.1784 16 11.1848 16 11.1912 16C11.1975 16 11.2039 16 11.2104 16C11.2168 16 11.2232 16 11.2296 16C11.236 16 11.2424 16 11.2488 16C11.2552 16 11.2617 16 11.2681 16C11.2745 16 11.2809 16 11.2874 16C11.2938 16 11.3002 16 11.3067 16C11.3131 16 11.3195 16 11.326 16C11.3324 16 11.3389 16 11.3453 16C11.3518 16 11.3582 16 11.3647 16C11.3711 16 11.3776 16 11.3841 16C11.3905 16 11.397 16 11.4035 16C11.4099 16 11.4164 16 11.4229 16C11.4294 16 11.4358 16 11.4423 16C11.4488 16 11.4553 16 11.4618 16C11.4683 16 11.4748 16 11.4813 16C11.4877 16 11.4942 16 11.5007 16C11.5072 16 11.5138 16 11.5203 16C11.5268 16 11.5333 16 11.5398 16C11.5463 16 11.5528 16 11.5593 16C11.5659 16 11.5724 16 11.5789 16C11.5854 16 11.592 16 11.5985 16C11.605 16 11.6115 16 11.6181 16C11.6246 16 11.6312 16 11.6377 16C11.6442 16 11.6508 16 11.6573 16C11.6639 16 11.6704 16 11.677 16C11.6835 16 11.6901 16 11.6967 16C11.7032 16 11.7098 16 11.7163 16C11.7229 16 11.7295 16 11.736 16C11.7426 16 11.7492 16 11.7558 16C11.7623 16 11.7689 16 11.7755 16C11.7821 16 11.7887 16 11.7952 16C11.8018 16 11.8084 16 11.815 16C11.8216 16 11.8282 16 11.8348 16C11.8414 16 11.848 16 11.8546 16C11.8612 16 11.8678 16 11.8744 16C11.881 16 11.8876 16 11.8942 16C11.9008 16 11.9074 16 11.914 16C11.9207 16 11.9273 16 11.9339 16C11.9405 16 11.9471 16 11.9538 16C11.9604 16 11.967 16 11.9737 16C11.9803 16 11.9869 16 11.9935 16C12.0002 16 12.0068 16 12.0135 16C12.0201 16 12.0267 16 12.0334 16C12.04 16 12.0467 16 12.0533 16C12.06 16 12.0666 16 12.0733 16C12.0799 16 12.0866 16 12.0932 16C12.0999 16 12.1065 16 12.1132 16C12.1199 16 12.1265 16 12.1332 16C12.1399 16 12.1465 16 12.1532 16C12.1599 16 12.1665 16 12.1732 16C12.1799 16 12.1866 16 12.1932 16C12.1999 16 12.2066 16 12.2133 16C12.22 16 12.2266 16 12.2333 16C12.24 16 12.2467 16 12.2534 16C12.2601 16 12.2668 16 12.2735 16C12.2802 16 12.2869 16 12.2935 16C12.3002 16 12.3069 16 12.3136 16C12.3203 16 12.327 16 12.3338 16C12.3405 16 12.3472 16 12.3539 16C12.3606 16 12.3673 16 12.374 16C12.3807 16 12.3874 16 12.3941 16C12.4009 16 12.4076 16 12.4143 16C12.421 16 12.4277 16 12.4344 16C12.4412 16 12.4479 16 12.4546 16C12.4613 16 12.4681 16 12.4748 16C12.4815 16 12.4883 16 12.495 16C12.5017 16 12.5084 16 12.5152 16C12.5219 16 12.5287 16 12.5354 16C12.5421 16 12.5489 16 12.5556 16C12.5623 16 12.5691 16 12.5758 16C12.5826 16 12.5893 16 12.5961 16C12.6028 16 12.6096 16 12.6163 16C12.6231 16 12.6298 16 12.6366 16C12.6433 16 12.6501 16 12.6568 16C12.6636 16 12.6703 16 12.6771 16C12.6838 16 12.6906 16 12.6974 16C12.7041 16 12.7109 16 12.7177 16C12.7244 16 12.7312 16 12.7379 16C12.7447 16 12.7515 16 12.7582 16C12.765 16 12.7718 16 12.7785 16C12.7853 16 12.7921 16 12.7989 16C12.8056 16 12.8124 16 12.8192 16C12.826 16 12.8327 16 12.8395 16C12.8463 16 12.8531 16 12.8598 16C12.8666 16 12.8734 16 12.8802 16C12.887 16 12.8937 16 12.9005 16C12.9073 16 12.9141 16 12.9209 16C12.9277 16 12.9344 16 12.9412 16C12.948 16 12.9548 16 12.9616 16C12.9684 16 12.9752 16 12.982 16C12.9887 16 12.9955 16 13.0023 16C13.0091 16 13.0159 16 13.0227 16C13.0295 16 13.0363 16 13.0431 16C13.0499 16 13.0567 16 13.0635 16C13.0703 16 13.0771 16 13.0839 16C13.0907 16 13.0975 16 13.1043 16C13.1111 16 13.1179 16 13.1247 16C13.1315 16 13.1383 16 13.1451 16C13.1519 16 13.1587 16 13.1655 16C13.1723 16 13.1791 16 13.1859 16C13.1927 16 13.1995 16 13.2063 16C13.2131 16 13.2199 16 13.2267 16C13.2335 16 13.2403 16 13.2472 16C13.254 16 13.2608 16 13.2676 16C13.2744 16 13.2812 16 13.288 16C13.2948 16 13.3016 16 13.3084 16C13.3153 16 13.3221 16 13.3289 16C13.3357 16 13.3425 16 13.3493 16C13.3561 16 13.3629 16 13.3698 16C13.3766 16 13.3834 16 13.3902 16C13.397 16 13.4038 16 13.4106 16C13.4174 16 13.4243 16 13.4311 16C13.4379 16 13.4447 16 13.4515 16C13.4583 16 13.4652 16 13.472 16C13.4788 16 13.4856 16 13.4924 16C13.4992 16 13.506 16 13.5129 16C13.5197 16 13.5265 16 13.5333 16C13.5401 16 13.5469 16 13.5538 16C13.5606 16 13.5674 16 13.5742 16C13.581 16 13.5878 16 13.5947 16C13.6015 16 13.6083 16 13.6151 16C13.6219 16 13.6287 16 13.6356 16C13.6424 16 13.6492 16 13.656 16C13.6628 16 13.6696 16 13.6765 16C13.6833 16 13.6901 16 13.6969 16C13.7037 16 13.7105 16 13.7174 16C13.7242 16 13.731 16 13.7378 16C13.7446 16 13.7514 16 13.7582 16C13.7651 16 13.7719 16 13.7787 16C13.7855 16 13.7923 16 13.7991 16C13.8059 16 13.8128 16 13.8196 16C13.8264 16 13.8332 16 13.84 16C13.8468 16 13.8536 16 13.8604 16C13.8673 16 13.8741 16 13.8809 16C13.8877 16 13.8945 16 13.9013 16C13.9081 16 13.9149 16 13.9217 16C13.9286 16 13.9354 16 13.9422 16C13.949 16 13.9558 16 13.9626 16C13.9694 16 13.9762 16 13.983 16C13.9898 16 13.9966 16 14.0034 16C14.0102 16 14.017 16 14.0238 16C14.0306 16 14.0375 16 14.0443 16C14.0511 16 14.0579 16 14.0647 16C14.0715 16 14.0783 16 14.0851 16C14.0919 16 14.0987 16 14.1055 16C14.1123 16 14.1191 16 14.1259 16C14.1327 16 14.1394 16 14.1462 16C14.153 16 14.1598 16 14.1666 16C14.1734 16 14.1802 16 14.187 16C14.1938 16 14.2006 16 14.2074 16C14.2142 16 14.221 16 14.2278 16C14.2345 16 14.2413 16 14.2481 16C14.2549 16 14.2617 16 14.2685 16C14.2753 16 14.282 16 14.2888 16C14.2956 16 14.3024 16 14.3092 16C14.316 16 14.3227 16 14.3295 16C14.3363 16 14.3431 16 14.3498 16C14.3566 16 14.3634 16 14.3702 16C14.377 16 14.3837 16 14.3905 16C14.3973 16 14.404 16 14.4108 16C14.4176 16 14.4244 16 14.4311 16C14.4379 16 14.4447 16 14.4514 16C14.4582 16 14.465 16 14.4717 16C14.4785 16 14.4852 16 14.492 16C14.4988 16 14.5055 16 14.5123 16C14.519 16 14.5258 16 14.5325 16C14.5393 16 14.5461 16 14.5528 16C14.5596 16 14.5663 16 14.5731 16C14.5798 16 14.5866 16 14.5933 16C14.6001 16 14.6068 16 14.6135 16C14.6203 16 14.627 16 14.6338 16C14.6405 16 14.6473 16 14.654 16C14.6607 16 14.6675 16 14.6742 16C14.6809 16 14.6877 16 14.6944 16C14.7011 16 14.7079 16 14.7146 16C14.7213 16 14.7281 16 14.7348 16C14.7415 16 14.7482 16 14.755 16C14.7617 16 14.7684 16 14.7751 16C14.7818 16 14.7886 16 14.7953 16C14.802 16 14.8087 16 14.8154 16C14.8221 16 14.8288 16 14.8355 16C14.8423 16 14.849 16 14.8557 16C14.8624 16 14.8691 16 14.8758 16C14.8825 16 14.8892 16 14.8959 16C14.9026 16 14.9093 16 14.916 16C14.9227 16 14.9294 16 14.936 16C14.9427 16 14.9494 16 14.9561 16C14.9628 16 14.9695 16 14.9762 16C14.9828 16 14.9895 16 14.9962 16C15.0029 16 15.0096 16 15.0162 16C15.0229 16 15.0296 16 15.0363 16C15.0429 16 15.0496 16 15.0563 16C15.0629 16 15.0696 16 15.0762 16C15.0829 16 15.0896 16 15.0962 16C15.1029 16 15.1095 16 15.1162 16C15.1228 16 15.1295 16 15.1362 16C15.1428 16 15.1494 16 15.1561 16C15.1627 16 15.1694 16 15.176 16C15.1827 16 15.1893 16 15.1959 16C15.2026 16 15.2092 16 15.2158 16C15.2225 16 15.2291 16 15.2357 16C15.2423 16 15.249 16 15.2556 16C15.2622 16 15.2688 16 15.2754 16C15.2821 16 15.2887 16 15.2953 16C15.3019 16 15.3085 16 15.3151 16C15.3217 16 15.3283 16 15.3349 16C15.3415 16 15.3481 16 15.3547 16C15.3613 16 15.3679 16 15.3745 16C15.3811 16 15.3877 16 15.3943 16C15.4009 16 15.4075 16 15.414 16C15.4206 16 15.4272 16 15.4338 16C15.4404 16 15.4469 16 15.4535 16C15.4601 16 15.4666 16 15.4732 16C15.4798 16 15.4863 16 15.4929 16C15.4994 16 15.506 16 15.5126 16C15.5191 16 15.5257 16 15.5322 16C15.5388 16 15.5453 16 15.5519 16C15.5584 16 15.5649 16 15.5715 16C15.578 16 15.5846 16 15.5911 16C15.5976 16 15.6041 16 15.6107 16C15.6172 16 15.6237 16 15.6302 16C15.6368 16 15.6433 16 15.6498 16C15.6563 16 15.6628 16 15.6693 16C15.6758 16 15.6823 16 15.6888 16C15.6954 16 15.7019 16 15.7083 16C15.7148 16 15.7213 16 15.7278 16C15.7343 16 15.7408 16 15.7473 16C15.7538 16 15.7603 16 15.7667 16C15.7732 16 15.7797 16 15.7862 16C15.7926 16 15.7991 16 15.8056 16C15.812 16 15.8185 16 15.825 16C15.8314 16 15.8379 16 15.8443 16C15.8508 16 15.8572 16 15.8637 16C15.8701 16 15.8766 16 15.883 16C15.8894 16 15.8959 16 15.9023 16C15.9087 16 15.9152 16 15.9216 16C15.928 16 15.9344 16 15.9409 16C15.9473 16 15.9537 16 15.9601 16C15.9665 16 15.9729 16 15.9793 16C15.9857 16 15.9921 16 15.9985 16C16.0049 16 16.0113 16 16.0177 16C16.0241 16 16.0305 16 16.0369 16C16.0433 16 16.0497 16 16.056 16C16.0624 16 16.0688 16 16.0752 16C16.0815 16 16.0879 16 16.0943 16C16.1006 16 16.107 16 16.1133 16C16.1197 16 16.126 16 16.1324 16C16.1387 16 16.1451 16 16.1514 16C16.1578 16 16.1641 16 16.1704 16C16.1768 16 16.1831 16 16.1894 16C16.1957 16 16.2021 16 16.2084 16C16.2147 16 16.221 16 16.2273 16C16.2336 16 16.2399 16 16.2462 16C16.2526 16 16.2589 16 16.2651 16C16.2714 16 16.2777 16 16.284 16C16.2903 16 16.2966 16 16.3029 16C16.3091 16 16.3154 16 16.3217 16C16.328 16 16.3342 16 16.3405 16C16.3468 16 16.353 16 16.3593 16C16.3655 16 16.3718 16 16.378 16C16.3843 16 16.3905 16 16.3968 16C16.403 16 16.4092 16 16.4155 16C16.4217 16 16.4279 16 16.4341 16C16.4404 16 16.4466 16 16.4528 16C16.459 16 16.4652 16 16.4714 16C16.4776 16 16.4838 16 16.49 16C16.4962 16 16.5024 16 16.5086 16C16.5148 16 16.521 16 16.5272 16C16.5334 16 16.5395 16 16.5457 16C16.5519 16 16.558 16 16.5642 16C16.5704 16 16.5765 16 16.5827 16C16.5888 16 16.595 16 16.6011 16C16.6073 16 16.6134 16 16.6195 16C16.6257 16 16.6318 16 16.6379 16C16.6441 16 16.6502 16 16.6563 16C16.6624 16 16.6685 16 16.6747 16C16.6808 16 16.6869 16 16.693 16C16.6991 16 16.7052 16 16.7113 16C16.7174 16 16.7234 16 16.7295 16C16.7356 16 16.7417 16 16.7478 16C16.7538 16 16.7599 16 16.766 16C16.772 16 16.7781 16 16.7841 16C16.7902 16 16.7962 16 16.8023 16C16.8083 16 16.8144 16 16.8204 16C16.8264 16 16.8325 16 16.8385 16C16.8445 16 16.8505 16 16.8566 16C16.8626 16 16.8686 16 16.8746 16C16.8806 16 16.8866 16 16.8926 16C16.8986 16 16.9046 16 16.9106 16C16.9166 16 16.9225 16 16.9285 16C16.9345 16 16.9405 16 16.9464 16C16.9524 16 16.9584 16 16.9643 16C16.9703 16 16.9762 16 16.9822 16C16.9881 16 16.9941 16 17 16V14C16.9941 14 16.9881 14 16.9822 14C16.9762 14 16.9703 14 16.9643 14C16.9584 14 16.9524 14 16.9464 14C16.9405 14 16.9345 14 16.9285 14C16.9225 14 16.9166 14 16.9106 14C16.9046 14 16.8986 14 16.8926 14C16.8866 14 16.8806 14 16.8746 14C16.8686 14 16.8626 14 16.8566 14C16.8505 14 16.8445 14 16.8385 14C16.8325 14 16.8264 14 16.8204 14C16.8144 14 16.8083 14 16.8023 14C16.7962 14 16.7902 14 16.7841 14C16.7781 14 16.772 14 16.766 14C16.7599 14 16.7538 14 16.7478 14C16.7417 14 16.7356 14 16.7295 14C16.7234 14 16.7174 14 16.7113 14C16.7052 14 16.6991 14 16.693 14C16.6869 14 16.6808 14 16.6747 14C16.6685 14 16.6624 14 16.6563 14C16.6502 14 16.6441 14 16.6379 14C16.6318 14 16.6257 14 16.6195 14C16.6134 14 16.6073 14 16.6011 14C16.595 14 16.5888 14 16.5827 14C16.5765 14 16.5704 14 16.5642 14C16.558 14 16.5519 14 16.5457 14C16.5395 14 16.5334 14 16.5272 14C16.521 14 16.5148 14 16.5086 14C16.5024 14 16.4962 14 16.49 14C16.4838 14 16.4776 14 16.4714 14C16.4652 14 16.459 14 16.4528 14C16.4466 14 16.4404 14 16.4341 14C16.4279 14 16.4217 14 16.4155 14C16.4092 14 16.403 14 16.3968 14C16.3905 14 16.3843 14 16.378 14C16.3718 14 16.3655 14 16.3593 14C16.353 14 16.3468 14 16.3405 14C16.3342 14 16.328 14 16.3217 14C16.3154 14 16.3091 14 16.3029 14C16.2966 14 16.2903 14 16.284 14C16.2777 14 16.2714 14 16.2651 14C16.2589 14 16.2526 14 16.2462 14C16.2399 14 16.2336 14 16.2273 14C16.221 14 16.2147 14 16.2084 14C16.2021 14 16.1957 14 16.1894 14C16.1831 14 16.1768 14 16.1704 14C16.1641 14 16.1578 14 16.1514 14C16.1451 14 16.1387 14 16.1324 14C16.126 14 16.1197 14 16.1133 14C16.107 14 16.1006 14 16.0943 14C16.0879 14 16.0815 14 16.0752 14C16.0688 14 16.0624 14 16.056 14C16.0497 14 16.0433 14 16.0369 14C16.0305 14 16.0241 14 16.0177 14C16.0113 14 16.0049 14 15.9985 14C15.9921 14 15.9857 14 15.9793 14C15.9729 14 15.9665 14 15.9601 14C15.9537 14 15.9473 14 15.9409 14C15.9344 14 15.928 14 15.9216 14C15.9152 14 15.9087 14 15.9023 14C15.8959 14 15.8894 14 15.883 14C15.8766 14 15.8701 14 15.8637 14C15.8572 14 15.8508 14 15.8443 14C15.8379 14 15.8314 14 15.825 14C15.8185 14 15.812 14 15.8056 14C15.7991 14 15.7926 14 15.7862 14C15.7797 14 15.7732 14 15.7667 14C15.7603 14 15.7538 14 15.7473 14C15.7408 14 15.7343 14 15.7278 14C15.7213 14 15.7148 14 15.7083 14C15.7019 14 15.6954 14 15.6888 14C15.6823 14 15.6758 14 15.6693 14C15.6628 14 15.6563 14 15.6498 14C15.6433 14 15.6368 14 15.6302 14C15.6237 14 15.6172 14 15.6107 14C15.6041 14 15.5976 14 15.5911 14C15.5846 14 15.578 14 15.5715 14C15.5649 14 15.5584 14 15.5519 14C15.5453 14 15.5388 14 15.5322 14C15.5257 14 15.5191 14 15.5126 14C15.506 14 15.4994 14 15.4929 14C15.4863 14 15.4798 14 15.4732 14C15.4666 14 15.4601 14 15.4535 14C15.4469 14 15.4404 14 15.4338 14C15.4272 14 15.4206 14 15.414 14C15.4075 14 15.4009 14 15.3943 14C15.3877 14 15.3811 14 15.3745 14C15.3679 14 15.3613 14 15.3547 14C15.3481 14 15.3415 14 15.3349 14C15.3283 14 15.3217 14 15.3151 14C15.3085 14 15.3019 14 15.2953 14C15.2887 14 15.2821 14 15.2754 14C15.2688 14 15.2622 14 15.2556 14C15.249 14 15.2423 14 15.2357 14C15.2291 14 15.2225 14 15.2158 14C15.2092 14 15.2026 14 15.1959 14C15.1893 14 15.1827 14 15.176 14C15.1694 14 15.1627 14 15.1561 14C15.1494 14 15.1428 14 15.1362 14C15.1295 14 15.1228 14 15.1162 14C15.1095 14 15.1029 14 15.0962 14C15.0896 14 15.0829 14 15.0762 14C15.0696 14 15.0629 14 15.0563 14C15.0496 14 15.0429 14 15.0363 14C15.0296 14 15.0229 14 15.0162 14C15.0096 14 15.0029 14 14.9962 14C14.9895 14 14.9828 14 14.9762 14C14.9695 14 14.9628 14 14.9561 14C14.9494 14 14.9427 14 14.936 14C14.9294 14 14.9227 14 14.916 14C14.9093 14 14.9026 14 14.8959 14C14.8892 14 14.8825 14 14.8758 14C14.8691 14 14.8624 14 14.8557 14C14.849 14 14.8423 14 14.8355 14C14.8288 14 14.8221 14 14.8154 14C14.8087 14 14.802 14 14.7953 14C14.7886 14 14.7818 14 14.7751 14C14.7684 14 14.7617 14 14.755 14C14.7482 14 14.7415 14 14.7348 14C14.7281 14 14.7213 14 14.7146 14C14.7079 14 14.7011 14 14.6944 14C14.6877 14 14.6809 14 14.6742 14C14.6675 14 14.6607 14 14.654 14C14.6473 14 14.6405 14 14.6338 14C14.627 14 14.6203 14 14.6135 14C14.6068 14 14.6001 14 14.5933 14C14.5866 14 14.5798 14 14.5731 14C14.5663 14 14.5596 14 14.5528 14C14.5461 14 14.5393 14 14.5325 14C14.5258 14 14.519 14 14.5123 14C14.5055 14 14.4988 14 14.492 14C14.4852 14 14.4785 14 14.4717 14C14.465 14 14.4582 14 14.4514 14C14.4447 14 14.4379 14 14.4311 14C14.4244 14 14.4176 14 14.4108 14C14.404 14 14.3973 14 14.3905 14C14.3837 14 14.377 14 14.3702 14C14.3634 14 14.3566 14 14.3498 14C14.3431 14 14.3363 14 14.3295 14C14.3227 14 14.316 14 14.3092 14C14.3024 14 14.2956 14 14.2888 14C14.282 14 14.2753 14 14.2685 14C14.2617 14 14.2549 14 14.2481 14C14.2413 14 14.2345 14 14.2278 14C14.221 14 14.2142 14 14.2074 14C14.2006 14 14.1938 14 14.187 14C14.1802 14 14.1734 14 14.1666 14C14.1598 14 14.153 14 14.1462 14C14.1394 14 14.1327 14 14.1259 14C14.1191 14 14.1123 14 14.1055 14C14.0987 14 14.0919 14 14.0851 14C14.0783 14 14.0715 14 14.0647 14C14.0579 14 14.0511 14 14.0443 14C14.0375 14 14.0306 14 14.0238 14C14.017 14 14.0102 14 14.0034 14C13.9966 14 13.9898 14 13.983 14C13.9762 14 13.9694 14 13.9626 14C13.9558 14 13.949 14 13.9422 14C13.9354 14 13.9286 14 13.9217 14C13.9149 14 13.9081 14 13.9013 14C13.8945 14 13.8877 14 13.8809 14C13.8741 14 13.8673 14 13.8604 14C13.8536 14 13.8468 14 13.84 14C13.8332 14 13.8264 14 13.8196 14C13.8128 14 13.8059 14 13.7991 14C13.7923 14 13.7855 14 13.7787 14C13.7719 14 13.7651 14 13.7582 14C13.7514 14 13.7446 14 13.7378 14C13.731 14 13.7242 14 13.7174 14C13.7105 14 13.7037 14 13.6969 14C13.6901 14 13.6833 14 13.6765 14C13.6696 14 13.6628 14 13.656 14C13.6492 14 13.6424 14 13.6356 14C13.6287 14 13.6219 14 13.6151 14C13.6083 14 13.6015 14 13.5947 14C13.5878 14 13.581 14 13.5742 14C13.5674 14 13.5606 14 13.5538 14C13.5469 14 13.5401 14 13.5333 14C13.5265 14 13.5197 14 13.5129 14C13.506 14 13.4992 14 13.4924 14C13.4856 14 13.4788 14 13.472 14C13.4652 14 13.4583 14 13.4515 14C13.4447 14 13.4379 14 13.4311 14C13.4243 14 13.4174 14 13.4106 14C13.4038 14 13.397 14 13.3902 14C13.3834 14 13.3766 14 13.3698 14C13.3629 14 13.3561 14 13.3493 14C13.3425 14 13.3357 14 13.3289 14C13.3221 14 13.3153 14 13.3084 14C13.3016 14 13.2948 14 13.288 14C13.2812 14 13.2744 14 13.2676 14C13.2608 14 13.254 14 13.2472 14C13.2403 14 13.2335 14 13.2267 14C13.2199 14 13.2131 14 13.2063 14C13.1995 14 13.1927 14 13.1859 14C13.1791 14 13.1723 14 13.1655 14C13.1587 14 13.1519 14 13.1451 14C13.1383 14 13.1315 14 13.1247 14C13.1179 14 13.1111 14 13.1043 14C13.0975 14 13.0907 14 13.0839 14C13.0771 14 13.0703 14 13.0635 14C13.0567 14 13.0499 14 13.0431 14C13.0363 14 13.0295 14 13.0227 14C13.0159 14 13.0091 14 13.0023 14C12.9955 14 12.9887 14 12.982 14C12.9752 14 12.9684 14 12.9616 14C12.9548 14 12.948 14 12.9412 14C12.9344 14 12.9277 14 12.9209 14C12.9141 14 12.9073 14 12.9005 14C12.8937 14 12.887 14 12.8802 14C12.8734 14 12.8666 14 12.8598 14C12.8531 14 12.8463 14 12.8395 14C12.8327 14 12.826 14 12.8192 14C12.8124 14 12.8056 14 12.7989 14C12.7921 14 12.7853 14 12.7785 14C12.7718 14 12.765 14 12.7582 14C12.7515 14 12.7447 14 12.7379 14C12.7312 14 12.7244 14 12.7177 14C12.7109 14 12.7041 14 12.6974 14C12.6906 14 12.6838 14 12.6771 14C12.6703 14 12.6636 14 12.6568 14C12.6501 14 12.6433 14 12.6366 14C12.6298 14 12.6231 14 12.6163 14C12.6096 14 12.6028 14 12.5961 14C12.5893 14 12.5826 14 12.5758 14C12.5691 14 12.5623 14 12.5556 14C12.5489 14 12.5421 14 12.5354 14C12.5287 14 12.5219 14 12.5152 14C12.5084 14 12.5017 14 12.495 14C12.4883 14 12.4815 14 12.4748 14C12.4681 14 12.4613 14 12.4546 14C12.4479 14 12.4412 14 12.4344 14C12.4277 14 12.421 14 12.4143 14C12.4076 14 12.4009 14 12.3941 14C12.3874 14 12.3807 14 12.374 14C12.3673 14 12.3606 14 12.3539 14C12.3472 14 12.3405 14 12.3338 14C12.327 14 12.3203 14 12.3136 14C12.3069 14 12.3002 14 12.2935 14C12.2869 14 12.2802 14 12.2735 14C12.2668 14 12.2601 14 12.2534 14C12.2467 14 12.24 14 12.2333 14C12.2266 14 12.22 14 12.2133 14C12.2066 14 12.1999 14 12.1932 14C12.1866 14 12.1799 14 12.1732 14C12.1665 14 12.1599 14 12.1532 14C12.1465 14 12.1399 14 12.1332 14C12.1265 14 12.1199 14 12.1132 14C12.1065 14 12.0999 14 12.0932 14C12.0866 14 12.0799 14 12.0733 14C12.0666 14 12.06 14 12.0533 14C12.0467 14 12.04 14 12.0334 14C12.0267 14 12.0201 14 12.0135 14C12.0068 14 12.0002 14 11.9935 14C11.9869 14 11.9803 14 11.9737 14C11.967 14 11.9604 14 11.9538 14C11.9471 14 11.9405 14 11.9339 14C11.9273 14 11.9207 14 11.914 14C11.9074 14 11.9008 14 11.8942 14C11.8876 14 11.881 14 11.8744 14C11.8678 14 11.8612 14 11.8546 14C11.848 14 11.8414 14 11.8348 14C11.8282 14 11.8216 14 11.815 14C11.8084 14 11.8018 14 11.7952 14C11.7887 14 11.7821 14 11.7755 14C11.7689 14 11.7623 14 11.7558 14C11.7492 14 11.7426 14 11.736 14C11.7295 14 11.7229 14 11.7163 14C11.7098 14 11.7032 14 11.6967 14C11.6901 14 11.6835 14 11.677 14C11.6704 14 11.6639 14 11.6573 14C11.6508 14 11.6442 14 11.6377 14C11.6312 14 11.6246 14 11.6181 14C11.6115 14 11.605 14 11.5985 14C11.592 14 11.5854 14 11.5789 14C11.5724 14 11.5659 14 11.5593 14C11.5528 14 11.5463 14 11.5398 14C11.5333 14 11.5268 14 11.5203 14C11.5138 14 11.5072 14 11.5007 14C11.4942 14 11.4877 14 11.4813 14C11.4748 14 11.4683 14 11.4618 14C11.4553 14 11.4488 14 11.4423 14C11.4358 14 11.4294 14 11.4229 14C11.4164 14 11.4099 14 11.4035 14C11.397 14 11.3905 14 11.3841 14C11.3776 14 11.3711 14 11.3647 14C11.3582 14 11.3518 14 11.3453 14C11.3389 14 11.3324 14 11.326 14C11.3195 14 11.3131 14 11.3067 14C11.3002 14 11.2938 14 11.2874 14C11.2809 14 11.2745 14 11.2681 14C11.2617 14 11.2552 14 11.2488 14C11.2424 14 11.236 14 11.2296 14C11.2232 14 11.2168 14 11.2104 14C11.2039 14 11.1975 14 11.1912 14C11.1848 14 11.1784 14 11.172 14C11.1656 14 11.1592 14 11.1528 14C11.1464 14 11.1401 14 11.1337 14C11.1273 14 11.1209 14 11.1146 14C11.1082 14 11.1018 14 11.0955 14C11.0891 14 11.0828 14 11.0764 14C11.07 14 11.0637 14 11.0573 14C11.051 14 11.0447 14 11.0383 14C11.032 14 11.0256 14 11.0193 14C11.013 14 11.0067 14 11.0003 14C10.994 14 10.9877 14 10.9814 14C10.9751 14 10.9687 14 10.9624 14C10.9561 14 10.9498 14 10.9435 14C10.9372 14 10.9309 14 10.9246 14C10.9183 14 10.9121 14 10.9058 14C10.8995 14 10.8932 14 10.8869 14C10.8806 14 10.8744 14 10.8681 14C10.8618 14 10.8556 14 10.8493 14C10.843 14 10.8368 14 10.8305 14C10.8243 14 10.818 14 10.8118 14C10.8055 14 10.7993 14 10.7931 14C10.7868 14 10.7806 14 10.7744 14C10.7681 14 10.7619 14 10.7557 14C10.7495 14 10.7433 14 10.737 14C10.7308 14 10.7246 14 10.7184 14C10.7122 14 10.706 14 10.6998 14C10.6936 14 10.6874 14 10.6813 14C10.6751 14 10.6689 14 10.6627 14C10.6565 14 10.6504 14 10.6442 14C10.638 14 10.6319 14 10.6257 14C10.6195 14 10.6134 14 10.6072 14C10.6011 14 10.5949 14 10.5888 14C10.5826 14 10.5765 14 10.5704 14C10.5642 14 10.5581 14 10.552 14C10.5459 14 10.5397 14 10.5336 14C10.5275 14 10.5214 14 10.5153 14C10.5092 14 10.5031 14 10.497 14C10.4909 14 10.4848 14 10.4787 14C10.4726 14 10.4665 14 10.4604 14C10.4544 14 10.4483 14 10.4422 14C10.4362 14 10.4301 14 10.424 14C10.418 14 10.4119 14 10.4059 14C10.3998 14 10.3938 14 10.3877 14C10.3817 14 10.3756 14 10.3696 14C10.3636 14 10.3575 14 10.3515 14C10.3455 14 10.3395 14 10.3335 14C10.3275 14 10.3214 14 10.3154 14C10.3094 14 10.3034 14 10.2974 14C10.2915 14 10.2855 14 10.2795 14C10.2735 14 10.2675 14 10.2615 14C10.2556 14 10.2496 14 10.2436 14C10.2377 14 10.2317 14 10.2258 14C10.2198 14 10.2139 14 10.2079 14C10.202 14 10.196 14 10.1901 14C10.1842 14 10.1782 14 10.1723 14C10.1664 14 10.1605 14 10.1546 14C10.1486 14 10.1427 14 10.1368 14C10.1309 14 10.125 14 10.1191 14C10.1132 14 10.1074 14 10.1015 14C10.0956 14 10.0897 14 10.0838 14C10.078 14 10.0721 14 10.0662 14C10.0604 14 10.0545 14 10.0487 14C10.0428 14 10.037 14 10.0311 14C10.0253 14 10.0195 14 10.0136 14C10.0078 14 10.002 14 9.99616 14C9.99034 14 9.98452 14 9.97872 14C9.97291 14 9.9671 14 9.96131 14C9.95551 14 9.94972 14 9.94393 14C9.93815 14 9.93237 14 9.92659 14C9.92081 14 9.91504 14 9.90928 14C9.90352 14 9.89776 14 9.892 14C9.88625 14 9.8805 14 9.87476 14C9.86902 14 9.86328 14 9.85755 14C9.85182 14 9.8461 14 9.84038 14C9.83466 14 9.82894 14 9.82324 14C9.81753 14 9.81182 14 9.80613 14C9.80043 14 9.79474 14 9.78905 14C9.78337 14 9.77769 14 9.77202 14C9.76634 14 9.76067 14 9.75501 14C9.74935 14 9.74369 14 9.73804 14C9.73239 14 9.72675 14 9.72111 14C9.71547 14 9.70984 14 9.70421 14C9.69858 14 9.69296 14 9.68734 14C9.68173 14 9.67612 14 9.67052 14C9.66491 14 9.65931 14 9.65372 14C9.64813 14 9.64255 14 9.63697 14C9.63139 14 9.62581 14 9.62024 14C9.61468 14 9.60912 14 9.60356 14C9.598 14 9.59245 14 9.58691 14C9.58137 14 9.57583 14 9.5703 14C9.56477 14 9.55924 14 9.55372 14C9.5482 14 9.54269 14 9.53719 14C9.53168 14 9.52618 14 9.52068 14C9.51519 14 9.5097 14 9.50422 14C9.49874 14 9.49326 14 9.48779 14C9.48232 14 9.47686 14 9.4714 14C9.46595 14 9.4605 14 9.45505 14C9.44961 14 9.44417 14 9.43874 14C9.43331 14 9.42788 14 9.42246 14C9.41704 14 9.41163 14 9.40623 14C9.40082 14 9.39542 14 9.39003 14C9.38463 14 9.37925 14 9.37387 14C9.36849 14 9.36311 14 9.35775 14C9.35238 14 9.34702 14 9.34166 14C9.33631 14 9.33096 14 9.32562 14C9.32028 14 9.31494 14 9.30962 14C9.30429 14 9.29897 14 9.29365 14C9.28834 14 9.28303 14 9.27773 14C9.27243 14 9.26713 14 9.26184 14C9.25655 14 9.25127 14 9.246 14C9.24072 14 9.23545 14 9.23019 14C9.22493 14 9.21968 14 9.21443 14C9.20918 14 9.20394 14 9.1987 14C9.19347 14 9.18824 14 9.18302 14C9.1778 14 9.17259 14 9.16738 14C9.16217 14 9.15697 14 9.15178 14C9.14658 14 9.1414 14 9.13622 14C9.13104 14 9.12587 14 9.1207 14C9.11553 14 9.11037 14 9.10522 14C9.10007 14 9.09493 14 9.08979 14C9.08465 14 9.07952 14 9.07439 14C9.06927 14 9.06415 14 9.05904 14C9.05393 14 9.04883 14 9.04374 14C9.03864 14 9.03355 14 9.02847 14C9.02339 14 9.01831 14 9.01325 14C9.00818 14 9.00312 14 8.99806 14C8.99301 14 8.98797 14 8.98293 14C8.97789 14 8.97286 14 8.96783 14C8.96281 14 8.95779 14 8.95278 14C8.94777 14 8.94277 14 8.93777 14C8.93278 14 8.92779 14 8.92281 14C8.91783 14 8.91285 14 8.90789 14C8.90292 14 8.89796 14 8.89301 14C8.88806 14 8.88312 14 8.87818 14C8.87324 14 8.86831 14 8.86339 14C8.85847 14 8.85356 14 8.84865 14C8.84374 14 8.83884 14 8.83395 14C8.82906 14 8.82417 14 8.8193 14C8.81442 14 8.80955 14 8.80469 14C8.79983 14 8.79497 14 8.79013 14C8.78528 14 8.78044 14 8.77561 14C8.77078 14 8.76595 14 8.76114 14C8.75632 14 8.75151 14 8.74671 14C8.74191 14 8.73712 14 8.73233 14C8.72754 14 8.72277 14 8.718 14C8.71322 14 8.70846 14 8.70371 14C8.69895 14 8.69421 14 8.68947 14C8.68473 14 8.67999 14 8.67527 14C8.67055 14 8.66583 14 8.66112 14C8.65641 14 8.65171 14 8.64702 14C8.64233 14 8.63765 14 8.63297 14C8.62829 14 8.62362 14 8.61896 14C8.6143 14 8.60965 14 8.605 14C8.60036 14 8.59572 14 8.59109 14C8.58646 14 8.58184 14 8.57723 14C8.57262 14 8.56801 14 8.56341 14C8.55882 14 8.55423 14 8.54965 14C8.54507 14 8.54049 14 8.53593 14C8.53136 14 8.52681 14 8.52226 14C8.51771 14 8.51317 14 8.50864 14C8.5041 14 8.49958 14 8.49506 14C8.49055 14 8.48604 14 8.48154 14C8.47704 14 8.47255 14 8.46807 14C8.46358 14 8.45911 14 8.45464 14C8.45018 14 8.44572 14 8.44127 14C8.43682 14 8.43238 14 8.42794 14C8.42351 14 8.41908 14 8.41467 14C8.41025 14 8.40584 14 8.40144 14C8.39704 14 8.39265 14 8.38827 14C8.38388 14 8.37951 14 8.37514 14C8.37078 14 8.36642 14 8.36207 14C8.35772 14 8.35338 14 8.34905 14C8.34471 14 8.34039 14 8.33608 14C8.33176 14 8.32745 14 8.32315 14C8.31886 14 8.31457 14 8.31029 14C8.306 14 8.30173 14 8.29747 14C8.2932 14 8.28895 14 8.2847 14C8.28046 14 8.27622 14 8.27199 14C8.26776 14 8.26354 14 8.25933 14C8.25511 14 8.25091 14 8.24672 14C8.24252 14 8.23834 14 8.23416 14C8.22998 14 8.22581 14 8.22165 14C8.2175 14 8.21334 14 8.2092 14C8.20506 14 8.20093 14 8.1968 14C8.19268 14 8.18856 14 8.18446 14C8.18035 14 8.17625 14 8.17217 14C8.16808 14 8.164 14 8.15993 14C8.15586 14 8.15179 14 8.14774 14C8.14369 14 8.13964 14 8.13561 14C8.13157 14 8.12755 14 8.12353 14C8.11952 14 8.11551 14 8.11151 14C8.10751 14 8.10352 14 8.09954 14C8.09556 14 8.09159 14 8.08763 14C8.08366 14 8.07971 14 8.07577 14C8.07182 14 8.06789 14 8.06396 14C8.06003 14 8.05612 14 8.05221 14C8.0483 14 8.0444 14 8.04052 14C8.03663 14 8.03275 14 8.02888 14C8.02501 14 8.02114 14 8.01729 14C8.01344 14 8.0096 14 8.00576 14C8.00193 14 7.99811 14 7.99429 14C7.99048 14 7.98667 14 7.98288 14C7.97908 14 7.97529 14 7.97152 14C7.96774 14 7.96397 14 7.96021 14C7.95645 14 7.9527 14 7.94897 14C7.94523 14 7.9415 14 7.93778 14C7.93405 14 7.93034 14 7.92664 14C7.92294 14 7.91925 14 7.91557 14C7.91188 14 7.90821 14 7.90455 14C7.90088 14 7.89723 14 7.89359 14C7.88994 14 7.88631 14 7.88268 14C7.87906 14 7.87544 14 7.87184 14C7.86823 14 7.86464 14 7.86105 14C7.85746 14 7.85389 14 7.85032 14C7.84675 14 7.8432 14 7.83965 14C7.8361 14 7.83256 14 7.82904 14C7.82551 14 7.82199 14 7.81848 14C7.81497 14 7.81148 14 7.80799 14V16ZM8.25623 14.7236L9.89443 11.4472L8.10557 10.5528L6.46738 13.8292L8.25623 14.7236ZM7.80799 14C8.18307 14 8.42094 14.3942 8.25623 14.7236L6.46738 13.8292C5.97022 14.8235 6.68953 16 7.80799 16V14ZM19.7135 7.80902C20.1291 6.97789 19.5247 6 18.5955 6V8C18.038 8 17.6753 7.41327 17.9247 6.91459L19.7135 7.80902ZM16.382 12C17.1395 12 17.832 11.572 18.1708 10.8944L16.382 10V12Z" fill="#212933"/>
<circle cx="7.5" cy="18.5" r="0.5" stroke="#212933" stroke-width="2"/>
<circle cx="16.5" cy="18.5" r="0.5" stroke="#212933" stroke-width="2" stroke-miterlimit="16"/>
<circle cx="16.5" cy="18.5" r="0.5" stroke="#212933" stroke-miterlimit="16"/>
<circle cx="7.5" cy="18.5" r="0.5" stroke="#212933" stroke-miterlimit="16"/>
</svg>
