<svg width="200" height="136" viewBox="0 0 200 136" xmlns="http://www.w3.org/2000/svg">
    <title>
        flag-us
    </title>
    <g fill="none" fill-rule="evenodd">
        <path d="M20 0h159c11.598 0 21 9.402 21 21v94c0 11.598-9.402 21-21 21H21c-11.598 0-21-9.402-21-21V20C0 8.954 8.954 0 20 0z" fill="#FFF"/>
        <path d="M197.327 10H100V0h80c7.404 0 13.869 4.022 17.327 10zM100 30.731h100v-10H100zM100 51.785h100v-10H100zM100 72.839h100v-10H100zM0 93.892h200v-10H0zM0 114.946h200v-10H0zM197.327 126H2.673c3.458 5.978 9.923 10 17.327 10h160c7.407 0 13.87-4.022 17.327-10z" fill="#FF2B2D"/>
        <path d="M0 72.839h100V0H19.996C8.953 0 0 8.95 0 20v52.839z" fill="#1A3179"/>
        <path d="M14.748 9.565a2.221 2.221 0 0 1-4.443 0 2.222 2.222 0 0 1 4.443 0M29.332 9.565a2.222 2.222 0 0 1-4.443 0 2.222 2.222 0 0 1 4.443 0M44.872 9.565a2.221 2.221 0 0 1-4.443 0 2.222 2.222 0 0 1 4.443 0M59.668 9.565a2.221 2.221 0 0 1-4.443 0 2.222 2.222 0 0 1 4.443 0M75.207 9.565a2.221 2.221 0 0 1-4.442 0 2.222 2.222 0 0 1 4.443 0M89.792 9.565a2.218 2.218 0 0 1-2.223 2.218 2.218 2.218 0 1 1 0-4.438c1.23 0 2.223.992 2.223 2.22M22.566 15.909a2.222 2.222 0 0 1-4.443 0c0-1.23.998-2.223 2.225-2.223 1.226 0 2.218.993 2.218 2.223M38.106 15.909a2.222 2.222 0 0 1-4.443 0c0-1.23.997-2.223 2.225-2.223 1.225 0 2.218.993 2.218 2.223M52.901 15.909a2.222 2.222 0 0 1-4.443 0c0-1.23.998-2.223 2.226-2.223 1.225 0 2.217.993 2.217 2.223M68.441 15.909A2.221 2.221 0 1 1 64 15.902a2.221 2.221 0 0 1 4.442.007M83.025 15.909a2.222 2.222 0 0 1-4.443 0c0-1.23.998-2.223 2.226-2.223 1.225 0 2.217.993 2.217 2.223M14.748 22.987a2.221 2.221 0 1 1-2.222-2.223c1.225 0 2.222.998 2.222 2.223M29.332 22.987a2.222 2.222 0 0 1-4.443 0 2.221 2.221 0 1 1 4.443 0M44.872 22.987a2.221 2.221 0 1 1-2.222-2.223c1.225 0 2.222.998 2.222 2.223M59.668 22.987a2.221 2.221 0 1 1-2.223-2.223c1.225 0 2.223.998 2.223 2.223M75.207 22.987a2.221 2.221 0 1 1-2.222-2.223c1.225 0 2.222.998 2.222 2.223M89.792 22.987a2.218 2.218 0 0 1-2.223 2.218 2.218 2.218 0 0 1-2.22-2.218 2.222 2.222 0 1 1 4.443 0M22.566 29.33a2.222 2.222 0 0 1-4.443 0c0-1.23.998-2.222 2.225-2.222 1.226 0 2.218.993 2.218 2.223M38.106 29.33a2.222 2.222 0 0 1-4.443 0c0-1.23.997-2.222 2.225-2.222 1.225 0 2.218.993 2.218 2.223M52.901 29.33a2.222 2.222 0 0 1-4.443 0c0-1.23.998-2.222 2.226-2.222 1.225 0 2.217.993 2.217 2.223M68.441 29.33A2.221 2.221 0 1 1 64 29.325a2.221 2.221 0 0 1 4.442.007M83.025 29.33a2.222 2.222 0 0 1-4.443 0c0-1.23.998-2.222 2.226-2.222 1.225 0 2.217.993 2.217 2.223M14.748 36.41a2.221 2.221 0 1 1-4.442-.008 2.221 2.221 0 0 1 4.442.007M29.332 36.41a2.222 2.222 0 0 1-4.443 0c0-1.23.998-2.223 2.225-2.223 1.226 0 2.218.992 2.218 2.222M44.872 36.41a2.221 2.221 0 1 1-4.442-.008 2.221 2.221 0 0 1 4.442.007M59.668 36.41a2.221 2.221 0 1 1-4.443-.008 2.221 2.221 0 0 1 4.443.007M75.207 36.41a2.221 2.221 0 1 1-4.442-.008 2.221 2.221 0 0 1 4.442.007M89.792 36.41a2.218 2.218 0 0 1-2.223 2.217 2.218 2.218 0 0 1-2.22-2.218c0-1.23.993-2.222 2.22-2.222a2.22 2.22 0 0 1 2.223 2.222M22.566 42.753c0 1.23-.992 2.22-2.218 2.22a2.22 2.22 0 1 1 2.218-2.22M38.106 42.753c0 1.23-.993 2.22-2.218 2.22a2.22 2.22 0 1 1 2.218-2.22M52.901 42.753a2.22 2.22 0 1 1-4.444-.001 2.22 2.22 0 0 1 4.444 0M68.441 42.753a2.22 2.22 0 0 1-2.222 2.22 2.22 2.22 0 1 1 0-4.44c1.225 0 2.222.992 2.222 2.22M83.025 42.753a2.22 2.22 0 1 1-4.444-.001 2.22 2.22 0 0 1 4.444 0M14.748 49.834a2.221 2.221 0 0 1-4.443 0 2.222 2.222 0 0 1 4.443 0M29.332 49.834a2.222 2.222 0 0 1-4.443 0 2.222 2.222 0 0 1 4.443 0M44.872 49.834a2.221 2.221 0 0 1-4.443 0 2.222 2.222 0 0 1 4.443 0M59.668 49.834a2.221 2.221 0 0 1-4.443 0 2.222 2.222 0 0 1 4.443 0M75.207 49.834a2.221 2.221 0 0 1-4.442 0 2.222 2.222 0 0 1 4.443 0M89.792 49.834a2.218 2.218 0 0 1-2.223 2.217 2.218 2.218 0 1 1 0-4.438c1.23 0 2.223.993 2.223 2.22M22.566 56.175a2.222 2.222 0 0 1-4.443 0c0-1.23.998-2.22 2.225-2.22 1.226 0 2.218.99 2.218 2.22M38.106 56.175a2.222 2.222 0 0 1-4.443 0c0-1.23.997-2.22 2.225-2.22 1.225 0 2.218.99 2.218 2.22M52.901 56.175c0 1.228-.992 2.22-2.217 2.22a2.22 2.22 0 0 1 0-4.44c1.225 0 2.217.99 2.217 2.22M68.441 56.175a2.222 2.222 0 0 1-4.442 0c0-1.23.997-2.22 2.22-2.22a2.22 2.22 0 0 1 2.222 2.22M83.025 56.175c0 1.228-.992 2.22-2.217 2.22a2.22 2.22 0 0 1 0-4.44c1.225 0 2.217.99 2.217 2.22M14.748 63.253a2.222 2.222 0 0 1-4.443 0 2.22 2.22 0 0 1 2.22-2.22c1.226 0 2.223.995 2.223 2.22M29.332 63.253a2.222 2.222 0 0 1-4.443 0c0-1.225.998-2.22 2.225-2.22a2.22 2.22 0 0 1 2.218 2.22M44.872 63.253a2.222 2.222 0 0 1-4.443 0 2.22 2.22 0 0 1 2.22-2.22c1.226 0 2.223.995 2.223 2.22M59.668 63.253a2.222 2.222 0 0 1-4.443 0 2.22 2.22 0 0 1 2.22-2.22c1.225 0 2.223.995 2.223 2.22M75.207 63.253a2.222 2.222 0 0 1-4.442 0 2.22 2.22 0 0 1 2.22-2.22c1.225 0 2.222.995 2.222 2.22M89.792 63.253c0 1.228-.993 2.22-2.223 2.22a2.22 2.22 0 1 1 0-4.44 2.22 2.22 0 0 1 2.223 2.22" fill="#FFF"/>
    </g>
</svg>
