<svg width="32" height="23" viewBox="0 0 32 23" xmlns="http://www.w3.org/2000/svg">
    <title>
        Visa Electron
    </title>
    <g fill="none" fill-rule="evenodd">
        <path fill="#F8B600" d="M2.115 18.182h29.877v2.703H2.115z"/>
        <path fill="#1A1F71" d="M2.115 2.11h29.877v2.702H2.115zM14.074 7.79l-3.086 7.43H8.975L7.456 9.29c-.092-.364-.172-.498-.452-.652-.458-.251-1.215-.486-1.88-.632l.046-.216h3.24c.414 0 .785.278.88.757l.802 4.3 1.981-5.057h2.001zm7.89 5.004c.008-1.96-2.687-2.07-2.669-2.945.006-.266.257-.55.808-.622.273-.036 1.025-.065 1.878.332l.334-1.576a5.093 5.093 0 0 0-1.782-.328c-1.883 0-3.207 1.009-3.218 2.455-.012 1.07.946 1.666 1.667 2.023.743.364.992.597.988.923-.005.498-.593.719-1.14.727-.957.015-1.513-.261-1.955-.47l-.346 1.63c.446.205 1.267.384 2.117.393 2.002 0 3.311-.997 3.317-2.542zm4.972 2.426h1.76l-1.538-7.43h-1.624a.867.867 0 0 0-.812.545l-2.858 6.885h2l.398-1.11h2.443l.23 1.11zm-2.126-2.632l1.002-2.79.577 2.79h-1.58zM16.796 7.79l-1.575 7.43h-1.905l1.575-7.43h1.905zM19.506 15.793h1.364v.227h-1.117v.563h1.033v.214h-1.033v.629h1.136v.22h-1.383v-1.853zm1.69 0h.23v1.853h-.23v-1.853zm1.423.54c.09.044.16.102.207.174a.6.6 0 0 1 .092.238c.013.063.02.162.02.298h-1a.575.575 0 0 0 .099.33c.061.083.156.125.284.125a.369.369 0 0 0 .373-.276h.225a.468.468 0 0 1-.059.166.535.535 0 0 1-.371.286.792.792 0 0 1-.187.02.577.577 0 0 1-.432-.183c-.118-.123-.177-.294-.177-.514 0-.218.06-.394.178-.53a.59.59 0 0 1 .466-.202c.097 0 .19.022.282.067zm.084.53a.585.585 0 0 0-.065-.236c-.063-.11-.168-.164-.315-.164a.35.35 0 0 0-.264.113.425.425 0 0 0-.114.287h.758zm1.417-.496c.097.074.155.201.174.382h-.223a.406.406 0 0 0-.093-.207c-.048-.056-.126-.083-.233-.083-.146 0-.25.07-.313.212a.836.836 0 0 0-.06.34c0 .135.028.249.086.341.057.093.148.14.272.14a.3.3 0 0 0 .226-.087.474.474 0 0 0 .115-.237h.223c-.025.18-.09.31-.19.393a.6.6 0 0 1-.392.125.524.524 0 0 1-.426-.194.737.737 0 0 1-.16-.484c0-.237.059-.422.175-.554a.566.566 0 0 1 .444-.198c.154 0 .279.037.375.11zm.449-.45h.232v.378h.217v.185h-.217v.882c0 .048.016.08.048.095.018.01.048.014.09.014a1.084 1.084 0 0 0 .08-.004v.18a.515.515 0 0 1-.083.016.787.787 0 0 1-.092.005c-.107 0-.18-.027-.218-.082a.36.36 0 0 1-.057-.21v-.896h-.185v-.185h.185v-.377zm.685.378h.218v.233a.516.516 0 0 1 .13-.166.342.342 0 0 1 .263-.096l.052.005v.24a.345.345 0 0 0-.075-.007c-.115 0-.204.037-.266.11a.383.383 0 0 0-.093.255v.777h-.23v-1.351zm1.715 1.034a.846.846 0 0 0 .085-.38.672.672 0 0 0-.061-.308c-.065-.125-.176-.187-.334-.187-.14 0-.242.053-.305.159a.732.732 0 0 0-.096.384c0 .143.032.263.096.36.063.095.164.143.303.143.152 0 .256-.057.312-.171zm.142-.9c.122.117.182.288.182.513a.874.874 0 0 1-.16.54c-.107.143-.273.214-.498.214a.564.564 0 0 1-.447-.189c-.11-.126-.165-.295-.165-.507 0-.227.058-.408.174-.542a.588.588 0 0 1 .469-.202.62.62 0 0 1 .445.174zm.455-.134h.217v.192a.61.61 0 0 1 .205-.17.55.55 0 0 1 .241-.052c.194 0 .324.066.392.2a.707.707 0 0 1 .056.314v.867h-.233v-.851a.458.458 0 0 0-.037-.2c-.04-.084-.114-.126-.221-.126a.455.455 0 0 0-.134.016.344.344 0 0 0-.165.111.333.333 0 0 0-.075.139.922.922 0 0 0-.017.203v.708h-.23v-1.351z"/>
    </g>
</svg>
