<svg width="24" height="24" viewBox="0 0 24 24" fill="none" xmlns="http://www.w3.org/2000/svg">
<path d="M3 7L2.72528 6.03848L2 6.2457V7H3ZM15.7253 3.36421L15.4506 2.40268L15.7253 3.36421ZM2 7V19H4V7H2ZM4 21H20V19H4V21ZM22 19V8H20V19H22ZM20 6H17V8H20V6ZM17 6H3V8H17V6ZM18 7V4.32573H16V7H18ZM15.4506 2.40268L2.72528 6.03848L3.27472 7.96152L16 4.32573L15.4506 2.40268ZM18 4.32573C18 2.99697 16.7282 2.03764 15.4506 2.40268L16 4.32573V4.32573H18ZM22 8C22 6.89543 21.1046 6 20 6V8H22ZM20 21C21.1046 21 22 20.1046 22 19H20V21ZM2 19C2 20.1046 2.89543 21 4 21V19H2Z" fill="#212933"/>
<path d="M17 11.5H20C20.5523 11.5 21 11.9477 21 12.5V14.5C21 15.0523 20.5523 15.5 20 15.5H17C16.4477 15.5 16 15.0523 16 14.5V12.5C16 11.9477 16.4477 11.5 17 11.5Z" stroke="#212933" stroke-width="2"/>
</svg>
