<svg xmlns="http://www.w3.org/2000/svg" width="241" height="241" fill="none" viewBox="0 0 241 241">
    <path fill="#1e1c1c" d="M192.266 192.505c-.005-.903.026-1.807-.025-2.704-.159-2.608-.317-5.21-.531-7.812-.128-1.525-.332-3.04-.556-4.556-.118-.78-.658-1.285-1.408-1.484-.602-.159-1.235-.225-1.863-.296-.892-.108-1.79-.179-2.683-.276-.301-.036-.689-.428-.73-.709-.025-.174-.056-.352-.066-.536-.225-2.964-.674-5.898-1.118-8.836-.826-5.455-2.168-10.761-4.244-15.873-.919-2.265-2.041-4.413-3.786-6.168-.505-.51-1.041-.98-1.592-1.49 0-3.275-.025-6.245.005-9.219.072-6.123.214-12.245.245-18.368.082-15.673.102-31.346.393-47.02.036-1.821-.27-3.581-.867-5.3-.567-1.623-1.613-2.797-3.255-3.373a37 37 0 0 0-2.057-.663c-2.423-.694-4.841-1.388-7.27-2.067-1.128-.311-2.25-.653-3.398-.862-2.842-.515-5.612-1.28-8.362-2.143-3.26-1.02-6.531-2.025-9.77-3.122-4.097-1.393-8.327-2.291-12.46-3.551-.408-.128-.903-.123-1.326-.03-1.194.244-2.153.872-2.791 1.943-.377.633-.638 1.296-.689 2.03-.086 1.164-.127 2.332-.25 3.496-.02.198-.316.484-.53.525-.521.097-1.072.097-1.607.102-6.398.04-12.791.071-19.184.107-.633.005-1.265-.01-1.893.03-1.367.077-2.388.766-3.046 1.94-.617 1.107-1.061 2.28-1.117 3.576-.102 2.337-.27 4.673-.316 7.015-.103 5.041-.153 10.087-.22 15.128-.04 3.153 0 6.306-.285 9.454-.067.714-.052 1.439-.062 2.158-.102 6.393-.194 12.791-.3 19.184a21 21 0 0 1-.18 2.418c-.076.566-.423.979-1 1.158-.346.102-.688.204-1.035.301-7.546 2.097-15.092 4.189-22.628 6.301a8.2 8.2 0 0 0-1.98.827c-.994.581-1.52 1.495-1.57 2.673-.036.821.096 1.602.336 2.388.908 3.015 1.78 6.046 2.653 9.071.072.255.112.536.072.796-.016.123-.24.301-.373.301-.357 0-.72-.051-1.066-.138-1.929-.495-3.908-.658-5.883-.775-3.285-.204-6.76 1.719-8.321 4.561-.388.699-.725 1.459-.924 2.235-.653 2.52-1.306 5.041-1.53 7.658-.24 2.78-.582 5.551-.908 8.321-.48 3.99-.174 7.913.995 11.75.73 2.408 1.51 4.806 2.449 7.148 1.77 4.429 3.51 8.873 5.26 13.306.311.791.194 1.148-.51 1.572-.694.413-1.419.785-2.082 1.245-.434.306-.811.709-1.153 1.122-.225.275-.322.643-.143 1.01a29.2 29.2 0 0 1 2.357 6.878c.52 2.474 1.296 4.862 2.148 7.234.087.255.163.516.286.755.398.766.974 1.286 1.888 1.307.54.015 1.081.051 1.622.056 7.117.046 14.23.076 21.347.122 8.464.051 16.928.112 25.398.163a8.5 8.5 0 0 0 1.607-.127c.24-.041.439-.271.724-.464-.24-.506-.459-.99-.694-1.465-1.005-2.015-1.852-4.086-2.459-6.27-1.352-4.852-2.704-9.709-4.245-14.505a162 162 0 0 0-1.576-4.592c-.572-1.612-1.735-2.469-3.434-2.592a29 29 0 0 0-1.622-.046c-3.097-.02-2.46.337-3.577-2.505-.235-.587-.413-1.189-.602-1.791q-1.317-4.253-2.612-8.515c-.153-.505-.25-1.025-.362-1.495.367-.326.724-.275 1.081-.296 2.087-.122 3.561-1.112 4.322-3.092.127-.331.22-.693.75-.892 2.194.046 4.53.107 6.867.143 5.49.081 10.985.153 16.48.229.27.005.54-.005.811.026.816.091 1.316.168 1.433 1.229.092.806.225 1.618.46 2.388.918 3.015 2.76 4.184 5.54 4.179.271-.006.536-.031.807-.062a95 95 0 0 0 10.387-1.704c.26-.061.546-.173.786-.127.23.051.51.234.612.438.158.312.22.684.26 1.036.352 3.041.704 6.077 1.036 9.117.077.71.225 1.429-.076 2.21-.245.163-.536.372-.842.551-.541.316-1.102.607-1.648.923-1.194.704-1.847 1.679-1.602 3.128.076.443.041.908.132 1.341.271 1.245.266 2.506.291 3.766.026.995.061 1.984.092 2.974.117 3.873.128 7.74-.474 11.582-.097.622-.092 1.26-.108 1.888-.015.423.398.903.801.949.358.04.715.091 1.072.091 2.612 0 5.224-.015 7.837-.02 7.658-.015 15.311-.02 22.969-.041 6.306-.025 12.607-.066 18.913-.107.449 0 .903-.01 1.342-.097.24-.051.5-.224.653-.418.398-.495.719-1.062.76-1.704.174-2.516.633-5.005.633-7.531 0-3.24-.021-6.485-.036-9.724m-97.642-86.204c.23-7.464.413-14.934.5-22.403.071-6.21.306-12.413.464-18.622.04-1.531.036-3.062.097-4.587.046-1.174.25-2.322.78-3.393.43-.862 1.031-1.449 2.046-1.54.628-.062 1.25-.22 1.863.004.122.046.29.286.26.373-.204.592-.49 1.153-.674 1.745-.597 1.908-.724 3.887-.76 5.867-.189 10.163-.342 20.332-.505 30.5-.051 3.24-.092 6.479-.153 9.719a1755 1755 0 0 1-.194 9.174c-.03 1.29-.138 1.418-1.5 1.826a10 10 0 0 1-1.306.306c-.255.036-.52-.041-.867-.076-.051-.546-.148-1.077-.143-1.602.015-2.434.02-4.863.092-7.291m-38.816 91.061c.045-.158.081-.373.199-.449.602-.383 1.219-.75 1.846-1.082.475-.25 1.056-.051 1.373.464.133.22.214.495.24.75.015.143-.108.388-.225.434-.842.316-1.72.469-2.592.398-.122-.02-.209-.036-.3-.041-.281-.025-.598-.291-.541-.474m45.229-9.204c.168.418.347.831.49 1.26.229.678.444 1.367.653 2.056 1.296 4.301 2.678 8.576 3.801 12.928.653 2.516 1.342 5.046 2.566 7.373.082.158.112.342.174.51.142.378-.067.791-.419.801-.719.021-1.439.041-2.158.036-5.133-.005-10.26-.005-15.388-.031-6.03-.03-12.056-.097-18.086-.138-3.235-.02-6.475-.02-9.715-.045-.806-.006-1.617-.072-2.423-.128a.96.96 0 0 1-.821-.617 85 85 0 0 1-1.398-3.796c-.23-.679-.383-1.383-.546-2.087-.45-1.923-.863-3.857-1.562-5.714-.153-.408-.3-.847-.01-1.311.24-.041.505-.128.766-.118 2.898.123 5.75-.316 8.576-.816 8.423-1.48 16.704-3.561 24.796-6.337 3.321-1.138 6.602-2.382 9.622-4.209.449-.27.883-.097 1.082.383m-5.296-2.056c.944-.307 1.918-.424 2.908-.409.25.026.633.352.567.5a3.4 3.4 0 0 1-.245.449.6.6 0 0 1-.205.169c-.627.352-1.25.714-1.887 1.041-.562.285-1.005.091-1.25-.557a2.2 2.2 0 0 1-.143-.78c0-.143.132-.373.255-.413m-2.204-.164c.332.837.663 1.669 1.005 2.541-.107.449-.505.663-.928.811-2.888.995-5.766 2.026-8.68 2.959-4.968 1.597-10.045 2.812-15.147 3.893-2.286.485-4.602.827-6.908 1.215a3 3 0 0 1-1.072.005c-.234-.046-.505-.215-.632-.414-.24-.377-.403-.806-.561-1.224-.317-.842-.587-1.674-1.26-2.352-.358-.362-.521-.934-.72-1.434-1.245-3.086-2.49-6.168-3.71-9.265a290 290 0 0 1-2.285-6.056c-.837-2.286-1.582-4.597-2.102-6.969-.112-.531-.235-1.062-.275-1.597-.215-3.056-.205-6.118.132-9.169.22-1.964.567-3.918.776-5.882.28-2.602.842-5.143 1.484-7.674.133-.52.286-1.041.5-1.535 1.159-2.694 4.465-4.567 7.179-4.409 2.79.164 5.546.46 8.25 1.48.862 2.138 1.383 4.418 2.071 6.648.332 1.087.174 1.515-1.081 1.347-1.061-.138-2.153-.133-3.23-.102-.98.025-1.673.536-2.05 1.479a12.5 12.5 0 0 0-.863 3.393 90 90 0 0 0-.378 5.118c-.06 1.413.424 2.668 1.45 3.653.647.617 1.331 1.234 2.096 1.683 1.48.868 2.847 1.883 4.23 2.893a34 34 0 0 0 1.786 1.209c.632.403 1.153.209 1.49-.551.178-.408.367-.821.49-1.25.54-1.908 1.28-3.74 2.025-5.576.637-1.582 1.112-3.23 1.658-4.847.23-.684.459-1.362.724-2.133.551.204 1.036.378 1.516.561.847.332 2.046-.188 2.433-.76 1.561-2.342 2.352-4.842 1.357-7.648-.06-.168-.091-.347-.137-.52-.046-.194.321-.485.54-.464.597.061.99.428 1.276.892.755 1.24 1.352 2.557 1.449 4.026.081 1.255.143 2.52.107 3.775-.061 2.342-.245 4.679-.296 7.016-.061 2.699-.02 5.398.806 8.02.403 1.286.73 2.597 1.138 3.878 1.429 4.454 2.633 8.979 4.347 13.336m-24.454-24.28c-.036.444-.097.888-.153 1.326-.026.204-.403.454-.602.419-.087-.021-.189.005-.265-.031-1.159-.531-2.154-1.281-2.909-2.301-.49-.658-.816-1.428-.75-2.255.215-2.571.179-5.184 1.041-7.673.266-.766.801-1.22 1.577-1.22.622 0 1.25.046 1.862.143.617.097 1.214.306 1.826.423.623.123.899.541.99 1.108.118.699.204 1.408.301 2.102-1.903 2.347-2.673 5.056-2.918 7.959m3.48-5.949c.066-.031.296.173.357.311.341.735.663 1.48.97 2.225.34.826.662 1.658 1.05 2.632-.53 1.628-1.025 3.169-1.54 4.699-.082.25-.225.495-.399.689-.092.107-.347.184-.459.133a7 7 0 0 1-1.163-.669c-.357-.26-.669-.581-1.026-.898-.107-2.933.317-5.75 1.46-8.438.035-.087.056-.189.117-.24.199-.169.403-.347.632-.444m7.632-5.087c.2-1.525.72-2.949 1.725-4.143.132-.158.495-.255.694-.194.209.067.448.332.505.551.112.455.142.924.148.99.071 2.087-.454 3.403-1.245 4.623-.133.209-.378.362-.592.515-.25.184-.791.01-.934-.25-.367-.663-.393-1.393-.3-2.092m13.153 16.765c-.484.725-1.22.98-2.224 1.036-.184-.031-.536-.082-.883-.158a1.45 1.45 0 0 1-1.122-1.02c-.587-1.812-.648-3.664-.398-5.531.025-.204.163-.316.377-.25.148.041.368.143.398.26.128.51.179 1.046.301 1.561.378 1.572 1.214 2.745 2.832 3.25.24.077.484.204.668.378.092.082.123.367.051.474m.27-2.591c-.091.107-.188.331-.3.341-.664.056-1.256-.158-1.608-.734a5.3 5.3 0 0 1-.816-2.766c0-.086.015-.199.066-.25.118-.117.26-.224.404-.301.056-.03.188-.01.234.036.939.975 1.628 2.092 2.016 3.393.025.082.005.178.005.281m4.031-1.322c-.837.056-1.622-.066-2.296-.592-.5-.387-1.01-.765-1.47-1.188-.392-.363-.708-.796-.703-1.388.571-.49 1.27-.643 1.995-.694.163-.015.352.071.49.168.142.102.265.255.341.408.5.985 1.215 1.776 2.072 2.454.117.092.153.302.199.465.04.158-.327.347-.628.367m1.536-2.138c-.128.062-.352-.01-.505-.081-.582-.271-.98-.755-1.28-1.296-.108-.199-.108-.531-.021-.75.122-.311.944-.408 1.194-.194.576.49.806 1.133.836 1.857-.076.168-.107.403-.224.464m22.454 2.036c0 .265-.046.531-.077.796-.041.327-.382.709-.678.735-.536.04-1.072.097-1.607.092-3.409-.057-6.812-.123-10.22-.194-2.331-.051-4.663-.113-6.995-.174-.612-.015-1.25.051-1.872-.398.168-.566.326-1.163.52-1.75.255-.796.317-1.592-.025-2.362-.934-2.112-.291-1.964 1.418-2.449 4.311-1.224 8.648-2.357 12.975-3.52 1.556-.419 3.117-.837 4.673-1.255.347-.092.699-.169 1.046-.245.337-.072.776.204.801.5.02.265.056.535.056.806q0 4.704-.015 9.418m.046-31.484c-.005 5.494-.005 10.984-.021 16.479-.005.801.107 1.622-.229 2.505-.424.179-.898.439-1.403.577-6.776 1.821-13.551 3.627-20.327 5.444-3.127.841-6.25 1.698-9.372 2.535-.347.092-.704.118-1.061.169-.22.03-.562-.24-.572-.454-.02-.358-.076-.72-.04-1.072a65 65 0 0 0 .331-6.199c.005-.474.21-.872.699-1.036a24 24 0 0 1 1.536-.494c7.99-2.154 15.984-4.301 23.969-6.465.77-.209 1.515-.53 2.26-.836.107-.046.138-.307.174-.475.04-.214-.317-.536-.531-.5-.617.107-1.245.179-1.847.342-6.857 1.857-13.709 3.724-20.561 5.587-1.561.423-3.128.836-4.689 1.25-.173.046-.357.061-.53.091-.312.051-.735-.204-.812-.54-.28-1.245-.847-2.368-1.438-3.485-.5-.944-1.342-1.429-2.322-1.704a1.84 1.84 0 0 0-.8-.046c-1.378.24-2.552.821-3.383 2.01a10.6 10.6 0 0 0-1.337 2.643c-.73 2.122-1.439 4.255-2.153 6.388-.403 1.188-.796 2.382-1.2 3.571-.02.061-.137.148-.173.138-.163-.061-.398-.117-.454-.24-.306-.648-.627-1.296-.826-1.979a5765 5765 0 0 1-7.505-25.909c-.296-1.03-.669-2.051-.69-3.158-.035-1.566.317-2.143 1.787-2.566 1.637-.48 3.285-.934 4.928-1.398 5.714-1.597 11.434-3.189 17.148-4.801 7.352-2.066 14.704-4.153 22.056-6.219 1.383-.393 2.781-.73 4.179-1.067.341-.081.709-.091 1.066-.091.485.005.893.239 1.076.683.276.658.582 1.332.705 2.031.474 2.663 1.239 5.245 2.122 7.791.214.612.24 1.229.24 1.857.005 2.882 0 5.765 0 8.643m.255-63.53c-.005 4.412-.015 8.826-.021 13.239v4.321h-.102q-.029 7.294-.066 14.587c-.02 4.597-.036 9.189-.066 13.781-.005.347-.128.693-.204 1.04 0 .011-.194.011-.215-.025-.428-.796-.5-1.694-.75-2.546-.199-.684-.408-1.383-.724-2.02-.485-.995-1.602-1.531-2.709-1.373a10 10 0 0 0-1.317.296c-4.244 1.189-8.489 2.393-12.739 3.571a42 42 0 0 1-2.868.664c-.107.02-.331-.169-.382-.306a1.9 1.9 0 0 1-.123-.781c.291-4.316.225-8.643.276-12.964.071-6.128.081-12.255.301-18.373.183-5.224.194-10.448.265-15.668a47 47 0 0 1 .515-6.459c.123-.827.444-1.556.903-2.235.643-.949 1.516-1.51 2.699-1.51 1.174.005 2.342-.005 3.516-.015l11.076-.107c.449-.006.898-.016 1.347.015 1.214.087 1.403.464 1.403 1.52q0 5.678-.015 11.347M184.572 177.3c.072-.189.413-.347.653-.383 1.153-.179 2.301-.133 3.516.127-.036.276.025.633-.113.74a8.9 8.9 0 0 1-3.816 1.771c-.128.025-.367-.097-.418-.215-.306-.699-.082-1.387.178-2.04m-6.668-9.47c-1.199-1.903-2.439-3.78-3.674-5.663-.193-.296-.408-.587-.688-.974-.113-5.495.056-11.067.071-16.725.347.021.663-.061.821.066a5.8 5.8 0 0 1 1.546 1.847c.511.954 1.118 1.873 1.495 2.873.699 1.852 1.516 3.653 2.026 5.576.638 2.439 1.372 4.847 1.826 7.332.194 1.061.434 2.112.592 3.178.454 3.026.827 6.062 1.163 9.097.194 1.817-.148 3.587-.551 5.337a1.28 1.28 0 0 1-.862.964c-1.107.373-2.209.761-3.326 1.107-6.454 2.006-13.036 3.495-19.669 4.756-3.091.591-6.209 1.02-9.326 1.479-1.066.153-2.158.128-3.225.271-2.433.321-2.193.408-2.658-2.082-.352-1.857-.581-3.735-.816-5.607-.321-2.5-.597-5.005-.888-7.51-.02-.179-.025-.358-.041-.541-.03-.454.266-.913.699-1.021.786-.199 1.567-.403 2.363-.561a1522 1522 0 0 1 10.586-2.087 15 15 0 0 1 1.868-.219c.148-.01.367.112.454.24.188.296.382.622.464.964.291 1.22.576 2.449.781 3.689.26 1.602.571 3.184 1.071 4.735a7.2 7.2 0 0 0 1.265 2.362c.107.132.271.25.429.306s.423.097.5.01c.163-.178.388-.51.316-.653-.51-1.051-1.138-2.051-1.413-3.204-.245-1.046-.5-2.102-.638-3.168-.352-2.699-1.122-5.276-2.158-7.776-.311-.745-.75-1.439-1.184-2.117-1.444-2.286-2.944-4.531-4.357-6.832-.75-1.224-1.393-2.515-2.041-3.801-.847-1.689-.872-3.464-.413-5.265.046-.194.174-.321.388-.276.153.036.357.118.418.245.123.23.133.521.24.766.362.821.699 1.658 1.138 2.438a4.73 4.73 0 0 0 1.913 1.858c.867.459 1.725.464 2.546-.113.668-.469 1.27-1 1.622-1.77.133-.306.225-.679.699-.776 1.067.602 1.975 1.485 2.96 2.266 1.27 1.005 2.515 2.046 3.79 3.046 3.511 2.734 6.567 5.877 8.863 9.724.872 1.469 1.765 2.924 2.653 4.383.127.209.561.347.704.194.173-.189.433-.48.387-.643-.178-.597-.403-1.199-.729-1.725m-25.041-22.683c-.729-.22-1.408-.153-2.056.285-.607.409-1.148.868-1.474 1.536-.194.398-.393.796-.633 1.286-2.888.148-5.464-.245-8.051-.561-1.286-.159-2.362-.832-3.439-1.49-.148-.092-.275-.225-.403-.357-1.224-1.291-1.536-4.036-.617-5.567.229-.382.51-.739.77-1.107.857-1.204 2.123-1.597 3.505-1.724.352-.031.72.005 1.077.051 3.842.495 7.719.382 11.576.622 2.597.163 5.209.306 7.766.868.699.153 1.413.316 2.051.617 2.306 1.071 3.29 3.831 2.244 6.184-.183.403-.449.775-.683 1.158-.342.566-.873.898-1.465 1.137a4 4 0 0 1-.515.164c-.862.245-1.719.653-2.587.673-.933.026-1.5-.908-2.255-1.377-1.525-.954-3.066-1.878-4.811-2.398m4.383 5.449c-.046.127-.087.5-.276.775-.602.862-1.469 1.031-2.296.403a3.4 3.4 0 0 1-.576-.546c-.806-.984-1.296-2.112-1.521-3.357-.061-.337.47-.888.847-.852.266.021.546.026.776.133.638.311 1.265.643 1.867 1.01.959.592 1.133.959 1.179 2.434m-18.097-99.525c1.286.382 2.556.826 3.842 1.224 2.821.878 5.632 1.786 8.474 2.597 1.893.54 3.827.934 5.745 1.398 1.128.276 2.26.54 3.383.852.194.056.331.321.525.52-.77.618-1.627.904-2.408 1.322-1.163.622-2.393.714-3.658.444-.699-.153-1.418-.26-2.092-.5-2.53-.898-5.153-1.526-7.653-2.536-1.24-.505-2.531-.898-3.801-1.337-.877-.3-1.576-.816-2.061-1.627-.413-.694-.827-1.378-1.031-2.24.25-.046.521-.184.735-.117m-1.628 120.065c-2.295.454-4.602.847-6.898 1.276-1.433.27-2.872.143-4.311.112-.474-.01-.857-.24-1.229-.505-.679-.49-1.113-1.158-1.403-1.934-.521-1.372-.664-2.801-.659-4.25.011-6.392.026-12.79.046-19.183.026-9.995.067-19.995.082-29.99.036-19.183.061-38.372.087-57.556.005-2.433.025-4.862 0-7.296-.01-1.015.25-1.959.607-2.882.377-.965 1.332-1.536 2.367-1.439a10 10 0 0 1 1.597.28c1.561.414 3.123.858 4.679 1.286 2.627.725 3.28 1.02 5.168 3.944.342.526.653 1.077 1 1.602a3.83 3.83 0 0 0 1.883 1.485c2.194.811 4.393 1.607 6.602 2.367 1.362.47 2.77.806 4.122 1.296 1.623.587 3.291.898 4.99 1.123.745.102 1.439.03 2.112-.266.827-.357 1.648-.73 2.47-1.097.576-.255 1.147-.51 1.734-.75.944-.382 1.934-.484 2.913-.214a88 88 0 0 1 4.393 1.322c1.092.362 1.827 1.132 2.158 2.244.495 1.638.939 3.27.898 5.016-.091 3.694-.122 7.382-.153 11.076-.071 8.556-.122 17.107-.183 25.663-.082 11.255-.148 22.515-.25 33.771-.056 6.571-.174 13.142-.271 19.714-.005.357-.071.709-.122 1.061-.01.087-.067.214-.123.224-.163.041-.408.102-.489.026-2.944-2.796-6.25-5.153-9.337-7.776-.133-.117-.265-.26-.327-.418-.051-.133-.035-.413.031-.444.74-.321 1.5-.592 2.245-.908.678-.291 1.204-.765 1.617-1.383.822-1.219 1.413-2.5 1.357-4.02-.086-2.459-1.102-4.352-3.408-5.352a12 12 0 0 0-3.102-.888c-2.316-.316-4.638-.586-6.985-.658-3.596-.102-7.183-.347-10.775-.536-.27-.01-.556-.02-.801-.112-.903-.347-1.735-.092-2.628.107-2.03.444-3.29 1.766-4.295 3.429-.23.377-.373.821-.47 1.255-.306 1.352-.148 2.694.26 4 .271.867.761 1.643 1.511 2.189 1.025.734 2.117 1.367 3.362 1.668.439.102.877.214 1.326.26 2.408.245 4.822.47 7.383.715.102.158.189.229.194.306.107 2.219.908 4.214 2 6.097.903 1.561 1.872 3.076 2.837 4.596.964 1.526 1.959 3.021 2.923 4.546.24.373.403.796.592 1.204.107.225-.056.572-.311.638-1.312.317-2.618.663-3.934.929a2595 2595 0 0 1-15.082 3.03m4.051 15.546c.24-.087.516.092.587.388.061.255.123.52.148.781.041.398-.219.765-.561.76-.617 0-1.235 0-1.842-.087-.214-.031-.393-.306-.587-.469.562-.842 1.434-1.067 2.255-1.373m48.684 23.174c-.051.367-.352.658-.714.673-1.256.056-2.516.133-3.771.148-3.51.046-7.015.056-10.525.087l-10.796.107v.03h-22.949c-.541 0-1.082 0-1.622-.02-.756-.025-1.087-.403-1.026-1.23.061-.897.153-1.79.245-2.688.036-.357.153-.709.163-1.062.123-4.051.184-8.096-.087-12.142-.03-.449-.137-.893-.153-1.342-.086-2.485-.413-2.582 2.347-2.495 3.429.112 6.827-.25 10.215-.75a203 203 0 0 0 25.306-5.423c4.147-1.174 8.27-2.48 12.091-4.562.148-.081.342-.097.511-.148.178-.056.576.204.602.403.066.444.168.888.199 1.332.158 2.424.29 4.847.443 7.265.281 4.495.189 8.995.21 13.495.015 2.796-.296 5.561-.689 8.322"/>
    <path fill="#1e1c1c" d="M161.117 57.182c-.77.618-1.627.904-2.408 1.322-1.163.622-2.393.714-3.658.444-.699-.153-1.418-.26-2.092-.5-2.53-.898-5.153-1.526-7.653-2.536-1.24-.505-2.53-.898-3.801-1.337-.877-.3-1.576-.816-2.061-1.627-.413-.694-.827-1.378-1.031-2.24.25-.046.521-.184.735-.117 1.286.382 2.556.826 3.842 1.224 2.821.878 5.633 1.786 8.474 2.597 1.893.54 3.827.934 5.745 1.398 1.128.276 2.26.54 3.383.852.194.056.331.322.525.52m4.062 88.127c-.183.403-.449.776-.683 1.159-.342.566-.873.898-1.465 1.137a4 4 0 0 1-.515.164c-.862.244-1.719.653-2.587.673-.933.026-1.5-.908-2.255-1.378-1.525-.954-3.066-1.877-4.811-2.397-.73-.22-1.408-.154-2.056.285-.607.408-1.148.868-1.475 1.536-.193.398-.392.796-.632 1.286-2.888.148-5.464-.245-8.051-.562-1.286-.158-2.362-.831-3.439-1.489-.148-.092-.275-.225-.403-.357-1.225-1.291-1.536-4.036-.617-5.567.229-.382.51-.74.77-1.107.857-1.204 2.122-1.597 3.505-1.724.352-.031.72.005 1.077.051 3.841.495 7.719.382 11.576.622 2.597.163 5.209.306 7.765.867.699.153 1.414.317 2.051.618 2.307 1.071 3.291 3.831 2.245 6.183m25.764 55.745c.015 2.796-.296 5.561-.689 8.321-.051.367-.352.658-.714.673-1.255.057-2.515.133-3.77.148-3.511.046-7.016.057-10.526.087l-10.796.107v.031h-22.949c-.54 0-1.081 0-1.622-.02-.755-.026-1.087-.404-1.026-1.23a81 81 0 0 1 .245-2.689c.036-.357.153-.709.164-1.061.122-4.051.183-8.097-.087-12.143-.031-.449-.138-.893-.153-1.342-.087-2.484-.414-2.581 2.347-2.495 3.428.113 6.826-.25 10.214-.75a203 203 0 0 0 25.306-5.423c4.148-1.173 8.27-2.48 12.092-4.561.148-.082.342-.097.51-.148.178-.056.576.204.602.403.066.444.168.888.199 1.332.158 2.423.291 4.846.444 7.265.28 4.495.189 8.995.209 13.495m-82.64 11.551c-.72.02-1.439.041-2.158.036-5.133-.005-10.26-.005-15.388-.031-6.03-.031-12.056-.097-18.087-.138-3.234-.02-6.474-.02-9.714-.046-.806-.005-1.617-.071-2.423-.127a.96.96 0 0 1-.822-.617 85 85 0 0 1-1.398-3.796c-.23-.679-.382-1.383-.546-2.087-.449-1.924-.862-3.857-1.56-5.714-.154-.409-.302-.847-.011-1.312.24-.04.505-.127.765-.117 2.898.123 5.75-.316 8.577-.816 8.423-1.48 16.704-3.561 24.796-6.337 3.321-1.138 6.602-2.383 9.622-4.209.449-.271.883-.097 1.082.383.168.418.347.831.489 1.26.23.678.444 1.367.653 2.056 1.296 4.301 2.679 8.576 3.801 12.928.654 2.516 1.342 5.046 2.567 7.373.081.158.112.342.173.51.143.378-.066.791-.418.801m13.35-59.132q0 4.704-.015 9.418c0 .265-.046.531-.077.796-.04.326-.382.709-.678.735-.536.04-1.072.096-1.607.091q-5.11-.085-10.22-.194c-2.331-.051-4.663-.112-6.995-.173-.612-.015-1.25.051-1.872-.398.168-.566.327-1.163.52-1.75.256-.796.317-1.592-.025-2.362-.934-2.112-.291-1.964 1.418-2.449 4.312-1.225 8.648-2.357 12.975-3.521 1.556-.418 3.117-.836 4.673-1.255.347-.091.699-.168 1.046-.245.337-.071.776.205.801.5.021.266.056.536.056.807m.302-96.943q0 5.677-.015 11.346c-.005 4.414-.016 8.827-.021 13.24v4.322h-.102q-.029 7.293-.066 14.586c-.02 4.597-.036 9.189-.066 13.781-.005.347-.128.694-.204 1.041 0 .01-.194.01-.215-.026-.428-.796-.5-1.694-.75-2.546-.199-.683-.408-1.382-.724-2.02-.485-.995-1.602-1.531-2.709-1.373-.444.062-.883.174-1.317.296-4.245 1.189-8.489 2.393-12.739 3.572-.944.26-1.909.469-2.868.663-.107.02-.331-.168-.382-.306a1.9 1.9 0 0 1-.123-.781c.291-4.316.225-8.643.276-12.964.071-6.127.081-12.255.301-18.372.183-5.225.194-10.45.265-15.669a47 47 0 0 1 .515-6.459c.123-.826.444-1.556.903-2.234.643-.95 1.516-1.51 2.699-1.51 1.174.005 2.342-.006 3.516-.016l11.076-.107c.449-.005.898-.015 1.347.015 1.214.087 1.403.465 1.403 1.52M78.987 90.723c.801 1.133 1.786 1.924 2.668 2.816 1.138 1.153 2.255 2.322 3.378 3.49.26.276.316.71.158.995-.22.393-.47.78-.944.898-.255.061-.54.112-.796.071-1.27-.214-2.535-.107-3.745.225-1.296.357-2.699.163-3.918.816-.617 1.092-1.23 2.184-1.852 3.276-.444.78-.898 1.556-1.347 2.336-.367.638-.893 1.118-1.49 1.536-.546.383-1.097.286-1.31-.291-.404-1.097-.75-2.214-1.174-3.301-.551-1.418-.858-2.938-1.725-4.357-.5-.204-1.066-.459-1.658-.663-1.699-.592-3.403-1.158-5.107-1.735-.087-.03-.174-.056-.255-.092-1.02-.474-1.556-1.31-.347-2.23 1.433-1.086 2.872-2.162 4.311-3.244.46-.347.74-.816.694-1.388-.102-1.255-.204-2.51-.408-3.75a16.7 16.7 0 0 1-.2-3.49c.026-.535.715-.943 1.21-.693 1.286.637 2.561 1.306 3.842 1.959q1.081.551 2.168 1.087c.714.352 1.383.25 2.03-.205q1.876-1.315 3.776-2.607c.444-.3.898-.592 1.368-.852.454-.255 1.209.133 1.265.623.03.265.087.54.061.8-.168 1.878-.367 3.756-.536 5.638-.071.801-.086 1.608-.122 2.342zm-1.47.939c0-.46-.03-.903 0-1.347.154-1.975.327-3.944.485-5.913.016-.174-.01-.378-.091-.516-.077-.127-.322-.3-.393-.26-.475.245-.94.53-1.383.832-.964.658-1.913 1.347-2.883 2-.469.316-1.01.428-1.54.194-1.067-.47-2.123-.975-3.179-1.47-.811-.382-1.612-.79-2.424-1.168-.3-.138-.74.194-.724.536.02.449.03.898.087 1.341.168 1.337.352 2.674.54 4.01.062.445.184.888-.183 1.49-.48.368-1.122.852-1.76 1.347-.924.715-1.852 1.424-2.745 2.174-.148.127-.117.464-.179.745 1.587.55 3.112 1.076 4.643 1.607.51.178 1.02.347 1.526.535.438.164.78.47.964.893.326.74.622 1.49.898 2.25.367 1.011.704 2.036 1.056 3.056.148.429.321.842.801 1.164.22-.25.49-.48.658-.766.954-1.627 1.929-3.25 2.582-5.03.204-.551.643-.832 1.224-.918 2.398-.352 4.796-.71 7.189-1.087.092-.016.245-.337.199-.408-.235-.378-.485-.76-.801-1.072-1.46-1.454-2.908-2.923-4.587-4.22zm31.791-47.302c.091-.989.147-1.433.168-1.882.168-3.168-2.056-5.97-5.199-6.55-.265-.052-.531-.077-.796-.133-.342-.072-.745-.434-.74-.694 0-.383.194-.689.505-.893a4.4 4.4 0 0 1 .949-.49c.592-.204 1.204-.347 1.806-.525 2.276-.69 3.541-2.357 4.261-4.505.229-.679.301-1.409.53-2.087.199-.592.495-1.148.786-1.704.071-.143.27-.225.413-.327.255-.189.837.03.857.332.056.714.123 1.428.143 2.143.046 1.73.48 3.377 1.061 4.99.322.882.914 1.55 1.801 1.897.837.327 1.694.592 2.536.888.449.158.776.607.735 1.005-.051.53-.485.934-1.077.995-.092.01-.178.026-.27.016-1.25-.108-2.26.448-3.235 1.132-.755.53-1.342 1.163-1.689 2.04-.729 1.832-1.581 3.623-1.852 5.613-.046.352-.199.689-.311 1.03-.066.2-.495.455-.653.353-.214-.138-.485-.301-.566-.515-.128-.322-.143-.694-.158-1.046-.026-.536-.005-1.077-.005-1.077zm2.178-14.524c-.184.295-.393.581-.551.892-.801 1.577-2.005 2.725-3.607 3.47-.163.076-.322.148-.48.234-.362.2-.413.638-.056.852 1.847 1.108 3.056 2.72 3.847 4.69.061.147.245.244.434.423.219-.408.464-.786.632-1.19.424-1.04 1.148-1.8 2.072-2.402.372-.245.745-.5 1.092-.78.173-.139.301-.337.551-.628-1.776-.71-2.419-2.184-2.949-3.74-.174-.505-.322-1.026-.521-1.52-.046-.118-.255-.169-.464-.302M79.608 55.887c-2.306.076-3.515-.76-4.24-2.25-.678-1.398-.525-2.832.307-4.107 1.25-1.919 3.081-2.674 5.342-2.332 1.612.245 3.03 1.903 3.224 3.536.342 2.836-2.367 5.163-4.408 5.153zm3.184-4.78c0-.654-.194-1.23-.643-1.72-.806-.868-2.092-1.174-3.183-.812-1.19.398-1.97 1.184-2.414 2.347-.678 1.776.725 3.807 2.633 3.74 2.102-.071 3.627-1.55 3.607-3.561zm83.672 48.391c-.138-1.102-.653-2.05-1.755-2.55-.403-.18-.781-.414-1.163-.613-.026-.342-.082-.607-.062-.867q.185-2.02.398-4.03c.051-.45.169-.889.204-1.338.133-1.505-.75-2.668-2.224-2.872a17 17 0 0 0-2.424-.148c-3.147.046-6.3.072-9.448.21-4.046.173-8.092.433-12.133.673a14 14 0 0 0-1.878.23c-1.892.367-2.775 1.382-2.928 3.326-.026.357-.015.72-.036 1.081-.087 1.618-.138 3.24-.275 4.852-.47 5.572-.393 11.153-.536 16.73-.031 1.291.566 2.245 1.582 2.969.739.536 1.576.842 2.474 1.021 1.235.245 2.469.5 3.684.826 3.821 1.036 7.632 2.107 11.449 3.153 2.515.689 5.03 1.378 7.561 2.01 1.041.261 2.122.388 3.189.521.438.056.898.01 1.336-.051.883-.117 1.505-.617 1.75-1.475.567-2.005.817-4.056.75-6.137-.025-.812-.112-1.618-.081-2.424.122-2.969.102-5.944.444-8.903.112-.979.168-1.974.193-2.964.021-1.077.067-2.168-.071-3.23m-23.316-10.342a27 27 0 0 1 2.413-.209c2.597-.097 5.199-.163 7.796-.26 2.24-.087 4.479-.204 6.719-.306.633-.025 1.25.01 1.852.255.414.169.786.561.796.985a20.3 20.3 0 0 1-.74 5.816c-.015.067-.117.112-.209.194-3.576-.796-7.041-2.02-10.535-3.153-1.786-.582-3.562-1.21-5.358-1.76-1.025-.312-2.086-.51-3.127-.78-.219-.057-.408-.215-.796-.43.52-.158.847-.31 1.189-.352m21.551 25.414c-.011.178-.429.51-.587.479-.087-.015-.179-.025-.265-.051-1.562-.439-3.133-.836-4.669-1.336-.847-.281-1.699-.643-2.438-1.138-1.541-1.031-2.312-2.459-1.888-4.378.097-.439.087-.898.158-1.342.138-.795.867-1.474 1.663-1.551.357-.03.73-.061 1.077 0 2.301.414 4.607.812 6.893 1.592.158.388.27.551.28.72.163 2.341-.122 4.668-.224 7zm.551-9.898c-.021.296-.505.673-.781.612-1.582-.357-3.158-.709-4.735-1.082-1.056-.25-2.112-.387-3.204-.311-1.316.092-2.245.755-2.632 1.97-.516 1.647-.689 3.331-.087 5.03.51 1.429 1.398 2.51 2.745 3.184.801.398 1.643.729 2.479 1.046.587.224 1.205.377 1.807.551 4.183 1.188 3.739.597 3.443 4.811-.209 2.934-1.025 3.27-3.591 2.673-1.664-.387-3.327-.775-4.975-1.224-6.76-1.842-13.515-3.709-20.27-5.572a3.5 3.5 0 0 1-.745-.306c-.327-.173-.607-.444-.638-.816-.143-1.607-.515-3.189-.434-4.821.108-2.159.108-4.317.154-6.475h.04c.123-2.423.23-4.847.373-7.27a127 127 0 0 1 .377-4.837c.041-.434.22-.867.398-1.27.194-.444.602-.669 1.067-.715.357-.035.729-.04 1.076.031 1.235.24 2.48.449 3.684.806 4.132 1.23 8.286 2.393 12.357 3.822 1.444.505 2.893.984 4.367 1.382 2.174.592 4.255 1.439 6.362 2.215.25.091.485.23.71.382.377.265.653.623.745 1.082.071.352.163.714.147 1.066-.061 1.347-.153 2.694-.239 4.036"/>
    <path fill="#1e1c1c" d="M162.724 89.62a20.3 20.3 0 0 1-.74 5.817c-.015.067-.117.112-.209.194-3.576-.796-7.041-2.02-10.535-3.153-1.786-.582-3.562-1.21-5.358-1.76-1.025-.312-2.086-.51-3.127-.78-.219-.057-.408-.215-.796-.43.52-.158.847-.31 1.189-.352a27 27 0 0 1 2.413-.209c2.597-.097 5.199-.163 7.796-.26 2.24-.087 4.479-.204 6.719-.306.633-.025 1.25.01 1.852.255.414.169.786.561.796.985m-43.815 37.893c0 .944-.392 1.525-.862 1.688-.51.174-1.02.342-1.541.48q-4.416 1.201-8.831 2.388c-.97.26-1.495-.056-1.817-1.056-.056-.169-.102-.342-.153-.516l-2.265-8.311a7 7 0 0 1-.163-.791c-.123-.821.219-1.454.964-1.709a41 41 0 0 1 2.061-.627c2.245-.633 4.49-1.266 6.74-1.888a22 22 0 0 1 1.837-.413c.5-.097 1.061.28 1.245.806.178.51.357 1.015.505 1.535.653 2.24 1.306 4.48 1.928 6.725.189.684.286 1.398.347 1.684zm-6.719-2.786c-.173-.837-.367-1.709-.541-2.582-.071-.367.276-.933.643-1.081.245-.097.5-.189.75-.271.51-.158 1.031-.28 1.536-.454.541-.188.719-.658.541-1.311-.143-.525-.521-.837-.949-.719-1.812.484-3.618.984-5.424 1.484-.337.092-.587.521-.495.842.408 1.459.817 2.919 1.25 4.373.148.495.526.678 1.036.586.628-.112 1.224-.275 1.658-.867zm3.357 3.694c.204-.046.638-.133 1.066-.245.552-.148.898-.668.75-1.23a151 151 0 0 0-1.448-5.127c-.057-.189-.429-.429-.613-.398-.612.097-1.209.296-1.806.469-.413.123-.673.607-.546 1.072.444 1.627.893 3.255 1.362 4.877.154.536.47.709 1.23.582zm-9.949-3.623c.378 1.801.796 3.439 1.362 5.041.21.582.592.771 1.271.612q.391-.094.76-.25c.316-.132.582-.581.51-.852-.183-.688-.321-1.398-.576-2.056-.383-.989-.383-2.122-1.092-2.989-.735-.128-1.388.096-2.235.5zm7.704 3.725c-.188-.623-.342-1.214-.556-1.786-.046-.122-.275-.229-.434-.255-.632-.112-1.209.107-1.76.383-.127.061-.214.28-.24.444-.117.734.138 1.382.572 1.954a.57.57 0 0 0 .449.194c.51-.077 1.031-.169 1.515-.342.194-.072.296-.378.454-.592m-8.643-7.071c.159.525.261 1.04.475 1.51.082.183.434.387.622.357.511-.087 1.011-.271 1.495-.47.113-.045.225-.311.194-.438a13 13 0 0 0-.454-1.505c-.133-.368-.413-.48-.862-.378-.342.077-.709.138-1.01.301-.194.107-.296.388-.465.623zm-9.649 2.066c-.224-.113-.52-.209-.75-.158-.79.178-1.566.418-2.341.632-5.715 1.607-11.434 3.214-17.148 4.832-.602.168-1.194.388-1.78.607-.399.148-.664.633-.628 1.092.03.362.046.724.132 1.071.23.959.51 1.913.74 2.873.755 3.127.679 2.566 3.087 1.755a163 163 0 0 1 4.107-1.332c1.974-.612 3.959-1.199 5.933-1.806.603-.184 1.194-.403 1.791-.607.21-.077.408-.49.317-.669-.128-.255-.352-.403-.633-.377-.444.036-.893.082-1.321.199-.873.23-1.725.515-2.592.76-.577.163-1.03-.138-1.194-.765a94 94 0 0 1-.566-2.362 1.4 1.4 0 0 1-.02-.536c.04-.163.132-.373.264-.439a6.7 6.7 0 0 1 1.24-.51c3.378-.954 6.76-1.883 10.138-2.837a6.2 6.2 0 0 0 1.23-.525c.122-.067.147-.301.219-.46-.072-.153-.107-.382-.225-.438m-13.923 9.668a2.3 2.3 0 0 1-.475.24c-1.178.398-2.346.847-3.545 1.173-1.96.531-2.169.842-2.7-1.5-.137-.607-.28-1.214-.397-1.821-.067-.327.199-.714.515-.832.082-.03.163-.066.25-.092 1.623-.479 3.24-.964 4.867-1.433.158-.046.347-.005.608-.005.127.137.392.306.454.525.296 1.026.546 2.061.78 3.097.066.281-.117.5-.357.648"/>
    <path fill="#1e1c1c" d="M81.088 133.187a2.3 2.3 0 0 1-.474.24c-1.179.398-2.347.847-3.546 1.173-1.96.531-2.169.842-2.7-1.5-.137-.607-.28-1.214-.397-1.821-.067-.326.199-.714.515-.832.082-.03.163-.066.25-.091 1.623-.48 3.24-.965 4.867-1.434.159-.046.347-.005.608-.005.127.138.392.306.454.525a55 55 0 0 1 .78 3.097c.067.281-.117.5-.357.648m77.164-23.015c-.546-.041-.954-.475-.97-1.036-.015-.582.465-1.031.995-.929.536.102.903.597.842 1.148-.051.46-.464.852-.867.822z"/>
</svg>
