<svg xmlns="http://www.w3.org/2000/svg" width="241" height="241" fill="none" viewBox="0 0 241 241">
    <path fill="#1e1c1c" d="M120.921 24.5c.372.226.734.469 1.118.678 1.683.937 1.553 3.484-.125 4.563-1.507.971-3.23.548-4.06-.847-.825-1.39-.22-3.163 1.316-3.937.316-.158.632-.305.954-.457zm-.475 1.13c-1.118.005-1.914.83-1.909 1.96.006.976.797 1.716 1.796 1.693 1.011-.022 1.858-.892 1.858-1.925 0-1.023-.717-1.734-1.751-1.729zm68.053 118.959c-1.638-1.344-3.321-2.615-5.145-3.722-2.446-1.485-4.993-2.739-7.624-3.818-1.446-.593-2.926-1.09-4.496-1.671.751-.497 1.44-.853 2.011-1.344 1.451-1.248 2.824-2.587 4.264-3.841 2.694-2.355 5.009-5.003 6.805-8.115 1.146-1.988 2.118-4.038 2.609-6.291.136-.605.057-.78-.514-.983-.243-.09-.514-.17-.768-.164-3.061.04-6.082-.406-9.098-.791-3.185-.395-6.348-.954-9.533-1.349-3.377-.418-6.771-.734-10.16-1.085-.418-.045-.892-.18-1.248-.045-.537.204-.186.853-.395 1.248q-.024.045-.04.091c-.7 2.806-2.202 5.178-4.043 7.341-1.892 2.214-4.027 4.174-6.461 5.806-2.564 1.717-5.219 3.225-8.116 4.332-2.694 1.028-5.483 1.474-8.313 1.824-2.53.31-5.054.632-7.573.983-1.209.169-2.4.491-3.609.626-3.631.413-7.2 1.141-10.73 2.062a122 122 0 0 0-6.743 1.976c-1.858.599-3.688 1.294-5.507 2.011-.429.169-.819.57-1.084.954-.13.192.09.605.107.921.051.875.622 1.683.322 2.609-.04.124.04.356.147.441.44.338.469.852.616 1.321.463 1.48.909 2.965 1.366 4.45.588 1.932 1.186 3.863 1.751 5.8.266.887.435 1.802.69 2.694.253.887 1.129 1.22 1.897.751.147-.09.288-.175.423-.265 2.304-1.463 4.733-2.671 7.263-3.677.294-.113.61-.158.977-.254-.051.593-.141 1.079-.119 1.553.04.876.531 1.576 1.073 2.197 1.361 1.531 2.779 3.021 4.174 4.524.723.779 1.446 1.564 2.169 2.343-.356.04-.593-.05-.814-.175-.756-.406-1.485-.881-2.27-1.225-1.271-.559-2.564-1.09-3.885-1.519-1.017-.334-1.921.09-2.587.869-.582.678-.582 1.712-.017 2.508a8.4 8.4 0 0 0 1.327 1.468c.548.48 1.203.83 1.768 1.294 2.095 1.722 4.224 3.411 6.24 5.223.893.808 1.768 1.785 2.248 2.858.819 1.836 1.435 3.784 1.92 5.738.424 1.694.548 3.468.791 5.201.056.418.073.842.113 1.254a4 4 0 0 1-.254.028c-2.242.192-3.027 1.113-2.977 3.304.029 1.48-.073 2.965-.113 4.343-.92.356-1.728.644-2.513.983-.723.316-1.169.926-1.231 1.694-.158 2.05-.288 4.1-.35 6.156-.051 1.683.073 3.371.017 5.054-.028.734.243 1.22.768 1.599.373.265.791.508 1.226.638 1.869.553 3.738 1.152 5.647 1.558 3.078.661 6.201 1.051 9.352 1.271 3.92.277 7.828.181 11.73-.135 2.271-.181 4.535-.526 6.772-.955 1.745-.333 3.45-.898 5.167-1.4.288-.085.638-.311.746-.56.18-.446.248-.954.276-1.451.102-1.756.17-3.507.249-5.263.101-2.254.197-4.502.31-6.755.029-.508-.175-.841-.536-1.203a4.1 4.1 0 0 0-2.084-1.118c-.96-.209-.994-.457-.921-1.406.091-1.322.232-2.638.311-3.959.079-1.282-.209-1.694-1.423-2.163-.559-.215-1.113-.418-1.683-.627 0-1.231-.006-2.321 0-3.411.017-1.655.034-3.31.068-4.964.039-1.757.005-3.513.18-5.252.102-1.068.424-2.147.831-3.146 1.084-2.666 2.417-5.213 3.874-7.692a161 161 0 0 1 2.005-3.315c.192-.311.463-.683.841-.26.582.655 1.372.661 2.112.689 4.343.158 8.686.271 13.029.407q3.472.108 6.952.243c.435.017.683-.136.813-.548.142-.441.3-.881.497-1.299a111 111 0 0 1 5.755-10.77c.768-1.271 1.638-2.479 2.519-3.676.497-.684.508-1.057-.147-1.587zm-9.59-4.987c.96.508 1.937.994 2.903 1.491-.017.057-.028.113-.045.169-1.288 0-2.57.017-3.852 0-2.846-.045-5.692-.107-8.539-.158-.497-.005-.999.057-1.491 0-.372-.045-.813-.146-1.084-.378-2.044-1.723-4.337-3.044-6.726-4.19a57 57 0 0 0-10.917-3.892.97.97 0 0 1-.525-.299c.147-.028.294-.085.435-.073 1.056.067 2.118.124 3.168.242 1.508.164 3.016.396 4.529.56 2.169.242 4.298.689 6.399 1.248 2.649.711 5.32 1.344 7.935 2.163 2.677.841 5.325 1.796 7.822 3.117zm-33.755-8.567c.215-.203.299-.322.412-.39 2.401-1.389 4.479-3.185 6.433-5.128 2.225-2.202 4.123-4.665 5.873-7.251.317-.469.616-.949.859-1.457.276-.593.728-.701 1.304-.616 1.864.277 3.728.559 5.597.813 2.09.294 4.185.571 6.28.842 2.564.333 5.128.655 7.692 1 .384.05.745.192 1.203.31-1.553 2.485-3.072 4.84-5.026 6.907-2.813 2.971-6.083 5.309-9.629 7.302-.616.345-1.215.407-1.904.198-2.417-.717-4.868-1.271-7.387-1.502-2.468-.226-4.93-.548-7.398-.78-1.378-.13-2.761-.163-4.309-.254zm-5.393-1.118a36.4 36.4 0 0 0 11.871-8.878c2.225-2.502 3.97-5.298 4.693-8.731 1.141.101 2.259.18 3.371.305 1.147.124 2.293.293 3.445.429 1.542.192 3.09.356 4.631.553 1.638.204 3.276.424 4.908.644 1.807.243 3.609.537 5.416.74 2.304.265 4.614.457 6.918.683.26.023.514.051.791.085-.345 2.18-1.384 3.998-2.4 5.817-1.48 2.66-3.411 4.958-5.665 6.997-1.18 1.062-2.315 2.175-3.467 3.27-1.107 1.062-2.384 1.875-3.699 2.666-.723.429-1.277.469-2 .147-.44-.198-.954-.243-1.479-.367.169-.52.627-.627.965-.825 2.79-1.677 5.405-3.597 7.709-5.902 2.214-2.219 4.055-4.721 5.614-7.437.932-1.627.757-1.954-1.062-2.163-2.14-.243-4.281-.48-6.41-.769-3.185-.434-6.359-.92-9.538-1.366a347 347 0 0 0-4.829-.65c-.649-.09-1.05.091-1.435.735-2.451 4.122-5.387 7.844-9.075 10.961-1.706 1.435-3.479 2.739-5.501 3.677-.66.31-1.327.502-2.084.508-1.412.006-2.829.113-4.247.181-.017-.04-.028-.085-.045-.124.864-.396 1.734-.78 2.592-1.181zm-7.591 2.722c2.243-.136 4.49-.187 6.721-.418 2.253-.232 4.422.214 6.585.638 4.394.864 8.68 2.129 12.769 3.993 2.812 1.282 5.568 2.66 7.901 4.732.638.571 1.406.554 2.163.559 2.914.029 5.839-.011 8.754.04 2.253.04 4.506.181 6.765.288a.87.87 0 0 1 .458.153c.909.649 1.801 1.321 2.705 1.982l-.068.254c-1.547-.085-3.095-.198-4.648-.249-1.254-.039-2.513 0-3.772-.005-3.18-.023-6.365-.079-9.545-.079-3.128 0-2.259.101-4.828-1.762-1.988-1.446-4.123-2.655-6.314-3.756-3.507-1.768-7.195-3.066-10.996-4.015-3.434-.859-6.912-1.536-10.459-1.745-1.355-.079-2.705-.204-4.061-.317-.084-.005-.163-.073-.248-.118.045-.074.079-.175.113-.175zm-38.273 8.149c2.909-1.293 5.828-2.242 8.782-3.095 2.118-.615 4.258-1.18 6.41-1.683 1.644-.384 3.315-.644 4.976-.948.378-.068.728-.136 1.146.05.277.125.712-.028 1.056-.124 2.598-.74 5.269-1.005 7.957-1.05 2.909-.051 5.823-.17 8.726-.017 2.671.135 5.331.519 7.985.909 1.932.282 3.852.661 5.744 1.141 4.253 1.067 8.336 2.586 12.199 4.687 2.185 1.192 4.263 2.542 6.206 4.1.181.147.39.254.582.379-.463.852-.842 1.541-1.271 2.332-.39-.299-.711-.57-1.05-.808-2.892-2.066-5.93-3.874-9.2-5.291a56.5 56.5 0 0 0-10.742-3.417c-2.49-.531-5.015-.87-7.55-1.129-3.31-.345-6.619-.413-9.923-.3-3.202.108-6.41.333-9.567.926-2.468.464-4.947.887-7.398 1.412-3.208.678-6.337 1.638-9.431 2.705-1.243.43-2.468.921-3.7 1.378a44 44 0 0 1-1.299.452c-.231-.954-.429-1.773-.632-2.603zm1.536 5.93c-.248-.813-.451-1.497-.689-2.253.712-.288 1.345-.576 1.988-.814 3.361-1.236 6.738-2.422 10.222-3.247 2.384-.565 4.761-1.169 7.173-1.581 2.773-.469 5.579-.825 8.381-1.073a68 68 0 0 1 7.353-.271c2.671.05 5.353.237 8.013.547a56 56 0 0 1 11.183 2.463c3.913 1.293 7.646 2.97 11.131 5.173 1.062.672 2.067 1.434 3.078 2.185.587.435.598.605.276 1.249-.101.209-.197.417-.299.626-.435.842-.757.91-1.553.362-1.497-1.039-2.959-2.141-4.512-3.089a27 27 0 0 0-3.801-1.932 141 141 0 0 0-7.15-2.705c-1.022-.35-2.123-.486-3.196-.683a96 96 0 0 0-4.202-.689 45 45 0 0 0-3.372-.305 315 315 0 0 0-7.257-.356 118 118 0 0 0-5.077-.051c-.689 0-1.378.124-2.072.192-1.938.198-3.903.271-5.812.621-2.462.452-4.896 1.102-7.325 1.717a82 82 0 0 0-4.766 1.356c-2.327.745-4.631 1.564-6.94 2.349-.215.068-.436.113-.78.203zm52.392 3.569c1.181-.135 2.361-.254 3.536-.406.971-.125 1.801.18 2.62.689 1.954 1.191 3.914 2.372 5.67 3.84.249.203.48.435.757.689-.429.796-.836 1.542-1.282 2.366-3.281-3.219-7.212-5.28-11.397-6.918.034-.09.068-.169.102-.26zm-4.167.695c-.91-1.677-1.779-3.293-2.751-5.072 3.456.616 6.642 1.333 9.578 2.977-2.411.175-4.648.864-6.833 2.095zm11.289-1.034c-2.513-1.598-5.23-2.733-8.008-3.744-.87-.316-1.785-.52-2.694-.7a231 231 0 0 0-6.241-1.147c-.751-.13-1.513-.169-2.27-.243a57.4 57.4 0 0 0-13.277.147c-1.706.215-3.417.407-5.134.548-.463.04-.949-.141-1.542-.237l1.277-1.485c.09-.102.248-.153.293-.266.441-1.084 1.39-1.174 2.367-1.254 2.744-.22 5.489-.463 8.239-.288 3.801.243 7.608.435 11.386.814 2.829.282 5.602.881 8.302 1.863 2.4.87 4.794 1.734 7.059 2.886 1.531.774 2.948 1.762 4.394 2.688.802.52 1.564 1.102 2.332 1.672.232.17.407.407.644.65-.401.768-.774 1.485-1.18 2.27-1.954-1.711-3.97-2.914-5.953-4.174zm-44.051-2.18c-.898-1.524-2.4-2.439-3.947-3.591 3.202-1.26 6.364-1.695 9.533-2.322-.322 1.073-4.123 5.089-5.58 5.913zm-15.203-.033c1.022-.351 1.977-.684 2.931-1.006 1.937-.649 3.88-1.276 5.812-1.948.615-.215 1.191-.181 1.716.152.718.463 1.395.977 2.242 1.576l-11.763 3.925c-.305-.875-.605-1.728-.938-2.699m2.18 6.754c-.322-1.022-.615-1.965-.932-2.965.525-.243.989-.497 1.486-.661 2.948-.988 5.907-1.954 8.866-2.925.22-.074.441-.136.661-.203.892-.283 1.621-.289 2.174.711.418.746.864.706 1.542.107.791-.7 1.57-1.411 2.366-2.106.17-.147.379-.322.582-.345 3.688-.372 7.376-.773 11.069-1.061 2.011-.158 4.049-.232 6.066-.136 2.411.113 4.817.458 7.228.672.497.045.763.277.966.706.395.825.836 1.621 1.316 2.536-15.096-2.502-29.469-.746-43.39 5.681zm11.611 2.773c-.265-.587-.084-1.158.368-1.677 1.417.649 2.27 1.745 2.671 3.219.096.35.022.463-.452 1.027-1.429-.276-2.056-1.389-2.581-2.569zm-.084 10.386c-.051.084-.396.084-.52 0-.864-.571-1.649-1.209-1.926-2.384 1.169.125 2.271.921 2.519 1.774.051.186.028.452-.073.61m11.475 22.533c.085.887.526 1.57.147 2.446-.819-.334-1.621-.661-2.479-1.017.531-1.011 1.514-.898 2.338-1.429zm-2.411 2.604c.384.147.661.299.966.367 1.445.333 2.886.728 4.354.943 4.806.711 9.652.757 14.486.621 3.671-.102 7.347-.429 10.928-1.355.604-.158 1.186-.396 1.914-.644.012.644.051 1.225.028 1.801-.062 1.328-.158 2.649-.237 3.971-.011.163-.005.333-.017.497-.073 1.146-.192 1.327-1.304 1.468-2.073.265-4.146.48-6.213.712-3.348.378-6.714.384-10.075.406-2.778.017-5.568-.113-8.341-.293-2.163-.136-4.326-.447-6.653-.701.057-2.682.113-5.179.17-7.805zm-1.35 5.562c.277.639.192 1.203.062 1.813-.864.051-1.524-.361-2.366-.734.717-.774 1.542-.774 2.304-1.079m34.811-.118c.791 0 1.463.209 2.13.751-.588.587-1.299.734-2.13.988zm2.226 1.971c.045-.023.124.011.316.039-.051 1.13-.091 2.276-.153 3.423-.101 1.847-.192 3.699-.322 5.551-.062.921-.192 1.841-.276 2.762-.057.615-.407.932-.983 1.073-1.869.435-3.722.96-5.602 1.305-3.891.711-7.833.954-11.781.965-1.886 0-3.773-.226-5.664-.276-2.53-.068-5.021-.43-7.478-.955-2.298-.491-4.563-1.146-6.822-1.807-.977-.288-1.225-.746-1.214-1.773.017-1.921.028-3.841.09-5.767.051-1.378.187-2.761.294-4.297 2.016.864 4.015 1.18 6.02 1.434.921.113 1.847.243 2.773.277 3.541.158 7.088.356 10.634.395 2.412.028 4.835-.147 7.252-.299 2.174-.136 4.36-.266 6.517-.559 2.174-.3 4.382-.503 6.41-1.485zm-2.886-8.895c-.695.994-1.824.819-2.858 1.276.158-.819.299-1.508.452-2.298.966.152 1.801.265 2.406 1.022m-.215-22.985c-.847 1.688-1.672 3.383-2.208 5.212-.497 1.712-.559 3.462-.65 5.207s-.05 3.502-.056 5.253c0 .689.04 1.378.068 2.072.107 2.265-.294 4.462-.904 6.613-4.331 1.35-19.969 1.565-25.08.034-.435-2.942-.814-5.896-1.311-8.832-.418-2.491-1.225-4.88-2.247-7.19a4.5 4.5 0 0 0-.831-1.231c-1.558-1.672-3.089-3.371-4.958-4.721-.938-.672-1.813-1.44-2.705-2.158.689-1.479.497-2.315-.768-3.32-.441-.345-.938-.621-1.469-.966.447-.356.876-.237 1.294-.079 2.71 1.005 5.207 2.445 7.737 3.818.44.237.943.384 1.31.706.689.61 1.378 1.248 1.926 1.988 1.316 1.784 2.558 3.62 3.806 5.455.192.277.384.491.717.333.379-.18.413-.508.198-.841-.615-.938-1.225-1.881-1.881-2.796-1.784-2.519-3.795-4.857-5.952-7.059a3491 3491 0 0 0-4.721-4.812c.689-.491 1.129-1.056 1.084-1.909-.062-1.152-.497-2.129-1.271-2.953-.451-.475-.977-.887-1.519-1.367.717-.469 1.485-.57 2.225-.729.057.096.124.153.119.204-.187 2.191 1.022 3.699 2.507 5.049 1.299 1.18 2.694 2.259 3.937 3.501 1.683 1.683 3.371 3.383 4.84 5.247.994 1.259 1.626 2.801 2.377 4.241.565 1.084 1.045 2.214 1.581 3.309.119.249.305.463.458.689.548-.322.683-.649.452-1.146-.571-1.192-1.102-2.412-1.689-3.603-.542-1.096-1.039-2.237-1.722-3.242-.819-1.197-1.768-2.315-2.745-3.394-1.965-2.157-4.066-4.174-6.416-6.049 1.768-1.756 1.39-3.326-1.344-5.41.802-.124 1.463-.305 2.135-.322.762-.017 1.418.571 1.497 1.344.146 1.542.994 2.638 2.117 3.581 2.852 2.389 5.529 4.947 7.963 7.771 1.435 1.672 2.643 3.484 3.807 5.331.384.616.627 1.316.937 1.977.085.18.158.367.266.536.147.243.344.418.661.266.338-.17.389-.463.259-.757-.378-.842-.717-1.717-1.197-2.502-1.039-1.694-2.044-3.417-3.405-4.896-2.017-2.186-3.937-4.473-6.241-6.376-.243-.204-.44-.463-.661-.701 1.39-1.073 1.565-2.62.492-4.139-.345-.486-.751-.921-1.277-1.565.446.147.718.204.966.317 2.875 1.276 5.382 3.117 7.703 5.195 2.491 2.231 4.919 4.535 7.336 6.845 1.102 1.051 2.118 2.186 3.163 3.293a.9.9 0 0 1 .215.508c.028.35.186.559.536.61.412.062.599-.215.74-.531.44-.926.819-1.881 1.299-2.784 1.259-2.378 2.671-4.654 4.721-6.455a7.8 7.8 0 0 1 2.632-1.553c.683-.232 1.321-.119 1.909.321-.503.605-1.079 1.158-1.48 1.825-.367.61-.627 1.321-.785 2.016-.198.881.062 1.649.977 2.055.119.051.22.136.367.232-.615 1.158-1.242 2.282-1.818 3.428zm-36.895-13.825c1.005-.136 1.593.491 2.078 1.214.463.683.48 1.417-.039 2.101-1.356-.136-2.265-1.61-2.033-3.315zm6.692-1.373c.938.497 1.655 1.26 2.282 2.124.147.203.254.463.322.717.13.514.305 1.197-.237 1.429-.441.186-1.147.09-1.582-.153-.926-.508-1.429-1.451-1.79-2.417-.243-.661.175-1.282 1.005-1.7m3.338-.847c.672-.017 1.344-.062 2.016-.039 2.253.096 4.507.169 6.754.344 2.276.181 4.569.345 6.806.768 2.174.407 4.309 1.051 6.415 1.728 1.536.497 3.01 1.203 4.501 1.83.271.113.52.288.797.441-1.006.655-2.005 1.191-2.864 1.886-1.875 1.53-3.207 3.518-4.382 5.608-.565 1.011-1.084 2.039-1.689 3.162-.542-.53-1.028-.994-1.502-1.468-1.062-1.045-2.112-2.101-3.174-3.14-1.513-1.48-2.987-3.01-4.569-4.405a102 102 0 0 0-5.625-4.569c-.807-.615-1.779-1.011-2.682-1.508-.277-.158-.559-.322-.802-.644zm29.277 11.623c-.955-.43-1.147-.706-.927-1.463.238-.825.605-1.598 1.232-2.214.513-.508 1.321-.542 1.948-.039-.734 1.214-1.48 2.439-2.253 3.716m2.219-5.14c-2.609-1.908-5.427-3.422-8.533-4.359-1.305-.396-2.57-.91-3.88-1.26-1.406-.378-2.835-.7-4.275-.909-2.192-.311-4.394-.582-6.602-.712-2.739-.158-5.495-.192-8.24-.209-3.027-.017-6.026.418-8.98 1.006-2.038.406-4.021 1.107-6.02 1.711-.886.271-1.745.627-2.609.96-2.423.943-4.687 2.202-6.895 3.558-.17.102-.345.181-.661.344-.266-1.163-.503-2.185-.763-3.32.853-.424 1.712-.898 2.609-1.282 3.287-1.418 6.659-2.593 10.143-3.428 3.541-.853 7.128-1.497 10.759-1.847a74 74 0 0 1 9.928-.288c1.519.062 3.039.22 4.546.418 1.61.203 3.203.508 4.806.757.255.039.52.005.763.005.384.582.796 1.147 1.135 1.745.288.503.61.525 1.062.266.406-.232.853-.384 1.237-.633.497-.322 1.005-.356 1.519-.135 3.394 1.423 6.765 2.902 9.674 5.224.768.615 1.48 1.31 2.248 1.999-.345.677-.639 1.259-1 1.965-.706-.57-1.316-1.107-1.971-1.576m23.285 2.677c-6.749-.22-13.498-.44-20.36-.66.17-.413.255-.701.396-.944.565-.926.581-.993 1.705-.943 4.004.198 8.014.283 12.018.43 1.875.067 3.75.18 5.625.271.395.017.785 0 1.356 0-.277.689-.497 1.236-.746 1.841zm1.259-2.869c-6.624-.214-13.26-.44-20.105-.666.39-.808.638-1.378.926-1.931.22-.424.571-.554 1.073-.52 2.88.181 5.755.288 8.63.48 2.338.158 4.676.401 7.014.587 1.084.085 2.18.125 3.394.192-.305.61-.587 1.181-.932 1.858m1.581-2.993c-1.745.074-3.49.074-5.229-.203-.847-.136-1.706-.254-2.564-.299-2.88-.147-5.761-.243-8.641-.384-1.084-.051-2.168-.181-3.337-.283.163-.824.553-1.502 1.05-2.095.164-.192.593-.243.898-.237 2.338.079 4.687.214 7.025.288 1.881.062 3.762.051 5.637.107 2.151.062 4.297.164 6.658.254-.536 1.011-1.005 1.903-1.508 2.847zm2.135-4.111c-.113.158-.452.214-.683.214-2.056-.045-4.112-.135-6.167-.175-2.22-.045-4.439-.028-6.659-.101-2.174-.068-4.348-.215-6.641-.339.299-.915.706-1.649 1.237-2.485 6.686.181 13.424.356 20.41.548-.582.92-1.005 1.655-1.497 2.338m2.395-3.79c-.26.396-.593.509-1.096.469-1.542-.124-3.095-.164-4.648-.209-3.044-.09-6.082-.164-9.126-.237-.96-.023-1.926-.028-2.886-.034-.949-.006-1.898 0-2.914 0 .073-.853.435-1.451.881-1.954.181-.209.672-.192 1.028-.192.988 0 1.976.045 2.965.057 3.044.028 6.093.033 9.132.079 2.253.028 4.501.09 6.754.146.288.006.582.096 1.005.17-.423.666-.751 1.191-1.09 1.717z"/>
    <path fill="#1e1c1c" d="M151.265 191.305c-.695.994-1.824.819-2.858 1.276.159-.819.3-1.508.452-2.298.966.152 1.802.265 2.406 1.022m-30.243 1.322c-.819-.334-1.621-.661-2.479-1.017.531-1.011 1.513-.898 2.338-1.429.085.887.525 1.57.147 2.446zm33.129 7.573c-2.022.982-4.236 1.186-6.41 1.485-2.157.294-4.337.429-6.517.559-2.418.147-4.84.322-7.252.3-3.546-.04-7.093-.238-10.634-.396-.926-.039-1.852-.164-2.773-.277-2.005-.254-4.004-.57-6.02-1.434-.108 1.542-.243 2.92-.294 4.298-.062 1.92-.073 3.84-.09 5.766-.012 1.028.231 1.485 1.214 1.773 2.259.661 4.524 1.316 6.822 1.807 2.457.531 4.953.887 7.477.955 1.892.051 3.779.277 5.665.277 3.948-.006 7.889-.255 11.781-.966 1.88-.345 3.738-.87 5.602-1.305.582-.135.926-.452.983-1.073.084-.92.214-1.835.276-2.761.125-1.847.221-3.7.322-5.552.062-1.146.102-2.293.153-3.422-.192-.029-.271-.062-.317-.04zm-2.327 6.325a3.8 3.8 0 0 1-.457 1.288c-.486.852-1.175 1.186-1.949 1.044-.853-.152-1.508-.83-1.671-1.745-.034-.192-.029-.395-.034-.463.05-1.496.988-2.485 2.197-2.434 1.135.051 2.083 1.152 1.92 2.31zm29.983-65.432c-.017.056-.028.113-.045.169-1.288 0-2.57.017-3.851 0-2.847-.045-5.693-.107-8.54-.158-.497-.005-.999.057-1.49 0-.373-.045-.814-.147-1.085-.378-2.044-1.723-4.337-3.044-6.726-4.191a57 57 0 0 0-10.917-3.891.97.97 0 0 1-.525-.299c.147-.028.294-.085.435-.074 1.056.068 2.118.125 3.168.243 1.508.164 3.016.396 4.53.559 2.168.243 4.297.689 6.398 1.249 2.649.711 5.32 1.344 7.935 2.163 2.677.841 5.326 1.795 7.822 3.117.96.508 1.937.994 2.903 1.491zm-1.005-21.935c-1.553 2.485-3.072 4.84-5.026 6.907-2.813 2.97-6.083 5.308-9.629 7.302-.616.345-1.215.407-1.904.198-2.417-.718-4.868-1.271-7.387-1.503-2.467-.225-4.93-.547-7.398-.779-1.378-.13-2.761-.164-4.309-.254.215-.203.299-.322.412-.39 2.401-1.389 4.479-3.185 6.433-5.128 2.225-2.202 4.123-4.664 5.873-7.251.317-.469.616-.949.859-1.457.277-.593.728-.7 1.304-.616 1.864.277 3.728.559 5.597.814 2.09.293 4.185.57 6.28.841 2.564.333 5.128.655 7.692 1 .384.051.745.192 1.203.31zm-10.477-52.556c-1.977 0-3.795-.124-5.591.034-1.937.17-3.852.588-5.766.92-.78.136-1.576.266-2.316.532-1.965.7-3.914 1.451-5.851 2.23-1.378.56-2.75 1.147-4.072 1.819-1.733.88-3.354 1.965-4.947 3.078-1.818 1.276-3.433 2.778-5.015 4.331-1.756 1.728-3.241 3.688-4.603 5.721-1.005 1.497-1.858 3.129-2.58 4.79-.763 1.756-1.299 3.602-1.926 5.415-1.13 3.282-1.875 6.659-1.915 10.132-.039 4.021.435 8.014 1.068 11.978.293 1.864.835 3.688 1.564 5.445.395.96.638 1.039 1.559.536.056-.034.113-.062.175-.102 1.028-.536 2.033-1.101 3.078-1.603 1.462-.701 2.965-1.333 4.422-2.034 2.061-.994 4.1-2.021 6.155-3.027 1.395-.689 2.841-1.282 4.072-2.264a2.3 2.3 0 0 1 .881-.418c.927-.215 1.006-.322.627-1.158-.581-1.265-1.203-2.507-1.745-3.789-1.333-3.163-2.01-6.523-3.021-9.788-.322-1.05.124-1.88.717-2.67 1.209-1.616 2.733-2.864 4.49-3.852 2.869-1.616 5.952-2.576 9.188-3.107 3.056-.502 6.122-.581 9.183.012q1.247.238 1.485-.989c.062-.322.057-.655.051-.982-.045-2.107-.147-4.213-.135-6.32.017-2.417.084-4.834.22-7.246.113-2.016.367-4.026.536-6.042.04-.486.006-.977.006-1.582zm-39.109 23.11c.13-1.113.627-2.107 1.203-3.005 2.389-3.766 5.274-7.104 8.804-9.854.819-.639 1.7-1.203 2.553-1.802q.059.077.118.164c-.423.734-.892 1.451-1.259 2.22-1.141 2.337-1.813 4.834-2.27 7.392-.311 1.717-1.011 3.292-1.898 4.76-.615 1.023-1.773 1.486-2.903 1.78-.66.17-1.378.13-2.067.17-.79.044-1.378-.408-1.959-.842-.311-.232-.367-.582-.317-.983zm-1.689 9.454c.277-2.429.65-4.84.988-7.263.017-.124.079-.237.147-.44 1.006.57 1.926 1.22 3.123 1.146 1.135-.068 2.248-.237 3.282-.7 1.039-.463 1.931-1.135 2.597-2.355.091.361.187.548.181.734-.141 4.433.599 8.765 1.672 13.04.57 2.27 1.366 4.49 2.055 6.726.096.311.181.627.311 1.062-.745.418-1.401.802-2.073 1.158a950 950 0 0 1-7.827 4.089c-.757.395-1.553.722-2.355 1.033-.124.051-.48-.136-.514-.265-.469-1.723-.983-3.445-1.321-5.19-.819-4.236-.746-8.511-.26-12.775zm17.445 11.199c.226.514.509 1.005.74 1.519.17.384.311.779.452 1.141-1.457 1.225-3.033 2.061-4.642 2.835-2.977 1.434-5.953 2.874-8.946 4.292-1.706.808-3.422 1.576-5.269 2.423-.345-1.039-.734-2.022-.994-3.039-.898-3.552-1.101-7.2-1.44-10.837-.232-2.508-.074-4.981.333-7.432.299-1.78.858-3.513 1.299-5.27l.277.034c-.012.288-.012.588-.04.876-.327 3.225-.695 6.455-.559 9.702.147 3.394.638 6.732 1.689 9.979.135.413.192.842.327 1.254.294.887.751 1.062 1.587.627q4.602-2.355 9.194-4.71c1.062-.548 2.124-1.084 3.163-1.672.819-.463.909-.841.615-1.716-.66-1.943-1.378-3.875-1.942-5.851-.633-2.231-1.13-4.496-1.356-6.811-.169-1.717-.542-3.423-.593-5.134-.096-3.586.125-7.144 1.186-10.623.418-1.367.734-2.739 1.412-4.02 1.412-2.672 3.185-4.937 6.133-6.038.418-.153.802-.378 1.203-.57.04.05.085.113.125.163-.091.147-.153.322-.277.43-1.536 1.282-2.83 2.795-3.92 4.461s-1.835 3.502-2.338 5.439c-.559 2.151-1.056 4.309-1.248 6.54-.322 3.721-.536 7.437.407 11.091.954 3.688 1.841 7.404 3.394 10.906zm12.758-38.962c1.615-.334 3.276-.424 4.919-.605.22-.022.452.034.824.068-.141 4.846-.276 9.59-.417 14.356-1.378.13-2.66.22-3.931.379-1.576.192-3.163.384-4.721.689-3.587.694-6.885 2.117-9.963 4.071-.751.475-1.496.955-2.321 1.486-.051-.21-.141-.384-.124-.548.181-1.841.294-3.694.593-5.518.243-1.463.762-2.88 1.05-4.337.311-1.593 1.164-2.937 1.858-4.349.509-1.044 1.424-1.705 2.435-2.242 3.094-1.637 6.387-2.739 9.798-3.445zm9.539-2.88c-.599 3.676-.452 7.398-.661 11.103-.147 2.507-.277 5.037.051 7.55.051.395.017.79 0 1.192 0 .09-.091.175-.164.316-.237 0-.497.04-.746-.006-1.908-.355-3.834-.367-5.749-.265a30 30 0 0 0-7.381 1.344c-2.157.683-4.219 1.576-6.133 2.779a15.7 15.7 0 0 0-4.253 3.89c-.31-.948-.282-1.823-.299-2.687 0-.181.203-.401.367-.548 1.694-1.565 3.699-2.643 5.743-3.654 3.282-1.621 6.783-2.457 10.414-2.779 1.412-.124 2.824-.254 4.236-.367 1.107-.09 1.367-.384 1.401-1.48.113-3.97.231-7.945.384-11.916.028-.853-.119-1.717.209-2.558.13-.339-.113-.633-.554-.627-.824.017-1.66-.04-2.479.028-2.988.243-5.89.898-8.714 1.898-1.186.418-2.338.926-3.513 1.383-.13.051-.299 0-.61 0 1.745-1.552 3.366-2.987 5.484-3.75a26.4 26.4 0 0 1 5.094-1.259c1.084-.158 2.152-.429 3.236-.486 1.485-.09 2.976-.022 4.591-.022.017.237.108.593.051.926z"/>
    <path fill="#1e1c1c" d="M165.479 70.866c-.141 4.846-.276 9.59-.418 14.356-1.378.13-2.66.22-3.93.379-1.576.192-3.163.383-4.722.689-3.586.694-6.884 2.117-9.962 4.071-.751.475-1.496.955-2.321 1.486-.051-.21-.141-.384-.124-.548.181-1.841.294-3.694.593-5.518.243-1.463.762-2.88 1.05-4.337.311-1.593 1.164-2.937 1.858-4.349.509-1.044 1.423-1.705 2.434-2.242 3.095-1.637 6.388-2.739 9.799-3.445 1.615-.333 3.275-.423 4.919-.604.22-.023.452.034.824.068zm-21.601 40.25c-.745.418-1.4.802-2.072 1.158a920 920 0 0 1-7.828 4.088c-.757.396-1.553.723-2.355 1.034-.124.051-.48-.136-.514-.266-.469-1.722-.983-3.444-1.321-5.19-.819-4.235-.746-8.51-.26-12.774.277-2.429.649-4.84.988-7.263.017-.124.079-.237.147-.44 1.005.57 1.926 1.22 3.123 1.146 1.135-.068 2.248-.237 3.281-.7 1.039-.463 1.932-1.135 2.598-2.355.09.361.186.547.181.734-.141 4.433.598 8.765 1.672 13.04.57 2.27 1.366 4.49 2.055 6.726.096.311.181.627.311 1.062zM88.17 61.853c-.23-2.045-.7-4.033-1.27-6.02-1.107-3.87-2.784-7.433-5.015-10.77-1.982-2.977-4.388-5.558-7.042-7.918-1.186-1.05-2.417-2.056-3.62-3.084-.384-.322-.7-.734-1.113-.994-1.801-1.118-3.58-2.281-5.45-3.27-1.637-.852-3.377-1.502-5.088-2.208-.475-.192-1.005-.26-1.587-.406-.203.598-.395 1.09-.537 1.592-.451 1.621-.852 3.259-1.332 4.868-.475 1.582-1.023 3.14-1.542 4.71-.763 2.288-1.508 4.58-2.304 6.856-.34.966-.836 1.881-1.164 2.847-.31.92.068 1.451 1.028 1.626.52.09 1.062.113 1.576.254a30.5 30.5 0 0 1 8.787 3.886c2.355 1.53 4.462 3.343 6.23 5.517 1.18 1.452 2.078 3.078 2.563 4.903.272 1.016.204 1.942-.49 2.795-.605.746-1.164 1.536-1.74 2.304-1.248 1.672-2.434 3.394-3.773 4.998-1.01 1.215-2.214 2.27-3.315 3.411-.254.266-.435.605-.559.774.61.7 1.107 1.254 1.598 1.819.542.62 1.056 1.27 1.627 1.869 1.722 1.79 3.467 3.563 5.201 5.337.875.903 1.762 1.801 2.626 2.716 1.322 1.39 2.62 2.796 3.948 4.185.276.294.621.52.954.796A25 25 0 0 0 81.62 89.6a91 91 0 0 0 4.292-8.951c1.203-2.88 1.864-5.88 2.106-8.969.17-2.118.243-4.24.294-6.364.028-1.158 0-2.327-.135-3.474zm-8.295-17.671c1.028 1.124 1.948 2.332 2.62 3.687 1.011 2.045 2.01 4.106 2.835 6.224.621 1.593 1.028 3.281 1.4 4.947.204.92.176 1.91.181 2.864 0 .598-.26 1.072-.909 1.264-.711.215-1.395.266-2.118-.005-1.434-.548-2.603-1.378-3.467-2.677-.412-.621-.497-1.299-.548-1.982-.13-1.807-.09-3.61.215-5.41.508-2.96.547-5.93-.204-8.912zm6.828 19.901c-.023.463.016.887-.068 1.277-.475 2.168-.92 4.348-1.497 6.489a78 78 0 0 1-1.892 6.07 33.2 33.2 0 0 1-5.071 9.285c-.164.21-.305.435-.463.644-.13.18-.277.35-.458.582-3.479-3.264-6.359-6.986-9.696-10.358.559-.762.993-1.474 1.541-2.078 2.457-2.688 4.394-5.72 6.105-8.912.887-1.66 1.728-3.354 2.519-5.06.401-.864.65-1.801 1.028-2.88 1.248 3.885 5.015 5.941 7.957 4.936zm-20.885-8.99c-3.513-2.948-7.511-4.948-11.933-6.111-.57-.147-1.158-.26-1.875-.418.147-.491.209-.943.407-1.333 1.45-2.886 2.315-5.986 3.264-9.053.344-1.107.683-2.213 1.095-3.292.616-1.582 1-3.225 1.356-4.874.113-.508.276-1.01.452-1.62.395.09.756.123 1.067.259 1.525.65 3.067 1.265 4.546 2.005 1.265.638 2.468 1.406 3.665 2.163.7.44 1.333.977 2 1.462 1.869 1.339 2.942 3.282 4.015 5.23.062.113.085.243.113.367.006.023-.034.051-.102.153-.553-.514-1.09-1.04-1.649-1.525-2.456-2.135-5.037-4.1-8.014-5.473a49 49 0 0 0-3.28-1.372c-.639-.243-.73-.056-.876.616-.226 1.027-.548 2.027-.876 3.027-1.18 3.586-2.377 7.16-3.563 10.741-.277.842-.074 1.18.932 1.638.966.435 1.931.875 2.891 1.31 2.937 1.344 5.71 2.96 8.144 5.077 1.096.955 2.084 2.05 3.038 3.14 1.13 1.3 2.225 2.638 2.965 4.32l-1.27 2.757c-1.17-3.954-3.592-6.749-6.506-9.194zm8.77-12.922c.882.904 1.147 2.044 1.356 3.236.395 2.282.13 4.546-.062 6.822-.18 2.096-.712 4.1-1.356 6.083-.158.497-.242 1.016-.412 1.767-2.27-3.219-4.665-6.037-7.703-8.268-3.01-2.213-6.353-3.772-9.86-5.33l4.529-13.662c1.383.316 2.524.926 3.654 1.536 2.694 1.463 5.139 3.287 7.42 5.32.865.768 1.627 1.655 2.435 2.485zM86.94 72.628c-.204 1.536-.57 3.055-.932 4.569-.486 2.033-1.344 3.93-2.236 5.806-.955 1.999-1.881 4.032-2.982 5.952-.887 1.542-2.017 2.954-3.044 4.41-.09.13-.255.215-.497.419-1.943-1.966-3.846-3.863-5.721-5.789a358 358 0 0 1-4.722-4.97c-1.35-1.451-2.67-2.942-4.055-4.473.322-.384.537-.717.825-.965 2.327-2.01 4.1-4.49 5.89-6.958.52-.723 1.04-1.452 1.565-2.174 2.146-2.965 3.603-6.246 4.512-9.788.418-1.632.819-3.27 1.192-4.919.124-.547.158-1.112.203-1.671.102-1.226.237-2.451.265-3.677.051-2.524-.502-4.936-1.496-7.245-.407-.932-.836-1.858-1.27-2.824.106 0 .225-.04.27 0 .78.802 1.548 1.626 2.327 2.423 1.186 1.22 1.604 2.823 1.988 4.37.446 1.791.615 3.643.339 5.507-.204 1.412-.317 2.835-.565 4.236a31.4 31.4 0 0 1-2.152 7.104c-1.519 3.468-3.405 6.749-5.534 9.872-.729 1.067-1.576 2.05-2.383 3.055-.6.752-1.237 1.474-1.825 2.231-.451.582-.423 1.118.096 1.7.994 1.118 2.016 2.203 3.016 3.315 1.463 1.627 2.897 3.281 4.377 4.885.74.802 1.53 1.559 2.327 2.305.463.44.79.406 1.26-.142.344-.4.632-.847.942-1.27 3.01-4.078 5.23-8.528 6.495-13.447.497-1.92.977-3.846 1.474-5.766.028-.119.107-.226.265-.317-.062 1.412-.04 2.836-.226 4.236z"/>
    <path fill="#1e1c1c" d="M86.703 64.084c-.023.463.017.886-.068 1.276-.474 2.169-.92 4.349-1.496 6.489a78 78 0 0 1-1.892 6.071 33.2 33.2 0 0 1-5.072 9.285c-.164.209-.305.434-.463.643-.13.181-.277.35-.457.582-3.48-3.264-6.36-6.986-9.697-10.358.559-.762.994-1.474 1.542-2.078 2.456-2.688 4.393-5.72 6.105-8.912.886-1.66 1.728-3.354 2.518-5.06.401-.864.65-1.801 1.028-2.88 1.248 3.886 5.015 5.941 7.958 4.936zM75.876 52.23c-.18 2.095-.711 4.1-1.355 6.082-.158.497-.243 1.016-.412 1.767-2.27-3.219-4.665-6.037-7.703-8.268-3.01-2.213-6.354-3.772-9.861-5.33l4.53-13.662c1.383.316 2.524.926 3.653 1.536 2.694 1.463 5.14 3.287 7.421 5.32.864.768 1.626 1.655 2.434 2.485.881.903 1.147 2.044 1.356 3.236.395 2.281.13 4.546-.063 6.822zm61.993 7.211c-1.429-2.072-2.874-4.128-4.275-6.212q-1.889-2.803-3.693-5.647c-.74-1.18-1.463-2.384-2.067-3.637-.576-1.186-.994-2.446-1.548-3.852-.745.333-1.395.57-1.993.887-4.146 2.247-8.042 4.85-11.589 7.963a66 66 0 0 0-6.167 6.195c-2.643 3.033-5.004 6.269-6.93 9.793-1.203 2.208-2.247 4.512-3.27 6.816-1.649 3.716-2.642 7.63-3.292 11.623-.452 2.75-.587 5.534-.582 8.324 0 .881.31 1.333 1.056 1.683 1.282.605 2.542 1.271 3.807 1.92 2.541 1.3 5.077 2.587 7.607 3.903.791.412 1.468.734 2.445.254 1.265-.627 2.672-.966 4.027-1.395.751-.237 1.525-.537 2.293-.57.768-.029 1.395-.277 2.073-.576 0-.204.017-.373 0-.537-.204-1.35-.26-2.705-.102-4.066.102-.825.203-1.644.254-2.468.249-4.275 1.66-8.217 3.558-11.995 1.626-3.225 3.993-5.93 6.37-8.607 1.87-2.107 4.004-3.948 6.303-5.591 1.242-.887 2.468-1.785 3.897-2.378a18 18 0 0 0 1.604-.802c.508-.288.547-.553.214-1.033zM106.43 98.658c.401-1.13 1.073-1.836 1.626-2.62.548-.78 1.062-1.588 1.615-2.418 1.542.52 2.429 1.903 3.999 2.767-2.519.791-4.795 1.503-7.246 2.27zm4.743-37.031c1.356.136 2.677.378 3.926.966 1.637.779 2.942 1.869 3.535 3.654q.22.661.395 1.332c.39 1.497.107 2.87-.745 4.146-.35.52-.723 1.039-1 1.604-.57 1.174-1.53 1.988-2.513 2.75-1.779 1.378-3.727 1.4-5.806.604-1.169-.452-2.202-1.039-3.095-1.892-.423-.406-.892-.802-1.191-1.293-.791-1.282-1.214-2.705-1.26-3.829.063-2.762.898-4.817 2.627-6.404 1.411-1.3 3.179-1.824 5.127-1.638m-5.026.079c4.846-6.551 11.035-11.589 17.711-16.045.689.52 6.398 9.76 8.138 13.103-2.107 1.423-4.258 2.835-6.116 4.62-1.847 1.778-3.688 3.574-5.529 5.353-.204-.78-.463-1.626-.65-2.48-.152-.7-.44-1.31-.892-1.857-1.096-1.322-2.344-2.355-3.993-3.01-1.214-.475-2.434-.616-3.665-.768-1.751-.204-3.411.26-5.004 1.078zm-.87 13.899c.322.231.605.52.904.779 1.118.966 2.547 1.214 3.886 1.649 1.722.56 3.326.05 5.088-.836-2.265 5.264-3.208 10.64-3.677 16.265-.406-.249-.717-.412-.999-.621-1.011-.74-1.158-.706-1.824.39-.413.672-.859 1.32-1.327 2.044-3.479-1.745-6.879-3.456-10.285-5.168 0-1.293-.14-2.597.029-3.868.39-2.954.965-5.874 1.756-8.76.841-3.083 2.022-6.037 3.213-8.979.034-.085.125-.147.181-.215-.011 1.587.475 3.033.972 4.473.401 1.152 1.073 2.124 2.078 2.847zm30.209-15.141c-1.638.745-3.067 1.824-4.507 2.874a37.7 37.7 0 0 0-7.223 6.89c-.333.412-.7.796-1.045 1.203-1.858 2.174-3.45 4.53-4.636 7.144-.972 2.14-1.977 4.27-2.434 6.59-.599 3.056-1.096 6.128-1.085 9.251 0 .418.046.842.074 1.271-1.531-.48-2.045-1.225-1.999-2.654.141-4.106.994-8.082 2.163-11.996.406-1.36 1.05-2.648 1.637-3.947.887-1.966 1.92-3.869 3.231-5.574 1.327-1.728 2.79-3.366 4.286-4.959 1.045-1.107 2.237-2.072 3.372-3.1 1.773-1.604 3.738-2.937 5.907-4.208-.215-.542-.356-1.118-.649-1.61-2.011-3.354-4.055-6.692-6.088-10.03-.464-.767-.921-1.535-1.401-2.292-.525-.819-.87-.91-1.728-.424-2.056 1.17-3.959 2.559-5.778 4.055-1.863 1.542-3.783 3.027-5.557 4.665-3.027 2.796-5.839 5.789-8.019 9.336-1.169 1.897-2.254 3.823-3.174 5.85-1.508 3.332-2.598 6.8-3.49 10.34-.695 2.763-1.186 5.558-1.395 8.399-.062.824-.04 1.66-.074 2.485-.028.542.22.836.7 1.067 3.209 1.576 6.411 3.18 9.607 4.772.141.074.266.18.508.345-.53.689-1.027 1.327-1.536 1.988-3.304-1.706-6.506-3.36-9.72-5.015-.411-.215-.83-.418-1.259-.593-.52-.204-.802-.52-.773-1.119.101-1.92.04-3.851.27-5.754.746-6.06 2.452-11.855 5.168-17.321 1.695-3.417 3.728-6.625 6.049-9.663a62.4 62.4 0 0 1 8.471-9.047c2.118-1.858 4.343-3.592 6.766-5.05a335 335 0 0 1 4.953-2.93c.169-.102.361-.147.689-.266.367.943.683 1.813 1.05 2.66.22.514.52.994.796 1.485 1.779 3.186 3.784 6.23 5.891 9.206.745 1.05 1.4 2.169 2.106 3.253.379.582.757 1.146 1.198 1.813-.497.231-.91.429-1.322.615z"/>
    <path fill="#1e1c1c" d="M115.154 77.203c-2.264 5.263-3.208 10.64-3.676 16.264-.407-.248-.718-.412-1-.62-1.011-.74-1.158-.707-1.824.389-.412.672-.858 1.321-1.327 2.044-3.479-1.745-6.879-3.456-10.284-5.167 0-1.293-.142-2.598.028-3.869a65.5 65.5 0 0 1 1.756-8.76c.842-3.083 2.022-6.036 3.214-8.979.034-.084.124-.146.18-.214-.011 1.587.475 3.032.972 4.473.401 1.152 1.073 2.123 2.078 2.846.322.231.604.52.904.78 1.118.965 2.547 1.213 3.885 1.648 1.723.56 3.327.051 5.089-.835zm16.836-18.445c-2.107 1.423-4.258 2.835-6.116 4.62-1.847 1.778-3.688 3.574-5.529 5.353-.203-.78-.463-1.626-.65-2.479-.152-.7-.44-1.31-.892-1.858-1.096-1.322-2.344-2.355-3.993-3.01-1.214-.474-2.434-.616-3.665-.768-1.751-.203-3.411.26-5.004 1.078 4.846-6.55 11.036-11.588 17.711-16.044.689.52 6.399 9.759 8.138 13.102zm33.993-16.452c-.373.435-.633.774-.921 1.073-1.4 1.435-3.157 2.39-4.772 3.536-.164.113-.322.231-.486.344-.779.537-1.169 1.147-1.028 2.22.192 1.434.079 2.914.102 4.37.006.43.04.86.073 1.289.012.163.08.327.085.49 0 .56.091 1.232-.463 1.526-.553.299-.887-.31-1.225-.633-.65-.615-1.203-1.333-1.87-1.926-1.304-1.169-2.66-2.287-3.987-3.416-1.581.293-3.112.553-4.631.88-1.417.306-2.818.707-4.235 1.017-.294.062-.689.028-.927-.124-.401-.26-.463-.672-.192-1.124.684-1.135 1.322-2.287 2-3.422a79 79 0 0 1 1.818-2.937c.35-.537.316-1.028.045-1.576-.745-1.519-1.462-3.05-2.191-4.574-.271-.565-.548-1.13-.796-1.711-.39-.926-.113-1.333.909-1.198 1.011.136 2.01.39 3.016.605 1.095.231 2.157.62 3.315.559.559-.029.92-.232 1.254-.644a770 770 0 0 1 3.975-4.829c.554-.672 1.102-.626 1.378.198.418 1.254.723 2.547 1.079 3.823.249.898.531 1.785.734 2.689.141.627.565.835 1.102 1.005 1.92.598 3.84 1.208 5.743 1.84.333.108.616.362 1.096.662zm-23.313 9.709c3.247-.73 6.348-1.43 9.29-2.09.565.593.988 1.084 1.457 1.525 1.203 1.135 2.423 2.253 3.637 3.377.294.271.486.689.988.79-.339-2.586.158-5.161-.536-7.765.954-.734 1.909-1.49 2.891-2.208 1.039-.762 2.118-1.474 3.163-2.225.277-.198.497-.48.83-.808-.491-.203-.819-.367-1.158-.474-1.547-.486-3.089-1.022-4.665-1.412-.796-.198-1.186-.587-1.372-1.333-.418-1.671-.864-3.332-1.304-4.992-.113-.435-.249-.864-.435-1.485-.757.88-1.384 1.598-1.988 2.338-.734.898-1.423 1.83-2.175 2.71-.248.288-.609.6-.954.656-.536.079-1.113 0-1.655-.108-1.039-.203-2.055-.508-3.1-.689-.655-.113-1.305-.463-2.05-.231.141.322.248.598.378.87.842 1.767 1.677 3.535 2.542 5.285.316.644.384 1.158-.057 1.836-1.208 1.858-2.304 3.79-3.434 5.698-.107.187-.158.407-.288.757zm-42.791 68.6c-.492.034-.91-.559-.661-.983.412-.711.813-1.462 1.372-2.055.921-.983 1.051-2.107.808-3.321a9.1 9.1 0 0 0-1.31-3.208c-.345-.525-.706-1.09-.424-1.756.119-.283.35-.65.593-.712.237-.062.678.141.83.362 1.141 1.666 2.886 2.614 4.434 3.795.621.474 1.428.429 2.168.169.497-.175.972-.423 1.469-.604.209-.079.457-.136.672-.102.169.028.389.187.44.333.045.142-.051.396-.175.509-1.824 1.705-2.152 3.704-1.175 5.947.396.909.881 1.779 1.305 2.682.169.356.593.763.039 1.124-.485.316-.768-.051-1.078-.384-.61-.65-1.254-1.265-1.886-1.886-.605-.593-1.345-.972-2.147-1.181-.395-.107-.875-.147-1.259-.028-1.259.378-2.62.458-3.761 1.209-.079.05-.18.067-.243.09zm7.991-1.045c-.836-1.875-.48-3.727.152-5.659-.412.08-.666.181-.914.164-.582-.034-1.209 0-1.729-.214-.598-.249-1.101-.729-1.632-1.119-.779-.576-1.553-1.163-2.406-1.807.334.989.661 1.847.904 2.728.452 1.649.333 3.202-.921 4.512-.197.204-.333.463-.626.881 1.039-.259 1.863-.446 2.682-.672.994-.276 1.954-.265 2.875.254.542.305 1.084.627 1.621.938zm-9.217-72.356c-.638-.192-1.011-.644-1.226-1.276-.446-1.322-.988-2.592-1.824-3.728-.469-.638-1.073-1.1-1.864-1.191a37 37 0 0 0-3.264-.232c-.44-.011-.7-.13-.813-.542-.107-.384.203-.508.452-.672a131 131 0 0 0 2.377-1.615c.537-.378.893-.898.994-1.553.226-1.44.525-2.88.119-4.337a.8.8 0 0 1-.023-.198c0-.396-.096-.859.407-1.011.542-.164.627.322.813.666.565 1.05 1.096 2.124 1.728 3.13.57.897 1.248 1.744 2.378 1.987.48.102.988.08 1.48.13.621.062 1.248.085 1.852.226.491.118.553.565.158.892a18 18 0 0 1-1.282.943c-1.316.887-1.988 2.175-2.293 3.682-.254 1.243-.469 2.48.08 3.716.146.334.186.723-.25.989zm1.954-9.386c-1.26-.056-2.485-.085-3.372-.977-.853-.853-1.581-1.83-2.411-2.807-.08.554-.17 1.062-.22 1.57-.142 1.356-.435 2.615-1.768 3.355-.266.147-.463.423-.915.841 2.937-.17 4.574 1.254 5.58 3.801.604-2.276 1.01-4.461 3.111-5.783zm-21.709 71.695c-1.84.039-3.145-1.564-3.213-3.36-.068-1.7 1.4-3.123 3.09-3.112 1.597.011 3.077 1.66 3.043 3.445-.04 1.818-1.451 3.078-2.914 3.027zm-.26-5.393c-1.135-.08-1.914 1.089-1.937 2.089-.028 1.226.989 2.27 2.147 2.276 1.135 0 1.942-.881 1.948-2.152 0-1.282-.898-2.213-2.152-2.213zM55.817 65.523c-1.418 0-2.706-1.299-2.711-2.744-.012-1.542 1.299-2.965 2.8-2.937 1.56.028 2.757 1.056 2.785 2.976.023 1.463-1.333 2.705-2.874 2.705M55.8 60.87c-.92.022-1.711.903-1.672 1.87.04.993.813 1.739 1.796 1.727 1.045-.005 1.824-.813 1.779-1.84A1.84 1.84 0 0 0 55.8 60.87m94.109 143.345c-1.208-.051-2.146.932-2.197 2.434 0 .068 0 .271.034.463.164.915.819 1.593 1.672 1.746.774.141 1.463-.193 1.948-1.045.221-.396.396-.842.458-1.288.169-1.158-.78-2.259-1.92-2.31zm-.135 3.643c-.582-.017-1.107-.65-1.085-1.31.017-.689.452-1.282.955-1.311.734-.033 1.135.458 1.135 1.39 0 .666-.469 1.242-1.005 1.225z"/>
</svg>
