<svg xmlns="http://www.w3.org/2000/svg" width="241" height="241" fill="none" viewBox="0 0 241 241">
    <path fill="#1e1c1c" d="M181.987 215.21c-.359 0-.744-.07-1.068.035-.947.318-1.812-.161-2.714-.231-.212-.016-.491-.247-.597-.449a6 6 0 0 1-.461-1.285q-2.27-9.13-4.526-18.27c-.937-3.799-1.848-7.604-2.805-11.393-.177-.69-.678-1.35-.693-2.03-.016-.791.344-1.587.536-2.389.086-.352.177-.705.233-1.063.304-2.071.081-4-1.488-5.588-.319-.317-.547-.73-.81-1.103-.522-.746-1.286-1.436-1.499-2.257-.268-1.043.876-1.699 1.301-2.58.648-1.341 1.154-2.691.117-4.102-.264-.363-.441-.796-.593-1.219-1.184-3.255-2.42-6.49-3.498-9.78-.851-2.59-1.509-5.241-2.238-7.871-.228-.831.066-1.123.992-1.118 2.663.015 5.326.055 7.984.025 2.117-.025 4.182-.459 6.172-1.154 1.165-.408 1.909-1.214 2.39-2.434.784-2 1.063-4.021 1.063-6.147.01-22.483.207-45.091.137-67.347-.011-3.563-.061-7.125-.092-10.687-.01-1.583-.435-3.064-1.174-4.45-.729-1.355-1.868-2.277-3.382-2.58s-3.007-.644-4.592-.64c-11.113.026-22.226-.03-33.339-.065-4.04-.01-8.09.116-12.115-.1-3.838-.207-7.67-.263-11.503-.288-3.397-.025-6.799-.03-10.197-.06-.663-.01-1.007-.474-.769-1.104.987-2.58 1.377-5.275 1.534-8.006.03-.514.334-.817.714-1.094.962-.695 1.979-1.34 2.87-2.116 2.542-2.242 5.094-4.484 7.033-7.296.197-.287.319-.645.41-.983.04-.14-.081-.377-.203-.473-.086-.06-.319.03-.455.11a1.4 1.4 0 0 0-.39.373c-2.562 3.508-5.741 6.385-9.174 9.015-.147.11-.294.267-.461.287-.136.02-.369-.096-.435-.217-.162-.312-.319-.655-.375-.997-.293-1.729-1.331-2.978-2.638-4.036a4.28 4.28 0 0 0-2.79-.993c-2.622.015-4.363 2.434-3.518 4.898.775 2.262 2.74 3.743 5.144 3.83.734.024 1.468-.041 2.202-.046.679-.01 1.018.342.922 1.013-.334 2.342-.719 4.675-1.549 6.908-.289.776-.385.902-1.114.932-.461.02-.922.01-1.377.01-5.6 0-11.204-.01-16.804-.015-1.924 0-3.853-.036-5.782.02-.617.02-1.255.196-1.848.413-1.893.705-2.79 2.283-3.341 4.081-.486 1.572-.663 3.2-.658 4.858.02 12.798.01 25.591.01 38.39h-.06v35.366c0 1.739-.047 3.482.085 5.21.243 3.16 1.676 5.528 4.805 6.687.977.362 1.954.403 2.967.393 4.678-.02 9.36-.056 14.039 0 3.387.04 6.779-.156 10.156.388 1.073.176 2.202-.015 3.296.06 1.19.086 2.344-.267 3.544-.131.587.066 1.316-.499 1.802.056.395.453.537 1.133.744 1.728.208.599.355 1.219.522 1.839 1.463 5.543 2.921 11.08 4.384 16.628 1.489 5.623 2.982 11.246 4.466 16.874 1.463 5.543 2.916 11.086 4.379 16.628 1.58 5.976 3.174 11.952 4.759 17.933.177.66-.096.987-.835 1.013-.734.025-1.473.01-2.203.015-1.377.015-2.749.01-4.126.07-.207.01-.481.267-.582.479-.177.373.197.459.43.484.638.06 1.286.08 1.924.085 2.937.01 5.878 0 8.815.031 1.169.01 2.323.231 3.513.146 1.17-.086 2.375.176 3.529.01 1.215-.182 2.354.176 3.539.166 6.612-.045 13.224 0 19.836 0 5.878.01 11.756.01 17.634.01.547 0 1.124.035 1.433-.564.197-.378-.486-.711-1.484-.721zM100.719 36.663c-2.096.01-3.681-.846-4.653-2.736-.522-1.007-.243-1.95.314-2.801.48-.73 1.731-.932 2.703-.706 1.919.444 2.861 1.85 3.524 3.492.896 2.222.511 2.736-1.888 2.757zm67.315 137.784c.663.312.82.892.851 1.572.116 2.625-.8 4.988-1.884 7.291-.506 1.063-1.24 2.005-1.807 3.043-.456.822-1.129 1.124-2.03 1.094-.724-.025-1.458 0-2.188 0v.01c-.546 0-1.098.04-1.64-.01-.491-.051-1.215.277-1.362-.428-.071-.318.395-.741.623-1.119 1.068-1.789 2.126-3.588 3.22-5.356.81-1.31 1.676-2.59 2.501-3.89a5.96 5.96 0 0 1 1.929-1.895c.567-.352 1.124-.614 1.782-.302zM92.942 62.688c-.086-.504-.111-1.017-.111-1.017-.016-1.683-.097-2.782.48-3.78.29-.493.664-.906 1.261-.922 1.453-.025 2.906 0 4.354.02.076 0 .178.086.213.157.02.04-.05.166-.106.201-1.879 1.063-3.119 2.736-4.37 4.41-.324.433-.724.816-1.098 1.209-.04.045-.177.045-.243.01-.142-.076-.365-.172-.38-.288m.172 10.44c.765 2.676 1.565 5.342 2.294 8.022 2.187 8.082 4.359 16.16 6.5 24.252 1.418 5.361 2.755 10.747 4.157 16.113.597 2.288 1.271 4.555 1.893 6.838.122.433.188.887.254 1.335.055.383-.238.746-.608.741-3.022-.046-6.05.151-9.062-.303-.816-.12-1.646-.1-2.471-.166-.456-.035-.932-.04-1.352-.181-1.114-.378-1.914-1.119-2.01-2.343-.086-1.094-.056-2.192-.056-3.29.03-11.242.066-22.483.097-33.725.015-4.937.025-9.87.045-14.808 0-.817.046-1.633.071-2.444.086-.015.167-.025.253-.04zm1.19-8.747c1.28-1.89 2.562-3.774 4.283-5.315.203-.177.446-.338.694-.439.354-.14.754-.146.987.207.461.675.916 1.365 1.301 2.086 1.453 2.746 2.876 5.502 4.304 8.258.562 1.079 1.012 2.162.111 3.296-.041.055-.035.18 0 .262.056.16.111.372.238.453.116.076.354.06.491-.01.147-.08.258-.257.354-.403 1.661-2.51 3.312-5.029 4.987-7.533a28 28 0 0 1 1.615-2.207 183 183 0 0 1 3.686-4.419c.957-1.108 2.268-1.481 3.671-1.557.643-.04 1.291-.055 1.924.025 2.08.257 4.171.318 6.262.333 5.6.045 11.199.116 16.799.11 1.21 0 2.081.288 2.774 1.331 1.16 1.743 2.486 3.386 3.635 5.134 2.051 3.114 3.251 6.515 3.109 10.294-.031.721-.162 1.436-.304 2.147a84 84 0 0 1-.866 3.719c-.03.12-.243.267-.384.277a.57.57 0 0 1-.446-.197 12 12 0 0 1-.663-1.194c-2.557-4.938-5.053-9.906-7.25-15.015-.218-.504-.431-1.018-.714-1.477-.116-.186-.43-.252-.653-.367-.086.251-.248.503-.238.755.015.353.111.72.258 1.048.896 1.996 1.808 3.986 2.719 5.976 2.04 4.48 4.455 8.773 6.612 13.197.719 1.47 1.61 2.862 2.39 4.303.07.13-.152.438-.269.645-.025.05-.172.055-.258.045-3.382-.368-6.491.725-9.645 1.713-6.895 2.167-13.619 4.762-20.21 7.73-1.833.82-3.732 1.48-5.615 2.181-.633.232-1.114-.085-1.21-.69-.041-.272-.091-.544-.101-.816-.142-4.369-.937-8.712-.547-13.176-.096-2.389-.228-4.848-.269-7.307-.01-.488.254-1.048.537-1.471 1.276-1.895 2.623-3.739 3.904-5.623.567-.831 1.053-1.708 1.549-2.58.131-.227.197-.504.217-.766.011-.146-.096-.378-.222-.448-.127-.07-.441-.066-.502.025-.556.831-1.053 1.708-1.625 2.53-2.511 3.592-4.982 7.215-7.589 10.737-1.463 1.98-2.977 3.95-4.835 5.593-.678.6-1.412 1.174-2.207 1.592-1.317.69-2.501.474-3.494-.58-.557-.594-1.083-1.254-1.463-1.965-1.762-3.3-3.356-6.676-4.612-10.208a309 309 0 0 0-3.266-8.692c-.222-.564-.273-1.033.066-1.537zm7.564-7.452a9 9 0 0 1 .82-.04c4.501.04 8.997.08 13.498.136.192 0 .379.146.582.227-.107.211-.132.307-.193.377-1.058 1.26-2.096 2.535-3.184 3.77-1.57 1.803-2.719 3.89-4.055 5.85-.411.604-.785 1.234-1.195 1.834-.345.498-.719.458-1.018-.111l-5.873-11.12c-.238-.444.056-.872.618-.923m67.543 23.33c-.101 7.028.147 14.067-.218 21.081-.425 8.118-.151 16.24-.405 24.352-.04 1.184.011 2.374-.01 3.558-.01.564-.46 1.063-1.012 1.113-.729.061-1.468.071-2.203.086-1.923.04-3.852.065-5.776.116-.76.02-1.215-.343-1.322-1.099-.268-1.889-.552-3.784-.633-5.683-.091-2.096-.364-4.167-.526-6.253-.147-1.819-.132-3.648-.182-5.472.045 0 .096-.01.146-.01-.197-4.097-.399-8.188-.597-12.285-.04-.821-.035-1.642-.091-2.464-.071-1.048.091-1.95 1.028-2.65 1.301-.978 1.326-2.54 1.524-3.956.065-.448-.38-.997-.648-1.466-1.14-1.975-2.299-3.93-3.443-5.9-.284-.484-.294-.932-.091-1.522.916-2.66 1.767-5.34 1.681-8.223-.102-3.255-.851-6.313-2.608-9.07-1.271-1.995-2.384-4.106-4.075-5.82-.167-.17-.304-.498-.269-.72.076-.474.532-.403.871-.393 1.828.056 3.645.01 5.483.247 1.985.257 4.025.126 6.045.131 1.924 0 3.853 0 5.772-.07 1.124-.046 1.357-.016 1.625.841a7 7 0 0 1 .319 1.587 9.7 9.7 0 0 1 0 1.915c-.638 5.99-.304 12.012-.395 18.018zm-13.032 13.216a75 75 0 0 1-.784-3.648c-.026-.121.141-.353.273-.418.137-.066.365-.04.522.025 1.068.458 1.134 1.517 1.442 2.242-.01.852-.237 1.436-.794 1.814-.157.106-.648.045-.664-.015zm-40.573-10.067c.349-.091.962.413.992.786q.1 1.21.101 2.428c0 .7-.293 1.008-.956 1.023-.998.02-1.995 0-3.281 0-.851-.116-2.025.297-3.129-.237.724-.796 1.539-1.537 2.152-2.418 1.038-1.497 2.688-1.225 4.121-1.587zm-1.165-1.895q.532-.771 1.094-1.512c.101-.136.263-.231.395-.347.132.176.319.342.395.549.116.332.172.69.243 1.033.131.685-.071.937-.825 1.003-.269.025-.537.025-.912.04-.147-.07-.39-.161-.597-.307-.031-.02.106-.318.207-.459m-9.776 7.508c.43.095.942.262 1.301.116.891-.368 1.787-.323 2.704-.333 2.379-.015 4.759-.035 7.143-.04.567 0 .856.277.897.796.04.549.076 1.093.07 1.637-.02 2.827.421 5.619.628 8.435.015.176.031.363.061.539.177 1.033.628 1.32 1.737 1.119.769-.136.987-.066 1.184.564q.442 1.43.785 2.887c.182.792.299 1.603.44 2.404.066.358-.222.7-.617.72-.456.026-.912.046-1.367.046-1.56.01-3.114 0-4.673 0v.01c-1.646 0-3.296.015-4.947 0-1.604-.015-1.665-.086-2.06-1.557-1.225-4.555-2.461-9.105-3.691-13.665a79 79 0 0 1-.663-2.64c-.238-1.028.045-1.28 1.068-1.048zm4.678 20.064c.461-.02.911-.025 1.367-.03h4.385v-.016c1.918 0 3.837-.01 5.756.011.785.01 1.149.327 1.352 1.078q.273 1.05.531 2.106c.162.68-.111 1.114-.754 1.144-1.281.065-2.557.106-3.838.146-1.635.05-3.275-.02-4.9.343-.785.176-1.641.085-2.461.07-.587 0-.932-.312-1.114-.998a97 97 0 0 1-.78-3.169c-.121-.539-.035-.66.451-.685zm3.2 5.961c2.455-.177 4.921-.313 7.381-.464v.015c.183-.01.365-.03.547-.025.815.025 1.742-.166 2.425.146.831.383.466 1.471.648 2.242a826 826 0 0 1 2.679 11.675c.106.494.673 1.058.162 1.497-.259.221-.876-.041-1.271.095-1.215.403-2.324-.403-3.524-.221-1.169.176-2.359.292-3.539.287-1.088 0-2.172-.187-3.26-.313-.39-.04-.648-.267-.755-.67-.719-2.625-1.453-5.25-2.161-7.88q-.57-2.103-1.094-4.213c-.152-.614-.243-1.239-.365-1.859.648-.474 1.413-.267 2.127-.317zm2.784 16.406a4.6 4.6 0 0 1 1.059-.101c1.372-.01 2.744 0 4.116 0v.176c1.918-.085 3.832-.161 5.746-.272.466-.025.699.242.79.575.304 1.138.562 2.292.82 3.446.38 1.703.38 1.728-1.159 1.723-2.937 0-5.868-.025-8.805-.04-.364 0-.739 0-1.098-.04-.486-.061-.886-.313-1.023-.786-.38-1.31-.724-2.626-1.063-3.946-.127-.483.253-.64.612-.72zm1.777 6.615c.547-.02 1.099-.015 1.646-.015h3.569v.036c1.554 0 3.109-.021 4.663.01 1.408.025 1.772.362 1.969 1.713.041.272.066.544.056.816-.01.408-.212.69-.633.731-.455.04-.911.04-1.372.04-2.926 0-5.852.01-8.779-.01-.835-.01-1.159-.292-1.362-1.068-.131-.529-.243-1.063-.354-1.592-.081-.388.142-.64.597-.655zm1.367 4.485a5 5 0 0 1 .821-.066c2.749 0 5.493-.015 8.242.021.521.01 1.073.151 1.564.347.405.161.745.459.881.968.927 3.602 1.879 7.195 2.82 10.793.37 1.4.739 2.801 1.124 4.202.289 1.048.603 2.086.851 3.139 0 .04-.608.292-.937.312-.82.051-1.65.015-2.471.015h-2.47v.096h-5.225c-.638 0-1.053-.337-1.21-.907a338 338 0 0 1-1.64-6.041c-.897-3.416-1.788-6.843-2.663-10.269a12 12 0 0 1-.309-1.869c-.041-.414.228-.666.633-.731zm5.514 21.293c2.157-.549 4.349-.403 6.536-.413 1.367 0 2.739-.01 4.111.01.37.01.709.162.825.575.233.781.476 1.557.684 2.343.081.302-.37.771-.674.675-1.179-.373-2.329-.03-3.503.035-2.37.136-4.744.071-7.124.086-.516 0-.88-.232-1.017-.726-.172-.604-.339-1.214-.441-1.834-.065-.403.178-.635.598-.745zm1.362 4.445c1.741-.01 3.483 0 5.225 0v-.056c.46 0 .916-.02 1.377 0 1.625.086 3.28-.302 4.885.242.81 2.192 2.036 4.243 2.142 6.676.152 3.437-.572 6.707-1.909 9.831-.339.796-.126 2.005-1.169 2.338-.755.242-1.625.166-2.441.161-1.27-.01-2.546-.076-3.822-.121-1.013-.952-.906-2.333-1.24-3.512-1.327-4.625-2.527-9.286-3.767-13.937-.046-.176-.056-.363-.086-.539-.122-.731.121-1.078.805-1.083m14.682 5.22c-.213-.721 0-1.401.658-1.945 2.172-1.819 4.415-3.537 6.8-5.064.359-.227.648-.247.916.131 1.635 2.303 3.276 4.6 4.906 6.908.212.307.334.589-.203.791-2.081.776-3.331 2.474-4.496 4.217-1.372 2.041-2.657 4.142-3.989 6.208-.294.459-.628.892-.942 1.345-.668.963-1.503 1.573-2.764 1.371-.268-.04-.547 0-.608 0-2.698.091-2.951-.096-1.999-2.55.916-2.368 1.569-4.807 1.767-7.386.101-1.361.359-2.666-.046-4.021zm9.584-8.062c.724-.565 1.554-.877 2.172-.902 1.038.08 1.529.836 1.423 1.587-.117.862-.755 1.416-1.119 2.131-.248.479-.734.565-1.048.101-.507-.746-1.003-1.496-1.524-2.232-.193-.277-.122-.519.091-.69zm-4.703 21.984c-.289 0-.405-.288-.228-.58.572-.937 1.144-1.869 1.731-2.796.876-1.391 1.767-2.772 2.648-4.162.987-1.552 2.142-2.963 3.62-4.092.663-.504 1.549-.136 1.61.721.066.907.162 1.854-.02 2.726-.512 2.489-1.099 4.973-2.051 7.351-.233.58-.617.862-1.25.857-.917-.01-1.838 0-2.754 0v-.02h-3.306zm-13.832 1.194c3.67-.03 7.341-.045 11.006-.061 1.747-.01 3.489 0 5.23 0v-.045c5.413 0 10.83.01 16.242-.01.759 0 1.2.302 1.418.993.025.085.091.161.111.252.618 2.72 1.59 2.781-2 2.781-9.265 0-18.535.025-27.8.06-.911 0-1.817.131-2.729.197-1.276.101-1.878-.282-2.238-1.461a10 10 0 0 1-.308-1.326c-.178-1.078.035-1.365 1.068-1.375zm35.627-16.215c-.349 1.063-1.468 1.29-2.177 1.965-1.068 1.018-1.888 2.207-2.628 3.467-.921 1.572-1.939 3.089-2.789 4.691-.77 1.461-1.747 2.766-2.739 4.061-.648.847-.648.847-1.965.852-.162-.015-.475.04-.693-.086-.182-.101-.4-.443-.355-.61.532-1.919 1.079-3.839 1.691-5.739.755-2.348.476-4.676-.172-6.963-.243-.847-.85-1.597-1.316-2.368-.233-.378-.162-.711.111-.968 2.187-2.081 4.618-3.849 7.174-5.447.405-.257.709-.025.922.267 1.078 1.467 2.126 2.958 3.184 4.44.583.816 1.17 1.622 1.757 2.438zm.061-7.618c-.395 1.018-1.013 1.899-1.732 2.721-1.098-.414-1.559-1.416-2.116-2.323-.451-.731-.334-1.068.527-1.401.577-.227 1.184-.373 1.731-.539.441.161.785.262 1.109.408.4.176.633.751.481 1.139zm-1.362-3.82c.273.635.116 1.099-.557 1.195-2.283.322-4.025 1.718-5.843 2.912-1.832 1.209-3.518 2.625-5.28 3.945-.096.071-.284.025-.43.031.015-.172 0-.348.05-.504.061-.167.177-.318.294-.459 1.129-1.431 1.154-2.902.43-4.555-2.987-6.888-4.718-14.149-6.298-21.445-.653-3.018-1.256-6.066-1.61-9.125-.349-2.983-1.002-5.93-1.169-8.923-.178-3.28-.102-6.576-.092-9.866.016-3.472-.01-6.953.178-10.415.076-1.366-.056-2.701-.071-4.046q-.024-1.921-.102-3.835a1.7 1.7 0 0 0-.243-.755c-.065-.111-.303-.131-.465-.162-.056-.01-.178.081-.193.141-.071.348-.167.696-.172 1.049-.01 4.751 0 9.497 0 14.254h-.061c0 3.562.011 7.125 0 10.687-.01 2.837.36 5.633.897 8.41.055.267.151.534.162.796.096 2.741.734 5.401 1.199 8.092.598 3.401 1.342 6.767 2.091 10.143 1.043 4.721 2.512 9.306 4.238 13.816.289.756.228.937-.608 1.098-1.746.333-3.28 1.114-4.759 2.046a60 60 0 0 0-6.86 5.029c-.693.594-.941.504-1.296-.444-1.893-5.033-3.412-10.188-4.83-15.363-1.321-4.827-2.516-9.684-3.711-14.541a2628 2628 0 0 1-5.037-20.951c-.446-1.86-.755-3.744-1.17-5.608-.911-4.172-1.412-8.43-2.663-12.532-.121-.393.132-.675.511-.831.846-.348 1.691-.705 2.532-1.058 3.296-1.37 6.597-2.711 9.872-4.107 2.527-1.073 5.083-2.035 7.726-2.796 2.719-.786 5.342-1.87 8.086-2.6 1.083-.287 2.141-.454 3.245-.413.38.02.688.211.785.63.562 2.393.987 4.812 1.124 7.275.081 1.462.096 2.923.162 4.379.116 2.459.293 4.908.374 7.367.081 2.373-.066 4.761.132 7.124.309 3.719.506 7.448.921 11.156.689 6.253 1.924 12.395 3.463 18.482 1.322 5.21 2.937 10.334 5.058 15.282zm-81.289-20.159c-2.202.025-4.4.095-6.602.015-2.84-.106-4.632-1.683-5.523-4.475-.345-1.078-.395-2.141-.4-3.235 0-10.954 0-21.913-.006-32.867v-6.021h.066c0-12.783.01-25.572-.01-38.35 0-1.945.269-3.814 1.068-5.578.785-1.733 2.122-2.645 4.106-2.6 2.289.056 4.587.01 6.876.03.08 0 .187.202.238.328.025.06-.056.166-.107.242-1.66 2.53-2.08 5.32-2.065 8.299.01 1.542.324 3.058.207 4.61-.157 2.086-.283 4.177-.288 6.268-.05 20.724-.071 41.454-.102 62.178 0 1.28.056 2.56.026 3.834-.04 1.396.41 2.696.744 4.006.304 1.184 1.205 2.021 2.066 2.852.06.06.126.227.111.237-.121.096-.263.227-.405.227m24.914.136c-1.281-.086-2.516.287-3.812.115-1.266-.161-2.567-.055-3.853-.075s-2.572-.056-3.853-.066c-2.48-.025-4.961-.045-7.437-.07-.552 0-1.104.01-1.65-.056-2.876-.362-4.815-2.247-5.281-5.109-.233-1.436-.395-2.842-.228-4.328.106-.922.304-1.95-.137-2.953-.237-.534-.065-1.259-.065-1.899.01-8.501.01-16.996.04-25.496 0-1.356.152-2.711.117-4.066-.03-1.265-.248-2.535.121-3.79-.45-2.086.228-4.156.091-6.253-.131-2.096-.02-4.202-.02-6.303v-6.58c0-2.102.01-4.203.01-6.304v-6.303c0-2.102.056-4.208 0-6.304-.04-1.582.177-3.094.79-4.55.785-1.864 2.141-2.877 4.243-2.857 3.852.03 7.715.01 11.568.015.385 0 .653.444.471.766-.597 1.028-1.23 2.03-1.797 3.069-.162.297-.198.675-.213 1.023-.01.11.208.252.344.347.061.04.223.046.264 0a4 4 0 0 0 .496-.62c.703-1.173 1.453-2.332 2.065-3.552.451-.892 1.109-1.098 2.01-1.073 5.119.146 10.242-.136 15.361.328 2.369.211 4.774.07 7.159.08 14.783.06 29.572.141 44.35.146 1.585 0 3.073.429 4.607.62 1.2.146 2.127.988 2.674 2.157a11.5 11.5 0 0 1 1.048 4.49c.055 2.01.091 4.02.091 6.03.01 10.602 0 21.203 0 31.8h-.137c0 12.067.01 24.13-.01 36.193 0 1.169.147 2.353-.334 3.512-.188.458.055 1.078.04 1.617-.03 1.441-.106 2.827-.987 4.132-.613.907-1.24 1.502-2.293 1.743-1.6.363-3.185.847-4.841.862-2.84.025-5.69 0-8.541-.025-.85-.01-.987-.126-1.204-1.139a373 373 0 0 1-1.489-7.482c-.035-.187.192-.565.365-.62.962-.287 1.934-.514 2.966-.504 1.833.015 3.671-.04 5.509-.121 1.291-.06 2-.781 2.081-2.086.06-1.003.025-2.01.03-3.013.01-5.573-.132-11.156.086-16.719.192-5.013.304-10.032.395-15.045.086-4.475.03-8.954.051-13.433.01-3.835 0-7.68.07-11.514.056-2.902.233-5.804.35-8.707.02-.549.045-1.103-.026-1.642-.258-1.98-1.402-3.17-3.604-2.782a23 23 0 0 1-5.458.277c-7.701-.503-15.406-.322-23.107-.458-2.481-.045-4.966.086-7.437-.07-7.053-.46-14.12-.348-21.178-.444-3.397-.05-6.799-.025-10.196-.086-1.459-.025-2.922.056-4.38-.287-1.164-.272-2.222.358-2.957 1.139-.51.544-.637 1.481-.845 2.262-.116.428-.035.907-.04 1.366l-.122 56.206c-.01 2.469 0 4.938-.025 7.402-.01.721-.091 1.446-.178 2.167-.146 1.214.147 2.348.704 3.396.537 1.018 1.372 1.486 2.633 1.633 4.106.478 8.227.493 12.348.534.273 0 .552 0 .825.015.643.04 1.074.332 1.236.902.121.438.162.902.278 1.34.476 1.759 1.003 3.497 1.428 5.266.4 1.662.207 1.949-1.585 1.829zm25.127 73.933c-.273.015-.547 0-.825 0v.02h-.552c-.77-.025-.952-.131-1.159-.872-.694-2.449-1.393-4.898-2.041-7.356-.693-2.636-1.291-5.296-1.989-7.931-1.534-5.8-3.129-11.579-4.668-17.379-1.539-5.799-3.038-11.614-4.567-17.414-1.6-6.061-3.225-12.118-4.825-18.179-1.509-5.714-2.992-11.438-4.511-17.152-1.979-7.467-3.994-14.93-5.959-22.402-2.263-8.611-4.465-17.233-6.723-25.844-.74-2.811-1.58-5.598-2.375-8.4a303 303 0 0 1-1.16-4.192c-.014-.055.193-.191.315-.246.055-.026.207.04.233.095.46 1.084.967 2.152 1.346 3.265 1.504 4.4 3.18 8.722 5.428 12.809 1.012 1.844 1.655 3.834 2.187 5.87 2.384 9.06 4.81 18.104 7.199 27.159 1.691 6.419 3.342 12.843 5.017 19.263 1.742 6.686 3.484 13.372 5.235 20.054 2.162 8.268 4.299 16.542 6.521 24.795 2.269 8.425 4.542 16.85 6.633 25.32.546 2.207 1.21 4.383 1.812 6.575.101.348.193.706.258 1.063.132.701-.136 1.053-.83 1.089zm35.769.105c-3.853.01-7.711 0-11.563 0h-4.679v-.07h-13.214c-.916 0-1.837 0-2.754-.02-.987-.026-1.296-.262-1.539-1.205-1.64-6.237-3.275-12.48-4.906-18.718-.147-.58.066-.912.618-.938a46 46 0 0 1 2.202-.045c3.119-.01 6.248.121 9.356-.04 6.688-.348 13.376-.308 20.069-.313.552 0 1.099-.015 1.651.01.613.026 1.048.383 1.144.983.79 5.044 2.446 9.876 3.635 14.824.365 1.496.648 3.018.922 4.535.116.645-.243 1.002-.937 1.002zm5.908-.126c-.992.061-1.994.111-2.987.041-.248-.015-.587-.459-.678-.761a17.6 17.6 0 0 1-.582-2.656c-.4-2.892-1.357-5.648-2.137-8.439-.982-3.497-1.65-7.06-2.476-10.597-.268-1.144-.526-2.302-.906-3.416-.39-1.139-.288-2.116.456-3.074.39-.503.643-1.108.987-1.637.132-.202.339-.428.557-.489.359-.101.415.242.476.499q1.588 6.332 3.169 12.672c1.175 4.742 2.344 9.483 3.671 14.839v.01c.03.086.091.277.142.474.582 2.242.612 2.514.308 2.534"/>
    <path fill="#1e1c1c" d="M115.943 82.239c-.269.025-.537.025-.912.04-.147-.07-.39-.161-.597-.307-.031-.02.106-.318.207-.459q.532-.771 1.094-1.512c.101-.136.263-.231.395-.347.132.176.319.342.395.549.116.332.172.69.243 1.033.131.685-.071.937-.825 1.003m50.962 90.172c-.349 1.063-1.468 1.29-2.177 1.965-1.068 1.018-1.888 2.207-2.628 3.467-.921 1.572-1.939 3.089-2.789 4.691-.77 1.461-1.747 2.766-2.739 4.061-.648.847-.648.847-1.965.852-.162-.015-.475.04-.693-.086-.182-.101-.4-.443-.355-.61.532-1.919 1.079-3.839 1.691-5.739.755-2.348.476-4.676-.172-6.963-.243-.847-.85-1.597-1.316-2.368-.233-.378-.162-.711.111-.968 2.187-2.081 4.618-3.849 7.174-5.447.405-.257.709-.025.922.267 1.078 1.467 2.126 2.958 3.184 4.44.583.816 1.17 1.622 1.757 2.438z"/>
    <path fill="#1e1c1c" d="M153.306 174.331c-2.081.776-3.331 2.474-4.496 4.217-1.372 2.041-2.657 4.142-3.989 6.208-.294.459-.628.892-.942 1.345-.668.963-1.503 1.573-2.764 1.371-.268-.04-.547 0-.608 0-2.698.091-2.951-.096-1.999-2.55.916-2.368 1.569-4.807 1.767-7.386.101-1.361.359-2.666-.046-4.021-.213-.721 0-1.401.658-1.945 2.172-1.819 4.415-3.537 6.8-5.064.359-.227.648-.247.916.131 1.635 2.303 3.276 4.6 4.906 6.908.212.307.334.59-.203.791zm16.5-112.091c-.638 5.991-.304 12.012-.395 18.018-.101 7.03.147 14.068-.218 21.082-.425 8.118-.151 16.24-.405 24.352-.04 1.184.011 2.374-.01 3.558-.01.564-.46 1.063-1.012 1.113-.729.061-1.468.071-2.203.086-1.923.04-3.852.065-5.776.116-.76.02-1.215-.343-1.322-1.099-.268-1.889-.552-3.784-.633-5.683-.091-2.096-.364-4.167-.526-6.253-.147-1.819-.132-3.648-.182-5.472.045 0 .096-.01.146-.01-.197-4.097-.399-8.188-.597-12.285-.04-.821-.035-1.642-.091-2.464-.071-1.048.091-1.95 1.028-2.65 1.301-.978 1.326-2.54 1.524-3.956.065-.448-.38-.997-.648-1.466-1.14-1.975-2.299-3.93-3.443-5.9-.284-.484-.294-.932-.091-1.522.916-2.66 1.767-5.34 1.681-8.223-.102-3.255-.851-6.313-2.608-9.07-1.271-1.995-2.384-4.106-4.075-5.82-.167-.17-.304-.498-.269-.72.076-.474.532-.403.871-.393 1.828.056 3.645.01 5.483.247 1.985.257 4.025.126 6.045.131 1.924 0 3.853 0 5.772-.07 1.124-.046 1.357-.016 1.625.841a7 7 0 0 1 .319 1.587 9.7 9.7 0 0 1 0 1.915zm-43.221 67.897c-.259.221-.876-.041-1.271.095-1.215.403-2.324-.403-3.524-.221-1.169.176-2.359.292-3.539.287-1.088 0-2.172-.187-3.26-.313-.39-.04-.648-.267-.755-.67-.719-2.625-1.453-5.25-2.161-7.88q-.57-2.103-1.094-4.213c-.152-.614-.243-1.239-.365-1.859.648-.474 1.413-.267 2.127-.317 2.455-.177 4.921-.313 7.381-.464v.015c.183-.01.365-.03.547-.025.815.025 1.742-.166 2.425.146.831.383.466 1.471.648 2.242a826 826 0 0 1 2.679 11.675c.106.494.673 1.058.162 1.497zm-18.981.292c-3.022-.046-6.05.151-9.062-.303-.816-.12-1.646-.1-2.471-.166-.456-.035-.932-.04-1.352-.181-1.114-.378-1.914-1.119-2.01-2.343-.086-1.094-.056-2.192-.056-3.29.03-11.242.066-22.483.097-33.725.015-4.937.025-9.87.045-14.808 0-.817.046-1.633.071-2.444.086-.015.167-.025.253-.04.765 2.675 1.565 5.34 2.294 8.021 2.187 8.082 4.359 16.16 6.5 24.252 1.418 5.361 2.755 10.747 4.157 16.113.597 2.288 1.271 4.555 1.894 6.838.121.433.187.887.253 1.335.055.383-.238.746-.608.741zm13.594-22.564c-.456.026-.912.046-1.367.046-1.56.01-3.114 0-4.673 0v.01c-1.646 0-3.296.015-4.947 0-1.604-.015-1.665-.086-2.06-1.557-1.225-4.555-2.461-9.105-3.691-13.665a79 79 0 0 1-.663-2.64c-.238-1.028.045-1.28 1.068-1.048.43.095.942.262 1.301.115.891-.367 1.787-.322 2.704-.332 2.379-.015 4.759-.035 7.143-.04.567 0 .856.277.897.796.04.549.075 1.093.07 1.637-.02 2.827.421 5.618.628 8.435.015.177.031.363.061.539.177 1.033.628 1.32 1.737 1.119.769-.136.987-.066 1.184.564q.442 1.43.785 2.887c.182.791.299 1.603.44 2.404.066.358-.222.7-.617.72zm-4.43-50.613c-.107.211-.132.307-.193.377-1.058 1.26-2.096 2.535-3.184 3.77-1.57 1.803-2.719 3.89-4.055 5.85-.411.604-.785 1.234-1.195 1.834-.345.498-.719.458-1.018-.111l-5.873-11.12c-.238-.444.056-.872.618-.923a9 9 0 0 1 .82-.04c4.501.04 8.997.08 13.498.136.192 0 .379.146.582.227M79.399 168.219c-2.936 0-5.873.025-8.81-.01-1.827-.02-3.65.081-5.482-.262-1.155-.217-2.38-.06-3.57-.076-1.377-.015-2.754-.04-4.131-.035-.82 0-1.62-.01-2.44.237-.765.227-1.63.171-2.45.176-2.03 0-3.985-.443-5.914-1.033-1.266-.383-2.293-1.103-3.17-2.086-1.265-1.421-1.25-3.33.092-4.665 1.372-1.371 3.134-1.814 4.982-2.021 1.858-.207 3.64.227 5.407.726.703.196 1.382.483 2.08.685 1.175.337 1.702.06 2.091-1.053.092-.257.142-.524.228-.786.522-1.593 1.696-2.268 3.316-2.404 3.114-.262 5.985.6 8.774 1.829.922.408 1.818.872 2.73 1.3.369.177.718.091 1.027-.146.653-.499 1.296-1.013 1.939-1.527.744-.589 1.58-.851 2.537-.896 3.088-.142 5.842.644 7.948 2.977 1.732 1.915 3.656 2.495 6.162 1.653 1.083-.363 2.364-.232 3.549-.186.612.025 1.23.307 1.817.549.84.343 1.246 1.018 1.327 1.915.172 1.909-.32 2.867-2.112 3.718a14.3 14.3 0 0 1-6.09 1.411c-3.944.025-7.893.01-11.837.01m1.929-1.174c.152-.03.435-.176.688-.131 3.747.68 7.468-.07 11.2-.176 1.498-.046 2.85-.615 4.14-1.3.821-.434 1.07-1.184.978-2.086-.091-.897-.785-1.184-1.463-1.436a3.4 3.4 0 0 0-1.342-.202c-.906.051-1.807.192-2.713.302-.816.101-1.626.222-2.44.313-1.373.156-2.507-.348-3.479-1.29-.526-.509-1.083-.988-1.595-1.507-1.134-1.164-2.602-1.733-4.116-2.055-1.934-.419-3.838-.293-5.361 1.254-.193.197-.41.363-.603.559-.911.902-1.919.918-3.017.368-1.144-.569-2.289-1.148-3.468-1.642-1.777-.741-3.62-1.285-5.57-1.27-.992.01-2.05-.186-2.93.453-.8.58-.917 1.512-1.155 2.394-.269.982-1.048 1.527-2.03 1.527a7 7 0 0 1-1.62-.202c-.618-.151-1.205-.433-1.823-.59-1.59-.413-3.17-.947-4.845-.745-1.555.186-3.063.549-4.304 1.587-1.043.877-1.108 2.121-.222 3.129.678.771 1.483 1.436 2.46 1.693 2.719.715 5.438 1.602 8.318.826.43-.116.907-.08 1.362-.08 2.203 0 4.4-.01 6.602.04 1.55.035 3.104.081 4.653.171 1.792.106 3.625.388 5.427.111.638-.101 1.236-.07 1.874-.04 2.09.101 4.187.035 6.399.035zM164.08 24.5c.238.126.623.227.84.474.674.745 1.276 1.552 1.914 2.323.638.765.911.806 1.899.403a93 93 0 0 1 3.569-1.396c.547-.197 1.104.373.952.962a6.6 6.6 0 0 1-.491 1.255 80 80 0 0 1-1.433 2.645c-.496.887-.466 1.668.162 2.535.8 1.103 1.468 2.307 2.162 3.486.283.484-.218 1.25-.755 1.134-.977-.216-1.939-.509-2.895-.796-.694-.206-1.428-.736-2.051-.615-.861.162-.916 1.27-1.352 1.95-.44.69-.79 1.436-1.245 2.111-.177.268-.496.615-.906.343-.213-.14-.446-.388-.486-.62a94 94 0 0 1-.542-3.779c-.046-.362-.041-.73-.056-1.093-.025-.534-.339-.806-.835-.917a112 112 0 0 1-1.863-.444c-.446-.105-.902-.176-1.327-.337-.329-.121-.779-.297-.876-.56-.187-.493.274-.8.648-1.068.147-.105.309-.196.461-.297.997-.635 1.995-1.265 2.997-1.9.056-1.174.036-2.358.193-3.521.096-.696.445-1.361.724-2.021.045-.116.308-.136.597-.252zm6.804 12.093c.142-.02.345 0 .481-.076.33-.191.168-.498.041-.695-.552-.836-1.175-1.628-1.701-2.474-.167-.267-.253-.72-.142-.998.405-1.013.911-1.985 1.377-2.968.157-.327.319-.644.461-.977.025-.06-.015-.171-.061-.232-.051-.065-.157-.146-.213-.13-.435.135-.88.251-1.285.448-2.739 1.33-2.259 1.541-4.405-1.064a11 11 0 0 1-.491-.66c-.177-.252-.395-.347-.648-.136-.132.111-.299.277-.304.429-.061 1.088-.086 2.181-.111 3.27-.016.625-.35 1.083-.907 1.234-.825.222-1.534.57-2.111 1.2-.202.216-.142.508.157.589.354.096.714.156 1.063.257.694.197 1.494.262 2.046.655.653.469.248 1.36.359 2.066.041.267.086.539.162.801.142.519.304 1.033.461 1.547.597-.166.617-.781.916-1.18.38-.508.633-1.118 1.043-1.591.198-.227.684-.398.962-.323.962.267 1.894.66 2.856 1.013zM127.906 87.1c-.82 0-1.645.046-2.466-.01-1.858-.12-3.088-1.133-3.412-2.952-.172-.967-.096-1.985-.071-2.983.005-.196.304-.549.466-.544q1.913.021 3.817.171c.815.066 1.626.348 2.425.313 1.848-.08 3.61.468 5.423.61.177.015.349.1.521.16.37.132.694.746.567 1.13-.714 2.176-2.055 4.176-5.078 4.136-.729-.01-1.463 0-2.192 0zm-.071-1.113c.82-.005 1.641.026 2.456-.015 1.362-.065 2.43-.66 3.123-1.864.299-.514.102-1.23-.435-1.31-1.245-.181-2.435-.65-3.741-.59-1.261.06-2.542.026-3.777-.378-.415-.136-.896-.11-1.347-.126-.83-.025-1.139.323-1.134 1.124.01 2.217 1.412 3.27 3.225 3.16.542-.03 1.088 0 1.635 0z"/>
</svg>
