<svg xmlns="http://www.w3.org/2000/svg" width="151" height="164" fill="none" viewBox="0 0 151 164">
    <path fill="#000" d="M132.326 56.605c-.84-.62-1.802-1.198-2.795-1.454-1.494-.384-3.055-.502-4.6-.686-3.736-.43-7.539-.64-10.656-3.168-.378-.312-.834-.527-1.233-.803-3.854-2.677-7.989-3.629-12.569-2.185-2.83.88-5.64.706-8.43-.318-1.069-.394-2.23-.931-3.3-.834-1.648.143-2.528-.701-3.516-1.725-3.997-4.145-8.357-7.87-13.363-10.747-1.97-1.131-4.053-2.236-6.233-2.825-4.365-1.197-5.578-.389-7.8 2.283-.941 1.13-1.842 2.303-2.789 3.434-.465.558-.992 1.07-1.489 1.602-.276-.732-.563-1.46-.819-2.196-.194-.537-.327-1.1-.522-1.638-1.064-2.917-3.88-5.42-7.717-5.414-4.161.015-8.373 2.855-9.995 7.124-1.29 3.393-1.976 6.934-1.884 10.578.067 2.697.343 5.394.481 8.096.123 2.365.22 4.74.292 7.109.036 1.382-.522 2.518-1.49 3.516-.966.993-1.831 2.088-2.742 3.142-1.843 2.134-2.749 4.55-2.518 7.431.174 2.073.614 4.043 1.402 5.942 2.451 5.906 6.663 10.225 12.155 13.378.68.389 1.356.772 2.507 1.433-.936.03-1.31.056-1.689.046-3.52-.103-7.042-.19-10.563-.328-9.657-.368-19.314-.762-28.971-1.146-.573-.026-1.264-.18-1.449.527-.102.4.057.998.318 1.346 1.796 2.313 4.027 2.671 6.924 3.347 1.98.455 4.043.578 6.085.747 1.71.143 3.434.128 5.159.205.727.031.88.389.332.865-1.197 1.028-1.125 2.282-.7 3.592.306.932.706 1.833 1.069 2.749 1.71 4.34 3.531 8.638 5.102 13.029 1.505 4.233 1.725 8.542-.634 12.58a52 52 0 0 1-4.448 6.469c-4.913 6.136-9.933 12.185-14.908 18.27-.26.318-.542.625-.747.973-.65 1.09-.307 2.195.911 2.518 1.095.286 2.262.445 3.393.429 7.615-.092 15.23-.358 22.846-.348 7.702.011 15.4.272 23.096.42 1.152.026 2.523.256 2.953-1.116.43-1.371-.895-1.919-1.786-2.599-1.167-.896-2.313-1.827-3.48-2.728-.547-.42-.645-.809-.24-1.428 1.3-1.991 2.471-4.064 3.812-6.024 3.056-4.457 6.06-8.981 9.95-12.779 8.198-8.014 16.525-15.901 25.281-23.316.993-.845 1.975-1.766 2.728-2.815.594-.824.983-1.868 1.182-2.876.195-.978-.614-1.612-1.315-2.211-.138-.118-.128-.409-.19-.624.226-.062.446-.164.66-.174 2.053-.021 4.105.056 6.147-.041 3.828-.195 7.114-.062 9.826-2.815.445-.461.845-1.008 1.101-1.587.092-.209-.231-.819-.492-.92-.43-.18-.962-.103-1.453-.113-3.521-.082-7.042-.139-10.568-.251a8602 8602 0 0 1-38.332-1.275c-1.065-.035-2.247.405-3.22-.445.758-.732 1.474-1.51 2.283-2.175 11.095-9.207 22.237-18.362 33.296-27.615 2.365-1.986 4.867-2.395 7.754-1.74 2.471.563 4.974.987 7.456 1.484a9.3 9.3 0 0 0 4.616-.236c1.254-.373 2.513-.737 3.726-1.213 2.088-.813 4.207-1.335 6.469-1.13 1.633.143 3.265.312 4.898.332 1.213.015 2.456-.056 3.623-.327 3.833-.901 4.816-6.398 1.812-8.608m-69.09-23.998c1.663.343 3.337.855 4.877 1.571 5.323 2.472 9.831 6.121 14.09 10.093.777.726 1.499 1.51 2.256 2.257 1.095 1.085 1.546 1.207-.317 2.538-.333.24-.686.445-1.039.645-.722.399-1.295.363-1.93-.312-2.691-2.871-5.619-5.502-8.93-7.62a46 46 0 0 0-6.474-3.45c-1.223-.543-2.671-.711-4.038-.819-1.53-.123-1.765-.21-1.904-1.714-.02-.164-.025-.328-.04-.487.015-2.01 1.32-3.132 3.449-2.702M80.17 50.586c-.87-.113-1.433-.159-1.986-.261-2.395-.425-4.734-.363-6.914.85-.824.455-1.454.496-2.15-.267-2.953-3.198-5.583-6.627-7.727-10.414-.077-.144-.134-.302-.195-.45-.379-.937-.22-1.29.711-1.244.88.04 1.817.112 2.626.44 1.878.773 3.782 1.556 5.512 2.605 3.296 2.006 6.28 4.432 8.966 7.21.374.385.655.866 1.157 1.531M35.329 38.672c.91-3.158 2.891-5.43 5.91-6.802 3.43-1.556 8.404-.778 9.919 4.514.358 1.244.507 2.554.701 3.844.056.394.077.875-.097 1.202-.297.558-.752 1.438-1.167 1.449-.803.03-.568-.942-.763-1.515-.547-1.612-1.044-3.255-1.724-4.816-.61-1.387-1.878-2.022-3.352-2.14-3.163-.24-5.43 1.03-6.659 3.9-1.013 2.36-1.596 4.806-1.694 7.39.195 2.529.425 5.047.574 7.58.097 1.71.015 3.429.148 5.138.123 1.408-.604 2.324-1.469 3.214-.143.154-.46.333-.583.271-.17-.082-.302-.378-.312-.598a713 713 0 0 1-.538-8.803c-.107-1.878-.21-3.756-.24-5.63-.051-2.81.573-5.527 1.346-8.198m12.983 7.226c-2.901 3.736-5.895 7.41-8.869 11.095-.133.164-.394.226-.598.338-.087-.194-.246-.384-.261-.583-.292-3.66-.558-7.313-.835-10.973.159-2.656.594-5.21 1.843-7.58.599-1.13 1.433-1.98 2.692-2.338 2.584-.732 4.35.015 5.276 2.554.635 1.74.967 3.613 1.264 5.45.108.64-.107 1.52-.512 2.037M21.47 111.585c-.44-.957-.804-1.95-1.208-2.917-.338-.789.015-1.178.732-1.474.686-.287 1.269-.379 1.627.409.435.947.834 1.904 1.223 2.799-.204.528-.266.968-.506 1.249-.297.333-.722.645-1.136.732-.19.041-.574-.471-.732-.798m33.148 50.046c.22.179.363.461.542.701-.271.108-.548.333-.819.328-4.258-.036-8.516-.097-12.774-.174-2.287-.041-4.575-.133-7.733-.225-5.358.061-11.581.128-17.81.204-3.024.036-6.049.108-9.073.134-.568.01-1.157-.036-1.7-.185-.424-.112-.675-.501-.363-.952.374-.537.788-1.038 1.208-1.545 4.98-6.085 9.974-12.155 14.934-18.25.875-1.075 1.632-2.252 2.39-3.419.399-.604.767-.742 1.36-.256 1.142.932 2.314 1.822 3.466 2.743 8.792 6.961 17.584 13.921 26.372 20.896m36.648-50.359a206 206 0 0 1-4.094 3.532c-.138.117-.476.148-.635.056-.18-.102-.358-.374-.363-.578-.01-.307.025-.722.22-.916 1.218-1.198 2.451-2.39 3.751-3.486.47-.394 1.51.231 1.454.87-.077.128-.17.374-.333.522m1.525-2.599c.026.102-.368.419-.496.383-.302-.087-.589-.291-.82-.516-.572-.579-1.14-.558-1.724-.057-1.249 1.06-2.518 2.099-3.72 3.204-1.055.972-1.428 2.211-.876 3.577.282.696.297 1.157-.307 1.699a817 817 0 0 0-10.312 9.479c-3.762 3.531-7.615 6.98-11.188 10.696-4.263 4.447-7.697 9.555-10.998 14.744-.864 1.351-1.857 2.615-2.794 3.925-1.244-.926-2.518-1.811-3.736-2.774a18652 18652 0 0 1-19.442-15.419c-.323-.251-.63-.517-.957-.768-.543-.415-.568-.885-.307-1.51.404-.977.767-1.985 1.038-3.004.287-1.1.446-2.242.732-3.751-.358-1.838-.63-4.043-1.248-6.136-.717-2.431-1.71-4.78-2.641-7.14-.302-.752-.415-1.223.348-1.878 2.067-1.75 2.185-2.656 1.044-5.138-.21-.44-.42-.886-.66-1.31-.927-1.669-1.044-1.71-2.902-1.131-.235.076-.47.225-.696.22-.282-.005-.686-.057-.804-.236-.143-.23-.153-.65-.046-.911.446-1.018 1.92-1.683 3.132-1.356.615.169 1.275.445 1.725.87 1.136 1.049 2.293 2.119 3.204 3.357 3.444 4.683 6.77 9.453 10.18 14.161a18.1 18.1 0 0 0 5.624 5.077c3.045 1.75 6.438 1.802 9.79 1.182a18 18 0 0 0 6.371-2.472c5.425-3.398 10.517-7.236 15.615-11.095a198 198 0 0 1 9.8-6.965c1.126-.747 2.518-1.147 3.839-1.53 1.468-.43 2.748.209 3.792 1.212.302.287.363.855.44 1.311m-44.366 4.534c.03-.983.051-2.779.154-4.575.046-.891.112-1.832.424-2.646.246-.625.83-1.177 1.377-1.602.502-.384 1.1-.302 1.392.394.164.379.348.757.43 1.152.768 3.766 1.56 7.543 1.402 11.422-.025.63-.138 1.321-.43 1.868-1.238 2.298-2.594 4.54-3.833 6.843-.522.967-1.213 1.243-2.221.977-.312-.082-.655-.056-.972-.128-1.873-.419-2.042-.808-1.06-2.41.43-.691.875-1.377 1.316-2.068 1.642-2.569 2.44-5.343 2.021-9.227m19.094-8.255c-.184-.65.39-.599.732-.594 1.551.021 3.096.082 4.924.133-2.073 2.124-3.926 4.013-5.778 5.906.26-1.888.644-3.628.122-5.445m4.458 2.574c.9-.885 1.878-1.591 3.101-1.852 1.152-.251 2.344.742 2.35 1.883-.016.159.01.348-.067.481-1.106 1.883-2.226 3.772-3.342 5.655-4.299 3.107-8.588 6.218-12.897 9.309-.194.139-.542.062-.819.082.062-.215.062-.476.185-.655 1.453-2.067 2.927-4.125 4.39-6.187 2.165-3.071 4.407-6.07 7.099-8.716m-5.45-.43c-.01.159-.046.328-.093.481-1.248 3.614-2.144 7.385-4.508 10.507-1.771 2.344-3.521 4.698-5.405 6.955-1.269 1.51-3.03 2.114-5.015 2.078-.926-.015-1.085-.23-.691-.962 2.953-5.456 5.875-10.926 8.88-16.346.71-1.269 1.668-2.411 2.569-3.562.347-.44.818-.829 1.315-1.08 1.57-.798 3.05.2 2.948 1.929m-4.873-2.108c-2.43 2.415-3.776 5.512-5.353 8.454-.194.364-.389.717-.604 1.065-.082.123-.24.205-.363.307-.128-.174-.333-.322-.363-.507-.604-3.214-1.172-6.433-1.771-9.642-.102-.547.123-.772.604-.762 1.31.02 2.62.066 3.925.107 1.152.036 2.293.036 3.44.108.777.046.967.384.486.87m-13.628-.323c-.369.876-.568 1.874-.614 2.825-.123 2.534-.2 5.067-.159 7.6.03 2.273-.44 4.361-1.689 6.28-.619.957-1.161 1.97-1.786 2.927-.675 1.044-.834 1.044-1.899.225-2.175-1.663-3.771-3.848-5.337-6.044-2.61-3.654-5.144-7.369-7.8-10.993-1.003-1.371-2.267-2.553-3.408-3.828-.2-.225-.384-.471-.573-.706.353-.102.706-.297 1.059-.287 3.51.082 7.026.195 9.954.282 4.253.251 7.917.471 11.581.691.666.046 1.04.153.67 1.028m29.954.906c-.47-.614-.066-.844.553-.829 2.446.072 4.892.149 7.8.23-2.83 1.945-5.303 3.639-7.78 5.318-.133.092-.378.015-.573.015 0-.158-.056-.353.02-.455 1.024-1.438 1.075-2.836-.02-4.279m28.189-4.411c.629.015 1.254.174 1.878.266-2.738 3.122-7.544 2.717-11.418 2.758-3.746.036-7.482-.271-11.218-.399-11.06-.363-22.114-.87-33.168-1.325-13.757-.568-27.534-.85-41.27-1.72-2.093-.133-4.524-.64-6.494-1.33-.174-.062-2.733-1.188-2.124-1.398.276-.092.568-.281.844-.27 5.978.173 11.96.388 17.938.567 11.392.348 22.774.686 34.161 1.024-.005.102-.005.2-.01.302 16.96.501 33.926 1.008 50.881 1.525M79.828 76.426c-2.334 1.919-4.663 3.848-6.996 5.772-2.646 2.186-5.287 4.381-7.938 6.556-.435.353-.916.655-1.392.998-.353-.158-.686-.235-.937-.414-2.359-1.756-4.703-3.531-7.052-5.297-.45-.333-.343-.691-.025-1.008.972-.998 1.965-1.97 2.953-2.943q5.136-5.096 10.281-10.184c1.07-1.055 1.228-1.111 2.477-.277 2.85 1.904 5.717 3.777 8.588 5.655.573.374.522.742.04 1.142m10.7-8.905c-2.737 2.344-5.537 4.61-8.3 6.914-.456.373-.855.327-1.326.015-1.637-1.085-3.295-2.134-4.938-3.204-1.715-1.11-3.404-2.262-5.144-3.341-1.12-.691-1.402-.656-2.343.286-4.699 4.678-9.392 9.37-14.06 14.08-1.232 1.248-1.202 1.575.252 2.717 2.246 1.77 4.544 3.49 6.837 5.2.624.465.64.844.056 1.33-2.078 1.735-4.12 3.5-6.218 5.205-1.07.875-2.426.89-3.726.962-4.959.297-9.37-1.285-13.336-4.11-3.798-2.697-6.843-6.11-8.752-10.404-.593-1.341-1.105-2.754-1.356-4.187-.537-3.075-.138-5.829 2.021-8.464 9.033-11.024 17.872-22.196 26.792-33.307.348-.44.763-.834 1.157-1.248.169.179.327.286.363.42 1.285 5.066 4.279 9.15 7.57 13.055 4.083 4.851 8.786 9.038 14.048 12.569 3.065 2.062 6.279 3.859 9.948 4.642.533.117 1.106.327.456.87m42.135-6.659c-.199 1.669-1.069 2.723-2.61 3.21-.68.214-1.433.306-2.159.322-1.142.025-2.288-.057-3.209-.082-3.895-.84-7.349-.092-10.753 1.3-2.533 1.034-5.133 1.57-7.896.762-1.72-.506-3.521-.726-5.261-1.161-2.022-.507-4.08-.64-6.075-.149-3.787.937-7.109-.194-10.318-1.996-4.513-2.538-8.592-5.68-12.339-9.248-1.038-.987-1.003-1.34.364-1.806 1.054-.364 2.206-.527 3.326-.604.89-.067 1.802.077 2.692.21 2.58.394 4.908-.246 6.889-1.878 1.786-1.464 3.628-1.705 5.711-.82.364.17.799.185 1.172.344 2.682 1.161 5.41 1.156 8.153.302 4.473-1.398 8.552-.594 12.288 2.154.199.148.419.261.619.41 2.907 2.18 6.208 3.173 9.816 3.352a39 39 0 0 1 5.118.583c.936.169 1.878.573 2.707 1.054 1.407.814 1.955 2.083 1.765 3.741"/>
    <path fill="#000" d="M108.047 101.426c-2.738 3.122-7.543 2.717-11.417 2.758-3.747.036-7.483-.271-11.218-.399-11.06-.363-22.114-.87-33.169-1.326-13.756-.568-27.533-.849-41.27-1.719-2.093-.133-4.524-.64-6.494-1.33-.174-.062-2.733-1.188-2.124-1.398.277-.092.568-.281.845-.271 5.977.174 11.96.389 17.937.568 11.393.348 22.774.686 34.162 1.023-.006.103-.006.2-.01.302 16.96.502 33.925 1.009 50.88 1.526.63.015 1.254.174 1.878.266M80.17 50.58c-.87-.107-1.433-.158-1.99-.255-2.396-.43-4.734-.364-6.91.844-.823.456-1.453.497-2.149-.26-2.953-3.2-5.583-6.628-7.728-10.42-.076-.144-.133-.302-.194-.45-.379-.937-.22-1.29.706-1.245.886.041 1.822.113 2.626.446 1.878.767 3.782 1.55 5.511 2.605 3.296 2.006 6.28 4.432 8.967 7.206.373.388.655.864 1.156 1.53zm-.342 25.845a3486 3486 0 0 0-6.996 5.773c-2.646 2.186-5.281 4.381-7.938 6.556-.43.358-.916.655-1.392.998-.348-.153-.685-.23-.931-.414-2.36-1.756-4.703-3.527-7.052-5.297-.45-.333-.348-.691-.031-1.009.977-.998 1.965-1.97 2.953-2.942 3.424-3.393 6.858-6.786 10.281-10.18 1.07-1.059 1.229-1.11 2.483-.276 2.845 1.904 5.716 3.777 8.582 5.65.573.379.522.742.041 1.141m-25.209 85.206c-8.787-6.975-17.58-13.935-26.372-20.901-1.151-.921-2.323-1.811-3.465-2.743-.593-.486-.962-.348-1.36.256-.758 1.167-1.516 2.339-2.39 3.419-4.96 6.095-9.955 12.165-14.935 18.245-.414.506-.829 1.013-1.207 1.545-.313.451-.062.839.363.952.542.148 1.131.195 1.7.184 3.024-.025 6.053-.102 9.078-.133 6.223-.077 12.446-.148 17.805-.204 3.157.092 5.445.184 7.733.225 4.258.082 8.51.138 12.768.174.272 0 .548-.22.82-.328-.18-.24-.323-.522-.548-.696zm-30.062-10.696c-1.934-.005-3.5-1.76-3.372-3.761.112-1.684 1.709-3.214 3.224-3.086 1.899.163 3.265 1.729 3.198 3.684-.061 1.833-1.356 3.173-3.055 3.163zm36.984-131.88c-6.274-.051-12.978-.117-19.688-.138-1.3 0-2.615.097-3.9.292-2.564.394-4.846-.364-7.052-1.525-3.848-2.027-2.605-8.368.149-9.775 2.042-1.044 4.145-1.47 6.402-1.162.89.123 1.791.24 2.646.502 2.953.895 5.276-.22 7.349-2.19.711-.676 1.351-1.424 2.042-2.125 2.938-2.983 6.54-4.191 11.044-1.223.906.599 1.75.793 2.758.394.835-.327 1.746-.496 2.534-.91 2.226-1.173 4.437-.989 6.622-.021 2.887 1.274 5.45 3.014 7.293 5.63.834 1.181 1.96 1.663 3.342 1.73 1.146.05 2.298.055 3.429.209 2.907.4 4.534 2.8 3.915 5.67-.66 3.06-2.574 4.688-6.106 5.031a44 44 0 0 1-5.153.195c-5.077-.113-10.149-.292-15.22-.456-.656-.02-1.31-.066-2.4-.123zm12.82-.7c0-.047 0-.088.005-.134 2.79.02 5.574.097 8.363.04 1.13-.02 2.272-.25 3.372-.526 2.012-.512 2.902-1.991 3.086-3.961.2-2.13-1.064-3.64-3.193-3.808-1.06-.082-2.134-.046-3.193-.159-1.674-.179-3.102-.742-4.151-2.246-1.781-2.564-4.34-4.192-7.18-5.384-1.669-.701-3.342-.706-5.005.051-.446.205-.896.41-1.352.589-2.072.823-3.976 1.049-6.003-.456a6.055 6.055 0 0 0-7.722.522c-.962.885-1.812 1.904-2.81 2.748-1.054.886-2.15 1.771-3.362 2.41-1.894 1.004-3.936.927-5.988.38-2.17-.579-4.36-.768-6.52.081-2.088.82-2.876 2.16-2.907 4.606-.03 2.334 1.167 3.414 2.938 4.033 1.765.62 3.623 1.003 5.547.666.88-.154 1.786-.215 2.687-.22 7.2-.041 14.396.486 21.602.178.246-.01.491 0 .737.016 3.68.19 7.36.384 11.039.573zm49.74 22.732c-5.901-.025-11.796-.015-17.697-.092-1.628-.02-3.265-.235-4.877-.506-2.518-.42-4.269-1.94-4.663-4.432-.389-2.483-.056-4.985 2.324-6.556 3.761-2.488 7.753-3.05 11.827-.865 1.576.844 2.958.824 4.376-.082a59 59 0 0 0 3.628-2.523c5-3.741 10.077-3.455 14.898.24 1.3.998 2.528 2.083 3.828 3.081 1.94 1.49 3.92 2.278 6.582 1.781 3.157-.583 5.563.978 6.361 3.987.64 2.4-1.1 5.261-3.526 5.517-2.523.266-5.051.553-7.58.589-5.158.076-10.322-.016-15.486-.036v-.108zm-2.057-1.35v-.088c5.399.159 10.798.425 16.203.43 2.845 0 5.701-.404 8.541-.737.66-.076 1.459-.455 1.873-.957a3.555 3.555 0 0 0-1.781-5.706c-.987-.282-2.149-.4-3.127-.148-1.479.373-2.789.102-4.032-.507-1.239-.61-2.401-1.397-3.521-2.211-1.459-1.06-2.759-2.339-4.269-3.306-3.418-2.185-6.996-2.656-10.629-.445-.768.465-1.505.982-2.247 1.489-1.08.737-2.119 1.55-3.245 2.206-1.729 1.008-3.429 1.172-5.317.092-3.347-1.92-6.735-1.505-10.051.297-2.134 1.161-2.534 3.116-2.416 5.24.103 1.873 1.53 3.332 3.67 3.741 1.678.323 3.408.497 5.117.527 5.077.082 10.159.062 15.236.082z"/>
    <path fill="#000" d="M24.407 144.082c-1.515-.122-3.111 1.408-3.224 3.086-.128 2.007 1.438 3.757 3.373 3.762 1.699.01 2.988-1.331 3.055-3.163.061-1.955-1.3-3.521-3.199-3.685zm.236 5.686c-1.019.056-2.094-1.136-2.099-2.323-.005-1.06.783-2.006 1.72-2.058.988-.056 1.976.906 2.088 2.032.113 1.121-.732 2.288-1.704 2.344z"/>
</svg>
