<svg xmlns="http://www.w3.org/2000/svg" width="321" height="321" fill="none" viewBox="0 0 321 321">
    <path fill="#1e1c1c" d="M253.708 120.858c-1.375-.966-2.95-1.869-4.576-2.268-2.447-.6-5.004-.783-7.535-1.071-6.118-.671-12.346-.999-17.45-4.945-.62-.487-1.366-.823-2.02-1.254-6.311-4.178-13.083-5.664-20.584-3.411-4.635 1.374-9.236 1.102-13.804-.496-1.752-.615-3.654-1.454-5.406-1.302-2.699.224-4.14-1.094-5.758-2.692-6.546-6.47-13.687-12.287-21.884-16.776-3.226-1.766-6.638-3.491-10.208-4.41-7.149-1.87-9.136-.607-12.773 3.563-1.542 1.765-3.017 3.595-4.568 5.36-.763.871-1.626 1.67-2.439 2.5-.453-1.142-.922-2.276-1.341-3.426-.318-.84-.536-1.718-.855-2.557-1.743-4.553-6.353-8.46-12.639-8.452-6.814.024-13.712 4.458-16.368 11.12-2.113 5.297-3.236 10.825-3.085 16.513.11 4.21.562 8.42.788 12.638.201 3.691.36 7.398.478 11.097.058 2.157-.855 3.93-2.44 5.488-1.583 1.55-3 3.259-4.492 4.905-3.017 3.331-4.5 7.102-4.123 11.599.285 3.236 1.006 6.312 2.296 9.275 4.015 9.219 10.913 15.962 19.906 20.883 1.115.607 2.221 1.206 4.107 2.237-1.534.048-2.146.088-2.766.072-5.766-.16-11.533-.296-17.3-.512-15.815-.575-31.63-1.19-47.446-1.789-.938-.04-2.07-.28-2.372.823-.167.623.093 1.557.52 2.101 2.942 3.611 6.596 4.17 11.34 5.224 3.244.711 6.621.903 9.965 1.167 2.8.223 5.624.199 8.449.319 1.19.048 1.441.607.544 1.35-1.96 1.606-1.843 3.563-1.148 5.608.503 1.454 1.157 2.86 1.752 4.29 2.8 6.775 5.783 13.485 8.356 20.339 2.464 6.607 2.825 13.334-1.04 19.637a81 81 0 0 1-7.282 10.097c-8.047 9.579-16.269 19.022-24.415 28.52-.428.495-.889.975-1.224 1.518-1.064 1.702-.503 3.427 1.492 3.93 1.794.448 3.705.695 5.557.671 12.471-.143 24.942-.559 37.414-.543 12.614.016 25.219.424 37.825.655 1.885.04 4.132.4 4.836-1.741s-1.467-2.996-2.925-4.058c-1.911-1.399-3.789-2.852-5.7-4.258-.896-.656-1.056-1.263-.394-2.229 2.129-3.108 4.049-6.343 6.244-9.403 5.004-6.958 9.924-14.02 16.294-19.948 13.427-12.51 27.063-24.821 41.403-36.396 1.626-1.318 3.236-2.756 4.468-4.394.972-1.286 1.609-2.916 1.936-4.49.318-1.526-1.006-2.516-2.154-3.451-.227-.184-.21-.639-.31-.975.368-.095.729-.255 1.081-.271 3.361-.032 6.722.088 10.066-.064 6.269-.304 11.65-.096 16.092-4.394.729-.719 1.383-1.574 1.802-2.476.151-.328-.377-1.279-.805-1.438-.704-.28-1.576-.16-2.38-.176-5.766-.128-11.533-.216-17.308-.392-20.928-.631-41.847-1.27-62.775-1.989-1.744-.056-3.68.631-5.272-.695 1.24-1.142 2.414-2.356 3.738-3.395 18.17-14.372 36.417-28.663 54.529-43.107 3.872-3.1 7.97-3.739 12.697-2.716 4.048.879 8.147 1.542 12.212 2.317 2.556.495 5.087.351 7.56-.368 2.053-.583 4.115-1.15 6.101-1.893 3.42-1.27 6.89-2.085 10.594-1.766 2.674.224 5.347.488 8.021.52 1.986.024 4.023-.088 5.934-.512 6.278-1.406 7.887-9.986 2.967-13.437M140.56 83.399c2.724.535 5.465 1.334 7.988 2.453 8.716 3.858 16.1 9.554 23.074 15.754 1.274 1.134 2.455 2.356 3.696 3.523 1.793 1.693 2.531 1.885-.52 3.962-.545.375-1.123.695-1.701 1.007-1.182.623-2.121.567-3.16-.488-4.409-4.481-9.203-8.588-14.625-11.895-3.361-2.061-6.94-3.859-10.603-5.384-2.003-.847-4.375-1.11-6.613-1.279-2.506-.191-2.891-.327-3.117-2.676-.034-.255-.042-.511-.068-.759.026-3.14 2.163-4.889 5.649-4.218m27.734 28.065c-1.425-.176-2.347-.248-3.252-.408-3.922-.663-7.752-.567-11.323 1.326-1.349.711-2.38.775-3.52-.415-4.836-4.993-9.144-10.345-12.656-16.257-.125-.224-.218-.471-.318-.703-.62-1.462-.361-2.013 1.165-1.941 1.441.063 2.975.175 4.299.687 3.076 1.206 6.194 2.428 9.027 4.066 5.398 3.131 10.284 6.918 14.684 11.256.612.599 1.073 1.35 1.894 2.389M94.857 92.866c1.492-4.93 4.736-8.476 9.681-10.617 5.615-2.429 13.762-1.214 16.243 7.046.586 1.941.829 3.986 1.148 6 .092.615.126 1.365-.159 1.877-.486.87-1.232 2.245-1.911 2.26-1.316.049-.931-1.47-1.249-2.364-.897-2.516-1.71-5.08-2.825-7.517-.997-2.165-3.076-3.156-5.489-3.34-5.18-.375-8.893 1.606-10.904 6.088-1.66 3.682-2.615 7.501-2.775 11.535.319 3.947.696 7.877.94 11.832.158 2.668.024 5.352.242 8.02.201 2.197-.989 3.627-2.405 5.017-.235.24-.755.519-.956.424-.276-.128-.494-.592-.511-.935-.319-4.57-.62-9.155-.88-13.741-.176-2.931-.344-5.863-.394-8.787-.084-4.386.939-8.628 2.204-12.798m21.264 11.28c-4.753 5.832-9.656 11.568-14.525 17.319-.218.256-.646.352-.981.528-.142-.304-.402-.599-.427-.911-.478-5.712-.914-11.416-1.366-17.128.26-4.146.972-8.132 3.017-11.831.981-1.766 2.347-3.092 4.408-3.65 4.233-1.143 7.125.023 8.642 3.986 1.039 2.716 1.584 5.64 2.07 8.507.176.999-.176 2.373-.838 3.18m-43.96 102.535c-.721-1.494-1.316-3.044-1.978-4.554-.553-1.23.025-1.837 1.198-2.3 1.123-.448 2.079-.592 2.665.639.713 1.478 1.367 2.972 2.004 4.37-.336.822-.436 1.509-.83 1.949-.486.519-1.182 1.006-1.86 1.142-.31.064-.94-.735-1.2-1.246m54.285 78.121c.361.28.595.719.889 1.095-.444.168-.897.519-1.341.511-6.973-.056-13.947-.152-20.92-.271-3.746-.064-7.493-.208-12.664-.352-8.775.096-18.967.2-29.167.32-4.953.056-9.907.167-14.86.207-.93.016-1.894-.056-2.783-.287-.695-.176-1.106-.783-.595-1.486.612-.839 1.291-1.622 1.978-2.413 8.155-9.498 16.336-18.973 24.457-28.487 1.433-1.678 2.674-3.515 3.914-5.337.654-.943 1.257-1.158 2.23-.399 1.868 1.454 3.788 2.844 5.674 4.282a39729 39729 0 0 1 43.188 32.617m60.019-78.608a338 338 0 0 1-6.705 5.512c-.226.184-.78.232-1.039.088-.294-.16-.587-.583-.596-.903-.016-.479.042-1.126.361-1.43 1.995-1.869 4.015-3.731 6.143-5.44.771-.615 2.473.359 2.381 1.358-.126.199-.277.583-.545.815m2.498-4.059c.041.16-.604.655-.813.6-.495-.136-.964-.456-1.341-.807-.939-.903-1.87-.871-2.825-.088-2.045 1.653-4.124 3.275-6.093 5.001-1.727 1.518-2.339 3.451-1.433 5.584.461 1.086.486 1.805-.503 2.652a1325 1325 0 0 0-16.889 14.795c-6.16 5.512-12.471 10.897-18.321 16.697-6.982 6.942-12.606 14.914-18.012 23.015-1.416 2.109-3.042 4.082-4.576 6.127-2.036-1.446-4.123-2.828-6.118-4.33a28604 28604 0 0 1-31.84-24.07c-.529-.391-1.031-.806-1.568-1.198-.888-.647-.93-1.382-.503-2.356.662-1.526 1.257-3.1 1.702-4.69.469-1.717.729-3.499 1.198-5.856-.587-2.868-1.03-6.311-2.045-9.578-1.173-3.795-2.8-7.461-4.325-11.144-.494-1.175-.678-1.91.57-2.932 3.386-2.732 3.58-4.146 1.71-8.021-.344-.687-.687-1.382-1.081-2.045-1.517-2.604-1.71-2.668-4.752-1.765-.386.119-.771.351-1.14.343-.461-.008-1.123-.088-1.316-.367-.235-.36-.252-1.015-.076-1.422.73-1.59 3.144-2.629 5.13-2.117 1.006.263 2.087.695 2.824 1.358 1.861 1.637 3.755 3.307 5.247 5.24 5.64 7.31 11.088 14.755 16.67 22.105a29.3 29.3 0 0 0 9.212 7.925c4.986 2.732 10.543 2.812 16.033 1.845a30.4 30.4 0 0 0 10.435-3.858c8.884-5.305 17.223-11.296 25.571-17.32a326 326 0 0 1 16.05-10.872c1.844-1.167 4.124-1.79 6.286-2.389 2.406-.671 4.501.327 6.211 1.893.494.448.595 1.334.721 2.045m-72.658 7.078c.05-1.533.084-4.338.251-7.142.076-1.39.185-2.859.696-4.13.402-.974 1.358-1.837 2.255-2.5.821-.599 1.802-.471 2.279.615.269.591.57 1.182.704 1.797 1.258 5.88 2.557 11.776 2.297 17.831-.042.983-.226 2.061-.704 2.916-2.028 3.587-4.249 7.086-6.278 10.681-.855 1.51-1.986 1.941-3.637 1.526-.511-.128-1.073-.088-1.593-.2-3.067-.655-3.344-1.262-1.735-3.763.704-1.078 1.434-2.149 2.154-3.227 2.691-4.01 3.998-8.34 3.311-14.404m31.271-12.885c-.302-1.015.637-.935 1.198-.927 2.54.032 5.071.128 8.063.208-3.394 3.315-6.428 6.263-9.462 9.219.427-2.948 1.056-5.664.201-8.5m7.3 4.018c1.475-1.382 3.076-2.485 5.079-2.892 1.886-.391 3.838 1.158 3.847 2.94-.025.247.017.543-.109.751-1.81 2.94-3.646 5.887-5.473 8.827-7.04 4.849-14.064 9.707-21.121 14.532-.318.215-.888.096-1.341.128.101-.336.101-.743.302-1.023 2.38-3.227 4.794-6.439 7.191-9.658 3.545-4.794 7.216-9.475 11.625-13.605m-8.926-.671a3.4 3.4 0 0 1-.151.751c-2.045 5.64-3.512 11.527-7.384 16.401-2.9 3.658-5.766 7.333-8.851 10.856-2.078 2.357-4.961 3.3-8.213 3.244-1.517-.024-1.777-.36-1.132-1.502 4.836-8.516 9.622-17.056 14.542-25.516 1.165-1.981 2.732-3.763 4.207-5.56a6.6 6.6 0 0 1 2.154-1.686c2.573-1.246 4.995.312 4.828 3.012m-7.979-3.292c-3.981 3.771-6.186 8.604-8.767 13.198a31 31 0 0 1-.989 1.661c-.134.192-.394.32-.595.48-.21-.272-.545-.503-.595-.791-.989-5.017-1.92-10.042-2.9-15.051-.168-.855.201-1.206.989-1.19 2.145.032 4.291.104 6.428.168 1.886.056 3.755.056 5.632.167 1.274.072 1.585.6.797 1.358m-22.32-.503c-.603 1.366-.93 2.924-1.005 4.41-.202 3.954-.327 7.909-.26 11.863.05 3.547-.721 6.807-2.766 9.802-1.014 1.494-1.903 3.076-2.925 4.57-1.107 1.63-1.366 1.63-3.11.351-3.562-2.596-6.177-6.007-8.741-9.434-4.275-5.704-8.424-11.504-12.773-17.16-1.643-2.141-3.713-3.986-5.582-5.976-.327-.351-.629-.735-.94-1.102.58-.16 1.157-.463 1.736-.447 5.75.127 11.507.303 16.301.439 6.965.391 12.966.735 18.967 1.078 1.09.072 1.702.24 1.098 1.606m49.056 1.414c-.771-.958-.109-1.318.905-1.294 4.006.112 8.013.232 12.773.36a2499 2499 0 0 1-12.739 8.3c-.218.144-.62.024-.939.024 0-.248-.092-.551.034-.711 1.676-2.245 1.76-4.426-.034-6.679m46.164-6.886c1.031.024 2.054.272 3.076.415-4.484 4.873-12.354 4.242-18.699 4.306-6.135.056-12.253-.423-18.371-.623-18.112-.567-36.216-1.358-54.32-2.069-22.528-.887-45.09-1.326-67.586-2.684-3.428-.208-7.41-.999-10.636-2.077-.285-.096-4.476-1.854-3.478-2.181.452-.144.93-.439 1.383-.423 9.789.271 19.587.607 29.376.886 18.657.543 37.297 1.071 55.945 1.598-.008.16-.008.312-.017.471 27.776.783 55.56 1.574 83.327 2.381m-43.138-38.609c-3.822 2.995-7.636 6.007-11.458 9.011-4.333 3.411-8.657 6.838-12.999 10.233-.712.552-1.5 1.023-2.28 1.558-.578-.247-1.123-.367-1.533-.647-3.864-2.74-7.703-5.512-11.55-8.268-.737-.52-.561-1.079-.042-1.574 1.593-1.558 3.219-3.076 4.836-4.594a15805 15805 0 0 1 16.838-15.897c1.752-1.646 2.012-1.734 4.057-.431 4.668 2.971 9.362 5.895 14.064 8.827.938.583.855 1.158.067 1.782m17.525-13.901c-4.484 3.659-9.069 7.198-13.595 10.793-.745.583-1.399.511-2.17.024-2.682-1.694-5.398-3.331-8.088-5.001-2.808-1.734-5.574-3.531-8.423-5.217-1.836-1.078-2.297-1.022-3.839.448a4779 4779 0 0 0-23.023 21.977c-2.02 1.949-1.97 2.46.41 4.242 3.68 2.764 7.443 5.448 11.198 8.116 1.022.727 1.047 1.318.092 2.077-3.403 2.708-6.747 5.465-10.183 8.125-1.752 1.366-3.973 1.39-6.102 1.502-8.122.463-15.346-2.006-21.842-6.415-6.219-4.21-11.205-9.539-14.332-16.241-.972-2.093-1.81-4.298-2.22-6.535-.88-4.801-.227-9.099 3.31-13.213 14.793-17.208 29.267-34.647 43.876-51.99.57-.688 1.249-1.303 1.894-1.95.277.28.537.447.595.655 2.104 7.909 7.007 14.284 12.396 20.379 6.688 7.573 14.391 14.108 23.007 19.62 5.02 3.22 10.284 6.024 16.293 7.246.872.184 1.81.511.746 1.358m69.003-10.393c-.327 2.604-1.751 4.25-4.274 5.009-1.115.335-2.347.479-3.537.503-1.869.04-3.747-.088-5.255-.128-6.378-1.31-12.036-.143-17.609 2.029-4.149 1.614-8.407 2.453-12.933 1.191-2.816-.791-5.766-1.135-8.616-1.814-3.31-.791-6.68-.998-9.948-.231-6.202 1.462-11.642-.304-16.897-3.116-7.392-3.962-14.072-8.867-20.207-14.436-1.702-1.541-1.643-2.093.595-2.82 1.726-.567 3.612-.822 5.448-.942 1.458-.104 2.95.12 4.408.327 4.224.615 8.038-.383 11.281-2.932 2.926-2.284 5.943-2.66 9.354-1.278.595.264 1.307.288 1.919.536 4.392 1.813 8.859 1.805 13.352.471 7.325-2.181 14.005-.927 20.123 3.363.327.232.687.408 1.014.639 4.761 3.403 10.167 4.953 16.076 5.233 2.807.128 5.623.431 8.381.911 1.534.263 3.076.894 4.434 1.645 2.305 1.27 3.201 3.252 2.891 5.84"/>
    <path fill="#1e1c1c" d="M213.946 190.823c-4.484 4.873-12.354 4.242-18.699 4.306-6.135.056-12.253-.424-18.372-.623-18.112-.568-36.215-1.358-54.319-2.069-22.529-.887-45.091-1.327-67.587-2.685-3.428-.207-7.409-.998-10.636-2.077-.285-.096-4.475-1.853-3.478-2.181.453-.143.93-.439 1.383-.423 9.79.272 19.587.607 29.377.887 18.656.543 37.296 1.07 55.945 1.597-.009.16-.009.312-.017.472 27.776.783 55.56 1.574 83.327 2.38 1.031.024 2.053.272 3.076.416m-45.652-79.368c-1.425-.167-2.346-.247-3.26-.399-3.922-.671-7.753-.567-11.315 1.318-1.349.711-2.38.775-3.52-.407-4.836-4.993-9.144-10.346-12.656-16.265-.125-.224-.218-.472-.318-.703-.62-1.462-.361-2.013 1.156-1.942 1.45.064 2.984.176 4.3.695 3.076 1.199 6.194 2.421 9.027 4.067 5.397 3.131 10.284 6.918 14.684 11.248.612.607 1.073 1.35 1.894 2.388zm-.561 40.343c-3.822 2.996-7.635 6-11.457 9.012-4.333 3.411-8.65 6.838-12.999 10.233-.704.559-1.501 1.023-2.28 1.558-.57-.24-1.123-.359-1.526-.647-3.863-2.74-7.702-5.504-11.549-8.268-.738-.52-.57-1.079-.05-1.574a364 364 0 0 1 4.836-4.594c5.607-5.296 11.231-10.593 16.838-15.889 1.751-1.654 2.011-1.734 4.065-.432 4.66 2.972 9.362 5.896 14.055 8.82.939.591.855 1.158.067 1.781m-41.285 133.005c-14.391-10.889-28.79-21.754-43.189-32.626-1.886-1.438-3.805-2.828-5.674-4.282-.972-.759-1.576-.543-2.23.399-1.24 1.822-2.48 3.651-3.914 5.337-8.121 9.514-16.301 18.989-24.456 28.479-.68.791-1.358 1.582-1.978 2.413-.511.703-.1 1.31.595 1.486.888.232 1.852.304 2.782.288 4.954-.04 9.916-.16 14.869-.208 10.192-.12 20.383-.232 29.158-.32 5.172.144 8.918.288 12.665.352 6.973.128 13.938.215 20.911.271.444 0 .897-.343 1.341-.511-.293-.375-.528-.815-.897-1.086zm-49.232-16.697c-3.168-.008-5.733-2.748-5.523-5.871.184-2.629 2.8-5.017 5.28-4.818 3.11.256 5.347 2.701 5.238 5.752-.1 2.86-2.22 4.953-5.003 4.937zm60.57-205.861c-10.276-.08-21.255-.184-32.243-.216-2.129 0-4.283.152-6.387.455-4.199.615-7.937-.567-11.55-2.38-6.302-3.164-4.265-13.062.244-15.259 3.344-1.63 6.789-2.292 10.485-1.813 1.458.192 2.933.375 4.333.783 4.836 1.398 8.641-.344 12.036-3.42 1.165-1.054 2.212-2.22 3.344-3.315 4.811-4.657 10.711-6.542 18.087-1.909 1.483.935 2.866 1.238 4.517.615 1.366-.511 2.858-.775 4.149-1.422 3.646-1.83 7.266-1.542 10.845-.032 4.727 1.99 8.926 4.706 11.944 8.788 1.366 1.845 3.21 2.596 5.473 2.7 1.877.08 3.763.088 5.615.327 4.761.624 7.426 4.37 6.412 8.852-1.082 4.777-4.216 7.318-9.999 7.853-2.8.255-5.624.36-8.44.303-8.314-.175-16.62-.455-24.926-.71-1.073-.033-2.146-.105-3.931-.192zm20.995-1.095c0-.072 0-.136.008-.207 4.568.032 9.127.151 13.695.063 1.852-.032 3.722-.391 5.523-.822 3.294-.8 4.753-3.108 5.054-6.184.327-3.323-1.743-5.68-5.23-5.943-1.734-.128-3.495-.072-5.229-.248-2.741-.28-5.08-1.158-6.798-3.507-2.916-4.002-7.107-6.543-11.759-8.404-2.732-1.095-5.473-1.103-8.197.08-.729.32-1.466.639-2.212.919-3.395 1.286-6.512 1.637-9.831-.712-3.085-2.18-8.449-2.867-12.648.815-1.576 1.382-2.967 2.972-4.601 4.29-1.727 1.382-3.52 2.764-5.507 3.763-3.101 1.566-6.445 1.446-9.806.591-3.553-.903-7.14-1.198-10.678.128-3.42 1.278-4.71 3.371-4.76 7.19-.05 3.643 1.91 5.328 4.81 6.295 2.892.967 5.935 1.566 9.086 1.038 1.442-.24 2.925-.335 4.4-.343 11.793-.064 23.577.759 35.378.28.402-.017.804 0 1.207.023 6.026.296 12.052.6 18.078.895zm81.46 35.487c-9.664-.04-19.319-.025-28.983-.144-2.665-.032-5.347-.368-7.987-.791-4.124-.655-6.99-3.028-7.636-6.918-.637-3.875-.092-7.781 3.806-10.234 6.16-3.882 12.697-4.761 19.369-1.35 2.581 1.318 4.844 1.286 7.166-.128a97 97 0 0 0 5.942-3.938c8.189-5.84 16.503-5.393 24.398.375 2.129 1.558 4.14 3.252 6.269 4.81 3.177 2.324 6.42 3.554 10.779 2.78 5.171-.911 9.11 1.525 10.418 6.223 1.047 3.746-1.802 8.212-5.775 8.611-4.132.416-8.273.863-12.413.92-8.448.119-16.905-.025-25.362-.057v-.168zm-3.37-2.11v-.135c8.843.247 17.685.663 26.536.67 4.66 0 9.336-.63 13.988-1.15 1.081-.12 2.389-.71 3.068-1.494 2.698-3.131 1.181-7.797-2.917-8.907-1.618-.44-3.52-.623-5.121-.232-2.422.584-4.568.16-6.605-.79-2.028-.951-3.93-2.181-5.766-3.452-2.389-1.653-4.517-3.65-6.99-5.16-5.599-3.411-11.457-4.146-17.408-.695-1.257.727-2.464 1.534-3.679 2.324-1.769 1.15-3.47 2.42-5.314 3.444-2.833 1.573-5.615 1.829-8.708.143-5.482-2.996-11.03-2.348-16.461.464-3.495 1.813-4.149 4.865-3.956 8.18.168 2.924 2.506 5.2 6.009 5.84a52 52 0 0 0 8.382.823c8.314.127 16.637.096 24.951.127z"/>
    <path fill="#1e1c1c" d="M76.97 257.409c-2.48-.192-5.096 2.197-5.28 4.817-.21 3.132 2.355 5.864 5.523 5.872 2.783.016 4.895-2.077 5.004-4.937.1-3.052-2.13-5.496-5.239-5.752zm.386 8.875c-1.668.088-3.428-1.773-3.437-3.626-.008-1.654 1.282-3.132 2.816-3.212 1.618-.088 3.235 1.414 3.42 3.172.184 1.749-1.199 3.571-2.791 3.658z"/>
</svg>
