<svg xmlns="http://www.w3.org/2000/svg" id="financial-milestone_light_svg__Layer_2" width="240" height="240" data-name="Layer 2" viewBox="0 0 240 240">
    <defs>
        <style>
            .financial-milestone_light_svg__cls-2{fill:#fbfbf9;fill-rule:evenodd}.financial-milestone_light_svg__cls-3{fill-rule:evenodd}.financial-milestone_light_svg__cls-5{fill:#1e1c1c}.financial-milestone_light_svg__cls-3{fill:#d9d6c7}
        </style>
    </defs>
    <g id="financial-milestone_light_svg__Layer_1-2" data-name="Layer 1">
        <path d="M0 0h240v240H0z" style="fill:none"/>
        <path d="M187.99 144.08c-1.64-1.33-3.32-2.6-5.15-3.71a55.4 55.4 0 0 0-7.62-3.82c-1.45-.59-2.93-1.09-4.5-1.67.75-.5 1.44-.85 2.01-1.34 1.45-1.25 2.82-2.59 4.26-3.84 2.69-2.35 5.01-5 6.8-8.11 1.15-1.99 2.12-4.04 2.61-6.29.14-.6.06-.78-.51-.98-.24-.09-.51-.17-.77-.16-3.06.04-6.08-.41-9.1-.79-3.18-.4-6.35-.95-9.53-1.35-3.38-.42-6.77-.73-10.16-1.09-.42-.04-.89-.18-1.25-.04-.54.2-.19.85-.39 1.25-.02.03-.03.06-.04.09-.7 2.81-2.2 5.18-4.04 7.34-1.89 2.21-4.03 4.17-6.46 5.81-2.56 1.72-5.22 3.22-8.12 4.33-2.69 1.03-5.48 1.47-8.31 1.82-2.53.31-5.05.63-7.57.98-1.21.17-2.4.49-3.61.63-3.63.41-7.2 1.14-10.73 2.06-2.27.59-4.51 1.25-6.74 1.98-1.86.6-3.69 1.29-5.51 2.01-.43.17-.82.57-1.08.95-.13.19.09.61.11.92.05.88.62 1.68.32 2.61-.04.12.04.36.15.44.44.34.47.85.62 1.32.46 1.48.91 2.96 1.37 4.45.59 1.93 1.19 3.86 1.75 5.8.27.89.43 1.8.69 2.69.25.89 1.13 1.22 1.9.75.15-.09.29-.17.42-.26 2.3-1.46 4.73-2.67 7.26-3.68.29-.11.61-.16.98-.25-.05.59-.14 1.08-.12 1.55.04.88.53 1.58 1.07 2.2 1.36 1.53 2.78 3.02 4.17 4.52.72.78 1.45 1.56 2.17 2.34-.36.04-.59-.05-.81-.17-.76-.41-1.49-.88-2.27-1.22-1.27-.56-2.56-1.09-3.89-1.52-1.02-.33-1.92.09-2.59.87-.58.68-.58 1.71-.02 2.51.38.54.84 1.04 1.33 1.47.55.48 1.2.83 1.77 1.29 2.09 1.72 4.22 3.41 6.24 5.22.89.81 1.77 1.79 2.25 2.86.82 1.84 1.43 3.78 1.92 5.74.42 1.69.55 3.47.79 5.2.06.42.07.84.11 1.25-.12.02-.19.02-.25.03-2.24.19-3.03 1.11-2.98 3.3.03 1.48-.07 2.97-.11 4.34-.92.36-1.73.64-2.51.98-.72.32-1.17.93-1.23 1.69-.16 2.05-.29 4.1-.35 6.16-.05 1.68.07 3.37.02 5.05-.03.73.24 1.22.77 1.6.37.26.79.51 1.23.64 1.87.55 3.74 1.15 5.65 1.56 3.08.66 6.2 1.05 9.35 1.27 3.92.28 7.83.18 11.73-.14 2.27-.18 4.54-.53 6.77-.96 1.74-.33 3.45-.9 5.17-1.4.29-.09.64-.31.75-.56.18-.45.25-.95.28-1.45.1-1.76.17-3.51.25-5.26.1-2.25.2-4.5.31-6.76.03-.51-.17-.84-.54-1.2a4.1 4.1 0 0 0-2.08-1.12c-.96-.21-.99-.46-.92-1.41.09-1.32.23-2.64.31-3.96.08-1.28-.21-1.69-1.42-2.16-.56-.22-1.11-.42-1.68-.63v-3.41c.02-1.65.03-3.31.07-4.96.04-1.76 0-3.51.18-5.25.1-1.07.42-2.15.83-3.15 1.08-2.67 2.42-5.21 3.87-7.69.65-1.11 1.33-2.21 2.01-3.32.19-.31.46-.68.84-.26.58.65 1.37.66 2.11.69 4.34.16 8.69.27 13.03.41 2.32.07 4.63.15 6.95.24.43.02.68-.14.81-.55.14-.44.3-.88.5-1.3 1.72-3.7 3.64-7.28 5.76-10.77.77-1.27 1.64-2.48 2.52-3.68.5-.68.51-1.06-.15-1.59Zm-39.88 14.65c-1.88 1.53-3.21 3.52-4.38 5.61-.57 1.01-1.08 2.04-1.69 3.16-.54-.53-1.03-.99-1.5-1.47-1.06-1.04-2.11-2.1-3.17-3.14-1.51-1.48-2.99-3.01-4.57-4.41-1.81-1.59-3.7-3.11-5.62-4.57-.81-.62-1.78-1.01-2.68-1.51-.28-.16-.56-.32-.8-.64.67-.02 1.34-.06 2.02-.04 2.25.1 4.51.17 6.75.34 2.28.18 4.57.34 6.81.77 2.17.41 4.31 1.05 6.42 1.73 1.54.5 3.01 1.2 4.5 1.83.27.11.52.29.8.44-1.01.66-2.01 1.19-2.86 1.89Z" class="financial-milestone_light_svg__cls-5"/>
        <path d="M158.47 67.06c-.78.14-1.58.27-2.32.53-1.96.7-3.91 1.45-5.85 2.23-1.38.56-2.75 1.15-4.07 1.82-1.73.88-3.35 1.97-4.95 3.08-1.82 1.28-3.43 2.78-5.01 4.33-1.76 1.73-3.24 3.69-4.6 5.72-1.01 1.5-1.86 3.13-2.58 4.79-.76 1.76-1.3 3.6-1.93 5.42-1.13 3.28-1.88 6.66-1.91 10.13-.04 4.02.43 8.01 1.07 11.98.29 1.86.84 3.69 1.56 5.45.4.96.64 1.04 1.56.54.06-.03.11-.06.17-.1 1.03-.54 2.03-1.1 3.08-1.6 1.46-.7 2.96-1.33 4.42-2.03 2.06-.99 4.1-2.02 6.16-3.03 1.4-.69 2.84-1.28 4.07-2.26.25-.2.57-.35.88-.42.93-.21 1.01-.32.63-1.16-.58-1.26-1.2-2.51-1.74-3.79-1.33-3.16-2.01-6.52-3.02-9.79-.32-1.05.12-1.88.72-2.67 1.21-1.62 2.73-2.86 4.49-3.85 2.87-1.62 5.95-2.58 9.19-3.11 3.06-.5 6.12-.58 9.18.01.83.16 1.33-.17 1.49-.99.06-.32.06-.66.05-.98-.04-2.11-.15-4.21-.14-6.32.02-2.42.09-4.83.22-7.25.11-2.02.37-4.03.54-6.04.04-.49.01-.98.01-1.58-1.98 0-3.79-.12-5.59.03-1.94.17-3.85.59-5.77.92Zm-70.8-5.71c-.23-2.04-.7-4.03-1.27-6.02a38 38 0 0 0-5.02-10.77c-1.98-2.98-4.39-5.56-7.04-7.92-1.19-1.05-2.42-2.06-3.62-3.08-.38-.32-.7-.73-1.11-.99-1.8-1.12-3.58-2.28-5.45-3.27-1.64-.85-3.38-1.5-5.09-2.21-.47-.19-1.01-.26-1.59-.41-.2.6-.4 1.09-.54 1.59-.45 1.62-.85 3.26-1.33 4.87-.47 1.58-1.02 3.14-1.54 4.71-.76 2.29-1.51 4.58-2.3 6.86-.34.97-.84 1.88-1.16 2.85-.31.92.07 1.45 1.03 1.63.52.09 1.06.11 1.58.25 3.13.84 6.07 2.12 8.79 3.89 2.35 1.53 4.46 3.34 6.23 5.52 1.18 1.45 2.08 3.08 2.56 4.9.27 1.02.2 1.94-.49 2.8-.6.75-1.16 1.54-1.74 2.3-1.25 1.67-2.43 3.39-3.77 5-1.01 1.21-2.21 2.27-3.32 3.41-.25.27-.43.6-.56.77.61.7 1.11 1.25 1.6 1.82.54.62 1.06 1.27 1.63 1.87 1.72 1.79 3.47 3.56 5.2 5.34.88.9 1.76 1.8 2.63 2.72 1.32 1.39 2.62 2.8 3.95 4.18.28.29.62.52.95.8 1.75-1.75 3.13-3.61 4.25-5.65 1.6-2.9 3.02-5.9 4.29-8.95 1.2-2.88 1.86-5.88 2.11-8.97.17-2.12.24-4.24.29-6.36.03-1.16 0-2.33-.14-3.47Zm5.35 31.53c1.28.6 2.54 1.27 3.81 1.92 2.54 1.3 5.08 2.59 7.61 3.9.79.41 1.47.73 2.45.25 1.27-.63 2.67-.97 4.03-1.39.75-.24 1.52-.54 2.29-.57s1.4-.28 2.07-.58c0-.2.02-.37 0-.54-.2-1.35-.26-2.71-.1-4.07.1-.82.2-1.64.25-2.47.25-4.28 1.66-8.22 3.56-12 1.63-3.22 3.99-5.93 6.37-8.61 1.87-2.11 4-3.95 6.3-5.59 1.24-.89 2.47-1.78 3.9-2.38.55-.23 1.08-.51 1.6-.8.51-.29.55-.55.22-1.03-1.43-2.07-2.88-4.13-4.28-6.21-1.26-1.87-2.49-3.75-3.69-5.65-.74-1.18-1.46-2.38-2.07-3.64-.58-1.19-.99-2.45-1.55-3.85-.74.33-1.4.57-1.99.89-4.14 2.25-8.04 4.85-11.59 7.96a64.5 64.5 0 0 0-6.17 6.2c-2.64 3.03-5 6.27-6.93 9.79-1.2 2.21-2.25 4.51-3.27 6.82-1.65 3.72-2.64 7.63-3.29 11.62-.45 2.75-.59 5.53-.58 8.32 0 .88.31 1.33 1.06 1.68Zm28.39-63.64c1.68-1.08 1.81-3.63.12-4.56-.38-.21-.74-.45-1.12-.68h-.8c-.32.15-.64.3-.95.46-1.54.77-2.14 2.55-1.32 3.94.83 1.39 2.55 1.82 4.06.85Zm19.79 23.21c.24.15.63.19.93.12 1.42-.31 2.82-.71 4.23-1.02 1.52-.33 3.05-.59 4.63-.88 1.33 1.13 2.68 2.25 3.99 3.42.67.59 1.22 1.31 1.87 1.93.34.32.67.93 1.22.63.55-.29.46-.97.46-1.52 0-.16-.07-.33-.09-.49-.03-.43-.07-.86-.07-1.29-.02-1.46.09-2.94-.1-4.37-.14-1.07.25-1.68 1.03-2.22.16-.11.32-.23.48-.34 1.62-1.15 3.37-2.1 4.77-3.54.29-.3.54-.64.91-1.07-.48-.3-.76-.55-1.09-.66-1.9-.63-3.82-1.24-5.74-1.84-.54-.17-.96-.38-1.1-1-.2-.9-.48-1.79-.73-2.69-.36-1.28-.66-2.57-1.08-3.82-.28-.82-.82-.87-1.38-.2-1.33 1.61-2.66 3.21-3.98 4.83-.33.41-.7.62-1.25.64-1.16.06-2.22-.33-3.32-.56-1.01-.21-2.01-.47-3.02-.6-1.02-.14-1.3.27-.91 1.2.25.58.52 1.15.8 1.71.73 1.52 1.45 3.06 2.19 4.57.27.55.3 1.04-.04 1.58-.63.97-1.23 1.95-1.82 2.94-.68 1.14-1.32 2.29-2 3.42-.27.45-.21.86.19 1.12Zm-62.93 50.1c-1.69-.01-3.16 1.41-3.09 3.11.07 1.8 1.38 3.4 3.22 3.36 1.46.05 2.87-1.21 2.91-3.03.03-1.78-1.45-3.43-3.04-3.44" class="financial-milestone_light_svg__cls-5"/>
        <path d="M55.41 59.34c-1.5-.03-2.81 1.39-2.8 2.94 0 1.45 1.29 2.74 2.71 2.75 1.54 0 2.9-1.24 2.88-2.71-.03-1.92-1.23-2.95-2.78-2.98Zm43.31 59.79c-.25.42.17 1.02.66.98h.01c.06-.02.16-.04.24-.09 1.14-.75 2.5-.83 3.76-1.21.38-.12.86-.08 1.26.03.8.21 1.54.59 2.15 1.18.63.62 1.28 1.24 1.89 1.89.31.33.59.7 1.08.38.55-.36.13-.77-.04-1.12-.42-.9-.91-1.77-1.3-2.68-.98-2.24-.65-4.24 1.17-5.95.12-.11.22-.37.18-.51-.05-.15-.27-.3-.44-.33-.21-.03-.46.02-.67.1-.5.18-.97.43-1.47.6-.74.26-1.55.3-2.17-.17-1.55-1.18-3.29-2.13-4.43-3.8-.15-.22-.59-.42-.83-.36s-.47.43-.59.71c-.28.67.08 1.23.42 1.76.65.99 1.08 2.06 1.31 3.21.24 1.21.11 2.34-.81 3.32-.56.59-.96 1.34-1.37 2.06ZM95.1 41.71c.84 1.14 1.38 2.41 1.82 3.73.21.63.59 1.09 1.23 1.28.43-.27.39-.66.25-.99-.55-1.24-.33-2.47-.08-3.72.3-1.51.98-2.8 2.29-3.68.44-.3.88-.61 1.28-.94.39-.33.33-.77-.16-.89-.6-.14-1.23-.16-1.85-.23-.49-.05-1-.03-1.48-.13-1.13-.24-1.81-1.09-2.38-1.99-.63-1.01-1.16-2.08-1.73-3.13-.19-.34-.27-.83-.81-.67-.5.15-.41.62-.41 1.01 0 .07 0 .14.02.2.41 1.46.11 2.9-.12 4.34-.1.65-.46 1.17-.99 1.55-.78.55-1.58 1.08-2.38 1.62-.25.16-.56.29-.45.67.11.41.37.53.81.54 1.09.03 2.18.11 3.26.23.79.09 1.4.55 1.86 1.19Z" class="financial-milestone_light_svg__cls-5"/>
        <path d="M179.1 118.34c-2.56-.34-5.13-.67-7.69-1-2.09-.27-4.19-.55-6.28-.84-1.87-.26-3.73-.54-5.6-.81-.58-.08-1.03.02-1.3.62-.24.51-.54.99-.86 1.46-1.75 2.59-3.65 5.05-5.87 7.25-1.95 1.94-4.03 3.74-6.43 5.13-.11.07-.2.19-.41.39 1.55.09 2.93.12 4.31.25 2.47.23 4.93.55 7.4.78 2.52.23 4.97.78 7.39 1.5.69.21 1.29.15 1.9-.2 3.55-1.99 6.82-4.33 9.63-7.3 1.95-2.07 3.47-4.42 5.03-6.91-.46-.12-.82-.27-1.2-.32Zm-38.08-15.51c-1.07-4.28-1.81-8.61-1.67-13.04 0-.19-.09-.37-.18-.73-.67 1.22-1.56 1.89-2.6 2.35-1.03.46-2.15.63-3.28.7-1.2.07-2.12-.58-3.12-1.15-.07.2-.13.32-.15.44-.34 2.42-.71 4.83-.99 7.26-.49 4.26-.56 8.54.26 12.77.34 1.75.85 3.47 1.32 5.19.03.13.39.32.51.27.8-.31 1.6-.64 2.36-1.03 2.62-1.35 5.22-2.72 7.83-4.09.67-.36 1.33-.74 2.07-1.16-.13-.43-.22-.75-.31-1.06-.69-2.24-1.48-4.46-2.05-6.73ZM78.25 58.64c-.38 1.08-.63 2.02-1.03 2.88a95 95 0 0 1-2.52 5.06c-1.71 3.19-3.65 6.22-6.1 8.91-.55.6-.98 1.32-1.54 2.08 3.34 3.37 6.22 7.09 9.7 10.36.18-.23.33-.4.46-.58.16-.21.3-.43.46-.64 2.19-2.82 3.88-5.92 5.07-9.28a79 79 0 0 0 1.89-6.07c.58-2.14 1.02-4.32 1.5-6.49.08-.39.05-.81.07-1.28-2.94 1-6.71-1.06-7.96-4.94Zm31.31 18.9c-1.34-.43-2.77-.68-3.89-1.65-.3-.26-.58-.55-.9-.78-1.01-.72-1.68-1.69-2.08-2.85-.5-1.44-.98-2.89-.97-4.47-.06.07-.15.13-.18.21-1.19 2.94-2.37 5.9-3.21 8.98a66 66 0 0 0-1.76 8.76c-.17 1.27-.03 2.58-.03 3.87 3.41 1.71 6.81 3.42 10.28 5.17.47-.72.91-1.37 1.33-2.04.67-1.1.81-1.13 1.82-.39.28.21.59.37 1 .62.47-5.62 1.41-11 3.68-16.26-1.76.89-3.37 1.39-5.09.84Zm21.93-19.29c-1.74-3.34-7.45-12.58-8.14-13.1-6.67 4.46-12.86 9.49-17.71 16.04 1.59-.82 3.25-1.28 5-1.08 1.23.15 2.45.29 3.67.77 1.65.66 2.9 1.69 3.99 3.01.45.55.74 1.16.89 1.86.19.85.45 1.7.65 2.48 1.84-1.78 3.68-3.57 5.53-5.35 1.86-1.78 4.01-3.2 6.12-4.62Z" style="fill:#59504c"/>
        <path d="M148.36 189.78c-.15.79-.29 1.48-.45 2.3 1.03-.46 2.16-.28 2.86-1.28-.6-.76-1.44-.87-2.41-1.02m-27.83 2.35c.38-.88-.06-1.56-.15-2.45-.82.53-1.81.42-2.34 1.43.86.36 1.66.68 2.48 1.02Zm33.12 7.57c-2.02.98-4.24 1.19-6.41 1.48-2.16.29-4.34.43-6.52.56-2.42.15-4.84.32-7.25.3-3.55-.04-7.09-.24-10.63-.4-.93-.04-1.85-.16-2.77-.28-2.01-.25-4-.57-6.02-1.43-.11 1.54-.24 2.92-.29 4.3-.06 1.92-.07 3.84-.09 5.77-.01 1.03.23 1.48 1.21 1.77 2.26.66 4.52 1.32 6.82 1.81 2.46.53 4.95.89 7.48.96 1.89.05 3.78.28 5.66.28 3.95 0 7.89-.26 11.78-.97 1.88-.34 3.74-.87 5.6-1.3.58-.14.93-.45.98-1.07.09-.92.22-1.84.28-2.76.12-1.85.22-3.7.32-5.55.06-1.15.1-2.29.15-3.42-.19-.03-.27-.06-.32-.04h.01Zm-2.32 6.32c-.06.45-.24.9-.46 1.29-.49.85-1.17 1.19-1.95 1.04-.85-.15-1.51-.83-1.67-1.74-.03-.19-.03-.4-.03-.46.05-1.5.99-2.48 2.2-2.43 1.14.05 2.08 1.15 1.92 2.31Zm27.09-66.92c-2.5-1.32-5.15-2.28-7.82-3.12-2.61-.82-5.29-1.45-7.93-2.16-2.1-.56-4.23-1.01-6.4-1.25-1.51-.16-3.02-.4-4.53-.56-1.05-.12-2.11-.17-3.17-.24-.14-.01-.29.05-.43.07.17.19.35.26.53.3 3.77.93 7.41 2.22 10.92 3.89 2.39 1.15 4.68 2.47 6.73 4.19.27.23.71.33 1.08.38.49.06.99 0 1.49 0 2.85.05 5.69.11 8.54.16 1.28.02 2.56 0 3.85 0 .02-.06.03-.11.04-.17h.01c-.96-.5-1.94-.98-2.9-1.49Zm-32.47-49.24c3.08-1.95 6.38-3.38 9.96-4.07 1.56-.3 3.14-.5 4.72-.69 1.27-.16 2.55-.25 3.93-.38.14-4.76.28-9.51.42-14.35-.37-.03-.6-.09-.82-.07-1.64.18-3.3.27-4.92.6-3.41.71-6.7 1.81-9.8 3.44-1.01.54-1.93 1.2-2.43 2.24-.7 1.41-1.55 2.76-1.86 4.35-.29 1.46-.81 2.87-1.05 4.34-.3 1.82-.41 3.68-.59 5.52-.02.16.07.34.12.55.82-.53 1.57-1.01 2.32-1.49Zm-71.87-48.2c-.81-.83-1.57-1.72-2.43-2.48-2.28-2.03-4.73-3.86-7.42-5.32-1.13-.61-2.27-1.22-3.65-1.54-1.51 4.57-3.02 9.1-4.53 13.66 3.51 1.56 6.85 3.12 9.86 5.33 3.04 2.23 5.43 5.05 7.7 8.27.17-.75.25-1.27.41-1.77.64-1.98 1.17-3.99 1.36-6.08.19-2.29.46-4.55.06-6.83-.21-1.19-.47-2.33-1.36-3.24m22.66-5.31c-.59-.59-1.12-1.23-1.66-1.9-.24-.3-.49-.6-.75-.91-.03.18-.05.35-.08.52-.06.36-.11.71-.14 1.05-.14 1.36-.43 2.61-1.77 3.35-.17.09-.31.23-.5.43-.11.12-.25.25-.42.41 2.94-.17 4.57 1.25 5.58 3.8l.15-.57c.54-2.07 1.04-4 2.96-5.22H100c-1.22-.05-2.41-.11-3.27-.97Zm10.41 77.14c-.21.05-.38.09-.54.08-.12 0-.25-.01-.38-.02-.47-.02-.94-.03-1.35-.2-.44-.18-.83-.49-1.21-.79l-.42-.33c-.65-.48-1.29-.97-1.98-1.49-.14-.11-.28-.21-.42-.32.1.3.2.58.3.86.23.65.44 1.25.61 1.87.45 1.65.33 3.2-.92 4.51-.13.13-.23.29-.36.49-.07.11-.16.24-.26.39q.525-.135.99-.24c.61-.15 1.15-.28 1.7-.43.99-.28 1.95-.26 2.88.26.37.21.74.42 1.11.64l.51.3c-.84-1.88-.49-3.73.15-5.66-.14.03-.26.06-.38.08Z" style="fill-rule:evenodd;fill:#1e1c1c"/>
        <path d="M150.61 192.22c-.23.08-.45.16-.66.23-.44.16-.84.3-1.25.41-3.58.93-7.26 1.25-10.93 1.36-4.83.14-9.68.09-14.49-.62-1.1-.16-2.18-.42-3.26-.68-.36-.09-.73-.18-1.1-.26-.2-.04-.39-.12-.6-.22-.11-.05-.24-.1-.37-.15l-.06 3.18c-.03 1.52-.07 3.03-.1 4.61q1.05.12 2.07.24c1.56.19 3.07.37 4.58.46 2.77.18 5.56.31 8.34.29h.44c3.21-.02 6.43-.04 9.64-.4l1.59-.18c1.54-.17 3.08-.34 4.62-.54 1.11-.14 1.23-.32 1.3-1.47v-.5c.03-.44.05-.88.08-1.31.06-.88.11-1.77.15-2.66.02-.39 0-.78-.01-1.18 0-.2-.01-.41-.02-.62Zm6.85-34.98c-.52-.47-1.02-.94-1.56-1.37-2.91-2.32-6.28-3.8-9.67-5.22-.51-.22-1.02-.19-1.52.14-.22.14-.45.25-.69.36-.18.09-.37.17-.55.27-.45.26-.77.24-1.06-.27-.24-.42-.52-.83-.79-1.24-.11-.17-.23-.34-.34-.51h-.23c-.17 0-.35.02-.53-.01-.57-.09-1.15-.19-1.72-.28-1.03-.17-2.05-.34-3.09-.47-1.51-.2-3.03-.36-4.55-.42a75 75 0 0 0-9.93.29c-3.63.35-7.22.99-10.76 1.85-3.48.84-6.86 2.01-10.14 3.43-.63.27-1.23.58-1.83.89-.26.13-.52.27-.78.39.12.5.23.99.34 1.47.14.6.28 1.21.42 1.85.11-.06.2-.1.29-.15.15-.08.26-.13.37-.2 2.21-1.36 4.47-2.61 6.9-3.56.18-.07.36-.14.53-.21.69-.27 1.37-.54 2.08-.75.49-.15.98-.3 1.47-.46 1.51-.47 3.01-.95 4.55-1.25 2.95-.59 5.95-1.02 8.98-1.01 2.74.02 5.5.05 8.24.21 2.21.13 4.41.4 6.6.71 1.44.21 2.87.53 4.28.91.75.2 1.49.46 2.23.71.55.19 1.09.38 1.65.55 3.11.94 5.92 2.45 8.53 4.36.46.33.89.69 1.35 1.07.2.17.41.34.62.51.25-.49.47-.92.69-1.36.1-.2.2-.4.31-.61l-.69-.63Zm20.39 1.85c-.62-.03-1.25-.06-1.88-.1-1.25-.07-2.5-.13-3.75-.17-1.42-.05-2.84-.1-4.27-.14-2.58-.08-5.17-.16-7.75-.29-1.1-.05-1.14.02-1.67.89l-.03.06c-.09.16-.16.34-.25.57-.04.11-.09.24-.15.38 6.86.22 13.61.44 20.36.66.15-.38.3-.73.45-1.11.09-.23.19-.47.29-.73h-1.35Zm-.59-3.07c-.93-.07-1.87-.16-2.81-.24-1.4-.13-2.81-.25-4.21-.35-1.54-.1-3.09-.18-4.63-.26-1.33-.07-2.67-.14-4-.22-.5-.03-.85.1-1.07.52-.18.34-.34.68-.53 1.08-.12.26-.25.53-.4.85 2.67.09 5.31.18 7.92.26 4.1.14 8.14.27 12.18.4.26-.51.48-.96.71-1.41.07-.15.15-.3.22-.45l-1.16-.06c-.77-.04-1.51-.08-2.23-.13Zm-23.58-5.83c-.07-.04-.14-.08-.2-.12-.82-.51-1.65-.81-2.62-.69-.79.1-1.58.19-2.37.28-.39.04-.78.09-1.17.13-.02.04-.03.09-.05.13-.01.04-.03.09-.05.13 4.18 1.64 8.12 3.7 11.4 6.92.18-.33.35-.65.52-.97.25-.47.5-.92.76-1.4-.09-.08-.17-.16-.25-.23-.17-.17-.34-.32-.51-.46-1.7-1.42-3.58-2.57-5.47-3.72Z" class="financial-milestone_light_svg__cls-3"/>
        <path d="M140.76 148.32c-.14-.26-.27-.51-.4-.75-.33-.62-.64-1.2-.92-1.79-.2-.43-.47-.66-.97-.71-.87-.08-1.73-.17-2.6-.26-1.54-.17-3.08-.34-4.63-.41-2.02-.1-4.05-.02-6.07.14-2.96.23-5.91.53-8.86.84-.74.08-1.47.15-2.2.22-.2.02-.41.2-.58.35-.48.42-.95.84-1.42 1.26-.31.28-.63.56-.95.84-.68.6-1.12.64-1.54-.11-.55-1-1.28-.99-2.17-.71-.07.02-.15.04-.22.07-.15.04-.29.09-.44.14-.52.17-1.05.34-1.57.52-2.44.8-4.87 1.6-7.3 2.41-.36.12-.7.28-1.06.46-.14.07-.28.14-.43.2.19.59.36 1.15.54 1.73.13.41.26.82.39 1.24 13.92-6.42 28.29-8.17 43.39-5.67Zm-32.87-2.31c-.27-.19-.52-.38-.77-.55-.52-.37-.98-.71-1.47-1.03-.52-.33-1.1-.37-1.72-.15-1.29.45-2.58.88-3.87 1.3-.65.21-1.29.43-1.94.64-.61.21-1.22.41-1.84.63-.36.12-.72.25-1.09.38.26.75.49 1.43.73 2.1l.21.6 5.88-1.96c1.94-.65 3.89-1.3 5.88-1.96" class="financial-milestone_light_svg__cls-3"/>
        <path d="M161.57 151.35c-.08-.08-.15-.16-.22-.23-.14-.16-.27-.3-.43-.42-.11-.08-.22-.16-.33-.25-.66-.49-1.31-.98-2-1.42-.32-.2-.63-.41-.95-.61-1.12-.73-2.25-1.47-3.45-2.08-2.24-1.14-4.61-2-6.98-2.86l-.08-.03c-2.7-.98-5.47-1.58-8.3-1.86-2.97-.3-5.96-.48-8.95-.66l-2.44-.15c-2.61-.17-5.21.04-7.82.25l-.42.03c-.98.08-1.93.17-2.37 1.25-.03.07-.09.11-.16.16-.05.03-.1.07-.13.11-.41.48-.83.96-1.28 1.49.2.03.39.07.56.11.35.08.67.15.98.12 1.72-.14 3.43-.33 5.13-.55 4.42-.57 8.85-.6 13.28-.15l.62.06c.55.05 1.1.09 1.65.19 2.08.36 4.17.73 6.24 1.15.91.18 1.82.38 2.69.7 2.78 1.01 5.49 2.15 8.01 3.74l.72.45c1.75 1.1 3.51 2.21 5.23 3.72l1.18-2.27Z" class="financial-milestone_light_svg__cls-3"/>
        <path d="M97.83 145.28c1.6-.55 3.21-1.1 4.82-1.62 1.58-.5 3.16-.95 4.77-1.36.33-.08.66-.17 1-.25 2.1-.53 4.2-1.07 6.33-1.46 1.32-.24 2.66-.35 4-.46.6-.05 1.21-.1 1.81-.16.22-.02.44-.05.65-.08.47-.06.95-.12 1.42-.12 1.69-.01 3.39-.01 5.08.05 2.42.08 4.84.21 7.26.36 1.12.06 2.25.16 3.37.3 1.41.19 2.81.44 4.2.69.24.04.49.09.73.13.83.14 1.67.28 2.46.55 2.41.84 4.8 1.74 7.15 2.71 1.31.54 2.59 1.19 3.8 1.93 1.11.68 2.18 1.43 3.24 2.19.42.3.85.6 1.27.9.8.55 1.12.48 1.55-.36.05-.1.1-.21.15-.31s.1-.21.15-.31c.32-.64.31-.81-.28-1.25-.11-.08-.21-.16-.32-.24-.9-.67-1.81-1.35-2.76-1.95-3.48-2.2-7.22-3.88-11.13-5.17a55.7 55.7 0 0 0-11.18-2.46c-2.66-.31-5.34-.5-8.01-.55-2.45-.05-4.91.06-7.35.27-2.8.25-5.61.6-8.38 1.07-2 .34-3.98.82-5.96 1.29-.4.1-.81.19-1.21.29-3.48.83-6.86 2.01-10.22 3.25-.4.15-.8.32-1.22.49-.25.1-.51.21-.77.32.16.5.3.98.45 1.48.08.25.15.51.24.78.09-.02.17-.05.25-.06.21-.05.37-.09.53-.15.71-.24 1.41-.48 2.12-.73Z" class="financial-milestone_light_svg__cls-3"/>
        <path d="M96.61 141.96c.81-.31 1.61-.62 2.43-.9 3.09-1.07 6.22-2.03 9.43-2.71 1.76-.38 3.54-.7 5.32-1.03.69-.13 1.39-.25 2.08-.38 3.16-.59 6.37-.82 9.57-.93 3.3-.11 6.61-.04 9.92.3 2.53.26 5.06.6 7.55 1.13 3.69.78 7.27 1.91 10.74 3.42 3.27 1.42 6.31 3.22 9.2 5.29.22.15.43.32.66.51q.18.15.39.3c.21-.39.42-.76.62-1.14.21-.38.42-.77.65-1.19-.06-.04-.13-.08-.19-.12-.13-.08-.27-.16-.39-.26-1.94-1.56-4.02-2.91-6.21-4.1-3.86-2.1-7.95-3.62-12.2-4.69-1.89-.48-3.81-.86-5.74-1.14-2.65-.39-5.31-.77-7.98-.91-2.32-.12-4.65-.07-6.98-.02-.58.01-1.16.03-1.74.04-2.69.04-5.36.31-7.96 1.05-.04.01-.08.02-.12.04-.32.09-.69.2-.93.09-.41-.18-.76-.12-1.12-.05h-.02c-.44.09-.89.16-1.33.24-1.22.21-2.44.43-3.64.71-2.15.5-4.29 1.07-6.41 1.68-2.95.85-5.87 1.8-8.78 3.09.06.23.11.46.17.69.15.61.3 1.23.47 1.92.55-.19.93-.32 1.3-.45.42-.16.85-.32 1.27-.48Zm89.92 3.43c-.23-.05-.42-.09-.61-.09-.33 0-.66-.02-.98-.02-1.93-.05-3.85-.1-5.77-.12-1.93-.03-3.87-.04-5.81-.05-1.11 0-2.22-.01-3.32-.02-.42 0-.85-.02-1.27-.03-.57-.02-1.13-.03-1.69-.03H167c-.35 0-.78 0-.95.19-.45.5-.81 1.1-.88 1.95h2.91c.96 0 1.93.01 2.89.03 3.04.07 6.08.15 9.13.24h.29c1.46.04 2.91.08 4.36.2.5.04.84-.07 1.1-.47.21-.32.42-.64.65-1.01.14-.22.28-.45.44-.7-.15-.03-.28-.05-.4-.08Zm-22 2.69c-.53.84-.94 1.57-1.24 2.48.62.03 1.23.07 1.84.1 1.63.09 3.22.18 4.8.23 1.32.04 2.63.06 3.95.07.9 0 1.81.02 2.71.03 1.09.02 2.18.06 3.27.09.97.03 1.93.06 2.9.08.23 0 .57-.06.68-.21.34-.48.65-.98 1.01-1.55.15-.25.32-.51.49-.79-4.16-.11-8.24-.22-12.27-.33-2.73-.07-5.44-.15-8.14-.22Zm11.62 3.89c-.9-.03-1.8-.04-2.71-.05-.98-.01-1.95-.03-2.93-.06-1.22-.04-2.45-.09-3.68-.15-1.12-.05-2.23-.1-3.34-.14-.31 0-.73.04-.9.24-.5.59-.89 1.27-1.05 2.09.37.03.73.07 1.08.1.77.08 1.51.15 2.25.18 1.36.07 2.71.12 4.07.18 1.53.06 3.05.13 4.58.21.86.04 1.72.16 2.56.3 1.74.28 3.48.28 5.23.2h-.01l.86-1.63c.21-.4.42-.8.65-1.22l-2.32-.09c-1.49-.06-2.91-.12-4.34-.16M151.46 49.42c.19.2.37.39.53.57.32.35.61.66.92.95.9.85 1.81 1.69 2.73 2.53.3.28.61.56.91.84.08.08.16.16.23.25.19.23.4.46.76.54-.14-1.07-.14-2.13-.14-3.2 0-1.52 0-3.04-.4-4.57l.77-.59c.7-.54 1.4-1.09 2.12-1.62.58-.42 1.16-.83 1.75-1.24.47-.33.94-.65 1.41-.99.18-.13.34-.3.52-.49.09-.1.19-.21.31-.32-.17-.07-.32-.14-.46-.19-.26-.11-.48-.21-.7-.28-.39-.12-.77-.25-1.16-.37-1.16-.37-2.32-.75-3.5-1.04-.8-.2-1.18-.59-1.37-1.33-.35-1.42-.73-2.83-1.1-4.24-.07-.25-.13-.5-.2-.75-.09-.33-.19-.67-.31-1.08-.04-.12-.08-.26-.12-.4-.16.19-.32.37-.47.55-.55.64-1.04 1.21-1.51 1.79-.3.37-.6.75-.9 1.13-.42.53-.84 1.07-1.28 1.59-.25.29-.61.6-.96.65-.54.08-1.11 0-1.65-.11-.47-.09-.93-.2-1.39-.32-.57-.14-1.13-.27-1.71-.37-.18-.03-.37-.08-.55-.13-.47-.13-.96-.26-1.49-.1.05.12.1.23.15.34.08.18.15.36.23.52l.36.75c.72 1.52 1.44 3.03 2.18 4.54.32.64.39 1.16-.05 1.84-.93 1.43-1.79 2.9-2.65 4.37-.26.44-.52.89-.78 1.33-.07.12-.12.26-.18.44-.03.09-.06.18-.1.29 1.79-.4 3.55-.8 5.25-1.18 1.37-.31 2.71-.61 4.03-.91Z" class="financial-milestone_light_svg__cls-3"/>
        <path d="M115.95 198.06c-.56.16-1.13.31-1.64.87.15.07.3.14.44.21.64.3 1.22.57 1.92.53.13-.61.21-1.17-.06-1.81-.22.09-.44.15-.67.21Zm35.47 1.41c.11-.03.22-.07.32-.1.69-.2 1.3-.38 1.81-.89-.67-.54-1.34-.75-2.13-.75zm.97-35.08s-.08-.06-.12-.08c-.09-.06-.16-.11-.24-.15-.91-.41-1.17-1.17-.98-2.05.16-.7.42-1.41.79-2.02.28-.47.65-.88 1.01-1.29.16-.18.32-.35.47-.54-.59-.44-1.23-.55-1.91-.32-.98.34-1.85.87-2.63 1.55-2.05 1.8-3.46 4.08-4.72 6.46-.3.56-.56 1.15-.82 1.73-.16.35-.31.7-.48 1.05-.14.32-.33.59-.74.53-.35-.05-.51-.26-.54-.61a1 1 0 0 0-.22-.51c-.26-.28-.52-.56-.78-.83a62 62 0 0 0-2.38-2.46c-2.42-2.31-4.84-4.61-7.34-6.85-2.32-2.08-4.83-3.92-7.7-5.19-.15-.07-.32-.12-.53-.18-.13-.04-.27-.08-.44-.14.19.23.36.43.52.62.29.34.53.63.76.94 1.07 1.52.9 3.07-.49 4.14.07.07.13.15.2.23.15.17.29.33.46.48 1.83 1.51 3.42 3.27 5.01 5.03l1.23 1.35c1.24 1.34 2.18 2.89 3.12 4.43.1.16.19.31.29.47.37.6.65 1.26.94 1.91.09.2.17.39.26.59.13.29.08.59-.26.76-.32.15-.51-.02-.66-.27-.08-.13-.14-.26-.2-.4-.02-.05-.04-.09-.06-.14-.1-.21-.19-.43-.29-.65-.2-.46-.39-.91-.65-1.33-1.16-1.85-2.37-3.66-3.81-5.33-2.43-2.82-5.11-5.38-7.96-7.77-1.12-.94-1.97-2.04-2.12-3.58-.08-.77-.74-1.36-1.5-1.34-.45.01-.89.09-1.37.19-.24.05-.49.09-.76.13 2.73 2.08 3.11 3.65 1.34 5.41 2.35 1.88 4.45 3.89 6.42 6.05.98 1.08 1.93 2.2 2.74 3.39.54.79.96 1.67 1.38 2.55.11.23.22.47.34.7.34.68.65 1.37.97 2.05.24.52.48 1.04.72 1.55.23.5.1.82-.45 1.15l-.15-.21c-.11-.15-.23-.31-.31-.48-.22-.44-.43-.9-.63-1.35-.31-.66-.61-1.32-.95-1.96-.19-.36-.37-.73-.55-1.1-.54-1.1-1.08-2.2-1.82-3.14-1.47-1.86-3.16-3.56-4.84-5.25-.77-.77-1.59-1.47-2.41-2.17-.51-.44-1.03-.88-1.53-1.33-1.48-1.35-2.69-2.86-2.51-5.05 0-.03-.02-.07-.06-.11l-.06-.09c-.1.02-.21.04-.32.07-.64.13-1.29.26-1.91.66l.48.42c.37.32.72.62 1.04.95.77.82 1.21 1.8 1.27 2.95.05.85-.39 1.42-1.08 1.91l4.72 4.81c2.16 2.2 4.17 4.54 5.95 7.06.57.8 1.11 1.62 1.64 2.44l.24.36c.22.33.18.66-.2.84-.33.16-.53-.06-.72-.33-.06-.09-.12-.18-.19-.27-1.19-1.75-2.37-3.49-3.62-5.18-.55-.74-1.24-1.38-1.93-1.99-.25-.21-.55-.35-.86-.49-.15-.07-.31-.14-.45-.22-.34-.19-.68-.37-1.02-.56-2.18-1.2-4.37-2.39-6.71-3.26-.42-.16-.85-.28-1.29.08.17.11.33.21.49.31.35.22.68.42.98.66 1.26 1.01 1.46 1.84.77 3.32l.82.67c.62.51 1.24 1.02 1.89 1.49 1.73 1.25 3.17 2.79 4.6 4.34.12.13.24.25.35.38.33.36.63.78.83 1.23 1.02 2.31 1.83 4.7 2.25 7.19.34 1.98.62 3.98.9 5.97.14.96.27 1.91.41 2.86 5.11 1.53 20.75 1.32 25.08-.03.61-2.15 1.01-4.35.9-6.61 0-.16-.01-.31-.02-.47-.02-.54-.05-1.07-.05-1.6v-1.36c0-1.3 0-2.6.06-3.9 0-.11.01-.21.02-.32.08-1.64.17-3.28.63-4.89.54-1.83 1.36-3.52 2.21-5.21h.02c.39-.79.81-1.56 1.23-2.33.2-.36.4-.73.59-1.1Z" class="financial-milestone_light_svg__cls-2"/>
        <path d="M106.45 164.76c.28 1.17 1.06 1.81 1.93 2.38.12.08.47.08.52 0 .1-.16.12-.42.07-.61-.25-.85-1.35-1.65-2.52-1.77m2.53-8c.53 1.18 1.16 2.29 2.59 2.57.47-.56.55-.68.45-1.03-.4-1.47-1.25-2.57-2.67-3.22-.45.52-.63 1.09-.37 1.68m6.71.55c.52-.68.5-1.42.04-2.1-.49-.72-1.07-1.35-2.08-1.21-.23 1.71.68 3.18 2.04 3.32Zm3.65-2.99c.36.97.86 1.91 1.79 2.42.43.24 1.14.34 1.58.15.54-.23.37-.92.24-1.43-.07-.25-.17-.51-.32-.72-.63-.86-1.34-1.63-2.28-2.12-.83.42-1.25 1.04-1.01 1.7m33.93 5.4c-.63.62-.99 1.39-1.23 2.21-.22.76-.03 1.03.93 1.46.29-.47.57-.94.85-1.4.47-.78.94-1.55 1.4-2.32-.63-.5-1.43-.47-1.95.04Zm-10.11-9.24c2.18-1.23 4.42-1.92 6.83-2.1-2.94-1.64-6.12-2.36-9.58-2.98.67 1.22 1.29 2.37 1.91 3.51.28.52.56 1.04.85 1.56Zm-32.76-3.21c1.46-.82 5.26-4.84 5.59-5.91-.6.12-1.2.23-1.8.34-2.57.48-5.14.96-7.73 1.98.25.19.5.37.75.55 1.27.92 2.44 1.77 3.2 3.04Zm75.12-3.88c-.58-.43-1.15-.85-1.73-1.27a.8.8 0 0 0-.46-.15l-1.7-.09c-1.69-.09-3.38-.17-5.06-.2-1.67-.03-3.33-.03-5-.03-1.25 0-2.5 0-3.75-.01h-.08c-.73 0-1.47 0-2.08-.56-2.33-2.07-5.09-3.45-7.9-4.73-4.09-1.86-8.38-3.13-12.77-3.99-.07-.01-.13-.03-.2-.04-2.1-.41-4.2-.83-6.39-.6-1.52.16-3.05.23-4.58.3-.71.03-1.43.07-2.15.11-.02 0-.05.05-.08.11-.01.02-.03.05-.04.07.02.01.05.03.07.04.06.04.12.07.18.08.28.02.56.05.83.07 1.08.09 2.15.18 3.23.25 3.55.21 7.02.89 10.46 1.75 3.8.95 7.49 2.25 11 4.01 2.19 1.1 4.33 2.31 6.31 3.76 1.31.95 1.73 1.39 2.24 1.59.49.19 1.06.17 2.59.17 1.99 0 3.98.02 5.97.04 1.19.01 2.39.03 3.58.04h1.37c.8 0 1.6-.01 2.4.01 1.07.04 2.14.1 3.2.16l1.45.09.07-.25c-.32-.24-.65-.48-.97-.71Zm-20.77-30.6c-.7-.08-1.41-.16-2.11-.25-.5-.06-1-.12-1.5-.19-.65-.08-1.3-.17-1.95-.24a57 57 0 0 0-2.31-.21l-1.06-.09c-.72 3.43-2.47 6.23-4.69 8.73-3.34 3.77-7.31 6.73-11.87 8.88h-.01c-.53.25-1.06.49-1.59.73-.33.15-.67.3-1 .45 0 .02.02.04.02.06s.01.04.02.06l1.19-.06c1.02-.06 2.04-.11 3.05-.12.76 0 1.42-.2 2.08-.51 2.02-.94 3.79-2.24 5.5-3.68 3.69-3.12 6.62-6.84 9.08-10.96.39-.64.78-.83 1.43-.74 1.61.21 3.22.42 4.83.65 1.38.19 2.76.4 4.14.6 1.8.26 3.59.52 5.39.77 1.92.26 3.85.48 5.78.7.21.02.42.05.63.07 1.82.21 1.99.54 1.06 2.16-1.56 2.72-3.4 5.22-5.61 7.44-2.3 2.3-4.92 4.22-7.71 5.9-.07.04-.15.08-.23.12-.29.14-.6.3-.74.71.17.04.33.07.49.1.35.07.69.13.99.27.72.32 1.28.28 2-.15 1.32-.79 2.59-1.6 3.7-2.67.3-.28.6-.57.9-.86.85-.81 1.7-1.63 2.57-2.41 2.25-2.04 4.18-4.34 5.67-7l.07-.13c.99-1.77 1.99-3.56 2.33-5.68-.28-.03-.53-.06-.79-.09l-2.2-.21c-1.57-.15-3.15-.29-4.72-.47-1.15-.13-2.3-.3-3.46-.46-.65-.09-1.31-.19-1.96-.28-1.63-.22-3.27-.44-4.91-.64-.84-.11-1.68-.2-2.52-.3Zm-15.61 91.95c-.5.03-.94.62-.95 1.31-.02.66.5 1.29 1.08 1.31.54.02 1.01-.57 1.01-1.23 0-.93-.4-1.42-1.14-1.39m-7.33-124.15c-.08.29-.17.57-.25.86-1.06 3.48-1.28 7.04-1.19 10.62.03 1.05.18 2.09.33 3.14.1.66.19 1.33.26 2 .23 2.32.72 4.58 1.35 6.81.42 1.45.91 2.88 1.41 4.31.18.51.36 1.03.53 1.54.29.88.2 1.25-.62 1.72-.88.5-1.78.96-2.67 1.42-.16.08-.33.17-.49.25-3.06 1.57-6.12 3.14-9.18 4.7h-.01c-.84.44-1.29.27-1.59-.62-.07-.21-.12-.42-.16-.63-.05-.21-.1-.42-.16-.63-1.05-3.25-1.54-6.59-1.69-9.98-.13-3.01.18-6.01.49-9.01.02-.23.05-.46.07-.69.02-.2.03-.42.03-.62v-.25l-.28-.03c-.14.55-.29 1.1-.44 1.65-.33 1.2-.65 2.4-.86 3.62-.41 2.45-.57 4.92-.33 7.43.05.59.11 1.18.16 1.78.27 3.05.53 6.09 1.28 9.06.18.7.42 1.38.66 2.07.11.32.23.64.33.97.57-.26 1.13-.52 1.67-.77 1.23-.56 2.41-1.1 3.59-1.66 2.53-1.2 5.05-2.41 7.56-3.62.46-.22.92-.45 1.38-.67 1.61-.77 3.18-1.61 4.64-2.83-.04-.1-.08-.21-.12-.32-.1-.27-.21-.55-.33-.83a10 10 0 0 0-.36-.73c-.13-.26-.27-.52-.39-.79h-.03c-1.41-3.18-2.27-6.53-3.12-9.87-.09-.35-.18-.7-.27-1.04-.94-3.65-.73-7.37-.41-11.09.19-2.23.69-4.39 1.25-6.54.5-1.94 1.25-3.77 2.34-5.44s2.38-3.18 3.92-4.46c.09-.07.14-.18.2-.29.02-.05.05-.1.08-.14-.02-.03-.04-.05-.06-.08a1 1 0 0 0-.06-.08c-.13.06-.26.13-.38.19-.27.14-.54.28-.82.38-2.95 1.1-4.72 3.37-6.13 6.04-.54 1.01-.84 2.08-1.16 3.16Z" class="financial-milestone_light_svg__cls-2"/>
        <path d="M150.62 72.63c.13.01.23.02.31-.01.43-.17.86-.34 1.28-.52.74-.3 1.48-.6 2.23-.87 2.82-1 5.73-1.65 8.71-1.9.51-.04 1.04-.04 1.56-.03h.92c.44 0 .68.29.55.63-.24.61-.22 1.24-.21 1.87 0 .23.01.46 0 .69-.15 3.97-.27 7.95-.38 11.92-.03 1.1-.29 1.39-1.4 1.48-1.06.08-2.12.18-3.18.27l-1.06.09c-3.63.32-7.13 1.16-10.41 2.78-2.04 1.01-4.05 2.09-5.74 3.65-.16.15-.37.37-.37.55v.31c.01.77.02 1.54.29 2.38 1.23-1.63 2.64-2.87 4.25-3.89 1.91-1.2 3.98-2.1 6.13-2.78 2.41-.76 4.87-1.21 7.38-1.34 1.91-.1 3.84-.09 5.75.27.17.03.35.02.52.01h.23c.03-.05.06-.1.08-.14.05-.07.08-.12.08-.18v-.2c.02-.33.03-.66 0-.99-.33-2.51-.2-5.04-.05-7.55.07-1.2.1-2.4.13-3.59.06-2.51.13-5.02.53-7.51.04-.24 0-.49-.02-.7l-.03-.22c-.49 0-.97 0-1.45-.01-1.08-.01-2.11-.03-3.14.04-.71.04-1.41.16-2.11.29-.38.07-.75.14-1.13.19-1.74.25-3.43.67-5.09 1.26-2.12.76-3.74 2.2-5.48 3.75.12 0 .22 0 .3.01Zm-19.9 16.58c-.05.4.01.75.32.98l.03.03c.57.43 1.15.86 1.93.82.19-.01.38-.02.57-.02.51-.01 1.01-.03 1.49-.15 1.13-.29 2.29-.76 2.9-1.78.89-1.47 1.59-3.04 1.9-4.76.46-2.56 1.13-5.05 2.27-7.39.26-.54.57-1.06.88-1.57.13-.22.26-.43.38-.65-.04-.06-.08-.11-.12-.16-.27.19-.54.37-.81.56-.59.4-1.18.81-1.74 1.24-3.53 2.75-6.42 6.09-8.8 9.85-.58.9-1.07 1.89-1.2 3M79.37 58c.05.68.14 1.36.55 1.98.86 1.3 2.03 2.13 3.47 2.68.72.27 1.41.22 2.12 0 .65-.19.91-.67.91-1.27v-.37c0-.84 0-1.69-.18-2.5-.37-1.67-.78-3.35-1.4-4.95-.82-2.12-1.82-4.18-2.84-6.22-.67-1.36-1.59-2.56-2.62-3.69.75 2.98.72 5.95.21 8.91-.3 1.8-.34 3.6-.21 5.41Z" class="financial-milestone_light_svg__cls-2"/>
        <path d="M86.39 68.21c-.25.96-.49 1.92-.74 2.88-.24.96-.49 1.92-.74 2.88-1.27 4.92-3.48 9.37-6.49 13.45-.09.13-.19.26-.28.39-.21.3-.42.6-.66.88-.47.55-.8.58-1.26.14-.8-.75-1.59-1.5-2.33-2.3-.93-1.01-1.84-2.04-2.76-3.07-.54-.61-1.08-1.22-1.62-1.82-.45-.5-.9-1-1.36-1.49-.56-.61-1.11-1.21-1.66-1.83-.52-.58-.55-1.12-.1-1.7.33-.42.67-.83 1.01-1.24.27-.33.55-.66.81-.99.19-.24.38-.47.58-.71.62-.76 1.25-1.53 1.81-2.35 2.13-3.12 4.02-6.4 5.53-9.87a31.3 31.3 0 0 0 2.15-7.1c.15-.84.25-1.69.35-2.54.07-.56.13-1.13.21-1.69.28-1.86.11-3.72-.34-5.51-.38-1.55-.8-3.15-1.99-4.37-.42-.43-.84-.86-1.25-1.3-.36-.38-.72-.75-1.08-1.12-.03-.03-.09-.02-.16 0h-.11c.14.32.29.63.43.94.29.63.57 1.26.84 1.88.99 2.31 1.55 4.72 1.5 7.25-.02.93-.1 1.86-.19 2.79-.03.29-.05.59-.08.88 0 .06-.01.13-.02.19-.04.5-.08 1-.19 1.48-.37 1.65-.77 3.29-1.19 4.92-.91 3.54-2.37 6.82-4.51 9.79-.37.51-.74 1.02-1.1 1.53l-.46.64c-.05.07-.1.14-.15.2-1.74 2.4-3.48 4.8-5.74 6.76-.19.17-.35.37-.54.61-.09.11-.18.23-.29.36.41.45.81.9 1.21 1.34.96 1.06 1.89 2.11 2.85 3.13 1.56 1.67 3.13 3.33 4.72 4.97 1.26 1.29 2.52 2.57 3.81 3.86.63.64 1.27 1.28 1.91 1.93.09-.08.17-.14.24-.19.12-.09.2-.15.26-.23.29-.42.59-.83.9-1.24.76-1.03 1.51-2.07 2.15-3.17.92-1.61 1.72-3.3 2.52-4.98.15-.33.31-.65.46-.98.89-1.88 1.75-3.77 2.24-5.81l.03-.11c.35-1.48.71-2.96.9-4.46h-.01c.13-1 .16-2 .19-3.01.01-.41.02-.82.04-1.22-.16.09-.24.2-.27.32Z" class="financial-milestone_light_svg__cls-2"/>
        <path d="M71.83 63.79c.27-.58.51-1.11.74-1.61.19-.4.36-.78.53-1.15-.74-1.68-1.84-3.02-2.96-4.32-.95-1.09-1.94-2.19-3.04-3.14-2.43-2.12-5.21-3.73-8.14-5.08-.34-.15-.68-.31-1.02-.46-.62-.28-1.25-.57-1.87-.85-1.01-.46-1.21-.8-.93-1.64.46-1.39.92-2.78 1.39-4.18.73-2.19 1.46-4.37 2.18-6.57.33-1 .65-2 .88-3.03.15-.67.24-.86.88-.62 1.11.42 2.21.88 3.28 1.37 2.98 1.37 5.56 3.34 8.01 5.47.39.34.76.69 1.14 1.05l.51.48c.03-.04.05-.07.07-.09.02-.03.04-.04.03-.06 0-.02 0-.03-.01-.05a1.2 1.2 0 0 0-.1-.32c-1.07-1.95-2.15-3.89-4.02-5.23-.23-.17-.45-.34-.68-.51-.43-.33-.86-.66-1.32-.95-.05-.03-.1-.07-.16-.1-1.15-.72-2.3-1.45-3.51-2.06-1.16-.58-2.36-1.09-3.56-1.59-.33-.14-.66-.28-.98-.41-.21-.09-.45-.14-.71-.19-.12-.02-.23-.04-.36-.07-.05.17-.1.33-.14.49-.12.4-.23.76-.31 1.13-.36 1.65-.74 3.29-1.36 4.87-.39 1.01-.71 2.04-1.03 3.08-.02.07-.04.14-.07.21l-.36 1.17c-.82 2.68-1.64 5.36-2.91 7.88-.13.26-.2.55-.28.86-.04.15-.08.31-.13.47.23.05.44.1.65.14.44.09.84.18 1.22.28 4.42 1.16 8.42 3.16 11.93 6.11 2.91 2.45 5.34 5.24 6.51 9.19Zm34.12 31.75c-.1-.08-.18-.13-.27-.18-.69-.34-1.37-.68-2.06-1.03-2.51-1.25-5.03-2.51-7.55-3.75-.48-.23-.73-.53-.7-1.07.01-.33.02-.66.02-.99 0-.5.01-1 .05-1.49.21-2.84.7-5.64 1.39-8.4.89-3.54 1.98-7.01 3.49-10.34.92-2.03 2.01-3.95 3.17-5.85 2.18-3.55 4.99-6.54 8.02-9.34 1.29-1.19 2.65-2.3 4.02-3.41.51-.42 1.03-.84 1.54-1.26 1.82-1.5 3.72-2.89 5.78-4.05.86-.49 1.2-.4 1.73.42.4.63.79 1.28 1.18 1.92.07.12.15.25.22.37.41.68.83 1.36 1.24 2.04 1.62 2.66 3.24 5.32 4.85 7.99.2.33.33.71.46 1.08.06.18.12.35.19.53-2.17 1.27-4.13 2.6-5.91 4.21-.33.3-.67.6-1.01.89-.81.71-1.63 1.43-2.37 2.21-1.5 1.59-2.96 3.23-4.29 4.96-1.31 1.71-2.34 3.61-3.23 5.57l-.33.72c-.49 1.06-.97 2.12-1.31 3.23-1.17 3.91-2.02 7.89-2.16 12-.04 1.43.47 2.17 2 2.65 0-.12-.02-.24-.03-.36-.02-.31-.05-.61-.05-.91-.01-3.12.49-6.2 1.08-9.25.43-2.19 1.35-4.2 2.27-6.22.06-.12.11-.25.17-.37 1.18-2.61 2.78-4.97 4.64-7.14.15-.17.29-.34.44-.5.21-.23.41-.46.6-.7 2.1-2.62 4.51-4.91 7.22-6.89.1-.07.2-.15.3-.22 1.34-.98 2.68-1.96 4.21-2.65l1.32-.61c-.14-.21-.28-.42-.41-.62-.28-.42-.53-.8-.79-1.2-.25-.38-.49-.77-.73-1.15-.45-.71-.89-1.42-1.37-2.1-2.11-2.98-4.11-6.02-5.89-9.21-.06-.11-.13-.22-.19-.33-.22-.38-.43-.75-.6-1.15-.27-.61-.51-1.24-.76-1.89-.1-.25-.19-.51-.3-.77-.1.04-.19.07-.26.09-.18.06-.31.1-.43.17-1.65.97-3.32 1.94-4.95 2.93-2.42 1.46-4.65 3.19-6.77 5.05a61.5 61.5 0 0 0-8.47 9.05c-2.32 3.04-4.35 6.25-6.05 9.66-2.72 5.47-4.42 11.26-5.17 17.32-.15 1.22-.18 2.46-.2 3.69-.02.69-.03 1.38-.07 2.06-.03.6.25.91.77 1.12.43.18.85.38 1.26.59 2.5 1.29 4.99 2.57 7.53 3.89.72.37 1.45.75 2.19 1.13l.81-1.05c.24-.31.48-.62.73-.94-.09-.06-.17-.12-.24-.17Z" class="financial-milestone_light_svg__cls-2"/>
        <path d="M116.78 72.83c.23-.48.54-.93.84-1.37.05-.08.11-.16.16-.24.85-1.28 1.14-2.65.75-4.15-.12-.45-.25-.89-.39-1.33-.59-1.78-1.9-2.87-3.54-3.65-1.25-.59-2.57-.83-3.93-.97-1.95-.19-3.72.34-5.13 1.64-1.73 1.59-2.56 3.64-2.63 6.4.04 1.12.47 2.55 1.26 3.83.25.41.61.75.97 1.08.08.07.15.14.22.21.89.85 1.93 1.44 3.1 1.89 2.08.8 4.03.77 5.81-.6.98-.76 1.94-1.58 2.51-2.75Zm-5.39 21.74c-.69-.59-1.35-1.16-2.22-1.45-.18.27-.35.53-.52.79-.36.55-.72 1.1-1.09 1.63-.13.18-.26.36-.4.54-.45.6-.92 1.21-1.23 2.08 2.45-.77 4.72-1.48 7.24-2.27-.68-.38-1.24-.85-1.78-1.31Zm8.44-65.79c1.01-.02 1.86-.89 1.86-1.93s-.72-1.73-1.75-1.73c-1.12 0-1.91.83-1.91 1.96 0 .98.8 1.72 1.8 1.69ZM55.3 60.37c-.92.02-1.71.9-1.67 1.87.04.99.81 1.74 1.8 1.73 1.04 0 1.82-.81 1.78-1.84a1.85 1.85 0 0 0-1.9-1.76Zm22.84 43.26c-1.14-.08-1.91 1.09-1.94 2.09-.03 1.22.99 2.27 2.15 2.28 1.14 0 1.94-.88 1.95-2.15 0-1.28-.9-2.21-2.16-2.21Z" class="financial-milestone_light_svg__cls-2"/>
    </g>
</svg>
