<svg xmlns="http://www.w3.org/2000/svg" width="321" height="321" fill="none" viewBox="0 0 321 321">
    <path fill="#1e1c1c" d="M289.492 79.9c-.403-.79-.902-1.573-1.522-2.2-.872-.865-1.827-1.693-2.872-2.327-1.73-1.051-3.513-2.028-5.356-2.856-3.483-1.559-7.071-2.871-10.779-3.811-2.939-.738-5.878-1.529-8.839-2.178a342 342 0 0 0-12.234-2.476c-3.431-.626-6.885-1.096-10.332-1.603a269 269 0 0 0-11.711-1.484c-3.797-.388-7.594-.79-11.398-1.186-5.036-.53-10.093-.701-15.136-1.186-4.364-.418-8.765-.537-13.144-.679-5.401-.186-10.801-.335-16.202-.373-11.824-.074-23.64-.141-35.441.687-.335.022-.679.007-1.014.014-2.701.112-5.409.105-8.094.38-2.574.27-5.147.508-7.736.62a16 16 0 0 0-1.342.12c-3.357.357-6.714.7-10.063 1.08-2.574.291-5.155.538-7.699.963-5.43.917-10.876 1.76-16.24 3.08-3.93.977-7.854 1.969-11.621 3.49-1.873.753-3.738 1.559-5.446 2.67-1.134.738-2.245 1.507-3.148 2.52-1.999 2.253-2.253 4.93-.403 7.384.612.813 1.32 1.522 2.134 2.14 2.253 1.73 4.76 2.991 7.34 4.117 5.073 2.208 10.399 3.655 15.747 4.99 9.392 2.349 18.933 3.93 28.526 5.22 3.342.448 6.684.858 10.026 1.29.455.06.641.567.365 1.022-.947 1.529-1.85 3.08-3.096 4.408-1.156 1.238-2.073 2.647-2.961 4.094a56 56 0 0 1-2.85 4.177c-1.268 1.715-2.603 3.393-3.938 5.064-.761.954-.978 1.969-.59 3.147a15.8 15.8 0 0 0 2.731 5.012c.917 1.141 1.85 2.267 2.767 3.408.299.365.328.88.067 1.245-1.477 2.119-2.939 4.252-4.602 6.243-1.649 1.969-3.253 3.982-4.573 6.22-1.216 2.058-1.641 4.161-1.201 6.466.276 1.424.641 2.841.985 4.34-.209.798-.418 1.678-.672 2.536-3.327 11.329-6.669 22.65-9.988 33.978-2.82 9.599-5.595 19.212-8.407 28.81-2.73 9.278-5.483 18.548-8.236 27.819-1.178 3.99-2.364 7.972-3.573 11.955-.26.857-.604 1.693-.947 2.52-.075.172-.328.358-.522.381-1.79.246-3.588.179-5.379.022-.23-.022-.604-.507-.582-.738.023-.217-.014-.448.03-.664 1.477-6.928 2.962-13.849 4.439-20.778q1.441-6.77 2.872-13.529c.26-1.23.097-1.648-.948-2.215a2152 2152 0 0 0-8.921-4.788c-.5-.261-1.007-.492-1.522-.723-.985-.432-1.902-.425-2.88.172-8.958 5.407-17.932 10.776-26.906 16.168a413 413 0 0 0-4.901 2.976c-.597.373-.746 1.611-.276 2.133.298.336.611.649.955.947 4.572 3.998 9.13 8.01 13.74 11.97 2.992 2.566 6.065 5.027 9.078 7.555.978.821 2.03 1.328 3.32 1.507 2.782.38 5.565.813 8.325 1.357 1.223.246 2.432.38 3.678.388 5.288.045 10.57.134 15.859.142 25.444.059 50.889.096 76.326.387 6.863.082 13.734.053 20.604.06.664 0 1.328-.089 1.984-.201.164-.03.313-.291.418-.478.112-.194-.231-.731-.47-.753-.776-.075-1.559-.186-2.335-.194-3.155-.03-6.303-.015-9.459-.03-.902 0-1.797-.015-2.7-.044-.724-.03-1.067-.411-.888-1.052.56-2.058 1.134-4.117 1.731-6.168 3.536-12.082 7.086-24.163 10.63-36.245 1.007-3.453 2.029-6.906 3.043-10.352.09-.321.194-.619.567-.746.269-.089.575.023.798.44a231 231 0 0 1 1.865 3.588c1.03 2.006 2.022 4.019 3.066 6.018 1.41 2.685 2.857 5.355 4.282 8.04 1 1.887 2.007 3.774 2.969 5.683.694 1.372 1.805 2.424 3.133 2.946 1.969.783 4.028 1.417 6.214 1.424 3.595.008 6.863-1.089 9.906-2.901 2.559-1.514 4.677-3.535 6.169-6.123 1.38-2.401 2.238-4.9 1.089-7.712-.604-1.491-.596-3.08-.246-4.653.12-.552.217-1.104.351-1.648.865-3.61 1.686-7.227 2.618-10.815.843-3.229.813-6.473.321-9.717-.298-1.932-1.164-3.625-2.715-4.908-.724-.596-1.537-.917-2.477-.939-1.872-.052-3.551.455-4.998 1.678a53 53 0 0 1-2.357 1.902c-.09.067-.507-.068-.567-.202-.485-1.133-.962-2.274-1.35-3.445-.351-1.03-1.052-1.723-1.917-2.268a5.3 5.3 0 0 0-2.544-.82c-1.693-.112-3.372-.022-5.035.373-3.745.88-7.311 2.215-10.697 4.057-.582.313-1.201.574-1.821.82-.223.097-.395-.059-.455-.343-.126-.574.06-1.096.224-1.633 2.193-7.435 4.379-14.879 6.572-22.322 1.209-4.094 2.432-8.188 3.633-12.29q4.206-14.4 8.422-28.81c2.021-6.906 4.058-13.805 6.094-20.711.179-.612.619-.932 1.224-.977 3.26-.246 6.512-.47 9.764-.694.224-.014.463-.014.672.038.194.052.388.171.529.313.179.186.135.41-.059.604-.403.388-.791.791-1.209 1.171-2.752 2.483-5.498 4.989-8.28 7.443-.91.805-1.358 1.685-1.246 2.938.254 2.805.336 5.616.597 8.413.44 4.646-.186 3.587 3.349 6.459 8.213 6.674 16.486 13.275 24.729 19.897.261.217.537.418.813.604.507.336 1.44.299 1.91-.111a35 35 0 0 0 1.716-1.611c5.706-5.758 11.398-11.523 17.097-17.28 1.343-1.365 2.618-2.797 4.021-4.102 1.238-1.149 1.872-2.432 1.76-4.162-.104-1.685-.015-3.378-.022-5.064-.015-2.58-.038-5.168-.06-7.771-.627-.589-1.149-1.178-1.775-1.641-2.35-1.745-4.73-3.438-7.102-5.161l-4.901-3.58c-.388-.29-.604-.648-.462-1.14 3.513-.783 7.042-1.5 10.533-2.357 4.483-1.104 8.877-2.469 13.047-4.512a24.4 24.4 0 0 0 4.542-2.886 7.24 7.24 0 0 0 2.059-2.64c.657-1.41.731-2.85.015-4.237M56.73 256.17c-.067.328-.194.641-.298.954-.135.388-.784.664-1.112.455-.477-.29-.977-.566-1.41-.917-1.902-1.574-3.804-3.147-5.684-4.758a4652 4652 0 0 1-13.017-11.217c-.76-.656-1.574-1.268-2.156-2.26.32-.328.575-.701.925-.924 1.619-1.015 3.26-1.992 4.894-2.976 6.833-4.109 13.666-8.226 20.506-12.328 1.06-.634 2.148-1.201 3.245-1.768.15-.082.47-.029.59.082a.78.78 0 0 1 .178.612c-.5 2.64-1.051 5.28-1.551 7.92-1.425 7.496-2.835 14.998-4.252 22.493-.291 1.544-.56 3.088-.858 4.632m11.876 4.027c-.097.366-.65.761-1.022.716a78 78 0 0 1-2.663-.343c-2-.291-3.999-.582-5.998-.887-.79-.12-1.104-.59-1-1.44.038-.335.068-.671.127-.999.59-3.08 1.171-6.168 1.768-9.248 1.06-5.504 2.186-10.993 3.163-16.512.567-3.199 1.149-6.399 1.82-9.576.187-.88.336-1.76.918-2.498.112 0 .231-.038.32.007a1556 1556 0 0 1 9.213 4.84c.53.284.813.813.694 1.417a356 356 0 0 1-1.276 6.258q-2.594 12.341-5.199 24.67c-.254 1.209-.567 2.402-.865 3.595M226.51 66.782c.335-1.186.82-2.327 1.268-3.58.567-.06 1.126-.224 1.656-.164 3.014.343 6.027.679 9.026 1.119 3.439.5 6.878 1.066 10.302 1.678 7.079 1.253 14.106 2.76 20.999 4.84.425.127.857.276 1.253.477 1.104.582 1.521 1.611 1.626 2.775.03.305-.134.648-.261.954-.47 1.074-1.328 1.79-2.275 2.416-2.097 1.388-4.424 2.193-6.833 2.782a123 123 0 0 1-15.583 2.76c-4.238.477-8.475 1.036-12.742 1.238-3.811.171-7.638.186-11.457.26a2.7 2.7 0 0 1-.978-.178c-.171-.067-.395-.313-.388-.47.038-.671.068-1.35.239-1.991a1746 1746 0 0 1 4.148-14.916m-51.613-6.84c.141-.253.47-.44.746-.588.186-.097.44-.09.664-.09 2.588.06 5.176.112 7.758.202 2.924.096 5.848.2 8.765.343 1.574.074 3.14.238 4.714.343 4.826.313 9.653.537 14.472 1.021a69 69 0 0 1 3.677.47c.291.045.56.299.895.485-.253.79-.455 1.551-.746 2.282a1784 1784 0 0 1-4.714 11.91c-1.872 4.692-3.752 9.39-5.662 14.074-2.67 6.555-5.326 13.126-8.422 19.502-1.029 2.118-2.2 4.177-3.267 6.28-2.029 4.012-3.969 8.069-6.042 12.059-2.447 4.684-4.998 9.315-7.505 13.962-.224.417-.873.477-1.134.134-.067-.09-.141-.172-.201-.269-1.768-2.782-4.058-5.108-6.564-7.212-5.715-4.788-11.936-8.8-18.829-11.716-4.192-1.775-4.833-1.984-10.04-2.864.045-.313-.008-.701.156-.932 1.179-1.648 2.134-3.446 3.521-4.945.373-.417.702-.88 1.007-1.35 2.417-3.661 4.857-7.301 7.214-11 1.268-1.991 2.402-4.065 3.551-6.123 1.089-1.969 2.059-3.998 3.185-5.944 2.596-4.49 4.573-9.27 6.684-13.991 1.372-3.073 2.819-6.123 3.856-9.345.552-1.708 1.097-3.423 1.656-5.123.172-.538.336-1.082.605-1.574m-59.11 163.874c-4.61-.037-9.22-.179-13.83-.283-.441-.008-.911-.045-1.321-.201-.276-.097-.619-.396-.664-.657-.41-2.036-.276-4.027.694-5.899.492-.962 1.313-1.544 2.402-1.641.895-.074 1.79-.097 2.693-.097q9.78.036 19.559.082c9.899.038 19.79.082 29.689.127 3.148.015 6.296 0 9.444.03.56 0 1.112.104 1.664.179.253.03.552.515.477.776-.373 1.409-.671 2.848-1.149 4.228-1.35 3.908-.447 3.528-4.796 3.528-9.444-.008-18.888 0-28.332 0v-.157c-5.512 0-11.025.037-16.53-.015m48.517-10.09c-9.22-.045-18.448-.082-27.668-.157-8.772-.067-17.537-.179-26.31-.276-.335 0-.671.008-1.014 0-1.962-.045-2.193-.328-1.656-2.17q4.03-13.736 8.071-27.483c.41-1.394.783-2.811 1.231-4.198.723-2.23.626-2.32 2.991-2.335a505 505 0 0 1 6.744-.007c5.736.052 11.473.156 17.209.186 9.444.045 18.895.037 28.346.067 1.574.008 3.141.112 4.715.187.418.022.746.529.664.984-.082.448-.149.888-.276 1.32a22226 22226 0 0 1-9.295 31.697c-.194.641-.477 1.252-.798 2.103-1.164.029-2.059.082-2.954.082m12.987-37.879c-.447.015-.895.015-1.35.015-15.986-.12-31.972-.224-47.95-.351-4.17-.03-8.333-.104-12.495-.164-.448 0-.903-.045-1.35-.082-.388-.037-.776-.44-.881-.895-.022-.112-.074-.216-.089-.328-.269-1.708.022-3.371.604-4.967.41-1.119 1.216-1.902 2.454-2.066.888-.119 1.783-.231 2.678-.224 4.722.015 9.452.082 14.181.112 14.181.082 28.361.157 42.55.231 1.35.015 2.7.015 4.05.068.306.007.604.201 1.015.35-.164.91-.261 1.805-.493 2.655a78 78 0 0 1-1.402 4.512c-.231.679-.761 1.104-1.522 1.134m-23.781-49.737c.06-.097.142-.179.201-.269.261-.373.799-.552 1.186-.38.515.224 1.03.447 1.53.694 5.356 2.655 10.279 5.966 14.852 9.814.171.142.343.291.5.455.417.44.559.97.32 1.536-.753 1.783-.969 3.677-1.216 5.572-.432 3.296-.059 6.495.978 9.628.954 2.893 2.223 5.623 4.05 8.084.798 1.082 1.455 2.267 2.141 3.423.06.105-.097.478-.246.552a2.24 2.24 0 0 1-.962.246c-1.679.023-3.365 0-5.051 0v-.015c-1.685 0-3.371-.022-5.05.008-1.074.015-1.991-.351-2.745-1.082-1.208-1.17-2.476-2.297-3.536-3.594-1.35-1.641-2.551-3.409-3.759-5.169-1.582-2.312-3.104-4.668-4.648-7.01-.753-1.141-1.7-2.096-2.767-2.924-1.805-1.394-3.76-2.446-6.162-2.326-.291.014-.604-.157-.88-.299-.246-.127-.097-.634.336-1.193 3.901-5.079 7.608-10.285 10.928-15.759zm-6.02 5.735c-2.32-1.827-4.237-3.96-5.662-6.526-.216-.388-.35-.82-.492-1.245-.187-.56.246-1.365.813-1.678a3.4 3.4 0 0 1 2.283-.343c1.633.32 3.312.477 4.878 1.096.627.246 1.261.455 1.887.694 1.127.44 1.313.939.62 2.036a212 212 0 0 1-3.499 5.317c-.172.254-.5.395-.828.649m24.796 12.388a102 102 0 0 1 .768-4.281c.067-.306.321-.575.5-.851.134-.223.336-.275.582-.149.194.105.403.187.567.328a14.1 14.1 0 0 1 3.342 4.565c.141.298.201.634.268.954.127.612-.336 1.373-.947 1.596-.209.075-.418.157-.642.202-.216.044-.44.044-.925.089-.731-.134-1.723-.306-2.708-.492-.41-.082-.775-.552-.79-.962-.015-.336-.067-.679-.015-.999m-30.107.716a7 7 0 0 1 4.244.686c1.977.992 3.439 2.52 4.663 4.288 1.275 1.842 2.484 3.736 3.677 5.638 1.977 3.14 4.133 6.138 6.781 8.763.075.075.186.194.172.276-.023.202-.06.537-.172.574a4.5 4.5 0 0 1-1.305.239c-2.47 0-4.939-.022-7.408-.03-1.91-.007-3.819.008-5.729-.022-1.231-.022-2.454-.104-3.528-.149-.321-.276-.545-.388-.649-.574-1.977-3.401-3.745-6.877-4.745-10.725-.566-2.193-.365-4.214.433-6.25.634-1.618 1.895-2.468 3.566-2.714m37.88 19.562c-1.328-1.947-2.701-3.878-3.932-5.885-1.887-3.095-3.14-6.436-3.64-10.098.351-.134.657-.335.955-.343 1.015-.03 2.022.023 3.036.023 1.455-.008 2.589-.552 3.32-1.887 1.506-2.752 3.073-5.482 4.595-8.234 3.312-5.996 6.236-12.194 9.369-18.287.201-.395.462-.76.709-1.126.059-.089.186-.127.283-.186.082.141.261.298.239.417-.455 2.663-1.238 5.236-1.999 7.816a13735 13735 0 0 1-10.518 35.522c-.284.963-.679 1.895-1.067 2.82-.045.104-.448.164-.604.089a2.2 2.2 0 0 1-.746-.641M82.234 66.118a104 104 0 0 1 6.915-1.506c4.871-.88 9.758-1.604 14.666-2.275 5.349-.739 10.727-1.193 16.105-1.678 4.924-.455 9.877-.642 14.823-.895 3.483-.18 6.974-.291 10.458-.403.559-.022 1.119.052 1.671.164.149.03.343.336.35.515 0 .32-.067.678-.208.97-2.574 5.496-5.148 11-7.758 16.474-.821 1.723-1.761 3.386-3.044 4.9-1.798.224-3.595.12-5.378 0-4.715-.313-9.437-.62-14.144-.992-2.245-.172-4.483-.448-6.706-.768-4.901-.709-9.779-1.53-14.59-2.707-3.388-.828-6.685-1.97-9.84-3.476-1.425-.679-2.783-1.492-3.931-2.595-.575-.56-1.03-1.186-1.276-1.954-.53-1.611.284-3.371 1.887-3.774m36.978 29.735c-6.856-.776-13.301-1.82-19.716-2.998-7.303-1.35-14.546-2.961-21.61-5.295-3.954-1.306-7.84-2.797-11.414-4.982-1.365-.836-2.566-1.828-3.543-3.095-1.141-1.484-1.201-3.647.306-5.236 1.096-1.163 2.364-2.08 3.767-2.826 2.79-1.485 5.714-2.633 8.743-3.543q.962-.293 1.946-.552c.448-.12.933.202.88.634-.208 1.94.508 3.513 1.836 4.87 1.037 1.052 2.238 1.88 3.528 2.58 2.186 1.194 4.498 2.074 6.855 2.82 4.625 1.454 9.347 2.453 14.122 3.251 4.662.784 9.369 1.231 14.053 1.798 1.895.224 3.82.26 5.729.365 3.148.164 6.296.32 9.437.477.641.038.917.582.582 1.194-1.955 3.55-3.991 7.055-6.259 10.411-.186.276-.41.552-.679.738-.261.18-.619.373-.91.344-2.678-.306-5.348-.657-7.653-.955m-2.38 19.092c1.865-2.543 3.76-5.064 5.334-7.801.276-.485.611-.947.992-1.357 1.686-1.827 3.058-3.893 4.55-5.862 1.097-1.44 2.066-2.938 3.044-4.445 3.177-4.922 6.02-10.038 8.832-15.162 2.387-4.333 4.431-8.845 6.475-13.357 1.014-2.252 2.096-4.482 3.148-6.727.313-.664.828-1.037 1.574-1.067.79-.022 1.574-.037 2.364-.044 5.625-.008 11.257-.015 16.889-.008.776 0 1.559.104 2.342.157.239.015.575.492.545.745-.187 1.455-.716 2.82-1.164 4.207-1.357 4.184-3.252 8.144-4.931 12.194-2.946 7.077-6.743 13.722-10.286 20.494-1.94 3.692-4.372 7.077-6.684 10.545-.746 1.119-1.485 2.253-2.246 3.364-.768 1.104-1.566 2.193-2.349 3.289-.59.828-1.172 1.656-1.761 2.476-.597.82-1.126 1.693-1.813 2.431-.783.85-1.238 1.835-1.626 2.901-.455 1.238-.425 2.439.172 3.588.462.895.962 1.79 1.581 2.58.895 1.149 1.902 2.215 2.88 3.304.447.507.94.97 1.395 1.469.402.433.35.977-.105 1.499-.261.291-.634.373-.88.164-.515-.425-1.044-.85-1.544-1.305-4.67-4.251-9.713-8.01-15.069-11.358-3.64-2.275-7.4-4.281-11.599-5.34-.194-.052-.351-.231-.522-.351-.068-.492.201-.865.462-1.223m-2.357 6.31c-.306-.567-.396-1.261-.507-1.91-.105-.581.634-1.342 1.23-1.335.224 0 .448-.014.672.023 2.432.373 4.789 1.312 7.37 2.931.112.589-.142 1.104-.425 1.566-.91 1.521-1.873 3.02-2.82 4.527-.231.365-.85.403-1.171.089a23.9 23.9 0 0 1-4.349-5.891m2.223 13.32c1.514-2.096 3.066-4.162 4.49-6.317 1.358-2.044 2.678-4.117 3.842-6.235 2.395.94 3.23 1.417 6.58 3.744 4.527 3.139 8.824 6.555 12.621 10.262.231.738-.082 1.096-.343 1.439-1.149 1.522-2.342 3.013-3.484 4.542a85 85 0 0 0-2.342 3.297c-1.962 2.893-2.215 6.048-1.32 9.352.582 2.177 1.313 4.296 2.387 6.287.537.984 1.007 2.006 1.462 3.035.127.276.082.634.127 1.067-1.835.32-3.618.201-5.394.089-.417-.03-.865-.261-1.223-.507-.462-.306-.865-.708-1.268-1.096-2.514-2.432-4.812-5.042-6.706-7.988-1.283-1.984-2.544-3.982-3.887-5.921-1.089-1.567-2.215-3.118-3.454-4.572-1.462-1.723-3.148-3.2-5.438-3.796-.402-.105-.738-.44-1.193-.724 1.29-2.244 3.103-3.96 4.543-5.958m-6.848 9.143c.418-.783 1.178-1.037 1.984-1.029 1.03.015 1.977.38 2.85.917 1.059.641 2.029 1.41 2.804 2.379 1.052 1.313 2.097 2.625 3.059 4.005a116 116 0 0 1 3.521 5.325c1.723 2.767 3.655 5.362 5.975 7.667.388.395.709.858 1.067 1.29.179.209.179.41-.008.612-.074.074-.149.171-.238.186-.329.052-.664.112-1 .112-4.028 0-8.064-.015-12.1-.03-.44 0-.88-.082-1.372-.134-.478-.627-1.007-1.216-1.403-1.88-1.849-3.08-3.468-6.264-4.513-9.725-.574-1.931-1.26-3.818-1.484-5.839-.157-1.395.209-2.655.858-3.856M91.82 259.711c-.201 1.477-.82 1.805-1.977 1.79-3.484-.03-6.967-.112-10.45-.179-.314-.007-.62-.432-.553-.731.045-.216.06-.447.127-.656q2.359-8.088 4.73-16.176c3.192-10.896 6.392-21.792 9.578-32.688 2.939-10.031 5.848-20.07 8.794-30.093a5625 5625 0 0 1 6.707-22.635c.119-.425.328-.828.514-1.231.045-.089.172-.156.276-.186.075-.022.209 0 .261.052.142.164.299.336.381.537 1.111 2.461 2.432 4.818 3.819 7.13.157.276.209.619.314.955-.351.462-.649.947-1.037 1.342-.992 1.022-1.455 2.305-1.634 3.639-.179 1.328-.164 2.693-.104 4.035.029.522.328 1.082.626 1.537.373.574.925.977 1.671.999.448.015.903.015 1.335.112.157.03.388.32.381.485-.023.551-.075 1.126-.231 1.655-2.305 7.876-4.625 15.744-6.945 23.62l-2.283 7.763a22 22 0 0 1-.515 1.604c-.164.44-.462.775-.962.828-.448.044-.895.074-1.343.067-1.223-.015-2.178.552-2.961 1.402-.925.992-1.604 2.118-1.925 3.498-.335 1.446-.373 2.893-.298 4.355.015.328.112.671.239.977.41.977.984 1.76 2.193 1.812.306.008.611.194.992.328-.075.485-.09.933-.209 1.35a4199 4199 0 0 1-4.64 15.863c-1.53 5.176-3.073 10.344-4.603 15.52a9 9 0 0 0-.268 1.32m61.661 1.216c-.157.44-.53.761-.999.805-.784.068-1.574.09-2.358.082-8.653-.052-17.306-.134-25.959-.178-8.318-.038-16.635-.03-24.953-.053-1.685 0-3.371-.059-5.057-.104-.575-.022-.948-.589-.813-1.201.074-.328.171-.656.26-.977.784-2.811 1.552-5.631 2.373-8.427a6106 6106 0 0 1 6.766-22.941c.224-.753.492-1.492.768-2.312 1-.462 1.79-.365 2.574-.358 4.043 0 8.093.037 12.137.052 11.801.045 23.609.09 35.41.142 2.134.008 4.275.045 6.408.104.895.023 1.79.12 2.678.209.567.052.903.642.746 1.246-.082.328-.179.649-.276.969-3.014 10.233-6.02 20.465-9.034 30.69-.223.753-.41 1.514-.671 2.252m43.02-37.431c-1.522-2.998-3.178-5.922-4.752-8.89-.366-.686-.664-1.417-.985-2.126-.112-.268.142-.716.433-.775.656-.12 1.32-.239 1.984-.336 3.014-.44 5.923-1.201 8.623-2.663.187-.096.403-.149.605-.223.201.089.492.119.582.276.693 1.268 1.424 2.535 2.014 3.855 1.193 2.655 2.424 5.288 3.856 7.831.284.507.097 1.067-.425 1.447-2.298 1.678-4.849 2.752-7.594 3.476-3.021.79-2.917.947-4.341-1.872m19.805-31.212c1.201-2.655 3.252-4.243 6.102-4.773.947-.172 1.798.246 2.454.895.47.462.895 1.029 1.164 1.633.365.813.723 1.678.813 2.558.246 2.35.418 4.729-.09 7.056-.76 3.512-1.678 6.988-2.521 10.485-.186.769-.455 1.492-.925 2.163-.888-.939-1.082-1.961-.88-3.162.47-2.767.791-5.556 1.44-8.301.387-1.633.611-3.311.805-4.989.149-1.253-.239-2.439-.85-3.55-.866-1.559-2.969-1.969-4.349-.776-.843.731-1.604 1.552-2.402 2.335-.754-.537-1.007-1.029-.761-1.574m5.132 12.611a2 2 0 0 1-.253.612c-.038.075-.172.112-.269.119a.54.54 0 0 1-.306-.044c-.097-.045-.224-.127-.253-.217-.925-2.744-1.843-5.496-2.708-8.077.291-1.32.887-2.274 1.536-3.184.455-.634 1.022-1.179 1.761-1.507.343-.149.962-.022 1.238.254.507.5.754 1.096.791 1.797.097 1.574-.12 3.125-.418 4.661a627 627 0 0 1-1.119 5.586m-9.347-15.035c.291-.373.597-.626 1.224-.492.701 2.066 1.454 4.176 2.148 6.309 1.216 3.737 2.395 7.481 3.588 11.225.075.216.134.432.239.634 1.716 3.177 2.573 6.704 3.946 10.016.127.313.209.641.343.954.888 1.999.582 3.931-.283 5.855a14.3 14.3 0 0 1-3.85 5.064c-3.379 2.826-7.228 4.504-11.741 4.333-1.358-.052-2.648-.358-3.946-.776-2.521-.805-3.797-2.625-4.446-5.027-.03-.097.03-.216.067-.44.903-.29 1.858-.611 2.82-.895a34.5 34.5 0 0 0 5.035-1.924c.903-.425 1.761-.977 2.603-1.529.799-.522 1.142-1.745.821-2.707a6 6 0 0 0-.425-.91c-1.358-2.461-2.626-4.959-3.708-7.555-.596-1.454-1.342-2.848-2.066-4.243-.201-.38-.53-.724-.858-1.014-.35-.314-.835-.381-1.268-.232-.418.15-.791.418-1.179.642-3.394 1.969-7.101 2.707-10.98 2.744-.485.008-.85-.268-1.074-.686a1520 1520 0 0 1-3.208-5.929c-.224-.418.082-.94.537-.977.112-.007.224-.022.336-.022 3.67.067 7.124-.925 10.496-2.2 3.058-1.156 5.922-2.723 8.63-4.55 2.343-1.588 4.469-3.408 6.199-5.668m-20.902 9.382c.075-.201.217-.387.366-.559 3.357-3.953 7.586-6.585 12.517-8.107.843-.261 1.746-.313 2.305-.41.56.104.776.142 1 .179.507.082.887.955.567 1.328-.291.335-.567.701-.91.969-4.588 3.528-9.653 6.093-15.315 7.398-.179.038-.492-.052-.582-.186s-.022-.418.052-.612m12.458-14.207c1.41-.358 2.864-.522 3.946-.716a8.7 8.7 0 0 1 3.305.597c.432.171.94.895.902 1.327-.089 1.29-.634 2.357-1.611 3.192-.142.127-.477.216-.619.142-2.618-1.484-5.214-.865-7.773.112-3.596 1.372-6.788 3.438-9.623 6.041-1.328 1.215-2.417 2.64-3.387 4.154-.328.507-.857.76-1.447.678a17 17 0 0 1-2.29-.477c-.559-.157-1.007-1.066-.932-1.648a5.24 5.24 0 0 1 1.439-2.976c1.075-1.141 2.164-2.289 3.395-3.251 4.386-3.416 9.309-5.803 14.695-7.175m8.534-74.818c-3.096 10.337-6.087 20.711-9.131 31.062-2.969 10.143-5.938 20.286-8.914 30.421-1.678 5.713-3.387 11.426-5.043 17.146-.298 1.022-.79 1.835-1.633 2.476-.627.477-1.224.999-1.761 1.574a25 25 0 0 0-1.962 2.312c-1.469 1.976-1.745 4.079-.589 6.331.455.895 1.208 1.753 1.171 2.76-.045 1.096-.41 2.2-.723 3.266-2.126 7.227-4.29 14.439-6.408 21.666-2.149 7.338-4.237 14.692-6.378 22.023-.91 3.132-1.887 6.242-2.85 9.36-.306.984-.626 1.201-1.738 1.215-1.574.015-3.148.008-4.729.008v-.082c-1.686 0-3.372.015-5.058-.008-.649-.007-1.044-.492-.962-1.096.059-.44.112-.895.231-1.32a946 946 0 0 1 2.23-7.779c1.664-5.72 3.32-11.44 5.006-17.145.895-3.021 1.865-6.012 2.782-9.025.329-1.066.567-2.162.881-3.244 1.656-5.713 3.327-11.425 4.99-17.138 1.626-5.608 3.238-11.232 4.886-16.84 2.693-9.166 5.416-18.324 8.116-27.49 3.529-11.963 7.072-23.925 10.548-35.91 1.41-4.855 2.685-9.755 3.969-14.648.29-1.096.663-2.14 1.126-3.162 2.618-5.727 4.968-11.567 7.288-17.422 2.066-5.228 4.23-10.418 6.326-15.631 1.26-3.133 2.476-6.272 3.715-9.412q.369-.942.76-1.872c.194-.477.612-.627 1.067-.701.224-.038.455-.052.672-.023 1.671.217 3.342.448 5.012.68.359.051.754.67.657 1.043-.366 1.41-.709 2.827-1.119 4.229-1.164 3.99-2.365 7.972-3.514 11.97-.529 1.834-.977 3.691-1.462 5.541-.141.544-.261 1.096-.447 1.626-2.678 7.644-4.7 15.483-7.012 23.239m34.635 35.179c-.373.067-.649-.089-.903-.291-2.029-1.603-4.05-3.199-6.065-4.81-5.945-4.781-11.883-9.554-17.821-14.342-.604-.492-1.148-1.051-1.693-1.544-.753-3.386-.791-6.742-.813-10.105 0-.172.179-.418.336-.492.171-.075.44-.045.611.044.299.142.567.351.836.56 7.78 6.07 15.561 12.141 23.334 18.219.529.411 1.029.866 1.484 1.35.216.232.403.575.425.88.254 3.245.47 6.489.694 9.733.03.44-.179.753-.425.798m25.109-34.858c.119.305.149.656.149.991.022 3.155.007 6.302.052 9.457.015 1.089-.365 1.962-1.119 2.715-2.133 2.163-4.267 4.333-6.4 6.488q-6.411 6.487-12.823 12.962c-.709.716-1.41 1.425-2.201 2.006-.253-.268-.47-.402-.514-.581-.165-.657-.336-1.313-.373-1.984-.165-2.469-.269-4.945-.426-7.413-.082-1.32.314-2.342 1.291-3.304 5.908-5.877 11.749-11.814 17.619-17.728 1.112-1.118 2.209-2.245 3.335-3.348.231-.224.544-.396.858-.493.149-.044.492.097.552.232m-2.141-3.655c.089.067.179.142.268.209.731.574.806 1.037.209 1.648a518 518 0 0 1-4.006 4.11c-5.542 5.6-11.077 11.201-16.627 16.787-.865.873-1.634 1.865-2.85 2.491-.365-.209-.775-.387-1.118-.656a26552 26552 0 0 1-24.199-18.921c-.351-.276-.672-.589-1-.895-.201-.186-.239-.723-.045-.925.694-.73 1.365-1.499 2.119-2.162 3.543-3.125 7.101-6.228 10.674-9.323 3.566-3.095 7.154-6.167 10.735-9.255.171-.142.335-.298.529-.418.396-.238.836-.35 1.269-.112.395.217.783.448 1.141.709q11.457 8.356 22.901 16.713m17.344-22.023c-.575.678-1.321 1.216-2.044 1.738-2.216 1.588-4.7 2.662-7.251 3.557a83 83 0 0 1-10.048 2.879c-2.745.589-5.491 1.186-8.236 1.767-.44.09-.895.112-1.335.202-1.179.253-2.171-.015-3.148-.754-2.693-2.028-5.453-3.975-8.183-5.959-.269-.2-.537-.402-.828-.581-.5-.313-1.447-.261-1.925.112-.35.276-.671.589-1.014.88q-5.36 4.629-10.72 9.27c-.537.462-1.126.723-1.85.641-1.797-.216-3.588.067-5.378.18-2.245.141-4.491.238-6.736.335-.612.022-1.052-.492-.977-1.081.044-.336.059-.68.149-1 .127-.425.336-.835.477-1.26.508-1.604 1-3.215 1.507-4.818.478-1.5.977-2.99 1.552-4.75.798-.068 1.35-.15 1.902-.165 2.693-.082 5.393-.164 8.094-.201 3.603-.052 7.183-.358 10.756-.843 2.671-.365 5.356-.634 8.042-.91 3.469-.35 6.885-1.022 10.294-1.752.88-.194 1.798-.21 2.656-.44 2.723-.724 5.371-1.678 7.788-3.155a9.6 9.6 0 0 0 1.611-1.223c1.164-1.119 2.044-2.387 1.969-4.124-.015-.314.142-.627.217-.918.283 0 .514-.052.708.008 3.103 1.036 6.095 2.319 8.862 4.072 1.246.783 2.432 1.655 3.305 2.849 1.44 1.969 1.611 3.31-.216 5.444"/>
    <path fill="#1e1c1c" d="M161.717 164.6c-.022.201-.06.537-.171.574a4.6 4.6 0 0 1-1.306.239c-2.469 0-4.938-.022-7.407-.03-1.91-.007-3.82.008-5.729-.022-1.231-.023-2.454-.105-3.529-.149-.32-.276-.544-.388-.649-.575-1.976-3.4-3.744-6.876-4.744-10.724-.567-2.193-.365-4.214.433-6.25.634-1.618 1.894-2.468 3.565-2.715a7 7 0 0 1 4.245.687c1.977.991 3.439 2.52 4.662 4.288 1.276 1.842 2.484 3.736 3.678 5.638 1.977 3.14 4.132 6.138 6.781 8.763.074.075.186.194.171.276M63.39 221.124c-.5 2.64-1.051 5.28-1.551 7.921-1.425 7.495-2.835 14.998-4.252 22.493-.291 1.544-.56 3.087-.858 4.631-.067.328-.194.642-.298.955-.135.388-.784.664-1.112.455-.477-.291-.977-.567-1.41-.918a421 421 0 0 1-5.684-4.758 4652 4652 0 0 1-13.017-11.217c-.76-.656-1.574-1.267-2.156-2.259.321-.328.575-.701.925-.925 1.619-1.014 3.26-1.991 4.894-2.976 6.833-4.109 13.666-8.226 20.506-12.328 1.06-.634 2.149-1.201 3.245-1.767.15-.082.47-.03.59.082.134.134.216.417.178.611m145.047.768c-2.298 1.678-4.849 2.752-7.594 3.476-3.021.79-2.917.947-4.342-1.872-1.522-2.998-3.178-5.922-4.752-8.89-.365-.686-.663-1.417-.984-2.126-.112-.268.142-.716.432-.775.657-.12 1.321-.239 1.985-.336 3.013-.44 5.923-1.201 8.623-2.662.187-.097.403-.15.604-.224.202.089.493.119.582.276.694 1.268 1.425 2.536 2.014 3.856 1.194 2.655 2.425 5.287 3.857 7.83.283.508.097 1.067-.425 1.447m-.493-30.219c-.291.335-.567.701-.91.969-4.587 3.528-9.652 6.093-15.314 7.399-.179.037-.493-.053-.582-.187-.09-.134-.023-.418.052-.611.075-.202.216-.388.366-.56 3.356-3.952 7.586-6.585 12.517-8.107.843-.261 1.745-.313 2.305-.41.559.105.776.142.999.179.508.082.888.955.567 1.328m64.182-70.686c.015 1.089-.365 1.961-1.119 2.714-2.133 2.163-4.267 4.334-6.4 6.489q-6.412 6.486-12.823 12.962c-.709.716-1.41 1.424-2.201 2.006-.253-.269-.47-.403-.515-.582-.164-.656-.335-1.312-.373-1.984-.164-2.468-.268-4.944-.425-7.413-.082-1.32.314-2.342 1.291-3.304 5.908-5.876 11.749-11.813 17.619-17.727 1.112-1.119 2.208-2.245 3.335-3.349.231-.224.544-.395.858-.492.149-.045.492.097.552.231.119.306.149.657.149.992.022 3.155.007 6.302.052 9.457m-94.76 25.408c-.209.075-.418.157-.641.202-.217.045-.441.045-.925.089-.731-.134-1.724-.305-2.708-.492-.411-.082-.776-.552-.791-.962-.015-.336-.067-.679-.015-.999.231-1.432.478-2.864.768-4.281.068-.306.321-.574.5-.85.135-.224.336-.276.582-.15.194.105.403.187.567.329a14 14 0 0 1 3.342 4.564c.142.298.201.634.268.954.127.612-.335 1.373-.947 1.596m-46.264 18.489c-.074.074-.149.171-.239.186-.328.052-.663.112-.999.112-4.028 0-8.064-.015-12.1-.03-.44 0-.88-.082-1.372-.134-.478-.627-1.007-1.216-1.403-1.879-1.85-3.081-3.468-6.265-4.513-9.726-.574-1.931-1.26-3.818-1.484-5.839-.157-1.395.209-2.655.858-3.856.417-.783 1.178-1.037 1.984-1.029 1.029.015 1.977.38 2.85.917 1.059.642 2.029 1.41 2.804 2.379 1.052 1.313 2.097 2.625 3.059 4.005a116 116 0 0 1 3.521 5.325c1.723 2.767 3.655 5.362 5.975 7.667.388.395.709.858 1.067 1.29.179.209.179.41-.008.612m-8.288-42.354c-.91 1.521-1.872 3.02-2.819 4.527-.232.365-.851.403-1.172.089a23.9 23.9 0 0 1-4.349-5.891c-.305-.567-.395-1.261-.507-1.91-.104-.581.634-1.342 1.231-1.334.224 0 .448-.015.671.022 2.432.373 4.789 1.312 7.371 2.931.111.589-.142 1.104-.426 1.566m29.004 3.349a212 212 0 0 1-3.499 5.317c-.171.254-.5.396-.828.649-2.32-1.827-4.237-3.96-5.662-6.526-.216-.387-.35-.82-.492-1.245-.187-.559.246-1.365.813-1.678a3.4 3.4 0 0 1 2.283-.343c1.633.321 3.312.477 4.878 1.096.627.246 1.261.455 1.888.694 1.126.44 1.312.939.619 2.036m120.824-51.952c.03.306-.135.649-.261.954-.47 1.074-1.328 1.79-2.276 2.417-2.096 1.387-4.423 2.192-6.833 2.782a123 123 0 0 1-15.583 2.76c-4.237.476-8.474 1.036-12.741 1.237-3.812.172-7.638.187-11.458.261a2.7 2.7 0 0 1-.977-.179c-.171-.067-.395-.313-.388-.47.037-.67.067-1.35.239-1.991 1.365-4.974 2.738-9.949 4.147-14.916.336-1.186.821-2.327 1.269-3.58.567-.06 1.126-.223 1.656-.164 3.013.343 6.027.679 9.026 1.119 3.439.5 6.878 1.066 10.301 1.678 7.08 1.253 14.107 2.76 20.999 4.84a7.5 7.5 0 0 1 1.253.478c1.104.581 1.522 1.61 1.627 2.774M147.222 60.04c0 .321-.067.679-.209.97-2.574 5.496-5.147 11-7.758 16.474-.821 1.723-1.76 3.386-3.043 4.9-1.798.224-3.596.12-5.379 0-4.714-.313-9.436-.619-14.143-.992-2.246-.171-4.484-.447-6.706-.768-4.901-.708-9.78-1.529-14.591-2.707-3.387-.828-6.684-1.969-9.84-3.475-1.424-.68-2.782-1.492-3.93-2.596-.575-.56-1.03-1.186-1.276-1.954-.53-1.61.283-3.37 1.887-3.773a104 104 0 0 1 6.915-1.507c4.871-.88 9.757-1.603 14.665-2.275 5.349-.738 10.727-1.193 16.106-1.678 4.923-.455 9.876-.641 14.822-.895 3.484-.179 6.975-.29 10.458-.402.56-.023 1.119.052 1.671.164.15.03.343.335.351.514m-48.546 87.84a47 47 0 0 0-2.059-1.753q-10.876-8.817-21.775-17.623a631 631 0 0 0-5.535-4.415 3.7 3.7 0 0 0-1.842-.768c-1.336-.179-2.67-.418-4.006-.604a2790 2790 0 0 0-13.688-1.925c-.657-.089-1.343-.082-2.007-.059-.455.022-.865.238-1.104.664-.172.29-.358.581-.47.895-1.805 4.773-2.924 9.68-2.976 15.602-.12 1.469.238 3.691.693 5.899 1.007 4.877 3.156 9.143 6.998 12.395 2.32 1.961 4.878 3.602 7.69 4.825 2.178.955 4.431 1.723 6.781 1.969 2.894.298 5.789.992 8.713.216 2.633 0 5.125-.731 7.594-1.484 4.908-1.499 9.28-4.012 13.24-7.249 1.493-1.216 2.738-2.662 3.91-4.176.656-.858.604-1.731-.157-2.409m-45.892-24.873c.008-.059.202-.141.291-.126q3.511.47 7.012.962c0-.015.008-.03.008-.038 2.11.306 4.222.649 6.34.903 1.052.134 1.91.567 2.716 1.223 3.483 2.849 6.99 5.668 10.488 8.495 4.371 3.535 8.758 7.055 13.114 10.605.962.775 1.857 1.626 2.752 2.476.112.104.068.403.045.611-.007.068-.149.127-.239.172a.9.9 0 0 1-.313.112c-3.476.313-6.945.626-10.436.626-.723 0-1.29-.276-1.835-.723-1.551-1.298-3.125-2.566-4.692-3.856q-12.129-9.945-24.259-19.913a6.3 6.3 0 0 1-.947-.939c-.104-.127-.067-.396-.045-.59M49.1 151.974c-2.059-2.782-3.177-5.944-3.79-9.292-.32-1.768-.387-3.573-.544-5.035.276-5.198.992-9.963 2.932-14.468.26-.604.85-.768 1.357-.388.09.067.187.127.269.194.18.142.343.298.515.44 7.392 6.071 14.785 12.149 22.177 18.22 3.044 2.498 6.095 4.989 9.13 7.495.351.284.657.612.978.925.186.179.164.738-.03.925-2.394 2.252-5.125 4.005-8.064 5.466a24.8 24.8 0 0 1-8.377 2.484c-6.773.738-12.405-1.387-16.553-6.966m46.996-.925c-.067.202-.224.388-.373.552-.306.328-.612.657-.955.947-5.796 4.87-12.338 8.107-19.902 9.092-2.67.35-5.371.35-8.057.029-.775-.089-1.551-.208-2.424-1.044 6.326-.514 11.57-2.893 16.344-6.413a33 33 0 0 0 3.096-2.581c.776-.738 1.581-1.141 2.678-1.163 3.028-.067 6.05-.239 9.078-.336.172 0 .425.157.522.321.09.149.06.417-.007.596"/>
    <path fill="#1e1c1c" d="M96.094 151.049c-.067.202-.224.388-.373.552-.306.328-.612.657-.955.947-5.796 4.87-12.338 8.107-19.902 9.092-2.67.35-5.37.35-8.056.03-.776-.09-1.552-.209-2.425-1.045 6.326-.514 11.57-2.893 16.344-6.413a33 33 0 0 0 3.096-2.581c.776-.738 1.582-1.141 2.678-1.163 3.029-.067 6.05-.239 9.078-.336.172 0 .426.157.523.321.09.149.06.417-.008.596"/>
</svg>
