<svg xmlns="http://www.w3.org/2000/svg" width="175" height="139" fill="none" viewBox="0 0 175 139">
    <path fill="#000" d="M174.375 15.114c-.272-.533-.609-1.062-1.027-1.484-.588-.584-1.232-1.142-1.937-1.57a33 33 0 0 0-3.613-1.928c-2.35-1.051-4.77-1.937-7.271-2.57-1.983-.5-3.966-1.033-5.964-1.47a230 230 0 0 0-8.252-1.671c-2.315-.423-4.645-.74-6.97-1.082-2.627-.387-5.258-.73-7.9-1.001-2.562-.262-5.123-.534-7.689-.8-3.397-.358-6.809-.473-10.211-.8-2.943-.282-5.912-.363-8.866-.458a396 396 0 0 0-10.93-.252c-7.976-.05-15.947-.096-23.908.463-.226.015-.458.005-.684.01-1.822.075-3.648.07-5.46.257-1.736.18-3.472.342-5.218.417a11 11 0 0 0-.906.08c-2.265.242-4.529.474-6.788.73-1.737.197-3.478.363-5.194.65-3.663.619-7.337 1.187-10.955 2.078-2.652.66-5.298 1.328-7.84 2.355-1.263.508-2.52 1.052-3.673 1.801-.765.499-1.515 1.017-2.124 1.701-1.348 1.52-1.52 3.326-.271 4.982.412.549.89 1.027 1.439 1.444 1.52 1.168 3.21 2.018 4.951 2.778 3.422 1.49 7.015 2.466 10.623 3.367 6.336 1.585 12.772 2.652 19.243 3.522 2.255.302 4.509.579 6.763.87.307.04.433.383.247.69-.64 1.032-1.248 2.078-2.088 2.974-.78.835-1.4 1.787-1.998 2.763a38 38 0 0 1-1.923 2.818 115 115 0 0 1-2.656 3.416c-.514.645-.66 1.329-.398 2.124a10.6 10.6 0 0 0 1.842 3.382c.619.77 1.248 1.53 1.867 2.3a.7.7 0 0 1 .045.84c-.996 1.429-1.983 2.868-3.105 4.212-1.112 1.328-2.194 2.687-3.084 4.196-.82 1.39-1.108 2.808-.81 4.363.185.962.432 1.918.663 2.929-.14.538-.281 1.132-.452 1.711-2.245 7.644-4.5 15.283-6.738 22.926-1.903 6.477-3.775 12.963-5.672 19.44a7939 7939 0 0 1-5.555 18.769 1132 1132 0 0 1-2.41 8.067c-.177.579-.408 1.142-.64 1.701a.51.51 0 0 1-.352.256c-1.208.167-2.42.121-3.628.016-.156-.016-.408-.343-.392-.499.015-.146-.01-.302.02-.447.996-4.675 1.997-9.345 2.994-14.02q.972-4.568 1.937-9.128c.176-.831.066-1.112-.639-1.495q-3.005-1.623-6.018-3.23c-.338-.177-.68-.333-1.027-.489-.664-.291-1.283-.286-1.942.116-6.044 3.648-12.098 7.272-18.151 10.91a257 257 0 0 0-3.306 2.008c-.403.251-.504 1.087-.187 1.439.202.226.413.438.644.639 3.085 2.697 6.16 5.404 9.27 8.077 2.018 1.731 4.09 3.391 6.124 5.097.659.554 1.368.896 2.24 1.017a96 96 0 0 1 5.615.915c.825.166 1.64.257 2.48.262 3.569.03 7.131.091 10.7.096 17.164.04 34.328.065 51.488.261 4.63.056 9.264.036 13.899.041a8 8 0 0 0 1.338-.136c.111-.02.212-.197.282-.322.076-.131-.156-.493-.317-.509-.523-.05-1.052-.125-1.575-.13-2.128-.021-4.252-.01-6.38-.021-.61 0-1.213-.01-1.822-.03-.488-.02-.72-.276-.6-.709q.566-2.085 1.168-4.162c2.386-8.152 4.78-16.304 7.171-24.456.679-2.33 1.369-4.66 2.053-6.985.061-.216.131-.417.383-.503.181-.06.387.015.538.297q.641 1.206 1.258 2.42c.695 1.354 1.364 2.713 2.068 4.061.951 1.812 1.928 3.614 2.889 5.425.674 1.273 1.353 2.546 2.003 3.835.468.925 1.217 1.635 2.113 1.987 1.329.529 2.717.956 4.192.961 2.425.005 4.629-.734 6.683-1.957 1.726-1.022 3.155-2.385 4.161-4.131.931-1.621 1.51-3.307.735-5.204-.408-1.006-.403-2.078-.166-3.14.08-.372.146-.745.236-1.112.584-2.435 1.138-4.876 1.767-7.296.568-2.18.548-4.368.216-6.557-.201-1.304-.785-2.446-1.832-3.311a2.65 2.65 0 0 0-1.67-.635c-1.263-.035-2.396.307-3.372 1.133-.518.438-1.047.875-1.59 1.283-.06.045-.342-.045-.383-.136-.327-.765-.649-1.535-.91-2.325-.237-.694-.71-1.162-1.294-1.53a3.6 3.6 0 0 0-1.716-.553c-1.142-.076-2.274-.015-3.396.251a28.8 28.8 0 0 0-7.216 2.738 12 12 0 0 1-1.228.553c-.151.066-.267-.04-.307-.231-.086-.387.04-.74.151-1.102l4.433-15.061c.815-2.763 1.641-5.526 2.451-8.293q2.837-9.716 5.681-19.44c1.364-4.66 2.738-9.314 4.111-13.974.121-.412.418-.629.826-.659 2.199-.166 4.393-.317 6.587-.468.151-.01.312-.01.453.025a.84.84 0 0 1 .357.212c.121.125.09.276-.04.407-.272.262-.534.534-.816.79-1.856 1.676-3.708 3.367-5.585 5.022-.614.544-.916 1.138-.841 1.983.171 1.892.227 3.79.403 5.676.297 3.135-.126 2.42 2.259 4.358 5.541 4.504 11.121 8.957 16.682 13.426.176.146.362.282.548.407.343.227.972.202 1.289-.075.397-.347.785-.715 1.157-1.087 3.85-3.885 7.689-7.775 11.534-11.66.905-.92 1.766-1.886 2.712-2.767.835-.775 1.263-1.64 1.188-2.808-.071-1.137-.01-2.28-.015-3.417q-.017-2.61-.041-5.243c-.422-.398-.775-.795-1.197-1.107-1.586-1.178-3.191-2.32-4.791-3.483l-3.306-2.415c-.262-.196-.408-.438-.312-.77 2.37-.528 4.75-1.011 7.105-1.59 3.025-.745 5.989-1.666 8.801-3.045a16.5 16.5 0 0 0 3.065-1.947 4.9 4.9 0 0 0 1.389-1.781c.443-.951.493-1.923.01-2.859M17.357 134.05c-.045.221-.13.433-.201.644-.09.262-.529.448-.75.307-.322-.196-.66-.382-.951-.619-1.283-1.062-2.566-2.123-3.835-3.21-2.933-2.516-5.857-5.043-8.78-7.569-.514-.443-1.062-.855-1.455-1.524.216-.222.387-.473.624-.624 1.092-.685 2.199-1.344 3.301-2.008 4.61-2.773 9.219-5.551 13.833-8.318.715-.428 1.45-.811 2.19-1.193.1-.055.317-.02.397.055.09.091.146.282.12.413-.336 1.781-.709 3.563-1.046 5.344-.961 5.057-1.912 10.12-2.868 15.177-.197 1.042-.378 2.083-.579 3.125m8.011 2.717c-.065.247-.438.514-.69.483a51 51 0 0 1-1.796-.231 564 564 0 0 1-4.046-.599c-.533-.08-.744-.397-.674-.971.025-.226.046-.453.086-.674.397-2.079.79-4.162 1.192-6.24.715-3.714 1.475-7.418 2.134-11.141.382-2.159.775-4.318 1.228-6.462.126-.593.226-1.187.619-1.685.075 0 .156-.026.216.005q3.111 1.621 6.215 3.265c.357.192.548.549.468.957a241 241 0 0 1-.86 4.222q-1.751 8.326-3.508 16.646c-.171.815-.383 1.62-.584 2.425M131.89 6.263c.226-.8.553-1.57.855-2.416.383-.04.76-.15 1.117-.11 2.033.231 4.066.458 6.089.754 2.32.338 4.64.72 6.95 1.133 4.775.845 9.515 1.862 14.165 3.266.287.085.579.186.845.322.745.392 1.027 1.087 1.097 1.872.021.206-.09.437-.176.644-.317.724-.895 1.207-1.535 1.63-1.414.936-2.984 1.48-4.609 1.877a83 83 0 0 1-10.512 1.862c-2.858.322-5.717.7-8.595.835-2.571.116-5.153.126-7.729.176-.222 0-.453-.04-.66-.12-.115-.046-.266-.212-.261-.317.025-.453.045-.911.161-1.344.921-3.356 1.847-6.713 2.798-10.064M97.071 1.648c.096-.17.317-.297.503-.397.126-.066.297-.06.448-.06 1.746.04 3.493.075 5.234.135 1.972.066 3.945.136 5.913.232 1.061.05 2.118.16 3.18.231 3.256.212 6.511.363 9.762.69a46 46 0 0 1 2.481.317c.196.03.377.2.604.327-.171.533-.307 1.046-.503 1.54a1218 1218 0 0 1-3.181 8.036 1393 1393 0 0 1-3.819 9.496c-1.802 4.423-3.593 8.856-5.681 13.159-.695 1.429-1.485 2.818-2.204 4.237-1.369 2.707-2.678 5.444-4.076 8.137-1.651 3.16-3.372 6.285-5.063 9.42-.151.282-.589.322-.765.09-.045-.06-.095-.115-.136-.18-1.192-1.878-2.737-3.448-4.428-4.867-3.855-3.23-8.051-5.938-12.701-7.905-2.828-1.198-3.26-1.339-6.773-1.933.03-.211-.005-.473.106-.629.794-1.112 1.439-2.325 2.375-3.336a8 8 0 0 0 .679-.91c1.63-2.472 3.276-4.927 4.866-7.423.856-1.344 1.62-2.743 2.395-4.132.735-1.328 1.39-2.697 2.15-4.01 1.75-3.03 3.084-6.255 4.508-9.44.926-2.074 1.902-4.132 2.602-6.306.372-1.152.74-2.31 1.117-3.457.115-.362.226-.73.407-1.062M57.197 112.22c-3.11-.026-6.22-.121-9.33-.192-.297-.005-.614-.03-.89-.136-.187-.065-.418-.266-.449-.442-.276-1.374-.186-2.718.468-3.981.332-.649.886-1.041 1.62-1.107.605-.05 1.208-.065 1.817-.065q6.597.024 13.195.055c6.677.025 13.35.055 20.028.086 2.123.01 4.247 0 6.37.02.378 0 .75.07 1.122.121.172.02.373.347.323.523-.252.951-.453 1.922-.776 2.853-.91 2.637-.301 2.38-3.235 2.38-6.37-.005-12.742 0-19.112 0v-.105c-3.719 0-7.438.025-11.151-.01m32.729-6.809c-6.22-.03-12.445-.055-18.665-.106-5.917-.045-11.83-.12-17.748-.186-.227 0-.453.005-.684 0-1.324-.03-1.48-.221-1.117-1.464q2.718-9.269 5.444-18.544c.277-.94.529-1.897.83-2.833.489-1.504.423-1.565 2.019-1.575 1.514-.01 3.034-.015 4.548-.005 3.87.036 7.74.106 11.61.126 6.37.03 12.746.025 19.122.045 1.062.005 2.118.076 3.18.126.282.015.503.357.448.664-.055.302-.1.6-.186.891a16961 16961 0 0 1-6.27 21.387c-.131.432-.322.845-.539 1.419-.785.02-1.389.055-1.992.055m8.76-25.558c-.301.01-.603.01-.91.01-10.784-.08-21.568-.151-32.347-.237-2.813-.02-5.62-.07-8.429-.11-.302 0-.609-.03-.91-.056-.262-.025-.524-.297-.594-.603-.015-.076-.05-.147-.06-.222-.182-1.152.014-2.275.407-3.351.277-.755.82-1.284 1.655-1.394.6-.08 1.203-.156 1.807-.151 3.185.01 6.376.055 9.566.075q14.348.082 28.703.156c.911.01 1.822.01 2.733.046.206.005.408.135.684.236-.11.614-.176 1.218-.332 1.791a54 54 0 0 1-.946 3.045c-.156.458-.513.745-1.026.765m-16.042-33.56c.04-.065.096-.12.136-.18.176-.252.538-.373.8-.257.347.15.695.302 1.032.468 3.613 1.791 6.934 4.025 10.019 6.622.115.096.231.196.337.307.282.297.377.654.216 1.036-.508 1.203-.654 2.481-.82 3.76-.292 2.224-.04 4.383.66 6.496.643 1.953 1.499 3.794 2.732 5.455.538.73.98 1.53 1.444 2.31.04.07-.066.322-.166.372-.192.1-.428.161-.65.166-1.132.015-2.269 0-3.406 0v-.01c-1.137 0-2.275-.015-3.407.005a2.52 2.52 0 0 1-1.852-.73c-.815-.79-1.67-1.55-2.385-2.425-.91-1.107-1.721-2.3-2.536-3.487-1.067-1.56-2.094-3.15-3.135-4.73-.508-.77-1.147-1.415-1.867-1.973-1.218-.941-2.536-1.65-4.157-1.57-.196.01-.407-.106-.593-.201-.167-.086-.066-.428.226-.806 2.632-3.426 5.133-6.939 7.372-10.633zm-4.06 3.87c-1.566-1.233-2.86-2.672-3.82-4.403-.146-.262-.237-.553-.332-.84-.126-.378.166-.921.548-1.133a2.3 2.3 0 0 1 1.54-.231c1.102.216 2.234.322 3.291.74.423.166.85.307 1.273.468.76.297.886.634.418 1.374a142 142 0 0 1-2.36 3.587c-.116.172-.337.267-.559.438m16.726 8.359c.156-.967.322-1.933.518-2.889.046-.206.217-.387.337-.574.091-.15.227-.186.393-.1.13.07.272.126.382.221a9.5 9.5 0 0 1 2.255 3.08c.095.201.136.428.18.644.087.413-.225.926-.638 1.077-.141.05-.282.106-.433.136-.146.03-.297.03-.624.06-.493-.09-1.162-.206-1.827-.332-.276-.055-.523-.372-.533-.65-.01-.226-.045-.457-.01-.673M75 59.005a4.7 4.7 0 0 1 2.864.463c1.333.669 2.32 1.7 3.145 2.893.86 1.243 1.675 2.521 2.48 3.804 1.334 2.119 2.788 4.142 4.575 5.913.05.05.126.131.115.186-.015.136-.04.363-.115.388-.282.09-.584.156-.88.16-1.667 0-3.332-.014-4.998-.02-1.288-.004-2.576.006-3.865-.014-.83-.015-1.655-.07-2.38-.101-.216-.186-.367-.262-.437-.388-1.334-2.294-2.527-4.64-3.201-7.236-.382-1.48-.247-2.843.292-4.217.428-1.092 1.278-1.665 2.405-1.831m25.553 13.199c-.895-1.313-1.821-2.617-2.651-3.97-1.274-2.089-2.119-4.343-2.456-6.814.236-.09.443-.226.644-.231.684-.02 1.364.015 2.048.015.981-.005 1.746-.373 2.239-1.273 1.017-1.857 2.074-3.699 3.1-5.556 2.234-4.046 4.207-8.227 6.321-12.339.135-.266.312-.513.478-.76.04-.06.125-.085.191-.125.055.095.176.2.161.281-.307 1.797-.836 3.533-1.349 5.274a9448 9448 0 0 1-7.095 23.968c-.191.65-.458 1.278-.72 1.902-.03.07-.302.111-.407.06a1.5 1.5 0 0 1-.504-.432M34.562 5.814c1.54-.387 3.1-.734 4.665-1.016 3.286-.593 6.582-1.082 9.893-1.534 3.608-.499 7.236-.806 10.864-1.133 3.322-.307 6.663-.432 10-.603 2.35-.121 4.704-.197 7.054-.272.378-.015.755.035 1.127.11.101.02.232.227.237.348 0 .216-.045.458-.14.654-1.737 3.709-3.473 7.422-5.234 11.116-.554 1.162-1.188 2.284-2.053 3.306-1.213.151-2.426.08-3.629 0-3.18-.211-6.365-.418-9.54-.67a68 68 0 0 1-4.524-.518c-3.307-.478-6.598-1.031-9.843-1.826A34.2 34.2 0 0 1 36.8 11.43c-.96-.458-1.877-1.007-2.652-1.751-.387-.378-.694-.8-.86-1.319-.358-1.087.191-2.274 1.273-2.546m24.944 20.064c-4.624-.523-8.972-1.228-13.3-2.023-4.926-.91-9.812-1.998-14.578-3.573-2.667-.88-5.289-1.887-7.699-3.361-.92-.564-1.731-1.233-2.39-2.088-.77-1.002-.81-2.461.206-3.533.74-.785 1.595-1.404 2.541-1.907 1.882-1.002 3.855-1.777 5.898-2.39q.649-.198 1.313-.373c.302-.08.63.136.594.428-.14 1.308.342 2.37 1.238 3.286.7.71 1.51 1.268 2.38 1.741 1.475.805 3.035 1.399 4.625 1.902 3.12.981 6.305 1.656 9.526 2.194 3.145.528 6.32.83 9.48 1.213 1.278.15 2.577.176 3.865.246q3.187.165 6.366.322c.432.026.618.393.392.806-1.318 2.395-2.692 4.76-4.222 7.025a1.9 1.9 0 0 1-.458.498c-.176.12-.418.251-.614.231-1.806-.206-3.608-.443-5.163-.644M57.901 38.76c1.258-1.716 2.536-3.416 3.598-5.263.186-.327.413-.64.67-.916 1.137-1.233 2.063-2.627 3.069-3.955.74-.972 1.394-1.983 2.053-3 2.144-3.32 4.06-6.773 5.958-10.23 1.61-2.924 2.99-5.968 4.368-9.012.684-1.52 1.414-3.025 2.123-4.54.212-.447.56-.699 1.062-.72a84 84 0 0 1 1.595-.03c3.795-.004 7.594-.01 11.393-.004.524 0 1.052.07 1.58.105.161.01.388.333.368.504-.126.98-.483 1.902-.785 2.838-.916 2.823-2.194 5.495-3.327 8.227-1.987 4.776-4.549 9.26-6.939 13.829-1.308 2.49-2.949 4.775-4.509 7.115-.503.755-1.001 1.52-1.514 2.27-.519.744-1.057 1.479-1.585 2.219-.398.558-.79 1.117-1.188 1.67-.403.554-.76 1.143-1.223 1.64-.528.575-.835 1.239-1.097 1.958-.307.836-.287 1.646.116 2.42.312.605.649 1.209 1.067 1.742.603.775 1.283 1.494 1.942 2.23.302.341.634.653.941.99.272.292.237.66-.07 1.012-.176.196-.428.252-.594.11-.347-.286-.705-.573-1.042-.88-3.15-2.868-6.552-5.404-10.165-7.664-2.455-1.535-4.992-2.888-7.825-3.603-.13-.035-.236-.156-.352-.236-.045-.332.136-.584.312-.826m-1.59 4.258c-.206-.383-.267-.85-.342-1.289-.07-.392.427-.905.83-.9.15 0 .302-.01.453.015 1.64.251 3.23.885 4.972 1.977.075.398-.096.745-.287 1.057-.614 1.027-1.263 2.038-1.902 3.055-.156.246-.574.271-.79.06a16.1 16.1 0 0 1-2.934-3.976m1.5 8.987c1.021-1.414 2.068-2.808 3.029-4.262.916-1.38 1.806-2.778 2.591-4.207 1.616.634 2.18.956 4.439 2.526 3.054 2.119 5.953 4.423 8.514 6.924.156.498-.055.74-.231.971-.775 1.027-1.58 2.033-2.35 3.065-.549.73-1.067 1.47-1.58 2.224-1.324 1.953-1.495 4.081-.891 6.31.392 1.47.886 2.899 1.61 4.243.362.664.68 1.353.986 2.048.086.186.056.427.086.72-1.238.216-2.44.135-3.638.06-.282-.02-.584-.176-.826-.343-.312-.206-.583-.478-.855-.74-1.696-1.64-3.246-3.401-4.524-5.389-.866-1.338-1.716-2.687-2.622-3.995-.734-1.057-1.494-2.104-2.33-3.085-.986-1.162-2.123-2.159-3.668-2.561-.272-.07-.498-.297-.805-.488.87-1.515 2.093-2.672 3.064-4.021m-4.62 6.17c.282-.529.795-.7 1.338-.695.695.01 1.334.257 1.923.619.714.433 1.369.951 1.892 1.605.71.886 1.414 1.771 2.063 2.702A78 78 0 0 1 62.782 66c1.163 1.867 2.466 3.619 4.031 5.173.262.267.478.58.72.87q.181.212-.005.414c-.05.05-.101.115-.162.125-.22.036-.447.076-.674.076-2.717 0-5.44-.01-8.162-.02-.297 0-.594-.056-.926-.09-.322-.423-.68-.821-.946-1.269-1.248-2.078-2.34-4.227-3.044-6.562-.388-1.303-.85-2.576-1.002-3.94-.105-.941.141-1.792.579-2.602m-12.163 78.264c-.136.997-.553 1.218-1.333 1.208-2.35-.02-4.7-.075-7.05-.121-.212-.005-.418-.292-.373-.493.03-.146.04-.302.086-.443q1.591-5.457 3.19-10.914c2.154-7.352 4.313-14.704 6.462-22.056 1.982-6.769 3.945-13.542 5.932-20.305 1.495-5.098 3.01-10.185 4.524-15.273.08-.286.222-.558.347-.83.03-.06.116-.106.187-.126.05-.015.14 0 .176.035.095.111.201.227.256.363.75 1.66 1.641 3.25 2.577 4.81.106.187.14.418.211.645-.236.312-.437.639-.7.906-.669.689-.98 1.554-1.101 2.455-.121.896-.11 1.817-.07 2.722.02.353.22.73.422 1.037.252.388.624.66 1.127.675.302.01.61.01.901.075.106.02.262.216.257.327-.015.372-.05.76-.156 1.117-1.555 5.314-3.12 10.623-4.685 15.937l-1.54 5.238c-.106.368-.216.73-.347 1.082-.111.297-.312.524-.65.559a8 8 0 0 1-.905.045c-.826-.01-1.47.373-1.998.946-.624.67-1.082 1.429-1.298 2.36-.227.977-.252 1.953-.202 2.939a2 2 0 0 0 .161.659c.277.66.665 1.188 1.48 1.223.206.005.413.131.67.222-.051.327-.061.629-.142.91a2861 2861 0 0 1-3.13 10.704c-1.031 3.492-2.073 6.979-3.105 10.472-.085.291-.14.588-.18.89m41.596.821a.8.8 0 0 1-.674.543c-.529.045-1.062.06-1.59.055-5.838-.035-11.675-.09-17.512-.12-5.611-.026-11.222-.021-16.833-.036-1.137 0-2.274-.04-3.412-.07-.387-.015-.639-.398-.548-.81.05-.222.115-.443.176-.659.528-1.898 1.047-3.8 1.6-5.687q2.267-7.743 4.564-15.479c.151-.508.332-1.006.519-1.56.674-.312 1.207-.246 1.736-.241 2.727 0 5.46.025 8.187.035 7.96.03 15.927.06 23.888.096 1.439.005 2.883.03 4.322.07.604.015 1.208.081 1.807.141.382.035.609.433.503.84-.055.222-.12.438-.186.655-2.033 6.904-4.061 13.808-6.094 20.707-.151.508-.277 1.021-.453 1.52m29.02-25.257c-1.026-2.023-2.143-3.995-3.205-5.998-.247-.463-.448-.956-.664-1.434-.076-.181.095-.483.291-.524.443-.08.891-.161 1.339-.226 2.033-.297 3.996-.81 5.817-1.797.126-.065.272-.1.408-.151.136.061.332.081.392.187.468.855.961 1.711 1.359 2.601.805 1.792 1.635 3.568 2.602 5.284.191.342.065.72-.287.976-1.55 1.133-3.271 1.857-5.123 2.345-2.038.534-1.968.639-2.929-1.263m13.361-21.06c.81-1.79 2.194-2.863 4.116-3.22.639-.116 1.213.166 1.656.604.317.312.603.694.785 1.102.246.549.488 1.132.548 1.726.166 1.585.282 3.19-.06 4.76-.514 2.37-1.133 4.716-1.701 7.076-.126.518-.307 1.006-.624 1.459-.599-.634-.73-1.323-.594-2.134.317-1.867.533-3.749.971-5.6.262-1.102.413-2.235.544-3.367.1-.845-.161-1.645-.574-2.395a1.922 1.922 0 0 0-2.934-.524c-.568.494-1.082 1.047-1.62 1.575-.508-.362-.679-.694-.513-1.061m3.462 8.51c-.03.146-.096.287-.171.413-.025.05-.116.075-.181.08a.36.36 0 0 1-.207-.03c-.065-.03-.151-.085-.171-.146-.624-1.852-1.243-3.709-1.827-5.45.197-.89.599-1.535 1.037-2.148.307-.428.689-.796 1.188-1.017.231-.1.649-.015.835.171.342.337.508.74.533 1.213.066 1.062-.08 2.108-.281 3.145a502 502 0 0 1-.755 3.769m-6.306-10.145c.197-.251.403-.423.826-.332.473 1.394.981 2.818 1.449 4.257.82 2.521 1.615 5.047 2.42 7.574.051.146.091.292.162.427 1.157 2.144 1.736 4.524 2.662 6.759.085.211.14.432.231.644.599 1.348.392 2.652-.191 3.95a9.7 9.7 0 0 1-2.597 3.417c-2.279 1.907-4.876 3.039-7.92 2.923-.916-.035-1.787-.241-2.662-.523-1.701-.543-2.562-1.771-3-3.392-.02-.065.021-.146.046-.296.609-.197 1.253-.413 1.902-.604 1.167-.343 2.3-.78 3.397-1.299.608-.286 1.187-.659 1.756-1.031.538-.352.77-1.178.553-1.827a4 4 0 0 0-.287-.614c-.915-1.66-1.771-3.346-2.5-5.097-.403-.982-.906-1.923-1.394-2.864-.136-.256-.358-.488-.579-.684a.86.86 0 0 0-.856-.156c-.281.101-.533.282-.795.433-2.289 1.328-4.79 1.826-7.407 1.852-.327.005-.574-.182-.725-.463-.724-1.334-1.444-2.662-2.163-4a.458.458 0 0 1 .362-.66c.075-.005.151-.015.226-.015 2.476.045 4.806-.624 7.081-1.485 2.063-.78 3.995-1.837 5.822-3.07 1.58-1.071 3.014-2.299 4.181-3.824m-14.1 6.33c.051-.135.146-.261.247-.377 2.264-2.667 5.118-4.443 8.444-5.47.569-.176 1.177-.211 1.555-.276.377.07.523.095.674.12.342.056.599.644.383.896-.197.226-.383.473-.614.654-3.095 2.38-6.512 4.111-10.331 4.992-.121.025-.332-.035-.393-.126-.06-.09-.015-.282.035-.412m8.404-9.586c.951-.241 1.932-.352 2.662-.483a5.8 5.8 0 0 1 2.229.403c.292.116.634.604.609.896-.06.87-.427 1.59-1.087 2.153-.095.086-.322.146-.417.096-1.767-1.001-3.518-.584-5.244.075-2.425.926-4.579 2.32-6.491 4.077-.896.82-1.631 1.78-2.285 2.802a.97.97 0 0 1-.976.458 12 12 0 0 1-1.545-.322c-.377-.105-.679-.72-.629-1.112a3.54 3.54 0 0 1 .971-2.008c.725-.77 1.459-1.544 2.29-2.194a26.7 26.7 0 0 1 9.913-4.84m5.757-50.482c-2.088 6.974-4.106 13.974-6.159 20.959q-3.003 10.267-6.014 20.526c-1.132 3.855-2.284 7.71-3.402 11.569-.201.69-.533 1.238-1.102 1.67a9.5 9.5 0 0 0-1.187 1.062 17 17 0 0 0-1.324 1.56c-.991 1.334-1.177 2.753-.397 4.273.307.603.815 1.182.79 1.862-.03.74-.277 1.484-.488 2.204-1.434 4.876-2.894 9.742-4.323 14.618-1.45 4.952-2.858 9.913-4.302 14.86-.614 2.113-1.273 4.212-1.923 6.315-.206.664-.422.81-1.172.82-1.062.01-2.124.005-3.19.005v-.055c-1.138 0-2.275.01-3.412-.005-.438-.005-.705-.332-.65-.74.04-.297.076-.604.157-.89a618 618 0 0 1 1.504-5.249c1.122-3.86 2.24-7.719 3.377-11.569.604-2.038 1.258-4.056 1.877-6.089.221-.719.382-1.459.593-2.189 1.118-3.854 2.245-7.709 3.367-11.564 1.097-3.784 2.184-7.578 3.296-11.362 1.817-6.185 3.653-12.364 5.475-18.549 2.38-8.071 4.77-16.143 7.115-24.23.952-3.275 1.812-6.581 2.678-9.882.196-.74.447-1.445.759-2.134 1.767-3.865 3.352-7.805 4.917-11.755 1.394-3.528 2.853-7.03 4.267-10.548.851-2.113 1.671-4.232 2.506-6.35q.249-.636.513-1.263c.131-.322.413-.423.72-.473.151-.025.307-.035.453-.015 1.127.146 2.254.302 3.381.458.242.035.509.453.443.704-.246.951-.478 1.907-.755 2.853-.785 2.693-1.595 5.38-2.37 8.077-.357 1.238-.659 2.49-.986 3.739-.096.367-.176.74-.302 1.097-1.806 5.158-3.17 10.447-4.73 15.68m23.364 23.737c-.251.045-.438-.06-.609-.197-1.369-1.082-2.732-2.158-4.091-3.245-4.011-3.226-8.016-6.447-12.022-9.677-.407-.332-.775-.71-1.142-1.042-.508-2.285-.533-4.549-.548-6.818 0-.116.12-.282.226-.333a.54.54 0 0 1 .413.03c.201.096.382.237.563.378q7.874 6.142 15.741 12.294a8.6 8.6 0 0 1 1.001.91c.146.156.272.388.287.594.171 2.19.317 4.378.468 6.567.02.297-.121.508-.287.539m16.938-23.52c.081.206.101.442.101.669.015 2.128.005 4.252.035 6.38.01.735-.246 1.324-.755 1.832-1.439 1.46-2.878 2.924-4.317 4.378q-4.326 4.377-8.65 8.746c-.479.483-.952.961-1.485 1.354-.171-.182-.317-.272-.347-.393-.111-.443-.227-.886-.252-1.339-.111-1.665-.181-3.336-.287-5.001-.055-.891.212-1.58.871-2.23 3.985-3.965 7.926-7.97 11.886-11.961.75-.755 1.489-1.515 2.249-2.26a1.5 1.5 0 0 1 .579-.332c.101-.03.332.066.372.156m-1.444-2.466c.06.045.121.095.181.14.493.388.544.7.141 1.113-.896.93-1.796 1.851-2.702 2.772-3.739 3.78-7.473 7.559-11.217 11.328-.584.588-1.102 1.258-1.922 1.68-.247-.14-.523-.261-.755-.442q-8.166-6.38-16.324-12.767c-.237-.186-.453-.398-.674-.604-.136-.126-.161-.488-.031-.624.468-.493.921-1.011 1.429-1.46a1100 1100 0 0 1 7.201-6.29c2.406-2.088 4.826-4.16 7.242-6.244.115-.096.226-.201.357-.282.267-.161.564-.236.855-.075.267.146.529.301.77.478q7.728 5.639 15.449 11.277m11.7-14.86c-.388.458-.891.82-1.379 1.172-1.495 1.072-3.17 1.797-4.891 2.4a56 56 0 0 1-6.779 1.943c-1.851.398-3.703.8-5.555 1.193-.297.06-.604.075-.901.135-.795.172-1.464-.01-2.123-.508-1.817-1.369-3.679-2.682-5.521-4.02-.181-.136-.362-.272-.558-.393-.337-.211-.976-.176-1.298.075-.237.187-.453.398-.685.594q-3.615 3.125-7.231 6.255c-.362.312-.76.488-1.248.433-1.213-.146-2.42.045-3.628.12-1.515.096-3.03.162-4.544.227a.635.635 0 0 1-.659-.73c.03-.226.04-.457.1-.674.086-.287.227-.563.322-.85.342-1.082.675-2.17 1.017-3.251.322-1.011.659-2.018 1.046-3.206.539-.045.911-.1 1.284-.11 1.816-.055 3.638-.11 5.46-.136a61 61 0 0 0 7.256-.569c1.801-.246 3.613-.427 5.425-.614 2.339-.236 4.644-.689 6.944-1.182.594-.131 1.213-.141 1.791-.297 1.837-.488 3.623-1.132 5.254-2.129a6.4 6.4 0 0 0 1.087-.825c.785-.755 1.379-1.61 1.328-2.783-.01-.211.096-.422.146-.619.191 0 .347-.035.478.005 2.094.7 4.112 1.565 5.979 2.748.84.528 1.64 1.117 2.229 1.922.971 1.329 1.087 2.234-.146 3.674"/>
    <path fill="#000" d="M88.18 72.264c-.015.136-.04.363-.116.388-.281.09-.583.156-.88.16-1.666 0-3.331-.014-4.997-.02-1.288-.004-2.576.006-3.865-.014-.83-.016-1.655-.07-2.38-.101-.216-.186-.367-.262-.438-.388-1.333-2.294-2.526-4.64-3.2-7.236-.383-1.48-.247-2.843.292-4.217.427-1.092 1.278-1.665 2.405-1.831a4.7 4.7 0 0 1 2.863.462c1.334.67 2.32 1.701 3.145 2.894a101 101 0 0 1 2.481 3.804c1.334 2.119 2.788 4.142 4.575 5.913.05.05.125.13.115.186m-66.328 38.139c-.337 1.781-.71 3.563-1.046 5.344-.961 5.057-1.913 10.12-2.869 15.177-.196 1.042-.377 2.083-.578 3.125-.046.221-.131.433-.202.644-.09.262-.528.448-.75.307-.321-.196-.659-.382-.95-.619-1.284-1.062-2.567-2.123-3.835-3.21-2.934-2.516-5.857-5.043-8.781-7.569-.513-.443-1.062-.855-1.454-1.524.216-.222.387-.473.624-.624 1.092-.685 2.199-1.344 3.3-2.008 4.61-2.773 9.22-5.551 13.834-8.318.715-.428 1.45-.811 2.19-1.193.1-.055.316-.02.397.055.09.091.146.282.12.413m97.845.518c-1.55 1.133-3.271 1.857-5.123 2.345-2.038.534-1.967.639-2.928-1.263-1.027-2.023-2.144-3.995-3.206-5.998-.246-.463-.448-.956-.664-1.434-.075-.181.096-.483.292-.524.443-.08.891-.161 1.338-.226 2.033-.297 3.996-.81 5.818-1.796.125-.066.271-.101.407-.151.136.06.332.08.393.186.468.855.961 1.711 1.358 2.601.806 1.792 1.636 3.568 2.602 5.284.191.342.065.72-.287.976m-.335-20.39c-.196.227-.382.473-.614.654-3.094 2.38-6.511 4.112-10.33 4.992-.121.025-.333-.035-.393-.126-.06-.09-.015-.281.035-.412.051-.136.146-.262.247-.378 2.264-2.667 5.117-4.443 8.444-5.47.568-.176 1.177-.21 1.555-.276.377.07.523.095.674.12.342.056.599.644.382.896m43.296-47.694c.011.734-.246 1.323-.754 1.831-1.44 1.46-2.879 2.924-4.318 4.378q-4.325 4.377-8.65 8.746c-.478.483-.951.961-1.485 1.354-.171-.181-.317-.272-.347-.393-.111-.443-.226-.886-.251-1.338-.111-1.666-.182-3.337-.287-5.002-.056-.891.211-1.58.87-2.23 3.986-3.965 7.926-7.97 11.886-11.961.75-.755 1.49-1.515 2.25-2.26.156-.15.367-.266.578-.332.101-.03.332.066.373.156.08.207.1.443.1.67.015 2.128.005 4.252.035 6.38M98.735 59.98c-.14.051-.282.107-.433.137-.146.03-.297.03-.624.06-.493-.09-1.162-.206-1.826-.332-.277-.055-.524-.372-.534-.65-.01-.226-.045-.457-.01-.673a69 69 0 0 1 .519-2.889c.045-.206.216-.387.337-.574.09-.15.226-.186.392-.1.131.07.272.126.383.221a9.5 9.5 0 0 1 2.254 3.08c.096.201.136.428.181.644.086.413-.226.926-.639 1.077M67.526 72.456c-.05.05-.101.115-.161.125-.222.035-.448.076-.675.076-2.717 0-5.44-.01-8.162-.02-.297 0-.594-.056-.926-.09-.322-.424-.68-.821-.946-1.269-1.248-2.078-2.34-4.227-3.044-6.562-.388-1.303-.85-2.576-1.002-3.94-.105-.941.141-1.792.579-2.602.282-.528.795-.7 1.339-.694.694.01 1.333.257 1.922.619.714.433 1.369.95 1.892 1.605.71.886 1.414 1.771 2.063 2.702A78 78 0 0 1 62.78 66c1.163 1.867 2.466 3.618 4.031 5.173.262.267.478.579.72.87q.181.212-.005.413m-5.59-28.578c-.614 1.027-1.263 2.038-1.902 3.055-.156.246-.574.271-.79.06a16.1 16.1 0 0 1-2.934-3.975c-.207-.383-.267-.85-.342-1.289-.07-.392.427-.905.83-.9.15 0 .302-.01.453.015 1.64.251 3.23.885 4.972 1.977.075.398-.096.745-.287 1.057m19.566 2.259a142 142 0 0 1-2.36 3.588c-.116.171-.337.267-.558.438-1.565-1.233-2.859-2.672-3.82-4.403-.146-.262-.236-.554-.332-.84-.126-.378.166-.921.549-1.133a2.3 2.3 0 0 1 1.54-.231c1.101.216 2.234.322 3.29.74.423.166.85.307 1.273.468.76.296.886.634.418 1.373m81.505-35.053c.021.206-.09.437-.176.644-.317.724-.895 1.207-1.534 1.63-1.414.936-2.985 1.48-4.61 1.877a83 83 0 0 1-10.512 1.862c-2.858.322-5.717.7-8.595.835-2.571.116-5.153.126-7.729.177-.222 0-.453-.04-.66-.121-.115-.046-.266-.212-.261-.317.025-.453.045-.911.161-1.344.921-3.356 1.847-6.713 2.798-10.064.226-.8.553-1.57.855-2.416.383-.04.76-.15 1.117-.11 2.033.231 4.066.458 6.089.755 2.32.337 4.64.72 6.95 1.132 4.775.845 9.515 1.862 14.165 3.266.287.085.579.186.845.322.745.392 1.027 1.087 1.097 1.872m-84.605-9.37c0 .216-.046.458-.141.654-1.736 3.709-3.472 7.422-5.234 11.116-.553 1.162-1.187 2.285-2.053 3.306-1.213.151-2.425.08-3.628 0-3.18-.211-6.366-.418-9.541-.67a68 68 0 0 1-4.524-.518c-3.306-.478-6.597-1.031-9.843-1.826a34.2 34.2 0 0 1-6.637-2.345c-.961-.458-1.877-1.007-2.652-1.751-.388-.378-.694-.8-.86-1.319-.358-1.087.19-2.274 1.273-2.546 1.54-.388 3.1-.735 4.664-1.017 3.286-.593 6.582-1.081 9.894-1.534 3.608-.498 7.236-.805 10.864-1.133 3.321-.307 6.663-.432 9.999-.603 2.35-.121 4.705-.197 7.055-.272.377-.015.755.035 1.127.11.1.02.232.227.237.348m-32.75 59.268a32 32 0 0 0-1.389-1.182q-7.336-5.949-14.688-11.891a420 420 0 0 0-3.734-2.98 2.5 2.5 0 0 0-1.243-.518c-.901-.12-1.802-.281-2.703-.407-3.074-.438-6.154-.876-9.233-1.298-.443-.06-.906-.056-1.354-.04a.88.88 0 0 0-.745.447c-.116.197-.241.393-.317.604-1.218 3.22-1.972 6.532-2.008 10.527-.08.992.161 2.491.468 3.98.68 3.292 2.129 6.17 4.72 8.364a21 21 0 0 0 5.189 3.256c1.469.644 2.989 1.162 4.574 1.328 1.952.202 3.905.67 5.877.146 1.777 0 3.457-.493 5.123-1.001 3.311-1.011 6.26-2.707 8.932-4.891 1.006-.82 1.847-1.797 2.637-2.818.443-.579.408-1.168-.106-1.626M14.694 44.2c.006-.04.136-.096.197-.085q2.369.316 4.73.649c0-.01.005-.02.005-.025 1.424.206 2.848.437 4.277.608.71.091 1.289.383 1.832.826 2.35 1.922 4.715 3.824 7.075 5.731 2.95 2.386 5.908 4.76 8.847 7.156.649.523 1.253 1.097 1.857 1.67.075.071.045.273.03.413-.005.046-.1.086-.161.116a.6.6 0 0 1-.212.076c-2.344.21-4.684.422-7.04.422-.488 0-.87-.186-1.237-.488-1.047-.875-2.109-1.73-3.166-2.602q-8.183-6.71-16.364-13.435a4.2 4.2 0 0 1-.64-.634c-.07-.086-.045-.267-.03-.398M12.21 63.745c-1.39-1.877-2.144-4.01-2.557-6.27-.216-1.193-.261-2.41-.367-3.397.186-3.507.67-6.723 1.978-9.762.176-.408.573-.518.915-.262.06.045.126.086.182.131.12.096.231.201.347.297 4.987 4.096 9.973 8.197 14.96 12.294 2.053 1.685 4.112 3.366 6.16 5.057.236.191.443.412.659.624.126.12.11.498-.02.624-1.616 1.52-3.457 2.702-5.44 3.688a16.7 16.7 0 0 1-5.651 1.676c-4.57.498-8.368-.936-11.166-4.7m31.702-.624c-.045.136-.15.262-.251.372-.207.222-.413.443-.645.64-3.91 3.285-8.323 5.47-13.425 6.134a21.8 21.8 0 0 1-5.435.02c-.523-.06-1.047-.141-1.636-.705 4.268-.347 7.805-1.952 11.026-4.327a22 22 0 0 0 2.088-1.741c.524-.499 1.067-.77 1.807-.786 2.043-.045 4.08-.16 6.124-.226.116 0 .287.106.352.216.06.101.04.282-.005.403"/>
    <path fill="#000" d="M43.911 63.12c-.045.137-.15.263-.251.373-.207.222-.413.443-.644.64-3.91 3.285-8.324 5.47-13.426 6.134a21.8 21.8 0 0 1-5.435.02c-.523-.06-1.047-.141-1.636-.705 4.268-.347 7.805-1.952 11.026-4.328a22 22 0 0 0 2.088-1.74c.524-.499 1.067-.77 1.807-.786 2.043-.045 4.08-.16 6.124-.226.116 0 .287.106.352.216.06.101.04.282-.005.403"/>
</svg>
