<svg xmlns="http://www.w3.org/2000/svg" width="240" height="240" fill="none" viewBox="0 0 240 240">
    <path fill="#1e1c1c" d="M201.685 215.506c-.518-2.702-1.12-5.38-1.607-8.094-.974-5.404-2.252-10.747-3.335-16.133-1.302-6.439-2.507-12.902-3.791-19.335-1.144-5.738-2.331-11.465-3.481-17.204-1.041-5.155-2.051-10.321-3.092-15.476-1.108-5.508-2.264-10.997-3.371-16.511-1.053-5.27-2.07-10.552-3.116-15.823-1.114-5.629-2.252-11.246-3.384-16.876-.481-2.343-.956-4.68-1.461-7.022-.207-.986-.748-1.467-1.704-1.528-.602-.03-1.199-.012-1.807-.012-3.366 0-6.731.03-10.096 0-3.354-.03-4.139.535-3.098-3.7.055-.231.043-.481.055-.725.298-5.501.584-11.009.913-16.516.079-1.309.377-2.599.517-3.901.085-.852.493-1.175 1.333-1.363 1.381-.31 1.381-.457 1.18-1.62-.121-.711-.225-1.417-.334-2.13-.159-1.04-.615-1.825-1.753-1.983-.779-.104-1.369-.457-1.625-1.217-1.248-3.579-1.071-2.903-4.68-3.055-.359-.012-.718-.006-1.077-.006-2.404-.03-4.802-.055-7.212-.086-.456-.006-.888-.51-.821-.961.103-.712.261-1.412.395-2.112.724-3.481.804-5.337.274-7.777-.493-2.289-1.728-3.847-4.12-4.48a9.1 9.1 0 0 0-4.254-.079 26.7 26.7 0 0 0-6.08 2.13c-2.909 1.412-5.848 2.757-8.757 4.157-1.345.651-2.745.803-4.205.675-.627-.054-1.15-.304-1.467-.888-.341-.633-.712-1.248-1.022-1.899a248 248 0 0 1-2.142-4.558c-.719-1.558-1.863-2.775-3.129-3.907-1.332-1.205-3.091-1.582-4.679-1.473-2.124.146-4.224.87-5.995 2.203-2.769 2.081-4.747 4.777-5.873 8.021-.59 1.68-.79 3.463-.176 5.24.499 1.473 1.381 2.544 2.909 2.927 1.156.286 2.349.645 3.511.603 2.794-.092 4.607.888 5.24 3.773.201.907.791 1.734 1.236 2.58.858 1.655 2.3 2.392 4.095 2.49 2.057.121 4.084-.013 5.958-1.011.95-.511 1.966-.913 2.873-1.479 3.274-2.002 6.487-4.096 9.773-6.086a59 59 0 0 1 5.058-2.726c1.278-.609 2.391.122 2.525 1.582.104 1.078.219 2.173-.827 2.952-.712.517-1.09 1.241-1.248 2.118-.225 1.18-.858 1.862-2.179 1.984-.487.042-1.174.541-1.351.998-.383.986-.56 2.075-.694 3.14-.152 1.096.451 1.771 1.589 1.96.225.048.481-.019.718-.006.688.048 1.114.389 1.132 1.101.061 2.173.055 4.333.164 6.481.116 2.149.432 4.29.518 6.445.121 3.353.06 6.713.705 10.036.074.353.055.718.067 1.077.013.688-.346 1.077-1.095 1.083-2.276.024-4.558.067-6.84.006-2.258-.06-4.498.207-6.774.104-4.175-.177-8.368.024-12.549.097-2.367.043-4.74.177-7.114.2-1.18.02-2.367-.212-3.548-.2-3.426.049-6.846.213-10.273.237-6.116.03-12.25-.006-18.373 0-1.198 0-2.403.013-3.602.086-.956.06-1.528.572-1.753 1.533-.298 1.272-.542 2.574-.803 3.865-.901 4.57-1.808 9.147-2.696 13.717-1.041 5.392-2.063 10.796-3.116 16.194-.633 3.286-1.32 6.561-1.966 9.841-.56 2.811-1.09 5.635-1.637 8.447-1.083 5.513-2.173 11.021-3.256 16.529-.81 4.101-1.63 8.203-2.434 12.305-.895 4.57-1.765 9.153-2.654 13.717-1.046 5.404-2.111 10.796-3.164 16.195-.87 4.454-1.753 8.909-2.635 13.364-.511 2.58-1.041 5.154-1.564 7.735-.165.803.28 1.333 1.174 1.393.36.019.718.019 1.084.019 3.243.006 6.48.006 9.73.006h69.914v.103c1.679 0 3.359.006 5.039 0 8.891-.03 17.776-.097 26.668-.103 16.34-.006 32.668.018 49.014.024.122 0 .238.012.359.012.81-.024 1.345-.608 1.187-1.424zm-66.39-176.602a5.8 5.8 0 0 0-2.063.468 32 32 0 0 0-3.475 1.869c-3.785 2.325-7.516 4.716-11.319 6.998-1.224.73-2.593 1.2-3.913 1.76-.433.188-.913.285-1.382.352-3.158.45-4.698-.383-6.013-3.28-.347-.755-.596-1.564-.888-2.343-.712-1.88-2.069-2.86-4.059-3.061a66 66 0 0 1-4.626-.621c-1.405-.243-2.464-1.32-2.519-2.66-.055-1.186-.103-2.464.25-3.566 1.235-3.797 3.517-6.78 7.296-8.398a8.8 8.8 0 0 1 2.051-.62c3.128-.56 5.38.778 6.901 3.42.834 1.454 1.467 3.018 2.191 4.54.365.748.688 1.52 1.09 2.251.45.84.888 1.795 1.923 2.014 1.12.244 2.154.67 3.475.305a30 30 0 0 0 5.014-1.911c2.063-.98 4.096-2.008 6.117-3.067 2.148-1.114 4.479-1.644 6.803-2.246 1.485-.377 2.873.122 4.127.834 1.107.639 1.545 1.82 1.752 3.018.146.822.098 1.674.177 3.092-.292 1.685-.639 3.931-1.071 6.159-.122.608-.658 1.04-1.321 1.01-.943-.043-1.88-.262-2.812-.268-.523-.006-.608-.298-.639-.62-.073-.956-.048-1.924-.14-2.88-.152-1.527-1.405-2.64-2.933-2.555zm1.509 7.972c.457-.091.938-.17 1.406-.17 2.757-.019 5.502-.006 8.247-.006v.133c2.872 0 5.738.013 8.605-.006.967 0 1.582.433 1.892 1.327.213.59-.17 1.296-.76 1.327-.597.03-1.193.018-1.789.042-2.843.086-5.66-.28-8.514-.103-2.958.17-5.958-.2-8.934-.383-.268-.013-.609-.341-.743-.597-.213-.438.225-1.479.59-1.552zm-3.487 6.518c-.45-.055-1.004 0-1.077-.62-.085-.834.615-1.735 1.363-1.735 4.303-.012 8.6-.006 12.902-.006v.024c4.065 0 8.125-.012 12.19.006 1.162.006 1.661.511 1.856 1.716.079.505-.262 1.029-.724 1.017-2.124-.043-4.254-.086-6.378-.159-1.418-.054-2.921-.486-4.254-.164-2.495.59-4.935.085-7.4.091-.353.006-.749-.207-1.047-.103-2.495.815-4.966.213-7.431-.067m2.709 11.593c-.36-1.655-.579-2.909-.384-4.667.152-1.364-.122-2.666-.079-4.047.012-.542.383-.816.913-.883.231-.03.468-.055.712-.055 6.457-.006 12.902-.024 19.359-.024.955 0 1.32.371 1.339 1.242a78 78 0 0 1-.025 4.46c-.128 3.646-.468 7.267-.84 10.936-.286 2.879-.413 5.776-.639 8.667-.048.56-.42.84-.949.84-2.872.011-5.745.005-8.617.005v.055c-2.757 0-5.508.018-8.265-.006-1.187-.006-1.527-.322-1.625-1.418-.268-2.903-.687-5.89-.748-8.812-.049-2.033.28-4.309-.146-6.293zM69.113 89.683c.261-1.46.48-2.927 1.15-4.272.34 1.388.724 2.763 1.004 4.163.59 2.92 1.114 5.854 1.686 8.788q1.324 6.844 2.66 13.699c1.119 5.732 2.263 11.465 3.359 17.198 1.101 5.745 2.148 11.502 3.231 17.247.177.937.444 1.856.627 2.793.243 1.266-.08 2.216-1.15 3.135-2.514 2.142-5.532 2.72-8.612 3.207-1.046.158-2.142.018-3.225.018-2.8.243-5.496-.17-8.027-1.406-.749-.371-1.528-.73-2.155-1.26-1.551-1.302-2.422-2.902-1.983-5.045 1.6-7.704 3.176-15.409 4.71-23.126.864-4.333 1.57-8.684 2.416-13.017.81-4.211 1.704-8.41 2.538-12.622a464 464 0 0 0 1.783-9.488zm14.843 65.337c.207.511.06.901-.36 1.248-2.665 2.245-5.866 3.182-9.22 3.657-1.295.189-2.634.031-3.955.031-2.52.133-5.02.054-7.473-.731a19.8 19.8 0 0 1-5.155-2.495c-1.004-.675-1.339-1.655-1.04-2.836.06-.231.127-.499.28-.639.09-.079.45-.024.56.085 2.555 2.727 5.86 3.518 9.408 3.877 3.493.353 6.901.134 10.267-.84 1.618-.469 3.176-1.114 4.527-2.142 1.6-1.223 1.637-.511 2.16.785M43.26 213.516c-.194 1.455-.742 1.911-2.5 1.838-.895-.018-1.346-.505-1.175-1.363.766-3.986 1.557-7.972 2.343-11.953.882-4.454 1.765-8.903 2.64-13.352.822-4.229 1.632-8.447 2.465-12.67a4137 4137 0 0 1 3.311-16.882c.883-4.449 1.832-8.879 2.69-13.34.852-4.455 1.528-8.952 2.477-13.383.828-3.858 1.534-7.729 2.264-11.599.81-4.23 1.765-8.423 2.599-12.634 1.454-7.266 2.866-14.539 4.278-21.805.115-.59.134-1.193.231-1.784.122-.718.48-1.04 1.193-1.077.48-.024.961.006 1.442.03.572.025.925.384.84.914-.268 1.77-.578 3.53-.907 5.288-1.126 5.867-2.27 11.727-3.402 17.588-.523 2.702-1.04 5.404-1.57 8.094-.913 4.692-1.838 9.384-2.781 14.064-1.095 5.502-2.252 10.997-3.323 16.505-.852 4.339-1.6 8.702-2.446 13.035-1.12 5.739-2.41 11.454-3.433 17.211-1.296 7.291-2.769 14.545-4.26 21.793-.894 4.327-1.594 8.691-2.404 13.042-.152.815-.45 1.619-.566 2.434zm14.21 1.814c-2.038.03-4.083.012-6.122.012-1.795.006-3.602.049-5.404-.006-.986-.031-1.168-.676-1.004-1.479q2.302-11.409 4.522-22.846c1.296-6.682 2.52-13.376 3.791-20.071a2499 2499 0 0 1 2.319-11.958 1.7 1.7 0 0 1 .31-.645c.213-.274.45-.566.877-.311 2.16 1.303 4.35 2.514 6.907 2.909 1.053.159 2.106.463 3.17.518 1.912.097 3.835.085 5.758.079 3.931-.019 7.57-1.011 10.845-3.22.547-.365 1.15-.085 1.296.633.547 2.69 1.09 5.38 1.6 8.076.901 4.692 1.777 9.384 2.672 14.083.274 1.405.584 2.805.822 4.211a.935.935 0 0 1-.743 1.083c-.81.152-1.661.177-2.495.195-6.244.067-12.488.146-18.732.164-4.211.006-3.511.207-4.4 3.682-1.12 4.394-1.96 8.861-2.806 13.31-.65 3.402-1.125 6.84-1.691 10.26-.122.743-.712 1.315-1.485 1.327zm34.513.061c-4.68-.067-9.366-.013-14.04-.013v-.018c-4.802 0-9.603.006-14.405 0-.596 0-1.199.018-1.79-.03-.73-.055-1.277-.779-1.168-1.534.226-1.412.36-2.86.749-4.236.657-2.318.785-4.71 1.266-7.047.87-4.089 1.716-8.179 2.586-12.263.073-.353.152-.742.371-1.004.286-.341.73-.821 1.078-.791 2.044.146 4.035-.304 6.073-.292 4.918.024 9.84-.073 14.758-.122.481 0 .962-.012 1.442.012 1.035.049 1.552.469 1.741 1.467.536 2.812 1.028 5.636 1.582 8.447.822 4.211 1.674 8.429 2.514 12.646.091.463.243.931.286 1.406.292 3.262.615 3.42-3.03 3.366zm7.595-.006h-.36v-.013c-.12 0-.237.006-.358 0-1.345-.042-1.467-.085-1.753-1.278-.444-1.85-.87-3.718-1.235-5.592a3483 3483 0 0 1-3.463-17.935c-.81-4.212-1.582-8.447-2.398-12.659-1.132-5.866-2.306-11.721-3.426-17.587-1.315-6.914-2.562-13.845-3.889-20.759-.791-4.102-1.704-8.167-2.507-12.269-.852-4.333-1.62-8.684-2.453-13.017-.84-4.333-1.746-8.66-2.586-12.993-.834-4.34-1.631-8.685-2.453-13.036-.219-1.168-.48-2.337-.67-3.517-.085-.487.025-.962.579-1.15.584-.195 1.4.011 1.63.413.171.31.39.633.457.968.797 3.98 1.558 7.972 2.35 11.952.809 4.102 1.624 8.204 2.464 12.287a4474 4474 0 0 0 4.047 19.645c1.096 5.258 2.27 10.492 3.36 15.756.815 3.974 1.551 7.96 2.355 11.946 1.132 5.612 2.324 11.217 3.456 16.828 1.303 6.438 2.544 12.895 3.859 19.322 1.302 6.317 2.671 12.616 3.992 18.927.164.815.243 1.661.31 2.489.073.864-.371 1.259-1.308 1.278zm19.712-1.674c-.122-.122-.323-.237-.353-.383-.986-4.893-1.942-9.792-2.946-14.685-.566-2.8-1.229-5.587-1.819-8.38-.165-.81-.311-1.637-.347-2.465-.019-.493.304-.931.87-.937 1.68-.025 3.353-.013 5.021-.013v-.073h3.949c1.583.007 1.747.28 1.388 1.954-.645 3.025-1.187 6.067-1.868 9.086-1.187 5.215-2.441 10.419-3.676 15.628-.025.098-.146.189-.219.274zm4.655.511c-.237.84-.876 1.132-1.996 1.126-.487-.006-.955-.481-.894-.901.012-.115 0-.237.03-.353 1.077-4.643 2.179-9.28 3.213-13.936.651-2.915 1.193-5.842 1.789-8.757.195-.932.506-1.844.646-2.788.28-1.886 1.308-1.965 2.86-1.746.353.048.645.529.882.73-.091.584-.091.955-.207 1.296-2.124 6.469-3.292 13.188-4.923 19.773-.462 1.85-.888 3.712-1.4 5.556m14.679 1.169c-1.911-.013-3.834 0-5.751 0v-.013c-2.033 0-4.077.013-6.11-.006-1.071-.012-1.296-.304-1.083-1.259a1037 1037 0 0 1 6.292-26.09c.159-.633.591-1.162 1.205-1.168 4.193-.043 8.387-.025 12.58 0 .62 0 .967.572.803 1.259-.572 2.441-1.15 4.869-1.716 7.315-1.424 6.159-2.879 12.306-4.26 18.477-.268 1.193-.463 1.509-1.96 1.491zm39.959-.098c-.827.104-1.679.098-2.519.098-5.161.006-10.334.006-15.495.006l-15.141-.006a70 70 0 0 1-2.513-.055c-.633-.024-1.011-.603-.834-1.296.596-2.319 1.247-4.613 1.789-6.944 1.077-4.65 2.081-9.324 3.146-13.973.432-1.862.938-3.712 1.412-5.569.14-.541.53-.742 1.047-.779.128-.006.243-.018.365-.018 7.443-.012 14.892-.018 22.341-.03 1.083 0 1.327.42 1.351 1.241.061 2.416.797 4.711 1.363 7.029 1.449 5.928 2.763 11.874 3.859 17.862.103.584.365 1.15.413 1.734.013.226-.353.67-.578.694zm4.139.067c-.786.043-1.382-.213-1.759-.955-.895-1.741-1.029-3.688-1.351-5.55-.913-5.295-2.209-10.504-3.481-15.714a110 110 0 0 1-1.041-4.899c-.201-1.022.298-1.515 1.442-1.497.968.018 1.272.243 1.467 1.187 1.229 5.83 2.422 11.672 3.67 17.496.523 2.453 1.162 4.887 1.722 7.328.134.572.213 1.162.28 1.752.055.457-.396.822-.943.852zm15.853 0c-3.84.012-7.686.031-11.527 0-1.253-.006-1.57-.365-1.88-1.71-.87-3.84-1.923-7.65-2.568-11.526-.834-5.076-2.453-9.981-3.147-15.075-.2-1.436-.657-1.777-2.184-1.777-9.847 0-19.694.018-29.553.018-11.404 0-22.821-.006-34.22-.018-.128 0-.243-.018-.365-.018-.718.024-1.375.742-1.266 1.436.231 1.534.353 3.104.761 4.595 1.935 7.041 2.994 14.259 4.613 21.367.134.572.146 1.193.128 1.783-.019.511-.286.931-.877.931-4.077.012-8.161.006-12.244.012-.67 0-1.132-.286-1.339-.949-.177-.566-.414-1.126-.524-1.71-1.265-6.329-2.5-12.658-3.785-18.988-.785-3.864-1.643-7.704-2.452-11.569a2068 2068 0 0 1-2.465-11.922 5518 5518 0 0 1-4.114-20.01c-.81-3.967-1.588-7.954-2.404-11.934-1.144-5.623-2.325-11.228-3.457-16.851-1.302-6.445-2.55-12.896-3.858-19.335-1.096-5.38-2.258-10.747-3.378-16.127a8.6 8.6 0 0 1-.17-1.424c-.018-.517.189-.961.76-.998a52 52 0 0 1 3.238-.08c14.776-.005 29.541-.005 44.317-.005v-.055c15.251 0 30.508-.006 45.759 0 3.907 0 3.067-.152 3.827 3.274 1.698 7.693 3.019 15.476 4.565 23.205 1.552 7.729 3.304 15.415 4.747 23.169.979 5.288 2.142 10.54 3.152 15.81 1.059 5.514 2.258 11.003 3.378 16.499.785 3.877 1.545 7.747 2.306 11.612q1.222 6.152 2.434 12.305c.664 3.396 1.315 6.798 1.984 10.194.585 2.927 1.218 5.848 1.808 8.775.377 1.869.761 3.749 1.089 5.636.152.9-.28 1.466-1.101 1.472z"/>
    <path fill="#1e1c1c" d="M159.827 53.796c-2.124-.043-4.254-.086-6.378-.159-1.418-.054-2.921-.486-4.254-.164-2.495.59-4.935.085-7.4.091-.353.006-.749-.207-1.047-.103-2.495.815-4.966.213-7.431-.067-.45-.055-1.004 0-1.077-.62-.085-.834.615-1.735 1.363-1.735 4.303-.012 8.6-.006 12.902-.006v.024c4.065 0 8.125-.012 12.19.006 1.162.006 1.661.511 1.856 1.716.079.505-.262 1.029-.724 1.017m-3.633-4.316c-.597.031-1.193.02-1.789.043-2.843.086-5.66-.28-8.514-.103-2.958.17-5.958-.2-8.934-.383-.268-.013-.609-.341-.743-.597-.213-.438.225-1.479.59-1.552.457-.091.938-.17 1.406-.17 2.757-.018 5.502-.006 8.246-.006v.134c2.873 0 5.739.012 8.606-.006.967 0 1.582.432 1.892 1.326.213.59-.17 1.297-.76 1.327zM81.673 152.427c-2.513 2.143-5.532 2.721-8.611 3.208-1.047.158-2.142.018-3.225.018-2.8.243-5.496-.171-8.028-1.406-.748-.371-1.527-.73-2.154-1.26-1.552-1.302-2.422-2.903-1.984-5.045 1.6-7.704 3.177-15.409 4.71-23.126.865-4.333 1.57-8.684 2.416-13.017.81-4.211 1.704-8.411 2.538-12.622a464 464 0 0 0 1.783-9.488c.262-1.46.481-2.927 1.15-4.272.341 1.388.725 2.763 1.005 4.163.59 2.921 1.113 5.854 1.686 8.788q1.324 6.844 2.659 13.699c1.12 5.732 2.264 11.465 3.36 17.198 1.1 5.745 2.148 11.502 3.23 17.247.177.937.445 1.856.628 2.793.243 1.266-.08 2.216-1.15 3.135zm64.887 35.681c-.573 2.441-1.151 4.869-1.717 7.315-1.424 6.159-2.878 12.306-4.26 18.477-.267 1.192-.462 1.509-1.959 1.491-1.911-.013-3.834 0-5.751 0v-.013c-2.033 0-4.077.013-6.11-.006-1.071-.012-1.296-.304-1.083-1.259a1037 1037 0 0 1 6.292-26.09c.159-.633.591-1.162 1.205-1.168 4.193-.043 8.387-.025 12.58 0 .62 0 .967.572.803 1.259zm-57.473-1.716c-.81.152-1.662.176-2.496.194-6.244.067-12.488.147-18.732.165-4.211.006-3.511.207-4.4 3.682-1.12 4.394-1.96 8.861-2.805 13.309-.651 3.402-1.126 6.841-1.692 10.261-.122.742-.712 1.314-1.485 1.326-2.039.031-4.083.013-6.122.013-1.795.006-3.603.048-5.404-.006-.986-.031-1.169-.676-1.005-1.479a3158 3158 0 0 0 4.522-22.846c1.296-6.682 2.52-13.377 3.792-20.071.76-3.986 1.54-7.978 2.318-11.959.049-.231.17-.456.31-.645.214-.273.451-.566.877-.31 2.16 1.302 4.351 2.513 6.907 2.909 1.053.158 2.106.463 3.171.517 1.911.098 3.834.085 5.757.079 3.932-.018 7.57-1.01 10.845-3.219.548-.365 1.15-.085 1.296.633.548 2.69 1.09 5.38 1.6 8.076.902 4.692 1.778 9.384 2.672 14.082.274 1.406.585 2.806.822 4.212a.935.935 0 0 1-.742 1.083zm12.602-135.956c.11 3.03-1.96 5.173-4.284 6.195-1.199.524-3.201-.225-4.138-1.436-1.662-2.142-1.302-5.264.876-7.06 1.582-1.302 3.323-1.868 5.246-.62.195.128.426.219.651.292 1.388.438 1.771 1.467 1.649 2.635zm-1.533.128c-.067-.225-.061-.56-.207-.657-.785-.518-1.558-1.163-2.434-1.4-.585-.152-1.4.182-1.99.517-1.242.712-1.814 1.941-1.76 3.317.056 1.278.822 2.215 2.052 2.684.316.121.712.219 1.016.134 2.008-.579 3.353-2.471 3.317-4.601zm83.381 122.178c-.609-2.8-1.327-5.581-1.917-8.38-1.077-5.143-2.057-10.31-3.165-15.446-1.296-6.068-2.708-12.117-4.016-18.184-1.357-6.305-2.648-12.616-3.974-18.927-1.126-5.374-2.228-10.76-3.402-16.121-.572-2.593-.779-3.615-4.011-3.335-2.142.182-4.296.408-6.444.432-12.488.122-24.97.183-37.458.268-1.199.012-2.428-.134-3.597.073-2.617.48-5.252.383-7.887.407-5.276.043-10.565.074-15.847.116-.84 0-1.692-.018-2.52.073-1.193.134-2.093 1.442-1.838 2.599.627 2.793 1.272 5.58 1.887 8.38 1.18 5.368 2.355 10.735 3.505 16.109 1.023 4.783 2.015 9.573 3.025 14.362.688 3.268 1.357 6.542 2.087 9.804.39 1.747.974 3.451 1.345 5.198 1.589 7.479 3.025 14.983 4.729 22.432.87 3.809-.11 3.925 4.868 3.876 9.111-.091 18.209-.097 27.313-.45 6.956-.268 13.924-.049 20.887-.049v-.213h24.13c.602 0 1.217 0 1.783-.152.267-.073.62-.468.639-.742.042-.706.012-1.443-.134-2.13zm-13.535-55.679c.292 1.4.548 2.812.791 4.224.116.675-.28 1.132-1.004 1.144-3 .036-6 .042-9.001.061-1.917.012-3.84 0-5.757 0v.127c-3.84 0-7.68-.054-11.52.013-2.507.048-5.015.34-7.522.42-3.84.127-7.68.133-11.514.237-1.552.042-3.128-.134-4.632.45-2.872-.207-5.726-.462-7.923-2.684-.937-.949-1.138-1.752-.621-2.915.438-.986.913-1.953 1.412-2.915 1.272-2.464 3.791-3.621 6.56-3.012.938.207 1.863.517 2.8.59.322.024.834-.475.998-.852.176-.395.109-.937.018-1.394-.134-.699-.462-1.363-.572-2.063-.268-1.698.627-2.921 2.294-3.517 1.175-.426 2.356-.499 3.542-.329a23.4 23.4 0 0 1 9.938 3.877c.694.468 1.418.901 2.082 1.412.992.76 2.142 1.016 3.335 1.217 2.002.347 3.566-.42 4.351-2.258.42-.986.633-2.057 1.022-3.055.299-.767.627-1.558 1.114-2.209.657-.889 1.589-1.4 2.775-1.436 1.802-.055 3.542.085 5.325.547 2.355.603 4.498 1.601 6.64 2.672 1.813.907 3.043 2.282 3.469 4.321.511 2.446 1.089 4.887 1.612 7.339zm-68.118 37.653c-.894-3.086-1.497-6.256-2.22-9.397-.232-1.022.437-1.88 1.484-2.002 2.154-.249 4.004.511 5.721 1.692.292.201.578.438.797.718 2.416 3.067 5.514 2.252 8.526 1.388 1.114-.323 2.112-1.09 3.122-1.723 3.469-2.166 6.828-1.984 9.908.597.913.767 1.807 1.57 2.726 2.337 1.242 1.028 2.666 1.576 4.297 1.564 1.801-.012 3.566-.128 5.3-.718a78 78 0 0 1 6.183-1.82c3.98-.992 7.839 1.138 9.159 4.954.767 2.221-.073 4.102-2.276 4.905-.772.286-1.606.432-2.428.548-4.996.663-10.011.912-15.05.876-2.519 0-5.069-.268-7.546.049-6.786.87-13.638.237-20.418.998-.462.054-.943.03-1.412-.019-1.527-.182-3.055-.383-4.576-.578-1.345-1.174-.883-2.915-1.303-4.369zm78.975 19.511c-.955.067-1.917.079-2.878.079-18.866.079-37.732.134-56.592.243-3.949.025-7.899.268-11.849.408-.48.018-.961.043-1.442.03-1.613-.018-1.899-.231-2.227-1.722-.615-2.799-1.211-5.605-1.814-8.404-.225-1.047-.462-2.088-.7-3.134 1.071-.84 2.313-.353 3.469-.384 3.591-.103 7.187.073 10.766-.511 1.053-.177 2.16-.043 3.237-.097 3.341-.183 6.719.139 10.042-.621.797-.183 1.673-.061 2.513-.067 2.526-.012 5.051-.043 7.571-.025 4.211.037 8.392-.176 12.549-.839.122-.019.243-.013.359-.037 4.205-.882 5.739-3.937 4.339-7.82-1.625-4.504-6.354-6.725-11.149-5.441-2.307.621-4.583 1.357-6.895 1.99-.913.25-1.862.402-2.806.499-1.899.195-3.542-.432-4.929-1.74a51 51 0 0 1-1.552-1.497c-1.68-1.692-3.804-2.562-6.068-2.897-1.643-.244-3.316.243-4.826 1.022-.742.378-1.399.925-2.124 1.345-1.454.852-2.951 1.54-4.686 1.692-1.655.146-3.03-.122-4.18-1.473-1.631-1.917-3.859-2.702-6.299-3.134-1.029-.182-1.875.292-2.812.28-.517 0-.925-.237-1.04-.785-1.047-5.033-2.07-10.066-3.14-15.093a1885 1885 0 0 0-3.135-14.362c-1.035-4.662-2.112-9.323-3.134-13.991a5.3 5.3 0 0 1-.067-1.777c.037-.268.402-.676.645-.7 1.077-.103 2.16-.11 3.238-.122 8.526-.067 17.058-.097 25.59-.207 2.617-.036 5.222-.267 7.839-.377q2.517-.099 5.045-.097c4.564-.013 9.135 0 13.693 0v-.213h17.661c1.831 0 1.904.097 2.312 1.618.682 2.532 1.156 5.125 1.692 7.699.043.195-.067.499-.207.639-.134.128-.456.183-.621.116-1.868-.798-3.724-1.625-5.586-2.441-1.887-.827-3.92-1.144-5.922-1.387-1.649-.195-3.298.267-4.801 1.107-1.254.7-1.79 1.893-2.228 3.147-.432 1.241-.815 2.501-1.266 3.73-.28.761-.906 1.083-1.692 1.126-1.095.055-2.148-.043-3.091-.718-.578-.426-1.223-.767-1.801-1.187-3.153-2.319-6.695-3.694-10.517-4.4-2.172-.401-4.296-.304-6.286.767-1.26.675-2.002 1.728-2.082 3.152-.054.956.049 1.917.067 2.873.013.499-.432.815-.973.712-.116-.024-.226-.073-.341-.104-3.506-1.022-6.049.475-8.1 3.147-.651.846-1.242 1.777-1.668 2.757-1.077 2.47-.572 4.345 1.43 6.122 1.68 1.491 3.707 2.288 5.849 2.507 1.886.195 3.828-.079 5.739-.188 1.192-.067 2.379-.305 3.566-.317 7.692-.091 15.379-.128 23.071-.219 1.187-.012 2.373-.219 3.56-.335.475-.042.956-.103 1.436-.109a4211 4211 0 0 1 15.501-.055c.986 0 1.217.17 1.46 1.187a474 474 0 0 1 2.057 9.086c1.303 6.079 2.581 12.159 3.865 18.239.888 4.211 1.765 8.422 2.659 12.634.347 1.637.755 3.262 1.084 4.899.213 1.047.377 2.118.462 3.189a.89.89 0 0 1-.84.98z"/>
</svg>
