<svg xmlns="http://www.w3.org/2000/svg" width="189" height="222" fill="none" viewBox="0 0 189 222">
    <path fill="#f5f4ed" d="M188.197 219.514c-.593-3.097-1.284-6.167-1.842-9.278-1.116-6.194-2.581-12.319-3.823-18.493-1.492-7.38-2.874-14.788-4.346-22.162-1.311-6.578-2.671-13.142-3.99-19.72-1.193-5.909-2.351-11.831-3.543-17.74-1.27-6.313-2.595-12.605-3.865-18.925-1.207-6.041-2.372-12.096-3.572-18.137-1.276-6.453-2.581-12.891-3.878-19.344-.551-2.686-1.095-5.364-1.674-8.05-.238-1.13-.858-1.681-1.954-1.751-.69-.035-1.374-.014-2.071-.014-3.858 0-7.716.035-11.573 0-3.844-.035-4.744.614-3.551-4.241.063-.265.049-.551.063-.83.342-6.306.67-12.62 1.046-18.933.091-1.5.433-2.978.593-4.471.098-.977.565-1.346 1.528-1.563 1.583-.355 1.583-.523 1.353-1.855-.139-.816-.258-1.626-.383-2.442-.182-1.193-.705-2.093-2.009-2.274-.893-.119-1.57-.523-1.863-1.395-1.43-4.102-1.228-3.328-5.364-3.502-.412-.014-.824-.007-1.235-.007-2.756-.035-5.504-.063-8.266-.098-.524-.007-1.019-.586-.942-1.102.118-.816.3-1.618.453-2.42.83-3.99.921-6.118.314-8.915-.565-2.623-1.981-4.41-4.722-5.135a10.4 10.4 0 0 0-4.877-.09c-2.42.523-4.736 1.353-6.968 2.441-3.335 1.619-6.704 3.16-10.038 4.765-1.542.746-3.147.92-4.82.774-.72-.063-1.32-.349-1.682-1.018-.39-.726-.816-1.43-1.172-2.177a296 296 0 0 1-2.455-5.225c-.823-1.786-2.135-3.18-3.586-4.478C81.955.328 79.94-.105 78.12.02c-2.435.167-4.841.997-6.871 2.525-3.175 2.386-5.442 5.476-6.732 9.194-.677 1.925-.907 3.97-.202 6.006.572 1.688 1.583 2.916 3.334 3.356 1.325.327 2.693.739 4.025.69 3.202-.105 5.28 1.019 6.006 4.325.23 1.04.907 1.988 1.416 2.958.984 1.897 2.637 2.741 4.695 2.853 2.358.14 4.68-.014 6.83-1.158 1.087-.586 2.252-1.046 3.292-1.695 3.753-2.295 7.436-4.695 11.203-6.976a68 68 0 0 1 5.797-3.125c1.465-.698 2.741.14 2.895 1.814.118 1.234.251 2.49-.949 3.383-.816.593-1.249 1.423-1.43 2.427-.258 1.354-.983 2.135-2.497 2.275-.558.048-1.347.62-1.549 1.144-.439 1.13-.642 2.378-.795 3.6-.174 1.255.516 2.029 1.821 2.245.258.056.551-.02.823-.007.788.056 1.276.447 1.297 1.263.07 2.49.063 4.967.189 7.43.132 2.462.495 4.917.593 7.386.139 3.844.069 7.695.809 11.504.083.404.062.823.076 1.234.014.789-.397 1.235-1.255 1.242-2.609.028-5.225.077-7.841.007-2.588-.07-5.155.237-7.764.119-4.785-.203-9.592.027-14.384.111-2.714.049-5.434.203-8.155.23-1.353.021-2.713-.244-4.067-.23-3.927.056-7.847.244-11.775.272-7.01.035-14.042-.007-21.06 0-1.374 0-2.755.014-4.13.098-1.095.07-1.75.656-2.008 1.758-.342 1.458-.621 2.95-.921 4.43-1.033 5.238-2.072 10.484-3.09 15.723-1.194 6.18-2.365 12.375-3.572 18.562-.726 3.767-1.514 7.52-2.253 11.28-.642 3.223-1.25 6.46-1.877 9.683-1.242 6.32-2.49 12.633-3.732 18.946-.928 4.702-1.87 9.403-2.79 14.105-1.026 5.239-2.023 10.492-3.042 15.724-1.2 6.194-2.42 12.375-3.627 18.562a5938 5938 0 0 1-3.02 15.319C1.246 213.57.64 216.52.04 219.478c-.189.921.32 1.528 1.346 1.598.412.021.823.021 1.242.021 3.718.007 7.429.007 11.154.007H93.92v.118c1.925 0 3.85.007 5.776 0 10.191-.035 20.376-.111 30.568-.118 18.73-.007 37.446.02 56.183.027.139 0 .272.014.411.014.928-.028 1.542-.697 1.361-1.632zm-76.099-202.43a6.7 6.7 0 0 0-2.365.537 36 36 0 0 0-3.983 2.141c-4.339 2.665-8.615 5.406-12.975 8.022-1.402.837-2.972 1.375-4.486 2.016-.495.217-1.046.328-1.583.405-3.62.516-5.385-.44-6.892-3.76-.398-.865-.684-1.793-1.019-2.686-.816-2.155-2.371-3.278-4.653-3.509a76 76 0 0 1-5.301-.711c-1.611-.28-2.825-1.514-2.888-3.049-.063-1.36-.119-2.825.286-4.087 1.416-4.353 4.032-7.771 8.364-9.627a10 10 0 0 1 2.35-.711c3.586-.642 6.167.892 7.911 3.92.956 1.667 1.681 3.46 2.512 5.204.418.858.788 1.744 1.248 2.581.516.963 1.019 2.058 2.205 2.309 1.283.279 2.469.767 3.983.349a34.5 34.5 0 0 0 5.748-2.19 198 198 0 0 0 7.01-3.516c2.463-1.277 5.135-1.884 7.799-2.575 1.703-.432 3.293.14 4.73.956 1.27.733 1.772 2.086 2.009 3.46.167.942.112 1.918.202 3.544-.334 1.932-.732 4.506-1.227 7.06-.14.697-.754 1.192-1.514 1.157-1.081-.049-2.156-.3-3.223-.307-.6-.007-.698-.341-.732-.711-.084-1.095-.056-2.204-.161-3.3-.174-1.75-1.611-3.027-3.362-2.93zm1.73 9.138c.523-.105 1.074-.196 1.611-.196 3.16-.02 6.306-.006 9.452-.006v.153c3.293 0 6.579.014 9.864-.007 1.109 0 1.814.495 2.17 1.52.244.677-.196 1.486-.872 1.521-.684.035-1.368.021-2.051.05-3.258.097-6.488-.322-9.759-.12-3.391.196-6.83-.23-10.241-.439-.307-.014-.697-.39-.851-.683-.244-.503.258-1.696.677-1.78zm-3.997 7.47c-.517-.062-1.151 0-1.235-.71-.098-.956.704-1.989 1.563-1.989 4.931-.014 9.856-.007 14.788-.007v.028c4.66 0 9.313-.014 13.973.007 1.332.007 1.904.586 2.127 1.967.091.58-.3 1.18-.83 1.165-2.434-.049-4.876-.097-7.31-.181-1.626-.063-3.349-.558-4.877-.189-2.86.677-5.657.098-8.482.105-.405.007-.858-.237-1.2-.118-2.86.934-5.692.244-8.517-.077m3.104 13.29c-.412-1.898-.663-3.335-.44-5.35.175-1.563-.139-3.056-.09-4.64.014-.62.439-.934 1.046-1.011a6 6 0 0 1 .816-.063c7.402-.007 14.789-.028 22.19-.028 1.095 0 1.514.426 1.535 1.423.049 1.716.021 3.418-.028 5.113-.146 4.179-.537 8.33-.963 12.536-.327 3.3-.474 6.62-.732 9.934-.056.641-.481.962-1.088.962-3.293.014-6.585.007-9.878.007v.063c-3.16 0-6.313.02-9.473-.007-1.36-.007-1.751-.37-1.863-1.625-.307-3.328-.788-6.753-.858-10.101-.056-2.33.321-4.94-.167-7.213zM36.236 75.29c.3-1.675.551-3.356 1.318-4.898.391 1.591.83 3.168 1.151 4.772.677 3.348 1.277 6.71 1.933 10.073 1.011 5.232 2.03 10.464 3.048 15.702 1.284 6.572 2.595 13.143 3.85 19.714 1.263 6.585 2.463 13.184 3.705 19.769.202 1.075.51 2.128.718 3.202.28 1.451-.09 2.54-1.318 3.593-2.881 2.455-6.341 3.118-9.87 3.676-1.2.182-2.456.021-3.698.021-3.209.279-6.299-.195-9.201-1.611-.858-.426-1.75-.837-2.47-1.444-1.778-1.493-2.776-3.328-2.274-5.783a3138 3138 0 0 0 5.4-26.508c.99-4.967 1.8-9.955 2.77-14.921.927-4.828 1.952-9.641 2.908-14.468.725-3.62 1.395-7.248 2.044-10.876zm17.014 74.892c.237.586.07 1.032-.412 1.43-3.055 2.574-6.724 3.648-10.568 4.192-1.486.216-3.02.035-4.534.035-2.888.153-5.755.063-8.566-.837a22.7 22.7 0 0 1-5.909-2.86c-1.151-.774-1.535-1.898-1.193-3.251.07-.265.147-.572.321-.732.105-.091.516-.028.642.097 2.93 3.125 6.718 4.032 10.784 4.444 4.005.404 7.911.153 11.769-.963 1.855-.537 3.64-1.276 5.19-2.455 1.834-1.402 1.876-.586 2.476.9M6.603 217.233c-.223 1.667-.851 2.19-2.867 2.107-1.026-.021-1.542-.579-1.347-1.563.88-4.569 1.786-9.138 2.686-13.7q1.52-7.659 3.028-15.305c.941-4.848 1.87-9.683 2.825-14.524a4785 4785 0 0 1 3.795-19.351c1.011-5.099 2.1-10.177 3.083-15.291.977-5.106 1.75-10.261 2.84-15.339.948-4.423 1.757-8.86 2.594-13.296.928-4.848 2.023-9.655 2.979-14.482 1.667-8.33 3.285-16.665 4.904-24.994.132-.677.153-1.368.265-2.044.14-.823.55-1.193 1.367-1.235.551-.028 1.102.007 1.653.035.656.028 1.06.44.963 1.046-.307 2.03-.663 4.046-1.04 6.062-1.29 6.725-2.601 13.443-3.899 20.16-.6 3.098-1.193 6.195-1.8 9.278a2436 2436 0 0 1-3.188 16.121c-1.255 6.306-2.58 12.605-3.808 18.919-.977 4.973-1.835 9.975-2.805 14.942-1.283 6.578-2.762 13.128-3.934 19.727-1.486 8.357-3.174 16.672-4.883 24.981-1.025 4.959-1.828 9.961-2.755 14.949-.175.934-.517 1.855-.65 2.79zm16.288 2.079c-2.337.035-4.68.014-7.017.014-2.058.007-4.13.056-6.195-.007-1.13-.035-1.34-.775-1.15-1.695q2.637-13.078 5.182-26.188c1.486-7.659 2.888-15.332 4.346-23.006.872-4.569 1.765-9.145 2.658-13.707.056-.265.195-.523.356-.74.244-.313.516-.648 1.004-.355 2.477 1.492 4.988 2.881 7.918 3.334 1.207.181 2.413.53 3.634.593 2.19.112 4.395.098 6.6.091 4.506-.021 8.677-1.158 12.43-3.69.628-.419 1.319-.098 1.486.725a701 701 0 0 1 1.834 9.257c1.033 5.378 2.037 10.757 3.063 16.142.314 1.611.67 3.216.942 4.827.097.607-.3 1.144-.851 1.242-.928.174-1.905.202-2.86.223-7.158.077-14.315.167-21.472.188-4.827.007-4.025.238-5.043 4.221-1.284 5.036-2.247 10.157-3.216 15.256-.747 3.899-1.29 7.841-1.94 11.761-.14.851-.816 1.507-1.702 1.521zm39.56.07c-5.364-.077-10.736-.014-16.093-.014v-.021c-5.504 0-11.008.007-16.512 0-.683 0-1.374.021-2.05-.035-.838-.063-1.466-.893-1.34-1.758.258-1.619.412-3.279.858-4.855.753-2.658.9-5.4 1.45-8.078.999-4.688 1.968-9.376 2.966-14.056.083-.405.174-.852.425-1.152.328-.39.837-.941 1.235-.906 2.344.167 4.625-.349 6.962-.335 5.636.028 11.28-.084 16.916-.14.551 0 1.102-.014 1.653.014 1.186.056 1.78.537 1.995 1.681.614 3.223 1.18 6.46 1.814 9.683.942 4.827 1.918 9.661 2.881 14.496.105.53.28 1.067.328 1.611.335 3.739.705 3.92-3.474 3.858zm8.706-.007h-.412v-.014c-.14 0-.272.007-.411 0-1.542-.049-1.681-.098-2.01-1.465a152 152 0 0 1-1.415-6.411c-1.347-6.843-2.658-13.701-3.97-20.558-.927-4.827-1.813-9.682-2.748-14.509-1.298-6.725-2.644-13.436-3.928-20.16-1.506-7.925-2.936-15.87-4.457-23.795-.907-4.702-1.953-9.361-2.874-14.063-.977-4.967-1.856-9.955-2.811-14.921-.963-4.967-2.002-9.927-2.965-14.894-.956-4.973-1.87-9.954-2.811-14.942-.251-1.34-.551-2.678-.768-4.032-.097-.558.028-1.102.663-1.318.67-.224 1.604.014 1.87.474.195.356.446.726.523 1.11.914 4.561 1.786 9.138 2.692 13.7.928 4.701 1.863 9.403 2.826 14.084a5152 5152 0 0 0 4.639 22.518c1.255 6.027 2.602 12.026 3.85 18.06.935 4.555 1.779 9.124 2.7 13.694 1.297 6.431 2.665 12.856 3.962 19.288 1.493 7.38 2.916 14.781 4.423 22.148 1.493 7.241 3.062 14.461 4.576 21.694.188.935.279 1.905.356 2.854.083.99-.426 1.444-1.5 1.465zm22.594-1.919c-.14-.139-.37-.272-.404-.439-1.13-5.609-2.225-11.224-3.376-16.833-.65-3.209-1.41-6.404-2.086-9.606-.189-.927-.356-1.876-.398-2.825-.02-.565.349-1.067.998-1.074 1.925-.028 3.843-.014 5.755-.014v-.084h4.527c1.814.007 2.002.321 1.591 2.24-.74 3.467-1.36 6.954-2.142 10.414-1.36 5.979-2.797 11.943-4.213 17.914-.028.112-.168.217-.252.314zm5.337.586c-.272.963-1.005 1.298-2.288 1.291-.558-.007-1.095-.551-1.026-1.033.014-.132 0-.272.035-.404 1.235-5.323 2.498-10.638 3.684-15.975.746-3.341 1.367-6.697 2.05-10.038.224-1.067.579-2.114.74-3.195.321-2.162 1.5-2.253 3.278-2.002.405.056.74.607 1.012.837-.105.67-.105 1.095-.237 1.486-2.435 7.415-3.774 15.116-5.644 22.664-.53 2.121-1.018 4.255-1.604 6.369m16.826 1.34c-2.191-.014-4.395 0-6.593 0v-.014c-2.329 0-4.673.014-7.003-.007-1.228-.014-1.486-.349-1.242-1.444 2.267-10.004 4.688-19.965 7.213-29.906.181-.725.677-1.332 1.381-1.339 4.807-.049 9.613-.028 14.419 0 .712 0 1.109.656.921 1.444-.656 2.797-1.318 5.581-1.967 8.385-1.633 7.059-3.3 14.105-4.883 21.178-.307 1.368-.53 1.73-2.246 1.709zm45.803-.112c-.949.118-1.926.112-2.888.112-5.916.006-11.845.006-17.761.006l-17.356-.006a79 79 0 0 1-2.881-.063c-.725-.028-1.158-.691-.955-1.486.683-2.658 1.43-5.288 2.051-7.959 1.234-5.33 2.385-10.687 3.606-16.017.495-2.135 1.074-4.255 1.619-6.383.16-.621.606-.851 1.199-.893.147-.007.279-.021.419-.021 8.531-.014 17.07-.021 25.608-.034 1.242 0 1.521.481 1.549 1.423.069 2.769.914 5.399 1.562 8.057 1.661 6.794 3.167 13.609 4.423 20.474.119.669.418 1.318.474 1.988.014.258-.404.767-.662.795zm4.743.077c-.9.048-1.583-.245-2.016-1.096-1.025-1.995-1.179-4.227-1.548-6.362-1.047-6.068-2.533-12.04-3.991-18.011-.446-1.863-.83-3.732-1.192-5.616-.231-1.171.341-1.736 1.653-1.716 1.109.021 1.458.279 1.681 1.361 1.409 6.683 2.776 13.379 4.206 20.055.6 2.811 1.333 5.602 1.974 8.399.154.656.245 1.332.321 2.009.063.523-.453.942-1.081.977zm18.172 0c-4.402.014-8.81.035-13.212 0-1.437-.007-1.8-.419-2.156-1.961-.997-4.401-2.204-8.768-2.943-13.212-.956-5.818-2.812-11.44-3.607-17.279-.23-1.646-.753-2.037-2.504-2.037-11.287 0-22.574.021-33.875.021-13.072 0-26.159-.007-39.224-.021-.147 0-.28-.021-.42-.021-.822.028-1.576.851-1.45 1.647.265 1.758.405 3.557.872 5.266 2.218 8.071 3.432 16.345 5.288 24.492.153.656.167 1.368.146 2.044-.02.586-.328 1.068-1.004 1.068-4.674.014-9.355.007-14.036.014-.767 0-1.297-.328-1.534-1.089-.203-.648-.475-1.29-.6-1.96-1.451-7.255-2.867-14.51-4.34-21.764-.9-4.43-1.883-8.832-2.81-13.261q-1.434-6.834-2.826-13.666a6360 6360 0 0 1-4.715-22.936c-.928-4.549-1.821-9.118-2.756-13.68-1.311-6.445-2.665-12.87-3.962-19.316-1.493-7.387-2.923-14.781-4.423-22.162-1.255-6.166-2.588-12.32-3.871-18.486a10 10 0 0 1-.196-1.632c-.02-.593.217-1.102.872-1.144 1.235-.077 2.47-.09 3.712-.09 16.937-.008 33.86-.008 50.797-.008v-.063c17.482 0 34.97-.007 52.451 0 4.479 0 3.516-.174 4.388 3.753 1.946 8.818 3.46 17.74 5.232 26.6 1.779 8.858 3.788 17.669 5.441 26.556 1.123 6.062 2.455 12.082 3.613 18.123 1.214 6.32 2.588 12.612 3.872 18.911.9 4.444 1.772 8.881 2.644 13.31.935 4.702 1.862 9.404 2.79 14.105.761 3.893 1.507 7.792 2.274 11.685.67 3.355 1.395 6.703 2.072 10.059.433 2.141.872 4.297 1.249 6.459.174 1.033-.321 1.682-1.263 1.689z"/>
    <path fill="#f5f4ed" d="M140.218 34.153c-2.435-.049-4.876-.097-7.311-.181-1.625-.063-3.348-.558-4.876-.189-2.86.677-5.657.098-8.483.105-.404.007-.858-.237-1.199-.118-2.86.934-5.693.244-8.518-.077-.516-.063-1.151 0-1.235-.712-.097-.956.705-1.988 1.563-1.988 4.932-.014 9.857-.007 14.789-.007v.028c4.66 0 9.312-.014 13.972.007 1.333.007 1.905.586 2.128 1.967.091.58-.3 1.18-.83 1.165m-4.166-4.947c-.683.035-1.367.02-2.051.049-3.257.097-6.487-.321-9.759-.119-3.39.195-6.829-.23-10.24-.44-.307-.013-.698-.39-.851-.683-.244-.502.258-1.695.676-1.779.524-.104 1.075-.195 1.612-.195 3.16-.021 6.306-.007 9.452-.007v.153c3.293 0 6.578.014 9.864-.007 1.109 0 1.814.496 2.169 1.521.244.677-.195 1.486-.872 1.52zM50.634 147.209c-2.882 2.455-6.342 3.118-9.871 3.676-1.2.182-2.456.021-3.697.021-3.21.279-6.3-.195-9.202-1.611-.858-.426-1.75-.837-2.469-1.444-1.779-1.493-2.776-3.328-2.274-5.783a3138 3138 0 0 0 5.4-26.508c.99-4.967 1.799-9.955 2.769-14.921.927-4.828 1.953-9.641 2.909-14.468a532 532 0 0 0 2.043-10.876c.3-1.674.552-3.355 1.319-4.897.39 1.59.83 3.167 1.15 4.772.678 3.348 1.277 6.71 1.933 10.073q1.52 7.846 3.049 15.702c1.283 6.572 2.595 13.143 3.85 19.714 1.263 6.585 2.463 13.184 3.704 19.769.203 1.075.51 2.128.719 3.202.279 1.451-.09 2.54-1.319 3.593zm74.375 40.9c-.655 2.797-1.318 5.581-1.967 8.385-1.632 7.059-3.299 14.105-4.883 21.178-.307 1.368-.53 1.73-2.246 1.709-2.19-.014-4.395 0-6.592 0v-.014c-2.33 0-4.674.014-7.004-.007-1.228-.013-1.486-.348-1.242-1.444a1193 1193 0 0 1 7.213-29.905c.182-.725.677-1.332 1.382-1.339 4.806-.049 9.612-.028 14.419 0 .711 0 1.109.656.92 1.444zm-65.878-1.968c-.928.174-1.904.202-2.86.223-7.157.077-14.314.167-21.472.188-4.827.007-4.025.237-5.043 4.221-1.284 5.036-2.246 10.156-3.216 15.256-.746 3.899-1.29 7.84-1.94 11.761-.139.851-.815 1.507-1.701 1.521-2.337.034-4.681.013-7.018.013-2.058.007-4.13.056-6.194-.006-1.13-.035-1.34-.775-1.151-1.696a3605 3605 0 0 0 5.183-26.187c1.485-7.659 2.888-15.333 4.345-23.006.872-4.569 1.765-9.145 2.658-13.707.056-.265.196-.524.356-.74.244-.314.516-.649 1.005-.356 2.476 1.493 4.987 2.881 7.917 3.335 1.207.181 2.414.53 3.635.593 2.19.111 4.394.097 6.599.091 4.506-.021 8.677-1.158 12.43-3.691.628-.418 1.319-.097 1.486.726a696 696 0 0 1 1.835 9.257c1.032 5.378 2.037 10.756 3.062 16.142.314 1.611.67 3.216.942 4.827.098.607-.3 1.144-.851 1.242zM73.577 30.303c.126 3.473-2.246 5.929-4.91 7.1-1.375.6-3.67-.257-4.744-1.645-1.905-2.456-1.493-6.035 1.004-8.092 1.814-1.493 3.809-2.142 6.013-.712.224.147.489.251.747.335 1.59.502 2.03 1.681 1.89 3.02zm-1.758.146c-.076-.258-.07-.642-.237-.753-.9-.593-1.786-1.333-2.79-1.605-.67-.174-1.605.21-2.281.593-1.423.816-2.08 2.225-2.016 3.802.063 1.465.941 2.54 2.35 3.076.363.14.817.251 1.165.154 2.302-.663 3.844-2.833 3.802-5.274zm95.576 140.046c-.698-3.209-1.521-6.397-2.197-9.606-1.235-5.895-2.358-11.817-3.628-17.705-1.486-6.955-3.104-13.888-4.604-20.843-1.556-7.227-3.034-14.461-4.555-21.695-1.291-6.16-2.553-12.333-3.9-18.479-.655-2.972-.892-4.144-4.597-3.823-2.455.21-4.925.468-7.387.496-14.314.14-28.622.209-42.936.306-1.374.014-2.783-.153-4.123.084-3 .551-6.02.44-9.04.468-6.048.049-12.11.083-18.165.132-.963 0-1.94-.02-2.888.084-1.367.153-2.4 1.653-2.107 2.978.718 3.202 1.458 6.397 2.163 9.606 1.353 6.153 2.7 12.306 4.018 18.465 1.172 5.483 2.309 10.973 3.466 16.463.789 3.746 1.556 7.499 2.393 11.238.447 2.002 1.116 3.955 1.542 5.957 1.82 8.574 3.467 17.175 5.42 25.713.998 4.367-.126 4.5 5.58 4.444 10.444-.105 20.872-.112 31.308-.516 7.973-.307 15.961-.056 23.941-.056v-.244h27.659c.691 0 1.395 0 2.044-.175.307-.084.712-.537.732-.851.049-.809.014-1.653-.153-2.441zm-15.514-63.822c.335 1.604.628 3.223.907 4.841.132.775-.321 1.298-1.151 1.312-3.439.042-6.879.049-10.318.069-2.197.014-4.401 0-6.599 0v.147c-4.401 0-8.803-.063-13.205.014-2.874.056-5.748.391-8.622.481-4.402.147-8.803.154-13.198.272-1.779.049-3.586-.153-5.309.516-3.292-.237-6.564-.53-9.082-3.076-1.075-1.088-1.305-2.009-.712-3.341a62 62 0 0 1 1.619-3.342c1.457-2.825 4.346-4.15 7.52-3.453 1.074.238 2.134.593 3.208.677.37.028.956-.544 1.144-.977.203-.453.126-1.074.021-1.597-.153-.802-.53-1.563-.655-2.365-.307-1.946.718-3.348 2.629-4.032 1.347-.488 2.7-.572 4.06-.377 4.13.6 7.939 2.086 11.392 4.444.795.537 1.625 1.032 2.386 1.618 1.137.872 2.455 1.165 3.822 1.395 2.295.398 4.088-.48 4.988-2.588.481-1.13.725-2.357 1.172-3.501.342-.88.718-1.786 1.277-2.533.753-1.018 1.82-1.604 3.18-1.646 2.065-.063 4.06.098 6.104.628 2.7.69 5.155 1.835 7.611 3.062 2.079 1.04 3.488 2.616 3.976 4.953.586 2.804 1.249 5.602 1.849 8.413zm-78.08 43.159c-1.026-3.536-1.716-7.171-2.547-10.77-.265-1.172.503-2.156 1.703-2.295 2.469-.286 4.59.586 6.557 1.939.335.23.663.502.914.823 2.77 3.516 6.32 2.581 9.773 1.591 1.276-.37 2.42-1.249 3.578-1.975 3.977-2.483 7.827-2.274 11.357.684 1.046.879 2.072 1.8 3.125 2.679 1.423 1.179 3.055 1.806 4.925 1.792 2.065-.013 4.088-.146 6.076-.823a90 90 0 0 1 7.087-2.085c4.562-1.137 8.985 1.304 10.499 5.678.879 2.546-.084 4.702-2.609 5.622-.886.328-1.842.496-2.783.628-5.728.761-11.476 1.047-17.252 1.005-2.888 0-5.81-.307-8.65.056-7.778.997-15.632.272-23.403 1.144-.53.062-1.082.034-1.619-.021-1.75-.21-3.502-.44-5.245-.663-1.542-1.346-1.012-3.342-1.493-5.009zm90.525 22.365c-1.096.076-2.198.09-3.3.09-21.625.091-43.25.154-64.868.279-4.527.028-9.055.307-13.582.468-.55.021-1.102.049-1.653.035-1.849-.021-2.177-.265-2.553-1.974-.705-3.209-1.388-6.425-2.079-9.634-.258-1.2-.53-2.393-.802-3.593 1.227-.962 2.65-.404 3.976-.439 4.116-.119 8.238.084 12.34-.586 1.207-.202 2.477-.049 3.711-.112 3.83-.209 7.702.161 11.51-.711.914-.209 1.919-.07 2.881-.077 2.895-.014 5.79-.049 8.678-.028 4.828.042 9.62-.202 14.384-.962.14-.021.279-.014.412-.042 4.82-1.012 6.578-4.514 4.974-8.964-1.863-5.162-7.283-7.708-12.78-6.237-2.644.712-5.253 1.556-7.904 2.281-1.046.286-2.134.461-3.215.573-2.177.223-4.06-.496-5.651-1.996-.6-.558-1.2-1.13-1.779-1.716-1.925-1.939-4.36-2.936-6.955-3.32-1.883-.279-3.801.279-5.531 1.172-.851.432-1.605 1.06-2.435 1.541-1.667.977-3.383 1.765-5.371 1.94-1.898.167-3.474-.14-4.793-1.688-1.87-2.198-4.422-3.098-7.22-3.593-1.178-.209-2.148.335-3.222.321-.593 0-1.06-.272-1.193-.9-1.2-5.769-2.372-11.538-3.6-17.3a2160 2160 0 0 0-3.592-16.463c-1.186-5.343-2.42-10.687-3.593-16.037a6 6 0 0 1-.077-2.037c.042-.307.46-.774.74-.802 1.235-.119 2.476-.126 3.711-.14 9.773-.077 19.553-.111 29.333-.237 3-.042 5.986-.307 8.985-.433q2.886-.112 5.783-.111c5.232-.014 10.471 0 15.696 0v-.244h20.243c2.1 0 2.184.111 2.651 1.855.781 2.902 1.326 5.874 1.939 8.825.049.223-.076.572-.237.732-.153.147-.523.21-.711.133-2.142-.914-4.27-1.863-6.404-2.798-2.163-.948-4.493-1.311-6.788-1.59-1.89-.223-3.78.307-5.503 1.27-1.437.802-2.051 2.169-2.554 3.606-.495 1.423-.934 2.867-1.451 4.276-.32.872-1.039 1.242-1.939 1.29-1.255.063-2.462-.048-3.544-.822-.662-.489-1.402-.88-2.064-1.36-3.614-2.659-7.674-4.235-12.055-5.044-2.49-.46-4.924-.349-7.206.879-1.444.774-2.295 1.98-2.385 3.613-.063 1.095.056 2.198.076 3.293.014.572-.495.934-1.116.816-.132-.028-.258-.084-.39-.119-4.018-1.172-6.934.544-9.285 3.607-.746.969-1.423 2.037-1.911 3.16-1.235 2.832-.656 4.981 1.639 7.018 1.925 1.709 4.248 2.622 6.704 2.874 2.162.223 4.387-.091 6.578-.217 1.367-.076 2.727-.348 4.088-.362 8.817-.105 17.627-.147 26.445-.252 1.36-.014 2.72-.251 4.081-.383.544-.049 1.095-.119 1.646-.126 5.915-.028 11.845-.056 17.767-.063 1.13 0 1.395.196 1.674 1.361a537 537 0 0 1 2.358 10.415c1.493 6.968 2.958 13.937 4.43 20.906 1.018 4.827 2.023 9.655 3.048 14.482.398 1.876.865 3.739 1.242 5.615.244 1.2.433 2.428.53 3.656a1.02 1.02 0 0 1-.962 1.123z"/>
</svg>
