<svg xmlns="http://www.w3.org/2000/svg" width="321" height="321" fill="none" viewBox="0 0 321 321">
    <path fill="#1e1c1c" d="M269.439 286.519c-.687-3.584-1.486-7.136-2.133-10.736-1.292-7.169-2.989-14.256-4.427-21.4-1.728-8.541-3.328-17.113-5.032-25.646-1.519-7.612-3.094-15.208-4.621-22.82-1.381-6.837-2.722-13.691-4.104-20.528-1.47-7.305-3.005-14.587-4.475-21.9-1.398-6.991-2.747-13.998-4.136-20.988-1.479-7.467-2.989-14.918-4.492-22.385-.638-3.107-1.268-6.207-1.938-9.315-.275-1.308-.994-1.945-2.262-2.026-.8-.041-1.592-.016-2.4-.016-4.467 0-8.934.04-13.401 0-4.452-.041-5.494.71-4.112-4.908.072-.307.056-.638.072-.961.396-7.297.776-14.603 1.212-21.908.105-1.736.501-3.447.687-5.174.113-1.13.654-1.558 1.769-1.809 1.834-.411 1.834-.605 1.567-2.147-.161-.944-.299-1.88-.444-2.825-.21-1.38-.816-2.422-2.327-2.632-1.034-.137-1.817-.605-2.157-1.614-1.656-4.747-1.421-3.85-6.212-4.053-.476-.016-.953-.008-1.43-.008-3.19-.04-6.373-.072-9.572-.113-.606-.008-1.18-.678-1.091-1.275.137-.944.348-1.873.525-2.801.962-4.617 1.067-7.08.364-10.316-.655-3.036-2.294-5.102-5.469-5.942a12.05 12.05 0 0 0-5.647-.105c-2.803.606-5.485 1.566-8.07 2.826-3.861 1.873-7.763 3.656-11.625 5.513-1.785.864-3.643 1.066-5.582.896-.832-.073-1.526-.404-1.947-1.178-.452-.84-.945-1.655-1.357-2.519a346 346 0 0 1-2.843-6.046c-.953-2.067-2.472-3.681-4.152-5.183-1.77-1.598-4.104-2.098-6.213-1.953-2.819.194-5.606 1.154-7.957 2.922-3.675 2.76-6.301 6.337-7.795 10.64-.784 2.227-1.05 4.593-.234 6.95.662 1.953 1.833 3.374 3.861 3.882 1.535.38 3.118.856 4.661.8 3.708-.122 6.115 1.178 6.955 5.004.267 1.203 1.051 2.301 1.64 3.423 1.139 2.196 3.054 3.172 5.437 3.302 2.73.161 5.42-.017 7.909-1.34 1.26-.678 2.609-1.211 3.813-1.962 4.346-2.656 8.611-5.433 12.973-8.072a79 79 0 0 1 6.713-3.617c1.697-.807 3.175.162 3.353 2.1.137 1.428.29 2.88-1.099 3.914-.945.686-1.446 1.647-1.656 2.81-.299 1.565-1.139 2.47-2.892 2.63-.646.057-1.559.72-1.793 1.325-.509 1.308-.744 2.752-.921 4.165-.202 1.453.597 2.35 2.108 2.6.299.064.638-.025.953-.009.913.065 1.479.517 1.503 1.461.081 2.882.073 5.748.218 8.597.153 2.85.574 5.691.687 8.549.161 4.448.08 8.904.937 13.311.097.468.072.953.089 1.429.016.912-.461 1.429-1.455 1.437-3.021.032-6.05.089-9.079.008-2.997-.081-5.97.274-8.992.137-5.541-.234-11.107.032-16.657.129-3.142.057-6.293.234-9.443.267-1.567.024-3.143-.283-4.71-.267-4.548.065-9.088.283-13.636.315-8.119.04-16.261-.008-24.388 0-1.592 0-3.191.016-4.782.113-1.269.081-2.028.759-2.327 2.034-.396 1.687-.719 3.415-1.066 5.126-1.196 6.063-2.4 12.133-3.579 18.195-1.381 7.152-2.739 14.32-4.136 21.481-.84 4.359-1.753 8.702-2.61 13.052-.742 3.73-1.445 7.475-2.172 11.205-1.438 7.313-2.884 14.619-4.322 21.924-1.075 5.441-2.165 10.882-3.231 16.322-1.188 6.063-2.343 12.141-3.523 18.195-1.39 7.169-2.803 14.321-4.2 21.481a6806 6806 0 0 1-3.498 17.726c-.679 3.423-1.382 6.838-2.076 10.26-.218 1.066.371 1.768 1.559 1.849.476.024.953.024 1.438.024 4.305.008 8.603.008 12.917.008h92.803v.137c2.229 0 4.459.008 6.688 0 11.803-.04 23.597-.129 35.399-.137 21.69-.008 43.364.024 65.062.032.162 0 .315.017.477.017 1.074-.033 1.785-.808 1.575-1.889zm-88.126-234.25c-.92.04-1.906.25-2.738.621a42 42 0 0 0-4.613 2.478c-5.024 3.084-9.976 6.256-15.025 9.284-1.624.968-3.442 1.59-5.195 2.332-.573.25-1.211.38-1.833.469-4.193.597-6.237-.509-7.982-4.351-.46-1.001-.791-2.075-1.179-3.108-.945-2.494-2.747-3.794-5.388-4.06a88 88 0 0 1-6.14-.824c-1.866-.323-3.271-1.751-3.344-3.527-.073-1.575-.137-3.27.331-4.73 1.64-5.038 4.669-8.993 9.686-11.14.872-.38 1.793-.67 2.722-.824 4.153-.743 7.142 1.033 9.161 4.537 1.107 1.929 1.947 4.004 2.908 6.022.485.992.913 2.018 1.446 2.986.598 1.114 1.18 2.382 2.553 2.672 1.486.323 2.86.888 4.613.404a40 40 0 0 0 6.656-2.535c2.739-1.3 5.437-2.664 8.119-4.068 2.851-1.477 5.945-2.18 9.031-2.979 1.971-.5 3.813.162 5.477 1.106 1.47.848 2.052 2.414 2.327 4.004.194 1.09.129 2.22.234 4.1-.388 2.237-.848 5.215-1.422 8.17-.161.807-.872 1.38-1.753 1.34-1.252-.057-2.496-.347-3.732-.355-.695-.008-.808-.396-.848-.824-.097-1.267-.065-2.55-.186-3.818-.202-2.026-1.866-3.503-3.894-3.39zm2.004 10.575c.606-.122 1.244-.227 1.866-.227 3.659-.024 7.303-.008 10.946-.008v.178c3.813 0 7.618.016 11.423-.008 1.284 0 2.1.573 2.512 1.76.283.783-.226 1.719-1.01 1.76-.792.04-1.583.024-2.375.056-3.772.113-7.513-.371-11.301-.137-3.926.226-7.909-.267-11.859-.509-.356-.016-.808-.452-.986-.791-.282-.581.299-1.962.784-2.058zm-4.629 8.645c-.598-.073-1.333 0-1.43-.824-.113-1.105.816-2.3 1.81-2.3 5.711-.016 11.414-.008 17.126-.008v.032c5.396 0 10.784-.016 16.18.008 1.543.008 2.206.678 2.464 2.277.105.67-.347 1.364-.961 1.348-2.819-.057-5.647-.113-8.466-.21-1.882-.073-3.878-.646-5.647-.218-3.312.783-6.551.113-9.823.12-.468.009-.994-.273-1.389-.136-3.312 1.081-6.592.282-9.864-.09m3.595 15.378c-.477-2.196-.768-3.859-.509-6.192.202-1.808-.162-3.535-.105-5.368.016-.718.509-1.082 1.212-1.17a7 7 0 0 1 .945-.073c8.571-.008 17.126-.032 25.697-.032 1.268 0 1.753.492 1.777 1.646.056 1.986.024 3.956-.032 5.917-.17 4.836-.622 9.639-1.115 14.506-.38 3.819-.55 7.661-.848 11.495-.065.743-.558 1.114-1.261 1.114-3.813.016-7.625.008-11.438.008v.073c-3.66 0-7.311.024-10.971-.008-1.575-.008-2.027-.428-2.157-1.881-.355-3.85-.912-7.814-.993-11.689-.065-2.696.371-5.715-.194-8.346zm-88.82 32.757c.347-1.937.638-3.883 1.527-5.667.452 1.841.96 3.665 1.332 5.522.784 3.874 1.479 7.765 2.238 11.656 1.171 6.054 2.351 12.109 3.53 18.171 1.487 7.604 3.005 15.208 4.459 22.812 1.463 7.62 2.852 15.257 4.29 22.877.234 1.243.59 2.462.832 3.705.323 1.679-.105 2.939-1.527 4.157-3.336 2.842-7.343 3.609-11.43 4.255-1.39.209-2.844.024-4.282.024-3.716.323-7.295-.226-10.655-1.865-.994-.492-2.028-.969-2.86-1.671-2.06-1.727-3.215-3.85-2.633-6.692a3614 3614 0 0 0 6.252-30.675c1.147-5.747 2.084-11.519 3.207-17.266 1.075-5.586 2.262-11.156 3.369-16.742a616 616 0 0 0 2.367-12.585zm19.702 86.664c.275.678.081 1.195-.476 1.655-3.538 2.979-7.788 4.222-12.239 4.851-1.72.251-3.498.041-5.25.041-3.345.177-6.665.072-9.92-.969-2.448-.783-4.734-1.873-6.843-3.31-1.333-.896-1.777-2.195-1.381-3.761.08-.307.17-.662.371-.848.121-.105.598-.032.744.113 3.392 3.617 7.779 4.666 12.488 5.142 4.637.468 9.161.178 13.629-1.114 2.148-.621 4.216-1.477 6.01-2.841 2.124-1.623 2.173-.678 2.867 1.041m-54.019 77.591c-.258 1.929-.985 2.535-3.32 2.438-1.187-.024-1.785-.67-1.559-1.808 1.018-5.288 2.068-10.575 3.11-15.854 1.171-5.909 2.343-11.81 3.506-17.711 1.09-5.61 2.165-11.204 3.272-16.806a5477 5477 0 0 1 4.394-22.393c1.172-5.901 2.432-11.777 3.571-17.694 1.13-5.909 2.028-11.875 3.288-17.751 1.099-5.118 2.035-10.252 3.005-15.386 1.074-5.61 2.343-11.172 3.45-16.758 1.93-9.639 3.804-19.285 5.678-28.923.154-.783.178-1.583.307-2.366.162-.952.639-1.38 1.584-1.428.638-.033 1.276.008 1.914.04.76.032 1.228.509 1.115 1.211a205 205 0 0 1-1.204 7.015c-1.494 7.781-3.013 15.555-4.515 23.329-.695 3.584-1.382 7.168-2.085 10.736a2814 2814 0 0 1-3.691 18.655c-1.454 7.297-2.99 14.587-4.411 21.892-1.131 5.755-2.125 11.543-3.248 17.291-1.486 7.612-3.198 15.192-4.556 22.828-1.72 9.671-3.675 19.293-5.654 28.907-1.188 5.74-2.117 11.527-3.191 17.299-.202 1.082-.598 2.147-.752 3.229zm18.863 2.406c-2.706.04-5.42.016-8.127.016-2.383.008-4.782.064-7.173-.008-1.309-.041-1.551-.896-1.333-1.962q3.056-15.134 6.002-30.303c1.72-8.864 3.344-17.743 5.033-26.623a3469 3469 0 0 1 3.078-15.862c.064-.307.226-.605.412-.855.282-.364.597-.751 1.163-.412 2.868 1.727 5.776 3.334 9.169 3.858 1.397.21 2.795.614 4.208.687 2.537.129 5.09.113 7.642.105 5.219-.025 10.05-1.34 14.396-4.271.727-.484 1.527-.113 1.721.84a801 801 0 0 1 2.124 10.712c1.196 6.223 2.359 12.447 3.546 18.679.364 1.865.776 3.721 1.091 5.586.113.702-.347 1.324-.986 1.437-1.074.202-2.205.234-3.312.258-8.288.089-16.576.194-24.864.218-5.59.008-4.662.275-5.841 4.884-1.486 5.828-2.601 11.753-3.724 17.654-.864 4.512-1.495 9.073-2.246 13.61-.161.985-.945 1.744-1.97 1.76zm45.812.08c-6.212-.088-12.433-.016-18.637-.016v-.024c-6.373 0-12.747.008-19.121 0-.792 0-1.591.024-2.375-.04-.97-.073-1.696-1.034-1.551-2.035.299-1.872.477-3.794.994-5.618.872-3.075 1.042-6.248 1.68-9.348 1.155-5.424 2.278-10.849 3.433-16.265.097-.469.202-.985.493-1.332.38-.452.97-1.09 1.43-1.05 2.714.194 5.356-.403 8.062-.387 6.527.032 13.062-.097 19.59-.162.638 0 1.276-.016 1.914.017 1.373.064 2.06.621 2.31 1.945.711 3.729 1.366 7.475 2.101 11.204 1.09 5.586 2.221 11.18 3.336 16.775.121.613.323 1.235.38 1.864.388 4.327.816 4.537-4.023 4.464zm10.081-.008h-.476v-.016c-.162 0-.315.008-.477 0-1.785-.056-1.947-.113-2.326-1.695a174 174 0 0 1-1.64-7.419c-1.559-7.918-3.078-15.854-4.597-23.789-1.074-5.586-2.1-11.204-3.183-16.79-1.502-7.782-3.061-15.547-4.548-23.329-1.745-9.17-3.401-18.364-5.162-27.534-1.05-5.441-2.262-10.833-3.328-16.274-1.131-5.748-2.149-11.519-3.255-17.267-1.115-5.747-2.319-11.487-3.434-17.234-1.106-5.756-2.165-11.519-3.255-17.291-.291-1.55-.638-3.1-.889-4.666-.113-.646.033-1.275.768-1.526.775-.258 1.858.017 2.165.549.226.412.517.84.605 1.284 1.059 5.279 2.068 10.575 3.119 15.854a2096 2096 0 0 0 3.271 16.298 6023 6023 0 0 0 5.372 26.057c1.454 6.975 3.014 13.917 4.46 20.899 1.082 5.272 2.059 10.559 3.126 15.846 1.502 7.443 3.086 14.878 4.588 22.32 1.729 8.541 3.377 17.105 5.122 25.63 1.729 8.379 3.546 16.734 5.299 25.105.218 1.081.323 2.203.412 3.301.097 1.146-.493 1.671-1.737 1.695zm26.166-2.22c-.162-.161-.428-.314-.469-.508-1.308-6.49-2.577-12.989-3.91-19.479-.751-3.713-1.631-7.41-2.415-11.115-.218-1.074-.412-2.172-.461-3.269-.024-.654.404-1.236 1.156-1.244 2.229-.032 4.451-.016 6.664-.016v-.097h5.243c2.1.008 2.318.372 1.842 2.592-.856 4.012-1.575 8.048-2.48 12.052-1.575 6.917-3.24 13.819-4.879 20.729-.033.129-.194.25-.291.363zm6.18.678c-.315 1.114-1.164 1.502-2.65 1.494-.646-.008-1.268-.638-1.188-1.195.017-.153 0-.315.041-.468 1.43-6.159 2.892-12.31 4.265-18.486.864-3.866 1.583-7.749 2.375-11.616.259-1.235.671-2.446.856-3.697.372-2.502 1.737-2.607 3.797-2.317.469.065.856.703 1.172.969-.122.775-.122 1.267-.275 1.72-2.819 8.58-4.37 17.492-6.535 26.226-.614 2.454-1.18 4.925-1.858 7.37m19.484 1.55c-2.536-.016-5.089 0-7.634 0v-.016c-2.698 0-5.412.016-8.11-.008-1.422-.016-1.721-.403-1.438-1.671 2.625-11.576 5.428-23.103 8.353-34.606.21-.839.783-1.542 1.599-1.55 5.566-.056 11.132-.032 16.698 0 .824 0 1.284.759 1.066 1.671-.759 3.237-1.526 6.458-2.278 9.703-1.89 8.169-3.821 16.322-5.655 24.508-.355 1.582-.613 2.002-2.601 1.977zm53.042-.129c-1.099.137-2.23.129-3.344.129-6.851.008-13.717.008-20.568.008l-20.098-.008a93 93 0 0 1-3.337-.072c-.84-.033-1.341-.799-1.106-1.72.791-3.075 1.656-6.119 2.375-9.21 1.43-6.167 2.762-12.367 4.176-18.534.574-2.47 1.244-4.924 1.874-7.386.186-.719.703-.985 1.39-1.034.169-.008.323-.024.484-.024 9.88-.016 19.768-.024 29.656-.04 1.438 0 1.761.557 1.793 1.647.081 3.204 1.058 6.248 1.81 9.323 1.922 7.862 3.667 15.749 5.121 23.692.138.775.485 1.526.549 2.301.017.299-.468.888-.767.92zm5.493.089c-1.042.056-1.834-.283-2.334-1.267-1.188-2.309-1.366-4.892-1.794-7.362-1.212-7.023-2.932-13.933-4.621-20.843a147 147 0 0 1-1.381-6.498c-.267-1.356.396-2.01 1.915-1.986 1.284.024 1.688.323 1.946 1.574 1.632 7.733 3.216 15.483 4.872 23.208.694 3.253 1.543 6.482 2.286 9.719.177.759.283 1.542.371 2.325.073.605-.525 1.09-1.252 1.13zm21.044 0c-5.097.016-10.203.04-15.3 0-1.664-.008-2.084-.484-2.496-2.268-1.156-5.094-2.553-10.147-3.409-15.289-1.107-6.733-3.256-13.239-4.177-19.995-.266-1.905-.872-2.357-2.9-2.357-13.071 0-26.141.024-39.228.024-15.138 0-30.293-.008-45.424-.024-.169 0-.323-.025-.484-.025-.954.033-1.826.985-1.681 1.905.307 2.035.469 4.117 1.01 6.095 2.569 9.34 3.975 18.913 6.123 28.342.178.759.194 1.582.17 2.365-.024.678-.38 1.235-1.163 1.235-5.413.016-10.833.008-16.254.016-.888 0-1.502-.379-1.777-1.259-.234-.751-.549-1.493-.695-2.268-1.68-8.396-3.32-16.791-5.024-25.186-1.042-5.126-2.181-10.219-3.256-15.345a2707 2707 0 0 1-3.271-15.814 7170 7170 0 0 1-5.461-26.542c-1.075-5.263-2.109-10.55-3.191-15.83-1.519-7.458-3.086-14.893-4.589-22.352-1.728-8.548-3.385-17.105-5.121-25.645-1.454-7.136-2.997-14.256-4.484-21.392a11.4 11.4 0 0 1-.226-1.889c-.024-.686.25-1.275 1.01-1.324 1.43-.089 2.86-.105 4.297-.105 19.614-.008 39.212-.008 58.826-.008v-.072c20.244 0 40.496-.008 60.74 0 5.187 0 4.072-.202 5.082 4.342 2.253 10.204 4.006 20.528 6.058 30.78 2.06 10.252 4.387 20.447 6.301 30.731 1.301 7.015 2.844 13.982 4.185 20.972 1.405 7.314 2.997 14.595 4.483 21.884 1.042 5.142 2.052 10.276 3.062 15.402q1.621 8.162 3.231 16.322c.881 4.505 1.745 9.017 2.634 13.521.775 3.883 1.615 7.758 2.399 11.641.501 2.478 1.01 4.972 1.446 7.475.202 1.194-.372 1.945-1.462 1.953z"/>
    <path fill="#1e1c1c" d="M213.877 72.022c-2.819-.057-5.647-.113-8.466-.21-1.882-.073-3.878-.646-5.647-.218-3.312.783-6.551.113-9.823.12-.468.009-.994-.273-1.389-.136-3.312 1.081-6.592.282-9.864-.09-.598-.072-1.333 0-1.43-.823-.113-1.105.816-2.3 1.81-2.3 5.711-.016 11.414-.008 17.126-.008v.032c5.396 0 10.784-.016 16.18.008 1.543.008 2.206.678 2.464 2.277.105.67-.347 1.364-.961 1.348m-4.823-5.724c-.792.04-1.583.025-2.375.057-3.772.113-7.513-.371-11.301-.137-3.926.226-7.909-.267-11.859-.509-.356-.016-.808-.452-.986-.791-.282-.581.299-1.962.784-2.058.606-.121 1.244-.226 1.866-.226 3.659-.025 7.303-.008 10.946-.008v.177c3.813 0 7.618.016 11.422-.008 1.285 0 2.101.573 2.513 1.76.282.783-.226 1.72-1.01 1.76zm-98.918 136.551c-3.337 2.842-7.344 3.609-11.431 4.254-1.39.21-2.844.025-4.282.025-3.716.323-7.294-.226-10.655-1.865-.993-.493-2.027-.969-2.86-1.671-2.06-1.728-3.215-3.851-2.633-6.692a3618 3618 0 0 0 6.253-30.675c1.147-5.747 2.084-11.519 3.207-17.266 1.074-5.586 2.262-11.156 3.368-16.742a616 616 0 0 0 2.367-12.585c.348-1.937.638-3.883 1.527-5.667.452 1.841.961 3.665 1.333 5.522.784 3.874 1.478 7.765 2.238 11.656 1.17 6.054 2.35 12.109 3.53 18.171 1.486 7.604 3.005 15.208 4.459 22.812 1.462 7.62 2.852 15.257 4.29 22.877.234 1.243.589 2.462.832 3.705.323 1.679-.105 2.938-1.527 4.157zm86.13 47.328c-.76 3.237-1.527 6.458-2.278 9.703-1.891 8.169-3.821 16.322-5.655 24.508-.356 1.582-.613 2.002-2.601 1.977-2.536-.016-5.089 0-7.634 0v-.016c-2.698 0-5.412.016-8.11-.008-1.422-.016-1.721-.403-1.438-1.671 2.625-11.576 5.428-23.103 8.353-34.606.21-.839.783-1.542 1.599-1.55 5.566-.056 11.132-.032 16.698 0 .824 0 1.284.759 1.066 1.671zm-76.29-2.277c-1.074.202-2.205.234-3.312.259-8.288.089-16.577.193-24.865.218-5.59.008-4.661.274-5.84 4.883-1.487 5.829-2.602 11.754-3.725 17.655-.864 4.512-1.494 9.073-2.245 13.609-.162.985-.946 1.744-1.971 1.76-2.707.041-5.42.016-8.127.016-2.383.008-4.782.065-7.174-.008-1.308-.04-1.55-.896-1.332-1.961a4187 4187 0 0 0 6.002-30.304c1.72-8.863 3.344-17.743 5.032-26.622 1.01-5.288 2.044-10.583 3.078-15.862.065-.307.226-.606.412-.856.283-.363.598-.751 1.163-.412 2.868 1.728 5.776 3.334 9.17 3.859 1.397.21 2.794.613 4.208.686 2.537.129 5.09.113 7.642.105 5.219-.024 10.049-1.34 14.395-4.27.727-.484 1.527-.113 1.721.839a817 817 0 0 1 2.125 10.712c1.195 6.224 2.358 12.448 3.546 18.68.364 1.864.776 3.721 1.091 5.586.113.702-.348 1.323-.986 1.436zm16.729-180.335c.146 4.02-2.601 6.862-5.687 8.218-1.591.694-4.249-.299-5.493-1.905-2.205-2.841-1.729-6.983 1.163-9.364 2.101-1.727 4.411-2.478 6.964-.823.258.17.565.29.864.387 1.842.581 2.351 1.946 2.189 3.495zm-2.036.17c-.088-.299-.08-.743-.274-.872-1.042-.686-2.068-1.542-3.231-1.856-.776-.202-1.858.242-2.642.686-1.648.944-2.407 2.575-2.335 4.4.073 1.694 1.091 2.937 2.723 3.559.42.161.945.29 1.349.177 2.666-.766 4.451-3.277 4.402-6.102zm110.681 162.06c-.808-3.714-1.761-7.403-2.545-11.116-1.43-6.821-2.73-13.674-4.201-20.487-1.72-8.048-3.594-16.072-5.331-24.12-1.802-8.363-3.514-16.734-5.275-25.105-1.495-7.128-2.957-14.272-4.516-21.384-.759-3.439-1.034-4.795-5.324-4.423-2.843.242-5.703.541-8.555.573-16.576.161-33.145.242-49.721.355-1.592.016-3.223-.178-4.774.097-3.474.638-6.972.508-10.47.541-7.004.056-14.024.097-21.035.153-1.115 0-2.246-.024-3.345.097-1.583.178-2.779 1.913-2.439 3.447.832 3.705 1.688 7.402 2.504 11.115a3909 3909 0 0 1 4.653 21.368c1.357 6.345 2.674 12.697 4.015 19.05.913 4.335 1.801 8.678 2.771 13.005.517 2.317 1.292 4.577 1.785 6.894 2.108 9.92 4.015 19.874 6.277 29.754 1.155 5.053-.146 5.207 6.462 5.142 12.093-.121 24.17-.129 36.255-.597 9.234-.355 18.483-.065 27.725-.065v-.282h32.03c.8 0 1.616 0 2.367-.202.355-.097.824-.622.848-.985.057-.936.016-1.913-.178-2.825zm-17.966-73.854c.387 1.857.727 3.73 1.05 5.602.153.896-.372 1.502-1.333 1.518-3.983.048-7.965.057-11.948.081-2.544.016-5.097 0-7.642 0v.169c-5.097 0-10.195-.072-15.292.016-3.328.065-6.656.452-9.985.557-5.097.17-10.194.178-15.284.315-2.06.057-4.152-.177-6.147.598-3.813-.275-7.602-.614-10.518-3.56-1.244-1.26-1.511-2.325-.824-3.867a72 72 0 0 1 1.874-3.867c1.688-3.269 5.033-4.803 8.708-3.995 1.245.274 2.472.686 3.716.783.429.032 1.107-.63 1.325-1.13.235-.525.146-1.244.025-1.849-.178-.928-.614-1.808-.76-2.737-.355-2.252.832-3.874 3.046-4.665 1.559-.565 3.126-.662 4.701-.436a31.05 31.05 0 0 1 13.192 5.142c.921.621 1.882 1.195 2.763 1.873 1.316 1.009 2.843 1.348 4.427 1.614 2.657.46 4.733-.557 5.776-2.995.557-1.307.84-2.728 1.357-4.052.396-1.017.832-2.067 1.478-2.93.872-1.179 2.108-1.857 3.684-1.905 2.391-.073 4.701.113 7.068.726 3.126.799 5.97 2.123 8.813 3.544 2.408 1.203 4.04 3.027 4.605 5.731.679 3.245 1.446 6.482 2.141 9.735zm-90.42 49.944c-1.188-4.093-1.987-8.299-2.949-12.464-.307-1.356.582-2.494 1.971-2.656 2.86-.331 5.316.678 7.594 2.244.388.267.767.581 1.058.953 3.207 4.068 7.319 2.987 11.318 1.84 1.478-.428 2.803-1.445 4.144-2.284 4.605-2.874 9.064-2.632 13.151.791 1.212 1.017 2.4 2.083 3.619 3.1 1.648 1.364 3.539 2.09 5.704 2.074 2.391-.016 4.734-.169 7.036-.952a104 104 0 0 1 8.207-2.414c5.283-1.316 10.405 1.51 12.158 6.571 1.018 2.946-.097 5.441-3.021 6.506-1.026.38-2.133.573-3.223.727-6.633.88-13.289 1.211-19.978 1.162-3.344 0-6.729-.355-10.017.065-9.007 1.154-18.103.315-27.102 1.324-.614.072-1.253.04-1.875-.025-2.027-.242-4.055-.508-6.074-.767-1.786-1.557-1.172-3.866-1.729-5.795zm104.831 25.879c-1.268.089-2.544.105-3.821.105-25.042.105-50.085.178-75.119.323-5.243.032-10.486.355-15.729.541-.638.024-1.276.057-1.914.04-2.141-.024-2.521-.306-2.957-2.284-.816-3.713-1.607-7.435-2.407-11.148-.299-1.388-.614-2.769-.929-4.157 1.422-1.114 3.07-.468 4.604-.509 4.767-.137 9.541.097 14.291-.678 1.397-.234 2.868-.056 4.298-.129 4.434-.242 8.918.186 13.329-.823 1.058-.242 2.221-.081 3.336-.089 3.352-.016 6.705-.057 10.049-.032 5.59.048 11.14-.234 16.658-1.114.161-.025.323-.017.476-.049 5.582-1.17 7.618-5.223 5.76-10.373-2.157-5.973-8.434-8.92-14.799-7.216-3.062.823-6.083 1.8-9.153 2.639-1.212.331-2.472.533-3.724.662-2.52.259-4.702-.573-6.543-2.308a68 68 0 0 1-2.06-1.986c-2.23-2.244-5.049-3.399-8.054-3.843-2.182-.323-4.403.323-6.406 1.357-.986.5-1.858 1.227-2.82 1.783-1.93 1.131-3.918 2.043-6.22 2.245-2.197.193-4.023-.162-5.55-1.954-2.165-2.543-5.121-3.584-8.361-4.157-1.365-.242-2.488.387-3.732.371-.687 0-1.228-.315-1.381-1.041-1.39-6.676-2.747-13.352-4.169-20.019a2472 2472 0 0 0-4.16-19.051c-1.373-6.183-2.803-12.367-4.16-18.558-.17-.759-.186-1.582-.089-2.357.048-.356.533-.896.856-.929 1.43-.137 2.868-.145 4.298-.161 11.317-.089 22.643-.129 33.969-.275 3.473-.048 6.931-.355 10.405-.5 2.229-.089 4.459-.129 6.696-.129 6.059-.016 12.126 0 18.177 0v-.283h23.443c2.431 0 2.528.129 3.069 2.147.905 3.359 1.535 6.797 2.246 10.212.057.258-.089.662-.275.848-.177.169-.606.242-.824.153-2.48-1.058-4.943-2.155-7.415-3.237-2.505-1.098-5.203-1.518-7.861-1.841-2.189-.258-4.378.356-6.373 1.47-1.664.928-2.375 2.51-2.957 4.173-.573 1.647-1.082 3.318-1.68 4.948-.372 1.009-1.204 1.437-2.246 1.494-1.454.072-2.852-.057-4.104-.953-.767-.565-1.623-1.017-2.391-1.574-4.184-3.076-8.886-4.9-13.959-5.836-2.884-.533-5.703-.404-8.345 1.017-1.672.896-2.658 2.292-2.763 4.181-.072 1.268.065 2.543.089 3.81.016.662-.573 1.082-1.292.945-.154-.032-.299-.097-.453-.137-4.653-1.356-8.029.629-10.752 4.173-.864 1.122-1.648 2.357-2.213 3.657-1.43 3.277-.76 5.763 1.898 8.121 2.23 1.977 4.92 3.035 7.763 3.325 2.505.259 5.082-.105 7.618-.25 1.583-.089 3.159-.404 4.734-.42 10.211-.121 20.414-.169 30.625-.29 1.575-.016 3.15-.291 4.725-.444.63-.057 1.269-.138 1.907-.146 6.85-.032 13.717-.064 20.575-.072 1.309 0 1.616.226 1.939 1.574a630 630 0 0 1 2.73 12.052c1.729 8.064 3.425 16.128 5.13 24.192 1.179 5.587 2.343 11.173 3.53 16.759.461 2.171 1.002 4.326 1.438 6.498a35 35 0 0 1 .614 4.23 1.18 1.18 0 0 1-1.115 1.299z"/>
</svg>
