<svg xmlns="http://www.w3.org/2000/svg" width="117" height="138" fill="none" viewBox="0 0 117 138">
    <path fill="#1e1b1c" d="M116.942 136.402c-.369-1.925-.798-3.832-1.144-5.765-.694-3.849-1.604-7.655-2.376-11.491-.927-4.586-1.786-9.19-2.7-13.771-.815-4.088-1.66-8.167-2.48-12.254-.741-3.672-1.46-7.352-2.202-11.023-.789-3.923-1.612-7.833-2.401-11.76-.75-3.754-1.474-7.516-2.219-11.27-.794-4.01-1.604-8.01-2.41-12.02-.343-1.669-.681-3.334-1.04-5.002-.148-.703-.534-1.045-1.215-1.088-.429-.022-.853-.009-1.287-.009-2.397 0-4.794.022-7.191 0-2.388-.022-2.948.382-2.206-2.635.039-.165.03-.343.039-.516.212-3.919.416-7.842.65-11.764.056-.932.269-1.851.368-2.779.061-.607.351-.836.95-.97.983-.222.983-.326.84-1.154-.086-.507-.16-1.01-.238-1.517-.113-.741-.438-1.3-1.248-1.413-.555-.074-.976-.325-1.158-.867-.888-2.549-.763-2.068-3.333-2.176-.256-.009-.511-.004-.767-.004-1.712-.022-3.42-.04-5.137-.061-.325-.004-.633-.364-.585-.685.074-.507.186-1.005.282-1.504.516-2.48.572-3.801.195-5.54-.351-1.63-1.231-2.74-2.935-3.19a6.46 6.46 0 0 0-3.03-.056c-1.504.325-2.943.84-4.33 1.517-2.072 1.005-4.165 1.963-6.237 2.96-.958.464-1.955.573-2.996.482-.446-.04-.819-.217-1.044-.633-.243-.451-.507-.889-.728-1.353a181 181 0 0 1-1.526-3.246c-.512-1.11-1.327-1.977-2.228-2.783-.95-.858-2.202-1.127-3.334-1.05a8 8 0 0 0-4.27 1.57c-1.971 1.482-3.38 3.403-4.182 5.713-.42 1.196-.564 2.466-.126 3.732.356 1.05.984 1.812 2.072 2.085.824.204 1.673.46 2.501.43 1.99-.066 3.282.632 3.732 2.687.143.646.564 1.235.88 1.838.611 1.179 1.639 1.703 2.917 1.772 1.466.087 2.909-.008 4.244-.72.676-.363 1.4-.65 2.046-1.052 2.332-1.427 4.62-2.918 6.962-4.335a42 42 0 0 1 3.602-1.942c.91-.433 1.703.087 1.798 1.127.074.767.157 1.547-.59 2.102-.506.369-.775.885-.888 1.509-.16.84-.61 1.326-1.552 1.413-.346.03-.836.386-.962.71-.273.703-.399 1.479-.494 2.237-.108.78.32 1.262 1.131 1.396.16.035.343-.013.512-.004.49.034.793.277.806.784.043 1.548.04 3.087.117 4.617.082 1.53.308 3.056.369 4.59.086 2.389.043 4.781.502 7.148.052.251.04.511.048.767.009.49-.247.767-.78.772-1.621.017-3.247.047-4.872.004-1.608-.043-3.203.147-4.825.074-2.973-.126-5.96.017-8.938.07-1.686.03-3.376.125-5.067.142-.84.013-1.686-.152-2.527-.143-2.44.035-4.876.152-7.317.17-4.356.02-8.725-.005-13.086 0-.854 0-1.712.008-2.566.06-.68.043-1.088.407-1.248 1.092-.213.906-.386 1.834-.573 2.753-.641 3.255-1.287 6.515-1.92 9.77-.741 3.84-1.47 7.69-2.22 11.534-.45 2.341-.94 4.673-1.4 7.01-.398 2.002-.775 4.013-1.165 6.016l-2.32 11.773c-.576 2.921-1.161 5.843-1.733 8.764-.637 3.256-1.257 6.52-1.89 9.771-.746 3.849-1.504 7.689-2.254 11.534-.62 3.173-1.249 6.346-1.877 9.519-.364 1.838-.741 3.671-1.114 5.509-.117.572.2.949.837.993.255.013.511.013.771.013 2.31.004 4.617.004 6.931.004H58.36v.074c1.197 0 2.393.004 3.59 0 6.332-.022 12.66-.069 18.994-.074 11.638-.004 23.268.013 34.911.017.087 0 .169.009.256.009.576-.017.958-.433.845-1.014zM69.655 10.615a4.2 4.2 0 0 0-1.469.334c-.85.386-1.678.841-2.475 1.33-2.696 1.657-5.353 3.36-8.062 4.986-.872.52-1.847.854-2.788 1.252-.307.135-.65.204-.984.252-2.25.32-3.346-.273-4.282-2.337-.247-.537-.425-1.114-.633-1.668-.507-1.34-1.474-2.038-2.891-2.18a47 47 0 0 1-3.295-.443c-1-.173-1.755-.94-1.794-1.894-.04-.845-.074-1.756.178-2.54.88-2.705 2.505-4.829 5.197-5.982.468-.204.962-.36 1.46-.442 2.229-.399 3.832.555 4.916 2.436.594 1.036 1.045 2.15 1.56 3.234.26.533.49 1.083.776 1.603.321.599.633 1.28 1.37 1.435.798.174 1.535.477 2.475.217a21.5 21.5 0 0 0 3.572-1.361c1.47-.698 2.917-1.43 4.356-2.185 1.53-.793 3.19-1.17 4.846-1.6 1.058-.268 2.046.087 2.94.595.788.455 1.1 1.296 1.248 2.15.104.585.069 1.192.125 2.201-.208 1.201-.455 2.8-.763 4.387a.896.896 0 0 1-.94.72c-.672-.03-1.34-.187-2.003-.191-.373-.004-.433-.212-.455-.442-.052-.68-.035-1.37-.1-2.05-.108-1.088-1-1.882-2.089-1.821zm1.075 5.679a5 5 0 0 1 1.002-.122c1.963-.013 3.918-.004 5.873-.004v.095c2.046 0 4.088.009 6.13-.004.689 0 1.126.308 1.347.945.152.42-.121.923-.541.945-.425.022-.85.013-1.275.03-2.024.06-4.031-.2-6.064-.073-2.107.12-4.244-.144-6.363-.274-.191-.008-.434-.242-.529-.424-.152-.312.16-1.054.42-1.106zm-2.483 4.642c-.321-.039-.716 0-.768-.442-.06-.594.438-1.235.971-1.235 3.065-.01 6.125-.005 9.19-.005v.018c2.895 0 5.787-.01 8.682.004.828.004 1.183.364 1.322 1.222.056.36-.186.733-.516.724-1.513-.03-3.03-.06-4.542-.113-1.01-.039-2.081-.346-3.03-.117-1.778.42-3.516.061-5.271.066-.252.004-.533-.148-.746-.074-1.777.58-3.537.151-5.292-.048m1.929 8.258c-.256-1.18-.412-2.072-.273-3.325.108-.971-.087-1.899-.057-2.883.009-.385.273-.58.65-.628a4 4 0 0 1 .508-.04c4.599-.004 9.189-.017 13.788-.017.68 0 .94.265.954.885.03 1.066.013 2.124-.018 3.177-.09 2.596-.334 5.176-.598 7.79-.204 2.05-.295 4.113-.455 6.172-.035.399-.3.598-.676.598-2.046.009-4.092.004-6.138.004v.04c-1.964 0-3.923.012-5.887-.005-.845-.004-1.088-.23-1.157-1.01-.19-2.067-.49-4.196-.533-6.276-.035-1.448.2-3.07-.104-4.483zm-47.66 17.59c.187-1.04.343-2.085.82-3.043.242.988.515 1.968.715 2.964.42 2.081.793 4.17 1.2 6.26q.945 4.875 1.895 9.757c.797 4.083 1.612 8.166 2.392 12.25.785 4.091 1.53 8.192 2.302 12.284.126.667.317 1.322.447 1.99.173.901-.057 1.577-.82 2.232-1.79 1.526-3.94 1.937-6.133 2.284-.746.113-1.526.013-2.297.013-1.994.173-3.915-.121-5.718-1.001-.533-.265-1.088-.52-1.534-.897-1.106-.928-1.726-2.068-1.413-3.594 1.14-5.487 2.262-10.975 3.355-16.471.615-3.087 1.118-6.186 1.72-9.272.577-3 1.214-5.99 1.808-8.99.45-2.25.867-4.504 1.27-6.758zM33.09 93.32c.147.364.043.642-.256.889-1.899 1.6-4.179 2.267-6.567 2.605-.923.134-1.877.021-2.818.021-1.794.096-3.576.04-5.323-.52a14.1 14.1 0 0 1-3.671-1.777c-.715-.481-.954-1.179-.741-2.02.043-.165.09-.355.2-.455.064-.056.32-.017.398.06 1.82 1.943 4.174 2.506 6.701 2.762 2.488.251 4.916.095 7.313-.598 1.153-.334 2.262-.794 3.225-1.526 1.14-.871 1.166-.364 1.539.559M4.103 134.984c-.139 1.036-.529 1.362-1.782 1.31-.637-.013-.958-.36-.836-.971.546-2.84 1.11-5.679 1.669-8.514q.944-4.758 1.88-9.51c.586-3.012 1.162-6.016 1.756-9.025.78-4.009 1.56-8.014 2.358-12.024.629-3.168 1.305-6.324 1.916-9.501.607-3.173 1.088-6.376 1.765-9.532.589-2.748 1.092-5.505 1.612-8.262.576-3.013 1.257-5.999 1.85-8.999 1.037-5.175 2.042-10.355 3.048-15.53.082-.421.095-.85.165-1.27.086-.512.342-.742.85-.768.342-.017.684.005 1.027.022.407.017.659.273.598.65a110 110 0 0 1-.646 3.767c-.802 4.178-1.617 8.353-2.423 12.527-.373 1.925-.741 3.849-1.118 5.765-.65 3.342-1.31 6.684-1.981 10.017-.78 3.919-1.604 7.833-2.367 11.756-.607 3.09-1.14 6.198-1.743 9.285-.797 4.087-1.716 8.157-2.444 12.258-.924 5.193-1.973 10.36-3.034 15.522-.638 3.082-1.136 6.19-1.713 9.289-.108.581-.32 1.153-.403 1.734zm10.121 1.292c-1.452.022-2.908.009-4.36.009-1.28.004-2.567.035-3.85-.004-.702-.022-.832-.482-.715-1.054a2248 2248 0 0 0 3.22-16.272c.924-4.759 1.795-9.528 2.701-14.296a1855 1855 0 0 1 1.652-8.517c.034-.165.121-.325.22-.46.153-.195.322-.403.625-.22 1.539.927 3.1 1.79 4.92 2.071.75.113 1.5.33 2.258.369 1.361.07 2.731.06 4.1.056 2.8-.013 5.393-.72 7.725-2.293.39-.26.82-.06.923.45.39 1.917.776 3.833 1.14 5.753.642 3.342 1.266 6.684 1.903 10.03.195 1.002.416 1.998.585 3a.665.665 0 0 1-.528.771c-.577.109-1.184.126-1.778.139-4.447.048-8.894.104-13.342.117-3 .004-2.5.147-3.134 2.623-.797 3.129-1.395 6.311-1.998 9.479-.464 2.423-.802 4.872-1.205 7.309-.086.528-.507.936-1.057.945zm24.582.044c-3.333-.048-6.671-.009-10-.009v-.013c-3.42 0-6.84.004-10.26 0-.425 0-.854.013-1.274-.022-.52-.039-.91-.555-.833-1.092.16-1.006.256-2.037.533-3.017.468-1.652.56-3.355.902-5.02.62-2.912 1.222-5.825 1.842-8.734.052-.251.109-.529.265-.715.203-.243.52-.585.767-.564 1.456.104 2.874-.216 4.326-.208 3.502.018 7.009-.052 10.511-.086.343 0 .685-.009 1.028.008.736.035 1.105.334 1.24 1.045.38 2.003.732 4.014 1.126 6.016.585 3 1.192 6.004 1.79 9.008.066.329.174.663.204 1.001.208 2.323.438 2.436-2.158 2.397zm5.41-.005h-.256v-.008c-.087 0-.17.004-.256 0-.958-.031-1.045-.061-1.248-.911a94 94 0 0 1-.88-3.983c-.837-4.253-1.652-8.514-2.467-12.774-.576-3-1.127-6.017-1.708-9.016-.806-4.179-1.642-8.349-2.44-12.528-.936-4.924-1.825-9.86-2.77-14.785-.563-2.922-1.213-5.817-1.786-8.739-.607-3.086-1.153-6.185-1.747-9.271-.598-3.087-1.244-6.168-1.842-9.255-.593-3.09-1.161-6.185-1.746-9.285-.157-.832-.343-1.664-.477-2.505-.061-.347.017-.685.411-.82.417-.138.997.01 1.162.296.122.22.277.45.325.689.568 2.835 1.11 5.678 1.673 8.513a1114 1114 0 0 0 1.756 8.752q1.425 6.996 2.882 13.992c.78 3.745 1.617 7.473 2.393 11.222.581 2.83 1.105 5.67 1.678 8.509.806 3.996 1.656 7.989 2.462 11.985.927 4.586 1.812 9.185 2.748 13.763.928 4.499 1.903 8.985 2.843 13.48.117.581.174 1.184.221 1.773.053.616-.264.898-.931.911zm14.04-1.192c-.087-.087-.23-.169-.252-.273-.702-3.485-1.383-6.974-2.098-10.459-.403-1.994-.876-3.98-1.296-5.969-.117-.577-.221-1.166-.247-1.756-.013-.351.217-.663.62-.667 1.196-.018 2.388-.009 3.576-.009v-.052h2.813c1.127.004 1.244.199.988 1.392-.46 2.154-.845 4.321-1.33 6.471-.846 3.715-1.739 7.421-2.619 11.131-.017.07-.104.135-.156.195zm3.315.364c-.169.598-.624.806-1.421.802-.347-.004-.68-.342-.638-.641.01-.083 0-.169.022-.252.767-3.307 1.552-6.61 2.289-9.926.464-2.076.85-4.161 1.274-6.238.139-.663.36-1.313.46-1.985.199-1.344.931-1.4 2.037-1.244.251.035.46.377.628.52-.065.416-.065.681-.147.924-1.513 4.607-2.345 9.393-3.507 14.083-.33 1.317-.633 2.644-.997 3.957m10.456.833c-1.362-.009-2.731 0-4.097 0v-.009c-1.448 0-2.904.009-4.352-.004-.763-.009-.923-.217-.771-.898a738 738 0 0 1 4.482-18.582c.112-.451.42-.828.858-.833 2.986-.03 5.973-.017 8.96 0 .442 0 .689.408.572.898-.408 1.738-.82 3.467-1.222 5.21-1.015 4.387-2.05 8.765-3.035 13.16-.19.849-.33 1.075-1.395 1.062zm28.461-.07c-.59.074-1.197.07-1.795.07-3.676.004-7.36.004-11.036.004l-10.784-.004a51 51 0 0 1-1.79-.039c-.451-.018-.72-.43-.594-.924.424-1.651.888-3.285 1.274-4.946.767-3.311 1.482-6.64 2.24-9.952.309-1.326.668-2.644 1.007-3.966.1-.386.377-.529.745-.555.091-.004.174-.013.26-.013 5.301-.009 10.607-.013 15.913-.022.771 0 .945.3.962.885.043 1.721.568 3.355.97 5.006 1.032 4.222 1.969 8.457 2.749 12.722.074.416.26.82.295 1.236.008.16-.252.476-.412.494zm2.947.048c-.559.03-.984-.152-1.253-.681-.637-1.239-.732-2.626-.962-3.953-.65-3.771-1.573-7.481-2.48-11.192a79 79 0 0 1-.74-3.489c-.144-.728.212-1.08 1.027-1.067.69.013.906.174 1.044.846.876 4.152 1.726 8.313 2.614 12.462.373 1.747.828 3.48 1.227 5.219.095.407.152.828.199 1.248.039.325-.281.585-.672.607zm11.292 0c-2.735.008-5.475.022-8.21 0-.893-.005-1.118-.26-1.339-1.218-.62-2.735-1.37-5.449-1.83-8.21-.593-3.615-1.746-7.109-2.241-10.737-.143-1.023-.468-1.266-1.556-1.266-7.013 0-14.026.013-21.049.013-8.123 0-16.254-.004-24.373-.013-.091 0-.174-.013-.26-.013-.512.018-.98.529-.902 1.023.165 1.093.252 2.211.542 3.273 1.378 5.015 2.133 10.156 3.286 15.219.095.407.104.85.09 1.27-.012.364-.203.663-.624.663-2.904.009-5.812.004-8.72.009-.478 0-.807-.204-.954-.676-.126-.403-.295-.802-.373-1.218-.902-4.508-1.782-9.016-2.696-13.524-.56-2.753-1.17-5.488-1.747-8.241q-.892-4.245-1.756-8.491c-.984-4.75-1.963-9.497-2.93-14.252-.577-2.827-1.131-5.666-1.712-8.5-.815-4.006-1.656-7.998-2.462-12.003-.928-4.59-1.816-9.185-2.748-13.771-.78-3.832-1.608-7.655-2.406-11.487a6 6 0 0 1-.121-1.014c-.013-.369.134-.685.541-.711a37 37 0 0 1 2.306-.056c10.525-.005 21.04-.005 31.565-.005v-.039c10.863 0 21.73-.004 32.592 0 2.783 0 2.185-.108 2.727 2.332 1.209 5.48 2.15 11.023 3.251 16.528 1.105 5.505 2.353 10.98 3.381 16.502.698 3.767 1.525 7.508 2.245 11.261.754 3.928 1.608 7.837 2.406 11.752.559 2.761 1.101 5.518 1.643 8.27q.87 4.382 1.733 8.765c.473 2.418.937 4.841 1.413 7.26.417 2.085.867 4.166 1.288 6.251.269 1.33.542 2.67.776 4.014.108.641-.2 1.044-.785 1.049z"/>
    <path fill="#1e1b1c" d="M87.127 21.222c-1.513-.03-3.03-.06-4.543-.113-1.01-.039-2.08-.346-3.03-.117-1.777.42-3.515.061-5.271.066-.251.004-.533-.148-.746-.074-1.777.58-3.537.151-5.292-.048-.32-.039-.715 0-.767-.442-.061-.594.438-1.235.97-1.235 3.065-.01 6.126-.005 9.19-.005v.018c2.896 0 5.787-.01 8.682.004.828.004 1.184.364 1.322 1.222.057.36-.186.733-.516.724m-2.586-3.073c-.425.022-.85.013-1.274.03-2.025.06-4.032-.2-6.065-.073-2.106.12-4.243-.144-6.363-.274-.19-.008-.433-.242-.529-.424-.151-.312.16-1.054.42-1.106a5 5 0 0 1 1.002-.121c1.964-.013 3.919-.004 5.874-.004v.095c2.045 0 4.087.009 6.129-.004.689 0 1.127.307 1.348.945.152.42-.122.923-.542.945zM31.462 91.473c-1.79 1.526-3.94 1.938-6.134 2.285-.745.113-1.526.013-2.297.013-1.994.173-3.915-.122-5.718-1.002-.533-.264-1.088-.52-1.534-.897-1.105-.927-1.725-2.067-1.413-3.593 1.14-5.488 2.262-10.975 3.355-16.472.615-3.086 1.118-6.185 1.72-9.272.577-3 1.214-5.99 1.808-8.99.451-2.25.867-4.503 1.27-6.757.187-1.04.343-2.085.82-3.043.242.988.515 1.968.715 2.965.42 2.08.793 4.17 1.2 6.259q.945 4.875 1.895 9.757c.797 4.083 1.612 8.167 2.392 12.25.785 4.092 1.53 8.192 2.302 12.284.126.668.316 1.322.446 1.99.174.901-.056 1.578-.819 2.232zm46.216 25.414c-.408 1.739-.82 3.468-1.223 5.211-1.014 4.386-2.05 8.764-3.034 13.16-.19.849-.33 1.075-1.396 1.062-1.36-.009-2.73 0-4.096 0v-.009c-1.448 0-2.904.009-4.352-.004-.763-.009-.923-.217-.771-.898a738 738 0 0 1 4.482-18.582c.112-.451.42-.828.858-.832 2.986-.031 5.973-.018 8.96 0 .442 0 .689.407.572.897zm-40.935-1.222c-.577.108-1.184.126-1.778.139-4.447.047-8.894.104-13.342.117-2.999.004-2.5.147-3.133 2.622-.798 3.13-1.396 6.311-1.999 9.48-.463 2.423-.802 4.872-1.205 7.308-.086.529-.507.936-1.057.945-1.452.022-2.909.009-4.361.009-1.279.004-2.566.034-3.85-.005-.701-.021-.831-.481-.714-1.053a2248 2248 0 0 0 3.22-16.272c.924-4.76 1.795-9.528 2.7-14.296.543-2.839 1.097-5.682 1.652-8.517a1.2 1.2 0 0 1 .221-.46c.152-.195.321-.403.625-.22 1.538.927 3.099 1.79 4.92 2.071.75.113 1.5.33 2.258.369 1.36.069 2.73.06 4.1.056 2.8-.013 5.392-.72 7.724-2.293.39-.26.82-.06.924.45.39 1.917.776 3.833 1.14 5.753.641 3.342 1.266 6.684 1.903 10.03.195 1.001.416 1.998.585 3a.665.665 0 0 1-.529.771zM45.72 18.83c.078 2.158-1.396 3.684-3.052 4.412-.854.373-2.28-.16-2.947-1.023-1.184-1.526-.928-3.75.624-5.028 1.127-.928 2.366-1.33 3.736-.442a2 2 0 0 0 .464.208c.988.312 1.261 1.044 1.175 1.877zm-1.093.09c-.047-.16-.043-.398-.147-.468-.56-.368-1.11-.828-1.734-.997-.416-.108-.997.13-1.417.369-.885.507-1.292 1.382-1.253 2.362.039.91.585 1.578 1.46 1.912.226.086.508.156.725.095 1.43-.412 2.388-1.76 2.362-3.277zm59.39 87.022c-.434-1.993-.945-3.974-1.366-5.968-.767-3.663-1.465-7.343-2.254-11.002-.923-4.321-1.929-8.63-2.86-12.951-.967-4.491-1.886-8.986-2.831-13.481-.802-3.828-1.587-7.664-2.423-11.483-.408-1.846-.555-2.574-2.857-2.375-1.526.13-3.06.29-4.59.308-8.895.087-17.785.13-26.68.19-.854.01-1.73-.095-2.562.053-1.864.342-3.74.273-5.617.29-3.758.03-7.525.052-11.288.082-.598 0-1.205-.013-1.794.052-.85.096-1.491 1.028-1.31 1.851.447 1.99.907 3.975 1.344 5.969.841 3.823 1.678 7.646 2.497 11.474.728 3.407 1.435 6.818 2.154 10.23.49 2.327.967 4.66 1.487 6.983.278 1.244.694 2.457.958 3.701 1.132 5.328 2.155 10.672 3.368 15.978.62 2.713-.078 2.796 3.468 2.761 6.489-.065 12.97-.069 19.454-.321 4.954-.191 9.917-.035 14.876-.035v-.151h17.187c.429 0 .867 0 1.27-.109.191-.052.442-.333.455-.528a5.7 5.7 0 0 0-.095-1.518zm-9.64-39.657c.207.997.39 2.003.563 3.008.082.481-.2.806-.715.815-2.137.026-4.274.03-6.411.043-1.366.01-2.735 0-4.1 0v.092c-2.736 0-5.471-.04-8.206.008-1.786.035-3.572.243-5.358.3-2.735.09-5.47.095-8.201.168-1.105.03-2.228-.095-3.299.321-2.046-.147-4.079-.33-5.643-1.912-.668-.676-.811-1.248-.442-2.076.312-.702.65-1.391 1.005-2.076.906-1.756 2.7-2.58 4.673-2.146.667.148 1.326.369 1.994.42.23.018.594-.337.71-.606.126-.282.079-.668.014-.993-.096-.498-.33-.97-.408-1.47-.19-1.209.447-2.08 1.634-2.505.837-.303 1.678-.355 2.523-.234a16.66 16.66 0 0 1 7.079 2.761c.494.334 1.01.642 1.482 1.006.707.542 1.526.724 2.375.867 1.427.247 2.54-.299 3.1-1.608.299-.702.45-1.465.728-2.176.212-.546.446-1.11.793-1.574.468-.632 1.131-.997 1.977-1.023 1.283-.038 2.522.061 3.793.39 1.677.43 3.203 1.14 4.729 1.904 1.291.645 2.167 1.625 2.47 3.077.364 1.743.776 3.48 1.149 5.228zM45.858 93.103c-.637-2.197-1.067-4.456-1.582-6.692-.165-.729.312-1.34 1.057-1.426 1.535-.178 2.852.364 4.075 1.205.208.143.412.312.568.511 1.72 2.185 3.927 1.604 6.073.988.793-.23 1.504-.775 2.223-1.226 2.47-1.543 4.864-1.413 7.057.425.65.546 1.287 1.118 1.942 1.664.884.732 1.898 1.123 3.06 1.114 1.283-.009 2.54-.091 3.776-.511a56 56 0 0 1 4.404-1.297c2.834-.706 5.583.811 6.523 3.529.546 1.582-.052 2.921-1.621 3.493-.55.204-1.144.308-1.73.39-3.558.473-7.13.65-10.719.625-1.795 0-3.61-.19-5.375.035-4.833.62-9.714.168-14.543.71a4.6 4.6 0 0 1-1.005-.013c-1.088-.13-2.176-.273-3.26-.411-.958-.837-.628-2.077-.927-3.113zM102.109 107c-.68.048-1.365.056-2.05.056-13.437.057-26.875.096-40.308.174-2.813.017-5.626.191-8.44.29-.342.013-.684.031-1.026.022-1.15-.013-1.353-.165-1.587-1.227-.438-1.994-.863-3.992-1.292-5.986-.16-.745-.33-1.487-.498-2.232.763-.598 1.647-.252 2.47-.273 2.558-.074 5.12.052 7.669-.364.75-.126 1.538-.03 2.306-.07 2.38-.13 4.785.1 7.152-.442.568-.13 1.192-.043 1.79-.048 1.799-.008 3.598-.03 5.392-.017 3 .026 5.978-.126 8.938-.598.087-.013.174-.009.256-.026 2.995-.629 4.087-2.805 3.09-5.57-1.157-3.208-4.525-4.79-7.94-3.875-1.643.442-3.265.966-4.912 1.417a12.5 12.5 0 0 1-1.998.356c-1.352.138-2.523-.308-3.511-1.24a37 37 0 0 1-1.105-1.066c-1.197-1.205-2.71-1.825-4.322-2.064-1.17-.173-2.362.174-3.437.728-.53.27-.997.66-1.513.959-1.036.606-2.102 1.096-3.338 1.205-1.179.104-2.158-.087-2.978-1.05-1.161-1.365-2.748-1.924-4.486-2.232-.733-.13-1.335.208-2.003.2-.368 0-.658-.17-.74-.56-.746-3.584-1.475-7.169-2.238-10.75-.728-3.415-1.478-6.822-2.232-10.23-.737-3.32-1.504-6.64-2.232-9.965-.091-.407-.1-.85-.048-1.265.026-.19.286-.481.46-.499.767-.073 1.538-.078 2.306-.086 6.072-.048 12.15-.07 18.227-.148 1.864-.026 3.719-.19 5.583-.269a90 90 0 0 1 3.593-.069c3.251-.008 6.506 0 9.753 0v-.151h12.58c1.304 0 1.356.069 1.646 1.153.486 1.803.824 3.65 1.205 5.483.03.139-.047.355-.147.455a.5.5 0 0 1-.442.082c-1.33-.568-2.653-1.157-3.98-1.738-1.343-.59-2.79-.815-4.217-.988-1.175-.139-2.35.19-3.42.789-.893.498-1.274 1.348-1.586 2.24-.308.885-.581 1.782-.902 2.658-.2.542-.646.771-1.205.802-.78.039-1.53-.03-2.202-.512-.412-.303-.871-.546-1.283-.845-2.245-1.651-4.768-2.631-7.49-3.134-1.548-.286-3.06-.217-4.478.546-.897.481-1.426 1.231-1.483 2.246-.039.68.035 1.365.048 2.046.009.355-.307.58-.693.507-.083-.018-.16-.052-.243-.074-2.497-.728-4.309.338-5.77 2.241a9.4 9.4 0 0 0-1.187 1.964c-.767 1.76-.408 3.094 1.019 4.36 1.196 1.062 2.64 1.63 4.165 1.786 1.344.139 2.727-.056 4.088-.134.85-.048 1.694-.217 2.54-.226 5.479-.065 10.953-.09 16.432-.156.846-.008 1.69-.156 2.536-.238.338-.03.68-.074 1.023-.078 3.676-.017 7.36-.035 11.04-.04.703 0 .867.122 1.04.846a339 339 0 0 1 1.466 6.472c.927 4.33 1.838 8.66 2.752 12.99.633 3 1.257 6 1.894 8.999.248 1.166.538 2.324.772 3.49.152.745.269 1.508.329 2.271a.634.634 0 0 1-.598.698z"/>
</svg>
