<svg xmlns="http://www.w3.org/2000/svg" width="123" height="172" fill="none" viewBox="0 0 123 172">
    <path fill="#000" d="M119.223 84.353c.786-.977 1.595-1.965 2.178-3.063 1.041-1.936 1.087-3.97.087-5.964-.907-1.827-2.081-2.445-4.132-2.237-1.069.104-1.145.11-1.173-1.08-.047-1.706-.925-2.78-2.405-3.399-.948-.399-1.959-.641-2.941-.96-.919-.294-.966-.364-.474-1.202 1.046-1.791 2.144-3.548 3.178-5.345 1.37-2.37 1.936-4.925 1.85-7.664-.081-2.722-.815-5.254-1.965-7.681-2.37-4.97-2.295-9.617 1.387-14.085 1.878-2.27 2.589-5.109 2.364-8.131-.26-3.468-2.006-5.658-5.312-6.548-2.364-.636-4.386.098-5.837 2.115-1.156 1.59-1.844 3.375-2.202 5.282-.491 2.578-1.468 4.96-2.739 7.225-.44.774-.85 1.566-1.278 2.346-1.485 2.676-1.705 5.404-.659 8.328.908 2.538 2.006 4.947 3.595 7.103 2.064 2.792 2.433 5.803 1.434 9.05-.255.85-.561 1.689-.856 2.52-.636 1.816-1.375 3.596-1.323 5.578.011.618-.312.85-.919 1-1.428.358-2.861.757-4.22 1.306-1.386.555-1.964 1.618-1.716 3.202.324 2.046.503 4.109.694 6.172.196 1.983.167 2.052-1.896 1.757-6.756-.953-13.524-1.595-20.407-1.364-6.473-.173-12.952.33-19.407 1.289-6.323.942-12.49 2.375-18.39 4.86-2.544 1.07-4.913 2.44-6.919 4.347-1.976 1.878-3.034 4.16-2.82 6.947.115 1.48.393 2.965.289 4.427-.18 2.456 1.115 4.057 2.797 5.49a21 21 0 0 0 2.693 1.942c3.364 2.081 7.063 3.41 10.843 4.45 7.883 2.173 15.94 3.208 24.094 3.572 1.104.046 2.22.087 3.33.133.606.029.964.329.987.959.018.364.035.74.035 1.11.093 11.258.185 22.511.266 33.764 0 .745-.006 1.485-.07 2.225-.179 2.202-1.213 3.762-3.41 4.427-.496.15-.982.335-1.467.514-3.688 1.324-7.363 2.664-11.062 3.965-1.087.381-2.011.959-2.693 1.861-1.526 2.023-1.006 3.866 1.41 4.537a75 75 0 0 0 7.56 1.681c5.496.908 11.055.931 16.61.862a61.5 61.5 0 0 0 12.339-1.405c1.421-.306 2.78-.953 4.15-1.508.548-.226.964-.636 1.017-1.33.156-2.045-.648-3.369-2.584-4.149-.347-.133-.705-.243-1.052-.37-3.67-1.364-7.334-2.757-11.015-4.086-2-.723-3.243-2.006-3.399-4.184a51 51 0 0 1-.127-3.104c-.063-9.623-.11-19.251-.156-28.874-.006-1.925.023-3.855.006-5.78-.006-.843.364-1.219 1.196-1.19.225.006.445-.018.665-.023 5.785-.174 11.507-.821 17.2-1.85 5.253-.953 10.397-2.283 15.275-4.49 2.71-1.226 5.253-2.723 7.259-4.994 1.323-1.497 2.138-3.15 2.074-5.213-.034-1.104.087-2.22.214-3.323.226-1.936-.243-3.693-1.433-5.202-.821-1.034-1.751-1.988-2.728-2.884-.613-.549-.561-.895-.023-1.41.745-.722 1.491-1.456 2.138-2.26zm-20.928 4.173c.029-.156.428-.358.63-.33 1.029.122 2.04.347 3.057.475.873.11 1.249-.157 1.307-1.058.167-2.44.294-4.867.352-7.305.029-1.047-.306-1.376-1.427-1.636-1-.237-2.058-.289-3.035-.584-2.34-.716-2.416-.653-2.525-2.941-.023-.44-.116-.89-.046-1.318.023-.173.416-.445.572-.41.86.208 1.687.6 2.548.745 4.716.82 9.392.971 13.969-.826 1.029-.405 1.174-.295 1.11.768-.104 1.694-.283 3.381-.422 5.075-.3 3.756-.665 7.507-.873 11.27-.098 1.82-.942 2.826-2.583 3.427-1.624.584-3.265.89-5.034 1.011-1.578-.335-3.202-.526-4.71-1.046-2.283-.786-3.398-2.982-2.89-5.317m-.665-4.52a135 135 0 0 1-.502-4.594c-.058-.572.19-.752.786-.584.982.266 2 .457 2.999.67 1.422.307 1.48.382 1.474 1.925v2.196h-.093c-.057.954-.075 1.913-.179 2.861-.109.977-.312 1.15-1.294.896-3.011-.763-2.705.283-3.196-3.37zm11.837-11.795c.069-.428.266-.665.74-.538.283.075.56.156.838.266.335.127.658.283 1.502.647-1 .3-1.549.515-2.127.619-.757.144-1.063-.208-.953-.994m1.011-3.67c1.329.612 2.595 1.144 3.809 1.78.364.19.618.728.196 1.11-.208.19-.664.277-.947.184-1.185-.364-2.364-.768-3.491-1.271-.289-.121-.549-.676-.515-1 .023-.254.521-.462.948-.798zm-6.929-4.427c.497-1.7 1.069-3.376 1.653-5.052 1.311-3.704.768-7.114-1.52-10.293-1.705-2.358-2.908-4.959-3.693-7.762-.51-1.791-.474-3.514.288-5.195a45 45 0 0 1 1.815-3.549c1.439-2.52 2.399-5.207 3.023-8.05.3-1.353.919-2.654 1.549-3.885.786-1.537 2.086-2.687 3.872-2.473 1.925.225 3.809.942 4.67 2.924.497 1.139.728 2.375.953 3.162-.219 2.722-.867 4.82-2.086 6.721a9 9 0 0 1-.636.902c-3.317 4.022-3.537 8.443-1.699 13.13.405 1.035.879 2.035 1.277 3.075 1.734 4.52 1.757 8.947-.78 13.218-.832 1.398-1.641 2.809-2.537 4.167-1.277 1.936-1.722 4.04-1.555 6.328.151 2.052-.086 2.266-2.173 2.295-.364 0-.768.034-1.086-.11-.26-.11-.636-.526-.584-.71.399-1.475-.156-2.763-.682-4.07-.636-1.583-.526-3.196-.064-4.78zm-.567 8.646c-.214.294-.653.427-1 .618-.057.029-.144.006-.624.006-.312-.116-.977-.359-1.641-.607.318-.902 1.242-.838 1.901-1.185a.35.35 0 0 1 .214-.046c.41.063.879.029 1.191.237.15.098.127.74-.035.977zm-6.016-2.71a52 52 0 0 1 4.589-1.457c.508-.14 1.115.647 1.028 1.288-.08.07-.213.226-.387.307-1.323.618-2.664 1.208-3.982 1.826-.63.295-1.393.006-1.78-.717-.335-.63.104-1.086.532-1.254zm-2.676 96.932c.08.249.144.676.011.792-.37.335-.826.659-1.294.78-2.283.584-4.554 1.312-6.878 1.59-3.739.45-7.507.583-9.917.757-7.12-.168-12.883-.417-18.54-1.653-1.157-.255-2.284-.596-3.428-.908-.283-.081-.595-.179-.792-.37-.173-.167-.312-.508-.26-.728.035-.138.451-.318.66-.283 1.877.364 3.744.861 5.628 1.162 6.589 1.069 13.241 1.358 19.893 1.028 4.046-.202 8.114-.433 12.05-1.589.775-.225 1.543-.503 2.324-.717.173-.046.52.035.549.139zm-13.16-6.502c3.63 1.26 7.23 2.595 10.842 3.896.416.15.856.277 1.226.502.422.249.381.636-.058.827-.746.324-1.503.676-2.289.826-2.104.405-4.219.757-6.34 1.029-5.456.694-10.94.566-16.402.335-4.583-.196-9.132-.763-13.587-1.895-.278-.075-.52-.26-.78-.399.167-.231.277-.538.496-.682.48-.33 1-.647 1.543-.844 3.89-1.41 7.745-2.947 11.704-4.132 4.404-1.318 4.947-4.127 5.022-7.115.064-2.508-.058-5.028-.08-7.542-.076-8.952-.14-17.905-.22-26.869-.018-2.236-.3-2.387 2.502-2.306 1.428.041 1.503.104 1.509 1.538.011 5.999.005 11.986.005 17.985h.11c0 5.843-.006 11.686.006 17.529 0 .515.139 1.029.15 1.538.081 3.109 1.855 4.814 4.641 5.785zm37.804-57.771c-1.099 1.635-2.491 2.907-4.133 3.953-3.664 2.341-7.721 3.751-11.871 4.837a100.5 100.5 0 0 1-23.464 3.272c-2.665.046-5.323.329-7.982.248-10.45-.306-20.817-1.225-30.862-4.404-3.11-.982-6.138-2.19-8.854-4.022-1.04-.694-2.012-1.515-2.907-2.382-1.393-1.352-1.509-3.149-1.503-4.947 0-.087.491-.3.566-.23.63.508 1.191 1.103 1.82 1.617 2.989 2.41 6.457 3.884 10.046 5.08 5.565 1.861 11.287 2.948 17.107 3.659 6.04.74 12.085 1.219 18.159 1.092 10.004-.208 19.945-1.092 29.614-3.889 2.335-.677 4.629-1.538 6.883-2.462 2.965-1.208 5.641-2.902 8.08-5.502.399 1.699.104 2.889-.694 4.08zm-.22-11.577c1.618 2.087 1.682 4.474-.012 6.531-1.011 1.243-2.271 2.347-3.6 3.237-4.063 2.699-8.658 4.149-13.345 5.271-11.663 2.791-23.51 3.566-35.463 2.936-6.432-.341-12.813-1.07-19.095-2.48-5.352-1.196-10.623-2.693-15.246-5.797a15.7 15.7 0 0 1-3.543-3.294c-1.555-1.976-1.44-4.022.035-6.15 1.387-2.005 3.38-3.265 5.478-4.409 4.456-2.433 9.3-3.75 14.224-4.826 8.496-1.85 17.119-2.444 25.435-2.589 7.225.168 14.09.543 20.887 1.682 1.705.283 1.734.254 1.954 2.057.265 2.278.595 4.555.71 6.843.116 2.48 1.4 3.988 3.584 4.82 3.693 1.399 7.397 1.324 11.044-.167 1.694-.688 2.832-1.861 2.821-3.855-.006-.44.069-.884.15-1.318.243-1.3.67-1.497 1.763-.653.815.63 1.589 1.352 2.219 2.161m-2.976-4.808c-.128.139-.388.168-.578.237-.064-.19-.185-.387-.174-.566.07-.966.168-1.92.249-2.879-.012 0-.018 0-.029-.005.191-2.283.416-4.56.56-6.855.064-.965.249-1.751 1.341-1.965 1.069-.208 2.092-.237 2.798.786.907 1.324 1.473 2.774.895 4.381-.341.965-.734 1.965-1.358 2.757-1.138 1.445-2.456 2.762-3.71 4.109z"/>
    <path fill="#000" d="M94.3 167.774c-.37.335-.826.659-1.295.78-2.282.584-4.554 1.312-6.877 1.59-3.74.451-7.508.583-9.918.757-7.12-.168-12.882-.416-18.54-1.653-1.156-.254-2.283-.595-3.427-.907-.284-.081-.596-.18-.792-.37-.173-.168-.312-.509-.26-.729.034-.138.45-.317.659-.283 1.878.364 3.745.861 5.629 1.162 6.588 1.069 13.24 1.358 19.893 1.029 4.045-.203 8.114-.434 12.05-1.59.774-.225 1.543-.503 2.323-.716.174-.047.52.034.55.138.08.249.144.677.01.792zm24.631-65.065c-1.098 1.636-2.491 2.907-4.132 3.953-3.664 2.341-7.721 3.751-11.871 4.838a100.5 100.5 0 0 1-23.465 3.271c-2.664.046-5.323.329-7.981.248-10.45-.306-20.818-1.225-30.862-4.404-3.11-.982-6.138-2.19-8.855-4.022-1.04-.694-2.01-1.514-2.907-2.381-1.393-1.353-1.508-3.15-1.502-4.948 0-.086.49-.3.566-.23.63.508 1.19 1.103 1.82 1.617 2.989 2.411 6.456 3.884 10.045 5.081 5.566 1.861 11.288 2.947 17.108 3.658 6.039.74 12.084 1.219 18.158 1.092 10.005-.208 19.946-1.092 29.614-3.889 2.335-.676 4.63-1.538 6.884-2.462 2.965-1.208 5.641-2.902 8.08-5.502.398 1.699.104 2.889-.694 4.08zM102.98 72.76c-.214.294-.653.427-1 .618-.057.029-.144.006-.624.006-.312-.116-.977-.359-1.641-.607.318-.902 1.242-.838 1.901-1.185a.35.35 0 0 1 .214-.046c.41.063.879.029 1.191.237.15.098.127.74-.035.977zm9.567-.167c-.999.3-1.548.514-2.126.618-.758.144-1.064-.208-.954-.994.069-.428.266-.665.74-.538.283.075.56.156.838.266.335.127.659.283 1.502.648m-10.16 8.83v2.196h-.093c-.058.954-.075 1.913-.179 2.861-.11.977-.312 1.15-1.295.896-3.01-.763-2.704.283-3.196-3.37a135 135 0 0 1-.503-4.594c-.057-.572.191-.751.786-.584.983.266 2 .457 3 .67 1.422.307 1.48.382 1.474 1.925zM78.609 33.107c0-9.998.005-19.997-.006-29.995 0-2.983-.029-3.012-2.936-3.017C61.074.06 46.48.043 31.893.014c-.439 0-.89-.04-1.329.017-.85.116-1.295.607-1.375 1.468-.03.364.017.74.023 1.104.069 9.478.133 18.95.19 28.43.018 2.455.006 2.438-2.346 1.721-2.948-.89-5.548-.45-7.612 2.04-.566.683-1.179 1.359-1.878 1.879-1.162.878-2.485 1.3-3.959.826-.636-.208-1.248-.474-1.878-.653-1.353-.381-2.682-.855-4.057-1.034-1.804-.237-3.52.214-5.069 1.22C.893 38.14.199 39.856.013 41.735c-.196 1.959 1.735 3.733 4.098 3.843 4.289.208 8.577.393 12.871.457 2.509.04 5.023-.197 7.537-.22 1.676-.012 3.34-.017 5.016-.029-.058.497-.092.983-.086 1.48 0 4.15.011 9.802.023 13.951.005.89-.047 1.786.023 2.67.086.983.399 1.26 1.433 1.278 1.185.023 2.37-.07 3.555-.064l35.549.208c2.294.012 4.595.017 6.89.017 1.663-.005 1.663-.011 1.68-1.768v-.445q-.006-14.997-.005-30.001h.012zM21.635 44.839c-3.994.058-7.988-.005-11.981-.08a60 60 0 0 1-5.294-.365 5.3 5.3 0 0 1-2.07-.687c-.97-.567-1.265-1.567-.987-2.67.635-2.578 2.45-3.977 5.334-4.127 1.665-.093 3.237.335 4.71 1.052 1.168.56 2.353.855 3.641.797 1.468-.07 2.734-.595 3.797-1.6A17 17 0 0 0 20.3 35.54c1.809-2.225 4.115-2.398 6.629-1.59a10 10 0 0 1 2.398 1.122c2.734 1.786 5.52 1.641 8.172.046 2.023-1.208 4.086-1.537 6.363-1.398 1.78.11 3.37.583 4.665 1.785 2.606 2.416 5.785 3.48 9.195 4.029 1.144.185 2.12.583 2.75 1.641.908 1.52.55 2.693-1.161 3.294-.682.237-1.439.26-2.173.336-.514.046-1.04.005-1.549.005v-.214c-6.138-.046-12.276-.173-18.413-.127-5.179.03-10.351.3-15.53.364zm8.912 2.347a13 13 0 0 0-.139-1.405c6.41-.034 12.807-.069 19.21-.075 1.625 0 3.249.26 4.867.266s3.266 0 4.85-.3c2.103-.393 3.184-2.266 2.577-4.156-.457-1.404-1.341-2.474-2.832-2.884-.717-.19-1.457-.277-2.173-.433-2.618-.596-5.069-1.462-7.196-3.266-3.485-2.97-8.097-3.248-12.2-1.11-1.15.607-2.462 1.076-3.745 1.226-2.63.312-3.294-.37-3.3-2.982-.018-9.56-.023-19.113-.03-28.666 0-.37.018-.74.007-1.11-.035-.763.352-1.064 1.075-1.046.37.011.745-.006 1.11-.006l42.669.035c.37 0 .74.023 1.11.005.722-.023 1.098.26 1.092 1.035-.012 1.705-.017 3.41.006 5.109.011.757-.335 1.08-1.07 1.035-1.941-.116-3.6.67-5.213 1.612-.705.41-1.404.826-2.126 1.208-1.3.705-2.665.855-4.075.37-.56-.19-1.121-.37-1.682-.578-1.826-.682-3.652-.665-5.369.26-1.364.74-2.705 1.543-3.941 2.468-1.544 1.161-3.225 1.422-5.046 1.115-.792-.133-1.566-.445-2.364-.595-2.196-.416-4.3-.237-5.999 1.422-.398.387-.768.936-.872 1.468-.341 1.78.624 3.45 2.329 4.057.751.26 1.578.387 2.375.45 5.173.422 10.351.255 15.53.134 5.334-.122 10.663-.093 15.997-.128.22 0 .445.012.665.018.52.023.832.277.843.815.018.595.018 1.184.018 1.78V50.78c0 2.831.254 2.647-2.618 2.652-13.929.006-27.857 0-41.786-.005-.439 0-.884-.018-1.33-.012-.814.023-1.242-.312-1.219-1.173.018-1.185.018-3.878-.011-5.063zm46.963 15.43c-.011 1.55-.138 1.636-1.635 1.613-3.843-.058-7.68-.127-11.524-.144-10.57-.046-21.141-.075-31.724-.104-.294 0-.595-.017-.884-.006-.763.029-1.04-.41-1.058-1.098-.046-2.364-.121-4.728-.121-7.092 0-.959.243-1.12 1.462-1.132 5.254-.012 10.502-.006 15.743-.006h26.176c.664 0 1.329-.017 2 .012 1.427.069 1.525.133 1.548 1.525.04 2.145.04 4.289.017 6.433m0-43.657c-.017 1.583-.063 1.618-1.618 1.641-4.219.058-8.438.093-12.657.133-.74.006-1.485 0-2.225 0v.185c-5.473-.092-10.952-.173-16.425-.289a6.6 6.6 0 0 1-1.953-.335c-1.104-.358-1.619-1.243-1.746-2.352-.121-1.075.607-1.601 1.404-2.052 1.214-.682 2.497-.85 3.855-.491.717.19 1.422.422 2.15.514 2.647.335 5.098.145 7.254-1.826 1.22-1.116 2.727-2.046 4.513-2.202 1.197-.11 2.341.011 3.474.468 2.323.942 4.606.896 6.79-.491a24 24 0 0 1 2.723-1.491c.659-.307 1.381-.584 2.092-.648 2.786-.23 2.358.064 2.364 2.121.011 2.37.017 4.74-.006 7.11z"/>
    <path fill="#000" d="M77.513 62.617c-.012 1.549-.139 1.636-1.636 1.612-3.843-.057-7.68-.127-11.524-.144-10.57-.046-21.141-.075-31.723-.104-.295 0-.596-.017-.885-.006-.762.029-1.04-.41-1.057-1.098-.046-2.364-.122-4.728-.122-7.091 0-.96.243-1.122 1.463-1.133 5.253-.012 10.5-.006 15.743-.006h26.175c.665 0 1.33-.017 2 .012 1.427.069 1.525.133 1.549 1.525.04 2.145.04 4.289.017 6.433m5.12 25.539c-.468.081-1.075.838-1.33 1.116-1.704 1.837-3.432 3.664-5.068 5.565-1.086 1.266-1.208 1.514-3.202.717-3.213-1.289-6.45-2.532-9.68-3.786-1.728-.67-3.45-1.346-5.179-2-.572-.213-1.606-.866-2.213-.6-.74.323-.306.901.22 1.11 3.982 1.554 7.963 3.114 11.951 4.67 1.856.722 3.717 1.427 5.578 2.138.872.335 1.676.445 2.415-.37 2.237-2.45 4.52-4.86 6.768-7.306.283-.312.497-1.12-.098-1.248a.35.35 0 0 0-.156 0z"/>
</svg>
