<svg xmlns="http://www.w3.org/2000/svg" width="241" height="241" fill="none" viewBox="0 0 241 241">
    <path fill="#1e1c1c" d="M209 203.88c-.132-1.14-.132-2.305-.37-3.419-2.254-10.529-4.559-21.064-6.833-31.592-1.346-6.269-2.737-12.526-4.002-18.827-.451-2.267-1.678-3.501-3.889-3.796a35 35 0 0 0-3.683-.269c-10.447-.131-20.894-.244-31.347-.382-1.936-.019-1.936-.031-2.499-1.923-1.328-4.365-1.779-8.85-1.76-13.403 0-.927.413-2.017-.815-2.612-.131-.075-.162-.595-.062-.845.62-1.616 1.165-1.923 2.994-1.842.413.019.82.101 1.227.032 4.284-.733 8.618-1.309 12.846-2.305 4.127-.99 7.835-3.007 10.86-6.075.739-.752 1.41-1.604 1.923-2.525.658-1.171.27-1.954-1.083-2.048-1.535-.1-3.138-.1-4.654.188-5.906 1.14-11.674 2.769-17.048 5.568-.338.176-.739.207-1.121.307.162-.413.238-.895.494-1.246 3.038-4.203 6.157-8.337 9.132-12.589 1.021-1.441 2.092-1.716 3.746-1.347 3.626.821 7.321 1.115 11.023.576 3.388-.482 6.589-1.453 9.294-3.645.733-.589 1.309-1.315 1.115-2.323-.194-1.028-1.071-1.516-1.948-1.679a17 17 0 0 0-3.92-.276c-1.46.063-2.925.37-4.385.558-.156.019-.319-.05-.482-.082.063-.206.044-.494.188-.62 1.058-.908 2.236-1.697 3.2-2.699.896-.94 1.742-1.998 2.287-3.163.67-1.39-.22-2.643-1.779-2.75-.627-.043-1.341.044-1.917.289a35 35 0 0 0-3.714 1.904c-.914.544-1.741 1.246-2.624 1.854-.175.125-.432.144-.658.219.019-.288-.044-.627.082-.865.958-1.81 1.998-3.595 2.943-5.417.771-1.472 1.228-3.044 1.103-4.748-.207-2.655-2.286-3.745-4.529-2.305-.739.483-1.421 1.134-1.985 1.823-.72.883-1.284 1.904-1.948 2.843-.125.163-.363.245-.557.37-.044-.225-.157-.45-.132-.67.288-2.718.338-5.418-.269-8.099-.476-2.047-1.986-2.636-3.601-1.277-1.666 1.403-3.007 3.044-3.201 5.361-.244 2.787-.676 5.562-.77 8.349-.144 3.952-.013 7.904 1.227 11.725.276.845.627 1.697 1.103 2.442 1.02 1.566 1.058 1.535-.076 3.057-5.505 7.497-11.179 14.862-15.852 22.923-.62 1.052-1.39 1.215-2.43 1.228-4.447.031-8.894.112-13.34.188-2.211.043-4.435.144-6.658.144-1.597 0-1.698-.157-1.553-1.691.219-2.205.588-4.404.638-6.621.044-1.76.821-2.912 2.092-3.964 1.009-.821 2.017-1.698 2.875-2.687 3.15-3.683 6.301-7.391 9.326-11.18 3.551-4.46 6.251-9.47 8.781-14.556 1.234-2.492 1.472-5.21 1.121-7.948-.063-.494-.451-1.07-.864-1.315-.207-.125-.877.288-1.203.608-4.923 4.622-9.82 9.282-13.641 14.906-1.979 2.925-3.695 6.019-5.549 9.025-.194.332-.476.62-.72.915-.076-.351-.238-.721-.207-1.071.225-2.625.432-5.249.751-7.867.733-5.95 1.566-11.9 2.255-17.862.288-2.443.32-4.923.495-7.379.063-.851.388-1.02 1.115-.557 1.804 1.14 3.595 2.317 5.392 3.482 2.155 1.378 4.491 1.472 6.896.959 2.274-.483 3.075-2.03 2.274-4.253-.721-1.985-1.873-3.651-3.602-4.892-1.14-.814-2.323-1.553-3.482-2.336-.194-.131-.332-.35-.495-.532.245-.175.464-.464.733-.526 2.386-.533 4.491-1.71 6.313-3.232 1.234-1.027 2.387-2.318 3.163-3.708 1.422-2.555.226-4.578-2.655-4.86-1.585-.157-3.132-.013-4.591.657-.977.452-1.923.946-2.894 1.404-.733.338-1.472.638-2.204.958-.019-.77-.051-1.553-.044-2.336.031-1.648.1-3.282.125-4.93a8.8 8.8 0 0 0-.188-1.716c-.564-2.637-3.038-3.676-5.292-2.192-.671.445-1.259 1.059-1.804 1.666-1.378 1.535-1.885 3.458-2.192 5.418-.276 1.697-.338 3.426-.526 5.148-.126 1.084-.307 1.197-1.228.69-1.296-.709-2.555-1.492-3.858-2.18-1.76-.915-3.601-1.153-5.474-.433-2.831 1.09-3.539 3.489-1.722 5.9 1.628 2.18 3.851 3.552 6.426 4.353.864.276 1.759.445 2.611.733.144.044.307.589.22.702-.683.814-1.422 1.597-2.161 2.367-1.773 1.854-3.389 3.796-4.291 6.257-.62 1.691-.513 3.282.802 4.572 1.378 1.34 3.075 1.171 4.578.32 1.554-.896 2.957-2.067 4.416-3.12.626-.444 1.265-.908 1.892-1.359.043.802.093 1.597.125 2.4.012.331-.032.657-.075.989-.959 7.916-1.954 15.833-2.875 23.75-.852 7.44-1.635 14.887-2.462 22.315-.219 1.886-.444 3.758-.657 5.631-.082.752-.414 1.215-1.234 1.215-2.061 0-4.115.019-6.176.044-.795.013-1.165-.363-1.265-1.165-.332-2.524-.67-5.054-1.102-7.566-.846-4.848-1.76-9.695-2.668-14.543-.144-.739-.301-1.409.463-1.979 2.355-1.773 3.714-4.378 5.362-6.72a26.2 26.2 0 0 0 3.664-7.504c.331-1.102.883-2.399-.126-3.232-.945-.783-2.242-.32-3.275.194-1.165.59-2.211 1.378-3.314 2.08-.451.275-.914.532-1.371.801-.157-.544-.332-1.07-.445-1.615-.175-.883-.188-1.823-.482-2.656-.67-1.873-2.418-2.267-3.883-.94-.307.27-.558.608-.846.896-.545.545-1.196.413-1.854.257-.77-.175-.701-.802-.739-1.372-.019-.332-.019-.657-.019-.99.05-13.734.113-27.476.176-41.217.018-4.692.062-9.389.05-14.074-.013-1.76-.132-1.803-1.81-1.81q-31.612-.27-63.215-.532c-2.624-.032-5.26-.07-7.898-.056-2.048.024-2.668.6-2.73 2.617-.05 1.472.044 2.957.044 4.435.012 14.975.012 29.944.012 44.92h.276c0 5.93-.013 11.85 0 17.774.031 10.447.081 20.894.112 31.348.013 1.76.364 2.16 2.174 2.179 2.555.032 5.104.044 7.66.019.864-.012 1.39.307 1.603 1.165.62 2.38 2.06 4.271 3.664 6.063 1.378 1.522 2.668 3.163 4.209 4.509 1.46 1.284 1.678 2.574 1.108 4.353-.494 1.547-.701 3.213-.845 4.835-.144 1.616.658 2.875 2.098 3.614 1.09.564 2.255.996 3.395 1.441 1.459.557 2.962 1.008 4.403 1.616 3.438 1.421 4.622 3.388 4.434 7.115-.063 1.071-.163 2.142-.125 3.2.175 4.691 2.21 7.265 6.764 8.512 3.52.958 7.134 1.165 10.76 1.278 1.472.043 2.963 0 4.435.081 1.547.081 2.85.752 3.94 1.823.156.144.3.45.237.62-.05.144-.37.256-.589.275-.4.044-.82.013-1.227.013-7.084-.044-14.155-.094-21.239-.132-.908 0-1.81.031-2.705.163-1.39.207-1.78.67-1.967 2.098-.257 1.986-.257 1.979-2.155 1.391a18 18 0 0 0-1.916-.508c-1.716-.319-3.451.069-4.622 1.215-2.944 2.875-4.303 7.003-1.585 10.923.927 1.341 2.098 2.531 3.307 3.646 1.691 1.553 3.507 2.962 5.267 4.446.382.307.883.62 1.027 1.04.257.733.445 1.585.32 2.324-.044.257-1.09.382-1.691.495-.307.062-.658-.013-.977-.019-2.224-.013-4.447-.032-6.67 0-.351.012-.977.3-.996.495-.02.4.188.908.45 1.233.301.382.752.652 1.172.909 2.83 1.666 5.674 3.325 8.505 4.991.526.307 1.027.67 1.535 1.009-.627.062-1.265.175-1.892.162-5.023-.1-10.033-.244-15.05-.331-.733-.013-1.986-.42-1.998.701-.013.883 1.202.545 1.885.557 12.59.176 25.178.289 37.767.483 13.485.206 26.982-.307 40.467.35 5.499.27 11.017-.175 16.522-.206 4.528-.032 9.05.062 13.579.1 13.497.113 26.988.175 40.497.363 2.299.032 3.952-.801 5.268-2.555 1.841-2.43 3.664-4.867 5.518-7.29.576-.74.908-1.547.795-2.5zM168.452 97.876c-1.008-3.357-1.058-6.802-1.278-10.904.245-2.38.558-5.393.877-8.418.194-1.904 1.14-3.389 2.587-4.591.595-.482 1.134-.37 1.278.382.269 1.36.576 2.756.532 4.127-.113 3.696-.388 7.391-.608 11.074-.031.576-.112 1.165-.018 1.716.05.338.388.639.607.946.257-.257.67-.476.752-.77.545-1.892.996-3.821 1.516-5.725a13.4 13.4 0 0 1 3.394-5.92c.677-.688 1.459-1.665 2.512-1.202 1.202.527.977 1.842.739 2.85a14.8 14.8 0 0 1-1.297 3.439c-1.409 2.7-2.943 5.33-4.396 7.998a8.8 8.8 0 0 0-.752 1.81c-.075.244.075.701.276.852.194.144.651.131.883 0 .413-.245.732-.658 1.121-.959 2.286-1.74 4.528-3.538 6.895-5.154.909-.62 2.099-.883 3.201-1.134.67-.144 1.09.532.708 1.121-.589.883-1.215 1.791-2.004 2.462-1.76 1.484-3.627 2.83-5.456 4.234-.388.3-.82.544-1.165.895-.206.207-.432.702-.332.833.207.27.652.589.94.545 1.71-.257 3.395-.626 5.098-.946 1.284-.238 2.587-.444 3.883-.657.157-.032.332-.044.483-.044 1.215.05 2.931-.125 3.294.99.445 1.377-1.278 1.86-2.305 2.417-3.182 1.716-6.67 2.336-10.234 2.255-2.612-.069-5.23-.482-7.823-.908-2.029-.332-3.307-1.585-3.914-3.627zm-11.731 24.764c.814-1.315 1.954-2.173 3.263-2.881 4.497-2.442 9.226-4.259 14.224-5.342 1.835-.388 3.683-.733 5.549-1.052a6.3 6.3 0 0 1 1.71-.032c.545.05.658.476.401.883a8.5 8.5 0 0 1-1.071 1.341c-1.773 1.872-3.915 3.232-6.22 4.334-5.279 2.511-11.048 2.9-16.553 3.82-.388-.043-.651-.031-.883-.094-.495-.156-.852-.269-.42-.977m-29.856-48.063c-.527.37-1.14.67-1.773.833-1.81.482-3.119-.576-2.988-2.468.051-.708.27-1.503.658-2.08a63 63 0 0 1 3.533-4.716c1.039-1.265 2.21-2.43 3.325-3.645.451-.494.27-.996-.206-1.227-.652-.32-1.372-.526-2.08-.658-2.298-.42-4.459-1.165-6.301-2.637a10 10 0 0 1-1.584-1.534c-1.491-1.823-.99-3.395 1.296-4.059 1.604-.463 3.132-.081 4.497.74 1.823 1.09 3.84 1.922 5.274 3.6.175.195.733.37.82.27a1.62 1.62 0 0 0 .451-.99c.063-.895.019-1.778.019-2.674-.019 0-.044-.013-.062-.013.194-1.803.331-3.6.62-5.386.275-1.716.82-3.363 2.035-4.685.445-.482.94-.958 1.491-1.259 1.409-.751 2.718-.206 2.994 1.34.238 1.372.363 2.788.238 4.172-.163 1.954-.589 3.89-.927 5.825-.207 1.102.256 1.584 1.277 1.227.451-.163.833-.507 1.259-.739 2.211-1.265 4.322-2.75 6.865-3.282.707-.144 1.472-.244 2.179-.162 2.03.238 2.524 1.183 1.554 3.037-.414.783-.971 1.553-1.629 2.142-2.417 2.148-5.036 3.965-8.461 4.109-.42.019-1.103.332-1.165.62-.101.476.031 1.196.363 1.516.639.626 1.49 1.02 2.223 1.547 1.391 1.02 2.894 1.922 4.096 3.137.884.896 1.485 2.149 1.967 3.345.482 1.184 0 1.873-1.196 2.192-1.81.482-3.57.495-5.249-.476-2.493-1.422-5.054-2.73-6.977-4.954-.739-.864-1.666-.677-1.998.513-.964 3.552-3.695 5.518-6.457 7.472zm5.693 29.687c4.252-8.68 10.315-15.946 17.343-22.485.306-.275.607-.557.939-.801.175-.132.557-.332.595-.276.194.22.338.495.413.77.063.226.013.483.013.733-.063 2.368-.915 4.466-1.967 6.545-4.622 9.182-11.117 16.999-17.963 24.565a7.5 7.5 0 0 1-1.309 1.121c-.238.162-.595.175-.895.256-.05-.319-.163-.638-.132-.939.338-3.363 1.491-6.482 2.963-9.489m19.804 25.203c.125-.094.626.075.733.257.156.244.144.626.131.946a45.7 45.7 0 0 0 1.773 13.34c.388 1.391.244 1.522-1.228 1.566-1.152.032-2.298.013-3.438.013v-.082c-1.316 0-2.625.032-3.934-.012-.701-.013-1.071-.382-.814-1.121.545-1.547 1.021-3.119 1.691-4.61 1.403-3.132 2.9-6.226 4.384-9.326.163-.363.401-.72.702-.964zm-24.683 1.942c.238-1.892.288-1.967 2.079-1.998 6.495-.094 12.984-.157 19.479-.219 1.165-.013 1.296.238.814 1.309-1.697 3.82-3.426 7.628-5.117 11.455-.495 1.109-.627 2.612-1.453 3.276-.733.576-2.205.225-3.345.288-.576.031-1.152.075-1.728.094-1.316.031-2.493.482-3.088 1.691-.99 1.979-2.543 2.612-4.622 2.324-.414-.063-.821-.013-1.234-.013-.013.05-.013.113-.019.163a636 636 0 0 1-3.808-.533c.113-1.215.207-2.442.351-3.651.557-4.735 1.121-9.457 1.697-14.186zm-8.048-1.716h2.943v-.044c.821-.05 1.635-.163 2.449-.157 1.184.013 1.491.364 1.347 1.491-.508 4.065-1.027 8.123-1.547 12.188-.226 1.779-.508 3.564-.683 5.355-.081.846-.507 1.196-1.265 1.134-.739-.063-1.741.269-1.948-.94a111 111 0 0 1-.482-3.15l-1.76-13.648c-.044-.331-.063-.651-.113-.977-.1-.801.188-1.258 1.052-1.258zm.288 44.162a334 334 0 0 1-4.547-5.825c-.383-.495-.846-.996-1.403-.689-.401.219-.721.845-.815 1.34-.476 2.355-.463 4.748-.075 7.115.464 2.731 1.791 5.073 4.059 6.539 2.511 1.628 3.131 3.539 2.605 6.401-.739 4.027-1.058 8.13-1.566 12.207-.018.163-.031.332-.075.495-.413 1.403-.833 2.812-1.246 4.209-1.629.075-3.263.156-4.892.194-.833.031-1.114-.37-1.071-1.228.176-3.2.276-6.401.401-9.601.032-.739 0-1.485 0-2.224v-10.616c0-.576.044-1.152-.012-1.729-.132-1.628-.382-1.891-2.13-2.004-1.309-.094-2.624-.044-3.933-.081-1.71-.063-1.804-.163-1.428-1.904a320 320 0 0 1 1.697-7.666 4036 4036 0 0 1 3.627-15.615c.463-1.954.463-1.979 2.417-1.997 2.224-.019 4.435-.044 6.658 0 1.547.031 1.572.112 1.86 1.678.639 3.482 1.278 6.958 1.885 10.441.113.639.176 1.315.113 1.954a403 403 0 0 1-.927 8.33c-.044.276-.288.526-.432.783-.269-.163-.595-.269-.783-.495zm.689 4.271c-.144 1.428-.445 2.85-.689 4.272-1.14-.877-2.449-1.604-3.395-2.669-1.835-2.035-2.418-4.59-2.449-7.327.157-.783.301-1.566.445-2.337 1.121-.062 1.409.977 1.935 1.597 1.328 1.554 2.53 3.213 3.714 4.879.301.433.495 1.071.445 1.585zm.927 4.785c.125-.964.156-1.459.256-1.935.132-.533.332-1.04.508-1.566.413.382.876.701 1.215 1.134a109 109 0 0 1 3.037 3.883c.332.451.639.958.821 1.484.125.338.012.771.012 1.165-.363-.125-.732-.194-1.058-.369-1.165-.608-2.318-1.247-3.47-1.854-.977-.526-1.491-1.265-1.315-1.936zm4.252-2.223c-.206-.126-.463-.207-.595-.37-.783-.958-1.566-1.916-2.286-2.912-.332-.445-.495-.99-.676-1.359.269-1.904.495-3.614.739-5.324.019-.144.156-.276.238-.413.125.156.319.288.369.451a894 894 0 0 1 2.349 9.069c.063.256-.081.563-.132.851zm-2.737-23.368c-.031.206-.206.388-.307.576-.163-.144-.432-.276-.463-.451-.307-1.691-.576-3.376-.852-5.067-.144-.82.175-1.234 1.027-1.234.99-.012 1.234.244 1.203 1.522-.188 1.422-.382 3.044-.608 4.654m-5.561-24.057c.588 4.96 1.258 9.914 1.86 14.862.188 1.46.156 1.485-1.372 1.522-1.14.044-2.286.013-3.426.013-.012.05-.012.1-.012.156-1.228 0-2.449.019-3.683-.012-.677-.019-.996-.363-.908-1.121a897 897 0 0 0 1.597-12.921c.175-1.535.175-3.1.257-4.654.043-.852.4-1.309 1.346-1.39 3.771-.351 3.89-.238 4.334 3.539zm-2.493-17.806c.607 3.739 1.071 7.497 1.553 11.242.194 1.472.113 1.516-1.39 1.585-.821.043-1.648.031-2.462.081-1.472.094-2.079.639-2.305 2.029-.05.32-.044.652-.05.977-.238 6.426-.852 12.827-2.111 19.116-1.371 6.845-3.1 13.616-4.641 20.43-.476 2.08-.864 4.178-1.315 6.27-.044.219-.288.576-.363.557a1.7 1.7 0 0 1-.739-.42c-.163-.162-.257-.419-.332-.651-.996-3.169-3.457-5.136-5.85-7.165-1.171-.996-2.612-1.328-4.065-1.66-1.597-.363-3.213-.701-4.816-1.04-2.324-.507-3.758-2.004-4.447-4.19-.914-2.874-1.04-5.806-.194-8.737.388-1.346.852-2.668 1.184-4.027 1.133-4.816-.802-7.898-5.631-8.844-2.017-.388-4.09-.451-6.107-.783-3.595-.588-4.866-1.772-5.405-5.373-.27-1.76-.125-3.602-.131-5.405-.013-.915.513-1.297 1.409-1.297q4.077.03 8.155.031c3.94.013 7.898 0 11.85 0v.27c6.081 0 12.175 0 18.269.012.483 0 .977.044 1.472.013.958-.05 1.535-.558 1.585-1.535.044-.739.019-1.484.031-2.223.075-6.082.144-12.176.226-18.264.012-.795-.238-1.86.814-2.092.996-.225 2.11-.187 3.131 0 .332.051.639.884.752 1.41.676 3.219 1.39 6.432 1.923 9.676zm-.414-23.494c1.297-1.259 2.656-2.449 3.984-3.664.188-.163.382-.32.595-.432.989-.576 2.236-1.603 3.119-.946 1.071.783-.044 2.092-.414 3.088-1.453 3.902-3.97 7.165-6.444 10.441-1.184 1.566-2.85 2.43-4.898 2.418-.896 0-1.804.112-2.7.175-3.996-.063-7.854-.733-11.53-2.286a11.1 11.1 0 0 1-2.53-1.485c-.683-.526-.527-1.503.288-1.778 2.624-.896 5.117-2.255 7.985-2.355 1.297-.044 2.38.244 3.376 1.12 1.716 1.523 3.52 2.963 5.292 4.429.383.307.765.62 1.197.852.156.094.507.031.639-.094.144-.132.269-.514.175-.639-.595-.877-1.246-1.647-.852-2.881.658-2.11 1.027-4.347 2.718-5.963m-3.52-7.403c1.46-1.058 2.224-.707 2.575 1.04.238 1.202.269 2.443.432 4.033-.063.207-.082.865-.42 1.234-1.635 1.748-2.336 3.915-2.931 6.144-.307 1.14-.514 1.197-1.503.451-.783-.588-1.604-1.165-2.286-1.853-1.572-1.604-3.439-2.161-5.612-1.81-.413.062-.821.093-1.228.143-1.453.207-1.822.02-1.985-.995-.163-1.04.4-1.936 1.453-2.224.225-.062.482-.094.733-.081 1.472.05 2.467-.677 3.213-1.892.338-.557.676-1.165 1.165-1.565.545-.445 1.246-.946 1.885-.965 1.741-.044 3.138-.658 4.522-1.66zm-4.885-46.886c-.1 1.39-.019 2.8-.019 4.203h-.043c0 1.647-.013 3.281 0 4.929 0 .964-.514 1.315-1.41 1.265a2574 2574 0 0 0-9.84-.564c-.331-.019-.657-.075-.989-.075-8.969-.044-17.931-.075-26.9-.113-1.647 0-3.313.176-4.942-.019-1.428-.175-2.943-.513-4.221-1.183-2.149-1.14-2.268-3.52-.401-5.105 1.027-.877 2.242-1.472 3.626-1.346 1.71.156 3.42.388 5.099.733 1.453.3 2.83.895 4.284 1.183 1.81.37 2.542-.257 2.737-2.13.219-1.947.476-2.21 2.499-1.953 2.204.275 4.378.732 6.576 1.058 1.134.175 2.286.338 3.426.307 1.998-.031 3.676-.72 4.716-2.605 1.347-2.43 3.47-3.314 6.22-3.076 2.73.226 5.373.702 7.885 1.842 1.171.526 1.804 1.277 1.697 2.655zM33.75 81.022c-.082-2.8-.063-5.587-.044-8.393.012-1.998.507-2.543 2.637-2.675 3.2-.206 6.194.533 8.906 2.318 1.09.72 2.154 1.522 3.307 2.148 2.386 1.284 3.407 1.171 5.198-.833 1.886-2.13 4.065-2.85 6.833-2.223 3.953.908 7.497 2.467 9.921 5.887.883 1.246 2.099 1.904 3.539 1.948 1.71.063 3.451.013 5.136-.27 2.298-.363 4.56-.676 6.827-.012.845.257 1.916.363 2.092 1.46.206 1.233-.59 2.079-1.604 2.498a26.7 26.7 0 0 1-4.447 1.39c-3.707.796-7.472 1.09-11.26 1.084-5.024-.018-10.034-.012-15.051-.012v.188c-5.662.081-11.337.219-17.005.238-6.157.031-4.835.225-4.98-4.748zm.006 8.85c0-.414-.031-.821 0-1.234.081-1.266.207-1.39 1.46-1.403 3.538-.013 7.083.03 10.622-.032 9.952-.156 19.91-.32 29.863-.563 3.47-.082 6.858-.82 10.158-1.86 1.46-.464 2.675-1.26 3.376-2.7.965-1.998.533-3.282-1.503-4.171-2.017-.852-4.146-1.009-6.3-.783-1.06.112-2.111.382-3.17.507-1.133.113-2.286.226-3.426.188-1.371-.05-2.449-.626-3.338-1.791-2.931-3.79-6.99-5.618-11.63-6.282-2.613-.37-4.836.37-6.69 2.349-1.66 1.772-2.443 1.84-4.49.7-.577-.319-1.116-.707-1.635-1.101-3.54-2.637-7.516-3.602-11.87-3.088-1.346.156-1.452.094-1.483-1.203a634 634 0 0 1-.1-9.131c-.05-9.79-.063-19.592-.145-29.381-.018-3.075.144-2.875 2.819-2.85 17.198.163 34.403.307 51.602.464 4.93.043 9.87.081 14.813.125.739.012 1.484.044 2.223.075.764.031 1.234.363 1.228 1.203 0 1.647.043 3.294 0 4.929-.019.977-.301 1.133-1.234.733-2.531-1.059-5.18-1.554-7.904-1.804-3.22-.3-5.907.545-7.616 3.42-1.203 2.016-2.957 2.511-5.074 2.204-2.511-.37-5.023-.845-7.547-1.234-.802-.125-1.635-.219-2.449-.144-1.76.132-2.442.852-2.674 2.606-.238 1.71-.238 1.697-1.948 1.284-2.317-.558-4.61-1.197-6.946-1.635-2.004-.382-4.002-.063-5.618 1.234-.927.739-1.772 1.76-2.255 2.83-.795 1.748-.094 3.52 1.604 4.723 1.597 1.121 3.426 1.679 5.342 1.691 3.695.013 7.403-.175 11.099-.188 3.858 0 7.722.082 11.58.188 6.332.188 12.664.42 18.99.64.163 0 .332.012.495.018 2.098.125 2.123.125 2.13 2.324.012 3.294.012 6.588 0 9.87-.019 6.915-.063 13.836-.044 20.744 0 1.31-.144 2.305-1.453 3.088-.927.557-1.597 1.628-2.243 2.562-.563.801-1.183 1.183-2.21 1.277-2.769.27-3.809 1.71-3.326 4.528.175.996-.207 1.36-1.021 1.585-.626.188-1.246.413-1.873.608-1.102.363-1.885 1.02-2.03 2.236-.143 1.202.477 2.079 1.441 2.655a19 19 0 0 0 2.875 1.409c2.85 1.121 5.806 1.748 8.875 1.998 1.842.144 1.892.301 1.679 2.124a87 87 0 0 0-.245 2.924c-.062.771-.4 1.234-1.227 1.228-.495-.013-.99.019-1.485.013-11.273-.094-22.553-.188-33.827-.276v-.044c-10.86-.094-21.733-.175-32.587-.269-.495 0-.99 0-1.485-.013q-2.029-.043-2.048-2.079c-.044-6-.081-12.013-.125-18.013zm9.958 34.309c-.112.482-.1 1.009-.306 1.441-.145.307-.533.707-.821.707-2.555.032-5.098.013-7.647-.093-.288-.019-.74-.627-.796-1.009-.131-.964-.094-1.967-.1-2.944-.031-2.881-.05-5.755-.063-8.637-.018-2.16.02-2.223 2.161-2.21 7.485.05 14.97.125 22.454.162 3.776.019 7.553.013 11.342.013v.42h33.784c2.831.05 2.875.094 2.894 2.924.018 3.132.05 6.251.075 9.37.031 2.812 0 2.863-2.894 2.819-2.298-.044-4.59-.188-6.896-.22-9.695-.093-19.403-.156-29.098-.238-.332 0-.658-.012-.99 0-.883.019-1.347-.432-1.484-1.296-.144-.965-.27-1.954-.533-2.9-.689-2.38-2.223-3.964-4.635-4.685-3.212-.958-6.432-1.202-9.726-.388-3.633.896-5.85 3.15-6.714 6.764zm42.565 49.736c-3.695.032-7.41.132-11.054-.657-1.278-.276-2.575-.608-3.771-1.115-2.242-.946-3.42-2.769-3.708-5.149-.131-1.052-.094-2.129-.094-3.2 0-.896.094-1.804.082-2.706-.013-2.699-1.153-4.829-3.533-6.075-1.872-.99-3.914-1.679-5.875-2.499-1.14-.464-2.298-.896-3.42-1.403-1.083-.495-1.665-1.391-1.515-2.587.22-1.534.37-3.119.883-4.572.752-2.173.244-3.77-1.378-5.311-1.728-1.635-3.307-3.439-4.879-5.217-.701-.802-1.284-1.716-1.854-2.612-2.768-4.434-1.515-11.675 6.476-12.301 2.092-.163 4.272.081 6.351.463 2.831.508 4.435 2.431 4.81 5.249.22 1.697.188 3.439.27 5.155q-.148.018-.288.018c.163 2.211.206 4.435.532 6.621.42 2.78 2.08 4.653 4.86 5.279 1.835.414 3.727.527 5.587.852 1.36.245 2.756.451 4.034.959 1.954.782 2.987 2.398 2.736 4.497-.194 1.697-.62 3.388-1.14 5.023-.964 3.069-1.058 6.125-.363 9.244.796 3.551 2.75 5.9 6.495 6.514 1.535.257 3.05.657 4.579.964 1.484.301 2.737.965 3.883 2.005 1.835 1.666 3.726 3.25 4.497 5.743.332 1.04.3 1.171-.677 1.259-2.035.188-3.858-.019-5.386-1.716-1.86-2.08-4.397-2.75-7.153-2.737zm-20.355 21.521c.05-4.51.125-9.026.194-13.548.031-2.048.125-2.179 2.273-2.267 2.543-.1 5.099-.207 7.641-.157 5.418.113 10.817.37 16.235.483 2.13.043 4.271-.194 6.4-.176 3.283.019 6.571.144 9.853.219.895.013 1.327.383 1.309 1.341-.05 4.754-.044 9.52-.113 14.28-.031 1.835-.157 1.916-2.029 1.954-6.733.125-13.466.207-20.205.307v.131c-6.32 0-12.652 0-18.984.013-2.587 0-2.606 0-2.574-2.587zm4.158 4.064c10.272-.163 20.55-.194 30.822-.3 2.304-.019 4.603-.157 6.895-.188 1.391-.019 1.566.163 1.604 1.566.044 1.227.05 2.467-.013 3.695-.081 1.346-.225 1.453-1.666 1.534-.651.032-1.309.013-1.966.013h-18.49v-.288H67.547c-1.553-.013-1.71-.113-1.691-1.66.062-5.249-.69-4.303 4.221-4.378zm-6.751.508c-2.831-2.224-5.819-4.334-7.886-7.341-2.38-3.457-.576-7.265 1.792-9.244 1.553-1.297 5.824-.545 6.958 1.14.3.444.413 1.071.42 1.616.044 2.048.018 4.108.018 6.156h-.238c0 2.38.044 4.754-.018 7.134q-.03 1.342-1.053.532zm45.746 13.403c-1.71.513-3.551.764-5.342.77-9.627.044-19.247 0-28.874-.075-3.138-.019-6.22-.639-9.056-1.979-2.669-1.259-5.186-2.831-7.754-4.29-.257-.132-.401-.451-.595-.677.27-.1.532-.307.801-.307 4.692 0 9.377.032 14.074.044 5.756.013 11.505 0 17.261 0v.382h30.596c.244 0 .507-.019.739.019.219.044.413.163.62.244-.094.194-.144.483-.307.576-1.265.765-2.499 1.629-3.852 2.193-2.73 1.14-5.486 2.236-8.305 3.1zm24.571 1.008c-2.287-.062-4.573-.225-6.859-.156-4.415.144-8.824-.176-13.24-.05-.257.012-.526-.188-.795-.276.238-.194.45-.464.72-.564 2.768-1.052 5.53-2.11 7.998-3.776.413-.276.908-.464 1.227-.815.339-.388.852-1.089.708-1.371-.288-.595-.883-1.203-1.49-1.441-.652-.244-1.46-.081-2.205-.081-.852.012-1.184-.389-.996-1.228.301-1.359.708-2.705.896-4.077a515 515 0 0 0 1.459-11.969c.301-2.75.269-2.781 2.687-1.535 1.309.671 2.53 1.485 3.839 2.174.721.382.702 1.027.852 1.659.739 3.026 1.403 6.082 2.267 9.082 1.266 4.416 2.687 8.781 4.046 13.178.364 1.165.082 1.503-1.121 1.259zm5.449.063c-.495.05-1.009.156-1.472.044-.401-.1-.915-.389-1.084-.739-.463-.959-.783-1.986-1.121-2.994-2.555-7.472-4.353-15.145-6.138-22.823-1.584-6.89-3.338-13.735-5.023-20.587-.445-1.76-.676-3.501-.382-5.343.495-2.994.77-6.031 1.152-9.05.238-1.842.257-1.842 2.13-1.892.576-.018 1.152-.012 1.716-.012.013-.044.013-.094.019-.144 1.027.131 2.06.257 3.1.388-.445.927-.833 1.892-1.34 2.787-1.052 1.854-1.372 3.614-.865 5.85 1.284 5.693 2.124 11.468 3.163 17.211a12755 12755 0 0 0 6.107 33.715c.157.877.451 1.741.708 2.606.194.651-.094.927-.683.989zm66.227-6.495c-1.429 1.904-2.85 3.82-4.353 5.662-.765.927-1.861 1.278-3.101 1.259a479 479 0 0 0-7.403-.075h-15.476c-1.666 0-3.313-.013-4.979-.013-8.506 0-16.93-.244-25.441-.244-2.593 0-3.489-.702-4.003-3.326-1.083-5.486-2.092-10.986-3.087-16.478-1.773-9.79-3.52-19.579-5.293-29.368-.419-2.337-.895-4.685-1.246-7.04-.1-.764-.113-1.71.238-2.355 1.008-1.873 2.204-3.652 3.363-5.443.332-.507.796-.639.99.144.607 2.461 1.284 4.923 1.76 7.409 2.298 12.201 4.541 24.396 6.795 36.596.451 2.43.883 4.86 1.328 7.291.132.72.244 1.459.451 2.16.62 2.08 1.372 2.656 3.539 2.656 10.121 0 20.236-.013 30.357-.031 6.909 0 13.817-.019 20.725-.013 1.472 0 2.957.094 4.416.194.72.05.783.533.413 1.021zm.764-2.618c-.708.163-1.46.301-2.193.288-10.353-.05-20.712-.144-31.065-.188-6.99-.031-13.979 0-20.969.013-.739 0-1.484.012-2.224-.013-1.916-.069-2.06-.131-2.448-2.004-.927-4.428-1.81-8.85-2.644-13.297-2.004-10.735-3.97-21.495-5.968-32.243-.495-2.668-1.028-5.323-1.554-7.979-.476-2.38 0-2.994 2.412-2.994 8.718-.012 17.436-.012 24.025-.012 10.842.144 19.56.256 28.266.382.576.012 1.14.1 1.71.163 1.791.187 2.737 1.139 3.106 2.943 1.216 5.875 2.525 11.725 3.796 17.594 2.324 10.76 4.666 21.526 6.971 32.293.225 1.027.369 2.11.369 3.169 0 1.121-.482 1.634-1.584 1.885z"/>
    <path fill="#1e1c1c" d="M190.424 100.149c-3.182 1.716-6.67 2.336-10.234 2.255-2.612-.069-5.23-.482-7.823-.908-2.029-.332-3.307-1.585-3.914-3.626-1.009-3.358-1.059-6.802-1.278-10.905.244-2.38.557-5.392.877-8.417.194-1.904 1.14-3.389 2.587-4.591.595-.483 1.133-.37 1.277.382.27 1.359.576 2.755.533 4.127-.113 3.695-.389 7.39-.608 11.074-.031.576-.113 1.164-.019 1.716.05.338.389.638.608.945.257-.256.67-.476.751-.77.545-1.891.996-3.82 1.516-5.725a13.4 13.4 0 0 1 3.395-5.918c.676-.69 1.459-1.666 2.511-1.203 1.203.526.977 1.842.739 2.85a14.8 14.8 0 0 1-1.296 3.438c-1.409 2.7-2.944 5.33-4.397 7.998a8.8 8.8 0 0 0-.751 1.81c-.076.245.075.702.275.852.194.144.651.132.883 0 .414-.244.733-.657 1.121-.958 2.286-1.741 4.529-3.539 6.896-5.154.908-.62 2.098-.884 3.201-1.134.67-.144 1.089.532.707 1.12-.588.884-1.215 1.792-2.004 2.462-1.76 1.485-3.626 2.831-5.455 4.234-.388.3-.821.545-1.165.896-.207.207-.432.701-.332.833.207.27.651.589.939.545 1.71-.257 3.395-.626 5.099-.946 1.284-.238 2.586-.445 3.883-.658.156-.03.332-.043.482-.043 1.215.05 2.931-.126 3.295.99.444 1.377-1.278 1.86-2.305 2.417zM151.861 82.205c-.063 2.368-.915 4.466-1.967 6.545-4.622 9.182-11.117 16.999-17.963 24.565a7.5 7.5 0 0 1-1.309 1.121c-.238.162-.595.175-.895.256-.05-.319-.163-.638-.132-.939.338-3.363 1.491-6.482 2.963-9.489 4.252-8.68 10.315-15.946 17.343-22.485.306-.275.607-.557.939-.801.175-.132.557-.332.595-.276.194.22.338.495.413.77.063.226.013.483.013.733M114.07 89.64c-.063.206-.082.864-.42 1.233-1.635 1.748-2.336 3.915-2.931 6.145-.307 1.14-.514 1.196-1.503.45-.783-.588-1.604-1.164-2.287-1.853-1.572-1.604-3.438-2.161-5.611-1.81-.414.062-.821.093-1.228.144-1.453.206-1.823.018-1.985-.996-.163-1.04.4-1.936 1.453-2.224a2.4 2.4 0 0 1 .732-.081c1.472.05 2.468-.676 3.214-1.891.338-.558.676-1.166 1.164-1.566.545-.445 1.247-.946 1.886-.965 1.741-.044 3.138-.657 4.522-1.66 1.459-1.058 2.223-.707 2.574 1.04.238 1.203.269 2.443.432 4.034zM109.397 204.281c-.082 1.347-.226 1.453-1.666 1.535-.652.031-1.309.012-1.967.012H87.275v-.288H67.552c-1.553-.013-1.71-.113-1.69-1.66.062-5.248-.69-4.303 4.22-4.378 10.272-.163 20.55-.194 30.822-.3 2.304-.019 4.603-.157 6.895-.188 1.391-.019 1.566.163 1.604 1.566.044 1.227.05 2.467-.013 3.695zM103.785 127.15c-2.298-.044-4.59-.188-6.896-.219-9.695-.094-19.403-.157-29.098-.238-.332 0-.658-.013-.99 0-.883.019-1.347-.432-1.484-1.297-.144-.964-.27-1.954-.533-2.899-.689-2.38-2.223-3.965-4.635-4.685-3.213-.959-6.432-1.203-9.726-.389-3.633.896-5.85 3.151-6.714 6.765-.113.482-.1 1.008-.307 1.44-.144.307-.533.708-.82.708-2.556.031-5.099.012-7.648-.094-.288-.019-.74-.626-.796-1.008-.131-.965-.093-1.967-.1-2.944-.031-2.881-.05-5.756-.062-8.637-.02-2.161.018-2.223 2.16-2.211 7.485.05 14.97.125 22.454.163 3.777.019 7.553.012 11.343.012v.42h33.783c2.831.05 2.875.094 2.894 2.925.019 3.132.05 6.251.075 9.37.031 2.812 0 2.862-2.894 2.818zM176.407 199.24c-2.75.068-5.506.15-8.255.15h-13.961c-2.443 0-2.461-.025-2.9-2.324-.307-1.616-.632-3.225-.946-4.841-2.405-12.52-4.816-25.034-7.215-37.554-.401-2.092.044-2.681 2.249-2.694 7.24-.037 14.486-.018 21.727-.025q10.494-.002 20.988-.012c.413 0 .82-.006 1.234 0 2.417.069 2.661.232 3.137 2.549 1.911 9.432 3.79 18.865 5.687 28.297.896 4.434 1.817 8.856 2.706 13.291.608 3.031.589 3.037-2.461 3.037h-15.439c-2.18 0-4.359.05-6.539.107zm-.22-1.266v-.062c2.387 0 4.773.012 7.159 0 4.936-.038 9.871-.069 14.8-.138 1.428-.019 1.61-.269 1.409-1.591-.05-.326-.156-.639-.219-.958l-5.186-25.861c-.971-4.835-1.935-9.677-2.918-14.505-.32-1.554-.414-1.61-1.917-1.698-.407-.025-.82-.012-1.234-.012h-39.727c-.902 0-1.81-.019-2.712.031-1.165.069-1.309.257-1.178 1.328.038.325.138.645.201.964l6.858 35.588c.357 1.854.745 3.708 1.046 5.574.163 1.021.676 1.422 1.666 1.353.407-.025.82-.006 1.234-.006H176.2zM175.086 213.814c-1.309 0-2.625.018-3.934-.013-.57-.012-1.165-.044-1.697-.219-1.209-.407-1.34-1.347-.476-2.198.846-.84 1.729-1.923 2.743-2.593.733-.483 1.654-.232 2.524-.213 2.324.05 4.641-.038 6.965-.032.326 0 .658.044.977.107 1.497.294 1.779.895.94 2.204-.439.683-1.046 1.259-1.516 1.929-.526.746-1.196 1.034-2.098 1.009-1.472-.044-2.95-.013-4.422-.013v.032zm-4.535-2.299c-.156.37-.395.702-.695.965 1.76-.113 3.532.037 5.292.037 1.153 0 2.305-.056 3.445.019 1.835.119 2.499-1.215 3.345-2.58-.433 0-.952-.195-1.328-.038-.182.075-.602.532-.789.689-.458.382-1.197 1.415-1.911.983l-7.359-.069zM135.357 61.543c-1.127 0-1.691-.57-1.603-1.246.1-.777.62-1.102 1.359-1.09.689.013 1.083.438 1.033 1.084-.056.67-.375 1.246-.789 1.252"/>
    <path fill="#1e1c1c" d="M159.446 191.842c1.133.069 1.246 2.343-.251 2.055-1.015-.194-1.108-1.691-.119-2.005.132-.043.257-.056.37-.05M180.528 192.769c-.076 1.115-2.374 1.203-2.011-.357.226-.952 1.779-.851 1.986.094q.028.141.018.263zM189.91 193.239c-.15.144-.401.583-.695.614-.708.075-1.053-.457-.977-1.09.037-.313.388-.726.689-.833.526-.188 1.002.401.983 1.315zM170.682 192.788c.026 1.46-2.342.965-1.841-.206.42-.971 1.816-1.015 1.841.206M183.578 172.94c.457 2.468.964 4.936 1.365 7.403.301 1.817-.125 2.261-2.004 2.399-.451.031-.908.019-1.366.025-3.72.044-7.44.113-11.167.113-1.284 0-2.593-.125-3.896-.276-1.472-.169-1.766-.419-2.029-1.785-.426-2.179-.764-4.353-1.152-6.532-.52-2.9-1.034-5.8-1.597-8.7-.314-1.609-.019-2.098 1.666-2.179 4.972-.238 10.234.175 15.213-.044a8.5 8.5 0 0 1 1.14 0c1.353.1 1.791.401 2.142 1.722.745 2.819 1.146 5.023 1.847 7.848-.05 0-.106 0-.156.006z"/>
</svg>
