<svg xmlns="http://www.w3.org/2000/svg" width="133" height="169" fill="none" viewBox="0 0 133 169">
    <path fill="#000" d="M131.414 98.11c-.186-.195-.347-.415-.508-.634-.929-1.263-2.228-1.98-3.718-2.287a353 353 0 0 1-11.87-2.643c-.264-.064-.523-.156-.787-.19-2.618-.361-5.177-.985-7.752-1.556-1.451-.327-2.931-.526-4.391-.79a4.23 4.23 0 0 0-2.203.19c-.797.278-1.436.761-1.734 1.585-.279.756-.626 1.497-.709 2.316a.65.65 0 0 1-.166.361c-.078.078-.283.166-.332.127-.542-.434-.874-1.014-1.094-1.663-.04-.112.005-.278.068-.385.303-.527.65-1.029.933-1.565.318-.595.61-1.2.865-1.824.38-.931.288-1.863-.142-2.75-.205-.42-.493-.805-.742-1.205-.543-.863-1.33-1.336-2.345-1.375-.948-.034-1.89-.014-2.838-.014-.381 0-.65-.18-.801-.508-.645-1.35-1.124-2.75-1.075-4.276.024-.81.044-1.624.078-2.433.034-1.01.112-2.024.112-3.033 0-2.165 0-4.325-.078-6.486-.068-1.955-.122-3.915-.38-5.86a11 11 0 0 1-.045-2.224c.2-2.76.591-5.5.904-8.246.303-2.618.562-5.237.806-7.86.049-.527-.039-1.078-.112-1.61-.088-.6-.508-.955-1.055-1.106-.382-.108-.811-.171-1.197-.117-1.68.238-3.107.99-4.055 2.418-.747 1.122-1.416 2.297-1.832 3.599-.327 1.029-.737 2.033-.913 3.106-.044.258-.17.512-.298.746-.034.073-.185.088-.347.151-.141-.683-.308-1.336-.405-2a84 84 0 0 1-.748-7.65c-.156-3.038-.132-6.076.147-9.109.093-1.01.064-2.023.068-3.038a5.5 5.5 0 0 0-.425-2.18c-.537-1.282-1.04-1.906-2.838-1.574-.478.087-.894.307-1.27.604a4.46 4.46 0 0 0-1.314 1.775c-.425.995-.694 2.043-.952 3.092-.083.326-.147.658-.23.985-.059.239-.332.478-.405.37-.069-.097-.166-.195-.176-.302-.161-1.882-.293-3.77-.47-5.651a11.3 11.3 0 0 0-.35-1.985c-.123-.444-.372-.873-.636-1.253-.42-.61-1.29-.873-1.993-.668-.87.253-1.602.716-2.15 1.443-.78 1.034-1.382 2.16-1.709 3.418-.24.912-.44 1.834-.655 2.75-.107-.068-.263-.112-.317-.214a3.5 3.5 0 0 1-.298-.741 8.1 8.1 0 0 0-.972-2.219c-.533-.853-1.583-1.126-2.482-.687-.82.4-1.455.975-1.875 1.784-.406.79-.704 1.61-.738 2.502-.03.74-.064 1.482-.098 2.174-.474.313-.908.41-1.377.22-.264-.444-.152-.927-.186-1.39-.132-1.692-.415-3.355-1.114-4.915-.19-.434-.395-.863-.64-1.263-.37-.614-.918-.936-1.66-1.005-.792-.068-1.446.196-2.008.659-.318-.176-.405-.43-.489-.688-.21-.639-.415-1.282-.64-1.92a3.7 3.7 0 0 0-.864-1.357c-.342-.36-.777-.594-1.26-.56-1.446.097-2.6.663-3.21 2.082-.376.873-.688 1.76-.84 2.696-.098.6-.205 1.19-.342 1.98-.435-.429-.41-.79-.513-1.102-.244-.775-.513-1.531-.903-2.248-.806-1.487-2.672-1.55-3.669-.746-.655.532-1.148 1.156-1.358 1.965a41 41 0 0 0-.718 3.155c-.235 1.326-.367 2.672-.586 4.004-.332 1.999-.753 3.978-1.031 5.983-.43 3.15-1.255 6.217-1.915 9.318-.088.395-.19.785-.317 1.17-.03.078-.2.127-.313.161-.044.015-.137-.039-.161-.083-.376-.712-.791-1.409-1.114-2.145-.65-1.497-1.48-2.887-2.398-4.223-.303-.444-.674-.843-1.06-1.224-1.046-1.038-3.014-.79-3.835.21-.347.42-.64.853-.787 1.394-.39 1.405-.361 2.804-.043 4.209.21.921.478 1.828.698 2.75.347 1.443.61 2.906 1.021 4.33.894 3.101 1.036 6.246.684 9.43a59 59 0 0 0-.244 2.624c-.152 2.219-.494 4.428-.4 6.666.019.458-.235.765-.66.916a5.25 5.25 0 0 0-2.306 1.585c-.42.493-.63 1.014-.635 1.658-.01 2.16-.19 4.31-.396 6.466-.356 3.701-.972 7.358-1.744 10.991-.322 1.517-.747 3.013-1.128 4.52-.068.283-.278.454-.532.561a3 3 0 0 1-.577.195c-1.978.439-3.962.868-5.945 1.297-1.65.361-3.297.736-4.953 1.087-1.583.332-2.911 1.054-3.879 2.385q-.352.49-.757.951c-.596.682-.899 1.497-1.094 2.365a7.2 7.2 0 0 0-.122 2.418c.107.937.264 1.873.464 2.794.479 2.175.997 4.34 1.495 6.51.908 3.945 1.822 7.89 2.72 11.84.733 3.223 1.437 6.456 2.16 9.684.713 3.16 1.421 6.319 2.144 9.479 1.1 4.803 2.316 9.577 3.2 14.429.307 1.682 1.28 2.95 2.491 4.067.195.18.44.326.689.419 1.211.454 2.442.717 3.756.444 4.436-.917 8.876-1.819 13.316-2.716 2.453-.493 4.91-.941 7.357-1.468 1.319-.283 2.657-.463 3.932-.97 2.096-.839 3.44-2.336 4.118-4.443.25-.765.498-1.555.386-2.384-.151-1.068-.298-2.136-.503-3.199-.278-1.458-.6-2.906-.909-4.359-.688-3.233-1.362-6.471-2.09-9.699-.235-1.039-.137-1.941.356-2.916 2.95-5.783 5.364-11.805 7.46-17.94a162 162 0 0 0 4.884-17.339c.938-4.223 1.74-8.465 2.277-12.757.083-.663.249-1.316.4-1.975.01-.043.274-.107.318-.058.991 1.014 1.939 2.067 2.95 3.062 1.026 1.005 1.837 2.16 2.511 3.409s1.294 2.526 1.93 3.793c.146.298.376.571.278 1.04-.234.37-.537.818-.816 1.281-.347.576-.674 1.166-1.016 1.751a1.7 1.7 0 0 0-.23 1.17c.245 1.517.885 2.819 2.101 3.814.752.614 1.539 1.038 2.58.911.796-.092 1.611-.126 2.456.015.171.317.337.605.489.897 1.495 2.877 2.95 5.779 4.494 8.631a353 353 0 0 0 8.763 15.287c.318.522.64 1.039.953 1.561.176.297.225.629.186.975-.025.2-.05.4-.093.6-.9 4.222-1.818 8.445-2.692 12.673-.249 1.185-.386 2.399-.566 3.598a1.5 1.5 0 0 0 0 .4c.273 3.17 2.237 5.637 4.83 6.398.65.19 1.3.38 1.955.517q4.47.934 8.939 1.838c4.572.927 9.144 1.839 13.717 2.765.4.078.791.132 1.201.039.528-.122 1.07-.185 1.593-.327.517-.141 1.03-.346 1.426-.736 1.124-1.102 2.086-2.297 2.35-3.925.171-1.068.386-2.126.62-3.18a4156 4156 0 0 1 2.999-13.229c1.109-4.866 2.228-9.733 3.337-14.599a7158 7158 0 0 0 2.525-11.055c.704-3.091 1.368-6.192 2.115-9.274.269-1.122.469-2.248.586-3.389.206-1.946-.122-3.77-1.528-5.271m-31.791-6.3c.264-.478.786-.722 1.358-.776a8.6 8.6 0 0 1 2.428.146c1.323.254 2.652.503 3.966.82 1.905.458 3.83.819 5.755 1.185 1.66.317 3.307.692 4.953 1.053 2.511.55 5.016 1.107 7.518 1.663.595.131 1.191.253 1.768.439 1.192.38 1.929 1.204 2.193 2.423.088.39.103.805.108 1.204.009.859-.264 1.127-1.085.956-1.788-.375-3.58-.726-5.358-1.112-1.852-.404-3.689-.863-5.535-1.263-1.651-.35-3.317-.653-4.968-.994-4.103-.849-8.202-1.697-12.3-2.57-.518-.112-1.075-.156-1.573-.551-.068-.946.323-1.81.772-2.624m-.303 4.066c.928.166 1.861.337 2.784.532 5.344 1.136 10.693 2.282 16.042 3.423 3.366.717 6.732 1.424 10.097 2.141.201.039.425.058.577.17.146.103.303.312.312.483.039.673-.044 1.331-.2 1.994a231 231 0 0 0-1.534 6.7c-.493 2.38-1.118 4.72-1.666 7.085-.537 2.297-1.04 4.599-1.572 6.9-.044.195-.152.371-.235.556-.073.166-.371.229-.518.103-.908-.805-1.846-1.585-2.711-2.434-2.608-2.545-5.178-5.129-7.664-7.797a115 115 0 0 1-8.065-9.611 188 188 0 0 0-2.819-3.706c-1.128-1.433-2.11-2.97-3.111-4.49-.43-.65-.42-.659-.474-1.893.22-.21.493-.204.757-.156m-4.235-10.8c.088.024.17.185.205.292a.8.8 0 0 1 0 .395c-.225.917-.61 1.76-1.211 2.497-.166.204-.523.18-.67-.059a2 2 0 0 1-.102-.17c-.381-.78-.767-1.556-1.129-2.346-.073-.166-.044-.385-.063-.639 1.006-.2 1.988-.229 2.97.03m-5.569-42.97c.064-.175.235-.327.39-.434.07-.044.27.02.348.093a.6.6 0 0 1 .151.366c.02.336.04.672.01 1.009q-.154 1.909-.352 3.818c-.024.263-.117.527-.22.77a.45.45 0 0 1-.298.235c-.102.014-.263-.064-.327-.152-.117-.156-.234-.346-.259-.536-.063-.532-.083-1.068-.117-1.604.044-1.23.24-2.419.674-3.565m-32.7-7.514c.025-.039.128-.044.191-.044a.3.3 0 0 1 .147.073.4.4 0 0 1 .102.17c.035.2.054.4.098.781-.088.356-.21.873-.361 1.385-.035.102-.19.17-.293.244-.142.097-.289.058-.313-.117-.132-.898.034-1.829.43-2.492m-5.514-7.587c.098-.273.45-.468.708-.664.205-.156.61.02.635.25.05.457.093.92.093.955.015 1.233.015 2.038-.39 2.77-.24.429-.582.716-1.105.75-.352.025-.693-.238-.684-.56.044-1.21.323-2.38.743-3.501m-5.764-3.999c.117-.253.337-.439.62-.439.18 0 .406.073.528.195.127.132.185.356.23.546.21.951.043 1.873-.299 2.756-.18.458-.571.726-1.04.877-.215.064-.596-.175-.596-.4-.005-.263-.005-.531-.005-.794-.005-.956.166-1.873.562-2.74m-8.046 4.969c.245-1.102.484-2.209.743-3.306.063-.278.664-.376.845-.142.122.152.244.317.293.503.293 1.068.117 2.116-.264 3.125-.107.293-.371.546-.62.756-.117.103-.371.093-.552.064-.205-.03-.469-.425-.454-.595.014-.132.034-.264.049-.395-.015-.005-.025-.005-.04-.01M24.85 48.791c-.42-1.409-.967-2.798-.982-4.373.02-.196.03-.469.084-.727.024-.107.136-.21.23-.288.107-.092.453-.029.56.083.089.098.211.18.265.298.566 1.302 1.02 2.633 1.035 4.071.005.41-.102.79-.469 1.058-.17.127-.664.064-.723-.121m.416 1.702c.317-.248.654-.468.947-.74.748-.688 1.09-1.547.89-2.556-.172-.858-.401-1.707-.621-2.555-.298-1.15-.782-2.165-1.998-2.628-.156-.059-.195-.39-.108-.532.45-.707 1.114-.96 1.91-.858.255.034.533.17.714.346.342.322.669.678.923 1.068.562.844 1.153 1.682 1.588 2.59.845 1.76 1.739 3.5 2.335 5.378.214.673.288 1.311.107 1.975-.25.926-.342 1.857-.21 2.803.01.098.17.21.283.244.108.04.264.01.367-.044.112-.058.2-.175.283-.278.039-.048.044-.126.049-.195.347-3.57 1.221-7.036 1.998-10.522.498-2.239.918-4.496 1.324-6.754.337-1.858.605-3.73.908-5.598.073-.463.151-.927.523-1.375.2-.024.459-.059.718-.083.918-.078 1.485-.644 1.837-1.41.547-1.199.634-2.476.464-3.768a2.07 2.07 0 0 0-.645-1.24c-.19-.184-.406-.355-.572-.56-.039-.049.05-.244.132-.327.313-.321.708-.37 1.114-.21.386.152.708.406.88.8.263.615.6 1.224.742 1.868.23 1.053.473 2.116.425 3.204-.05 1.146.175 2.296-.132 3.433-.035.126-.059.277-.025.395.464 1.516-.293 2.925-.366 4.388-.576 2.428-1.055 4.876-1.744 7.28-.777 2.721-1.392 5.491-2.061 8.246-.044.176 0 .4.068.575.04.103.195.2.313.225.107.02.259-.03.351-.098a.67.67 0 0 0 .235-.312c.137-.38.264-.77.361-1.16.479-1.966.948-3.93 1.422-5.896.142-.595.273-1.185.444-1.77 1.114-3.76 1.808-7.607 2.399-11.478.205-1.332.488-2.648.762-4.092.38-.073.571-.121.767-.141 1.221-.137 1.94-.868 2.335-1.97.112-.312.17-.653.2-.985.034-.473-.005-.946.034-1.419.093-1.044-.278-1.843-1.177-2.4-.049-.028-.068-.111-.098-.17.528-.57 1.231-.838 1.72-.604.23.112.459.317.586.536a7.4 7.4 0 0 1 .948 2.653c.132.858.2 1.73.258 2.599.02.258-.063.526-.127.79-.586 2.496-.889 5.047-1.323 7.577-.332 1.926-.61 3.862-.933 5.793-.196 1.2-.45 2.39-.626 3.59-.337 2.34-1.006 4.612-1.465 6.923a90 90 0 0 0-.523 2.78c-.014.088.122.283.215.297.18.034.455.044.552-.063.171-.185.284-.454.342-.707.396-1.707.762-3.423 1.163-5.13.698-2.96 1.099-5.973 1.621-8.958.342-1.926.616-3.866.929-5.797.053-.327.166-.644.268-1.03.518-.146 1.036-.287 1.544-.438.694-.205 1.172-.654 1.465-1.307.083-.185.19-.366.225-.56q.213-1.195.381-2.395c.03-.2.005-.405-.01-.605-.073-1-.44-1.828-1.392-2.287.117-.41.386-.56.762-.507.508.073.87.361 1.1.81.683 1.336 1.181 2.74 1.264 4.237.127 2.297.079 4.574-.361 6.856-.987 5.1-2.1 10.177-2.911 15.311-.181 1.132-.416 2.258-.616 3.385a1 1 0 0 0 .005.4c.054.195.142.37.381.414.225.044.464-.04.503-.21.156-.653.337-1.302.454-1.96.762-4.252 1.407-8.524 2.404-12.727.141-.59.215-1.195.347-1.785.063-.278.273-.458.542-.546.132-.044.268-.048.4-.073.67-.132 1.056-.585 1.285-1.18.445-1.17.591-2.35.02-3.535-.044-.098.005-.254.039-.376.029-.102.371.04.488.2.078.112.18.205.24.322.249.488.444.985.454 1.54.049 2.43.22 4.858.088 7.29-.24 4.448-.665 8.88-1.138 13.308-.054.468-.05.946-.044 1.42.039 3.51-.01 7.02-.181 10.527-.04.81-.19 1.609-.254 2.414-.196 2.555-.415 5.11-.87 7.636a3.2 3.2 0 0 0-.049.804c.054.649-.224 1.185-.532 1.712-.288.487-.699.76-1.3.839a44.3 44.3 0 0 1-10.316.073c-.337-.034-.674-.05-1.011-.073a65.7 65.7 0 0 1-14.914-2.8c-.64-.2-1.265-.467-1.9-.702-.562-.204-.889-.585-.894-1.204 0-.405-.014-.81-.02-1.214-.01-1.283-.01-2.57-.024-3.852-.024-2.092.098-4.18.288-6.266.2-2.214.494-4.423.425-6.661a23.4 23.4 0 0 0-.903-5.783c-.22-.77-.503-1.536-.464-2.395m-1.397 23.509c.22-.113.488-.142.718-.205.097.175.2.288.21.41q.096 1.082.141 2.164c.005.098-.117.244-.215.283a.48.48 0 0 1-.366-.024 6 6 0 0 1-.82-.551c-.963-.81-.855-1.482.332-2.077M3.552 104.346c.308-1.033 1.007-1.745 2.033-2.067.83-.264 1.69-.454 2.545-.644a653 653 0 0 1 6.897-1.516 23 23 0 0 1 1.988-.317c.069-.01.2.165.23.273.034.117 0 .263-.04.39a375 375 0 0 1-1.025 3.272c-.137.414-.44.658-.865.756-.396.092-.786.204-1.182.287-3.156.683-6.316 1.366-9.477 2.039a2.2 2.2 0 0 1-.796.039c-.17-.03-.366-.186-.459-.337-.093-.161-.078-.39-.142-.736.078-.39.142-.927.293-1.439m11.607 2.082c-1.422 3.765-3.312 7.466-5.877 10.801-.693.902-1.43 1.785-2.364 2.477-.195.147-.615.039-.679-.195-.195-.707-.396-1.419-.562-2.135a531 531 0 0 1-1.534-6.676c-.146-.658-.22-1.326-.317-1.989-.044-.288.122-.561.366-.644.19-.068.381-.151.577-.195 3.287-.712 6.575-1.424 9.867-2.126.41-.093.694.175.523.682m30.755 54.375c-.762 1.092-1.773 1.824-3.092 2.121-1.52.347-3.02.741-4.543 1.054-4.367.902-8.744 1.77-13.116 2.652-2.056.415-4.118.8-6.16 1.253-1.045.234-2.022.069-2.975-.307a2.9 2.9 0 0 1-.991-.678c-.821-.829-1.427-1.779-1.67-2.955-.367-1.784-.802-3.549-1.208-5.324-1.314-5.725-2.628-11.445-3.932-17.174-1.24-5.462-2.467-10.928-3.703-16.394-.918-4.082-1.846-8.158-2.764-12.24-.181-.79-.367-1.579-.508-2.374-.113-.6-.157-1.205-.206-1.6.054-1.155.005-2.116.508-2.974.103-.166.245-.312.386-.459.035-.039.127-.043.19-.039.05.005.133.035.138.069.044.195.073.395.102.595.19 1.331.298 2.686.586 4.003.748 3.428 1.583 6.836 2.374 10.255 1.08 4.666 2.15 9.338 3.234 14.004.743 3.223 1.51 6.437 2.247 9.66q1.538 6.708 3.053 13.424c.254 1.117.445 2.253.743 3.36.38 1.438.913 2.818 1.944 3.959.533.595 1.153.902 1.934.966a6.3 6.3 0 0 0 1.818-.093c2.188-.448 4.371-.902 6.555-1.346 4.304-.877 8.612-1.74 12.916-2.633 1.978-.409 3.971-.751 5.95-1.19.053-.009.17.025.18.059.024.112.068.268.01.346m.81-6.719c.064.531.186 1.063.26 1.594.093.678.048 1.346-.21 1.995-.406 1.004-1.08 1.682-2.184 1.901q-4.185.814-8.353 1.663c-2.12.429-4.235.888-6.35 1.317-1.989.4-3.982.765-5.97 1.16-.928.186-1.846.415-2.774.59-.665.127-1.339.2-1.847.268-.434-.019-.718 0-.972-.063a2.1 2.1 0 0 1-.723-.327c-.918-.673-1.372-1.667-1.7-2.701-.244-.766-.346-1.575-.503-2.37-.068-.361.137-.629.542-.717 1.783-.395 3.562-.795 5.35-1.17 3.702-.775 7.41-1.531 11.112-2.311 3.972-.839 7.924-1.741 11.9-2.531 1.856-.371 2.135-.683 2.423 1.702m-.927-4.603c.068.326.078.668.102.999.02.259-.176.498-.464.576-.454.122-.913.253-1.373.351-2.579.546-5.158 1.082-7.737 1.619a4.6 4.6 0 0 1-.806.087c-.122.005-.303-.024-.366-.107-.054-.078-.015-.258.034-.375.044-.122.141-.23.23-.332 2.837-3.457 5.182-7.246 7.42-11.108a9 9 0 0 1 .532-.853c.059-.078.215-.083.386-.142.132.454.288.897.386 1.356.561 2.643 1.113 5.281 1.656 7.929m13.34-63.942a173 173 0 0 1-1.373 9.21c-1.099 6.184-2.584 12.269-4.396 18.282-1.66 5.5-3.6 10.893-5.852 16.174-2.203 5.159-4.65 10.196-7.625 14.965-1.646 2.638-3.36 5.223-5.354 7.617-.39.468-.801.917-1.192 1.385-.366.434-.835.634-1.387.751-4.895 1.034-9.784 2.092-14.674 3.13-.66.142-1.329.249-1.979.366-.478-.283-.537-.775-.644-1.224-.562-2.365-1.104-4.73-1.652-7.095q-1.991-8.58-3.976-17.159c-.689-2.96-1.372-5.915-2.042-8.875-.107-.458-.151-.931-.21-1.399a.8.8 0 0 1 .288-.727c3.303-2.745 5.447-6.32 7.284-10.113 1.822-3.779 3.258-7.705 4.372-11.747 1.016-3.716 1.856-7.46 2.418-11.279.312-2.136.552-4.276.816-6.422.17-1.409.21-2.823.302-4.237.015-.273.357-.43.601-.254 2.584 1.839 5.56 2.746 8.578 3.516a71.6 71.6 0 0 0 12.393 2.029c2.696.195 5.398.41 8.109.15q.2-.014.405-.014a17.7 17.7 0 0 0 6.56-1.092c.255-.088.548.151.528.434-.088 1.21-.151 2.423-.298 3.628m.43-6.061c-.142.614-.713.911-1.31 1.087-.385.112-.673-.102-.6-.473.152-.639.293-1.278.46-1.916.033-.142.17-.176.327-.122.063.02.131.024.185.058.508.327 1.1.673.938 1.366m8.128 14.794c-.537-1.092-1.084-2.175-1.807-3.165-.484-.653-.982-1.287-1.553-1.867-.85-.868-1.68-1.76-2.506-2.653q-.485-.52-.919-1.082c-.376-.498-.596-1.049-.537-1.697.112-1.21.044-2.434.298-3.633.2-.946-.107-1.726-.806-2.37-.293-.278-.576-.58-.918-.79-.46-.278-.665-.639-.61-1.165.111-1.141.21-2.282.321-3.428.025-.269.084-.532.098-.805.274-4.11.596-8.216.493-12.342-.043-1.555.02-3.106.25-4.647.093-.6.097-1.214.156-1.819.015-.165.098-.326.151-.511.093.078.181.112.19.165.118.595.22 1.195.333 1.79q.506 2.589 1.026 5.164a.7.7 0 0 0 .186.346c.083.093.254.21.327.18.166-.078.361-.204.43-.365.073-.166.063-.405.014-.59-.566-2.16-.884-4.364-1.211-6.569-.293-2.004-.547-4.013-.806-6.022-.044-.331-.02-.678.01-1.01.254-3.105.132-6.211.122-9.318-.005-.96-.254-1.877-.655-2.74-.298-.629-.4-1.287-.361-1.97.044-.805.122-1.614.2-2.419.059-.619.322-1.17.625-1.697.205-.36.513-.619.865-.838.713-.454 1.304-.322 1.724.36.391.644.64 1.351.806 2.068.464 1.97.87 3.95 1.28 5.935.069.326.044.672.054 1.009.02.405-.034.824.058 1.21.298 1.267.279 2.55.294 3.832.024 2.165.327 4.31.41 6.466.058 1.487.156 2.965.405 4.437.098.595.059 1.214.117 1.814.113 1.146.24 2.282.386 3.423.025.18.157.366.284.512.063.078.234.122.342.103.117-.03.264-.127.308-.23.068-.18.126-.4.082-.575-.244-1.063-.268-2.14-.278-3.223 0-.536-.044-1.083-.127-1.614-.415-2.745-.542-5.51-.684-8.275-.073-1.478-.308-2.96-.097-4.447.034-.259-.025-.541-.093-.8-.22-.79-.24-1.6-.24-2.409.015-1.692.01-3.379.025-5.071.02-1.634.312-3.223.81-4.774a8.4 8.4 0 0 1 1.686-2.98 2.02 2.02 0 0 1 1.216-.677c.396-.063.875.117 1.065.434.283.463.489.96.533 1.512.107 1.345.195 2.691.327 4.037.18 1.814.337 3.633.615 5.432.157 1.005.23 2.01.362 3.014.38 2.891.259 5.793.225 8.69-.025 2.096-.103 4.188-.098 6.28.005 1.55.098 3.101.161 4.652a.6.6 0 0 0 .151.365.53.53 0 0 0 .357.132.47.47 0 0 0 .332-.17.64.64 0 0 0 .108-.371c-.005-2.633 0-5.267-.025-7.905-.01-1.687-.039-3.374.166-5.056a3.5 3.5 0 0 0 .02-.81c-.235-2.16.014-4.32.068-6.475a30.5 30.5 0 0 1 1.202-7.783c.205-.721.484-1.404.899-2.028.39-.59.952-.941 1.68-.995.415-.03.85.17 1.036.502.332.6.542 1.239.532 1.931-.03 1.62-.02 3.243-.107 4.862-.147 2.633-.25 5.261.029 7.89.04.336.044.677.049 1.014.049 3.394.606 6.724 1.353 10.02.322 1.42.381 2.794.19 4.213-.078.571-.327.951-.825 1.293-3.376 2.296-5.965 5.27-7.606 9.02-.298.674-.474 1.4-.669 2.117-.093.341.02.673.274.926a.46.46 0 0 0 .346.113c.113-.025.274-.142.293-.234.245-1.488.792-2.858 1.544-4.145 1.168-1.995 2.54-3.828 4.362-5.291.47-.385.89-.839 1.383-1.185s1.055-.6 1.67-.941c.455-2.575.87-5.037 1.329-7.49.44-2.34 1.231-4.554 2.433-6.622.561-.975 1.328-1.697 2.398-2.067.103-.034.283-.01.352.058.078.083.132.259.098.366-.303 1.043-.47 2.106-.601 3.18-.108.867-.152 1.745.083 2.613.19.682.478 1.287 1.162 1.57.567.234.606.653.547 1.15-.151 1.205-.312 2.41-.454 3.619-.18 1.54-.352 3.087-.513 4.632a12.6 12.6 0 0 0 .059 3.029c.17 1.267.244 2.55.288 3.832q.154 4.053.22 8.105c.014.94-.098 1.882-.157 2.828-.014.2-.024.404-.063.604-.376 2.068.073 4.028.81 5.94.753 1.955 1.662 3.842 2.575 5.724.147.307.303.605.42.844.034.448-.195.707-.42.95a34.7 34.7 0 0 1-4.62 4.258c-3.68 2.803-7.631 5.12-11.993 6.7-1.085.39-2.189.707-3.327.887a.68.68 0 0 1-.693-.322c-.254-.4-.504-.8-.733-1.209-1.202-2.116-2.3-4.286-3.376-6.466m.093 6.256c.196-.414.474-.79.723-1.17.103-.156.415-.161.523-.034.63.785 1.055 1.682 1.456 2.594.107.244-.093.512-.381.517-.064 0-.132.01-.171.014-.645.01-1.202-.156-1.705-.526-.455-.327-.68-.907-.445-1.395m3.669 5.325c-1.563.21-2.76-.473-3.551-1.829-.118-.209-.103-.502-.142-.755q-.03.006-.059.005l.05-.132v.107s.004.015.009.02c.176-.02.371-.078.523-.03 1.05.361 2.14.298 3.219.337.2.005.41-.01.6-.064 1.495-.419 3.03-.711 4.48-1.282 5.803-2.272 10.981-5.515 15.421-9.899a27 27 0 0 0 2.404-2.745c.581-.751 1.114-1.531 1.465-2.419.127-.307.313-.594.47-.887.727.293.703.975.927 1.54-.141 1.303-.752 2.439-1.538 3.448-1.114 1.439-2.238 2.872-3.59 4.106-3.327 3.023-7 5.525-11.065 7.446-1.221.58-2.477 1.092-3.727 1.599-1.89.766-3.884 1.166-5.896 1.434M87.45 130.58c-2.042-3.501-4.113-6.982-6.101-10.513-1.622-2.882-3.19-5.793-4.656-8.757-.537-1.088-1.148-2.141-1.71-3.219-.249-.463-.537-.916-.527-1.541 1.51-.536 3.034-1.068 4.548-1.628 1.529-.561 2.984-1.283 4.386-2.092a116 116 0 0 0 4.329-2.643 31 31 0 0 0 3.863-2.95c1.207-1.073 2.374-2.2 3.576-3.326.186.127.39.2.493.346.303.449.582.912.846 1.38 1.377 2.487 2.96 4.842 4.64 7.129 1.519 2.068 3.024 4.15 4.636 6.144a148 148 0 0 0 5.53 6.466c2.593 2.848 5.309 5.579 8.04 8.29.865.858 1.773 1.668 2.662 2.496.391.371.792.737 1.178 1.117.254.259.322.59.249.936a84 84 0 0 1-.503 2.375q-1.794 7.788-3.596 15.575c-.307 1.316-.61 2.628-.933 3.935-.097.39-.234.77-.391 1.141-.039.097-.214.195-.322.19a5 5 0 0 1-1.001-.093c-4.099-.872-8.192-1.75-12.291-2.633-1.187-.253-2.369-.541-3.561-.785-.488-.097-.85-.346-1.192-.697-1.778-1.863-3.414-3.838-4.84-5.978a93 93 0 0 0-3.376-4.799c-1.426-1.887-2.784-3.823-3.976-5.866m-.205 12.995q.807-3.855 1.636-7.704c.03-.122.117-.229.2-.385.171.083.396.122.504.253a37 37 0 0 1 1.631 2.063c.83 1.146 1.695 2.277 2.418 3.491 1.011 1.688 2.272 3.18 3.498 4.701.205.259.376.551.522.849.03.053-.107.277-.176.282-.263.015-.532 0-.79-.053a449 449 0 0 1-4.363-.878 349 349 0 0 1-3.962-.844c-.327-.073-.66-.165-.952-.317-.147-.073-.298-.297-.303-.458-.01-.331.063-.668.137-1m-1.158 7.607a2.3 2.3 0 0 1-.049-.604c.01-.405 0-.815.069-1.21.703-3.905.034-3.403 3.775-2.647 5.286 1.068 10.552 2.267 15.827 3.384 3.63.77 7.269 1.497 10.903 2.248.259.053.533.122.758.258.136.088.293.337.268.478-.249 1.317-.444 2.648-1.094 3.867a3.9 3.9 0 0 1-1.348 1.472c-.323.2-.757.22-1.138.327-1.021-.171-2.028-.312-3.014-.507-2.384-.473-4.758-.98-7.137-1.463-2.975-.605-5.955-1.195-8.93-1.794-1.788-.361-3.57-.732-5.353-1.102-.46-.098-.919-.22-1.378-.317-1.31-.273-1.876-1.205-2.16-2.39m45.693-46.675c-.406 1.775-.752 3.565-1.153 5.34a7569 7569 0 0 1-4.318 18.944c-1.456 6.383-2.931 12.761-4.387 19.139-.752 3.291-1.485 6.583-2.213 9.874a6.5 6.5 0 0 1-1.279 2.721c-.762.971-1.759 1.439-2.966 1.512a7.8 7.8 0 0 1-2.017-.171 2009 2009 0 0 0-9.53-1.95c-3.444-.698-6.888-1.375-10.332-2.082a61 61 0 0 1-3.356-.776c-1.28-.341-2.35-1.024-3.097-2.14-.063-.098-.049-.249-.078-.434 1.749.268 3.454.643 5.163.989 3.513.722 7.025 1.405 10.537 2.112 3.444.702 6.888 1.39 10.322 2.141.918.199 1.749.029 2.569-.278.298-.113.557-.381.782-.625 1.089-1.175 1.729-2.608 2.027-4.135.581-2.984 1.319-5.924 1.998-8.884 1.104-4.798 2.203-9.601 3.312-14.4 1.089-4.734 2.174-9.469 3.287-14.199.23-.98.704-1.926.811-2.916.098-.946.298-1.863.498-2.78a299 299 0 0 1 1.554-6.704c.381-1.575.576-3.18.786-4.784.025-.19.098-.375.157-.614.195.136.405.22.503.37a3.54 3.54 0 0 1 .571 1.707c.074 1.014.078 2.019-.151 3.023"/>
    <path fill="#000" d="M90.417 43.14q-.154 1.909-.352 3.818a2.7 2.7 0 0 1-.22.77.45.45 0 0 1-.298.235c-.102.014-.264-.064-.327-.151-.117-.156-.235-.347-.259-.537-.064-.531-.083-1.068-.117-1.604.044-1.229.24-2.419.674-3.565.063-.175.234-.326.39-.434.069-.043.27.02.347.093a.6.6 0 0 1 .152.366c.02.336.039.673.01 1.01m7.236 103.702c.03.053-.108.277-.176.282-.264.015-.533 0-.791-.053a450 450 0 0 1-4.363-.878 349 349 0 0 1-3.961-.844c-.328-.073-.66-.165-.953-.317-.146-.073-.298-.297-.303-.458-.01-.331.064-.668.137-1q.808-3.855 1.636-7.704c.03-.122.118-.229.2-.385.172.083.397.122.504.253a37 37 0 0 1 1.632 2.063c.83 1.146 1.695 2.277 2.417 3.491 1.012 1.688 2.272 3.18 3.498 4.701.205.259.376.551.523.849m31.279-42.223a227 227 0 0 0-1.534 6.699c-.494 2.38-1.119 4.721-1.666 7.086-.537 2.296-1.04 4.598-1.573 6.899-.044.195-.151.371-.234.556-.074.166-.372.23-.518.103-.909-.805-1.847-1.585-2.711-2.434-2.609-2.545-5.178-5.129-7.665-7.797a115 115 0 0 1-8.064-9.611 200 200 0 0 0-2.819-3.706c-1.128-1.433-2.11-2.97-3.112-4.49-.43-.65-.42-.659-.474-1.892.22-.21.494-.205.758-.157a90 90 0 0 1 2.784.532c5.344 1.136 10.693 2.282 16.042 3.423 3.366.717 6.731 1.424 10.097 2.141.2.039.425.058.576.17.147.103.303.312.313.483.039.673-.044 1.331-.2 1.995m-31.657-16.8c-.142 1.303-.752 2.439-1.539 3.448-1.113 1.439-2.237 2.873-3.59 4.106-3.327 3.023-7 5.525-11.064 7.446-1.221.58-2.477 1.092-3.727 1.6-1.89.765-3.884 1.165-5.896 1.433-1.564.21-2.76-.473-3.552-1.828-.117-.21-.102-.503-.141-.756.175-.02.37-.078.522-.029 1.05.36 2.14.297 3.22.336.2.005.41-.01.6-.063 1.495-.42 3.029-.712 4.48-1.283 5.803-2.272 10.98-5.515 15.421-9.899a27 27 0 0 0 2.403-2.745c.582-.75 1.114-1.531 1.466-2.418.127-.308.313-.595.469-.888.728.293.703.975.928 1.54m-37.709-8.342c-.142.614-.713.912-1.31 1.087-.385.112-.673-.102-.6-.473.151-.639.293-1.278.46-1.916.033-.142.17-.176.326-.122.064.02.132.024.186.058.508.327 1.1.673.938 1.366m-34.629-3.106c.005.097-.117.243-.215.282a.48.48 0 0 1-.366-.024 6 6 0 0 1-.82-.551c-.963-.81-.856-1.482.331-2.077.22-.112.489-.142.718-.205.098.175.2.288.21.41q.097 1.082.142 2.165m20.961 74.108c.02.259-.176.498-.465.576-.454.122-.913.253-1.372.351-2.58.546-5.158 1.082-7.738 1.619a4.5 4.5 0 0 1-.806.087c-.122.005-.303-.024-.366-.107-.054-.078-.015-.258.034-.375.044-.122.142-.23.23-.332 2.838-3.457 5.182-7.246 7.42-11.108.166-.288.337-.585.532-.853.059-.078.215-.083.386-.142.132.454.288.898.386 1.356.562 2.643 1.114 5.281 1.656 7.929.068.326.078.668.103.999M15.16 106.429c-1.421 3.764-3.312 7.465-5.876 10.8-.694.902-1.432 1.785-2.365 2.478-.195.146-.615.039-.679-.196-.195-.707-.395-1.419-.561-2.135a527 527 0 0 1-1.534-6.676c-.147-.658-.22-1.326-.318-1.989-.044-.288.122-.561.367-.644.19-.068.38-.151.576-.195a3143 3143 0 0 1 9.868-2.126c.41-.093.693.175.522.683m1.09-83.642c.03-1.039-.25-2.01-.586-2.96-.21-.59-.274-1.175-.093-1.775.03-.102.166-.21.273-.244a.5.5 0 0 1 .372.049c.16.112.307.263.42.424.508.712.986 1.444 1.5 2.15.317.434.644.868 1.02 1.254 1.187 1.209 2.623 1.862 4.348 1.799.337-.015.669-.059 1.006-.078.313-.02.591.146.635.376a.77.77 0 0 1-.22.73c-.332.332-.674.664-1.01.99-.714.684-1.1 1.537-1.212 2.492-.127 1.073-.132 2.146.205 3.2q.461 1.44.88 2.896c.053.185.019.395 0 .595-.016.214-.475.429-.646.307-.16-.117-.337-.215-.478-.356-.48-.483-.83-1.053-1.153-1.648-.518-.96-1.212-1.775-2.032-2.492-1.534-1.34-3.322-1.687-5.28-1.37-.328.053-.655.127-.988.141-.092 0-.22-.146-.283-.253-.059-.103-.098-.268-.054-.366.079-.176.2-.346.342-.478.445-.41.924-.785 1.358-1.2.699-.663 1.168-1.492 1.451-2.394.176-.565.156-1.19.225-1.79m6.663 1.858c-.323-.069-.65-.127-.972-.21a7.3 7.3 0 0 1-3.874-2.424c-.088-.102-.161-.219-.254-.316a2 2 0 0 0-.298-.264c-.049-.039-.152-.078-.18-.053-.089.063-.21.165-.206.243.024.673.151 1.346.107 2.01-.073 1.018-.449 1.955-.972 2.837-.234.39-.635.707-.6 1.293.498.131 1.006.307 1.528.385.9.141 1.661.536 2.36 1.087.474.376.928.78 1.402 1.156.088.068.234.088.357.092.146.01.224-.097.234-.263.01-.2.044-.405.034-.6-.093-1.672.347-3.189 1.285-4.574.063-.092.044-.239.068-.41zm77.326 48.212c.069-.546.152-1.083.196-1.614.068-.805.137-1.61.151-2.414.03-1.141-.439-2.087-1.216-2.901-.703-.737-1.475-1.38-2.403-1.82-.303-.14-.63-.258-.894-.448-.132-.092-.23-.356-.2-.512.034-.156.229-.346.39-.395.318-.092.67-.146.997-.122.757.059 1.47-.127 2.193-.297 1.177-.273 2.061-.951 2.731-1.94.615-.903.986-1.907 1.338-2.931.152-.444.259-.912.464-1.332.142-.287.406-.521.63-.765.113-.127.43-.117.552.01.088.092.22.21.22.312-.015.872-.098 1.74-.083 2.608.015.805.132 1.61.2 2.41q.014.197.005.404c-.014 2.009 1.036 3.262 2.848 3.974.186.073.396.088.586.156.259.098.469.263.513.551.049.312-.415.775-.781.795a1.4 1.4 0 0 1-.401-.015c-.547-.107-1.075.05-1.602.142-1.109.2-2.018.726-2.682 1.648-1.104 1.531-2.193 3.072-2.701 4.93-.049.185-.166.37-.303.512-.069.073-.239.073-.362.083-.161.01-.254-.078-.273-.244a32 32 0 0 0-.113-.785m-1.43-9.197c.038.132.033.293.116.38.328.337.69.64 1.017.98.957.995 1.69 2.097 1.695 3.55 0 .132.048.264.087.39.02.054.074.132.123.137.122.01.302.034.356-.034.381-.468.743-.956 1.099-1.443.528-.732 1.221-1.249 2.052-1.59.249-.102.513-.16.767-.258.273-.103.381-.459.185-.63-1.245-1.097-1.763-2.491-1.787-4.125-.005-.463-.127-.926-.21-1.384-.005-.04-.083-.088-.137-.098-.059-.015-.161-.015-.186.02-.298.448-.576.911-.874 1.355-.655.97-1.471 1.75-2.609 2.136-.566.195-1.128.414-1.69.62zM47.143 1.068c.18.054.322.064.415.137.098.078.166.214.21.336.454 1.414.933 2.828 1.173 4.296.141.873.376 1.712.59 2.56.25.98.494 1.965.738 2.945q.471 1.866.933 3.73c.05.196.064.396.093.59.02.137-.234.41-.396.386-.127-.015-.307-.034-.356-.117a4 4 0 0 1-.44-.902c-.22-.707-.41-1.429-.59-2.146-.46-1.833-.953-3.657-1.344-5.505s-.806-3.686-1.378-5.49a.57.57 0 0 1 .02-.396c.083-.165.23-.292.337-.419zM62.17.878c-.23 1.565-.474 3.223-.724 4.88-.156 1.064-.307 2.127-.473 3.185q-.324 2.085-.67 4.17a.65.65 0 0 1-.2.34.8.8 0 0 1-.347.147c-.156.03-.415-.215-.425-.361-.01-.2-.058-.41-.02-.6.382-1.98.675-3.969.86-5.978.035-.395.215-.775.279-1.175.142-.927.269-1.858.366-2.79.083-.804.235-1.589.484-2.36.063-.194.195-.331.43-.336.166-.005.371.185.39.376.01.131.03.263.054.497zm3.503 14.643c-.083-.141-.21-.293-.254-.468-.025-.103.053-.263.132-.361 2.251-2.848 4.503-5.69 6.765-8.533.122-.151.303-.308.479-.342.161-.029.376.073.527.176.078.054.098.244.078.36a.84.84 0 0 1-.17.352c-2.091 2.633-4.177 5.266-6.278 7.89-.249.312-.547.585-.85.853-.078.068-.244.044-.43.068zM52.979 87.757c-1.456-.112-2.828 1.068-2.873 2.736-.044 1.585 1.32 2.94 2.956 2.94 1.431 0 2.71-1.233 2.76-2.687.063-1.799-1.368-3.072-2.843-2.989m.024 4.574c-1.08-.034-1.915-.926-1.856-1.97a1.637 1.637 0 0 1 1.778-1.546c1.348.103 1.92 1.161 1.876 1.98-.034.693-.752 1.624-1.798 1.536"/>
    <path fill="#000" d="M54.801 90.795c-.034.693-.752 1.624-1.797 1.536-1.08-.034-1.915-.926-1.857-1.97a1.637 1.637 0 0 1 1.779-1.545c1.348.102 1.92 1.16 1.875 1.98m46.993 59.514c-1.305.024-2.17.98-2.203 2.16-.03 1.16.991 2.18 2.178 2.189 1.172.01 2.164-.975 2.189-2.17.039-1.394-1.222-2.199-2.164-2.179m.517 3.159c-.561.186-1.153.02-1.446-.409-.317-.458-.21-1.161.215-1.443.44-.298 1.182-.239 1.48.141.162.21.25.468.328.619.029.488-.269.99-.577 1.092"/>
    <path fill="#000" d="M102.886 152.377c.029.488-.269.99-.576 1.092-.562.186-1.153.02-1.446-.409-.318-.459-.21-1.161.215-1.444.439-.297 1.182-.238 1.48.142.161.21.249.468.327.619m-71.671 3.886c-1.245.01-2.193.985-2.134 2.204.058 1.161.928 2.029 2.08 2.068 1.232.039 2.233-.907 2.243-2.116.01-1.239-.933-2.16-2.189-2.156m-.063 3.248c-.445-.015-.738-.263-.938-.639-.171-.317-.122-.639.054-.941.303-.507.86-.741 1.348-.561.479.176.801.62.757 1.044-.058.59-.63 1.102-1.221 1.097"/>
    <path fill="#000" d="M32.374 158.414c-.058.59-.63 1.102-1.22 1.097-.445-.015-.738-.263-.939-.639-.17-.317-.122-.639.054-.941.303-.507.86-.741 1.348-.561.479.176.801.62.757 1.044"/>
</svg>
