<svg xmlns="http://www.w3.org/2000/svg" width="321" height="321" fill="none" viewBox="0 0 321 321">
    <path fill="#1e1c1c" d="M282.165 88.49c-1.166-.106-2.364-.033-3.538-.016-2.566.032-4.898-.657-6.897-2.295-1.919-1.572-3.902-3.064-5.74-4.718-4.436-4.02-9.374-5.82-15.284-3.866-.671.227-1.368.397-2.064.51-2.866.47-5.61.397-8.095-1.491a51 51 0 0 0-5.278-3.55c-2.542-1.468-5.068-3.081-7.804-4.07-3.999-1.451-7.917-1.135-11.083 2.22-.412.43-.866.811-1.295 1.217-3.116 2.894-4.404 3.023-8.225 1.37-2.153-.924-4.395-1.792-6.686-2.18-4.582-.78-8.096 1.564-9.545 5.892-.372 1.12-.753 2.254-1.311 3.267-1.797 3.284-4.461 5.132-8.354 4.727-1.288-.13-2.575-.349-3.87-.422-1.991-.097-4.04-.365-5.991-.09-4.889.706-8.961 2.806-11.301 7.5-1.959 3.931-1.117 7.141 2.68 9.322 1.109.624 2.356 1.192 3.594 1.37 2.785.397 5.618.786 8.419.754 10.864-.138 21.712-.446 32.568-.673 4.404-.097 4.46-.008 3.659 4.296-.899 4.808-2.858 9.25-4.906 13.636-2.493 5.35-5.14 10.627-7.666 15.961-2.542 5.391-4.121 11.033-4.436 17.032-.486 9.331 2.21 17.47 8.751 24.23 1.271 1.314 2.509 2.659 4.169 4.427-3.174-.3-5.74-.552-8.322-.787-1.87-.162-3.813-.032-5.602-.51-5.805-1.541-11.56-3.259-17.308-4.986-24.618-7.385-49.219-14.794-73.837-22.204-4.056-1.224-8.12-2.448-12.167-3.737-.332-.105-.543-.616-.802-.94.308-.122.6-.333.915-.365 4.582-.454 9.156-.892 13.738-1.338 7.868-.762 15.729-1.515 23.598-2.302 2.477-.251 5.027-.567 6.953-2.262 2.032-1.791 3.878-3.801 5.619-5.869 1.238-1.475.76-2.31-1.191-2.367-1.643-.032-3.302.114-4.946.114-.421 0-.834-.219-1.246-.341.186-.397.331-.827.566-1.199.243-.398.591-.73.842-1.135 3.732-5.74 4.307-11.901 2.267-18.337-1.036-3.292-3.173-5.788-6.104-7.556-2.445-1.467-5.124-2.375-7.958-2.796-7.99-1.192-16.036-1.054-24.026-.454-9.626.729-19.227 1.994-28.795 3.299-7.974 1.078-15.657 3.308-23.023 6.615-3.643 1.629-6.68 3.899-9.164 7.028-3.813 4.807-4.388 10.06-2.283 15.678 1.19 3.162 2.955 5.926 6.176 7.45.26.122.39.495.583.762-.267.187-.526.487-.81.527-1.408.162-2.832.203-4.233.397-.915.13-1.862.341-2.68.73-.29.138-.526 1.183-.315 1.427 3.19 3.721 6.913 6.363 12.175 5.885 11.382-1.038 22.78-2.035 34.17-3.048 1.223-.114 1.344.032.948 1.305-1.822 5.902-.551 8.18 5.48 9.785 18.692 4.961 37.376 9.906 56.068 14.883 1.862.487 3.7 1.07 6.177 1.808-2.218.721-3.781 1.2-5.319 1.743-7.836 2.756-15.098 6.655-22.084 11.114-1.166.754-1.91.713-3.052-.122-1.595-1.159-3.351-2.253-5.205-2.853-4.817-1.557-9.795-1.305-14.725-.56-5.465.835-10.621.187-15.236-2.958-2.752-1.873-5.683-2.222-8.783-1.63A20 20 0 0 0 69 184.268c-4.89 2.278-9.666 2.781-14.532-.089a8.33 8.33 0 0 0-7.22-.64c-6.76 2.537-13.22 8.495-9.91 18.653 1.62 4.977 5.619 7.952 10.824 8.041 3.927.065 7.804-.454 11.488-1.734 4.217-1.468 8.338-3.243 12.458-4.97 3.327-1.386 6.727-2.367 10.314-1.524 3.918.916 7.714.673 11.495-.559 2.688-.884 5.359-1.848 8.063-2.643 1.344-.381 2.768-.551 4.161-.648.623-.041 1.279.348 1.926.543-.348.543-.599 1.175-1.052 1.605-2.307 2.197-4.744 4.264-6.986 6.526-1.15 1.151-2.089 2.561-2.93 3.98-.6 1.021-.754 2.221.04 3.348 1.15 1.621 2.258 3.291 3.376 4.929 11.956 17.437 23.929 34.858 35.87 52.303.494.73.736 1.646 1.101 2.481-.907.113-1.822.324-2.728.324a14426 14426 0 0 1-32.228-.089c-.947 0-1.902-.033-2.833.105-.332.041-.688.503-.866.867-.065.122.372.689.647.73.915.154 1.854.227 2.785.227 36.712.13 73.441.251 110.153.349 1.076 0 2.995.583 3.011-.852.008-1.88-2.016-1.045-3.116-1.045-19.008-.122-38.016-.154-57.016-.219h-4.096c.502-.892 1.125-1.151 1.708-1.468 4.04-2.172 8.193-4.174 12.103-6.582 4.12-2.545 7.876-5.642 10.969-9.436 2.064-2.529 3.23-5.164 1.465-8.415-1.19-2.205-.85-4.596-.227-6.906.454-1.711 1.126-3.365 1.619-5.067 2.316-8.05 4.914-16.043 6.299-24.336a33.5 33.5 0 0 0-.389-13.035c-2.833-12.362-13.94-14.057-21.258-10.741-1.587.713-2.963 1.905-4.38 2.935-.834.608-1.514.794-1.862-.373a418 418 0 0 1-2.873-10.206c-.049-.203.453-.779.712-.787.575-.024 1.158.162 1.724.316 8.419 2.278 16.838 4.564 25.257 6.818 1.814.486 3.627.965 5.465 1.354 1.263.259 1.967 1.005 2.671 2.059 2.178 3.259 4.963 5.999 8.087 8.374 8.217 6.25 17.624 8.893 27.792 8.893 5.521 0 10.791-1.403 15.462-4.427 5.059-3.266 5.132-7.263.097-10.538-2.542-1.646-5.465-2.74-8.225-4.045-.915-.438-1.87-.778-3.53-1.467 2.299-.462 3.797-.722 5.27-1.062.915-.203 1.911-.341 2.68-.803 1.919-1.151 3.821-2.343 5.57-3.745 5.836-4.686 9.584-10.725 10.944-18.102.51-2.772 1.862-4.621 4.161-6.161 2.745-1.832 5.408-3.834 7.804-6.088 3.263-3.064 6.274-6.396 7.812-10.798 2.17-6.218.915-12.062-1.465-17.915-2.162-5.318-8.322-8.22-13.171-7.645-3.06.365-6.104.714-8.784 2.449-.777.502-1.4.275-1.513-.657-.47-3.867-1.028-7.726-1.287-11.601-.138-2.221.388-2.545 2.736-2.626 7.674-.235 15.348-.381 23.015-.689 3.764-.146 7.536-.397 11.26-.908 3.109-.43 4.145-1.978 4.08-5.09-.089-3.835-2.955-6.916-6.857-7.28zm-73.319 35.125c.429-.194.882-.389 1.335-.446 1.166-.129 2.356-.186 3.53-.259 3.368-.154 6.484 1.07 9.666 1.856 5.715 1.403 11.414 2.886 17.154 4.167 1.934.438 3.983.341 5.966.527.299.024.753.211.809.422.081.235-.105.713-.331.875-1.255.876-2.47 1.905-3.862 2.456-5.861 2.343-11.916 3.802-18.271 2.603-4.088-.779-7.861-2.481-11.341-4.751-1.871-1.224-3.708-2.521-5.384-4.004-1.57-1.387-1.238-2.554.729-3.438zm-169.362-2.383c.64-1.873 1.692-3.413 3.449-4.264 3.181-1.54 6.33-3.194 9.65-4.386 6.548-2.375 13.373-3.745 20.278-4.71 12.515-1.751 25.087-2.958 37.732-2.91 3.991.008 8.006.495 11.957 1.054 1.829.251 3.602 1.103 5.302 1.881 1.522.697 1.943 2.083 1.109 3.486-.842 1.41-1.797 2.934-3.594 3.169-2.688.365-4.104 2.075-5.14 4.337-1.336 2.91-3.627 4.588-6.784 5.059-.494.073-.98.129-1.061.137h-.008c-3.133-.089-5.221-1.143-7.229-2.431-3.36-2.157-5.319-1.841-7.933 1.215-.842.981-1.53 2.116-2.478 2.992-1.983 1.832-3.764 1.994-5.601.097-1.749-1.816-3.4-1.775-5.384-.794-1.368.689-2.76 1.329-4.136 1.986-2.858 1.378-4.429 1.183-6.768-.868-2.647-2.294-3.416-2.375-6.573-.567-1.539.883-3.028 1.848-4.599 2.659-1.246.656-2.534 1.305-3.894 1.645-3.051.779-5.302-.413-6.613-3.25-1.4-3.032-1.49-3.032-4.8-2.27-1.474.348-3.012.713-4.494.608-2.477-.162-3.173-1.573-2.388-3.883zm-3.376 3.599c.413-.867.883-1.013 1.49-.138 1.83 2.651 4.5 2.708 7.286 2.246.923-.146 1.813-.511 2.72-.778.81-.235 1.368.081 1.7.827.194.429.315.899.534 1.305 1.74 3.21 4.792 4.604 8.346 3.559 1.79-.536 3.465-1.452 5.14-2.303 1.466-.754 2.858-1.645 4.275-2.48 1.376-.803 2.655-.843 3.83.397 2.89 3.064 6.127 3.08 9.608 1.054.705-.422 1.474-.738 2.194-1.135 1.903-1.038 3.465-1.249 5.351.494 2.21 2.051 5.31 1.516 7.585-.827.907-.924 1.595-2.051 2.445-3.023 1.587-1.816 3.157-2.57 5.529-.884 1.142.811 2.421 1.459 3.708 2.027 3.975 1.743 10.564.697 13.292-4.281.51-.932.988-1.913 1.636-2.731.485-.608 1.198-1.346 1.878-1.427 2.485-.3 4.007-1.84 5.399-3.656.292-.373.575-.754.891-1.086.672-.73 1.271-.487 1.684.243.501.924 1.028 1.872 1.343 2.878 1.717 5.577 1.288 10.895-1.748 16.002-2 3.356-5.06 4.929-8.695 5.318-13.592 1.475-27.183 2.837-40.784 4.175-10.2 1.021-20.408 1.953-30.616 2.902-.931.089-1.878.016-2.833.016v-.016c-.94 0-1.887.081-2.826-.017-8.394-.843-14.02-10.992-10.362-18.677zm44.597 23.606c-6.33.6-12.685 1.087-19.024 1.67-5.043.454-10.078.957-15.122 1.443-2.736-.016-5.464.106-7.844-1.589-.575-.413-1.19-.778-1.676-1.28-.291-.3-.38-.819-.445-1.257 0-.073.583-.3.907-.34 3.983-.446 7.958-.884 11.94-1.289 11.131-1.151 22.262-2.311 33.402-3.429 10.67-1.062 21.347-2.076 32.016-3.146 6.096-.608 12.176-1.353 18.28-1.913 1.157-.113 2.509-.81 3.594.357-.713.908-1.401 1.824-2.137 2.716-1.652 2.051-3.862 3.023-6.436 3.283l-21.793 2.188c-8.564.876-17.113 1.768-25.678 2.603zm41.011 44.067c2.186-1.378 4.396-2.723 6.671-3.972 6.184-3.404 12.45-6.655 19.404-8.244.793-.187 1.595-.341 2-.43 1.878.065 2.436.811 1.716 2.076-1.708 2.999-3.578 5.674-7.521 6.193-2.283.3-4.509 1.281-6.646 2.221-4.193 1.84-8.484 3.518-12.119 6.404-1.076.868-1.878.697-2.728-.194a18 18 0 0 1-1.165-1.338c-1.166-1.5-1.174-1.751.372-2.732zm21.185-1.815c-.194.332-.259.591-.429.713-3.812 2.764-7.617 5.529-11.471 8.244-.89.624-3.764.081-4.501-.778-.121-.138-.04-.713.114-.819 4.881-3.088 9.941-5.828 15.462-7.612.218-.073.534.154.825.252m-40.185 6.055c-2.671.908-5.407 1.654-8.087 2.554-4.088 1.386-8.136 1.937-12.458.794-3.409-.908-6.784.146-9.982 1.467-2.17.892-4.242 2.043-6.42 2.951-5.14 2.148-10.434 3.713-17.008 3.867-1.74.203-4.169-.373-6.403-1.978-4.015-2.894-5.942-11.163-1.822-15.946 1.36-1.588 3.093-2.918 4.85-4.085 2.622-1.735 5.48-2.132 8.338-.43 5.165 3.064 10.337 2.424 15.6.243 1.724-.713 3.561-1.216 5.399-1.556 2.518-.47 4.808.113 7.043 1.556 4.736 3.032 9.925 3.989 15.559 3.089 4.776-.77 9.609-1.013 14.385.357 2.737.778 4.93 2.213 6.509 4.555 2.08 3.089 4.42 5.845 8.176 6.94.915.259.721.916.211 1.272-1.36.933-2.72 1.97-4.234 2.53-1.967.729-3.902.47-5.464-1.273-1.344-1.492-2.866-2.805-4.259-4.248-2.792-2.878-6.006-4.005-9.949-2.659zm14.661 10.709c-2.089 1.175-4.21 2.302-6.897 2.326 1.344-1.216 2.655-2.472 4.039-3.639.915-.762 2.186-.503 2.939.527.121.162.065.705-.081.786m-18.473 4.167c.493-.925 1.028-1.905 1.764-2.619 2.785-2.675 5.667-5.261 8.5-7.896.988-.907 1.838-.826 2.672.195.372.454.769.9 1.198 1.281.866.77 1.052 1.386.04 2.27-2.21 1.905-4.654 3.623-5.739 6.534-.138.372-.656.737-1.061.851-2.032.567-4.08 1.045-5.496 1.394-2.089.008-2.59-.73-1.886-2.019zm27.305 41.74a2952 2952 0 0 1-10.799-15.8c-.923-1.353-1.805-2.74-2.688-4.101 5.351-2.376 10.54-4.613 15.665-7.004 1.279-.592 1.926-.341 2.566.778a2881 2881 0 0 0 10.839 18.701c.575.981.713 1.711-.461 2.295-4.226 2.091-8.46 4.174-12.653 6.331-1.473.762-1.886-.381-2.453-1.2zm33.498-60.377c2.413-2.189 5.036-3.916 8.371-4.232 5.837-.551 11.738 2.173 13.835 7.507 1.999 5.131 2.274 10.417 1.376 15.702-1.668 9.793-4.542 19.294-7.812 28.673-.024.073-.154.113-.389.259-1.214-2.043-2.015-4.264-2.485-6.542-.218-1.045.308-2.286.656-3.396 1.36-4.394 2.857-8.755 4.153-13.173 1.53-5.172 1.7-10.482 1.02-15.816-.502-3.948-2.38-6.883-6.404-8.05-2.015-.584-3.999-.673-5.764.64-1.797 1.314-3.578 2.667-5.221 4.167-.866.795-1.149.422-1.481-.308-.292-.648-.454-1.346-.729-1.986-.591-1.394-.235-2.44.882-3.453zm11.228 36.755c-2.404-6.761-4.8-13.53-7.204-20.299-.551-1.556-.988-3.17-1.717-4.629-1.076-2.164-.445-3.956 1.012-5.496a17.7 17.7 0 0 1 3.862-3.056c3.278-1.913 6.978-.77 8.702 2.594.478.924.777 1.978.956 3.007.639 3.632.663 7.256.024 10.912-1.02 5.828-2.915 11.357-5.635 16.967m-14.004-34.194c6.257 17.81 12.418 35.661 18.805 53.414.939 2.627.704 4.645-1.109 6.445-2.68 2.635-5.383 5.31-8.371 7.571-5.958 4.516-12.474 8.066-19.752 9.996-1.239.324-2.55.51-3.829.494-1.692-.032-3.157-.648-4.194-2.189-2.881-4.312-5.877-8.544-8.775-12.856-1.157-1.711-1.077-1.719.915-2.716 4.315-2.156 8.63-4.321 12.92-6.558 1.7-.892 1.708-1.07.777-2.708-3.813-6.655-7.65-13.303-11.471-19.95-.121-.203-.251-.397-.38-.592-1.692-2.618-1.741-2.626-4.469-1.378-4.169 1.913-8.33 3.883-12.54 5.707-3.934 1.694-3.95 1.613-6.379-1.929-2.606-3.802-5.229-7.58-7.804-11.39-.38-.559-.85-1.362.373-1.532 5.229-.722 9.949-2.935 14.588-5.196 10.734-5.245 20.853-11.504 29.928-19.351 2.307-2.002 4.598-4.037 6.889-6.047 1.174 3.259 2.558 6.996 3.878 10.757zm74.501-5.69c2.89.956 5.626 2.407 8.37 3.753.923.454 1.708 1.248 2.493 1.954.802.721.656 1.467-.21 2.026-.486.316-1.036.649-1.595.705-.469.065-1.327-.121-1.425-.413-.987-2.667-3.408-3.51-5.642-4.459a77.2 77.2 0 0 0-17.292-4.985c-4.29-.713-8.637-1.103-12.968-1.532-1.15-.114-2.421-.081-3.505.292-1.636.575-3.093 1.005-4.542-.389-.178-.163-.793.137-1.198.218.105.43.073 1.062.332 1.249 3.133 2.083 6.079 4.694 9.512 6.015 8.047 3.105 16.53 4.758 25.063 5.991 2.21.324 4.477.267 6.703.381.008-.033.008-.081.008-.114.826 0 1.651-.008 2.477 0 1.028.008 2.048.024 3.076.033-.129 1.475-1.457 1.702-2.428 2.18-6.226 3.097-12.791 3.802-19.623 2.692-9.868-1.597-18.449-5.602-25.128-13.23-.47-.535-1.117-1.014-1.328-1.638-1.06-3.137-3.602-3.786-6.46-4.548-32.47-8.536-64.916-17.21-97.362-25.859-1.7-.454-3.416-.941-5.035-1.622-2.445-1.037-3.133-4.118-1.514-6.177.866-1.102 2.04-1.143 3.222-.835 2.283.6 4.55 1.257 6.8 1.938a531981 531981 0 0 1 90.052 27.116c2.364.713 4.752 1.329 7.1 2.108 3.303 1.11 6.735 1.045 10.127 1.345 10.823.916 21.566 2.376 31.92 5.813zm4.978 7.839c-.826.356-1.667 1.037-2.493 1.021-2.574-.04-5.205-.089-7.723-.608a303 303 0 0 1-17.51-4.102c-2.939-.778-5.764-1.994-8.257-3.81-.259-.194-.421-.535-.624-.811.267-.178.51-.454.794-.502.922-.162 1.862-.235 2.363-.3 10.881.624 20.943 2.902 30.625 6.826.324.129.688.235.947.454.656.583 1.255 1.224 1.878 1.832m17.842-55.846c-.769-4.402-1.489-8.828-2.461-13.198-.348-1.532-.081-2.545 1.109-3.356 1.158-.794 2.316-1.686 3.619-2.18 5.505-2.084 9.941.381 11.155 6.161.292 1.378.3 2.821.437 4.231.178 5.959-3.254 9.914-7.423 13.449-.988.827-2.137 1.483-3.238 2.156-1.676 1.014-1.992.876-2.275-.94-.324-2.1-.55-4.224-.915-6.315zm-2.938-22.544c3.772-2.359 7.876-3.251 12.167-2.295 3.465.771 6.16 2.83 7.601 6.283 1.377 3.299 2.307 6.672 2.413 9.793-.041 3.972-.85 7.271-2.793 10.198-3.578 5.399-8.387 9.525-13.835 12.938-.866.551-1.198.178-1.328-.787-.267-2.115.454-3.485 2.405-4.539 3.885-2.092 7.156-4.945 9.504-8.763 3.165-5.14 3.262-10.571 1.06-15.954-2.097-5.148-6.8-7.109-13.309-4.556-.963.381-1.829 1.046-2.728 1.613-1.57.997-1.643.933-2.177-.924-.373-1.297-.219-2.245 1.012-3.007zm-.834 12.921c.226.916.356 1.857.55 2.781 1.271 6.112 2.396 12.265 2.623 20.372-.129 6.112-1.667 13.627-6.678 20.096-6.031 7.782-13.973 10.862-23.631 9.719-2.096-.243-4.177-.681-6.273-1.021-9.707-1.556-15.665-7.62-19.372-16.27-2.801-6.55-2.68-13.351-1.166-20.177 1.522-6.858 4.776-13.043 7.909-19.253.753-1.492.898-1.427 2.331-.227 3.352 2.805 6.946 5.196 10.945 7.053 6.395 2.959 12.92 3.307 19.656 1.694 4.152-.997 8.151-2.294 11.446-5.229.955-.843 1.368-.689 1.652.446zm-2.542-12.654c.251 1.865.777 3.689 1.125 5.545.429 2.221.34 2.489-2.016 2.489s-4.97-.114-7.35-.649c-5.853-1.305-11.657-2.845-17.454-4.369-4.128-1.078-8.216-2.092-12.531-1.143-1.449.324-1.676-.065-1.133-1.508.874-2.327 1.821-4.613 2.663-6.939 1.862-5.091 2.356-10.312 1.457-15.678-.291-1.727-.348-3.486-.51-5.237 2.979 3.072 6.331 4.977 10.038 6.282 7.173 2.522 14.467 4.273 22.149 3.073 1.522-.235 1.425.697 1.538 1.654.664 5.496 1.295 10.992 2.032 16.48zm-33.677-29.694c.154-.21.64-.276.964-.243.696.08 1.392.219 2.072.413 6.339 1.816 12.71 3.55 19.016 5.496 2.453.762 4.784 1.978 7.148 3.032.243.106.348.543.51.819-.21.114-.396.276-.615.324-1.15.22-2.307.414-3.003.535-7.108-.51-13.576-1.783-19.68-4.458-2.469-1.07-4.922-2.376-6.282-4.945-.146-.292-.275-.779-.138-.965zm69.822 9.258c-1.246.324-2.55.486-3.829.535-9.9.348-19.801.648-29.701.956-1.304.041-2.534.203-3.174-1.459-.251-.665-1.141-1.167-1.845-1.532-1.984-1.03-3.951-2.213-6.072-2.862-8.111-2.48-16.271-4.774-24.423-7.11-.786-.226-1.619-.315-2.437-.42-2.429-.333-3.238.494-2.882 2.966.364 2.57.826 5.132 1.166 7.693.477 3.584.453 3.673-3.02 3.705-5.893.073-11.795.016-17.696.016.008.154.008.316.008.462-5.545.106-11.091.292-16.628.268a35 35 0 0 1-7.01-.738c-5.829-1.224-7.367-5.423-3.846-10.246 2.17-2.96 5.303-4.313 8.816-4.556 2.566-.179 5.197-.04 7.764.291 5.65.73 9.633-1.2 12.175-6.25.469-.94.809-1.961 1.133-2.975.996-3.088 2.372-4.353 5.546-4.466 1.602-.065 3.262.291 4.832.705 1.352.365 2.64 1.03 3.878 1.71 2.987 1.63 5.683 1.046 8.184-.997 1.101-.891 2.146-1.856 3.174-2.829 1.959-1.856 4.217-2.407 6.848-1.864 3.085.624 5.74 2.1 8.29 3.818 1.959 1.313 3.991 2.545 5.853 3.988 2.849 2.205 6.031 2.473 9.399 1.93.696-.114 1.392-.26 2.064-.479 5.359-1.75 9.941-.47 13.98 3.38 1.789 1.703 3.797 3.186 5.74 4.719 2.501 1.978 5.383 2.845 8.557 2.837 1.06 0 2.129 0 3.181.049 2.437.113 3.91 1.597 4.695 3.712.98 2.627.033 4.321-2.712 5.035z"/>
    <path fill="#1e1c1c" d="M141.323 248.229c-4.226 2.092-8.459 4.175-12.653 6.331-1.473.762-1.886-.381-2.453-1.199a3055 3055 0 0 1-10.799-15.8c-.923-1.354-1.805-2.74-2.687-4.102 5.351-2.375 10.54-4.613 15.664-7.004 1.279-.592 1.927-.34 2.566.778a2862 2862 0 0 0 10.84 18.702c.575.981.712 1.71-.462 2.294zm-23.947-40.776c-2.088 1.176-4.209 2.302-6.897 2.327 1.344-1.216 2.656-2.473 4.04-3.64.915-.762 2.186-.503 2.938.527.122.162.065.705-.081.786m25.526-16.764c-.194.332-.259.592-.429.713-3.813 2.765-7.618 5.529-11.471 8.245-.891.624-3.764.081-4.501-.779-.122-.137-.041-.713.113-.818 4.882-3.089 9.941-5.829 15.462-7.612.219-.073.535.154.826.251m130.6-57.605c-.04 3.972-.85 7.272-2.792 10.198-3.579 5.399-8.387 9.525-13.835 12.938-.867.551-1.198.178-1.328-.786-.267-2.116.453-3.486 2.404-4.54 3.886-2.091 7.157-4.945 9.504-8.763 3.165-5.14 3.263-10.571 1.061-15.954-2.097-5.147-6.8-7.109-13.309-4.556-.963.381-1.829 1.046-2.728 1.614-1.571.997-1.643.932-2.178-.925-.372-1.297-.218-2.245 1.012-3.007 3.773-2.359 7.877-3.251 12.167-2.294 3.465.77 6.161 2.829 7.602 6.282 1.376 3.3 2.307 6.672 2.412 9.793zm-38.971 62.777c.656.584 1.255 1.224 1.878 1.832-.825.357-1.667 1.038-2.493 1.022-2.574-.041-5.205-.089-7.723-.608a303 303 0 0 1-17.51-4.102c-2.939-.778-5.764-1.994-8.257-3.81-.259-.195-.421-.535-.624-.811.268-.178.51-.454.794-.503.923-.162 1.862-.235 2.364-.299 10.88.624 20.942 2.902 30.624 6.825.324.13.688.235.947.454m-102.315-64.739c-1.999 3.356-5.059 4.929-8.694 5.318-13.592 1.475-27.184 2.837-40.784 4.175-10.2 1.021-20.408 1.954-30.616 2.902-.931.089-1.879.016-2.834.016v-.016c-.939 0-1.886.081-2.825-.016-8.395-.843-14.021-10.993-10.362-18.678.413-.867.883-1.013 1.49-.137 1.83 2.65 4.5 2.707 7.285 2.245.923-.146 1.814-.511 2.72-.778.81-.235 1.369.081 1.7.827.195.429.316.9.535 1.305 1.74 3.21 4.792 4.604 8.346 3.559 1.789-.535 3.465-1.451 5.14-2.303 1.466-.753 2.858-1.645 4.275-2.48 1.376-.803 2.655-.843 3.829.397 2.89 3.064 6.128 3.081 9.609 1.054.704-.422 1.473-.738 2.194-1.135 1.902-1.038 3.465-1.248 5.35.495 2.21 2.05 5.311 1.515 7.586-.827.907-.924 1.595-2.051 2.445-3.024 1.586-1.816 3.157-2.57 5.529-.884 1.141.811 2.42 1.459 3.708 2.027 3.974 1.743 10.564.697 13.292-4.28.51-.933.988-1.913 1.635-2.732.486-.608 1.198-1.346 1.878-1.427 2.486-.3 4.008-1.84 5.4-3.656.291-.373.575-.754.89-1.086.672-.73 1.271-.487 1.684.243.502.924 1.028 1.873 1.344 2.878 1.716 5.577 1.287 10.895-1.749 16.002zm-11.828-56.907c-7.909 0-15.81-.074-23.72.024-4.719.056-9.422.47-14.142.551-4.59.081-9.228.413-13.73-.73-2.987-.754-5.261-2.57-5.95-5.788-.687-3.21-.226-6.225 2.559-8.293 3.343-2.488 7.018-3.866 11.26-2.318a75 75 0 0 0 5.716 1.84c4.339 1.2 7.018-.04 8.904-4.085.6-1.281 1.069-2.619 1.644-3.916 2.299-5.196 9.617-6.364 13.284-3.34 1.911 1.573 3.352 1.24 5.052.122 1.181-.778 2.331-1.605 3.529-2.36 2.072-1.312 4.25-1.661 6.743-1.272 6.38.989 11.731 3.778 15.487 8.998 2.679 3.721 5.942 4.183 9.925 3.121 3.327-.892 6.468-.786 9.398 1.435 4.647 3.526 3.902 11.52-1.505 13.781a17.3 17.3 0 0 1-6.169 1.305c-9.431.26-18.87.316-28.309.446v.478zm22.302-3.09c0 .106.009.212.017.317 1.886 0 3.788.146 5.65-.04 1.967-.203 4.032-.414 5.837-1.16 3.351-1.386 4.541-7.158 2.072-9.711-1.862-1.922-4.12-3.154-6.994-2.343a38 38 0 0 1-3.797.827c-3.489.6-6.581.056-8.759-3.105-.534-.77-1.214-1.443-1.813-2.173-3.303-4.029-7.691-6.136-12.677-7.166-2.793-.575-5.36-.138-7.65 1.735-1.085.884-2.38 1.508-3.579 2.262-1.845 1.159-3.424.875-5.156-.47-4.234-3.26-9.423-1.816-11.625 3.104-.526 1.184-.931 2.424-1.45 3.616-1.732 3.956-5.698 5.756-9.576 4.685-2.485-.689-4.946-1.507-7.415-2.27-3.821-1.175-7.027.268-9.715 2.733-2.85 2.618-1.991 8.163 1.312 9.306 2.752.956 5.561 1.775 8.565 1.621 2.809-.138 5.634-.065 8.451-.121 9.545-.195 19.089-.406 28.633-.6 6.128-.122 12.265-.17 18.393-.365 3.764-.122 7.52-.446 11.276-.681m92.863 178.756c-10.022 0-20.036.017-30.058-.024-1.271 0-2.566-.259-3.805-.551-1.732-.414-3.044-1.435-3.222-3.308-.194-1.953.162-3.866 1.951-5.017 3.141-2.019 6.59-3.105 10.378-2.789.696.057 1.384.316 2.081.381 2.542.219 3.043-.219 3.367-2.805.122-.932.292-1.864.397-2.797.316-2.813 1.894-4.758 4.226-6.185 2.704-1.662 5.48-2.14 8.314-.34 1.886 1.199 3.796 2.367 5.569 3.729 2.064 1.588 4.072 1.637 6.193.283a54 54 0 0 0 3.198-2.213c2.938-2.189 6.112-2.221 9.382-1.005 2.712 1.013 5.011 2.699 6.711 5.018 1.983 2.699 4.372 4.037 7.828 3.729 1.822-.162 3.748.284 5.562.705 2.388.551 3.991 2.221 4.404 4.588.388 2.23-.648 4.086-2.518 5.464-2.437 1.8-5.141 2.902-8.144 3.105-3.052.211-6.12.276-9.188.292-7.545.04-15.09.016-22.635.016v-.267zm-2.016-1.54c0-.146 0-.3.008-.446 7.666.179 15.324.446 22.991.495 3.885.024 7.779-.187 11.649-.559a11.4 11.4 0 0 0 6.419-2.74c2.518-2.181 2.089-5.213-1.06-6.364-1.619-.592-3.481-.965-5.181-.819-4.194.349-7.318-1.119-9.69-4.556-1.376-1.986-3.416-3.218-5.554-4.272-2.809-1.386-5.456-1.183-7.99.665-1.044.762-2.056 1.605-3.181 2.245-2.793 1.581-5.554 1.735-8.265-.308-1.603-1.199-3.295-2.278-4.963-3.396-4.396-2.951-10.216.989-10.354 5.204-.032.94-.137 1.889-.243 2.821-.364 3.154-1.748 4.264-4.978 4.037-1.295-.089-2.583-.243-3.878-.292-2.679-.089-5.067.884-7.391 2.1-1.376.721-1.57 1.946-1.497 3.316.072 1.329 1.076 1.767 2.096 2.075a9 9 0 0 0 2.421.381c9.544.146 19.088.267 28.633.397z"/>
    <path fill="#1e1c1c" d="M73.59 118.703c-2.251 0-4.485-.162-6.671-.551-.955-.17-3.02-.641-3.603-1.508-1.692-2.537 3.538-.276 4.145-.178 1.725.275 3.424.235 5.206-.389 6.832-2.392 13.891-3.681 21.153-3.713 1.295 0 2.655-.065 3.86.308 1.571.478 3.134.34 4.494-.624.68-.487 1.06-1.338 1.74-1.84.543-.406 2.664-.819 1.814.624-1.109 1.88-2.728 3.299-4.914 3.761-4.72 1.005-9.455 1.986-14.215 2.789-4.218.713-8.638 1.329-13.002 1.329z"/>
</svg>
