<svg xmlns="http://www.w3.org/2000/svg" width="177" height="160" fill="none" viewBox="0 0 177 160">
    <path fill="#000" d="M172.071 30.337c-.805-.073-1.633-.023-2.443-.011-1.773.022-3.383-.453-4.764-1.582-1.325-1.085-2.694-2.114-3.963-3.254-3.064-2.773-6.474-4.014-10.555-2.667a9 9 0 0 1-1.426.352c-1.979.325-3.874.274-5.59-1.028a36 36 0 0 0-3.645-2.449c-1.756-1.012-3.5-2.124-5.39-2.806-2.761-1.001-5.467-.783-7.653 1.532-.285.296-.598.559-.895.838-2.152 1.996-3.041 2.085-5.679.945-1.488-.637-3.036-1.236-4.618-1.504-3.164-.537-5.591 1.079-6.591 4.064-.258.772-.52 1.555-.906 2.253-1.241 2.265-3.081 3.54-5.77 3.26-.888-.09-1.777-.24-2.672-.291-1.375-.067-2.79-.252-4.137-.062-3.376.487-6.188 1.935-7.804 5.172-1.353 2.711-.772 4.925 1.85 6.429.766.43 1.627.822 2.483.944 1.923.274 3.88.543 5.814.52 7.502-.095 14.993-.307 22.49-.464 3.042-.067 3.081-.005 2.527 2.963-.62 3.316-1.973 6.38-3.388 9.404-1.722 3.69-3.55 7.329-5.294 11.007-1.755 3.718-2.845 7.61-3.063 11.746-.336 6.435 1.526 12.048 6.043 16.71.878.906 1.733 1.834 2.879 3.053-2.191-.207-3.964-.38-5.747-.543-1.291-.111-2.633-.022-3.869-.352-4.008-1.062-7.983-2.247-11.952-3.438-17.001-5.093-33.99-10.203-50.991-15.312-2.801-.845-5.608-1.689-8.403-2.578-.23-.072-.374-.425-.553-.648.212-.084.413-.23.631-.252 3.164-.313 6.323-.615 9.487-.922 5.434-.526 10.863-1.046 16.297-1.588 1.71-.173 3.471-.391 4.802-1.56 1.403-1.235 2.678-2.622 3.88-4.047.855-1.018.525-1.594-.822-1.633-1.135-.022-2.28.079-3.416.079-.29 0-.576-.151-.86-.235.128-.274.229-.57.39-.828.168-.274.409-.503.582-.782 2.577-3.958 2.974-8.207 1.565-12.646-.715-2.27-2.191-3.992-4.215-5.21-1.688-1.012-3.539-1.638-5.495-1.93-5.518-.821-11.075-.726-16.593-.312-6.647.503-13.277 1.375-19.885 2.275-5.507.744-10.812 2.281-15.9 4.562-2.516 1.124-4.612 2.689-6.328 4.847C-.118 55.673-.514 59.296.939 63.17c.822 2.18 2.04 4.087 4.266 5.138.179.084.268.34.402.525-.184.129-.363.336-.559.364-.973.111-1.957.14-2.924.274-.631.089-1.286.234-1.85.503-.201.095-.364.816-.218.984 2.202 2.566 4.774 4.388 8.408 4.058 7.86-.715 15.732-1.403 23.598-2.102.844-.078.928.023.654.9-1.258 4.07-.38 5.641 3.784 6.748 12.909 3.422 25.812 6.832 38.72 10.264 1.286.336 2.555.738 4.266 1.247-1.532.498-2.61.827-3.673 1.202-5.412 1.9-10.426 4.59-15.251 7.665-.805.52-1.32.492-2.108-.084-1.101-.8-2.314-1.554-3.594-1.968-3.327-1.074-6.765-.9-10.17-.386-3.773.576-7.334.129-10.52-2.04-1.902-1.292-3.925-1.532-6.067-1.124-1.107.212-2.219.57-3.242 1.05-3.377 1.572-6.675 1.918-10.035-.06a5.76 5.76 0 0 0-4.987-.442c-4.668 1.75-9.13 5.859-6.843 12.864 1.118 3.432 3.88 5.484 7.475 5.545 2.711.045 5.39-.313 7.933-1.196 2.913-1.012 5.758-2.236 8.604-3.427 2.297-.956 4.645-1.632 7.122-1.051 2.706.632 5.328.464 7.939-.386 1.856-.609 3.7-1.274 5.568-1.822.928-.263 1.912-.38 2.873-.448.43-.027.884.241 1.33.375-.24.375-.413.811-.726 1.107-1.593 1.515-3.276 2.941-4.825 4.5-.794.794-1.442 1.767-2.023 2.745-.414.705-.52 1.532.028 2.309.793 1.118 1.56 2.27 2.33 3.399 8.258 12.025 16.526 24.039 24.772 36.07.341.503.51 1.135.76 1.711-.625.078-1.257.224-1.883.224q-11.128-.019-22.256-.062c-.654 0-1.314-.022-1.957.073-.229.028-.475.346-.598.598-.045.084.257.475.447.503.632.106 1.28.157 1.923.157 25.353.089 50.718.173 76.071.24.743 0 2.068.403 2.079-.587.006-1.297-1.392-.721-2.152-.721-13.127-.084-26.253-.106-39.374-.151h-2.829c.347-.615.777-.794 1.18-1.012 2.79-1.498 5.657-2.879 8.358-4.539 2.845-1.756 5.44-3.891 7.575-6.508 1.425-1.744 2.23-3.561 1.012-5.803-.822-1.52-.587-3.17-.157-4.763.313-1.18.777-2.32 1.118-3.494 1.599-5.551 3.394-11.064 4.35-16.783a23.1 23.1 0 0 0-.269-8.989c-1.956-8.526-9.627-9.694-14.68-7.408-1.096.492-2.047 1.314-3.025 2.024-.576.419-1.045.548-1.286-.257a287 287 0 0 1-1.984-7.039c-.034-.14.313-.536.492-.542.396-.017.799.112 1.19.218 5.814 1.571 11.629 3.148 17.443 4.702 1.252.335 2.504.665 3.773.933.872.18 1.359.694 1.845 1.42 1.504 2.248 3.427 4.137 5.585 5.775 5.675 4.311 12.171 6.133 19.192 6.133 3.813 0 7.453-.967 10.678-3.052 3.494-2.253 3.545-5.009.067-7.268-1.755-1.135-3.773-1.89-5.68-2.79-.631-.301-1.291-.536-2.437-1.011 1.588-.32 2.622-.498 3.639-.733.632-.14 1.32-.235 1.851-.553 1.325-.794 2.639-1.616 3.846-2.583 4.031-3.231 6.619-7.396 7.559-12.484.352-1.912 1.285-3.186 2.873-4.249 1.895-1.263 3.735-2.644 5.389-4.198 2.253-2.113 4.333-4.411 5.395-7.447 1.498-4.288.632-8.318-1.012-12.355-1.492-3.667-5.747-5.668-9.095-5.271-2.114.251-4.216.491-6.066 1.688-.537.346-.967.19-1.046-.453-.324-2.667-.71-5.328-.889-8-.095-1.532.269-1.756 1.89-1.811 5.3-.163 10.6-.263 15.894-.476 2.6-.1 5.205-.273 7.776-.626 2.147-.296 2.863-1.364 2.818-3.51-.062-2.645-2.041-4.77-4.735-5.02zM121.437 54.56c.296-.135.61-.269.923-.308.805-.09 1.626-.128 2.437-.179 2.326-.106 4.478.738 6.675 1.28 3.947.968 7.883 1.99 11.846 2.874 1.337.302 2.751.235 4.121.363.207.017.52.146.559.291.056.162-.073.492-.229.604-.867.604-1.706 1.314-2.667 1.694-4.048 1.615-8.229 2.622-12.618 1.794-2.823-.536-5.428-1.71-7.832-3.276-1.292-.844-2.561-1.738-3.718-2.761-1.085-.956-.855-1.761.503-2.37zM4.477 52.917c.443-1.291 1.17-2.354 2.382-2.94 2.198-1.063 4.372-2.203 6.664-3.025 4.523-1.638 9.236-2.583 14.005-3.248 8.643-1.208 17.325-2.04 26.057-2.007 2.756.005 5.53.34 8.257.727 1.264.173 2.488.76 3.662 1.297 1.051.48 1.342 1.436.766 2.404-.581.972-1.241 2.023-2.482 2.185-1.856.252-2.835 1.432-3.55 2.991-.923 2.007-2.505 3.165-4.685 3.489-.341.05-.677.09-.732.095h-.006c-2.164-.062-3.606-.788-4.992-1.677-2.32-1.487-3.673-1.27-5.48.838-.58.677-1.056 1.46-1.71 2.063-1.37 1.264-2.6 1.375-3.868.067-1.208-1.252-2.349-1.224-3.718-.548-.945.476-1.906.917-2.857 1.37-1.973.95-3.058.816-4.674-.598-1.828-1.582-2.359-1.638-4.54-.391-1.061.609-2.09 1.274-3.174 1.833-.861.453-1.75.9-2.69 1.135-2.107.537-3.661-.285-4.567-2.242-.967-2.09-1.029-2.09-3.315-1.565-1.018.24-2.08.492-3.103.42-1.71-.113-2.191-1.085-1.65-2.679zm-2.33 2.482c.285-.598.609-.699 1.028-.095 1.264 1.828 3.109 1.867 5.032 1.549.637-.1 1.252-.352 1.878-.537.56-.162.945.056 1.174.57.134.297.218.62.37.9 1.201 2.214 3.309 3.176 5.763 2.455 1.236-.37 2.393-1.001 3.55-1.588 1.012-.52 1.973-1.135 2.952-1.71.95-.554 1.834-.582 2.644.273 1.996 2.113 4.232 2.124 6.636.727.486-.29 1.017-.509 1.515-.783 1.314-.715 2.393-.86 3.695.341 1.527 1.415 3.668 1.046 5.239-.57.626-.637 1.101-1.414 1.688-2.085 1.096-1.252 2.18-1.772 3.818-.61.789.56 1.672 1.007 2.56 1.398 2.746 1.202 7.297.48 9.18-2.952.353-.643.682-1.32 1.13-1.884.335-.42.827-.928 1.297-.984 1.716-.207 2.767-1.269 3.729-2.521.2-.257.397-.52.615-.75.464-.502.877-.335 1.162.169.347.637.71 1.291.928 1.984 1.186 3.846.89 7.514-1.207 11.036-1.381 2.314-3.494 3.399-6.004 3.667-9.387 1.018-18.773 1.957-28.165 2.88-7.044.704-14.094 1.347-21.144 2-.643.062-1.297.012-1.956.012v-.011c-.649 0-1.303.056-1.951-.011-5.798-.582-9.683-7.581-7.156-12.881zm30.798 16.28c-4.372.413-8.76.749-13.138 1.151-3.483.314-6.96.66-10.443.996-1.89-.012-3.774.072-5.417-1.096-.397-.285-.822-.537-1.157-.883-.202-.207-.263-.565-.308-.867 0-.05.403-.207.626-.235 2.75-.307 5.496-.61 8.246-.889 7.687-.794 15.374-1.593 23.067-2.364 7.368-.733 14.742-1.432 22.11-2.17 4.21-.419 8.408-.933 12.624-1.319.8-.078 1.733-.559 2.482.246-.492.626-.967 1.258-1.476 1.873-1.14 1.414-2.667 2.085-4.445 2.264l-15.05 1.51c-5.914.603-11.818 1.218-17.732 1.794zm28.321 30.39c1.51-.95 3.036-1.879 4.607-2.74 4.271-2.347 8.598-4.59 13.4-5.685.548-.129 1.102-.235 1.381-.296 1.297.044 1.683.559 1.186 1.43-1.18 2.07-2.472 3.914-5.194 4.272-1.577.207-3.114.883-4.59 1.532-2.896 1.269-5.859 2.426-8.369 4.416-.743.599-1.297.481-1.884-.134a13 13 0 0 1-.805-.922c-.805-1.035-.81-1.208.257-1.884zm14.63-1.252c-.133.229-.178.408-.296.492-2.633 1.906-5.26 3.812-7.921 5.685-.615.431-2.6.056-3.109-.537-.083-.095-.028-.492.079-.564 3.37-2.13 6.865-4.02 10.678-5.25.15-.05.368.107.57.174m-27.75 4.176c-1.845.626-3.735 1.14-5.586 1.761-2.823.956-5.618 1.336-8.603.548-2.354-.627-4.685.1-6.893 1.012-1.499.614-2.93 1.408-4.434 2.034-3.55 1.482-7.206 2.561-11.745 2.667-1.202.14-2.88-.257-4.422-1.364-2.773-1.996-4.104-7.698-1.258-10.997.939-1.095 2.135-2.012 3.348-2.817 1.812-1.197 3.785-1.47 5.759-.296 3.566 2.113 7.139 1.671 10.772.167 1.191-.492 2.46-.838 3.73-1.073 1.738-.324 3.32.078 4.863 1.073 3.27 2.091 6.854 2.751 10.745 2.13 3.299-.53 6.636-.698 9.935.246 1.89.537 3.404 1.526 4.494 3.142 1.437 2.13 3.053 4.031 5.647 4.786.631.179.497.631.145.877-.94.643-1.878 1.359-2.924 1.745-1.358.503-2.694.324-3.773-.878-.928-1.029-1.98-1.934-2.941-2.93-1.929-1.984-4.148-2.761-6.87-1.833zm10.124 7.385c-1.443.81-2.907 1.588-4.763 1.604.928-.838 1.834-1.705 2.79-2.51.631-.525 1.509-.346 2.029.364.084.111.044.486-.056.542m-12.758 2.873c.341-.637.71-1.313 1.219-1.805 1.923-1.845 3.913-3.629 5.87-5.446.682-.626 1.27-.57 1.845.135a8 8 0 0 0 .827.883c.598.531.727.956.028 1.565-1.526 1.314-3.214 2.499-3.963 4.506-.095.257-.453.509-.733.587-1.403.392-2.817.721-3.796.962-1.442.005-1.789-.503-1.302-1.392zm18.857 28.786a2118 2118 0 0 1-7.458-10.896c-.637-.934-1.246-1.89-1.856-2.829 3.696-1.638 7.28-3.181 10.818-4.83.883-.408 1.33-.235 1.772.537a2003 2003 0 0 0 7.486 12.897c.397.676.492 1.18-.319 1.582-2.918 1.443-5.842 2.879-8.738 4.366-1.017.526-1.302-.262-1.694-.827zm23.134-41.638c1.666-1.51 3.477-2.7 5.78-2.918 4.031-.38 8.107 1.498 9.555 5.176 1.38 3.539 1.57 7.184.95 10.829-1.152 6.754-3.136 13.306-5.395 19.774-.017.05-.106.078-.268.179-.839-1.409-1.392-2.941-1.717-4.512-.15-.721.213-1.576.453-2.342.94-3.03 1.974-6.038 2.868-9.085 1.057-3.567 1.174-7.228.705-10.907-.347-2.723-1.644-4.746-4.422-5.551-1.392-.403-2.762-.464-3.98.441-1.242.906-2.472 1.84-3.607 2.874-.598.548-.794.291-1.023-.213-.201-.447-.313-.928-.503-1.369-.408-.962-.162-1.683.61-2.382zm7.754 25.347c-1.66-4.662-3.315-9.33-4.976-13.999-.38-1.073-.682-2.185-1.185-3.192-.743-1.492-.307-2.728.699-3.79a12.2 12.2 0 0 1 2.666-2.108c2.265-1.319 4.82-.531 6.01 1.789.33.638.537 1.364.66 2.074.442 2.505.458 5.004.017 7.525-.705 4.02-2.013 7.833-3.891 11.701m-9.672-23.581c4.322 12.283 8.576 24.593 12.987 36.836.648 1.812.486 3.204-.766 4.445-1.85 1.817-3.718 3.662-5.78 5.221-4.115 3.114-8.615 5.563-13.641 6.893a10 10 0 0 1-2.645.341c-1.168-.022-2.18-.447-2.896-1.509-1.99-2.974-4.058-5.892-6.06-8.867-.8-1.179-.743-1.185.632-1.872a580 580 0 0 0 8.923-4.523c1.174-.615 1.18-.738.536-1.867-2.633-4.59-5.283-9.174-7.922-13.759a11 11 0 0 0-.262-.408c-1.169-1.805-1.202-1.811-3.086-.95-2.88 1.319-5.753 2.678-8.66 3.936-2.717 1.168-2.728 1.112-4.405-1.331-1.8-2.622-3.612-5.227-5.39-7.855-.262-.385-.587-.939.258-1.056 3.611-.498 6.87-2.024 10.074-3.584 7.413-3.617 14.4-7.933 20.668-13.344 1.593-1.381 3.175-2.784 4.757-4.17.81 2.246 1.767 4.824 2.678 7.418zm51.45-3.924c1.996.659 3.885 1.66 5.78 2.588.638.313 1.18.861 1.722 1.348.554.497.453 1.011-.145 1.397-.336.218-.716.447-1.101.487-.325.044-.917-.084-.984-.286-.682-1.839-2.354-2.42-3.897-3.074a53.3 53.3 0 0 0-11.941-3.438c-2.963-.493-5.965-.76-8.956-1.057-.794-.078-1.672-.056-2.421.201-1.129.397-2.136.693-3.136-.268-.123-.112-.548.095-.828.15.073.297.051.733.229.862 2.164 1.436 4.199 3.237 6.569 4.148 5.557 2.141 11.416 3.281 17.309 4.131 1.526.224 3.091.185 4.629.263.005-.022.005-.056.005-.078.57 0 1.141-.006 1.711 0 .71.005 1.414.016 2.124.022-.089 1.018-1.006 1.174-1.677 1.504-4.299 2.135-8.833 2.622-13.551 1.856-6.815-1.101-12.741-3.863-17.353-9.124-.325-.369-.772-.699-.917-1.129-.733-2.164-2.488-2.61-4.461-3.136-22.424-5.887-44.83-11.869-67.238-17.834-1.174-.313-2.359-.649-3.477-1.118-1.688-.716-2.163-2.84-1.045-4.26.598-.76 1.409-.788 2.225-.576 1.576.414 3.142.867 4.696 1.336a447859 447859 0 0 1 62.189 18.7c1.632.492 3.281.917 4.903 1.454 2.281.766 4.651.721 6.993.928 7.475.632 14.893 1.638 22.044 4.008zm3.438 5.406c-.57.246-1.152.715-1.722.704-1.778-.028-3.595-.061-5.333-.419a209 209 0 0 1-12.093-2.829c-2.029-.537-3.98-1.375-5.702-2.627-.179-.135-.291-.369-.43-.56.184-.123.352-.312.547-.346.638-.112 1.286-.162 1.633-.207 7.514.43 14.463 2.001 21.149 4.707.223.09.475.162.654.313.453.403.866.845 1.297 1.264m12.321-38.513c-.531-3.036-1.028-6.088-1.699-9.102-.24-1.056-.056-1.755.766-2.314.799-.548 1.599-1.163 2.499-1.504 3.801-1.437 6.865.263 7.704 4.249.201.95.206 1.945.301 2.918.123 4.11-2.247 6.837-5.126 9.275-.682.57-1.476 1.023-2.236 1.487-1.158.699-1.376.604-1.571-.649-.224-1.448-.38-2.912-.632-4.355zm-2.029-15.547c2.605-1.627 5.44-2.242 8.403-1.583 2.392.532 4.254 1.951 5.249 4.333.951 2.275 1.593 4.601 1.666 6.753-.028 2.74-.587 5.015-1.929 7.033-2.471 3.724-5.791 6.57-9.554 8.923-.598.38-.827.123-.917-.543-.184-1.459.313-2.403 1.661-3.13 2.683-1.443 4.942-3.41 6.563-6.044 2.186-3.544 2.253-7.29.732-11.002-1.448-3.55-4.696-4.903-9.19-3.142-.666.263-1.264.721-1.884 1.113-1.085.688-1.135.643-1.504-.637-.257-.895-.151-1.549.698-2.075zm-.576 8.91c.157.633.246 1.281.38 1.918.878 4.216 1.655 8.459 1.812 14.05-.09 4.215-1.152 9.397-4.612 13.858-4.165 5.367-9.65 7.492-16.319 6.703-1.448-.167-2.885-.47-4.333-.704-6.703-1.073-10.817-5.255-13.378-11.22-1.934-4.517-1.85-9.208-.805-13.915 1.051-4.73 3.298-8.995 5.462-13.278.52-1.028.621-.984 1.61-.156 2.315 1.934 4.797 3.583 7.558 4.864 4.417 2.04 8.923 2.28 13.574 1.168 2.868-.688 5.63-1.582 7.905-3.606.66-.581.945-.475 1.141.308zm-1.755-8.726c.173 1.286.537 2.544.777 3.824.296 1.532.235 1.716-1.392 1.716s-3.433-.078-5.076-.447c-4.042-.9-8.051-1.962-12.053-3.013-2.852-.744-5.675-1.443-8.655-.789-1 .224-1.157-.044-.782-1.04.603-1.604 1.258-3.18 1.839-4.785 1.286-3.51 1.627-7.111 1.006-10.812-.201-1.19-.24-2.404-.352-3.611 2.057 2.118 4.372 3.432 6.932 4.332 4.954 1.739 9.991 2.946 15.296 2.119 1.051-.162.984.48 1.062 1.14.459 3.79.895 7.581 1.403 11.366zm-23.257-20.478c.106-.145.442-.19.666-.168.48.056.961.151 1.431.285 4.377 1.253 8.777 2.449 13.132 3.79 1.694.526 3.304 1.365 4.936 2.091.168.073.241.375.352.565-.145.078-.273.19-.424.224-.794.15-1.594.285-2.074.369-4.909-.352-9.376-1.23-13.591-3.075-1.705-.738-3.399-1.638-4.338-3.41-.101-.201-.19-.537-.095-.665zm48.219 6.384c-.861.224-1.761.336-2.645.37-6.837.24-13.674.447-20.511.659-.901.028-1.75.14-2.192-1.006-.173-.459-.788-.805-1.275-1.057-1.369-.71-2.728-1.526-4.192-1.973-5.602-1.711-11.237-3.293-16.867-4.903-.542-.157-1.118-.218-1.683-.291-1.677-.23-2.236.341-1.99 2.046.252 1.772.57 3.539.805 5.306.33 2.47.313 2.532-2.085 2.554-4.07.05-8.146.012-12.221.012.005.106.005.218.005.318-3.829.073-7.659.201-11.483.185a24.3 24.3 0 0 1-4.84-.509c-4.026-.844-5.088-3.74-2.656-7.066 1.498-2.041 3.661-2.975 6.088-3.142 1.772-.123 3.589-.028 5.361.2 3.902.504 6.653-.826 8.408-4.31.324-.648.559-1.352.783-2.051.687-2.13 1.638-3.002 3.829-3.08 1.107-.045 2.253.2 3.338.486.934.252 1.822.71 2.678 1.18 2.063 1.123 3.924.72 5.652-.688a38 38 0 0 0 2.191-1.951c1.353-1.28 2.913-1.66 4.73-1.286 2.13.43 3.964 1.448 5.725 2.633 1.352.906 2.756 1.756 4.041 2.75 1.968 1.521 4.165 1.706 6.491 1.331a9.6 9.6 0 0 0 1.426-.33c3.701-1.207 6.865-.324 9.654 2.332 1.236 1.174 2.622 2.197 3.964 3.253 1.728 1.364 3.718 1.962 5.909 1.957.733 0 1.471 0 2.197.034 1.683.078 2.701 1.1 3.243 2.56.676 1.811.022 2.98-1.873 3.472z"/>
    <path fill="#000" d="M74.808 140.498c-2.918 1.443-5.842 2.879-8.738 4.367-1.017.525-1.302-.263-1.694-.828a2069 2069 0 0 1-7.457-10.896c-.638-.933-1.247-1.889-1.856-2.829 3.695-1.638 7.278-3.181 10.817-4.83.883-.408 1.33-.235 1.772.537 2.477 4.305 4.976 8.609 7.486 12.897.397.677.492 1.18-.319 1.582zm-16.538-28.12c-1.441.81-2.906 1.588-4.762 1.604.928-.838 1.834-1.705 2.79-2.51.631-.525 1.509-.346 2.029.364.084.111.045.486-.056.542m17.627-11.561c-.134.229-.179.408-.296.492-2.633 1.906-5.26 3.812-7.922 5.685-.615.431-2.6.056-3.108-.537-.084-.095-.028-.491.078-.564 3.371-2.13 6.865-4.02 10.678-5.25.15-.05.369.107.57.174m90.189-39.727c-.028 2.74-.587 5.015-1.929 7.033-2.471 3.724-5.792 6.57-9.554 8.923-.598.38-.827.123-.917-.543-.184-1.459.313-2.403 1.661-3.13 2.683-1.443 4.942-3.41 6.563-6.044 2.186-3.544 2.253-7.29.732-11.002-1.448-3.55-4.696-4.902-9.191-3.142-.665.263-1.263.722-1.884 1.113-1.084.688-1.135.643-1.503-.637-.258-.895-.151-1.549.698-2.074 2.606-1.627 5.44-2.242 8.403-1.583 2.393.532 4.254 1.952 5.249 4.333.951 2.275 1.594 4.601 1.666 6.753zm-26.912 43.294c.453.402.866.844 1.297 1.263-.57.246-1.152.716-1.722.704-1.778-.028-3.595-.061-5.333-.419a209 209 0 0 1-12.093-2.829c-2.029-.536-3.98-1.375-5.702-2.627-.179-.134-.291-.369-.431-.56.185-.122.353-.312.548-.346.638-.112 1.286-.162 1.633-.207 7.513.43 14.462 2.002 21.149 4.707.223.09.475.163.654.314M68.517 59.738c-1.38 2.314-3.494 3.399-6.004 3.667-9.386 1.017-18.773 1.957-28.165 2.88-7.044.704-14.094 1.347-21.143 2-.643.062-1.297.012-1.957.012v-.011c-.649 0-1.303.055-1.951-.012-5.798-.581-9.683-7.58-7.156-12.88.285-.598.61-.699 1.029-.095 1.263 1.828 3.108 1.867 5.031 1.548.637-.1 1.252-.352 1.878-.536.56-.163.945.056 1.174.57.135.296.219.62.37.9 1.201 2.214 3.309 3.175 5.763 2.454 1.236-.369 2.393-1 3.55-1.587 1.012-.52 1.974-1.135 2.952-1.711.95-.554 1.834-.582 2.644.274 1.996 2.113 4.232 2.124 6.636.727.487-.291 1.018-.51 1.515-.783 1.314-.716 2.393-.861 3.696.34 1.526 1.415 3.667 1.046 5.238-.57.626-.637 1.101-1.414 1.688-2.085 1.096-1.252 2.18-1.772 3.819-.609.788.559 1.671 1.006 2.56 1.398 2.745 1.202 7.296.48 9.18-2.952.352-.643.682-1.32 1.129-1.884.335-.42.827-.928 1.297-.984 1.716-.207 2.767-1.27 3.729-2.521.201-.258.397-.52.615-.75.464-.503.878-.335 1.163.168.346.637.71 1.291.928 1.985 1.185 3.846.889 7.513-1.208 11.035zM60.35 20.492c-5.461 0-10.917-.05-16.38.017-3.259.039-6.507.324-9.766.38-3.17.056-6.373.285-9.481-.503-2.063-.52-3.634-1.772-4.11-3.992-.475-2.214-.156-4.293 1.767-5.719 2.309-1.716 4.847-2.667 7.776-1.599 1.297.475 2.617.9 3.947 1.27 2.997.827 4.847-.029 6.15-2.818.414-.884.738-1.806 1.135-2.7 1.587-3.584 6.641-4.39 9.174-2.304 1.32 1.085 2.314.855 3.488.084.817-.537 1.61-1.107 2.438-1.627 1.431-.906 2.935-1.146 4.657-.878 4.405.682 8.1 2.606 10.694 6.206 1.85 2.566 4.104 2.885 6.854 2.152 2.298-.615 4.467-.542 6.491.99 3.209 2.432 2.695 7.944-1.04 9.504-1.32.553-2.829.866-4.26.9-6.513.179-13.031.218-19.55.307v.33zm15.403-2.13q.001.11.01.218c1.303 0 2.617.1 3.903-.028 1.359-.14 2.784-.285 4.03-.8 2.315-.955 3.137-4.936 1.432-6.697-1.286-1.325-2.846-2.174-4.83-1.615-.861.24-1.739.419-2.622.57-2.41.414-4.545.039-6.05-2.141-.368-.531-.838-.995-1.251-1.499-2.281-2.778-5.311-4.232-8.755-4.942-1.929-.397-3.701-.095-5.283 1.197-.75.61-1.644 1.04-2.471 1.56-1.275.799-2.365.603-3.561-.325-2.924-2.247-6.508-1.252-8.028 2.141-.364.817-.643 1.672-1.001 2.494-1.196 2.728-3.936 3.97-6.614 3.231-1.716-.475-3.415-1.04-5.12-1.565-2.64-.81-4.853.184-6.71 1.884-1.967 1.806-1.374 5.63.906 6.418 1.901.66 3.841 1.224 5.915 1.118 1.94-.095 3.891-.045 5.837-.084 6.591-.134 13.182-.28 19.774-.414 4.231-.084 8.47-.117 12.701-.251 2.6-.084 5.194-.308 7.788-.47m64.128 123.277c-6.921 0-13.836.011-20.757-.017-.878 0-1.773-.179-2.628-.38-1.196-.285-2.102-.99-2.225-2.281-.134-1.348.112-2.667 1.347-3.461 2.169-1.392 4.551-2.141 7.167-1.923.481.039.956.218 1.437.263 1.756.151 2.102-.151 2.326-1.934.084-.643.201-1.286.274-1.929.218-1.94 1.308-3.282 2.918-4.266 1.867-1.146 3.785-1.476 5.741-.235 1.303.828 2.622 1.633 3.847 2.572 1.425 1.096 2.812 1.129 4.276.196a37 37 0 0 0 2.209-1.526c2.029-1.51 4.221-1.532 6.479-.694 1.873.699 3.461 1.862 4.635 3.461 1.369 1.861 3.019 2.784 5.406 2.571 1.258-.111 2.588.196 3.84.487 1.65.38 2.757 1.532 3.042 3.164.268 1.537-.448 2.818-1.739 3.768-1.683 1.241-3.55 2.002-5.624 2.141-2.108.146-4.226.19-6.345.202-5.211.027-10.421.011-15.631.011v-.185zm-1.392-1.063c0-.1 0-.206.006-.307 5.294.123 10.583.307 15.877.341a79 79 0 0 0 8.045-.386 7.9 7.9 0 0 0 4.433-1.889c1.739-1.504 1.442-3.595-.732-4.389-1.119-.408-2.404-.665-3.578-.565-2.896.241-5.054-.771-6.692-3.141-.951-1.37-2.359-2.22-3.835-2.947-1.94-.956-3.768-.816-5.518.459-.721.525-1.42 1.107-2.197 1.548-1.929 1.09-3.835 1.197-5.708-.212-1.107-.827-2.276-1.571-3.427-2.343-3.036-2.034-7.055.683-7.15 3.59a26 26 0 0 1-.168 1.945c-.252 2.175-1.208 2.941-3.438 2.784-.895-.061-1.784-.168-2.678-.201-1.851-.062-3.5.609-5.104 1.448-.951.497-1.085 1.342-1.035 2.286.051.917.744 1.219 1.448 1.432a6.3 6.3 0 0 0 1.672.262c6.591.101 13.182.185 19.774.274z"/>
    <path fill="#000" d="M28.03 51.173c-1.555 0-3.098-.112-4.608-.38-.66-.117-2.085-.442-2.487-1.04-1.169-1.75 2.443-.19 2.862-.123 1.19.19 2.365.162 3.595-.268 4.718-1.65 9.593-2.538 14.608-2.56.894 0 1.834-.045 2.666.212 1.085.33 2.164.234 3.103-.43.47-.336.733-.923 1.202-1.27.375-.28 1.84-.565 1.253.43-.766 1.298-1.884 2.276-3.394 2.595-3.26.693-6.53 1.37-9.817 1.923-2.913.492-5.965.917-8.978.917z"/>
</svg>
