<svg xmlns="http://www.w3.org/2000/svg" width="24" height="24" fill="none" viewBox="0 0 24 24">
    <path fill="currentColor" fill-rule="evenodd" d="M12 23c6.075 0 11-4.925 11-11S18.075 1 12 1 1 5.925 1 12s4.925 11 11 11m1.25-17.25a1.25 1.25 0 1 1-2.5 0 1.25 1.25 0 0 1 2.5 0M6.072 7.629a1 1 0 0 1 1.3-.557 12.46 12.46 0 0 0 9.257 0 1 1 0 0 1 .742 1.856 14.5 14.5 0 0 1-2.513.75c-.49.098-.858.517-.858 1.016v.7c0 2.154.637 4.26 1.832 6.051a1 1 0 0 1-1.664 1.11c-.854-1.282-1.468-3.043-1.82-4.236-.09-.308-.606-.308-.697 0-.351 1.193-.965 2.954-1.819 4.236a1 1 0 0 1-1.664-1.11A10.9 10.9 0 0 0 10 11.395v-.7c0-.5-.369-.919-.858-1.017a14.5 14.5 0 0 1-2.513-.75 1 1 0 0 1-.557-1.3" clip-rule="evenodd"/>
</svg>
