<svg xmlns="http://www.w3.org/2000/svg" width="24" height="24" fill="none" viewBox="0 0 24 24">
    <path fill="currentColor" d="M7.559 9.164a1 1 0 0 1 1.277-.605L12 9.689l3.164-1.13a1 1 0 1 1 .672 1.882L13 11.454v1.573l1.656 3.55a1 1 0 0 1-1.812.846L12 15.614l-.844 1.809a1 1 0 0 1-1.812-.846L11 13.027v-1.573l-2.836-1.013a1 1 0 0 1-.605-1.277"/>
    <path fill="currentColor" d="M20 12a8 8 0 1 0-8 8v2C6.477 22 2 17.523 2 12S6.477 2 12 2s10 4.477 10 10-4.477 10-10 10v-2a8 8 0 0 0 8-8"/>
    <path fill="currentColor" d="M13.5 7.6a1.5 1.5 0 1 1-3 0 1.5 1.5 0 0 1 3 0"/>
</svg>
