<svg width="24" height="24" viewBox="0 0 24 24" fill="none" xmlns="http://www.w3.org/2000/svg">
<path fill-rule="evenodd" clip-rule="evenodd" d="M12 23C18.0751 23 23 18.0751 23 12C23 5.92487 18.0751 1 12 1C5.92487 1 1 5.92487 1 12C1 18.0751 5.92487 23 12 23ZM13.25 5.75C13.25 6.44036 12.6904 7 12 7C11.3096 7 10.75 6.44036 10.75 5.75C10.75 5.05964 11.3096 4.5 12 4.5C12.6904 4.5 13.25 5.05964 13.25 5.75ZM6.07155 7.62862C6.27666 7.11583 6.85863 6.86642 7.37141 7.07153C10.3427 8.26005 13.6573 8.26005 16.6286 7.07153C17.1414 6.86642 17.7234 7.11583 17.9285 7.62862C18.1336 8.1414 17.8842 8.72337 17.3714 8.92848C16.5524 9.25609 15.7109 9.50588 14.8576 9.67786C14.3686 9.77642 14 10.1952 14 10.6941V11.3944C14 13.548 14.6375 15.6534 15.8321 17.4453C16.1384 17.9048 16.0142 18.5257 15.5547 18.832C15.0952 19.1384 14.4743 19.0142 14.168 18.5547C13.3138 17.2734 12.7003 15.5124 12.3485 14.3192C12.2575 14.0107 11.7425 14.0107 11.6515 14.3192C11.2997 15.5124 10.6862 17.2734 9.83205 18.5547C9.5257 19.0142 8.90483 19.1384 8.4453 18.832C7.98577 18.5257 7.86159 17.9048 8.16795 17.4453C9.36254 15.6534 10 13.548 10 11.3944V10.6941C10 10.1952 9.63142 9.77641 9.1424 9.67785C8.28911 9.50587 7.44763 9.25608 6.62863 8.92848C6.11585 8.72337 5.86643 8.1414 6.07155 7.62862Z" fill="currentColor"/>
</svg>
