<svg xmlns="http://www.w3.org/2000/svg" width="24" height="24" fill="none" viewBox="0 0 24 24">
    <path fill="currentColor" d="M18 4.8c0-.469-.362-.8-.75-.8H6.75c-.388 0-.75.331-.75.8v14.4c0 .469.362.8.75.8h10.5c.388 0 .75-.331.75-.8zM8.509 16.4a1 1 0 1 1 0 2H8.5a1 1 0 0 1 0-2zm3.5 0a1 1 0 1 1 0 2H12a1 1 0 0 1 0-2zm2.491 1v-3.6a1 1 0 0 1 2 0v3.6a1 1 0 0 1-2 0m-5.991-4.6a1 1 0 0 1 0 2H8.5a1 1 0 1 1 0-2zm3.5 0a1 1 0 0 1 0 2H12a1 1 0 1 1 0-2zm-3.5-3.6a1 1 0 0 1 0 2H8.5a1 1 0 0 1 0-2zm3.5 0a1 1 0 0 1 0 2H12a1 1 0 0 1 0-2zm3.5 0a1 1 0 0 1 0 2H15.5a1 1 0 0 1 0-2zM15.5 5.6a1 1 0 0 1 0 2h-7a1 1 0 0 1 0-2zM20 19.2c0 1.52-1.205 2.8-2.75 2.8H6.75C5.205 22 4 20.72 4 19.2V4.8C4 3.28 5.205 2 6.75 2h10.5C18.795 2 20 3.28 20 4.8z"/>
</svg>
