<svg xmlns="http://www.w3.org/2000/svg" width="24" height="24" fill="none" viewBox="0 0 24 24">
    <path fill="currentColor" d="M13.5 12a1 1 0 0 1 1-1H18V8.556H4.79Q4.382 8.555 4 8.44v9.783c0 .204.082.4.229.547.147.146.349.23.56.23H18v-2h-3.5a1 1 0 0 1-1-1zm2 3H20v-2h-4.5zm6.5 1a1 1 0 0 1-1 1h-1v4H4.79a2.8 2.8 0 0 1-1.97-.811A2.77 2.77 0 0 1 2 18.223V5.777c0-.738.296-1.445.82-1.965A2.8 2.8 0 0 1 4.79 3H18v4h2v4h1a1 1 0 0 1 1 1zM4 5.777c0 .204.081.402.229.548.147.147.349.23.56.23H16V5H4.79a.8.8 0 0 0-.561.23.77.77 0 0 0-.229.547"/>
</svg>
