<svg width="24" height="24" viewBox="0 0 24 24" fill="none" xmlns="http://www.w3.org/2000/svg">
  <path d="M3 4V7H21V4C21 2.34315 19.6569 1 18 1H6C4.34315 1 3 2.34315 3 4Z" fill="currentColor" />
  <path fill-rule="evenodd" clip-rule="evenodd"
    d="M3 9H21V20C21 21.6569 19.6569 23 18 23H6C4.34315 23 3 21.6569 3 20V9ZM8.25 14.5C7.55964 14.5 7 13.9404 7 13.25C7 12.5596 7.55964 12 8.25 12C8.94036 12 9.5 12.5596 9.5 13.25C9.5 13.9404 8.94036 14.5 8.25 14.5ZM8 19C7.30964 19 6.75 18.4404 6.75 17.75C6.75 17.0596 7.30964 16.5 8 16.5C8.69036 16.5 9.25 17.0596 9.25 17.75C9.25 18.4404 8.69036 19 8 19ZM11 13.25C11 13.9404 11.5596 14.5 12.25 14.5C12.9404 14.5 13.5 13.9404 13.5 13.25C13.5 12.5596 12.9404 12 12.25 12C11.5596 12 11 12.5596 11 13.25ZM12.25 19C11.5596 19 11 18.4404 11 17.75C11 17.0596 11.5596 16.5 12.25 16.5C12.9404 16.5 13.5 17.0596 13.5 17.75C13.5 18.4404 12.9404 19 12.25 19ZM16 19C16.5523 19 17 18.5523 17 18L17 13C17 12.4477 16.5523 12 16 12C15.4477 12 15 12.4477 15 13L15 18C15 18.5523 15.4477 19 16 19Z"
    fill="currentColor" />
</svg>
