<svg xmlns="http://www.w3.org/2000/svg" width="24" height="24" fill="none" viewBox="0 0 24 24">
    <path fill="currentColor" d="M8.25 14.5a1.25 1.25 0 1 1 0-2.5 1.25 1.25 0 0 1 0 2.5M8 19a1.25 1.25 0 1 1 0-2.5A1.25 1.25 0 0 1 8 19M12.25 14.5a1.25 1.25 0 1 1 0-2.5 1.25 1.25 0 0 1 0 2.5M12.25 19a1.25 1.25 0 1 1 0-2.5 1.25 1.25 0 0 1 0 2.5M17 18a1 1 0 1 1-2 0v-5a1 1 0 1 1 2 0z"/>
    <path fill="currentColor" fill-rule="evenodd" d="M3 4v16a3 3 0 0 0 3 3h12a3 3 0 0 0 3-3V4a3 3 0 0 0-3-3H6a3 3 0 0 0-3 3m3-1a1 1 0 0 0-1 1v3h14V4a1 1 0 0 0-1-1zm12 18a1 1 0 0 0 1-1V9H5v11a1 1 0 0 0 1 1z" clip-rule="evenodd"/>
</svg>
