<svg xmlns="http://www.w3.org/2000/svg" width="24" height="24" fill="none" viewBox="0 0 24 24">
    <path fill="currentColor" d="M17.25 2C18.795 2 20 3.28 20 4.8v14.4c0 1.52-1.205 2.8-2.75 2.8H6.75C5.205 22 4 20.72 4 19.2V4.8C4 3.28 5.205 2 6.75 2zM6 9v10.2c0 .469.362.8.75.8h10.5c.388 0 .75-.331.75-.8V9zm2.509 7.4a1 1 0 1 1 0 2H8.5a1 1 0 0 1 0-2zm3.5 0a1 1 0 1 1 0 2H12a1 1 0 0 1 0-2zm3.491-3.6a1 1 0 0 1 1 1v3.6a1 1 0 0 1-2 0v-3.6a1 1 0 0 1 1-1m-6.991 0a1 1 0 0 1 0 2H8.5a1 1 0 1 1 0-2zm3.5 0a1 1 0 0 1 0 2H12a1 1 0 1 1 0-2z"/>
</svg>
