<svg width="24" height="24" viewBox="0 0 24 24" fill="none" xmlns="http://www.w3.org/2000/svg">
  <path
    d="M20 3.5H4C3.20508 3.50237 2.4434 3.81921 1.8813 4.3813C1.31921 4.9434 1.00237 5.70508 1 6.5V18.5C1.00237 19.2949 1.31921 20.0566 1.8813 20.6187C2.4434 21.1808 3.20508 21.4976 4 21.5H20C20.5299 21.4984 21.0377 21.2872 21.4125 20.9125C21.7872 20.5377 21.9984 20.0299 22 19.5V15.5H16C15.4701 15.4984 14.9623 15.2872 14.5875 14.9125C14.2128 14.5377 14.0016 14.0299 14 13.5V11.5C14.0016 10.9701 14.2128 10.4623 14.5875 10.0875C14.9623 9.7128 15.4701 9.50158 16 9.5H22V5.5C21.9984 4.97005 21.7872 4.46227 21.4125 4.08753C21.0377 3.7128 20.5299 3.50158 20 3.5ZM18.5 12.5C18.5 12.7967 18.412 13.0867 18.2472 13.3334C18.0824 13.58 17.8481 13.7723 17.574 13.8858C17.2999 13.9994 16.9983 14.0291 16.7074 13.9712C16.4164 13.9133 16.1491 13.7704 15.9393 13.5607C15.7296 13.3509 15.5867 13.0836 15.5288 12.7926C15.4709 12.5017 15.5006 12.2001 15.6142 11.926C15.7277 11.6519 15.92 11.4176 16.1666 11.2528C16.4133 11.088 16.7033 11 17 11C17.3978 11 17.7794 11.158 18.0607 11.4393C18.342 11.7206 18.5 12.1022 18.5 12.5Z"
    fill="currentColor" />
</svg>
