<svg xmlns="http://www.w3.org/2000/svg" width="24" height="24" fill="none" viewBox="0 0 24 24">
    <path fill="currentColor" d="M20 12a8 8 0 1 0-16 0 8 8 0 0 0 16 0m-9.7 2.523L14.507 12 10.3 9.476zM16.602 12a1.9 1.9 0 0 1-.926 1.63l-4.496 2.698h-.001a1.898 1.898 0 0 1-2.88-1.636v-5.39a1.9 1.9 0 0 1 .258-.956l.067-.108a1.9 1.9 0 0 1 1.603-.838l.125.006a1.9 1.9 0 0 1 .827.266l4.496 2.696.103.067c.203.139.377.316.512.521l.064.106.057.109c.125.258.19.541.19.829M22 12c0 5.523-4.477 10-10 10S2 17.523 2 12 6.477 2 12 2s10 4.477 10 10"/>
</svg>
