<svg width="24" height="24" viewBox="0 0 24 24" fill="none" xmlns="http://www.w3.org/2000/svg">
  <path
    d="M19 10.9994C18.5 11 18 10.5 18 10V7.99952L15.9995 7.99954C15.4995 7.99951 15.0006 7.49954 15.0001 6.99951C14.9995 6.49954 15.4995 5.99954 15.9995 5.99951H18V3.99951C18 3.44723 18.4477 2.99951 19 2.99951C19.5523 2.99951 20 3.5 20 3.99951V5.99951L22 5.99951C22.5523 5.99951 23 6.44723 23 6.99951C23 7.5518 22.4995 7.99954 22 7.99951H20L20 10C20 10.5 19.5 10.9989 19 10.9994Z"
    fill="currentColor" />
  <path
    d="M13.3414 4.99854H4C3.20435 4.99854 2.44129 5.31461 1.87868 5.87722C1.31607 6.43982 1 7.20289 1 7.99854V8.99854H13.3414C13.1203 8.37298 13 7.69981 13 6.99854C13 6.29726 13.1203 5.62409 13.3414 4.99854Z"
    fill="currentColor" />
  <path fill-rule="evenodd" clip-rule="evenodd"
    d="M19 12.9985C20.5367 12.9985 21.9385 12.4208 23 11.4708V17.9985C23 18.7942 22.6839 19.5572 22.1213 20.1198C21.5587 20.6825 20.7956 20.9985 20 20.9985H4C3.20435 20.9985 2.44129 20.6825 1.87868 20.1198C1.31607 19.5572 1 18.7942 1 17.9985V10.9985H14.5278C15.6264 12.226 17.223 12.9985 19 12.9985ZM10.7071 15.2914C10.8946 15.479 11 15.7333 11 15.9985C11 16.2638 10.8946 16.5181 10.7071 16.7056C10.5196 16.8932 10.2652 16.9985 10 16.9985H6C5.73478 16.9985 5.48043 16.8932 5.29289 16.7056C5.10536 16.5181 5 16.2638 5 15.9985C5 15.7333 5.10536 15.479 5.29289 15.2914C5.48043 15.1039 5.73478 14.9985 6 14.9985H10C10.2652 14.9985 10.5196 15.1039 10.7071 15.2914Z"
    fill="currentColor" />
</svg>
