<svg xmlns="http://www.w3.org/2000/svg" width="16" height="16" fill="none" viewBox="0 0 16 16">
    <path fill="currentColor" d="M13.25 8a5.25 5.25 0 1 0-10.5 0 5.25 5.25 0 0 0 10.5 0m-6.3 1.535L9.51 8 6.95 6.464zM11.151 8a1.35 1.35 0 0 1-.658 1.157l.001.001-2.997 1.797a1.35 1.35 0 0 1-2.047-1.16V6.202c0-.239.063-.474.183-.68l.1-.149c.109-.141.246-.26.402-.348l.16-.078c.166-.066.345-.099.524-.096l.178.013c.176.026.346.087.5.179l2.997 1.799A1.35 1.35 0 0 1 11.15 8m3.599 0a6.75 6.75 0 1 1-13.5 0 6.75 6.75 0 0 1 13.5 0"/>
</svg>
