<svg width="16" height="16" viewBox="0 0 16 16" fill="none" xmlns="http://www.w3.org/2000/svg">
  <path fill-rule="evenodd" clip-rule="evenodd"
    d="M8 16C12.4183 16 16 12.4183 16 8C16 3.58172 12.4183 0 8 0C3.58172 0 0 3.58172 0 8C0 12.4183 3.58172 16 8 16ZM7 5C7 4.44772 7.44772 4 8 4C8.55228 4 9 4.44772 9 5V7H11C11.5523 7 12 7.44772 12 8C12 8.55228 11.5523 9 11 9H9V11C9 11.5523 8.55228 12 8 12C7.44772 12 7 11.5523 7 11V9H5C4.44772 9 4 8.55228 4 8C4 7.44772 4.44772 7 5 7H7V5Z"
    fill="currentColor" />
</svg>
