<svg xmlns="http://www.w3.org/2000/svg" width="16" height="16" fill="none" viewBox="0 0 16 16">
    <g clip-path="url(#add_16_svg__a)">
        <path fill="currentColor" d="M13.833 8A5.833 5.833 0 1 0 2.168 8a5.833 5.833 0 0 0 11.665 0m-6.5 2.6V8.667H5.4a.667.667 0 0 1 0-1.334h1.933V5.4a.667.667 0 0 1 1.334 0v1.933H10.6a.667.667 0 0 1 0 1.334H8.667V10.6a.667.667 0 0 1-1.334 0M15.167 8A7.167 7.167 0 1 1 .832 8a7.167 7.167 0 0 1 14.335 0"/>
    </g>
    <defs>
        <clipPath id="add_16_svg__a">
            <path fill="#fff" d="M0 0h16v16H0z"/>
        </clipPath>
    </defs>
</svg>
