<svg xmlns="http://www.w3.org/2000/svg" width="24" height="24" fill="none" viewBox="0 0 24 24">
    <path fill="currentColor" d="M17.15 21v-1.842H15.3a1 1 0 0 1 0-2h1.85v-1.843a1 1 0 0 1 2 0v1.843H21a1 1 0 1 1 0 2h-1.85V21a1 1 0 0 1-2 0m-1.8-13.263A3.744 3.744 0 0 0 11.6 4a3.744 3.744 0 0 0-3.75 3.737 3.744 3.744 0 0 0 3.75 3.737 3.743 3.743 0 0 0 3.75-3.737m2 0c0 1.815-.846 3.43-2.163 4.48.507.255.971.59 1.473 1.032a1 1 0 0 1-1.32 1.502c-.498-.438-.864-.675-1.235-.833-.382-.162-.825-.266-1.522-.371a6.6 6.6 0 0 0-3.7.51 6.6 6.6 0 0 0-2.828 2.427A6.56 6.56 0 0 0 5 20.053a1 1 0 0 1-2 0c0-1.652.478-3.268 1.376-4.655a8.6 8.6 0 0 1 3.666-3.157A5.72 5.72 0 0 1 5.85 7.737C5.85 4.567 8.427 2 11.6 2s5.75 2.566 5.75 5.737"/>
</svg>
