<svg width="24" height="24" viewBox="0 0 24 24" fill="none" xmlns="http://www.w3.org/2000/svg">
  <path fill-rule="evenodd" clip-rule="evenodd"
    d="M5.28828 2.71171C5.74836 2.25164 5.74916 1.47735 5.14805 1.22836C4.78407 1.0776 4.39397 1 4 1C3.60603 1 3.21593 1.0776 2.85195 1.22836C2.48797 1.37913 2.15725 1.6001 1.87868 1.87868C1.6001 2.15726 1.37913 2.48797 1.22836 2.85195C1.0776 3.21593 1 3.60603 1 4C1 4.39397 1.0776 4.78407 1.22836 5.14805C1.47735 5.74917 2.25164 5.74836 2.71172 5.28829L5.28828 2.71171ZM17.9337 20.0501C16.2739 21.2756 14.2216 22 12 22C9.77821 22 7.72564 21.2754 6.06573 20.0497L4.79926 22.2433C4.38505 22.9607 3.46766 23.2065 2.75022 22.7923C2.03278 22.3781 1.78697 21.4607 2.20118 20.7433L3.87924 17.8368C2.69661 16.1943 2 14.1785 2 12C2 6.47715 6.47715 2 12 2C17.5228 2 22 6.47715 22 12C22 14.1788 21.3032 16.1948 20.1203 17.8374L21.7993 20.7454C22.2135 21.4629 21.9677 22.3802 21.2503 22.7945C20.5328 23.2087 19.6154 22.9629 19.2012 22.2454L17.9337 20.0501ZM18.7117 2.71171C18.2516 2.25164 18.2508 1.47735 18.8519 1.22836C19.2159 1.0776 19.606 1 20 1C20.394 1 20.7841 1.0776 21.1481 1.22836C21.512 1.37913 21.8427 1.6001 22.1213 1.87868C22.3999 2.15726 22.6209 2.48797 22.7716 2.85195C22.9224 3.21593 23 3.60603 23 4C23 4.39397 22.9224 4.78407 22.7716 5.14805C22.5226 5.74917 21.7484 5.74836 21.2883 5.28829L18.7117 2.71171ZM11 7.5C11 6.94772 11.4477 6.5 12 6.5C12.5523 6.5 13 6.94772 13 7.5V12.0857L14.8285 13.9142C15.219 14.3047 15.219 14.9379 14.8285 15.3284C14.4379 15.7189 13.8048 15.7189 13.4143 15.3284L11.2997 13.2138C11.1147 13.0323 11 12.7796 11 12.5V7.5Z"
    fill="currentColor" />
</svg>
