<svg xmlns="http://www.w3.org/2000/svg" width="24" height="24" fill="none" viewBox="0 0 24 24">
    <path fill="currentColor" d="M18.2 12.889c0-3.364-2.764-6.112-6.2-6.112S5.8 9.525 5.8 12.89 8.564 19 12 19a6.22 6.22 0 0 0 4.348-1.757l.012-.012q.022-.022.043-.04a6.05 6.05 0 0 0 1.797-4.302M11 9.333a1 1 0 0 1 2 0v3.138l1.503 1.484a1 1 0 0 1-1.405 1.423L11.297 13.6a1 1 0 0 1-.297-.712zM7.114 4.009 2.991 8.08 1.586 6.658l4.123-4.072zm15.3 2.65L21.01 8.08l-4.123-4.072 1.405-1.423zm-2.214 6.23a8 8 0 0 1-1.74 4.992l1.438 1.403a1 1 0 0 1-1.396 1.432l-1.466-1.43A8.22 8.22 0 0 1 12 21a8.22 8.22 0 0 1-5.02-1.7l-1.49 1.424a1 1 0 0 1-1.38-1.448l1.443-1.378a8 8 0 0 1-1.753-5.01c0-4.49 3.683-8.11 8.2-8.11s8.2 3.62 8.2 8.11"/>
</svg>
