<svg xmlns="http://www.w3.org/2000/svg" width="32" height="24" fill="none" viewBox="0 0 32 24">
    <rect width="31" height="23" x=".5" y=".5" fill="#fff" stroke="#ccc" rx="3.5"/>
    <path fill="#007858" d="M20.112 4c-1.56 0-3.086.464-4.38 1.335-.09.06-.706.5-.733.522-1.024.77-1.71.903-2.652.667a8 8 0 0 1-.412-.14 5.868 5.868 0 1 0-.213 11.059c1.404-.42 2.165-.305 3.047.317.176.124.6.396.688.46A7.873 7.873 0 1 0 20.112 4"/>
    <path fill="#fff" d="M17.271 13.09a1.39 1.39 0 0 1-1.722.183l-.522.83a2.38 2.38 0 0 0 2.934-.312zm-.94-3.378a2.379 2.379 0 0 0-2.032 3.676l4.309-1.841a2.38 2.38 0 0 0-2.278-1.835m-1.428 2.525a1.398 1.398 0 0 1 2.46-1.051zm5.057-3.596v4.592l.797.33-.376.903-.79-.327a.87.87 0 0 1-.388-.327 1 1 0 0 1-.152-.565V8.641zm-6.937 0v4.592l.79.33-.376.903-.79-.327a.87.87 0 0 1-.376-.322 1 1 0 0 1-.153-.564V8.64z"/>
    <path fill="#c7d540" d="M23.88 10.828a1.397 1.397 0 0 1 .652 1.869l.882.423a2.378 2.378 0 0 0-3.745-2.788l.658.723a1.4 1.4 0 0 1 1.553-.227"/>
    <path fill="#fff" d="M22.667 13.352a1.4 1.4 0 0 1-.656-1.869l-.881-.424a2.378 2.378 0 0 0 3.74 2.789l-.659-.723a1.4 1.4 0 0 1-1.544.227m-11.45.067v-1.33a2.37 2.37 0 1 0-1.311 2.12l-.382-.89a1.4 1.4 0 0 1-2.08-1.23 1.39 1.39 0 0 1 1.084-1.365q.156-.037.316-.037a1.405 1.405 0 0 1 1.406 1.402v1.319c-.006.198.047.395.152.564.095.144.23.258.388.327l.445.176.377-.903z"/>
</svg>
