<svg width="32" height="25" viewBox="0 0 32 25" fill="none" xmlns="http://www.w3.org/2000/svg">
<g clip-path="url(#clip0_11532_2901)">
<rect x="0.5" y="1" width="31" height="23" rx="3.5" fill="white" stroke="#CCCCCC"/>
</g>
<path d="M20.1117 4.5C18.5512 4.49926 17.0261 4.96404 15.7312 5.8349C15.6421 5.89584 15.026 6.33591 14.9989 6.35735C13.9754 7.12692 13.2882 7.26008 12.3471 7.02424C12.2896 7.00957 12.0199 6.91704 11.9353 6.88432C11.0563 6.55338 10.1107 6.43826 9.17805 6.54865C8.24536 6.65903 7.35279 6.9917 6.57536 7.51868C5.79794 8.04566 5.15837 8.75156 4.71041 9.57705C4.26246 10.4025 4.0192 11.3235 4.00109 12.2625C3.98298 13.2016 4.19055 14.1312 4.60634 14.9734C5.02214 15.8155 5.63401 16.5456 6.39054 17.1021C7.14707 17.6587 8.02615 18.0255 8.95389 18.1718C9.88163 18.3181 10.8309 18.2395 11.722 17.9427C13.1257 17.5229 13.8874 17.638 14.7687 18.2598C14.9447 18.3839 15.369 18.6558 15.457 18.7201C16.4601 19.4562 17.6233 19.944 18.8513 20.1437C20.0793 20.3434 21.3371 20.2492 22.5217 19.8688C23.7062 19.4884 24.7838 18.8328 25.666 17.9555C26.5482 17.0783 27.2099 16.0044 27.597 14.822C27.984 13.6396 28.0853 12.3823 27.8926 11.1532C27.6998 9.92413 27.2185 8.75819 26.4882 7.75102C25.7578 6.74384 24.7991 5.9241 23.6907 5.359C22.5823 4.7939 21.3558 4.49952 20.1117 4.5Z" fill="#007858"/>
<path d="M17.2713 13.5904C17.0471 13.811 16.7549 13.9491 16.4422 13.9823C16.1295 14.0155 15.8148 13.9418 15.5493 13.7732L15.0269 14.6026C15.4795 14.8886 16.0155 15.0135 16.5479 14.957C17.0804 14.9005 17.5782 14.6658 17.9607 14.2911L17.2713 13.5904ZM16.3302 10.212C15.8987 10.2051 15.4734 10.3158 15.1 10.5321C14.7266 10.7484 14.419 11.0623 14.2103 11.44C14.0016 11.8178 13.8996 12.2452 13.9153 12.6765C13.9309 13.1078 14.0636 13.5267 14.2991 13.8883L18.6073 12.0468C18.4861 11.5311 18.1963 11.0707 17.7838 10.7383C17.3713 10.406 16.8598 10.2208 16.3302 10.212ZM14.9027 12.7373C14.8702 12.4393 14.9342 12.1387 15.0855 11.8799C15.2368 11.6211 15.4673 11.4177 15.743 11.2999C16.0186 11.182 16.3249 11.1559 16.6165 11.2254C16.9081 11.2948 17.1697 11.4562 17.3627 11.6857L14.9027 12.7373ZM19.9603 9.14111V13.7326L20.7569 14.0632L20.3811 14.9659L19.5913 14.6387C19.4322 14.5706 19.2971 14.4567 19.2031 14.3115C19.0981 14.1424 19.0452 13.9462 19.0508 13.7473V9.14111H19.9603ZM13.0228 9.14111V13.7326L13.8127 14.0632L13.437 14.9659L12.6471 14.6387C12.4933 14.5701 12.3628 14.4584 12.2713 14.3171C12.166 14.1481 12.1126 13.9519 12.1178 13.7529V9.14111H13.0228Z" fill="white"/>
<path d="M23.8801 11.328C24.0456 11.4078 24.1938 11.5195 24.3162 11.6566C24.4386 11.7937 24.5327 11.9536 24.5933 12.1272C24.6539 12.3007 24.6796 12.4845 24.6692 12.6679C24.6587 12.8514 24.6122 13.0311 24.5323 13.1966L25.4136 13.6197C25.6521 13.1222 25.7103 12.5573 25.5781 12.0216C25.446 11.4859 25.1317 11.0128 24.6892 10.6834C24.2466 10.3539 23.7033 10.1885 23.1522 10.2155C22.6011 10.2425 22.0766 10.4603 21.6684 10.8315L22.3274 11.5548C22.5338 11.366 22.7921 11.2434 23.0689 11.203C23.3457 11.1626 23.6283 11.2061 23.8801 11.328Z" fill="#C7D540"/>
<path d="M22.6667 13.8522C22.3322 13.6911 22.0753 13.4038 21.9523 13.0535C21.8294 12.7031 21.8506 12.3183 22.0111 11.9835L21.1298 11.5593C20.8936 12.0561 20.8369 12.6195 20.9694 13.1534C21.102 13.6874 21.4154 14.1589 21.8565 14.4876C22.2976 14.8164 22.839 14.9821 23.3885 14.9566C23.9381 14.9311 24.4618 14.7158 24.8705 14.3475L24.2115 13.6254C24.0056 13.8123 23.7487 13.9337 23.4736 13.9741C23.1985 14.0144 22.9176 13.972 22.6667 13.8522ZM11.2168 13.9188V12.5895C11.2168 12.1208 11.0778 11.6627 10.8174 11.273C10.557 10.8833 10.1869 10.5796 9.75395 10.4002C9.32095 10.2209 8.8445 10.1739 8.38483 10.2654C7.92516 10.3568 7.50293 10.5825 7.17153 10.9139C6.84013 11.2453 6.61444 11.6675 6.52301 12.1272C6.43158 12.5869 6.4785 13.0633 6.65786 13.4963C6.83721 13.9293 7.14093 14.2994 7.53062 14.5598C7.92031 14.8202 8.37845 14.9591 8.84713 14.9591C9.2145 14.9592 9.57686 14.8738 9.90557 14.7098L9.52417 13.8183C9.31063 13.9364 9.06995 13.9967 8.82597 13.9932C8.58198 13.9897 8.34313 13.9226 8.13305 13.7984C7.92297 13.6743 7.74894 13.4975 7.62818 13.2854C7.50742 13.0734 7.44411 12.8335 7.44452 12.5895C7.44325 12.3603 7.49868 12.1343 7.60588 11.9316C7.70024 11.7548 7.83132 11.6002 7.99032 11.4782C8.14932 11.3562 8.33257 11.2695 8.52779 11.2241C8.63132 11.1996 8.73734 11.1871 8.84374 11.1869C9.21614 11.1866 9.57342 11.3342 9.83706 11.5972C10.1007 11.8602 10.2491 12.2171 10.2497 12.5895V13.9075C10.2441 14.1064 10.2971 14.3026 10.4021 14.4717C10.4967 14.6163 10.6317 14.7301 10.7902 14.7989L11.2348 14.9749L11.6117 14.0722L11.2168 13.9188Z" fill="white"/>
<defs>
<clipPath id="clip0_11532_2901">
<rect y="0.5" width="32" height="24" rx="4" fill="white"/>
</clipPath>
</defs>
</svg>
