<svg width="24" height="24" viewBox="0 0 24 24" fill="none" xmlns="http://www.w3.org/2000/svg">
    <path fill="#fff" d="M0 0h24v24H0z"/>
    <path d="M15.795 4c-1.44 0-2.848.464-4.043 1.335-.082.06-.651.5-.676.522-.945.77-1.58.903-2.448.667a6.569 6.569 0 0 1-.38-.14 5.03 5.03 0 0 0-2.545-.335c-.861.11-1.685.443-2.403.97A5.73 5.73 0 0 0 1.58 9.077a6.253 6.253 0 0 0-.655 2.685c-.017.94.175 1.87.559 2.711a5.78 5.78 0 0 0 1.647 2.13c.698.556 1.51.922 2.366 1.069a5.02 5.02 0 0 0 2.555-.23c1.296-.42 1.999-.304 2.812.318.163.124.555.396.636.46.926.736 2 1.224 3.133 1.424 1.133.2 2.295.105 3.388-.275a7.192 7.192 0 0 0 2.902-1.913 8.004 8.004 0 0 0 1.783-3.134 8.5 8.5 0 0 0 .273-3.669 8.242 8.242 0 0 0-1.297-3.402A7.46 7.46 0 0 0 19.1 4.859 6.818 6.818 0 0 0 15.795 4Z" fill="#007858"/>
    <path d="M13.174 13.09c-.207.221-.477.36-.766.392-.288.034-.579-.04-.824-.209l-.482.83c.418.286.912.41 1.404.354a2.129 2.129 0 0 0 1.304-.666l-.636-.7Zm-.87-3.378a2.066 2.066 0 0 0-1.135.32 2.3 2.3 0 0 0-.821.908 2.54 2.54 0 0 0 .082 2.448l3.977-1.841a2.413 2.413 0 0 0-.76-1.309 2.097 2.097 0 0 0-1.342-.526Zm-1.317 2.525c-.03-.298.03-.598.169-.857a1.33 1.33 0 0 1 .607-.58 1.2 1.2 0 0 1 .806-.075c.27.07.51.231.689.46l-2.27 1.052Zm4.669-3.596v4.592l.735.33-.347.903-.729-.327a.823.823 0 0 1-.358-.328 1.08 1.08 0 0 1-.14-.564V8.641h.839Zm-6.404 0v4.592l.729.33-.347.903-.729-.327a.825.825 0 0 1-.347-.322 1.08 1.08 0 0 1-.142-.564V8.64h.836Z" fill="#fff"/>
    <path d="M19.274 10.828c.153.08.29.192.402.329.113.137.2.297.256.47a1.509 1.509 0 0 1-.056 1.07l.813.423a2.56 2.56 0 0 0 .152-1.598 2.4 2.4 0 0 0-.82-1.339 2.08 2.08 0 0 0-1.419-.467 2.112 2.112 0 0 0-1.37.616l.609.723c.19-.189.429-.312.684-.352.256-.04.516.003.749.125Z" fill="#C7D540"/>
    <path d="M18.154 13.352a1.369 1.369 0 0 1-.66-.799 1.508 1.508 0 0 1 .055-1.07l-.814-.424a2.56 2.56 0 0 0-.148 1.595c.122.533.412 1.005.819 1.334a2.08 2.08 0 0 0 1.414.469 2.11 2.11 0 0 0 1.368-.61l-.608-.722c-.19.187-.427.309-.681.35a1.204 1.204 0 0 1-.745-.123Zm-10.57.067v-1.33c0-.468-.128-.926-.368-1.316a2.236 2.236 0 0 0-.982-.873c-.4-.18-.84-.226-1.263-.135a2.14 2.14 0 0 0-1.12.649 2.437 2.437 0 0 0-.599 1.213c-.084.46-.041.936.124 1.37.166.432.446.803.806 1.063.36.26.783.4 1.215.4.34 0 .674-.086.977-.25l-.352-.892a1.215 1.215 0 0 1-1.284-.02 1.355 1.355 0 0 1-.466-.512 1.493 1.493 0 0 1-.17-.697c0-.229.05-.455.15-.657.087-.177.208-.332.354-.454a1.257 1.257 0 0 1 .788-.291c.344 0 .674.147.917.41s.38.62.381.992v1.319a1.08 1.08 0 0 0 .14.564.838.838 0 0 0 .359.327l.41.176.348-.903-.364-.153Z" fill="#fff"/>
</svg>
