<svg width="24" height="24" viewBox="0 0 24 24" fill="none" xmlns="http://www.w3.org/2000/svg">
    <path d="M11.988 1A10.994 10.994 0 1 0 12 1h-.012zm4.71 14.29c.186.19.29.445.29.71a1 1 0 0 1-1 1c-.265 0-.52-.104-.71-.29l-3.29-3.29-3.29 3.29c-.19.186-.444.29-.71.29a1 1 0 0 1-1-1c0-.265.104-.52.29-.71l3.29-3.29-3.29-3.29a1.013 1.013 0 0 1-.29-.71 1 1 0 0 1 1-1c.266 0 .52.104.71.29l3.29 3.29 3.29-3.29c.19-.186.444-.29.71-.29a1 1 0 0 1 1 1c0 .266-.104.52-.29.71L13.408 12l3.29 3.29z" fill="#000"/>
</svg>
