<svg width="24" height="24" viewBox="0 0 24 24" fill="none" xmlns="http://www.w3.org/2000/svg">
<path d="M12 2C17.5228 2 22 6.47715 22 12C22 17.5228 17.5228 22 12 22C6.47715 22 2 17.5228 2 12C2 6.47715 6.47715 2 12 2ZM15.4072 8.59277C15.0168 8.20236 14.3837 8.20249 13.9932 8.59277L12 10.5859L10.0068 8.59277C9.6163 8.20249 8.98322 8.20236 8.59277 8.59277C8.20233 8.98322 8.20248 9.61629 8.59277 10.0068L10.5859 12L8.59277 13.9932C8.20246 14.3837 8.20235 15.0168 8.59277 15.4072C8.98323 15.7977 9.6163 15.7976 10.0068 15.4072L12 13.4141L13.9932 15.4072C14.3837 15.7976 15.0168 15.7977 15.4072 15.4072C15.7977 15.0168 15.7975 14.3837 15.4072 13.9932L13.4141 12L15.4072 10.0068C15.7975 9.61629 15.7977 8.98322 15.4072 8.59277Z" fill="currentColor"/>
</svg>
