<svg width="16" height="16" viewBox="0 0 16 16" fill="none" xmlns="http://www.w3.org/2000/svg">
    <g clip-path="url(#alert_16_svg__a)">
        <path d="M8 0a8 8 0 1 0 0 16A8 8 0 0 0 8 0zm3 11a1 1 0 0 1-1.41 0L8 9.41 6.41 11A1 1 0 0 1 5 9.59L6.59 8 5 6.41A1 1 0 0 1 5 5a1 1 0 0 1 1.41 0L8 6.59 9.59 5A1 1 0 0 1 11 5a1 1 0 0 1 0 1.41L9.41 8 11 9.59A1 1 0 0 1 11 11z" fill="#000"/>
    </g>
    <defs>
        <clipPath id="alert_16_svg__a">
            <path fill="#fff" d="M0 0h16v16H0z"/>
        </clipPath>
    </defs>
</svg>
