<svg width="16" height="16" viewBox="0 0 16 16" fill="none" xmlns="http://www.w3.org/2000/svg">
<path d="M8 1.25C11.7279 1.25 14.75 4.27208 14.75 8C14.75 11.7279 11.7279 14.75 8 14.75C4.27208 14.75 1.25 11.7279 1.25 8C1.25 4.27208 4.27208 1.25 8 1.25ZM10.3301 5.66992C10.0372 5.37703 9.56242 5.37703 9.26953 5.66992L8 6.93945L6.73047 5.66992C6.43758 5.37703 5.96282 5.37703 5.66992 5.66992C5.37703 5.96282 5.37703 6.43758 5.66992 6.73047L6.93945 8L5.66992 9.26953C5.37703 9.56242 5.37703 10.0372 5.66992 10.3301C5.96282 10.6229 6.43759 10.623 6.73047 10.3301L8 9.06055L9.26953 10.3301C9.56243 10.6229 10.0372 10.623 10.3301 10.3301C10.623 10.0372 10.6229 9.56243 10.3301 9.26953L9.06055 8L10.3301 6.73047C10.623 6.43759 10.6229 5.96282 10.3301 5.66992Z" fill="currentColor"/>
</svg>
