<svg width="32" height="24" viewBox="0 0 32 24" fill="none" xmlns="http://www.w3.org/2000/svg">
  <path
    d="M9.76004 10.7692C9.68195 11.1674 9.64103 11.5789 9.64103 12C9.64103 12.4211 9.68195 12.8326 9.76004 13.2308H12.6589C12.6309 12.833 12.6154 12.4221 12.6154 12C12.6154 11.5779 12.6309 11.167 12.6589 10.7692H9.76004Z"
    fill="currentColor" />
  <path
    d="M10.3249 9.1282H12.8497C13.0024 8.1862 13.2115 7.35507 13.4202 6.66927C13.4807 6.47042 13.5412 6.28349 13.6005 6.10928C12.1792 6.68881 11.0147 7.7678 10.3249 9.1282Z"
    fill="currentColor" />
  <path
    d="M15.5268 5.65837C15.5154 5.68516 15.5035 5.71326 15.4912 5.74263C15.3562 6.06646 15.1735 6.5444 14.9901 7.14703C14.8189 7.70951 14.648 8.37767 14.5143 9.1282H17.4857C17.352 8.37767 17.1811 7.70951 17.0099 7.14703C16.8265 6.5444 16.6438 6.06646 16.5088 5.74263C16.4965 5.71326 16.4846 5.68516 16.4732 5.65837C16.317 5.64687 16.1592 5.64103 16 5.64103C15.8408 5.64103 15.683 5.64687 15.5268 5.65837Z"
    fill="currentColor" />
  <path
    d="M18.3994 6.10928C18.4588 6.28349 18.5193 6.47042 18.5798 6.66927C18.7885 7.35507 18.9976 8.1862 19.1503 9.1282H21.6751C20.9853 7.7678 19.8208 6.68881 18.3994 6.10928Z"
    fill="currentColor" />
  <path
    d="M22.24 10.7692H19.3411C19.3691 11.167 19.3846 11.5779 19.3846 12C19.3846 12.4221 19.3691 12.833 19.3411 13.2308H22.24C22.318 12.8326 22.359 12.4211 22.359 12C22.359 11.5789 22.318 11.1674 22.24 10.7692Z"
    fill="currentColor" />
  <path
    d="M21.6751 14.8718H19.1503C18.9976 15.8138 18.7885 16.6449 18.5798 17.3307C18.5193 17.5296 18.4588 17.7165 18.3994 17.8907C19.8208 17.3112 20.9853 16.2322 21.6751 14.8718Z"
    fill="currentColor" />
  <path
    d="M16.4732 18.3416C16.4846 18.3148 16.4965 18.2867 16.5088 18.2574C16.6438 17.9335 16.8265 17.4556 17.0099 16.853C17.1811 16.2905 17.352 15.6223 17.4857 14.8718H14.5143C14.648 15.6223 14.8189 16.2905 14.9901 16.853C15.1735 17.4556 15.3562 17.9335 15.4912 18.2574C15.5035 18.2867 15.5154 18.3148 15.5268 18.3416C15.683 18.3531 15.8408 18.359 16 18.359C16.1592 18.359 16.317 18.3531 16.4732 18.3416Z"
    fill="currentColor" />
  <path
    d="M13.6006 17.8907C13.5413 17.7165 13.4807 17.5296 13.4202 17.3307C13.2115 16.6449 13.0024 15.8138 12.8497 14.8718H10.3249C11.0147 16.2322 12.1792 17.3112 13.6006 17.8907Z"
    fill="currentColor" />
  <path
    d="M17.6956 13.2308C17.7264 12.8341 17.7436 12.4231 17.7436 12C17.7436 11.5769 17.7264 11.1659 17.6956 10.7692H14.3044C14.2736 11.1659 14.2564 11.5769 14.2564 12C14.2564 12.4231 14.2736 12.8341 14.3044 13.2308H17.6956Z"
    fill="currentColor" />
  <path fill-rule="evenodd" clip-rule="evenodd"
    d="M4 0C1.79086 0 0 1.79086 0 4V20C0 22.2091 1.79086 24 4 24H28C30.2091 24 32 22.2091 32 20V4C32 1.79086 30.2091 0 28 0H4ZM8 12C8 7.58172 11.5817 4 16 4C20.4183 4 24 7.58172 24 12C24 16.4183 20.4183 20 16 20C11.5817 20 8 16.4183 8 12Z"
    fill="currentColor" />
</svg>
