<svg xmlns="http://www.w3.org/2000/svg" width="32" height="24" fill="none" viewBox="0 0 32 24">
    <rect width="31" height="23" x=".5" y=".5" fill="#fff" stroke="#ccc" rx="3.5"/>
    <path fill="currentColor" d="M16 4a8 8 0 1 1 0 16 8 8 0 0 1 0-16m-6.348 8.8a6.4 6.4 0 0 0 4.482 5.323 11.24 11.24 0 0 1-1.786-5.323zm10 0a11.24 11.24 0 0 1-1.787 5.323 6.4 6.4 0 0 0 4.483-5.323zm-5.696 0A9.64 9.64 0 0 0 16 17.979a9.64 9.64 0 0 0 2.044-5.179zm3.909-6.923a11.24 11.24 0 0 1 1.787 5.323h2.696a6.4 6.4 0 0 0-4.483-5.323M16 6.02a9.64 9.64 0 0 0-2.044 5.18h4.089A9.64 9.64 0 0 0 16 6.02m-1.866-.143A6.4 6.4 0 0 0 9.652 11.2h2.696a11.24 11.24 0 0 1 1.786-5.323"/>
</svg>
