<svg xmlns="http://www.w3.org/2000/svg" width="32" height="24" fill="none" viewBox="0 0 32 24">
    <g clip-path="url(#apple_pay_32_svg__a)">
        <rect width="32" height="24" fill="#fff" rx="4"/>
        <rect width="31" height="23" x=".5" y=".5" fill="#fff" stroke="#ccc" rx="3.5"/>
        <path fill="#000" d="M8.664 8.804c.28-.35.471-.822.421-1.304-.41.02-.912.271-1.203.622-.26.301-.491.792-.43 1.254.46.04.921-.23 1.212-.572M9.08 9.466c-.67-.04-1.24.38-1.56.38s-.81-.36-1.34-.35c-.689.01-1.329.4-1.679 1.02-.72 1.24-.19 3.08.51 4.091.34.5.75 1.05 1.29 1.03.51-.02.71-.33 1.33-.33.619 0 .799.33 1.339.32.56-.01.91-.5 1.25-1 .39-.57.549-1.12.56-1.15-.011-.01-1.08-.42-1.09-1.65-.01-1.03.84-1.52.88-1.551-.48-.71-1.23-.79-1.49-.81M14.912 8.072c1.456 0 2.47 1.004 2.47 2.465 0 1.466-1.035 2.475-2.507 2.475h-1.612v2.563H12.1V8.073zm-1.649 3.962H14.6c1.014 0 1.59-.546 1.59-1.492s-.576-1.487-1.585-1.487h-1.342zM17.686 14.02c0-.956.733-1.544 2.033-1.617l1.498-.088v-.421c0-.608-.411-.973-1.097-.973-.65 0-1.056.313-1.155.801h-1.06c.062-.988.904-1.716 2.256-1.716 1.326 0 2.174.702 2.174 1.8v3.77h-1.077v-.9h-.026c-.317.608-1.008.993-1.726.993-1.071 0-1.82-.666-1.82-1.648m3.53-.493v-.432l-1.346.083c-.67.047-1.05.343-1.05.811 0 .479.395.79.998.79.785 0 1.399-.54 1.399-1.252M23.351 17.588v-.91c.083.02.27.02.364.02.52 0 .8-.218.972-.78 0-.01.1-.332.1-.337l-1.977-5.476h1.217l1.383 4.451h.02l1.384-4.45H28l-2.05 5.755c-.467 1.326-1.008 1.753-2.141 1.753-.094 0-.375-.01-.458-.026"/>
    </g>
    <defs>
        <clipPath id="apple_pay_32_svg__a">
            <rect width="32" height="24" fill="#fff" rx="4"/>
        </clipPath>
    </defs>
</svg>
