<svg width="32" height="24" viewBox="0 0 32 24" fill="none" xmlns="http://www.w3.org/2000/svg">
    <rect x=".5" y=".5" width="31" height="23" rx="3.5" fill="#fff" stroke="#CCC"/>
    <path d="M8.66 8.8c.28-.35.48-.82.42-1.3a1.81 1.81 0 0 0-1.63 1.88c.46.04.92-.23 1.21-.58Zm.42.67c-.67-.04-1.24.38-1.56.38-.32 0-.81-.36-1.34-.35-.69 0-1.33.4-1.68 1.02-.72 1.24-.19 3.08.51 4.09.34.5.75 1.05 1.29 1.03.51-.02.71-.33 1.33-.33.62 0 .8.33 1.34.32.56-.01.9-.5 1.25-1 .39-.57.55-1.12.56-1.15-.01-.01-1.08-.42-1.1-1.65 0-1.03.85-1.52.89-1.55a1.92 1.92 0 0 0-1.5-.81Zm5.83-1.4c1.46 0 2.47 1 2.47 2.47 0 1.46-1.03 2.47-2.5 2.47h-1.62v2.57H12.1v-7.5h2.81Zm-1.65 3.96h1.34c1.01 0 1.6-.54 1.6-1.49 0-.94-.59-1.49-1.6-1.49h-1.34v2.98Zm4.43 1.99c0-.96.73-1.54 2.03-1.62l1.5-.08v-.43c0-.6-.41-.97-1.1-.97-.65 0-1.06.31-1.15.8H17.9c.07-.99.9-1.71 2.26-1.71 1.33 0 2.17.7 2.17 1.8v3.77h-1.07v-.9h-.03c-.31.6-1 .99-1.72.99-1.08 0-1.82-.67-1.82-1.65Zm3.53-.5v-.42l-1.35.08c-.67.05-1.05.34-1.05.8 0 .49.4.8 1 .8.78 0 1.4-.54 1.4-1.25Zm2.13 4.07v-.91c.08.02.27.02.36.02.52 0 .8-.22.98-.78l.1-.34-1.98-5.47h1.22l1.38 4.45h.02l1.38-4.45H28l-2.05 5.75c-.47 1.33-1 1.75-2.14 1.75-.1 0-.38 0-.46-.02Z" fill="#000"/>
</svg>
