<svg width="42" height="24" viewBox="0 0 42 24" fill="none" xmlns="http://www.w3.org/2000/svg">
    <path fill-rule="evenodd" clip-rule="evenodd" d="M9.87 5a2.99 2.99 0 0 0-1.94.983 2.71 2.71 0 0 0-.678 1.982 2.253 2.253 0 0 0 1.957-.847c.49-.592.728-1.353.66-2.118zm.949 6.912a2.855 2.855 0 0 1 1.389-2.457A2.93 2.93 0 0 0 9.87 8.16c-.653-.041-1.252.193-1.733.382-.306.119-.563.22-.757.22-.217 0-.49-.107-.798-.227-.403-.158-.87-.34-1.354-.34a3.16 3.16 0 0 0-2.685 1.634c-1.135 1.99-.314 4.93.847 6.54.542.787 1.203 1.694 2.058 1.643.398-.024.672-.14.948-.26.318-.136.64-.274 1.161-.274.49 0 .807.134 1.114.264.305.129.599.253 1.038.236.88-.034 1.448-.788 1.99-1.61a6.414 6.414 0 0 0 .848-1.83 2.855 2.855 0 0 1-1.728-2.625zm8.258 1.864h-2.54l.033 4.074h-1.864V5.915h4.448A3.753 3.753 0 0 1 23.1 9.828a3.795 3.795 0 0 1-4.024 3.948zm-.39-6.277h-2.15l-.035 4.735h2.186a2.236 2.236 0 0 0 2.54-2.372c0-1.516-.93-2.363-2.54-2.363zM34.724 18.45a1.448 1.448 0 0 1-1.542 1.237 3.184 3.184 0 0 1-.567 0v1.406c.152 0 .593 0 .72.068 1.804 0 2.66-.66 3.388-2.778L40 9.235h-1.898l-2.219 7.073-2.228-7.073h-1.93l3.159 8.717-.161.5zM23.575 15.42c0-1.516 1.17-2.457 3.253-2.584l2.364-.127v-.669c0-.974-.627-1.542-1.695-1.542a1.694 1.694 0 0 0-1.846 1.28h-1.694c.067-1.601 1.44-2.77 3.557-2.77 2.118 0 3.473 1.11 3.473 2.88v5.997h-1.694V16.46a3.092 3.092 0 0 1-2.744 1.584c-1.77 0-2.974-1.11-2.974-2.626zm5.457.018c.12-.252.189-.526.202-.806l.025-.694-2.151.127c-1.102.059-1.694.542-1.694 1.296 0 .753.626 1.262 1.575 1.262a2.092 2.092 0 0 0 2.043-1.185z" fill="#000"/>
</svg>
