<svg width="24" height="24" viewBox="0 0 24 24" fill="none" xmlns="http://www.w3.org/2000/svg">
  <path
    d="M4 1C2.34315 1 1 2.34315 1 4V8C1 9.65685 2.34315 11 4 11H8C9.65685 11 11 9.65685 11 8V4C11 2.34315 9.65685 1 8 1H4Z"
    fill="currentColor" />
  <path
    d="M22 17H19V14C19 13.7348 18.8946 13.4804 18.7071 13.2929C18.5196 13.1054 18.2652 13 18 13C17.7348 13 17.4804 13.1054 17.2929 13.2929C17.1054 13.4804 17 13.7348 17 14V17H14C13.7348 17 13.4804 17.1054 13.2929 17.2929C13.1054 17.4804 13 17.7348 13 18C13 18.2652 13.1054 18.5196 13.2929 18.7071C13.4804 18.8946 13.7348 19 14 19H17V22C17 22.2652 17.1054 22.5196 17.2929 22.7071C17.4804 22.8946 17.7348 23 18 23C18.2652 23 18.5196 22.8946 18.7071 22.7071C18.8946 22.5196 19 22.2652 19 22V19H22C22.2652 19 22.5196 18.8946 22.7071 18.7071C22.8946 18.5196 23 18.2652 23 18C23 17.7348 22.8946 17.4804 22.7071 17.2929C22.5196 17.1054 22.2652 17 22 17Z"
    fill="currentColor" />
  <path
    d="M13 4C13 2.34315 14.3431 1 16 1H20C21.6569 1 23 2.34315 23 4V8C23 9.65685 21.6569 11 20 11H16C14.3431 11 13 9.65685 13 8V4Z"
    fill="currentColor" />
  <path
    d="M4 13C2.34315 13 1 14.3431 1 16V20C1 21.6569 2.34315 23 4 23H8C9.65685 23 11 21.6569 11 20V16C11 14.3431 9.65685 13 8 13H4Z"
    fill="currentColor" />
</svg>
