<svg xmlns="http://www.w3.org/2000/svg" width="24" height="24" fill="none" viewBox="0 0 24 24">
    <path fill="currentColor" d="M9.204 13.01A2 2 0 0 1 11 15v4l-.01.204A2 2 0 0 1 9 21H5a2 2 0 0 1-2-2v-4a2 2 0 0 1 2-2h4zM17 13a1 1 0 0 1 1 1v2h2a1 1 0 1 1 0 2h-2v2a1 1 0 1 1-2 0v-2h-2a1 1 0 1 1 0-2h2v-2a1 1 0 0 1 1-1M5 19h4v-4H5zM9.204 3.01A2 2 0 0 1 11 5v4l-.01.204A2 2 0 0 1 9 11H5a2 2 0 0 1-2-2V5a2 2 0 0 1 2-2h4zm10 0A2 2 0 0 1 21 5v4l-.01.204A2 2 0 0 1 19 11h-4a2 2 0 0 1-2-2V5a2 2 0 0 1 2-2h4zM5 9h4V5H5zm10 0h4V5h-4z"/>
</svg>
