<svg xmlns="http://www.w3.org/2000/svg" width="24" height="24" fill="none" viewBox="0 0 24 24">
    <path fill="currentColor" d="M18.2 9.444H5.8v8.779c0 .202.082.398.23.545A.8.8 0 0 0 6.6 19h10.8c.216 0 .42-.085.57-.232a.77.77 0 0 0 .23-.545zM14.8 11v2H9.2v-2zM4 7.444h16V5H4zm18 .112a1.89 1.89 0 0 1-1.8 1.882v8.785c0 .74-.298 1.448-.824 1.967S18.139 21 17.4 21H6.6c-.739 0-1.45-.29-1.976-.81a2.77 2.77 0 0 1-.824-1.967V9.438A1.89 1.89 0 0 1 2 7.556V4.889C2 3.834 2.863 3 3.9 3h16.2c1.037 0 1.9.834 1.9 1.889z"/>
</svg>
