<svg width="24" height="24" viewBox="0 0 24 24" fill="none" xmlns="http://www.w3.org/2000/svg">
  <path
    d="M12 17C14.7614 17 17 14.7614 17 12C17 9.23858 14.7614 7 12 7C9.23858 7 7 9.23858 7 12C7 14.7614 9.23858 17 12 17Z"
    fill="currentColor" />
  <path fill-rule="evenodd" clip-rule="evenodd"
    d="M23 12C23 18.0751 18.0751 23 12 23C5.92487 23 1 18.0751 1 12C1 5.92487 5.92487 1 12 1C18.0751 1 23 5.92487 23 12ZM3.0191 12C3.0191 16.96 7.03998 20.9809 12 20.9809C16.96 20.9809 20.9809 16.96 20.9809 12C20.9809 7.03998 16.96 3.0191 12 3.0191C7.03998 3.0191 3.0191 7.03998 3.0191 12Z"
    fill="currentColor" />
</svg>
