<svg width="24" height="24" viewBox="0 0 24 24" fill="none" xmlns="http://www.w3.org/2000/svg">
  <path
    d="M19.6961 4.29698C19.8838 4.48466 19.9904 4.73858 19.9929 5.00409L20 18C19.9975 18.2655 19.8909 18.5194 19.7032 18.7071C19.5157 18.8946 19.2615 19 18.9964 19C18.7313 19 18.477 18.8946 18.2896 18.7071C18.1018 18.5194 17.9952 18.2655 17.9927 18V7.41533L5.70633 19.7071C5.51888 19.8946 5.26464 20 4.99954 20C4.73445 20 4.48021 19.8946 4.29276 19.7071C4.10531 19.5196 4 19.2652 4 19C4 18.7348 4.10531 18.4804 4.29276 18.2929L16.5792 6.00111L5.99909 6.00819C5.73369 6.0057 5.47989 5.89905 5.2923 5.71121C5.10485 5.52367 4.99954 5.26932 4.99954 5.0041C4.99954 4.73889 5.10485 4.48453 5.2923 4.297C5.47989 4.10915 5.73369 4.00251 5.99909 4.00001L18.9893 4C19.2547 4.0025 19.5085 4.10914 19.6961 4.29698Z"
    fill="currentColor" />
</svg>
