<svg width="24" height="24" viewBox="0 0 24 24" fill="none" xmlns="http://www.w3.org/2000/svg">
  <path fill-rule="evenodd" clip-rule="evenodd"
    d="M14.4633 4.35419C13.0369 4.61355 12 5.85595 12 7.3058C12 5.85595 10.9631 4.61355 9.53666 4.35419L2.17889 3.01642C1.56505 2.90481 1 3.37638 1 4.00029V16.2983C1 17.7482 2.03687 18.9906 3.46334 19.25L11.4633 20.7045C11.8182 20.769 12.1818 20.769 12.5367 20.7045L20.5367 19.25C21.9631 18.9906 23 17.7482 23 16.2983V4.00029C23 3.37638 22.435 2.90481 21.8211 3.01642L14.4633 4.35419ZM9.17889 6.32193L3 5.1985V16.2983C3 16.7816 3.34562 17.1958 3.82111 17.2822L10 18.4057V7.3058C10 6.82252 9.65438 6.40839 9.17889 6.32193ZM20.1961 9.08468C20.7377 8.97637 21.0889 8.44954 20.9806 7.90798C20.8723 7.36642 20.3455 7.01521 19.8039 7.12352L14.8039 8.12352C14.2623 8.23183 13.9111 8.75866 14.0194 9.30022C14.1277 9.84178 14.6546 10.193 15.1961 10.0847L20.1961 9.08468ZM20.1961 14.0847C20.7377 13.9764 21.0889 13.4495 20.9806 12.908C20.8723 12.3664 20.3455 12.0152 19.8039 12.1235L14.8039 13.1235C14.2623 13.2318 13.9111 13.7587 14.0194 14.3002C14.1277 14.8418 14.6546 15.193 15.1961 15.0847L20.1961 14.0847Z"
    fill="currentColor" />
</svg>
