<svg xmlns="http://www.w3.org/2000/svg" width="24" height="24" fill="none" viewBox="0 0 24 24">
    <path fill="currentColor" d="M4 17.333h5.3c.596 0 1.179.143 1.7.41V8.556c0-.674-.27-1.323-.757-1.803A2.62 2.62 0 0 0 8.4 6H4zM9.4 12v2H5.6v-2zm9 0v2h-3.8v-2zm-9-3.556v2H5.6v-2zm9 0v2h-3.8v-2zm3.6 9c0 .505-.203.987-.56 1.34s-.84.549-1.34.549h-5.4c-.455 0-.889.18-1.207.493A1.65 1.65 0 0 0 13 21a1 1 0 1 1-2 0c0-.438-.176-.86-.493-1.174a1.72 1.72 0 0 0-1.207-.493H3.9c-.5 0-.982-.196-1.34-.549a1.88 1.88 0 0 1-.56-1.34V5.89c0-.505.203-.987.56-1.34l.14-.125A1.9 1.9 0 0 1 3.9 4h4.5A4.62 4.62 0 0 1 12 5.722 4.623 4.623 0 0 1 15.6 4h4.5c.437 0 .861.15 1.2.424l.14.125.125.138c.279.336.435.76.435 1.202zm-9 .3a3.7 3.7 0 0 1 1.7-.411H20V6h-4.4c-.694 0-1.357.272-1.843.753-.426.42-.686.97-.744 1.552l-.013.25z"/>
</svg>
