<svg xmlns="http://www.w3.org/2000/svg" width="24" height="24" fill="none" viewBox="0 0 24 24">
    <path fill="currentColor" d="M18.49 6.6c0-.685-.275-1.346-.77-1.834A2.67 2.67 0 0 0 15.847 4a2.67 2.67 0 0 0-1.869.758l-7.634 7.697-.013.013c-.42.408-.753.893-.981 1.428a4.34 4.34 0 0 0-.014 3.375c.224.537.552 1.025.969 1.436s.912.738 1.458.96a4.53 4.53 0 0 0 3.444-.014 4.5 4.5 0 0 0 1.45-.971l8.338-8.405 1.42 1.409-8.34 8.406a6.5 6.5 0 0 1-2.1 1.407 6.53 6.53 0 0 1-4.965.02 6.5 6.5 0 0 1-2.11-1.39 6.4 6.4 0 0 1-1.41-2.088 6.34 6.34 0 0 1 .02-4.93 6.4 6.4 0 0 1 1.414-2.065l7.636-7.695.006-.008A4.67 4.67 0 0 1 15.845 2c1.229 0 2.409.481 3.281 1.343A4.58 4.58 0 0 1 20.49 6.6c0 1.22-.49 2.388-1.358 3.249l-7.666 7.728-.007.007a2.84 2.84 0 0 1-1.992.815 2.83 2.83 0 0 1-1.991-.815 2.79 2.79 0 0 1-.008-3.962l7.668-7.727a1 1 0 1 1 1.419 1.408L8.888 15.03l-.007.008a.79.79 0 0 0 0 1.123.83.83 0 0 0 .586.238.83.83 0 0 0 .586-.238l7.66-7.72.008-.007c.494-.489.77-1.149.77-1.834"/>
</svg>
