<svg width="24" height="24" viewBox="0 0 24 24" fill="none" xmlns="http://www.w3.org/2000/svg">
    <path d="M9.411 23a7.423 7.423 0 0 1-5.236-2.14 7.279 7.279 0 0 1 0-10.379l8.058-7.96a5.322 5.322 0 0 1 7.45 0 5.185 5.185 0 0 1 0 7.394L13.351 16.1a3.162 3.162 0 0 1-4.428 0 3.093 3.093 0 0 1 0-4.409l5.389-5.239a1.001 1.001 0 0 1 1.406 1.425L10.33 13.11a1.092 1.092 0 0 0 0 1.561 1.152 1.152 0 0 0 1.617 0l6.331-6.18a3.184 3.184 0 0 0 0-4.546 3.313 3.313 0 0 0-4.639 0l-8.058 7.96a5.276 5.276 0 0 0 0 7.531 5.468 5.468 0 0 0 7.66 0l7.059-6.958a1 1 0 0 1 1.4 1.422l-7.057 6.959A7.436 7.436 0 0 1 9.411 23z" fill="#000"/>
</svg>
