<svg xmlns="http://www.w3.org/2000/svg" width="24" height="24" viewBox="0 0 24 24">
    <path d="M8.812 3.71C8.812 1.456 7.459.48 5.92.135V.018c2.799.147 4.85 1.85 4.849 3.799 0 2.225-2.414 3.812-5.39 3.81C2.404 7.624.005 5.915.006 3.809.007 1.599 2.103.003 5.675.006v2.745l-.845-.017c-1.809.063-3.906.85-3.906 1.911 0 1.166 1.989 2.569 4.377 2.571 1.932.002 3.51-1.399 3.511-3.506" class="bacs_direct_debit_24_svg__cls-1"/>
    <path d="M5.657 6.9c-1.026-.074-2.344-.758-2.343-1.936 0-1.166 1.124-2.011 2.345-2.057zM21.658 1.603l-.054.303c-.141-.047-1.479-.361-1.498.635-.015.798 1.203.7 1.481.625l.031.33c-.916.256-2.132-.024-2.156-.964-.029-1.085 1.581-1.219 2.196-.93M22.604 3.552V1.844l-.822-.001v-.326l2.212.002-.001.326h-.806l-.001 1.707zM17.671 1.499l1.631.002v.34h-1.086l-.001 1.693-.545-.001z" class="bacs_direct_debit_24_svg__cls-1"/>
    <path d="M18.164 2.357h1.074v.342h-1.074zM18.164 3.193h1.129v.342h-1.129zM14.022 1.502h.609v2.025h-.609zM11.223 1.516h.609v2.025h-.609z" class="bacs_direct_debit_24_svg__cls-1"/>
    <path d="m11.627 3.541.124-.328.456-.013c.529 0 .848-.294.848-.682 0-.469-.426-.691-.754-.691l-.554-.03-.076-.281h.644c.74.001 1.381.398 1.381 1.022 0 .628-.641 1.004-1.381 1.003zM11.222 4.061h.609v2.026h-.609z" class="bacs_direct_debit_24_svg__cls-1"/>
    <path d="m11.626 6.087.124-.328.456-.013c.529 0 .848-.294.848-.682 0-.469-.426-.691-.754-.691l-.554-.03-.077-.281h.644c.74.001 1.381.398 1.381 1.022 0 .628-.641 1.004-1.381 1.003zM17.379 3.904h.588v2.195h-.588zM20.631 4.615h.587V6.12h-.587zM20.631 3.911h.587v.388h-.587zM22.616 5.724V4.227h.601v1.428c0 .191.328.252.515.188v.333c-.405.093-1.116.08-1.116-.453Z" class="bacs_direct_debit_24_svg__cls-1"/>
    <path d="M22.148 4.615h1.567v.321h-1.567zM14.963 5.437c.03.584 1.206.376 1.364.21v.354c-.235.111-.536.124-.872.123-.611 0-1.105-.312-1.105-.819 0-.452.457-.81 1.106-.809.501 0 1.055.235 1.016.943h-1.509Zm.004-.28.946-.002c-.025-.229-.196-.357-.451-.357-.277 0-.486.106-.495.358M17.142 2.036c0 .482-.454.518-.478.52.072.047.137.141.141.145l.467.832h-.636l-.321-.606a.35.35 0 0 0-.333-.205h-.225v.81h-.604V1.498h1.092c.306.001.897.078.897.539Zm-1.389.34h.396c.158 0 .384-.102.384-.27 0-.185-.186-.275-.375-.275h-.405zM17.788 5.343c0-.561.371-.787.901-.786.496 0 .893.265.893.787 0 .51-.401.812-.897.811-.573 0-.897-.244-.897-.813Zm.175.018c0 .256.23.462.516.463.285 0 .516-.207.516-.462s-.23-.462-.516-.463c-.285 0-.516.207-.516.462" class="bacs_direct_debit_24_svg__cls-1"/>
</svg>
