<svg width="32" height="24" viewBox="0 0 32 24" fill="none" xmlns="http://www.w3.org/2000/svg">
    <rect x=".5" y=".5" width="31" height="23" rx="3.5" fill="#fff" stroke="#CCC"/>
    <path d="M4 19.84v-3.46h1.07c.78 0 1.28.29 1.28.9a.8.8 0 0 1-.38.71c.32.15.5.44.5.83 0 .7-.5 1.02-1.3 1.02H4Zm.69-2.02h.5c.32 0 .45-.16.45-.44 0-.3-.24-.4-.57-.4H4.7v.84Zm0 1.42h.42c.42 0 .66-.1.66-.43 0-.32-.2-.46-.6-.46H4.7v.89Zm3.12.66c-.68 0-1.02-.33-1.02-.77 0-.5.4-.78 1-.79.14 0 .3.02.44.04v-.12c0-.3-.18-.44-.5-.44-.23 0-.45.04-.66.12l-.13-.54c.22-.09.56-.15.86-.15.73 0 1.1.39 1.1 1.06v1.38c-.21.1-.6.21-1.09.21Zm.42-.56v-.53a1.66 1.66 0 0 0-.35-.04c-.23 0-.41.1-.41.33 0 .2.15.31.41.31.12 0 .24-.02.35-.07Zm1.14.5v-2.37a3.1 3.1 0 0 1 1.12-.22c.72 0 1.14.36 1.14 1.02v1.57h-.68v-1.52c0-.34-.16-.5-.46-.5-.15 0-.3.03-.44.09v1.93h-.68Zm4.65-2.44-.13.54a1.5 1.5 0 0 0-.56-.12c-.4 0-.62.28-.62.75 0 .5.23.77.65.77.2 0 .38-.05.55-.13l.11.55c-.22.1-.46.15-.71.14-.82 0-1.3-.5-1.3-1.31 0-.8.47-1.34 1.26-1.34.26 0 .51.05.75.15Zm1.48 2.5c-.77 0-1.24-.53-1.24-1.32 0-.8.47-1.33 1.24-1.33.76 0 1.23.53 1.23 1.33s-.47 1.32-1.23 1.32Zm0-.56c.35 0 .53-.3.53-.76 0-.47-.18-.76-.53-.76-.35 0-.54.3-.54.76 0 .47.19.76.54.76Zm1.62.5v-2.37a3.1 3.1 0 0 1 1.12-.22c.73 0 1.14.36 1.14 1.02v1.57h-.68v-1.52c0-.34-.16-.5-.46-.5-.15 0-.3.03-.44.09v1.93h-.68Zm3.8.06c-.59 0-.89-.32-.89-.97v-1.07h-.33v-.55h.33v-.55l.69-.03v.58h.55v.55h-.55v1.06c0 .29.11.42.34.42.09 0 .17-.01.26-.03l.03.55a1.9 1.9 0 0 1-.43.04Zm1.73 0c-.68 0-1.02-.33-1.02-.77 0-.5.4-.78 1-.79.14 0 .29.02.43.04v-.12c0-.3-.17-.44-.5-.44-.22 0-.45.04-.65.12l-.13-.54c.21-.09.56-.15.86-.15.73 0 1.09.39 1.09 1.06v1.38c-.2.1-.59.21-1.08.21Zm.41-.56v-.53a1.66 1.66 0 0 0-.35-.04c-.22 0-.4.1-.4.33 0 .2.15.31.4.31.13 0 .25-.02.35-.07Zm3-1.94-.12.54a1.5 1.5 0 0 0-.56-.12c-.4 0-.62.28-.62.75 0 .5.23.77.65.77.2 0 .38-.05.55-.13l.11.55c-.22.1-.47.15-.71.14-.82 0-1.3-.5-1.3-1.31 0-.8.47-1.34 1.26-1.34.26 0 .51.05.75.15Zm1.5 2.5c-.58 0-.88-.32-.88-.97v-1.07h-.34v-.55h.34v-.55l.68-.03v.58h.55v.55h-.55v1.06c0 .29.12.42.34.42.1 0 .18-.01.27-.03l.03.55a1.9 1.9 0 0 1-.43.04Z" fill="#1E3764"/>
    <path d="M8.77 14.64c3.61 0 5.42-2.4 7.23-4.82H4v4.82h4.77Z" fill="url(#bancontact_32_svg__a)"/>
    <path d="M23.23 5C19.62 5 17.81 7.41 16 9.82h12V5h-4.77Z" fill="url(#bancontact_32_svg__b)"/>
    <defs>
        <linearGradient id="bancontact_32_svg__a" x1="6.43" y1="12.46" x2="15.21" y2="9.19" gradientUnits="userSpaceOnUse">
            <stop stop-color="#005AB9"/>
            <stop offset="1" stop-color="#1E3764"/>
        </linearGradient>
        <linearGradient id="bancontact_32_svg__b" x1="16.73" y1="10.24" x2="26.05" y2="7.06" gradientUnits="userSpaceOnUse">
            <stop stop-color="#FBA900"/>
            <stop offset="1" stop-color="#FFD800"/>
        </linearGradient>
    </defs>
</svg>
