<svg xmlns="http://www.w3.org/2000/svg" width="62" height="24" fill="none" viewBox="0 0 62 24">
    <path fill="#2B3C45" d="m23.278 13.191-.42 2.226c-.616.271-1.265.386-1.956.386-1.19 0-1.691-.5-1.536-1.306.156-.805.961-1.306 1.956-1.265.345 0 .65.04.961.155l.04-.23c.075-.5-.189-.764-.845-.764-.42 0-.846.115-1.191.345-.23-.115-.345-.386-.345-.616a2.83 2.83 0 0 1 1.725-.575c1.15 0 1.84.46 1.61 1.651zm-2.037 1.881c.304 0 .575-.04.846-.115l.155-.846a2.3 2.3 0 0 0-.88-.155c-.46 0-.845.155-.879.534-.034.38.19.576.765.576zM50.69 13.191l-.42 2.226c-.616.271-1.265.386-1.955.386-1.191 0-1.692-.5-1.536-1.306.155-.805.96-1.306 1.955-1.265.345 0 .65.04.961.155l.04-.23c.075-.5-.189-.764-.845-.764-.42 0-.846.115-1.191.345a.59.59 0 0 1-.305-.616 2.83 2.83 0 0 1 1.726-.575c1.116 0 1.807.46 1.577 1.651zm-2.037 1.881c.305 0 .575-.04.846-.115l.155-.88a2.3 2.3 0 0 0-.88-.155c-.46 0-.845.156-.879.535-.04.385.156.615.765.615zM27.96 13.692a2.556 2.556 0 0 1 2.531-2.152c.46-.04.92.156 1.265.46-.155.305-.345.535-.65.69-.189-.189-.46-.304-.764-.304a1.52 1.52 0 0 0-1.42 1.347c-.116.69.114 1.306.92 1.306.345 0 .69-.115.96-.346.23.156.386.386.386.65-.42.345-.96.5-1.495.5-1.232-.04-1.956-.804-1.726-2.151zM31.533 13.692a2.63 2.63 0 0 1 2.572-2.152c1.265 0 1.955.88 1.725 2.152a2.63 2.63 0 0 1-2.571 2.152c-1.265-.04-1.956-.92-1.726-2.152m3.303 0c.155-.765-.19-1.306-.92-1.306-.732.04-1.347.575-1.422 1.306-.155.765.19 1.306.92 1.306.731-.04 1.347-.575 1.422-1.306M39.863 15.302c.115-.27.305-.5.575-.65.305.271.731.42 1.15.386.576 0 .806-.23.88-.5.075-.271-.155-.42-.845-.535s-1.347-.386-1.191-1.232c.155-.764.92-1.265 1.921-1.265.501-.04 1.036.115 1.462.386a1.3 1.3 0 0 1-.5.69 2.34 2.34 0 0 0-1.117-.304c-.501 0-.765.155-.806.42-.04.27.115.385.765.5.846.155 1.421.42 1.306 1.231-.115.806-.88 1.347-1.996 1.347-.616.074-1.191-.074-1.61-.46zM55.332 13.692c.23-1.232 1.306-2.152 2.53-2.152 1.225 0 1.956.88 1.726 2.152-.23 1.232-1.306 2.152-2.53 2.152-1.232-.04-1.956-.92-1.726-2.152m3.302 0c.156-.765-.19-1.306-.92-1.306-.73.04-1.347.575-1.421 1.306-.156.765.19 1.306.92 1.306.765-.04 1.38-.575 1.421-1.306M54.527 10.47l-.23 1.192a1.46 1.46 0 0 0-.805-.115c-1.266 0-2.382.88-2.612 2.152-.271 1.346.5 2.11 1.84 2.11.616 0 1.266-.155 1.84-.385l.962-5.217-.995.27zm-.765 4.379c-.27.075-.534.156-.846.115-.73 0-1.15-.5-.994-1.306.115-.73.73-1.265 1.495-1.306.27-.04.535.04.765.19l-.42 2.3zM47.002 11.696h-1.495l.19-1.036-.995.271-.65 3.532c-.19.961.386 1.38 1.265 1.38.46 0 .92-.155 1.306-.419 0-.27-.074-.5-.27-.69-.19.156-.46.27-.731.27-.386 0-.65-.155-.535-.764l.305-1.726h1.495c.04-.114.075-.27.115-.385v-.433M40.48 10.2h-3.837l.189.616v.156l-.846 4.723h3.573c.074-.156.115-.305.156-.46a.74.74 0 0 0 0-.42h-2.612l.27-1.495h2.267c.075-.156.115-.271.115-.42.04-.155.04-.304.04-.42H37.53l.27-1.346h2.531c.075-.156.115-.27.115-.42.041-.189.041-.345.041-.5zM26.08 11.54c-.386 0-.732.075-1.077.156h-.155l-.69-.19-.116.65-.65 3.532c.157.04.305.04.461.04s.345 0 .5-.04l.576-3.072c.304-.156.616-.23.92-.23.616 0 .92.27.805 1.035l-.42 2.267c.156.04.305.04.461.04s.345 0 .5-.04l.46-2.497c.19-.92-.23-1.65-1.576-1.65M19.367 11.655c.19-.96-.345-1.495-1.807-1.495h-2.037l.23.65v.189l-.88 4.682a8 8 0 0 0 1.692.156c1.536 0 2.416-.65 2.612-1.692a1.05 1.05 0 0 0-.69-1.306h-.04c.5-.23.845-.65.92-1.19zm-1.191 2.457c-.115.615-.535.88-1.462.88-.27 0-.5 0-.764-.041l.345-1.652h.92c.73 0 1.076.271.96.806zm.23-2.416c-.075.5-.42.805-1.15.805h-.846l.27-1.495c.27-.041.501-.041.765-.041.73-.04 1.076.27.96.73"/>
    <path fill="#DB0B33" d="m2.091 12.156 3.803-1.651V9.273a5.07 5.07 0 0 0 3.072-1.725l3.803 3.106V6.783H2.091z"/>
    <path fill="#fff" d="M5.928 15.688H9v-8.14c-.765.92-1.881 1.536-3.072 1.725v1.232l-3.837 1.65v1.192l3.837-1.692v-1.15l1.19-.535v1.19l-1.19.535v1.15l1.231-.534v1.15l-1.231.576v-1.15l-3.837 1.65v1.15l3.837-1.69z"/>
    <path fill="#F0811A" d="M5.894 12.846v-1.15l-3.803 1.65v1.192zM5.894 14.037l-3.803 1.651h3.803zM5.894 11.696l1.225-.535v-1.19l-1.225.534zM5.894 12.846v1.19l1.225-.534v-1.19z"/>
    <path fill="#EF801C" d="M9 15.688h3.803V10.7L8.959 7.547z"/>
    <path fill="#ED6B1D" d="M8.96 15.688H9l-.04-8.14z"/>
    <path fill="#0058A6" d="M9 15.688H2.091v1.807h10.712v-1.807z"/>
</svg>
