<svg width="24" height="25" viewBox="0 0 24 25" fill="none" xmlns="http://www.w3.org/2000/svg">
<path d="M1 19.5378V16.3599H1.98059C2.69333 16.3599 3.15185 16.6278 3.15185 17.1816C3.15185 17.4949 3.00658 17.7128 2.80229 17.8399C3.09737 17.9761 3.26988 18.2394 3.26988 18.598C3.26988 19.2381 2.80229 19.5378 2.07593 19.5378L1 19.5378ZM1.63103 17.681H2.09863C2.38463 17.681 2.50721 17.5402 2.50721 17.2815C2.50721 17.0046 2.28475 16.9138 1.98513 16.9138H1.63103V17.681ZM1.63103 18.9839H2.02144C2.40279 18.9839 2.62523 18.8886 2.62523 18.5889C2.62523 18.2939 2.43457 18.1713 2.07593 18.1713H1.63103V18.9839ZM4.49361 19.5922C3.87165 19.5922 3.55841 19.2881 3.55841 18.8795C3.55841 18.43 3.92613 18.1667 4.47091 18.1622C4.60628 18.1647 4.7413 18.1768 4.87494 18.1985V18.0896C4.87494 17.8127 4.71605 17.681 4.41189 17.681C4.20699 17.6784 4.00352 17.7154 3.81263 17.79L3.69914 17.2997C3.89435 17.2179 4.2076 17.1635 4.48452 17.1635C5.15187 17.1635 5.48327 17.5176 5.48327 18.1304V19.3925C5.29714 19.4878 4.94758 19.5922 4.49361 19.5922ZM4.87494 19.0792V18.5935C4.7691 18.5699 4.66105 18.5578 4.55263 18.5572C4.34379 18.5572 4.18036 18.6389 4.18036 18.8523C4.18036 19.0429 4.31655 19.1428 4.55716 19.1428C4.66657 19.1464 4.77532 19.1246 4.87494 19.0792ZM5.92434 19.5378V17.3632C6.25058 17.2322 6.59876 17.1644 6.95033 17.1635C7.61313 17.1635 7.99448 17.4903 7.99448 18.0941V19.5378H7.36798V18.1395C7.36798 17.8263 7.22271 17.681 6.94578 17.681C6.80828 17.6791 6.67198 17.7069 6.54628 17.7627V19.5378L5.92434 19.5378ZM10.1838 17.2997L10.0658 17.7945C9.90362 17.7242 9.72948 17.6857 9.5528 17.681C9.18509 17.681 8.98533 17.9398 8.98533 18.3665C8.98533 18.8341 9.19416 19.0747 9.58459 19.0747C9.75882 19.0699 9.93027 19.0298 10.0885 18.9567L10.1884 19.4606C9.98281 19.5521 9.75958 19.597 9.53464 19.5922C8.78104 19.5922 8.34522 19.1246 8.34522 18.3846C8.34522 17.6492 8.7765 17.1635 9.49833 17.1635C9.73366 17.1623 9.96682 17.2086 10.1838 17.2997ZM11.5372 19.5922C10.8381 19.5922 10.4023 19.1065 10.4023 18.3756C10.4023 17.6492 10.8381 17.1635 11.5372 17.1635C12.2409 17.1635 12.6676 17.6492 12.6676 18.3756C12.6676 19.1065 12.2409 19.5922 11.5372 19.5922ZM11.5372 19.0747C11.8596 19.0747 12.0275 18.8069 12.0275 18.3756C12.0275 17.9488 11.8596 17.681 11.5372 17.681C11.2195 17.681 11.0424 17.9488 11.0424 18.3756C11.0424 18.8069 11.2195 19.0747 11.5372 19.0747ZM13.0302 19.5378V17.3632C13.3564 17.2322 13.7046 17.1644 14.0562 17.1635C14.719 17.1635 15.1003 17.4903 15.1003 18.0941V19.5378H14.4738V18.1395C14.4738 17.8263 14.3286 17.681 14.0516 17.681C13.9141 17.6791 13.7778 17.7069 13.6521 17.7627V19.5378L13.0302 19.5378ZM16.5132 19.5922C15.973 19.5922 15.696 19.2971 15.696 18.6979V17.7173H15.3873V17.2179H15.696V16.714L16.3225 16.6822V17.2179H16.8264V17.7173H16.3225V18.6888C16.3225 18.9521 16.4315 19.0747 16.6358 19.0747C16.7167 19.0745 16.7974 19.0654 16.8764 19.0475L16.9082 19.5514C16.7785 19.5801 16.646 19.5938 16.5132 19.5922ZM18.0945 19.5922C17.4725 19.5922 17.1593 19.2881 17.1593 18.8795C17.1593 18.43 17.527 18.1667 18.0718 18.1622C18.2072 18.1647 18.3422 18.1768 18.4758 18.1985V18.0896C18.4758 17.8127 18.3169 17.681 18.0128 17.681C17.8079 17.6784 17.6044 17.7154 17.4135 17.79L17.3 17.2997C17.4952 17.2179 17.8085 17.1635 18.0854 17.1635C18.7528 17.1635 19.0842 17.5176 19.0842 18.1304V19.3925C18.898 19.4878 18.5485 19.5922 18.0945 19.5922ZM18.4758 19.0792V18.5935C18.37 18.5699 18.2619 18.5578 18.1535 18.5572C17.9447 18.5572 17.7813 18.6389 17.7813 18.8523C17.7813 19.0429 17.9174 19.1428 18.158 19.1428C18.2675 19.1464 18.3762 19.1246 18.4758 19.0792ZM21.2276 17.2997L21.1096 17.7945C20.9474 17.7242 20.7732 17.6857 20.5966 17.681C20.2289 17.681 20.0291 17.9398 20.0291 18.3665C20.0291 18.8341 20.2379 19.0747 20.6284 19.0747C20.8026 19.0699 20.974 19.0298 21.1323 18.9567L21.2321 19.4606C21.0266 19.5521 20.8034 19.597 20.5784 19.5922C19.8248 19.5922 19.389 19.1246 19.389 18.3846C19.389 17.6492 19.8203 17.1635 20.5421 17.1635C20.7774 17.1623 21.0106 17.2086 21.2276 17.2997ZM22.605 19.5922C22.0648 19.5922 21.7878 19.2971 21.7878 18.6979V17.7173H21.4791V17.2179H21.7878V16.714L22.4143 16.6822V17.2179H22.9182V17.7173H22.4143V18.6888C22.4143 18.9521 22.5233 19.0747 22.7276 19.0747C22.8085 19.0745 22.8892 19.0654 22.9682 19.0475L23 19.5514C22.8703 19.5801 22.7378 19.5938 22.605 19.5922Z" fill="black"/>
<path d="M5.36988 14.771C8.68493 14.771 10.3425 12.561 12 10.351H1V14.771H5.36988Z" fill="black"/>
<path d="M18.63 5.93091C15.315 5.93091 13.6575 8.14091 12 10.351L22.9999 10.351V5.93091H18.63Z" fill="black"/>
</svg>
