<svg xmlns="http://www.w3.org/2000/svg" width="32" height="24" fill="none" viewBox="0 0 32 24">
    <g clip-path="url(#bancontact_32_svg__a)">
        <rect width="31" height="23" x=".5" y=".5" fill="#fff" stroke="#ccc" rx="3.5"/>
        <path fill="#1e3764" d="M4 19.844v-3.467h1.07c.777 0 1.277.292 1.277.897 0 .341-.158.579-.38.718.321.148.51.435.51.827 0 .698-.51 1.025-1.303 1.025zm.688-2.026h.51c.313 0 .446-.153.446-.435 0-.303-.242-.402-.57-.402h-.386zm0 1.422h.426c.416 0 .659-.104.659-.431 0-.322-.208-.456-.6-.456h-.485zm3.123.663c-.678 0-1.02-.331-1.02-.777 0-.49.401-.778.995-.783a3 3 0 0 1 .441.04v-.119c0-.302-.173-.446-.505-.446a1.7 1.7 0 0 0-.654.12l-.123-.536c.212-.089.554-.148.856-.148.728 0 1.09.386 1.09 1.055v1.376c-.203.105-.585.218-1.08.218m.416-.56v-.53a1.7 1.7 0 0 0-.351-.039c-.228 0-.407.09-.407.322 0 .208.15.317.412.317.119.004.238-.02.346-.07m1.145.5v-2.371a3 3 0 0 1 1.12-.218c.722 0 1.138.356 1.138 1.015v1.575h-.683v-1.525c0-.342-.159-.5-.46-.5a1 1 0 0 0-.437.088v1.937zm4.647-2.44-.129.54a1.5 1.5 0 0 0-.56-.125c-.4 0-.619.283-.619.748 0 .51.228.773.654.773.19-.005.377-.05.55-.129l.109.55c-.225.1-.468.149-.713.143-.823 0-1.298-.51-1.298-1.317 0-.802.47-1.332 1.258-1.332.257-.002.511.05.748.148m1.476 2.5c-.762 0-1.238-.53-1.238-1.327 0-.792.476-1.322 1.238-1.322.768 0 1.233.53 1.233 1.322 0 .797-.465 1.327-1.233 1.327m0-.564c.352 0 .535-.292.535-.763 0-.465-.183-.758-.535-.758-.346 0-.54.293-.54.758 0 .47.194.763.54.763m1.629.505v-2.372a3 3 0 0 1 1.12-.218c.722 0 1.138.356 1.138 1.015v1.575H18.7v-1.525c0-.342-.159-.5-.46-.5a1 1 0 0 0-.437.088v1.937zm3.8.06c-.59 0-.892-.323-.892-.976v-1.07h-.337v-.545h.337v-.55l.683-.034v.584h.55v.545h-.55v1.06c0 .287.12.42.342.42a1.2 1.2 0 0 0 .263-.029l.034.55a2 2 0 0 1-.43.044m1.725 0c-.679 0-1.02-.332-1.02-.778 0-.49.4-.778.995-.783a3 3 0 0 1 .44.04v-.119c0-.302-.173-.446-.505-.446a1.7 1.7 0 0 0-.653.12l-.124-.536c.213-.089.555-.148.857-.148.728 0 1.09.386 1.09 1.055v1.376c-.204.105-.585.218-1.08.218m.416-.56v-.53a1.7 1.7 0 0 0-.352-.04c-.228 0-.406.09-.406.322 0 .208.148.317.41.317.12.004.239-.02.348-.07m3.002-1.942-.13.54a1.5 1.5 0 0 0-.559-.124c-.401 0-.619.283-.619.748 0 .51.228.773.654.773.19-.005.377-.05.55-.129l.108.55c-.224.1-.467.149-.713.143-.822 0-1.297-.51-1.297-1.317 0-.802.47-1.332 1.258-1.332.256-.002.51.05.748.148m1.502 2.501c-.59 0-.891-.322-.891-.975v-1.07h-.337v-.545h.337v-.55l.683-.034v.584h.55v.545h-.55v1.06c0 .287.119.42.342.42a1.2 1.2 0 0 0 .262-.029l.035.55a2 2 0 0 1-.43.044"/>
        <path fill="url(#bancontact_32_svg__b)" d="M8.767 14.644c3.617 0 5.425-2.411 7.233-4.822H4v4.822z"/>
        <path fill="url(#bancontact_32_svg__c)" d="M23.233 5C19.616 5 17.808 7.41 16 9.822h12V5z"/>
    </g>
    <defs>
        <linearGradient id="bancontact_32_svg__b" x1="6.427" x2="15.206" y1="12.456" y2="9.195" gradientUnits="userSpaceOnUse">
            <stop stop-color="#005ab9"/>
            <stop offset="1" stop-color="#1e3764"/>
        </linearGradient>
        <linearGradient id="bancontact_32_svg__c" x1="16.727" x2="26.047" y1="10.24" y2="7.06" gradientUnits="userSpaceOnUse">
            <stop stop-color="#fba900"/>
            <stop offset="1" stop-color="#ffd800"/>
        </linearGradient>
        <clipPath id="bancontact_32_svg__a">
            <rect width="32" height="24" fill="#fff" rx="4"/>
        </clipPath>
    </defs>
</svg>
