<svg xmlns="http://www.w3.org/2000/svg" width="33" height="24" fill="none" viewBox="0 0 33 24">
    <path fill="#004E91" d="M29.409 3.674H19.197L18.152 4.88l-3.37 3.901-1.044 1.207H3.657l1.018-1.22.483-.577 1.019-1.22H1.54C.692 6.972 0 7.71 0 8.595v3.432c0 .898.692 1.623 1.541 1.623H19.327c.85 0 2.011-.55 2.573-1.207l2.69-3.138 4.819-5.631Z"/>
    <path fill="#FD0" d="M31.46.013c.848 0 1.54.738 1.54 1.623v3.432c0 .899-.692 1.623-1.54 1.623h-4.636l1.03-1.207.51-.603 1.032-1.207H19.184l-5.446 6.302H3.591l7.274-8.447.274-.322C11.714.55 12.876 0 13.725 0H31.46v.013Z"/>
    <path fill="#004E91" d="M33 23.227v-.496c0-.067-.04-.107-.13-.107h-.314c-.091 0-.157-.014-.17-.054-.026-.04-.026-.12-.026-.255v-1.877h.51c.039 0 .065-.013.09-.04a.123.123 0 0 0 .04-.094v-.523a.123.123 0 0 0-.04-.094.117.117 0 0 0-.09-.04h-.51v-.684c0-.04-.013-.067-.026-.08-.026-.014-.052-.027-.078-.027h-.013l-.758.134c-.039.014-.065.027-.091.04-.026.027-.04.054-.04.08v.524h-.509a.117.117 0 0 0-.091.04.123.123 0 0 0-.04.094v.429c0 .04.014.067.04.08.026.027.052.04.091.054l.51.08v1.877c0 .229.026.416.065.564a.896.896 0 0 0 .196.335c.091.08.196.134.326.16.13.028.288.041.457.041.092 0 .17 0 .248-.013.066-.014.157-.027.248-.04.066 0 .105-.04.105-.108Zm-2.716-.067v-.576c0-.04-.013-.067-.04-.08-.026-.014-.052-.028-.078-.028h-.013c-.117.014-.235.027-.34.027-.104.014-.247.014-.43.014a.498.498 0 0 1-.366-.16.523.523 0 0 1-.104-.23 1.385 1.385 0 0 1-.04-.361v-.537c0-.147.013-.268.04-.362a.733.733 0 0 1 .104-.227.497.497 0 0 1 .366-.162c.183 0 .326 0 .43.014.105.013.223.013.34.027h.013c.04 0 .065-.014.078-.027.027-.014.04-.04.04-.08v-.577c0-.054-.013-.08-.026-.094-.027-.013-.053-.04-.105-.054-.091-.026-.196-.04-.34-.067-.143-.026-.3-.026-.496-.026-.444 0-.796.134-1.07.415-.262.282-.405.684-.405 1.22v.537c0 .523.13.938.405 1.22.26.281.626.415 1.07.415.183 0 .353-.013.497-.026.143-.027.26-.04.34-.067a.195.195 0 0 0 .104-.054c.026-.013.026-.054.026-.094Zm-4.088-.684c-.078.04-.156.067-.248.094a.972.972 0 0 1-.274.04c-.13 0-.235-.013-.3-.053-.066-.04-.092-.12-.092-.268v-.054a.83.83 0 0 1 .026-.201.348.348 0 0 1 .092-.148c.039-.04.104-.067.17-.094a1.35 1.35 0 0 1 .274-.026h.352v.71Zm.993-1.568c0-.242-.04-.443-.105-.604a1.12 1.12 0 0 0-.287-.402 1.059 1.059 0 0 0-.457-.228 2.201 2.201 0 0 0-.614-.08c-.209 0-.418.013-.614.04a2.663 2.663 0 0 0-.47.094c-.078.026-.117.067-.117.147v.523c0 .04.013.067.026.094.026.013.052.027.078.027h.026c.052 0 .118-.014.183-.014.078 0 .157-.013.248-.013.092 0 .196-.014.3-.014h.3a.61.61 0 0 1 .34.081c.079.054.131.174.131.362v.228h-.34c-.535 0-.94.08-1.175.255-.248.174-.365.456-.365.831v.053c0 .215.026.39.091.523a.98.98 0 0 0 .248.35c.105.08.21.147.34.187.13.04.26.053.404.053.183 0 .353-.026.484-.08.13-.054.26-.12.391-.215v.108c0 .04.014.067.04.094.026.026.052.04.091.04h.705c.04 0 .066-.014.092-.04a.124.124 0 0 0 .039-.094v-2.306h-.013Zm-3.356 2.32v-.497c0-.067-.04-.107-.131-.107h-.3c-.092 0-.157-.014-.17-.054-.026-.04-.026-.12-.026-.255v-1.877h.509c.04 0 .065-.013.091-.04a.123.123 0 0 0 .04-.094v-.523a.123.123 0 0 0-.04-.094.118.118 0 0 0-.091-.04h-.51v-.684c0-.04-.012-.067-.025-.08a.182.182 0 0 0-.079-.027h-.013l-.757.134c-.04.014-.066.027-.092.04-.026.027-.039.054-.039.08v.524h-.51a.117.117 0 0 0-.09.04.124.124 0 0 0-.04.094v.429c0 .04.014.067.04.08.026.027.052.04.09.054l.51.08v1.877c0 .229.026.416.066.564a.898.898 0 0 0 .195.335c.079.08.196.134.327.16.13.028.287.041.457.041.091 0 .17 0 .248-.013.065-.014.157-.027.248-.04.052 0 .092-.04.092-.108Zm-2.743-.014v-2.145a2.79 2.79 0 0 0-.052-.577 1.33 1.33 0 0 0-.17-.47.767.767 0 0 0-.34-.308c-.143-.08-.326-.12-.56-.12-.197 0-.38.026-.536.08a1.814 1.814 0 0 0-.496.268v-.16a.123.123 0 0 0-.04-.095.117.117 0 0 0-.091-.04H18.1a.117.117 0 0 0-.092.04.123.123 0 0 0-.039.094v3.433c0 .04.013.067.04.094.025.026.052.04.09.04h.758c.04 0 .066-.014.092-.04a.123.123 0 0 0 .039-.094V20.68c.104-.054.209-.108.313-.148a.727.727 0 0 1 .287-.053c.092 0 .17.013.235.026.066.014.105.054.144.094.04.054.053.107.066.188.013.08.013.174.013.282v2.145c0 .04.012.067.039.094.026.026.052.04.091.04h.758c.039 0 .065-.014.091-.04.052-.027.065-.067.065-.094Zm-4.753-1.488c0 .522-.183.79-.562.79-.183 0-.326-.066-.418-.2-.091-.135-.143-.336-.143-.59v-.456c0-.269.052-.456.143-.59.092-.134.235-.201.418-.201.366 0 .562.268.562.79v.457Zm1.018-.456c0-.255-.039-.497-.104-.698a1.47 1.47 0 0 0-.3-.523c-.131-.147-.3-.254-.497-.335a1.764 1.764 0 0 0-.679-.12c-.261 0-.483.04-.679.12-.196.08-.366.188-.496.335a1.47 1.47 0 0 0-.3.523 2.292 2.292 0 0 0-.105.698v.456c0 .254.04.496.105.697.065.2.17.375.3.523.13.147.3.254.496.335.196.08.418.12.68.12.26 0 .482-.04.678-.12.196-.08.366-.188.497-.335.13-.148.235-.322.3-.523s.104-.443.104-.697v-.456Zm-3.5 1.89v-.576c0-.04-.013-.067-.039-.08a.185.185 0 0 0-.091-.028h-.013a3.133 3.133 0 0 1-.34.027c-.104 0-.248.014-.43.014a.497.497 0 0 1-.366-.16.52.52 0 0 1-.105-.23 1.384 1.384 0 0 1-.039-.361v-.537c0-.147.013-.268.04-.362a.728.728 0 0 1 .104-.227.496.496 0 0 1 .365-.162c.183 0 .327 0 .431.014.105.013.222.013.34.027h.013c.04 0 .065-.014.091-.027.026-.014.04-.04.04-.08v-.577c0-.054-.014-.08-.027-.094-.026-.013-.052-.04-.104-.054-.091-.026-.196-.04-.34-.067-.143-.026-.3-.026-.496-.026-.444 0-.796.134-1.07.415-.262.282-.405.684-.405 1.22v.537c0 .523.13.938.404 1.22.261.281.627.415 1.071.415.183 0 .353-.013.496-.026.144-.027.249-.04.34-.067a.195.195 0 0 0 .104-.054c.027-.013.027-.054.027-.094Zm-3.081.054v-2.145c0-.202-.013-.39-.053-.577a1.33 1.33 0 0 0-.17-.47.766.766 0 0 0-.339-.308c-.143-.08-.326-.12-.561-.12a1.67 1.67 0 0 0-.536.08 1.815 1.815 0 0 0-.496.268v-.16a.123.123 0 0 0-.04-.095.117.117 0 0 0-.09-.04h-.706a.117.117 0 0 0-.091.04.123.123 0 0 0-.04.094v3.433c0 .04.014.067.04.094.026.026.052.04.091.04h.758c.039 0 .065-.014.091-.04a.123.123 0 0 0 .04-.094V20.68c.104-.054.208-.108.313-.148a.726.726 0 0 1 .287-.053c.091 0 .17.013.235.026.065.014.104.054.144.094.039.054.052.107.065.188.013.08.013.174.013.282v2.145c0 .04.013.067.04.094.025.026.051.04.09.04h.758c.04 0 .065-.014.091-.04.04-.027.066-.067.066-.094Zm-4.858-.738a1.37 1.37 0 0 1-.248.094.97.97 0 0 1-.275.04c-.13 0-.235-.013-.3-.053s-.091-.12-.091-.268v-.054c0-.08.013-.148.026-.201a.349.349 0 0 1 .091-.148c.04-.04.105-.067.17-.094.065-.013.157-.026.274-.026h.353v.71Zm1.005-1.568c0-.242-.039-.443-.104-.604a1.119 1.119 0 0 0-.288-.402 1.058 1.058 0 0 0-.457-.228 2.2 2.2 0 0 0-.613-.08c-.21 0-.418.013-.614.04a2.661 2.661 0 0 0-.47.094c-.079.026-.118.067-.118.147v.523c0 .04.013.067.026.094.026.013.053.027.079.027h.026c.052 0 .117-.014.183-.014.078 0 .156-.013.26-.013.092 0 .197-.014.301-.014h.3c.144 0 .262.027.34.081.078.054.13.174.13.362v.228h-.339c-.535 0-.94.08-1.175.255-.235.174-.366.456-.366.831v.053c0 .215.026.39.092.523a.98.98 0 0 0 .248.35c.104.08.209.147.34.187.13.04.26.053.404.053.183 0 .353-.026.483-.08.13-.054.261-.12.392-.215v.108c0 .04.013.067.04.094.025.026.051.04.09.04h.706c.039 0 .065-.014.091-.04a.123.123 0 0 0 .04-.094v-2.306H6.92ZM2.43 21.927a.516.516 0 0 1-.183.415c-.117.094-.352.148-.666.148h-.522v-1.207h.705c.248 0 .43.054.522.174.092.121.144.255.144.402v.068Zm-.026-1.918c0 .067-.013.134-.026.201a.343.343 0 0 1-.105.161.684.684 0 0 1-.196.108.994.994 0 0 1-.313.04h-.705v-1.113h.483c.326 0 .548.04.679.12.13.081.196.215.196.39v.093h-.013Zm1.07 1.85c0-.227-.052-.415-.156-.576a1.002 1.002 0 0 0-.405-.375c.17-.08.3-.215.392-.376a1.2 1.2 0 0 0 .144-.563v-.12c0-.255-.053-.47-.144-.644a1.11 1.11 0 0 0-.405-.416c-.17-.107-.379-.174-.627-.228a4.956 4.956 0 0 0-.81-.067H1.15c-.104 0-.209.014-.313.014-.105 0-.196.013-.288.026-.09.014-.156.014-.208.027-.118.027-.21.054-.262.12-.052.054-.078.162-.078.31v3.914c0 .148.026.242.078.309a.533.533 0 0 0 .262.12c.065.014.143.027.222.027.09.014.182.014.287.027.104 0 .209.013.313.013h.327c.274 0 .535-.026.77-.067.235-.04.457-.12.627-.227.183-.108.313-.255.431-.443.104-.188.157-.429.157-.71v-.095Z"/>
</svg>
