<svg xmlns="http://www.w3.org/2000/svg" width="32" height="24" fill="none" viewBox="0 0 32 24">
    <g clip-path="url(#bancomat_32_svg__a)">
        <rect width="31" height="23" x=".5" y=".5" fill="#fff" stroke="#ccc" rx="3.5"/>
        <path fill="#41b6e6" d="M7.01 14.484c-.801 1.542-1.575 3.147-2.088 4.448H5.99q.182-.51.378-1.014a4.781 4.781 0 0 1 1.11-.001c0 .367-.023.71-.04 1.015h1.056c0-1.491-.093-2.966-.252-4.448zm.117 2.467c-.13 0-.246.005-.372.014.188-.44.395-.899.619-1.356h.05c.036.457.06.914.06 1.356a5 5 0 0 0-.357-.014M17.898 14.414c-1.556 0-2.112 1.727-2.112 2.864S16.346 19 17.246 19c1.555 0 2.094-1.732 2.094-2.87 0-1.136-.543-1.716-1.442-1.716m-.56 3.648c-.321 0-.534-.256-.534-.78 0-.583.262-1.93 1.003-1.93.319 0 .534.249.534.774 0 .582-.264 1.937-1.003 1.937M22.514 14.484c-.363.577-.874 1.68-1.047 2.34h-.05a6 6 0 0 0 .052-.827c0-.55-.051-1.14-.132-1.513h-1.342l-.919 4.448h.942l.686-3.321h.046c.017.322.028.647.028.933-.001.486-.036.934-.093 1.375h1.094c.232-.77.573-1.54.932-2.308h.046l-.686 3.32h.942l.912-4.447zM4.638 16.594l.007-.044c.594-.175.861-.59.861-1.093 0-.584-.363-.973-1.093-.973H2.919L2 18.932h1.791c.938 0 1.435-.755 1.435-1.43 0-.396-.17-.759-.588-.908m-.977 1.448h-.5l.197-.95h.386c.39 0 .534.139.534.4 0 .341-.247.55-.617.55m.262-1.778h-.395l.183-.892h.358c.217 0 .409.085.409.38 0 .328-.236.512-.555.512M15.78 16.174q.02-.164.02-.321c0-.804-.375-1.439-1.317-1.439-1.555 0-2.14 1.727-2.14 2.876S12.909 19 13.788 19c1.145 0 1.746-.988 1.795-1.767H14.6c-.068.448-.293.83-.7.83-.327 0-.56-.25-.56-.78 0-.577.272-1.931 1.037-1.931.338 0 .428.263.428.545 0 .093-.009.19-.022.277h.998M27.138 14.484l-.203.994c.32-.037.658-.062.951-.076l-.73 3.53h.99l.729-3.53c.287.014.615.04.92.076l.205-.994zM11.683 14.484l-.685 3.327h-.053c.04-.42.074-.97.074-1.578 0-.607-.035-1.28-.11-1.749H9.555l-.919 4.448h.932l.684-3.325h.054c-.04.42-.074.97-.074 1.578s.034 1.277.11 1.747H11.7l.916-4.448zM25.24 14.484c-.802 1.542-1.575 3.147-2.089 4.448h1.067q.183-.51.378-1.014a4.78 4.78 0 0 1 1.11-.001c0 .367-.023.71-.04 1.015h1.056c0-1.491-.093-2.966-.251-4.448zm.116 2.467c-.13 0-.246.005-.371.014.187-.44.394-.899.618-1.356h.051c.035.457.058.914.058 1.356a5 5 0 0 0-.356-.014M20.119 7.484l-.747.001-.014-.065c1.03-.32 1.445-.98 1.445-1.744 0-.982-.683-1.675-1.81-1.676h-2.428l-.816 1.528h2c.565 0 1.062.155 1.062.854 0 .834-.709 1.106-1.433 1.106h-2.676l-.83 1.555h2.585c.9 0 1.129.423 1.129.918 0 .631-.373 1.19-1.377 1.19h-3.462L11.76 13h4.898c1.97 0 2.962-.99 2.962-2.332 0-.906-.453-1.37-1.096-1.561l.017-.07 2.979-.001v-.147c0-.836-.434-1.406-1.401-1.405"/>
    </g>
    <defs>
        <clipPath id="bancomat_32_svg__a">
            <rect width="32" height="24" fill="#fff" rx="4"/>
        </clipPath>
    </defs>
</svg>
