<svg xmlns="http://www.w3.org/2000/svg" width="32" height="24" fill="none" viewBox="0 0 32 24">
    <rect width="31" height="23" x=".5" y=".5" fill="#fff" stroke="#ccc" rx="3.5"/>
    <path fill="#41b6e6" d="m21.56 10.194-1.3.002-.025-.117c1.794-.568 2.516-1.741 2.516-3.1 0-1.745-1.19-2.977-3.153-2.979h-4.229l-1.42 2.717h3.482c.984 0 1.851.274 1.851 1.517 0 1.483-1.235 1.967-2.497 1.967h-4.66l-1.446 2.765h4.502c1.566 0 1.967.751 1.967 1.632 0 1.122-.65 2.114-2.399 2.114H8.72L7 20h8.531c3.432 0 5.159-1.76 5.159-4.145 0-1.612-.789-2.435-1.908-2.777l.029-.124L24 12.953v-.26c0-1.487-.755-2.5-2.44-2.499"/>
</svg>
