<svg xmlns="http://www.w3.org/2000/svg" width="24" height="24" fill="none" viewBox="0 0 24 24">
    <path fill="currentColor" d="M14.349 3.635a1 1 0 0 1 1.367.364l3.51 6.063H21.5a1 1 0 1 1 0 2h-.536l-1.435 6.165-.002-.001a2.87 2.87 0 0 1-1.027 1.648 2.9 2.9 0 0 1-1.845.624v.002h-9.31v-.002a2.9 2.9 0 0 1-1.845-.624 2.87 2.87 0 0 1-1.032-1.661l-1.348-6.15H2.5a1 1 0 0 1 0-2h2.273l3.511-6.064a1 1 0 0 1 1.732 1.002l-2.931 5.062h9.83L13.985 5a1 1 0 0 1 .364-1.366m-7.927 14.15.003.012h-.001c.04.197.151.378.315.508.165.13.372.2.586.195h1.656l-.25-2.219h-2.64zm8.597.715h1.656a.92.92 0 0 0 .586-.195.87.87 0 0 0 .315-.508l.005-.024.348-1.492h-2.66zm-4.025 0h2.012l.25-2.219h-2.512zm4.5-4.219h2.9l.517-2.219h-3.167zm-4.975 0h2.962l.25-2.219H10.27zm-4.866 0h2.853l-.25-2.219H5.167z"/>
</svg>
