<svg xmlns="http://www.w3.org/2000/svg" width="16" height="16" fill="none" viewBox="0 0 16 16">
    <path fill="currentColor" d="M.75 10.667V5.333c0-.548.214-1.076.599-1.468s.91-.615 1.46-.615h1.31a.75.75 0 1 1 0 1.5h-1.31a.55.55 0 0 0-.39.166.6.6 0 0 0-.169.417v5.334c0 .159.063.309.169.417a.55.55 0 0 0 .39.166h1.31a.75.75 0 0 1 0 1.5h-1.31c-.55 0-1.075-.223-1.46-.615a2.1 2.1 0 0 1-.599-1.468m10.473 0V5.333a.6.6 0 0 0-.17-.417.55.55 0 0 0-.389-.166h-1.31a.75.75 0 0 1 0-1.5h1.31c.55 0 1.075.223 1.46.615.384.392.599.92.599 1.468v5.334c0 .548-.215 1.076-.599 1.468-.385.392-.91.615-1.46.615h-1.31a.75.75 0 0 1 0-1.5h1.31a.55.55 0 0 0 .39-.166.6.6 0 0 0 .169-.417m-4.48-.084a.75.75 0 0 1 0 1.5h-.007a.75.75 0 0 1 0-1.5zm7.098-1.25V6.667a.75.75 0 0 1 1.5 0v2.666a.75.75 0 0 1-1.5 0m-7.855-.666v-4a.75.75 0 0 1 1.5 0v4a.75.75 0 0 1-1.5 0"/>
</svg>
