<svg width="24" height="24" viewBox="0 0 24 24" fill="none" xmlns="http://www.w3.org/2000/svg">
<path fill-rule="evenodd" clip-rule="evenodd" d="M17 4H4C3.20435 4 2.44129 4.31607 1.87868 4.87868C1.31607 5.44129 1 6.20435 1 7V17C1 17.7956 1.31607 18.5587 1.87868 19.1213C2.44129 19.6839 3.20435 20 4 20H17C17.7956 20 18.5587 19.6839 19.1213 19.1213C19.6839 18.5587 20 17.7956 20 17V7C20 6.20435 19.6839 5.44129 19.1213 4.87868C18.5587 4.31607 17.7956 4 17 4ZM21 10C21 9.73478 21.1054 9.48043 21.2929 9.29289C21.4804 9.10536 21.7348 9 22 9C22.2652 9 22.5196 9.10536 22.7071 9.29289C22.8946 9.48043 23 9.73478 23 10V14C23 14.2652 22.8946 14.5196 22.7071 14.7071C22.5196 14.8946 22.2652 15 22 15C21.7348 15 21.4804 14.8946 21.2929 14.7071C21.1054 14.5196 21 14.2652 21 14V10ZM9.5 8C9.5 7.44772 9.94771 7 10.5 7C11.0523 7 11.5 7.44772 11.5 8V12C11.5 12.5523 11.0523 13 10.5 13C9.94771 13 9.5 12.5523 9.5 12V8ZM10.5 17C11.1904 17 11.75 16.4404 11.75 15.75C11.75 15.0596 11.1904 14.5 10.5 14.5C9.80964 14.5 9.25 15.0596 9.25 15.75C9.25 16.4404 9.80964 17 10.5 17Z" fill="black"/>
</svg>
