<svg xmlns="http://www.w3.org/2000/svg" width="24" height="24" fill="none" viewBox="0 0 24 24">
    <path fill="currentColor" d="M2 15.667V8.333c0-.745.29-1.464.813-1.997A2.78 2.78 0 0 1 4.8 5.5h1.8a1 1 0 0 1 0 2H4.8a.78.78 0 0 0-.559.237.85.85 0 0 0-.241.596v7.334c0 .227.09.44.241.596a.78.78 0 0 0 .559.237h1.8a1 1 0 1 1 0 2H4.8a2.78 2.78 0 0 1-1.987-.836A2.85 2.85 0 0 1 2 15.667m14.4 0V8.333c0-.227-.089-.44-.24-.596a.79.79 0 0 0-.56-.237h-1.8a1 1 0 0 1 0-2h1.8c.748 0 1.462.303 1.986.836.523.533.814 1.252.814 1.997v7.334c0 .746-.291 1.464-.814 1.997a2.79 2.79 0 0 1-1.986.836h-1.8a1 1 0 0 1 0-2h1.8a.79.79 0 0 0 .56-.237.85.85 0 0 0 .24-.596m-6.191-.084a1 1 0 0 1 0 2H10.2a1 1 0 1 1 0-2zM20 13.833v-3.666a1 1 0 1 1 2 0v3.666a1 1 0 1 1-2 0m-10.8-.916v-5.5a1 1 0 1 1 2 0v5.5a1 1 0 0 1-2 0"/>
</svg>
