<svg width="16" height="16" viewBox="0 0 16 16" fill="none" xmlns="http://www.w3.org/2000/svg">
<path fill-rule="evenodd" clip-rule="evenodd" d="M0 5C0 3.34315 1.34315 2 3 2H10C11.6569 2 13 3.34315 13 5V11C13 12.6569 11.6569 14 10 14H3C1.34315 14 0 12.6569 0 11V5ZM15 6C14.4477 6 14 6.44772 14 7V9C14 9.55228 14.4477 10 15 10C15.5523 10 16 9.55228 16 9V7C16 6.44772 15.5523 6 15 6ZM5.5 5C5.5 4.44772 5.94772 4 6.5 4C7.05228 4 7.5 4.44772 7.5 5V7.5C7.5 8.05229 7.05228 8.5 6.5 8.5C5.94772 8.5 5.5 8.05229 5.5 7.5V5ZM6.5 12C7.19036 12 7.75 11.4404 7.75 10.75C7.75 10.0596 7.19036 9.5 6.5 9.5C5.80964 9.5 5.25 10.0596 5.25 10.75C5.25 11.4404 5.80964 12 6.5 12Z" fill="black"/>
</svg>
