<svg width="16" height="16" viewBox="0 0 16 16" fill="none" xmlns="http://www.w3.org/2000/svg">
<path fill-rule="evenodd" clip-rule="evenodd" d="M0 5C0 3.34315 1.34315 2 3 2H10C11.6569 2 13 3.34315 13 5V11C13 12.6569 11.6569 14 10 14H3C1.34315 14 0 12.6569 0 11V5ZM3.19495 7.805L6.21296 4.78699C6.71498 4.28498 7.55923 4.76298 7.38704 5.45174L6.99998 6.99998H9.31003C9.93366 6.99998 10.246 7.75398 9.805 8.19495L6.78699 11.213C6.28498 11.715 5.44073 11.237 5.61292 10.5482L5.99998 8.99998H3.68993C3.06629 8.99998 2.75398 8.24598 3.19495 7.805Z" fill="black"/>
<path d="M15 6C14.4477 6 14 6.44772 14 7V9C14 9.55228 14.4477 10 15 10C15.5523 10 16 9.55228 16 9V7C16 6.44772 15.5523 6 15 6Z" fill="black"/>
</svg>
