<svg width="16" height="16" viewBox="0 0 16 16" fill="none" xmlns="http://www.w3.org/2000/svg">

  <path fill-rule="evenodd" clip-rule="evenodd"
    d="M7.61738 0.0761497C7.99105 -0.0786313 8.42117 0.00692445 8.70717 0.292922L12.7072 4.29292C12.9122 4.49791 13.0181 4.78176 12.9975 5.07092C12.977 5.36008 12.832 5.62609 12.6001 5.80003L9.66673 8.00003L12.6001 10.2C12.832 10.374 12.977 10.64 12.9975 10.9291C13.0181 11.2183 12.9122 11.5022 12.7072 11.7071L8.70717 15.7071C8.42117 15.9931 7.99105 16.0787 7.61738 15.9239C7.2437 15.7691 7.00006 15.4045 7.00006 15V10L4.60006 11.8C4.15823 12.1314 3.53143 12.0419 3.20006 11.6C2.86869 11.1582 2.95823 10.5314 3.40006 10.2L6.33339 8.00003L3.40006 5.80003C2.95823 5.46866 2.86869 4.84186 3.20006 4.40003C3.53143 3.9582 4.15823 3.86866 4.60006 4.20003L7.00006 6.00003V1.00003C7.00006 0.595567 7.2437 0.230931 7.61738 0.0761497ZM9.00006 10L10.4777 11.1082L9.00006 12.5858V10ZM9.00006 6.00003V3.41424L10.4777 4.89183L9.00006 6.00003Z"
    fill="currentColor" />

</svg>
