<svg width="24" height="24" viewBox="0 0 24 24" fill="none" xmlns="http://www.w3.org/2000/svg">
    <path d="M15.79 3.383h.526V20.39h-.527l.001-17.007Zm-1 0h.429v12.219h-.43l.001-12.219Zm-2.11 0h.433v12.219h-.433V3.383Zm.89 0h.336v12.219h-.336V3.383Zm-3.023 0h.433v12.219h-.433V3.383Zm-2.871 0h.433v12.219h-.433V3.383Zm-.84 0h.215v12.219h-.215V3.383Zm-2.059 0h.215v12.219h-.215V3.383Zm4.766 0h.219v12.219h-.219V3.383Zm-3.833 0h.747v12.219h-.746L5.71 3.383Zm5.509 0h.742v12.219h-.746V3.382l.004.001Zm-7.688 0h.434v12.219H3.53l.001-12.219Zm-1.152 0h.625v12.219h-.625V3.383Zm-1.172 0h.434v12.219h-.434V3.383Zm-1.148 0H.73v12.219H.06L.059 3.383Zm8.429 0h.434v12.219h-.434V3.383Zm15.297 0H24V20.39h-.215V3.383Zm-2.062 0h.218V20.39h-.218V3.383Zm.937 0h.738V20.39h-.742V3.383h.004Zm-2.18 0h.43V20.39h-.43V3.383Zm-1.152 0h.625V20.39h-.625V3.383Zm-1.172 0h.434V20.39h-.434V3.383Zm-1.148 0h.672V20.39h-.672V3.383ZM.569 18.881v1.313h.781c.258 0 .453-.051.578-.156.125-.102.188-.27.188-.5 0-.22-.063-.38-.188-.485-.125-.113-.32-.172-.578-.172H.569Zm0-1.468v1.078h.719c.238 0 .414-.04.53-.125a.495.495 0 0 0 .173-.407c0-.187-.059-.32-.172-.406-.117-.094-.293-.14-.531-.14H.569Zm-.485-.407H1.32c.375 0 .66.078.86.235.194.156.296.375.296.656a.86.86 0 0 1-.156.531c-.094.125-.242.203-.438.235a.99.99 0 0 1 .547.328.91.91 0 0 1 .202.609c0 .313-.11.559-.328.734-.219.18-.531.266-.937.266H.084v-3.594ZM13.8 18.225a.679.679 0 0 0-.563.281c-.136.18-.203.43-.203.75 0 .324.067.578.204.766.144.18.332.265.562.265a.664.664 0 0 0 .563-.265c.144-.188.218-.442.218-.766 0-.32-.074-.57-.219-.75a.659.659 0 0 0-.562-.281Zm0-.375c.383 0 .688.125.906.375.219.25.328.594.328 1.031 0 .438-.109.782-.328 1.032-.219.25-.523.374-.906.374-.387 0-.688-.124-.906-.374-.219-.251-.328-.594-.328-1.033 0-.437.109-.781.328-1.031.219-.25.52-.375.906-.375v.001ZM6.469 16.866h.437V20.6H6.47l-.001-3.734ZM10.166 19.147v.219H8.134c.02.304.11.53.266.687.164.156.395.235.688.235.34.002.673-.084.969-.25v.421a2.022 2.022 0 0 1-.485.157 2.74 2.74 0 0 1-.5.046c-.43.001-.774-.123-1.032-.373-.25-.25-.375-.583-.375-1 0-.446.117-.797.359-1.047.238-.258.563-.391.969-.391.363 0 .648.117.86.344.206.23.312.547.312.953l.001-.001Zm-.438-.14c-.012-.239-.086-.427-.219-.563a.646.646 0 0 0-.515-.219c-.25 0-.45.07-.594.203-.148.137-.23.336-.25.594l1.578-.015ZM11.306 17.147v.765h.906v.344h-.906v1.454c0 .22.024.36.078.422.063.063.188.094.375.094h.454v.374h-.454c-.343 0-.586-.063-.718-.188-.125-.123-.188-.358-.188-.702v-1.453h-.328v-.344h.328v-.765l.453-.001ZM4.5 18.225a.679.679 0 0 0-.563.281c-.136.18-.203.43-.203.75 0 .324.067.578.204.766.144.18.332.265.562.265a.665.665 0 0 0 .563-.265c.144-.188.218-.442.218-.766 0-.32-.074-.57-.219-.75a.66.66 0 0 0-.562-.281Zm0-.375c.383 0 .688.125.906.375.219.25.328.594.328 1.031 0 .438-.109.782-.328 1.032-.219.25-.523.374-.906.374-.387 0-.688-.124-.906-.374-.219-.251-.328-.594-.328-1.033 0-.437.109-.781.328-1.031.219-.25.52-.375.906-.375v.001Z" fill="#000"/>
</svg>
