<svg xmlns="http://www.w3.org/2000/svg" xmlns:xlink="http://www.w3.org/1999/xlink" width="24" height="24">
    <defs>
        <symbol overflow="visible" id="boleto_24_svg__a">
            <path style="stroke:none" d="M.969-1.719v1.313h.781c.258 0 .453-.051.578-.156.125-.102.188-.27.188-.5 0-.22-.063-.38-.188-.485-.125-.113-.32-.172-.578-.172Zm0-1.468v1.078h.719c.238 0 .414-.04.53-.125a.495.495 0 0 0 .173-.407c0-.187-.059-.32-.172-.406-.117-.094-.293-.14-.531-.14Zm-.485-.407H1.72c.375 0 .66.078.86.235.194.156.296.375.296.656a.859.859 0 0 1-.156.531c-.094.125-.242.203-.438.235a.99.99 0 0 1 .547.328.91.91 0 0 1 .202.609c0 .313-.11.559-.328.734-.219.18-.531.266-.937.266H.484Zm0 0"/>
        </symbol>
        <symbol overflow="visible" id="boleto_24_svg__b">
            <path style="stroke:none" d="M1.5-2.375a.678.678 0 0 0-.563.281c-.136.18-.203.43-.203.75 0 .324.067.578.204.766.144.18.332.265.562.265a.665.665 0 0 0 .563-.265c.144-.188.218-.442.218-.766 0-.32-.074-.57-.219-.75a.659.659 0 0 0-.562-.281Zm0-.375c.383 0 .688.125.906.375.219.25.328.594.328 1.031 0 .438-.109.782-.328 1.032-.219.25-.523.374-.906.374-.387 0-.688-.124-.906-.374C.375-.563.266-.906.266-1.345c0-.437.109-.781.328-1.031.219-.25.52-.375.906-.375Zm0 0"/>
        </symbol>
        <symbol overflow="visible" id="boleto_24_svg__c">
            <path style="stroke:none" d="M.469-3.734h.437V0H.47Zm0 0"/>
        </symbol>
        <symbol overflow="visible" id="boleto_24_svg__d">
            <path style="stroke:none" d="M2.766-1.453v.219H.734c.02.304.11.53.266.687.164.156.395.235.688.235a1.959 1.959 0 0 0 .969-.25v.421a2.02 2.02 0 0 1-.485.157 2.74 2.74 0 0 1-.5.046C1.242.063.898-.061.64-.311c-.25-.25-.375-.583-.375-1 0-.446.117-.797.359-1.047.238-.258.563-.391.969-.391.363 0 .648.117.86.344.206.23.312.547.312.953Zm-.438-.14c-.012-.239-.086-.427-.219-.563a.647.647 0 0 0-.515-.219c-.25 0-.45.07-.594.203-.148.137-.23.336-.25.594Zm0 0"/>
        </symbol>
        <symbol overflow="visible" id="boleto_24_svg__e">
            <path style="stroke:none" d="M.906-3.453v.765h.906v.344H.906V-.89c0 .22.024.36.078.422.063.063.188.094.375.094h.454V0h-.454C1.016 0 .773-.063.641-.188.516-.311.453-.546.453-.89v-1.453H.125v-.344h.328v-.765Zm0 0"/>
        </symbol>
    </defs>
    <path style="stroke:none;fill-rule:nonzero;fill:#000;fill-opacity:1" d="M15.79 3.383h.526V20.39h-.527Zm-1 0h.429v12.219h-.43Zm-2.11 0h.433v12.219h-.433Zm.89 0h.336v12.219h-.336Zm-3.023 0h.433v12.219h-.433Zm-2.871 0h.433v12.219h-.433Zm-.84 0h.215v12.219h-.215Zm-2.059 0h.215v12.219h-.215Zm4.766 0h.219v12.219h-.219Zm-3.833 0h.747v12.219h-.746Zm5.509 0h.742v12.219h-.746V3.382Zm-7.688 0h.434v12.219H3.53Zm-1.152 0h.625v12.219h-.625Zm-1.172 0h.434v12.219h-.434Zm-1.148 0H.73v12.219H.06Zm8.429 0h.434v12.219h-.434Zm15.297 0H24V20.39h-.215Zm-2.062 0h.218V20.39h-.218Zm.937 0h.738V20.39h-.742V3.383Zm-2.18 0h.43V20.39h-.43Zm-1.152 0h.625V20.39h-.625Zm-1.172 0h.434V20.39h-.434Zm-1.148 0h.672V20.39h-.672Zm0 0"/>
    <g style="fill:#000;fill-opacity:1">
        <use xlink:href="#boleto_24_svg__a" x="-.336" y="20.554"/>
        <use xlink:href="#boleto_24_svg__b" x="3.041" y="20.554"/>
        <use xlink:href="#boleto_24_svg__c" x="6.053" y="20.554"/>
        <use xlink:href="#boleto_24_svg__d" x="7.421" y="20.554"/>
        <use xlink:href="#boleto_24_svg__e" x="10.45" y="20.554"/>
        <use xlink:href="#boleto_24_svg__b" x="12.38" y="20.554"/>
    </g>
</svg>
