<svg xmlns="http://www.w3.org/2000/svg" width="32" height="24" fill="none" viewBox="0 0 32 24">
    <g clip-path="url(#boleto_32_svg__a)">
        <rect width="32" height="24" fill="#fff" rx="4"/>
        <rect width="31" height="23" x=".5" y=".5" fill="#fff" stroke="#ccc" rx="3.5"/>
        <g clip-path="url(#boleto_32_svg__b)">
            <path fill="#231f20" d="M4.812 6.142v10.543h-.625V6.142zm.493 0v10.543h-.349V6.142zm22.522 0v10.543h-.625V6.142zm-15.46 6.382q.796 0 1.304.523.506.521.507 1.442 0 .745-.224 1.173a1.6 1.6 0 0 1-.653.665 1.9 1.9 0 0 1-.935.236q-.813 0-1.315-.52t-.502-1.5q0-1.072.599-1.59.5-.429 1.218-.429m5.828 0q.775 0 1.266.528.49.528.491 1.485 0 .059-.004.175h-2.886q.037.636.362.976.323.337.807.337.36.001.615-.19.255-.19.404-.608l.68.09q-.16.591-.592.92-.433.325-1.107.327-.847 0-1.344-.523-.496-.522-.496-1.465 0-.975.502-1.514.502-.538 1.302-.538m6.21 0q.796 0 1.305.523.506.521.507 1.442 0 .745-.224 1.173a1.6 1.6 0 0 1-.654.665 1.9 1.9 0 0 1-.934.236q-.813 0-1.315-.52t-.502-1.5q0-1.072.598-1.59.5-.429 1.22-.429m-2.877.082h.658v.508h-.658v2.27q0 .28.036.362.033.08.112.128a.44.44 0 0 0 .223.047q.108 0 .287-.025l.09.58q-.277.057-.495.057-.355 0-.553-.113a.63.63 0 0 1-.277-.297q-.08-.185-.08-.776v-2.233h-.484v-.508h.484v-.958l.657-.395zM7.873 11.135q.612 0 .983.162.37.162.58.5t.21.706q0 .341-.186.645-.185.302-.56.489.486.141.746.485.26.342.26.809 0 .376-.159.699a1.36 1.36 0 0 1-.392.498 1.7 1.7 0 0 1-.584.264q-.353.09-.864.09h-2.04v-5.347zm7.717 0v5.346h-.656v-5.346zm-3.224 1.934q-.494 0-.82.367-.325.368-.325 1.109 0 .743.325 1.111.326.37.82.37.489 0 .815-.37.325-.372.325-1.133 0-.716-.327-1.085a1.04 1.04 0 0 0-.813-.369m12.04 0q-.494 0-.821.367-.325.368-.325 1.109 0 .743.325 1.111.326.37.82.37.488 0 .815-.37.324-.372.325-1.133 0-.716-.327-1.085a1.04 1.04 0 0 0-.813-.369m-17.83.94v1.845h1.332q.343 0 .483-.026.242-.043.408-.145.165-.104.27-.3a.94.94 0 0 0 .106-.451q0-.3-.154-.522a.8.8 0 0 0-.426-.31q-.271-.09-.782-.09zm11.623-.947q-.45 0-.76.302-.305.303-.34.81h2.159q-.044-.489-.248-.733a1 1 0 0 0-.81-.38m-11.623-1.3v1.62h1.156q.472 0 .675-.062a.75.75 0 0 0 .407-.267.77.77 0 0 0 .137-.468.86.86 0 0 0-.128-.469.65.65 0 0 0-.365-.28q-.238-.073-.812-.073zm.362-5.62v4.657H5.813V6.142zm.704 0v4.657h-.349V6.142zm.93 0v4.657h-.626V6.142zm.95 0v4.657h-.35V6.142zm.42 0v4.657h-.268V6.142zm.865 0v4.657h-.625V6.142zm.493 0v4.657h-.349V6.142zm1.634 0v4.657h-1.126V6.142zm.703 0v4.657h-.349V6.142zm.93 0v4.657h-.626V6.142zm.95 0v4.657h-.349V6.142zm.42 0v4.657h-.268V6.142zm1.068 0v4.657h-.625V6.142zm.951 0v4.657h-.349V6.142zm.42 0v4.657h-.269V6.142zm.864 0v4.657h-.624V6.142zm.494 0v4.657h-.348V6.142zm.813 0v4.657h-.349V6.142zm.42 0v4.657h-.269V6.142zm.864 0v4.657h-.624V6.142zm.494 0v4.657h-.348V6.142zm1.43 0v4.657H22.63V6.142zm.704 0v4.657h-.349V6.142zm.929 0v4.657h-.625V6.142zm.95 0v4.657h-.348V6.142zm.422 0v4.657h-.269V6.142z"/>
        </g>
    </g>
    <defs>
        <clipPath id="boleto_32_svg__a">
            <rect width="32" height="24" fill="#fff" rx="4"/>
        </clipPath>
        <clipPath id="boleto_32_svg__b">
            <path fill="#fff" d="M4 6h24v10.759H4z"/>
        </clipPath>
    </defs>
</svg>
