<svg xmlns="http://www.w3.org/2000/svg" width="36" height="24" fill="none" viewBox="0 0 36 24">
    <path fill="#231F20" d="M3.314 4v6.628h1.602V4zM5.42 4v6.628h.497V4zM6.35 4v6.628h.889V4zM8.096 4v6.628h.496V4zM8.808 4v6.628h.383V4zM9.531 4v6.628h.889V4zM10.626 4v6.628h.497V4zM11.845 4v6.628h1.602V4zM13.952 4v6.628h.496V4zM14.881 4v6.628h.89V4zM16.627 4v6.628h.496V4zM17.34 4v6.628h.382V4zM18.351 4v6.628h.89V4zM20.097 4v6.628h.497V4zM20.81 4v6.628h.382V4zM21.533 4v6.628h.889V4zM22.628 4v6.628h.497V4zM23.784 4v6.628h.497V4zM24.497 4v6.628h.383V4zM25.22 4v6.628h.889V4zM26.315 4v6.628h.496V4zM27.244 4v6.628h1.603V4zM29.351 4v6.628h.497V4zM30.28 4v6.628h.89V4zM32.026 4v6.628h.496V4zM32.739 4v6.628h.383V4zM1.889 4H1v15.003h.889zM2.095 4h.497v15.003h-.497zM34.64 4h-.889v15.003h.89z"/>
    <path fill="#231F20" fill-rule="evenodd" d="M10.054 15.957q0-1.528.851-2.263.71-.611 1.734-.611 1.134 0 1.858.744.72.742.72 2.052 0 1.062-.318 1.67-.32.608-.93.946a2.7 2.7 0 0 1-1.33.336q-1.157 0-1.872-.74-.713-.742-.713-2.134m.956.002q0 1.057.462 1.581.464.526 1.167.526.696 0 1.16-.528.462-.528.462-1.61 0-1.02-.465-1.544a1.48 1.48 0 0 0-1.157-.526q-.704 0-1.167.523-.462.524-.462 1.578M3.392 18.714v-7.607h2.854q.871 0 1.4.23.525.23.823.712.3.477.299 1.004 0 .486-.264.917-.262.43-.797.696.691.202 1.06.69.373.487.373 1.152 0 .536-.227.995-.225.459-.558.708-.333.247-.832.376a5 5 0 0 1-1.229.127zm1.009-4.41h1.645q.67 0 .96-.088.385-.114.579-.38.195-.267.195-.667 0-.38-.183-.667a.92.92 0 0 0-.519-.397Q6.742 12 5.923 12H4.401zm0 3.518h1.895q.488 0 .687-.037.346-.061.58-.208a1.1 1.1 0 0 0 .385-.425q.15-.279.15-.643.001-.426-.22-.742a1.15 1.15 0 0 0-.605-.442q-.385-.128-1.112-.128h-1.76z" clip-rule="evenodd"/>
    <path fill="#231F20" d="M16.292 11.106v7.608h.935v-7.608z"/>
    <path fill="#231F20" fill-rule="evenodd" d="m22.436 16.93.967.127q-.226.842-.843 1.308-.615.465-1.574.466-1.206 0-1.913-.744-.707-.742-.707-2.084 0-1.387.714-2.153.715-.768 1.854-.767 1.102 0 1.801.75.7.753.7 2.115 0 .083-.005.248h-4.107q.052.907.513 1.388.46.481 1.15.482.513 0 .874-.27.364-.271.576-.867m-3.06-1.5h3.07q-.061-.694-.352-1.042a1.43 1.43 0 0 0-1.155-.54q-.641 0-1.08.43-.435.43-.483 1.153" clip-rule="evenodd"/>
    <path fill="#231F20" d="m26.74 18.705-.127-.825a3 3 0 0 1-.407.037.63.63 0 0 1-.32-.067.4.4 0 0 1-.159-.183q-.05-.114-.05-.515v-3.23h.936V13.2h-.935v-1.925l-.935.561V13.2h-.69v.722h.69V17.1q0 .842.113 1.105a.9.9 0 0 0 .393.423q.282.162.788.162.31 0 .703-.084"/>
    <path fill="#231F20" fill-rule="evenodd" d="M27.185 15.957q0-1.528.852-2.263.71-.611 1.734-.611 1.134 0 1.857.744.72.742.721 2.052 0 1.062-.319 1.67-.318.608-.93.946a2.7 2.7 0 0 1-1.33.336q-1.157 0-1.871-.74-.715-.742-.714-2.134m.957.002q0 1.057.462 1.581.464.526 1.167.526.695 0 1.16-.528.462-.528.462-1.61 0-1.02-.466-1.544a1.48 1.48 0 0 0-1.156-.526q-.704 0-1.167.523-.462.524-.462 1.578" clip-rule="evenodd"/>
</svg>
