<svg width="32" height="24" viewBox="0 0 32 24" fill="none" xmlns="http://www.w3.org/2000/svg">
    <rect x=".5" y=".5" width="31" height="23" rx="3.5" fill="#fff" stroke="#CCC"/>
    <path fill-rule="evenodd" clip-rule="evenodd" d="M5.81 6.14v4.66h1.13V6.14H5.8Zm1.48 0v4.66h.35V6.14H7.3Zm.66 0v4.66h.62V6.14h-.62Zm1.22 0v4.66h.35V6.14h-.35Zm.5 0v4.66h.27V6.14h-.27Zm.51 0v4.66h.63V6.14h-.63Zm.77 0v4.66h.35V6.14h-.35Zm.86 0v4.66h1.12V6.14h-1.12Zm1.48 0v4.66h.35V6.14h-.35Zm.65 0v4.66h.63V6.14h-.63Zm1.23 0v4.66h.35V6.14h-.35Zm.5 0v4.66h.27V6.14h-.27Zm.71 0v4.66H17V6.14h-.62Zm1.23 0v4.66h.35V6.14h-.35Zm.5 0v4.66h.27V6.14h-.27Zm.5 0v4.66h.63V6.14h-.62Zm.78 0v4.66h.34V6.14h-.34Zm.8 0v4.66h.36V6.14h-.35Zm.5 0v4.66h.28V6.14h-.27Zm.52 0v4.66h.62V6.14h-.62Zm.77 0v4.66h.34V6.14h-.34Zm.65 0v4.66h1.13V6.14h-1.13Zm1.48 0v4.66h.35V6.14h-.35Zm.65 0v4.66h.63V6.14h-.63Zm1.23 0v4.66h.35V6.14h-.35Zm.5 0v4.66h.27V6.14h-.27Zm-21.68 0H4.2v10.54h.62V6.14Zm.15 0h.34v10.54h-.34V6.14Zm22.87 0h-.63v10.54h.63V6.14Zm-17.28 8.4c0-.71.2-1.24.6-1.59a1.8 1.8 0 0 1 1.22-.43c.53 0 .96.18 1.3.53.34.34.5.83.5 1.44 0 .5-.07.89-.22 1.17-.15.29-.36.5-.65.67-.28.16-.6.23-.93.23-.55 0-.98-.17-1.32-.52-.33-.34-.5-.84-.5-1.5Zm.67 0c0 .5.1.87.33 1.12.21.24.49.37.82.37.32 0 .6-.13.81-.37.22-.25.33-.63.33-1.14 0-.47-.11-.84-.33-1.08a1.04 1.04 0 0 0-.81-.37c-.33 0-.6.12-.82.37-.22.24-.33.61-.33 1.1Zm-5.35 1.94v-5.34h2c.41 0 .74.05.99.16.24.1.44.27.58.5a1.29 1.29 0 0 1 .02 1.35c-.12.2-.31.36-.56.49.32.1.57.25.75.48.17.23.26.5.26.81a1.56 1.56 0 0 1-.55 1.2c-.16.11-.36.2-.59.26-.23.06-.52.1-.86.1H5.87Zm.7-3.1h1.16c.32 0 .54-.02.68-.06a.75.75 0 0 0 .4-.27.7.7 0 0 0 .14-.46.85.85 0 0 0-.13-.47.64.64 0 0 0-.36-.28 3.05 3.05 0 0 0-.81-.08H6.58v1.62Zm0 2.47h1.34c.23 0 .39 0 .48-.02.16-.03.3-.08.4-.15.12-.07.2-.17.28-.3.07-.13.1-.28.1-.45a.9.9 0 0 0-.15-.52.8.8 0 0 0-.42-.31 2.62 2.62 0 0 0-.79-.09H6.58v1.84Zm8.36-4.71v5.34h.66v-5.34h-.66Zm4.32 4.09.68.09c-.1.4-.3.7-.6.92a1.8 1.8 0 0 1-1.1.32c-.56 0-1.01-.17-1.34-.52-.33-.35-.5-.83-.5-1.46 0-.65.17-1.16.5-1.52a1.7 1.7 0 0 1 1.3-.54c.52 0 .94.18 1.27.53.33.35.5.85.5 1.49l-.01.17h-2.89c.03.43.15.75.36.98.22.22.49.34.81.34a1 1 0 0 0 .62-.2c.17-.12.3-.32.4-.6Zm-2.15-1.06h2.16a1.31 1.31 0 0 0-.25-.73 1 1 0 0 0-.81-.38c-.3 0-.55.1-.76.3-.2.2-.32.48-.34.81Zm5.18 2.3-.1-.57-.28.02a.44.44 0 0 1-.22-.05.27.27 0 0 1-.12-.12 1.13 1.13 0 0 1-.03-.37v-2.27h.66v-.5h-.66v-1.36l-.66.4v.96h-.48v.5h.48v2.24c0 .4.03.65.08.77.05.13.15.22.28.3.13.08.31.11.55.11.15 0 .31-.02.5-.05Zm.3-1.93c0-.71.2-1.24.6-1.59a1.8 1.8 0 0 1 1.22-.43c.54 0 .97.18 1.31.53.34.34.5.83.5 1.44 0 .5-.07.89-.22 1.17-.15.29-.36.5-.65.67-.29.16-.6.23-.94.23-.54 0-.98-.17-1.31-.52-.34-.34-.5-.84-.5-1.5Zm.68 0c0 .5.1.87.32 1.12a1.09 1.09 0 0 0 1.64 0c.22-.25.32-.63.32-1.14 0-.47-.1-.84-.32-1.08a1.04 1.04 0 0 0-.82-.37c-.32 0-.6.12-.82.37-.21.24-.32.61-.32 1.1Z" fill="#231F20"/>
</svg>
