<svg width="24" height="24" viewBox="0 0 24 24" fill="none" xmlns="http://www.w3.org/2000/svg">
    <path d="M15.79 3.383h.526V20.39h-.527l.001-17.007Zm-1 0h.429v12.22h-.43l.001-12.22Zm-2.11 0h.433v12.22h-.433V3.382Zm.89 0h.336v12.22h-.336V3.382Zm-3.023 0h.433v12.22h-.433V3.382Zm-2.871 0h.433v12.22h-.433V3.382Zm-.84 0h.215v12.22h-.215V3.382Zm-2.059 0h.215v12.22h-.215V3.382Zm4.766 0h.219v12.22h-.219V3.382Zm-3.833 0h.747v12.22h-.746L5.71 3.382Zm5.509 0h.742v12.22h-.746V3.382h.004Zm-7.688 0h.434v12.22H3.53l.001-12.22Zm-1.152 0h.625v12.22h-.625V3.382Zm-1.172 0h.434v12.22h-.434V3.382Zm-1.148 0H.73v12.22H.06L.059 3.382Zm8.429 0h.434v12.22h-.434V3.382Zm15.297 0H24V20.39h-.215V3.383Zm-2.062 0h.218V20.39h-.218V3.383Zm.937 0h.738V20.39h-.742V3.383h.004Zm-2.18 0h.43V20.39h-.43V3.383Zm-1.152 0h.625V20.39h-.625V3.383Zm-1.172 0h.434V20.39h-.434V3.383Zm-1.148 0h.672V20.39h-.672V3.383Z" fill="currentColor"/>
</svg>
