<svg xmlns="http://www.w3.org/2000/svg" width="24" height="24" fill="none" viewBox="0 0 24 24">
    <path fill="currentColor" d="M19 10.7H5v8c0 .454.36.8.777.8h12.446a.79.79 0 0 0 .777-.8zM8.453 15.9a1 1 0 1 1 0 2h-.009a1 1 0 0 1 0-2zm3.556 0a1 1 0 1 1 0 2H12a1 1 0 0 1 0-2zm3.556 0a1 1 0 0 1 0 2h-.01a1 1 0 0 1 0-2zm-7.112-3.6a1 1 0 0 1 0 2h-.009a1 1 0 0 1 0-2zm3.556 0a1 1 0 0 1 0 2H12a1 1 0 1 1 0-2zm3.556 0a1 1 0 0 1 0 2h-.01a1 1 0 1 1 0-2zm-1.01-6.2v-.8h-5.11v.8a1 1 0 0 1-2 0v-.8H5.776A.79.79 0 0 0 5 6.1v2.6h14V6.1a.79.79 0 0 0-.777-.8h-1.667v.8a1 1 0 0 1-2 0M21 18.7c0 1.535-1.232 2.8-2.777 2.8H5.777C4.232 21.5 3 20.235 3 18.7V6.1c0-1.535 1.232-2.8 2.777-2.8h1.667v-.8a1 1 0 0 1 2 0v.8h5.112v-.8a1 1 0 1 1 2 0v.8h1.667C19.768 3.3 21 4.565 21 6.1z"/>
</svg>
