<svg xmlns="http://www.w3.org/2000/svg" width="24" height="24" fill="none" viewBox="0 0 24 24">
    <path fill="currentColor" d="M20 15.177a16.7 16.7 0 0 1-8 2.049c-2.796 0-5.539-.71-8-2.05v2.935c0 .537.403.889.8.889h14.4c.397 0 .8-.352.8-.889zm-7.991-3.733a1 1 0 0 1 0 2H12a1 1 0 1 1 0-2zM20 8.667c0-.537-.403-.89-.8-.89H4.8c-.397 0-.8.353-.8.89v4.187a14.77 14.77 0 0 0 8 2.372c2.824 0 5.592-.822 8-2.373zm-5.4-3.778a.94.94 0 0 0-.251-.646.76.76 0 0 0-.55-.243H10.2a.76.76 0 0 0-.549.243.94.94 0 0 0-.25.646v.888H14.6zm2 .888h2.6c1.591 0 2.8 1.34 2.8 2.89v9.444C22 19.661 20.791 21 19.2 21H4.8C3.209 21 2 19.66 2 18.111V8.667c0-1.55 1.209-2.89 2.8-2.89h2.6V4.89c0-.751.284-1.48.803-2.026A2.76 2.76 0 0 1 10.2 2h3.6c.758 0 1.476.317 1.997.863.52.545.803 1.275.803 2.026z"/>
</svg>
