<svg xmlns="http://www.w3.org/2000/svg" width="24" height="24" fill="none" viewBox="0 0 24 24">
    <path fill="currentColor" fill-rule="evenodd" d="M6 4v2H4a3 3 0 0 0-3 3v1.899a3 3 0 0 0 1.975 2.82l8 2.908a3 3 0 0 0 2.05 0l8-2.909A3 3 0 0 0 23 10.898V9a3 3 0 0 0-3-3h-2V4a3 3 0 0 0-3-3H9a3 3 0 0 0-3 3Zm9-1H9a1 1 0 0 0-1 1v2h8V4a1 1 0 0 0-1-1Zm-3 11.5a1.5 1.5 0 1 0 0-3 1.5 1.5 0 0 0 0 3Z" clip-rule="evenodd"/>
    <path fill="currentColor" d="M2.291 15.598A5.01 5.01 0 0 1 2 15.48v4.52a3 3 0 0 0 3 3h14a3 3 0 0 0 3-3v-4.52c-.095.042-.192.08-.291.117l-8 2.909a5 5 0 0 1-3.418 0l-8-2.91Z"/>
</svg>
