<svg width="24" height="24" viewBox="0 0 24 24" fill="none" xmlns="http://www.w3.org/2000/svg">
    <path d="M20 1H4a3 3 0 0 0-3 3v13a3 3 0 0 0 3 3h8v-3.5a6.513 6.513 0 0 1 6.5-6.5 6.4 6.4 0 0 1 4.5 1.83V4a3 3 0 0 0-3-3zM6 7.25a1.25 1.25 0 1 1 0-2.5 1.25 1.25 0 0 1 0 2.5zm4 0a1.25 1.25 0 1 1 0-2.5 1.25 1.25 0 0 1 0 2.5zm4 0a1.25 1.25 0 1 1 0-2.5 1.25 1.25 0 0 1 0 2.5zM18.5 12a4.494 4.494 0 0 0-4.5 4.488V21a2.006 2.006 0 0 0 2 2h5a2.006 2.006 0 0 0 2-2v-4.5a4.494 4.494 0 0 0-4.488-4.5H18.5zm0 9.5a1.5 1.5 0 1 1 0-3 1.5 1.5 0 0 1 0 3zM21 17h-5v-.5a2.5 2.5 0 0 1 5 0v.5z" fill="#000"/>
</svg>
