<svg xmlns="http://www.w3.org/2000/svg" width="24" height="24" fill="none" viewBox="0 0 24 24">
    <path fill="currentColor" d="M17.137 10.006a1.6 1.6 0 0 1 .764.272l.112.082.025.023c.765.668 1.785 1.112 2.462 1.112a1.5 1.5 0 0 1 .95.34l.11.1.1.11a1.5 1.5 0 0 1 .34.95v3.5c0 1.514-.542 2.7-1.419 3.6-.85.873-1.97 1.43-3.082 1.818l-.008.003a1.5 1.5 0 0 1-.982-.008v.001l-.013-.005-.01-.003c-1.107-.385-2.22-.94-3.066-1.805-.879-.9-1.42-2.088-1.42-3.602v-3.5l.008-.15a1.5 1.5 0 0 1 .432-.91l.11-.099a1.5 1.5 0 0 1 .95-.339c.676 0 1.701-.449 2.462-1.113l.023-.02A1.6 1.6 0 0 1 16.998 10zm3.067-5.995A2 2 0 0 1 22 6v4.072a8 8 0 0 0-2-.82V6H4v12h6.065c.087.699.264 1.37.519 2H4a2 2 0 0 1-2-2V6a2 2 0 0 1 2-2h16zm-3.203 8.105c-.835.654-1.94 1.207-3.001 1.346v3.032c0 .986.334 1.674.852 2.204.515.528 1.256.937 2.156 1.264.892-.328 1.628-.736 2.141-1.263.518-.531.851-1.219.851-2.204v-3.033c-1.06-.138-2.16-.69-2.999-1.346M6 7a1 1 0 1 1 0 2 1 1 0 0 1 0-2m3 0a1 1 0 1 1 0 2 1 1 0 0 1 0-2m3 0a1 1 0 1 1 0 2 1 1 0 0 1 0-2"/>
</svg>
