<svg xmlns="http://www.w3.org/2000/svg" width="24" height="24" fill="none" viewBox="0 0 24 24">
    <path fill="currentColor" d="M21 13a1 1 0 0 0 1-1l-.004-9a1 1 0 0 0-1-1H12a1 1 0 1 0 0 2h6.582L2.297 20.293a1 1 0 1 0 1.414 1.414L19.996 5.414 20 12a1 1 0 0 0 1 1"/>
    <path fill="currentColor" d="M19.988 21v-5a1 1 0 0 0-1-1h-5a1 1 0 0 0 0 2h2.585l-3.28 3.281a1 1 0 1 0 1.414 1.414l3.28-3.28V21a1 1 0 1 0 2 0M9 10a1 1 0 1 1-2 0V7.414l-3.28 3.281a1 1 0 0 1-1.415-1.414L5.585 6H3a1 1 0 1 1 0-2h5a1 1 0 0 1 1 1z"/>
</svg>
