<svg xmlns="http://www.w3.org/2000/svg" width="24" height="24" viewBox="0 0 24 24" fill="none">
  <path d="M21 13C21.5523 13 22 12.5523 22 12L21.9962 3C21.9962 2.73478 21.8908 2.48043 21.7033 2.29289C21.5158 2.10536 21.2614 2 20.9962 2H11.9999C11.4476 2 10.9999 2.44772 10.9999 3C10.9999 3.55229 11.4476 4 11.9999 4H18.582L2.2968 20.2928C1.90628 20.6833 1.90628 21.3165 2.2968 21.707C2.68732 22.0976 3.32049 22.0976 3.71101 21.707L19.9962 5.41421L20 12C20 12.5523 20.4477 13 21 13Z" fill="#0F131A"/>
  <path d="M19.9876 21V16C19.9876 15.7348 19.8822 15.4804 19.6947 15.2929C19.5071 15.1054 19.2528 15 18.9876 15H13.9875C13.4353 15 12.9875 15.4477 12.9875 16C12.9875 16.5523 13.4353 17 13.9875 17H16.5733L13.2929 20.2811C12.9023 20.6716 12.9023 21.3048 13.2929 21.6953C13.6834 22.0858 14.3166 22.0858 14.7071 21.6953L17.9876 18.4142V21C17.9876 21.5523 18.4353 22 18.9876 22C19.5398 22 19.9876 21.5523 19.9876 21Z" fill="#0F131A"/>
  <path d="M9.00001 10C9.00001 10.5523 8.5523 11 8.00001 11C7.44773 11 7.00001 10.5523 7.00001 10V7.41421L3.71953 10.6953C3.329 11.0858 2.69584 11.0858 2.30531 10.6953C1.91479 10.3048 1.91479 9.67162 2.30531 9.2811L5.5858 6L3 6C2.44771 6 2 5.55228 2 5C2 4.44772 2.44771 4 3 4H8.00001C8.26523 4 8.51958 4.10536 8.70712 4.29289C8.89465 4.48043 9.00001 4.73478 9.00001 5V10Z" fill="#0F131A"/>
</svg>