<svg width="24" height="24" viewBox="0 0 24 24" fill="none" xmlns="http://www.w3.org/2000/svg">
    <path d="M7.1 22.12h9.8c1.26 0 2.7-1.1 2.97-2.25.04-.2-.13-.37-.34-.37H4.47c-.21 0-.39.17-.34.37.28 1.15 1.7 2.26 2.97 2.25ZM8.63 1.5a.75.75 0 0 0-.75.75v3.38a.75.75 0 0 0 1.5 0V2.25a.75.75 0 0 0-.75-.75ZM1.88 9.37c-.07-.61.44-1.12 1.06-1.12h18.12c.62 0 1.13.5 1.06 1.12a10.08 10.08 0 0 1-6.22 8.23 10.23 10.23 0 0 1-13.3-5.48c-.37-.88-.61-1.8-.72-2.75Zm9.37-7.12a.75.75 0 0 1 1.5 0v3.38a.75.75 0 0 1-1.5 0V2.25Zm4.13-.75a.75.75 0 0 0-.75.75v3.38a.75.75 0 0 0 1.5 0V2.25a.75.75 0 0 0-.75-.75Z" fill="currentColor"/>
</svg>
