<svg xmlns="http://www.w3.org/2000/svg" width="24" height="24" fill="none" viewBox="0 0 24 24">
    <path fill="currentColor" fill-rule="evenodd" d="M5 2.5a1.5 1.5 0 0 1 3 0V4h8V2.5a1.5 1.5 0 0 1 3 0V4h1a3 3 0 0 1 3 3v1H1V7a3 3 0 0 1 3-3h1zM23 10H1v10a3 3 0 0 0 3 3h16a3 3 0 0 0 3-3zM5 13a1 1 0 0 0 0 2h2a1 1 0 0 0 0-2zm6 0a1 1 0 0 0 0 2h2a1 1 0 0 0 0-2zm5 1a1 1 0 0 1 1-1h2a1 1 0 0 1 0 2h-2a1 1 0 0 1-1-1m1 3a1 1 0 0 0 0 2h2a1 1 0 0 0 0-2zm-7 1a1 1 0 0 1 1-1h2a1 1 0 0 1 0 2h-2a1 1 0 0 1-1-1m-5-1a1 1 0 0 0 0 2h2a1 1 0 0 0 0-2z" clip-rule="evenodd"/>
</svg>
