<svg xmlns="http://www.w3.org/2000/svg" width="24" height="24" fill="none" viewBox="0 0 24 24">
  <path fill="currentColor"
        d="M17.539 12.923h.922a.923.923 0 0 1 0 1.846h-2.706a.4.4 0 0 0-.063.23.4.4 0 0 0 .063.232h1.783c.565 0 1.052.281 1.374.684.318.397.473.9.473 1.393 0 .492-.155.995-.473 1.392-.322.403-.809.684-1.373.684v.924h-1.847v-.924h-.923a.923.923 0 0 1 0-1.846h2.706a.4.4 0 0 0 .063-.23.4.4 0 0 0-.063-.231h-1.783c-.564 0-1.051-.282-1.373-.684A2.24 2.24 0 0 1 13.846 15c0-.492.155-.995.473-1.393.322-.402.809-.684 1.373-.684V12h1.846zm-3.11-11.538c.51 0 .923.413.923.923v.738h1.555c.684 0 1.34.274 1.822.759a2.6 2.6 0 0 1 .753 1.825v4.559a.923.923 0 0 1-1.846 0v-.312H4.616v7.385c0 .197.078.385.215.523a.72.72 0 0 0 .513.215h6.097a.923.923 0 0 1 0 1.846H5.344a2.57 2.57 0 0 1-1.822-.759 2.6 2.6 0 0 1-.753-1.825V5.63c0-.683.27-1.34.753-1.825a2.57 2.57 0 0 1 1.822-.76h1.555v-.737a.923.923 0 0 1 1.846 0v.738h4.761v-.738c0-.51.414-.923.923-.923M5.344 4.892a.72.72 0 0 0-.513.215.74.74 0 0 0-.216.523v2.4h13.02v-2.4a.74.74 0 0 0-.215-.523.73.73 0 0 0-.514-.215h-1.553v.738a.923.923 0 0 1-1.847 0v-.738H8.745v.738a.923.923 0 1 1-1.846 0v-.738z"/>
</svg>
