<svg xmlns="http://www.w3.org/2000/svg" width="24" height="24" fill="none" viewBox="0 0 24 24">
    <path fill="currentColor" d="M7 13H5a1 1 0 0 0 0 2h2a1 1 0 0 0 0-2M16 18a1 1 0 0 0 1 1h2a1 1 0 0 0 0-2h-2a1 1 0 0 0-1 1M13 13a1 1 0 0 1 0 2h-2a1 1 0 0 1 0-2zM5 17a1 1 0 0 0 0 2h2a1 1 0 0 0 0-2zM17 13a1 1 0 0 0 0 2h2a1 1 0 0 0 0-2zM10 18a1 1 0 0 1 1-1h2a1 1 0 0 1 0 2h-2a1 1 0 0 1-1-1"/>
    <path fill="currentColor" fill-rule="evenodd" d="M8 2.5V4h8V2.5a1.5 1.5 0 0 1 3 0V4h1a3 3 0 0 1 3 3v13a3 3 0 0 1-3 3H4a3 3 0 0 1-3-3V7a3 3 0 0 1 3-3h1V2.5a1.5 1.5 0 0 1 3 0M3 8h18V7a1 1 0 0 0-1-1H4a1 1 0 0 0-1 1zm0 2v10a1 1 0 0 0 1 1h16a1 1 0 0 0 1-1V10z" clip-rule="evenodd"/>
</svg>
