<svg width="24" height="24" viewBox="0 0 24 24" fill="none" xmlns="http://www.w3.org/2000/svg">
  <path
    d="M17.7071 2.70711C18.0976 2.31658 18.0976 1.68342 17.7071 1.29289C17.3166 0.902369 16.6834 0.902369 16.2929 1.29289L13.2929 4.29289C12.9024 4.68342 12.9024 5.31658 13.2929 5.70711L16.2929 8.70711C16.6834 9.09763 17.3166 9.09763 17.7071 8.70711C18.0976 8.31658 18.0976 7.68342 17.7071 7.29289L16.4142 6L19 6C20.1046 6 21 6.89543 21 8V8.5C21 9.05228 21.4477 9.5 22 9.5C22.5523 9.5 23 9.05228 23 8.5V8C23 5.79086 21.2091 4 19 4L16.4142 4L17.7071 2.70711Z"
    fill="currentColor" />
  <path
    d="M13.7215 14.5463C13.2527 14.5491 12.8018 14.3659 12.4679 14.0367L9.96478 11.5326C9.63565 11.1987 9.45239 10.7478 9.4552 10.279C9.45801 9.8101 9.64667 9.36149 9.97979 9.03152L11.0733 7.94104C11.4061 7.60861 11.5937 7.15786 11.595 6.68744C11.5963 6.21701 11.4113 5.76523 11.0803 5.43094L7.33463 1.68529C7.11435 1.46666 6.85314 1.29361 6.56592 1.17602C6.27871 1.05844 5.97113 0.998631 5.66078 1.00002C5.35043 1.00142 5.0434 1.06398 4.75725 1.18414C4.47111 1.3043 4.21146 1.4797 3.99316 1.7003L3.15179 2.53967C2.12159 3.55177 1.41996 4.85057 1.1382 6.26699C0.856454 7.68342 1.00764 9.15186 1.57209 10.4812C2.74086 13.1229 4.38868 15.5255 6.43223 17.5673C8.47462 19.611 10.8779 21.2589 13.5203 22.4274C14.8496 22.9919 16.3181 23.143 17.7345 22.8613C19.1509 22.5795 20.4497 21.8779 21.4618 20.8477L22.3012 20.0083C22.5214 19.79 22.6965 19.5304 22.8164 19.2444C22.9363 18.9584 22.9987 18.6516 23 18.3415C23.0013 18.0314 22.9415 17.7241 22.824 17.4371C22.7065 17.1501 22.5336 16.8891 22.3152 16.6689L18.5696 12.9232C18.2353 12.5922 17.7835 12.4072 17.3131 12.4085C16.8426 12.4098 16.3919 12.5974 16.0595 12.9302L14.969 14.0217C14.639 14.3548 14.1904 14.5435 13.7215 14.5463Z"
    fill="currentColor" />
</svg>
