<svg xmlns="http://www.w3.org/2000/svg" width="24" height="24" fill="none" viewBox="0 0 24 24">
    <path fill="currentColor" d="M8.6 5.6A.6.6 0 0 0 8 5H5.6a.6.6 0 0 0-.6.6A13.4 13.4 0 0 0 18.4 19a.6.6 0 0 0 .6-.6V16a.6.6 0 0 0-.6-.6H16a.6.6 0 0 0-.48.24l-.005.006-.285.37.001.002a1.8 1.8 0 0 1-2.183.546q-.011-.007-.023-.012a12.2 12.2 0 0 1-5.57-5.563l-.002-.004a1.8 1.8 0 0 1-.134-1.203l.043-.15a1.8 1.8 0 0 1 .617-.866l.006-.005.375-.28A.6.6 0 0 0 8.6 8zM21.414 4l-3.8 3.8H20a1 1 0 0 1 0 2h-4.8a1 1 0 0 1-1-1V4a1 1 0 1 1 2 0v2.386l3.8-3.8zM10.6 8a2.6 2.6 0 0 1-1.04 2.08l-.234.174a10.2 10.2 0 0 0 4.416 4.418l.183-.238A2.6 2.6 0 0 1 16 13.4h2.4A2.6 2.6 0 0 1 21 16v2.4a2.6 2.6 0 0 1-2.6 2.6A15.4 15.4 0 0 1 3 5.6 2.6 2.6 0 0 1 5.6 3H8a2.6 2.6 0 0 1 2.6 2.6z"/>
</svg>
