<svg width="24" height="24" viewBox="0 0 24 24" fill="none" xmlns="http://www.w3.org/2000/svg">
  <path fill-rule="evenodd" clip-rule="evenodd"
    d="M9 3.5C7.89543 3.5 7 4.39543 7 5.5V6.5H4C2.89543 6.5 2 7.39543 2 8.5V17.5C2 18.6046 2.89543 19.5 4 19.5H20C21.1046 19.5 22 18.6046 22 17.5V8.5C22 7.39543 21.1046 6.5 20 6.5H17V5.5C17 4.39543 16.1046 3.5 15 3.5H9ZM17 12.5C17 15.2614 14.7614 17.5 12 17.5C9.23858 17.5 7 15.2614 7 12.5C7 9.73858 9.23858 7.5 12 7.5C14.7614 7.5 17 9.73858 17 12.5ZM12 15.5C13.6569 15.5 15 14.1569 15 12.5C15 10.8431 13.6569 9.5 12 9.5C10.3431 9.5 9 10.8431 9 12.5C9 14.1569 10.3431 15.5 12 15.5Z"
    fill="currentColor" />
</svg>
