<svg xmlns="http://www.w3.org/2000/svg" width="24" height="24" fill="none" viewBox="0 0 24 24">
    <path fill="currentColor" d="M20 9.375a.73.73 0 0 0-.225-.52.83.83 0 0 0-.575-.23h-1.798c-.5 0-.991-.131-1.424-.382a2.8 2.8 0 0 1-1.034-1.052l-.437-.787a.77.77 0 0 0-.29-.292.84.84 0 0 0-.42-.112h-3.594a.84.84 0 0 0-.42.112.8.8 0 0 0-.233.206l-.056.085-.44.791c-.244.438-.602.8-1.034 1.05a2.84 2.84 0 0 1-1.422.381H4.8a.83.83 0 0 0-.575.23.73.73 0 0 0-.225.52v7.875c0 .19.078.378.225.52.148.144.354.23.575.23h14.4c.221 0 .427-.086.575-.23a.73.73 0 0 0 .225-.52zm-6.3 3.5c0-.871-.734-1.625-1.7-1.625s-1.7.754-1.7 1.625.734 1.625 1.7 1.625 1.7-.754 1.7-1.625m2 0c0 2.028-1.683 3.625-3.7 3.625s-3.7-1.597-3.7-3.625S9.983 9.25 12 9.25s3.7 1.597 3.7 3.625M22 17.25c0 .738-.302 1.44-.83 1.954A2.83 2.83 0 0 1 19.2 20H4.8a2.83 2.83 0 0 1-1.97-.796A2.73 2.73 0 0 1 2 17.25V9.375c0-.738.302-1.44.83-1.954a2.83 2.83 0 0 1 1.97-.796h1.798a.84.84 0 0 0 .42-.112.8.8 0 0 0 .289-.291l.44-.791.097-.16c.237-.366.559-.671.937-.89A2.84 2.84 0 0 1 10.203 4h3.594c.5 0 .992.131 1.425.382.432.25.79.614 1.034 1.052l.437.787.055.085q.092.123.234.207a.84.84 0 0 0 .42.112H19.2c.734 0 1.443.283 1.97.796.528.513.83 1.216.83 1.954z"/>
</svg>
