<svg width="32" height="24" viewBox="0 0 32 24" fill="none" xmlns="http://www.w3.org/2000/svg">
    <path d="M0 4a4 4 0 0 1 4-4h21a4 4 0 0 1 4 4v1H0V4zm21 10v6H4a4 4 0 0 1-4-4V9h23.101A6.979 6.979 0 0 0 21 14zM5 14a1 1 0 0 1 1-1h6a1 1 0 1 1 0 2H6a1 1 0 0 1-1-1zm23.163 6.184a1.12 1.12 0 0 1-.856-.396 1.176 1.176 0 0 1-.277-.917 5.222 5.222 0 0 1 1.65-3.064c.4-.357.712-.803.915-1.304a1.65 1.65 0 0 0-.248-1.66 1.892 1.892 0 0 0-1.834-.392 1.74 1.74 0 0 0-.825.501 1.795 1.795 0 0 0-.44.872 1.174 1.174 0 0 1-.508.73 1.119 1.119 0 0 1-.866.14 1.155 1.155 0 0 1-.707-.533 1.202 1.202 0 0 1-.135-.888 4.14 4.14 0 0 1 1.009-1.955 4.002 4.002 0 0 1 1.852-1.138 4.065 4.065 0 0 1 2.164-.063c.714.174 1.37.54 1.902 1.058.479.521.81 1.166.956 1.866.147.7.103 1.427-.126 2.103a5.496 5.496 0 0 1-1.461 2.29 3.049 3.049 0 0 0-1.036 1.7 1.18 1.18 0 0 1-.369.746 1.13 1.13 0 0 1-.76.304zm-.816 1.486c.205-.14.445-.214.691-.214h.004c.33 0 .645.135.877.374a1.293 1.293 0 0 1 .153 1.605 1.24 1.24 0 0 1-.558.468 1.22 1.22 0 0 1-1.355-.276 1.299 1.299 0 0 1-.27-1.386c.095-.232.254-.431.458-.57z" fill="#000"/>
    <path d="M0 4a4 4 0 0 1 4-4h21a4 4 0 0 1 4 4v1H0V4zm21 10v6H4a4 4 0 0 1-4-4V9h23.101A6.979 6.979 0 0 0 21 14zM5 14a1 1 0 0 1 1-1h6a1 1 0 1 1 0 2H6a1 1 0 0 1-1-1zm23.163 6.184a1.12 1.12 0 0 1-.856-.396 1.176 1.176 0 0 1-.277-.917 5.222 5.222 0 0 1 1.65-3.064c.4-.357.712-.803.915-1.304a1.65 1.65 0 0 0-.248-1.66 1.892 1.892 0 0 0-1.834-.392 1.74 1.74 0 0 0-.825.501 1.795 1.795 0 0 0-.44.872 1.174 1.174 0 0 1-.508.73 1.119 1.119 0 0 1-.866.14 1.155 1.155 0 0 1-.707-.533 1.202 1.202 0 0 1-.135-.888 4.14 4.14 0 0 1 1.009-1.955 4.002 4.002 0 0 1 1.852-1.138 4.065 4.065 0 0 1 2.164-.063c.714.174 1.37.54 1.902 1.058.479.521.81 1.166.956 1.866.147.7.103 1.427-.126 2.103a5.496 5.496 0 0 1-1.461 2.29 3.049 3.049 0 0 0-1.036 1.7 1.18 1.18 0 0 1-.369.746 1.13 1.13 0 0 1-.76.304zm-.816 1.486c.205-.14.445-.214.691-.214h.004c.33 0 .645.135.877.374a1.293 1.293 0 0 1 .153 1.605 1.24 1.24 0 0 1-.558.468 1.22 1.22 0 0 1-1.355-.276 1.299 1.299 0 0 1-.27-1.386c.095-.232.254-.431.458-.57z" stroke="#fff"/>
</svg>
