<svg xmlns="http://www.w3.org/2000/svg" width="24" height="24" fill="none" viewBox="0 0 24 24">
    <path fill="currentColor" d="M18.3 19v2H5.7v-2zm.7-.7V5.7a.7.7 0 0 0-.7-.7H5.7a.7.7 0 0 0-.7.7v12.6a.7.7 0 0 0 .7.7v2l-.266-.014a2.7 2.7 0 0 1-1.445-.597l-.198-.18A2.7 2.7 0 0 1 3 18.299V5.7a2.7 2.7 0 0 1 .611-1.71l.18-.199a2.7 2.7 0 0 1 1.643-.777L5.7 3h12.6A2.7 2.7 0 0 1 21 5.7v12.6a2.7 2.7 0 0 1-2.7 2.7v-2a.7.7 0 0 0 .7-.7"/>
    <path fill="currentColor" d="M17.5 7v3h-11V7zM6.5 13a1 1 0 0 1 1-1h1a1 1 0 1 1 0 2h-1a1 1 0 0 1-1-1M10.5 13a1 1 0 0 1 1-1h1a1 1 0 1 1 0 2h-1a1 1 0 0 1-1-1M14.5 13a1 1 0 0 1 1-1h1a1 1 0 1 1 0 2h-1a1 1 0 0 1-1-1M6.5 16a1 1 0 0 1 1-1h1a1 1 0 1 1 0 2h-1a1 1 0 0 1-1-1M10.5 16a1 1 0 0 1 1-1h1a1 1 0 1 1 0 2h-1a1 1 0 0 1-1-1M14.5 16a1 1 0 0 1 1-1h1a1 1 0 1 1 0 2h-1a1 1 0 0 1-1-1"/>
</svg>
