<svg width="24" height="24" viewBox="0 0 24 24" fill="none" xmlns="http://www.w3.org/2000/svg">
  <path
    d="M4 4.99847H13.3414C13.1203 5.62402 13 6.29719 13 6.99847C13 7.69974 13.1203 8.37291 13.3414 8.99847H1V7.99847C1 7.20282 1.31607 6.43975 1.87868 5.87715C2.44129 5.31454 3.20435 4.99847 4 4.99847Z"
    fill="currentColor" />
  <path fill-rule="evenodd" clip-rule="evenodd"
    d="M23 11.4707C21.9385 12.4208 20.5367 12.9985 19 12.9985C17.223 12.9985 15.6264 12.226 14.5278 10.9985H1V17.9985C1 18.7941 1.31607 19.5572 1.87868 20.1198C2.44129 20.6824 3.20435 20.9985 4 20.9985H20C20.7956 20.9985 21.5587 20.6824 22.1213 20.1198C22.6839 19.5572 23 18.7941 23 17.9985V11.4707ZM11 15.9985C11 15.7333 10.8946 15.4789 10.7071 15.2914C10.5196 15.1038 10.2652 14.9985 10 14.9985H6C5.73478 14.9985 5.48043 15.1038 5.29289 15.2914C5.10536 15.4789 5 15.7333 5 15.9985C5 16.2637 5.10536 16.518 5.29289 16.7056C5.48043 16.8931 5.73478 16.9985 6 16.9985H10C10.2652 16.9985 10.5196 16.8931 10.7071 16.7056C10.8946 16.518 11 16.2637 11 15.9985Z"
    fill="currentColor" />
  <path
    d="M19 10.9994C18.7161 10.9994 18.4598 10.8811 18.2778 10.6912L15.2929 7.70642C14.9023 7.3159 14.9023 6.68274 15.2928 6.2922C15.6834 5.90167 16.3165 5.90165 16.7071 6.29216L18 7.585V3.99951C18 3.44723 18.4477 2.99951 19 2.99951C19.5523 2.99951 20 3.44723 20 3.99951V7.58497L21.293 6.29187C21.6835 5.90133 22.3167 5.90131 22.7072 6.29183C23.0977 6.68234 23.0978 7.3155 22.7073 7.70604L19.7177 10.6957C19.536 10.883 19.2816 10.9994 19 10.9994Z"
    fill="currentColor" />
</svg>
