<svg width="24" height="24" viewBox="0 0 24 24" fill="none" xmlns="http://www.w3.org/2000/svg">
    <path d="M19 2H5a3 3 0 0 0-3 3v14a3 3 0 0 0 3 3h14a3 3 0 0 0 3-3V5a3 3 0 0 0-3-3zM7.75 18.5a1.25 1.25 0 1 1 0-2.5 1.25 1.25 0 0 1 0 2.5zm0-4a1.25 1.25 0 1 1 0-2.5 1.25 1.25 0 0 1 0 2.5zm4.25 4a1.25 1.25 0 1 1 0-2.5 1.25 1.25 0 0 1 0 2.5zm0-4a1.25 1.25 0 1 1 0-2.5 1.25 1.25 0 0 1 0 2.5zm4.25 4a1.25 1.25 0 1 1 0-2.5 1.25 1.25 0 0 1 0 2.5zm0-4a1.25 1.25 0 1 1 0-2.5 1.25 1.25 0 0 1 0 2.5zM18 9a1 1 0 0 1-1 1H7a1 1 0 0 1-1-1V7a1 1 0 0 1 1-1h10a1 1 0 0 1 1 1v2z" fill="#000"/>
</svg>
