<svg width="32" height="24" viewBox="0 0 32 24" fill="none" xmlns="http://www.w3.org/2000/svg">
    <path d="M0 4a4 4 0 0 1 4-4h21a4 4 0 0 1 4 4v1H0V4z" fill="currentColor"/>
    <path fill-rule="evenodd" clip-rule="evenodd" d="M21 14v6H4a4 4 0 0 1-4-4V9h23.101A6.979 6.979 0 0 0 21 14zM5 14a1 1 0 0 1 1-1h6a1 1 0 1 1 0 2H6a1 1 0 0 1-1-1z" fill="currentColor"/>
    <path d="M27.693 20.08c.148.068.308.104.47.104a1.13 1.13 0 0 0 .76-.304 1.18 1.18 0 0 0 .369-.746 3.04 3.04 0 0 1 1.036-1.7 5.496 5.496 0 0 0 1.461-2.29 4.006 4.006 0 0 0 .126-2.103 3.952 3.952 0 0 0-.956-1.866 4.127 4.127 0 0 0-1.902-1.058 4.065 4.065 0 0 0-2.164.063 4.01 4.01 0 0 0-1.852 1.138 4.14 4.14 0 0 0-1.009 1.955c-.071.303-.023.622.135.888.157.267.412.459.707.534a1.111 1.111 0 0 0 .866-.142 1.174 1.174 0 0 0 .509-.73c.064-.326.216-.628.44-.87.223-.243.508-.417.823-.502a1.892 1.892 0 0 1 1.835.392 1.65 1.65 0 0 1 .249 1.66 3.52 3.52 0 0 1-.916 1.304 5.222 5.222 0 0 0-1.65 3.064 1.193 1.193 0 0 0 .277.918c.107.124.239.223.386.291zm-.346 1.59c.205-.14.445-.214.691-.214h.004c.33 0 .645.135.877.374a1.293 1.293 0 0 1 .153 1.605 1.24 1.24 0 0 1-.558.468 1.22 1.22 0 0 1-1.355-.276 1.299 1.299 0 0 1-.27-1.386c.095-.232.254-.431.458-.57z" fill="currentColor"/>
</svg>
