<svg xmlns="http://www.w3.org/2000/svg" width="24" height="24" fill="none" viewBox="0 0 24 24">
    <path fill="currentColor" d="M19.2 4C20.843 4 22 5.445 22 7v4.5a1 1 0 1 1-2 0V11H4v6c0 .654.455 1 .8 1H15v2H4.8C3.157 20 2 18.555 2 17V7c0-1.555 1.157-3 2.8-3zM4.8 6c-.345 0-.8.346-.8 1v2h16V7c0-.654-.454-1-.8-1z"/>
    <path fill="currentColor" d="M18 21.01V21a1 1 0 1 1 2 0v.01a1 1 0 0 1-2 0m.668-3.974.006-.002q.013-.004.044-.017a3.895 3.895 0 0 0 .723-.379c.45-.303.559-.542.559-.658 0-.188-.062-.37-.273-.66a1.1 1.1 0 0 0-1.327-.175l-.052.03c-.121.06-.296.238-.453.552a1 1 0 0 1-1.79-.894c.244-.486.67-1.108 1.348-1.447a3.1 3.1 0 0 1 3.599.432l.185.187.063.075c.366.488.7 1.097.7 1.9 0 1.184-.891 1.945-1.44 2.316a6 6 0 0 1-1.189.613l-.026.01-.012.004h-.002L19 17.98l.33.944a1 1 0 0 1-.755-1.849z"/>
</svg>
