<svg width="24" height="24" viewBox="0 0 24 24" fill="none" xmlns="http://www.w3.org/2000/svg">
  <path
    d="M19.7215 3.30828C19.5394 3.11829 19.2832 3 18.9993 3C18.7177 3 18.4633 3.11641 18.2815 3.30372L15.292 6.2934C14.9015 6.68394 14.9015 7.3171 15.2921 7.70761C15.6826 8.09813 16.3158 8.09811 16.7063 7.70757L17.9993 6.41447V9.99993C17.9993 10.5522 18.447 10.9999 18.9993 10.9999C19.5516 10.9999 19.9993 10.5522 19.9993 9.99993V6.41444L21.2922 7.70728C21.6827 8.09779 22.3159 8.09777 22.7064 7.70724C23.0969 7.3167 23.0969 6.68354 22.7064 6.29302L19.7215 3.30828Z"
    fill="currentColor" />
  <path
    d="M4 5H13.3414C13.1203 5.62556 13 6.29873 13 7C13 7.70127 13.1203 8.37444 13.3414 9H1V8C1 7.20435 1.31607 6.44129 1.87868 5.87868C2.44129 5.31607 3.20435 5 4 5Z"
    fill="currentColor" />
  <path fill-rule="evenodd" clip-rule="evenodd"
    d="M23 11.4722C21.9385 12.4223 20.5367 13 19 13C17.223 13 15.6264 12.2275 14.5278 11H1V18C1 18.7956 1.31607 19.5587 1.87868 20.1213C2.44129 20.6839 3.20435 21 4 21H20C20.7956 21 21.5587 20.6839 22.1213 20.1213C22.6839 19.5587 23 18.7956 23 18V11.4722ZM11 16C11 15.7348 10.8946 15.4804 10.7071 15.2929C10.5196 15.1054 10.2652 15 10 15H6C5.73478 15 5.48043 15.1054 5.29289 15.2929C5.10536 15.4804 5 15.7348 5 16C5 16.2652 5.10536 16.5196 5.29289 16.7071C5.48043 16.8946 5.73478 17 6 17H10C10.2652 17 10.5196 16.8946 10.7071 16.7071C10.8946 16.5196 11 16.2652 11 16Z"
    fill="currentColor" />
</svg>
