<svg xmlns="http://www.w3.org/2000/svg" width="32" height="24" fill="none" viewBox="0 0 32 24">
    <rect width="31" height="23" x=".5" y=".5" fill="#fff" stroke="#ccc" rx="3.5"/>
    <path fill="currentColor" fill-rule="evenodd" d="M22.374 18.76c.506 0 .916.41.916.915v.009a.916.916 0 0 1-1.832 0v-.009c0-.506.41-.916.916-.916m.184-14.66c1.505 0 2.564 1.324 2.564 2.748v4.123a.916.916 0 0 1-1.832 0v-.458H8.632v5.496c0 .6.417.916.733.916h9.344v1.832H9.365c-1.505 0-2.565-1.323-2.565-2.748V6.85C6.8 5.422 7.86 4.1 9.365 4.1zm-1.6 8.6a2.84 2.84 0 0 1 3.296.396l.17.171.057.068c.335.447.641 1.006.641 1.742 0 1.084-.816 1.781-1.32 2.12a5.4 5.4 0 0 1-1.012.533l-.076.03-.024.009-.011.004h-.002l-.303-.864.302.864a.916.916 0 0 1-.691-1.694l.085-.035q.001 0 .005-.002l.04-.015q.058-.022.164-.07c.141-.064.323-.159.498-.277.413-.278.513-.498.513-.603 0-.173-.057-.34-.25-.605a1.006 1.006 0 0 0-1.216-.16l-.047.026c-.111.056-.272.22-.416.507a.917.917 0 0 1-1.64-.82c.224-.444.614-1.014 1.236-1.325M9.364 5.933c-.316 0-.733.317-.733.916V8.68H23.29V6.848c0-.599-.416-.916-.732-.916z" clip-rule="evenodd"/>
</svg>
