<svg width="24" height="24" viewBox="0 0 24 24" fill="none" xmlns="http://www.w3.org/2000/svg">
    <path d="M23 4v1H1V4a3 3 0 0 1 3-3h16a3 3 0 0 1 3 3zM1 7v7a3 3 0 0 0 3 3h8v-.5a6.513 6.513 0 0 1 6.5-6.5 6.392 6.392 0 0 1 4.5 1.83V7H1zm9 6H6a1 1 0 0 1 0-2h4a1 1 0 0 1 0 2zm8.347 7a.918.918 0 0 1-.911-1.032c.15-.932.62-1.784 1.327-2.409.321-.28.573-.631.736-1.025a1.27 1.27 0 0 0-.2-1.305 1.556 1.556 0 0 0-1.475-.308A1.4 1.4 0 0 0 16.808 15a.912.912 0 0 1-1.674.266.927.927 0 0 1-.108-.699 3.232 3.232 0 0 1 2.3-2.431 3.34 3.34 0 0 1 3.269.782 3.083 3.083 0 0 1 .668 3.12 4.31 4.31 0 0 1-1.175 1.8c-.42.339-.715.81-.833 1.337a.92.92 0 0 1-.908.825zm-.1 1a1 1 0 1 0 .003 0h-.003z" fill="#000"/>
</svg>
