<svg xmlns="http://www.w3.org/2000/svg" width="24" height="24" fill="none" viewBox="0 0 24 24">
    <path fill="currentColor" d="M19 1a1 1 0 0 0-1 1v2h-2a1 1 0 1 0 0 2h2v2a1 1 0 1 0 2 0V6h2a1 1 0 1 0 0-2h-2V2a1 1 0 0 0-1-1M3 6h10.083c.12.718.368 1.393.72 2H5.5A2.5 2.5 0 0 1 3 10.5v3A2.5 2.5 0 0 1 5.5 16h9a2.5 2.5 0 0 1 2.5-2.5v-2.841A6 6 0 0 0 19 11v5a2.006 2.006 0 0 1-2 2H3a2.006 2.006 0 0 1-2-2V8a2.006 2.006 0 0 1 2-2"/>
    <path fill="currentColor" d="M6 22h16c.265 0 .707-.293.707-.293A1 1 0 0 0 23 21v-8a2.006 2.006 0 0 0-2-2v9H4a2.006 2.006 0 0 0 2 2m5.663-11.111a2 2 0 1 1-3.325 2.222 2 2 0 0 1 3.325-2.222"/>
</svg>
