<svg xmlns="http://www.w3.org/2000/svg" width="24" height="24" fill="none" viewBox="0 0 24 24">
    <path fill="currentColor" d="M12 6a1 1 0 1 1 0 2H4.8c-.425 0-.8.356-.8.833v7.334c0 .477.375.833.8.833h14.4c.425 0 .8-.356.8-.833V14.5a1 1 0 1 1 2 0v1.667C22 17.714 20.764 19 19.2 19H4.8C3.236 19 2 17.714 2 16.167V8.833C2 7.286 3.236 6 4.8 6zm.001 3.667c1.563 0 2.8 1.286 2.8 2.833s-1.237 2.834-2.8 2.834c-1.564 0-2.8-1.287-2.8-2.834s1.236-2.833 2.8-2.833M6.609 11.5a1 1 0 0 1 0 2h-.008a1 1 0 0 1 0-2zm5.392.167c-.425 0-.8.356-.8.833s.375.834.8.834c.424 0 .8-.357.8-.834a.82.82 0 0 0-.8-.833M19 4a1 1 0 0 1 1 1v2h2a1 1 0 1 1 0 2h-2v2a1 1 0 1 1-2 0V9h-2a1 1 0 1 1 0-2h2V5a1 1 0 0 1 1-1"/>
</svg>
