<svg xmlns="http://www.w3.org/2000/svg" width="24" height="24" fill="none" viewBox="0 0 24 24">
    <path fill="currentColor" d="M20 7.833A.817.817 0 0 0 19.2 7H4.8c-.425 0-.8.356-.8.833v7.334c0 .477.375.833.8.833h14.4c.425 0 .8-.356.8-.833zM12.8 11.5a.817.817 0 0 0-.8-.833c-.425 0-.8.355-.8.833s.375.833.8.833.8-.355.8-.833m-6.19-1a1 1 0 0 1 0 2H6.6a1 1 0 0 1 0-2zm10.8 0a1 1 0 0 1 0 2h-.01a1 1 0 1 1 0-2zm-2.61 1c0 1.547-1.236 2.833-2.8 2.833S9.2 13.047 9.2 11.5s1.236-2.833 2.8-2.833 2.8 1.286 2.8 2.833m7.2 3.667C22 16.714 20.764 18 19.2 18H4.8C3.236 18 2 16.714 2 15.167V7.833C2 6.286 3.236 5 4.8 5h14.4C20.764 5 22 6.286 22 7.833zM20.5 19v2h-17v-2z"/>
</svg>
