<svg xmlns="http://www.w3.org/2000/svg" width="24" height="24" fill="none" viewBox="0 0 24 24">
    <path fill="currentColor" d="M4 18h16v-3.238H4zM8.156 5.62Q8.158 4.79 8.3 4H6.188L4.667 9.044l4.155-.048a8.8 8.8 0 0 1-.666-3.377M15.182 2a3.63 3.63 0 0 1 3.636 3.62v2.339l1.175-1.17a.913.913 0 0 1 1.286 0 .9.9 0 0 1 0 1.28l-2.727 2.713a.91.91 0 0 1-1.285 0l-2.728-2.714a.9.9 0 0 1 0-1.279.91.91 0 0 1 1.285 0L17 7.96v-2.34c0-.937-.715-1.707-1.632-1.8l-.186-.01h-.455l-.092-.004a.907.907 0 0 1-.817-.9c0-.47.358-.854.817-.9L14.727 2zM22 18.19c0 1-.814 1.81-1.818 1.81H3.818l-.186-.01A1.813 1.813 0 0 1 2 18.19v-3.619c0-.999.814-1.81 1.818-1.81h16.364c1.004 0 1.818.811 1.818 1.81zM10.168 6.02c.113 1.99 1.06 3.689 2.476 4.932l-8.226.096a1.812 1.812 0 0 1-1.741-2.33L4.313 3.29a1.82 1.82 0 0 1 1.592-1.284L6.055 2h5.074a7.2 7.2 0 0 0-.973 3.62z"/>
</svg>
