<svg width="24" height="24" viewBox="0 0 24 24" fill="none" xmlns="http://www.w3.org/2000/svg">
    <path fill-rule="evenodd" clip-rule="evenodd" d="M18 2a1 1 0 1 1 2 0v2h2a1 1 0 1 1 0 2h-2v2a1 1 0 1 1-2 0V6h-2a1 1 0 1 1 0-2h2V2zm.413 15.413c.374-.375.585-.883.587-1.413v-5a6.002 6.002 0 0 1-5.917-5H3a2.006 2.006 0 0 0-2 2v8a2.006 2.006 0 0 0 2 2h14a2.006 2.006 0 0 0 1.413-.587zM5.5 16A2.5 2.5 0 0 0 3 13.5V16h2.5zm0-8H3v2.5A2.5 2.5 0 0 0 5.5 8zm6.5 4a2 2 0 1 0-4 0 2 2 0 0 0 4 0zm5 1.5a2.5 2.5 0 0 0-2.5 2.5H17v-2.5zm6-.5v8a1 1 0 0 1-.293.707S22.265 22 22 22H6a2.006 2.006 0 0 1-2-2h17v-9a2.006 2.006 0 0 1 2 2z" fill="#000"/>
</svg>
