<svg xmlns="http://www.w3.org/2000/svg" width="24" height="24" fill="none" viewBox="0 0 24 24">
    <path fill="currentColor" d="M20 8.833A.817.817 0 0 0 19.2 8H4.8c-.425 0-.8.356-.8.833v7.334c0 .477.375.833.8.833h14.4c.425 0 .8-.356.8-.833zM12.8 12.5a.817.817 0 0 0-.8-.833c-.425 0-.8.355-.8.833s.375.833.8.833.8-.355.8-.833m-6.19-1a1 1 0 0 1 0 2H6.6a1 1 0 0 1 0-2zm10.8 0a1 1 0 0 1 0 2h-.01a1 1 0 1 1 0-2zm-2.61 1c0 1.547-1.236 2.833-2.8 2.833S9.2 14.047 9.2 12.5s1.236-2.833 2.8-2.833 2.8 1.286 2.8 2.833m7.2 3.667C22 17.714 20.764 19 19.2 19H4.8C3.236 19 2 17.714 2 16.167V8.833C2 7.286 3.236 6 4.8 6h14.4C20.764 6 22 7.286 22 8.833z"/>
</svg>
