<svg xmlns="http://www.w3.org/2000/svg" width="24" height="24" fill="none" viewBox="0 0 24 24">
    <path fill="currentColor" d="M14.417 6A5 5 0 0 0 22 11.999V16.5a2.5 2.5 0 0 1-2.5 2.5h-15A2.5 2.5 0 0 1 2 16.5v-8A2.5 2.5 0 0 1 4.5 6zm-2.416 3.667c-1.563 0-2.8 1.286-2.8 2.833s1.236 2.834 2.8 2.834 2.8-1.287 2.8-2.834-1.237-2.833-2.8-2.833m-5.4 1.833a1 1 0 0 0 0 2h.008a1 1 0 0 0 0-2zm5.435.167c.443 0 .834.356.834.833a.836.836 0 0 1-1.67 0c0-.477.393-.833.836-.833M19 4a1 1 0 0 1 1 1v2h2a1 1 0 1 1 0 2h-2v2a1 1 0 1 1-2 0V9h-2a1 1 0 1 1 0-2h2V5a1 1 0 0 1 1-1"/>
</svg>
