<svg xmlns="http://www.w3.org/2000/svg" width="24" height="24" fill="none" viewBox="0 0 24 24">
    <path fill="currentColor" d="M12 9a3 3 0 1 0 0 6 3 3 0 0 0 0-6m0 4a1 1 0 1 1 0-2 1 1 0 0 1 0 2m0-4a3 3 0 1 0 0 6 3 3 0 0 0 0-6m0 4a1 1 0 1 1 0-2 1 1 0 0 1 0 2m0-4a3 3 0 1 0 0 6 3 3 0 0 0 0-6m0 4a1 1 0 1 1 0-2 1 1 0 0 1 0 2m0-4a3 3 0 1 0 0 6 3 3 0 0 0 0-6m0 4a1 1 0 1 1 0-2 1 1 0 0 1 0 2m8-9H4a3.01 3.01 0 0 0-3 3v10a3.01 3.01 0 0 0 3 3h16a3.01 3.01 0 0 0 3-3V7a3.01 3.01 0 0 0-3-3M3 7a1 1 0 0 1 1-1h1.61A5.04 5.04 0 0 1 3 8.63zm1 11a1 1 0 0 1-1-1v-1.63A5.04 5.04 0 0 1 5.61 18zm17-1a1 1 0 0 1-1 1h-1.61A5.04 5.04 0 0 1 21 15.37zm0-3.77A6.98 6.98 0 0 0 16.28 18H7.72A6.98 6.98 0 0 0 3 13.23v-2.46A6.98 6.98 0 0 0 7.72 6h8.56A6.98 6.98 0 0 0 21 10.77zm0-4.6A5.04 5.04 0 0 1 18.39 6H20a1 1 0 0 1 1 1zM12 9a3 3 0 1 0 0 6 3 3 0 0 0 0-6m0 4a1 1 0 1 1 0-2 1 1 0 0 1 0 2m0-4a3 3 0 1 0 0 6 3 3 0 0 0 0-6m0 4a1 1 0 1 1 0-2 1 1 0 0 1 0 2m0-4a3 3 0 1 0 0 6 3 3 0 0 0 0-6m0 4a1 1 0 1 1 0-2 1 1 0 0 1 0 2m0-4a3 3 0 1 0 0 6 3 3 0 0 0 0-6m0 4a1 1 0 1 1 0-2 1 1 0 0 1 0 2m0-4a3 3 0 1 0 0 6 3 3 0 0 0 0-6m0 4a1 1 0 1 1 0-2 1 1 0 0 1 0 2"/>
</svg>
