<svg width="24" height="24" viewBox="0 0 24 24" fill="none" xmlns="http://www.w3.org/2000/svg">
<path d="M4 18H20V14.7617H4V18ZM8.15625 5.61915C8.15625 5.06729 8.20533 4.52612 8.29883 4H6.1875L4.66699 9.04396L8.82227 8.9961C8.39714 7.96706 8.15626 6.83411 8.15625 5.61915ZM15.1816 2C17.1899 2 18.8184 3.6204 18.8184 5.61915V7.95899L19.9932 6.78907C20.3482 6.43574 20.9243 6.43574 21.2793 6.78907C21.6341 7.1424 21.6342 7.71509 21.2793 8.06837L18.5518 10.7822C18.1967 11.1356 17.6216 11.1356 17.2666 10.7822L14.5391 8.06837C14.1841 7.71507 14.1841 7.14241 14.5391 6.78907C14.8941 6.43576 15.4692 6.43582 15.8242 6.78907L17 7.95899V5.61915C17 4.6824 16.2848 3.91223 15.3682 3.81934L15.1816 3.80957H14.7275L14.6348 3.80469C14.1761 3.75855 13.8184 3.3729 13.8184 2.9043C13.8186 2.43591 14.1763 2.05101 14.6348 2.00488L14.7275 2H15.1816ZM22 18.1905C22 19.1898 21.1858 20 20.1816 20H3.81836L3.63184 19.9903C2.71524 19.8974 2 19.1272 2 18.1905V14.5713C2.00009 13.572 2.81426 12.7617 3.81836 12.7617H20.1816C21.1857 12.7617 21.9999 13.572 22 14.5713V18.1905ZM10.168 6.02051C10.2809 8.00926 11.2282 9.70878 12.6436 10.9522L4.41797 11.0479C3.20016 11.0477 2.32681 9.87873 2.67676 8.71778L4.31348 3.29004C4.52978 2.57245 5.16504 2.06622 5.90527 2.00586L6.05469 2H11.1289C10.5102 3.06459 10.1562 4.30084 10.1562 5.61915L10.168 6.02051Z" fill="currentColor"/>
</svg>
