<svg xmlns="http://www.w3.org/2000/svg" width="24" height="24" fill="none" viewBox="0 0 24 24">
    <path fill="currentColor" d="M19.2 2q.275 0 .425.237.15.238.024.488l-.55 1.05a.6.6 0 0 0-.05.225q0 .1.05.225l.55 1.05a.47.47 0 0 1-.024.488A.48.48 0 0 1 19.2 6H15v3.29l1.858-1.557a1 1 0 0 1 1.59.45l3.5 10.5A1 1 0 0 1 21 20H3a1 1 0 0 1-.947-1.32l5.4-16a1.001 1.001 0 0 1 1.889-.015l3.117 8.755.541-.454V3q0-.425.287-.713A.97.97 0 0 1 14 2zM4.393 18h15.22l-2.597-7.79-4.373 3.667a1.002 1.002 0 0 1-1.585-.43L8.425 6.051z"/>
</svg>
