<svg xmlns="http://www.w3.org/2000/svg" width="24" height="24" fill="none" viewBox="0 0 24 24">
    <path fill="currentColor" d="M19 7.63H5V19.2c0 .216.085.422.232.57.147.149.343.23.545.23h12.446a.77.77 0 0 0 .545-.23.81.81 0 0 0 .232-.57zM7.444 10.2a1 1 0 0 1 2 0c0 .694.273 1.356.753 1.843s1.13.757 1.803.757c.674 0 1.322-.27 1.803-.757s.753-1.15.753-1.843a1 1 0 1 1 2 0 4.62 4.62 0 0 1-1.33 3.248A4.53 4.53 0 0 1 12 14.8a4.53 4.53 0 0 1-3.226-1.352 4.62 4.62 0 0 1-1.33-3.248M7.556 4a.76.76 0 0 0-.62.315l-.973 1.316h12.074l-.973-1.316a.761.761 0 0 0-.62-.315zM21 19.2c0 .739-.29 1.45-.81 1.976a2.77 2.77 0 0 1-1.967.824H5.777c-.74 0-1.448-.298-1.967-.824A2.8 2.8 0 0 1 3 19.2v-12a2.8 2.8 0 0 1 .173-.964c.092-.252.217-.492.379-.71L5.33 3.124A2.761 2.761 0 0 1 7.556 2h8.888a2.76 2.76 0 0 1 2.226 1.125l1.778 2.4a2.8 2.8 0 0 1 .42.83q.13.41.132.845z"/>
</svg>
