<svg xmlns="http://www.w3.org/2000/svg" width="24" height="24" fill="none" viewBox="0 0 24 24">
    <path fill="currentColor" d="M17.332 14.333a1 1 0 0 1 0 2H14a1 1 0 0 1 0-2zM5.6 13.666v-.889a1 1 0 0 1 2 0v.889a1 1 0 1 1-2 0m0-4.444v-.779h-.8a.79.79 0 0 0-.8.779v8a.79.79 0 0 0 .8.778h.8v-.778a1 1 0 0 1 2 0V18h11.6c.454 0 .8-.36.8-.778v-8a.79.79 0 0 0-.8-.779H7.6v.779a1 1 0 0 1-2 0m9.384-5.171a.82.82 0 0 0-.544-.009l-.075.03-5.284 2.371h7.262L15.43 4.46a.8.8 0 0 0-.446-.41M22 17.22C22 18.768 20.735 20 19.2 20H4.8C3.265 20 2 18.767 2 17.222v-8c0-1.118.662-2.07 1.608-2.512l.038-.019.047-.021.028-.013 9.825-4.41a2.82 2.82 0 0 1 2.134-.071 2.8 2.8 0 0 1 1.566 1.447l1.299 2.82h.655c1.535 0 2.8 1.233 2.8 2.779z"/>
</svg>
