<svg width="24" height="24" viewBox="0 0 24 24" fill="none" xmlns="http://www.w3.org/2000/svg">
  <path fill-rule="evenodd" clip-rule="evenodd"
    d="M4 5C2.34315 5 1 6.34315 1 8V16C1 17.6569 2.34315 19 4 19H20C21.6569 19 23 17.6569 23 16V8C23 6.34315 21.6569 5 20 5H4ZM5 8C4.44772 8 4 8.44772 4 9C4 9.55228 4.44772 10 5 10H19C19.5523 10 20 9.55228 20 9C20 8.44772 19.5523 8 19 8H5ZM4 13C4 12.4477 4.44772 12 5 12H7C7.55228 12 8 12.4477 8 13C8 13.5523 7.55228 14 7 14H5C4.44772 14 4 13.5523 4 13ZM18.2928 13.2929C18.6833 12.9024 19.3165 12.9023 19.7071 13.2928C20.0976 13.6833 20.0977 14.3165 19.7072 14.7071C18.8366 15.5777 17.972 16.0001 17.0626 16.0002C16.2598 16.0003 15.5732 15.6558 15.1121 15.4244L15.0528 15.3947C14.5132 15.1249 14.2245 15.0002 13.9374 15.0002C13.7218 15.0002 13.3365 15.0778 12.7071 15.7071C12.3165 16.0976 11.6834 16.0976 11.2929 15.7071C10.9024 15.3165 10.9024 14.6834 11.2929 14.2929C12.1635 13.4223 13.0282 13.0001 13.9376 13.0002C14.7403 13.0003 15.4267 13.3447 15.8878 13.5761L15.9472 13.6059C16.4868 13.8756 16.7754 14.0002 17.0624 14.0002C17.278 14.0002 17.6634 13.9225 18.2928 13.2929Z"
    fill="currentColor" />
</svg>
