<svg width="24" height="24" viewBox="0 0 24 24" fill="none" xmlns="http://www.w3.org/2000/svg">
<path d="M12 24C18.6274 24 24 18.6274 24 12C24 5.37258 18.6274 0 12 0C5.37258 0 0 5.37258 0 12C0 18.6274 5.37258 24 12 24Z" fill="#6DA544"/>
<path d="M11.9999 4.69556L21.913 11.9999L11.9999 19.3042L2.08691 11.9999L11.9999 4.69556Z" fill="#FFDA44"/>
<path d="M12.0001 16.174C14.3052 16.174 16.174 14.3052 16.174 12.0001C16.174 9.69489 14.3052 7.82617 12.0001 7.82617C9.69489 7.82617 7.82617 9.69489 7.82617 12.0001C7.82617 14.3052 9.69489 16.174 12.0001 16.174Z" fill="#F0F0F0"/>
<path d="M9.91276 11.7393C9.18695 11.7393 8.48649 11.8496 7.82715 12.0545C7.85635 14.3345 9.71279 16.1741 11.9997 16.1741C13.4139 16.1741 14.6628 15.4701 15.4178 14.3943C14.1261 12.7773 12.1385 11.7393 9.91276 11.7393Z" fill="#0052B4"/>
<path d="M16.0962 12.7997C16.1464 12.5408 16.1735 12.2737 16.1735 12.0001C16.1735 9.69484 14.3048 7.82617 11.9997 7.82617C10.2796 7.82617 8.80306 8.86684 8.16406 10.3527C8.72891 10.2356 9.31372 10.174 9.91273 10.174C12.337 10.174 14.5301 11.1817 16.0962 12.7997Z" fill="#0052B4"/>
</svg>
