<svg width="24" height="24" viewBox="0 0 24 24" fill="none" xmlns="http://www.w3.org/2000/svg">
<path d="M24 12C24 18.6274 18.6274 24 12 24C5.37262 24 0 18.6274 0 12C0 5.37262 12 0 12 0C12 0 24 5.37262 24 12Z" fill="#A2001D"/>
<path d="M0 12C0 5.37262 5.37262 0 12 0C18.6274 0 24 5.37262 24 12" fill="#0052B4"/>
<path d="M16.174 15.1305L12.0001 14.6088L7.82617 15.1305V8.86963H16.174V15.1305Z" fill="#F0F0F0"/>
<path d="M12.0001 14.6088C13.1527 14.6088 14.087 13.6744 14.087 12.5218C14.087 11.3692 13.1527 10.4348 12.0001 10.4348C10.8475 10.4348 9.91309 11.3692 9.91309 12.5218C9.91309 13.6744 10.8475 14.6088 12.0001 14.6088Z" fill="#0052B4"/>
<path d="M11.9995 13.5652C12.5758 13.5652 13.043 13.0981 13.043 12.5218C13.043 11.9455 12.5758 11.4783 11.9995 11.4783C11.4232 11.4783 10.9561 11.9455 10.9561 12.5218C10.9561 13.0981 11.4232 13.5652 11.9995 13.5652Z" fill="#A2001D"/>
<path d="M10.4346 9.91309H13.565L11.9998 11.4783L10.4346 9.91309Z" fill="#6DA544"/>
<path d="M11.4785 10.9565H12.522V14.087H11.4785V10.9565Z" fill="#FFDA44"/>
<path d="M13.6696 13.7739H10.3304L7.82617 15.1305H16.174L13.6696 13.7739Z" fill="#6DA544"/>
</svg>
