<svg width="24" height="24" viewBox="0 0 24 24" fill="none" xmlns="http://www.w3.org/2000/svg">
<path d="M12 24C18.6274 24 24 18.6274 24 12C24 5.37258 18.6274 0 12 0C5.37258 0 0 5.37258 0 12C0 18.6274 5.37258 24 12 24Z" fill="#F0F0F0"/>
<path d="M11.9999 0C7.74505 0 4.0077 2.21452 1.87695 5.5537L18.15 22.3054C21.6536 20.21 23.9999 16.3792 23.9999 12C23.9999 5.37262 18.6273 0 11.9999 0Z" fill="#FFDA44"/>
<path d="M23.9996 12C23.9996 8.88651 22.8138 6.0502 20.8691 3.91748V20.0827C22.8138 17.9499 23.9996 15.1136 23.9996 12Z" fill="#0052B4"/>
<path d="M14.9901 22.5879L16.2471 22.5871L16.6348 21.3914L17.024 22.5867L17.6544 22.5863C18.041 22.3793 18.4149 22.1519 18.7747 21.9052L2.0948 5.22534C1.81992 5.6264 1.56923 6.04519 1.34381 6.47925L1.49203 6.9345L2.74898 6.9337L1.73255 7.67315L2.1217 8.86842L1.10433 8.13023L0.497531 8.57161C0.174047 9.65798 0 10.8087 0 12.0001C0 18.6275 5.37262 24.0001 12 24.0001C13.4012 24.0001 14.7461 23.7596 15.9961 23.318L14.9901 22.5879ZM2.67652 11.4784L3.06417 10.2827L2.04689 9.54445L3.30384 9.54365L3.69155 8.34792L4.0807 9.54319L5.33766 9.54239L4.32117 10.2818L4.71033 11.4771L3.69295 10.7389L2.67652 11.4784ZM5.26519 14.0871L5.65284 12.8914L4.63556 12.1531L5.89252 12.1523L6.28022 10.9566L6.66937 12.1519L7.92633 12.1511L6.90989 12.8905L7.29905 14.0858L6.28167 13.3476L5.26519 14.0871ZM7.85381 16.6958L8.24147 15.5001L7.22419 14.7618L8.48114 14.761L8.86884 13.5653L9.258 14.7606L10.515 14.7598L9.49851 15.4992L9.88767 16.6945L8.8703 15.9562L7.85381 16.6958ZM11.4589 18.565L10.4424 19.3045L10.8301 18.1088L9.81281 17.3705L11.0698 17.3697L11.4575 16.174L11.8467 17.3692L13.1036 17.3684L12.0872 18.1079L12.4763 19.3032L11.4589 18.565ZM13.0311 21.9132L13.4188 20.7175L12.4015 19.9792L13.6584 19.9784L14.0461 18.7827L14.4353 19.9779L15.6922 19.9771L14.6758 20.7166L15.065 21.9119L14.0476 21.1736L13.0311 21.9132Z" fill="#0052B4"/>
</svg>
