<svg width="24" height="24" viewBox="0 0 24 24" fill="none" xmlns="http://www.w3.org/2000/svg">
<path d="M12 24C18.6274 24 24 18.6274 24 12C24 5.37258 18.6274 0 12 0C5.37258 0 0 5.37258 0 12C0 18.6274 5.37258 24 12 24Z" fill="#D80027"/>
<path d="M11.9999 17.739C15.1695 17.739 17.739 15.1695 17.739 11.9999C17.739 8.83024 15.1695 6.26074 11.9999 6.26074C8.83024 6.26074 6.26074 8.83024 6.26074 11.9999C6.26074 15.1695 8.83024 17.739 11.9999 17.739Z" fill="#F0F0F0"/>
<path d="M12.707 9.80566L13.6915 11.1625L15.2861 10.6454L14.3 12.0011L15.2844 13.3578L13.6904 12.8388L12.7043 14.1944L12.7053 12.5181L11.1113 11.9991L12.7059 11.4821L12.707 9.80566Z" fill="#D80027"/>
<path d="M13.3044 15.3914C11.4315 15.3914 9.91309 13.873 9.91309 12.0001C9.91309 10.1272 11.4315 8.6088 13.3044 8.6088C13.8884 8.6088 14.4379 8.75645 14.9176 9.01642C14.165 8.28044 13.1359 7.82617 12.0001 7.82617C9.69494 7.82617 7.82617 9.69489 7.82617 12.0001C7.82617 14.3052 9.69494 16.174 12.0001 16.174C13.1359 16.174 14.1651 15.7197 14.9176 14.9837C14.4379 15.2438 13.8884 15.3914 13.3044 15.3914Z" fill="#D80027"/>
</svg>
