<svg width="24" height="24" viewBox="0 0 24 24" fill="none" xmlns="http://www.w3.org/2000/svg">
<path d="M12 24C18.6274 24 24 18.6274 24 12C24 5.37258 18.6274 0 12 0C5.37258 0 0 5.37258 0 12C0 18.6274 5.37258 24 12 24Z" fill="#F9F9F9"/>
<path d="M11.9997 23.9999C17.1593 23.9999 21.5578 20.7434 23.2533 16.1738H0.746094C2.44166 20.7434 6.84012 23.9999 11.9997 23.9999Z" fill="#D80027"/>
<path d="M16.6955 9.91305V8.34784H17.2173V7.30436H16.1738V7.82612H15.1303V7.30436H14.0869V8.34784H14.6086V9.91305H13.5651V6.26097H14.0869V5.21753H13.0434V5.73915H12.5216V5.21753H11.4782V5.73915H10.9564V5.21753H9.91291V6.26097H10.4347V9.91305H9.3912V8.34784H9.91291V7.30436H8.86943V7.82612H7.82599V7.30436H6.78251V8.34784H7.30423V9.91305H6.26074V14.087H17.739V9.91305H16.6955Z" fill="#D80027"/>
<path d="M12 13.5652C11.1356 13.5652 10.4348 14.266 10.4348 15.1304C10.4348 15.8118 10.8705 16.3913 11.4783 16.6062V18.7826H9.91309V20.8696H12.5218V16.6062C13.1296 16.3914 13.5653 15.8119 13.5653 15.1304C13.5652 14.266 12.8644 13.5652 12 13.5652ZM12 15.6522C11.7119 15.6522 11.4783 15.4185 11.4783 15.1304C11.4783 14.8423 11.7119 14.6087 12 14.6087C12.2881 14.6087 12.5217 14.8423 12.5217 15.1304C12.5217 15.4185 12.2881 15.6522 12 15.6522Z" fill="#FFDA44"/>
</svg>
