<svg width="24" height="24" viewBox="0 0 24 24" fill="none" xmlns="http://www.w3.org/2000/svg">
<path d="M23.2536 16.1735C23.736 14.8736 24 13.4674 24 11.9996C24 10.5318 23.736 9.12565 23.2536 7.82571L12 6.78223L0.746391 7.82571C0.264047 9.12565 0 10.5318 0 11.9996C0 13.4674 0.264047 14.8736 0.746391 16.1735L12 17.217L23.2536 16.1735Z" fill="#6DA544"/>
<path d="M23.2533 7.82611C21.5578 3.2565 17.1593 0 11.9997 0C6.84012 0 2.44161 3.2565 0.746094 7.82611H23.2533Z" fill="#FFDA44"/>
<path d="M11.9997 23.9999C17.1593 23.9999 21.5578 20.7434 23.2533 16.1738H0.746094C2.44161 20.7434 6.84012 23.9999 11.9997 23.9999Z" fill="#D80027"/>
<path d="M20.2292 10.1524H13.9429L12.0003 4.17383L10.0577 10.1524H3.77148L8.85719 13.8474L6.91459 19.826L12.0003 16.1738L17.0861 19.826L15.1435 13.8473L20.2292 10.1524Z" fill="#F0F0F0"/>
</svg>
