<svg width="24" height="24" viewBox="0 0 24 24" fill="none" xmlns="http://www.w3.org/2000/svg">
<path d="M24 12C24 18.6274 18.6274 24 12 24C5.37262 24 0 18.6274 0 12C0 12.0029 12 0.0013125 12 0C18.6274 0 24 5.37262 24 12Z" fill="#0052B4"/>
<path d="M11.9678 11.9999H11.9999C11.9999 11.9891 11.9999 11.9786 11.9999 11.9678C11.9892 11.9785 11.9785 11.9892 11.9678 11.9999Z" fill="#F0F0F0"/>
<path d="M12 6.26086C12 4.14937 12 2.76586 12 0H11.998C5.3715 0.001125 0 5.37323 0 12H6.26086V8.47448L9.78642 12H11.9679C11.9786 11.9893 11.9894 11.9786 12 11.9679C12 11.1594 12 10.4381 12 9.78647L8.47444 6.26086H12Z" fill="#F0F0F0"/>
<path d="M6.07124 1.56543C4.19441 2.63413 2.63413 4.19441 1.56543 6.07124V12.0002H4.69588V4.69598V4.69588H12.0002C12.0002 3.70855 12.0002 2.76796 12.0002 1.56543H6.07124Z" fill="#D80027"/>
<path d="M11.9998 10.5242L7.73641 6.26074C7.73641 6.26074 6.26074 6.26084 6.26074 6.26074V6.26084L11.9998 11.9998H11.9998C11.9998 11.9998 11.9998 10.9823 11.9998 10.5242Z" fill="#D80027"/>
<path d="M20.7808 8.9043L21.0398 9.70145H21.878L21.1999 10.1941L21.4589 10.9912L20.7808 10.4986L20.1027 10.9912L20.3617 10.1941L19.6836 9.70145H20.5218L20.7808 8.9043Z" fill="#D80027"/>
<path d="M17.7854 14.6436L18.174 15.8393H19.4312L18.414 16.5783L18.8026 17.774L17.7854 17.035L16.7682 17.774L17.1568 16.5783L16.1396 15.8393H17.3969L17.7854 14.6436Z" fill="#D80027"/>
<path d="M17.8978 5.25195L18.2216 6.24847H19.2693L18.4216 6.86417L18.7454 7.86064L17.8978 7.24475L17.0502 7.86064L17.374 6.86417L16.5264 6.24847H17.574L17.8978 5.25195Z" fill="#D80027"/>
<path d="M15.0149 8.87012L15.4034 10.0659H16.6607L15.6435 10.8048L16.0321 12.0006L15.0149 11.2616L13.9977 12.0006L14.3863 10.8048L13.3691 10.0659H14.6264L15.0149 8.87012Z" fill="#D80027"/>
</svg>
