<svg width="24" height="24" viewBox="0 0 24 24" fill="none" xmlns="http://www.w3.org/2000/svg">
<path d="M12 24C18.6274 24 24 18.6274 24 12C24 5.37258 18.6274 0 12 0C5.37258 0 0 5.37258 0 12C0 18.6274 5.37258 24 12 24Z" fill="#F0F0F0"/>
<path d="M6.48568 16.6953L3.51465 20.4845C5.68609 22.6563 8.68576 23.9997 11.9995 23.9997C16.9603 23.9997 21.2172 20.9889 23.0447 16.6953H6.48568Z" fill="#FFDA44"/>
<path d="M23.0634 7.3478C21.2461 3.03103 16.9771 0 11.9995 0C8.68576 0 5.68609 1.34339 3.51465 3.51511L6.5198 7.3478H23.0634Z" fill="#496E2D"/>
<path d="M2.6084 8.82617V15.1305H23.5864C23.8555 14.1325 23.9997 13.0832 23.9997 12.0001C23.9997 10.9012 23.8517 9.83717 23.575 8.82617H2.6084Z" fill="black"/>
<path d="M3.51471 3.51465C-1.17157 8.20093 -1.17157 15.7989 3.51471 20.4853C5.45126 18.5487 7.31374 16.6862 12 12L3.51471 3.51465Z" fill="#A2001D"/>
<path d="M4.85695 8.86914L5.6339 11.2605H8.14855L6.11427 12.7386L6.89118 15.13L4.85695 13.652L2.82262 15.13L3.59971 12.7386L1.56543 11.2605H4.0799L4.85695 8.86914Z" fill="#FFDA44"/>
<path d="M2.58301 12H7.13101V14.087H2.58301V12Z" fill="#F0F0F0"/>
<path d="M7.99252 9.60705L7.25466 8.86914L4.8571 11.2667L2.45954 8.86914L1.72168 9.60705L4.12135 12.0025L1.72168 14.4022L2.45954 15.13L4.8571 12.7368L7.25466 15.13L7.99252 14.4022L5.59285 12.0025L7.99252 9.60705Z" fill="black"/>
</svg>
