<svg width="24" height="24" viewBox="0 0 24 24" fill="none" xmlns="http://www.w3.org/2000/svg">
<path d="M12 24C18.6274 24 24 18.6274 24 12C24 5.37258 18.6274 0 12 0C5.37258 0 0 5.37258 0 12C0 18.6274 5.37258 24 12 24Z" fill="#F0F0F0"/>
<path d="M11.9997 0C9.87812 0 7.88556 0.551344 6.15625 1.51744V22.4826C7.88561 23.4487 9.87812 24 11.9997 24C18.6271 24 23.9997 18.6274 23.9997 12C23.9997 5.37262 18.6271 0 11.9997 0Z" fill="#6DA544"/>
<path d="M6.19178 1.49768C5.43686 1.91604 4.73195 2.41329 4.08794 2.9786C4.15305 2.92151 4.21881 2.86507 4.28509 2.80938L13.4756 12L4.28505 21.1906C4.21872 21.1349 4.153 21.0784 4.08789 21.0214C4.73191 21.5867 5.43686 22.0839 6.19173 22.5023L24 12L6.19178 1.49768Z" fill="#F0F0F0"/>
<path d="M5.17837 2.12732C4.81241 2.38073 4.46095 2.6534 4.12602 2.94482L12.0001 12L4.12598 21.0553C4.4609 21.3467 4.81237 21.6194 5.17832 21.8728L21.9459 12L5.17837 2.12732Z" fill="#FFDA44"/>
<path d="M4.28504 2.80945C4.01827 3.0336 3.76084 3.26859 3.51465 3.51473L10.9565 12L3.51465 20.4854C3.76084 20.7315 4.01823 20.9666 4.28504 21.1906L13.4756 12L4.28504 2.80945Z" fill="black"/>
<path d="M3.51471 3.51465C-1.17157 8.20093 -1.17157 15.7989 3.51471 20.4853C5.45126 18.5487 7.31374 16.6862 12 12L3.51471 3.51465Z" fill="#D80027"/>
</svg>
