<svg width="24" height="24" viewBox="0 0 24 24" fill="none" xmlns="http://www.w3.org/2000/svg">
<path d="M20.9434 20.0004C22.8439 17.8773 24 15.0741 24 12.0004C24 8.92672 22.8438 6.12345 20.9434 4.00039L12 3.13086L3.05662 4.00039C1.15617 6.12345 0 8.92672 0 12.0004C0 15.0741 1.15613 17.8773 3.05658 20.0004L12 20.87L20.9434 20.0004Z" fill="#FFDA44"/>
<path d="M3.05664 3.99998H20.9434C18.7462 1.54528 15.5538 0 12 0C8.44628 0 5.25386 1.54528 3.05664 3.99998Z" fill="black"/>
<path d="M0 12L12 13.0435L24 12C24 10.5973 23.7585 9.25119 23.3162 8H0.683812C0.241453 9.25119 0 10.5973 0 12H0Z" fill="#D80027"/>
<path d="M0.683812 16H23.3163C23.7585 14.7488 24 13.4027 24 12H0C0 13.4027 0.241453 14.7488 0.683812 16Z" fill="black"/>
<path d="M20.9435 20H3.05664C5.25386 22.4548 8.44628 24 12.0001 24C15.5538 24 18.7463 22.4548 20.9435 20Z" fill="#D80027"/>
<path d="M16.0048 12.0004C16.0048 14.2121 14.2121 16.0048 12.0004 16.0048C9.78873 16.0048 7.99609 14.2121 7.99609 12.0004C7.99609 9.78873 9.78873 7.99609 12.0004 7.99609C14.2121 7.99609 16.0048 9.78873 16.0048 12.0004Z" fill="#F0F0F0"/>
<path d="M13.4669 12.2046L11.9999 11.5689C11.9999 11.5689 12.3431 10.4297 12.3614 10.3518C12.3748 10.2948 12.3819 10.2354 12.3819 10.1744C12.3819 9.95827 12.2943 9.76262 12.1526 9.62105L12.5215 9.25215C12.2855 9.01613 11.9594 8.87012 11.5992 8.87012C11.239 8.87012 10.9129 9.01609 10.6769 9.25215L11.0458 9.62105C10.9042 9.76266 10.8166 9.95832 10.8166 10.1744C10.8166 10.2534 10.8285 10.3296 10.8503 10.4016L10.2949 10.9569H11.3044C11.3044 10.9569 10.887 11.5839 10.6592 12.0987C10.4313 12.6135 10.6623 13.2419 11.1889 13.476L11.4934 13.6113L11.9999 14.0874V14.6091L11.4782 15.1308H12.5217V14.0874L12.9978 13.6112H13.9825C13.9873 13.6014 13.9922 13.5919 13.9967 13.5819C14.2307 13.0553 13.9935 12.4386 13.4669 12.2046Z" fill="black"/>
</svg>
