<svg width="24" height="24" viewBox="0 0 24 24" fill="none" xmlns="http://www.w3.org/2000/svg">
<path d="M20.4853 20.4855C15.799 25.1718 8.20104 25.1718 3.51471 20.4855C-1.17157 15.7992 -1.17157 8.20118 3.51471 3.51485C3.5164 3.51485 14.2987 0.328894 18.985 5.01518C23.6713 9.70146 20.4885 20.4822 20.4853 20.4855Z" fill="#FFDA44"/>
<path d="M20.4852 20.4854C25.1715 15.7991 25.1715 8.20106 20.4852 3.51473C15.7989 -1.1716 8.20098 -1.17155 3.51465 3.51473L20.4852 20.4854Z" fill="#D80027"/>
<path d="M15.1362 15.138C14.6433 15.3316 14.0705 15.3111 13.5736 15.0322C12.6956 14.5395 12.3822 13.4241 12.8751 12.546L12.7255 12.4621C14.2288 12.0996 15.341 10.7351 15.3215 9.12483C15.3094 8.12372 14.8621 7.22808 14.1624 6.61523L13.0668 7.7377C13.481 8.0678 13.7495 8.57414 13.7564 9.14381C13.7686 10.1507 12.9595 10.9798 11.9526 10.9919L11.9547 11.1633C10.8891 10.0427 9.15138 9.76181 7.76665 10.5838C6.90574 11.0949 6.35384 11.9301 6.17285 12.8425L7.69273 13.2301C7.77152 12.7064 8.0757 12.2206 8.56559 11.9298C9.43141 11.4158 10.554 11.7021 11.068 12.5679L11.2155 12.4804C10.7778 13.9634 11.4034 15.6089 12.8077 16.3971C13.6808 16.8871 14.68 16.9476 15.5606 16.6481L15.1362 15.138ZM11.9652 12.0352L11.9651 12.0352L11.9652 12.0352Z" fill="#FF9811"/>
<path d="M16.4427 8.12741L15.5946 11.1542L13.0497 10.6843L11.4116 7.30762L6.98629 8.87798L6.6373 7.89454L5.47949 7.7519L6.35188 10.2104L9.3973 9.43157L10.2628 11.8704L8.15751 14.9774L11.7302 18.0245L11.053 18.8184L11.5084 19.8926L13.2014 17.9077L11.0042 15.6597L12.6836 13.6908L16.4269 13.9605L17.2795 9.34288L18.3057 9.5324L19.0083 8.60099L16.4427 8.12741ZM11.9987 12.0818V12.0819V12.0818Z" fill="#FFEACF"/>
</svg>
