<svg width="24" height="24" viewBox="0 0 24 24" fill="none" xmlns="http://www.w3.org/2000/svg">
<path d="M12 24C18.6274 24 24 18.6274 24 12C24 5.37258 18.6274 0 12 0C5.37258 0 0 5.37258 0 12C0 18.6274 5.37258 24 12 24Z" fill="#F0F0F0"/>
<path d="M16.5193 9.39116H13.5069L12.0008 6.78247L10.4948 9.39116H7.48242L8.9887 11.9998L7.48242 14.6085H10.4948L12.0008 17.2172L13.5069 14.6085H16.5193L15.013 11.9998L16.5193 9.39116ZM13.8512 11.9998L12.9261 13.6024H11.0757L10.1505 11.9998L11.0757 10.3973H12.9261L13.8512 11.9998ZM12.0008 8.79467L12.3452 9.39111H11.6566L12.0008 8.79467ZM9.22519 10.3973H9.91388L9.56953 10.9937L9.22519 10.3973ZM9.22519 13.6024L9.56958 13.006L9.91392 13.6024H9.22519ZM12.0008 15.205L11.6565 14.6085H12.3452L12.0008 15.205ZM14.7765 13.6024H14.0878L14.4322 13.006L14.7765 13.6024ZM14.0878 10.3973H14.7765L14.4322 10.9937L14.0878 10.3973Z" fill="#0052B4"/>
<path d="M19.4703 2.60864H4.53058C3.43544 3.48089 2.49625 4.54036 1.76172 5.7391H22.2392C21.5046 4.54041 20.5654 3.48089 19.4703 2.60864Z" fill="#0052B4"/>
<path d="M4.53058 21.3912H19.4702C20.5654 20.5189 21.5046 19.4595 22.2391 18.2607H1.76172C2.4963 19.4594 3.43548 20.5189 4.53058 21.3912Z" fill="#0052B4"/>
</svg>
