<svg width="24" height="24" viewBox="0 0 24 24" fill="none" xmlns="http://www.w3.org/2000/svg">
<path d="M12 24C18.6274 24 24 18.6274 24 12C24 5.37258 18.6274 0 12 0C5.37258 0 0 5.37258 0 12C0 18.6274 5.37258 24 12 24Z" fill="#F0F0F0"/>
<path d="M22.8512 6.87197C22.2416 5.58413 21.4095 4.42242 20.4045 3.43594L11.9998 2.60864L3.59512 3.43599C3.56831 3.46228 3.54216 3.48919 3.51562 3.51577L6.87188 6.87202L11.9998 7.02863L22.8512 6.87197Z" fill="#FFDA44"/>
<path d="M3.51562 20.4842C3.55978 20.5284 3.60384 20.5726 3.64866 20.6161L12 21.3912L20.3512 20.6161C21.3665 19.6317 22.2088 18.4699 22.827 17.1801L7.30425 16.6956C5.96864 18.0312 4.42814 19.5716 3.51562 20.4842Z" fill="#FFDA44"/>
<path d="M23.8807 10.3081L9.91309 9.91309L12.0001 12.0001C11.3819 12.6182 10.4591 13.541 9.91309 14.087L23.8734 13.7442C23.9564 13.1747 24.0001 12.5925 24.0001 12.0001C24.0001 11.4256 23.9588 10.861 23.8807 10.3081Z" fill="black"/>
<path d="M12.0004 0C8.7272 0 5.76067 1.31109 3.5957 3.43603H20.4051C18.2401 1.31109 15.2736 0 12.0004 0Z" fill="#6DA544"/>
<path d="M10.3081 10.3081H23.8807C23.7095 9.09502 23.3572 7.9403 22.8515 6.87207H6.87207L10.3081 10.3081Z" fill="#D80027"/>
<path d="M6.82031 17.1802H22.8276C23.3392 16.1127 23.6971 14.9579 23.8739 13.7441H10.2563C8.9257 15.0748 7.79798 16.2025 6.82031 17.1802Z" fill="#D80027"/>
<path d="M11.9996 24.0001C15.246 24.0001 18.1907 22.7104 20.3508 20.6162H3.64844C5.80862 22.7104 8.75331 24.0001 11.9996 24.0001Z" fill="#6DA544"/>
<path d="M4.28504 2.80933C4.01827 3.03348 3.76088 3.26847 3.51465 3.51461L12 11.9999L3.51465 20.4852C3.76084 20.7314 4.01827 20.9664 4.28504 21.1905L13.4756 11.9999L4.28504 2.80933Z" fill="black"/>
<path d="M4.82467 8.86963L5.60162 11.261H8.11623L6.08195 12.7391L6.85895 15.1305L4.82467 13.6525L2.79034 15.1305L3.56744 12.7391L1.5332 11.261H4.04767L4.82467 8.86963Z" fill="#D80027"/>
<path d="M6.96184 12.1957L4.93694 11.4783C4.93694 11.4783 4.78731 10.0747 4.77827 10.0272C4.70955 9.66515 4.39141 9.39136 4.00937 9.39136C3.57719 9.39136 3.22675 9.74175 3.22675 10.174C3.22675 10.2457 3.2372 10.3147 3.25525 10.3807L2.6875 10.9522H3.697C3.697 12 2.91512 12 2.91512 13.0435L3.34886 14.087H5.95755L6.39236 13.0435H6.39217C6.43572 12.9434 6.46216 12.8401 6.47308 12.737C6.84789 12.5854 6.96184 12.1957 6.96184 12.1957Z" fill="#FFDA44"/>
</svg>
