<svg width="24" height="24" viewBox="0 0 24 24" fill="none" xmlns="http://www.w3.org/2000/svg">
<path d="M12 24C18.6274 24 24 18.6274 24 12C24 5.37258 18.6274 0 12 0C5.37258 0 0 5.37258 0 12C0 18.6274 5.37258 24 12 24Z" fill="#D80027"/>
<path d="M11.5087 9.80566L12.4933 11.1625L14.0879 10.6454L13.1017 12.0011L14.0862 13.3578L12.4922 12.8388L11.5061 14.1944L11.5071 12.5181L9.91309 11.9991L11.5077 11.4821L11.5087 9.80566Z" fill="#F0F0F0"/>
<path d="M8.82198 15.3914C6.94905 15.3914 5.43067 13.873 5.43067 12.0001C5.43067 10.1272 6.94905 8.6088 8.82198 8.6088C9.40595 8.6088 9.95542 8.7565 10.4351 9.01642C9.68256 8.28039 8.65333 7.82617 7.51764 7.82617C5.21242 7.82617 3.34375 9.69489 3.34375 12.0001C3.34375 14.3052 5.21247 16.174 7.51764 16.174C8.65342 16.174 9.68261 15.7197 10.4351 14.9837C9.95542 15.2437 9.40595 15.3914 8.82198 15.3914Z" fill="#F0F0F0"/>
</svg>
