<svg width="24" height="24" viewBox="0 0 24 24" fill="none" xmlns="http://www.w3.org/2000/svg">
<path d="M12 24C18.6274 24 24 18.6274 24 12C24 5.37258 18.6274 0 12 0C5.37258 0 0 5.37258 0 12C0 18.6274 5.37258 24 12 24Z" fill="#FFDA44"/>
<path d="M19.3059 2.48062C17.2824 0.925266 14.7495 0 12.0001 0C9.25073 0 6.71779 0.925312 4.69434 2.48062L12.0001 9.78638L19.3059 2.48062Z" fill="#6DA544"/>
<path d="M2.48058 4.69434C0.925312 6.71779 0 9.25068 0 12.0001C0 14.7495 0.925312 17.2824 2.48062 19.3059L9.78642 12.0001L2.48058 4.69434Z" fill="black"/>
<path d="M4.69434 21.5196C6.71784 23.075 9.25073 24.0002 12.0001 24.0002C14.7495 24.0002 17.2824 23.0749 19.3059 21.5196L12.0001 14.2139L4.69434 21.5196Z" fill="#6DA544"/>
<path d="M21.5196 19.3058C23.075 17.2824 24.0002 14.7495 24.0002 12.0001C24.0002 9.25068 23.075 6.71779 21.5196 4.69434L14.2139 12.0001L21.5196 19.3058Z" fill="black"/>
</svg>
