<svg width="24" height="24" viewBox="0 0 24 24" fill="none" xmlns="http://www.w3.org/2000/svg">
<path d="M12 24C18.6274 24 24 18.6274 24 12C24 5.37258 18.6274 0 12 0C5.37258 0 0 5.37258 0 12C0 18.6274 5.37258 24 12 24Z" fill="#FFDA44"/>
<path d="M12.0002 0C11.9915 9.375e-05 11.4785 4.8 11.4785 4.8H21.6008C19.4115 1.88545 15.9261 0 12.0002 0Z" fill="#496E2D"/>
<path d="M11.9999 24.0002C15.9258 24.0002 19.4112 22.1147 21.6004 19.2002H2.39941C4.58866 22.1147 8.07405 24.0002 11.9999 24.0002Z" fill="#496E2D"/>
<path d="M23.76 9.59961H11.4785L12.0002 14.3996H23.76C23.9175 13.6242 24.0002 12.8216 24.0002 11.9996C24.0002 11.1777 23.9174 10.3751 23.76 9.59961Z" fill="#496E2D"/>
<path d="M12 14.4C12 11.8957 12 2.81737 12 0C5.37262 0 0 5.37262 0 12C0 12.822 0.082875 13.6245 0.240281 14.4H12Z" fill="#D80027"/>
<path d="M6.62155 5.73926L7.39855 8.13059H9.91316L7.87892 9.6087L8.65583 12.0001L6.62155 10.5221L4.58727 12.0001L5.36431 9.6087L3.33008 8.13059H5.84459L6.62155 5.73926Z" fill="#F0F0F0"/>
</svg>
