<svg width="24" height="24" viewBox="0 0 24 24" fill="none" xmlns="http://www.w3.org/2000/svg">
<path d="M17.7395 1.45908C16.0346 0.528891 14.0793 0 12.0004 0C9.92149 0 7.96615 0.528891 6.26126 1.45908L5.21777 12L6.26126 22.5409C7.96615 23.4711 9.92149 24 12.0004 24C14.0793 24 16.0346 23.4711 17.7395 22.5409L18.783 12L17.7395 1.45908Z" fill="#FFDA44"/>
<path d="M6.26086 22.5408V1.45898C2.53073 3.4943 0 7.45144 0 12C0 16.5485 2.53073 20.5056 6.26086 22.5408Z" fill="#338AF3"/>
<path d="M24.0001 12C24.0001 7.45144 21.4694 3.4943 17.7393 1.45898V22.5408C21.4694 20.5056 24.0001 16.5485 24.0001 12Z" fill="#6DA544"/>
<path d="M9.3917 15.13L7.30469 11.9996L9.39166 8.86914L11.4787 11.9996L9.3917 15.13Z" fill="#6DA544"/>
<path d="M14.6094 15.13L12.5225 11.9996L14.6094 8.86914L16.6964 11.9996L14.6094 15.13Z" fill="#6DA544"/>
<path d="M12.0001 19.3038L9.91309 16.1734L12.0001 13.043L14.087 16.1734L12.0001 19.3038Z" fill="#6DA544"/>
</svg>
