<svg width="24" height="24" viewBox="0 0 24 24" fill="none" xmlns="http://www.w3.org/2000/svg">
<path d="M24 11.9999C24 10.532 23.736 9.1259 23.2536 7.82596L12 7.3042L0.746391 7.82592C0.264047 9.1259 0 10.532 0 11.9999C0 13.4677 0.264047 14.8738 0.746391 16.1737L12 16.6955L23.2536 16.1738C23.736 14.8738 24 13.4677 24 11.9999Z" fill="#D80027"/>
<path d="M11.9997 23.9999C17.1593 23.9999 21.5578 20.7434 23.2533 16.1738H0.746094C2.44161 20.7434 6.84012 23.9999 11.9997 23.9999Z" fill="#6DA544"/>
<path d="M0.746094 7.82611H23.2534C21.5578 3.2565 17.1593 0 11.9997 0C6.84013 0 2.44161 3.2565 0.746094 7.82611Z" fill="#338AF3"/>
<path d="M12.2605 15.3914C10.3875 15.3914 8.86915 13.873 8.86915 12.0001C8.86915 10.1272 10.3875 8.6088 12.2605 8.6088C12.8444 8.6088 13.3939 8.75645 13.8737 9.01642C13.121 8.28044 12.0919 7.82617 10.9561 7.82617C8.6509 7.82617 6.78223 9.69489 6.78223 12.0001C6.78223 14.3052 8.65095 16.174 10.9561 16.174C12.0919 16.174 13.1211 15.7197 13.8737 14.9837C13.3939 15.2438 12.8444 15.3914 12.2605 15.3914Z" fill="#F0F0F0"/>
<path d="M14.8693 9.65234L15.3185 10.9157L16.5295 10.34L15.9538 11.5509L17.2171 12.0002L15.9538 12.4494L16.5295 13.6604L15.3185 13.0847L14.8693 14.348L14.4202 13.0847L13.2091 13.6604L13.7849 12.4494L12.5215 12.0002L13.7849 11.5509L13.2091 10.34L14.4202 10.9157L14.8693 9.65234Z" fill="#F0F0F0"/>
</svg>
