<svg width="24" height="24" viewBox="0 0 24 24" fill="none" xmlns="http://www.w3.org/2000/svg">
<path d="M12 24C18.6274 24 24 18.6274 24 12C24 5.37258 18.6274 0 12 0C5.37258 0 0 5.37258 0 12C0 18.6274 5.37258 24 12 24Z" fill="#0052B4"/>
<path d="M17.1496 12.8368C17.1937 12.5642 17.217 12.2846 17.217 11.9997C17.217 12.2846 17.1937 12.5642 17.1496 12.8368L19.304 11.9997L17.1496 11.1625L15.9662 10.7027L14.0436 9.95567L13.2966 8.03309C14.5563 8.44602 15.5532 9.44291 15.9662 10.7027L17.1495 11.1625C16.7919 8.95484 15.0444 7.20725 12.8368 6.84969L11.9997 4.69531L11.1625 6.84973C8.95484 7.20739 7.20734 8.95489 6.84973 11.1625L4.69531 11.9997L6.84978 12.8368C7.20739 15.0445 8.95489 16.792 11.1625 17.1496L11.9997 19.304L12.8368 17.1496C15.0444 16.792 16.792 15.0444 17.1496 12.8368ZM13.2375 10.7618L11.9997 11.9997H16.423L13.2375 13.2375L11.9997 11.9997V16.4231L10.7618 13.2375L11.9997 11.9997H7.5763L10.7618 10.7618L11.9997 11.9997V7.5763L13.2375 10.7618ZM10.7027 8.03314L9.95558 9.95572L8.03309 10.7028C8.44602 9.44291 9.44291 8.44611 10.7027 8.03314ZM8.03314 13.2966L9.95558 14.0437L10.7027 15.9662C9.44291 15.5532 8.44611 14.5564 8.03314 13.2966ZM13.2966 15.9662L14.0437 14.0437L15.9662 13.2966C15.5532 14.5564 14.5564 15.5532 13.2966 15.9662Z" fill="#F0F0F0"/>
<path d="M16.4234 12H12L13.2379 13.2379L16.4234 12Z" fill="#0052B4"/>
<path d="M7.57617 11.9995H11.9995L10.7617 10.7617L7.57617 11.9995Z" fill="#0052B4"/>
<path d="M11.9996 16.4234V12L10.7617 13.2379L11.9996 16.4234Z" fill="#0052B4"/>
<path d="M12 11.9995L13.2379 10.7617L12 7.57617V11.9995Z" fill="#0052B4"/>
<path d="M11.4785 1.56543H12.522V3.6524H11.4785V1.56543Z" fill="#F0F0F0"/>
<path d="M1.56543 11.4785H3.6524V12.522H1.56543V11.4785Z" fill="#F0F0F0"/>
<path d="M11.4785 20.3477H12.522V22.4346H11.4785V20.3477Z" fill="#F0F0F0"/>
<path d="M20.3477 11.4785H22.4346V12.522H20.3477V11.4785Z" fill="#F0F0F0"/>
</svg>
