<svg width="24" height="24" viewBox="0 0 24 24" fill="none" xmlns="http://www.w3.org/2000/svg">
<path d="M12 24C18.6274 24 24 18.6274 24 12C24 5.37258 18.6274 0 12 0C5.37258 0 0 5.37258 0 12C0 18.6274 5.37258 24 12 24Z" fill="#0052B4"/>
<path d="M11.9993 4.6958L12.3878 5.89153H13.645L12.6279 6.63052L13.0164 7.82625L11.9993 7.08722L10.9821 7.82625L11.3707 6.63052L10.3535 5.89153H11.6107L11.9993 4.6958Z" fill="#FFDA44"/>
<path d="M6.83474 6.83528L7.95506 7.40603L8.84404 6.51709L8.6473 7.75881L9.76757 8.32961L8.5258 8.52629L8.32912 9.76811L7.75832 8.64784L6.5166 8.84457L7.40559 7.95559L6.83474 6.83528Z" fill="#FFDA44"/>
<path d="M4.69531 12.0003L5.89105 11.6117V10.3545L6.62998 11.3717L7.82577 10.9831L7.08669 12.0003L7.82577 13.0174L6.62998 12.6289L5.89105 13.6461V12.3888L4.69531 12.0003Z" fill="#FFDA44"/>
<path d="M6.83474 17.1652L7.40554 16.0449L6.5166 15.1559L7.75837 15.3527L8.32907 14.2324L8.5258 15.4742L9.76752 15.6709L8.6474 16.2417L8.84404 17.4834L7.95506 16.5944L6.83474 17.1652Z" fill="#FFDA44"/>
<path d="M11.9993 19.3047L11.6107 18.1089H10.3535L11.3707 17.37L10.9821 16.1743L11.9993 16.9133L13.0164 16.1743L12.6279 17.37L13.645 18.1089H12.3878L11.9993 19.3047Z" fill="#FFDA44"/>
<path d="M17.1642 17.1652L16.0439 16.5945L15.1549 17.4834L15.3516 16.2416L14.2314 15.6709L15.4732 15.4742L15.6699 14.2324L16.2406 15.3527L17.4823 15.1559L16.5933 16.045L17.1642 17.1652Z" fill="#FFDA44"/>
<path d="M19.3042 12.0003L18.1085 12.3888V13.6461L17.3695 12.6289L16.1738 13.0174L16.9128 12.0003L16.1738 10.9831L17.3695 11.3717L18.1085 10.3545V11.6118L19.3042 12.0003Z" fill="#FFDA44"/>
<path d="M17.1642 6.83523L16.5934 7.95554L17.4824 8.84453L16.2406 8.64775L15.6699 9.76801L15.4732 8.52625L14.2314 8.32951L15.3516 7.75876L15.1549 6.51709L16.044 7.40603L17.1642 6.83523Z" fill="#FFDA44"/>
</svg>
