<svg width="24" height="24" viewBox="0 0 24 24" fill="none" xmlns="http://www.w3.org/2000/svg">
<path d="M12 24C18.6274 24 24 18.6274 24 12C24 5.37258 18.6274 0 12 0C5.37258 0 0 5.37258 0 12C0 18.6274 5.37258 24 12 24Z" fill="#F0F0F0"/>
<path d="M3.51471 20.4853C-1.17157 15.7989 -1.17157 8.20098 3.51471 3.51465C3.51438 3.51516 10.4348 12 10.4348 12L3.51471 20.4853Z" fill="black"/>
<path d="M10.4351 12.0004L1.59187 6.02441C1.3177 6.50099 1.07591 6.99843 0.868164 7.5133L5.34515 12.0004L0.868305 16.4878C1.07587 17.0023 1.31741 17.4994 1.5914 17.9756L10.4351 12.0004Z" fill="#FFDA44"/>
<path d="M23.8982 10.4346H10.4342L3.51434 3.51465C2.76865 4.26034 2.12079 5.10366 1.59129 6.02387L7.55562 11.9998L1.59082 17.9749C2.12032 18.8954 2.76846 19.739 3.51434 20.4849L10.4342 13.565H23.8982C23.9649 13.0526 23.9997 12.5303 23.9997 11.9998C23.9997 11.4693 23.9649 10.9469 23.8982 10.4346Z" fill="#6DA544"/>
<path d="M4.69434 21.5196C6.71788 23.075 9.25087 24.0004 12.0004 24.0004C17.5447 24.0004 22.21 20.24 23.587 15.1309H11.0832L4.69434 21.5196Z" fill="#0052B4"/>
<path d="M23.587 8.86955C22.21 3.76036 17.5447 0 12.0004 0C9.25087 0 6.71788 0.925359 4.69434 2.48077L11.0831 8.86955H23.587Z" fill="#D80027"/>
</svg>
