<svg width="24" height="24" viewBox="0 0 24 24" fill="none" xmlns="http://www.w3.org/2000/svg">
<path d="M12 24C18.6274 24 24 18.6274 24 12C24 5.37258 18.6274 0 12 0C5.37258 0 0 5.37258 0 12C0 18.6274 5.37258 24 12 24Z" fill="#F0F0F0"/>
<path d="M2.90387 4.17383C2.4828 4.66287 2.10053 5.18614 1.76172 5.73903H22.2392C21.9003 5.18614 21.5181 4.66283 21.097 4.17383H2.90387Z" fill="#D80027"/>
<path d="M2.90383 19.8259H21.097C21.5181 19.3369 21.9003 18.8136 22.2392 18.2607H1.76172C2.10048 18.8136 2.48275 19.3369 2.90383 19.8259Z" fill="#D80027"/>
<path d="M10.4648 9.80566L11.4493 11.1625L13.0439 10.6454L12.0578 12.0011L13.0422 13.3578L11.4483 12.8388L10.4621 14.1944L10.4631 12.5181L8.86914 11.9991L10.4637 11.4821L10.4648 9.80566Z" fill="#D80027"/>
<path d="M7.77804 15.3914C5.9051 15.3914 4.38673 13.873 4.38673 12.0001C4.38673 10.1272 5.9051 8.6088 7.77804 8.6088C8.36201 8.6088 8.91152 8.75645 9.39124 9.01642C8.63866 8.28044 7.60943 7.82617 6.4737 7.82617C4.16848 7.82617 2.2998 9.69489 2.2998 12.0001C2.2998 14.3052 4.16852 16.174 6.4737 16.174C7.60943 16.174 8.63866 15.7197 9.39124 14.9837C8.91152 15.2438 8.36205 15.3914 7.77804 15.3914Z" fill="#D80027"/>
</svg>
