<svg width="24" height="24" viewBox="0 0 24 24" fill="none" xmlns="http://www.w3.org/2000/svg">
<path d="M12 24C18.6274 24 24 18.6274 24 12C24 5.37258 18.6274 0 12 0C5.37258 0 0 5.37258 0 12C0 18.6274 5.37258 24 12 24Z" fill="#F0F0F0"/>
<path d="M23.8984 10.4348H13.5653H13.5653V0.101578C13.0529 0.034875 12.5305 0 12 0C11.4695 0 10.9471 0.034875 10.4348 0.101578V10.4347V10.4347H0.101578C0.034875 10.9471 0 11.4695 0 12C0 12.5306 0.034875 13.0529 0.101578 13.5652H10.4347H10.4347V23.8984C10.9471 23.9651 11.4695 24 12 24C12.5305 24 13.0529 23.9652 13.5652 23.8984V13.5653V13.5653H23.8984C23.9651 13.0529 24 12.5306 24 12C24 11.4695 23.9651 10.9471 23.8984 10.4348Z" fill="#D80027"/>
<path d="M7.30428 5.73908V4.17383H5.73908V5.73908H4.17383V7.30428H5.73908V8.86948H7.30428V7.30428H8.86948V5.73908H7.30428Z" fill="#D80027"/>
<path d="M18.2613 5.73908V4.17383H16.6961V5.73908H15.1309V7.30428H16.6961V8.86948H18.2613V7.30428H19.8265V5.73908H18.2613Z" fill="#D80027"/>
<path d="M7.30428 16.6956V15.1304H5.73908V16.6956H4.17383V18.2608H5.73908V19.826H7.30428V18.2608H8.86948V16.6956H7.30428Z" fill="#D80027"/>
<path d="M18.2613 16.6956V15.1304H16.6961V16.6956H15.1309V18.2608H16.6961V19.826H18.2613V18.2608H19.8265V16.6956H18.2613Z" fill="#D80027"/>
</svg>
