<svg width="24" height="24" viewBox="0 0 24 24" fill="none" xmlns="http://www.w3.org/2000/svg">
<path fill-rule="evenodd" clip-rule="evenodd" d="M12 0.000976562C5.37258 0.000976562 0 5.37356 0 12.001C0 18.6284 5.37258 24.001 12 24.001C18.6274 24.001 24 18.6284 24 12.001C24 5.37356 18.6274 0.000976562 12 0.000976562Z" fill="#3366FF"/>
<path fill-rule="evenodd" clip-rule="evenodd" d="M2.08984 18.7684L12.2409 12.001L22.0599 18.547C19.9188 21.8305 16.2133 24.001 12.0009 24.001C7.88398 24.001 4.25126 21.9277 2.08984 18.7684Z" fill="#FF0000"/>
<path fill-rule="evenodd" clip-rule="evenodd" d="M23.9859 12.5882C23.9953 12.3936 24 12.1978 24 12.0009C24 11.804 23.9953 11.6082 23.9859 11.4136L12.24 12.0009L0.0152975 11.3896C0.00513977 11.5921 0 11.7959 0 12.0009C0 12.2059 0.00513976 12.4097 0.0152975 12.6121L12.24 12.0009L23.9859 12.5882Z" fill="#FFFF00"/>
<path fill-rule="evenodd" clip-rule="evenodd" d="M1.69434 5.84974L12.2398 12.0013L22.4273 6.05854C22.2304 5.71371 22.0168 5.3796 21.7878 5.05729L12.2398 12.0013L2.37808 4.8291C2.13342 5.1568 1.9051 5.49741 1.69434 5.84974Z" fill="#FFFF00"/>
<path d="M12.2398 12.001L11.3398 0.000976562H13.1398L12.2398 12.001Z" fill="#FFFF00"/>
</svg>
