<svg width="24" height="24" viewBox="0 0 24 24" fill="none" xmlns="http://www.w3.org/2000/svg">
<path d="M0.566625 8.34794C0.199031 9.49956 -4.68667e-05 10.7264 8.276e-09 12C-4.68667e-05 13.2736 0.199078 14.5005 0.566672 15.6521L12 16.174L23.4333 15.6522C23.8009 14.5006 24 13.2736 24 12.0001C24 10.7265 23.8009 9.49956 23.4333 8.34789L12 7.82617L0.566625 8.34794Z" fill="#F0F0F0"/>
<path d="M23.4332 8.34789L11.9999 7.82617L0.5665 8.34789C0.457563 8.68933 0.363766 9.03747 0.285156 9.39138H23.7144C23.6359 9.03742 23.5421 8.68923 23.4332 8.34789Z" fill="#D80027"/>
<path d="M0.285156 14.6084C0.363672 14.9623 0.457469 15.3104 0.566406 15.6518L0.567531 15.6519L11.9997 16.1736L23.433 15.6519C23.542 15.3104 23.6357 14.9623 23.7143 14.6084H0.285156Z" fill="#D80027"/>
<path d="M11.9997 24.0002C17.3536 24.0002 21.8878 20.4938 23.433 15.6523H0.566406C2.11164 20.4937 6.64595 24.0002 11.9997 24.0002Z" fill="#6DA544"/>
<path d="M11.9997 4.69973e-10C6.64595 4.68755e-05 2.11173 3.50644 0.566406 8.34783L23.433 8.34787C21.8879 3.50639 17.3536 -4.68745e-05 11.9997 4.69973e-10Z" fill="#338AF3"/>
<path d="M5.48376 4.95618C5.48376 3.83226 6.27365 2.89335 7.32848 2.66301C7.16638 2.62757 6.99815 2.6084 6.82537 2.6084C5.52871 2.6084 4.47754 3.65952 4.47754 4.95623C4.47754 6.25293 5.52862 7.30405 6.82537 7.30405C6.99815 7.30405 7.16634 7.28484 7.32848 7.24944C6.2737 7.01901 5.48376 6.0801 5.48376 4.95618Z" fill="#F0F0F0"/>
<path d="M8.71628 6.02344L8.87519 6.51258H9.3895L8.97344 6.81492L9.13234 7.30406L8.71628 7.00177L8.30012 7.30406L8.45908 6.81492L8.04297 6.51258H8.55728L8.71628 6.02344Z" fill="#F0F0F0"/>
<path d="M10.3578 6.02344L10.5167 6.51258H11.0311L10.6149 6.81492L10.7739 7.30406L10.3578 7.00177L9.94168 7.30406L10.1006 6.81492L9.68457 6.51258H10.1988L10.3578 6.02344Z" fill="#F0F0F0"/>
<path d="M11.9995 6.02344L12.1584 6.51258H12.6727L12.2566 6.81492L12.4155 7.30406L11.9995 7.00177L11.5833 7.30406L11.7423 6.81492L11.3262 6.51258H11.8405L11.9995 6.02344Z" fill="#F0F0F0"/>
<path d="M13.6411 6.02344L13.8 6.51258H14.3143L13.8982 6.81492L14.0572 7.30406L13.6411 7.00177L13.2249 7.30406L13.3839 6.81492L12.9678 6.51258H13.4821L13.6411 6.02344Z" fill="#F0F0F0"/>
<path d="M15.2826 6.02344L15.4415 6.51258H15.9559L15.5398 6.81492L15.6987 7.30406L15.2826 7.00177L14.8665 7.30406L15.0254 6.81492L14.6094 6.51258H15.1236L15.2826 6.02344Z" fill="#F0F0F0"/>
<path d="M10.3578 4.31641L10.5167 4.8055H11.0311L10.6149 5.10789L10.7739 5.59698L10.3578 5.29469L9.94168 5.59698L10.1006 5.10789L9.68457 4.8055H10.1988L10.3578 4.31641Z" fill="#F0F0F0"/>
<path d="M11.9995 4.31641L12.1584 4.8055H12.6727L12.2566 5.10789L12.4155 5.59698L11.9995 5.29469L11.5833 5.59698L11.7423 5.10789L11.3262 4.8055H11.8405L11.9995 4.31641Z" fill="#F0F0F0"/>
<path d="M13.6411 4.31641L13.8 4.8055H14.3143L13.8982 5.10789L14.0572 5.59698L13.6411 5.29469L13.2249 5.59698L13.3839 5.10789L12.9678 4.8055H13.4821L13.6411 4.31641Z" fill="#F0F0F0"/>
<path d="M15.2826 4.31641L15.4415 4.8055H15.9559L15.5398 5.10789L15.6987 5.59698L15.2826 5.29469L14.8665 5.59698L15.0254 5.10789L14.6094 4.8055H15.1236L15.2826 4.31641Z" fill="#F0F0F0"/>
<path d="M11.9995 2.6084L12.1584 3.09759H12.6727L12.2566 3.39988L12.4155 3.88907L11.9995 3.58677L11.5833 3.88907L11.7423 3.39988L11.3262 3.09759H11.8405L11.9995 2.6084Z" fill="#F0F0F0"/>
<path d="M13.6411 2.6084L13.8 3.09759H14.3143L13.8982 3.39988L14.0572 3.88907L13.6411 3.58677L13.2249 3.88907L13.3839 3.39988L12.9678 3.09759H13.4821L13.6411 2.6084Z" fill="#F0F0F0"/>
<path d="M15.2826 2.6084L15.4415 3.09759H15.9559L15.5398 3.39988L15.6987 3.88907L15.2826 3.58677L14.8665 3.88907L15.0254 3.39988L14.6094 3.09759H15.1236L15.2826 2.6084Z" fill="#F0F0F0"/>
</svg>
