<svg width="24" height="24" viewBox="0 0 24 24" fill="none" xmlns="http://www.w3.org/2000/svg">
<path d="M12 24C18.6274 24 24 18.6274 24 12C24 5.37258 18.6274 0 12 0C5.37258 0 0 5.37258 0 12C0 18.6274 5.37258 24 12 24Z" fill="#F0F0F0"/>
<path d="M23.2536 7.82617H0.746344C0.264047 9.1262 0 10.5322 0 12.0001C0 13.4679 0.264047 14.874 0.746344 16.174H23.2536C23.736 14.874 24 13.4679 24 12.0001C24 10.5322 23.736 9.1262 23.2536 7.82617Z" fill="#A2001D"/>
<path d="M12.0345 23.9996C16.1446 23.9996 19.7716 21.9328 21.9343 18.7822H2.13477C4.29748 21.9328 7.92439 23.9996 12.0345 23.9996Z" fill="#6DA544"/>
<path d="M12.0345 0C16.1446 0 19.7716 2.06681 21.9343 5.21737H2.13477C4.29748 2.06681 7.92439 0 12.0345 0Z" fill="#6DA544"/>
<path d="M12 7.82617L13.036 11.0146H16.3888L13.6764 12.9854L14.7125 16.174L12 14.2034L9.28763 16.174L10.3238 12.9854L7.61133 11.0146H10.9641L12 7.82617Z" fill="#FFDA44"/>
</svg>
