<svg width="24" height="24" viewBox="0 0 24 24" fill="none" xmlns="http://www.w3.org/2000/svg">
<path d="M12 24C18.6274 24 24 18.6274 24 12C24 5.37257 18.6274 0 12 0C5.37257 0 0 5.37257 0 12C0 18.6274 5.37257 24 12 24Z" fill="#FFDA44"/>
<path d="M9.3915 2.08691H5.23672C5.0526 2.21277 4.87241 2.34379 4.69583 2.4794L3.65234 11.9999L4.69583 21.5204C4.87241 21.6561 5.0526 21.7871 5.23672 21.9129H9.3915V2.08691Z" fill="#FF9811"/>
<path d="M0 12.0001C0 15.8787 1.84069 19.327 4.69567 21.5206V2.47949C1.84069 4.67315 0 8.12138 0 12.0001Z" fill="#6DA544"/>
<path d="M19.3047 7.31543V7.61566L19.3158 7.61735L19.3047 7.31543Z" fill="#FFDA44"/>
<path d="M23.044 15.1304H20.7831L19.8266 16.1739V18.2608H17.7396V17.2174H18.7831V15.1304H14.0874V16.4347H13.044V13.9489C12.7238 13.6623 12.5222 13.246 12.5222 12.7825V5.99995C12.5222 5.13553 13.223 4.43475 14.0874 4.43475V14.0869H16.1744L16.8905 13.4902C16.7654 13.1923 16.6961 12.8651 16.6961 12.5217V10.9565H15.1309V7.82611H18.2613C18.2613 7.30439 19.044 6.78263 19.044 6.78263C19.044 6.78263 19.8266 7.30435 19.8266 7.82611V8.60874V10.9566C20.4071 10.9635 21.3293 10.9484 22.3256 10.9566C22.0639 10.4991 21.9135 9.95621 21.9135 9.39137C21.9135 8.47069 22.311 7.64297 22.9437 7.07016C22.0317 5.04914 20.5765 3.32592 18.7639 2.08691H10.957V21.913H18.764C20.968 20.4064 22.6437 18.184 23.4567 15.5807L23.044 15.1304Z" fill="#A2001D"/>
</svg>
