<svg width="24" height="24" viewBox="0 0 24 24" fill="none" xmlns="http://www.w3.org/2000/svg">
<path d="M22.8093 17.2175C23.5722 15.6399 24 13.87 24 12.0001C24 10.1302 23.5722 8.36037 22.8093 6.78274L12 5.73926L1.19072 6.78274C0.427828 8.36037 0 10.1302 0 12.0001C0 13.87 0.427828 15.6399 1.19072 17.2175L12 18.261L22.8093 17.2175Z" fill="#0052B4"/>
<path d="M11.9997 24.0004C16.7572 24.0004 20.868 21.2317 22.809 17.2178H1.19043C3.13143 21.2317 7.24218 24.0004 11.9997 24.0004Z" fill="#D80027"/>
<path d="M20.7824 14.3557L20.1486 14.851L20.4236 15.6067L19.7568 15.157L19.1229 15.6522L19.3445 14.879L18.6777 14.4292L19.4816 14.4011L19.7034 13.6279L19.9786 14.3837L20.7824 14.3557Z" fill="#F0F0F0"/>
<path d="M19.1595 11.5444L18.7334 12.2266L19.2505 12.8426L18.4699 12.6483L18.0437 13.3303L17.9875 12.5279L17.207 12.3333L17.9529 12.0319L17.8968 11.2295L18.4138 11.8458L19.1595 11.5444Z" fill="#F0F0F0"/>
<path d="M16.6724 9.45801L16.5052 10.2448L17.2018 10.647L16.4019 10.7313L16.2346 11.5179L15.9074 10.7832L15.1074 10.8671L15.7053 10.3289L15.3781 9.59418L16.0747 9.99627L16.6724 9.45801Z" fill="#F0F0F0"/>
<path d="M13.6228 8.34766L13.7349 9.1442L14.527 9.2838L13.8041 9.63658L13.916 10.4331L13.3573 9.85445L12.6342 10.207L13.0119 9.49675L12.4531 8.91822L13.2453 9.05786L13.6228 8.34766Z" fill="#F0F0F0"/>
<path d="M10.3767 8.34766L10.7544 9.05786L11.5464 8.91812L10.9878 9.49689L11.3653 10.2071L10.6424 9.85445L10.0835 10.4329L10.1956 9.63658L9.47266 9.28398L10.2648 9.1442L10.3767 8.34766Z" fill="#F0F0F0"/>
<path d="M7.32614 9.45801L7.92398 9.99627L8.62041 9.59418L8.29336 10.3292L8.89106 10.8673L8.09114 10.7832L7.76386 11.5179L7.59684 10.7312L6.79688 10.6472L7.49344 10.2449L7.32614 9.45801Z" fill="#F0F0F0"/>
<path d="M4.83973 11.5443L5.58565 11.8456L6.10249 11.2295L6.04657 12.032L6.79226 12.3334L6.01184 12.5279L5.95563 13.3301L5.52954 12.6482L4.74902 12.8426L5.26605 12.2265L4.83973 11.5443Z" fill="#F0F0F0"/>
<path d="M3.2168 14.3556L4.0208 14.3836L4.29577 13.6279L4.51772 14.4012L5.32148 14.4293L4.65464 14.8791L4.87627 15.6522L4.24252 15.157L3.57562 15.6067L3.85073 14.8509L3.2168 14.3556Z" fill="#F0F0F0"/>
<path d="M22.809 6.78263C20.868 2.76867 16.7572 0 11.9997 0C7.24218 0 3.13143 2.76867 1.19043 6.78263H22.809Z" fill="#FFDA44"/>
</svg>
