<svg width="24" height="24" viewBox="0 0 24 24" fill="none" xmlns="http://www.w3.org/2000/svg">
<path d="M0 11.9999C0 13.8697 0.427828 15.6396 1.19072 17.2173L12 17.739L22.8093 17.2173C23.5722 15.6396 24 13.8697 24 11.9999C24 10.13 23.5722 8.36013 22.8093 6.78251L12 6.26074L1.19072 6.78246C0.427828 8.36013 0 10.13 0 11.9999H0Z" fill="#F0F0F0"/>
<path d="M11.9997 23.9999C16.7572 23.9999 20.868 21.2312 22.809 17.2173H1.19043C3.13143 21.2312 7.24218 23.9999 11.9997 23.9999Z" fill="#6DA544"/>
<path d="M11.9997 0C7.24218 0 3.13143 2.76867 1.19043 6.78263H22.8089C20.868 2.76867 16.7572 0 11.9997 0Z" fill="#0052B4"/>
<path d="M12.7828 11.7392V8.86963H11.2176V11.7392L9.32715 13.6297C9.87695 14.5297 10.8684 15.1305 12.0002 15.1305C13.1321 15.1305 14.1235 14.5297 14.6733 13.6297L12.7828 11.7392Z" fill="black"/>
</svg>
