<svg width="24" height="24" viewBox="0 0 24 24" fill="none" xmlns="http://www.w3.org/2000/svg">
<path d="M12 24C18.6274 24 24 18.6274 24 12C24 5.37258 18.6274 0 12 0C5.37258 0 0 5.37258 0 12C0 18.6274 5.37258 24 12 24Z" fill="#F0F0F0"/>
<path d="M3.51436 3.51457C0.942561 6.08636 -0.217454 9.53514 0.0334675 12.8982L12.898 0.033723C9.53489 -0.217246 6.08616 0.94277 3.51436 3.51457Z" fill="#FFDA44"/>
<path d="M4.28516 21.1909C8.99989 25.1576 16.048 24.9229 20.4856 20.4853C24.9233 16.0477 25.1579 8.9996 21.1912 4.28491L4.28516 21.1909Z" fill="#0052B4"/>
<path d="M11.9571 11.5167L12.9912 10.9565L11.9571 10.3964C11.7156 8.82788 10.4763 7.58855 8.90784 7.34714L8.34763 6.31299L7.78748 7.3471C6.21904 7.5885 4.97976 8.82783 4.73826 10.3963L3.7041 10.9565L4.73821 11.5167C4.97966 13.0852 6.21895 14.3245 7.78743 14.5659L8.34763 15.6L8.90779 14.5659C10.4763 14.3245 11.7156 13.0852 11.9571 11.5167ZM8.34768 13.0435C7.19507 13.0435 6.26071 12.1092 6.26071 10.9565C6.26071 9.80386 7.19502 8.86955 8.34768 8.86955C9.50034 8.86955 10.4346 9.80386 10.4346 10.9565C10.4346 12.1092 9.50029 13.0435 8.34768 13.0435Z" fill="black"/>
<path d="M8.34767 9.39136L8.7995 10.1739H9.7032L9.25133 10.9566L9.7032 11.7392H8.7995L8.34767 12.5218L7.89584 11.7392H6.99219L7.44402 10.9566L6.99219 10.1739H7.89584L8.34767 9.39136Z" fill="#D80027"/>
</svg>
