<svg width="24" height="24" viewBox="0 0 24 24" fill="none" xmlns="http://www.w3.org/2000/svg">
<path d="M1.45898 6.26086L11.9999 7.30434L22.5408 6.26086C20.5056 2.53073 16.5484 0 11.9999 0C7.45139 0 3.49425 2.53073 1.45898 6.26086Z" fill="#D80027"/>
<path d="M1.45908 17.7387L12 18.7822L22.5409 17.7387C23.4711 16.0338 24 14.0784 24 11.9995L12 10.9561L0 11.9995C0 14.0784 0.528891 16.0338 1.45908 17.7387Z" fill="#FFDA44"/>
<path d="M1.45908 6.26074C0.528891 7.96563 0 9.92098 0 11.9999H24C24 9.92098 23.4711 7.96563 22.5409 6.26074H12H1.45908Z" fill="#0052B4"/>
<path d="M11.9999 24.0001C16.5484 24.0001 20.5056 21.4694 22.5408 17.7393H1.45898C3.49425 21.4694 7.45139 24.0001 11.9999 24.0001Z" fill="#6DA544"/>
</svg>
