<svg width="24" height="24" viewBox="0 0 24 24" fill="none" xmlns="http://www.w3.org/2000/svg">
<path d="M0 11.9997C0 17.1592 3.2565 21.5577 7.82602 23.2533L8.86955 11.9997L7.82602 0.746094C3.2565 2.44166 0 6.84013 0 11.9997Z" fill="#6DA544"/>
<path d="M24.0002 12C24.0002 5.37262 18.6275 0 12.0002 0C10.5323 0 9.1262 0.264047 7.82617 0.746391V23.2536C9.1262 23.736 10.5323 24 12.0002 24C18.6275 24 24.0002 18.6274 24.0002 12Z" fill="#D80027"/>
<path d="M7.82623 16.174C10.1314 16.174 12.0001 14.3052 12.0001 12.0001C12.0001 9.69489 10.1314 7.82617 7.82623 7.82617C5.52106 7.82617 3.65234 9.69489 3.65234 12.0001C3.65234 14.3052 5.52106 16.174 7.82623 16.174Z" fill="#FFDA44"/>
<path d="M5.47852 9.91309V12.5218C5.47852 13.8184 6.52964 14.8696 7.82634 14.8696C9.12305 14.8696 10.1742 13.8185 10.1742 12.5218V9.91309H5.47852Z" fill="#D80027"/>
<path d="M7.82657 13.3046C7.39504 13.3046 7.04395 12.9535 7.04395 12.522V11.4785H8.60915V12.522C8.60915 12.9535 8.25805 13.3046 7.82657 13.3046Z" fill="#F0F0F0"/>
</svg>
