<svg width="24" height="24" viewBox="0 0 24 24" fill="none" xmlns="http://www.w3.org/2000/svg">
<path d="M12 24C18.6274 24 24 18.6274 24 12C24 5.37258 18.6274 0 12 0C5.37258 0 0 5.37258 0 12C0 18.6274 5.37258 24 12 24Z" fill="#496E2D"/>
<path d="M16.6957 12H12V24C13.4027 24 14.7488 23.7585 16 23.3163L16.6957 12Z" fill="#D80027"/>
<path d="M20.0003 20.9434C22.4551 18.7462 24.0003 15.5537 24.0003 12H19.3047L20.0003 20.9434Z" fill="#FF9811"/>
<path d="M16 12V23.3163C17.4905 22.7894 18.8458 21.9766 20 20.9435V12H16Z" fill="black"/>
<path d="M22.174 7.82571H19.0436C19.0436 7.24943 18.5764 6.78223 18.0001 6.78223C17.4238 6.78223 16.9566 7.24943 16.9566 7.82571H13.8262C13.8262 8.40204 14.3282 8.8692 14.9044 8.8692H14.8697C14.8697 9.44552 15.3368 9.91268 15.9131 9.91268C15.9131 10.489 16.3803 10.9562 16.9566 10.9562H19.0436C19.6199 10.9562 20.0871 10.489 20.0871 9.91268C20.6634 9.91268 21.1306 9.44552 21.1306 8.8692H21.0958C21.6721 8.86915 22.174 8.40199 22.174 7.82571Z" fill="#FF9811"/>
</svg>
