<svg width="24" height="24" viewBox="0 0 24 24" fill="none" xmlns="http://www.w3.org/2000/svg">
<path d="M17.2175 1.19072C15.6399 0.427875 13.87 0 12.0001 0C10.1303 0 8.36037 0.427875 6.78274 1.19072L5.73926 12L6.78274 22.8093C8.36037 23.5721 10.1303 24 12.0001 24C13.87 24 15.6399 23.5721 17.2175 22.8093L18.261 12L17.2175 1.19072Z" fill="#FFDA44"/>
<path d="M6.78263 1.19116C2.76872 3.13207 0 7.24249 0 12C0 16.7576 2.76872 20.868 6.78263 22.8089V1.19116Z" fill="#0052B4"/>
<path d="M17.2178 1.19116V22.8089C21.2317 20.868 24.0004 16.7575 24.0004 12C24.0004 7.24254 21.2317 3.13207 17.2178 1.19116Z" fill="#0052B4"/>
<path d="M15.6518 7.30423L16.3518 7.6542L15.6518 7.30423L14.9518 6.95426C14.9096 7.03868 13.9956 8.89835 13.8463 11.739H12.7822V7.30423L11.9996 6.26074L11.217 7.30423V11.739H10.153C10.0036 8.89835 9.08966 7.03868 9.04743 6.95426L7.64746 7.65424C7.65712 7.67346 8.60835 9.60963 8.60835 12.5216V13.3043H11.217V17.7391H12.7822V13.3043H15.3909V12.5216C15.3909 11.0161 15.6514 9.77463 15.87 8.99829C16.1083 8.15173 16.3503 7.65734 16.3527 7.65241L15.6518 7.30423Z" fill="black"/>
</svg>
