<svg width="24" height="24" viewBox="0 0 24 24" fill="none" xmlns="http://www.w3.org/2000/svg">
<path d="M12 24C18.6274 24 24 18.6274 24 12C24 5.37258 18.6274 0 12 0C5.37258 0 0 5.37258 0 12C0 18.6274 5.37258 24 12 24Z" fill="#F0F0F0"/>
<path d="M24.0004 12.0002C24.0004 7.24267 21.2317 3.13192 17.2178 1.19092V22.8094C21.2317 20.8685 24.0004 16.7577 24.0004 12.0002Z" fill="#338AF3"/>
<path d="M0 12.0002C0 16.7577 2.76867 20.8685 6.78263 22.8095V1.19092C2.76867 3.13192 0 7.24267 0 12.0002Z" fill="#338AF3"/>
<path d="M15.136 14.0292L13.107 12.0002L15.0384 10.0687L14.9508 9.04864L14.3979 8.49561L12.0001 10.8934L9.6024 8.49561L9.04946 9.04864L8.96195 10.0687L10.8933 12.0002L8.86426 14.0292L9.97107 15.136L12.0001 13.107L14.0292 15.136L15.136 14.0292Z" fill="#ACABB1"/>
<path d="M14.9515 9.04883L13.8447 10.1556C14.3168 10.6277 14.6088 11.2798 14.6088 12.0002C14.6088 13.441 13.4408 14.6089 12.0001 14.6089C10.5594 14.6089 9.39138 13.441 9.39138 12.0002C9.39138 11.2798 9.68341 10.6277 10.1555 10.1556L9.04872 9.04883C8.29333 9.80408 7.82617 10.8476 7.82617 12.0002C7.82617 14.3054 9.69489 16.1741 12.0001 16.1741C14.3052 16.1741 16.174 14.3054 16.174 12.0002C16.174 10.8476 15.7068 9.80413 14.9515 9.04883Z" fill="#6DA544"/>
</svg>
