<svg width="24" height="24" viewBox="0 0 24 24" fill="none" xmlns="http://www.w3.org/2000/svg">
<path d="M12 24C18.6274 24 24 18.6274 24 12C24 5.37258 18.6274 0 12 0C5.37258 0 0 5.37258 0 12C0 18.6274 5.37258 24 12 24Z" fill="#D80027"/>
<path d="M17.8691 12.0001L15.4712 13.128L16.7481 15.4505L14.144 14.9523L13.8142 17.5827L12.0004 15.6482L10.1867 17.5827L9.85676 14.9523L7.25295 15.4504L8.52982 13.1279L6.13184 12.0001L8.52982 10.8722L7.25295 8.54968L9.85666 9.04796L10.1868 6.41748L12.0004 8.35206L13.8143 6.41748L14.144 9.04796L16.7482 8.54968L15.4712 10.8724L17.8691 12.0001Z" fill="#FFDA44"/>
<path d="M11.9998 15.652C14.0169 15.652 15.652 14.0169 15.652 11.9998C15.652 9.98279 14.0169 8.34766 11.9998 8.34766C9.98279 8.34766 8.34766 9.98279 8.34766 11.9998C8.34766 14.0169 9.98279 15.652 11.9998 15.652Z" fill="#D80027"/>
<path d="M10.1737 12C10.0857 12 9.99882 12.0045 9.91309 12.013C9.91623 12.5189 10.0992 12.9818 10.4015 13.3415C10.5627 12.9076 10.8035 12.5119 11.1071 12.1733C10.8171 12.0618 10.5025 12 10.1737 12Z" fill="#FFDA44"/>
<path d="M11.2979 13.9656C11.5172 14.044 11.7534 14.0869 11.9998 14.0869C12.2462 14.0869 12.4824 14.044 12.7018 13.9656C12.5822 13.4963 12.3353 13.0773 11.9998 12.748C11.6643 13.0773 11.4174 13.4963 11.2979 13.9656Z" fill="#FFDA44"/>
<path d="M13.8069 10.9569C13.4461 10.3332 12.7721 9.91309 11.9996 9.91309C11.2271 9.91309 10.5532 10.3331 10.1924 10.9569C10.8502 10.9602 11.4671 11.1391 11.9996 11.448C12.5322 11.1391 13.149 10.9602 13.8069 10.9569Z" fill="#FFDA44"/>
<path d="M12.8926 12.1733C13.1962 12.5119 13.4369 12.9075 13.5982 13.3415C13.9004 12.9818 14.0834 12.5189 14.0866 12.013C14.0008 12.0045 13.9139 12 13.826 12C13.4972 12 13.1826 12.0617 12.8926 12.1733Z" fill="#FFDA44"/>
</svg>
