<svg width="24" height="24" viewBox="0 0 24 24" fill="none" xmlns="http://www.w3.org/2000/svg">
<path d="M12 24C18.6274 24 24 18.6274 24 12C24 5.37258 18.6274 0 12 0C5.37258 0 0 5.37258 0 12C0 18.6274 5.37258 24 12 24Z" fill="#FFDA44"/>
<path d="M3.51446 20.4851C4.01785 20.9885 4.55495 21.4374 5.11834 21.8326L21.8326 5.11838C21.4374 4.55499 20.9884 4.0179 20.485 3.51451C19.9816 3.01112 19.4446 2.56224 18.8812 2.16699L2.16699 18.8813C2.56215 19.4445 3.01112 19.9816 3.51446 20.4851Z" fill="black"/>
<path d="M3.51422 3.51514C-0.271495 7.30096 -0.998292 12.9865 1.33247 17.5025L17.5016 1.33344C12.9856 -0.997325 7.29999 -0.270482 3.51422 3.51514Z" fill="#6DA544"/>
<path d="M20.4854 20.4855C24.2711 16.6997 24.9979 11.0141 22.6672 6.49805L6.49805 22.6672C11.014 24.998 16.6996 24.2712 20.4854 20.4855Z" fill="#338AF3"/>
</svg>
