<svg width="24" height="24" viewBox="0 0 24 24" fill="none" xmlns="http://www.w3.org/2000/svg">
<path d="M20.4854 20.4854C24.9859 15.9849 25.1636 8.79963 21.0203 4.08594L11.9997 11.9997L4.08594 21.0203C8.79963 25.1636 15.9848 24.9859 20.4854 20.4854Z" fill="#496E2D"/>
<path d="M3.51438 3.5144C8.01488 -0.986107 15.2001 -1.16381 19.9138 2.97942L12 12.0001L2.97944 19.9138C-1.16383 15.2001 -0.986083 8.01491 3.51438 3.5144Z" fill="#0052B4"/>
<path d="M19.9139 2.97949L2.97949 19.9139C3.15068 20.1087 3.32843 20.2997 3.51448 20.4857C3.70048 20.6717 3.89158 20.8494 4.0864 21.0207L21.0207 4.0863C20.8495 3.89149 20.6717 3.70043 20.4856 3.51438C20.2997 3.32848 20.1086 3.15068 19.9139 2.97949Z" fill="#FFDA44"/>
<path d="M5.05619 4.17383L5.31526 4.97103H6.15343L5.47534 5.46364L5.73432 6.26084L5.05619 5.76814L4.37805 6.26084L4.63712 5.46364L3.95898 4.97103H4.7972L5.05619 4.17383Z" fill="#F0F0F0"/>
<path d="M9.33744 4.17383L9.59651 4.97103H10.4346L9.75654 5.46364L10.0156 6.26084L9.33744 5.76814L8.6593 6.26084L8.91837 5.46364L8.24023 4.97103H9.0784L9.33744 4.17383Z" fill="#F0F0F0"/>
<path d="M5.05619 8.34766L5.31526 9.14486H6.15343L5.47534 9.63751L5.73432 10.4347L5.05619 9.94201L4.37805 10.4347L4.63712 9.63751L3.95898 9.14486H4.7972L5.05619 8.34766Z" fill="#F0F0F0"/>
<path d="M9.33744 8.34766L9.59651 9.14486H10.4346L9.75654 9.63751L10.0156 10.4347L9.33744 9.94201L8.6593 10.4347L8.91837 9.63751L8.24023 9.14486H9.0784L9.33744 8.34766Z" fill="#F0F0F0"/>
<path d="M7.19686 6.26074L7.45593 7.05794H8.29406L7.61597 7.5506L7.875 8.3478L7.19686 7.8551L6.51872 8.3478L6.77775 7.5506L6.09961 7.05794H6.93783L7.19686 6.26074Z" fill="#F0F0F0"/>
</svg>
