<svg width="24" height="24" viewBox="0 0 24 24" fill="none" xmlns="http://www.w3.org/2000/svg">
<path d="M12 24C18.6274 24 24 18.6274 24 12C24 5.37258 18.6274 0 12 0C5.37258 0 0 5.37258 0 12C0 18.6274 5.37258 24 12 24Z" fill="#F0F0F0"/>
<path d="M0.413086 15.1304C1.1074 17.7066 2.63763 19.9394 4.69535 21.5205V15.1304H0.413086Z" fill="#0052B4"/>
<path d="M10.9561 23.9543C11.3 23.9839 11.6479 23.9999 11.9995 23.9999C17.5439 23.9999 22.2091 20.2396 23.5861 15.1304H10.9561V23.9543Z" fill="#0052B4"/>
<path d="M23.5861 8.86955C22.2091 3.76036 17.5439 0 11.9995 0C11.6479 0 11.3 0.0160312 10.9561 0.0456562V8.86955H23.5861Z" fill="#0052B4"/>
<path d="M4.69535 2.47949C2.63763 4.06059 1.1074 6.29338 0.413086 8.86959H4.69535V2.47949Z" fill="#0052B4"/>
<path d="M23.8984 10.4347H9.39136H9.39131V0.285156C8.28234 0.531062 7.23098 0.929641 6.26086 1.459V10.4347H0.101578C0.0347813 10.9471 0 11.4694 0 11.9999C0 12.5304 0.0347813 13.0528 0.101578 13.5651H6.26081H6.26086V22.5408C7.23098 23.0701 8.28234 23.4688 9.39131 23.7146V13.5653V13.5652H23.8984C23.9651 13.0528 24 12.5304 24 11.9999C24 11.4694 23.9651 10.9471 23.8984 10.4347Z" fill="#D80027"/>
</svg>
