<svg width="24" height="24" viewBox="0 0 24 24" fill="none" xmlns="http://www.w3.org/2000/svg">
<path d="M12 24C18.6274 24 24 18.6274 24 12C24 5.37258 18.6274 0 12 0C5.37258 0 0 5.37258 0 12C0 18.6274 5.37258 24 12 24Z" fill="#F0F0F0"/>
<path d="M21.5199 19.3068L14.2133 12.0002H14.2132L21.5199 4.69351C21.2048 4.28401 20.8601 3.89003 20.485 3.51489C20.1099 3.13979 19.7159 2.79503 19.3064 2.47998L11.9998 9.78662L11.9997 9.78667L4.69307 2.47998C4.28362 2.79507 3.88959 3.13975 3.51445 3.51489C3.1393 3.89003 2.79459 4.28401 2.47954 4.69351L9.78618 12.0001L9.78623 12.0002L2.47949 19.3069C2.79463 19.7164 3.13935 20.1104 3.5144 20.4855C3.88954 20.8606 4.28348 21.2054 4.69302 21.5204L11.9997 14.2138L11.9998 14.2137L19.3064 21.5204C19.7159 21.2053 20.1099 20.8606 20.485 20.4855C20.8602 20.1103 21.2048 19.7163 21.5199 19.3068Z" fill="#D80027"/>
<path d="M9.91309 3.65214L12.0001 4.17386L14.087 3.65214V1.87825L13.2522 2.29563L12.0001 1.04346L10.7479 2.29563L9.91309 1.87825V3.65214Z" fill="#FFDA44"/>
<path d="M9.91309 3.65234V4.95678C9.91309 6.55428 12.0001 7.04375 12.0001 7.04375C12.0001 7.04375 14.087 6.55423 14.087 4.95678V3.65234H9.91309Z" fill="#D80027"/>
</svg>
