<svg width="24" height="24" viewBox="0 0 24 24" fill="none" xmlns="http://www.w3.org/2000/svg">
<path d="M1.19072 6.78274C0.427875 8.36037 0 10.1302 0 12.0001C0 13.87 0.427875 15.6399 1.19072 17.2175L12 18.261L22.8093 17.2175C23.5721 15.6399 24 13.87 24 12.0001C24 10.1302 23.5721 8.36037 22.8093 6.78274L12 5.73926L1.19072 6.78274Z" fill="#F0F0F0"/>
<path d="M1.19141 17.2178C3.13231 21.2317 7.24273 24.0004 12.0003 24.0004C16.7578 24.0004 20.8682 21.2317 22.8091 17.2178H1.19141Z" fill="#6DA544"/>
<path d="M1.19141 6.78263H22.8091C20.8682 2.76867 16.7577 0 12.0003 0C7.24278 0 3.13231 2.76867 1.19141 6.78263Z" fill="#FF9811"/>
<path d="M12.0001 16.174C14.3052 16.174 16.174 14.3052 16.174 12.0001C16.174 9.69489 14.3052 7.82617 12.0001 7.82617C9.69489 7.82617 7.82617 9.69489 7.82617 12.0001C7.82617 14.3052 9.69489 16.174 12.0001 16.174Z" fill="#FF9811"/>
</svg>
