<svg width="24" height="24" viewBox="0 0 24 24" fill="none" xmlns="http://www.w3.org/2000/svg">
<path d="M17.2175 1.19072C15.6399 0.427875 13.87 0 12.0001 0C10.1303 0 8.36037 0.427875 6.78274 1.19072L5.73926 12L6.78274 22.8093C8.36037 23.5721 10.1303 24 12.0001 24C13.87 24 15.6399 23.5721 17.2175 22.8093L18.261 12L17.2175 1.19072Z" fill="#D80027"/>
<path d="M6.78263 1.19116C2.76872 3.13212 0 7.24254 0 12C0 16.7575 2.76872 20.8679 6.78263 22.8089V1.19116Z" fill="black"/>
<path d="M17.2178 1.19116V22.8089C21.2317 20.8679 24.0004 16.7575 24.0004 12C24.0004 7.24254 21.2317 3.13212 17.2178 1.19116Z" fill="#496E2D"/>
<path d="M12.0001 7.82617C9.69484 7.82617 7.82617 9.69489 7.82617 12.0001C7.82617 14.3052 9.69489 16.174 12.0001 16.174C14.3052 16.174 16.174 14.3052 16.174 12.0001C16.174 9.69489 14.3053 7.82617 12.0001 7.82617ZM12.0001 14.6088C10.5593 14.6088 9.39138 13.4408 9.39138 12.0001C9.39138 10.5594 10.5594 9.39138 12.0001 9.39138C13.4408 9.39138 14.6088 10.5594 14.6088 12.0001C14.6088 13.4408 13.4408 14.6088 12.0001 14.6088Z" fill="#FFDA44"/>
<path d="M12.0005 10.4348C11.4242 10.4348 10.957 10.902 10.957 11.4783V13.0435H13.044V11.4783C13.044 10.902 12.5768 10.4348 12.0005 10.4348Z" fill="#FFDA44"/>
</svg>
