<svg width="24" height="24" viewBox="0 0 24 24" fill="none" xmlns="http://www.w3.org/2000/svg">
<path d="M12 24C18.6274 24 24 18.6274 24 12C24 5.37258 18.6274 0 12 0C5.37258 0 0 5.37258 0 12C0 18.6274 5.37258 24 12 24Z" fill="#F0F0F0"/>
<path d="M1.45898 6.26086H22.5408C20.5056 2.53073 16.5484 0 11.9999 0C7.45139 0 3.49425 2.53073 1.45898 6.26086Z" fill="#D80027"/>
<path d="M11.9999 24.0001C16.5484 24.0001 20.5056 21.4694 22.5408 17.7393H1.45898C3.49425 21.4694 7.45139 24.0001 11.9999 24.0001Z" fill="#D80027"/>
<path d="M16.174 12.0001C16.174 14.3053 14.3052 15.6522 12.0001 15.6522C9.69489 15.6522 7.82617 14.3053 7.82617 12.0001C7.82617 9.69484 9.69489 7.82617 12.0001 7.82617C14.3052 7.82617 16.174 9.69484 16.174 12.0001Z" fill="#FFDA44"/>
<path d="M16.174 12C16.174 14.3052 14.3052 16.1739 12.0001 16.1739C9.69489 16.1739 7.82617 14.3052 7.82617 12" fill="#0052B4"/>
<path d="M9.3916 10.9565H10.4351V13.0435H9.3916V10.9565Z" fill="#D80027"/>
<path d="M13.5654 10.9565H14.6089V13.0435H13.5654V10.9565Z" fill="#D80027"/>
<path d="M11.4785 9.39111H12.522V13.0433H11.4785V9.39111Z" fill="#D80027"/>
</svg>
