<svg width="24" height="24" viewBox="0 0 24 24" fill="none" xmlns="http://www.w3.org/2000/svg">
<path d="M0 11.9995C0 14.0784 0.528891 16.0338 1.45908 17.7387L12 18.7822L22.5409 17.7387C23.4711 16.0338 24 14.0784 24 11.9995L12 10.9561L0 11.9995Z" fill="#FFDA44"/>
<path d="M22.5409 6.26086C20.5057 2.53073 16.5485 0 12 0C7.45148 0 3.49434 2.53073 1.45908 6.26086C0.528891 7.96575 0 9.92109 0 12H24C24 9.92109 23.4711 7.96575 22.5409 6.26086Z" fill="#338AF3"/>
<path d="M11.9999 24.0001C16.5484 24.0001 20.5056 21.4694 22.5408 17.7393H1.45898C3.49425 21.4694 7.45139 24.0001 11.9999 24.0001Z" fill="#496E2D"/>
<path d="M13.5654 7.02317L15.031 7.71256L14.2506 9.13194L15.842 8.82753L16.0437 10.4351L17.1521 9.25273L18.2606 10.4351L18.4622 8.82753L20.0536 9.13184L19.2732 7.71251L20.7387 7.02317L19.2732 6.33387L20.0536 4.9145L18.4622 5.21891L18.2605 3.61133L17.1521 4.7937L16.0436 3.61133L15.842 5.21891L14.2506 4.9145L15.031 6.33392L13.5654 7.02317Z" fill="#FFDA44"/>
</svg>
