<svg width="24" height="24" viewBox="0 0 24 24" fill="none" xmlns="http://www.w3.org/2000/svg">
<path d="M12 24C18.6274 24 24 18.6274 24 12C24 5.37258 18.6274 0 12 0C5.37258 0 0 5.37258 0 12C0 18.6274 5.37258 24 12 24Z" fill="#F0F0F0"/>
<path d="M12 0V12L3.51465 20.4853C5.68623 22.6568 8.68623 24 12 24C18.6273 24 24 18.6274 24 12C24 5.37262 12 0 12 0Z" fill="#D80027"/>
<path d="M12 0C8.68623 0 5.68623 1.34316 3.51465 3.51469C6.45887 6.45891 7.50404 7.50412 12 12H24C24 5.37262 18.6273 0 12 0Z" fill="#0052B4"/>
<path d="M8.21723 11.9998L6.75173 11.3104L7.53215 9.89111L5.94074 10.1956L5.73909 8.58789L4.63059 9.77027L3.52213 8.58789L3.32043 10.1956L1.72907 9.89106L2.50949 11.3104L1.04395 11.9998L2.50949 12.6891L1.72907 14.1085L3.32057 13.804L3.52209 15.4117L4.63059 14.2293L5.73909 15.4117L5.94074 13.804L7.53205 14.1085L6.75168 12.6892L8.21723 11.9998Z" fill="#FFDA44"/>
<path d="M3.20082 4.69531L3.68851 5.37702L4.48749 5.12394L3.98977 5.79837L4.47746 6.48008L3.68218 6.21519L3.18451 6.88958L3.19074 6.05145L2.39551 5.78652L3.19463 5.53344L3.20082 4.69531Z" fill="#FFDA44"/>
<path d="M3.20082 17.1094L3.68851 17.7911L4.48749 17.538L3.98977 18.2124L4.47746 18.8941L3.68218 18.6292L3.18451 19.3036L3.19074 18.4655L2.39551 18.2006L3.19463 17.9475L3.20082 17.1094Z" fill="#FFDA44"/>
<path d="M10.1568 10.9023L9.66915 11.584L8.87012 11.3309L9.36784 12.0054L8.88015 12.6871L9.67543 12.4222L10.1731 13.0966L10.1669 12.2585L10.9621 11.9935L10.163 11.7405L10.1568 10.9023Z" fill="#FFDA44"/>
</svg>
