<svg width="24" height="24" viewBox="0 0 24 24" fill="none" xmlns="http://www.w3.org/2000/svg">
<path d="M12 24C18.6274 24 24 18.6274 24 12C24 5.37258 18.6274 0 12 0C5.37258 0 0 5.37258 0 12C0 18.6274 5.37258 24 12 24Z" fill="#F0F0F0"/>
<path d="M7.30388 7.82611H23.2531C21.5576 3.2565 17.1591 0 11.9995 0C8.68576 0 5.68609 1.34339 3.51465 3.51511L7.30388 7.82611Z" fill="#6DA544"/>
<path d="M7.30388 16.1738H23.2531C21.5576 20.7434 17.1591 23.9999 11.9995 23.9999C8.68576 23.9999 5.68609 22.6565 3.51465 20.4848L7.30388 16.1738Z" fill="#D80027"/>
<path d="M3.51471 3.51465C-1.17157 8.20093 -1.17157 15.7989 3.51471 20.4853C5.45126 18.5487 7.31374 16.6862 12 12L3.51471 3.51465Z" fill="#0052B4"/>
<path d="M14.0869 9.91309V12.5218C14.0869 14.1193 16.1739 14.6088 16.1739 14.6088C16.1739 14.6088 18.2609 14.1193 18.2609 12.5218V9.91309H14.0869Z" fill="#DEDDE0"/>
<path d="M15.6523 12.0522H16.6958V13.5653H15.6523V12.0522Z" fill="#786145"/>
<path d="M17.2171 11.4781C17.2171 10.9017 16.7499 10.4346 16.1736 10.4346C15.5973 10.4346 15.1301 10.9017 15.1301 11.4781C14.842 11.4781 14.6084 11.7116 14.6084 11.9998C14.6084 12.2879 14.842 12.5215 15.1301 12.5215H17.2171C17.5052 12.5215 17.7388 12.2879 17.7388 11.9998C17.7388 11.7116 17.5053 11.4781 17.2171 11.4781Z" fill="#6DA544"/>
</svg>
