<svg width="24" height="24" viewBox="0 0 24 24" fill="none" xmlns="http://www.w3.org/2000/svg">
<path d="M12 23.9999C18.6273 23.9999 23.9999 18.6273 23.9999 12C23.9999 5.37256 18.6273 0 12 0C5.37256 0 0 5.37256 0 12C0 18.6273 5.37256 23.9999 12 23.9999Z" fill="#F0F0F0"/>
<path d="M11.9999 0.00012207C8.07405 0.00012207 4.58871 1.88558 2.39941 4.80012H21.6004C19.4111 1.88553 15.9258 0.00012207 11.9999 0.00012207Z" fill="#0052B4"/>
<path d="M11.9999 24C15.9258 24 19.4111 22.1145 21.6004 19.2H2.39941C4.58866 22.1145 8.07405 24 11.9999 24Z" fill="#0052B4"/>
<path d="M0 12.0001C0 12.8221 0.082875 13.6246 0.240328 14.4001H23.7597C23.9172 13.6246 24 12.8221 24 12.0001C24 11.1781 23.9171 10.3756 23.7597 9.6001H0.240328C0.082875 10.3756 0 11.1781 0 12.0001Z" fill="#0052B4"/>
<path d="M3.51468 3.51477C-1.17156 8.201 -1.17156 15.799 3.51468 20.4853C5.45122 18.5488 7.31366 16.6863 11.9999 12.0001L3.51468 3.51477Z" fill="#D80027"/>
<path d="M4.85695 8.86963L5.63385 11.261H8.14851L6.11427 12.739L6.89118 15.1304L4.85695 13.6524L2.82262 15.1304L3.59971 12.739L1.56543 11.261H4.0799L4.85695 8.86963Z" fill="#F0F0F0"/>
</svg>
