<svg width="24" height="24" viewBox="0 0 24 24" fill="none" xmlns="http://www.w3.org/2000/svg">
<path d="M12.0001 0C10.917 0 9.86772 0.144375 8.86961 0.413391L7.82617 12L8.86966 23.5866C9.86772 23.8556 10.917 24 12.0001 24C18.6274 24 24.0001 18.6274 24.0001 12C24.0001 5.37262 18.6274 0 12.0001 0Z" fill="#FFDA44"/>
<path d="M7.82617 12L8.86966 23.5866C9.86772 23.8556 10.917 24 12.0001 24C18.6274 24 24.0001 18.6274 24.0001 12H7.82617Z" fill="#6DA544"/>
<path d="M0 12.0004C0 16.5489 2.53078 20.5061 6.26086 22.5413V1.45947C2.53078 3.49469 0 7.45188 0 12.0004Z" fill="#D80027"/>
<path d="M0 12.0002C0 17.5445 3.76036 22.2098 8.86955 23.5868V0.413574C3.76036 1.79057 0 6.45585 0 12.0002Z" fill="#D80027"/>
<path d="M4.53468 8.86963L5.31163 11.261H7.82629L5.79201 12.7391L6.56891 15.1305L4.53468 13.6525L2.50035 15.1305L3.27745 12.7391L1.24316 11.261H3.75768L4.53468 8.86963Z" fill="black"/>
</svg>
