<svg width="24" height="24" viewBox="0 0 24 24" fill="none" xmlns="http://www.w3.org/2000/svg">
<circle cx="12" cy="12.001" r="12" fill="#338AF3"/>
<path fill-rule="evenodd" clip-rule="evenodd" d="M1.4421 17.7094C0.522305 16.0118 0 14.0674 0 12.001C0 9.93457 0.522305 7.99016 1.4421 6.29256L2.17105 6.00098L5.92105 7.50098V16.501L2.17105 18.001L1.4421 17.7094Z" fill="#EEEEEE"/>
<path fill-rule="evenodd" clip-rule="evenodd" d="M5.91987 1.65234C3.6555 2.98535 1.86709 5.04035 0.871094 7.50089H5.91987V1.65234Z" fill="#D80027"/>
<path fill-rule="evenodd" clip-rule="evenodd" d="M3.21335 3.82812L5.92112 6.51656V7.50093H4.98362L2.3418 4.87798C2.61251 4.51151 2.90359 4.16101 3.21335 3.82812Z" fill="#6DA544"/>
<path fill-rule="evenodd" clip-rule="evenodd" d="M2.63281 4.50098C3.06587 3.96075 3.54469 3.45879 4.0634 3.00098H5.92192V4.50098H2.63281Z" fill="#EEEEEE"/>
<path fill-rule="evenodd" clip-rule="evenodd" d="M1.41992 6.33202C1.83981 5.55015 2.34385 4.82021 2.91992 4.1543V7.50142H1.41992V6.33202Z" fill="#EEEEEE"/>
<path fill-rule="evenodd" clip-rule="evenodd" d="M5.91987 22.3495C3.6555 21.0165 1.86709 18.9615 0.871094 16.501H5.91987V22.3495Z" fill="#D80027"/>
<path fill-rule="evenodd" clip-rule="evenodd" d="M2.63203 19.501C2.25359 19.0289 1.91009 18.5276 1.60547 18.001H3.67113C4.08535 18.001 4.42113 18.3368 4.42113 18.751C4.42113 19.1652 4.08535 19.501 3.67113 19.501H2.63203Z" fill="#FFDA44"/>
<path fill-rule="evenodd" clip-rule="evenodd" d="M15.4258 6.78336V6.40848C14.8367 6.20534 14.3444 6.38076 13.8497 6.55703C13.203 6.78748 12.5523 7.01937 11.6758 6.40848C12.2675 7.65425 13.0869 7.67916 13.9964 7.70681C14.2181 7.71356 14.4453 7.72046 14.6758 7.74527V8.56474H12.8008C12.8008 8.56474 10.9258 11.1897 12.8008 13.4397H14.6758V14.1896H12.8008C11.6758 14.1896 11.6758 12.6896 11.6758 12.6896H7.17578V14.1896H8.11328L8.11387 14.1897H8.11328C8.48784 14.5331 8.80523 15.0219 9.12948 15.5213C9.77914 16.5218 10.4563 17.5647 11.6758 17.5647H18.4258C20.3008 17.5647 20.6758 16.4397 21.0508 15.3147C21.3497 14.4181 21.6485 14.2361 21.7576 14.1991L21.8001 14.1898C21.8006 14.1897 21.8008 14.1897 21.8008 14.1897H21.8002L21.8008 14.1896V13.0646H18.0508C18.0508 13.0646 18.0508 14.1896 16.9258 14.1896H15.4258V13.4397H17.2539C15.8008 11.1897 17.2539 8.56474 17.2539 8.56474H15.4258V7.90849V6.78336ZM11.3008 11.9397C10.9258 9.68974 12.0508 8.56474 12.0508 8.56474C9.42578 9.31474 7.92578 11.9397 7.92578 11.9397H11.3008ZM17.7227 9.31474C17.3181 10.2637 17.252 11.3228 17.5352 12.3147H20.6289C19.9258 10.8147 20.6758 9.31474 20.6758 9.31474H17.7227Z" fill="#FFDA44"/>
</svg>
