<svg width="24" height="24" viewBox="0 0 24 24" fill="none" xmlns="http://www.w3.org/2000/svg">
<path d="M12 24C18.6274 24 24 18.6274 24 12C24 5.37258 18.6274 0 12 0C5.37258 0 0 5.37258 0 12C0 18.6274 5.37258 24 12 24Z" fill="#F0F0F0"/>
<path d="M11.9997 0C7.24218 0 3.13143 2.76867 1.19043 6.78263H22.8089C20.868 2.76867 16.7572 0 11.9997 0Z" fill="#338AF3"/>
<path d="M11.9997 24C16.7572 24 20.868 21.2314 22.809 17.2174H1.19043C3.13143 21.2314 7.24218 24 11.9997 24Z" fill="#338AF3"/>
<path d="M15.5864 12L14.1208 12.6894L14.9012 14.1087L13.3098 13.8043L13.1082 15.4119L11.9997 14.2295L10.8912 15.4119L10.6896 13.8043L9.09821 14.1087L9.87859 12.6894L8.41309 12L9.87863 11.3106L9.09821 9.89135L10.6896 10.1958L10.8913 8.58813L11.9997 9.77051L13.1082 8.58813L13.3098 10.1958L14.9013 9.89135L14.1209 11.3107L15.5864 12Z" fill="#FFDA44"/>
</svg>
