<svg width="24" height="24" viewBox="0 0 24 24" fill="none" xmlns="http://www.w3.org/2000/svg">
<path d="M0.746391 7.8262C0.264047 9.12623 0 10.5322 0 12.0001C0 13.4679 0.264047 14.874 0.746391 16.174L12 17.2175L23.2536 16.174C23.736 14.874 24 13.4679 24 12.0001C24 10.5322 23.736 9.12623 23.2536 7.8262L12 6.78271L0.746391 7.8262Z" fill="#F0F0F0"/>
<path d="M11.9997 0C6.84013 0 2.44156 3.2565 0.746094 7.82611H23.2534C21.5578 3.2565 17.1593 0 11.9997 0Z" fill="#D80027"/>
<path d="M11.9997 23.9999C17.1593 23.9999 21.5577 20.7434 23.2533 16.1738H0.746094C2.44156 20.7434 6.84012 23.9999 11.9997 23.9999Z" fill="#6DA544"/>
</svg>
