<svg width="24" height="24" viewBox="0 0 24 24" fill="none" xmlns="http://www.w3.org/2000/svg">
<path d="M0 12C0 5.37262 5.37262 0 12 0C18.6274 0 24 5.37262 24 12H0Z" fill="#F0F0F0"/>
<path d="M8.86988 11.344L8.21387 12H8.86988V11.344Z" fill="#0052B4"/>
<path d="M15.1309 11.3442V12.0002H15.7868L15.1309 11.3442Z" fill="#0052B4"/>
<path d="M0.346219 9.13062C0.120516 10.0501 0 11.011 0 12.0001H3.78642L6.65592 9.13062H0.346219Z" fill="#0052B4"/>
<path d="M17.3438 9.13062L20.2133 12.0001H23.9998C23.9998 11.011 23.8792 10.0501 23.6535 9.13062H17.3438Z" fill="#0052B4"/>
<path d="M16.6065 9.13062H15.1309L18.0004 12.0001H19.4761L16.6065 9.13062Z" fill="#D80027"/>
<path d="M8.86959 10.6062V9.13062H8.8695L6 12.0001H7.47572L8.86959 10.6062Z" fill="#D80027"/>
<path d="M5.62134 1.83472C5.12671 2.14578 4.65641 2.49181 4.21387 2.86948H6.65605L5.62134 1.83472Z" fill="#0052B4"/>
<path d="M19.7858 2.86948C19.3433 2.49176 18.873 2.14573 18.3785 1.83472L17.3438 2.86948H19.7858Z" fill="#0052B4"/>
<path d="M13.5654 7.5652H23.1536C22.7 6.42525 22.0765 5.37159 21.3146 4.43475H13.5654H13.5654V0.101578C13.053 0.034875 12.5306 0 12.0002 0C11.4696 0 10.9473 0.034875 10.435 0.101578V4.4347V4.43475H2.68573C1.92387 5.37159 1.30034 6.42525 0.84668 7.5652H10.4349H10.4349V12H13.5654V7.56525V7.5652Z" fill="#D80027"/>
<path d="M8.86968 2.86964V2.86959L7.06063 1.06055C6.72618 1.21181 6.40021 1.37845 6.08301 1.55859L7.39405 2.86964H8.86968Z" fill="#D80027"/>
<path d="M15.1309 2.86945L16.94 1.0604C16.5958 0.904824 16.243 0.765324 15.8825 0.64209L15.1309 1.39382V2.86945Z" fill="#D80027"/>
<path d="M24 12C24 18.6274 18.6274 24 12 24C5.37262 24 0 18.6274 0 12H24Z" fill="#F0F0F0"/>
<path d="M21.9999 13.5306C20.9999 13.5306 20.9999 12.6162 19.9998 12.6162C18.9999 12.6162 18.9999 13.5306 17.9999 13.5306C17 13.5306 16.9999 12.6162 16 12.6162C15 12.6162 15 13.5306 14 13.5306C13 13.5306 12.9999 12.6162 11.9998 12.6162C10.9998 12.6162 10.9998 13.5306 9.99991 13.5306C9.00006 13.5306 9.00006 12.6162 8.00008 12.6162C7 12.6162 7 13.5306 5.99992 13.5306C4.99984 13.5306 4.99984 12.6162 3.99977 12.6162C2.99992 12.6162 2.99992 13.5306 1.99994 13.5306C1.00534 13.5306 0.999578 12.6263 0.015625 12.6166C0.0433281 13.1655 0.108859 13.7044 0.207953 14.2314C1.00502 14.3485 1.07481 15.1305 1.99998 15.1305C2.99997 15.1305 2.99997 14.2163 3.99981 14.2163C4.99989 14.2163 4.99989 15.1305 5.99997 15.1305C7.00005 15.1305 7.00005 14.2163 8.00013 14.2163C9.00011 14.2163 9.00011 15.1305 9.99995 15.1305C10.9999 15.1305 10.9999 14.2163 11.9999 14.2163C13 14.2163 13 15.1305 14 15.1305C15.0001 15.1305 15.0001 14.2163 16 14.2163C17 14.2163 17 15.1305 18 15.1305C18.9999 15.1305 19 14.2163 19.9999 14.2163C21 14.2163 21 15.1305 21.9999 15.1305C22.9252 15.1305 22.995 14.3486 23.7921 14.2314C23.8912 13.7044 23.9567 13.1656 23.9845 12.6167C23.0004 12.6264 22.9945 13.5306 21.9999 13.5306Z" fill="#0052B4"/>
<path d="M19.9998 15.7466C18.9998 15.7466 18.9998 16.6609 17.9998 16.6609C16.9999 16.6609 16.9999 15.7466 15.9999 15.7466C14.9999 15.7466 14.9999 16.6609 13.9999 16.6609C12.9998 16.6609 12.9998 15.7466 11.9998 15.7466C10.9998 15.7466 10.9998 16.6609 9.99983 16.6609C8.99998 16.6609 8.99998 15.7466 8 15.7466C6.99992 15.7466 6.99992 16.6609 5.99984 16.6609C4.99977 16.6609 4.99977 15.7466 3.99969 15.7466C2.99984 15.7466 2.99984 16.6609 1.99986 16.6609C1.28534 16.6609 1.08125 16.1942 0.658203 15.9276C0.939828 16.7413 1.3062 17.5154 1.74744 18.2389C1.82417 18.2531 1.9077 18.2609 1.99986 18.2609C2.99984 18.2609 2.99984 17.3467 3.99969 17.3467C4.99977 17.3467 4.99977 18.2609 5.99984 18.2609C6.99992 18.2609 6.99992 17.3467 8 17.3467C8.99998 17.3467 8.99998 18.2609 9.99983 18.2609C10.9998 18.2609 10.9998 17.3467 11.9998 17.3467C12.9998 17.3467 12.9998 18.2609 13.9999 18.2609C15 18.2609 15 17.3467 15.9999 17.3467C16.9999 17.3467 16.9999 18.2609 17.9998 18.2609C18.9998 18.2609 18.9998 17.3467 19.9998 17.3467C20.9998 17.3467 20.9998 18.2609 21.9998 18.2609C22.092 18.2609 22.1756 18.2531 22.2523 18.2389C22.6935 17.5154 23.0599 16.7413 23.3416 15.9277C22.9185 16.1941 22.7144 16.6609 21.9998 16.6609C20.9998 16.6609 20.9998 15.7466 19.9998 15.7466Z" fill="#0052B4"/>
<path d="M23.9932 11.623C23.9942 11.6564 23.9954 11.6897 23.9961 11.7232C23.9954 11.6898 23.9941 11.6564 23.9932 11.623Z" fill="#F0F0F0"/>
<path d="M0.00390625 11.7232C0.00470313 11.6898 0.00582812 11.6564 0.00685937 11.623C0.005875 11.6564 0.00465625 11.6898 0.00390625 11.7232Z" fill="#F0F0F0"/>
<path d="M0 12.0001C0 11.9075 0.00140625 11.8153 0.00351563 11.7231C0.00135938 11.8153 0 11.9075 0 12.0001Z" fill="#F0F0F0"/>
<path d="M0 12C0 12.2186 0.0061875 12.4358 0.0178594 12.6514C0.999563 12.6624 1.00608 13.5652 1.99997 13.5652C2.99995 13.5652 2.99995 12.651 3.9998 12.651C4.99988 12.651 4.99988 13.5652 5.99995 13.5652C7.00003 13.5652 7.00003 12.651 8.00011 12.651C9.00009 12.651 9.00009 13.5652 9.99994 13.5652C10.9999 13.5652 10.9999 12.651 11.9999 12.651C12.9999 12.651 12.9999 13.5652 14 13.5652C15.0001 13.5652 15.0001 12.651 16 12.651C17 12.651 17 13.5652 18 13.5652C18.9999 13.5652 18.9999 12.651 19.9999 12.651C21 12.651 21 13.5652 21.9999 13.5652C22.9939 13.5652 23.0004 12.6624 23.9823 12.6514C23.9938 12.4357 24 12.2186 24 12H0Z" fill="#F0F0F0"/>
<path d="M23.9961 11.7231C23.9982 11.8152 23.9996 11.9075 23.9996 12.0001C23.9996 11.9075 23.9982 11.8153 23.9961 11.7231Z" fill="#F0F0F0"/>
<path d="M20.0003 18.877C19.0003 18.877 19.0003 19.7913 18.0003 19.7913C17.0004 19.7913 17.0004 18.877 16.0004 18.877C15.0004 18.877 15.0004 19.7913 14.0004 19.7913C13.0003 19.7913 13.0003 18.877 12.0002 18.877C11.0003 18.877 11.0003 19.7913 10.0003 19.7913C9.00048 19.7913 9.00048 18.877 8.00049 18.877C7.00041 18.877 7.00041 19.7913 6.00034 19.7913C5.00026 19.7913 5.00026 18.877 4.00018 18.877C3.30952 18.877 3.09582 19.3131 2.7002 19.5829C3.74968 20.8685 5.06077 21.9318 6.55163 22.6932L12.0004 22.4187L17.4492 22.6931C18.94 21.9317 20.2511 20.8686 21.3006 19.583C20.9048 19.3132 20.6911 18.877 20.0003 18.877Z" fill="#0052B4"/>
<path d="M18.6555 19.1631L15.0051 19.8613L14.5427 16.1739L12.0001 18.8858L9.45759 16.1738L8.99493 19.8613L5.34473 19.163L7.13484 22.4186L6.55021 22.6936C8.18559 23.5288 10.0378 23.9999 12.0001 23.9999C13.9624 23.9999 15.8146 23.5288 17.45 22.6937L16.8656 22.4188L18.6555 19.1631Z" fill="#FFDA44"/>
</svg>
