<svg width="24" height="24" viewBox="0 0 24 24" fill="none" xmlns="http://www.w3.org/2000/svg">
<path d="M24 12C24 18.6274 18.6274 24 12 24C5.37262 24 0 18.6274 0 12C0 12.0029 12 0.0013125 12 0C18.6274 0 24 5.37262 24 12Z" fill="#0052B4"/>
<path d="M11.9678 11.9999H11.9999C11.9999 11.9891 11.9999 11.9786 11.9999 11.9678C11.9892 11.9785 11.9785 11.9892 11.9678 11.9999Z" fill="#F0F0F0"/>
<path d="M12 6.26086C12 4.14937 12 2.76586 12 0H11.998C5.37145 0.001125 0 5.37323 0 12H6.26086V8.47448L9.78638 12H11.9679C11.9786 11.9893 11.9893 11.9786 12 11.9679C12 11.1594 12 10.4381 12 9.78647L8.47444 6.26086H12Z" fill="#F0F0F0"/>
<path d="M17.2178 8.86974C18.3704 8.86974 19.3048 7.93537 19.3048 6.78277C19.3048 5.63017 18.3704 4.6958 17.2178 4.6958C16.0652 4.6958 15.1309 5.63017 15.1309 6.78277C15.1309 7.93537 16.0652 8.86974 17.2178 8.86974Z" fill="#6DA544"/>
<path d="M6.07124 1.56543C4.19441 2.63413 2.63409 4.19441 1.56543 6.07124V12.0002H4.69588V4.69598V4.69588H12.0002C12.0002 3.70855 12.0002 2.76796 12.0002 1.56543H6.07124Z" fill="#D80027"/>
<path d="M11.9999 10.5247L7.73637 6.26123H6.26074V6.26132L11.9998 12.0003H11.9999C11.9999 12.0003 11.9999 10.9828 11.9999 10.5247Z" fill="#D80027"/>
<path d="M13.5654 6.26123H20.8698V9.39168H13.5654V6.26123Z" fill="#D80027"/>
<path d="M13.5654 14.0869V16.1739H14.6634C15.3218 16.8191 16.223 17.2174 17.2176 17.2174C18.2122 17.2174 19.1134 16.8191 19.7718 16.1739H19.8263H20.8698V14.0869H13.5654Z" fill="#FFDA44"/>
<path d="M13.5654 8.86963V12.0001C13.5654 14.7957 17.2176 15.6523 17.2176 15.6523C17.2176 15.6523 20.8698 14.7957 20.8698 12.0001V8.86963H13.5654Z" fill="#338AF3"/>
<path d="M17.2174 10.5415C16.3044 10.5415 16.3044 11.3763 15.3914 11.3763C14.4784 11.3763 14.4784 10.5415 13.5654 10.5415V12.0024C14.4784 12.0024 14.4784 12.8372 15.3914 12.8372C16.3044 12.8372 16.3044 12.0024 17.2174 12.0024C18.1304 12.0024 18.1304 12.8372 19.0436 12.8372C19.9567 12.8372 19.9566 12.0024 20.8698 12.0024V10.5415C19.9567 10.5415 19.9567 11.3763 19.0436 11.3763C18.1304 11.3763 18.1304 10.5415 17.2174 10.5415Z" fill="#F3F3F3"/>
<path d="M17.2174 7.61719C16.3044 7.61719 16.3044 8.45198 15.3914 8.45198C14.4784 8.45198 14.4784 7.61719 13.5654 7.61719V9.07805C14.4784 9.07805 14.4784 9.91284 15.3914 9.91284C16.3044 9.91284 16.3044 9.07805 17.2174 9.07805C18.1304 9.07805 18.1304 9.91284 19.0436 9.91284C19.9567 9.91284 19.9566 9.07805 20.8698 9.07805V7.61719C19.9567 7.61719 19.9567 8.45198 19.0436 8.45198C18.1304 8.45198 18.1304 7.61719 17.2174 7.61719Z" fill="#F3F3F3"/>
</svg>
