<svg width="24" height="24" viewBox="0 0 24 24" fill="none" xmlns="http://www.w3.org/2000/svg">
<path d="M16.1743 0.746437C14.8742 0.264047 13.4681 0 12.0002 0C10.5325 0 9.12639 0.264047 7.82645 0.746344L7.30469 12L7.82641 23.2537C9.12639 23.736 10.5325 24 12.0002 24C13.4682 24 14.8742 23.736 16.1743 23.2536L16.696 12L16.1743 0.746437Z" fill="#FFDA44"/>
<path d="M0 12.0002C0 17.1598 3.2565 21.5583 7.82611 23.2538V0.746582C3.2565 2.44214 0 6.84061 0 12.0002Z" fill="#D80027"/>
<path d="M23.9999 12.0002C23.9999 6.84061 20.7434 2.44214 16.1738 0.746582V23.2538C20.7434 21.5583 23.9999 17.1598 23.9999 12.0002Z" fill="#6DA544"/>
</svg>
