<svg width="24" height="24" viewBox="0 0 24 24" fill="none" xmlns="http://www.w3.org/2000/svg">
<path d="M12 24C18.6274 24 24 18.6274 24 12C24 5.37258 18.6274 0 12 0C5.37258 0 0 5.37258 0 12C0 18.6274 5.37258 24 12 24Z" fill="#F0F0F0"/>
<path d="M15.8976 8.86968H14.3275C14.3405 9.04222 14.3479 9.21632 14.3479 9.39139C14.3479 10.5522 14.0577 11.6773 13.5519 12.4783C13.3958 12.7253 13.1336 13.0741 12.7826 13.3094V8.86963H11.2174V13.3094C10.8665 13.0741 10.6042 12.7253 10.4481 12.4783C9.94227 11.6773 9.65216 10.5522 9.65216 9.39139C9.65216 9.21632 9.65957 9.04218 9.67251 8.86968H8.10248C8.0924 9.04138 8.08691 9.21529 8.08691 9.39139C8.08691 12.6096 9.80573 15.1305 11.9999 15.1305C14.1942 15.1305 15.913 12.6096 15.913 9.39139C15.9131 9.21529 15.9076 9.04138 15.8976 8.86968Z" fill="#D80027"/>
<path d="M4.95623 5.73914H6.52143V6.78263H8.08663V5.73914H9.65184V6.78263H11.217V5.73914H12.7822V6.78263H14.3474V5.73914H15.9126V6.78263H17.4779V5.73914H19.0431V6.78263H22.8089C20.868 2.76867 16.7572 0 11.9997 0C7.24223 0 3.13143 2.76867 1.19043 6.78263H4.95623V5.73914Z" fill="#6DA544"/>
<path d="M19.0432 17.2173V18.2608H17.478V17.2173H15.9128V18.2608H14.3476V17.2173H12.7824V18.2608H11.2172V17.2173H9.65198V18.2608H8.08677V17.2173H6.52143V18.2608H4.95623V17.2173H1.19043C3.13143 21.2312 7.24218 23.9999 11.9997 23.9999C16.7572 23.9999 20.868 21.2312 22.809 17.2173H19.0432Z" fill="#D80027"/>
</svg>
