<svg width="24" height="24" viewBox="0 0 24 24" fill="none" xmlns="http://www.w3.org/2000/svg">
<path d="M12 24C18.6274 24 24 18.6274 24 12C24 5.37258 18.6274 0 12 0C5.37258 0 0 5.37258 0 12C0 18.6274 5.37258 24 12 24Z" fill="#FFDA44"/>
<path d="M19.3043 5.73914C19.1967 6.25641 19.1478 6.80733 19.1478 7.35652C19.1478 10.5222 21.035 13.2621 23.7394 14.4955C23.9097 13.6904 24 12.8558 24 12C24 5.37262 18.6274 0 12 0C5.37262 0 0 5.37262 0 12C0 18.6274 5.37262 24 12 24C16.1101 24 19.7371 21.9332 21.8998 18.7826H6.78263V17.2174H22.8093C22.9733 16.8782 23.1215 16.53 23.2537 16.1739H6.78263L19.3043 5.73914Z" fill="#0052B4"/>
<path d="M8.81595 6.26074L9.07499 7.0579H9.91311L9.23506 7.5506L9.49409 8.34771L8.81595 7.8551L8.13791 8.34771L8.39689 7.5506L7.71875 7.0579H8.55692L8.81595 6.26074Z" fill="#F0F0F0"/>
<path d="M5.41048 12L5.7343 12.9965H6.78195L5.93431 13.6122L6.25812 14.6087L5.41048 13.9928L4.56289 14.6087L4.88666 13.6122L4.03906 12.9965H5.08672L5.41048 12Z" fill="#F0F0F0"/>
<path d="M5.41048 3.65234L5.7343 4.64886H6.78195L5.93431 5.26456L6.25812 6.26103L5.41048 5.64519L4.56289 6.26103L4.88666 5.26456L4.03906 4.64886H5.08672L5.41048 3.65234Z" fill="#F0F0F0"/>
<path d="M2.80209 8.34766L3.1259 9.34417H4.17351L3.32591 9.95987L3.64973 10.9563L2.80209 10.3405L1.95449 10.9563L2.27826 9.95987L1.43066 9.34417H2.47827L2.80209 8.34766Z" fill="#F0F0F0"/>
</svg>
