<svg width="24" height="24" viewBox="0 0 24 24" fill="none" xmlns="http://www.w3.org/2000/svg">
<path d="M12 24C18.6274 24 24 18.6274 24 12C24 5.37258 18.6274 0 12 0C5.37258 0 0 5.37258 0 12C0 18.6274 5.37258 24 12 24Z" fill="#F0F0F0"/>
<path d="M21.9999 13.4363C20.9999 13.4363 20.9999 12.522 19.9998 12.522C18.9999 12.522 18.9999 13.4363 17.9999 13.4363C17 13.4363 16.9999 12.522 16 12.522C15 12.522 15 13.4363 14 13.4363C13 13.4363 12.9999 12.522 11.9998 12.522C10.9998 12.522 10.9998 13.4363 9.99991 13.4363C9.00006 13.4363 9.00006 12.522 8.00008 12.522C7 12.522 7 13.4363 5.99992 13.4363C4.99984 13.4363 4.99984 12.522 3.99977 12.522C2.99992 12.522 2.99992 13.4363 1.99994 13.4363C1.00534 13.4363 0.999578 12.5321 0.015625 12.5224C0.0433281 13.0713 0.108859 13.6102 0.207953 14.1372C1.00502 14.2542 1.07481 15.0363 2.00003 15.0363C3.00002 15.0363 3.00002 14.122 3.99986 14.122C4.99994 14.122 4.99994 15.0363 6.00002 15.0363C7.00009 15.0363 7.00009 14.122 8.00017 14.122C9.00016 14.122 9.00016 15.0363 10 15.0363C11 15.0363 11 14.122 11.9999 14.122C13 14.122 13 15.0363 14.0001 15.0363C15.0002 15.0363 15.0002 14.122 16.0001 14.122C17.0001 14.122 17.0001 15.0363 18 15.0363C19 15.0363 19 14.122 19.9999 14.122C21 14.122 21 15.0363 22 15.0363C22.9252 15.0363 22.995 14.2543 23.7921 14.1372C23.8913 13.6101 23.9567 13.0713 23.9845 12.5224C23.0004 12.5321 22.9945 13.4363 21.9999 13.4363Z" fill="#0052B4"/>
<path d="M20.0003 15.6523C19.0003 15.6523 19.0003 16.5667 18.0004 16.5667C17.0004 16.5667 17.0004 15.6523 16.0004 15.6523C15.0004 15.6523 15.0004 16.5667 14.0004 16.5667C13.0003 16.5667 13.0003 15.6523 12.0003 15.6523C11.0003 15.6523 11.0003 16.5667 10.0003 16.5667C9.00049 16.5667 9.00049 15.6523 8.00051 15.6523C7.00043 15.6523 7.00043 16.5667 6.00035 16.5667C5.00027 16.5667 5.00027 15.6523 4.0002 15.6523C3.00035 15.6523 3.00035 16.5667 2.00037 16.5667C1.26373 16.5667 1.06924 16.0708 0.618164 15.8097C0.891352 16.6262 1.25018 17.4033 1.68354 18.131C1.77738 18.1536 1.88173 18.1667 2.00032 18.1667C3.0003 18.1667 3.0003 17.2524 4.00015 17.2524C5.00023 17.2524 5.00023 18.1667 6.0003 18.1667C7.00038 18.1667 7.00038 17.2524 8.00046 17.2524C9.00045 17.2524 9.00045 18.1667 10.0003 18.1667C11.0003 18.1667 11.0003 17.2524 12.0002 17.2524C13.0003 17.2524 13.0003 18.1667 14.0004 18.1667C15.0004 18.1667 15.0004 17.2524 16.0004 17.2524C17.0004 17.2524 17.0004 18.1667 18.0003 18.1667C19.0002 18.1667 19.0003 17.2524 20.0002 17.2524C21.0003 17.2524 21.0003 18.1667 22.0002 18.1667C22.1189 18.1667 22.2234 18.1536 22.3173 18.131C22.7507 17.4033 23.1094 16.6262 23.3826 15.8097C22.9315 16.0709 22.737 16.5667 22.0002 16.5667C21.0004 16.5667 21.0004 15.6523 20.0003 15.6523Z" fill="#0052B4"/>
<path d="M23.7211 9.41891C22.9902 9.57064 22.897 10.3055 22.0002 10.3055C21.0002 10.3055 21.0002 9.39111 20.0002 9.39111C19.0002 9.39111 19.0002 10.3055 18.0002 10.3055C17.0003 10.3055 17.0003 9.39111 16.0003 9.39111C15.0003 9.39111 15.0003 10.3055 14.0003 10.3055C13.0003 10.3055 13.0002 9.39111 12.0001 9.39111C11.4598 9.39111 11.2114 9.65802 10.9395 9.90346V11.5034C11.2114 11.2581 11.4598 10.9912 12.0001 10.9912C13.0002 10.9912 13.0002 11.9054 14.0003 11.9054C15.0004 11.9054 15.0004 10.9912 16.0003 10.9912C17.0003 10.9912 17.0003 11.9054 18.0002 11.9054C19.0002 11.9054 19.0002 10.9912 20.0002 10.9912C21.0002 10.9912 21.0002 11.9054 22.0002 11.9054C22.9254 11.9054 22.9952 11.1235 23.7923 11.0064C23.8434 11.0064 23.9005 11.0059 23.959 11.0052C23.9147 10.4655 23.8345 9.93599 23.7211 9.41891Z" fill="#0052B4"/>
<path d="M22.8445 6.85648C22.6373 7.03052 22.3978 7.17509 22.0002 7.17509C21.0002 7.17509 21.0002 6.26074 20.0002 6.26074C19.0002 6.26074 19.0002 7.17509 18.0002 7.17509C17.0003 7.17509 17.0003 6.26074 16.0003 6.26074C15.0003 6.26074 15.0003 7.17509 14.0003 7.17509C13.0003 7.17509 13.0002 6.26074 12.0001 6.26074C11.4598 6.26074 11.2114 6.52765 10.9395 6.77309V8.37307C11.2114 8.12768 11.4598 7.86082 12.0001 7.86082C13.0002 7.86082 13.0002 8.77507 14.0003 8.77507C15.0003 8.77507 15.0003 7.86082 16.0003 7.86082C17.0003 7.86082 17.0002 8.77507 18.0002 8.77507C19.0001 8.77507 19.0001 7.86082 20.0001 7.86082C21.0002 7.86082 21.0002 8.77507 22.0001 8.77507C22.7097 8.77507 22.9163 8.31546 23.3335 8.04818C23.1914 7.64051 23.0281 7.24277 22.8445 6.85648Z" fill="#0052B4"/>
<path d="M20.0856 3.13281C20.0579 3.13131 20.0296 3.13037 20.0002 3.13037C19.0002 3.13037 19.0002 4.04471 18.0003 4.04471C17.0003 4.04471 17.0003 3.13037 16.0004 3.13037C15.0004 3.13037 15.0004 4.04471 14.0003 4.04471C13.0002 4.04471 13.0002 3.13037 12.0001 3.13037C11.4598 3.13037 11.2114 3.39728 10.9395 3.64271V5.2427C11.2114 4.99731 11.4598 4.73045 12.0001 4.73045C13.0002 4.73045 13.0002 5.6447 14.0003 5.6447C15.0004 5.6447 15.0004 4.73045 16.0003 4.73045C17.0003 4.73045 17.0003 5.6447 18.0002 5.6447C19.0002 5.6447 19.0002 4.73045 20.0002 4.73045C21.0002 4.73045 21.0002 5.6447 22.0002 5.6447C22.0618 5.6447 22.1193 5.64104 22.1737 5.63453C21.5929 4.70809 20.8896 3.86636 20.0856 3.13281Z" fill="#0052B4"/>
<path d="M15.0669 0.396188C14.7924 0.643125 14.5443 0.914344 13.9996 0.914344C12.9996 0.914344 12.9996 9.375e-05 11.9995 0H11.9994C11.4822 4.6875e-05 11.2326 0.244594 10.9736 0.480797V2.08083C11.2325 1.84463 11.4823 1.60003 11.9995 1.60003C12.9996 1.60003 12.9996 2.51428 13.9997 2.51428C14.9997 2.51428 14.9997 1.60003 15.9997 1.60003C16.9997 1.60003 16.9997 2.51428 17.9996 2.51428C18.4192 2.51428 18.6626 2.35322 18.8778 2.16637C17.7371 1.36692 16.4509 0.761016 15.0669 0.396188Z" fill="#0052B4"/>
<path d="M14.0003 22.8275C13.0002 22.8275 13.0002 21.9131 12.0001 21.9131C11.0001 21.9131 11.0001 22.8275 10.0002 22.8275C9.00037 22.8275 9.00037 21.9131 8.00038 21.9131C7.2344 21.9131 7.05473 22.4491 6.56348 22.7003C7.91816 23.39 9.4213 23.8296 11.0122 23.9593C11.2583 23.7345 11.5082 23.5132 12.0001 23.5132C12.4922 23.5132 12.7421 23.7345 12.9882 23.9594C14.5792 23.8297 16.0824 23.39 17.4372 22.7003C16.9458 22.4492 16.7662 21.9131 16.0003 21.9131C15.0004 21.9131 15.0004 22.8275 14.0003 22.8275Z" fill="#0052B4"/>
<path d="M18.0003 19.6971C17.0003 19.6971 17.0003 18.7827 16.0003 18.7827C15.0004 18.7827 15.0004 19.6971 14.0003 19.6971C13.0002 19.6971 13.0003 18.7827 12.0002 18.7827C11.0002 18.7827 11.0002 19.6971 10.0003 19.6971C9.00041 19.6971 9.00041 18.7827 8.00042 18.7827C7.00034 18.7827 7.00034 19.6971 6.00027 19.6971C5.00019 19.6971 5.00019 18.7827 4.00011 18.7827C3.281 18.7827 3.07906 19.2557 2.65039 19.5212C2.91908 19.8549 3.20473 20.1743 3.50703 20.4771C3.64245 20.4193 3.80136 20.3827 4.00006 20.3827C5.00014 20.3827 5.00014 21.297 6.00022 21.297C7.0003 21.297 7.0003 20.3827 8.00038 20.3827C9.00036 20.3827 9.00036 21.297 10.0002 21.297C11.0002 21.297 11.0002 20.3827 12.0001 20.3827C13.0002 20.3827 13.0002 21.297 14.0003 21.297C15.0004 21.297 15.0004 20.3827 16.0003 20.3827C17.0002 20.3827 17.0003 21.297 18.0002 21.297C19.0002 21.297 19.0002 20.3827 20.0001 20.3827C20.1991 20.3827 20.358 20.4193 20.4935 20.4772C20.7958 20.1743 21.0815 19.8549 21.3502 19.5213C20.9215 19.2558 20.7195 18.7828 20.0002 18.7828C19.0002 18.7827 19.0002 19.6971 18.0003 19.6971Z" fill="#0052B4"/>
<path d="M11.9678 11.9999H11.9999C11.9999 11.9891 11.9999 11.9786 11.9999 11.9678C11.9892 11.9785 11.9785 11.9892 11.9678 11.9999Z" fill="#F0F0F0"/>
<path d="M12.0001 6.26098V9.78659L7.82617 5.73926L12.0001 6.26098Z" fill="#0052B4"/>
<path d="M6.26102 12.0003H9.78649L6.26098 7.30469L5.73926 10.9569L6.26102 12.0003Z" fill="#0052B4"/>
<path d="M12 6.26086C12 4.14937 12 2.76586 12 0H11.998C5.3715 0.001125 0 5.37323 0 12H6.26091V8.47448L9.78638 12H11.9679C11.9786 11.9893 11.9893 11.9786 12 11.9679C12 11.1594 12 10.4381 12 9.78647L8.47444 6.26086H12Z" fill="#F0F0F0"/>
<path d="M6.07124 1.56543C4.19441 2.63413 2.63413 4.19441 1.56543 6.07124V12.0002H4.69588V4.69598V4.69588H12.0002C12.0002 3.70855 12.0002 2.76796 12.0002 1.56543H6.07124Z" fill="#D80027"/>
<path d="M11.9999 10.5247L7.73637 6.26123H6.26074V6.26132L11.9998 12.0003H11.9999C11.9999 12.0003 11.9999 10.9828 11.9999 10.5247Z" fill="#D80027"/>
<path d="M15.6523 6.26074H20.348L18.0002 8.60857L15.6523 6.26074Z" fill="#6DA544"/>
<path d="M17.4785 8.08691H18.522V10.9565H17.4785V8.08691Z" fill="#A2001D"/>
<path d="M17.4785 15.6523H18.522V18.5219H17.4785V15.6523Z" fill="#A2001D"/>
<path d="M21.13 14.0867C21.13 13.2223 20.4292 12.5215 19.5648 12.5215C19.1638 12.5215 18.7983 12.6725 18.5213 12.9204V11.9998H19.043V10.9563H18.5213V10.4346H17.4778V10.9563H16.9561V11.9998H17.4778V12.9204C17.2008 12.6725 16.8353 12.5215 16.4343 12.5215C15.5699 12.5215 14.8691 13.2223 14.8691 14.0867C14.8691 14.5502 15.0708 14.9664 15.3909 15.2531V16.1737H20.6082V15.2531C20.9284 14.9664 21.13 14.5502 21.13 14.0867Z" fill="#FFDA44"/>
<path d="M19.5652 13.5654C19.4006 13.5654 19.2854 13.6377 19.2177 13.6983L18.5217 14.3213H17.4783L16.7823 13.6983C16.7146 13.6377 16.5994 13.5654 16.4348 13.5654C16.1471 13.5654 15.9131 13.7995 15.9131 14.0871C15.9131 14.2898 16.0224 14.4178 16.0875 14.4762L16.4349 14.7872V15.1306H19.5653V14.7872L19.9127 14.4762C19.9778 14.4179 20.0871 14.2898 20.0871 14.0871C20.087 13.7995 19.8529 13.5654 19.5652 13.5654Z" fill="#D80027"/>
</svg>
