<svg width="24" height="24" viewBox="0 0 24 24" fill="none" xmlns="http://www.w3.org/2000/svg">
<path d="M12 24C18.6274 24 24 18.6274 24 12C24 5.37258 18.6274 0 12 0C5.37258 0 0 5.37258 0 12C0 18.6274 5.37258 24 12 24Z" fill="#D80027"/>
<path d="M18.783 8.90675H14.4364C14.7048 8.62578 14.8699 8.24539 14.8699 7.82619C14.8699 6.96177 14.1691 6.26099 13.3047 6.26099C12.7601 6.26099 12.2807 6.53924 12.0004 6.96116C11.72 6.53924 11.2406 6.26099 10.696 6.26099C9.83159 6.26099 9.13081 6.96177 9.13081 7.82619C9.13081 8.24539 9.29595 8.62583 9.56426 8.90675H5.21777C5.21777 10.0594 6.2217 10.9937 7.37421 10.9937H7.30465C7.30465 12.1463 8.23901 13.0807 9.39166 13.0807C9.39166 13.454 9.49005 13.804 9.6618 14.107L7.93071 15.8381L9.25887 17.1662L11.1429 15.2822C11.2166 15.3093 11.293 15.331 11.3719 15.3457L10.2334 17.9161L12.0004 19.8262L13.7673 17.916L12.6289 15.3456C12.7077 15.3309 12.7841 15.3092 12.8578 15.2821L14.7418 17.1661L16.07 15.838L14.3389 14.1068C14.5106 13.8039 14.609 13.4539 14.609 13.0805C15.7616 13.0805 16.696 12.1462 16.696 10.9935H16.6265C17.779 10.9936 18.783 10.0594 18.783 8.90675Z" fill="black"/>
</svg>
