<svg width="24" height="24" viewBox="0 0 24 24" fill="none" xmlns="http://www.w3.org/2000/svg">
<path d="M20.4853 20.4853C15.799 25.1715 8.20108 25.1715 3.5147 20.4853C-1.17158 15.799 -1.17158 8.20097 3.51475 3.51464C8.20103 -1.17164 15.0611 -0.433783 19.7474 4.25254C24.4337 8.93883 25.1716 15.799 20.4853 20.4853Z" fill="black"/>
<path d="M3.51465 3.51467C8.20093 -1.17161 15.7989 -1.17152 20.4852 3.51472C25.1715 8.201 25.1715 15.799 20.4852 20.4853" fill="#A2001D"/>
<path d="M9.17152 16.1738L9.36577 16.7717H9.99441L9.48582 17.1412L9.68012 17.7391L9.17152 17.3696L8.66293 17.7391L8.85718 17.1412L8.34863 16.7717H8.97723L9.17152 16.1738Z" fill="#F0F0F0"/>
<path d="M7.56581 10.4346L7.88966 11.431H8.93732L8.08968 12.0468L8.41345 13.0433L7.56581 12.4274L6.71821 13.0433L7.04202 12.0468L6.19434 11.431H7.24209L7.56581 10.4346Z" fill="#F0F0F0"/>
<path d="M7.56581 17.7388L7.88957 18.7352H8.93732L8.08959 19.351L8.41345 20.3475L7.56581 19.7316L6.71821 20.3475L7.04193 19.351L6.19434 18.7352H7.24195L7.56581 17.7388Z" fill="#F0F0F0"/>
<path d="M10.6292 13.0435L10.9531 14.0399H12.0008L11.1531 14.6557L11.4769 15.6521L10.6292 15.0363L9.78164 15.6521L10.1055 14.6557L9.25781 14.0399H10.3055L10.6292 13.0435Z" fill="#F0F0F0"/>
<path d="M4.50233 13.0435L4.82619 14.0399H5.8738L5.0262 14.6557L5.34992 15.6521L4.50233 15.0363L3.65469 15.6521L3.97855 14.6557L3.13086 14.0399H4.17856L4.50233 13.0435Z" fill="#F0F0F0"/>
<path d="M20.0879 8.88575C19.5516 8.34945 18.8547 8.03262 18.1059 7.9782L20.3475 6.23478C19.4547 5.34205 18.2582 4.93887 17.0906 5.02414C16.9509 4.52183 16.6844 4.04736 16.2894 3.65234L15.4039 5.42319C15.3459 5.31734 15.2723 5.21773 15.1826 5.12806C14.6732 4.61867 13.8473 4.61867 13.338 5.12806C12.8286 5.63745 12.8285 6.4633 13.338 6.97269C13.4276 7.06236 13.5273 7.13591 13.6331 7.19403L11.8623 8.07945C12.2574 8.47461 12.7322 8.74128 13.2348 8.88097C13.1493 10.0485 13.552 11.2449 14.4448 12.1377L16.4032 9.61962C16.5506 9.47455 16.7451 9.39444 16.9521 9.39444C17.1612 9.39444 17.3577 9.47581 17.5055 9.6237C17.6533 9.7715 17.7348 9.96805 17.7348 10.1771C17.7348 10.3861 17.6533 10.5826 17.5055 10.7305L18.2434 11.4684C18.5883 11.1235 18.7782 10.6649 18.7782 10.1771C18.7782 9.77802 18.6509 9.39861 18.4159 9.08492C18.7584 9.17637 19.082 9.35553 19.3502 9.6237C20.1639 10.4374 20.1639 11.7614 19.3502 12.5751L20.0881 13.313C20.6793 12.7217 21.0049 11.9356 21.0049 11.0994C21.0048 10.2631 20.6791 9.47703 20.0879 8.88575Z" fill="#FFDA44"/>
</svg>
