<svg width="24" height="24" viewBox="0 0 24 24" fill="none" xmlns="http://www.w3.org/2000/svg">
<path d="M12 24C18.6274 24 24 18.6274 24 12C24 5.37258 18.6274 0 12 0C5.37258 0 0 5.37258 0 12C0 18.6274 5.37258 24 12 24Z" fill="#F0F0F0"/>
<path d="M3.51451 20.485C4.0179 20.9884 4.55499 21.4374 5.11838 21.8326L21.8326 5.11838C21.4374 4.55499 20.9884 4.0179 20.485 3.51451C19.9816 3.01112 19.4445 2.56224 18.8811 2.16699L2.16699 18.8812C2.5622 19.4445 3.01112 19.9816 3.51451 20.485Z" fill="#A2001D"/>
<path d="M3.51428 3.51514C-0.271532 7.30096 -0.998282 12.9865 1.33248 17.5025L17.5016 1.33344C12.9856 -0.997325 7.3 -0.270482 3.51428 3.51514Z" fill="#0052B4"/>
<path d="M20.4854 20.4855C24.2711 16.6997 24.9979 11.0141 22.6672 6.49805L6.49805 22.6672C11.014 24.998 16.6996 24.2712 20.4854 20.4855Z" fill="#496E2D"/>
<path d="M9.91259 6.7828L8.56793 7.41528L9.28399 8.71756L7.82388 8.43828L7.63882 9.9132L6.62182 8.82838L5.60477 9.9132L5.41981 8.43828L3.95965 8.71752L4.67566 7.41523L3.33105 6.7828L4.67571 6.15027L3.95965 4.84808L5.41976 5.12736L5.60482 3.65234L6.62182 4.73722L7.63887 3.65234L7.82388 5.12736L9.28399 4.84808L8.56802 6.15031L9.91259 6.7828Z" fill="#FFDA44"/>
</svg>
