<svg width="24" height="24" viewBox="0 0 24 24" fill="none" xmlns="http://www.w3.org/2000/svg">
<path d="M12 24C18.6274 24 24 18.6274 24 12C24 5.37258 18.6274 0 12 0C5.37258 0 0 5.37258 0 12C0 18.6274 5.37258 24 12 24Z" fill="#F0F0F0"/>
<path d="M12.0003 0C7.03927 0 2.78171 3.01059 0.954102 7.30434H23.0465C21.2189 3.01059 16.9613 0 12.0003 0Z" fill="#A2001D"/>
<path d="M12.0003 24.0001C16.9613 24.0001 21.2189 20.9896 23.0465 16.6958H0.954102C2.78171 20.9896 7.03927 24.0001 12.0003 24.0001Z" fill="#496E2D"/>
<path d="M23.5866 8.86963H0.413391C0.144375 9.86774 0 10.9169 0 12.0001C0 13.0832 0.144375 14.1324 0.413391 15.1305H23.5867C23.8556 14.1324 24 13.0832 24 12.0001C24 10.9169 23.8556 9.86774 23.5866 8.86963Z" fill="#0052B4"/>
</svg>
