<svg width="24" height="24" viewBox="0 0 24 24" fill="none" xmlns="http://www.w3.org/2000/svg">
<path d="M12 24C18.6274 24 24 18.6274 24 12C24 5.37258 18.6274 0 12 0C5.37258 0 0 5.37258 0 12C0 18.6274 5.37258 24 12 24Z" fill="#F0F0F0"/>
<path d="M11.9997 0C6.84013 0 2.44161 3.2565 0.746094 7.82611H23.2534C21.5578 3.2565 17.1593 0 11.9997 0Z" fill="#A2001D"/>
<path d="M11.9997 24.0001C17.1593 24.0001 21.5578 20.7436 23.2533 16.174H0.746094C2.44161 20.7436 6.84012 24.0001 11.9997 24.0001Z" fill="black"/>
<path d="M9.13039 11.2173C9.12383 11.2173 9.11741 11.2178 9.11084 11.2179V11.2173H6.81692C6.93322 10.768 7.34094 10.4347 7.82605 10.4347V8.86951C6.38759 8.86951 5.21736 10.0398 5.21736 11.4782V12.7565V12.7826H9.11084H9.13039C9.27425 12.7826 9.39125 12.8996 9.39125 13.0434V13.5652H4.17383V15.1304H10.9565V13.0434C10.9565 12.0365 10.1373 11.2173 9.13039 11.2173Z" fill="#496E2D"/>
<path d="M13.0437 13.5652V8.86951H11.4785V15.1304H14.0872V13.5652H13.0437Z" fill="#496E2D"/>
<path d="M18.2606 13.5652V8.86951H16.6954V13.5652H16.1736V12H14.6084V15.1305H19.3041V13.5652H18.2606Z" fill="#496E2D"/>
</svg>
