<svg width="24" height="24" viewBox="0 0 24 24" fill="none" xmlns="http://www.w3.org/2000/svg">
<path d="M12 24C18.6274 24 24 18.6274 24 12C24 5.37258 18.6274 0 12 0C5.37258 0 0 5.37258 0 12C0 18.6274 5.37258 24 12 24Z" fill="#F0F0F0"/>
<path d="M23.9994 11.9653H10.9911C8.40842 14.5481 6.84664 16.542 5.25195 18.1367L12.0346 18.7479L22.5596 17.7044C23.4781 16.0078 23.9998 14.0649 23.9998 12.0001C23.9998 11.9884 23.9994 11.977 23.9994 11.9653Z" fill="#D80027"/>
<path d="M5.25174 6.22613H22.5211C20.4802 2.51513 16.5338 0 11.9995 0C8.69462 0 5.7023 1.33645 3.53223 3.498L5.25174 6.22613Z" fill="#FFDA44"/>
<path d="M5.77425 17.7046C4.69547 18.7834 4.27856 19.6872 3.49805 20.4677C5.67094 22.6496 8.67773 24.0002 12.0003 24.0002C16.563 24.0002 20.5306 21.4537 22.5602 17.7046H5.77425Z" fill="#0052B4"/>
<path d="M3.51471 3.47998C-1.17157 8.16626 -1.17157 15.7643 3.51471 20.4506C5.45126 18.5141 7.31374 16.6516 12 11.9653L3.51471 3.47998Z" fill="#6DA544"/>
<path d="M3.16486 11.9652C3.16486 10.2168 4.39359 8.75624 6.03441 8.39793C5.78222 8.34285 5.52056 8.31299 5.25178 8.31299C3.2347 8.31299 1.59961 9.94808 1.59961 11.9652C1.59961 13.9822 3.2347 15.6173 5.25178 15.6173C5.52052 15.6173 5.78217 15.5875 6.03441 15.5324C4.39359 15.174 3.16486 13.7135 3.16486 11.9652Z" fill="#F0F0F0"/>
<path d="M5.99379 8.83447L6.18809 9.43232H6.81668L6.30809 9.80183L6.50238 10.3997L5.99379 10.0302L5.4852 10.3997L5.67949 9.80183L5.1709 9.43232H5.79949L5.99379 8.83447Z" fill="#F0F0F0"/>
<path d="M5.99379 10.3999L6.18809 10.9978H6.81668L6.30809 11.3673L6.50238 11.9652L5.99379 11.5956L5.4852 11.9652L5.67949 11.3673L5.1709 10.9978H5.79949L5.99379 10.3999Z" fill="#F0F0F0"/>
<path d="M5.99379 11.9653L6.18809 12.5632H6.81668L6.30809 12.9327L6.50238 13.5305L5.99379 13.161L5.4852 13.5305L5.67949 12.9327L5.1709 12.5632H5.79949L5.99379 11.9653Z" fill="#F0F0F0"/>
<path d="M5.99379 13.5303L6.18809 14.1281H6.81668L6.30809 14.4976L6.50238 15.0955L5.99379 14.726L5.4852 15.0955L5.67949 14.4976L5.1709 14.1281H5.79949L5.99379 13.5303Z" fill="#F0F0F0"/>
</svg>
