<svg width="24" height="24" viewBox="0 0 24 24" fill="none" xmlns="http://www.w3.org/2000/svg">
<path d="M24 11.9998C24 18.6271 18.6274 23.9998 12 23.9998C5.37262 23.9998 0 18.6271 0 11.9998C0.521719 11.9998 12 10.4346 12 10.4346L24 11.9998Z" fill="#D80027"/>
<path d="M0 12C0 5.37262 5.37262 0 12 0C18.6274 0 24 5.37262 24 12" fill="#0052B4"/>
<path d="M8.86926 8.34748C8.86926 7.48306 8.16848 6.78228 7.30405 6.78228C6.90304 6.78228 6.53755 6.93322 6.26057 7.18114V6.26052H6.78229V5.21703H6.26057V4.69531H5.21709V5.21703H4.69537V6.26052H5.21709V7.18114C4.9401 6.93322 4.57462 6.78228 4.1736 6.78228C3.30918 6.78228 2.6084 7.48306 2.6084 8.34748C2.6084 8.81094 2.81001 9.22719 3.13012 9.51383V10.4345H8.34749V9.51383C8.6677 9.22719 8.86926 8.81094 8.86926 8.34748Z" fill="#FFDA44"/>
</svg>
