<svg width="24" height="24" viewBox="0 0 24 24" fill="none" xmlns="http://www.w3.org/2000/svg">
<path d="M12 24C18.6274 24 24 18.6274 24 12C24 5.37258 18.6274 0 12 0C5.37258 0 0 5.37258 0 12C0 18.6274 5.37258 24 12 24Z" fill="#FFDA44"/>
<path d="M7.30388 7.82611H23.2531C21.5576 3.2565 17.1591 0 11.9995 0C8.68576 0 5.68609 1.34339 3.51465 3.51511L7.30388 7.82611Z" fill="#6DA544"/>
<path d="M7.30388 16.1738H23.2531C21.5576 20.7434 17.1591 23.9999 11.9995 23.9999C8.68576 23.9999 5.68609 22.6565 3.51465 20.4848L7.30388 16.1738Z" fill="#6DA544"/>
<path d="M3.51471 3.51465C-1.17157 8.20093 -1.17157 15.7989 3.51471 20.4853C5.45126 18.5487 7.31374 16.6862 12 12L3.51471 3.51465Z" fill="#D80027"/>
<path d="M15.2383 9.91309L15.7563 11.5074H17.4327L16.0765 12.4927L16.5945 14.087L15.2383 13.1017L13.8821 14.087L14.4001 12.4927L13.0439 11.5074H14.7203L15.2383 9.91309Z" fill="black"/>
<path d="M20.4551 9.91309L20.9731 11.5074H22.6495L21.2933 12.4927L21.8113 14.087L20.4551 13.1017L19.0989 14.087L19.6169 12.4927L18.2607 11.5074H19.9371L20.4551 9.91309Z" fill="black"/>
</svg>
