<svg width="24" height="24" viewBox="0 0 24 24" fill="none" xmlns="http://www.w3.org/2000/svg">
<path d="M1.19072 6.78274C0.427875 8.36037 0 10.1302 0 12.0001C0 13.87 0.427875 15.6399 1.19072 17.2175L12 18.261L22.8093 17.2175C23.5721 15.6399 24 13.87 24 12.0001C24 10.1302 23.5721 8.36037 22.8093 6.78274L12 5.73926L1.19072 6.78274Z" fill="black"/>
<path d="M1.19141 17.2173C3.13231 21.2312 7.24273 23.9999 12.0003 23.9999C16.7577 23.9999 20.8682 21.2312 22.8091 17.2173H1.19141Z" fill="#496E2D"/>
<path d="M1.19141 6.78263H22.8091C20.8682 2.76867 16.7577 0 12.0003 0C7.24273 0 3.13231 2.76867 1.19141 6.78263Z" fill="#D80027"/>
<path d="M14.7929 9.80566L15.7775 11.1625L17.372 10.6454L16.3859 12.0011L17.3704 13.3578L15.7764 12.8388L14.7903 14.1944L14.7913 12.5181L13.1973 11.9991L14.7919 11.4821L14.7929 9.80566Z" fill="#F0F0F0"/>
<path d="M12.1062 15.3914C10.2332 15.3914 8.71485 13.873 8.71485 12.0001C8.71485 10.1272 10.2332 8.6088 12.1062 8.6088C12.6901 8.6088 13.2396 8.75645 13.7194 9.01642C12.9667 8.28044 11.9376 7.82617 10.8018 7.82617C8.4966 7.82617 6.62793 9.69489 6.62793 12.0001C6.62793 14.3052 8.49665 16.174 10.8018 16.174C11.9376 16.174 12.9668 15.7197 13.7194 14.9837C13.2396 15.2438 12.6902 15.3914 12.1062 15.3914Z" fill="#F0F0F0"/>
</svg>
