<svg width="24" height="24" viewBox="0 0 24 24" fill="none" xmlns="http://www.w3.org/2000/svg">
<path d="M12 24C18.6274 24 24 18.6274 24 12C24 5.37258 18.6274 0 12 0C5.37258 0 0 5.37258 0 12C0 18.6274 5.37258 24 12 24Z" fill="#F0F0F0"/>
<path d="M0 12C0 5.37263 5.37262 0 12 0C18.6274 0 24 5.37263 24 12" fill="#D80027"/>
<path d="M7.30451 6.26052C7.30451 4.51218 8.53324 3.05165 10.1741 2.69329C9.92187 2.63826 9.66026 2.6084 9.39143 2.6084C7.37435 2.6084 5.73926 4.24349 5.73926 6.26057C5.73926 8.27765 7.37435 9.91274 9.39143 9.91274C9.66016 9.91274 9.92182 9.88288 10.1741 9.82781C8.53324 9.46945 7.30451 8.00891 7.30451 6.26052Z" fill="#F0F0F0"/>
<path d="M12.0005 2.86914L12.2595 3.66625H13.0977L12.4195 4.15895L12.6786 4.95606L12.0005 4.46345L11.3224 4.95606L11.5814 4.15895L10.9033 3.66625H11.7414L12.0005 2.86914Z" fill="#F0F0F0"/>
<path d="M9.96737 4.43457L10.2264 5.23173H11.0645L10.3864 5.72438L10.6455 6.52149L9.96737 6.02888L9.28918 6.52149L9.54826 5.72438L8.87012 5.23173H9.70829L9.96737 4.43457Z" fill="#F0F0F0"/>
<path d="M14.0337 4.43457L14.2928 5.23173H15.1309L14.4527 5.72438L14.7118 6.52149L14.0337 6.02888L13.3556 6.52149L13.6146 5.72438L12.9365 5.23173H13.7746L14.0337 4.43457Z" fill="#F0F0F0"/>
<path d="M13.2505 6.78223L13.5095 7.57938H14.3476L13.6695 8.07204L13.9286 8.86915L13.2505 8.37654L12.5724 8.86915L12.8314 8.07204L12.1533 7.57938H12.9914L13.2505 6.78223Z" fill="#F0F0F0"/>
<path d="M10.7495 6.78223L11.0085 7.57938H11.8468L11.1686 8.07204L11.4277 8.86915L10.7495 8.37654L10.0714 8.86915L10.3304 8.07204L9.65234 7.57938H10.4905L10.7495 6.78223Z" fill="#F0F0F0"/>
</svg>
