<svg width="24" height="24" viewBox="0 0 24 24" fill="none" xmlns="http://www.w3.org/2000/svg">
<path d="M24 11.9999C24 10.532 23.736 9.1259 23.2536 7.82596L12 7.3042L0.746391 7.82592C0.264 9.1259 0 10.532 0 11.9999C0 13.4677 0.264 14.8738 0.746391 16.1737L12 16.6955L23.2536 16.1738C23.736 14.8738 24 13.4677 24 11.9999Z" fill="#FFDA44"/>
<path d="M11.9997 23.9999C17.1593 23.9999 21.5578 20.7434 23.2533 16.1738H0.746094C2.44161 20.7434 6.84012 23.9999 11.9997 23.9999Z" fill="#6DA544"/>
<path d="M0.746094 7.82611H23.2534C21.5578 3.2565 17.1593 0 11.9997 0C6.84013 0 2.44161 3.2565 0.746094 7.82611Z" fill="#D80027"/>
</svg>
