<svg width="24" height="24" viewBox="0 0 24 24" fill="none" xmlns="http://www.w3.org/2000/svg">
<path d="M12 24C18.6274 24 24 18.6274 24 12C24 5.37258 18.6274 0 12 0C5.37258 0 0 5.37258 0 12C0 18.6274 5.37258 24 12 24Z" fill="#FFDA44"/>
<path d="M13.8249 23.862C15.7766 23.5643 17.5732 22.7957 19.0963 21.6768L12 12L13.8249 23.862Z" fill="#D80027"/>
<path d="M10.1747 0.138184C8.2231 0.435934 6.42657 1.2045 4.90332 2.32336L11.9997 12.0002L10.1747 0.138184Z" fill="#D80027"/>
<path d="M4.90332 21.6768C6.42648 22.7957 8.22301 23.5643 10.1746 23.8621L11.9997 12L4.90332 21.6768Z" fill="#D80027"/>
<path d="M2.32287 4.90381C1.20396 6.42706 0.435492 8.22354 0.137695 10.1752L11.9997 12.0002L2.32287 4.90381Z" fill="#D80027"/>
<path d="M0.137695 13.8249C0.435445 15.7766 1.20401 17.5732 2.32291 19.0963L11.9997 12L0.137695 13.8249Z" fill="#D80027"/>
<path d="M23.862 10.1752C23.5642 8.22354 22.7957 6.42701 21.6768 4.90381L12 12.0002L23.862 10.1752Z" fill="#D80027"/>
<path d="M19.0963 2.32331C17.5731 1.20445 15.7766 0.435934 13.8249 0.138184L12 12.0002L19.0963 2.32331Z" fill="#D80027"/>
<path d="M21.6769 19.0964C22.7958 17.5732 23.5643 15.7766 23.8621 13.825L12 12L21.6769 19.0964Z" fill="#D80027"/>
<path d="M12.0001 16.174C14.3052 16.174 16.174 14.3052 16.174 12.0001C16.174 9.69489 14.3052 7.82617 12.0001 7.82617C9.69489 7.82617 7.82617 9.69489 7.82617 12.0001C7.82617 14.3052 9.69489 16.174 12.0001 16.174Z" fill="#D80027"/>
<path d="M11.9996 15.1305C13.7285 15.1305 15.13 13.729 15.13 12.0001C15.13 10.2712 13.7285 8.86963 11.9996 8.86963C10.2707 8.86963 8.86914 10.2712 8.86914 12.0001C8.86914 13.729 10.2707 15.1305 11.9996 15.1305Z" fill="#FFDA44"/>
</svg>
