<svg width="24" height="24" viewBox="0 0 24 24" fill="none" xmlns="http://www.w3.org/2000/svg">
<path d="M12 24C18.6274 24 24 18.6274 24 12C24 5.37258 18.6274 0 12 0C5.37258 0 0 5.37258 0 12C0 18.6274 5.37258 24 12 24Z" fill="#6DA544"/>
<path d="M18.4209 17.2173L18.7502 17.9058L19.4938 17.734L19.1608 18.4208L19.7588 18.8949L19.0142 19.0628L19.0163 19.826L18.4209 19.3485L17.8255 19.826L17.8275 19.0628L17.083 18.8949L17.681 18.4208L17.348 17.734L18.0916 17.9058L18.4209 17.2173Z" fill="#FFDA44"/>
<path d="M15.3574 9.91284L15.6867 10.6014L16.4304 10.4295L16.0973 11.1163L16.6953 11.5905L15.9508 11.7583L15.9528 12.5215L15.3574 12.0441L14.762 12.5215L14.764 11.7583L14.0195 11.5905L14.6175 11.1163L14.2845 10.4295L15.0281 10.6014L15.3574 9.91284Z" fill="#FFDA44"/>
<path d="M18.4208 5.73901L18.7501 6.42756L19.4937 6.25562L19.1608 6.94244L19.7587 7.41667L19.0142 7.58444L19.0162 8.3477L18.4208 7.87019L17.8254 8.3477L17.8275 7.58444L17.083 7.41667L17.6809 6.94244L17.3479 6.25562L18.0915 6.42756L18.4208 5.73901Z" fill="#FFDA44"/>
<path d="M21.0966 8.86938L21.4259 9.55793L22.1696 9.38604L21.8366 10.0729L22.4346 10.547L21.69 10.7149L21.6921 11.4781L21.0966 11.0006L20.5012 11.4781L20.5033 10.7149L19.7588 10.547L20.3568 10.0729L20.0237 9.38604L20.7674 9.55793L21.0966 8.86938Z" fill="#FFDA44"/>
<path d="M19.1841 12.5217L19.4431 13.3189H20.2813L19.6032 13.8116L19.8623 14.6087L19.1841 14.1161L18.506 14.6087L18.765 13.8116L18.0869 13.3189H18.9251L19.1841 12.5217Z" fill="#FFDA44"/>
<path d="M13.3045 15.3912C11.4315 15.3912 9.91309 13.8728 9.91309 11.9999C9.91309 10.1269 11.4314 8.60855 13.3045 8.60855C13.8884 8.60855 14.4379 8.75626 14.9177 9.01618C14.1651 8.28015 13.1359 7.82593 12 7.82593C9.69489 7.82593 7.82617 9.69465 7.82617 11.9998C7.82617 14.305 9.69489 16.1737 12 16.1737C13.1359 16.1737 14.1651 15.7195 14.9176 14.9835C14.4379 15.2435 13.8884 15.3912 13.3045 15.3912Z" fill="#FFDA44"/>
<path d="M7.54677 4.69558C7.18584 4.07196 6.51201 3.6521 5.7397 3.6521C4.96738 3.6521 4.29355 4.07196 3.93262 4.69558H7.54677Z" fill="#FFDA44"/>
<path d="M7.55328 4.70752L5.73927 6.52154L3.92525 4.70752C3.75186 5.01179 3.65234 5.36368 3.65234 5.73896C3.65234 6.89157 4.5867 7.82593 5.73931 7.82593C6.89192 7.82593 7.82628 6.89161 7.82628 5.73896C7.82623 5.36368 7.72667 5.01179 7.55328 4.70752Z" fill="#FFDA44"/>
<path d="M5.21777 6V7.76034C5.38451 7.80323 5.55935 7.82606 5.73949 7.82606C5.91963 7.82606 6.09448 7.80319 6.26121 7.76034V6H5.21777Z" fill="#A2001D"/>
</svg>
