<svg width="24" height="24" viewBox="0 0 24 24" fill="none" xmlns="http://www.w3.org/2000/svg">
<path d="M12 24C18.6274 24 24 18.6274 24 12C24 5.37258 18.6274 0 12 0C5.37258 0 0 5.37258 0 12C0 18.6274 5.37258 24 12 24Z" fill="#F0F0F0"/>
<path d="M11.9999 0C8.07405 0 4.58866 1.88545 2.39941 4.8H21.6004C19.4112 1.88545 15.9258 0 11.9999 0Z" fill="#D80027"/>
<path d="M11.9999 24.0002C15.9258 24.0002 19.4112 22.1147 21.6004 19.2002H2.39941C4.58866 22.1147 8.07405 24.0002 11.9999 24.0002Z" fill="#D80027"/>
<path d="M0 11.9996C0 12.8216 0.082875 13.6242 0.240328 14.3996H23.7598C23.9172 13.6242 24 12.8216 24 11.9996C24 11.1777 23.9171 10.3751 23.7597 9.59961H0.240328C0.082875 10.3751 0 11.1777 0 11.9996H0Z" fill="#D80027"/>
<path d="M3.51471 3.51465C-1.17157 8.20093 -1.17157 15.7989 3.51471 20.4853C5.45126 18.5487 7.31374 16.6862 12 12L3.51471 3.51465Z" fill="#0052B4"/>
<path d="M4.85695 8.86914L5.6339 11.2605H8.14855L6.11427 12.7386L6.89118 15.13L4.85695 13.652L2.82262 15.13L3.59971 12.7386L1.56543 11.2605H4.0799L4.85695 8.86914Z" fill="#F0F0F0"/>
</svg>
