<svg width="24" height="24" viewBox="0 0 24 24" fill="none" xmlns="http://www.w3.org/2000/svg">
<path d="M10.9555 13.0445C10.9555 13.0445 3.52065 3.51405 3.51367 3.51578C5.6853 1.34415 8.6853 0.000976562 11.999 0.000976562C18.6265 0.000976562 23.999 5.37353 23.999 12.001L10.9555 13.0445Z" fill="#D80027"/>
<path d="M10.9555 12.001C10.9555 12.001 3.52065 20.4881 3.51367 20.4862C5.68522 22.6578 8.68522 24.001 11.9989 24.001C18.6264 24.001 23.9989 18.6284 23.9989 12.001H10.9555Z" fill="#0052B4"/>
<path d="M3.51467 3.51562C-1.17156 8.20185 -1.17156 15.8 3.51467 20.4862C5.45124 18.5497 7.31372 16.6873 11.9999 12.001L3.51467 3.51562Z" fill="#F0F0F0"/>
<path d="M1.31564 12.002C1.30911 12.0882 1.30469 12.175 1.30469 12.2628C1.30469 14.1358 2.82299 15.6542 4.69596 15.6542C6.56894 15.6542 8.08731 14.1359 8.08731 12.2628C8.08731 12.175 8.08281 12.0881 8.07629 12.002H1.31564Z" fill="#FFDA44"/>
<path d="M4.69552 10.436C5.27165 10.436 5.73869 9.96891 5.73869 9.39278C5.73869 8.81665 5.27165 8.34961 4.69552 8.34961C4.11939 8.34961 3.65234 8.81665 3.65234 9.39278C3.65234 9.96891 4.11939 10.436 4.69552 10.436Z" fill="#FFDA44"/>
<path d="M2.34766 9.13184V12.5231C2.34766 14.3203 4.69553 14.871 4.69553 14.871C4.69553 14.871 7.04341 14.3203 7.04341 12.5231V9.13184H2.34766Z" fill="#D80027"/>
<path d="M4.69607 13.7784C4.26055 13.6217 3.39062 13.2212 3.39062 12.5227V10.1748H5.99927V12.5227C5.99927 13.2233 5.12942 13.6229 4.69607 13.7784Z" fill="#338AF3"/>
<path d="M5.21651 11.479V10.9573L4.69466 10.6963L4.17296 10.9573V11.479L3.91211 11.7398V12.7834H5.47736V11.7398L5.21651 11.479Z" fill="#F3F3F3"/>
</svg>
