<svg width="24" height="24" viewBox="0 0 24 24" fill="none" xmlns="http://www.w3.org/2000/svg">
<path d="M6.49714 1.33203C5.42286 1.88652 4.41444 2.61331 3.51388 3.51388C2.61327 4.41448 1.88647 5.42291 1.33203 6.49719L9.04798 14.951L17.5018 22.667C18.5762 22.1125 19.5846 21.3857 20.4852 20.4852C21.3858 19.5846 22.1125 18.5762 22.667 17.5019L14.951 9.04799L6.49714 1.33203Z" fill="#F0F0F0"/>
<path d="M20.4858 20.4859C20.9892 19.9825 21.4382 19.4454 21.8334 18.882L5.11852 2.16699C4.55513 2.5622 4.01799 3.01116 3.5146 3.51455C3.01121 4.01795 2.56224 4.55509 2.16699 5.11852L18.8819 21.8334C19.4453 21.4382 19.9824 20.9893 20.4858 20.4859Z" fill="black"/>
<path d="M3.51431 20.4861C7.30026 24.272 12.9861 24.9988 17.5023 22.6679L1.33251 6.49805C-0.998347 11.0143 -0.271457 16.7001 3.51431 20.4861Z" fill="#D80027"/>
<path d="M20.486 3.51437C16.7001 -0.271537 11.0143 -0.998287 6.49805 1.33248L22.6678 17.5024C24.9987 12.9862 24.272 7.30027 20.486 3.51437Z" fill="#D80027"/>
</svg>
