<svg width="24" height="24" viewBox="0 0 24 24" fill="none" xmlns="http://www.w3.org/2000/svg">
<path d="M20.4853 20.4862C15.799 25.1725 8.20104 25.1725 3.51472 20.4862C-1.1716 15.7999 -1.17155 8.20194 3.51472 3.51562C3.88363 3.88448 13.1068 10.8941 13.1068 10.8941L20.4853 20.4862Z" fill="#0052B4"/>
<path d="M3.51465 3.51568C8.20092 -1.17059 15.7989 -1.17059 20.4852 3.51568C25.1716 8.20195 25.1715 15.8 20.4852 20.4863" fill="#6DA544"/>
<path d="M11.9996 15.131C13.7285 15.131 15.13 13.7295 15.13 12.0006C15.13 10.2717 13.7285 8.87012 11.9996 8.87012C10.2707 8.87012 8.86914 10.2717 8.86914 12.0006C8.86914 13.7295 10.2707 15.131 11.9996 15.131Z" fill="#FFDA44"/>
<path d="M4.46876 17.2178L4.79806 17.9063L5.54164 17.7344L5.20864 18.4212L5.80667 18.8954L5.06211 19.0632L5.06417 19.8265L4.46876 19.3489L3.87336 19.8265L3.87542 19.0632L3.13086 18.8954L3.72889 18.4212L3.39584 17.7344L4.13947 17.9063L4.46876 17.2178Z" fill="#F0F0F0"/>
<path d="M2.31442 11.4785L2.64372 12.1671L3.38729 11.9951L3.05434 12.6819L3.65228 13.1562L2.90776 13.3239L2.90982 14.0872L2.31442 13.6097L1.71906 14.0872L1.72108 13.3239L0.976562 13.1562L1.57455 12.6819L1.24155 11.9951L1.98512 12.1671L2.31442 11.4785Z" fill="#F0F0F0"/>
<path d="M4.46872 6.7832L4.79801 7.47175L5.54159 7.29981L5.20864 7.98662L5.80662 8.46086L5.06206 8.62862L5.06412 9.39189L4.46872 8.91442L3.87331 9.39189L3.87537 8.62862L3.13086 8.46086L3.7288 7.98662L3.3958 7.29981L4.13942 7.47175L4.46872 6.7832Z" fill="#F0F0F0"/>
<path d="M7.1445 10.4355L7.47379 11.1241L8.21742 10.9522L7.88437 11.639L8.48235 12.1132L7.73784 12.281L7.73986 13.0442L7.1445 12.5668L6.54909 13.0442L6.55115 12.281L5.80664 12.1132L6.40458 11.639L6.07162 10.9522L6.8152 11.1241L7.1445 10.4355Z" fill="#F0F0F0"/>
<path d="M5.23094 13.5654L5.48997 14.3626H6.3281L5.65 14.8552L5.90904 15.6523L5.23094 15.1597L4.55285 15.6523L4.81188 14.8552L4.13379 14.3626H4.97191L5.23094 13.5654Z" fill="#F0F0F0"/>
<path d="M12 14.0877H13.0434C13.0434 14.0877 13.4956 13.2878 13.0434 12.5225L14.0869 11.479L13.5652 10.4355H13.0435C13.0435 10.4355 12.7826 11.2182 11.7391 11.2182C10.6957 11.2182 10.4348 10.4355 10.4348 10.4355H9.91309L10.4348 11.479L9.91309 12.5225L10.4348 13.0442C10.4348 13.0442 10.9565 12.0007 12 12.5225C12 12.5225 12.4434 13.1747 12 14.0877Z" fill="#6DA544"/>
<path d="M19.7888 6.57368C19.8134 6.44547 19.8265 6.31324 19.8265 6.17786C19.8265 5.24974 19.2205 4.4636 18.3828 4.19238C18.6387 4.71269 18.783 5.29788 18.783 5.917C18.783 6.12579 18.7662 6.33063 18.7347 6.53055C18.6086 6.32744 18.4467 6.14186 18.2488 5.98441C17.5034 5.39135 16.4849 5.37565 15.7318 5.8751C16.3132 6.00204 16.8754 6.26008 17.3726 6.65566C17.7618 6.96541 18.0763 7.38438 18.3172 7.78881L15.1309 8.78655C18.2613 9.30826 20.87 7.22135 20.87 7.22135C20.5809 6.64328 20.132 6.54578 19.7888 6.57368Z" fill="#FFDA44"/>
</svg>
