<svg width="24" height="24" viewBox="0 0 24 24" fill="none" xmlns="http://www.w3.org/2000/svg">
<path d="M12.0002 23.9984C18.6266 23.9984 23.9984 18.6266 23.9984 12.0002C23.9984 5.37375 18.6266 0.00195312 12.0002 0.00195312C5.37375 0.00195312 0.00195312 5.37375 0.00195312 12.0002C0.00195312 18.6266 5.37375 23.9984 12.0002 23.9984Z" fill="#F0F0F0"/>
<path d="M1.6094 6.00098C1.06784 6.93887 0.668365 7.91942 0.402344 8.91821L20.468 20.5032C21.2 19.7734 21.8495 18.9371 22.3909 17.9992L1.6094 6.00098Z" fill="black"/>
<path d="M17.9992 1.6092C13.1984 -1.16253 7.27889 -0.238742 3.53223 3.4969L23.5979 15.0818C24.9598 9.9694 22.8 4.38098 17.9992 1.6092Z" fill="#FFDA44"/>
<path d="M6.00128 22.3906C10.802 25.1624 16.7217 24.2386 20.4682 20.503L0.40255 8.91797C-0.959245 14.0305 1.20043 19.6189 6.00128 22.3906Z" fill="#FFDA44"/>
<path d="M15.3903 10.6955C15.3903 12.5682 13.8722 14.0863 11.9995 14.0863C10.1268 14.0863 8.60867 12.5682 8.60867 10.6955C8.60867 10.1116 8.75629 9.5622 9.01626 9.08252C8.28045 9.83502 7.82617 10.864 7.82617 11.9997C7.82617 14.3045 9.6946 16.173 11.9995 16.173C14.3044 16.173 16.1728 14.3046 16.1728 11.9997C16.1728 10.864 15.7186 9.83502 14.9827 9.08252C15.2427 9.5623 15.3903 10.1116 15.3903 10.6955Z" fill="#D80027"/>
<path d="M11.2168 6.7832H12.7818V14.6082H11.2168V6.7832Z" fill="#D80027"/>
<path d="M14.6082 8.34814H9.3916C9.3916 8.70829 9.70534 9.00024 10.0654 9.00024H10.0437C10.0437 9.36038 10.3357 9.65233 10.6958 9.65233C10.6958 10.0125 10.9878 10.3044 11.3479 10.3044H12.652C13.0122 10.3044 13.3041 10.0125 13.3041 9.65233C13.6643 9.65233 13.9562 9.36038 13.9562 9.00024H13.9345C14.2945 9.00019 14.6082 8.70834 14.6082 8.34814Z" fill="#D80027"/>
<path d="M8.34766 15.1299H15.6509V16.6949H8.34766V15.1299Z" fill="#D80027"/>
<path d="M13.5645 15.6514H16.6944V17.2164H13.5645V15.6514Z" fill="#D80027"/>
<path d="M7.30469 15.6514H10.4346V17.2164H7.30469V15.6514Z" fill="#D80027"/>
</svg>
