<svg width="24" height="24" viewBox="0 0 24 24" fill="none" xmlns="http://www.w3.org/2000/svg">
<path d="M12 24C18.6274 24 24 18.6274 24 12C24 5.37258 18.6274 0 12 0C5.37258 0 0 5.37258 0 12C0 18.6274 5.37258 24 12 24Z" fill="#F0F0F0"/>
<path d="M12 8.86971H23.5866C23.2857 7.75343 22.8284 6.70151 22.2387 5.73926H12V8.86971Z" fill="#338AF3"/>
<path d="M4.53058 21.3912H19.4702C20.5654 20.5189 21.5046 19.4595 22.2391 18.2607H1.76172C2.4963 19.4594 3.43548 20.5189 4.53058 21.3912Z" fill="#338AF3"/>
<path d="M12 0V2.60869H19.4699C17.42 0.976125 14.8242 0 12 0Z" fill="#338AF3"/>
<path d="M12 8.86971H23.5866C23.2857 7.75343 22.8284 6.70151 22.2387 5.73926H12V8.86971Z" fill="#338AF3"/>
<path d="M0 12C0 13.0831 0.144375 14.1323 0.413391 15.1305H23.5867C23.8556 14.1323 24 13.0831 24 12H0Z" fill="#338AF3"/>
<path d="M10.435 7.02317L8.96941 7.71256L9.74983 9.13194L8.15842 8.82753L7.95677 10.4351L6.84836 9.25273L5.73986 10.4351L5.53825 8.82753L3.94684 9.13184L4.72722 7.71251L3.26172 7.02317L4.72727 6.33387L3.94684 4.9145L5.5382 5.21891L5.73991 3.61133L6.84836 4.7937L7.95681 3.61133L8.15842 5.21891L9.74988 4.9145L8.96945 6.33392L10.435 7.02317Z" fill="#FFDA44"/>
</svg>
