<svg width="24" height="24" viewBox="0 0 24 24" fill="none" xmlns="http://www.w3.org/2000/svg">
<path d="M12 24C18.6274 24 24 18.6274 24 12C24 5.37258 18.6274 0 12 0C5.37258 0 0 5.37258 0 12C0 18.6274 5.37258 24 12 24Z" fill="#F0F0F0"/>
<path d="M17.8217 1.50525C16.0974 0.54675 14.1127 0 12 0C5.37309 0 0.00084375 5.37178 0 11.9986L8.34783 7.82611L17.8217 1.50525Z" fill="#0052B4"/>
<path d="M0 12.0015C0.00084375 18.6283 5.37309 24.0001 12 24.0001C14.1127 24.0001 16.0974 23.4534 17.8217 22.4948L8.34783 16.1739L0 12.0015Z" fill="#0052B4"/>
<path d="M18.8217 2.12721C18.4994 1.90414 18.1654 1.69667 17.8213 1.50537L0 11.9985V11.9999C0 11.9999 0 12.0009 0 12.0013L17.8213 22.4944C18.1655 22.3031 18.4994 22.0957 18.8218 21.8726L2.05416 11.9999L18.8217 2.12721Z" fill="#D80027"/>
<path d="M20.8692 11.5526H19.4398C19.8115 11.1063 19.7885 10.4424 19.3698 10.0238C19.8133 9.58029 19.8133 8.86118 19.3698 8.4176L19.3431 8.44441C19.7866 8.00093 19.8133 7.25501 19.3698 6.81152L12.9453 13.236C13.3888 13.6796 14.0953 13.6743 14.5388 13.2308L14.6625 13.1178L17.7388 12.8381V14.1612H18.7823V12.7432L20.3475 12.601L20.8692 11.5526Z" fill="#A2001D"/>
<path d="M13.0439 14.6089L12 14.0872L13.0439 13.5654H19.8264V14.6089H13.0439Z" fill="#FFDA44"/>
</svg>
