<svg width="24" height="24" viewBox="0 0 24 24" fill="none" xmlns="http://www.w3.org/2000/svg">
<path d="M12 24C18.6274 24 24 18.6274 24 12C24 5.37258 18.6274 0 12 0C5.37258 0 0 5.37258 0 12C0 18.6274 5.37258 24 12 24Z" fill="#F0F0F0"/>
<path d="M16.174 12.0001C16.174 13.0435 14.3052 15.6522 12.0001 15.6522C9.69489 15.6522 7.82617 13.0435 7.82617 12.0001C7.82617 9.69484 9.69489 7.82617 12.0001 7.82617C14.3052 7.82617 16.174 9.69484 16.174 12.0001Z" fill="#D80027"/>
<path d="M16.174 12C16.174 14.3052 14.3052 16.1739 12.0001 16.1739C9.69489 16.1739 7.82617 14.3052 7.82617 12" fill="#0052B4"/>
<path d="M16.4238 15.6895L17.5304 14.5829L18.2682 15.3206L17.1616 16.4272L16.4238 15.6895Z" fill="black"/>
<path d="M14.5791 17.5342L15.6857 16.4276L16.4234 17.1653L15.3168 18.2719L14.5791 17.5342Z" fill="black"/>
<path d="M18.6367 17.9023L19.7433 16.7957L20.4811 17.5335L19.3745 18.6401L18.6367 17.9023Z" fill="black"/>
<path d="M16.792 19.7471L17.8986 18.6405L18.6363 19.3782L17.5297 20.4848L16.792 19.7471Z" fill="black"/>
<path d="M17.5303 16.7959L18.6369 15.6893L19.3746 16.427L18.268 17.5336L17.5303 16.7959Z" fill="black"/>
<path d="M15.6865 18.6406L16.7931 17.534L17.5309 18.2718L16.4243 19.3784L15.6865 18.6406Z" fill="black"/>
<path d="M18.6416 8.3125L15.6907 5.36156L16.4284 4.62382L19.3793 7.57476L18.6416 8.3125Z" fill="black"/>
<path d="M15.6904 7.5752L14.5838 6.4686L15.3215 5.73089L16.4281 6.83748L15.6904 7.5752Z" fill="black"/>
<path d="M17.5352 9.41992L16.4286 8.31332L17.1663 7.57561L18.2729 8.68221L17.5352 9.41992Z" fill="black"/>
<path d="M17.9033 5.36133L16.7967 4.25473L17.5345 3.51699L18.6411 4.62358L17.9033 5.36133Z" fill="black"/>
<path d="M19.749 7.20703L18.6424 6.10043L19.3802 5.36269L20.4868 6.46929L19.749 7.20703Z" fill="black"/>
<path d="M4.25391 16.7939L7.20485 19.7449L6.4671 20.4826L3.51616 17.5317L4.25391 16.7939Z" fill="black"/>
<path d="M7.20508 17.5312L8.31168 18.6378L7.57397 19.3756L6.46737 18.269L7.20508 17.5312Z" fill="black"/>
<path d="M5.36035 15.6875L6.46695 16.7941L5.72921 17.5318L4.62261 16.4252L5.36035 15.6875Z" fill="black"/>
<path d="M6.4668 14.5801L9.41774 17.531L8.67999 18.2688L5.72905 15.3178L6.4668 14.5801Z" fill="black"/>
<path d="M7.20508 4.25293L4.25414 7.20387L3.51639 6.46613L6.46733 3.51519L7.20508 4.25293Z" fill="black"/>
<path d="M8.31152 5.35938L5.36058 8.31032L4.62284 7.57257L7.57378 4.62163L8.31152 5.35938Z" fill="black"/>
<path d="M9.41895 6.4668L6.468 9.41774L5.73029 8.68003L8.68123 5.72909L9.41895 6.4668Z" fill="black"/>
</svg>
