<svg width="24" height="24" viewBox="0 0 24 24" fill="none" xmlns="http://www.w3.org/2000/svg">
<path d="M12 24C18.6274 24 24 18.6274 24 12C24 5.37258 18.6274 0 12 0C5.37258 0 0 5.37258 0 12C0 18.6274 5.37258 24 12 24Z" fill="#F0F0F0"/>
<path d="M11.9997 23.9999C16.7572 23.9999 20.868 21.2312 22.809 17.2173H1.19043C3.13143 21.2312 7.24218 23.9999 11.9997 23.9999Z" fill="#338AF3"/>
<path d="M11.9997 0C7.24218 0 3.13143 2.76867 1.19043 6.78263H22.8089C20.868 2.76867 16.7572 0 11.9997 0Z" fill="#338AF3"/>
<path d="M7.38504 7.82617L7.77354 9.02191H9.03077L8.01368 9.76084L8.40223 10.9566L7.38504 10.2176L6.36785 10.9566L6.7564 9.76084L5.73926 9.02191H6.99649L7.38504 7.82617Z" fill="#338AF3"/>
<path d="M7.38504 13.0435L7.77354 14.2392H9.03077L8.01368 14.9782L8.40223 16.1739L7.38504 15.4349L6.36785 16.1739L6.7564 14.9782L5.73926 14.2392H6.99649L7.38504 13.0435Z" fill="#338AF3"/>
<path d="M16.6145 7.82617L17.0031 9.02191H18.2603L17.2432 9.76084L17.6317 10.9566L16.6145 10.2176L15.5973 10.9566L15.9859 9.76084L14.9688 9.02191H16.226L16.6145 7.82617Z" fill="#338AF3"/>
<path d="M16.6145 13.0435L17.0031 14.2392H18.2603L17.2432 14.9782L17.6317 16.1739L16.6145 15.4349L15.5973 16.1739L15.9859 14.9782L14.9688 14.2392H16.226L16.6145 13.0435Z" fill="#338AF3"/>
<path d="M11.9993 10.4348L12.3878 11.6306H13.6451L12.6279 12.3695L13.0165 13.5652L11.9993 12.8262L10.9821 13.5652L11.3707 12.3695L10.3535 11.6306H11.6107L11.9993 10.4348Z" fill="#338AF3"/>
</svg>
