<svg width="24" height="24" viewBox="0 0 24 24" fill="none" xmlns="http://www.w3.org/2000/svg">
<path d="M12 24C18.6274 24 24 18.6274 24 12C24 5.37258 18.6274 0 12 0C5.37258 0 0 5.37258 0 12C0 18.6274 5.37258 24 12 24Z" fill="#D80027"/>
<path d="M13.2387 9.07837C12.966 10.2127 12.4815 9.99637 12.2437 10.9856C10.8429 10.6488 9.98021 9.24023 10.317 7.83937C10.6537 6.43861 12.0624 5.57592 13.4632 5.91271C12.9876 7.89117 13.4827 8.06386 13.2387 9.07837Z" fill="#F0F0F0"/>
<path d="M9.60395 9.91871C10.5985 10.5286 10.243 10.9226 11.1103 11.4545C10.3571 12.6827 8.75092 13.0678 7.5227 12.3146C6.29453 11.5615 5.90936 9.95522 6.66255 8.72705C8.3972 9.79074 8.71431 9.37322 9.60395 9.91871Z" fill="#F0F0F0"/>
<path d="M9.28044 13.6358C10.1678 12.8784 10.4326 13.3382 11.2065 12.6777C12.1419 13.7735 12.0117 15.4202 10.916 16.3555C9.82016 17.2909 8.17353 17.1607 7.23828 16.065C8.78581 14.7439 8.4867 14.3132 9.28044 13.6358Z" fill="#F0F0F0"/>
<path d="M12.7145 15.0924C12.2683 14.0144 12.7875 13.9046 12.3984 12.9646C13.7296 12.4136 15.2555 13.0462 15.8065 14.3774C16.3574 15.7086 15.7248 17.2344 14.3936 17.7854C13.6156 15.9053 13.1136 16.0566 12.7145 15.0924Z" fill="#F0F0F0"/>
<path d="M15.1618 12.2758C13.9987 12.367 14.0545 11.8392 13.0403 11.9188C12.9277 10.4826 14.0009 9.22678 15.4372 9.11405C16.8734 9.00159 18.1292 10.0747 18.2418 11.511C16.2132 11.67 16.202 12.1943 15.1618 12.2758Z" fill="#F0F0F0"/>
</svg>
