<svg width="24" height="24" viewBox="0 0 24 24" fill="none" xmlns="http://www.w3.org/2000/svg">
<path d="M12 24C18.6274 24 24 18.6274 24 12C24 5.37258 18.6274 0 12 0C5.37258 0 0 5.37258 0 12C0 18.6274 5.37258 24 12 24Z" fill="#F0F0F0"/>
<path d="M11.9999 24.0001C15.637 24.0001 18.8959 22.3818 21.0965 19.8262H2.90332C5.10396 22.3818 8.36285 24.0001 11.9999 24.0001Z" fill="#0052B4"/>
<path d="M24 12C24 5.37262 18.6274 0 12 0C5.37262 0 0 5.37262 0 12C0 13.0831 0.144375 14.1323 0.413391 15.1305H23.5867C23.8556 14.1323 24 13.0831 24 12Z" fill="#0052B4"/>
<path d="M0.954102 16.6958C1.18543 17.2394 1.45585 17.7621 1.76162 18.261H22.2391C22.5447 17.7621 22.8151 17.2393 23.0466 16.6958H0.954102Z" fill="#D80027"/>
<path d="M8.57773 12.7827L8.77198 13.3806H9.40062L8.89207 13.7501L9.08632 14.3479L8.57773 13.9784L8.06913 14.3479L8.26343 13.7501L7.75488 13.3806H8.38352L8.57773 12.7827Z" fill="#FFDA44"/>
<path d="M8.57773 20.6089L8.77198 21.2068H9.40062L8.89207 21.5762L9.08632 22.1741L8.57773 21.8046L8.06913 22.1741L8.26343 21.5762L7.75488 21.2068H8.38352L8.57773 20.6089Z" fill="#FFDA44"/>
<path d="M4.93515 17.9619L5.1294 18.5597H5.75804L5.24949 18.9292L5.44374 19.5271L4.93515 19.1576L4.42655 19.5271L4.6209 18.9292L4.1123 18.5597H4.7409L4.93515 17.9619Z" fill="#FFDA44"/>
<path d="M6.3268 13.5654L6.52105 14.1633H7.14964L6.64114 14.5328L6.83539 15.1307L6.3268 14.7612L5.8182 15.1307L6.01255 14.5328L5.50391 14.1633H6.13255L6.3268 13.5654Z" fill="#FFDA44"/>
<path d="M4.1123 16.0271L4.7408 16.0272L4.9351 15.4292L5.1294 16.0271L5.75804 16.0271L5.24945 16.3966L5.44374 16.9945L4.9351 16.625L4.42655 16.9944L4.6208 16.3966L4.1123 16.0271Z" fill="#FFDA44"/>
<path d="M5.8183 21.277L6.01255 20.6793L5.50391 20.3098H6.13255L6.32684 19.7119L6.52114 20.3098H7.14973L6.64114 20.6792L6.83539 21.2772L6.3268 20.9076L5.8183 21.277Z" fill="#FFDA44"/>
<path d="M12.2193 17.9619L12.0251 18.5597H11.3965L11.905 18.9292L11.7107 19.5271L12.2193 19.1576L12.7279 19.5271L12.5336 18.9292L13.0422 18.5597H12.4136L12.2193 17.9619Z" fill="#FFDA44"/>
<path d="M10.8277 13.5654L10.6335 14.1633H10.0049L10.5134 14.5328L10.3191 15.1307L10.8277 14.7612L11.3363 15.1307L11.142 14.5328L11.6506 14.1633H11.022L10.8277 13.5654Z" fill="#FFDA44"/>
<path d="M13.0422 16.0271L12.4137 16.0272L12.2194 15.4292L12.0251 16.0271L11.3965 16.0271L11.905 16.3966L11.7107 16.9945L12.2194 16.625L12.7279 16.9944L12.5337 16.3966L13.0422 16.0271Z" fill="#FFDA44"/>
<path d="M11.3363 21.277L11.1421 20.6793L11.6507 20.3098H11.0221L10.8278 19.7119L10.6335 20.3098H10.0049L10.5135 20.6792L10.3192 21.2772L10.8278 20.9076L11.3363 21.277Z" fill="#FFDA44"/>
</svg>
