<svg width="24" height="24" viewBox="0 0 24 24" fill="none" xmlns="http://www.w3.org/2000/svg">
<path d="M12 24C18.6274 24 24 18.6274 24 12C24 5.37258 18.6274 0 12 0C5.37258 0 0 5.37258 0 12C0 18.6274 5.37258 24 12 24Z" fill="#0052B4"/>
<path d="M5.27098 7.30444L5.53002 8.10169H6.36814L5.69009 8.5943L5.94908 9.39141L5.27098 8.8988L4.59284 9.39141L4.85192 8.5943L4.17383 8.10169H5.01191L5.27098 7.30444Z" fill="#F0F0F0"/>
<path d="M7.87934 6.52197L8.13837 7.31918H8.97649L8.29845 7.81178L8.55743 8.60889L7.87934 8.11628L7.20124 8.60889L7.46027 7.81178L6.78223 7.31918H7.62035L7.87934 6.52197Z" fill="#F0F0F0"/>
<path d="M10.4887 5.73926L10.7477 6.53646H11.5859L10.9078 7.02912L11.1668 7.82623L10.4887 7.33357L9.81062 7.82623L10.0696 7.02912L9.3916 6.53646H10.2297L10.4887 5.73926Z" fill="#F0F0F0"/>
<path d="M18.729 7.30444L18.47 8.10169H17.6318L18.3099 8.5943L18.0509 9.39141L18.729 8.8988L19.4071 9.39141L19.1481 8.5943L19.8261 8.10169H18.988L18.729 7.30444Z" fill="#F0F0F0"/>
<path d="M16.1206 6.52197L15.8616 7.31918H15.0234L15.7015 7.81178L15.4425 8.60889L16.1206 8.11628L16.7987 8.60889L16.5397 7.81178L17.2177 7.31918H16.3796L16.1206 6.52197Z" fill="#F0F0F0"/>
<path d="M13.5112 5.73926L13.2522 6.53646H12.4141L13.0921 7.02912L12.8331 7.82623L13.5112 7.33357L14.1893 7.82623L13.9303 7.02912L14.6083 6.53646H13.7702L13.5112 5.73926Z" fill="#F0F0F0"/>
<path d="M14.0868 12.5218L11.9998 9.91309L10.9563 10.4348V11.4783L9.39114 12.5218H8.34766V13.8699C9.87709 14.4892 10.9563 15.9877 10.9563 17.7392H11.9998V16.6957L13.0433 15.6522L14.0868 16.6957L15.1303 15.6522V14.6087L16.1738 13.0435L14.0868 12.5218Z" fill="#FFDA44"/>
</svg>
