<svg width="24" height="24" viewBox="0 0 24 24" fill="none" xmlns="http://www.w3.org/2000/svg">
<path d="M12 24C18.6274 24 24 18.6274 24 12C24 5.37258 18.6274 0 12 0C5.37258 0 0 5.37258 0 12C0 18.6274 5.37258 24 12 24Z" fill="#F0F0F0"/>
<path d="M23.0634 7.3478C21.2461 3.03103 16.9771 0 11.9995 0C8.68576 0 5.68609 1.34339 3.51465 3.51511L6.5198 7.3478H23.0634Z" fill="black"/>
<path d="M6.55388 16.6084L3.51465 20.4845C5.68609 22.6563 8.68576 23.9996 11.9995 23.9996C16.9939 23.9996 21.2751 20.9484 23.0819 16.6084H6.55388Z" fill="#496E2D"/>
<path d="M2.6084 8.82617V15.1305H23.5864C23.8555 14.1325 23.9997 13.0832 23.9997 12.0001C23.9997 10.9012 23.8517 9.83717 23.575 8.82617H2.6084Z" fill="#A2001D"/>
<path d="M3.51471 3.51465C-1.17157 8.20093 -1.17157 15.7989 3.51471 20.4853C5.45126 18.5487 7.31374 16.6862 12 12L3.51471 3.51465Z" fill="#0052B4"/>
<path d="M3.90889 9.0166L5.3735 11.0604L7.77013 10.2989L6.27898 12.3236L7.74359 14.3675L5.35728 13.575L3.86609 15.5996L3.8825 13.0851L1.49609 12.2925L3.89253 11.531L3.90889 9.0166Z" fill="#FFDA44"/>
</svg>
