<svg width="24" height="24" viewBox="0 0 24 24" fill="none" xmlns="http://www.w3.org/2000/svg">
<path d="M12 24C18.6274 24 24 18.6274 24 12C24 5.37258 18.6274 0 12 0C5.37258 0 0 5.37258 0 12C0 18.6274 5.37258 24 12 24Z" fill="#F0F0F0"/>
<path d="M0 11.9999C0 16.5484 2.53078 20.5056 6.26086 22.5408V1.45898C2.53078 3.4942 0 7.45139 0 11.9999Z" fill="#D80027"/>
<path d="M0 12.0002C0 17.5445 3.76036 22.2098 8.86955 23.5868V0.413574C3.76036 1.79057 0 6.45585 0 12.0002Z" fill="#0052B4"/>
<path d="M4.30469 4.17383V6.13034C4.30469 7.10286 5.09303 7.8912 6.06555 7.8912C7.03806 7.8912 7.82641 7.10286 7.82641 6.13034V4.17383H4.30469Z" fill="#D80027"/>
<path d="M6.06503 6.84769C5.66945 6.84769 5.34766 6.52589 5.34766 6.13032V5.21729H6.78245V6.13032C6.78245 6.52589 6.46061 6.84769 6.06503 6.84769Z" fill="#F0F0F0"/>
<path d="M13.0442 12.5215H9.91371C9.91371 11.9452 9.44651 11.478 8.87023 11.478C8.29395 11.478 7.82674 11.9452 7.82674 12.5215H4.69629C4.69629 13.0978 5.19827 13.565 5.77451 13.565H5.73977C5.73977 14.1413 6.20688 14.6085 6.78326 14.6085C6.78326 15.1848 7.25037 15.652 7.82674 15.652H9.91371C10.49 15.652 10.9572 15.1848 10.9572 14.6085C11.5335 14.6085 12.0007 14.1413 12.0007 13.565H11.9659C12.5422 13.565 13.0442 13.0978 13.0442 12.5215Z" fill="#FFDA44"/>
<path d="M13.473 10.8518L13.1991 11.2904L13.5314 11.6864L13.0296 11.5615L12.7557 11.9999L12.7195 11.4841L12.2178 11.359L12.6974 11.1653L12.6613 10.6494L12.9936 11.0456L13.473 10.8518Z" fill="#FFDA44"/>
<path d="M11.8742 9.51074L11.7668 10.0166L12.2146 10.2751L11.7003 10.3294L11.5928 10.8351L11.3824 10.3626L10.8682 10.4166L11.2525 10.0706L11.0422 9.5983L11.49 9.85682L11.8742 9.51074Z" fill="#FFDA44"/>
<path d="M9.91315 8.79688L9.9851 9.30898L10.4943 9.39875L10.0296 9.62544L10.1015 10.1375L9.74238 9.76555L9.27757 9.99223L9.52034 9.53562L9.16113 9.16372L9.67043 9.25344L9.91315 8.79688Z" fill="#FFDA44"/>
<path d="M7.82627 8.79688L8.06909 9.25344L8.57829 9.16367L8.21909 9.53572L8.46185 9.99228L7.99713 9.76555L7.63788 10.1375L7.70988 9.62544L7.24512 9.3988L7.75432 9.30898L7.82627 8.79688Z" fill="#FFDA44"/>
<path d="M5.86566 9.51074L6.24994 9.85682L6.69769 9.5983L6.4875 10.0708L6.87164 10.4167L6.35747 10.3626L6.14705 10.8351L6.0397 10.3293L5.52539 10.2753L5.97314 10.0166L5.86566 9.51074Z" fill="#FFDA44"/>
<path d="M4.26725 10.8518L4.74683 11.0456L5.07903 10.6494L5.04313 11.1654L5.52252 11.3591L5.02072 11.4841L4.98453 11.9999L4.71073 11.5615L4.20898 11.6865L4.54138 11.2904L4.26725 10.8518Z" fill="#FFDA44"/>
</svg>
