<svg width="24" height="24" viewBox="0 0 24 24" fill="none" xmlns="http://www.w3.org/2000/svg">
<path d="M12 24C18.6274 24 24 18.6274 24 12C24 5.37258 18.6274 0 12 0C5.37258 0 0 5.37258 0 12C0 18.6274 5.37258 24 12 24Z" fill="#D80027"/>
<path d="M19.0915 9.84762H13.6739L11.9998 4.69531L10.3257 9.84762H4.9082L9.29106 13.0319L7.61692 18.1844L11.9998 15L16.3827 18.1844L14.7086 13.032L19.0915 9.84762ZM10.5177 12.6334L11.0838 10.8911H12.9158L13.4819 12.6334V12.6334L11.9998 13.7102L10.5178 12.6334L10.5177 12.6334ZM12.5768 9.84762H11.4229L11.9998 8.072L12.5768 9.84762ZM14.3695 11.9885L14.0129 10.8911H15.8799L14.3695 11.9885ZM9.98669 10.8911L9.63011 11.9885L8.11966 10.8911H9.98669ZM9.60175 15.4525L10.1787 13.6769L11.1122 14.3551L9.60175 15.4525ZM12.8875 14.3552L13.821 13.677L14.3979 15.4526L12.8875 14.3552Z" fill="#FFDA44"/>
</svg>
