<svg width="24" height="24" viewBox="0 0 24 24" fill="none" xmlns="http://www.w3.org/2000/svg">
<path d="M22.809 6.78263C20.868 2.76867 16.7572 0 11.9997 0C7.24218 0 3.13143 2.76867 1.19043 6.78263L11.9997 7.82611L22.809 6.78263Z" fill="#D80027"/>
<path d="M1.19043 17.2173C3.13143 21.2313 7.24218 23.9999 11.9997 23.9999C16.7572 23.9999 20.868 21.2313 22.809 17.2173L11.9997 16.1738L1.19043 17.2173Z" fill="#D80027"/>
<path d="M22.8093 6.78271H1.19072C0.427875 8.36029 0 10.1302 0 12.0001C0 13.87 0.427875 15.6399 1.19072 17.2175H22.8092C23.5722 15.6399 24 13.87 24 12.0001C24 10.1302 23.5722 8.36029 22.8093 6.78271Z" fill="#0052B4"/>
<path d="M12.0001 16.174C14.3052 16.174 16.174 14.3052 16.174 12.0001C16.174 9.69489 14.3052 7.82617 12.0001 7.82617C9.69489 7.82617 7.82617 9.69489 7.82617 12.0001C7.82617 14.3052 9.69489 16.174 12.0001 16.174Z" fill="#F0F0F0"/>
</svg>
