<svg width="24" height="24" viewBox="0 0 24 24" fill="none" xmlns="http://www.w3.org/2000/svg">
<path d="M17.2175 1.19072C15.6399 0.427875 13.87 0 12.0001 0C10.1302 0 8.36037 0.427875 6.78274 1.19072L5.73926 12L6.78274 22.8093C8.36037 23.5721 10.1302 24 12.0001 24C13.87 24 15.6399 23.5721 17.2175 22.8093L18.261 12L17.2175 1.19072Z" fill="#F0F0F0"/>
<path d="M6.78263 1.19141C2.76867 3.13231 0 7.24273 0 12.0003C0 16.7578 2.76867 20.8682 6.78263 22.8091V1.19141Z" fill="#6DA544"/>
<path d="M17.2178 1.19141V22.8091C21.2317 20.8682 24.0004 16.7577 24.0004 12.0003C24.0004 7.24278 21.2317 3.13231 17.2178 1.19141Z" fill="#6DA544"/>
<path d="M15.13 15.6523L11.9996 5.73926L8.86914 15.6523H11.217V18.261H12.7822V15.6523H15.13Z" fill="#6DA544"/>
</svg>
