<svg width="24" height="24" viewBox="0 0 24 24" fill="none" xmlns="http://www.w3.org/2000/svg">
<path d="M1.19072 6.78274C0.427875 8.36037 0 10.1302 0 12.0001C0 13.87 0.427875 15.6399 1.19072 17.2175L12 18.261L22.8093 17.2175C23.5721 15.6399 24 13.87 24 12.0001C24 10.1302 23.5721 8.36037 22.8093 6.78274L12 5.73926L1.19072 6.78274Z" fill="#F0F0F0"/>
<path d="M1.19141 17.2178C3.13231 21.2317 7.24273 24.0004 12.0003 24.0004C16.7578 24.0004 20.8682 21.2317 22.8091 17.2178H1.19141Z" fill="black"/>
<path d="M1.19141 6.78263H22.8091C20.8682 2.76867 16.7578 0 12.0003 0C7.24273 0 3.13231 2.76867 1.19141 6.78263Z" fill="#D80027"/>
<path d="M3.51471 3.51465C-1.17157 8.20093 -1.17157 15.7989 3.51471 20.4853C5.45126 18.5487 7.31374 16.6862 12 12L3.51471 3.51465Z" fill="#496E2D"/>
</svg>
