<svg width="24" height="24" viewBox="0 0 24 24" fill="none" xmlns="http://www.w3.org/2000/svg">
<path d="M0 12C0 5.37262 5.37262 0 12 0C18.6274 0 24 5.37262 24 12C23.4783 12 12 13.5652 12 13.5652L0 12Z" fill="#F0F0F0"/>
<path d="M24 12C24 18.6274 18.6274 24 12 24C5.37262 24 0 18.6274 0 12" fill="#D80027"/>
<path d="M8.34754 17.739C11.5172 17.739 14.0867 15.1695 14.0867 11.9999C14.0867 8.83024 11.5172 6.26074 8.34754 6.26074C5.1779 6.26074 2.6084 8.83024 2.6084 11.9999C2.6084 15.1695 5.1779 17.739 8.34754 17.739Z" fill="#F0F0F0"/>
<path d="M2.6084 11.9999C2.6084 8.83034 5.1779 6.26074 8.34754 6.26074C11.5172 6.26074 14.0867 8.83029 14.0867 11.9999" fill="#D80027"/>
</svg>
