<svg width="24" height="24" viewBox="0 0 24 24" fill="none" xmlns="http://www.w3.org/2000/svg">
<path d="M12 24C18.6274 24 24 18.6274 24 12C24 5.37258 18.6274 0 12 0C5.37258 0 0 5.37258 0 12C0 18.6274 5.37258 24 12 24Z" fill="#F0F0F0"/>
<path d="M0.413086 15.1304C1.52112 19.2414 4.75816 22.4785 8.86929 23.5866V15.1304H0.413086Z" fill="#D80027"/>
<path d="M8.86924 0.413574C4.75816 1.52156 1.52107 4.75865 0.413086 8.86973H8.86929V0.413574H8.86924Z" fill="#0052B4"/>
<path d="M23.587 8.86973C22.479 4.75865 19.2419 1.52156 15.1309 0.413574V8.86978H23.587V8.86973Z" fill="#D80027"/>
<path d="M15.1309 23.5866C19.2419 22.4785 22.479 19.2415 23.5871 15.1304H15.1309V23.5866Z" fill="#0052B4"/>
<path d="M15.13 12.0001C15.13 13.729 13.7285 15.1305 11.9996 15.1305C10.2707 15.1305 8.86914 13.729 8.86914 12.0001C8.86914 10.2711 11.9996 8.86963 11.9996 8.86963C11.9996 8.86963 15.13 10.2711 15.13 12.0001Z" fill="#496E2D"/>
<path d="M8.86914 12.0001C8.86914 10.2711 10.2707 8.86963 11.9996 8.86963C13.7285 8.86963 15.13 10.2711 15.13 12.0001" fill="#0052B4"/>
<path d="M10.2393 10.4346V12.3911C10.2393 13.3636 11.0276 14.1519 12.0001 14.1519C12.9726 14.1519 13.761 13.3636 13.761 12.3911V10.4346H10.2393Z" fill="#D80027"/>
</svg>
