<svg width="24" height="24" viewBox="0 0 24 24" fill="none" xmlns="http://www.w3.org/2000/svg">
<path d="M12.0003 0C10.5325 0 9.12639 0.264047 7.82645 0.746391L7.30469 12L7.82641 23.2536C9.12639 23.736 10.5325 24 12.0003 24C13.4682 24 14.8743 23.736 16.1742 23.2536L16.696 12L16.1743 0.746391C14.8743 0.264047 13.4682 0 12.0003 0V0Z" fill="#FFDA44"/>
<path d="M23.9999 12.0002C23.9999 6.84061 20.7434 2.4421 16.1738 0.746582V23.2538C20.7434 21.5583 23.9999 17.1598 23.9999 12.0002Z" fill="#D80027"/>
<path d="M7.82611 23.2538V0.746582C3.2565 2.4421 0 6.84061 0 12.0002C0 17.1598 3.2565 21.5583 7.82611 23.2538Z" fill="#0052B4"/>
</svg>
