<svg width="24" height="24" viewBox="0 0 24 24" fill="none" xmlns="http://www.w3.org/2000/svg">
<path d="M12 24C18.6274 24 24 18.6274 24 12C24 5.37258 18.6274 0 12 0C5.37258 0 0 5.37258 0 12C0 18.6274 5.37258 24 12 24Z" fill="#496E2D"/>
<path d="M12.0001 13.8635C10.002 13.8635 8.33275 12.4593 7.9232 10.584C7.8603 10.8723 7.82617 11.1712 7.82617 11.4785C7.82617 13.7837 9.69484 15.6523 12.0001 15.6523C14.3053 15.6523 16.174 13.7837 16.174 11.4785C16.174 11.1712 16.1398 10.8723 16.0769 10.584C15.6674 12.4593 13.9982 13.8635 12.0001 13.8635Z" fill="#FFDA44"/>
<path d="M12.0002 8.34766L12.3887 9.54339H13.6461L12.6289 10.2824L13.0174 11.4781L12.0002 10.7391L10.9831 11.4781L11.3716 10.2824L10.3545 9.54339H11.6117L12.0002 8.34766Z" fill="#FFDA44"/>
</svg>
