<svg width="24" height="24" viewBox="0 0 24 24" fill="none" xmlns="http://www.w3.org/2000/svg">
<path d="M12 24C18.6274 24 24 18.6274 24 12C24 5.37258 18.6274 0 12 0C5.37258 0 0 5.37258 0 12C0 18.6274 5.37258 24 12 24Z" fill="#F0F0F0"/>
<path d="M21.4265 9.65199H17.4787C17.4787 8.93164 16.8947 8.34766 16.1744 8.34766L15.1309 10.4346C15.1309 10.4346 16.2439 13.565 16.2091 13.565H17.5135C18.2339 13.565 18.8178 12.9811 18.8178 12.2607C19.5382 12.2607 20.1221 11.6768 20.1221 10.9564H20.0787C20.799 10.9563 21.4265 10.3724 21.4265 9.65199Z" fill="#ACABB1"/>
<path d="M2.57422 9.65199H6.52204C6.52204 8.93164 7.10601 8.34766 7.82637 8.34766L8.86987 10.4346C8.86987 10.4346 7.7568 13.565 7.79161 13.565H6.48727C5.76687 13.565 5.18294 12.9811 5.18294 12.2607C4.46253 12.2607 3.8786 11.6768 3.8786 10.9564H3.92204C3.20164 10.9563 2.57422 10.3724 2.57422 9.65199Z" fill="#ACABB1"/>
<path d="M16.174 16.6953V17.217H7.8262V16.6953H5.73926V18.7823H7.8262V19.304H16.174V18.7823H18.261V16.6953H16.174Z" fill="#FFDA44"/>
<path d="M7.82617 8.3479V13.5652C7.82617 16.7602 12.0001 17.7392 12.0001 17.7392C12.0001 17.7392 16.174 16.7602 16.174 13.5652V8.3479L12.0001 7.82617L7.82617 8.3479Z" fill="#0052B4"/>
<path d="M7.82617 10.4346H16.174V13.565H7.82617V10.4346Z" fill="#D80027"/>
<path d="M14.087 5.73881V6.52142L13.5653 6.78231L13.0436 6.26053V4.69531H10.9566V6.26053L10.4349 6.78231L9.91312 6.52142V5.73881H7.82617V8.34748H16.174V5.73881H14.087Z" fill="#FFDA44"/>
</svg>
