<svg width="24" height="24" viewBox="0 0 24 24" fill="none" xmlns="http://www.w3.org/2000/svg">
<path d="M10.9565 10.9565C10.9565 10.9565 3.52168 20.487 3.51465 20.4853C5.68618 22.6569 8.68623 24 12 24C18.6273 24 24 18.6274 24 12L10.9565 10.9565Z" fill="#338AF3"/>
<path d="M10.9565 12C10.9565 12 3.52168 3.51305 3.51465 3.51473C5.68618 1.34316 8.68623 0 12 0C18.6273 0 24 5.37262 24 12H10.9565Z" fill="#6DA544"/>
<path d="M3.51471 3.51465C-1.17157 8.20093 -1.17157 15.7989 3.51471 20.4853C3.51438 20.4872 24 12 24 12L3.51471 3.51465Z" fill="#D80027"/>
<path d="M6.2608 7.04346C3.95929 7.04346 2.08691 8.91588 2.08691 11.2173V12.7826C2.08691 15.0841 3.95934 16.9564 6.2608 16.9564C8.56227 16.9564 10.4347 15.084 10.4347 12.7826V11.2173C10.4347 8.91588 8.56232 7.04346 6.2608 7.04346ZM8.86949 12.7826C8.86949 13.9485 8.10065 14.938 7.04338 15.2712V13.5652L8.15076 12.4578L7.04399 11.3511L7.04338 10.9572V10.4348H5.47823V12L4.3716 13.1066L5.47823 14.2131V15.2712C4.42096 14.938 3.65212 13.9485 3.65212 12.7826V11.2174C3.65212 9.77899 4.8224 8.60875 6.2608 8.60875C7.69921 8.60875 8.86949 9.77904 8.86949 11.2174V12.7826Z" fill="#FFDA44"/>
</svg>
