<svg width="24" height="24" viewBox="0 0 24 24" fill="none" xmlns="http://www.w3.org/2000/svg">
<path d="M12 24C18.6274 24 24 18.6274 24 12C24 5.37258 18.6274 0 12 0C5.37258 0 0 5.37258 0 12C0 18.6274 5.37258 24 12 24Z" fill="#F0F0F0"/>
<path d="M11.9997 0C7.24218 0 3.13143 2.76867 1.19043 6.78263H22.8089C20.868 2.76867 16.7572 0 11.9997 0Z" fill="black"/>
<path d="M11.9997 23.9999C7.24218 23.9999 3.13143 21.2312 1.19043 17.2173H22.8089C20.868 21.2312 16.7572 23.9999 11.9997 23.9999Z" fill="#496E2D"/>
<path d="M23.4333 8.3479H0.566672C0.199078 9.49957 0 10.7265 0 12.0001C0 13.2736 0.199078 14.5006 0.566672 15.6522H23.4333C23.8009 14.5006 24 13.2736 24 12.0001C24 10.7265 23.8009 9.49957 23.4333 8.3479Z" fill="#A2001D"/>
<path d="M15.737 5.54533L14.3158 4.8894L12.0003 10.1324L9.68478 4.8894L8.26367 5.54533L11.1384 12L8.26367 18.4546L9.68478 19.1105L12.0003 13.8675L14.3158 19.1105L15.737 18.4546L12.8622 12L15.737 5.54533Z" fill="#F0F0F0"/>
<path d="M12.9656 6.16346C12.4154 5.56266 12.0004 5.21729 12.0004 5.21729C12.0004 5.21729 11.5853 5.56261 11.0352 6.16346V17.8363C11.5853 18.4372 12.0004 18.7825 12.0004 18.7825C12.0004 18.7825 12.4154 18.4372 12.9656 17.8363V6.16346Z" fill="#F0F0F0"/>
<path d="M9.3916 8.4019V15.5978C9.97295 16.6279 10.6845 17.4722 11.2177 18.0319V5.96777C10.6845 6.52751 9.9729 7.37187 9.3916 8.4019Z" fill="#A2001D"/>
<path d="M14.6093 8.4019C14.0279 7.37182 13.3165 6.52751 12.7832 5.96777V18.0319C13.3164 17.4722 14.0279 16.6279 14.6093 15.5978V8.4019Z" fill="#A2001D"/>
<path d="M14.6084 8.4021V15.598C15.1969 14.5551 15.6519 13.3218 15.6519 12.0001C15.6519 10.6783 15.1969 9.44507 14.6084 8.4021Z" fill="black"/>
<path d="M9.39114 8.4021V15.598C8.80263 14.5551 8.34766 13.3218 8.34766 12.0001C8.34766 10.6783 8.80263 9.44507 9.39114 8.4021Z" fill="black"/>
</svg>
