<svg width="24" height="24" viewBox="0 0 24 24" fill="none" xmlns="http://www.w3.org/2000/svg">
<path d="M24 12.0001C24 10.5323 23.736 9.12615 23.2536 7.82621L12 7.30444L0.746391 7.82616C0.264047 9.12615 0 10.5323 0 12.0001C0 13.4679 0.264047 14.8741 0.746391 16.174L12 16.6958L23.2536 16.174C23.736 14.8741 24 13.4679 24 12.0001Z" fill="#0052B4"/>
<path d="M11.9997 23.9999C17.1593 23.9999 21.5578 20.7434 23.2533 16.1738H0.746094C2.44161 20.7434 6.84012 23.9999 11.9997 23.9999Z" fill="#FF9811"/>
<path d="M0.746094 7.82611H23.2534C21.5578 3.2565 17.1593 0 11.9997 0C6.84013 0 2.44161 3.2565 0.746094 7.82611Z" fill="#D80027"/>
</svg>
