<svg width="24" height="24" viewBox="0 0 24 24" fill="none" xmlns="http://www.w3.org/2000/svg">
<path d="M12 24C18.6274 24 24 18.6274 24 12C24 5.37258 18.6274 0 12 0C5.37258 0 0 5.37258 0 12C0 18.6274 5.37258 24 12 24Z" fill="#496E2D"/>
<path d="M14.0872 11.4992C13.7927 11.4992 13.513 11.5579 13.2533 11.6514C13.3956 11.3343 13.491 10.9815 13.491 10.6048C13.491 9.11411 12.0003 7.99609 12.0003 7.99609C12.0003 7.99609 10.5096 9.11411 10.5096 10.6048C10.5096 10.9815 10.605 11.3343 10.7473 11.6514C10.4875 11.558 10.2079 11.4992 9.91337 11.4992C8.4227 11.4992 7.30469 12.9898 7.30469 12.9898C7.30469 12.9898 8.4227 14.4805 9.91337 14.4805C10.7874 14.4805 11.5328 13.9683 12.0003 13.5443C12.4679 13.9683 13.2133 14.4805 14.0873 14.4805C15.578 14.4805 16.696 12.9898 16.696 12.9898C16.696 12.9898 15.5779 11.4992 14.0872 11.4992Z" fill="#F0F0F0"/>
<path d="M12.0006 4.69531L12.3086 5.64294H13.305L12.499 6.22869L12.8066 7.17631L12.0006 6.59056L11.1946 7.17631L11.5023 6.22869L10.6963 5.64294H11.6927L12.0006 4.69531Z" fill="#FFDA44"/>
<path d="M8.2111 6.35254L8.80351 6.88588L9.49384 6.48735L9.16965 7.21555L9.76201 7.74899L8.96926 7.66565L8.64507 8.39385L8.47923 7.61418L7.68652 7.53084L8.3768 7.13221L8.2111 6.35254Z" fill="#FFDA44"/>
<path d="M5.4375 9.12619L6.21722 9.29189L6.6158 8.60156L6.69914 9.39427L7.47877 9.56011L6.75061 9.88434L6.83395 10.677L6.30047 10.0847L5.57231 10.4089L5.97089 9.71855L5.4375 9.12619Z" fill="#FFDA44"/>
<path d="M15.7891 6.35254L15.1968 6.88588L14.5065 6.48735L14.8306 7.21555L14.2383 7.74899L15.031 7.66565L15.3552 8.39385L15.5211 7.61418L16.3138 7.53084L15.6235 7.13221L15.7891 6.35254Z" fill="#FFDA44"/>
<path d="M18.5627 9.12619L17.783 9.29189L17.3845 8.60156L17.3011 9.39427L16.5215 9.56011L17.2496 9.88434L17.1663 10.677L17.6998 10.0847L18.4279 10.4089L18.0294 9.71855L18.5627 9.12619Z" fill="#FFDA44"/>
<path d="M11.9997 18.6545C13.1838 18.6545 14.2752 18.2595 15.1507 17.5947H8.84863C9.72416 18.2594 10.8156 18.6545 11.9997 18.6545Z" fill="#F0F0F0"/>
<path d="M7.2168 15.5244C7.38241 15.9034 7.59241 16.2584 7.83906 16.5842H16.1602C16.4069 16.2585 16.6169 15.9034 16.7825 15.5244H7.2168Z" fill="#F0F0F0"/>
</svg>
