<svg width="24" height="24" viewBox="0 0 24 24" fill="none" xmlns="http://www.w3.org/2000/svg">
<path d="M24 12C24 18.6274 18.6274 24 12 24C5.37262 24 0 18.6274 0 12C0 12.0029 12 0.0013125 12 0C18.6274 0 24 5.37262 24 12Z" fill="#D80027"/>
<path d="M12.0001 5.73926V9.78659L7.82617 5.73926H12.0001Z" fill="#0052B4"/>
<path d="M6.26098 12.0003H9.78649L6.26098 7.30469L5.73926 10.9569L6.26098 12.0003Z" fill="#0052B4"/>
<path d="M11.9678 11.9999H11.9999C11.9999 11.9891 11.9999 11.9786 11.9999 11.9678C11.9892 11.9785 11.9785 11.9892 11.9678 11.9999Z" fill="#F0F0F0"/>
<path d="M12 6.26086C12 4.14937 12 2.76586 12 0H11.998C5.37145 0.001125 0 5.37323 0 12H6.26086V8.47448L9.78638 12H11.9679C11.9786 11.9893 11.9893 11.9786 12 11.9679C12 11.1594 12 10.4381 12 9.78647L8.47444 6.26086H12Z" fill="#F0F0F0"/>
<path d="M6.07124 1.56543C4.19441 2.63413 2.63409 4.19441 1.56543 6.07124V12.5219H4.69588V4.69598V4.69588H12.5219C12.5219 3.70855 12.5219 2.76796 12.5219 1.56543H6.07124Z" fill="#D80027"/>
<path d="M12.4769 11.0017L7.73637 6.26123H6.26074V6.26132L12.4768 12.4774H12.4769C12.4769 12.4774 12.4769 11.4599 12.4769 11.0017Z" fill="#D80027"/>
<path d="M13.5654 6.26074V11.9998C13.5654 14.7955 20.8698 14.7955 20.8698 11.9998V6.26074H13.5654Z" fill="#F3F3F3"/>
<path d="M13.5654 12V12C13.5654 14.7956 17.2176 15.6522 17.2176 15.6522C17.2176 15.6522 20.8698 14.7956 20.8698 12V12H13.5654Z" fill="#6DA544"/>
<path d="M17.2171 9.7041L15.5215 10.4346V11.9998L17.2171 13.0432L18.9128 11.9998V10.4346L17.2171 9.7041Z" fill="#A2001D"/>
<path d="M15.5215 8.86963H18.9128V10.4348H15.5215V8.86963Z" fill="#338AF3"/>
</svg>
