<svg width="24" height="24" viewBox="0 0 24 24" fill="none" xmlns="http://www.w3.org/2000/svg">
<path d="M5.23633 21.9136C7.16223 23.2301 9.49084 24.0006 11.9998 24.0006C14.5087 24.0006 16.8374 23.2301 18.7632 21.9136L11.9998 20.8701L5.23633 21.9136Z" fill="#D80027"/>
<path d="M18.7632 2.08795C16.8374 0.771461 14.5087 0.000976562 11.9998 0.000976562C9.49084 0.000976562 7.16214 0.771461 5.23633 2.08795L11.9998 3.13143L18.7632 2.08795Z" fill="#D80027"/>
<path d="M5.23633 21.9136C7.16223 23.2301 9.49084 24.0006 11.9998 24.0006C14.5087 24.0006 16.8374 23.2301 18.7632 21.9136L11.9998 20.8701L5.23633 21.9136Z" fill="#D80027"/>
<path d="M18.7632 2.08795C16.8374 0.771461 14.5087 0.000976562 11.9998 0.000976562C9.49084 0.000976562 7.16214 0.771461 5.23633 2.08795L11.9998 3.13143L18.7632 2.08795Z" fill="#D80027"/>
<path d="M23.9696 11.2184C23.6853 7.51475 21.435 3.914 18.7636 2.08789H5.23672C2.27722 4.11107 0.269703 7.42457 0.0253906 11.2184L12.0002 12.001L23.9696 11.2184Z" fill="#0052B4"/>
<path d="M0.0253906 12.7836C0.269703 16.5775 2.27717 19.8909 5.23667 21.9141H18.7636C21.7232 19.891 23.7306 16.5775 23.9749 12.7836L12.0002 12.001L0.0253906 12.7836Z" fill="#0052B4"/>
<path d="M23.9694 11.2186H12.7826V1.56641H11.2174V11.2186H0.0252656C0.008625 11.4773 0 11.7383 0 12.0012C0 12.2641 0.00857813 12.5251 0.0252187 12.7838H11.2174V22.436H12.7826V12.7838H23.9748C23.9914 12.5251 24 12.2641 24 12.0012C24 11.7402 23.9895 11.4791 23.9694 11.2186Z" fill="#D80027"/>
<path d="M4.69531 12.0012L11.9996 7.41016L19.304 12.0012L11.9996 16.5923L4.69531 12.0012Z" fill="#F0F0F0"/>
<path d="M7.82617 14.0874H17.2174L15.1305 10.957L14.087 12.0004L13.0435 11.4787L12.0001 13.0439H9.91309L8.86961 12.0004L7.82617 14.0874Z" fill="#6DA544"/>
<path d="M11.9995 8.87012L12.2585 9.66723H13.0966L12.4185 10.16L12.6775 10.9571L11.9995 10.4645L11.3214 10.9571L11.5804 10.16L10.9023 9.66723H11.7404L11.9995 8.87012Z" fill="#FFDA44"/>
<path d="M12.0006 6.09863L2.60938 12.0014L12.0006 17.9042L21.392 12.0014L12.0006 6.09863ZM5.55069 12.0014L12.0006 7.94733L18.4507 12.0014L12.0006 16.0555L5.55069 12.0014Z" fill="#D80027"/>
</svg>
