<svg width="24" height="24" viewBox="0 0 24 24" fill="none" xmlns="http://www.w3.org/2000/svg">
<path d="M12 24C18.6274 24 24 18.6274 24 12C24 5.37258 18.6274 0 12 0C5.37258 0 0 5.37258 0 12C0 18.6274 5.37258 24 12 24Z" fill="#F0F0F0"/>
<path d="M23.8974 10.4345C23.5664 7.9039 22.4296 5.45862 20.4855 3.51448C18.5414 1.57034 16.096 0.43357 13.5654 0.102539L13.5655 10.4345H23.8974Z" fill="#0052B4"/>
<path d="M10.4345 0.102539C7.9039 0.43357 5.45857 1.57029 3.51443 3.51443C1.57034 5.45862 0.43357 7.90395 0.102539 10.4346L10.4345 10.4345L10.4345 0.102539Z" fill="#0052B4"/>
<path d="M0.102539 13.5654C0.43357 16.096 1.57034 18.5414 3.51443 20.4855C5.45857 22.4296 7.90385 23.5663 10.4345 23.8975L10.4345 13.5655L0.102539 13.5654Z" fill="#0052B4"/>
<path d="M13.5654 23.8973C16.096 23.5663 18.5413 22.4296 20.4854 20.4854C22.4296 18.5413 23.5663 16.096 23.8973 13.5654H13.5654V23.8973Z" fill="#0052B4"/>
<path d="M16.097 7.61471C16.097 7.45515 16.2267 7.32545 16.3864 7.32545H17.0062C17.9861 7.32545 18.7833 6.52829 18.7833 5.54846C18.7833 4.56863 17.9862 3.77143 17.0062 3.77143H16.4176C16.2254 3.6271 15.9677 3.53809 15.6833 3.53809C15.0902 3.53809 14.6094 3.9227 14.6094 4.39716C14.6094 4.86704 15.081 5.24823 15.6662 5.25563L15.6659 5.25905H17.0062C17.1658 5.25905 17.2955 5.3888 17.2955 5.54837C17.2955 5.70793 17.1658 5.83763 17.0062 5.83763H16.3864C15.4065 5.83763 14.6094 6.63479 14.6094 7.61462C14.6094 8.59445 15.4064 9.39165 16.3864 9.39165H18.7833V7.90393H16.3864C16.2267 7.90398 16.097 7.77427 16.097 7.61471Z" fill="#F0F0F0"/>
<path d="M6.7054 7.61471C6.7054 7.45515 6.8351 7.32545 6.99471 7.32545H7.61459C8.59446 7.32545 9.39166 6.52829 9.39166 5.54846C9.39166 4.56863 8.59451 3.77143 7.61459 3.77143H7.02593C6.83379 3.6271 6.57602 3.53809 6.29168 3.53809C5.69857 3.53809 5.21777 3.9227 5.21777 4.39716C5.21777 4.86704 5.68938 5.24823 6.27457 5.25563L6.27429 5.25905H7.61463C7.77424 5.25905 7.90394 5.3888 7.90394 5.54837C7.90394 5.70793 7.77424 5.83763 7.61463 5.83763H6.99476C6.01488 5.83763 5.21777 6.63479 5.21777 7.61462C5.21777 8.59445 6.01484 9.39165 6.99476 9.39165H9.39162V7.90393H6.99471C6.8351 7.90398 6.7054 7.77427 6.7054 7.61471Z" fill="#F0F0F0"/>
<path d="M16.0971 18.686C16.0971 18.5264 16.2268 18.3967 16.3864 18.3967H17.0063C17.9862 18.3967 18.7834 17.5996 18.7834 16.6198C18.7834 15.6399 17.9862 14.8427 17.0063 14.8427H16.4176C16.2255 14.6984 15.9677 14.6094 15.6834 14.6094C15.0902 14.6094 14.6094 14.994 14.6094 15.4685C14.6094 15.9383 15.081 16.3195 15.6662 16.3269L15.6659 16.3303H17.0062C17.1658 16.3303 17.2955 16.4601 17.2955 16.6197C17.2955 16.7792 17.1658 16.9089 17.0062 16.9089H16.3864C15.4065 16.9089 14.6094 17.7061 14.6094 18.6859C14.6094 19.6657 15.4064 20.4629 16.3864 20.4629H18.7833V18.9753H16.3864C16.2268 18.9753 16.0971 18.8455 16.0971 18.686Z" fill="#F0F0F0"/>
<path d="M6.70545 18.686C6.70545 18.5264 6.83515 18.3967 6.99476 18.3967H7.61463C8.59451 18.3967 9.39171 17.5996 9.39171 16.6198C9.39171 15.6399 8.59455 14.8427 7.61463 14.8427H7.02598C6.83384 14.6984 6.57607 14.6094 6.29173 14.6094C5.69857 14.6094 5.21777 14.994 5.21777 15.4685C5.21777 15.9383 5.68938 16.3195 6.27457 16.3269L6.27429 16.3303H7.61463C7.77424 16.3303 7.90395 16.4601 7.90395 16.6197C7.90395 16.7792 7.77424 16.9089 7.61463 16.9089H6.99476C6.01488 16.9089 5.21777 17.7061 5.21777 18.6859C5.21777 19.6657 6.01484 20.4629 6.99476 20.4629H9.39166V18.9753H6.99476C6.83515 18.9753 6.70545 18.8455 6.70545 18.686Z" fill="#F0F0F0"/>
</svg>
