<svg width="24" height="24" viewBox="0 0 24 24" fill="none" xmlns="http://www.w3.org/2000/svg">
<path d="M12 24C18.6274 24 24 18.6274 24 12C24 5.37258 18.6274 0 12 0C5.37258 0 0 5.37258 0 12C0 18.6274 5.37258 24 12 24Z" fill="#338AF3"/>
<path d="M11.6216 19.5563C11.2981 19.5406 11.0304 19.3304 10.9256 19.0449C10.7404 19.2865 10.4221 19.4081 10.1085 19.3272C9.79442 19.2464 9.57482 18.9865 9.52939 18.6849C9.29877 18.8842 8.96277 18.9384 8.67219 18.7961C8.38105 18.6531 8.2183 18.3541 8.23499 18.0499C7.96944 18.1991 7.62927 18.1845 7.3731 17.9863C7.11744 17.788 7.01778 17.463 7.09499 17.1682C6.80488 17.261 6.47516 17.1786 6.26385 16.9328C6.05253 16.6876 6.02014 16.349 6.15482 16.0762C5.85219 16.1085 5.54544 15.9614 5.38785 15.6786C5.22974 15.3958 5.2663 15.0572 5.45357 14.8166C5.15043 14.7874 4.87911 14.5813 4.78208 14.2725C4.68453 13.9636 4.78888 13.6391 5.02105 13.4413C4.72991 13.3515 4.5066 13.0948 4.47374 12.773C4.44088 12.4511 4.60785 12.1553 4.87442 12.0081C4.6078 11.862 4.4398 11.5662 4.47163 11.2448H4.47214C4.50397 10.9223 4.72728 10.6652 5.01786 10.5743C4.78569 10.3771 4.68032 10.0531 4.77683 9.74424C4.87335 9.43486 5.1441 9.22824 5.44728 9.19795C5.25997 8.95795 5.22243 8.61928 5.37946 8.33606C5.53649 8.05327 5.84328 7.90561 6.14643 7.93744C6.01077 7.66458 6.0426 7.32595 6.25339 7.07972C6.46367 6.834 6.79339 6.75103 7.08402 6.84286C7.00574 6.54858 7.10488 6.22303 7.36053 6.02428C7.61567 5.82544 7.95585 5.8103 8.22139 5.95847C8.20419 5.65435 8.36642 5.35533 8.65705 5.21185C8.94716 5.06888 9.28368 5.12213 9.51477 5.32139C9.55911 5.01989 9.77877 4.75903 10.0923 4.67756C10.4053 4.59619 10.7236 4.7167 10.9093 4.95774C11.0142 4.67236 11.2813 4.46156 11.6048 4.44539C11.9278 4.42875 12.2147 4.61025 12.3483 4.8832C12.508 4.62441 12.8116 4.47103 13.1315 4.51955C13.4518 4.56755 13.6976 4.80333 13.7737 5.09817C13.9824 4.87585 14.3111 4.78772 14.6148 4.89933C14.9189 5.0115 15.112 5.29219 15.1266 5.59688C15.3755 5.42161 15.7156 5.40122 15.9906 5.57236C16.2656 5.74299 16.3976 6.05653 16.3506 6.35756C16.6297 6.23602 16.9668 6.28453 17.2016 6.50677C17.4364 6.72956 17.5031 7.06294 17.3967 7.34831C17.6946 7.28517 18.015 7.39997 18.2007 7.66552C18.3864 7.93055 18.3849 8.27072 18.2237 8.529C18.5278 8.52689 18.8185 8.70431 18.9473 9.00117C19.0757 9.29855 19.0052 9.63197 18.795 9.85266C19.094 9.91214 19.3428 10.1443 19.4085 10.4615C19.4737 10.7787 19.3376 11.0902 19.0877 11.264C19.3673 11.3825 19.5645 11.6595 19.5651 11.9829V11.9934V12.0002C19.5651 12.3236 19.3689 12.6012 19.0892 12.7207C19.3397 12.8934 19.4769 13.2049 19.4117 13.5221C19.347 13.8393 19.0986 14.072 18.7997 14.1325C19.0105 14.3527 19.082 14.6856 18.9541 14.9835C18.8263 15.2809 18.5357 15.4588 18.231 15.4572C18.3927 15.7155 18.3953 16.0557 18.2101 16.3212C18.0249 16.5869 17.7051 16.7026 17.4072 16.64C17.5141 16.9249 17.4478 17.2588 17.2136 17.4821C16.9788 17.705 16.6423 17.754 16.3632 17.6334C16.4106 17.934 16.2792 18.2481 16.0047 18.4197C15.7303 18.5914 15.3901 18.5715 15.1407 18.3968C15.1266 18.7014 14.9346 18.9827 14.631 19.0954C14.3274 19.2081 14.631 19.0954 14.6305 19.0954C14.3268 19.2075 13.9981 19.1199 13.7889 18.8982C13.7138 19.1935 13.4686 19.4298 13.1482 19.4789C12.8284 19.5274 12.5242 19.3751 12.3641 19.1163C12.2368 19.3787 11.9676 19.5571 11.6608 19.5571C11.6477 19.5573 11.6346 19.5568 11.6216 19.5563Z" fill="#F3F3F3"/>
<path d="M11.9996 17.217C14.8811 17.217 17.217 14.8811 17.217 11.9996C17.217 9.11812 14.8811 6.78223 11.9996 6.78223C9.11812 6.78223 6.78223 9.11812 6.78223 11.9996C6.78223 14.8811 9.11812 17.217 11.9996 17.217Z" fill="#338AF3"/>
<path d="M13.142 10.2291C13.3983 10.039 13.5652 9.73506 13.5652 9.39138V8.86966C13.5652 8.29333 13.0981 7.82617 12.5217 7.82617H11.4783C10.902 7.82617 10.4348 8.29333 10.4348 8.86966V9.39138C10.4348 9.73506 10.6017 10.039 10.858 10.2291L9.91309 19.8261C9.91309 19.8261 10.4348 20.3479 12.0001 20.3479C13.5653 20.3479 14.087 19.8261 14.087 19.8261L13.142 10.2291Z" fill="#BDBCC1"/>
<path d="M12.0002 7.82617L12.9067 10.6161H15.8404L13.4671 12.3405L14.3735 15.1305L12.0002 13.4062L9.62688 15.1305L10.5335 12.3405L8.16016 10.6161H11.0937L12.0002 7.82617Z" fill="#F0F0F0"/>
</svg>
