<svg width="24" height="24" viewBox="0 0 24 24" fill="none" xmlns="http://www.w3.org/2000/svg">
<path d="M12 24C18.6274 24 24 18.6274 24 12C24 5.37258 18.6274 0 12 0C5.37258 0 0 5.37258 0 12C0 18.6274 5.37258 24 12 24Z" fill="#F0F0F0"/>
<path d="M11.9997 0C9.59141 0 7.34928 0.709922 5.46997 1.93116L8.55617 3.9997L4.69531 5.99967L8.55617 7.99964L4.69531 9.99961L8.55617 11.9993L4.69531 13.9993L8.55617 15.9992L4.69531 17.9993L8.55617 19.9993L5.46959 22.0685C7.349 23.29 9.59127 24 11.9997 24C18.627 24 23.9997 18.6274 23.9997 12C23.9997 5.37262 18.627 0 11.9997 0V0Z" fill="#D80027"/>
</svg>
