<svg width="24" height="24" viewBox="0 0 24 24" fill="none" xmlns="http://www.w3.org/2000/svg">
<path fill-rule="evenodd" clip-rule="evenodd" d="M21.9809 5.33833L2.01026 18.6561C0.740294 16.7519 0 14.4641 0 12.0032C0 5.37404 5.37241 0 11.9996 0C16.1616 0 19.8286 2.1195 21.9809 5.33833Z" fill="#009739"/>
<path fill-rule="evenodd" clip-rule="evenodd" d="M21.9824 5.33789C23.2573 7.2445 24.0007 9.53681 24.0007 12.0028C24.0007 18.5053 18.8316 23.8002 12.3796 24.0002H11.6225C7.6122 23.8759 4.09754 21.7832 2.01172 18.6557L21.9824 5.33789Z" fill="#C8102E"/>
<path fill-rule="evenodd" clip-rule="evenodd" d="M0.140625 13.8456L18.2595 1.7627C21.2008 3.56503 23.3058 6.5994 23.8569 10.1479L5.72566 22.2391C2.78748 20.4327 0.686613 17.3956 0.140625 13.8456Z" fill="#FFCD00"/>
<path fill-rule="evenodd" clip-rule="evenodd" d="M0.474609 15.3529L19.5226 2.65039C21.4095 4.17079 22.8269 6.25088 23.5225 8.63859L4.46677 21.3463C2.58192 19.8236 1.16722 17.7417 0.474609 15.3529Z" fill="black"/>
<path d="M3.38646 14.083L8.40134 18.046L2.01562 17.7886L7.33289 14.2424L5.11488 20.2378L3.38646 14.083ZM17.2321 4.84961L22.247 8.8126L15.8613 8.55525L21.1785 5.00901L18.9605 11.0044L17.2321 4.84961Z" fill="white"/>
</svg>
