<svg width="24" height="24" viewBox="0 0 24 24" fill="none" xmlns="http://www.w3.org/2000/svg">
<path d="M11.9998 0C18.6271 0 23.9998 5.37262 23.9998 12C23.9998 18.6274 18.6271 24 11.9998 24C11.9998 23.4783 10.4346 12 10.4346 12L11.9998 0Z" fill="#F0F0F0"/>
<path d="M12 24C5.37262 24 0 18.6274 0 12C0 5.37262 5.37262 0 12 0" fill="#FFDA44"/>
<path d="M16.5952 10.4419L18.8504 13.4253C18.4951 13.9633 18.497 14.6882 18.9079 15.2318C19.4292 15.9214 20.4108 16.0579 21.1004 15.5366C21.79 15.0154 21.9265 14.0337 21.4051 13.3442C20.9943 12.8006 20.2973 12.6011 19.6828 12.7962L16.1681 8.14648L15.3357 8.77573L14.0869 9.71952L15.3454 11.3843L16.5952 10.4419ZM19.8419 13.8717C20.0718 13.6979 20.399 13.7435 20.5728 13.9733C20.7465 14.2032 20.7011 14.5304 20.4712 14.7042C20.2414 14.8779 19.9141 14.8325 19.7404 14.6026C19.5666 14.3727 19.6121 14.0455 19.8419 13.8717Z" fill="#ACABB1"/>
<path d="M20.4633 11.3844L21.7218 9.71961L20.4731 8.77573L19.6407 8.14648L16.126 12.7962C15.5115 12.6011 14.8145 12.8006 14.4036 13.3442C13.8823 14.0338 14.0188 15.0154 14.7084 15.5366C15.398 16.0579 16.3796 15.9214 16.9008 15.2318C17.3117 14.6882 17.3136 13.9633 16.9583 13.4253L19.2135 10.4419L20.4633 11.3844ZM16.0684 14.6027C15.8947 14.8326 15.5675 14.878 15.3376 14.7043C15.1077 14.5305 15.0623 14.2033 15.236 13.9734C15.4098 13.7436 15.737 13.698 15.9669 13.8718C16.1967 14.0456 16.2422 14.3728 16.0684 14.6027Z" fill="#FFDA44"/>
</svg>
