<svg width="24" height="24" viewBox="0 0 24 24" fill="none" xmlns="http://www.w3.org/2000/svg">
<path d="M24 11.9999C24 10.532 23.736 9.1259 23.2536 7.82596L12 7.3042L0.746391 7.82592C0.264047 9.1259 0 10.532 0 11.9999C0 13.4677 0.264047 14.8738 0.746391 16.1737L12 16.6955L23.2536 16.1738C23.736 14.8738 24 13.4677 24 11.9999Z" fill="#F0F0F0"/>
<path d="M11.9997 23.9999C17.1593 23.9999 21.5578 20.7434 23.2533 16.1738H0.746094C2.44161 20.7434 6.84012 23.9999 11.9997 23.9999Z" fill="#0052B4"/>
<path d="M0.746094 7.82611H23.2534C21.5578 3.2565 17.1593 0 11.9997 0C6.84013 0 2.44161 3.2565 0.746094 7.82611Z" fill="#D80027"/>
<path d="M15.1309 8.34802H13.0439L13.3918 5.73928L14.7831 4.6958L16.1744 5.73928V7.82625L15.1309 8.34802Z" fill="#338AF3"/>
<path d="M8.86961 8.34802H10.9566L10.6087 5.73928L9.21742 4.6958L7.82617 5.73928V7.82625L8.86961 8.34802Z" fill="#338AF3"/>
<path d="M13.3911 8.34802H10.6084V5.73928L11.9997 4.6958L13.3911 5.73928V8.34802Z" fill="#0052B4"/>
<path d="M7.82617 7.82617V13.5653C7.82617 14.9318 8.48627 16.1471 9.50439 16.909L10.2348 16.7262L11.1566 17.6535C11.4292 17.7096 11.7112 17.7392 12.0001 17.7392C12.2875 17.7392 12.5681 17.71 12.8392 17.6544L13.8914 16.7783L14.4957 16.9073C15.5134 16.1455 16.174 14.9314 16.174 13.5653V7.82617H7.82617Z" fill="#F0F0F0"/>
<path d="M7.82617 7.82617H9.49572V9.49572H7.82617V7.82617Z" fill="#D80027"/>
<path d="M11.165 7.82617H12.8346V9.49572H11.165V7.82617Z" fill="#D80027"/>
<path d="M14.5049 7.82617H16.1744V9.49572H14.5049V7.82617Z" fill="#D80027"/>
<path d="M9.49609 9.49561H11.1656V11.1652H9.49609V9.49561Z" fill="#D80027"/>
<path d="M12.835 9.49561H14.5045V11.1652H12.835V9.49561Z" fill="#D80027"/>
<path d="M7.82617 11.1646H9.49572V12.8341H7.82617V11.1646Z" fill="#D80027"/>
<path d="M9.49609 12.8345H11.1656V14.504H9.49609V12.8345Z" fill="#D80027"/>
<path d="M11.165 11.1646H12.8346V12.8341H11.165V11.1646Z" fill="#D80027"/>
<path d="M14.5049 11.1646H16.1744V12.8341H14.5049V11.1646Z" fill="#D80027"/>
<path d="M12.835 12.8345H14.5045V14.504H12.835V12.8345Z" fill="#D80027"/>
<path d="M11.165 14.5039H12.8346V16.1735H11.165V14.5039Z" fill="#D80027"/>
<path d="M9.49542 14.5039H7.93359C8.07684 15.1245 8.35847 15.6924 8.74463 16.1735H9.49542V14.5039Z" fill="#D80027"/>
<path d="M14.5049 16.1735H15.2556C15.6419 15.6924 15.9234 15.1245 16.0667 14.5039H14.5049V16.1735Z" fill="#D80027"/>
<path d="M9.49609 16.1738V16.9023C9.98167 17.2677 10.5491 17.5297 11.1656 17.6554V16.1738H9.49609Z" fill="#D80027"/>
<path d="M12.835 16.1738V17.6554C13.4515 17.5298 14.0189 17.2677 14.5045 16.9023V16.1738H12.835Z" fill="#D80027"/>
</svg>
