<svg width="24" height="24" viewBox="0 0 24 24" fill="none" xmlns="http://www.w3.org/2000/svg">
<path d="M24 12C24 18.6274 18.6274 24 12 24C5.37262 24 0 18.6274 0 12C0 12.0029 12 0.0013125 12 0C18.6274 0 24 5.37262 24 12Z" fill="#338AF3"/>
<path d="M12.0001 5.73926V9.78659L7.82617 5.73926H12.0001Z" fill="#0052B4"/>
<path d="M6.26098 12.0001H9.78654L6.26098 7.30444L5.73926 10.9566L6.26098 12.0001Z" fill="#0052B4"/>
<path d="M11.9678 11.9999H11.9999C11.9999 11.9891 11.9999 11.9786 11.9999 11.9678C11.9892 11.9785 11.9785 11.9892 11.9678 11.9999Z" fill="#F0F0F0"/>
<path d="M12 6.26086C12 4.14937 12 2.76586 12 0H11.998C5.3715 0.001125 0 5.37323 0 12H6.26086V8.47448L9.78642 12H11.968C11.9787 11.9893 11.9894 11.9786 12.0001 11.9679C12.0001 11.1594 12.0001 10.4381 12.0001 9.78647L8.47444 6.26086H12Z" fill="#F0F0F0"/>
<path d="M6.07124 1.56519C4.19441 2.63389 2.63413 4.19417 1.56543 6.071V12H4.69588V4.69573V4.69564H12.0002C12.0002 3.70831 12.0002 2.76772 12.0002 1.56519H6.07124Z" fill="#D80027"/>
<path d="M11.9998 10.5244L7.73641 6.26099H6.26074V6.26108L11.9997 12.0001H11.9998C11.9998 12.0001 11.9998 10.9826 11.9998 10.5244Z" fill="#D80027"/>
<path d="M13.5654 7.8262V12C13.5654 14.7957 17.2176 15.6523 17.2176 15.6523C17.2176 15.6523 20.8698 14.7957 20.8698 12V7.8262L17.2176 6.78271L13.5654 7.8262Z" fill="#F3F3F3"/>
<path d="M20.8698 7.82619V6.26099H13.5654V7.82619H16.6958V10.9567H13.5654V12.0001V12.0002L16.6958 12.0002V15.4923C17.0107 15.6036 17.2176 15.6523 17.2176 15.6523C17.2176 15.6523 17.4244 15.6037 17.7393 15.4923V12.0002H20.8698V12.0001V10.9566H17.7393V7.82614H20.8698V7.82619Z" fill="#D80027"/>
</svg>
