<svg width="24" height="24" viewBox="0 0 24 24" fill="none" xmlns="http://www.w3.org/2000/svg">
<path d="M0 12C0 5.37262 5.37262 0 12 0C18.6274 0 24 5.37262 24 12L12 13.0435L0 12Z" fill="#FFDA44"/>
<path d="M1.60547 18C3.68039 21.5867 7.55808 24 11.9997 24C16.4414 24 20.319 21.5867 22.394 18L11.9997 17.2174L1.60547 18Z" fill="#D80027"/>
<path d="M22.3942 18C23.4153 16.235 24 14.1858 24 12H0C0 14.1858 0.584719 16.235 1.60575 18H22.3942Z" fill="#0052B4"/>
<path d="M12.0001 16.1738C14.3052 16.1738 16.174 14.3051 16.174 11.9999C16.174 9.69476 14.3052 7.82605 12.0001 7.82605C9.69489 7.82605 7.82617 9.69476 7.82617 11.9999C7.82617 14.3051 9.69489 16.1738 12.0001 16.1738Z" fill="#FFDA44"/>
<path d="M12.0003 14.6086C10.5618 14.6086 9.3916 13.4383 9.3916 11.9999V10.4347C9.3916 8.99628 10.5619 7.82605 12.0003 7.82605C13.4387 7.82605 14.609 8.99633 14.609 10.4347V11.9999C14.609 13.4384 13.4387 14.6086 12.0003 14.6086Z" fill="#338AF3"/>
<path d="M16.174 5.73916H13.0436C13.0436 5.16288 12.5764 4.69568 12.0001 4.69568C11.4238 4.69568 10.9566 5.16288 10.9566 5.73916H7.82617C7.82617 6.31549 8.32816 6.78265 8.90439 6.78265H8.86966C8.86966 7.35898 9.33681 7.82613 9.91314 7.82613C9.91314 8.40246 10.3803 8.86962 10.9566 8.86962H13.0436C13.6199 8.86962 14.0871 8.40246 14.0871 7.82613C14.6634 7.82613 15.1306 7.35898 15.1306 6.78265H15.0958C15.6721 6.78265 16.174 6.31544 16.174 5.73916Z" fill="black"/>
</svg>
