<svg width="24" height="24" viewBox="0 0 24 24" fill="none" xmlns="http://www.w3.org/2000/svg">
<path d="M0.566625 8.34789C0.199031 9.49956 -4.68667e-05 10.7264 8.276e-09 12.0001C-4.68667e-05 13.2736 0.199031 14.5005 0.566672 15.6522L12 16.174L23.4333 15.6522C23.8008 14.5005 24 13.2736 24 12.0001C24 10.7265 23.8009 9.49956 23.4333 8.34789L12 7.82617L0.566625 8.34789Z" fill="#F0F0F0"/>
<path d="M24 12.0001C24 11.2882 23.9377 10.5909 23.8187 9.91309H0.181313C0.0623437 10.5909 0 11.2881 0 12.0001C0 12.712 0.0623906 13.4092 0.181313 14.087H23.8187C23.9376 13.4092 24 12.7119 24 12.0001Z" fill="black"/>
<path d="M11.9997 24C17.3536 24 21.8878 20.4936 23.433 15.6521H0.566406C2.11164 20.4935 6.64591 23.9999 11.9997 24Z" fill="#338AF3"/>
<path d="M11.9998 1.87984e-09C6.64595 1.87984e-09 2.11173 3.50639 0.566406 8.34773L23.433 8.34778C21.8878 3.50639 17.3536 -9.37481e-05 11.9998 1.87984e-09Z" fill="#338AF3"/>
</svg>
