<svg width="24" height="24" viewBox="0 0 24 24" fill="none" xmlns="http://www.w3.org/2000/svg">
<path d="M12 24C18.6274 24 24 18.6274 24 12C24 5.37258 18.6274 0 12 0C5.37258 0 0 5.37258 0 12C0 18.6274 5.37258 24 12 24Z" fill="#F0F0F0"/>
<path d="M24.0004 11.9997C24.0004 7.24218 21.2317 3.13143 17.2178 1.19043V22.8089C21.2317 20.868 24.0004 16.7572 24.0004 11.9997Z" fill="#D80027"/>
<path d="M0 11.9997C0 16.7572 2.76867 20.868 6.78263 22.809V1.19043C2.76867 3.13143 0 7.24218 0 11.9997Z" fill="#6DA544"/>
<path d="M8.86914 11.9995C8.86914 13.7284 10.2707 15.13 11.9996 15.13C13.7285 15.13 15.13 13.7284 15.13 11.9995V10.9561H8.86914V11.9995Z" fill="#6DA544"/>
<path d="M16.174 9.91262H13.0436C13.0436 9.33634 12.5764 8.86914 12.0001 8.86914C11.4238 8.86914 10.9566 9.33634 10.9566 9.91262H7.82617C7.82617 10.489 8.32816 10.9561 8.90439 10.9561H8.86966C8.86966 11.5324 9.33681 11.9996 9.91314 11.9996C9.91314 12.5759 10.3803 13.0431 10.9566 13.0431H13.0436C13.6199 13.0431 14.0871 12.5759 14.0871 11.9996C14.6634 11.9996 15.1306 11.5324 15.1306 10.9561H15.0958C15.6721 10.9561 16.174 10.489 16.174 9.91262Z" fill="#FF9811"/>
</svg>
