<svg width="24" height="24" viewBox="0 0 24 24" fill="none" xmlns="http://www.w3.org/2000/svg">
<circle cx="12" cy="12.001" r="12" fill="#338AF3"/>
<path fill-rule="evenodd" clip-rule="evenodd" d="M1.4421 17.7094C0.522305 16.0118 0 14.0674 0 12.001C0 9.93457 0.522305 7.99016 1.4421 6.29256L2.17105 6.00098L5.92105 7.50098V16.501L2.17105 18.001L1.4421 17.7094Z" fill="#EEEEEE"/>
<path fill-rule="evenodd" clip-rule="evenodd" d="M5.91987 1.65234C3.6555 2.98535 1.86709 5.04035 0.871094 7.50089H5.91987V1.65234Z" fill="#D80027"/>
<path fill-rule="evenodd" clip-rule="evenodd" d="M3.21335 3.82812L5.92112 6.51656V7.50093H4.98362L2.3418 4.87798C2.61251 4.51151 2.90359 4.16101 3.21335 3.82812Z" fill="#6DA544"/>
<path fill-rule="evenodd" clip-rule="evenodd" d="M2.63281 4.50098C3.06587 3.96075 3.54469 3.45879 4.0634 3.00098H5.92192V4.50098H2.63281Z" fill="#EEEEEE"/>
<path fill-rule="evenodd" clip-rule="evenodd" d="M1.41992 6.33202C1.83981 5.55015 2.34385 4.82021 2.91992 4.1543V7.50142H1.41992V6.33202Z" fill="#EEEEEE"/>
<path fill-rule="evenodd" clip-rule="evenodd" d="M5.91987 22.3495C3.6555 21.0165 1.86709 18.9615 0.871094 16.501H5.91987V22.3495Z" fill="#D80027"/>
<path fill-rule="evenodd" clip-rule="evenodd" d="M2.63203 19.501C2.25359 19.0289 1.91009 18.5276 1.60547 18.001H3.67113C4.08535 18.001 4.42113 18.3368 4.42113 18.751C4.42113 19.1652 4.08535 19.501 3.67113 19.501H2.63203Z" fill="#FFDA44"/>
<path fill-rule="evenodd" clip-rule="evenodd" d="M15.4248 6.78336V6.40848C14.8357 6.20534 14.3434 6.38076 13.8488 6.55703C13.202 6.78748 12.5513 7.01937 11.6748 6.40848C12.2665 7.65425 13.0859 7.67916 13.9954 7.70681C14.2172 7.71356 14.4443 7.72046 14.6748 7.74527V8.56473H12.7998C12.7998 8.56473 10.9248 11.1897 12.7998 13.4397H14.6748V14.1896H12.7998C11.6748 14.1896 11.6748 12.6896 11.6748 12.6896H7.1748V14.1896H8.1123L8.11289 14.1897H8.1123C8.48686 14.5331 8.80426 15.0219 9.12851 15.5213C9.77817 16.5218 10.4553 17.5647 11.6748 17.5647H18.4248C20.2998 17.5647 20.6748 16.4397 21.0498 15.3147C21.3487 14.4181 21.6476 14.2361 21.7566 14.1991L21.7992 14.1898C21.7996 14.1897 21.7998 14.1897 21.7998 14.1897H21.7992L21.7998 14.1896V13.0646H18.0498C18.0498 13.0646 18.0498 14.1896 16.9248 14.1896H15.4248V13.4397H17.2529C15.7998 11.1897 17.2529 8.56473 17.2529 8.56473H15.4248V7.90849V6.78336ZM11.2998 11.9397C10.9248 9.68974 12.0498 8.56473 12.0498 8.56473C9.4248 9.31474 7.9248 11.9397 7.9248 11.9397H11.2998ZM17.7217 9.31474C17.3172 10.2637 17.251 11.3228 17.5342 12.3147H20.6279C19.9248 10.8147 20.6748 9.31474 20.6748 9.31474H17.7217Z" fill="#FFDA44"/>
</svg>
