<svg width="24" height="24" viewBox="0 0 24 24" fill="none" xmlns="http://www.w3.org/2000/svg">
<path d="M24 12C24 18.6274 18.6274 24 12 24C5.37262 24 0 18.6274 0 12C0 12.0029 12 0.0013125 12 0C18.6274 0 24 5.37262 24 12Z" fill="#0052B4"/>
<path d="M11.9678 11.9999H11.9999C11.9999 11.9891 11.9999 11.9786 11.9999 11.9678C11.9892 11.9785 11.9785 11.9892 11.9678 11.9999Z" fill="#F0F0F0"/>
<path d="M12 6.26086C12 4.14937 12 2.76586 12 0H11.998C5.37145 0.001125 0 5.37323 0 12H6.26086V8.47448L9.78638 12H11.9679C11.9786 11.9893 11.9893 11.9786 12 11.9679C12 11.1594 12 10.4381 12 9.78647L8.47444 6.26086H12Z" fill="#F0F0F0"/>
<path d="M6.07124 1.56543C4.19441 2.63413 2.63409 4.19441 1.56543 6.07124V12.0002H4.69588V4.69598V4.69588H12.0002C12.0002 3.70855 12.0002 2.76796 12.0002 1.56543H6.07124Z" fill="#D80027"/>
<path d="M17.2171 12L13.9736 15.2434C14.5815 16.4158 15.8053 17.2174 17.2171 17.2174C18.6288 17.2174 19.8526 16.4158 20.4605 15.2434L17.2171 12Z" fill="#FFDA44"/>
<path d="M11.9999 10.5242L7.73637 6.26074H6.26074V6.26084L11.9998 11.9998H11.9999C11.9999 11.9998 11.9999 10.9823 11.9999 10.5242Z" fill="#D80027"/>
<path d="M13.5654 6.26074V11.9998V11.9999C13.5655 14.7955 17.2176 15.6521 17.2176 15.6521C17.2176 15.6521 20.8697 14.7955 20.8698 11.9999V11.9998V6.26074H13.5654Z" fill="#6DA544"/>
<path d="M16.4346 8.86963H17.9998V13.0435H16.4346V8.86963Z" fill="#F0F0F0"/>
<path d="M17.2172 9.65216C17.6494 9.65216 17.9998 9.30177 17.9998 8.86954C17.9998 8.43731 17.6494 8.08691 17.2172 8.08691C16.785 8.08691 16.4346 8.43731 16.4346 8.86954C16.4346 9.30177 16.785 9.65216 17.2172 9.65216Z" fill="#A2001D"/>
<path d="M14.6084 7.3042H15.6519V8.34768H14.6084V7.3042Z" fill="#FFDA44"/>
<path d="M14.6084 9.65186H15.6519V10.6953H14.6084V9.65186Z" fill="#FFDA44"/>
<path d="M14.6084 12H15.6519V13.0435H14.6084V12Z" fill="#FFDA44"/>
<path d="M18.7822 7.3042H19.8257V8.34768H18.7822V7.3042Z" fill="#FFDA44"/>
<path d="M18.7822 9.65186H19.8257V10.6953H18.7822V9.65186Z" fill="#FFDA44"/>
<path d="M18.7822 12H19.8257V13.0435H18.7822V12Z" fill="#FFDA44"/>
</svg>
