<svg width="24" height="24" viewBox="0 0 24 24" fill="none" xmlns="http://www.w3.org/2000/svg">
<path d="M12 24C18.6274 24 24 18.6274 24 12C24 5.37258 18.6274 0 12 0C5.37258 0 0 5.37258 0 12C0 18.6274 5.37258 24 12 24Z" fill="#F0F0F0"/>
<path d="M22.5406 6.26072C20.99 3.41874 18.3236 1.27332 15.1301 0.412598L14.6084 6.26072H22.5406Z" fill="#0052B4"/>
<path d="M1.45898 6.26072H9.39117L8.86945 0.412598C5.676 1.27332 3.00966 3.41879 1.45898 6.26072Z" fill="#0052B4"/>
<path d="M14.6084 12V17.7391H22.5406C23.4708 16.0342 23.9997 14.0789 23.9997 12H14.6084Z" fill="#6DA544"/>
<path d="M9.39131 12H0C0 14.0789 0.528891 16.0342 1.45908 17.7391H9.39127V12H9.39131Z" fill="#6DA544"/>
<path d="M1.45898 17.7393C3.00966 20.5812 5.676 22.7267 8.86945 23.5874L9.39117 18.4729L1.45898 17.7393Z" fill="#FFDA44"/>
<path d="M15.1301 23.5874C18.3236 22.7267 20.99 20.5812 22.5406 17.7393L14.6084 18.4728L15.1301 23.5874Z" fill="#FFDA44"/>
<path d="M14.6084 18.4728L22.5406 17.7393H14.6084V18.4728Z" fill="#FFDA44"/>
<path d="M9.39122 17.7393H1.45898L9.39122 18.4728V17.7393Z" fill="#FFDA44"/>
<path d="M11.9996 0C10.9165 0 9.8673 0.144375 8.86914 0.413391V23.5867C9.8673 23.8556 10.9165 24 11.9996 24C13.0827 24 14.1319 23.8556 15.13 23.5866V0.413391C14.1319 0.144375 13.0827 0 11.9996 0V0Z" fill="#D80027"/>
<path d="M6.45438 2.60889L6.7781 3.60531H7.8259L6.9783 4.22115L7.30207 5.21757L6.45438 4.60178L5.60674 5.21757L5.9306 4.22115L5.08301 3.60531H6.13071L6.45438 2.60889Z" fill="#FFDA44"/>
</svg>
