<svg width="24" height="24" viewBox="0 0 24 24" fill="none" xmlns="http://www.w3.org/2000/svg">
<path d="M12 24C18.6274 24 24 18.6274 24 12C24 5.37258 18.6274 0 12 0C5.37258 0 0 5.37258 0 12C0 18.6274 5.37258 24 12 24Z" fill="#0052B4"/>
<path d="M12 24C18.6274 24 24 18.6274 24 12C24 5.37258 18.6274 0 12 0C5.37258 0 0 5.37258 0 12C0 18.6274 5.37258 24 12 24Z" fill="#FFDA44"/>
<path d="M12.0002 0C5.72438 0 0.574789 4.81786 0.0458984 10.9565H23.9545C23.4256 4.81786 18.276 0 12.0002 0Z" fill="#0052B4"/>
<path d="M12.0002 24C18.276 24 23.4256 19.1821 23.9545 13.0435H0.0458984C0.574789 19.1821 5.72438 24 12.0002 24Z" fill="#0052B4"/>
<path d="M9.91263 16.1739L8.56798 16.8064L9.28399 18.1086L7.82388 17.8293L7.63887 19.3043L6.62182 18.2195L5.60482 19.3043L5.41981 17.8293L3.95965 18.1086L4.67571 16.8063L3.33105 16.1739L4.67576 15.5414L3.95965 14.2392L5.41976 14.5185L5.60487 13.0435L6.62182 14.1283L7.63891 13.0435L7.82388 14.5185L9.28404 14.2392L8.56802 15.5414L9.91263 16.1739Z" fill="#F0F0F0"/>
</svg>
