<svg width="24" height="24" viewBox="0 0 24 24" fill="none" xmlns="http://www.w3.org/2000/svg">
<path d="M10.9565 13.0445C10.9565 13.0445 3.52162 3.51405 3.51465 3.51578C5.68627 1.34415 8.68627 0.000976562 12 0.000976562C18.6274 0.000976562 24 5.37353 24 12.001L10.9565 13.0445Z" fill="#D80027"/>
<path d="M10.9565 12.001C10.9565 12.001 3.52162 20.4881 3.51465 20.4862C5.6862 22.6578 8.6862 24.001 11.9999 24.001C18.6274 24.001 23.9999 18.6284 23.9999 12.001H10.9565Z" fill="#0052B4"/>
<path d="M3.51467 3.51562C-1.17156 8.20185 -1.17156 15.8 3.51467 20.4862C5.45124 18.5497 7.31372 16.6873 11.9999 12.001L3.51467 3.51562Z" fill="#F0F0F0"/>
<path d="M1.31466 12.002C1.30814 12.0882 1.30371 12.175 1.30371 12.2628C1.30371 14.1358 2.82201 15.6542 4.69499 15.6542C6.56796 15.6542 8.08634 14.1359 8.08634 12.2628C8.08634 12.175 8.08184 12.0881 8.07531 12.002H1.31466Z" fill="#FFDA44"/>
<path d="M4.69552 10.436C5.27165 10.436 5.73869 9.96891 5.73869 9.39278C5.73869 8.81665 5.27165 8.34961 4.69552 8.34961C4.11939 8.34961 3.65234 8.81665 3.65234 9.39278C3.65234 9.96891 4.11939 10.436 4.69552 10.436Z" fill="#FFDA44"/>
<path d="M2.34766 9.13184V12.5231C2.34766 14.3203 4.69553 14.871 4.69553 14.871C4.69553 14.871 7.04341 14.3203 7.04341 12.5231V9.13184H2.34766Z" fill="#D80027"/>
<path d="M4.69705 13.7784C4.26153 13.6217 3.3916 13.2212 3.3916 12.5227V10.1748H6.00025V12.5227C6.00025 13.2233 5.1304 13.6229 4.69705 13.7784Z" fill="#338AF3"/>
<path d="M5.21749 11.479V10.9573L4.69564 10.6963L4.17394 10.9573V11.479L3.91309 11.7398V12.7834H5.47834V11.7398L5.21749 11.479Z" fill="#F3F3F3"/>
</svg>
