<svg width="24" height="24" viewBox="0 0 24 24" fill="none" xmlns="http://www.w3.org/2000/svg">
<path d="M24 12C24 18.6274 18.6274 24 12 24C5.37262 24 0 18.6274 0 12C0 12.0029 12 0.0013125 12 0C18.6274 0 24 5.37262 24 12Z" fill="#0052B4"/>
<path d="M11.9678 11.9999H11.9999C11.9999 11.9891 11.9999 11.9786 11.9999 11.9678C11.9892 11.9785 11.9785 11.9892 11.9678 11.9999Z" fill="#F0F0F0"/>
<path d="M12 6.26086C12 4.14937 12 2.76586 12 0H11.998C5.37145 0.001125 0 5.37323 0 12H6.26086V8.47448L9.78638 12H11.9679C11.9786 11.9893 11.9893 11.9786 12 11.9679C12 11.1594 12 10.4381 12 9.78647L8.47444 6.26086H12Z" fill="#F0F0F0"/>
<path d="M6.07124 1.56543C4.19441 2.63413 2.63409 4.19441 1.56543 6.07124V12.0002H4.69588V4.69598V4.69588H12.0002C12.0002 3.70855 12.0002 2.76796 12.0002 1.56543H6.07124Z" fill="#D80027"/>
<path d="M11.9999 10.5247L7.73637 6.26123H6.26074V6.26132L11.9998 12.0003H11.9999C11.9999 12.0003 11.9999 10.9828 11.9999 10.5247Z" fill="#D80027"/>
<path d="M16.1738 12L16.3959 12.6832H17.1142L16.5331 13.1055L16.7551 13.7888L16.1738 13.3665L15.5926 13.7888L15.8146 13.1055L15.2334 12.6832H15.9518L16.1738 12Z" fill="#F0F0F0"/>
<path d="M13.2229 13.2224L13.863 13.5485L14.371 13.0405L14.2586 13.7501L14.8987 14.0763L14.1891 14.1886L14.0768 14.8983L13.7506 14.2581L13.041 14.3705L13.5491 13.8625L13.2229 13.2224Z" fill="#F0F0F0"/>
<path d="M12 16.1737L12.6832 15.9517L12.6833 15.2334L13.1055 15.8145L13.7888 15.5925L13.3665 16.1737L13.7888 16.755L13.1055 16.533L12.6833 17.1142V16.3958L12 16.1737Z" fill="#F0F0F0"/>
<path d="M13.2229 19.125L13.549 18.4849L13.041 17.977L13.7506 18.0893L14.0768 17.4492L14.1891 18.1588L14.8987 18.2711L14.2586 18.5973L14.371 19.307L13.863 18.7988L13.2229 19.125Z" fill="#F0F0F0"/>
<path d="M16.1738 20.3479L15.9518 19.6646H15.2334L15.8146 19.2423L15.5926 18.5591L16.1738 18.9813L16.7551 18.5591L16.5331 19.2423L17.1143 19.6646H16.3959L16.1738 20.3479Z" fill="#F0F0F0"/>
<path d="M19.125 19.125L18.4849 18.799L17.977 19.307L18.0893 18.5973L17.4492 18.2712L18.1588 18.1588L18.2712 17.4492L18.5973 18.0893L19.3069 17.977L18.7988 18.485L19.125 19.125Z" fill="#F0F0F0"/>
<path d="M20.3474 16.1737L19.6641 16.3958V17.1142L19.2418 16.533L18.5586 16.755L18.9809 16.1737L18.5586 15.5925L19.2418 15.8145L19.6641 15.2334V15.9517L20.3474 16.1737Z" fill="#F0F0F0"/>
<path d="M19.125 13.2224L18.799 13.8625L19.3069 14.3705L18.5973 14.2581L18.2712 14.8982L18.1588 14.1885L17.4492 14.0762L18.0893 13.7501L17.977 13.0405L18.485 13.5485L19.125 13.2224Z" fill="#F0F0F0"/>
</svg>
