<svg width="24" height="24" viewBox="0 0 24 24" fill="none" xmlns="http://www.w3.org/2000/svg">
<path d="M12 24C18.6274 24 24 18.6274 24 12C24 5.37258 18.6274 0 12 0C5.37258 0 0 5.37258 0 12C0 18.6274 5.37258 24 12 24Z" fill="#F0F0F0"/>
<path d="M0 11.9999C0 16.5484 2.53073 20.5056 6.26086 22.5408V1.45898C2.53073 3.49425 0 7.45139 0 11.9999Z" fill="#F0F0F0"/>
<path d="M11.9999 0C9.92098 0 7.96563 0.528891 6.26074 1.45908V22.5409C7.96563 23.4711 9.92098 24 11.9999 24C18.6273 24 23.9999 18.6274 23.9999 12C23.9999 5.37262 18.6273 0 11.9999 0Z" fill="#496E2D"/>
<path d="M17.1307 13.9845C15.6126 15.0814 13.4926 14.7399 12.3957 13.2219C11.2987 11.7037 11.6402 9.58374 13.1584 8.48687C13.6317 8.14487 14.1636 7.9427 14.7046 7.87243C13.6637 7.71676 12.5633 7.95132 11.6428 8.61643C9.77437 9.96653 9.35404 12.5756 10.7041 14.4442C12.0541 16.3126 14.6633 16.7329 16.5318 15.3827C17.4524 14.7176 18.0206 13.7467 18.1995 12.7094C17.963 13.2009 17.6041 13.6424 17.1307 13.9845Z" fill="#F0F0F0"/>
<path d="M17.0659 7.82617L17.9211 8.74778L19.0618 8.21941L18.4495 9.31741L19.3046 10.2391L18.0711 9.99606L17.4588 11.0942L17.3088 9.84588L16.0752 9.60283L17.216 9.07445L17.0659 7.82617Z" fill="#F0F0F0"/>
</svg>
