<svg width="24" height="24" viewBox="0 0 24 24" fill="none" xmlns="http://www.w3.org/2000/svg">
<path d="M12 24C18.6274 24 24 18.6274 24 12C24 5.37258 18.6274 0 12 0C5.37258 0 0 5.37258 0 12C0 18.6274 5.37258 24 12 24Z" fill="#F0F0F0"/>
<path d="M6.78223 16.1738L7.82571 23.2536C9.12565 23.736 10.5318 23.9999 11.9996 23.9999C17.1591 23.9999 21.5577 20.7434 23.2532 16.1738H6.78223Z" fill="black"/>
<path d="M6.78223 7.82611L7.82571 0.746297C9.12565 0.263906 10.5318 0 11.9996 0C17.1591 0 21.5577 3.2565 23.2532 7.82611H6.78223Z" fill="#6DA544"/>
<path d="M0 11.9997C0 17.1593 3.25655 21.5578 7.82611 23.2533V0.746094C3.25655 2.44161 0 6.84012 0 11.9997Z" fill="#A2001D"/>
</svg>
