<svg width="24" height="24" viewBox="0 0 24 24" fill="none" xmlns="http://www.w3.org/2000/svg">
<path d="M12 24C18.6274 24 24 18.6274 24 12C24 5.37258 18.6274 0 12 0C5.37258 0 0 5.37258 0 12C0 18.6274 5.37258 24 12 24Z" fill="#F0F0F0"/>
<path d="M11.9997 0C6.84013 0 2.44161 3.2565 0.746094 7.82611H23.2534C21.5578 3.2565 17.1593 0 11.9997 0Z" fill="#D80027"/>
<path d="M11.9997 23.9999C17.1593 23.9999 21.5578 20.7434 23.2533 16.1738H0.746094C2.44161 20.7434 6.84012 23.9999 11.9997 23.9999Z" fill="black"/>
<path d="M7.1697 9.13086L7.81718 11.1236H9.91263L8.2174 12.3554L8.86493 14.3482L7.1697 13.1166L5.47446 14.3482L6.12199 12.3554L4.42676 11.1236H6.52221L7.1697 9.13086Z" fill="#6DA544"/>
<path d="M16.8299 9.13086L17.4773 11.1236H19.5728L17.8776 12.3554L18.5251 14.3482L16.8299 13.1166L15.1346 14.3482L15.7821 12.3554L14.0869 11.1236H16.1824L16.8299 9.13086Z" fill="#6DA544"/>
</svg>
