<svg xmlns="http://www.w3.org/2000/svg" width="24" height="24" fill="none" viewBox="0 0 24 24">
    <path fill="currentColor" fill-rule="evenodd" d="M16.605 1h-9.21C5.283 1 3.832 3.126 4.602 5.093L4.957 6A3 3 0 0 0 2 9v11a3 3 0 0 0 3 3h14a3 3 0 0 0 3-3V9a3 3 0 0 0-2.957-3l.355-.907C20.168 3.126 18.718 1 16.605 1ZM7.058 3.581l.447-.334a1 1 0 0 1 1.51.386l1.525 3.356a1 1 0 0 1-.594 1.362l-.968.323a1 1 0 0 1-1.274-.661L6.7 4.669a1 1 0 0 1 .357-1.088Zm9.884 0-.447-.334a1 1 0 0 0-1.51.386L13.46 6.989a1 1 0 0 0 .594 1.362l.968.323a1 1 0 0 0 1.274-.661L17.3 4.669a1 1 0 0 0-.357-1.088ZM12 14a1.5 1.5 0 1 0 0-3 1.5 1.5 0 0 0 0 3Zm0 5a1.5 1.5 0 1 0 0-3 1.5 1.5 0 0 0 0 3Z" clip-rule="evenodd"/>
</svg>
