<svg xmlns="http://www.w3.org/2000/svg" width="24" height="24" fill="none" viewBox="0 0 24 24">
    <path fill="currentColor" d="M16.54 10.2a1 1 0 0 1 1-1h1.926l.522-3.048.001-.002a.76.76 0 0 0-.104-.53.84.84 0 0 0-.457-.355l-2.93-.953a4.6 4.6 0 0 1-1.188 1.95A4.74 4.74 0 0 1 12 7.6a4.74 4.74 0 0 1-3.31-1.338 4.6 4.6 0 0 1-1.188-1.95l-2.93.953a.84.84 0 0 0-.457.354.76.76 0 0 0-.104.531v.002L4.535 9.2H6.46a1 1 0 0 1 1 1v9c0 .414.36.8.847.8h7.386c.233 0 .45-.09.608-.243a.78.78 0 0 0 .239-.557zm2 9c0 .75-.306 1.466-.843 1.988a2.87 2.87 0 0 1-2.004.812H8.307c-1.544 0-2.847-1.234-2.847-2.8v-8h-.984c-.45 0-.889-.155-1.238-.443a1.9 1.9 0 0 1-.66-1.145l-.003.001-.535-3.122-.031-.25a2.76 2.76 0 0 1 .403-1.67c.354-.574.903-1 1.542-1.208L7.998 2.05a1 1 0 0 1 1.309.95c0 .682.278 1.34.78 1.83.503.49 1.19.77 1.913.77.722 0 1.41-.28 1.913-.77.502-.49.78-1.148.78-1.83a1 1 0 0 1 1.309-.95l4.044 1.314a2.84 2.84 0 0 1 1.542 1.207c.354.574.487 1.256.372 1.921l-.535 3.122h-.002a1.9 1.9 0 0 1-.661 1.144 1.94 1.94 0 0 1-1.238.442l-.984.001z"/>
</svg>
