<svg xmlns="http://www.w3.org/2000/svg" width="24" height="24" fill="none" viewBox="0 0 24 24">
            <path fill="currentColor" d="M4.825 12.025 8.7 15.9a.95.95 0 0 1 .275.7.95.95 0 0 1-.275.7.95.95 0 0 1-.7.275.95.95 0 0 1-.7-.275l-4.6-4.6a.9.9 0 0 1-.212-.325A1.1 1.1 0 0 1 2.425 12q0-.2.063-.375A.9.9 0 0 1 2.7 11.3l4.6-4.6q.3-.3.713-.3.412 0 .712.3t.3.713-.3.712zm14.35-.05L15.3 8.1a.95.95 0 0 1-.275-.7q0-.425.275-.7a.95.95 0 0 1 .7-.275q.425 0 .7.275l4.6 4.6q.15.15.212.325.063.175.163.375t-.062.375a.9.9 0 0 1-.213.325l-4.6 4.6q-.3.3-.7.287a1 1 0 0 1-.7-.312q-.3-.3-.3-.712 0-.413.3-.713z"/>
</svg>
