<svg xmlns="http://www.w3.org/2000/svg" width="24" height="24" fill="none" viewBox="0 0 24 24">
    <path fill="currentColor" d="M13.893 2a1 1 0 0 1 .976.805c.425 2.127 1.71 4.196 3.423 5.57 2.067 1.658 3.207 3.723 3.208 5.984l-.004.282a7.6 7.6 0 0 1-1.26 3.955 7.6 7.6 0 0 1-3.404 2.817 7.58 7.58 0 0 1-8.288-1.637 1 1 0 0 1 1.415-1.414 5.577 5.577 0 0 0 6.102 1.205 5.6 5.6 0 0 0 2.506-2.075 5.6 5.6 0 0 0 .933-3.125v-.004c0-1.524-.75-3.056-2.459-4.427a11.9 11.9 0 0 1-3.154-3.925q-.234.466-.51.909a1 1 0 0 1-1.696-1.06 9.4 9.4 0 0 0 1.23-3.064l.02-.085A1 1 0 0 1 13.894 2m-3.837 9.74c0-.735-.35-1.512-1.248-2.247a7.3 7.3 0 0 1-1.528-1.73A7.1 7.1 0 0 1 5.74 9.5c-.893.716-1.24 1.507-1.24 2.241 0 1.565 1.267 2.835 2.777 2.835s2.779-1.27 2.779-2.835m2 0c0 2.64-2.133 4.835-4.779 4.835S2.5 14.38 2.5 11.74c0-1.444.71-2.774 1.99-3.8a5.24 5.24 0 0 0 1.807-2.977 1 1 0 0 1 1.962 0c.226 1.135.909 2.242 1.814 2.982 1.255 1.027 1.983 2.334 1.983 3.795"/>
</svg>
