<svg xmlns="http://www.w3.org/2000/svg" width="24" height="24" fill="none" viewBox="0 0 24 24">
    <path fill="currentColor" fill-rule="evenodd" d="M22.117 1.884a3.015 3.015 0 0 0-4.265 0l-2.38 2.381-1.778-1.778a1.508 1.508 0 1 0-2.133 2.134l1.067 1.066-11.04 11.036A2 2 0 0 0 1 18.145v3.85C1 22.55 1.45 23 2.005 23h3.849a2 2 0 0 0 1.422-.589l11.038-11.036 1.067 1.067a1.507 1.507 0 1 0 2.132-2.133L19.736 8.53l2.38-2.381a3.017 3.017 0 0 0 0-4.266M6.2 14.956l7.848-7.847 2.844 2.844-5.004 5.003z" clip-rule="evenodd"/>
</svg>
