<svg xmlns="http://www.w3.org/2000/svg" width="24" height="24" fill="none" viewBox="0 0 24 24">
    <path fill="currentColor" d="M20 4.907a.908.908 0 0 0-1.549-.641l-3.056 3.056a1 1 0 0 1-1.415 0l-.359-.36a.908.908 0 0 0-1.283 1.284l3.416 3.416a.91.91 0 0 0 1.48-.294.91.91 0 0 0-.197-.99l-.36-.358a1 1 0 0 1 0-1.415l3.057-3.056A.9.9 0 0 0 20 4.907M4.9 19.101h.952l.079-.004a.8.8 0 0 0 .485-.23l6.857-6.857-1.283-1.283-6.857 6.857a.8.8 0 0 0-.234.564zM22 4.907c0 .771-.306 1.51-.852 2.056l-2.381 2.38c.124.177.232.365.315.565a2.908 2.908 0 0 1-3.799 3.798 3 3 0 0 1-.564-.314l-6.889 6.89a2.8 2.8 0 0 1-1.978.819H4.644a.8.8 0 0 0-.565.234l-.372.372a1 1 0 1 1-1.414-1.414l.372-.372a.8.8 0 0 0 .234-.565v-1.208c0-.741.295-1.453.82-1.978l6.888-6.89a2.904 2.904 0 0 1 4.048-4.048l2.382-2.38A2.908 2.908 0 0 1 22 4.907"/>
</svg>
