<svg width="24" height="24" viewBox="0 0 24 24" fill="none" xmlns="http://www.w3.org/2000/svg">
<path fill-rule="evenodd" clip-rule="evenodd" d="M12 23C6.75772 23 2.62498 18.4099 3.02704 13.0341L3.0622 12.5641C3.18625 10.9055 3.84021 9.33562 4.9222 8.09915L10.5553 1.66176C10.9413 1.22059 11.4707 0.999999 12 1C12.0041 1 12.0083 1.00001 12.0124 1.00004C12.5376 1.00346 13.0617 1.22403 13.4447 1.66176L19.0778 8.09915C19.2131 8.2537 19.3416 8.41347 19.4633 8.57797C20.315 9.72946 20.8293 11.1128 20.9378 12.5641L20.973 13.0341C20.9745 13.0551 20.976 13.0761 20.9775 13.0971C21.3427 18.4457 17.2218 23 12 23ZM12 21.0009C7.88993 21.0009 4.64975 17.4022 4.96498 13.1874L5.00014 12.7174C5.09129 11.4986 5.57184 10.345 6.36691 9.43645L12 2.99906V21.0009Z" fill="currentColor"/>
</svg>
