<svg width="24" height="24" viewBox="0 0 24 24" fill="none" xmlns="http://www.w3.org/2000/svg">
<path fill-rule="evenodd" clip-rule="evenodd" d="M22.1167 1.88354C20.9389 0.705467 19.0295 0.705467 17.8517 1.88354L15.4711 4.265L13.6939 2.4874C13.105 1.89836 12.1503 1.89836 11.5614 2.4874C10.9725 3.07643 10.9725 4.03147 11.5614 4.62051L12.6277 5.68706L1.5889 16.7227C1.2118 17.0999 1 17.6114 1 18.1448V21.9944C1 22.5498 1.45011 23 2.00527 23H5.8538C6.38711 23 6.89846 22.7881 7.27556 22.411L18.3143 11.3753L19.3806 12.4418C19.9695 13.0309 20.9242 13.0309 21.5131 12.4418C22.1019 11.8528 22.1019 10.8978 21.5131 10.3088L19.736 8.53119L22.1167 6.14973C23.2944 4.97166 23.2944 3.06161 22.1167 1.88354ZM6.20108 14.9557L14.0494 7.10916L16.8927 9.95329L11.8893 14.9557H6.20108Z" fill="#0F131A"/>
</svg>
