<svg xmlns="http://www.w3.org/2000/svg" width="24" height="24" fill="none" viewBox="0 0 24 24">
    <path fill="currentColor" d="M12.8 17.333a.77.77 0 0 0-.23-.545.81.81 0 0 0-1.14 0 .77.77 0 0 0-.23.545V19h1.6zm1-6.333a1 1 0 1 1 0 2h-3.6a1 1 0 1 1 0-2zm0-3.556a1 1 0 0 1 0 2h-3.6a1 1 0 1 1 0-2zM20 9.333a.77.77 0 0 0-.23-.545.81.81 0 0 0-.57-.232h-.8V19h.8a.81.81 0 0 0 .57-.232.77.77 0 0 0 .23-.545zm-16 8.89c0 .202.081.398.23.545s.354.232.57.232h.8v-7.777h-.8a.8.8 0 0 0-.57.231A.77.77 0 0 0 4 12zM16.4 5.777a.77.77 0 0 0-.23-.545A.8.8 0 0 0 15.6 5H8.4a.8.8 0 0 0-.57.232.77.77 0 0 0-.23.545V19h1.6v-1.667c0-.74.298-1.448.824-1.968a2.81 2.81 0 0 1 3.952 0c.526.52.824 1.228.824 1.968V19h1.6zm2 .779h.8c.739 0 1.45.29 1.976.81S22 8.592 22 9.332v8.89c0 .74-.298 1.448-.824 1.967S19.939 21 19.2 21H4.8c-.739 0-1.45-.29-1.976-.81A2.77 2.77 0 0 1 2 18.223V12c0-.74.298-1.449.824-1.969A2.8 2.8 0 0 1 4.8 9.223h.8V5.777c0-.74.298-1.448.825-1.967A2.8 2.8 0 0 1 8.4 3h7.2c.738 0 1.45.29 1.975.81.527.52.825 1.227.825 1.967z"/>
</svg>
