<svg width="24" height="24" viewBox="0 0 24 24" fill="none" xmlns="http://www.w3.org/2000/svg">
    <path d="M23 11v10a2.006 2.006 0 0 1-2 2h-2V8h1a3.01 3.01 0 0 1 3 3zm-6-7v17a2.006 2.006 0 0 1-2 2h-3a1 1 0 0 1-1-1v-4a1 1 0 0 0-1-1H8a1 1 0 0 0-1 1v4a1 1 0 0 1-1 1H3a2.006 2.006 0 0 1-2-2V4a3.009 3.009 0 0 1 3-3h10a3.01 3.01 0 0 1 3 3zm-9 7a1 1 0 1 0-2 0v1a1 1 0 1 0 2 0v-1zm0-5a1 1 0 0 0-2 0v1a1 1 0 0 0 2 0V6zm4 5a1 1 0 0 0-2 0v1a1 1 0 0 0 2 0v-1zm0-5a1 1 0 0 0-2 0v1a1 1 0 0 0 2 0V6z" fill="#000"/>
</svg>
