<svg xmlns="http://www.w3.org/2000/svg" width="24" height="24" fill="none" viewBox="0 0 24 24">
    <path fill="#201D1D" d="M0 1.33 24 0v24H0V1.33Z"/>
    <path fill="#D90062" fill-rule="evenodd" d="M1.33 2.6v20.07h21.34V1.4L1.33 2.59ZM0 1.32V24h24V0L0 1.33Z" clip-rule="evenodd"/>
    <path fill="#fff" d="M13.35 10.4c-.1-.44-.26-.84-.5-1.18a3.53 3.53 0 0 0-1.93-1.42 4.48 4.48 0 0 0-3.3.24c-.57.29-1.05.68-1.42 1.16a5.02 5.02 0 0 0-.8 1.62 6.88 6.88 0 0 0 0 3.71 4.15 4.15 0 0 0 4.27 3.21 3.59 3.59 0 0 0 2.68-1.08c.32-.33.58-.72.79-1.16.2-.45.33-.94.38-1.45h1.15a6.02 6.02 0 0 1-.52 1.92 4.44 4.44 0 0 1-2.56 2.37c-.57.22-1.21.33-1.92.33a5.24 5.24 0 0 1-5.32-3.71 7.3 7.3 0 0 1 0-4.56c.24-.72.6-1.36 1.06-1.9.47-.57 1.06-1.01 1.77-1.33.72-.34 1.55-.5 2.49-.5.57 0 1.13.08 1.67.24a4.7 4.7 0 0 1 2.59 1.89c.3.46.49 1 .57 1.6h-1.15ZM16 17.33h1.33v1.34H16v-1.34Zm2.67 0H20v1.34h-1.33v-1.34Z"/>
</svg>
