<svg xmlns="http://www.w3.org/2000/svg" width="69" height="24" fill="none" viewBox="0 0 69 24">
    <path fill="#000" stroke="#DE006E" stroke-width=".71" d="M2.355 23.164V5.79l64.29-4.41v21.784z"/>
    <path fill="#fff" d="M25.398 9.005h1.02l5.578 8.1h.027v-8.1h.912v9.576h-1.02l-5.578-8.1h-.027v8.1h-.912zm25.458 2.897a2.9 2.9 0 0 0-.403-.979 2.5 2.5 0 0 0-.67-.737 2.8 2.8 0 0 0-.872-.443 3 3 0 0 0-.992-.16q-.952 0-1.637.361a3.3 3.3 0 0 0-1.126.966q-.43.59-.644 1.34a6.04 6.04 0 0 0 0 3.085q.215.752.644 1.355.442.59 1.126.952t1.637.362q.67 0 1.207-.241a2.9 2.9 0 0 0 .925-.657 3.4 3.4 0 0 0 .63-.966q.242-.563.309-1.207h.912a5.2 5.2 0 0 1-.416 1.596 3.9 3.9 0 0 1-.832 1.207q-.51.497-1.207.765a4.2 4.2 0 0 1-1.529.268q-1.125 0-1.984-.402a4.2 4.2 0 0 1-1.409-1.1 4.7 4.7 0 0 1-.844-1.583 6.3 6.3 0 0 1-.282-1.89q0-.993.282-1.892t.844-1.582a4 4 0 0 1 1.409-1.1q.858-.416 1.985-.416.683 0 1.327.201.657.202 1.18.604.537.39.886.966.36.577.456 1.327zm2.871 3.528q-.014.736.228 1.233.24.497.657.791.429.295 1.006.43.576.12 1.234.12.375 0 .818-.107t.818-.335q.39-.241.644-.604.255-.375.255-.898 0-.402-.188-.698a1.55 1.55 0 0 0-.47-.496 2.5 2.5 0 0 0-.63-.322 5 5 0 0 0-.684-.214l-2.132-.523a7 7 0 0 1-.818-.269 2.3 2.3 0 0 1-.684-.429 2.1 2.1 0 0 1-.483-.657q-.175-.39-.175-.952 0-.349.135-.818.133-.47.496-.885.375-.416 1.019-.698.644-.294 1.65-.295.71 0 1.354.188t1.127.563.764.939q.295.55.295 1.287h-.912a2.1 2.1 0 0 0-.255-.952 1.95 1.95 0 0 0-.576-.684 2.3 2.3 0 0 0-.818-.415 3.1 3.1 0 0 0-.966-.148q-.47 0-.912.107-.429.094-.764.322a1.6 1.6 0 0 0-.523.577q-.202.361-.202.899 0 .335.108.59.12.241.322.415.201.174.455.282.27.108.564.174l2.333.577q.51.135.953.335.456.188.79.483.35.282.537.697.201.417.201 1.006 0 .161-.04.43a2 2 0 0 1-.16.576q-.121.295-.363.604a2.2 2.2 0 0 1-.643.563q-.403.24-1.006.389-.605.16-1.449.16a6.2 6.2 0 0 1-1.569-.187 3.5 3.5 0 0 1-1.234-.603 2.7 2.7 0 0 1-.791-1.033q-.269-.63-.228-1.516z"/>
    <path fill="#DE006E" d="M13.17 11.902a2.9 2.9 0 0 0-.402-.979 2.5 2.5 0 0 0-.67-.737 2.8 2.8 0 0 0-.872-.443 3 3 0 0 0-.993-.16q-.951 0-1.636.361a3.3 3.3 0 0 0-1.126.966q-.43.59-.644 1.34a6.04 6.04 0 0 0 0 3.085q.215.752.644 1.355.442.59 1.126.952t1.636.362q.671 0 1.207-.241a2.9 2.9 0 0 0 .926-.657 3.4 3.4 0 0 0 .63-.966q.242-.563.309-1.207h.912a5.2 5.2 0 0 1-.416 1.596 3.9 3.9 0 0 1-.832 1.207q-.51.497-1.207.765a4.2 4.2 0 0 1-1.529.268q-1.125 0-1.985-.402a4.2 4.2 0 0 1-1.408-1.1 4.7 4.7 0 0 1-.845-1.583 6.3 6.3 0 0 1-.281-1.89q0-.993.281-1.892t.845-1.582a4 4 0 0 1 1.408-1.1q.859-.416 1.985-.416.684 0 1.328.201.658.202 1.18.604.537.39.885.966.363.577.456 1.327zm2.731 1.891q0 .778.202 1.543.214.75.643 1.354.442.59 1.127.952.684.362 1.636.362.953 0 1.623-.362a3.2 3.2 0 0 0 1.113-.952q.443-.603.644-1.355a5.7 5.7 0 0 0 0-3.084 3.9 3.9 0 0 0-.644-1.341 3.15 3.15 0 0 0-1.113-.966q-.67-.362-1.623-.362-.952 0-1.636.362a3.3 3.3 0 0 0-1.127.966q-.429.59-.643 1.34a6 6 0 0 0-.202 1.543m-.912 0q0-.992.282-1.89.282-.9.845-1.583a4 4 0 0 1 1.408-1.1q.858-.416 1.985-.416t1.971.416a4 4 0 0 1 1.409 1.1q.563.684.845 1.582.28.9.281 1.891 0 .993-.281 1.891-.282.9-.845 1.583a4.2 4.2 0 0 1-1.408 1.1q-.845.402-1.972.402t-1.985-.402a4.2 4.2 0 0 1-1.408-1.1 4.7 4.7 0 0 1-.845-1.583 6.3 6.3 0 0 1-.282-1.89"/>
    <path fill="#fff" d="M42.153 9.015h-6.775v.777h5.84v3.457h-5.47v.777h5.47v3.778H35.31v.777h6.844zm17.521 10.784h1.817v1.817h-1.817zm3.521 0h1.817v1.817h-1.817z"/>
</svg>
