<svg xmlns="http://www.w3.org/2000/svg" width="32" height="24" fill="none" viewBox="0 0 32 24">
    <rect width="32" height="24" fill="#fff" rx="4"/>
    <rect width="31" height="23" x=".5" y=".5" fill="#fff" stroke="#ccc" rx="3.5"/>
    <path fill="#201d1d" d="m7 4 18-1v18H7z"/>
    <path fill="#d90062" fill-rule="evenodd" d="M8 4.946V20h16V4.057zM7 4v17h18V3z" clip-rule="evenodd"/>
    <path fill="#fff" fill-rule="evenodd" d="M17.016 10.798a2.6 2.6 0 0 0-.379-.884 2.3 2.3 0 0 0-.63-.666 2.7 2.7 0 0 0-.82-.4 3 3 0 0 0-.934-.146q-.896 0-1.54.327a3.05 3.05 0 0 0-1.06.873q-.404.533-.606 1.21-.189.68-.189 1.394 0 .702.19 1.393.201.678.605 1.223.417.534 1.06.86.644.327 1.54.327.63 0 1.135-.218t.87-.593q.367-.375.594-.872.227-.51.29-1.09H18a4.5 4.5 0 0 1-.391 1.441 3.5 3.5 0 0 1-.782 1.09 3.3 3.3 0 0 1-1.136.69 4 4 0 0 1-1.439.243q-1.06 0-1.867-.363a3.9 3.9 0 0 1-1.325-.994 4.1 4.1 0 0 1-.795-1.43A5.5 5.5 0 0 1 10 12.507q0-.897.265-1.708a4.1 4.1 0 0 1 .795-1.43q.53-.63 1.325-.993Q13.192 8 14.252 8q.645 0 1.25.182.618.18 1.11.545a3 3 0 0 1 .833.872q.34.52.429 1.199zM19 16h1v1h-1zm3 0h-1v1h1z" clip-rule="evenodd"/>
</svg>
