<svg xmlns="http://www.w3.org/2000/svg" width="32" height="24" fill="none" viewBox="0 0 32 24">
    <rect width="31" height="23" x=".5" y=".5" fill="#fff" stroke="#CCC" rx="3.5"/>
    <path fill="#201D1D" d="m7 4 18-1v18H7z"/>
    <path fill="#D90062" fill-rule="evenodd" d="M8 4.95V20h16V4.06zM7 4v17h18V3z" clip-rule="evenodd"/>
    <path fill="#fff" fill-rule="evenodd" d="M17.02 10.8c-.08-.33-.2-.63-.38-.89a2.64 2.64 0 0 0-1.45-1.07c-.3-.09-.61-.14-.94-.14-.6 0-1.1.11-1.54.33-.43.22-.78.5-1.06.87-.27.36-.47.76-.6 1.21a5.16 5.16 0 0 0 0 2.79 3.11 3.11 0 0 0 3.2 2.41 2.7 2.7 0 0 0 2-.81q.375-.375.6-.87c.15-.34.25-.7.3-1.1H18a4.5 4.5 0 0 1-.4 1.45 3.33 3.33 0 0 1-1.92 1.78c-.42.16-.9.24-1.43.24a3.93 3.93 0 0 1-3.99-2.79 5.47 5.47 0 0 1 0-3.41c.18-.54.45-1.02.8-1.43.35-.42.8-.75 1.32-1A4.4 4.4 0 0 1 14.25 8c.43 0 .85.06 1.25.18a3.53 3.53 0 0 1 1.94 1.42c.23.35.37.75.43 1.2zM19 16h1v1h-1zm3 0h-1v1h1z" clip-rule="evenodd"/>
</svg>
