<svg xmlns="http://www.w3.org/2000/svg" width="92" height="32" fill="none" viewBox="0 0 92 32">
    <g clip-path="url(#conecs_32_svg__a)">
        <path fill="#000" stroke="#DE006E" stroke-width=".947" d="M3.64 31.869V8.704l85.72-5.88V31.87z"/>
        <path fill="#fff" d="M34.364 12.988h1.359l7.439 10.8h.035v-10.8h1.216v12.768h-1.359l-7.438-10.8h-.036v10.8h-1.216zM68.307 16.853a3.9 3.9 0 0 0-.536-1.305 3.4 3.4 0 0 0-.894-.983 3.7 3.7 0 0 0-1.162-.59 4 4 0 0 0-1.324-.215q-1.269 0-2.181.483a4.4 4.4 0 0 0-1.502 1.287 5.7 5.7 0 0 0-.859 1.788 8.05 8.05 0 0 0 0 4.113q.286 1.002.858 1.806.591.787 1.503 1.27t2.181.483a3.9 3.9 0 0 0 1.61-.322 3.8 3.8 0 0 0 1.233-.876q.519-.556.84-1.288.323-.75.412-1.61h1.216a6.9 6.9 0 0 1-.554 2.129 5.2 5.2 0 0 1-1.109 1.609 4.7 4.7 0 0 1-1.61 1.02q-.911.357-2.038.357-1.501 0-2.646-.537a5.6 5.6 0 0 1-1.878-1.466 6.2 6.2 0 0 1-1.126-2.11 8.4 8.4 0 0 1-.376-2.521q0-1.324.376-2.522a6.2 6.2 0 0 1 1.126-2.11 5.3 5.3 0 0 1 1.878-1.466q1.145-.554 2.646-.554.912 0 1.77.268a4.9 4.9 0 0 1 1.574.805q.715.518 1.18 1.287.483.77.608 1.77zM72.136 21.556q-.017.984.304 1.645.323.662.876 1.055.573.394 1.341.573a8 8 0 0 0 1.645.16q.501 0 1.091-.143a3.8 3.8 0 0 0 1.091-.447 2.9 2.9 0 0 0 .858-.804q.34-.5.34-1.198 0-.537-.25-.93a2.1 2.1 0 0 0-.626-.662 3.3 3.3 0 0 0-.84-.429 7 7 0 0 0-.913-.286l-2.843-.698a9 9 0 0 1-1.09-.357 3.1 3.1 0 0 1-.913-.572 2.8 2.8 0 0 1-.643-.876q-.233-.52-.233-1.27 0-.465.179-1.09.18-.627.662-1.181.501-.555 1.359-.93.858-.393 2.2-.393a6.4 6.4 0 0 1 1.805.25 4.5 4.5 0 0 1 1.502.751q.645.5 1.02 1.252.393.732.393 1.716h-1.216q-.036-.733-.34-1.27a2.6 2.6 0 0 0-.769-.911 3 3 0 0 0-1.09-.554 4.2 4.2 0 0 0-1.288-.197 5.1 5.1 0 0 0-1.216.143 2.9 2.9 0 0 0-1.02.429q-.428.286-.697.769-.267.483-.268 1.198 0 .447.143.787.161.322.43.554.267.232.607.376.359.143.751.232l3.112.77q.68.177 1.27.446a3.7 3.7 0 0 1 1.055.644q.465.375.715.93.267.554.268 1.34 0 .216-.054.573a2.6 2.6 0 0 1-.214.769q-.161.393-.483.805-.305.411-.858.75-.537.322-1.341.52-.805.213-1.932.214a8.3 8.3 0 0 1-2.092-.25q-.966-.27-1.645-.805a3.6 3.6 0 0 1-1.055-1.377q-.358-.84-.304-2.02z"/>
        <path fill="#DE006E" d="M18.06 16.853a3.9 3.9 0 0 0-.536-1.305 3.4 3.4 0 0 0-.894-.983 3.7 3.7 0 0 0-1.162-.59 4 4 0 0 0-1.323-.215q-1.27 0-2.182.483a4.4 4.4 0 0 0-1.502 1.287 5.7 5.7 0 0 0-.859 1.788 8.049 8.049 0 0 0 0 4.113q.286 1.002.859 1.806.59.787 1.502 1.27t2.182.483a3.9 3.9 0 0 0 1.609-.322 3.8 3.8 0 0 0 1.234-.876q.518-.556.84-1.288.323-.75.411-1.61h1.216a6.9 6.9 0 0 1-.554 2.129 5.2 5.2 0 0 1-1.109 1.609q-.68.66-1.609 1.02-.913.357-2.038.357-1.503 0-2.647-.537a5.6 5.6 0 0 1-1.878-1.466 6.2 6.2 0 0 1-1.126-2.11 8.4 8.4 0 0 1-.376-2.521q0-1.324.376-2.522a6.2 6.2 0 0 1 1.126-2.11 5.3 5.3 0 0 1 1.878-1.466q1.144-.554 2.647-.554.91 0 1.77.268a4.9 4.9 0 0 1 1.573.805q.715.518 1.18 1.287.483.77.608 1.77zM21.702 19.375q0 1.037.268 2.056.286 1.002.858 1.806.591.787 1.503 1.27t2.181.483 2.164-.483a4.3 4.3 0 0 0 1.484-1.27q.59-.804.858-1.806.286-1.02.286-2.056 0-1.056-.286-2.057a5.2 5.2 0 0 0-.858-1.788 4.2 4.2 0 0 0-1.484-1.287q-.894-.483-2.164-.483-1.269 0-2.181.483a4.4 4.4 0 0 0-1.503 1.287 5.7 5.7 0 0 0-.858 1.788 8 8 0 0 0-.268 2.057m-1.216 0q0-1.324.375-2.522a6.2 6.2 0 0 1 1.127-2.11 5.3 5.3 0 0 1 1.878-1.466q1.144-.554 2.646-.554t2.629.554a5.3 5.3 0 0 1 1.877 1.466q.752.912 1.127 2.11.375 1.2.375 2.522 0 1.323-.375 2.521a6.2 6.2 0 0 1-1.127 2.11 5.6 5.6 0 0 1-1.877 1.466q-1.127.537-2.629.537t-2.646-.537a5.6 5.6 0 0 1-1.878-1.466 6.2 6.2 0 0 1-1.127-2.11 8.4 8.4 0 0 1-.375-2.521"/>
        <path fill="#fff" d="M56.703 13.004H47.67v1.036h7.787v4.609h-7.292v1.036h7.292v5.038H47.58v1.036h9.124zM82.488 27.383h-2.423v2.423h2.423zM87.183 27.383H84.76v2.423h2.423z"/>
    </g>
    <defs>
        <clipPath id="conecs_32_svg__a">
            <path fill="#fff" d="M.5.984h92v32H.5z"/>
        </clipPath>
    </defs>
</svg>
