<svg width="24" height="24" viewBox="0 0 24 24" fill="none" xmlns="http://www.w3.org/2000/svg">
<path d="M12 2C17.5228 2 22 6.47715 22 12C22 17.5228 17.5228 22 12 22C6.47715 22 2 17.5228 2 12C2 6.47715 6.47715 2 12 2ZM16.3848 8.86621C15.8966 8.37809 15.1054 8.37803 14.6172 8.86621L11 12.4824L9.63379 11.1162C9.14559 10.6281 8.35438 10.6281 7.86621 11.1162C7.37817 11.6044 7.37817 12.3956 7.86621 12.8838L10.1162 15.1338C10.6044 15.6219 11.3956 15.6219 11.8838 15.1338L16.3848 10.6338C16.8729 10.1457 16.8727 9.35444 16.3848 8.86621Z" fill="currentColor"/>
</svg>
