<svg width="16" height="16" viewBox="0 0 16 16" fill="none" xmlns="http://www.w3.org/2000/svg">
<path d="M8 1.25C11.7279 1.25 14.75 4.27208 14.75 8C14.75 11.7279 11.7279 14.75 8 14.75C4.27208 14.75 1.25 11.7279 1.25 8C1.25 4.27208 4.27208 1.25 8 1.25ZM10.8171 6C10.4829 5.66609 9.94115 5.66598 9.60704 6L7.4733 8.13263L6.71005 7.36938C6.37593 7.03529 5.83419 7.0354 5.5 7.36938C5.16582 7.70356 5.16584 8.24525 5.5 8.57944L6.86939 9.94882C7.02983 10.1091 7.24761 10.1995 7.47441 10.1995C7.70118 10.1994 7.91908 10.1092 8.07944 9.94882L10.8171 7.21005C11.1512 6.87586 11.1512 6.33415 10.8171 6Z" fill="currentColor"/>
</svg>
