<svg xmlns="http://www.w3.org/2000/svg" width="24" height="24" fill="none" viewBox="0 0 24 24">
    <path fill="currentColor" d="M14.106 2.269a6.1 6.1 0 0 1 3.407-.051h-.001c1.243.342 1.344 1.79.63 2.507l-2.53 2.527 1.135 1.135 2.528-2.527c.718-.718 2.167-.611 2.507.628l.054.21a6.098 6.098 0 0 1-7.788 7.216L7.784 20.18a2.804 2.804 0 0 1-3.963-3.964l6.264-6.265a6.1 6.1 0 0 1 4.021-7.682M5 18.197a.803.803 0 0 0 1.31.622l.06-.054 6.722-6.722.117-.1a1 1 0 0 1 1.002-.104 4.1 4.1 0 0 0 5.608-2.531c.134-.436.191-.888.176-1.34l-1.952 1.953a1.85 1.85 0 0 1-2.59 0l-.008-.007-1.366-1.367a1.85 1.85 0 0 1 0-2.59l1.953-1.953a4.097 4.097 0 0 0-3.87 5.785 1 1 0 0 1-.205 1.12L5.235 17.63a.8.8 0 0 0-.235.567"/>
</svg>
