<svg xmlns="http://www.w3.org/2000/svg" width="24" height="24" fill="none" viewBox="0 0 24 24">
    <path fill="currentColor" d="M12.75 8.4c0-.468-.362-.8-.75-.8s-.75.332-.75.8c0 .44.318.758.678.796L12 9.2l.072-.004c.36-.038.678-.356.678-.796M6 18.75c0 .34.132.661.357.894.225.231.525.356.83.356H18v-2.5H7.188c-.306 0-.606.125-.83.356A1.28 1.28 0 0 0 6 18.75M14.75 8.4c0 .591-.184 1.145-.498 1.602q.169.136.321.292a3.74 3.74 0 0 1 1.052 2.606 1 1 0 0 1-2 0c0-.46-.177-.896-.485-1.213A1.6 1.6 0 0 0 12 11.2a1.6 1.6 0 0 0-1.14.488 1.74 1.74 0 0 0-.485 1.212 1 1 0 0 1-2 0 3.74 3.74 0 0 1 1.372-2.898A2.83 2.83 0 0 1 9.25 8.4c0-1.52 1.205-2.8 2.75-2.8s2.75 1.28 2.75 2.8M6 15.734a3.1 3.1 0 0 1 1.188-.234H18V4H7.188c-.306 0-.606.125-.83.356A1.28 1.28 0 0 0 6 5.25zM20 20.1c0 .494-.19.975-.54 1.334-.348.359-.829.566-1.335.566H7.188c-.855 0-1.669-.35-2.264-.962A3.28 3.28 0 0 1 4 18.75V5.25c0-.853.33-1.677.924-2.288A3.16 3.16 0 0 1 7.187 2h10.938c.443 0 .866.159 1.2.44l.136.126.123.14c.27.339.416.761.416 1.194z"/>
</svg>
