<svg xmlns="http://www.w3.org/2000/svg" width="16" height="16" fill="none" viewBox="0 0 16 16">
    <path fill="currentColor" d="M9.345.468a4.95 4.95 0 0 1 2.763-.041c.96.264 1.042 1.384.486 1.941l-2.135 2.133 1.039 1.04 2.134-2.133c.558-.56 1.679-.473 1.941.485l.081.341a4.95 4.95 0 0 1-4.157 5.87 4.95 4.95 0 0 1-2.241-.202l-5.192 5.194a2.235 2.235 0 0 1-3.16-3.16l5.193-5.194a4.95 4.95 0 0 1-.2-2.239A4.95 4.95 0 0 1 9.344.468M1.75 13.516a.735.735 0 0 0 1.254.52l5.535-5.537a.75.75 0 0 1 .84-.152 3.45 3.45 0 0 0 4.72-2.131 3.5 3.5 0 0 0 .137-1.292l-1.723 1.724a1.45 1.45 0 0 1-2.03 0l-1.13-1.131a1.45 1.45 0 0 1-.408-.873l-.007-.142.007-.142a1.45 1.45 0 0 1 .408-.873l1.724-1.723a3.5 3.5 0 0 0-1.292.137 3.45 3.45 0 0 0-2.403 2.813 3.45 3.45 0 0 0 .272 1.907.75.75 0 0 1-.153.84l-5.536 5.535a.74.74 0 0 0-.215.52"/>
</svg>
