<svg xmlns="http://www.w3.org/2000/svg" width="24" height="24" fill="none" viewBox="0 0 24 24">
    <path fill="currentColor" fill-rule="evenodd" d="M22.969 14.82c.212-.76-.695-1.374-1.484-1.374a3.443 3.443 0 0 1-3.443-3.443.044.044 0 0 0-.052-.043q-.27.043-.55.043a3.443 3.443 0 0 1-3.4-3.993.044.044 0 0 0-.043-.052 3.443 3.443 0 0 1-3.443-3.443c0-.789-.614-1.696-1.374-1.484C4.462 2.345 1 6.674 1 11.811 1 17.99 6.01 23 12.189 23c5.137 0 9.465-3.462 10.78-8.18M7.025 9.25a1.25 1.25 0 1 0 0-2.5 1.25 1.25 0 0 0 0 2.5M9 14a2 2 0 1 1-4 0 2 2 0 0 1 4 0m2 6.25a1.25 1.25 0 1 0 0-2.5 1.25 1.25 0 0 0 0 2.5m5-4.75a1.5 1.5 0 1 1-3 0 1.5 1.5 0 0 1 3 0" clip-rule="evenodd"/>
</svg>
