<svg xmlns="http://www.w3.org/2000/svg" width="24" height="24" fill="none" viewBox="0 0 24 24">
    <path fill="currentColor" d="M12 2a1 1 0 0 1 .956 1.294 2.6 2.6 0 0 0 1.858 3.289c.46.114.94.1 1.392-.04a1 1 0 0 1 1.25 1.25 2.6 2.6 0 0 0 1.858 3.29c.46.114.94.1 1.392-.04A1 1 0 0 1 22 12 10 10 0 1 1 12 2m-1.157 2.084a8 8 0 1 0 9.072 9.072 4.6 4.6 0 0 1-4.438-3.488 4.6 4.6 0 0 1-.133-1.013q-.512-.009-1.012-.132a4.6 4.6 0 0 1-3.355-3.355 4.6 4.6 0 0 1-.134-1.084M10.1 16.509V16.5a1 1 0 0 1 2 0v.009a1 1 0 1 1-2 0m4.5-1.35v-.009a1 1 0 0 1 2 0v.01a1 1 0 0 1-2 0m-8.1-1.35v-.01a1 1 0 0 1 2 0v.01a1 1 0 1 1-2 0m4.5-1.8V12a1 1 0 1 1 2 0v.009a1 1 0 1 1-2 0m-3.15-3.15v-.01a1 1 0 0 1 2 0v.01a1 1 0 0 1-2 0"/>
</svg>
