<svg width="24" height="24" viewBox="0 0 24 24" fill="none" xmlns="http://www.w3.org/2000/svg">
    <path fill-rule="evenodd" clip-rule="evenodd"
          d="M20 9V20C20 20.7956 19.6839 21.5587 19.1213 22.1213C18.5587 22.6839 17.7956 23 17 23H7C6.20435 23 5.44129 22.6839 4.87868 22.1213C4.31607 21.5587 4 20.7956 4 20V4C4 3.20435 4.31607 2.44129 4.87868 1.87868C5.44129 1.31607 6.20435 1 7 1H12V8C12 8.26522 12.1054 8.51957 12.2929 8.70711C12.4804 8.89464 12.7348 9 13 9H20ZM20 7H14V1L20 7ZM11.7071 13.7071C12.0976 13.3166 12.0976 12.6834 11.7071 12.2929C11.3166 11.9024 10.6834 11.9024 10.2929 12.2929L7.29289 15.2929C6.90237 15.6834 6.90237 16.3166 7.29289 16.7071L10.2929 19.7071C10.6834 20.0976 11.3166 20.0976 11.7071 19.7071C12.0976 19.3166 12.0976 18.6834 11.7071 18.2929L10.4142 17H16C16.5523 17 17 16.5523 17 16C17 15.4477 16.5523 15 16 15H10.4142L11.7071 13.7071Z"
          fill="currentColor"/>
</svg>
