<svg xmlns="http://www.w3.org/2000/svg" width="24" height="24" fill="none" viewBox="0 0 24 24">
    <path fill="currentColor" fill-rule="evenodd" d="M23.009 7.142c-.729 0-1.562-.146-2.441-.388-2.582-.71-5.57-2.245-7.512-3.338-1.225-.69-2.776-.516-3.77.478L5.331 7.849a3 3 0 0 0 0 4.243l.565.565-3.9 3.192a2.715 2.715 0 1 0 3.82 3.82l3.192-3.9.565.565a3.001 3.001 0 0 0 4.243 0zm-7.779 4.95L9.573 6.435 10.7 5.308c.326-.325.888-.423 1.375-.149 1.338.753 3.186 1.726 5.093 2.517.576.24 1.182.472 1.799.679zM6.745 9.263 8.159 7.85l5.657 5.657-1.414 1.414a1 1 0 0 1-1.414 0l-4.243-4.243a1 1 0 0 1 0-1.414m2.05 3.606-4.527 5.534a.715.715 0 1 1-1.006-1.006z" clip-rule="evenodd"/>
</svg>
