<svg xmlns="http://www.w3.org/2000/svg" width="24" height="24" fill="none" viewBox="0 0 24 24">
    <path fill="currentColor" d="M20 4.914a.92.92 0 0 0-.562-.845.91.91 0 0 0-.992.198L14.83 7.89a1.45 1.45 0 0 1-2.052 0l-.85-.852v.001a1.17 1.17 0 0 0-1.652 0l-.462.462 6.692 6.704.46-.46a1.174 1.174 0 0 0 0-1.66l-.849-.852a1.45 1.45 0 0 1-.417-.882l-.007-.142.007-.144c.033-.331.18-.643.417-.881l3.616-3.624A.9.9 0 0 0 20 4.914m-9.642 15.04c.675-.49 1.494-1.24 2.243-2.066l-5.084-1.389zm-.95-10.027a8 8 0 0 1-2.324 1.894c-.845.455-1.733.738-2.638.947l.87 1.056 8.625 2.358c.109-.167.21-.326.294-.48.146-.265.237-.48.292-.645zM22 4.914a2.9 2.9 0 0 1-.66 1.848l-.192.212-3.229 3.236.462.463a3.175 3.175 0 0 1 0 4.485l-.85.852a1.45 1.45 0 0 1-1.397.375q-.072.144-.148.282a11 11 0 0 1-.779 1.194 17 17 0 0 1-.543.701c-1.017 1.234-2.294 2.444-3.34 3.163a1 1 0 0 1-.11.065 1.9 1.9 0 0 1-2.295-.438l-6.589-8.01-.003-.003a1.46 1.46 0 0 1 .192-2.035c.145-.123.312-.215.492-.273l.183-.046c1.141-.213 2.096-.47 2.943-.925.651-.351 1.265-.837 1.85-1.556a1.45 1.45 0 0 1-.393-.858l-.008-.143.008-.144c.033-.331.178-.643.416-.881l.85-.851.114-.11a3.17 3.17 0 0 1 4.255 0l.114.11.459.46 3.228-3.233A2.9 2.9 0 0 1 19.09 2 2.91 2.91 0 0 1 22 4.914"/>
</svg>
