<svg width="24" height="24" viewBox="0 0 24 24" fill="none" xmlns="http://www.w3.org/2000/svg">
  <path d="M3 1C1.89543 1 1 1.89543 1 3C1 4.10457 1.89543 5 3 5H5C6.10457 5 7 4.10457 7 3C7 1.89543 6.10457 1 5 1H3Z"
    fill="currentColor" />
  <path d="M3 7C1.89543 7 1 7.89543 1 9C1 10.1046 1.89543 11 3 11H5C6.10457 11 7 10.1046 7 9C7 7.89543 6.10457 7 5 7H3Z"
    fill="currentColor" />
  <path
    d="M1 15C1 13.8954 1.89543 13 3 13H5C6.10457 13 7 13.8954 7 15C7 16.1046 6.10457 17 5 17H3C1.89543 17 1 16.1046 1 15Z"
    fill="currentColor" />
  <path
    d="M11 1C9.89543 1 9 1.89543 9 3C9 4.10457 9.89543 5 11 5H13C14.1046 5 15 4.10457 15 3C15 1.89543 14.1046 1 13 1H11Z"
    fill="currentColor" />
  <path
    d="M9 9C9 7.89543 9.89543 7 11 7H13C14.1046 7 15 7.89543 15 9C15 10.1046 14.1046 11 13 11H11C9.89543 11 9 10.1046 9 9Z"
    fill="currentColor" />
  <path
    d="M11 13C9.89543 13 9 13.8954 9 15C9 16.1046 9.89543 17 11 17H13C14.1046 17 15 16.1046 15 15C15 13.8954 14.1046 13 13 13H11Z"
    fill="currentColor" />
  <path
    d="M9 21C9 19.8954 9.89543 19 11 19H13C14.1046 19 15 19.8954 15 21C15 22.1046 14.1046 23 13 23H11C9.89543 23 9 22.1046 9 21Z"
    fill="currentColor" />
  <path
    d="M19 1C17.8954 1 17 1.89543 17 3C17 4.10457 17.8954 5 19 5H21C22.1046 5 23 4.10457 23 3C23 1.89543 22.1046 1 21 1H19Z"
    fill="currentColor" />
  <path
    d="M17 9C17 7.89543 17.8954 7 19 7H21C22.1046 7 23 7.89543 23 9C23 10.1046 22.1046 11 21 11H19C17.8954 11 17 10.1046 17 9Z"
    fill="currentColor" />
  <path
    d="M19 13C17.8954 13 17 13.8954 17 15C17 16.1046 17.8954 17 19 17H21C22.1046 17 23 16.1046 23 15C23 13.8954 22.1046 13 21 13H19Z"
    fill="currentColor" />
</svg>
