<svg xmlns="http://www.w3.org/2000/svg" width="24" height="24" fill="none" viewBox="0 0 24 24">
    <path fill="currentColor" d="M17 5q1.181 0 2.318.271 1.137.272 2.182.815a.8.8 0 0 1 .375.339q.125.226.125.474v10.903q0 .52-.443.79-.444.272-.92.023a8.3 8.3 0 0 0-1.762-.7 7.2 7.2 0 0 0-1.875-.25q-1.022 0-2 .26a7.5 7.5 0 0 0-1.863.78q-.25.135-.535.215-.284.08-.602.08t-.602-.08a2.6 2.6 0 0 1-.535-.214A7.5 7.5 0 0 0 9 17.926a7.7 7.7 0 0 0-2-.26q-.954 0-1.875.248-.92.25-1.762.701-.477.25-.92-.022A.87.87 0 0 1 2 17.802V6.899q0-.248.125-.474a.8.8 0 0 1 .375-.34 9.5 9.5 0 0 1 2.182-.814A10 10 0 0 1 7 5q1.318 0 2.58.339 1.26.34 2.42 1.018A9.83 9.83 0 0 1 17 5m0 1.81q-1.068 0-2.113.271a7.8 7.8 0 0 0-1.978.814v8.91a10 10 0 0 1 2.012-.711 9.4 9.4 0 0 1 3.682-.102q.783.135 1.579.407V7.442a8 8 0 0 0-1.557-.474A8.4 8.4 0 0 0 17 6.81m.5 5.19a1 1 0 1 1 0 2h-2a1 1 0 1 1 0-2zm0-3a1 1 0 1 1 0 2h-2a1 1 0 1 1 0-2z"/>
</svg>
