<svg xmlns="http://www.w3.org/2000/svg" width="24" height="24" fill="none" viewBox="0 0 24 24">
    <path fill="currentColor" d="M4.636 3a1.636 1.636 0 0 0 0 3.273h1.637a1.636 1.636 0 0 0 0-3.273zM4.636 7.91a1.636 1.636 0 0 0 0 3.272h1.637a1.636 1.636 0 1 0 0-3.273zM3 14.455c0-.904.733-1.637 1.636-1.637h1.637a1.636 1.636 0 1 1 0 3.273H4.636A1.636 1.636 0 0 1 3 14.454M11.182 3a1.636 1.636 0 0 0 0 3.273h1.636a1.636 1.636 0 0 0 0-3.273zM9.545 9.545c0-.903.733-1.636 1.637-1.636h1.636a1.636 1.636 0 0 1 0 3.273h-1.636a1.636 1.636 0 0 1-1.637-1.637M11.182 12.818a1.636 1.636 0 1 0 0 3.273h1.636a1.636 1.636 0 0 0 0-3.273zM9.545 19.364c0-.904.733-1.637 1.637-1.637h1.636a1.636 1.636 0 0 1 0 3.273h-1.636a1.636 1.636 0 0 1-1.637-1.636M17.727 3a1.636 1.636 0 1 0 0 3.273h1.637a1.636 1.636 0 1 0 0-3.273zM16.09 9.545c0-.903.733-1.636 1.637-1.636h1.637a1.636 1.636 0 1 1 0 3.273h-1.637a1.636 1.636 0 0 1-1.636-1.637M17.727 12.818a1.636 1.636 0 1 0 0 3.273h1.637a1.636 1.636 0 1 0 0-3.273z"/>
</svg>
