<svg xmlns="http://www.w3.org/2000/svg" width="24" height="24" fill="none" viewBox="0 0 24 24">
    <path fill="currentColor" d="M17.223 7.6H6.777v11.6c0 .216.086.422.233.57.147.15.343.23.546.23h8.888c.203 0 .4-.08.546-.23a.8.8 0 0 0 .233-.57zm-8 8.9v-5.4a1 1 0 0 1 2 0v5.4a1 1 0 0 1-2 0m3.554 0v-5.4a1 1 0 0 1 2 0v5.4a1 1 0 1 1-2 0m1.779-11.7a.81.81 0 0 0-.233-.57.77.77 0 0 0-.546-.23h-3.554c-.203 0-.4.081-.546.23a.81.81 0 0 0-.233.57v.8h5.112zm2 .8H21v2h-1.777v11.6c0 .739-.29 1.45-.81 1.976a2.77 2.77 0 0 1-1.969.824H7.556c-.741 0-1.45-.298-1.97-.824a2.81 2.81 0 0 1-.809-1.976V7.6H3v-2h4.444v-.8c0-.739.29-1.45.81-1.976A2.77 2.77 0 0 1 10.223 2h3.554c.741 0 1.45.298 1.97.824.519.526.809 1.237.809 1.976z"/>
</svg>
