<svg xmlns="http://www.w3.org/2000/svg" width="16" height="16" fill="none" viewBox="0 0 16 16">
    <path fill="currentColor" d="M11.393 4.858H4.624v8.238c0 .174.063.33.161.439a.45.45 0 0 0 .33.155h5.787a.45.45 0 0 0 .329-.155.66.66 0 0 0 .162-.439zm-5.21 6.327V7.363c0-.375.3-.68.668-.68s.667.305.667.68v3.822c0 .375-.299.68-.667.68a.674.674 0 0 1-.667-.68m2.316 0V7.363c0-.375.3-.68.667-.68s.666.305.666.68v3.822c0 .375-.298.68-.666.68a.674.674 0 0 1-.667-.68m1.157-8.281a.66.66 0 0 0-.16-.44.45.45 0 0 0-.33-.154H6.851a.45.45 0 0 0-.33.155.66.66 0 0 0-.16.439v.594h3.295zm1.333.594h2.894v1.36h-1.157v8.238c0 .502-.181.993-.517 1.363a1.77 1.77 0 0 1-1.307.591H5.115c-.501 0-.97-.22-1.308-.591a2.03 2.03 0 0 1-.516-1.363V4.858H2.133v-1.36h2.894v-.594c0-.502.18-.993.516-1.363A1.77 1.77 0 0 1 6.851.95h2.315c.501 0 .97.22 1.307.591.336.37.516.86.516 1.363z"/>
</svg>
