<svg xmlns="http://www.w3.org/2000/svg" width="24" height="24" fill="none" viewBox="0 0 24 24">
    <path fill="currentColor" d="M15.4 2a1.9 1.9 0 0 1 1.9 1.9v1.8a4.4 4.4 0 0 0 .88 2.64l.54.72A6.4 6.4 0 0 1 20 12.9v7.2a1.9 1.9 0 0 1-1.9 1.9h-7.2a1 1 0 1 1 0-2H18v-1.6h-2.6a1.9 1.9 0 0 1-1.9-1.9v-2.7c0-.504.2-.988.557-1.344l.14-.126a1.9 1.9 0 0 1 1.203-.43h2.483a4.4 4.4 0 0 0-.763-1.64l-.54-.72A6.4 6.4 0 0 1 15.3 5.7V4h-1.6v1.7a6.4 6.4 0 0 1-1.28 3.84l-.54.72A4.4 4.4 0 0 0 11 12.9a1 1 0 0 1-2 0c0-1.384.45-2.733 1.28-3.84l.54-.72a4.4 4.4 0 0 0 .88-2.64V3.9c0-.504.2-.987.557-1.343l.139-.126A1.9 1.9 0 0 1 13.6 2zM5.793 12.793a1 1 0 1 1 1.414 1.414L5.414 16H11a1 1 0 1 1 0 2H5.414l1.793 1.793a1 1 0 1 1-1.414 1.414l-3.5-3.5a1 1 0 0 1 0-1.414zM15.5 16.4H18v-2.5h-2.5z"/>
</svg>
