<svg xmlns="http://www.w3.org/2000/svg" width="24" height="24" fill="none" viewBox="0 0 24 24">
    <path fill="currentColor" d="M14.45 1c.459 0 .801.334.801.803v.712c0 .324-.162.585-.405.712l1.325 1.857c.649.91.829 1.775.829 3.001V20c0 1.983-1.01 3.083-2.804 3.083h-3.801A6 6 0 0 0 7 13.084V8.085c0-1.226.163-2.09.812-3.001l1.334-1.857c-.244-.136-.397-.388-.397-.712v-.712c0-.469.324-.803.802-.803zM21 10a.5.5 0 0 1 0 1l.707.707a1 1 0 0 1 .293.707V21a2 2 0 0 1-2 2h-2.378c.628-.844.878-1.902.878-3V10zM5.47 15.47a.75.75 0 1 1 1.06 1.06l-1.72 1.72H9a.75.75 0 0 1 0 1.5H4.81l1.72 1.72.052.056a.75.75 0 0 1-1.056 1.056l-.056-.052-3-3a.8.8 0 0 1-.117-.157.74.74 0 0 1 .117-.903z"/>
</svg>
