<svg width="32" height="24" viewBox="0 0 32 24" fill="none" xmlns="http://www.w3.org/2000/svg">
    <rect x=".5" y=".5" width="31" height="23" rx="3.5" fill="#fff"/>
    <path d="M4.523 16.519c0 .406.29.454.545.454 1.142 0 1.517-.861 1.517-1.65 0-.988-.634-1.703-1.655-1.703-.218 0-.317.015-.412.022l.005 2.877zm-.519-2.48c0-.472-.248-.445-.485-.45v-.138c.205.007.417.007.624.007.207 0 .523-.01.915-.01 1.37 0 2.115.914 2.115 1.852 0 .524-.307 1.84-2.178 1.84-.27 0-.518-.01-.763-.01s-.47.006-.708.01v-.137c.317-.032.47-.043.486-.402l-.006-2.563zm3.92-.128a.26.26 0 1 1 .001 0h-.001zm-.564 3.094h.1c.148 0 .254 0 .254-.174v-1.434c0-.232-.08-.265-.276-.37v-.084c.192-.054.381-.118.567-.19a.19.19 0 0 1 .095-.027c.025 0 .036.031.036.074v2.035c0 .174.117.174.265.174h.09v.139c-.18 0-.366-.011-.555-.011-.19 0-.381.005-.576.01v-.142zm1.633-1.577c0-.195-.06-.247-.306-.348v-.097c.236-.073.469-.157.697-.254.016 0 .031.01.031.052v.345c.302-.218.561-.397.917-.397.448 0 .607.327.607.74v1.366c0 .174.117.174.265.174h.095v.138c-.185 0-.37-.01-.561-.01-.19 0-.38.005-.571.01v-.138h.095c.148 0 .254 0 .254-.174V15.46c0-.302-.184-.45-.486-.45-.17 0-.436.137-.615.254v1.57c0 .174.117.174.265.174h.096v.138c-.185 0-.37-.01-.561-.01-.19 0-.381.005-.571.01v-.138h.095c.148 0 .254 0 .254-.174v-1.407zm3.645.085c.131 0 .147-.068.147-.131 0-.27-.164-.487-.46-.487-.327 0-.545.237-.608.618h.92zm-.937.17a1.295 1.295 0 0 0 0 .306c.031.504.355.915.776.915.292 0 .52-.159.715-.354l.074.075c-.244.326-.544.598-.98.598-.841 0-1.01-.815-1.01-1.154 0-1.037.697-1.343 1.067-1.343.43 0 .89.269.895.83a.569.569 0 0 1 0 .096l-.048.031H11.7zm1.661 1.322h.143c.147 0 .252 0 .252-.174v-1.486c0-.164-.194-.196-.274-.239v-.078c.386-.165.598-.302.646-.302.03 0 .047.015.047.068v.477h.01c.133-.206.356-.545.678-.545a.286.286 0 0 1 .3.28.258.258 0 0 1-.247.27c-.165 0-.165-.127-.35-.127a.448.448 0 0 0-.386.435v1.25c0 .175.11.175.254.175h.296v.139c-.29-.006-.513-.011-.74-.011a21.9 21.9 0 0 0-.629.01v-.142zm2.036-.597c.069.348.28.645.667.645.311 0 .428-.19.428-.375 0-.625-1.154-.424-1.154-1.276 0-.296.239-.676.82-.676.21.005.416.057.603.153l.037.545h-.118c-.053-.333-.238-.524-.577-.524-.211 0-.412.122-.412.35 0 .619 1.227.428 1.227 1.258 0 .349-.28.72-.91.72a1.39 1.39 0 0 1-.645-.18l-.059-.609.093-.031zm6.294-2h-.132c-.1-.618-.539-.872-1.131-.872-.593 0-1.492.408-1.492 1.677 0 1.069.763 1.835 1.575 1.835a1.076 1.076 0 0 0 1.065-.915l.12.032-.121.779c-.218.137-.82.28-1.17.28-1.238 0-2.02-.799-2.02-1.988 0-1.09.968-1.862 2.004-1.862.428 0 .841.137 1.249.28l.053.754zm.19 2.597h.1c.15 0 .255 0 .255-.174v-2.942c0-.344-.08-.354-.281-.413v-.085c.188-.06.37-.135.545-.226a.54.54 0 0 1 .116-.059c.032 0 .043.033.043.075v3.654c0 .174.116.174.264.174h.09v.139c-.18 0-.365-.011-.555-.011-.19 0-.381.005-.577.01v-.142zm3.396-.154c0 .096.058.101.147.101.065 0 .143-.005.213-.005v.109a5.53 5.53 0 0 0-.763.164l-.026-.016v-.428c-.317.258-.56.444-.937.444-.285 0-.581-.186-.581-.63v-1.35c0-.139-.021-.27-.316-.296v-.1c.19 0 .612-.038.68-.038.07 0 .06.037.06.154v1.364c0 .159 0 .613.46.613.179 0 .417-.137.64-.327v-1.418c0-.109-.254-.164-.445-.218v-.095c.476-.032.773-.074.825-.074.052 0 .043.037.043.095v1.952zm1.052-.306a.569.569 0 0 0 .546.54c.565 0 .802-.556.802-1.027 0-.57-.435-1.047-.845-1.047-.196 0-.36.128-.502.249v1.285zm0-1.439c.212-.179.498-.38.788-.38.614 0 .98.534.98 1.11 0 .693-.507 1.387-1.264 1.387-.257 0-.51-.065-.735-.187l-.158.126-.11-.058c.05-.311.075-.626.075-.941v-2.278c0-.344-.08-.354-.28-.413v-.085c.188-.06.37-.136.545-.227a.54.54 0 0 1 .116-.058c.032 0 .043.032.043.075v1.929zM3.513 20.218h.04c.11 0 .218-.014.218-.164v-1.508c0-.15-.109-.164-.212-.164h-.046v-.086c.11 0 .285.012.426.012.142 0 .316-.012.451-.012v.086h-.04c-.11 0-.213.014-.213.164v1.508c0 .15.11.164.218.164h.04v.086c-.137 0-.31-.01-.454-.01-.143 0-.311.01-.422.01l-.006-.086z" fill="#231F20"/>
    <path d="M4.378 20.293v-.061h-.027c-.104 0-.226-.019-.227-.178v-1.508c0-.159.123-.176.227-.176h.027v-.062c-.133 0-.3.012-.436.012s-.303-.011-.414-.012v.062h.024c.11 0 .226.017.226.176v1.508c0 .159-.122.178-.226.178h-.027v.06c.109 0 .275-.012.41-.012.137 0 .307.011.443.012zm.012.024c-.14 0-.312-.011-.454-.011-.143 0-.31.01-.423.01H3.5v-.108h.052c.11 0 .2-.011.2-.152v-1.51c0-.14-.095-.15-.2-.151H3.5v-.11h.013c.109 0 .285.013.426.013.14 0 .315-.012.451-.012h.013v.109h-.052c-.11 0-.2.01-.202.151v1.508c0 .14.097.15.202.151h.052v.11l-.013.002zm1.977-.58h.007v-1.079a.238.238 0 0 0-.25-.27h-.065V18.3c.136 0 .268.012.403.012.118 0 .236-.012.354-.012v.086h-.042c-.121 0-.257.023-.257.366v1.307a1.88 1.88 0 0 0 .017.291h-.109l-1.483-1.656v1.19c0 .25.05.337.27.337h.05v.086c-.124 0-.248-.011-.37-.011-.124 0-.263.01-.393.01v-.085h.04c.2 0 .26-.135.26-.365V18.64a.258.258 0 0 0-.262-.26H4.5v-.085c.109 0 .218.012.327.012.086 0 .17-.012.256-.012l1.285 1.44z" fill="#231F20"/>
    <path d="m6.367 19.732.01-.008-.01.008zm.058.598h.095a1.909 1.909 0 0 1-.015-.278v-1.308c0-.345.144-.378.269-.378h.03v-.062c-.109 0-.228.012-.342.012-.132 0-.26-.01-.39-.012v.063h.051a.251.251 0 0 1 .263.283v1.09l-.006.006-.01.008-1.284-1.446c-.085 0-.169.012-.256.012-.109 0-.218-.011-.318-.012v.062h.025a.271.271 0 0 1 .27.271v1.213c0 .23-.063.376-.27.378h-.025v.062c.124 0 .253-.012.38-.012.126 0 .239.01.358.012v-.061h-.036c-.227 0-.284-.1-.284-.35v-1.22l1.495 1.666zm.109.025h-.119l-1.46-1.628v1.158c0 .25.042.321.259.327h.06v.109h-.012c-.125 0-.249-.011-.37-.011-.123 0-.262.01-.393.01h-.012v-.108h.053c.19 0 .244-.123.247-.352v-1.219a.246.246 0 0 0-.25-.246h-.05v-.11H4.5c.109 0 .223.013.327.013.086 0 .169-.012.266-.007l1.264 1.424v-1.059c0-.229-.153-.257-.237-.258h-.076v-.109h.012c.136 0 .269.012.403.012.117 0 .235-.012.354-.012h.013v.11H6.77c-.118 0-.24.012-.244.352v1.307c-.001.097.004.193.017.289v.014l-.008-.006zm.713-1.915c-.218 0-.224.052-.268.26h-.086c.011-.079.026-.16.035-.243.011-.081.017-.163.018-.244h.068c.023.086.095.083.173.083h1.485c.078 0 .15 0 .156-.09l.069.012a5.445 5.445 0 0 0-.032.233c-.009.079 0 .155 0 .233l-.087.032c0-.109-.02-.277-.213-.277h-.477v1.532c0 .218.1.247.239.247h.054v.086c-.109 0-.313-.01-.468-.01-.173 0-.375.01-.487.01v-.086h.054c.16 0 .239-.014.239-.241v-1.538h-.472z" fill="#231F20"/>
    <path d="M8.381 20.32c-.109 0-.313-.01-.468-.01-.173 0-.375.01-.487.01h-.012v-.108h.066c.16 0 .218-.006.227-.229v-1.525h-.46v-.025h.485v1.55c0 .231-.094.255-.252.255h-.042v.061c.109 0 .307-.012.475-.012.15 0 .342.011.455.012v-.06h-.041c-.14 0-.252-.036-.252-.261v-1.552h.485c.193 0 .218.166.224.273l.063-.023c0-.075 0-.15.005-.227.005-.076.02-.147.03-.218l-.044-.006c-.013.083-.094.088-.166.087h-1.5c-.067 0-.141 0-.167-.084h-.047a1.814 1.814 0 0 1-.018.233c-.007.08-.02.156-.031.232h.06c.039-.201.064-.265.278-.263v.025c-.218 0-.208.04-.255.253v.01h-.115v-.015c.012-.08.026-.161.035-.245.012-.08.017-.16.017-.242v-.013h.092v.009c.02.073.073.073.146.074h1.505c.08 0 .139 0 .143-.077v-.013h.013l.082.013v.013a5.63 5.63 0 0 0-.032.23c-.009.077 0 .155 0 .234v.009H8.87l-.1.037v-.017c-.009-.109-.02-.266-.201-.266H8.1v1.52c0 .218.09.232.227.234h.067v.11l-.013.008zm.607-.102h.04c.11 0 .218-.014.218-.164v-1.508c0-.15-.108-.164-.217-.164h-.04v-.086c.175 0 .474.012.716.012s.545-.012.736-.012c0 .124 0 .313.007.435l-.087.023c-.014-.186-.048-.335-.35-.335h-.4v.753h.341c.174 0 .21-.098.228-.253h.086c0 .109-.009.224-.009.336 0 .113 0 .218.01.327l-.087.018c-.017-.173-.026-.285-.224-.285H9.61v.679c0 .187.167.187.351.187.345 0 .498-.023.584-.35l.08.02a6.213 6.213 0 0 0-.096.457c-.186 0-.516-.011-.775-.011-.26 0-.601.01-.762.01l-.004-.089z" fill="#231F20"/>
    <path d="M10.518 20.293c.025-.146.057-.291.092-.436l-.056-.014c-.087.32-.253.35-.593.347-.181 0-.363 0-.364-.2v-.682h.358c.2 0 .218.118.236.283l.062-.013a6.543 6.543 0 0 1-.009-.318c0-.1 0-.218.009-.327h-.062c-.017.15-.064.256-.239.254H9.6v-.78h.413c.3 0 .349.153.362.334l.062-.017c0-.08-.008-.185-.008-.281v-.138c-.195 0-.487.012-.723.012s-.528-.01-.704-.012v.063h.027c.103 0 .226.017.226.176v1.508c0 .159-.123.176-.226.177h-.028v.061c.167 0 .5-.012.753-.012s.577.011.762.012l.002.003zm.008.021c-.184 0-.515-.012-.773-.012s-.602.012-.763.012h-.012v-.109h.053c.108 0 .199-.01.2-.151v-1.508c0-.14-.096-.15-.2-.151h-.053v-.11h.012c.176 0 .475.013.717.013s.545-.012.736-.012h.014v.162c0 .1 0 .208.008.291v.01h-.01l-.1.026v-.015c-.018-.187-.043-.327-.34-.327h-.393v.729h.327c.165 0 .196-.087.218-.242v-.012h.109v.013a5.734 5.734 0 0 0 0 .663v.01h-.011l-.1.02v-.013c-.021-.176-.022-.271-.218-.274h-.325v.654c0 .175.152.174.339.175.346 0 .486-.02.572-.342v-.012h.012l.092.024v.012a6.187 6.187 0 0 0-.097.457v.01l-.014.01zm.857-1.045h.14c.289 0 .444-.11.444-.45a.392.392 0 0 0-.421-.42c-.055 0-.11.005-.163.012v.858zm-.366-.668c0-.21-.116-.218-.205-.218h-.053v-.086c.093 0 .272.012.447.012.176 0 .31-.012.463-.012.363 0 .685.098.685.506 0 .26-.172.418-.4.507l.493.736a.32.32 0 0 0 .279.174v.086c-.095 0-.188-.011-.282-.011-.095 0-.182.01-.27.01a8.033 8.033 0 0 1-.6-.932h-.191v.621c0 .218.109.23.235.23h.052v.086c-.164 0-.327-.01-.494-.01-.139 0-.274.01-.419.01v-.086h.053c.108 0 .204-.05.204-.156l.003-1.467z" fill="#231F20"/>
    <path d="M11.523 19.256c.286 0 .428-.102.436-.435a.381.381 0 0 0-.409-.409c-.05 0-.1.004-.151.011v.835l.124-.002zm-.14.024h-.013v-.88h.01a1.31 1.31 0 0 1 .166-.012.406.406 0 0 1 .436.436c0 .344-.166.46-.457.46l-.142-.003zm0 .079h.196v.006c.176.321.373.631.588.928.087 0 .18-.012.269-.012.09 0 .18.01.27.012v-.064a.333.333 0 0 1-.273-.176l-.501-.75h.014c.225-.089.393-.243.393-.495 0-.4-.312-.493-.673-.495-.152 0-.29.012-.463.012-.173 0-.34-.01-.436-.012v.062h.04c.089 0 .217.014.217.231v1.462c0 .115-.109.169-.218.169h-.039v.06c.139 0 .27-.011.404-.011.162 0 .327.01.483.012v-.061h-.04c-.13 0-.248-.016-.248-.244v-.629l.017-.005zm1.34.962c-.096 0-.188-.011-.283-.011-.094 0-.18.01-.28.007a8.28 8.28 0 0 1-.599-.932h-.166v.602c0 .218.09.218.218.218h.064v.11h-.007c-.164 0-.327-.012-.495-.012-.138 0-.273.011-.418.011h-.012v-.109h.065c.109 0 .19-.045.191-.142V18.6c0-.205-.102-.204-.191-.206h-.065v-.11h.012c.094 0 .272.013.447.013s.31-.012.463-.012c.363 0 .697.101.698.52 0 .259-.172.421-.394.511l.484.725a.308.308 0 0 0 .27.167h.01v.108l-.011.004zm1.954-.584h.005v-1.079a.238.238 0 0 0-.25-.27h-.063V18.3c.136 0 .267.012.404.012.117 0 .235-.012.354-.012v.086h-.044c-.12 0-.256.023-.256.366v1.307a1.78 1.78 0 0 0 .018.291h-.11l-1.482-1.656v1.19c0 .25.049.337.27.337h.05v.086c-.124 0-.248-.011-.372-.011-.125 0-.262.01-.391.01v-.085h.04c.198 0 .26-.135.26-.365V18.64a.26.26 0 0 0-.263-.26h-.037v-.085c.108 0 .217.012.326.012.085 0 .17-.012.256-.012l1.285 1.44z" fill="#231F20"/>
    <path d="m14.677 19.732.01-.008-.01.008zm.058.598h.094a1.897 1.897 0 0 1-.015-.278v-1.308c0-.345.146-.378.27-.378h.03v-.062c-.11 0-.228.012-.341.012-.133 0-.262-.01-.391-.012v.063h.05a.251.251 0 0 1 .263.283v1.096l-.008.008-1.29-1.446c-.086 0-.169.012-.256.012-.11 0-.218-.011-.32-.012v.062h.026a.27.27 0 0 1 .274.271v1.211c0 .231-.065.378-.271.38h-.028v.06c.124 0 .252-.012.379-.012.126 0 .24.011.36.012v-.06h-.039c-.226 0-.283-.1-.283-.35v-1.218l1.496 1.665zm.109.025h-.118l-1.46-1.627v1.157c0 .25.04.321.257.327h.061v.109h-.012c-.125 0-.248-.012-.371-.012s-.262.012-.391.012h-.013v-.11h.053c.19 0 .244-.122.246-.352V18.64a.248.248 0 0 0-.154-.228.247.247 0 0 0-.095-.018h-.05v-.11h.013c.109 0 .218.013.326.013.084 0 .168-.012.265-.008l1.265 1.425v-1.059c0-.229-.155-.257-.238-.258h-.076v-.109h.012c.136 0 .27.012.404.012.117 0 .235-.012.353-.012h.013v.11h-.055c-.119 0-.24.012-.244.352v1.307c-.002.097.003.193.017.289v.014l-.008-.006zm1.165-1.737-.268.815h.538l-.27-.815zm-.417 1.275a1.15 1.15 0 0 0-.065.224c0 .087.121.101.218.101h.033v.086a6.157 6.157 0 0 0-.35-.01c-.116 0-.206 0-.31.01v-.086h.017a.26.26 0 0 0 .25-.187l.462-1.32c.045-.116.081-.236.109-.358a1.48 1.48 0 0 0 .261-.124.085.085 0 0 1 .023-.005.021.021 0 0 1 .02.008c.01.023.017.05.027.072l.53 1.506c.034.1.068.207.108.293a.181.181 0 0 0 .19.115h.018v.086a7.71 7.71 0 0 0-.397-.01c-.139 0-.286 0-.436.01v-.086h.031c.066 0 .18-.012.18-.084a.909.909 0 0 0-.06-.207l-.109-.333h-.653l-.097.299z" fill="#231F20"/>
    <path d="M15.997 18.621h.007-.007zm-.244.799h.503l-.25-.771-.253.77zm-.035.025.276-.84h.015v.013-.013h.009l.273.84h-.573zm.588.846c.143 0 .282-.01.42-.01.137 0 .26.005.384.01v-.06a.196.196 0 0 1-.201-.123c-.038-.087-.073-.194-.11-.295l-.529-1.504c-.01-.024-.017-.05-.025-.07h-.016a1.04 1.04 0 0 1-.257.109 2.233 2.233 0 0 1-.109.36l-.46 1.32a.276.276 0 0 1-.262.197v.06c.099 0 .198-.011.298-.011.1 0 .225.005.335.01v-.06h-.019c-.094 0-.224-.011-.228-.113.013-.078.035-.155.064-.228h.012-.012l.095-.308h.67l.116.342a.87.87 0 0 1 .059.211c0 .088-.125.095-.19.097h-.02l-.015.066zm.816.025c-.13-.005-.259-.011-.396-.011s-.284.006-.436.011h-.013v-.108h.045c.066 0 .165-.016.165-.071a.892.892 0 0 0-.056-.203l-.11-.327h-.631l-.09.291a1.36 1.36 0 0 0-.063.218c0 .07.11.088.204.088h.045v.11h-.013c-.116-.006-.233-.013-.348-.013-.114 0-.207.007-.31.012h-.013v-.109h.029a.246.246 0 0 0 .243-.177l.46-1.32c.043-.12.08-.242.11-.366.09-.032.178-.074.261-.123a.062.062 0 0 1 .027-.007c.007 0 .013.001.018.004.006.003.01.008.014.013l.026.072.53 1.505c.034.102.068.207.11.293a.167.167 0 0 0 .178.108h.03v.11h-.016zm.128-1.876c-.218 0-.224.052-.268.26h-.083c.012-.079.026-.16.036-.243a1.82 1.82 0 0 0 .017-.244h.07c.022.086.094.083.171.083h1.485c.077 0 .15 0 .156-.09l.069.012-.032.233c-.01.079-.011.155-.011.236l-.085.031c-.005-.109-.02-.276-.218-.276h-.471v1.531c0 .218.1.248.238.248h.056v.086c-.11 0-.314-.011-.47-.011-.156 0-.375.01-.487.01v-.085h.056c.158 0 .238-.015.238-.242v-1.54h-.467z" fill="#231F20"/>
    <path d="M18.384 20.32c-.109 0-.315-.01-.47-.01-.172 0-.373.01-.487.01h-.011v-.108h.067c.158 0 .218-.006.226-.229v-1.525h-.46v-.025h.485v1.55c0 .231-.093.254-.25.255h-.04v.061c.109 0 .307-.012.474-.012.15 0 .343.01.456.012v-.061h-.042c-.139 0-.25-.034-.25-.26v-1.552h.483c.194 0 .218.166.224.273l.062-.023c0-.075 0-.15.007-.226.006-.075.018-.148.03-.217l-.044-.007c-.013.083-.095.088-.167.087h-1.502c-.069 0-.142 0-.168-.084h-.047c0 .078-.007.156-.017.233-.009.08-.022.156-.033.232h.061c.038-.201.063-.267.279-.263v.025c-.218 0-.21.04-.256.253v.01h-.109v-.015c.012-.08.026-.161.035-.244.01-.08.016-.162.016-.243v-.013h.092v.009c.02.073.073.073.147.074h1.499c.08 0 .138 0 .143-.077v-.014h.014l.081.014v.013a8.29 8.29 0 0 0-.03.23c-.009.077-.007.155-.007.234v.008h-.008l-.102.038v-.017c-.007-.109-.02-.266-.201-.266h-.466v1.52c0 .218.089.232.226.234h.068v.11l-.008.007zm.621-.102h.04c.11 0 .218-.014.218-.164v-1.508c0-.15-.109-.164-.218-.164h-.04v-.086c.109 0 .284.012.425.012.14 0 .317-.012.453-.012v.086h-.043c-.108 0-.218.014-.218.164v1.508c0 .15.11.164.218.164h.04v.086c-.138 0-.31-.01-.455-.01-.143 0-.31.01-.422.01l.002-.086z" fill="#231F20"/>
    <path d="M19.87 20.293v-.061h-.03c-.109 0-.225-.019-.225-.178v-1.508c0-.159.122-.176.225-.176h.028v-.062c-.133 0-.3.012-.436.012s-.3-.011-.413-.012v.062h.028c.103 0 .225.017.226.176v1.508c0 .159-.123.178-.226.178h-.028v.06c.109 0 .273-.012.41-.012.138 0 .307.011.443.012h-.002zm.015.024c-.14 0-.312-.012-.455-.012-.144 0-.31.012-.423.012h-.013v-.11h.053c.11 0 .2-.01.2-.15v-1.51c0-.141-.096-.151-.2-.152h-.053v-.11h.013c.109 0 .285.013.425.013s.317-.012.453-.012h.012v.109h-.057c-.109 0-.2.01-.201.151v1.508c0 .14.096.15.201.151h.053v.11l-.008.002zm1.188-.097c.56 0 .654-.492.654-.911 0-.42-.227-.93-.705-.93-.503 0-.653.45-.653.835 0 .514.236 1.007.702 1.007h.002zm-.045-1.968c.613 0 1.102.38 1.102.994a1.058 1.058 0 0 1-1.09 1.102c-.61 0-1.075-.415-1.075-1.034a1.047 1.047 0 0 1 1.06-1.062" fill="#231F20"/>
    <path d="M20.359 19.214c0-.388.151-.847.666-.847.489 0 .716.52.717.942.002.423-.1.924-.668.924v-.021c.544 0 .642-.48.643-.9.002-.42-.225-.916-.692-.917-.494 0-.64.436-.641.822 0 .512.234.994.69.995v.024c-.478 0-.714-.501-.715-1.019v-.003zm-.403.104a1.06 1.06 0 0 1 1.074-1.075v.026a1.037 1.037 0 0 0-1.05 1.049c0 .612.46 1.02 1.065 1.02a1.042 1.042 0 0 0 1.075-1.089c0-.606-.481-.98-1.089-.98v-.025c.618 0 1.114.384 1.116 1.005a1.07 1.07 0 0 1-1.1 1.114c-.616 0-1.09-.419-1.09-1.045m4.115.419h.006v-1.079a.239.239 0 0 0-.147-.254.235.235 0 0 0-.104-.017h-.065v-.086c.135 0 .268.012.402.012s.236-.012.355-.012v.086h-.043c-.121 0-.256.023-.256.366v1.307a1.88 1.88 0 0 0 .017.291h-.109L22.647 18.7v1.186c0 .25.049.337.27.337h.049v.086c-.124 0-.248-.011-.372-.011s-.261.01-.39.01v-.085h.04c.199 0 .259-.135.259-.365V18.64a.26.26 0 0 0-.266-.26H22.2v-.085c.109 0 .218.012.327.012.086 0 .169-.012.256-.012l1.288 1.44z" fill="#231F20"/>
    <path d="m24.071 19.732.01-.008-.01.008zm.058.598h.095a2.062 2.062 0 0 1-.015-.278v-1.308c0-.346.146-.378.269-.378h.031v-.062c-.114 0-.227.012-.343.012-.115 0-.26-.01-.39-.012v.063h.051a.25.25 0 0 1 .263.283v1.096l-.01.008-1.28-1.447c-.085 0-.169.012-.256.012-.109 0-.218-.011-.32-.012v.062h.013a.269.269 0 0 1 .254.166c.013.034.02.069.02.105v1.212c0 .23-.064.377-.27.378h-.03v.061c.126 0 .254-.012.38-.012s.24.011.358.012v-.06h-.037c-.225 0-.282-.1-.282-.35v-1.217l1.5 1.665zm.11.025h-.12l-1.46-1.628v1.158c0 .25.04.321.257.327h.062v.109h-.012c-.125 0-.249-.011-.372-.011s-.261.01-.39.01h-.013v-.108h.053c.189 0 .244-.123.246-.352v-1.219a.244.244 0 0 0-.25-.246h-.049v-.11h.012c.11 0 .218.013.327.013.085 0 .168-.012.265-.007l1.264 1.424v-1.059c0-.229-.153-.257-.237-.258h-.076v-.109h.016c.135 0 .268.012.402.012.118 0 .235-.012.355-.012h.012v.11h-.055c-.12 0-.241.013-.244.352v1.307c-.002.097.004.193.016.289v.014l-.01-.006zm1.166-1.737h-.009l-.268.815h.54l-.263-.815zm-.422 1.275c-.028.072-.05.148-.063.224 0 .087.122.101.218.101h.032v.087a6.145 6.145 0 0 0-.348-.011c-.116 0-.207 0-.31.01v-.085h.012a.26.26 0 0 0 .251-.188l.46-1.32c.047-.116.083-.236.11-.357.091-.033.18-.075.264-.125a.072.072 0 0 1 .022-.005.02.02 0 0 1 .02.009l.026.072.53 1.505c.033.1.068.207.108.293a.18.18 0 0 0 .19.115h.017v.087a7.71 7.71 0 0 0-.397-.011c-.139 0-.285 0-.436.01v-.085h.034c.065 0 .178-.013.178-.084a.954.954 0 0 0-.057-.207l-.11-.334h-.653l-.098.299z" fill="#231F20"/>
    <path d="M25.396 18.621h.007-.007zm-.244.799h.503l-.25-.77-.253.77zm-.035.025.277-.84h.015v.013-.013h.009l.271.84h-.572zm.588.846c.143 0 .283-.01.42-.01s.26.005.384.01v-.06h-.005a.195.195 0 0 1-.2-.123c-.039-.087-.073-.194-.11-.294l-.529-1.505-.025-.069c-.006-.02 0 0 0 0h-.006a.05.05 0 0 0-.016 0 1.08 1.08 0 0 1-.257.109 2.387 2.387 0 0 1-.109.36l-.46 1.32a.276.276 0 0 1-.263.197v.06c.099 0 .198-.011.298-.011.1 0 .226.006.336.01v-.059h-.02c-.093 0-.224-.012-.227-.114a1.14 1.14 0 0 1 .064-.228h.01-.01l.095-.308h.67l.115.342a.872.872 0 0 1 .059.211c0 .088-.125.095-.19.097h-.02l-.004.065zm.816.025c-.13 0-.259-.01-.396-.01s-.285.006-.436.01h-.012v-.108h.044c.066 0 .165-.016.165-.071a.857.857 0 0 0-.058-.203l-.108-.327h-.636l-.089.291c-.027.07-.048.144-.062.218 0 .07.109.088.203.088h.042v.11h-.013c-.115 0-.233-.012-.347-.012-.115 0-.207.007-.31.011h-.013v-.109h.03a.25.25 0 0 0 .24-.178l.459-1.32c.043-.12.08-.242.109-.366a1.65 1.65 0 0 0 .261-.123.066.066 0 0 1 .027-.006.031.031 0 0 1 .032.016l.027.072.529 1.505c.035.102.07.207.109.293a.168.168 0 0 0 .177.11h.03v.108l-.004.001zm.727-.294c0 .116.08.15.173.163.127.008.254.006.38-.007a.411.411 0 0 0 .276-.156.653.653 0 0 0 .09-.207h.082c-.032.165-.072.327-.109.49-.253 0-.508-.011-.762-.011-.255 0-.507.01-.763.01v-.086h.04c.108 0 .217-.014.217-.192v-1.48c0-.15-.109-.164-.218-.164h-.039v-.086c.152 0 .302.012.454.012.153 0 .291-.012.436-.012v.086h-.072c-.109 0-.196 0-.196.155l.01 1.485z" fill="#231F20"/>
    <path d="M28.127 20.293c.034-.157.07-.31.103-.466h-.06a.645.645 0 0 1-.089.203.423.423 0 0 1-.288.16c-.075.008-.15.012-.218.012s-.11 0-.162-.007c-.094-.01-.185-.05-.185-.173v-1.484c0-.16.102-.168.21-.168h.058v-.062c-.141 0-.282.012-.424.012-.143 0-.295-.011-.443-.012v.062h.027c.104 0 .23.017.23.176v1.48c0 .186-.126.206-.23.206h-.027v.06c.25 0 .498-.012.748-.012.249 0 .5.011.749.012h.001zm.01.024c-.254 0-.508-.011-.763-.011s-.506.01-.762.01H26.6v-.108h.052c.11 0 .204-.01.205-.18v-1.482c0-.14-.1-.15-.205-.151H26.6v-.11h.012c.153 0 .304.013.455.013.152 0 .29-.012.436-.012h.012v.109h-.084c-.109 0-.182 0-.184.143v1.484c0 .11.072.137.161.15.051 0 .11.005.16.005.073 0 .146-.004.218-.01a.406.406 0 0 0 .268-.151.67.67 0 0 0 .086-.204v-.009h.11v.014c-.034.166-.073.327-.11.49v.01h-.003zm.024-1.799h.035c.04 0 .058-.03.058-.078a.057.057 0 0 0-.06-.065h-.033v.143zm-.102.16v-.015c.037-.006.043 0 .043-.027v-.225c0-.032 0-.042-.042-.04v-.011h.154c.054 0 .103.025.103.08a.093.093 0 0 1-.071.09l.049.07a.336.336 0 0 0 .067.072v.01h-.06c-.028 0-.053-.06-.108-.14h-.033v.101c0 .02.006.019.044.024v.015l-.146-.004zm.15.086a.247.247 0 1 0-.24-.246.244.244 0 0 0 .24.246zm0-.55a.303.303 0 1 1-.282.187.297.297 0 0 1 .282-.187z" fill="#231F20"/>
    <path d="M10.233 8.135a4.875 4.875 0 1 1 9.75 0 4.875 4.875 0 0 1-9.75 0z" fill="#fff"/>
    <path d="M15.115 13.096c-2.791.014-5.093-2.253-5.093-5.003C10.022 5.082 12.324 3 15.115 3h1.307c2.765 0 5.281 2.08 5.281 5.093 0 2.75-2.516 5.003-5.279 5.003h-1.31zm.01-9.679a4.622 4.622 0 1 0 0 9.244 4.622 4.622 0 0 0 0-9.244zm-1.048 7.356V5.306a2.927 2.927 0 0 0 0 5.467zm3.979-2.734a2.931 2.931 0 0 0-1.882-2.734v5.469a2.932 2.932 0 0 0 1.882-2.735z" fill="#004A98"/>
    <rect x=".5" y=".5" width="31" height="23" rx="3.5" stroke="#CCC"/>
</svg>
