<svg width="26" height="24" viewBox="0 0 26 24" fill="none" xmlns="http://www.w3.org/2000/svg">
    <path d="M23.874 18.58a1.453 1.453 0 0 1-1.473 1.438H3.6a1.452 1.452 0 0 1-1.473-1.438V5.569a1.458 1.458 0 0 1 1.473-1.443H22.4a1.458 1.458 0 0 1 1.473 1.443v13.01z" fill="#fff"/>
    <path d="M2.251 5.569v13.01A1.332 1.332 0 0 0 3.6 19.898H22.4a1.337 1.337 0 0 0 1.348-1.317V5.569A1.332 1.332 0 0 0 22.4 4.25H3.6A1.327 1.327 0 0 0 2.25 5.57zM3.6 20.149A1.586 1.586 0 0 1 2 18.578V5.57A1.584 1.584 0 0 1 3.599 4H22.4A1.584 1.584 0 0 1 24 5.57v13.01a1.584 1.584 0 0 1-1.599 1.564L3.6 20.148z" fill="#005288"/>
    <path d="M17.585 15.95h-.08l.005.116h.85v-.116h-.071c-.11 0-.196 0-.196-.13v-2.735c0-.03-.03-.056-.03-.056a.352.352 0 0 0-.09.046c-.131.069-.267.126-.408.17v.06l.013.005c.141.042.198.059.198.308v2.202c0 .13-.08.13-.191.13zM17.364 14.01h-.1a.749.749 0 0 0-.845-.649 1.126 1.126 0 0 0-1.122 1.252 1.292 1.292 0 0 0 1.182 1.373.8.8 0 0 0 .794-.684l.096.025-.096.578c-.274.128-.572.2-.875.211a1.408 1.408 0 0 1-1.508-1.508 1.458 1.458 0 0 1 1.508-1.398c.322.018.638.09.936.211l.03.589zM6.92 13.576c.036.037.085.06.138.062a.2.2 0 0 0 .196-.201.201.201 0 0 0-.196-.191.206.206 0 0 0-.197.19.206.206 0 0 0 .059.14zM6.71 15.95h-.075l-.025.116h.845v-.106h-.066c-.11 0-.2 0-.2-.13v-1.564a.135.135 0 0 0-.071 0c-.015.01-.241.086-.427.14v.066l.021.012c.135.071.185.098.185.265v1.07c0 .131-.076.131-.186.131z" fill="#231F20"/>
    <path fill-rule="evenodd" clip-rule="evenodd" d="M3.786 13.396c.168 0 .336-.002.336.337l.025 1.93c-.01.267-.126.297-.362.297v.106h1.08c1.398 0 1.63-1.006 1.63-1.388a1.442 1.442 0 0 0-1.584-1.387H3.76v.105h.026zm1.135 2.534c-.191 0-.407-.035-.407-.342v-2.171c.102-.006.204-.006.306 0a1.19 1.19 0 0 1 1.237 1.276 1.101 1.101 0 0 1-1.136 1.237z" fill="#231F20"/>
    <path d="M7.857 14.774c0-.146-.045-.186-.231-.261v-.076a4.8 4.8 0 0 0 .502-.19v.31c.19-.17.43-.274.684-.296.337 0 .458.247.458.553v1.006c0 .13.085.13.196.13h.07v.116h-.844v-.106h.07c.11 0 .19 0 .19-.13v-1.006c0-.221-.14-.332-.366-.332-.165.026-.322.09-.458.186v1.172c0 .13.086.13.197.13H8.4v.086h-.794v-.106h.07c.11 0 .191 0 .191-.13l-.01-1.056z" fill="#231F20"/>
    <path fill-rule="evenodd" clip-rule="evenodd" d="M9.883 15.191a1.509 1.509 0 0 1 0-.226l1.131-.025h.035v-.07a.624.624 0 0 0-.683-.624.884.884 0 0 0-.8 1.006.8.8 0 0 0 .76.864.925.925 0 0 0 .728-.447L11 15.614a.754.754 0 0 1-.533.261.664.664 0 0 1-.583-.684zm.814-.452c0 .045-.015.095-.11.095h-.689c.045-.281.211-.462.453-.462a.336.336 0 0 1 .346.367z" fill="#231F20"/>
    <path d="M11.13 15.95h.105c.11 0 .191 0 .191-.13v-1.111c0-.095-.093-.131-.16-.157-.018-.007-.034-.013-.046-.02v-.06c.125-.054.225-.104.304-.143.103-.05.168-.083.199-.083.025 0 .034 0 .037.005.002.003.002.007 0 .015a.19.19 0 0 0-.002.03v.357c.1-.155.267-.407.503-.407a.216.216 0 0 1 .215.286.191.191 0 0 1-.175.126.18.18 0 0 1-.12-.045c-.033-.024-.068-.05-.141-.05a.331.331 0 0 0-.287.327v.93c0 .13.076.13.186.13h.221v.116h-1.02l-.01-.116zM12.8 15.858a.503.503 0 0 1-.147-.355l-.095.02.05.483c.153.087.326.133.503.135.472 0 .683-.276.683-.538 0-.335-.265-.449-.51-.555-.213-.09-.41-.176-.41-.39a.277.277 0 0 1 .307-.261.407.407 0 0 1 .432.392h.09l-.024-.402a1.041 1.041 0 0 0-.453-.116.542.542 0 0 0-.613.503c0 .344.251.459.483.565.198.09.382.174.382.39 0 .136-.09.277-.322.277a.503.503 0 0 1-.356-.148zM20.048 15.84c0 .07.04.07.111.07h.156v.08a3.651 3.651 0 0 0-.568.126V15.8a1.085 1.085 0 0 1-.704.331.426.426 0 0 1-.432-.472v-1.006c0-.1 0-.2-.237-.22v-.076c.09 0 .252-.01.369-.018l.134-.008c.045 0 .045.026.045.116v1.006c0 .115 0 .457.342.457a.87.87 0 0 0 .503-.241v-1.076c0-.068-.156-.112-.29-.149l-.042-.012v-.07a14.67 14.67 0 0 0 .613-.056c.036 0 .036.026.036.07l-.036 1.464z" fill="#231F20"/>
    <path fill-rule="evenodd" clip-rule="evenodd" d="M21.426 14.246a1.005 1.005 0 0 0-.593.287v-1.428c0-.03-.005-.055-.03-.055a.35.35 0 0 0-.086.025 2.844 2.844 0 0 1-.407.17v.061l.01.003c.143.043.196.059.196.309v1.684c.002.237-.017.474-.055.709l.085.04.12-.09c.169.092.357.14.549.14a1.005 1.005 0 0 0 .945-1.04.77.77 0 0 0-.734-.815zm-.465 1.643a.427.427 0 0 1-.128-.28v-.96a.603.603 0 0 1 .377-.187.75.75 0 0 1 .633.78c0 .356-.176.769-.598.769a.427.427 0 0 1-.284-.121z" fill="#231F20"/>
    <path d="M3.755 18.358h.03c.08 0 .16 0 .16-.125v-1.127c0-.11-.08-.125-.16-.125h-.03v-.06h.658v.06h-.03c-.08 0-.16 0-.16.125v1.127c0 .115.08.125.16.125h.03v.066h-.658v-.066zM5.891 17.192v.804l-.94-1.075h-.437v.06a.196.196 0 0 1 .196.196v.905c0 .176-.045.276-.196.276h-.02v.066h.573v-.066h-.04c-.166 0-.202-.065-.202-.251v-.89l1.112 1.237h.065a1.458 1.458 0 0 1 0-.216v-.98c0-.277.105-.277.196-.277h.03v-.06h-.573v.065h.05a.18.18 0 0 1 .186.206zM6.55 17.026c-.157 0-.166.038-.199.185l-.002.011h-.066l.03-.18v-.187h.05c0 .066.076.066.131.066h1.112c.06 0 .115 0 .115-.07h.055v.346l-.065.025c0-.08 0-.206-.156-.206h-.377v1.146c0 .166.076.186.181.186h.04v.066h-.713v-.066h.04c.12 0 .176 0 .176-.18v-1.142H6.55zM7.882 18.358h-.03l-.005.04h1.156c.012-.086.031-.173.051-.26l.02-.086h-.06c-.066.261-.177.261-.438.261-.136 0-.262 0-.262-.14v-.503h.257c.17 0 .17.085.17.21h.066v-.497h-.065c-.015.116-.04.191-.171.191h-.257v-.583h.302c.226 0 .262.116.262.256h.065a2.38 2.38 0 0 1 0-.326H7.852v.06h.03c.08 0 .161.015.161.125v1.127c0 .125-.08.125-.16.125z" fill="#231F20"/>
    <path fill-rule="evenodd" clip-rule="evenodd" d="M9.37 17.142c0-.156-.085-.166-.15-.166h-.04v-.055h.678c.271 0 .503.07.503.377a.397.397 0 0 1-.297.377l.367.553a.246.246 0 0 0 .211.13v.066h-.417a6.61 6.61 0 0 1-.448-.7h-.14v.463c0 .166.075.171.176.171h.04v.066h-.684v-.066h.04c.076 0 .151-.04.151-.115l.01-1.101zm.277.503h.105c.216 0 .332-.081.332-.337a.297.297 0 0 0-.317-.312.593.593 0 0 0-.12 0v.649z" fill="#231F20"/>
    <path d="M12.11 17.192v.804l-.95-1.075h-.442v.06h.03a.196.196 0 0 1 .196.196v.905c0 .176-.045.276-.196.276h-.03v.066h.573v-.066h-.035c-.166 0-.207-.065-.207-.251v-.89l1.107 1.237h.065a1.53 1.53 0 0 1 0-.216v-.98c0-.277.1-.277.19-.277h.031v-.06h-.563v.065h.045a.18.18 0 0 1 .186.206z" fill="#231F20"/>
    <path fill-rule="evenodd" clip-rule="evenodd" d="M12.794 18.112a.98.98 0 0 0-.045.171c0 .065.09.075.16.075h.026v.066h-.498v-.066a.19.19 0 0 0 .186-.14l.347-1.006c.031-.087.058-.176.08-.266.068-.026.133-.056.196-.09h.03v.054l.433 1.167c.023.075.05.149.08.221a.135.135 0 0 0 .141.086v.065h-.623v-.065h.025c.05 0 .13 0 .13-.066a.63.63 0 0 0-.04-.156l-.085-.246h-.503l-.04.196zm.317-.95-.202.608h.403l-.201-.608z" fill="#231F20"/>
    <path d="M13.841 17.215c.029-.15.036-.189.195-.189h.351v1.141c0 .181-.06.181-.18.181h-.04v.066h.713v-.066h-.04c-.1 0-.176-.02-.176-.186v-1.146h.352c.156 0 .156.126.156.206l.065-.025v-.347h-.05c-.005.07-.06.07-.116.07h-1.116c-.055 0-.126 0-.126-.065h-.055c.005.062.005.124 0 .186v.181h.066l.001-.008zM15.353 18.358h.03c.076 0 .156 0 .156-.125v-1.127c0-.11-.08-.125-.156-.125h-.03v-.06h.653v.06h-.03c-.075 0-.156 0-.156.125v1.127c0 .115.08.125.156.125h.03v.066h-.653v-.066z" fill="#231F20"/>
    <path fill-rule="evenodd" clip-rule="evenodd" d="M16.866 16.886a.752.752 0 0 1 .825.744.783.783 0 0 1-.81.824.764.764 0 0 1-.804-.774.784.784 0 0 1 .79-.794zm.538.789c0 .316-.085.683-.503.683-.352 0-.528-.367-.528-.754 0-.286.141-.623.503-.623s.528.377.528.694z" fill="#231F20"/>
    <path d="M19.143 17.996v-.804a.181.181 0 0 0-.186-.206h-.05v-.066h.568v.06h-.03c-.09 0-.196 0-.196.277v.98a1.472 1.472 0 0 0 0 .217h-.08l-1.081-1.237v.89c0 .186.035.251.2.251h.041v.066h-.573v-.066h.03c.151 0 .196-.1.196-.276v-.905a.196.196 0 0 0-.196-.196h-.03v-.06h.437l.95 1.075z" fill="#231F20"/>
    <path fill-rule="evenodd" clip-rule="evenodd" d="M19.782 18.283a.972.972 0 0 1 .045-.17l.045-.197h.503l.086.246c.017.051.03.103.04.156 0 .066-.085.066-.13.066h-.026v.065h.619v-.065a.136.136 0 0 1-.141-.086 2.256 2.256 0 0 1-.08-.221l-.453-1.167v-.055h-.03a1.556 1.556 0 0 1-.202.09c-.018.091-.043.18-.075.267l-.347 1.006a.19.19 0 0 1-.186.14v.066h.493v-.066c-.07 0-.161-.01-.161-.075zm.16-.513.202-.608.201.608h-.402z" fill="#231F20"/>
    <path d="M21.516 18.213c0 .085.06.11.131.12.096.008.191.008.287 0a.322.322 0 0 0 .206-.115.574.574 0 0 0 .065-.156h.06c0 .079-.021.158-.043.238a1.857 1.857 0 0 0-.032.129H21.05v-.066h.055c.08 0 .161 0 .161-.145v-1.106c0-.111-.08-.126-.16-.126h-.031v-.066h.669v.06h-.056c-.08 0-.146 0-.146.122l-.025 1.11zM22.205 17.197v.005h.035l-.035-.005zM22.13 16.991h.021a.043.043 0 0 0-.021 0z" fill="#231F20"/>
    <path fill-rule="evenodd" clip-rule="evenodd" d="M22.37 16.877a.231.231 0 0 0-.13-.037.22.22 0 0 0-.226.231.232.232 0 0 0 .278.227.231.231 0 0 0 .078-.421zm-.14.194h-.025v-.08h.069c0 .001 0 0 0 0a.048.048 0 0 1 .002.02c0 .035-.015.06-.046.06zm.115.148a.181.181 0 0 0 .076-.148.182.182 0 0 0-.18-.186.185.185 0 0 0-.112.304.185.185 0 0 0 .111.063.181.181 0 0 0 .092-.025h-.021s-.04-.04-.08-.1h-.026v.07l-.075-.01h.03v-.166c0-.017 0-.027-.009-.03h.054v-.03h.025a.046.046 0 0 1 .034.015c.004.004.008.01.01.016.027.003.047.014.047.06a.07.07 0 0 1-.05.07l.035.05c.01.018.023.034.04.047z" fill="#231F20"/>
    <path d="M8.787 9.314a3.65 3.65 0 1 1 7.3 0 3.65 3.65 0 0 1-7.3 0z" fill="#fff"/>
    <path d="M12.442 13.05a3.79 3.79 0 0 1-3.816-3.746 3.73 3.73 0 0 1 3.816-3.81h.975a3.86 3.86 0 0 1 3.952 3.81c0 2.061-1.886 3.745-3.952 3.745h-.975zm0-7.245A3.459 3.459 0 1 0 15.9 9.264a3.458 3.458 0 0 0-3.454-3.484l-.005.025zm-.784 5.53V7.193a2.192 2.192 0 0 0 0 4.092v.05zm2.976-2.046a2.196 2.196 0 0 0-1.408-2.046v4.047a2.197 2.197 0 0 0 1.413-2.051l-.005.05z" fill="#005288"/>
</svg>
