<svg width="32" height="24" viewBox="0 0 32 24" fill="none" xmlns="http://www.w3.org/2000/svg">
    <rect x=".5" y=".5" width="31" height="23" rx="3.5" fill="#fff" stroke="#CCC"/>
    <path fill-rule="evenodd" clip-rule="evenodd" d="M26.499 16.92a.569.569 0 0 1-.168-.375V15.26c.143-.121.306-.249.502-.249.41 0 .845.476.845 1.047 0 .47-.237 1.026-.803 1.026a.57.57 0 0 1-.376-.164zm.62-2.194c-.291 0-.577.201-.788.38l-.001-1.93c0-.042-.011-.074-.043-.074a.54.54 0 0 0-.116.058 3.42 3.42 0 0 1-.545.227v.085l.022.006c.184.054.258.075.258.407v2.278c0 .315-.025.63-.074.94l.109.059.158-.126c.226.122.478.186.735.187.757 0 1.265-.694 1.265-1.386 0-.577-.367-1.111-.98-1.111zm-5.137 2.279h-.1v.143h.013c.191-.006.379-.011.564-.011.096 0 .191.002.285.005.091.003.181.006.27.006v-.139h-.09c-.148 0-.264 0-.264-.174V13.18c0-.042-.011-.075-.043-.075a.54.54 0 0 0-.116.059 3.426 3.426 0 0 1-.545.226v.085l.022.007c.185.053.259.075.259.406v2.942c0 .174-.106.174-.255.174zm-.29-2.597h-.131c-.1-.618-.54-.872-1.132-.872-.593 0-1.492.408-1.492 1.677 0 1.068.763 1.835 1.576 1.835a1.077 1.077 0 0 0 1.064-.915l.12.032-.121.779c-.218.137-.82.28-1.17.28-1.238 0-2.02-.799-2.02-1.988 0-1.09.969-1.862 2.005-1.862.428 0 .84.137 1.248.28l.053.754zM7.74 13.835a.26.26 0 0 0 .184.076.264.264 0 0 0 .26-.264.26.26 0 1 0-.444.188zm-.28 3.17h-.1v.143h.009c.192-.006.38-.011.567-.011.096 0 .19.002.285.005.091.003.182.006.27.006v-.139h-.09c-.148 0-.265 0-.265-.174V14.8c0-.043-.01-.074-.036-.074a.19.19 0 0 0-.096.026 5.945 5.945 0 0 1-.566.19v.086l.023.012c.18.095.252.134.252.357v1.434c0 .174-.105.174-.253.174zm-2.392-.032c-.254 0-.545-.048-.545-.454l-.005-2.877.072-.006c.08-.007.176-.016.34-.016 1.021 0 1.655.715 1.655 1.704 0 .787-.375 1.65-1.517 1.65zM3.562 13.59c.224.003.442.007.442.45l.006 2.56c-.015.355-.165.37-.475.4l-.011.002v.138h.032a16.636 16.636 0 0 1 1.04-.005c.129.002.261.005.399.005 1.871 0 2.178-1.317 2.178-1.841 0-.938-.746-1.852-2.115-1.852-.227 0-.429.003-.599.006-.123.002-.23.004-.316.004-.207 0-.419 0-.624-.007v.137l.043.001zm5.43 1.84c0-.196-.058-.248-.305-.35v-.096c.236-.073.469-.157.697-.254.016 0 .031.01.031.052v.345c.302-.218.561-.397.917-.397.448 0 .607.327.607.74v1.366c0 .174.117.174.265.174h.095v.139c-.092 0-.184-.003-.277-.006a8.862 8.862 0 0 0-.284-.005c-.19 0-.378.005-.568.01h-.003v-.138h.095c.148 0 .254 0 .254-.174V15.46c0-.302-.184-.45-.486-.45-.17 0-.436.138-.615.254v1.57c0 .174.117.174.265.174h.096v.139c-.092 0-.184-.003-.277-.006a8.862 8.862 0 0 0-.284-.005c-.19 0-.381.005-.571.01v-.138h.095c.148 0 .254 0 .254-.174v-1.407zm3.793-.047c0 .063-.016.131-.147.131h-.92c.062-.38.28-.618.607-.618.296 0 .46.216.46.487zm-1.084.607a1.295 1.295 0 0 1 0-.306h1.489l.048-.031a.569.569 0 0 0 0-.096c-.006-.561-.465-.83-.895-.83-.37 0-1.067.306-1.067 1.343 0 .339.169 1.154 1.01 1.154.436 0 .736-.272.98-.598l-.074-.075c-.195.195-.423.354-.715.354-.421 0-.745-.411-.776-.915zm1.66 1.016h.143c.148 0 .253 0 .253-.174v-1.486c0-.13-.122-.177-.212-.212-.024-.01-.046-.018-.062-.027v-.078c.207-.089.364-.17.473-.225a.728.728 0 0 1 .173-.077c.03 0 .047.015.047.068v.477h.01c.132-.206.356-.545.678-.545a.287.287 0 0 1 .286.38.259.259 0 0 1-.234.17c-.08 0-.12-.03-.163-.06a.277.277 0 0 0-.186-.067.448.448 0 0 0-.386.435v1.25c0 .175.109.175.254.175h.296v.139l-.163-.004a21.906 21.906 0 0 0-1.206.003v-.142zm2.703.048c-.386 0-.598-.297-.666-.645l-.093.031.059.61c.197.11.418.173.645.18.63 0 .91-.372.91-.721 0-.445-.354-.597-.681-.737-.283-.122-.546-.235-.546-.521 0-.228.2-.35.412-.35.338 0 .524.19.577.524h.118l-.037-.545a1.394 1.394 0 0 0-.603-.153c-.581 0-.82.38-.82.676 0 .46.335.612.643.754.265.121.51.233.51.522 0 .184-.116.375-.428.375zm9.214-.202c0 .096.058.102.147.102l.102-.003.11-.003v.109a5.53 5.53 0 0 0-.762.165l-.026-.017v-.428c-.317.258-.56.445-.937.445-.285 0-.581-.187-.581-.63V15.24c0-.138-.021-.27-.316-.296v-.1c.118 0 .327-.015.484-.026.095-.006.17-.012.197-.012.06 0 .06.03.059.115v1.403c0 .159 0 .613.46.613.179 0 .417-.137.64-.327v-1.418c0-.096-.196-.15-.372-.198a12.136 12.136 0 0 1-.073-.02v-.095c.306-.02.537-.045.678-.06.078-.008.128-.014.147-.014.045 0 .045.028.044.073v1.974zM3.513 20.218h.04c.11 0 .218-.014.218-.164v-1.508c0-.15-.109-.164-.212-.164h-.046v-.086c.051 0 .116.002.186.005.08.003.165.007.24.007.072 0 .152-.003.23-.006.078-.003.154-.006.221-.006v.086h-.04c-.11 0-.213.014-.213.164v1.508c0 .15.11.164.218.164h.04v.086c-.067 0-.144-.002-.221-.005a6.816 6.816 0 0 0-.233-.005c-.076 0-.16.003-.237.005a4.474 4.474 0 0 1-.185.005l-.006-.086zm2.86-.481h-.006l-1.285-1.441c-.043 0-.086.003-.128.006a1.811 1.811 0 0 1-.292 0 2.973 2.973 0 0 0-.163-.006v.086h.038a.26.26 0 0 1 .262.259v1.216c0 .23-.06.365-.26.365H4.5v.086a4.9 4.9 0 0 0 .201-.006 4.1 4.1 0 0 1 .376 0c.062.003.124.006.186.006v-.086h-.05c-.22 0-.27-.086-.27-.337v-1.19l1.483 1.656h.109a1.917 1.917 0 0 1-.017-.29v-1.308c0-.343.136-.366.257-.366h.042v-.086c-.059 0-.118.003-.177.006a3.488 3.488 0 0 1-.377 0 4.502 4.502 0 0 0-.203-.006v.086h.064a.235.235 0 0 1 .19.076.237.237 0 0 1 .06.195v1.079zm.875-1.298c-.214 0-.224.05-.266.25l-.002.012h-.086l.013-.09c.008-.05.016-.102.021-.154a1.81 1.81 0 0 0 .018-.244h.068c.023.083.09.083.165.083h1.493c.078 0 .15 0 .156-.09l.069.012a5.46 5.46 0 0 0-.032.233 1.038 1.038 0 0 0-.002.155l.002.078-.087.032c0-.109-.02-.277-.212-.277h-.477v1.532c0 .218.1.247.238.247h.055v.086c-.05 0-.12-.002-.195-.004a8.71 8.71 0 0 0-.274-.006c-.096 0-.2.003-.294.006-.075.002-.143.004-.193.004v-.086h.055c.159 0 .238-.014.238-.241v-1.538h-.471zm1.78 1.78h-.04l.004.089c.07 0 .177-.002.296-.005.15-.003.321-.006.466-.006.14 0 .302.003.45.006.125.002.24.005.325.005.025-.153.06-.305.097-.458l-.081-.02c-.086.329-.239.351-.584.351-.184 0-.35 0-.35-.187v-.679h.345c.195 0 .206.11.223.278l.001.007.086-.018c-.009-.109-.009-.214-.009-.327 0-.056.003-.113.005-.17a4.71 4.71 0 0 0 .004-.166h-.086c-.017.155-.054.253-.228.253H9.61v-.753h.4c.303 0 .337.149.35.335l.088-.023c-.007-.122-.007-.311-.007-.435-.09 0-.205.002-.326.005-.137.003-.282.007-.41.007-.13 0-.278-.004-.414-.007a12.464 12.464 0 0 0-.303-.005v.086h.04c.11 0 .218.014.218.164v1.508c0 .15-.108.164-.217.164zm2.355-.95h.14c.289 0 .444-.11.444-.45a.392.392 0 0 0-.421-.42c-.055 0-.11.005-.163.012v.857zm-.366-.668c0-.21-.116-.218-.205-.218h-.053v-.086c.04 0 .094.002.156.004a5.937 5.937 0 0 0 .539.001c.072-.003.142-.005.215-.005.363 0 .685.098.685.506 0 .26-.172.418-.4.507l.493.736a.32.32 0 0 0 .279.174v.085c-.048 0-.094-.002-.141-.005a2.214 2.214 0 0 0-.281 0 2.111 2.111 0 0 1-.13.005 8.016 8.016 0 0 1-.6-.932h-.191v.621c0 .218.109.23.235.23h.052v.086c-.082 0-.163-.003-.245-.005a7.336 7.336 0 0 0-.25-.006c-.068 0-.135.003-.204.005a5.29 5.29 0 0 1-.214.006v-.086h.053c.108 0 .204-.05.204-.156l.003-1.467zm3.665 1.136h-.005l-1.285-1.441c-.043 0-.086.003-.13.006a1.779 1.779 0 0 1-.289 0 2.977 2.977 0 0 0-.163-.006v.086h.037a.26.26 0 0 1 .262.259v1.216c0 .23-.06.365-.26.365h-.04v.086c.066 0 .134-.003.2-.006a4.247 4.247 0 0 1 .378 0c.062.003.124.006.185.006v-.086h-.049c-.221 0-.27-.086-.27-.337v-1.19l1.483 1.656h.108a1.78 1.78 0 0 1-.017-.29v-1.308c0-.343.135-.366.256-.366h.044v-.086c-.06 0-.119.003-.178.006-.06.003-.118.006-.176.006-.069 0-.136-.003-.203-.006a4.407 4.407 0 0 0-.2-.006v.086h.063a.237.237 0 0 1 .25.271v1.079zm1.327-1.119-.268.815h.538l-.27-.815zm-.417 1.275c-.029.072-.05.147-.064.224 0 .087.12.101.218.101h.032v.087a6.249 6.249 0 0 0-.35-.011c-.116 0-.205 0-.31.01v-.086h.018a.262.262 0 0 0 .25-.187l.46-1.32c.046-.116.083-.236.11-.357.09-.033.178-.075.261-.125a.087.087 0 0 1 .023-.005.02.02 0 0 1 .02.009l.011.028a.43.43 0 0 0 .016.043l.53 1.506.02.06c.028.081.056.164.088.233a.182.182 0 0 0 .191.115h.018v.087a7.32 7.32 0 0 0-.398-.011c-.139 0-.286 0-.436.01v-.086h.032c.065 0 .178-.012.178-.083a.908.908 0 0 0-.059-.207l-.108-.334h-.654l-.097.299zm1.392-1.204c.042-.2.052-.25.266-.25h.467v1.54c0 .227-.08.242-.238.242h-.056v.086c.051 0 .125-.003.206-.005.094-.003.197-.006.28-.006.086 0 .185.003.276.006.075.002.145.005.194.005v-.086h-.055c-.138 0-.239-.03-.239-.248v-1.531h.472c.198 0 .212.167.218.276l.085-.031c0-.08 0-.157.01-.236l.032-.233-.068-.012c-.007.09-.079.09-.156.09h-1.493c-.074 0-.142 0-.164-.083h-.07c0 .081-.005.163-.016.244a4.28 4.28 0 0 1-.025.174l-.011.07h.083l.002-.012zm2.02 1.53h.04c.11 0 .219-.015.219-.165v-1.508c0-.15-.11-.164-.218-.164h-.04v-.086c.05 0 .116.002.186.005.08.003.164.007.239.007.07 0 .15-.003.23-.006a6.1 6.1 0 0 1 .223-.006v.086h-.043c-.109 0-.218.014-.218.164v1.508c0 .15.11.164.218.164h.04v.086a6.71 6.71 0 0 1-.223-.005 6.804 6.804 0 0 0-.232-.005c-.076 0-.159.003-.237.005a4.43 4.43 0 0 1-.186.005l.003-.086zm2.723-.91c0 .42-.095.912-.654.912h-.002c-.466 0-.702-.493-.702-1.007 0-.386.15-.834.653-.834.479 0 .705.51.705.929zm.403-.064c0-.613-.489-.993-1.102-.993h-.002a1.045 1.045 0 0 0-1.061 1.062c0 .619.465 1.034 1.076 1.034a1.057 1.057 0 0 0 1.09-1.102zm1.941.492h.007v-1.079a.238.238 0 0 0-.25-.27h-.066V18.3c.067 0 .135.003.202.006a3.443 3.443 0 0 0 .389 0c.055-.003.108-.006.166-.006v.086h-.044c-.12 0-.256.023-.256.366v1.307c-.001.098.005.195.018.291h-.11l-1.48-1.652v1.186c0 .25.048.337.27.337h.048v.086a4.25 4.25 0 0 1-.185-.006 4.103 4.103 0 0 0-.186-.005c-.061 0-.126.002-.191.005-.067.003-.134.006-.2.006v-.086h.04c.2 0 .26-.135.26-.365V18.64a.257.257 0 0 0-.266-.26H22.2v-.085c.054 0 .109.003.163.006.055.003.109.006.163.006.043 0 .085-.003.128-.006.042-.003.085-.006.128-.006l1.29 1.44zm1.325-1.119h.009l.262.815h-.539l.268-.815zm-.476 1.5c.014-.078.035-.153.063-.225l.098-.299h.654l.109.333a.947.947 0 0 1 .058.207c0 .072-.114.084-.179.084h-.034v.086c.152-.01.298-.01.436-.01s.268.004.398.01v-.086h-.018a.18.18 0 0 1-.19-.115 3.071 3.071 0 0 1-.1-.268l-.008-.025-.53-1.506a1.797 1.797 0 0 1-.013-.036l-.013-.035a.02.02 0 0 0-.02-.01.07.07 0 0 0-.022.006c-.084.05-.172.092-.264.124a2.334 2.334 0 0 1-.109.358l-.46 1.32a.26.26 0 0 1-.251.187h-.013v.086c.103-.01.195-.01.31-.01.116 0 .233.004.349.01v-.086h-.033c-.096 0-.218-.014-.218-.1zm2.328-.096c0 .116.08.15.173.163.127.008.254.006.38-.007a.41.41 0 0 0 .276-.156.655.655 0 0 0 .09-.207h.082a7.285 7.285 0 0 1-.08.362l-.029.127c-.126 0-.252-.002-.38-.005a16.219 16.219 0 0 0-.762 0c-.128.003-.255.005-.383.005v-.086h.04c.108 0 .217-.014.217-.192v-1.48c0-.15-.109-.164-.218-.164h-.039v-.086c.077 0 .152.003.227.006.076.003.151.006.228.006.077 0 .15-.003.223-.006.07-.003.14-.006.212-.006v.086h-.072c-.109 0-.196 0-.196.155l.011 1.485zm.948-1.504h-.035v-.143h.034a.058.058 0 0 1 .044.019.057.057 0 0 1 .014.047c0 .047-.018.077-.057.077zm-.138.145v.015l.146.004v-.015l-.01-.001c-.028-.004-.033-.005-.033-.023v-.1h.032c.017.024.032.047.044.067.028.044.046.072.065.072h.06v-.01a.337.337 0 0 1-.067-.071l-.05-.07a.094.094 0 0 0 .072-.09c0-.056-.05-.081-.103-.081h-.155v.01c.043-.001.043.01.043.041v.224c0 .023-.004.023-.026.026a.4.4 0 0 0-.018.002zm.29.063a.247.247 0 0 1-.14.038.244.244 0 0 1-.239-.246.248.248 0 0 1 .424-.174.248.248 0 0 1-.045.382zm.029-.461a.303.303 0 0 0-.168-.051.297.297 0 0 0-.303.304.303.303 0 1 0 .47-.253z" fill="#231F20"/>
    <path d="M15.115 13.096c-2.791.014-5.093-2.253-5.093-5.003C10.022 5.082 12.324 3 15.115 3h1.307c2.765 0 5.281 2.08 5.281 5.093 0 2.75-2.516 5.003-5.279 5.003h-1.31zm.01-9.679a4.622 4.622 0 1 0 0 9.244 4.622 4.622 0 0 0 0-9.244zm-1.048 7.356V5.306a2.927 2.927 0 0 0 0 5.467zm3.979-2.734a2.931 2.931 0 0 0-1.882-2.734v5.469a2.932 2.932 0 0 0 1.882-2.735z" fill="#004A98"/>
</svg>
