<svg xmlns="http://www.w3.org/2000/svg" width="32" height="24" fill="none" viewBox="0 0 32 24">
    <g clip-path="url(#diners_club_32_svg__a)">
        <rect width="32" height="24" fill="#fff" rx="4"/>
        <rect width="31" height="23" x=".5" y=".5" fill="#fff" stroke="#ccc" rx="3.5"/>
        <g clip-path="url(#diners_club_32_svg__b)">
            <path fill="#231f20" d="M6.368 19.737h.006v-1.079a.238.238 0 0 0-.25-.271h-.065V18.3c.136 0 .268.013.403.013.118 0 .236-.013.354-.013v.086h-.042c-.121 0-.258.023-.258.366v1.308q-.002.146.018.29h-.109l-1.482-1.656v1.19c0 .25.048.337.27.337h.048v.086c-.123 0-.247-.011-.37-.011s-.262.01-.391.01v-.085h.04c.199 0 .258-.136.258-.366v-1.215a.26.26 0 0 0-.26-.26H4.5v-.085c.108 0 .217.012.326.012.086 0 .17-.012.256-.012zm8.308 0h.006v-1.079a.237.237 0 0 0-.146-.254.24.24 0 0 0-.103-.017h-.063V18.3c.135 0 .267.013.403.013.117 0 .235-.013.354-.013v.086h-.043c-.121 0-.257.023-.257.366v1.308q-.003.146.017.29h-.108l-1.483-1.656v1.19c0 .25.049.337.27.337h.049v.086c-.123 0-.247-.011-.371-.011s-.261.01-.39.01v-.085h.04c.197 0 .258-.136.258-.366v-1.215a.26.26 0 0 0-.077-.185.26.26 0 0 0-.186-.074h-.036v-.086c.109 0 .217.012.326.012.085 0 .169-.012.256-.012zm9.395 0h.007v-1.079a.237.237 0 0 0-.25-.271h-.066V18.3c.135 0 .268.013.402.013s.236-.013.355-.013v.086h-.044c-.12 0-.256.023-.256.366v1.308q-.002.146.018.29h-.11l-1.481-1.653v1.187c0 .25.05.337.27.337h.05v.086c-.125 0-.248-.011-.372-.011s-.262.01-.391.01v-.085h.04c.2 0 .26-.136.26-.366v-1.215a.257.257 0 0 0-.266-.26H22.2v-.085c.109 0 .218.012.327.012.086 0 .169-.012.256-.012zm-2.93-1.48c.56.044.99.413.99.988a1.06 1.06 0 0 1-.665 1.028c-.135.054-.28.08-.425.075-.611 0-1.076-.415-1.077-1.033a1.05 1.05 0 0 1 1.062-1.063zm-9.472.04c.363 0 .685.098.685.507 0 .259-.172.416-.4.506l.493.736a.32.32 0 0 0 .28.174v.086c-.096 0-.188-.011-.283-.011s-.182.01-.27.01a8 8 0 0 1-.6-.932h-.192v.621c0 .218.11.23.236.23h.052v.086c-.164 0-.327-.011-.495-.011-.138 0-.273.01-.418.01v-.085h.053c.109 0 .204-.05.204-.156l.002-1.467c0-.21-.115-.218-.204-.218h-.053v-.086c.093 0 .272.012.447.012.176 0 .311-.012.463-.012m-1.221.434-.087.023c-.014-.186-.048-.335-.35-.335H9.61v.753h.343c.173 0 .21-.098.227-.253h.086c0 .109-.009.225-.009.337s0 .217.01.326l-.087.018c-.017-.173-.026-.285-.224-.285H9.61v.68c0 .186.167.187.351.187.345 0 .498-.024.584-.352l.08.02a6 6 0 0 0-.096.458c-.185 0-.515-.011-.775-.011-.259 0-.601.01-.762.01l-.003-.088h.04c.109 0 .218-.015.218-.165v-1.508c0-.15-.11-.164-.218-.164h-.04v-.086c.175 0 .475.012.717.012.241 0 .544-.012.736-.012 0 .124 0 .314.006.435m8.454-.512q-.017.115-.031.232c-.01.078-.011.155-.011.235l-.085.033c-.005-.11-.02-.277-.218-.278h-.472v1.533c0 .217.102.247.239.247h.055v.086c-.109 0-.314-.011-.47-.011s-.373.01-.486.01v-.085h.055c.158 0 .24-.015.24-.242v-1.54h-.468c-.218 0-.224.053-.268.262h-.083q.02-.119.036-.244.017-.121.017-.244h.069c.023.086.095.083.172.083h1.485c.077 0 .149 0 .155-.09zm-14.512.163h-.04c-.109 0-.213.014-.213.164v1.508c0 .15.11.165.218.165h.041v.086c-.137 0-.311-.011-.455-.011s-.31.01-.422.01l-.006-.085h.04c.11 0 .218-.015.218-.165v-1.508c0-.15-.109-.164-.212-.164h-.046v-.086c.11 0 .284.012.426.012s.316-.012.451-.012zm4.507-.163a6 6 0 0 0-.031.232c-.009.079 0 .155 0 .234l-.088.03c0-.108-.02-.275-.212-.276h-.478v1.532c0 .218.101.248.24.248h.053v.086c-.109 0-.313-.011-.467-.011-.174 0-.376.01-.488.01v-.085h.055c.159 0 .238-.015.238-.242v-1.538h-.471c-.218 0-.224.053-.268.262h-.086c.01-.08.026-.16.034-.244q.017-.121.018-.244h.068c.023.086.096.083.174.083h1.484c.078 0 .15 0 .157-.09zm7.355.007.01.006c.008.023.015.05.025.073l.53 1.505c.035.1.068.207.108.293a.18.18 0 0 0 .19.116h.018v.086c-.13-.007-.259-.011-.397-.011-.139 0-.285 0-.436.01v-.085h.031c.066 0 .179-.013.18-.084a1 1 0 0 0-.06-.207l-.109-.333h-.653l-.097.298q-.043.108-.064.224c0 .087.12.102.218.102h.032v.086a6 6 0 0 0-.35-.011c-.116 0-.205 0-.31.01v-.085h.017a.26.26 0 0 0 .251-.188l.461-1.32q.067-.175.109-.357a1.5 1.5 0 0 0 .261-.124l.023-.006q.006-.001.012.002m3.63.156h-.042c-.108 0-.217.014-.217.164v1.508c0 .15.108.165.217.165h.04v.086c-.138 0-.311-.011-.455-.011-.143 0-.31.01-.423.01l.002-.085h.041c.11 0 .218-.015.218-.165v-1.508c0-.15-.109-.164-.218-.164h-.04v-.086c.108 0 .284.012.424.012s.317-.012.453-.012zm5.761-.156.008.006.026.073.53 1.505c.033.1.069.207.109.293a.182.182 0 0 0 .19.116h.017v.086a8 8 0 0 0-.398-.011c-.138 0-.285 0-.436.01v-.085h.034c.065 0 .179-.013.179-.084a1 1 0 0 0-.058-.207l-.11-.334h-.653l-.097.299q-.042.109-.064.224c0 .087.122.102.218.102h.032v.086a6 6 0 0 0-.348-.011c-.115 0-.207 0-.31.01v-.085h.013a.26.26 0 0 0 .25-.188l.46-1.32q.07-.175.11-.357a1.5 1.5 0 0 0 .264-.124l.022-.006q.007-.001.012.002m1.862.156h-.072c-.109 0-.196 0-.196.155l.012 1.486c0 .115.08.149.172.162q.19.012.38-.007a.4.4 0 0 0 .277-.155.7.7 0 0 0 .088-.208h.084c-.032.165-.073.327-.11.49-.253 0-.508-.011-.763-.011-.254 0-.506.01-.761.01v-.085h.039c.109 0 .218-.015.218-.194v-1.48c0-.149-.11-.163-.218-.163h-.04v-.086c.153 0 .303.012.455.012s.29-.012.435-.012zm-6.483-.002c-.503 0-.653.448-.653.834 0 .514.236 1.006.702 1.007h.003c.558 0 .653-.493.653-.912s-.227-.93-.705-.93m-5.28 1.053h.538l-.27-.815zm9.386 0h.54l-.263-.815h-.009zM11.382 18.41v.858h.14c.29 0 .444-.11.444-.45a.393.393 0 0 0-.42-.42q-.082.002-.164.012m16.827-.197a.3.3 0 0 1 .28.186.304.304 0 0 1-.532.286.304.304 0 0 1 .252-.472m-.086.074a.25.25 0 0 0-.154.23.245.245 0 0 0 .38.208.249.249 0 0 0-.081-.451.25.25 0 0 0-.145.013m.091.072c.054 0 .103.025.103.08a.095.095 0 0 1-.071.091l.048.07a.4.4 0 0 0 .068.072v.01h-.06c-.028 0-.053-.06-.108-.14h-.033v.1c0 .02.007.019.044.024v.016l-.147-.005v-.015c.037-.005.044 0 .044-.027v-.225c0-.032 0-.042-.043-.04v-.01zm-.053.158h.035c.039 0 .057-.03.057-.078a.1.1 0 0 0-.002-.024.1.1 0 0 0-.011-.022.1.1 0 0 0-.02-.014.1.1 0 0 0-.025-.005h-.034zM16.16 14.726c.21.005.415.058.601.154l.037.544h-.117c-.053-.333-.239-.524-.577-.524-.211 0-.412.122-.412.35 0 .618 1.226.428 1.227 1.258 0 .348-.28.72-.91.72a1.4 1.4 0 0 1-.645-.18l-.059-.608.093-.032c.069.349.28.645.667.645.311 0 .428-.191.428-.375 0-.625-1.154-.424-1.154-1.276 0-.296.239-.676.82-.676m4.231-1.352c.428 0 .84.138 1.248.28l.054.753h-.132c-.1-.617-.54-.87-1.132-.87s-1.492.407-1.492 1.676c0 1.068.763 1.835 1.575 1.835a1.08 1.08 0 0 0 1.065-.915l.12.032-.121.778c-.218.138-.82.282-1.17.282-1.238 0-2.02-.8-2.02-1.99 0-1.089.97-1.861 2.005-1.861m-8.048 1.352c.43 0 .89.269.895.83a1 1 0 0 1 0 .095l-.048.033H11.7a1.3 1.3 0 0 0 0 .305c.032.503.356.915.777.915.292 0 .52-.158.715-.353l.074.074c-.244.327-.545.598-.98.598-.841 0-1.01-.815-1.01-1.154 0-1.037.697-1.343 1.067-1.343m13.945-1.624c.03 0 .042.032.042.075v1.93c.212-.18.498-.381.789-.381.613 0 .98.534.98 1.11 0 .693-.508 1.386-1.265 1.387-.256 0-.509-.065-.735-.187l-.158.125-.11-.058q.074-.466.075-.94v-2.278c0-.344-.08-.355-.28-.413v-.085q.282-.09.544-.227a.5.5 0 0 1 .118-.058m-1.053 1.703c.052 0 .044.037.044.094v1.953c0 .095.057.1.146.1.065 0 .143-.005.213-.005v.109a5.5 5.5 0 0 0-.763.165l-.026-.017v-.428c-.317.258-.56.445-.936.445-.286 0-.582-.187-.582-.63v-1.352c0-.138-.021-.27-.316-.297v-.1c.19 0 .612-.036.68-.036.07 0 .06.037.06.153v1.364c0 .16 0 .613.46.613.179 0 .418-.137.64-.327v-1.418c0-.109-.255-.163-.445-.217v-.096c.476-.033.773-.073.825-.073M8.1 14.725c.025 0 .036.032.036.075v2.035c0 .174.117.174.265.174h.09v.139c-.179 0-.366-.011-.555-.011q-.284.001-.576.01v-.142h.1c.148 0 .253 0 .253-.175v-1.433c0-.232-.08-.265-.275-.37v-.085q.288-.08.566-.19a.2.2 0 0 1 .096-.026m2.232.005c.448 0 .607.326.607.739v1.366c0 .174.117.174.265.174h.094v.139c-.185 0-.37-.011-.56-.011q-.285.001-.572.01v-.138h.096c.148 0 .253 0 .253-.174v-1.374c0-.302-.184-.45-.485-.45-.17 0-.436.137-.614.254v1.57c0 .174.116.174.264.174h.096v.139c-.185 0-.37-.011-.56-.011q-.287.001-.572.01v-.138h.095c.148 0 .254 0 .254-.174v-1.406c0-.195-.06-.248-.306-.349v-.097q.355-.108.696-.254c.017 0 .032.01.033.052v.345c.301-.218.56-.396.915-.396m4.532-.004a.287.287 0 0 1 .3.28.26.26 0 0 1-.248.27c-.164 0-.164-.127-.35-.128a.45.45 0 0 0-.385.436v1.251c0 .174.11.174.254.174h.296v.139c-.29-.006-.513-.011-.74-.011q-.34.001-.63.01v-.142h.143c.148 0 .253 0 .253-.175v-1.485c0-.164-.194-.196-.274-.239v-.079c.385-.164.597-.3.645-.301.03 0 .047.015.047.069v.476h.011c.132-.206.355-.545.678-.545m7.753-1.62c.031 0 .043.032.043.075v3.654c0 .174.116.174.264.174h.09v.139c-.18 0-.365-.011-.555-.011q-.282.001-.577.01v-.142h.1c.15 0 .255 0 .255-.175v-2.94c0-.345-.08-.355-.281-.413v-.085q.282-.09.544-.227a.6.6 0 0 1 .117-.059m-17.559.342c1.37 0 2.115.914 2.115 1.852 0 .524-.307 1.84-2.178 1.84-.27 0-.518-.01-.763-.01s-.47.005-.708.01v-.137c.317-.032.471-.043.486-.402l-.006-2.563c0-.47-.248-.444-.485-.45v-.137c.206.007.417.007.624.007s.523-.01.915-.01m21.775 1.563c-.196 0-.36.128-.502.249v1.285a.57.57 0 0 0 .544.539c.566 0 .803-.556.803-1.026 0-.571-.436-1.047-.846-1.047M4.93 13.62c-.218 0-.317.014-.413.02l.006 2.878c0 .406.291.455.545.455 1.142 0 1.517-.862 1.517-1.65 0-.989-.634-1.704-1.655-1.704m7.395 1.274c-.327 0-.544.238-.608.619h.92c.132 0 .148-.069.148-.132 0-.27-.164-.487-.46-.487m-4.402-1.502a.26.26 0 0 1 .261.255.263.263 0 0 1-.26.263.26.26 0 0 1 0-.518"/>
            <path fill="#004a98" d="M15.115 13.096c-2.791.014-5.093-2.253-5.093-5.003C10.022 5.082 12.324 3 15.115 3h1.307c2.765 0 5.281 2.08 5.281 5.093 0 2.75-2.516 5.003-5.279 5.003zm.01-9.679a4.622 4.622 0 1 0 0 9.244 4.622 4.622 0 0 0 0-9.244m-1.048 7.356V5.306a2.927 2.927 0 0 0 0 5.467m3.979-2.734a2.93 2.93 0 0 0-1.882-2.734v5.469a2.93 2.93 0 0 0 1.882-2.735"/>
        </g>
    </g>
    <defs>
        <clipPath id="diners_club_32_svg__a">
            <rect width="32" height="24" fill="#fff" rx="4"/>
        </clipPath>
        <clipPath id="diners_club_32_svg__b">
            <path fill="#fff" d="M3.5 3h25.012v17.36H3.5z"/>
        </clipPath>
    </defs>
</svg>
