<svg width="32" height="24" viewBox="0 0 32 24" fill="none" xmlns="http://www.w3.org/2000/svg">
    <rect x=".5" y=".5" width="31" height="23" rx="3.5" fill="#fff"/>
    <path d="M4.523 16.519c0 .406.29.454.545.454 1.142 0 1.517-.861 1.517-1.65 0-.988-.634-1.703-1.655-1.703-.218 0-.317.015-.412.022l.005 2.877zm-.519-2.48c0-.472-.248-.445-.485-.45v-.138c.205.007.417.007.624.007.207 0 .523-.01.915-.01 1.37 0 2.115.914 2.115 1.852 0 .524-.307 1.84-2.178 1.84-.27 0-.518-.01-.763-.01s-.47.006-.708.01v-.137c.317-.032.47-.043.486-.402l-.006-2.563zm3.92-.128a.26.26 0 1 1 .001 0h-.001zm-.564 3.094h.1c.148 0 .254 0 .254-.174v-1.434c0-.232-.08-.265-.276-.37v-.084c.192-.054.381-.118.567-.19a.19.19 0 0 1 .095-.027c.025 0 .036.031.036.074v2.035c0 .174.117.174.265.174h.09v.139c-.18 0-.366-.011-.555-.011-.19 0-.381.005-.576.01v-.142zm1.633-1.577c0-.195-.06-.247-.306-.348v-.097c.236-.073.469-.157.697-.254.016 0 .031.01.031.052v.345c.302-.218.561-.397.917-.397.448 0 .607.327.607.74v1.366c0 .174.117.174.265.174h.095v.138c-.185 0-.37-.01-.561-.01-.19 0-.38.005-.571.01v-.138h.095c.148 0 .254 0 .254-.174V15.46c0-.302-.184-.45-.486-.45-.17 0-.436.137-.615.254v1.57c0 .174.117.174.265.174h.096v.138c-.185 0-.37-.01-.561-.01-.19 0-.381.005-.571.01v-.138h.095c.148 0 .254 0 .254-.174v-1.407zm3.645.085c.131 0 .147-.068.147-.131 0-.27-.164-.487-.46-.487-.327 0-.545.237-.608.618h.92zm-.937.17a1.295 1.295 0 0 0 0 .306c.031.504.355.915.776.915.292 0 .52-.159.715-.354l.074.075c-.244.326-.544.598-.98.598-.841 0-1.01-.815-1.01-1.154 0-1.037.697-1.343 1.067-1.343.43 0 .89.269.895.83a.569.569 0 0 1 0 .096l-.048.031H11.7zm1.661 1.322h.143c.147 0 .252 0 .252-.174v-1.486c0-.164-.194-.196-.274-.239v-.078c.386-.165.598-.302.646-.302.03 0 .047.015.047.068v.477h.01c.133-.206.356-.545.678-.545a.286.286 0 0 1 .3.28.258.258 0 0 1-.247.27c-.165 0-.165-.127-.35-.127a.448.448 0 0 0-.386.435v1.25c0 .175.11.175.254.175h.296v.139c-.29-.006-.513-.011-.74-.011a21.9 21.9 0 0 0-.629.01v-.142zm2.036-.597c.069.348.28.645.667.645.311 0 .428-.19.428-.375 0-.625-1.154-.424-1.154-1.276 0-.296.239-.676.82-.676.21.005.416.057.603.153l.037.545h-.118c-.053-.333-.238-.524-.577-.524-.211 0-.412.122-.412.35 0 .619 1.227.428 1.227 1.258 0 .349-.28.72-.91.72a1.39 1.39 0 0 1-.645-.18l-.059-.609.093-.031zm6.294-2h-.132c-.1-.618-.539-.872-1.131-.872-.593 0-1.492.408-1.492 1.677 0 1.069.763 1.835 1.575 1.835a1.076 1.076 0 0 0 1.065-.915l.12.032-.121.779c-.218.137-.82.28-1.17.28-1.238 0-2.02-.799-2.02-1.988 0-1.09.968-1.862 2.004-1.862.428 0 .841.137 1.249.28l.053.754zm.19 2.597h.1c.15 0 .255 0 .255-.174v-2.942c0-.344-.08-.354-.281-.413v-.085c.188-.06.37-.135.545-.226a.54.54 0 0 1 .116-.059c.032 0 .043.033.043.075v3.654c0 .174.116.174.264.174h.09v.139c-.18 0-.365-.011-.555-.011-.19 0-.381.005-.577.01v-.142zm3.396-.154c0 .096.058.101.147.101.065 0 .143-.005.213-.005v.109a5.53 5.53 0 0 0-.763.164l-.026-.016v-.428c-.317.258-.56.444-.937.444-.285 0-.581-.186-.581-.63v-1.35c0-.139-.021-.27-.316-.296v-.1c.19 0 .612-.038.68-.038.07 0 .06.037.06.154v1.364c0 .159 0 .613.46.613.179 0 .417-.137.64-.327v-1.418c0-.109-.254-.164-.445-.218v-.095c.476-.032.773-.074.825-.074.052 0 .043.037.043.095v1.952zm1.052-.306a.569.569 0 0 0 .546.54c.565 0 .802-.556.802-1.027 0-.57-.435-1.047-.845-1.047-.196 0-.36.128-.502.249v1.285zm0-1.439c.212-.179.498-.38.788-.38.614 0 .98.534.98 1.11 0 .693-.507 1.387-1.264 1.387-.257 0-.51-.065-.735-.187l-.158.126-.11-.058c.05-.311.075-.626.075-.941v-2.278c0-.344-.08-.354-.28-.413v-.085c.188-.06.37-.136.545-.227a.54.54 0 0 1 .116-.058c.032 0 .043.032.043.075v1.929zM3.513 20.218h.04c.11 0 .218-.014.218-.164v-1.508c0-.15-.109-.164-.212-.164h-.046v-.086c.11 0 .285.012.426.012.142 0 .316-.012.451-.012v.086h-.04c-.11 0-.213.014-.213.164v1.508c0 .15.11.164.218.164h.04v.086c-.137 0-.31-.01-.454-.01-.143 0-.311.01-.422.01l-.006-.086z" fill="#231F20"/>
    <path d="M6.367 19.737h.007v-1.079a.238.238 0 0 0-.25-.27h-.065V18.3c.136 0 .268.012.403.012.118 0 .236-.012.354-.012v.086h-.042c-.121 0-.257.023-.257.366v1.307a1.88 1.88 0 0 0 .017.291h-.109l-1.483-1.656v1.19c0 .25.05.337.27.337h.05v.086c-.124 0-.248-.011-.37-.011-.124 0-.263.01-.393.01v-.085h.04c.2 0 .26-.135.26-.365V18.64a.258.258 0 0 0-.262-.26H4.5v-.085c.109 0 .218.012.327.012.086 0 .17-.012.256-.012l1.285 1.44zm.88-1.297c-.218 0-.224.052-.268.26h-.086c.011-.079.026-.16.035-.243.011-.081.017-.163.018-.244h.068c.023.086.095.083.173.083h1.485c.078 0 .15 0 .156-.09l.069.012a5.446 5.446 0 0 0-.032.233c-.009.079 0 .155 0 .233l-.087.032c0-.109-.02-.277-.213-.277h-.477v1.532c0 .218.1.247.239.247h.054v.086c-.109 0-.313-.01-.468-.01-.173 0-.375.01-.487.01v-.086h.054c.16 0 .239-.014.239-.241v-1.538h-.472zm1.741 1.778h.04c.11 0 .218-.014.218-.164v-1.508c0-.15-.108-.164-.217-.164h-.04v-.086c.175 0 .474.012.716.012s.545-.012.736-.012c0 .124 0 .313.007.435l-.087.023c-.014-.186-.048-.335-.35-.335h-.4v.753h.341c.174 0 .21-.098.228-.253h.086c0 .109-.009.224-.009.336 0 .113 0 .218.01.327l-.087.018c-.017-.173-.026-.285-.224-.285H9.61v.679c0 .187.167.187.351.187.345 0 .498-.023.584-.35l.08.02a6.21 6.21 0 0 0-.096.457c-.186 0-.516-.011-.775-.011-.26 0-.601.01-.762.01zm2.395-.949h.14c.289 0 .444-.11.444-.45a.392.392 0 0 0-.421-.42c-.055 0-.11.005-.163.012zm-.366-.668c0-.21-.116-.218-.205-.218h-.053v-.086c.093 0 .272.012.447.012.176 0 .31-.012.463-.012.363 0 .685.098.685.506 0 .26-.172.418-.4.507l.493.736a.32.32 0 0 0 .279.174v.086c-.095 0-.188-.011-.282-.011-.095 0-.182.01-.27.01a8.033 8.033 0 0 1-.6-.932h-.191v.621c0 .218.109.23.235.23h.052v.086c-.164 0-.327-.01-.494-.01-.139 0-.274.01-.419.01v-.086h.053c.108 0 .204-.05.204-.156zm3.66 1.136h.005v-1.079a.238.238 0 0 0-.25-.27h-.063V18.3c.136 0 .267.012.404.012.117 0 .235-.012.354-.012v.086h-.044c-.12 0-.256.023-.256.366v1.307a1.77 1.77 0 0 0 .018.291h-.11l-1.482-1.656v1.19c0 .25.049.337.27.337h.05v.086c-.124 0-.248-.011-.372-.011-.125 0-.262.01-.391.01v-.085h.04c.198 0 .26-.135.26-.365V18.64a.26.26 0 0 0-.263-.26h-.037v-.085c.108 0 .217.012.326.012.085 0 .17-.012.256-.012l1.285 1.44zm1.332-1.119-.268.815h.538zm-.417 1.275a1.15 1.15 0 0 0-.065.224c0 .087.121.101.218.101h.033v.086a6.098 6.098 0 0 0-.35-.01c-.116 0-.206 0-.31.01v-.086h.017a.26.26 0 0 0 .25-.187l.462-1.32c.045-.116.081-.236.109-.358a1.48 1.48 0 0 0 .261-.124.086.086 0 0 1 .023-.005.021.021 0 0 1 .02.008c.01.023.017.05.027.072l.53 1.506c.034.1.068.207.108.293.03.077.108.125.19.115h.018v.086a7.752 7.752 0 0 0-.397-.01c-.139 0-.286 0-.436.01v-.086h.031c.066 0 .18-.012.18-.084a.909.909 0 0 0-.06-.207l-.109-.333h-.653zm1.658-1.453c-.218 0-.224.052-.268.26h-.083c.012-.079.026-.16.036-.243a1.82 1.82 0 0 0 .017-.244h.07c.022.086.094.083.171.083h1.485c.077 0 .15 0 .156-.09l.069.012-.032.233c-.01.079-.011.155-.011.236l-.085.031c-.005-.109-.02-.276-.218-.276h-.471v1.531c0 .218.1.248.238.248h.056v.086c-.11 0-.314-.011-.47-.011-.156 0-.375.01-.487.01v-.085h.056c.158 0 .238-.015.238-.242v-1.54h-.467zm1.755 1.778h.04c.11 0 .218-.014.218-.164v-1.508c0-.15-.109-.164-.218-.164h-.04v-.086c.109 0 .284.012.425.012.14 0 .317-.012.453-.012v.086h-.043c-.108 0-.218.014-.218.164v1.508c0 .15.11.164.218.164h.04v.086c-.138 0-.31-.01-.455-.01-.143 0-.31.01-.422.01zm2.068.002c.56 0 .654-.492.654-.911 0-.42-.227-.93-.705-.93-.503 0-.653.45-.653.835 0 .514.236 1.007.702 1.007h.002zm-.045-1.968c.613 0 1.102.38 1.102.994a1.058 1.058 0 0 1-1.09 1.102c-.61 0-1.075-.415-1.075-1.034-.009-.59.47-1.07 1.06-1.062m3.047 1.485h.006v-1.079a.239.239 0 0 0-.251-.271h-.065v-.086c.135 0 .268.012.402.012s.236-.012.355-.012v.086h-.043c-.121 0-.256.023-.256.366v1.307c-.002.097.004.195.017.291h-.109L22.647 18.7v1.186c0 .25.049.337.27.337h.049v.086c-.124 0-.248-.011-.372-.011s-.261.01-.39.01v-.085h.04c.199 0 .259-.135.259-.365V18.64a.26.26 0 0 0-.266-.26H22.2v-.085c.109 0 .218.012.327.012.086 0 .169-.012.256-.012l1.288 1.44zm1.333-1.119h-.009l-.268.815h.54zm-.422 1.275c-.028.072-.05.148-.063.224 0 .087.122.101.218.101h.032v.087a6.102 6.102 0 0 0-.348-.011c-.116 0-.207 0-.31.01v-.085h.012a.26.26 0 0 0 .251-.188l.46-1.32c.047-.116.083-.236.11-.357.091-.033.18-.075.264-.125a.072.072 0 0 1 .022-.005.02.02 0 0 1 .02.009l.026.072.53 1.505c.033.1.068.207.108.293a.18.18 0 0 0 .19.115h.017v.087a7.685 7.685 0 0 0-.397-.011c-.139 0-.285 0-.436.01v-.085h.034c.065 0 .178-.013.178-.084a.954.954 0 0 0-.057-.207l-.11-.334h-.653zm2.265.129c0 .116.08.15.173.163.127.008.254.006.38-.007a.411.411 0 0 0 .276-.156.653.653 0 0 0 .09-.207h.082c-.032.165-.072.327-.109.49-.253 0-.508-.011-.762-.011-.255 0-.507.01-.763.01v-.086h.04c.108 0 .217-.014.217-.192v-1.48c0-.15-.109-.164-.218-.164h-.039v-.086c.152 0 .302.012.454.012.153 0 .291-.012.436-.012v.086h-.072c-.109 0-.196 0-.196.155l.01 1.485z" fill="#231f20"/>
    <path d="M28.127 20.293c.034-.157.07-.31.103-.466h-.06a.645.645 0 0 1-.089.203.423.423 0 0 1-.288.16c-.075.008-.15.012-.218.012s-.11 0-.162-.007c-.094-.01-.185-.05-.185-.173v-1.484c0-.16.102-.168.21-.168h.058v-.062c-.141 0-.282.012-.424.012-.143 0-.295-.011-.443-.012v.062h.027c.104 0 .23.017.23.176v1.48c0 .186-.126.206-.23.206h-.027v.06c.25 0 .498-.012.748-.012.249 0 .5.011.749.012h.001zm.01.024c-.254 0-.508-.011-.763-.011s-.506.01-.762.01H26.6v-.108h.052c.11 0 .204-.01.205-.18v-1.482c0-.14-.1-.15-.205-.151H26.6v-.11h.012c.153 0 .304.013.455.013.152 0 .29-.012.436-.012h.012v.109h-.084c-.109 0-.182 0-.184.143v1.484c0 .11.072.137.161.15.051 0 .11.005.16.005.073 0 .146-.004.218-.01a.406.406 0 0 0 .268-.151.67.67 0 0 0 .086-.204v-.009h.11v.014c-.034.166-.073.327-.11.49v.01h-.003zm.024-1.799h.035c.04 0 .058-.03.058-.078a.057.057 0 0 0-.06-.065h-.033v.143zm-.102.16v-.015c.037-.006.043 0 .043-.027v-.225c0-.032 0-.042-.042-.04v-.011h.154c.054 0 .103.025.103.08a.093.093 0 0 1-.071.09l.049.07a.336.336 0 0 0 .067.072v.01h-.06c-.028 0-.053-.06-.108-.14h-.033v.101c0 .02.006.019.044.024v.015l-.146-.004zm.15.086a.247.247 0 1 0-.24-.246.244.244 0 0 0 .24.246zm0-.55a.303.303 0 1 1-.282.187.297.297 0 0 1 .282-.187z" fill="#231F20"/>
    <path d="M15.115 13.096c-2.791.014-5.093-2.253-5.093-5.003C10.022 5.082 12.324 3 15.115 3h1.307c2.765 0 5.281 2.08 5.281 5.093 0 2.75-2.516 5.003-5.279 5.003h-1.31zm.01-9.679a4.622 4.622 0 1 0 0 9.244 4.622 4.622 0 0 0 0-9.244zm-1.048 7.356V5.306a2.927 2.927 0 0 0 0 5.467zm3.979-2.734a2.931 2.931 0 0 0-1.882-2.734v5.469a2.932 2.932 0 0 0 1.882-2.735z" fill="#004A98"/>
    <rect x=".5" y=".5" width="31" height="23" rx="3.5" stroke="#CCC"/>
</svg>
