<svg width="24" height="24" viewBox="0 0 24 24" fill="none" xmlns="http://www.w3.org/2000/svg">
  <path fill-rule="evenodd" clip-rule="evenodd"
    d="M3.5 1C2.11929 1 1 2.11929 1 3.5V20.5C1 21.8807 2.11929 23 3.5 23H8.91193C8.35762 22.4628 8.00578 21.7105 8.0017 20.8618L7.99414 19.2895C7.9908 18.5933 8.22968 17.9176 8.66986 17.3783L17 7.17089V3.5C17 2.11929 15.8807 1 14.5 1H3.5ZM4 10C4 9.44771 4.44772 9 5 9H9C9.55228 9 10 9.44771 10 10C10 10.5523 9.55228 11 9 11H5C4.44772 11 4 10.5523 4 10ZM5 5C4.44772 5 4 5.44772 4 6C4 6.55228 4.44772 7 5 7H13C13.5523 7 14 6.55228 14 6C14 5.44772 13.5523 5 13 5H5Z"
    fill="currentColor" />
  <path
    d="M21.0785 6.918C20.6506 6.5688 20.0207 6.6326 19.6715 7.06048L18.5473 8.43799L21.6463 10.9671L22.7705 9.58955C23.1197 9.16166 23.0559 8.53172 22.628 8.18253L21.0785 6.918Z"
    fill="currentColor" />
  <path
    d="M20.4582 12.4229L17.3592 9.89381L10.2166 18.646C10.0697 18.8261 9.99005 19.0517 9.9914 19.2841L10.0005 20.8545C10.0042 21.4827 10.5792 21.9519 11.1953 21.8296L12.7357 21.5237C12.9636 21.4784 13.1687 21.3551 13.3156 21.1751L20.4582 12.4229Z"
    fill="currentColor" />
</svg>
