<svg xmlns="http://www.w3.org/2000/svg" width="24" height="24" fill="none" viewBox="0 0 24 24">
    <path fill="currentColor" d="M13.994 10.331a5.4 5.4 0 0 1 4.907.93 5.5 5.5 0 0 1 1.595 2.028 1 1 0 0 1-1.818.833 3.5 3.5 0 0 0-1.013-1.289 3.392 3.392 0 0 0-4.176-.033h1.178a1 1 0 0 1 0 2h-3.556a1 1 0 0 1-1-1v-3.6a1 1 0 1 1 2 0v1.143a5.4 5.4 0 0 1 1.883-1.012M19 8.85V6.6a.8.8 0 0 0-.232-.57.77.77 0 0 0-.545-.23h-1.667v.8a1 1 0 0 1-2 0v-.8H9.444v.8a1 1 0 0 1-2 0v-.8H5.777a.77.77 0 0 0-.545.23A.8.8 0 0 0 5 6.6v2.6h2.556a1 1 0 0 1 0 2H5v8c0 .216.085.422.232.57.147.149.343.23.545.23H10.6v2H5.777c-.74 0-1.448-.298-1.967-.824A2.81 2.81 0 0 1 3 19.2V6.6c0-.739.29-1.45.81-1.976A2.77 2.77 0 0 1 5.777 3.8h1.667V3a1 1 0 0 1 2 0v.8h5.112V3a1 1 0 1 1 2 0v.8h1.667c.74 0 1.448.298 1.967.824S21 5.861 21 6.6v2.25a1 1 0 1 1-2 0M21 21a1 1 0 1 1-2 0v-1.144a5.394 5.394 0 0 1-6.79.082 5.5 5.5 0 0 1-1.595-2.027 1 1 0 0 1 1.819-.833c.232.506.58.948 1.012 1.29a3.42 3.42 0 0 0 3.092.587 3.4 3.4 0 0 0 1.084-.555h-1.178a1 1 0 0 1 0-2H20a1 1 0 0 1 1 1z"/>
</svg>
