<svg width="32" height="24" viewBox="0 0 32 24" fill="none" xmlns="http://www.w3.org/2000/svg">
    <rect x=".5" y=".5" width="31" height="23" rx="3.5" fill="#fff" stroke="#CCC"/>
    <path d="M31 14.5S22.744 20.318 7 23h21a3 3 0 0 0 3-3v-5.5z" fill="#E7792B"/>
    <path d="M3.311 9.506H2v4.53h1.306c.694 0 1.196-.162 1.636-.523a2.262 2.262 0 0 0 .832-1.739c0-1.337-1.01-2.268-2.462-2.268zm1.046 3.402c-.282.252-.646.36-1.225.36h-.239v-2.994h.24c.578 0 .928.103 1.224.367.31.272.495.693.495 1.128 0 .434-.186.868-.495 1.14zm1.827-3.402h.895v4.53h-.895v-4.53zm3.083 1.738c-.538-.196-.695-.326-.695-.57 0-.285.28-.503.666-.503.268 0 .487.11.72.368l.469-.606a2.02 2.02 0 0 0-1.348-.502c-.811 0-1.43.557-1.43 1.299 0 .623.288.942 1.128 1.241.35.122.53.203.619.258a.54.54 0 0 1 .268.469c0 .367-.296.638-.694.638-.427 0-.77-.21-.977-.603l-.577.55c.412.597.907.862 1.587.862.93 0 1.581-.61 1.581-1.488 0-.72-.301-1.045-1.318-1.413zm1.6.53c0 1.332 1.058 2.364 2.42 2.364.384 0 .715-.075 1.121-.264v-1.04c-.358.353-.674.496-1.08.496-.9 0-1.54-.646-1.54-1.562 0-.87.66-1.556 1.499-1.556.427 0 .75.15 1.121.51v-1.04c-.393-.197-.716-.279-1.101-.279-1.354 0-2.44 1.054-2.44 2.371zm10.632.774-1.223-3.042h-.977l1.946 4.646h.481l1.98-4.646h-.968l-1.24 3.042h.001zm2.613 1.488h2.535v-.767h-1.641v-1.223h1.581v-.767h-1.582v-1.006h1.642v-.767h-2.535v4.53zm6.077-3.193c0-.848-.591-1.337-1.623-1.337H27.24v4.53h.894v-1.82h.116l1.237 1.82h1.101l-1.444-1.908c.674-.136 1.045-.591 1.045-1.285zm-1.795.749h-.26v-1.373h.275c.556 0 .86.23.86.672 0 .455-.304.7-.875.7z" fill="#1A1918"/>
    <path d="M17.116 14.182a2.405 2.405 0 0 0 2.416-2.393 2.405 2.405 0 0 0-2.416-2.394 2.405 2.405 0 0 0-2.415 2.394 2.405 2.405 0 0 0 2.415 2.393z" fill="#E7792B"/>
</svg>
