<svg width="24" height="24" viewBox="0 0 24 24" fill="none" xmlns="http://www.w3.org/2000/svg">
  <path fill-rule="evenodd" clip-rule="evenodd"
    d="M21 1H14.2389C13.4439 1.00234 12.6819 1.31862 12.1189 1.88001L1.87787 12.1211C1.31575 12.6836 1 13.4463 1 14.2416C1 15.0368 1.31575 15.7996 1.87787 16.3621L7.6379 22.1221C8.20045 22.6842 8.96316 23 9.75842 23C10.5537 23 11.3164 22.6842 11.8789 22.1221L12.0508 21.9503C10.7837 20.6835 10 18.9333 10 17C10 13.134 13.134 10 17 10C18.9333 10 20.6835 10.7837 21.9503 12.0508L22.12 11.8811C22.6814 11.3181 22.9977 10.5561 23 9.76106V3.00001C22.9984 2.47006 22.7872 1.96227 22.4125 1.58754C22.0377 1.21281 21.5299 1.00158 21 1ZM17.5 8.00004C17.2033 8.00004 16.9133 7.91207 16.6666 7.74725C16.4199 7.58242 16.2277 7.34816 16.1141 7.07406C16.0006 6.79997 15.9709 6.49837 16.0288 6.2074C16.0867 5.91642 16.2295 5.64915 16.4393 5.43937C16.6491 5.22959 16.9164 5.08673 17.2073 5.02885C17.4983 4.97097 17.7999 5.00067 18.074 5.11421C18.3481 5.22774 18.5824 5.42 18.7472 5.66667C18.912 5.91335 19 6.20336 19 6.50004C19 6.89786 18.8419 7.2794 18.5606 7.5607C18.2793 7.84201 17.8978 8.00004 17.5 8.00004Z"
    fill="currentColor" />
  <path
    d="M15.5 14.25C15.5 14.9404 14.9404 15.5 14.25 15.5C13.5596 15.5 13 14.9404 13 14.25C13 13.5596 13.5596 13 14.25 13C14.9404 13 15.5 13.5596 15.5 14.25Z"
    fill="currentColor" />
  <path
    d="M21 19.75C21 20.4404 20.4404 21 19.75 21C19.0596 21 18.5 20.4404 18.5 19.75C18.5 19.0596 19.0596 18.5 19.75 18.5C20.4404 18.5 21 19.0596 21 19.75Z"
    fill="currentColor" />
  <path
    d="M20.578 13.4931C20.1874 13.1026 19.5543 13.1026 19.1637 13.4931L13.5074 19.1494C13.1169 19.5399 13.1169 20.1731 13.5074 20.5636C13.898 20.9542 14.5311 20.9542 14.9216 20.5636L20.578 14.9073C20.9685 14.5168 20.9685 13.8836 20.578 13.4931Z"
    fill="currentColor" />
</svg>
