<svg width="32" height="24" fill="none" viewBox="0 0 32 24" xmlns="http://www.w3.org/2000/svg">
    <g clip-path="url(#discover_24_svg__a)">
        <rect x=".5" y=".5" width="31" height="23" rx="3.5" fill="#fff"/>
        <path d="M33 14.501s-8.596 5.993-24.34 8.675H33v-8.675z" fill="#E7792B"/>
        <path d="M4.311 9.506H3v4.53h1.306c.694 0 1.196-.163 1.636-.523a2.262 2.262 0 0 0 .832-1.739c0-1.337-1.01-2.268-2.462-2.268zm1.046 3.402c-.282.252-.646.36-1.225.36h-.239v-2.994h.24c.578 0 .928.103 1.224.367.31.272.495.693.495 1.128s-.186.868-.495 1.14zm1.827-3.402h.895v4.53h-.895v-4.53zm3.083 1.738c-.538-.196-.695-.326-.695-.57 0-.285.28-.503.666-.503.268 0 .487.11.72.368l.469-.606a2.02 2.02 0 0 0-1.348-.502c-.811 0-1.43.557-1.43 1.298 0 .624.288.943 1.128 1.242.35.122.53.203.619.258a.54.54 0 0 1 .268.469c0 .367-.296.638-.694.638-.427 0-.77-.21-.977-.603l-.577.55c.412.597.907.862 1.587.862.93 0 1.581-.61 1.581-1.488 0-.72-.301-1.045-1.318-1.413zm1.6.53c0 1.332 1.058 2.364 2.42 2.364.384 0 .715-.075 1.121-.264v-1.04c-.358.353-.674.496-1.08.496-.9 0-1.54-.646-1.54-1.562 0-.87.66-1.556 1.499-1.556.427 0 .75.15 1.121.51v-1.04c-.392-.197-.716-.279-1.101-.279-1.354 0-2.44 1.054-2.44 2.371zm10.632.774-1.223-3.042h-.977l1.946 4.646h.48l1.982-4.646h-.97l-1.239 3.042h.001zm2.612 1.488h2.536v-.767h-1.642v-1.223h1.582v-.767h-1.583v-1.006h1.643v-.767h-2.536v4.53zm6.077-3.193c0-.848-.59-1.337-1.622-1.337h-1.327v4.53h.894v-1.82h.117l1.237 1.82h1.1l-1.443-1.908c.674-.136 1.044-.591 1.044-1.285zm-1.794.749h-.26v-1.373h.275c.556 0 .859.23.859.672 0 .455-.303.7-.874.7z" fill="#1A1918"/>
        <path d="M18.116 14.182a2.405 2.405 0 0 0 2.415-2.394c0-1.322-1.081-2.394-2.415-2.394s-2.415 1.072-2.415 2.394a2.405 2.405 0 0 0 2.415 2.394z" fill="#E7792B"/>
    </g>
    <rect x=".5" y=".5" width="31" height="23" rx="3.5" stroke="#ccc"/>
    <defs>
        <clipPath id="discover_24_svg__a">
            <rect x=".5" y=".5" width="31" height="23" rx="3.5"/>
        </clipPath>
    </defs>
</svg>
