<svg xmlns="http://www.w3.org/2000/svg" width="24" height="24" fill="none" viewBox="0 0 24 24">
    <path fill="currentColor" d="M20 6.857a.9.9 0 0 0-.245-.617A.77.77 0 0 0 19.2 6H4.8a.77.77 0 0 0-.555.24.9.9 0 0 0-.245.617v.998a3.7 3.7 0 0 1 1.627.979A3.83 3.83 0 0 1 6.7 11.5c0 .994-.383 1.954-1.073 2.666A3.7 3.7 0 0 1 4 15.144v.999c0 .237.092.458.245.617.153.157.353.24.555.24h14.4a.77.77 0 0 0 .555-.24.9.9 0 0 0 .245-.617v-1a3.7 3.7 0 0 1-1.627-.977A3.83 3.83 0 0 1 17.3 11.5c0-.994.383-1.954 1.073-2.666A3.7 3.7 0 0 1 20 7.855zm-5.291 6.43a1 1 0 1 1 0 2H14.7a1 1 0 0 1 0-2zm-.728-5.268a1 1 0 0 1 1.437 1.391l-5.4 5.571a1 1 0 0 1-1.436-1.391zM9.31 7.714a1 1 0 0 1 0 2h-.01a1 1 0 0 1 0-2zm12.691 1a1 1 0 0 1-1 1c-.44 0-.87.181-1.191.513-.323.332-.51.79-.51 1.273s.187.94.51 1.273c.321.332.75.513 1.191.513a1 1 0 0 1 1 1v1.857a2.9 2.9 0 0 1-.81 2.01A2.77 2.77 0 0 1 19.2 19H4.8a2.77 2.77 0 0 1-1.99-.848 2.9 2.9 0 0 1-.81-2.01v-1.856a1 1 0 0 1 1-1c.44 0 .87-.181 1.191-.513.323-.332.51-.79.51-1.273s-.187-.94-.51-1.273A1.66 1.66 0 0 0 3 9.714a1 1 0 0 1-1-1V6.857c0-.747.288-1.471.81-2.01A2.77 2.77 0 0 1 4.8 4h14.4c.753 0 1.468.309 1.99.848a2.9 2.9 0 0 1 .81 2.01z"/>
</svg>
