<svg width="24" height="24" viewBox="0 0 24 24" fill="none" xmlns="http://www.w3.org/2000/svg">
    <path fill-rule="evenodd" clip-rule="evenodd" d="M19.46 9.531a1.011 1.011 0 0 1-.57-.73 6.992 6.992 0 0 0-13.78 0 1.012 1.012 0 0 1-.57.73 5.987 5.987 0 0 0-3.5 6.17A6.132 6.132 0 0 0 7.21 21h9.58a6.132 6.132 0 0 0 6.17-5.3 5.988 5.988 0 0 0-3.5-6.169zm-2.75 4.18-4 4a1.014 1.014 0 0 1-1.42 0l-4-4a1.004 1.004 0 0 1 1.42-1.42l2.29 2.3V9a1 1 0 1 1 2 0v5.59l2.29-2.3a1.004 1.004 0 1 1 1.42 1.421z" fill="#000"/>
</svg>
