<svg width="16" height="16" viewBox="0 0 16 16" fill="none" xmlns="http://www.w3.org/2000/svg">
    <path d="M13.7071 6.70711C14.0976 6.31658 14.0976 5.68342 13.7071 5.29289C13.3166 4.90237 12.6834 4.90237 12.2929 5.29289L9 8.58579L9 1C9 0.447715 8.55228 0 8 0C7.44772 0 7 0.447715 7 1L7 8.58579L3.70711 5.29289C3.31658 4.90237 2.68342 4.90237 2.29289 5.29289C1.90237 5.68342 1.90237 6.31658 2.29289 6.70711L7.29289 11.7071C7.48043 11.8946 7.73478 12 8 12C8.26522 12 8.51957 11.8946 8.70711 11.7071L13.7071 6.70711Z" fill="black"/>
    <path d="M13 14H3C2.44772 14 2 14.4477 2 15C2 15.5523 2.44772 16 3 16H13C13.5523 16 14 15.5523 14 15C14 14.4477 13.5523 14 13 14Z" fill="black"/>
</svg>
