<svg xmlns="http://www.w3.org/2000/svg" width="16" height="16" fill="none" viewBox="0 0 16 16">
    <path fill="currentColor" d="M2.4 13.73c0 .193.074.377.205.514a.69.69 0 0 0 .495.214h9.8a.69.69 0 0 0 .495-.214.74.74 0 0 0 .205-.514v-3.647H15v3.646c0 .58-.222 1.136-.615 1.546a2.06 2.06 0 0 1-1.485.642H3.1a2.06 2.06 0 0 1-1.485-.642A2.24 2.24 0 0 1 1 13.73v-3.646h1.4zM8.667 1.5v7.057l2.195-2.195a.666.666 0 0 1 .943.943l-3.333 3.334a.667.667 0 0 1-.944 0L4.195 7.305a.666.666 0 1 1 .943-.943l2.195 2.195V1.5z"/>
</svg>
