<svg xmlns="http://www.w3.org/2000/svg" width="24" height="24" fill="none" viewBox="0 0 24 24">
    <path fill="currentColor" d="M10.999 11.889h2v5.716l1.897-1.873a1 1 0 0 1 1.406 1.424l-3.6 3.556a1 1 0 0 1-1.406 0l-3.6-3.556a1.001 1.001 0 0 1 1.406-1.424l1.897 1.874zM8.515 3.042c1.123-.12 2.26.02 3.319.407a7.3 7.3 0 0 1 2.79 1.831 7.2 7.2 0 0 1 1.413 2.164h.912c1.088 0 2.148.348 3.022.993a5 5 0 0 1 1.823 2.593 4.96 4.96 0 0 1-.113 3.163 5 5 0 0 1-2.003 2.458 1 1 0 1 1-1.073-1.687 3 3 0 0 0 1.205-1.477 2.95 2.95 0 0 0 .067-1.886 3 3 0 0 0-1.095-1.555 3.1 3.1 0 0 0-1.586-.592l-.247-.01h-1.611a1 1 0 0 1-.957-.71 5.2 5.2 0 0 0-1.208-2.078 5.3 5.3 0 0 0-2.027-1.329 5.38 5.38 0 0 0-4.715.504 5.26 5.26 0 0 0-1.688 1.725 5.152 5.152 0 0 0-.349 4.644c.311.747.794 1.415 1.412 1.95l.757.653-1.308 1.513-.757-.654a7.2 7.2 0 0 1-1.95-2.696 7.15 7.15 0 0 1 .482-6.443 7.26 7.26 0 0 1 2.33-2.38 7.35 7.35 0 0 1 3.155-1.101"/>
</svg>
