<svg width="24" height="24" viewBox="0 0 24 24" fill="none" xmlns="http://www.w3.org/2000/svg">
    <path d="M11.29 18.71C11.4795 18.896 11.7345 19.0001 12 19C12.2655 19.0001 12.5205 18.896 12.71 18.71L19.71 11.71C19.896 11.5205 20.0001 11.2655 20 11C20 10.7348 19.8946 10.4804 19.7071 10.2929C19.5196 10.1054 19.2652 10 19 10C18.7345 9.99988 18.4795 10.104 18.29 10.29L13 15.59V2C13 1.73478 12.8946 1.48043 12.7071 1.29289C12.5196 1.10536 12.2652 1 12 1C11.7348 1 11.4804 1.10536 11.2929 1.29289C11.1054 1.48043 11 1.73478 11 2V15.59L5.71 10.29C5.52049 10.104 5.26553 9.99988 5 10C4.73478 10 4.48043 10.1054 4.29289 10.2929C4.10536 10.4804 4 10.7348 4 11C3.99988 11.2655 4.10402 11.5205 4.29 11.71L11.29 18.71Z" fill="currentColor"/>
    <path d="M5 21C4.44772 21 4 21.4477 4 22C4 22.5523 4.44772 23 5 23H19C19.5523 23 20 22.5523 20 22C20 21.4477 19.5523 21 19 21H5Z" fill="currentColor"/>
</svg>
