<svg xmlns="http://www.w3.org/2000/svg" width="24" height="24" fill="none" viewBox="0 0 24 24">
    <path fill="currentColor" d="M20 7.357c0-.503-.387-.857-.8-.857H4.8c-.413 0-.8.354-.8.857v9.286c0 .503.387.857.8.857h14.4c.413 0 .8-.354.8-.857zm-9.9 3.714c0-.503-.388-.857-.8-.857s-.8.354-.8.857c0 .485.36.83.755.855l.045-.001h.044c.396-.023.756-.369.756-.854m7.3 1.786a1 1 0 0 1 0 2h-2.8v-2zm1-3.714v2h-2.8a1 1 0 0 1 0-2zm-6.3 1.928c0 .613-.194 1.187-.524 1.659.561.448.985 1.049 1.218 1.733a1 1 0 0 1-1.894.645 1.8 1.8 0 0 0-.63-.864 1.65 1.65 0 0 0-.91-.317l-.06.002-.06-.002c-.324.012-.64.12-.91.317-.288.21-.51.511-.63.864a1 1 0 1 1-1.893-.645 3.8 3.8 0 0 1 1.216-1.733A2.9 2.9 0 0 1 6.5 11.07c0-1.548 1.224-2.857 2.8-2.857s2.8 1.31 2.8 2.857m9.9 5.572c0 1.548-1.224 2.857-2.8 2.857H4.8c-1.576 0-2.8-1.31-2.8-2.857V7.357C2 5.81 3.224 4.5 4.8 4.5h14.4c1.576 0 2.8 1.31 2.8 2.857z"/>
</svg>
