<svg xmlns="http://www.w3.org/2000/svg" width="24" height="24" fill="none" viewBox="0 0 24 24">
    <path fill="currentColor" fill-rule="evenodd" d="M20 4a3 3 0 0 1 3 3v10a3 3 0 0 1-3 3H4a3 3 0 0 1-3-3V7a3 3 0 0 1 3-3zm-6 4a1 1 0 0 1 1-1h4a1 1 0 1 1 0 2h-4a1 1 0 0 1-1-1m1 3a1 1 0 1 0 0 2h4a1 1 0 1 0 0-2zm-3 .37a3 3 0 0 0-.09-.728l-.531-2.127A2 2 0 0 0 9.439 7H6.561a2 2 0 0 0-1.94 1.515l-.532 2.127a3 3 0 0 0-.09.727V16a1 1 0 1 0 2 0 .5.5 0 0 1 .5-.5h3a.5.5 0 0 1 .5.5 1 1 0 1 0 2 0zM6.562 8h2.876a1 1 0 0 1 .97.757l.25 1A1 1 0 0 1 9.689 11H6.312a1 1 0 0 1-.97-1.243l.25-1A1 1 0 0 1 6.561 8M7 13.5a1 1 0 1 1-2 0 1 1 0 0 1 2 0m4 0a1 1 0 1 1-2 0 1 1 0 0 1 2 0" clip-rule="evenodd"/>
</svg>
