<svg width="16" height="16" viewBox="0 0 16 16" fill="none" xmlns="http://www.w3.org/2000/svg">
    <g clip-path="url(#edit_16_svg__a)">
        <path d="m8.168 3.592 4.239 4.239-7.588 7.579a1.965 1.965 0 0 1-1.41.59H1a1 1 0 0 1-1-1v-2.41c0-.53.209-1.04.58-1.419l7.588-7.579zm7.239-1.66-1.34-1.34a2.085 2.085 0 0 0-2.91 0l-1.569 1.58 4.239 4.239 1.58-1.569a2.08 2.08 0 0 0 0-2.91z" fill="#000"/>
    </g>
    <defs>
        <clipPath id="edit_16_svg__a">
            <path fill="#fff" d="M0 0h16v16H0z"/>
        </clipPath>
    </defs>
</svg>
