<svg xmlns="http://www.w3.org/2000/svg" width="24" height="24" fill="none" viewBox="0 0 24 24">
    <path fill="currentColor" d="M13 5H5v14h14v-7a1 1 0 1 1 2 0v7a2 2 0 0 1-2 2H5a2 2 0 0 1-2-2V5a2 2 0 0 1 2-2h8zm6.104-2.998a2.898 2.898 0 0 1 2.048 4.948l-8.065 8.067c-.331.33-.741.574-1.19.705l-.002-.001-2.569.752a1.45 1.45 0 0 1-1.808-1.03 1.45 1.45 0 0 1 .012-.764v-.001l.752-2.572h.001c.116-.393.315-.755.585-1.061l.12-.128 8.066-8.066a2.9 2.9 0 0 1 2.05-.85m0 2a.9.9 0 0 0-.636.263l-8.066 8.067a.8.8 0 0 0-.2.337l-.469 1.6 1.603-.467.094-.034a.8.8 0 0 0 .243-.166l8.065-8.067a.899.899 0 0 0-.634-1.533"/>
</svg>
