<svg xmlns="http://www.w3.org/2000/svg" width="16" height="16" fill="none" viewBox="0 0 16 16">
    <path fill="currentColor" d="M8.915 3.165H3.5a.335.335 0 0 0-.335.335V13c0 .185.15.335.335.335H13c.185 0 .335-.15.335-.335V8.25a.665.665 0 1 1 1.33 0V13c0 .92-.745 1.665-1.665 1.665H3.5c-.92 0-1.665-.745-1.665-1.665V3.5c0-.92.745-1.665 1.665-1.665h5.415zm3.722-1.332A2.031 2.031 0 0 1 14.072 5.3v-.001l-4.794 4.795a1.96 1.96 0 0 1-.716.455l-.117.038-1.846.54h-.001a.988.988 0 0 1-1.225-1.226l.54-1.846v-.001c.092-.314.262-.6.493-.831L11.2 2.428c.38-.381.898-.595 1.437-.595m0 1.334a.7.7 0 0 0-.493.204L7.35 8.165v.001a.6.6 0 0 0-.158.264L6.83 9.67l1.242-.362.074-.027a.6.6 0 0 0 .19-.13l4.794-4.795a.698.698 0 0 0-.492-1.189"/>
</svg>
