<svg xmlns="http://www.w3.org/2000/svg" width="32" height="24" fill="none" viewBox="0 0 32 24">
    <path fill="#fff" d="M0 0h32v24H0z"/>
    <rect width="31" height="23" x=".5" y=".5" fill="#fff" stroke="#ccc" rx="3.5"/>
    <path fill="url(#eftpos_32_svg__a)" d="M11.493 5.76A8 8 0 0 0 16.5 20c2.99 0 5.655-1.67 6.964-4.073.042-.076.064-.159.01-.227-.094-.12-.237-.062-.365.014-1.199.722-2.224 1.059-3.682 1.059-3.178 0-5.753-2.267-5.753-5.064 0-2.215 1.492-4.146 3.7-5.153-.594-1.131-1.906-1.592-3.194-1.592-1.045 0-2.073.303-2.687.797"/>
    <path fill="#e50056" d="M23.372 9.654c0 2.657-2.538 4.811-5.67 4.811-.455 0-1.688-.062-2.57-.473-.252-.117-.226-.264-.054-.336.402-.165 3.548-.769 3.548-4.002 0-3.234-3.339-5.598-7.133-3.893A7.97 7.97 0 0 1 16.5 4c3.715 0 6.872 2.531 6.872 5.654"/>
    <defs>
        <linearGradient id="eftpos_32_svg__a" x1="16.073" x2="13.011" y1="14.637" y2="-1.113" gradientUnits="userSpaceOnUse">
            <stop stop-color="#e50056"/>
            <stop offset=".141" stop-color="#e50056"/>
            <stop offset=".75" stop-color="#1f0038"/>
            <stop offset="1" stop-color="#1f0038"/>
        </linearGradient>
    </defs>
</svg>
