<svg width="24" height="24" viewBox="0 0 24 24" fill="none" xmlns="http://www.w3.org/2000/svg">
  <path
    d="M6.938 4.998a8.978 8.978 0 0 0 5.62 15.98c3.355 0 6.346-1.875 7.815-4.57.047-.086.072-.179.011-.256-.105-.134-.266-.07-.41.017-1.345.809-2.495 1.187-4.132 1.187-3.566 0-6.456-2.544-6.456-5.682 0-2.487 1.675-4.653 4.152-5.784-.665-1.27-2.139-1.786-3.584-1.786-1.173 0-2.327.34-3.016.894Z"
    fill="url(#paint0_linear_101_2)" />
  <path
    d="M20.27 9.367c0 2.982-2.849 5.4-6.362 5.4-.512 0-1.896-.07-2.886-.532-.282-.131-.253-.296-.06-.376.45-.186 3.981-.863 3.981-4.492 0-3.63-3.746-6.282-8.005-4.37a8.94 8.94 0 0 1 5.62-1.975c4.17 0 7.711 2.84 7.711 6.345Z"
    fill="#E50056" />
  <defs>
    <linearGradient id="paint0_linear_101_2" x1="12.078" y1="14.959" x2="8.643" y2="-2.716"
      gradientUnits="userSpaceOnUse">
      <stop stop-color="#E50056" />
      <stop offset=".141" stop-color="#E50056" />
      <stop offset=".75" stop-color="#1F0038" />
      <stop offset="1" stop-color="#1F0038" />
    </linearGradient>
  </defs>
</svg>

