<svg version="1.0" xmlns="http://www.w3.org/2000/svg"
 width="24" height="24" viewBox="0 0 24 24"
 preserveAspectRatio="xMidYMid meet">

<g transform="translate(0.000000,256.000000) scale(0.100000,-0.100000)"
fill="#000000" stroke="none">
<path d="M803 1609 c-44 -13 -64 -46 -70 -119 -5 -55 -8 -60 -29 -60 -22 0
-24 -4 -24 -45 0 -41 2 -45 25 -45 l25 0 0 -125 0 -125 60 0 60 0 0 125 0 125
65 0 65 0 0 -125 0 -125 55 0 55 0 0 125 0 125 25 0 c23 0 25 4 25 45 0 41 -2
45 -25 45 -23 0 -25 3 -25 50 l0 50 -55 0 -55 0 0 -50 0 -50 -65 0 -65 0 0 39
c0 41 20 67 45 57 12 -4 15 3 15 38 0 57 -27 68 -107 45z"/>
<path d="M435 1427 c-72 -29 -103 -66 -119 -144 -18 -80 48 -180 134 -203 68
-19 164 12 191 61 8 16 3 22 -32 40 -24 12 -44 17 -48 11 -9 -14 -48 -32 -69
-32 -24 0 -72 37 -72 55 0 12 26 15 128 17 l127 3 -3 40 c-5 57 -44 119 -89
140 -48 23 -110 28 -148 12z m118 -89 c9 -11 17 -24 17 -29 0 -5 -34 -9 -75
-9 l-75 0 11 24 c22 48 87 56 122 14z"/>
<path d="M1328 1421 c-30 -15 -38 -16 -42 -5 -4 9 -22 14 -56 14 l-50 0 0
-251 0 -250 53 3 52 3 3 86 3 86 36 -18 c45 -23 72 -24 121 -4 75 32 115 90
115 170 0 80 -40 138 -115 170 -49 20 -76 19 -120 -4z m87 -87 c19 -8 45 -55
45 -83 0 -11 -12 -33 -26 -50 -50 -60 -148 -25 -148 52 0 66 64 106 129 81z"/>
<path d="M1707 1426 c-185 -68 -138 -351 57 -350 101 0 174 65 184 163 12 132
-118 233 -241 187z m126 -117 c19 -23 22 -70 7 -98 -16 -31 -65 -46 -100 -31
-57 23 -69 92 -24 137 21 21 32 24 62 19 20 -3 45 -15 55 -27z"/>
<path d="M2054 1430 c-77 -24 -107 -118 -51 -166 15 -13 46 -28 70 -34 57 -14
72 -24 72 -46 0 -29 -75 -31 -125 -5 -44 23 -45 22 -55 -32 -7 -36 -6 -38 31
-54 54 -23 160 -23 202 0 40 22 66 76 57 118 -8 37 -45 66 -111 85 -60 17 -71
28 -54 49 15 18 43 18 93 1 37 -14 39 -13 48 11 14 39 11 53 -17 63 -39 15
-125 20 -160 10z"/>
</g>
</svg>
