<svg width="24" height="24" viewBox="0 0 24 24" fill="none" xmlns="http://www.w3.org/2000/svg">
    <path d="M23 9V20C23 20.7956 22.6839 21.5587 22.1213 22.1213C21.5587 22.6839 20.7957 23 20 23H14.4649C14.8052 22.4117 15 21.7286 15 21C15 18.7909 13.2092 17.0001 11.0002 17C11.6277 16.165 12 15.1267 12 14C12 11.2386 9.76142 9 7 9V4C7 3.20435 7.31607 2.44129 7.87868 1.87868C8.44129 1.31607 9.20435 1 10 1H15V8C15 8.26522 15.1054 8.51957 15.2929 8.70711C15.4804 8.89464 15.7348 9 16 9H23Z" fill="currentColor"/>
    <path d="M23 7H17V1L23 7Z" fill="currentColor"/>
    <path d="M10 14C10 15.3062 9.16519 16.4175 8 16.8293V19H11C12.1046 19 13 19.8954 13 21C13 22.1046 12.1046 23 11 23H3C1.89543 23 1 22.1046 1 21C1 19.8954 1.89543 19 3 19H6V16.8293C4.83481 16.4175 4 15.3062 4 14C4 12.3431 5.34315 11 7 11C8.65685 11 10 12.3431 10 14Z" fill="currentColor"/>
</svg>
