<svg xmlns="http://www.w3.org/2000/svg" width="32" height="24" fill="none" viewBox="0 0 32 24">
    <g clip-path="url(#elo_32_svg__a)">
        <path fill="#003933" d="M10.563 10.119c.304.306.515.732.595 1.198H6.532c.12-.492.36-.892.65-1.185.425-.426.995-.667 1.697-.667s1.286.254 1.684.654M25.48 12.062c0 1.4-1.032 2.464-2.424 2.464-1.366 0-2.425-1.107-2.425-2.477 0-1.412 1.059-2.477 2.425-2.477s2.425 1.09 2.425 2.49"/>
        <path fill="#003933" fill-rule="evenodd" d="M4 0a4 4 0 0 0-4 4v16a4 4 0 0 0 4 4h24a4 4 0 0 0 4-4V4a4 4 0 0 0-4-4zm.92 11.317H3v1.487h1.92c.343 1.84 2.464 3.291 3.96 3.291s2.622-.599 3.376-1.465l-1.14-1.05c-.57.65-1.123 1.024-2.237 1.024-1.113 0-2.04-.664-2.33-1.796h6.199c.026-.19.052-.284.052-.668C12.8 9.65 10.906 8 8.88 8c-2.027 0-3.617 1.478-3.96 3.317m10.703 3.131V8.055h-1.67v6.286c0 1.106.595 1.705 1.696 1.705h2.994v-1.598zM23.053 8a4.067 4.067 0 0 0-4.092 4.05 4.05 4.05 0 0 0 4.092 4.048 4.08 4.08 0 0 0 4.027-3.29H29v-1.491h-1.92C26.734 9.465 25.384 8 23.053 8" clip-rule="evenodd"/>
        <rect width="31" height="23" x=".5" y=".5" stroke="#ccc" rx="3.5"/>
    </g>
    <defs>
        <clipPath id="elo_32_svg__a">
            <rect width="32" height="24" fill="#fff" rx="4"/>
        </clipPath>
    </defs>
</svg>
