<svg width="32" height="24" viewBox="0 0 32 24" fill="none" xmlns="http://www.w3.org/2000/svg">
    <g>
        <path fill="#003933"
            d="M10.5627 10.1189C10.867 10.425 11.0775 10.8513 11.1584 11.3169H6.53204C6.65186 10.8252 6.89142 10.425 7.1828 10.1321C7.60687 9.70557 8.1767 9.46484 8.87921 9.46484C9.58173 9.46484 10.1645 9.71851 10.5627 10.1189Z" />
        <path fill="#003933"
            d="M25.4809 12.0623C25.4809 13.4619 24.4481 14.5261 23.056 14.5261C21.6898 14.5261 20.6312 13.4194 20.6312 12.0491C20.6312 10.6365 21.6898 9.57227 23.056 9.57227C24.4222 9.57227 25.4809 10.6626 25.4809 12.0623Z" />
        <path fill="#003933" fill-rule="evenodd" clip-rule="evenodd"
            d="M4 0C1.79083 0 0 1.79077 0 4V20C0 22.2092 1.79083 24 4 24H28C30.2092 24 32 22.2092 32 20V4C32 1.79077 30.2092 0 28 0H4ZM4.9198 11.3169H3V12.8044H4.9198C5.263 14.6433 7.38354 16.0952 8.87921 16.0952C10.3749 16.0952 11.5016 15.4961 12.2559 14.6304L11.1163 13.5791C10.5465 14.23 9.99292 14.6042 8.87921 14.6042C7.76556 14.6042 6.8396 13.9404 6.54828 12.8076H12.748C12.7739 12.6189 12.7998 12.5244 12.7998 12.1404C12.7998 9.65039 10.9059 8 8.87921 8C6.8526 8 5.263 9.47778 4.9198 11.3169ZM15.6229 14.448V8.05542H13.9523V14.3406C13.9523 15.4473 14.548 16.0464 15.6487 16.0464H18.6434V14.448H15.6229ZM23.0528 8C20.7218 8 18.9606 9.87817 18.9606 12.0491C18.9606 14.2332 20.7089 16.0984 23.0528 16.0984C25.1053 16.0984 26.7241 14.6467 27.0802 12.8076H29V11.3169H27.0802C26.7338 9.46484 25.3838 8 23.0528 8Z" />
    </g>
</svg>
