<svg width="24" height="24" viewBox="0 0 24 24" fill="none" xmlns="http://www.w3.org/2000/svg">
    <path fill="#003933" fill-rule="evenodd" clip-rule="evenodd"
        d="M12 22C17.5228 22 22 17.5228 22 12C22 6.47715 17.5228 2 12 2C6.47715 2 2 6.47715 2 12C2 17.5228 6.47715 22 12 22ZM5.18142 11.5985H4V12.5139H5.18142C5.3926 13.6456 6.69755 14.539 7.61798 14.539C8.53841 14.539 9.23173 14.1704 9.69593 13.6376L8.99465 12.9906C8.644 13.3912 8.30333 13.6216 7.61798 13.6216C6.93264 13.6216 6.36284 13.213 6.18354 12.5159H9.99876C10.0015 12.4962 10.0042 12.4782 10.0068 12.4607C10.0196 12.3749 10.0306 12.3016 10.0306 12.1053C10.0306 10.5729 8.86515 9.55737 7.61798 9.55737C6.37081 9.55737 5.3926 10.4668 5.18142 11.5985ZM8.65397 10.8614C8.84124 11.0497 8.97074 11.3121 9.02055 11.5985H6.17358C6.24729 11.296 6.39472 11.0497 6.57403 10.8694C6.83501 10.607 7.18566 10.4587 7.61798 10.4587C8.05031 10.4587 8.40892 10.615 8.65397 10.8614ZM11.7679 13.5254V9.59142H10.7399V13.4593C10.7399 14.1404 11.1065 14.5089 11.7838 14.5089H13.6267V13.5254H11.7679ZM16.3402 9.55737C14.9057 9.55737 13.8219 10.7131 13.8219 12.0492C13.8219 13.3932 14.8978 14.541 16.3402 14.541C17.6033 14.541 18.5994 13.6476 18.8186 12.5159H20V11.5985H18.8186C18.6054 10.4587 17.7746 9.55737 16.3402 9.55737ZM17.8344 12.0572C17.8344 12.9185 17.1989 13.5735 16.3422 13.5735C15.5014 13.5735 14.85 12.8925 14.85 12.0492C14.85 11.1798 15.5014 10.5248 16.3422 10.5248C17.1829 10.5248 17.8344 11.1959 17.8344 12.0572Z" />
</svg>
