<svg width="32" height="24" viewBox="0 0 32 24" fill="none" xmlns="http://www.w3.org/2000/svg">
    <rect width="32" height="24" rx="4" fill="#000"/>
    <path fill-rule="evenodd" clip-rule="evenodd" d="M7.059 8.777a3 3 0 0 1 .934-.147c1.427 0 2.618.992 2.89 2.312l2.022-.404c-.464-2.243-2.486-3.93-4.911-3.93a5.12 5.12 0 0 0-1.59.252l.655 1.917z" fill="#FFCA05"/>
    <path fill-rule="evenodd" clip-rule="evenodd" d="m4.712 15.275 1.383-1.53a2.885 2.885 0 0 1-1.007-2.185c0-.87.389-1.65 1.006-2.184l-1.383-1.53A4.901 4.901 0 0 0 3 11.56c0 1.479.662 2.806 1.712 3.715z" fill="#00A4DF"/>
    <path fill-rule="evenodd" clip-rule="evenodd" d="M10.884 12.18c-.274 1.319-1.463 2.31-2.889 2.31-.317 0-.633-.05-.936-.148l-.654 1.919a5.12 5.12 0 0 0 1.59.252c2.422 0 4.444-1.686 4.91-3.927l-2.021-.407z" fill="#EE4123"/>
    <path fill-rule="evenodd" clip-rule="evenodd" d="m18.627 13.187-.002.002-.057-.04a1.62 1.62 0 0 1-.747.628c-.617.27-1.19.2-1.6-.161l-.037.057h-.002l-.7 1.052c.174.122.36.224.556.306.774.324 1.566.308 2.346-.032a2.89 2.89 0 0 0 1.31-1.095l-1.067-.717zm-2.188-2.598c-.651.282-.988.896-.918 1.616l2.761-1.194c-.475-.56-1.093-.746-1.843-.421zm-1.833 3.208a3.609 3.609 0 0 1-.21-.405 2.988 2.988 0 0 1-.064-2.25c.295-.81.86-1.43 1.59-1.745.919-.397 1.934-.319 2.814.206.559.321.955.819 1.256 1.522.039.09.072.186.105.268l-5.49 2.403zm7.41-5.95v5.852l.906.37-.515 1.206-1-.418a1.137 1.137 0 0 1-.492-.416 1.312 1.312 0 0 1-.194-.726V7.846h1.295zm2.347 4.361a1.658 1.658 0 0 0 .562 1.248l-.928 1.042a3.056 3.056 0 0 1-1.025-2.291A3.055 3.055 0 0 1 24 9.918l.93 1.041a1.657 1.657 0 0 0-.567 1.25zm1.651 1.661a1.654 1.654 0 0 0 1.62-1.323l1.364.28a3.05 3.05 0 0 1-3.951 2.283l.444-1.325c.164.054.34.085.523.085zm.005-4.718a3.05 3.05 0 0 1 2.98 2.45l-1.364.278a1.654 1.654 0 0 0-2.142-1.245l-.44-1.327c.312-.103.638-.156.966-.156z" fill="#fff"/>
</svg>
