<svg width="32" height="24" viewBox="0 0 32 24" fill="none" xmlns="http://www.w3.org/2000/svg">
    <rect x=".5" y=".5" width="31" height="23" rx="3.5" fill="#fff" stroke="#CCC"/>
    <path opacity=".9" fill-rule="evenodd" clip-rule="evenodd" d="M22.493 18.173h-6.94c-.57 0-.955-.57-.955-.977 0-.378.01-10.373 0-10.76-.01-.387.665-.987 1.118-.987.453.01 6.767 0 6.767 0v5.04H18.8V8.1s-.241-.009-.55 0c-.154.01-.414.165-.414.417-.01.522 0 6.56 0 6.715 0 .145.096.338.414.348.318.02.56 0 .56 0v-2.584h3.682v5.177z" fill="#E11A1D"/>
    <path opacity=".9" fill-rule="evenodd" clip-rule="evenodd" d="M13.413 8.08s-.28-.018-.53-.008c-.26.009-.482.261-.482.416v2.002h1.012V8.08zM10.29 5.45c.762.01 6.313 0 6.313 0v7.546l-4.202-.009v2.216c0 .038.106.367.482.387h.52v-1.868h3.21l-.01 4.451h-6.342s-.955-.155-1.041-1.083c.01-.349 0-10.5 0-10.673 0-.164.367-.968 1.07-.968z" fill="#00509B"/>
</svg>
