<svg xmlns="http://www.w3.org/2000/svg" width="16" height="16" viewBox="0 0 16 16" fill="none">
  <path d="M5.09034 9.4444C3.87575 9.43944 2.69868 9.86183 1.768 10.6366C0.837329 11.4114 0.213254 12.4884 0.00653119 13.6766C-0.00749273 13.7801 0.00112858 13.8854 0.0318074 13.9853C0.0624862 14.0852 0.114501 14.1774 0.184308 14.2555C0.254114 14.3337 0.34007 14.3959 0.436318 14.4381C0.532566 14.4803 0.636842 14.5014 0.74204 14.4999H9.4401C9.54502 14.5006 9.64887 14.4789 9.74468 14.4365C9.84049 14.394 9.92605 14.3317 9.99563 14.2537C10.0652 14.1758 10.1172 14.0839 10.1481 13.9844C10.179 13.8849 10.1882 13.7799 10.1749 13.6766C9.96814 12.4883 9.34396 11.4112 8.41313 10.6364C7.48231 9.86158 6.30505 9.43927 5.09034 9.4444ZM10.9104 7.27775C9.69269 7.27711 8.51353 7.70147 7.57914 8.47663C8.44352 8.81712 9.22439 9.33751 9.86917 10.0028C10.5139 10.668 11.0077 11.4627 11.3171 12.3333H15.2587C15.3638 12.3346 15.468 12.3135 15.5642 12.2712C15.6603 12.229 15.7462 12.1667 15.8159 12.0886C15.8857 12.0105 15.9376 11.9183 15.9682 11.8185C15.9989 11.7186 16.0075 11.6134 15.9935 11.5099C15.7868 10.3219 15.1628 9.24494 14.2323 8.47018C13.3018 7.69543 12.1249 7.27296 10.9104 7.27775ZM5.09034 3.66666C4.65868 3.66666 4.23671 3.79373 3.8778 4.0318C3.51889 4.26988 3.23915 4.60826 3.07396 5.00417C2.90877 5.40007 2.86555 5.83571 2.94976 6.256C3.03397 6.67629 3.24184 7.06235 3.54707 7.36537C3.8523 7.66838 4.24119 7.87473 4.66455 7.95833C5.08792 8.04193 5.52675 7.99903 5.92556 7.83504C6.32436 7.67105 6.66522 7.39334 6.90504 7.03704C7.14486 6.68073 7.27286 6.26183 7.27286 5.83331C7.27286 5.25868 7.04292 4.70758 6.63362 4.30125C6.22431 3.89493 5.66918 3.66666 5.09034 3.66666ZM10.9104 1.5C10.4787 1.5 10.0568 1.62707 9.69785 1.86515C9.33893 2.10322 9.05919 2.44161 8.894 2.83751C8.72882 3.23342 8.68559 3.66906 8.76981 4.08935C8.85402 4.50964 9.06188 4.8957 9.36712 5.19871C9.67235 5.50172 10.0612 5.70808 10.4846 5.79168C10.908 5.87528 11.3468 5.83237 11.7456 5.66838C12.1444 5.50439 12.4853 5.22669 12.7251 4.87038C12.9649 4.51408 13.0929 4.09518 13.0929 3.66666C13.0929 3.09202 12.863 2.54093 12.4537 2.1346C12.0444 1.72827 11.4892 1.5 10.9104 1.5Z" fill="currentColor"/>
</svg>