<svg width="33" height="16" viewBox="0 0 33 16" fill="none" xmlns="http://www.w3.org/2000/svg">
<path d="M17.3281 2C17.3281 1.44772 16.8804 1 16.3281 1C15.7758 1 15.3281 1.44772 15.3281 2V14C15.3281 14.5523 15.7758 15 16.3281 15C16.8804 15 17.3281 14.5523 17.3281 14V2Z" fill="currentColor"/>
<path d="M6.32806 8.39996C5.01575 8.39447 3.74395 8.86234 2.73839 9.72055C1.73283 10.5788 1.05854 11.7718 0.835182 13.0879C0.820029 13.2026 0.829344 13.3192 0.862492 13.4299C0.895639 13.5405 0.95184 13.6426 1.02726 13.7292C1.10269 13.8157 1.19556 13.8847 1.29955 13.9315C1.40354 13.9782 1.51621 14.0015 1.62987 13.9999H11.0278C11.1412 14.0006 11.2534 13.9767 11.3569 13.9296C11.4604 13.8826 11.5529 13.8136 11.6281 13.7272C11.7032 13.6409 11.7594 13.5391 11.7928 13.4289C11.8262 13.3186 11.8361 13.2024 11.8217 13.0879C11.5984 11.7717 10.9239 10.5785 9.91823 9.72029C8.9125 8.86207 7.64052 8.39428 6.32806 8.39996ZM6.32806 2C5.86167 2 5.40575 2.14076 5.01795 2.40447C4.63016 2.66818 4.32791 3.04301 4.14943 3.48155C3.97095 3.92009 3.92425 4.40265 4.01524 4.8682C4.10623 5.33375 4.33082 5.76139 4.66061 6.09703C4.9904 6.43267 5.41058 6.66125 5.86802 6.75385C6.32545 6.84646 6.79959 6.79893 7.23048 6.61728C7.66138 6.43563 8.02967 6.12802 8.28878 5.73334C8.5479 5.33867 8.6862 4.87466 8.6862 4.39998C8.6862 3.76347 8.43776 3.15302 7.99552 2.70294C7.55328 2.25285 6.95348 2 6.32806 2Z" fill="currentColor"/>
<path d="M26.3281 8.39996C25.0157 8.39447 23.744 8.86234 22.7384 9.72055C21.7328 10.5788 21.0585 11.7718 20.8352 13.0879C20.82 13.2026 20.8293 13.3192 20.8625 13.4299C20.8956 13.5405 20.9518 13.6426 21.0273 13.7292C21.1027 13.8157 21.1956 13.8847 21.2996 13.9315C21.4035 13.9782 21.5162 14.0015 21.6299 13.9999H31.0278C31.1412 14.0006 31.2534 13.9767 31.3569 13.9296C31.4604 13.8826 31.5529 13.8136 31.6281 13.7272C31.7032 13.6409 31.7594 13.5391 31.7928 13.4289C31.8262 13.3186 31.8361 13.2024 31.8217 13.0879C31.5984 11.7717 30.9239 10.5785 29.9182 9.72029C28.9125 8.86207 27.6405 8.39428 26.3281 8.39996ZM26.3281 2C25.8617 2 25.4057 2.14076 25.018 2.40447C24.6302 2.66818 24.3279 3.04301 24.1494 3.48155C23.971 3.92009 23.9243 4.40265 24.0152 4.8682C24.1062 5.33375 24.3308 5.76139 24.6606 6.09703C24.9904 6.43267 25.4106 6.66125 25.868 6.75385C26.3254 6.84646 26.7996 6.79893 27.2305 6.61728C27.6614 6.43563 28.0297 6.12802 28.2888 5.73334C28.5479 5.33867 28.6862 4.87466 28.6862 4.39998C28.6862 3.76347 28.4378 3.15302 27.9955 2.70294C27.5533 2.25285 26.9535 2 26.3281 2Z" fill="currentColor"/>
</svg>
