<svg width="17" height="16" viewBox="0 0 17 16" fill="none" xmlns="http://www.w3.org/2000/svg">
<path d="M8.664 8.39996C7.35168 8.39447 6.07989 8.86234 5.07433 9.72055C4.06877 10.5788 3.39448 11.7718 3.17112 13.0879C3.15597 13.2026 3.16528 13.3192 3.19843 13.4299C3.23158 13.5405 3.28778 13.6426 3.3632 13.7292C3.43862 13.8158 3.5315 13.8847 3.63549 13.9315C3.73948 13.9782 3.85215 14.0015 3.96581 13.9999H13.3638C13.4771 14.0006 13.5893 13.9767 13.6929 13.9296C13.7964 13.8826 13.8888 13.8136 13.964 13.7272C14.0392 13.6409 14.0953 13.5391 14.1287 13.4289C14.1622 13.3186 14.172 13.2024 14.1577 13.0879C13.9343 11.7717 13.2599 10.5785 12.2542 9.72029C11.2484 8.86207 9.97646 8.39428 8.664 8.39996ZM8.664 2C8.19761 2 7.74169 2.14076 7.35389 2.40447C6.9661 2.66818 6.66385 3.04301 6.48537 3.48155C6.30689 3.92009 6.26019 4.40265 6.35118 4.8682C6.44217 5.33375 6.66676 5.76139 6.99655 6.09703C7.32634 6.43267 7.74652 6.66125 8.20395 6.75385C8.66139 6.84646 9.13553 6.79893 9.56642 6.61728C9.99731 6.43563 10.3656 6.12802 10.6247 5.73334C10.8838 5.33867 11.0221 4.87466 11.0221 4.39998C11.0221 3.76347 10.7737 3.15302 10.3315 2.70294C9.88922 2.25285 9.28942 2 8.664 2Z" fill="currentColor"/>
</svg>
