<svg width="24" height="24" viewBox="0 0 24 24" fill="none" xmlns="http://www.w3.org/2000/svg">
    <path
        d="M7.99922 14C6.32916 13.9931 4.71068 14.578 3.431 15.6508C2.15133 16.7235 1.29322 18.2148 1.00898 19.86C0.989697 20.0033 1.00155 20.1491 1.04374 20.2874C1.08592 20.4258 1.15744 20.5534 1.25342 20.6616C1.34941 20.7698 1.4676 20.856 1.59994 20.9144C1.73228 20.9728 1.87566 21.002 2.0203 21H13.9801C14.1244 21.0009 14.2672 20.9709 14.3989 20.9121C14.5307 20.8533 14.6483 20.7671 14.744 20.6591C14.8397 20.5512 14.9111 20.424 14.9537 20.2862C14.9962 20.1484 15.0087 20.0031 14.9905 19.86C14.7062 18.2147 13.8479 16.7232 12.5681 15.6504C11.2882 14.5776 9.66945 13.9929 7.99922 14ZM16.0018 11C14.3275 10.9991 12.7061 11.5867 11.4213 12.66C12.6098 13.1314 13.6835 13.852 14.5701 14.7731C15.4567 15.6942 16.1355 16.7946 16.561 18H21.9807C22.1253 18.0019 22.2685 17.9726 22.4007 17.9141C22.533 17.8556 22.651 17.7694 22.7469 17.6612C22.8428 17.553 22.9142 17.4255 22.9563 17.2872C22.9985 17.1489 23.0103 17.0032 22.991 16.86C22.7068 15.215 21.8488 13.7238 20.5694 12.6511C19.2899 11.5783 17.6717 10.9934 16.0018 11ZM7.99922 6C7.40569 6 6.82548 6.17595 6.33197 6.50559C5.83847 6.83524 5.45383 7.30377 5.22669 7.85195C4.99956 8.40013 4.94013 9.00333 5.05592 9.58527C5.17171 10.1672 5.45753 10.7018 5.87722 11.1213C6.29691 11.5409 6.83163 11.8266 7.41376 11.9424C7.99589 12.0581 8.59928 11.9987 9.14764 11.7716C9.69599 11.5446 10.1647 11.1601 10.4944 10.6667C10.8242 10.1734 11.0002 9.59334 11.0002 9C11.0002 8.20435 10.684 7.44129 10.1212 6.87868C9.55843 6.31607 8.79512 6 7.99922 6ZM16.0018 3C15.4082 3 14.828 3.17595 14.3345 3.50559C13.841 3.83524 13.4564 4.30377 13.2293 4.85195C13.0021 5.40013 12.9427 6.00333 13.0585 6.58527C13.1743 7.16721 13.4601 7.70176 13.8798 8.12132C14.2995 8.54088 14.8342 8.8266 15.4163 8.94236C15.9985 9.05811 16.6018 8.9987 17.1502 8.77164C17.6986 8.54458 18.1672 8.16006 18.497 7.66671C18.8267 7.17336 19.0027 6.59334 19.0027 6C19.0027 5.20435 18.6866 4.44129 18.1238 3.87868C17.561 3.31607 16.7977 3 16.0018 3Z"
        fill="currentColor" />
</svg>
