<svg xmlns="http://www.w3.org/2000/svg" width="24" height="24" fill="none" viewBox="0 0 24 24">
    <path fill="currentColor" fill-rule="evenodd" d="M17.15 8.772c-.36.149-.744.226-1.13.228h-.037a3 3 0 1 1 1.166-.228m-2.13-2.577a1 1 0 1 1 1.963-.39 1 1 0 0 1-1.963.39" clip-rule="evenodd"/>
    <path fill="currentColor" d="M20.57 12.65A7.07 7.07 0 0 0 16.026 11h-.05a7.07 7.07 0 0 0-4.543 1.65l-.02.018c.685.28 1.328.644 1.916 1.076A5.06 5.06 0 0 1 15.993 13h.016a5.06 5.06 0 0 1 4.646 3h-5.167a9 9 0 0 1 1.004 2h5.49a1.012 1.012 0 0 0 1.01-1.14 7.06 7.06 0 0 0-2.422-4.21"/>
    <path fill="currentColor" fill-rule="evenodd" d="M7.999 14h.025zm.025 0a7.065 7.065 0 0 1 6.966 5.86A1.01 1.01 0 0 1 13.98 21H2.02a1.007 1.007 0 0 1-1.011-1.14A7.06 7.06 0 0 1 7.974 14m-4.628 5h9.307a5.06 5.06 0 0 0-4.646-3h-.016a5.07 5.07 0 0 0-4.645 3M9.15 11.772c-.36.149-.744.226-1.13.228h-.036a3 3 0 1 1 1.166-.228M7.02 9.195a1 1 0 1 1 1.962-.39 1 1 0 0 1-1.961.39" clip-rule="evenodd"/>
</svg>
