<svg xmlns="http://www.w3.org/2000/svg" width="24" height="24" fill="none" viewBox="0 0 24 24">
    <path fill="currentColor" d="M15 21H3a1 1 0 0 1-1-1v-1.777c0-1.213.488-2.374 1.352-3.227A4.62 4.62 0 0 1 6.6 13.667H12c1.216 0 2.384.476 3.248 1.33a4.54 4.54 0 0 1 1.352 3.226V20a1 1 0 0 1-1 1zm5-1v-1.777c0-.563-.19-1.111-.541-1.559a2.6 2.6 0 0 0-1.406-.913 1 1 0 0 1 .494-1.937c.984.25 1.86.817 2.485 1.615.626.797.967 1.78.968 2.793V20a1 1 0 1 1-2 0M17.297 7.556c0-.563-.19-1.112-.54-1.56a2.6 2.6 0 0 0-1.405-.913 1 1 0 0 1 .496-1.937c.984.251 1.858.819 2.483 1.617s.966 1.78.966 2.793c0 1.012-.34 1.995-.966 2.793a4.6 4.6 0 0 1-2.483 1.617 1 1 0 0 1-.496-1.938 2.6 2.6 0 0 0 1.405-.913c.35-.448.54-.996.54-1.56m-3.397 0c0 2.527-2.072 4.555-4.6 4.555-2.529 0-4.6-2.028-4.6-4.555S6.771 3 9.3 3s4.6 2.028 4.6 4.556"/>
</svg>
