<svg xmlns="http://www.w3.org/2000/svg" width="24" height="24" fill="none" viewBox="0 0 24 24">
    <path fill="currentColor" d="M14.6 20v-1.777c0-.674-.271-1.323-.757-1.803A2.62 2.62 0 0 0 12 15.667H6.6c-.694 0-1.357.272-1.843.753A2.53 2.53 0 0 0 4 18.223V20a1 1 0 1 1-2 0v-1.777c0-1.213.488-2.374 1.352-3.227A4.62 4.62 0 0 1 6.6 13.667H12c1.216 0 2.384.476 3.248 1.33a4.54 4.54 0 0 1 1.352 3.226V20a1 1 0 1 1-2 0m5.4 0v-1.777c0-.563-.19-1.111-.541-1.559a2.6 2.6 0 0 0-1.406-.913 1 1 0 0 1 .494-1.937c.984.25 1.86.817 2.485 1.615.626.797.967 1.78.968 2.793V20a1 1 0 1 1-2 0M11.9 7.556C11.9 6.156 10.748 5 9.3 5S6.7 6.156 6.7 7.556s1.152 2.555 2.6 2.555c1.447 0 2.6-1.156 2.6-2.555m5.397 0c0-.563-.19-1.112-.54-1.56a2.6 2.6 0 0 0-1.405-.913 1 1 0 0 1 .496-1.937c.984.251 1.858.819 2.483 1.617s.966 1.78.966 2.793c0 1.012-.34 1.995-.966 2.793a4.6 4.6 0 0 1-2.483 1.617 1 1 0 0 1-.496-1.938 2.6 2.6 0 0 0 1.405-.913c.35-.448.54-.996.54-1.56m-3.397 0c0 2.527-2.072 4.555-4.6 4.555-2.529 0-4.6-2.028-4.6-4.555C4.7 5.028 6.771 3 9.3 3s4.6 2.028 4.6 4.556"/>
</svg>
