<svg xmlns="http://www.w3.org/2000/svg" width="24" height="24" fill="none" viewBox="0 0 24 24">
    <path fill="currentColor" d="M18 2a2 2 0 0 1 2 2v2.785q-.314-.067-.541-.167a1.74 1.74 0 0 1-.793-.666c-.413-.634-.565-1.638-.565-3.104 0-.513-.456-.848-.913-.848-.458 0-.914.335-.914.848 0 1.466-.152 2.47-.565 3.104-.19.292-.44.511-.793.666a3.2 3.2 0 0 1-.91.23 6 6 0 0 1-.718.04c-.457 0-.913.335-.913.847s.456.848.913.848q.161 0 .307.006.22.01.412.033c.378.046.675.128.909.23.353.155.603.375.793.667.413.634.565 1.637.565 3.104 0 .512.456.848.913.848.458 0 .914-.336.914-.848 0-1.467.152-2.47.565-3.104.19-.292.44-.512.793-.666q.226-.1.541-.168v13.332l-1.394-.598-3.043-1.305-3.067 1.754-.536.307-.515-.343-2.574-1.716-3.52 1.32L4 21.944V4a2 2 0 0 1 2-2zm-6.937 7.941a.88.88 0 0 0-.876.882c0 .79-.09 1.203-.239 1.423-.089.132-.298.342-1.073.342A.88.88 0 0 0 8 13.47c0 .487.392.881.875.881.774 0 .984.21 1.073.342.149.22.24.634.24 1.423a.88.88 0 0 0 .874.883.88.88 0 0 0 .876-.883c0-.789.09-1.202.239-1.423.089-.132.299-.342 1.073-.342a.88.88 0 0 0 .875-.881.88.88 0 0 0-.875-.883c-.775 0-.984-.21-1.073-.342-.149-.22-.24-.634-.24-1.423a.88.88 0 0 0-.874-.882"/>
</svg>
