<svg xmlns="http://www.w3.org/2000/svg" width="48" height="48" fill="none" viewBox="0 0 48 48">
    <path fill="currentColor" fill-rule="evenodd" d="M10 1.5a3 3 0 0 0-3 3v29.597c.002.901.32 1.765.881 2.403.562.638 1.324.997 2.119 1a2.6 2.6 0 0 0 1.545-.494c.463-.329 2.955-2.506 2.955-2.506s2.49 2.184 2.955 2.506c.465.323 1 .494 1.545.494s1.08-.17 1.545-.494C21.01 36.684 23.5 34.5 23.5 34.5s2.492 2.177 2.955 2.506c.463.33.999.5 1.545.494.795-.003 1.557-.362 2.119-1s.879-1.502.881-2.404V4.5a3 3 0 0 0-3-3zM13 9a1.5 1.5 0 0 1 1.5-1.5h9a1.5 1.5 0 0 1 0 3h-9A1.5 1.5 0 0 1 13 9m0 7a1.5 1.5 0 0 1 1.5-1.5h9a1.5 1.5 0 0 1 0 3h-9A1.5 1.5 0 0 1 13 16m1.5 5.5a1.5 1.5 0 0 0 0 3h9a1.5 1.5 0 0 0 0-3z" clip-rule="evenodd"/>
    <path fill="currentColor" d="M22.306 39.543a6 6 0 0 1-1.306.684v4.727c.002.675.266 1.321.734 1.798a2.49 2.49 0 0 0 1.766.748c.455.005.902-.123 1.288-.37L27.5 45.57l2.212 1.562a2.43 2.43 0 0 0 2.576 0l2.212-1.562 2.712 1.562c.386.246.833.374 1.288.369a2.49 2.49 0 0 0 1.766-.748A2.58 2.58 0 0 0 41 44.954V20.5a3 3 0 0 0-3-3h-3.912v16.604c-.004 1.602-.563 3.202-1.653 4.438-1.097 1.245-2.671 2.036-4.41 2.046a5.7 5.7 0 0 1-3.36-1.065 23 23 0 0 1-1.163-.943c-.463.392-.935.782-1.196.963"/>
</svg>
