<svg xmlns="http://www.w3.org/2000/svg" width="24" height="24" fill="none" viewBox="0 0 24 24">
    <path fill="currentColor" d="M13.456 1.96c0-.35.055-.67.153-.96H5.375c-.895 0-1.754.316-2.386.879S2 3.204 2 4v17a1.9 1.9 0 0 0 .661 1.412c.422.375.993.586 1.589.588.41.004.812-.097 1.159-.29l2.216-1.18 2.216 1.18c.35.19.75.29 1.159.29s.81-.1 1.159-.29l2.216-1.18 2.216 1.18c.347.193.75.294 1.159.29a2.4 2.4 0 0 0 1.589-.588A1.9 1.9 0 0 0 20 21v-5h-2v4.926a.44.44 0 0 1-.255.074h-.015a.34.34 0 0 1-.165-.037l-.021-.012-.013-.006-2.216-1.18a2 2 0 0 0-1.88 0l-2.216 1.18-.016.008a.481.481 0 0 1-.407 0l-.015-.008-2.216-1.18a2 2 0 0 0-1.88 0l-2.216 1.18-.034.018A.34.34 0 0 1 4.27 21h-.015A.44.44 0 0 1 4 20.926V4c0-.184.08-.416.317-.626C4.562 3.156 4.94 3 5.375 3h8.049q.031-.43.032-1.04"/>
    <path fill="currentColor" fill-rule="evenodd" d="M13.904 8.766a3.7 3.7 0 0 0-1.04-.26 6 6 0 0 0-.82-.046C11.521 8.46 11 8.08 11 7.5s.521-.96 1.044-.96q.183 0 .35-.008a6 6 0 0 0 .47-.037 3.7 3.7 0 0 0 1.04-.261c.403-.176.69-.424.907-.755.472-.719.645-1.856.645-3.519 0-.58.521-.96 1.044-.96s1.044.38 1.044.96c0 1.663.173 2.8.645 3.52.217.33.503.578.907.754.268.116.607.21 1.04.26a6 6 0 0 0 .82.046c.523 0 1.044.38 1.044.96s-.521.96-1.044.96q-.183 0-.35.008a6 6 0 0 0-.47.037 3.7 3.7 0 0 0-1.04.261c-.404.176-.69.424-.907.755-.472.719-.645 1.856-.645 3.519 0 .58-.521.96-1.044.96s-1.044-.38-1.044-.96c0-1.663-.173-2.8-.645-3.52a2 2 0 0 0-.907-.754M17.352 7.5q-.487.392-.835.923l-.017.027-.017-.027a4 4 0 0 0-.835-.923q.487-.393.835-.923l.017-.027.017.027q.348.53.835.923" clip-rule="evenodd"/>
    <path fill="currentColor" d="M8.5 11a1 1 0 1 1 2 0c0 .894.103 1.363.273 1.613.102.15.341.387 1.227.387a1 1 0 1 1 0 2c-.886 0-1.125.238-1.227.387-.17.25-.273.719-.273 1.613a1 1 0 1 1-2 0c0-.894-.103-1.363-.273-1.613C8.125 15.237 7.886 15 7 15a1 1 0 1 1 0-2c.886 0 1.125-.238 1.227-.387.17-.25.273-.719.273-1.613"/>
</svg>
