<svg xmlns="http://www.w3.org/2000/svg" width="24" height="24" fill="none" viewBox="0 0 24 24">
    <path fill="currentColor" d="M12 4H6v15.057l2.648-.993.48-.18.427.284 2.485 1.657 2.964-1.693.433-.247.457.196 2.106.902V16h2v6.017l-1.394-.598-3.043-1.305-3.067 1.754-.536.307-.515-.343-2.574-1.716-3.52 1.32L4 21.944V4a2 2 0 0 1 2-2h6zm-.937 5.941c.483 0 .874.395.874.882 0 .79.091 1.203.24 1.423.089.132.298.342 1.073.342a.88.88 0 0 1 .875.883.88.88 0 0 1-.875.881c-.774 0-.984.21-1.073.342-.149.22-.24.634-.24 1.423a.88.88 0 0 1-.874.883.88.88 0 0 1-.876-.883c0-.789-.09-1.202-.239-1.423-.089-.132-.299-.342-1.073-.342A.88.88 0 0 1 8 13.471a.88.88 0 0 1 .875-.883c.775 0 .984-.21 1.073-.342.149-.22.24-.634.24-1.423 0-.487.391-.882.874-.882M17.187 2c.458 0 .914.335.914.848 0 1.466.152 2.47.565 3.104.19.292.44.511.793.666.234.103.53.185.91.23a5.5 5.5 0 0 0 .718.04c.457 0 .913.335.913.847s-.456.848-.913.848q-.161 0-.307.006a6 6 0 0 0-.412.033 3.2 3.2 0 0 0-.909.23 1.74 1.74 0 0 0-.793.667c-.413.634-.565 1.637-.565 3.104 0 .512-.456.848-.913.848-.458 0-.914-.336-.914-.848 0-1.467-.152-2.47-.565-3.104a1.74 1.74 0 0 0-.793-.666 3.2 3.2 0 0 0-.91-.23 5.5 5.5 0 0 0-.718-.04c-.457 0-.913-.336-.913-.848s.456-.847.913-.847q.161 0 .307-.006a6 6 0 0 0 .412-.033 3.2 3.2 0 0 0 .909-.23c.353-.156.603-.375.793-.667.413-.634.565-1.638.565-3.104 0-.513.456-.848.913-.848m-.015 4.92a3.5 3.5 0 0 1-.73.815q.426.346.73.815l.015.023.016-.023q.303-.468.73-.815a3.5 3.5 0 0 1-.73-.814l-.015-.024z"/>
</svg>
