<svg xmlns="http://www.w3.org/2000/svg" width="24" height="24" fill="none" viewBox="0 0 24 24">
    <path fill="currentColor" d="M16.5 1h.125c.895 0 1.754.316 2.387.879C19.644 2.44 20 3.204 20 4v2.477a3.5 3.5 0 0 1-.904-.243 2 2 0 0 1-.907-.755c-.472-.719-.645-1.856-.645-3.519 0-.58-.521-.96-1.044-.96"/>
    <path fill="currentColor" fill-rule="evenodd" d="M20 8.523V21a1.9 1.9 0 0 1-.661 1.413A2.4 2.4 0 0 1 17.75 23a2.34 2.34 0 0 1-1.159-.29l-2.216-1.18-2.216 1.18c-.35.19-.75.29-1.159.29s-.81-.1-1.159-.29l-2.216-1.18-2.216 1.18A2.34 2.34 0 0 1 4.25 23a2.4 2.4 0 0 1-1.589-.587A1.9 1.9 0 0 1 2 21V4c0-.796.356-1.559.989-2.121C3.62 1.316 4.479 1 5.375 1H16.5c-.523 0-1.044.38-1.044.96 0 1.663-.173 2.8-.645 3.52-.217.33-.504.578-.907.754-.418.182-1.01.306-1.86.306-.523 0-1.044.38-1.044.96s.521.96 1.044.96c.85 0 1.442.124 1.86.306.403.176.69.424.907.755.472.719.645 1.856.645 3.519 0 .58.521.96 1.044.96s1.044-.38 1.044-.96c0-1.663.173-2.8.645-3.52.217-.33.503-.578.907-.754.24-.104.535-.19.904-.243M8.5 11a1 1 0 1 1 2 0c0 .894.103 1.363.273 1.613.102.15.341.387 1.227.387a1 1 0 1 1 0 2c-.886 0-1.125.238-1.227.387-.17.25-.273.719-.273 1.613a1 1 0 1 1-2 0c0-.894-.103-1.363-.273-1.613C8.125 15.237 7.886 15 7 15a1 1 0 1 1 0-2c.886 0 1.125-.238 1.227-.387.17-.25.273-.719.273-1.613" clip-rule="evenodd"/>
</svg>
