<svg xmlns="http://www.w3.org/2000/svg" width="16" height="16" fill="none" viewBox="0 0 16 16">
    <path fill="currentColor" d="M1.25 12.667V3.333A2.083 2.083 0 0 1 3.333 1.25h4a.75.75 0 0 1 0 1.5h-4a.583.583 0 0 0-.583.583v9.334a.583.583 0 0 0 .583.583h9.334a.583.583 0 0 0 .583-.583v-4a.75.75 0 0 1 1.5 0v4a2.083 2.083 0 0 1-2.083 2.083H3.333a2.083 2.083 0 0 1-2.083-2.083M14.75 6a.75.75 0 0 1-1.5 0V3.81L8.53 8.53a.75.75 0 1 1-1.06-1.06l4.72-4.72H10a.75.75 0 0 1 0-1.5h4a.75.75 0 0 1 .75.75z"/>
</svg>
