<svg xmlns="http://www.w3.org/2000/svg" width="24" height="24" fill="none" viewBox="0 0 24 24">
    <path fill="currentColor" d="M12.204 2.514q.203.027.39.11l.182.095.166.119q.159.131.276.3l.105.177v.001l2.08 4.171.053.093a.9.9 0 0 0 .63.398l4.65.673h-.002a1.48 1.48 0 0 1 1.115.809l.078.19.05.2a1.47 1.47 0 0 1-.426 1.316l-.001.001-3.361 3.242a.89.89 0 0 0-.26.784l.793 4.577a1.47 1.47 0 0 1-1.352 1.726 1.5 1.5 0 0 1-.793-.167l-4.15-2.162v.001a.93.93 0 0 0-.853 0v-.001L7.42 21.329v.001a1.48 1.48 0 0 1-2.055-.748 1.47 1.47 0 0 1-.087-.808l.793-4.58a.89.89 0 0 0-.259-.785l-3.362-3.241.001-.001a1.47 1.47 0 0 1-.379-1.516l.078-.192c.091-.185.22-.35.38-.481l.166-.12a1.5 1.5 0 0 1 .57-.207l4.648-.673h.001a.92.92 0 0 0 .685-.49l2.078-4.17v-.003c.123-.246.313-.453.547-.596l.18-.095c.187-.082.39-.124.595-.124zm4.549 17.607v-.005l-.002-.008zm.515-.098v-.003l-.002.003zm0 0h-.002l.002-.003zm.238-.465.005.002q-.003-.002-.007-.003zm-11.013 0h.003l.002-.002q-.002 0-.005.003M10.391 8.38a2.918 2.918 0 0 1-2.017 1.547l-.173.03-3.586.519 2.587 2.494.123.127a2.89 2.89 0 0 1 .718 2.438l-.612 3.535 3.22-1.676a2.92 2.92 0 0 1 2.54-.078l.159.078 3.221 1.677-.612-3.537a2.88 2.88 0 0 1 .84-2.563v-.001l2.586-2.493-3.586-.52a2.92 2.92 0 0 1-2.104-1.422l-.083-.155-1.611-3.233z"/>
</svg>
