<svg xmlns="http://www.w3.org/2000/svg" width="16" height="16" fill="none" viewBox="0 0 16 16">
    <path fill="currentColor" d="M8.154 1.26a1.06 1.06 0 0 1 .738.476l.072.13L10.35 4.81c.04.087.1.159.168.211a.5.5 0 0 0 .224.097l3.1.476h-.001c.153.023.297.079.423.162l.12.092.104.107q.097.115.16.248l.053.137.033.142a1.1 1.1 0 0 1-.294.947l-2.242 2.289a.6.6 0 0 0-.141.24.65.65 0 0 0-.02.295l.528 3.234a1.1 1.1 0 0 1-.412 1.046 1.06 1.06 0 0 1-1.156.082L8.229 13.09v-.001a.48.48 0 0 0-.403-.026l-.056.027-2.768 1.525v.001a1.06 1.06 0 0 1-1.507-.556 1.1 1.1 0 0 1-.059-.576l.529-3.23a.65.65 0 0 0-.02-.295.6.6 0 0 0-.142-.241L1.56 7.43l.001-.001a1.09 1.09 0 0 1-.263-1.09l.052-.137q.095-.203.266-.355l.121-.092c.126-.083.27-.14.422-.162l3.099-.475.058-.013a.5.5 0 0 0 .165-.084.6.6 0 0 0 .17-.211l1.385-2.944a1.07 1.07 0 0 1 .387-.444l.133-.074A1.05 1.05 0 0 1 8 1.25zM7.01 5.45c-.142.3-.353.563-.617.765a2 2 0 0 1-.784.363l-.123.023-2.292.351 1.681 1.716a2.13 2.13 0 0 1 .571 1.828l-.388 2.377 1.989-1.097a1.98 1.98 0 0 1 1.797-.056l.111.056 1.99 1.097-.388-2.378a2.15 2.15 0 0 1 .068-.981 2.1 2.1 0 0 1 .503-.846l1.68-1.716-2.292-.351a2 2 0 0 1-.906-.386 2.1 2.1 0 0 1-.616-.766l-.992-2.108zm6.67 1.194-.001.012.003-.013z"/>
</svg>
