<svg width="24" height="24" viewBox="0 0 24 24" fill="none" xmlns="http://www.w3.org/2000/svg">
    <path d="M19 2H5a3 3 0 0 0-3 3v14a3 3 0 0 0 3 3h14a3 3 0 0 0 3-3V5a3 3 0 0 0-3-3zm-9 15H9v1a1 1 0 1 1-2 0v-1H6a1 1 0 0 1 0-2h1v-1a1 1 0 1 1 2 0v1h1a1 1 0 0 1 0 2zm0-8H6a1 1 0 0 1 0-2h4a1 1 0 1 1 0 2zm8 10h-4a1 1 0 0 1 0-2h4a1 1 0 0 1 0 2zm0-4h-4a1 1 0 0 1 0-2h4a1 1 0 0 1 0 2zm.71-8.29-4 4c-.19.186-.445.29-.71.29a1 1 0 0 1-1-1c0-.266.104-.52.29-.71l4-4c.19-.186.445-.29.71-.29a1 1 0 0 1 1 1c0 .266-.104.52-.29.71z" fill="#000"/>
</svg>
