<svg xmlns="http://www.w3.org/2000/svg" width="24" height="24" fill="none" viewBox="0 0 24 24">
    <path fill="#1c1b1f" d="M20.204 2.01A2 2 0 0 1 22 4v16l-.01.204a2 2 0 0 1-1.786 1.785L20 22H4a2 2 0 0 1-1.99-1.796L2 20V4a2 2 0 0 1 2-2h16zM4 20h16V4H4zm4.75-7.65a.73.73 0 0 1 .75.75v1.25h1.25a.73.73 0 0 1 .75.75.728.728 0 0 1-.75.75H9.5v1.25a.728.728 0 0 1-.75.75.73.73 0 0 1-.75-.75v-1.25H6.75A.73.73 0 0 1 6 15.1a.73.73 0 0 1 .75-.75H8V13.1a.73.73 0 0 1 .75-.75m8.5 3.25a.73.73 0 0 1 .75.75.728.728 0 0 1-.75.75h-3.5a.73.73 0 0 1-.75-.75.73.73 0 0 1 .75-.75zm0-2.5a.73.73 0 0 1 .75.75.728.728 0 0 1-.75.75h-3.5a.73.73 0 0 1-.75-.75.73.73 0 0 1 .75-.75zm-.35-6.95q.3 0 .525.225a.72.72 0 0 1 0 1.05l-.875.875.9.925q.2.226.188.538a.74.74 0 0 1-.213.512.72.72 0 0 1-.525.225.72.72 0 0 1-.525-.225L15.5 9.4l-.875.875a.72.72 0 0 1-.525.225.72.72 0 0 1-.525-.225.72.72 0 0 1-.225-.525q0-.3.2-.525l.9-.925-.875-.875a.72.72 0 0 1 0-1.05.72.72 0 0 1 .525-.225q.3 0 .525.225l.875.875.875-.875a.72.72 0 0 1 .525-.225m-6.4 1.4a.73.73 0 0 1 .75.75.728.728 0 0 1-.75.75H7a.73.73 0 0 1-.75-.75.73.73 0 0 1 .75-.75z"/>
</svg>
