<svg xmlns="http://www.w3.org/2000/svg" width="24" height="24" fill="none" viewBox="0 0 24 24">
    <path fill="currentColor" d="M4 19.2V4.8c0-.734.283-1.443.796-1.97A2.73 2.73 0 0 1 6.75 2h7v.001a3.05 3.05 0 0 1 2.208.937l3.137 3.227A3.213 3.213 0 0 1 20 8.4v10.8c0 .734-.284 1.443-.796 1.97a2.73 2.73 0 0 1-1.954.83H6.75c-.738 0-1.44-.302-1.954-.83A2.83 2.83 0 0 1 4 19.2M14.75 7.4h2.757L14.75 4.563zM6 19.2c0 .221.086.427.23.575.142.147.33.225.52.225h10.5c.19 0 .378-.078.52-.225A.83.83 0 0 0 18 19.2V9.4h-3.375c-.507 0-.987-.208-1.336-.567A1.91 1.91 0 0 1 12.75 7.5V4h-6a.73.73 0 0 0-.52.225A.83.83 0 0 0 6 4.8z"/>
    <path fill="currentColor" d="M14.5 18.5q.624 0 1.063-.437Q16 17.625 16 17t-.437-1.062A1.45 1.45 0 0 0 14.5 15.5q-.625 0-1.062.438A1.45 1.45 0 0 0 13 17q0 .625.438 1.063.437.437 1.062.437m-5.05-.475a.95.95 0 0 0 .7-.275l5.1-5.1a.95.95 0 0 0 .275-.7.95.95 0 0 0-.275-.7.95.95 0 0 0-.7-.275.95.95 0 0 0-.7.275l-5.1 5.1a.95.95 0 0 0-.275.7q0 .425.275.7a.95.95 0 0 0 .7.275M9.5 13.5q.624 0 1.063-.437Q11 12.625 11 12t-.437-1.062A1.45 1.45 0 0 0 9.5 10.5q-.625 0-1.062.438A1.45 1.45 0 0 0 8 12q0 .624.438 1.063.436.437 1.062.437"/>
</svg>
