<svg width="24" height="24" viewBox="0 0 24 24" fill="none" xmlns="http://www.w3.org/2000/svg">
    <path d="M1 5C1 4.44772 1.44772 4 2 4H22C22.5523 4 23 4.44772 23 5C23 5.55228 22.5523 6 22 6H2C1.44772 6 1 5.55228 1 5Z" fill="currentColor"/>
    <path d="M4 10C4 9.44772 4.44772 9 5 9H19C19.5523 9 20 9.44772 20 10C20 10.5523 19.5523 11 19 11H5C4.44772 11 4 10.5523 4 10Z" fill="currentColor"/>
    <path d="M8 14C7.44772 14 7 14.4477 7 15C7 15.5523 7.44772 16 8 16H16C16.5523 16 17 15.5523 17 15C17 14.4477 16.5523 14 16 14H8Z" fill="currentColor"/>
    <path d="M10 20C10 19.4477 10.4477 19 11 19H13C13.5523 19 14 19.4477 14 20C14 20.5523 13.5523 21 13 21H11C10.4477 21 10 20.5523 10 20Z" fill="currentColor"/>
</svg>
