<svg xmlns="http://www.w3.org/2000/svg" width="16" height="16" fill="none" viewBox="0 0 16 16">
    <path fill="currentColor" d="M8.777 12.11q.33 0 .555.224a.75.75 0 0 1 .223.555q0 .33-.223.553a.75.75 0 0 1-.555.224H7.222a.75.75 0 0 1-.554-.224.75.75 0 0 1-.224-.553q0-.33.224-.555a.75.75 0 0 1 .554-.224zm3.112-3.888q.33 0 .553.223.225.225.224.555 0 .33-.224.554a.75.75 0 0 1-.553.223H4.11a.75.75 0 0 1-.554-.223A.75.75 0 0 1 3.333 9q0-.33.224-.555a.75.75 0 0 1 .554-.223zM12.666 2a2.334 2.334 0 1 1 0 4.668 2.334 2.334 0 0 1 0-4.668M8.777 4.333c0 .553.117 1.08.326 1.556H1.777a.75.75 0 0 1-.553-.224A.75.75 0 0 1 1 5.11q0-.33.224-.553a.75.75 0 0 1 .553-.224z"/>
</svg>
