<svg xmlns="http://www.w3.org/2000/svg" width="16" height="16" fill="none" viewBox="0 0 16 16">
    <path fill="currentColor" d="M7.222 12.5a.77.77 0 0 1-.554-.216.71.71 0 0 1-.224-.534q0-.319.224-.534A.77.77 0 0 1 7.222 11h1.556q.33 0 .554.216.224.215.224.534t-.224.534a.77.77 0 0 1-.554.216zm-3.11-3.75a.77.77 0 0 1-.555-.216A.71.71 0 0 1 3.333 8q0-.319.224-.534a.77.77 0 0 1 .554-.216h7.778q.33 0 .554.216a.71.71 0 0 1 .224.534q0 .319-.224.534a.77.77 0 0 1-.554.216zM1.777 5a.77.77 0 0 1-.554-.216A.71.71 0 0 1 1 4.25q0-.319.224-.534a.77.77 0 0 1 .554-.216h12.444q.33 0 .554.216.225.215.224.534 0 .319-.224.534a.77.77 0 0 1-.554.216z"/>
</svg>
