<svg width="24" height="24" viewBox="0 0 24 24" fill="none" xmlns="http://www.w3.org/2000/svg">
  <path
    d="M19 9C21.2091 9 23 7.20914 23 5C23 2.79086 21.2091 1 19 1C16.7909 1 15 2.79086 15 5C15 7.20914 16.7909 9 19 9Z"
    fill="currentColor" />
  <path
    d="M2 4H13.083C13.0284 4.32521 13 4.65929 13 5C13 5.34071 13.0284 5.67479 13.083 6H2C1.44772 6 1 5.55228 1 5C1 4.44772 1.44772 4 2 4Z"
    fill="currentColor" />
  <path d="M5 11H19C17.223 11 15.6264 10.2275 14.5278 9H5C4.44772 9 4 9.44772 4 10C4 10.5523 4.44772 11 5 11Z"
    fill="currentColor" />
  <path
    d="M8 14C7.44772 14 7 14.4477 7 15C7 15.5523 7.44772 16 8 16H16C16.5523 16 17 15.5523 17 15C17 14.4477 16.5523 14 16 14H8Z"
    fill="currentColor" />
  <path
    d="M10 20C10 19.4477 10.4477 19 11 19H13C13.5523 19 14 19.4477 14 20C14 20.5523 13.5523 21 13 21H11C10.4477 21 10 20.5523 10 20Z"
    fill="currentColor" />
</svg>
