<svg width="16" height="16" viewBox="0 0 16 16" fill="none" xmlns="http://www.w3.org/2000/svg">
  <path d="M12.5 7C14.433 7 16 5.433 16 3.5C16 1.567 14.433 0 12.5 0C10.567 0 9 1.567 9 3.5C9 5.433 10.567 7 12.5 7Z"
    fill="currentColor" />
  <path d="M1 1H7.59971C7.28807 1.60964 7.08684 2.28509 7.02242 3H1C0.447715 3 0 2.55228 0 2C0 1.44772 0.447715 1 1 1Z"
    fill="currentColor" />
  <path d="M3 5H7.20703C7.41701 5.74239 7.77896 6.42097 8.25716 7H3C2.44772 7 2 6.55228 2 6C2 5.44772 2.44772 5 3 5Z"
    fill="currentColor" />
  <path
    d="M4 10C4 9.44771 4.44772 9 5 9H11C11.5523 9 12 9.44771 12 10C12 10.5523 11.5523 11 11 11H5C4.44772 11 4 10.5523 4 10Z"
    fill="currentColor" />
  <path
    d="M7 13C6.44772 13 6 13.4477 6 14C6 14.5523 6.44772 15 7 15H9C9.55229 15 10 14.5523 10 14C10 13.4477 9.55229 13 9 13H7Z"
    fill="currentColor" />
</svg>
