<svg xmlns="http://www.w3.org/2000/svg" width="24" height="24" fill="none" viewBox="0 0 24 24">
    <path fill="currentColor" d="M13 16q.425 0 .713.287.288.288.287.713a.97.97 0 0 1-.287.713A.97.97 0 0 1 13 18h-2a.97.97 0 0 1-.713-.287A.97.97 0 0 1 10 17q0-.425.287-.713A.97.97 0 0 1 11 16zm4-5q.425 0 .713.287.288.288.287.713a.97.97 0 0 1-.287.713A.97.97 0 0 1 17 13H7a.97.97 0 0 1-.713-.287A.97.97 0 0 1 6 12q0-.425.287-.713A.97.97 0 0 1 7 11zm1-8a3 3 0 1 1 0 6 3 3 0 0 1 0-6m-5 3c0 .711.15 1.387.417 2H4a.97.97 0 0 1-.713-.287A.97.97 0 0 1 3 7q0-.425.287-.713A.97.97 0 0 1 4 6z"/>
</svg>
