<svg width="16" height="17" viewBox="0 0 16 17" fill="none" xmlns="http://www.w3.org/2000/svg">
    <path d="M1 1.5C0.447715 1.5 0 1.94772 0 2.5C0 3.05228 0.447715 3.5 1 3.5H15C15.5523 3.5 16 3.05228 16 2.5C16 1.94772 15.5523 1.5 15 1.5H1Z" fill="currentColor"/>
    <path d="M3 5.5C2.44772 5.5 2 5.94772 2 6.5C2 7.05228 2.44772 7.5 3 7.5H13C13.5523 7.5 14 7.05228 14 6.5C14 5.94772 13.5523 5.5 13 5.5H3Z" fill="currentColor"/>
    <path d="M4 10.5C4 9.94771 4.44772 9.5 5 9.5H11C11.5523 9.5 12 9.94771 12 10.5C12 11.0523 11.5523 11.5 11 11.5H5C4.44772 11.5 4 11.0523 4 10.5Z" fill="currentColor"/>
    <path d="M7 13.5C6.44772 13.5 6 13.9477 6 14.5C6 15.0523 6.44772 15.5 7 15.5H9C9.55229 15.5 10 15.0523 10 14.5C10 13.9477 9.55229 13.5 9 13.5H7Z" fill="currentColor"/>
</svg>
