<svg width="16" height="16" viewBox="0 0 16 16" fill="none" xmlns="http://www.w3.org/2000/svg">
    <path fill-rule="evenodd" clip-rule="evenodd" d="M1.882 2h12.236C15.158 2 16 2.843 16 3.882v7.53c0 1.04-.843 1.882-1.882 1.882H1.882A1.882 1.882 0 0 1 0 11.412v-7.53C0 2.842.843 2 1.882 2zm0 .47c-.78 0-1.411.633-1.411 1.412v7.53c0 .78.632 1.411 1.411 1.411h12.236c.78 0 1.411-.632 1.411-1.411v-7.53c0-.78-.632-1.411-1.411-1.411H1.882z" fill="#CCC"/>
    <g clip-path="url(#flag_cl_16_svg__a)" fill-rule="evenodd" clip-rule="evenodd">
        <path d="M15.5 4.016v3.642H.5V4.016C.5 3.18 1.171 2.5 2 2.5h12c.829 0 1.5.679 1.5 1.516z" fill="#fff"/>
        <path d="M15.5 11.296V7.658H.5v3.638c0 .838.672 1.516 1.5 1.516h12c.829 0 1.5-.678 1.5-1.516z" fill="#D52B1E"/>
        <path d="M1.994 2.5h3.608v5.158H.5V4.016c0-.835.668-1.513 1.494-1.516z" fill="#0039A6"/>
        <path d="m3.017 3.807-.281.88h-.91l.736.544-.281.88.736-.544.735.544-.28-.88.735-.544h-.91l-.28-.88z" fill="#fff"/>
    </g>
    <defs>
        <clipPath id="flag_cl_16_svg__a">
            <path fill="#fff" transform="translate(0 2.5)" d="M0 0h16v11H0z"/>
        </clipPath>
    </defs>
</svg>
