<svg width="16" height="16" viewBox="0 0 16 16" fill="none" xmlns="http://www.w3.org/2000/svg">
    <path fill-rule="evenodd" clip-rule="evenodd" d="M1.882 2h12.236C15.158 2 16 2.843 16 3.882v7.53c0 1.04-.843 1.882-1.882 1.882H1.882A1.882 1.882 0 0 1 0 11.412v-7.53C0 2.842.843 2 1.882 2zm0 .47c-.78 0-1.411.633-1.411 1.412v7.53c0 .78.632 1.411 1.411 1.411h12.236a1.41 1.41 0 0 0 1.411-1.411v-7.53a1.41 1.41 0 0 0-1.411-1.411H1.882z" fill="#D8DDE1"/>
    <g fill-rule="evenodd" clip-rule="evenodd">
        <path d="M.5 10.31h15V5.002H.5v5.308z" fill="#FFC400"/>
        <path d="M.5 5.002h15v-1.25c0-.692-.554-1.252-1.237-1.252H1.737C1.054 2.5.5 3.06.5 3.751v1.251zm0 5.308h15v1.251c0 .691-.554 1.252-1.237 1.252H1.737c-.683 0-1.237-.56-1.237-1.252v-1.25z" fill="#C60B1E"/>
    </g>
</svg>
