<svg width="16" height="16" viewBox="0 0 16 16" fill="none" xmlns="http://www.w3.org/2000/svg">
    <path fill-rule="evenodd" clip-rule="evenodd" d="M1.882 2h12.236C15.158 2 16 2.843 16 3.882v7.53c0 1.04-.843 1.882-1.882 1.882H1.882A1.882 1.882 0 0 1 0 11.412v-7.53C0 2.842.843 2 1.882 2zm0 .47c-.78 0-1.411.633-1.411 1.412v7.53c0 .78.632 1.411 1.411 1.411h12.236a1.41 1.41 0 0 0 1.411-1.411v-7.53a1.41 1.41 0 0 0-1.411-1.411H1.882z" fill="#D8DDE1"/>
    <path d="M14 2.5H2c-.828 0-1.5.679-1.5 1.517v7.279c0 .838.672 1.517 1.5 1.517h12c.828 0 1.5-.68 1.5-1.517v-7.28c0-.837-.672-1.516-1.5-1.516z" fill="#fff"/>
    <path fill-rule="evenodd" clip-rule="evenodd" d="M8.588 9.235c-.28.129-.402.45-.353.758.216-.158.417-.537.353-.758zm.362-.152c-.195.164-.46.498-.303.758.234-.136.392-.602.303-.758zm.372-.227c-.189.151-.366.538-.216.758.216-.152.29-.542.216-.758zm.411-.228c-.208.214-.309.546-.165.758.188-.197.319-.581.165-.758zm.464-.332c-.205.138-.364.637-.235.843.257-.138.325-.66.235-.843zm-.02.711c.436-.104.652-.367.674-.606-.207-.008-.71.314-.673.606zm-.227.36c.262.246.782-.049.825-.182-.158-.049-.598-.049-.825.182zm-.3.254c.067.159.609.204.75.04-.2-.193-.416-.124-.75-.042v.002zm-.525.195c-.008.035.4.354.75.216-.059-.14-.437-.375-.75-.216zm-.375.213c.191.356.595.275.75.2-.132-.162-.464-.31-.75-.2zm-.42.19c.136.282.303.413.74.372-.072-.15-.398-.41-.74-.372zm-1.091-.227c.05-.308-.072-.63-.353-.759-.064.22.137.6.353.759zm-.486-.152c.156-.26-.11-.595-.303-.758-.089.155.069.621.303.758zm-.46-.228c.15-.22-.026-.606-.215-.758-.075.216 0 .607.216.758zm-.626-.984c-.153.177-.022.561.165.758.145-.212.044-.544-.165-.758zM5.3 8.296c-.09.184-.023.705.235.843.13-.207-.03-.705-.235-.843zm-.093.695c.036-.287-.455-.598-.657-.59.022.232.23.487.657.591zm.243.375c-.227-.231-.668-.231-.825-.182.043.133.562.428.825.182zm.375.253c-.335-.083-.55-.151-.75.041.142.165.682.118.75-.042v.001zm.45.197c-.314-.16-.692.075-.75.215.349.14.757-.18.75-.215zm.45.213c-.287-.111-.618.038-.75.2.154.075.559.156.75-.2zm-.3.486c.397.041.55-.088.675-.368-.311-.038-.61.22-.675.368z" fill="#006750"/>
    <path fill-rule="evenodd" clip-rule="evenodd" d="M4.55 7.218c.219.242.228.302.232.435.042.02.484.292.69.381.207.09.807.01.807.01s.081-.02.143.016c.064.037.207.209.207.28 0 .074-.009.11-.009.11s.124-.008.322.027c-.012-.049-.205-.19-.026-.39.18-.199 1.764-.774 2.009-.688.009-.06-.044-.453.206-.626.255-.194.622.086.69.063.033-.012.709-.083.727-.11.017-.027-.558-.548-.62-.951-.06-.404.341-.554.404-.554s.117 0 .18-.045c.062-.046-.01-.135.152-.28.161-.145.727-.516.798-.572.072-.054.708-.462.744-.498.036-.036.036-.173.072-.2.036-.027-.116.064-.197.1-.08.037-.958.48-1.003.5-.045.017-.18.007-.18.007s-.116.155-.17.21c-.054.053-1.471.66-1.623.67-1.305.098-2.527-.143-2.527-.143 0 .144.045.715-.028.851-.075.137-.725.038-1.152.083-.427.046-.356.581-.624.57-.097-.005-.367-.254-.394-.254-.027 0-.048.754.17.996v.002z" fill="#FF810C"/>
</svg>
