<svg width="16" height="16" viewBox="0 0 16 16" fill="none" xmlns="http://www.w3.org/2000/svg">
    <path fill-rule="evenodd" clip-rule="evenodd" d="M1.882 2h12.236C15.158 2 16 2.843 16 3.882v7.53c0 1.04-.843 1.882-1.882 1.882H1.882A1.882 1.882 0 0 1 0 11.412v-7.53C0 2.842.843 2 1.882 2zm0 .47c-.78 0-1.411.633-1.411 1.412v7.53c0 .78.632 1.411 1.411 1.411h12.236a1.41 1.41 0 0 0 1.411-1.411v-7.53a1.41 1.41 0 0 0-1.411-1.411H1.882z" fill="#D8DDE1"/>
    <g fill-rule="evenodd" clip-rule="evenodd">
        <path d="M14.225 2.5H1.775C1.07 2.5.5 3.086.5 3.808v7.696c0 .723.57 1.309 1.275 1.309h12.45c.704 0 1.275-.586 1.275-1.309V3.808c0-.722-.57-1.308-1.275-1.308zm-2.737 6.23H9.046v2.505H6.954V8.73H4.512V6.582h2.442V4.077h2.092v2.505h2.442V8.73z" fill="#F92728"/>
        <path d="M9.046 4.078H6.954v2.505H4.512V8.73h2.442v2.505h2.092V8.73h2.442V6.583H9.046V4.078z" fill="#fff"/>
    </g>
</svg>
