<svg width="16" height="16" viewBox="0 0 16 16" fill="none" xmlns="http://www.w3.org/2000/svg">
    <path fill-rule="evenodd" clip-rule="evenodd" d="M1.882 2h12.236C15.158 2 16 2.843 16 3.882v7.53c0 1.04-.843 1.882-1.882 1.882H1.882A1.882 1.882 0 0 1 0 11.412v-7.53C0 2.842.843 2 1.882 2zm0 .47c-.78 0-1.411.633-1.411 1.412v7.53c0 .78.632 1.411 1.411 1.411h12.236a1.41 1.41 0 0 0 1.411-1.411v-7.53a1.41 1.41 0 0 0-1.411-1.411H1.882z" fill="#D8DDE1"/>
    <path d="M.5 3.83c0-.735.595-1.33 1.33-1.33h12.34c.735 0 1.33.595 1.33 1.33V7.7H.5V3.83z" fill="#FCD116"/>
    <path d="M.5 7.7h15v2.6H.5V7.7z" fill="#003893"/>
    <path d="M.5 10.25h15v1.27a1.33 1.33 0 0 1-1.33 1.33H1.83A1.33 1.33 0 0 1 .5 11.52v-1.27z" fill="#CE1126"/>
</svg>
