<svg width="16" height="16" viewBox="0 0 16 16" fill="none" xmlns="http://www.w3.org/2000/svg">
    <path fill-rule="evenodd" clip-rule="evenodd" d="M1.882 2h12.236C15.158 2 16 2.843 16 3.882v7.53c0 1.04-.843 1.882-1.882 1.882H1.882A1.882 1.882 0 0 1 0 11.412v-7.53C0 2.842.843 2 1.882 2zm0 .47c-.78 0-1.411.633-1.411 1.412v7.53c0 .78.632 1.411 1.411 1.411h12.236a1.41 1.41 0 0 0 1.411-1.411v-7.53a1.41 1.41 0 0 0-1.411-1.411H1.882z" fill="#D8DDE1"/>
    <g fill-rule="evenodd" clip-rule="evenodd">
        <path d="M6.991 12.813h7.234c.704 0 1.275-.586 1.275-1.309V8.691H6.991v4.121zM14.225 2.5H6.991v4.121H15.5V3.808c0-.722-.57-1.308-1.275-1.308zM.5 8.691v2.813c0 .723.57 1.309 1.275 1.309h3.2V8.69H.5zM4.974 2.5H1.776C1.071 2.5.5 3.086.5 3.808v2.814h4.475V2.5" fill="#EF2130"/>
        <path d="M4.983 2.5H7.04v10.313H4.983V2.5z" fill="#fff"/>
        <path d="M.5 8.668V6.59h15v2.08H.5z" fill="#fff"/>
        <path d="M.5 8.191V7.135h15V8.19H.5z" fill="#002868"/>
        <path d="M5.489 2.5h1.045v10.313H5.489V2.5z" fill="#002968"/>
    </g>
</svg>
