<svg width="16" height="16" viewBox="0 0 16 16" fill="none" xmlns="http://www.w3.org/2000/svg">
    <path fill-rule="evenodd" clip-rule="evenodd" d="M1.882 2h12.236C15.158 2 16 2.843 16 3.882v7.53c0 1.04-.843 1.882-1.882 1.882H1.882A1.882 1.882 0 0 1 0 11.412v-7.53C0 2.842.843 2 1.882 2zm0 .47c-.78 0-1.411.633-1.411 1.412v7.53c0 .78.632 1.411 1.411 1.411h12.236a1.41 1.41 0 0 0 1.411-1.411v-7.53a1.41 1.41 0 0 0-1.411-1.411H1.882z" fill="#D8DDE1"/>
    <g fill-rule="evenodd" clip-rule="evenodd">
        <path d="M2 2.5h11.925c.87 0 1.575.713 1.575 1.592v7.128c0 .88-.705 1.592-1.575 1.592H2.075A1.582 1.582 0 0 1 .5 11.22V4.017C.5 3.179 1.172 2.5 2 2.5z" fill="#fff"/>
        <path d="M15.3 3.258H8V2.5h6a1.5 1.5 0 0 1 1.3.758zM8 4.83h7.5v-.758H8v.758zm0 1.597h7.5v-.759H8v.759zm0 1.596h7.5v-.758H8v.758zM.5 9.62h15v-.76H.5v.759zm0 1.596h15v-.758H.5v.758zm14.8.838H.7c.26.454.745.758 1.3.758h12c.556 0 1.04-.304 1.3-.758z" fill="#FF2B2D"/>
        <path d="M.5 8.023H8V2.5H2c-.83 0-1.5.679-1.5 1.517v4.006z" fill="#1A3179"/>
        <path d="M1.606 3.225a.17.17 0 0 1-.049.12.166.166 0 0 1-.284-.12.17.17 0 0 1 .05-.117.166.166 0 0 1 .283.117zm1.094 0a.17.17 0 0 1-.05.117.166.166 0 0 1-.283-.117.17.17 0 0 1 .05-.117.166.166 0 0 1 .283.117zm1.165 0a.17.17 0 0 1-.049.12.166.166 0 0 1-.284-.12.17.17 0 0 1 .05-.117.166.166 0 0 1 .283.117zm1.11 0a.17.17 0 0 1-.049.12.166.166 0 0 1-.284-.12.17.17 0 0 1 .05-.117.166.166 0 0 1 .283.117zm1.165 0a.17.17 0 0 1-.048.12.166.166 0 0 1-.285-.12.17.17 0 0 1 .05-.117.166.166 0 0 1 .283.117zm1.094 0a.17.17 0 0 1-.103.156.165.165 0 0 1-.181-.037.17.17 0 0 1 .118-.287c.092 0 .166.075.166.168zm-5.042.481a.17.17 0 0 1-.05.117.166.166 0 0 1-.283-.117.167.167 0 1 1 .333 0zm1.166 0a.17.17 0 0 1-.05.117.166.166 0 0 1-.283-.117.167.167 0 1 1 .333 0zm1.11 0a.17.17 0 0 1-.05.117.166.166 0 0 1-.284-.117.167.167 0 1 1 .333 0zm1.165 0a.17.17 0 0 1-.102.159.165.165 0 0 1-.22-.094.17.17 0 0 1-.011-.065.17.17 0 0 1 .049-.12.166.166 0 0 1 .235.001.17.17 0 0 1 .049.12zm1.094 0a.17.17 0 0 1-.05.117.166.166 0 0 1-.283-.117.167.167 0 1 1 .333 0zm-5.121.537a.17.17 0 0 1-.103.155.165.165 0 0 1-.181-.036.169.169 0 0 1 .117-.288c.092 0 .167.076.167.169zm1.094 0a.17.17 0 0 1-.05.117.166.166 0 0 1-.283-.117.17.17 0 0 1 .048-.12.166.166 0 0 1 .285.12zm1.165 0a.17.17 0 0 1-.103.155.165.165 0 0 1-.181-.036.169.169 0 0 1 .118-.288c.091 0 .166.076.166.169zm1.11 0a.17.17 0 0 1-.103.155.165.165 0 0 1-.181-.036.17.17 0 0 1 .117-.288c.092 0 .167.076.167.169zm1.165 0a.17.17 0 0 1-.103.155.165.165 0 0 1-.181-.036.169.169 0 0 1 .118-.288c.092 0 .166.076.166.169zm1.094 0a.17.17 0 0 1-.103.155.165.165 0 0 1-.181-.036.168.168 0 0 1-.049-.12.17.17 0 0 1 .102-.158.165.165 0 0 1 .22.093.17.17 0 0 1 .011.066zm-5.042.48a.17.17 0 0 1-.05.118.166.166 0 0 1-.283-.117c0-.093.075-.169.167-.169.092 0 .166.076.166.169zm1.166 0a.17.17 0 0 1-.05.118.166.166 0 0 1-.283-.117.17.17 0 0 1 .102-.16.165.165 0 0 1 .22.094.17.17 0 0 1 .01.066zm1.11 0a.17.17 0 0 1-.05.118.166.166 0 0 1-.284-.117c0-.093.075-.169.167-.169.092 0 .166.076.166.169zm1.165 0a.17.17 0 0 1-.102.16.165.165 0 0 1-.22-.094.17.17 0 0 1-.011-.066.17.17 0 0 1 .049-.119.166.166 0 0 1 .235 0 .17.17 0 0 1 .049.12zm1.094 0a.17.17 0 0 1-.05.118.166.166 0 0 1-.283-.117c0-.093.074-.169.166-.169.092 0 .167.076.167.169zm-5.121.538a.17.17 0 0 1-.103.155.165.165 0 0 1-.218-.091.17.17 0 0 1 .037-.184.166.166 0 0 1 .235 0 .17.17 0 0 1 .049.12zm1.094 0a.17.17 0 0 1-.05.117.166.166 0 0 1-.283-.117c0-.094.074-.169.166-.169.092 0 .167.075.167.169zm1.165 0a.17.17 0 0 1-.049.119.166.166 0 0 1-.284-.12.17.17 0 0 1 .05-.119.166.166 0 0 1 .235 0 .17.17 0 0 1 .048.12zm1.11 0a.17.17 0 0 1-.103.155.165.165 0 0 1-.218-.091.17.17 0 0 1 .037-.184.166.166 0 0 1 .284.12zm1.165 0a.17.17 0 0 1-.049.119.166.166 0 0 1-.284-.12.17.17 0 0 1 .05-.119.166.166 0 0 1 .283.12zm1.094 0a.17.17 0 0 1-.103.155.165.165 0 0 1-.181-.036.168.168 0 0 1-.049-.12.167.167 0 0 1 .23-.155.166.166 0 0 1 .103.156zm-5.042.48a.167.167 0 0 1-.259.14.168.168 0 0 1-.07-.172.169.169 0 0 1 .13-.132.165.165 0 0 1 .171.071.17.17 0 0 1 .028.094zm1.166 0a.167.167 0 0 1-.26.14.168.168 0 0 1-.07-.172.169.169 0 0 1 .13-.132.165.165 0 0 1 .172.071.17.17 0 0 1 .028.094zm1.11 0a.17.17 0 0 1-.103.156.165.165 0 0 1-.218-.09.17.17 0 0 1 .036-.185.166.166 0 0 1 .284.12zm1.165 0a.17.17 0 0 1-.103.156.165.165 0 0 1-.181-.036.17.17 0 0 1 .117-.288c.092 0 .167.076.167.169zm1.094 0a.17.17 0 0 1-.05.12.166.166 0 0 1-.284-.12.17.17 0 0 1 .05-.119.166.166 0 0 1 .284.12zm-5.121.538a.17.17 0 0 1-.049.119.166.166 0 0 1-.284-.12.17.17 0 0 1 .05-.116.166.166 0 0 1 .283.117zm1.094 0a.17.17 0 0 1-.05.116.166.166 0 0 1-.283-.116.17.17 0 0 1 .05-.117.166.166 0 0 1 .283.117zm1.165 0a.17.17 0 0 1-.049.119.166.166 0 0 1-.284-.12.17.17 0 0 1 .05-.116.166.166 0 0 1 .283.117zm1.11 0a.17.17 0 0 1-.049.119.166.166 0 0 1-.284-.12.17.17 0 0 1 .05-.116.166.166 0 0 1 .283.117zm1.165 0a.17.17 0 0 1-.048.119.166.166 0 0 1-.285-.12.17.17 0 0 1 .05-.116.166.166 0 0 1 .283.117zm1.094 0a.17.17 0 0 1-.103.155.165.165 0 0 1-.181-.037.17.17 0 0 1 .118-.287.165.165 0 0 1 .154.104.17.17 0 0 1 .012.065zm-5.042.48a.17.17 0 0 1-.05.117.166.166 0 0 1-.283-.117.167.167 0 1 1 .333 0zm1.166 0a.17.17 0 0 1-.05.117.166.166 0 0 1-.283-.117.167.167 0 1 1 .333 0zm1.11 0a.166.166 0 0 1-.284.119.17.17 0 0 1 .117-.287c.092 0 .166.075.166.168zm1.165 0a.17.17 0 0 1-.05.116.166.166 0 1 1 .037-.18.17.17 0 0 1 .013.064zm1.094 0a.166.166 0 0 1-.284.119.17.17 0 0 1 .117-.287c.092 0 .167.075.167.168zm-5.121.537a.17.17 0 0 1-.05.117.166.166 0 0 1-.283-.117.17.17 0 0 1 .048-.119.166.166 0 0 1 .118-.05c.092 0 .167.076.167.17zm1.094 0a.17.17 0 0 1-.05.117.166.166 0 0 1-.283-.117.166.166 0 0 1 .285-.119.17.17 0 0 1 .048.12zm1.165 0a.17.17 0 0 1-.05.117.166.166 0 0 1-.283-.117.17.17 0 0 1 .049-.119.166.166 0 0 1 .118-.05c.091 0 .166.076.166.17zm1.11 0a.17.17 0 0 1-.05.117.166.166 0 0 1-.283-.117.17.17 0 0 1 .048-.119.166.166 0 0 1 .118-.05c.092 0 .167.076.167.17zm1.165 0a.17.17 0 0 1-.05.116.166.166 0 1 1-.116-.284c.092 0 .166.075.166.168zm1.094 0a.167.167 0 0 1-.166.168.166.166 0 0 1-.118-.049.17.17 0 0 1 .118-.287.165.165 0 0 1 .154.104.17.17 0 0 1 .012.064z" fill="#fff"/>
    </g>
</svg>
