<svg width="16" height="16" viewBox="0 0 16 16" fill="none" xmlns="http://www.w3.org/2000/svg">
    <path fill-rule="evenodd" clip-rule="evenodd" d="M1.882 2h12.236C15.158 2 16 2.843 16 3.882v7.53c0 1.04-.843 1.882-1.882 1.882H1.882A1.882 1.882 0 0 1 0 11.412v-7.53C0 2.842.843 2 1.882 2zm0 .47c-.78 0-1.411.633-1.411 1.412v7.53c0 .78.632 1.411 1.411 1.411h12.236a1.41 1.41 0 0 0 1.411-1.411v-7.53a1.41 1.41 0 0 0-1.411-1.411H1.882z" fill="#D8DDE1"/>
    <g fill-rule="evenodd" clip-rule="evenodd">
        <path d="M.5 11.296c0 .838.671 1.517 1.5 1.517h12c.829 0 1.5-.68 1.5-1.517v-7.28c0-.837-.671-1.516-1.5-1.516H2c-.828 0-1.5.679-1.5 1.516v7.28z" fill="#9F2E38"/>
        <path d="M.5 8.637h15v-1.89H.5v1.89z" fill="#fff"/>
    </g>
</svg>
