<svg width="16" height="16" viewBox="0 0 16 16" fill="none" xmlns="http://www.w3.org/2000/svg">
    <path fill-rule="evenodd" clip-rule="evenodd" d="M1.882 2h12.236C15.158 2 16 2.843 16 3.882v7.53c0 1.04-.843 1.882-1.882 1.882H1.882A1.882 1.882 0 0 1 0 11.412v-7.53C0 2.842.843 2 1.882 2zm0 .47c-.78 0-1.411.633-1.411 1.412v7.53c0 .78.632 1.411 1.411 1.411h12.236c.78 0 1.411-.632 1.411-1.411v-7.53c0-.78-.632-1.411-1.411-1.411H1.882z" fill="#CCC"/>
    <g clip-path="url(#flag_pl_16_svg__a)" fill-rule="evenodd" clip-rule="evenodd">
        <path d="M14.225 2.5H1.775C1.07 2.5.5 3.086.5 3.808v3.848h15V3.808c0-.722-.57-1.308-1.275-1.308z" fill="#fff"/>
        <path d="M.5 11.504c0 .723.57 1.308 1.275 1.308h12.45c.704 0 1.275-.585 1.275-1.308V7.656H.5v3.848z" fill="#EE2734"/>
    </g>
    <defs>
        <clipPath id="flag_pl_16_svg__a">
            <path fill="#fff" transform="translate(0 2.5)" d="M0 0h16v11H0z"/>
        </clipPath>
    </defs>
</svg>
