<svg xmlns="http://www.w3.org/2000/svg" width="16" height="16" fill="none" viewBox="0 0 16 16">
    <path fill="#CCC" fill-rule="evenodd" d="M1.882 2h12.236C15.158 2 16 2.843 16 3.882v7.53c0 1.04-.843 1.882-1.882 1.882H1.882A1.88 1.88 0 0 1 0 11.412v-7.53C0 2.842.843 2 1.882 2m0 .47c-.78 0-1.411.633-1.411 1.412v7.53c0 .78.632 1.411 1.411 1.411h12.236c.78 0 1.411-.632 1.411-1.411v-7.53c0-.78-.632-1.411-1.411-1.411z" clip-rule="evenodd"/>
    <path fill="#006847" fill-rule="evenodd" d="M1.775 2.5C1.07 2.5.5 3.086.5 3.808v7.696c0 .723.57 1.309 1.275 1.309H5.48V2.5z" clip-rule="evenodd"/>
    <path fill="#fff" fill-rule="evenodd" d="M5.48 2.5h5.039v10.313H5.48z" clip-rule="evenodd"/>
    <path fill="#CE1126" fill-rule="evenodd" d="M14.225 2.5h-3.706v10.313h3.706c.704 0 1.275-.586 1.275-1.309V3.808c0-.722-.571-1.308-1.275-1.308" clip-rule="evenodd"/>
    <path fill="#D0D4A6" fill-rule="evenodd" d="M6 10a.5.5 0 0 1 .5-.5h3a.5.5 0 0 1 0 1h-3A.5.5 0 0 1 6 10" clip-rule="evenodd"/>
    <path fill="#B39582" d="M10 7a2 2 0 1 1-4 0 2 2 0 0 1 4 0"/>
</svg>
