<svg width="16" height="16" viewBox="0 0 16 16" fill="none" xmlns="http://www.w3.org/2000/svg">
    <path fill-rule="evenodd" clip-rule="evenodd" d="M1.882 2h12.236C15.158 2 16 2.843 16 3.882v7.53c0 1.04-.843 1.882-1.882 1.882H1.882A1.882 1.882 0 0 1 0 11.412v-7.53C0 2.842.843 2 1.882 2zm0 .47c-.78 0-1.411.633-1.411 1.412v7.53c0 .78.632 1.411 1.411 1.411h12.236c.78 0 1.411-.632 1.411-1.411v-7.53c0-.78-.632-1.411-1.411-1.411H1.882z" fill="#CCC"/>
    <g clip-path="url(#flag_sk_16_svg__a)">
        <mask id="flag_sk_16_svg__b" mask-type="alpha" maskUnits="userSpaceOnUse" x="0" y="2" width="16" height="11">
            <path d="M14.075 2.5H1.925C1.138 2.5.5 3.145.5 3.94v7.432c0 .796.638 1.44 1.425 1.44h12.15c.787 0 1.425-.644 1.425-1.44V3.94c0-.796-.638-1.441-1.425-1.441z" fill="#fff"/>
        </mask>
        <g mask="url(#flag_sk_16_svg__b)" fill-rule="evenodd" clip-rule="evenodd">
            <path d="M.5 12.813h15V2.5H.5v10.313z" fill="#EE1C25"/>
            <path d="M.5 9.375h15V2.5H.5v6.875z" fill="#0B4EA2"/>
            <path d="M.5 5.938h15V2.5H.5v3.438z" fill="#fff"/>
            <path d="M5.771 10.466c-.896-.445-2.178-1.328-2.178-3.077 0-1.748.08-2.543.08-2.543H7.87s.08.795.08 2.543c0 1.748-1.281 2.632-2.178 3.078" fill="#fff"/>
            <path d="M5.771 10.234c-.822-.408-1.999-1.219-1.999-2.823 0-1.603.075-2.333.075-2.333h3.848s.075.73.075 2.333c0 1.604-1.177 2.415-1.999 2.823z" fill="#EE1C25"/>
            <path d="M5.946 6.99c.223.005.657.014 1.044-.12 0 0-.01.143-.01.31 0 .166.01.308.01.308-.355-.122-.793-.125-1.044-.121v.885h-.351v-.885c-.251-.004-.69-.001-1.044.121 0 0 .01-.142.01-.309 0-.166-.01-.309-.01-.309.387.134.821.125 1.044.121v-.556a2.4 2.4 0 0 0-.826.122s.01-.143.01-.31c0-.166-.01-.308-.01-.308.33.114.622.124.825.122-.01-.352-.11-.796-.11-.796s.205.016.287.016c.082 0 .286-.016.286-.016s-.1.444-.11.796c.203.002.495-.008.825-.122 0 0-.01.142-.01.309 0 .166.01.309.01.309a2.398 2.398 0 0 0-.826-.122v.556z" fill="#fff"/>
            <path d="M5.771 8.156c-.414 0-.636.593-.636.593s-.123-.281-.46-.281c-.23 0-.398.21-.505.404.416.682 1.08 1.103 1.601 1.362.522-.259 1.186-.68 1.602-1.362-.108-.195-.276-.404-.505-.404-.337 0-.461.28-.461.28s-.222-.592-.636-.592z" fill="#0B4EA2"/>
        </g>
    </g>
    <defs>
        <clipPath id="flag_sk_16_svg__a">
            <path fill="#fff" transform="translate(0 2.5)" d="M0 0h16v11H0z"/>
        </clipPath>
    </defs>
</svg>
