<svg xmlns="http://www.w3.org/2000/svg" width="16" height="16" fill="none" viewBox="0 0 16 16">
    <rect width="16" height="11" y="2" fill="#DE2910" rx="2"/>
    <path fill="#fff" fill-rule="evenodd" d="M8.05 7.31c-1.989-.841-1.107-3.434.796-3.305-.386.198-.442.567-.222.909.247.384-.022 1.001-.355 1.151-.547.246-.656.902-.22 1.246zm.167-.089c.185-2.15 2.926-2.114 3.388-.265-.307-.305-.675-.244-.933.071-.288.352-.958.286-1.203.017-.403-.443-1.063-.344-1.252.178zm.067.215c2.112-.451 2.878 2.18 1.245 3.164.202-.384.036-.72-.34-.873-.422-.173-.555-.832-.369-1.146.307-.515.02-1.116-.535-1.146m-2.73 2.416c.425.074.692-.188.722-.594.035-.454.62-.784.976-.704.585.132 1.068-.327.924-.864 1.082 1.87-1.183 3.41-2.624 2.162zm-.439-4.018c.085.423.424.579.814.462.437-.131.955.297 1.007.66.087.592.688.878 1.137.553-1.357 1.679-3.608.117-2.958-1.676" clip-rule="evenodd"/>
    <path fill="#CCC" fill-rule="evenodd" d="M1.882 2h12.236C15.158 2 16 2.843 16 3.882v7.53c0 1.04-.843 1.882-1.882 1.882H1.882A1.88 1.88 0 0 1 0 11.412v-7.53C0 2.842.843 2 1.882 2m0 .47c-.78 0-1.411.633-1.411 1.412v7.53c0 .78.632 1.411 1.411 1.411h12.236c.78 0 1.411-.632 1.411-1.411v-7.53c0-.78-.632-1.411-1.411-1.411z" clip-rule="evenodd"/>
</svg>
