<svg width="16" height="16" viewBox="0 0 16 16" fill="none" xmlns="http://www.w3.org/2000/svg">
    <path fill-rule="evenodd" clip-rule="evenodd" d="M1.882 2h12.236C15.158 2 16 2.843 16 3.882v7.53c0 1.04-.843 1.882-1.882 1.882H1.882A1.882 1.882 0 0 1 0 11.412v-7.53C0 2.842.843 2 1.882 2zm0 .47c-.78 0-1.411.633-1.411 1.412v7.53c0 .78.632 1.411 1.411 1.411h12.236a1.41 1.41 0 0 0 1.411-1.411v-7.53a1.41 1.41 0 0 0-1.411-1.411H1.882z" fill="#D8DDE1"/>
    <g fill-rule="evenodd" clip-rule="evenodd">
        <path d="M.5 5.93h15V4.012c0-.835-.671-1.512-1.5-1.512H2c-.828 0-1.5.678-1.5 1.512V5.93z" fill="#fff"/>
        <path d="M.5 9.436h15V5.903H.5v3.533z" fill="#00966E"/>
        <path d="M.5 11.3c0 .836.671 1.513 1.5 1.513h12c.829 0 1.5-.678 1.5-1.512V9.383H.5V11.3z" fill="#D62612"/>
    </g>
</svg>
