<svg width="16" height="16" viewBox="0 0 16 16" fill="none" xmlns="http://www.w3.org/2000/svg">
    <path fill-rule="evenodd" clip-rule="evenodd" d="M1.882 2h12.236C15.158 2 16 2.843 16 3.882v7.53c0 1.04-.843 1.882-1.882 1.882H1.882A1.882 1.882 0 0 1 0 11.412v-7.53C0 2.842.843 2 1.882 2zm0 .47c-.78 0-1.411.633-1.411 1.412v7.53c0 .78.632 1.411 1.411 1.411h12.236a1.41 1.41 0 0 0 1.411-1.411v-7.53a1.41 1.41 0 0 0-1.411-1.411H1.882z" fill="#D8DDE1"/>
    <g fill-rule="evenodd" clip-rule="evenodd">
        <path d="M1.775 2.5C1.07 2.5.5 3.077.5 3.788v4.014h15V3.788c0-.711-.57-1.288-1.275-1.288H1.775z" fill="#fff"/>
        <path d="M.5 11.525c0 .711.57 1.288 1.275 1.288h12.45c.704 0 1.275-.577 1.275-1.288V7.74H.5v3.786z" fill="#EE2734"/>
        <path d="M1.083 2.741A1.37 1.37 0 0 0 .5 3.867v7.591a1.38 1.38 0 0 0 .721 1.211L8.17 7.753 1.083 2.741z" fill="#11457E"/>
    </g>
</svg>
