<svg xmlns="http://www.w3.org/2000/svg" width="24" height="24" fill="none" viewBox="0 0 24 24">
    <path fill="currentColor" d="M1.27 1.304a1 1 0 0 0 .001 1.414l4.903 4.897-3.082 6.444a1 1 0 0 0 .901 1.43h7.27l-.889 6.352c-.063.453.175.893.577 1.069a.925.925 0 0 0 1.128-.325l3.778-5.302 5.39 5.383a1 1 0 0 0 1.414-.002l.024-.024a1 1 0 0 0-.002-1.414L2.707 1.279a1 1 0 0 0-1.414.001zM20.784 10.369l-2.579 3.619L8 3.798l.796-1.665A2 2 0 0 1 10.598.997h5.96a1 1 0 0 1 .908 1.417l-3.347 6.357h5.902c.36 0 .69.213.852.552a1.04 1.04 0 0 1-.09 1.046"/>
</svg>
