<svg xmlns="http://www.w3.org/2000/svg" width="24" height="24" fill="none" viewBox="0 0 24 24">
    <path fill="currentColor" d="m21.096 19.68-1.415 1.414-3.825-3.825-4.146 4.272h-.002a1.448 1.448 0 0 1-2.455-1.375l.012-.039 1.7-5.327H4.8a1.9 1.9 0 0 1-1.89-2.123l.02-.133a1.9 1.9 0 0 1 .392-.84l.058-.067 3.371-3.473-3.847-3.848 1.415-1.414zm-8.108-5.218.015.23q0 .32-.107.625l.003.001-1.012 3.168 2.555-2.632-1.469-1.468zM19.2 9.2a1.9 1.9 0 0 1 .897.224l.116.067.112.075a1.9 1.9 0 0 1 .53.595l.061.12.054.122a1.9 1.9 0 0 1-.292 1.894l-.058.066-1.548 1.596a1 1 0 0 1-1.436-1.393l1.325-1.366h-3.67a1 1 0 1 1 0-2zM5.039 12.8H11.1q.16 0 .316.028l-3.25-3.25zm8.046-10.776a1.45 1.45 0 0 1 .836.094l.11.053.107.062a1.45 1.45 0 0 1 .597 1.64l-1.24 3.885a1 1 0 0 1-1.905-.609l.522-1.636-.733.756a1 1 0 0 1-1.435-1.393l2.346-2.417c.212-.226.49-.378.795-.435"/>
</svg>
