<svg xmlns="http://www.w3.org/2000/svg" width="24" height="24" fill="none" viewBox="0 0 24 24">
    <path fill="currentColor" d="M14.667 12c0-1 .33-1.97.938-2.767l.55-.72a1.67 1.67 0 0 0 .341-.913H7.504c.02.328.137.645.34.913l.55.72c.609.797.939 1.767.939 2.767v7.2c0 .206.084.407.238.559a.85.85 0 0 0 .596.241h3.666a.85.85 0 0 0 .596-.241.78.78 0 0 0 .238-.559zM11 13.8v-.9a1 1 0 1 1 2 0v.9a1 1 0 1 1-2 0M7.5 5.6h9V4h-9zm9.167 13.6c0 .749-.304 1.463-.837 1.986a2.85 2.85 0 0 1-1.997.814h-3.666c-.746 0-1.464-.29-1.997-.814a2.78 2.78 0 0 1-.837-1.986V12c0-.558-.184-1.103-.527-1.553l-.551-.72A3.67 3.67 0 0 1 5.5 7.5V3.9c0-.51.207-.995.568-1.35l.141-.125A1.93 1.93 0 0 1 7.417 2h9.166c.44 0 .867.15 1.208.425l.14.125.13.14c.281.337.439.764.439 1.21v3.6c0 .805-.266 1.586-.755 2.227l-.55.72c-.344.45-.528.995-.528 1.553z"/>
</svg>
