<svg xmlns="http://www.w3.org/2000/svg" width="24" height="24" fill="none" viewBox="0 0 24 24">
    <path fill="currentColor" d="M13.185 2.01a1.44 1.44 0 0 1 .718.113l.11.053.106.064c.205.135.371.319.485.534l.053.11L14.7 3c.088.27.096.56.021.835l-.011.038-1.68 5.33h6.075a1.88 1.88 0 0 1 1.648.967l.061.118.053.123a1.91 1.91 0 0 1-.347 1.952l-8.797 9.178v-.001a1.44 1.44 0 0 1-2.386-.418c-.128-.3-.15-.635-.065-.95l.012-.037 1.678-5.332H4.888a1.88 1.88 0 0 1-1.709-1.083 1.9 1.9 0 0 1-.17-1.038l.02-.132c.058-.306.19-.594.386-.838l.058-.068 8.797-9.177c.21-.226.487-.382.793-.439zM5.132 12.801h5.976c.23 0 .457.042.67.123l.209.094.196.12q.189.13.34.302l.142.18.117.196q.106.203.16.425l.043.223.014.229q0 .318-.104.622l.002.001-.99 3.139 6.954-7.253h-5.976v-.001a1.88 1.88 0 0 1-1.556-.818 1.91 1.91 0 0 1-.232-1.696l.988-3.14zm7.755-3.49.012-.009-.008.001zm0 0 .004-.008h.008z"/>
</svg>
