<svg width="24" height="24" viewBox="0 0 24 24" fill="none" xmlns="http://www.w3.org/2000/svg">
  <path fill-rule="evenodd" clip-rule="evenodd"
    d="M12.0002 1C12.5525 1 13.0002 1.44772 13.0002 2V3.58578L14.2931 2.29289C14.6837 1.90236 15.3168 1.90236 15.7074 2.29289C16.0979 2.68341 16.0979 3.31657 15.7074 3.7071L13.0002 6.41421V10.268L16.3373 8.34135L17.3283 4.64303C17.4712 4.10956 18.0195 3.79298 18.553 3.93592C19.0865 4.07886 19.4031 4.6272 19.2601 5.16067L18.7868 6.92713L20.1606 6.13397C20.6389 5.85782 21.2505 6.0217 21.5266 6.49999C21.8028 6.97828 21.6389 7.58987 21.1606 7.86602L19.7872 8.65893L21.553 9.13207C22.0865 9.27502 22.4031 9.82335 22.2601 10.3568C22.1172 10.8903 21.5688 11.2069 21.0354 11.0639L17.3377 10.0731L14.0003 12L17.3376 13.9267L21.0354 12.9359C21.5688 12.793 22.1172 13.1096 22.2601 13.643C22.4031 14.1765 22.0865 14.7248 21.553 14.8678L19.7871 15.341L21.1606 16.134C21.6389 16.4101 21.8028 17.0217 21.5266 17.5C21.2505 17.9783 20.6389 18.1422 20.1606 17.866L18.7868 17.0729L19.2601 18.8392C19.4031 19.3726 19.0865 19.921 18.553 20.0639C18.0195 20.2069 17.4712 19.8903 17.3283 19.3568L16.3373 15.6587L13.0002 13.732V17.5858L15.7074 20.2929C16.0979 20.6834 16.0979 21.3166 15.7074 21.7071C15.3168 22.0976 14.6837 22.0976 14.2931 21.7071L13.0002 20.4142V22C13.0002 22.5523 12.5525 23 12.0002 23C11.448 23 11.0002 22.5523 11.0002 22V20.4142L9.70735 21.7071C9.31683 22.0976 8.68367 22.0976 8.29314 21.7071C7.90262 21.3166 7.90262 20.6834 8.29314 20.2929L11.0002 17.5858V13.7321L7.663 15.6589L6.67223 19.3565C6.52929 19.8899 5.98095 20.2065 5.44748 20.0636C4.91402 19.9206 4.59744 19.3723 4.74038 18.8388L5.21351 17.0731L3.84009 17.866C3.3618 18.1422 2.75021 17.9783 2.47407 17.5C2.19792 17.0217 2.3618 16.4101 2.84009 16.134L4.21398 15.3408L2.44748 14.8674C1.91402 14.7245 1.59744 14.1761 1.74038 13.6427C1.88332 13.1092 2.43166 12.7926 2.96512 12.9356L6.66347 13.9265L10.0003 12L6.66305 10.0732L2.96512 11.0641C2.43166 11.207 1.88332 10.8904 1.74038 10.357C1.59744 9.82349 1.91402 9.27515 2.44748 9.13221L4.21356 8.65899L2.84009 7.86602C2.3618 7.58988 2.19792 6.97829 2.47407 6.49999C2.75021 6.0217 3.3618 5.85783 3.84009 6.13397L5.21362 6.92697L4.74038 5.1608C4.59744 4.62734 4.91402 4.079 5.44748 3.93606C5.98095 3.79312 6.52929 4.1097 6.67223 4.64317L7.66311 8.34119L11.0002 10.2679V6.41421L8.29314 3.7071C7.90262 3.31657 7.90262 2.68341 8.29314 2.29289C8.68367 1.90236 9.31683 1.90236 9.70736 2.29289L11.0002 3.58578V2C11.0002 1.44772 11.448 1 12.0002 1Z"
    fill="currentColor" />
</svg>
