<svg xmlns="http://www.w3.org/2000/svg" width="24" height="24" fill="none" viewBox="0 0 24 24">
    <path fill="currentColor" d="M7.446 4.041a1 1 0 0 1 .57-1.295A11 11 0 0 1 18.6 21.8a1 1 0 1 1-1.199-1.6 9 9 0 0 0 3.55-6.268A9 9 0 0 0 8.74 4.61a1 1 0 0 1-1.294-.569m4.532 7.938a1 1 0 1 0 0 2 1 1 0 0 0 0-2m-10.45 4.388a11 11 0 0 1 .219-7.35 1 1 0 1 1 1.864.724 9 9 0 0 0 2.988 10.46A1 1 0 1 1 5.4 21.8a11 11 0 0 1-3.872-5.433m10.45-6.388a3 3 0 1 1-3 3c0-.462.108-.898.294-1.288l-5-5.005a1 1 0 1 1 1.414-1.414l5 5.003c.391-.187.829-.296 1.292-.296"/>
</svg>
