<svg xmlns="http://www.w3.org/2000/svg" width="24" height="24" fill="none" viewBox="0 0 24 24">
    <path fill="currentColor" d="M20 13.667a7.4 7.4 0 0 0-1.064-3.82 7.84 7.84 0 0 0-2.921-2.812A8.3 8.3 0 0 0 12 6a8.3 8.3 0 0 0-4.015 1.035 7.84 7.84 0 0 0-2.922 2.813A7.4 7.4 0 0 0 4 13.667a7.4 7.4 0 0 0 1.063 3.818 1 1 0 0 1-1.714 1.03A9.4 9.4 0 0 1 2 13.667c0-1.704.466-3.376 1.348-4.848a9.84 9.84 0 0 1 3.666-3.532A10.3 10.3 0 0 1 12 4c1.748 0 3.468.443 4.986 1.287a9.84 9.84 0 0 1 3.666 3.532A9.4 9.4 0 0 1 22 13.667a9.4 9.4 0 0 1-1.349 4.848 1 1 0 0 1-1.715-1.03A7.4 7.4 0 0 0 20 13.667m-5.094-4.188a1 1 0 0 1 1.388 1.442l-3.6 3.466a1 1 0 1 1-1.387-1.44z"/>
</svg>
