<svg xmlns="http://www.w3.org/2000/svg" width="24" height="24" fill="none" viewBox="0 0 24 24">
    <path fill="currentColor" d="M17.237 12c0-.5.119-.992.347-1.436.226-.44.553-.821.955-1.109.22-.16.377-.398.436-.67a1.13 1.13 0 0 0-.123-.798 1.1 1.1 0 0 0-.612-.5 1.07 1.07 0 0 0-.777.045 3.07 3.07 0 0 1-2.848-.13 3.1 3.1 0 0 1-1.06-1.026 3.14 3.14 0 0 1-.47-1.393l-.014-.103a1.12 1.12 0 0 0-.34-.618 1.08 1.08 0 0 0-1.46 0c-.202.185-.33.442-.356.72q-.004.032-.01.062a3.104 3.104 0 0 1-1.522 2.358 3.07 3.07 0 0 1-2.856.126 1.07 1.07 0 0 0-.766-.04c-.256.083-.475.26-.612.5-.136.24-.18.525-.123.797.058.272.214.51.434.67h-.001c.402.288.73.668.957 1.109a3.15 3.15 0 0 1 0 2.872c-.226.441-.555.82-.958 1.108h.001a1.134 1.134 0 0 0-.31 1.468c.136.241.355.419.61.502.256.083.533.066.778-.046a3.07 3.07 0 0 1 2.848.13c.43.252.794.603 1.06 1.026.265.42.426.898.47 1.393.026.279.154.536.356.721a1.08 1.08 0 0 0 1.46 0c.2-.185.329-.442.355-.72a3.14 3.14 0 0 1 .47-1.394c.266-.422.629-.775 1.06-1.026a3.07 3.07 0 0 1 2.847-.13l.093.038c.22.077.46.08.684.008.256-.083.475-.26.612-.5a1.134 1.134 0 0 0-.311-1.47 3.1 3.1 0 0 1-.957-1.108A3.14 3.14 0 0 1 17.237 12m-3.557 0c0-.953-.761-1.71-1.68-1.71s-1.68.757-1.68 1.71.761 1.71 1.68 1.71 1.68-.757 1.68-1.71m2 0c0 2.044-1.639 3.717-3.68 3.717S8.32 14.044 8.32 12 9.96 8.285 12 8.285 15.68 9.957 15.68 12m3.557 0a1.13 1.13 0 0 0 .366.832l.102.082.008.006a3.12 3.12 0 0 1 1.218 1.877c.16.754.039 1.543-.343 2.212a3.1 3.1 0 0 1-1.732 1.413 3.07 3.07 0 0 1-2.227-.13l-.009-.004a1.07 1.07 0 0 0-.998.044c-.151.088-.28.213-.376.364a1.1 1.1 0 0 0-.169.503v.007a3.13 3.13 0 0 1-.994 2.01A3.08 3.08 0 0 1 12 22.03a3.07 3.07 0 0 1-2.082-.815 3.13 3.13 0 0 1-.994-2.01v-.007a1.1 1.1 0 0 0-.17-.504 1.074 1.074 0 0 0-1.375-.409l-.008.006c-.7.321-1.495.368-2.227.13a3.1 3.1 0 0 1-1.732-1.413 3.15 3.15 0 0 1-.343-2.212 3.12 3.12 0 0 1 1.218-1.877l.008-.006c.143-.102.261-.238.343-.397a1.13 1.13 0 0 0 0-1.034c-.082-.16-.2-.295-.343-.397l-.009-.006A3.12 3.12 0 0 1 3.07 9.203a3.15 3.15 0 0 1 .344-2.211 3.1 3.1 0 0 1 1.73-1.412c.64-.208 1.328-.2 1.959.02l.266.108.01.004a1.07 1.07 0 0 0 .998-.044c.151-.088.28-.213.376-.364.095-.15.153-.323.169-.503q.005-.06.016-.116a3.13 3.13 0 0 1 .98-1.9A3.07 3.07 0 0 1 12 1.968c.772 0 1.515.292 2.083.815.497.458.83 1.064.954 1.724l.04.287V4.8c.016.18.074.352.17.503a1.074 1.074 0 0 0 1.374.408l.008-.004a3.07 3.07 0 0 1 2.227-.13c.733.238 1.35.743 1.732 1.413s.503 1.458.343 2.212a3.12 3.12 0 0 1-1.218 1.877l-.008.006a1.1 1.1 0 0 0-.343.397c-.081.159-.125.337-.125.517"/>
</svg>
