<svg width="24" height="24" viewBox="0 0 24 24" fill="none" xmlns="http://www.w3.org/2000/svg">
  <path fill-rule="evenodd" clip-rule="evenodd"
    d="M4 1C2.34315 1 1 2.34315 1 4V20C1 21.6569 2.34315 23 4 23H20C21.6569 23 23 21.6569 23 20V4C23 2.34315 21.6569 1 20 1H4ZM18.1881 11.1828C18.0613 11.4382 17.9957 11.7174 17.996 12C17.996 12.2828 18.062 12.562 18.1892 12.8174C18.3163 13.0728 18.5015 13.2979 18.7313 13.4764C18.8384 13.5553 18.9189 13.6625 18.9627 13.7847C19.0066 13.9069 19.0119 14.0386 18.9779 14.1637C18.6572 15.1019 18.1327 15.965 17.4387 16.6964C17.3469 16.7875 17.2281 16.8497 17.0983 16.8748C16.9685 16.8998 16.8338 16.8864 16.7121 16.8365C16.4352 16.7328 16.1374 16.6905 15.8409 16.7125C15.5444 16.7346 15.257 16.8204 15.0002 16.9637C14.7421 17.1063 14.5205 17.3018 14.3513 17.5363C14.1822 17.7707 14.0698 18.0382 14.0223 18.3192C14.0057 18.4445 13.9496 18.5621 13.8615 18.6564C13.7735 18.7507 13.6575 18.8173 13.529 18.8474C12.518 19.0509 11.4736 19.0509 10.4626 18.8474C10.3341 18.8172 10.2183 18.7506 10.1302 18.6563C10.0422 18.562 9.98607 18.4445 9.96932 18.3192C9.92244 18.0387 9.81094 17.7716 9.64287 17.5372C9.4748 17.3028 9.25435 17.107 8.9974 16.9637C8.74084 16.8209 8.45381 16.7353 8.15772 16.7133C7.86164 16.6912 7.56417 16.7333 7.28753 16.8365C7.16587 16.8864 7.03115 16.8998 6.90133 16.8748C6.77151 16.8497 6.65276 16.7875 6.56092 16.6964C5.86679 15.9652 5.34248 15.102 5.02238 14.1637C4.98822 14.0388 4.99326 13.907 5.03687 13.7848C5.08049 13.6627 5.16075 13.5554 5.26769 13.4764C5.49714 13.2978 5.68201 13.0726 5.80885 12.8172C5.93569 12.5618 6.00132 12.2826 6.00097 12C6.00142 11.7173 5.93583 11.4382 5.80898 11.1828C5.68213 10.9274 5.49721 10.7022 5.26769 10.5236C5.16168 10.444 5.08249 10.3364 5.03995 10.2143C4.9974 10.0921 4.99338 9.96067 5.02838 9.83632C5.34723 8.89855 5.86967 8.03551 6.56159 7.30355C6.65343 7.21246 6.77218 7.15025 6.902 7.12524C7.03182 7.10023 7.16654 7.11359 7.2882 7.16355C7.56519 7.26716 7.86316 7.30954 8.15976 7.28749C8.45636 7.26545 8.74388 7.17956 9.00073 7.03627C9.2578 6.89311 9.47839 6.69727 9.64658 6.46287C9.81477 6.22847 9.92636 5.96135 9.97332 5.68079C9.99007 5.5555 10.0462 5.43799 10.1342 5.34371C10.2223 5.24943 10.3381 5.18281 10.4666 5.1526C11.4776 4.94913 12.522 4.94913 13.533 5.1526C13.6618 5.18242 13.7781 5.2489 13.8664 5.34323C13.9548 5.43755 14.011 5.55527 14.0277 5.68079C14.0747 5.96134 14.1863 6.22843 14.3545 6.46283C14.5226 6.69722 14.7432 6.89308 15.0002 7.03627C15.2567 7.17926 15.5438 7.26498 15.8399 7.28702C16.136 7.30906 16.4335 7.26685 16.7101 7.16355C16.8318 7.11359 16.9665 7.10023 17.0963 7.12524C17.2261 7.15025 17.3449 7.21246 17.4367 7.30355C18.1307 8.03502 18.6553 8.89809 18.9759 9.83632C19.0099 9.96135 19.0046 10.0931 18.9607 10.2153C18.9169 10.3375 18.8364 10.4447 18.7293 10.5236C18.4998 10.7022 18.315 10.9274 18.1881 11.1828ZM11.965 13.75C12.9315 13.75 13.715 12.9665 13.715 12C13.715 11.0335 12.9315 10.25 11.965 10.25C10.9985 10.25 10.215 11.0335 10.215 12C10.215 12.9665 10.9985 13.75 11.965 13.75Z"
    fill="currentColor" />
</svg>
