<svg xmlns="http://www.w3.org/2000/svg" width="24" height="24" fill="none" viewBox="0 0 24 24">
    <path fill="currentColor" d="M20 4a3.01 3.01 0 0 1 3 3v10a3 3 0 0 1-.88 2.12l-.222.197A3 3 0 0 1 20 20H4a3 3 0 0 1-1.898-.683l-.221-.198A3 3 0 0 1 1 17V7a3.01 3.01 0 0 1 3-3zM3.906 6.005a1.01 1.01 0 0 0-.906 1v9.99l.005.099a1.01 1.01 0 0 0 1 .906h15.99A1.01 1.01 0 0 0 21 17V7.006a1.01 1.01 0 0 0-.906-1.001l-.1-.005H4.006zm9.943 2.079c.42-.112.861-.112 1.28 0a2.43 2.43 0 0 1 1.781 3.015 2.4 2.4 0 0 1-.65 1.085l-3.64 3.569a.9.9 0 0 1-1.24 0l-3.64-3.57a2.4 2.4 0 0 1-.66-2.349 2.43 2.43 0 0 1 1.79-1.75 2.48 2.48 0 0 1 2.39.64l.74.73.74-.73c.307-.306.69-.528 1.109-.64"/>
</svg>
