<svg xmlns="http://www.w3.org/2000/svg" width="24" height="24" fill="none" viewBox="0 0 24 24">
    <path fill="currentColor" d="M19.273 4a2.62 2.62 0 0 1 1.926.88c.511.563.799 1.325.801 2.12v10a3.17 3.17 0 0 1-.8 2.12l-.201.197a2.6 2.6 0 0 1-1.726.683H4.727a2.6 2.6 0 0 1-1.726-.683l-.2-.198A3.17 3.17 0 0 1 2 17V7c.002-.795.29-1.557.8-2.12A2.62 2.62 0 0 1 4.728 4zM4.643 6.005a.9.9 0 0 0-.556.29 1.06 1.06 0 0 0-.269.71v9.99l.005.099c.021.23.114.445.264.61a.88.88 0 0 0 .646.296h14.534a.88.88 0 0 0 .646-.296c.17-.187.267-.44.269-.704V7.006c0-.267-.098-.522-.27-.71a.9.9 0 0 0-.554-.291L19.268 6H4.732zm9.038 2.079a2.05 2.05 0 0 1 1.164 0c.39.102.748.319 1.035.627s.491.696.593 1.123c.1.415.096.851-.01 1.265-.105.413-.309.788-.59 1.085l-3.31 3.569A.78.78 0 0 1 12 16a.78.78 0 0 1-.564-.247l-3.309-3.57a2.46 2.46 0 0 1-.59-1.084 2.6 2.6 0 0 1-.01-1.265c.102-.427.307-.815.593-1.123a2.16 2.16 0 0 1 1.035-.627 2.05 2.05 0 0 1 1.164 0c.382.112.729.334 1.008.64l.673.73.673-.73c.28-.306.626-.528 1.008-.64"/>
</svg>
