<svg xmlns="http://www.w3.org/2000/svg" width="24" height="24" fill="none" viewBox="0 0 24 24">
    <path fill="currentColor" d="M19.273 4a2.62 2.62 0 0 1 1.926.88c.511.563.799 1.325.801 2.12v10a3.17 3.17 0 0 1-.8 2.12l-.201.197a2.6 2.6 0 0 1-1.726.683H4.728A2.6 2.6 0 0 1 3 19.317l-.2-.198A3.17 3.17 0 0 1 2 17V7c.002-.795.29-1.557.8-2.12A2.62 2.62 0 0 1 4.729 4zm-4.427 4.084a2.06 2.06 0 0 0-1.165 0 2.2 2.2 0 0 0-1.008.64l-.673.73-.673-.73a2.2 2.2 0 0 0-1.008-.64 2.06 2.06 0 0 0-1.165 0c-.39.102-.747.319-1.034.627a2.5 2.5 0 0 0-.593 1.123c-.1.415-.096.851.01 1.265.105.413.309.788.59 1.085l3.31 3.569A.78.78 0 0 0 12 16a.78.78 0 0 0 .563-.247l3.31-3.57a2.45 2.45 0 0 0 .59-1.084c.106-.414.11-.85.01-1.265a2.5 2.5 0 0 0-.593-1.123 2.16 2.16 0 0 0-1.034-.627"/>
</svg>
