<svg width="28" height="24" viewBox="0 0 28 24" fill="none" xmlns="http://www.w3.org/2000/svg">
  <path fill="#1F3A6A" d="M8.775 18.363c.199 0 .299.035.496.098v-.715c-.037-.003-.258-.038-.442-.038-.296 0-.673.072-.962.42-.049.056-.115.166-.201.31l-.037-.682h-.69c.023.513.036.87.036 1.376 0 .593-.003 1.011-.003 1.599v1.117h.741v-2.003c.026-.388.044-.902.443-1.251.266-.23.528-.23.619-.23ZM6.1 17.756h-.72v4.093h.72v-4.093Zm-2.339 2.073c0 .103 0 .509-.236.88-.245.385-.613.57-.934.57-.275 0-.558-.12-.75-.3-.29-.286-.373-.745-.373-1.182.005-.618.183-.966.475-1.233a.928.928 0 0 1 .641-.262c.205 0 .465.08.68.252.52.436.497 1.236.497 1.275Zm.367 3.166c.305-.403.33-.82.351-1.679l-.009-3.56h-.685v.632a1.693 1.693 0 0 0-.33-.386c-.182-.159-.52-.334-.98-.326a1.674 1.674 0 0 0-1.375.731c-.32.442-.406.972-.406 1.422 0 .113 0 .5.121.864.032.102.17.56.574.9.224.183.566.366 1.086.341.29-.015.689-.11.979-.355.092-.08.147-.133.276-.309l-.006.562c-.016.182-.026.365-.095.545a.885.885 0 0 1-.184.31c-.196.228-.448.346-.93.363a3.28 3.28 0 0 1-1.042-.173c-.197-.072-.32-.15-.405-.197l-.076.712c.116.047.2.078.323.12.197.063.628.173 1.153.173.566 0 .926-.129 1.17-.262.27-.158.398-.3.49-.428Zm1.204-6.213h.788v-.808h-.788v.808Zm7.205 2.981c0 .447-.14 1.102-.689 1.413-.11.055-.3.143-.568.143a1.21 1.21 0 0 1-.495-.111 1.44 1.44 0 0 1-.2-.13c-.112-.083-.267-.252-.39-.537a1.883 1.883 0 0 1-.136-.792c.014-.567.25-.97.497-1.178.161-.135.42-.293.804-.293.633.008.914.443 1.053.776.045.12.123.386.123.709Zm.16 1.635c.473-.477.609-1.125.602-1.649-.022-1.005-.55-1.605-1.048-1.868a1.999 1.999 0 0 0-.891-.196c-.918 0-1.508.476-1.79.965-.201.349-.274.752-.285 1.165-.008.821.284 1.305.635 1.646.085.07.169.136.26.19.23.15.559.276 1.1.276.416 0 .69-.078.865-.16a1.81 1.81 0 0 0 .552-.369Zm3.018.513c.491 0 .756-.11.986-.212l-.055-.658c-.142.062-.465.22-.854.22-.055 0-.308 0-.519-.111-.62-.307-.773-.933-.773-1.398 0-.688.345-1.086.693-1.276.316-.177.6-.167.713-.167.29.014.52.118.636.175l.038-.666c-.13-.032-.435-.133-.788-.14-.819-.025-1.33.355-1.63.749-.342.446-.434.99-.419 1.445.03 1.087.65 1.674 1.194 1.895.145.065.403.139.778.144Zm3.893-1.906c0 .27-.024.427-.062.553-.015.054-.062.19-.184.35a1.01 1.01 0 0 1-.842.433c-.337 0-.785-.175-.785-.656 0-.477.418-.68.785-.77.11-.022.284-.043.538-.043.183 0 .366.005.55.02v.113Zm.043 1.844h.625v-2.643c0-.409-.095-.755-.205-.92-.213-.357-.68-.609-1.322-.609-.78 0-1.176.28-1.284.346v.643c.165-.098.637-.388 1.146-.388.497 0 .803.286.905.553.059.168.074.37.074.54-.19-.009-.391-.017-.588-.017-.404 0-.887.018-1.291.215-.314.15-.743.441-.743 1.097 0 .449.209.778.413.95.23.195.537.27.85.29.467.013.784-.13.986-.272.174-.133.28-.26.434-.435v.65Zm3.288-3.486c.199 0 .3.035.497.098v-.715c-.038-.003-.258-.038-.442-.038-.297 0-.673.072-.962.42a2.6 2.6 0 0 0-.202.31l-.037-.682h-.69c.024.513.036.87.036 1.376 0 .593-.003 1.011-.003 1.599v1.117h.742v-2.003c.025-.388.043-.902.443-1.251.266-.23.527-.23.618-.23Zm3.616 1.474c0 .073-.006.32-.084.57-.192.579-.625.895-1.108.895-.39 0-.779-.213-.995-.674a1.773 1.773 0 0 1-.151-.838c0-.103.006-.34.106-.631.267-.76.871-.835 1.072-.835.465 0 .891.312 1.076.878.03.12.093.34.084.635Zm.718 1.141c-.022-.79-.022-1.354-.022-2.149 0-.992.016-1.984.022-2.975h-.731v2.455a1.594 1.594 0 0 0-.231-.26 1.498 1.498 0 0 0-1.009-.372 1.75 1.75 0 0 0-1.292.561c-.612.657-.561 1.544-.561 1.677.01.285.047.603.164.897.197.507.662 1.132 1.627 1.132.104 0 .667 0 1.093-.422.077-.063.13-.133.253-.299l.032.626h.688c-.019-.327-.022-.547-.033-.87ZM17.47 4.138h-1.05v.281h.826l2.084 8.474H8.67l2.084-8.474h.826v-.28h-1.05l-2.307 9.1h11.555l-2.308-9.1Z"/>
  <path fill="#5DC4E9" d="M16.027.315h-4.053a.412.412 0 0 0-.412.412v3.975h.305V.727c0-.058.049-.107.107-.107h.755v2.867h-.794l1.138 1.215h1.855l1.137-1.215h-.794V.62h.756c.058 0 .107.049.107.107v3.975h.305V.727a.412.412 0 0 0-.412-.412Z"/>
  <path fill="#1F3A6A" d="M13.107 9.663h1.787c.118 0 .21-.097.203-.216l-.068-1.17a.233.233 0 0 0-.229-.216h-1.6a.233.233 0 0 0-.228.215l-.069 1.171a.202.202 0 0 0 .204.216ZM12.342 8.06h-1.614a.276.276 0 0 0-.258.212l-.238 1.18a.17.17 0 0 0 .174.211h1.8a.24.24 0 0 0 .234-.215l.1-1.172a.195.195 0 0 0-.198-.215ZM13.179 7.691h1.643a.162.162 0 0 0 .162-.173l-.054-.936a.186.186 0 0 0-.183-.173h-1.493a.186.186 0 0 0-.183.173l-.055.936a.162.162 0 0 0 .163.173ZM12.527 6.41h-1.51a.22.22 0 0 0-.207.169l-.19.943a.136.136 0 0 0 .14.169h1.657c.095 0 .18-.078.188-.172l.08-.938a.156.156 0 0 0-.158-.172ZM17.237 7.691a.136.136 0 0 0 .138-.17l-.19-.942a.22.22 0 0 0-.207-.17h-1.505a.156.156 0 0 0-.158.172l.08.938a.192.192 0 0 0 .188.172h1.654ZM13.25 6.095h1.5a.141.141 0 0 0 .143-.151l-.043-.723a.163.163 0 0 0-.16-.151h-1.38a.163.163 0 0 0-.16.15l-.042.724a.141.141 0 0 0 .142.15ZM16.936 6.095a.12.12 0 0 0 .12-.148l-.146-.73a.193.193 0 0 0-.182-.147h-1.391a.137.137 0 0 0-.138.15l.062.724c.007.083.08.15.164.15h1.51ZM12.663 5.07h-1.398a.193.193 0 0 0-.18.148l-.148.729a.12.12 0 0 0 .122.148h1.517a.168.168 0 0 0 .164-.15l.062-.725a.137.137 0 0 0-.139-.15ZM17.592 9.663a.17.17 0 0 0 .173-.212l-.238-1.179a.276.276 0 0 0-.259-.211h-1.61a.195.195 0 0 0-.198.215l.1 1.172a.24.24 0 0 0 .235.215h1.797ZM14.876 10.098h-1.752a.28.28 0 0 0-.274.259l-.087 1.485a.242.242 0 0 0 .244.259h1.986a.242.242 0 0 0 .244-.259l-.087-1.485a.28.28 0 0 0-.274-.26ZM12.125 10.098H10.36a.33.33 0 0 0-.31.254l-.3 1.495a.204.204 0 0 0 .207.254h1.995c.143 0 .27-.116.282-.259l.127-1.486a.234.234 0 0 0-.237-.258ZM17.947 10.352a.331.331 0 0 0-.31-.254h-1.762a.235.235 0 0 0-.237.258l.127 1.486a.288.288 0 0 0 .282.259h1.995a.204.204 0 0 0 .208-.254l-.303-1.495Z"/>
</svg>
