<svg xmlns="http://www.w3.org/2000/svg" width="32" height="24" fill="none" viewBox="0 0 32 24">
    <rect width="31" height="23" x=".5" y=".5" fill="#fff" rx="3.5"/>
    <rect width="31" height="23" x=".5" y=".5" stroke="#ccc" rx="3.5"/>
    <path fill="#1f3a6a" d="M20.448 8.618h-1.345v.36h1.059l2.671 10.864H9.167l2.671-10.864h1.06v-.36H11.55L8.593 20.285h14.814z"/>
    <path fill="#5dc4e9" d="M18.599 3.715h-5.197a.53.53 0 0 0-.528.528V9.34h.39V4.243c0-.074.063-.137.138-.137h.968v3.676h-1.018l1.459 1.558h2.378l1.459-1.558H17.63V4.106h.969c.074 0 .136.063.136.137V9.34h.391V4.243a.53.53 0 0 0-.527-.528"/>
    <path fill="#1f3a6a" d="M14.854 15.7h2.291c.153 0 .27-.124.261-.276l-.087-1.502a.3.3 0 0 0-.294-.276h-2.05a.3.3 0 0 0-.294.276l-.088 1.502a.26.26 0 0 0 .261.276M13.875 13.646h-2.07a.354.354 0 0 0-.332.271l-.304 1.511c-.03.15.07.272.223.272h2.307a.31.31 0 0 0 .3-.276l.13-1.502a.25.25 0 0 0-.254-.276M14.947 13.172h2.106c.122 0 .216-.1.209-.22l-.07-1.202a.24.24 0 0 0-.235-.221h-1.914c-.122 0-.228.1-.235.221l-.07 1.201a.207.207 0 0 0 .209.221M14.111 11.529h-1.936a.28.28 0 0 0-.265.217l-.243 1.209a.175.175 0 0 0 .178.217h2.125c.122 0 .23-.1.24-.22l.104-1.202a.2.2 0 0 0-.203-.221M20.15 13.172a.174.174 0 0 0 .178-.217l-.245-1.209a.28.28 0 0 0-.265-.217h-1.929a.2.2 0 0 0-.203.22l.103 1.202c.01.122.119.221.24.221zM15.039 11.125h1.922a.18.18 0 0 0 .183-.193l-.054-.928a.21.21 0 0 0-.206-.193h-1.769a.21.21 0 0 0-.205.194l-.054.927a.18.18 0 0 0 .183.193M19.763 11.125a.153.153 0 0 0 .156-.19l-.19-.934a.25.25 0 0 0-.232-.19h-1.783a.175.175 0 0 0-.178.193l.08.928c.009.107.104.193.21.193zM14.286 9.81h-1.793a.25.25 0 0 0-.232.191l-.188.934a.153.153 0 0 0 .156.19h1.945a.216.216 0 0 0 .21-.193l.08-.928a.175.175 0 0 0-.178-.193M20.606 15.7a.218.218 0 0 0 .222-.271l-.306-1.512a.354.354 0 0 0-.332-.271h-2.064a.25.25 0 0 0-.254.276l.129 1.502a.31.31 0 0 0 .3.276zM17.123 16.258h-2.246a.36.36 0 0 0-.351.332l-.112 1.904a.31.31 0 0 0 .313.332h2.546a.31.31 0 0 0 .313-.332l-.111-1.904a.36.36 0 0 0-.352-.332M13.596 16.258h-2.261a.424.424 0 0 0-.398.326L10.55 18.5a.262.262 0 0 0 .267.326h2.558a.37.37 0 0 0 .36-.332l.164-1.905a.3.3 0 0 0-.305-.331M21.06 16.584a.425.425 0 0 0-.398-.326h-2.258a.3.3 0 0 0-.304.33l.163 1.906a.37.37 0 0 0 .36.332h2.559a.262.262 0 0 0 .266-.326z"/>
</svg>
