<svg width="32" height="24" viewBox="0 0 32 24" fill="none" xmlns="http://www.w3.org/2000/svg">
  <rect x=".5" y=".5" width="31" height="23" rx="3.5" fill="#fff"/>
  <rect x=".5" y=".5" width="31" height="23" rx="3.5" stroke="#CCC"/>
  <path d="M20.45 8.62H19.1v.36h1.06l2.67 10.86H9.17l2.67-10.86h1.06v-.36h-1.35L8.6 20.29h14.82L20.45 8.62Z" fill="#1F3A6A"/>
  <path d="M18.6 3.71h-5.2c-.29 0-.53.24-.53.53v5.1h.4v-5.1c0-.07.06-.13.13-.13h.97v3.67h-1.02l1.46 1.56h2.38l1.46-1.56h-1.02V4.11h.97c.07 0 .14.06.14.13v5.1h.39v-5.1c0-.29-.24-.53-.53-.53Z" fill="#5DC4E9"/>
  <path d="M14.85 15.7h2.3c.15 0 .27-.12.26-.28l-.1-1.5a.3.3 0 0 0-.28-.27h-2.06a.3.3 0 0 0-.29.27l-.09 1.5c0 .16.11.28.26.28ZM13.87 13.65h-2.06c-.16 0-.3.12-.34.27l-.3 1.5c-.03.16.07.28.22.28h2.3a.3.3 0 0 0 .31-.28l.13-1.5a.25.25 0 0 0-.26-.27ZM14.95 13.17h2.1a.2.2 0 0 0 .21-.22l-.07-1.2a.24.24 0 0 0-.23-.22h-1.92c-.12 0-.22.1-.23.22l-.07 1.2c0 .12.08.22.2.22ZM14.11 11.53h-1.93c-.13 0-.25.1-.27.22l-.24 1.2c-.03.12.05.22.17.22h2.13c.12 0 .23-.1.24-.22l.1-1.2a.2.2 0 0 0-.2-.22ZM20.15 13.17c.12 0 .2-.1.18-.21l-.25-1.21a.28.28 0 0 0-.26-.22h-1.93a.2.2 0 0 0-.2.22l.1 1.2c.01.12.12.22.24.22h2.12ZM15.04 11.13h1.92c.1 0 .19-.1.18-.2L17.1 10c0-.1-.1-.19-.2-.19h-1.77a.2.2 0 0 0-.21.2l-.05.92c-.01.1.07.2.18.2ZM19.76 11.13c.11 0 .18-.09.16-.2l-.19-.93a.25.25 0 0 0-.23-.19H17.7c-.1 0-.18.09-.17.2l.08.92c0 .1.1.2.2.2h1.94ZM14.29 9.81h-1.8c-.1 0-.2.09-.23.2l-.19.93c-.02.1.05.19.16.19h1.94c.11 0 .2-.1.21-.2l.08-.93c.01-.1-.07-.19-.17-.19ZM20.6 15.7c.16 0 .26-.12.23-.27l-.3-1.51a.35.35 0 0 0-.34-.27h-2.06a.25.25 0 0 0-.26.27l.13 1.5a.3.3 0 0 0 .3.28h2.3ZM17.12 16.26h-2.24a.36.36 0 0 0-.35.33l-.12 1.9c0 .19.13.34.32.34h2.54c.19 0 .33-.15.32-.34l-.12-1.9a.36.36 0 0 0-.35-.33ZM13.6 16.26h-2.27a.42.42 0 0 0-.4.32l-.38 1.92c-.04.18.09.33.27.33h2.56c.18 0 .34-.15.36-.34l.16-1.9a.3.3 0 0 0-.3-.33ZM21.06 16.58a.42.42 0 0 0-.4-.32H18.4a.3.3 0 0 0-.3.33l.16 1.9c.02.19.18.34.36.34h2.56c.18 0 .3-.15.27-.33l-.39-1.92Z" fill="#1F3A6A"/>
</svg>