<svg width="24" height="24" viewBox="0 0 24 24" fill="none" xmlns="http://www.w3.org/2000/svg">
    <path d="M9.78 18h4.44c-.2.72-.44 1.37-.7 1.94a5.6 5.6 0 0 1-1.2 1.82c-.16.14-.26.2-.32.22a1.3 1.3 0 0 1-.32-.22 5.6 5.6 0 0 1-1.2-1.82c-.26-.57-.5-1.22-.7-1.94Zm-4.13 0c.18.77.39 1.51.63 2.2-.87-.6-1.64-1.35-2.28-2.2h1.65ZM2.2 10h2.87a29.18 29.18 0 0 0 0 4H2.2a10.05 10.05 0 0 1 0-4Zm4.08-6.2c-.24.69-.45 1.43-.63 2.2H4c.64-.85 1.4-1.6 2.28-2.2Zm4.2.26a5.6 5.6 0 0 1 1.2-1.82c.16-.14.26-.2.32-.22.06.02.16.08.32.22.3.27.73.8 1.2 1.82l.9-.41-.9.41c.26.57.5 1.22.7 1.94H9.78c.2-.72.44-1.37.7-1.94l-.9-.41.9.41ZM18.35 6c-.18-.77-.39-1.51-.63-2.2.87.6 1.64 1.35 2.28 2.2h-1.65Zm.58 8a29.18 29.18 0 0 0 0-4h2.87a10.06 10.06 0 0 1 0 4h-2.87Zm-.58 4H20c-.64.85-1.4 1.6-2.28 2.2.24-.69.45-1.43.63-2.2ZM15 12c0 .69-.03 1.36-.08 2H9.08a25.06 25.06 0 0 1 0-4h5.84c.05.64.08 1.31.08 2Z" fill="currentColor" stroke="currentColor" stroke-width="2"/>
</svg>
