<svg xmlns="http://www.w3.org/2000/svg" width="24" height="24" fill="none" viewBox="0 0 24 24">
    <path fill="currentColor" d="M12 2c5.523 0 10 4.477 10 10s-4.477 10-10 10S2 17.523 2 12 6.477 2 12 2M4.064 13a8 8 0 0 0 5.604 6.653A14.05 14.05 0 0 1 7.436 13zm12.5 0a14.05 14.05 0 0 1-2.233 6.653A8 8 0 0 0 19.936 13zm-7.12 0A12.05 12.05 0 0 0 12 19.474 12.05 12.05 0 0 0 14.556 13zm4.887-8.654A14.05 14.05 0 0 1 16.564 11h3.372a8 8 0 0 0-5.605-6.654M12 4.526A12.05 12.05 0 0 0 9.444 11h5.112A12.05 12.05 0 0 0 12 4.525m-2.332-.18A8.01 8.01 0 0 0 4.064 11h3.372c.17-2.38.942-4.668 2.232-6.654"/>
</svg>
