<svg xmlns="http://www.w3.org/2000/svg" width="32" height="24" fill="none" viewBox="0 0 32 24">
    <g clip-path="url(#google_pay_32_svg__a)">
        <rect width="32" height="24" fill="#fff" rx="4"/>
        <rect width="31" height="23" x=".5" y=".5" fill="#fff" stroke="#ccc" rx="3.5"/>
        <path fill="#3c4043" d="M15.418 12.52v2.893h-.917V8.27h2.433q.925 0 1.572.617.66.617.66 1.506c0 .607-.22 1.109-.66 1.515q-.639.608-1.572.607h-1.516zm0-3.37v2.491h1.535c.363 0 .669-.124.908-.368.244-.243.368-.54.368-.874 0-.33-.124-.622-.368-.866a1.2 1.2 0 0 0-.908-.377h-1.535zM21.565 10.364q1.02 0 1.607.545.587.544.587 1.491v3.012h-.874v-.679h-.039q-.567.838-1.515.837-.81.001-1.353-.478a1.53 1.53 0 0 1-.545-1.195q0-.76.574-1.205.575-.45 1.53-.45.819 0 1.343.302v-.21c0-.32-.124-.588-.378-.813a1.3 1.3 0 0 0-.889-.335q-.768 0-1.214.65l-.808-.506q.668-.967 1.974-.966m-1.185 3.547q-.002.36.306.598c.2.157.44.239.712.239q.581 0 1.033-.43t.454-1.01q-.43-.338-1.195-.339-.56.001-.932.268-.38.28-.378.674M28.75 10.522l-3.06 7.037h-.946l1.138-2.462-2.018-4.575h1l1.453 3.509h.019l1.415-3.509z"/>
        <path fill="#4285f4" d="M11.768 11.937q-.001-.449-.077-.86H7.844v1.577h2.216c-.09.525-.38.972-.822 1.27v1.024h1.318c.77-.713 1.212-1.766 1.212-3.01"/>
        <path fill="#34a853" d="M9.238 13.925c-.367.248-.84.393-1.393.393-1.068 0-1.975-.72-2.3-1.69h-1.36v1.055a4.1 4.1 0 0 0 3.66 2.255c1.106 0 2.035-.364 2.712-.99z"/>
        <path fill="#fabb05" d="M5.418 11.844q.002-.41.128-.783v-1.056h-1.36a4.1 4.1 0 0 0-.436 1.84c0 .66.157 1.285.435 1.838l1.36-1.055a2.5 2.5 0 0 1-.127-.784"/>
        <path fill="#e94235" d="M7.845 9.37c.604 0 1.144.208 1.571.615l1.169-1.168a3.93 3.93 0 0 0-2.74-1.067c-1.6 0-2.986.918-3.66 2.255l1.36 1.056c.325-.97 1.232-1.69 2.3-1.69"/>
    </g>
    <defs>
        <clipPath id="google_pay_32_svg__a">
            <rect width="32" height="24" fill="#fff" rx="4"/>
        </clipPath>
    </defs>
</svg>
