<svg width="32" height="24" viewBox="0 0 32 24" fill="none" xmlns="http://www.w3.org/2000/svg">
    <rect x=".5" y=".5" width="31" height="23" rx="3.5" fill="#fff" stroke="#CCC"/>
    <path d="M15.42 12.52v2.9h-.92V8.26h2.43c.62 0 1.15.2 1.58.62.44.4.66.91.66 1.5 0 .61-.22 1.11-.66 1.52-.43.4-.96.6-1.58.6h-1.51v.01Zm0-3.37v2.5h1.53c.37 0 .67-.13.91-.38a1.2 1.2 0 0 0 0-1.74 1.19 1.19 0 0 0-.9-.37h-1.54Zm6.15 1.21c.67 0 1.21.19 1.6.55.4.36.59.86.59 1.5v3h-.88v-.68h-.03c-.38.56-.89.84-1.52.84-.54 0-.99-.16-1.35-.48a1.53 1.53 0 0 1-.55-1.2c0-.5.2-.9.58-1.2.38-.3.9-.45 1.53-.45.54 0 1 .1 1.34.3v-.2c0-.33-.12-.6-.38-.82a1.3 1.3 0 0 0-.89-.33c-.5 0-.91.21-1.21.65l-.8-.51c.44-.65 1.1-.97 1.97-.97Zm-1.19 3.55c0 .24.1.44.3.6.2.16.45.24.72.24.39 0 .73-.15 1.03-.43.3-.29.45-.62.45-1.01a1.9 1.9 0 0 0-1.19-.34c-.37 0-.68.09-.93.27-.26.18-.38.4-.38.67Zm8.37-3.39-3.06 7.04h-.95l1.14-2.46-2.02-4.58h1l1.46 3.51h.02l1.41-3.5h1Z" fill="#3C4043"/>
    <path d="M11.77 11.94c0-.3-.03-.59-.08-.86H7.84v1.57h2.22a1.9 1.9 0 0 1-.82 1.27v1.03h1.32a4 4 0 0 0 1.2-3.01Z" fill="#4285F4"/>
    <path d="M9.24 13.93c-.37.24-.84.39-1.4.39a2.45 2.45 0 0 1-2.3-1.7H4.2v1.06a4.1 4.1 0 0 0 3.66 2.26 3.9 3.9 0 0 0 2.7-1l-1.31-1.01Z" fill="#34A853"/>
    <path d="M5.42 11.84c0-.27.04-.53.13-.78v-1.05H4.19a4.07 4.07 0 0 0 0 3.67l1.36-1.05a2.47 2.47 0 0 1-.13-.79Z" fill="#FABB05"/>
    <path d="M7.85 9.37c.6 0 1.14.2 1.57.61l1.17-1.16A4.1 4.1 0 0 0 4.19 10l1.36 1.05a2.45 2.45 0 0 1 2.3-1.69Z" fill="#E94235"/>
</svg>
