<svg xmlns="http://www.w3.org/2000/svg" width="24" height="24" fill="none" viewBox="0 0 24 24">
    <path fill="currentColor" d="M3 4.8A1.8 1.8 0 0 1 4.8 3h.9a1.8 1.8 0 0 1 1.8 1.8v.9a1.8 1.8 0 0 1-1.8 1.8h-.9A1.8 1.8 0 0 1 3 5.7zM3 11.55a1.8 1.8 0 0 1 1.8-1.8h.9a1.8 1.8 0 0 1 1.8 1.8v.9a1.8 1.8 0 0 1-1.8 1.8h-.9a1.8 1.8 0 0 1-1.8-1.8zM3 18.3a1.8 1.8 0 0 1 1.8-1.8h.9a1.8 1.8 0 0 1 1.8 1.8v.9A1.8 1.8 0 0 1 5.7 21h-.9A1.8 1.8 0 0 1 3 19.2zM9.75 4.8a1.8 1.8 0 0 1 1.8-1.8h.9a1.8 1.8 0 0 1 1.8 1.8v.9a1.8 1.8 0 0 1-1.8 1.8h-.9a1.8 1.8 0 0 1-1.8-1.8zM9.75 11.55a1.8 1.8 0 0 1 1.8-1.8h.9a1.8 1.8 0 0 1 1.8 1.8v.9a1.8 1.8 0 0 1-1.8 1.8h-.9a1.8 1.8 0 0 1-1.8-1.8zM9.75 18.3a1.8 1.8 0 0 1 1.8-1.8h.9a1.8 1.8 0 0 1 1.8 1.8v.9a1.8 1.8 0 0 1-1.8 1.8h-.9a1.8 1.8 0 0 1-1.8-1.8zM16.5 4.8A1.8 1.8 0 0 1 18.3 3h.9A1.8 1.8 0 0 1 21 4.8v.9a1.8 1.8 0 0 1-1.8 1.8h-.9a1.8 1.8 0 0 1-1.8-1.8zM16.5 11.55a1.8 1.8 0 0 1 1.8-1.8h.9a1.8 1.8 0 0 1 1.8 1.8v.9a1.8 1.8 0 0 1-1.8 1.8h-.9a1.8 1.8 0 0 1-1.8-1.8zM16.5 18.3a1.8 1.8 0 0 1 1.8-1.8h.9a1.8 1.8 0 0 1 1.8 1.8v.9a1.8 1.8 0 0 1-1.8 1.8h-.9a1.8 1.8 0 0 1-1.8-1.8z"/>
</svg>
