<svg xmlns="http://www.w3.org/2000/svg" width="24" height="24" fill="none" viewBox="0 0 24 24">
    <path fill="currentColor" d="M2 4a2 2 0 0 1 2-2h1a2 2 0 0 1 2 2v1a2 2 0 0 1-2 2H4a2 2 0 0 1-2-2zM2 11.5a2 2 0 0 1 2-2h1a2 2 0 0 1 2 2v1a2 2 0 0 1-2 2H4a2 2 0 0 1-2-2zM2 19a2 2 0 0 1 2-2h1a2 2 0 0 1 2 2v1a2 2 0 0 1-2 2H4a2 2 0 0 1-2-2zM9.5 4a2 2 0 0 1 2-2h1a2 2 0 0 1 2 2v1a2 2 0 0 1-2 2h-1a2 2 0 0 1-2-2zM9.5 11.5a2 2 0 0 1 2-2h1a2 2 0 0 1 2 2v1a2 2 0 0 1-2 2h-1a2 2 0 0 1-2-2zM9.5 19a2 2 0 0 1 2-2h1a2 2 0 0 1 2 2v1a2 2 0 0 1-2 2h-1a2 2 0 0 1-2-2zM17 4a2 2 0 0 1 2-2h1a2 2 0 0 1 2 2v1a2 2 0 0 1-2 2h-1a2 2 0 0 1-2-2zM17 11.5a2 2 0 0 1 2-2h1a2 2 0 0 1 2 2v1a2 2 0 0 1-2 2h-1a2 2 0 0 1-2-2zM17 19a2 2 0 0 1 2-2h1a2 2 0 0 1 2 2v1a2 2 0 0 1-2 2h-1a2 2 0 0 1-2-2z"/>
</svg>
