<svg xmlns="http://www.w3.org/2000/svg" width="24" height="24" fill="none" viewBox="0 0 24 24">
    <path fill="currentColor" d="M4 7a.97.97 0 0 1-.712-.287A.97.97 0 0 1 3 6q0-.424.288-.713A.97.97 0 0 1 4 5h16q.424 0 .712.287Q21 5.576 21 6q0 .424-.288.713A.97.97 0 0 1 20 7zm0 12a.97.97 0 0 1-.712-.288A.97.97 0 0 1 3 18q0-.424.288-.712A.97.97 0 0 1 4 17h16q.424 0 .712.288.288.287.288.712 0 .424-.288.712A.97.97 0 0 1 20 19zm0-6a.97.97 0 0 1-.712-.287A.97.97 0 0 1 3 12q0-.424.288-.713A.97.97 0 0 1 4 11h16q.424 0 .712.287.288.288.288.713 0 .424-.288.713A.97.97 0 0 1 20 13z"/>
</svg>
