<svg xmlns="http://www.w3.org/2000/svg" width="16" height="16" fill="none" viewBox="0 0 16 16">
    <path fill="currentColor" d="M.857 11.155a.83.83 0 0 1-.61-.246A.83.83 0 0 1 0 10.3q0-.363.246-.613a.82.82 0 0 1 .611-.25h14.286a.83.83 0 0 1 .61.245.83.83 0 0 1 .247.608.84.84 0 0 1-.246.614.82.82 0 0 1-.611.25zm0-4.297a.83.83 0 0 1-.61-.245.83.83 0 0 1-.247-.61q0-.362.246-.613a.82.82 0 0 1 .611-.25h14.286a.83.83 0 0 1 .61.245.83.83 0 0 1 .247.609.84.84 0 0 1-.246.614.82.82 0 0 1-.611.25zm0-4.297a.83.83 0 0 1-.61-.245A.83.83 0 0 1 0 1.707q0-.363.246-.614a.82.82 0 0 1 .611-.25h14.286a.83.83 0 0 1 .61.245.83.83 0 0 1 .247.61.84.84 0 0 1-.246.613.82.82 0 0 1-.611.25z"/>
</svg>
