<svg xmlns="http://www.w3.org/2000/svg" width="24" height="24" fill="none" viewBox="0 0 24 24">
    <path fill="currentColor" d="M7.5 12.91a.91.91 0 0 0-.264-.644A.9.9 0 0 0 6.6 12H4.8v3.636c0 .242.095.473.264.643.168.17.397.267.636.267h.9a.9.9 0 0 0 .636-.267.91.91 0 0 0 .264-.643zm1.8 2.726a2.74 2.74 0 0 1-.791 1.929 2.69 2.69 0 0 1-1.909.799h-.9a2.69 2.69 0 0 1-1.909-.8A2.74 2.74 0 0 1 3 15.637v-4.545c0-1.194.232-2.376.685-3.48a9.1 9.1 0 0 1 1.95-2.949 9 9 0 0 1 2.92-1.97 8.92 8.92 0 0 1 6.89 0 9 9 0 0 1 2.92 1.97 9.1 9.1 0 0 1 1.95 2.95A9.2 9.2 0 0 1 21 11.09v6.364a4.57 4.57 0 0 1-1.318 3.213A4.48 4.48 0 0 1 16.5 22H12a.905.905 0 0 1-.9-.91c0-.501.403-.908.9-.908h4.5c.716 0 1.403-.288 1.909-.8.317-.32.546-.71.674-1.136a2.7 2.7 0 0 1-.783.118h-.9a2.69 2.69 0 0 1-1.909-.8 2.74 2.74 0 0 1-.791-1.928V12.91c0-.723.285-1.417.791-1.928a2.69 2.69 0 0 1 1.909-.8h1.741a7.28 7.28 0 0 0-2.05-4.234 7.2 7.2 0 0 0-2.336-1.575 7.14 7.14 0 0 0-7.847 1.576 7.28 7.28 0 0 0-2.05 4.234H6.6c.716 0 1.403.287 1.909.799.506.511.791 1.205.791 1.928zm7.2 0c0 .242.095.473.264.643s.397.267.636.267h.9a.9.9 0 0 0 .636-.267.91.91 0 0 0 .264-.643V12h-1.8a.9.9 0 0 0-.636.266.91.91 0 0 0-.264.643z"/>
</svg>
