<svg width="16" height="16" viewBox="0 0 16 16" fill="none" xmlns="http://www.w3.org/2000/svg">
    <g clip-path="url(#help_16_svg__a)">
        <path d="M8 0a8 8 0 1 0 0 16A8 8 0 0 0 8 0zm0 13a1 1 0 1 1 0-2 1 1 0 0 1 0 2zm2.86-6.47c-.221.614-.6 1.16-1.1 1.58-.45.45-.73.74-.78 1.17a.845.845 0 0 1-.95.71.81.81 0 0 1-.752-.864V9.1A3.5 3.5 0 0 1 8.52 6.99c.297-.242.534-.55.69-.9a1.058 1.058 0 0 0-.19-1.14 1.542 1.542 0 0 0-1.38-.27 1.247 1.247 0 0 0-.95.94.849.849 0 0 1-1.03.6.808.808 0 0 1-.646-.943l.006-.027a2.925 2.925 0 0 1 2.16-2.13 3.26 3.26 0 0 1 3.05.68 2.567 2.567 0 0 1 .63 2.73z" fill="#000"/>
    </g>
    <defs>
        <clipPath id="help_16_svg__a">
            <path fill="#fff" d="M0 0h16v16H0z"/>
        </clipPath>
    </defs>
</svg>
