<svg xmlns="http://www.w3.org/2000/svg" width="16" height="16" fill="none" viewBox="0 0 16 16">
    <path fill="currentColor" d="M13.25 8a5.25 5.25 0 1 0-10.5 0 5.25 5.25 0 0 0 10.5 0m-5.244 2.25a.75.75 0 0 1 0 1.5H8a.75.75 0 0 1 0-1.5zM6.66 4.599a2.55 2.55 0 0 1 3.842 2.2c0 .999-.74 1.645-1.234 1.975a5 5 0 0 1-.972.498l-.072.028-.023.008q-.004 0-.007.002h-.003v.002h-.002a.75.75 0 0 1-.476-1.423l.008-.002a2 2 0 0 0 .208-.085c.142-.064.327-.156.507-.276.404-.27.566-.524.566-.726v-.001a1.05 1.05 0 0 0-2.04-.35.75.75 0 0 1-1.415-.498A2.55 2.55 0 0 1 6.66 4.6M14.75 8a6.75 6.75 0 1 1-13.5 0 6.75 6.75 0 0 1 13.5 0"/>
</svg>
