<svg width="24" height="24" viewBox="0 0 24 24" fill="none" xmlns="http://www.w3.org/2000/svg">
<path d="M12 2C17.5228 2 22 6.47715 22 12C22 17.5228 17.5228 22 12 22C6.47715 22 2 17.5228 2 12C2 6.47715 6.47715 2 12 2ZM12 15.5C11.4477 15.5 11 15.9477 11 16.5C11 17.0523 11.4477 17.5 12 17.5H12.0088C12.5611 17.5 13.0088 17.0523 13.0088 16.5C13.0088 15.9477 12.5611 15.5 12.0088 15.5H12ZM12.5537 6.54883C11.6927 6.40113 10.8069 6.56331 10.0537 7.00586C9.30048 7.44854 8.72749 8.14363 8.4375 8.96777C8.25428 9.48864 8.52807 10.0598 9.04883 10.2432C9.5698 10.4264 10.1409 10.1528 10.3242 9.63184C10.4574 9.2532 10.7204 8.93389 11.0664 8.73047C11.4125 8.52705 11.8201 8.45264 12.2158 8.52051C12.6113 8.58845 12.9701 8.79454 13.2285 9.10156C13.4869 9.40859 13.6285 9.79696 13.6279 10.1982V10.2002C13.6278 10.5692 13.3378 10.983 12.7236 11.3926C12.4468 11.5772 12.1621 11.7202 11.9434 11.8174C11.8359 11.8651 11.7476 11.9003 11.6885 11.9229C11.659 11.9341 11.6362 11.9426 11.623 11.9473C11.6176 11.9492 11.6126 11.9504 11.6104 11.9512C11.0873 12.1263 10.8052 12.6924 10.9795 13.2158C11.1541 13.7397 11.7212 14.0232 12.2451 13.8486L12.2471 13.8477L12.251 13.8467C12.2537 13.8458 12.2568 13.8441 12.2607 13.8428C12.2689 13.84 12.28 13.8366 12.293 13.832C12.3193 13.8227 12.3561 13.8089 12.4004 13.792C12.4887 13.7583 12.611 13.7099 12.7559 13.6455C13.0434 13.5177 13.4349 13.3221 13.833 13.0566C14.5224 12.597 15.4969 11.746 15.6162 10.4629L15.6279 10.2002C15.6289 9.32699 15.3211 8.48157 14.7588 7.81348C14.1961 7.14504 13.4149 6.69657 12.5537 6.54883Z" fill="currentColor"/>
</svg>
