<svg xmlns="http://www.w3.org/2000/svg" width="24" height="24" fill="none" viewBox="0 0 24 24">
    <path fill="currentColor" d="M12.152 14.625q-.058 0-.115-.006a1 1 0 0 1-.879-1.107 4.38 4.38 0 0 1 1.447-2.6 3 3 0 0 0 .8-1.106 1.36 1.36 0 0 0-.213-1.406 1.71 1.71 0 0 0-1.61-.332 1.52 1.52 0 0 0-1.11 1.163 1 1 0 1 1-1.958-.407c0-.02.009-.039.014-.059a3.5 3.5 0 0 1 2.511-2.621 3.68 3.68 0 0 1 3.566.842 3.29 3.29 0 0 1 .728 3.364 4.6 4.6 0 0 1-1.282 1.95 2.57 2.57 0 0 0-.908 1.442 1 1 0 0 1-.991.883M12 15.5a1.25 1.25 0 1 0-.002 2.5A1.25 1.25 0 0 0 12 15.5M12 3a9 9 0 1 1 0 18 9 9 0 0 1 0-18m0-2a11 11 0 1 0 0 22 11 11 0 0 0 0-22"/>
</svg>
