<svg width="16" height="16" viewBox="0 0 16 16" fill="none" xmlns="http://www.w3.org/2000/svg">
<path d="M8 1.25C11.7279 1.25 14.75 4.27208 14.75 8C14.75 11.7279 11.7279 14.75 8 14.75C4.27208 14.75 1.25 11.7279 1.25 8C1.25 4.27208 4.27208 1.25 8 1.25ZM8 10.25C7.58582 10.25 7.25005 10.5858 7.25 11C7.25 11.4142 7.58579 11.75 8 11.75H8.00586C8.42007 11.75 8.75586 11.4142 8.75586 11C8.75581 10.5858 8.42004 10.25 8.00586 10.25H8ZM8.38281 4.28418C7.78947 4.18247 7.1792 4.29368 6.66016 4.59863C6.14102 4.90373 5.74673 5.38315 5.54688 5.95117C5.40946 6.3418 5.61436 6.76964 6.00488 6.90723C6.39557 7.04466 6.8244 6.83985 6.96191 6.44922C7.04421 6.21533 7.20616 6.01723 7.41992 5.8916C7.63365 5.76605 7.88557 5.7208 8.12988 5.7627C8.37401 5.80467 8.5953 5.93165 8.75488 6.12109C8.91454 6.31076 9.00229 6.55189 9.00195 6.7998C9.00195 7.00165 8.84022 7.25657 8.43555 7.52637C8.25626 7.64584 8.07149 7.73829 7.92871 7.80176C7.85849 7.83297 7.80096 7.85651 7.7627 7.87109C7.74363 7.87836 7.72895 7.88379 7.7207 7.88672C7.71679 7.88811 7.71289 7.88867 7.71289 7.88867C7.32121 8.02031 7.10972 8.44467 7.24023 8.83691C7.37122 9.22987 7.79747 9.44251 8.19043 9.31152L8.19141 9.31055L8.19434 9.30957C8.19452 9.30952 8.19864 9.30849 8.20117 9.30762L8.22363 9.2998C8.24169 9.29338 8.26594 9.28387 8.2959 9.27246C8.35607 9.24954 8.43975 9.21656 8.53809 9.17285C8.73251 9.08643 8.99737 8.9545 9.26758 8.77441C9.76288 8.44421 10.502 7.79793 10.502 6.7998C10.5025 6.1981 10.2899 5.61562 9.90234 5.15527C9.51453 4.69468 8.97627 4.38597 8.38281 4.28418Z" fill="currentColor"/>
</svg>
