<svg width="24" height="24" viewBox="0 0 24 24" fill="none" xmlns="http://www.w3.org/2000/svg">
    <path d="M12 1a10.994 10.994 0 1 0 .012 0H12zm0 17a1.25 1.25 0 1 1 0-2.5 1.25 1.25 0 0 1 0 2.5zm3.33-7.65a4.583 4.583 0 0 1-1.28 1.95 2.6 2.6 0 0 0-.91 1.44 1 1 0 0 1-.99.89c-.04 0-.07-.01-.11-.01a1 1 0 0 1-.88-1.107 4.355 4.355 0 0 1 1.45-2.59c.347-.305.62-.684.8-1.11a1.364 1.364 0 0 0-.22-1.41 1.72 1.72 0 0 0-1.61-.33 1.533 1.533 0 0 0-1.11 1.16 1 1 0 1 1-1.94-.46 3.488 3.488 0 0 1 2.51-2.62 3.64 3.64 0 0 1 3.56.84 3.26 3.26 0 0 1 .73 3.357z" fill="#000"/>
</svg>
