<svg width="24" height="24" viewBox="0 0 24 24" fill="none" xmlns="http://www.w3.org/2000/svg">
    <path fill-rule="evenodd" clip-rule="evenodd" d="M22.91 11.43a12.676 12.676 0 0 0-2.09-4.01l-3.88 3.87c.04.235.06.472.06.71a5 5 0 0 1-5 5c-.238 0-.475-.02-.71-.06L8 20.23c1.272.51 2.63.772 4 .77a11.6 11.6 0 0 0 10.91-8.43c.12-.37.12-.77 0-1.14zM22 1c-.265 0-.52.104-.71.29l-3.42 3.43h-.01A10.9 10.9 0 0 0 12 3a11.6 11.6 0 0 0-10.91 8.43c-.12.37-.12.77 0 1.14a12.507 12.507 0 0 0 3.44 5.48l-3.24 3.24c-.186.19-.29.445-.29.71a1 1 0 0 0 1 1c.266 0 .52-.104.71-.29l20-20c.186-.19.29-.444.29-.71a1 1 0 0 0-1-1zM7.83 14.75a4.993 4.993 0 0 1 6.92-6.92l-6.92 6.92z" fill="#000"/>
</svg>
