<svg xmlns="http://www.w3.org/2000/svg" width="24" height="24" fill="none" viewBox="0 0 24 24">
    <path fill="currentColor" d="M2.793 2.793c.39-.39 1.024-.39 1.415 0l16.999 17a1 1 0 0 1-1.415 1.414l-2.754-2.755a11.2 11.2 0 0 1-8.59.62 11.21 11.21 0 0 1-6.813-6.36l-.013-.033a1.95 1.95 0 0 1 0-1.358l.013-.033A11.2 11.2 0 0 1 5.22 6.634L2.793 4.207a1 1 0 0 1 0-1.414m3.856 5.27A9.2 9.2 0 0 0 3.505 12a9.21 9.21 0 0 0 5.576 5.176 9.2 9.2 0 0 0 3.896.423 9.2 9.2 0 0 0 2.552-.655l-1.608-1.607a3.849 3.849 0 0 1-5.257-5.258zm4.029-3.633a11.21 11.21 0 0 1 11.504 6.437l.183.42.013.033c.162.438.162.92 0 1.358l-.013.033c-.383.93-.89 1.803-1.506 2.598a1 1 0 0 1-1.58-1.227A9.2 9.2 0 0 0 20.492 12a9.21 9.21 0 0 0-9.578-5.585 1 1 0 0 1-.237-1.985m-.485 7.177q-.044.201-.043.41a1.85 1.85 0 0 0 1.833 1.833q.208 0 .409-.044z"/>
</svg>
