<svg width="32" height="24" viewBox="0 0 32 24" fill="none" xmlns="http://www.w3.org/2000/svg">
    <path d="M9.687 5H6.785c-1.283.07-2.33.663-2.633 1.886-.158.638-.245 1.339-.368 2C3.156 12.25 2.6 15.704 2 19h22.593c1.746 0 2.945-.424 3.27-2.016.15-.74.294-1.578.438-2.39C28.863 11.424 29.425 8.256 30 5H9.687z" fill="#B82126"/>
    <path d="M20.807 13.516c-.312.323-1.188.415-1.098-.358.074-.643.734-.78 1.45-.687-.054.352-.115.798-.352 1.045zm-.986-2.507c-.03.178-.075.338-.112.508.357-.095 1.47-.386 1.576.119.036.168-.026.346-.07.477-1.006-.1-1.825.077-2.041.836-.145.508.016 1.009.324 1.149.592.269 1.313-.04 1.562-.463-.026.147-.05.295-.042.478h.52c.006-.53.079-.957.155-1.433.066-.405.189-.806.17-1.163-.045-.82-1.325-.53-2.042-.508zm5.223 2.76c-.408.01-.61-.258-.62-.7-.016-.777.305-1.64.957-1.717.304-.036.524.04.746.12-.204.872-.13 2.276-1.083 2.297zm1.35-4.102c-.051.482-.12.945-.21 1.387-1.485-.498-2.396.66-2.38 2.089.004.276.049.55.212.746.281.337 1.086.417 1.492.134.079-.055.16-.155.211-.224.04-.052.102-.188.113-.149-.021.151-.053.292-.056.463h.549c.105-1.609.432-2.983.675-4.446h-.605zM10.898 13.53c-.324.363-1.12.358-1.182-.254-.027-.266.066-.545.113-.82.046-.28.08-.547.126-.791.32-.413 1.256-.463 1.351.224.083.595-.14 1.34-.408 1.64zm.479-2.522c-.512-.204-1.137.04-1.407.271 0 .01-.007.012-.015.013l.015-.012v-.003c.004-.1.037-.17.042-.269H9.49c-.217 1.53-.475 3.018-.746 4.491h.605c.088-.574.145-1.179.267-1.716.139.565 1.041.457 1.422.239.786-.45 1.392-2.594.338-3.014zm2.871 1.075h-1.421c.045-.347.339-.728.802-.746.436-.018.748.17.62.746zm-.577-1.134c-.437.035-.807.169-1.07.462-.322.36-.583 1.155-.506 1.88.109 1.034 1.323.996 2.294.746.017-.181.058-.337.085-.507-.4.158-1.095.38-1.507.104-.31-.208-.312-.735-.21-1.193a32.998 32.998 0 0 1 1.984 0c.041-.325.16-.68.056-1-.137-.423-.627-.533-1.126-.492zm-5.32.06c-.017.002-.016.023-.015.044a46.418 46.418 0 0 1-.506 3.059h.605c.145-1.065.312-2.106.52-3.104H8.35zm15.793.014c-.535-.283-.98.192-1.155.478.05-.147.053-.343.099-.493h-.535a48.56 48.56 0 0 1-.52 3.104h.619c.004-.412.08-.716.14-1.12.13-.86.32-1.805 1.267-1.521.032-.146.045-.311.085-.448zm-6.799 2.358c-.056-.153-.07-.406-.056-.597.031-.431.18-.956.408-1.194.316-.328.939-.273 1.436-.09.015-.177.049-.335.07-.506-.815-.142-1.589-.054-1.999.402-.401.447-.664 1.473-.478 2.119.217.755 1.194.796 1.984.507.035-.152.054-.321.085-.477-.432.238-1.258.361-1.45-.164zm-.338-2.373c-.537-.23-.958.159-1.154.522.044-.161.063-.35.098-.522h-.534c-.131 1.075-.324 2.084-.507 3.104h.605c.085-.605.122-1.42.31-2 .15-.462.544-.856 1.112-.641.008-.17.054-.301.07-.463zM7.252 9.756a81.918 81.918 0 0 1-.282 1.76c-.627.008-1.267.033-1.872-.014.114-.57.196-1.175.31-1.746h-.676C4.49 11.21 4.27 12.688 4 14.113h.69c.108-.731.21-1.47.352-2.164.588-.015 1.293-.042 1.858.015-.117.722-.258 1.418-.366 2.149h.69c.221-1.476.455-2.94.731-4.357h-.703zm1.717.657c.12-.088.276-.49.098-.657-.056-.053-.15-.068-.281-.045-.122.022-.192.066-.24.135-.076.11-.146.443-.028.567.116.12.374.056.45 0z" fill="#fff"/>
</svg>
