<svg width="32" height="24" viewBox="0 0 32 24" fill="none" xmlns="http://www.w3.org/2000/svg">
    <rect x=".5" y=".5" width="31" height="23" rx="3.5" fill="#fff"/>
    <path d="M9.236 5h-3.11c-1.373.065-2.496.618-2.82 1.76-.17.594-.263 1.248-.395 1.865-.672 3.137-1.268 6.36-1.911 9.434h24.206c1.872 0 3.157-.396 3.504-1.881.161-.69.316-1.472.47-2.23.602-2.955 1.204-5.91 1.82-8.948H9.236z" fill="#B82126" stroke="#fff" stroke-width=".5"/>
    <path d="M21.725 12.802c-.336.329-1.278.422-1.182-.364.08-.652.79-.79 1.56-.697-.057.357-.122.81-.378 1.06zm-1.06-2.545c-.033.18-.082.343-.122.515.384-.097 1.582-.392 1.697.121.038.17-.028.352-.076.485-1.082-.103-1.965.077-2.197.848-.155.517.018 1.025.349 1.167.637.273 1.413-.04 1.681-.47a1.98 1.98 0 0 0-.045.485h.56c.006-.537.085-.971.167-1.454.07-.412.203-.82.182-1.182-.048-.832-1.426-.537-2.197-.515zm5.62 2.802c-.439.01-.657-.262-.667-.712-.017-.788.328-1.663 1.03-1.742.327-.036.564.04.803.121-.22.886-.14 2.311-1.166 2.333zm1.454-4.166c-.056.49-.13.96-.227 1.41-1.598-.507-2.578.67-2.56 2.12.003.28.051.56.227.758.302.342 1.169.424 1.606.136a1.13 1.13 0 0 0 .227-.227c.042-.053.11-.192.121-.152-.023.154-.057.296-.06.47h.59c.114-1.633.466-3.029.728-4.515h-.652zm-16.68 3.924c-.348.37-1.205.364-1.272-.258-.03-.27.071-.553.121-.833.05-.283.087-.554.136-.803.344-.419 1.352-.47 1.455.228.089.605-.15 1.36-.44 1.666zm.516-2.56c-.552-.207-1.224.04-1.515.275 0 .01-.007.012-.016.013l.016-.013v-.002c.005-.102.04-.172.045-.273h-.56a106.38 106.38 0 0 1-.803 4.56h.651c.094-.583.157-1.197.288-1.742.149.573 1.12.464 1.53.242.846-.457 1.498-2.634.364-3.06zm3.09 1.09h-1.53a.903.903 0 0 1 .864-.757c.469-.018.805.172.666.758zm-.621-1.15c-.47.035-.869.17-1.151.469-.347.365-.628 1.173-.546 1.909.118 1.05 1.424 1.011 2.47.757.017-.184.062-.341.09-.515-.43.161-1.178.386-1.62.106-.335-.211-.337-.747-.228-1.212a37.749 37.749 0 0 1 2.136 0c.045-.33.173-.69.06-1.015-.147-.43-.674-.541-1.211-.5zm-5.727.06c-.017.002-.016.024-.015.045a44.685 44.685 0 0 1-.545 3.106h.651c.157-1.08.336-2.139.56-3.151h-.65zm16.998.015c-.576-.288-1.055.195-1.242.485.053-.149.056-.348.106-.5h-.576a46.818 46.818 0 0 1-.56 3.15h.666c.005-.417.087-.726.152-1.135.14-.875.344-1.834 1.363-1.546.034-.148.048-.315.091-.454zm-7.317 2.393c-.06-.155-.076-.41-.06-.605.033-.438.193-.971.439-1.212.34-.333 1.01-.278 1.545-.091.017-.18.053-.341.076-.515-.878-.144-1.71-.055-2.152.409-.432.453-.715 1.495-.515 2.15.235.768 1.286.81 2.137.516.037-.154.057-.326.09-.485-.465.242-1.353.367-1.56-.167zm-.364-2.408c-.577-.233-1.031.16-1.242.53.048-.164.068-.357.106-.53h-.576c-.14 1.091-.348 2.116-.545 3.15h.652c.09-.614.13-1.441.333-2.03.162-.469.585-.869 1.197-.65.008-.174.058-.306.075-.47zM7.136 8.984a78.736 78.736 0 0 1-.303 1.788c-.675.007-1.364.033-2.015-.015.123-.58.211-1.193.333-1.773h-.727c-.26 1.477-.497 2.977-.788 4.424h.743c.116-.742.225-1.492.378-2.197.633-.015 1.392-.043 2 .015-.125.733-.277 1.44-.394 2.182h.742c.239-1.499.49-2.985.788-4.424h-.757zm1.848.667c.13-.09.297-.497.106-.667-.06-.054-.162-.07-.303-.045-.131.022-.206.066-.257.136-.083.112-.158.45-.03.576.123.122.401.057.484 0z" fill="#fff"/>
    <rect x=".5" y=".5" width="31" height="23" rx="3.5" stroke="#CCC"/>
</svg>
