<svg width="32" height="24" viewBox="0 0 32 24" fill="none" xmlns="http://www.w3.org/2000/svg">
    <rect x=".5" y=".5" width="31" height="23" rx="3.5" fill="#fff"/>
    <path d="M9.236 5h-3.11c-1.373.065-2.496.618-2.82 1.76-.17.594-.263 1.248-.395 1.865-.672 3.137-1.268 6.36-1.911 9.434h24.206c1.872 0 3.157-.396 3.504-1.881.161-.69.316-1.472.47-2.23.602-2.955 1.204-5.91 1.82-8.948H9.236z" fill="#B82126" stroke="#fff" stroke-width=".5"/>
    <path d="M21.724 12.802c-.335.329-1.277.422-1.181-.364.08-.652.79-.79 1.56-.697-.057.357-.123.81-.379 1.06zm-1.06-2.545c-.032.18-.081.343-.121.515.384-.097 1.581-.392 1.697.121.038.17-.028.352-.076.485-1.083-.103-1.965.077-2.197.848-.155.517.018 1.025.349 1.167.637.273 1.413-.04 1.681-.47a1.98 1.98 0 0 0-.045.485h.56c.006-.537.084-.971.167-1.454.07-.412.203-.82.182-1.182-.048-.832-1.426-.537-2.197-.515zm5.62 2.802c-.438.01-.656-.262-.666-.712-.017-.788.328-1.663 1.03-1.742.327-.036.564.04.803.121-.22.886-.14 2.311-1.166 2.333zm1.455-4.166c-.056.49-.13.96-.227 1.41-1.598-.507-2.578.67-2.56 2.12.003.28.051.56.227.758.302.342 1.168.424 1.606.136a1.13 1.13 0 0 0 .227-.227c.042-.053.109-.192.12-.152-.022.154-.056.296-.06.47h.591c.114-1.633.466-3.029.727-4.515h-.651zm-16.68 3.924c-.348.37-1.205.364-1.272-.258-.03-.27.071-.553.12-.833.051-.283.087-.554.137-.803.343-.419 1.352-.47 1.455.228.088.605-.151 1.36-.44 1.666zm.515-2.56c-.551-.207-1.223.04-1.514.275 0 .01-.007.012-.016.013l.016-.013v-.002c.004-.102.04-.172.045-.273h-.56a104.835 104.835 0 0 1-.804 4.56h.652c.094-.583.156-1.197.288-1.742.148.573 1.12.464 1.53.242.845-.457 1.498-2.634.363-3.06zm3.09 1.09h-1.53a.903.903 0 0 1 .864-.757c.47-.018.806.172.667.758zm-.62-1.15c-.471.035-.869.17-1.152.469-.346.365-.627 1.173-.545 1.909.117 1.05 1.424 1.011 2.47.757.017-.184.062-.341.09-.515-.43.161-1.178.386-1.62.106-.335-.211-.337-.747-.228-1.212a37.745 37.745 0 0 1 2.136 0c.045-.33.172-.69.06-1.015-.147-.43-.674-.541-1.211-.5zm-5.727.06c-.017.002-.016.024-.015.045a44.685 44.685 0 0 1-.545 3.106h.651c.157-1.08.336-2.139.56-3.151h-.65zm16.998.015c-.576-.288-1.055.195-1.242.485.053-.149.056-.348.106-.5h-.576a46.692 46.692 0 0 1-.56 3.15h.666c.004-.417.086-.726.152-1.135.139-.875.343-1.834 1.363-1.546.034-.148.048-.315.091-.454zm-7.317 2.393c-.06-.155-.076-.41-.06-.605.033-.438.192-.971.439-1.212.34-.333 1.01-.278 1.545-.091.016-.18.052-.341.075-.515-.877-.144-1.71-.055-2.15.409-.433.453-.716 1.495-.516 2.15.235.768 1.285.81 2.136.516.038-.154.058-.326.091-.485-.465.242-1.354.367-1.56-.167zm-.364-2.408c-.578-.233-1.032.16-1.242.53.048-.164.067-.357.106-.53h-.576c-.14 1.091-.348 2.116-.545 3.15h.651c.092-.614.131-1.441.334-2.03.162-.469.585-.869 1.196-.65.009-.174.059-.306.076-.47zM7.136 8.984a78.791 78.791 0 0 1-.303 1.788c-.675.007-1.364.033-2.015-.015.123-.58.21-1.193.333-1.773h-.727c-.26 1.477-.497 2.977-.788 4.424h.742c.117-.742.226-1.492.379-2.197.633-.015 1.392-.043 2 .015-.126.733-.277 1.44-.394 2.182h.742c.239-1.499.49-2.985.788-4.424h-.757zm1.848.667c.13-.09.297-.497.106-.667-.06-.054-.162-.07-.303-.045-.131.022-.207.066-.258.136-.082.112-.157.45-.03.576.124.122.402.057.485 0z" fill="#fff"/>
    <rect x=".5" y=".5" width="31" height="23" rx="3.5" stroke="#CCC"/>
</svg>
