<svg xmlns="http://www.w3.org/2000/svg" width="24" height="24" fill="none" viewBox="0 0 24 24">
    <path fill="currentColor" d="m11.998 3.222 6 4.2V20.5a.5.5 0 0 1-.5.5h-1.5v-4a3 3 0 0 0-3-3h-2a3 3 0 0 0-3 3v4h-1.5a.5.5 0 0 1-.5-.5V7.422zm0-2.222a1 1 0 0 0-.57.18l-10 7a1 1 0 0 0 .57 1.82c.203-.001.402-.064.57-.18l1.43-1V20.5a2.5 2.5 0 0 0 2.5 2.5h2.5a1 1 0 0 0 1-1v-5a1 1 0 0 1 1-1h2a1 1 0 0 1 1 1v5a1 1 0 0 0 1 1h2.5a2.5 2.5 0 0 0 2.5-2.5V8.82l1.43 1c.167.116.366.179.57.18a1 1 0 0 0 .57-1.82l-10-7a1 1 0 0 0-.57-.18"/>
</svg>
