<svg xmlns="http://www.w3.org/2000/svg" width="24" height="24" fill="none" viewBox="0 0 24 24">
    <path fill="currentColor" d="M5.5 8 12 3l6.5 4.732V20a1 1 0 0 1-1 1h-2a1 1 0 0 1-1-1v-4a1 1 0 0 0-1-1h-3a1 1 0 0 0-1 1v4a1 1 0 0 1-1 1h-2a1 1 0 0 1-1-1z"/>
    <path fill="currentColor" d="m12 3 .589-.808a1 1 0 0 0-1.199.015zM5.5 8l-.61-.793-.007.006-.008.006zm13-.268.603-.798-.007-.005-.007-.005zM12 3l-.61-.793-6.5 5L5.5 8l.61.793 6.5-5zM5.5 8l-.625-.78-3 2.4.625.78.625.78 3-2.4zm0 0h-1v12h2V8zm1 13v1h2v-2h-2zm3-1h1v-4h-2v4zm1-5v1h3v-2h-3zm4 1h-1v4h2v-4zm1 5v1h2v-2h-2zm3-1h1V7.732h-2V20zm0-12.268.589-.808-6.5-4.732L12 3l-.589.808 6.5 4.733zm3 2.268.603-.798-3-2.268-.603.798-.603.798 3 2.268zm-4 11v1a2 2 0 0 0 2-2h-2zm-3-1h-1a2 2 0 0 0 2 2v-2zm-1-5v1h2a2 2 0 0 0-2-2zm-4 1h1v-2a2 2 0 0 0-2 2zm-1 5v1a2 2 0 0 0 2-2h-2zm-3-1h-1a2 2 0 0 0 2 2v-2z"/>
</svg>
