<svg xmlns="http://www.w3.org/2000/svg" width="24" height="24" fill="none" viewBox="0 0 24 24">
    <path fill="currentColor" d="M12 5a2 2 0 1 0 0-4 2 2 0 0 0 0 4"/>
    <path fill="currentColor" fill-rule="evenodd" d="M23 20v-1q0-.06-.007-.116c-.004-.273-.01-.576-.02-.884-.025-.75-.07-1.531-.154-1.989A11 11 0 0 0 12 7a11 11 0 0 0-10.819 9.011c-.084.458-.13 1.239-.154 1.989-.01.308-.016.61-.02.884A1 1 0 0 0 1 19v2.5A1.5 1.5 0 0 0 2.5 23h19a1.5 1.5 0 0 0 1.5-1.5zm-2.148-3.627c.054.297.095.917.12 1.627H3.028c.025-.71.066-1.33.12-1.627a8.999 8.999 0 0 1 17.704 0M3 21v-1h18v1z" clip-rule="evenodd"/>
</svg>
