<svg width="24" height="24" viewBox="0 0 24 24" fill="none" xmlns="http://www.w3.org/2000/svg">
  <path fill-rule="evenodd" clip-rule="evenodd"
    d="M4 4C2.34315 4 1 5.34315 1 7V17C1 18.6569 2.34315 20 4 20H20C21.6569 20 23 18.6569 23 17V7C23 5.34315 21.6569 4 20 4H4ZM9.99992 9C9.99992 10.1046 9.10449 11 7.99992 11C6.89535 11 5.99992 10.1046 5.99992 9C5.99992 7.89543 6.89535 7 7.99992 7C9.10449 7 9.99992 7.89543 9.99992 9ZM11.4999 17C12.0522 17 12.511 16.5469 12.3893 16.0082C12.2033 15.1852 11.788 14.4241 11.1819 13.818C10.338 12.9741 9.1934 12.5 7.99992 12.5C6.80645 12.5 5.66186 12.9741 4.81794 13.818C4.21188 14.4241 3.79654 15.1852 3.61057 16.0082C3.48883 16.5469 3.94764 17 4.49992 17H11.4999ZM14 8C14 7.44772 14.4477 7 15 7H19C19.5523 7 20 7.44772 20 8C20 8.55228 19.5523 9 19 9H15C14.4477 9 14 8.55228 14 8ZM14 12C14 11.4477 14.4477 11 15 11H19C19.5523 11 20 11.4477 20 12C20 12.5523 19.5523 13 19 13H15C14.4477 13 14 12.5523 14 12Z"
    fill="currentColor" />
</svg>
