<svg xmlns="http://www.w3.org/2000/svg" viewBox="0 0 295 295" width="24" height="24"><defs><linearGradient id="idealwero__lg" x1="152.7" y1="50.16" x2="130.19" y2="22.59" gradientTransform="matrix(1 0 0 -1 0 296)" gradientUnits="userSpaceOnUse"><stop offset=".02" stop-color="#1d1c1c" stop-opacity="0"/><stop offset=".68" stop-color="#1d1c1c"/></linearGradient><linearGradient id="idealwero__lg2" x1="113.43" y1="44.31" x2="136.51" y2="67.12" gradientTransform="matrix(1 0 0 -1 0 296)" gradientUnits="userSpaceOnUse"><stop offset=".02" stop-color="#1d1c1c" stop-opacity="0"/><stop offset=".68" stop-color="#1d1c1c"/></linearGradient><style>.idealwero__cls-3,.idealwero__cls-8{stroke-width:0}.idealwero__cls-3{fill-rule:evenodd;fill:#fff}.idealwero__cls-8{fill:#fff}</style></defs><rect width="295" height="295" rx="13" ry="13" stroke-width="0" fill="#fff48d"/><path class="idealwero__cls-8" d="M56.51 22.87v136.4c0 6.53 5.37 11.87 11.93 11.87h81.89c61.91 0 88.74-34.49 88.74-80.25S212.23 11 150.32 11H68.43A11.94 11.94 0 0 0 56.5 22.87Z"/><path d="M111.32 44.48v100.79h44.07c40.02 0 57.37-22.5 57.37-54.31s-17.36-54.07-57.37-54.07h-36.44a7.63 7.63 0 0 0-7.63 7.6Z" stroke-width="0" fill="#c06"/><path d="M79.11 160.28h71.21c50.04 0 77.65-24.63 77.65-69.33 0-25.76-10.08-69.03-77.65-69.03H79.11c-6.32 0-11.45 5.1-11.45 11.4v115.57c0 6.29 5.13 11.4 11.45 11.4ZM71.47 33.32a7.6 7.6 0 0 1 7.63-7.6h71.21c27.55 0 73.83 8.49 73.83 65.23 0 42.26-26.24 65.53-73.83 65.53H79.1a7.6 7.6 0 0 1-7.63-7.6z" stroke-width="0" fill-rule="evenodd" fill="#232323"/><path class="idealwero__cls-3" d="M133.01 76.3a13 13 0 0 0-4.26-.72v-.06h-10.09v24.34h10.21c1.81 0 3.38-.36 4.72-.96a10 10 0 0 0 3.33-2.58q1.3-1.64 1.98-3.9a18.5 18.5 0 0 0-.18-10.2 12 12 0 0 0-2.27-3.72 9.5 9.5 0 0 0-3.44-2.22Zm-2.4 18.77c-.76.24-1.46.36-2.22.36v.06h-4.61V80.14h3.73q1.9 0 3.21.54c.88.36 1.57.96 2.1 1.62s.93 1.56 1.17 2.52.35 2.1.35 3.3a10 10 0 0 1-.52 3.42 7 7 0 0 1-1.34 2.28 4.4 4.4 0 0 1-1.87 1.26Z"/><path class="idealwero__cls-8" d="M160.6 75.59v4.5h-12.49v5.22h11.49v4.14h-11.49v5.94h12.78v4.5h-17.97V75.55h17.68v.06Z"/><path class="idealwero__cls-3" d="m187.32 99.93-8.87-24.34h-5.43l-8.93 24.34h5.25l1.87-5.4h8.87l1.81 5.4zm-11.55-18.35 2.98 8.93h-6.13l3.09-8.93z"/><path class="idealwero__cls-8" d="M195.78 75.58v19.85h11.55v4.5h-16.74V75.59h5.19Z"/><path d="M90.84 100.29a11.44 11.44 0 1 0 0-22.88 11.44 11.44 0 0 0 0 22.88m6.81 45.79c-8.86 0-15.96-7.65-15.96-17.05v-13.31c0-4.7 3.55-8.56 8.01-8.56s8.01 3.8 8.01 8.56v30.36z" stroke-width="0" fill="#232323"/><path d="M258 199H38c-1.1 0-2-.9-2-2s.9-2 2-2h220c1.1 0 2 .9 2 2s-.9 2-2 2m-62.53 59.26c5.48-3.12 8.77-9.08 8.77-15.66 0-9.77-7.06-18.09-18.02-18.09h-23.01v48.51h14.25v-12.4h2.67l8.15 12.4h16.78zm-12.12-8.8h-5.89v-13.72h5.96c3.84 0 6.3 3.12 6.3 6.86s-2.54 6.86-6.37 6.86m22.23-.7c0-13.38 9.52-25.57 25.96-25.57s26.03 12.2 26.03 25.57-9.52 25.57-26.03 25.57c-16.44 0-25.96-12.2-25.96-25.57m37.54 0c0-6.45-4.25-12.4-11.58-12.4s-11.58 5.96-11.58 12.4 4.32 12.41 11.58 12.41 11.58-5.96 11.58-12.41m-144.95-24.3-8.55 28.91-8.34-28.91H69.93l-8.41 28.91-8.48-28.91H38l17.23 48.42h12.38l8-26.36 7.93 26.36h12.44l17.23-48.42zm36.6 36.59h-.04c-5.33 0-9.07-3.22-10.67-7.48h36.21q.44-2.4.44-4.9c0-13.34-9.49-25.51-25.95-25.52v13.14c5.36.01 9.06 3.23 10.65 7.48h-36.16q-.44 2.4-.44 4.9c0 13.35 9.5 25.53 25.91 25.53h.04z" stroke-width="0" fill="#1d1c1c"/><path d="M134.73 274.19q.83 0 1.65-.04a28 28 0 0 0 9.06-1.94 24 24 0 0 0 12.05-10.72 26 26 0 0 0 2.57-6.86h-15.09q-.47.97-1.08 1.83a10.7 10.7 0 0 1-4.48 3.65 12 12 0 0 1-4.67.94c-3.4 0-6.14-1.31-8.1-3.36l-9.81 9.92c4.36 4.03 10.41 6.57 17.91 6.57Z" fill="url(#idealwero__lg)" stroke-width="0"/><path d="M134.73 223.14c-13.92 0-22.87 8.76-25.26 19.56h15.04a11 11 0 0 1 10.22-6.42 10.9 10.9 0 0 1 8.88 4.22l9.9-10.01c-4.42-4.48-10.78-7.35-18.77-7.35Z" stroke-width="0" fill="url(#idealwero__lg2)"/></svg>