<svg width="32" height="24" viewBox="0 0 32 24" fill="none" xmlns="http://www.w3.org/2000/svg">
    <rect x=".5" y=".5" width="31" height="23" rx="3.5" fill="#fff" stroke="#CCC"/>
    <path d="M16.82 20.68H7.95c-.79 0-1.43-.64-1.43-1.43V4.8c0-.78.64-1.42 1.43-1.42h8.87c8.41 0 9.66 5.41 9.66 8.63 0 5.6-3.43 8.68-9.66 8.68ZM7.95 3.84A.95.95 0 0 0 7 4.8v14.46c0 .53.42.95.95.95h8.87C22.74 20.2 26 17.3 26 12c0-7.1-5.76-8.16-9.2-8.16H7.96Z" fill="#000"/>
    <path fill-rule="evenodd" clip-rule="evenodd" d="M11.96 18.8V6.19c0-.52.42-.95.95-.95h4.54c4.98 0 7.14 2.95 7.14 6.76 0 3.98-2.16 6.8-7.14 6.8h-5.5Zm5.98-8.5v.56h-1.58v.65h1.46v.5h-1.46v.74h1.62v.56H15.7v-3.02h2.25v.01Zm-4.05 0c.2 0 .37.03.54.1.17.05.31.15.44.27.12.12.22.28.29.46a2.24 2.24 0 0 1 .02 1.26c-.06.18-.14.35-.25.48-.11.14-.25.24-.42.32a1.5 1.5 0 0 1-.6.12h-1.3v-3.02h1.28v.01Zm-.04 2.46a.9.9 0 0 0 .28-.04.55.55 0 0 0 .23-.16.87.87 0 0 0 .18-.28 1.72 1.72 0 0 0 .02-.83.81.81 0 0 0-.15-.32.67.67 0 0 0-.27-.2 1.1 1.1 0 0 0-.4-.06h-.48v1.9h.59v-.01Zm7.5.56-1.13-3.02h-.7l-1.13 3.02h.67l.24-.67h1.12l.23.67h.7Zm-1.48-2.28.38 1.11h-.78l.4-1.1Zm2.55-.74v2.46h1.47v.56h-2.13V10.3h.66Z" fill="#C06"/>
    <path fill-rule="evenodd" clip-rule="evenodd" d="M10.87 11.81a1.39 1.39 0 1 1-2.78 0 1.39 1.39 0 0 1 2.78 0ZM8.42 16.7c0 1.15.94 2.1 2.1 2.1h.01v-3.75a1.05 1.05 0 1 0-2.1 0v1.65Z" fill="#000"/>
</svg>
