<svg width="24" height="25" viewBox="0 0 24 25" fill="none" xmlns="http://www.w3.org/2000/svg">
<path d="M12.3475 22.1738H2.57867C1.71143 22.1738 1.00781 21.4702 1.00781 20.603V4.67346C1.00781 3.80621 1.71143 3.1026 2.57867 3.1026H12.3475C21.6172 3.1026 22.9999 9.06696 22.9999 12.6178C22.9999 18.7785 19.2118 22.1738 12.3475 22.1738ZM2.57867 3.62622C1.99778 3.62622 1.53143 4.09257 1.53143 4.67346V20.603C1.53143 21.1839 1.99778 21.6502 2.57867 21.6502H12.3475C18.8763 21.6502 22.4762 18.443 22.4762 12.6178C22.4762 4.79618 16.1273 3.62622 12.3475 3.62622H2.57867Z" fill="black"/>
<path d="M9.07482 13.4523C9.18118 13.4523 9.27936 13.4359 9.38572 13.4032C9.4839 13.3705 9.57389 13.3132 9.64753 13.2314C9.72116 13.1496 9.78662 13.0514 9.8357 12.9205C9.88479 12.7896 9.90934 12.6423 9.90934 12.4541C9.90934 12.2905 9.89298 12.135 9.86025 12.0041C9.82752 11.8732 9.77025 11.7505 9.69662 11.6605C9.62298 11.5705 9.5248 11.4887 9.40208 11.4396C9.27936 11.3905 9.13209 11.366 8.95209 11.366H8.42847V13.4605H9.07482V13.4523Z" fill="black"/>
<path d="M16.1355 12.7814L15.7182 11.5623H15.71L15.2764 12.7814H16.1355Z" fill="black"/>
<path fill-rule="evenodd" clip-rule="evenodd" d="M6.99664 6.21161V20.1039H13.0428C18.5326 20.1039 20.9135 17.0031 20.9135 12.6178C20.9135 8.42063 18.5326 5.16437 13.0428 5.16437H8.04388C7.46299 5.16437 6.99664 5.6389 6.99664 6.21161ZM9.12391 10.7442C9.33663 10.7442 9.53299 10.7769 9.72116 10.8424C9.90934 10.9078 10.0648 11.0142 10.2039 11.1451C10.3348 11.2842 10.4411 11.456 10.523 11.6523C10.5966 11.8569 10.6375 12.0941 10.6375 12.3723C10.6375 12.6178 10.6048 12.8387 10.5475 13.0432C10.482 13.2477 10.3921 13.4277 10.2693 13.575C10.1466 13.7223 9.99115 13.8368 9.80298 13.9268C9.6148 14.0086 9.3939 14.0577 9.14027 14.0577H7.70849V10.736H9.12391V10.7442ZM13.5911 11.3578V10.736H11.1121V14.0577H13.632V13.4441H11.8402V12.6341H13.452V12.0696H11.8402V11.3578H13.5911ZM16.0946 10.7442L17.3382 14.0659H16.5773L16.3237 13.3296H15.0801L14.8182 14.0659H14.0819L15.3337 10.7442H16.0946ZM18.5246 13.4523V10.7442H17.7964V14.0659H20.1445V13.4523H18.5246Z" fill="black"/>
<path d="M5.79391 12.4051C5.79391 13.25 5.10893 13.935 4.26396 13.935C3.41899 13.935 2.73401 13.25 2.73401 12.4051C2.73401 11.5601 3.41899 10.8751 4.26396 10.8751C5.10893 10.8751 5.79391 11.5601 5.79391 12.4051Z" fill="black"/>
<path d="M3.10223 17.7886C3.10223 19.0649 4.13311 20.1039 5.41762 20.1039H5.4258V15.9804C5.4258 15.3341 4.90218 14.8186 4.26402 14.8186C3.61767 14.8186 3.10223 15.3423 3.10223 15.9804V17.7886Z" fill="black"/>
</svg>
