<svg xmlns="http://www.w3.org/2000/svg" width="24" height="24" fill="none" viewBox="0 0 24 24">
    <g clip-path="url(#ideal_24_svg__a)">
        <path fill="#fff48d" d="M22.942 0H1.058C.474 0 0 .474 0 1.058v21.884C0 23.526.474 24 1.058 24h21.884c.584 0 1.058-.474 1.058-1.058V1.058C24 .474 23.526 0 22.942 0"/>
        <path fill="#fff" d="M4.597 1.86v11.098c0 .53.437.965.97.965h6.663c5.037 0 7.22-2.806 7.22-6.529s-2.184-6.5-7.22-6.5H5.566a.97.97 0 0 0-.97.967"/>
        <path fill="#c06" d="M9.057 3.619v8.2h3.585c3.256 0 4.667-1.83 4.667-4.419s-1.412-4.399-4.667-4.399H9.677a.62.62 0 0 0-.62.619z"/>
        <path fill="#232323" fill-rule="evenodd" d="M6.436 13.04h5.793c4.071 0 6.318-2.004 6.318-5.64 0-2.096-.82-5.617-6.318-5.617H6.436a.93.93 0 0 0-.931.928v9.402a.93.93 0 0 0 .931.928zM5.814 2.71c0-.342.277-.618.621-.618h5.794c2.24 0 6.006.691 6.006 5.307 0 3.438-2.135 5.332-6.006 5.332H6.435a.62.62 0 0 1-.62-.619z" clip-rule="evenodd"/>
        <path fill="#fff" fill-rule="evenodd" d="M10.821 6.207a1 1 0 0 0-.346-.058v-.005h-.821v1.98h.83a.9.9 0 0 0 .384-.078.8.8 0 0 0 .271-.21.9.9 0 0 0 .161-.317 1.5 1.5 0 0 0-.014-.83 1 1 0 0 0-.185-.303.8.8 0 0 0-.28-.18zm-.195 1.528a.6.6 0 0 1-.18.029v.005h-.376v-1.25h.304q.155 0 .26.045a.43.43 0 0 1 .172.132.5.5 0 0 1 .095.205q.028.119.028.268c0 .112-.014.2-.042.278a.6.6 0 0 1-.109.186.36.36 0 0 1-.152.102" clip-rule="evenodd"/>
        <path fill="#fff" d="M13.066 6.15v.366H12.05v.424h.934v.337h-.934v.484h1.04v.366h-1.463v-1.98h1.439z"/>
        <path fill="#fff" fill-rule="evenodd" d="m15.24 8.13-.722-1.98h-.442l-.726 1.98h.427l.152-.44h.721l.148.44zm-.94-1.493.242.727h-.498l.251-.727z" clip-rule="evenodd"/>
        <path fill="#fff" d="M15.928 6.149v1.615h.94v.366h-1.362V6.15z"/>
        <path fill="#232323" d="M7.39 8.16a.93.93 0 1 0 0-1.862.93.93 0 0 0 0 1.861m.554 3.726c-.72 0-1.298-.623-1.298-1.388V9.415c0-.383.289-.697.652-.697.362 0 .651.31.651.697v2.47z"/>
        <path fill="#1d1c1c" d="M20.99 16.19H3.092a.163.163 0 0 1-.163-.163c0-.09.073-.163.163-.163H20.99a.163.163 0 0 1 0 .325m-4.265 4.049c0-1.088.775-2.08 2.112-2.08s2.118.992 2.118 2.08-.775 2.08-2.118 2.08c-1.337 0-2.112-.992-2.112-2.08m3.054 0c0-.525-.345-1.009-.942-1.009-.596 0-.942.485-.942 1.01 0 .523.352 1.009.942 1.009s.942-.485.942-1.01m-3.876.773c.445-.254.713-.739.713-1.274 0-.795-.574-1.472-1.466-1.472h-1.872v3.947h1.16v-1.009h.217l.663 1.009h1.365zm-.986-.716h-.48v-1.116h.485c.313 0 .513.254.513.558s-.207.558-.518.558m-6.93-2.034-.696 2.352-.678-2.352h-.924l-.684 2.352-.69-2.352H3.092l1.401 3.94H5.5l.651-2.145.646 2.144h1.012l1.401-3.939zm2.977 2.977h-.003a.9.9 0 0 1-.868-.609h2.946q.036-.195.036-.398c0-1.086-.772-2.076-2.111-2.076v1.069a.9.9 0 0 1 .866.608H8.888q-.035.196-.036.399c0 1.086.773 2.077 2.108 2.077h.004z"/>
        <path fill="url(#ideal_24_svg__b)" d="M10.961 22.307q.069 0 .134-.003c.271-.014.518-.07.737-.158a1.95 1.95 0 0 0 .98-.872q.144-.262.21-.558h-1.228a1 1 0 0 1-.088.148.87.87 0 0 1-.364.297.9.9 0 0 1-.38.077.9.9 0 0 1-.659-.273l-.798.807c.355.328.847.534 1.457.534z"/>
        <path fill="url(#ideal_24_svg__c)" d="M10.961 18.154c-1.132 0-1.86.712-2.055 1.591h1.224a.9.9 0 0 1 .831-.522c.316 0 .562.136.723.343l.805-.814c-.36-.365-.877-.598-1.527-.598"/>
    </g>
    <defs>
        <linearGradient id="ideal_24_svg__b" x1="12.423" x2="10.592" y1="20" y2="22.244" gradientUnits="userSpaceOnUse">
            <stop offset=".02" stop-color="#1d1c1c" stop-opacity="0"/>
            <stop offset=".68" stop-color="#1d1c1c"/>
        </linearGradient>
        <linearGradient id="ideal_24_svg__c" x1="9.228" x2="11.106" y1="20.477" y2="18.621" gradientUnits="userSpaceOnUse">
            <stop offset=".02" stop-color="#1d1c1c" stop-opacity="0"/>
            <stop offset=".68" stop-color="#1d1c1c"/>
        </linearGradient>
        <clipPath id="ideal_24_svg__a">
            <path fill="#fff" d="M0 0h24v24H0z"/>
        </clipPath>
    </defs>
</svg>
