<svg xmlns="http://www.w3.org/2000/svg" width="28" height="24" fill="none" viewBox="0 0 28 24">
    <path fill="#fff" d="M.77 1.78v20.44c0 .98.802 1.78 1.78 1.78h12.214C23.997 24 28 18.832 28 11.973 28 5.15 23.997 0 14.764 0H2.55C1.572 0 .77.8.77 1.78Z"/>
    <path fill="#C06" d="M8.946 5.017v15.105h6.574c5.968 0 8.557-3.372 8.557-8.14 0-4.563-2.589-8.104-8.557-8.104h-5.435a1.14 1.14 0 0 0-1.14 1.139Z"/>
    <path fill="#000" d="M14.764 22.372H4.142a1.708 1.708 0 0 1-1.708-1.708V3.344c0-.942.765-1.707 1.708-1.707h10.622c10.078 0 11.581 6.484 11.581 10.345 0 6.698-4.118 10.39-11.581 10.39ZM4.142 2.206c-.631 0-1.138.507-1.138 1.139v17.32c0 .63.507 1.138 1.138 1.138h10.622c7.098 0 11.012-3.487 11.012-9.82 0-8.505-6.903-9.777-11.012-9.777H4.142Z"/>
    <path fill="#fff" d="M11.259 9.945c.231 0 .444.036.65.107.204.071.373.187.524.329.142.151.258.338.347.551.08.223.124.48.124.783 0 .267-.035.507-.098.73a1.704 1.704 0 0 1-.302.578 1.47 1.47 0 0 1-.507.382 1.792 1.792 0 0 1-.72.143H9.72V9.936h1.539v.01Zm-.054 2.944c.116 0 .223-.017.338-.053a.663.663 0 0 0 .285-.187c.08-.089.151-.195.205-.338a1.41 1.41 0 0 0 .08-.507 2.06 2.06 0 0 0-.054-.489.974.974 0 0 0-.178-.374.802.802 0 0 0-.32-.24 1.309 1.309 0 0 0-.49-.08h-.568v2.277h.702v-.008ZM16.116 10.612h-1.904v.774h1.752V12h-1.752v.88h1.948v.668h-2.74V9.936h2.696v.676ZM18.838 9.945l1.352 3.612h-.828l-.275-.801h-1.352l-.285.8h-.8l1.36-3.611h.828Zm.044 2.215-.454-1.325h-.009l-.47 1.325h.933ZM21.48 9.945v2.944h1.76v.668h-2.552V9.945h.792Z"/>
    <path fill="#000" d="M5.975 13.414a1.663 1.663 0 1 0 0-3.327 1.663 1.663 0 0 0 0 3.327ZM7.229 20.122a2.515 2.515 0 0 1-2.517-2.518v-1.966a1.262 1.262 0 1 1 2.526 0v4.484h-.009Z"/>
</svg>
