<svg xmlns="http://www.w3.org/2000/svg" width="32" height="24" fill="none" viewBox="0 0 32 24">
    <g clip-path="url(#ideal_32_svg__a)">
        <rect width="32" height="24" fill="#fff" rx="4"/>
        <rect width="31" height="23" x=".5" y=".5" fill="#fff" stroke="#ccc" rx="3.5"/>
        <path fill="#fff48d" d="M25.119 2H6.88a.88.88 0 0 0-.88.881V21.12c0 .486.395.881.881.881H25.12a.88.88 0 0 0 .881-.881V2.88a.88.88 0 0 0-.882-.88"/>
        <path fill="#fff" d="M9.831 3.55v9.248a.81.81 0 0 0 .81.805h5.55c4.198 0 6.017-2.339 6.017-5.441s-1.82-5.416-6.017-5.416H10.64a.81.81 0 0 0-.808.804"/>
        <path fill="#c06" d="M13.547 5.016v6.833h2.988c2.713 0 3.89-1.526 3.89-3.682 0-2.157-1.178-3.666-3.89-3.666h-2.47a.517.517 0 0 0-.518.515"/>
        <path fill="#232323" fill-rule="evenodd" d="M11.363 12.866h4.828c3.393 0 5.265-1.67 5.265-4.7 0-1.746-.684-4.68-5.265-4.68h-4.828a.775.775 0 0 0-.776.773v7.835c0 .427.348.773.776.773m-.518-8.607c0-.285.231-.515.518-.515h4.828c1.867 0 5.005.575 5.005 4.422 0 2.865-1.779 4.443-5.006 4.443h-4.827a.515.515 0 0 1-.518-.515z" clip-rule="evenodd"/>
        <path fill="#fff" fill-rule="evenodd" d="M15.018 7.173a.8.8 0 0 0-.289-.049V7.12h-.684v1.65h.692q.185-.002.32-.065a.66.66 0 0 0 .36-.44 1.25 1.25 0 0 0-.012-.69.8.8 0 0 0-.154-.253.65.65 0 0 0-.233-.15m-.163 1.272a.5.5 0 0 1-.15.025v.004h-.313v-1.04h.253a.6.6 0 0 1 .218.036.35.35 0 0 1 .142.11.45.45 0 0 1 .08.17 1 1 0 0 1 .023.224.7.7 0 0 1-.035.232.5.5 0 0 1-.091.155.3.3 0 0 1-.127.085" clip-rule="evenodd"/>
        <path fill="#fff" d="M16.888 7.125v.305h-.847v.354h.78v.28h-.78v.403h.867v.305h-1.219v-1.65h1.2v.004z"/>
        <path fill="#fff" fill-rule="evenodd" d="m18.7 8.775-.602-1.65h-.368l-.605 1.65h.356l.127-.366h.6l.123.366zm-.783-1.244.202.605h-.416l.21-.605z" clip-rule="evenodd"/>
        <path fill="#fff" d="M19.273 7.124V8.47h.783v.305h-1.135v-1.65z"/>
        <path fill="#232323" d="M12.159 8.8a.776.776 0 1 0 0-1.552.776.776 0 0 0 0 1.551m.461 3.105c-.6 0-1.082-.519-1.082-1.156v-.903c0-.318.241-.58.543-.58s.543.258.543.58v2.059z"/>
        <path fill="#1d1c1c" d="M23.492 15.492H8.575a.136.136 0 0 1-.135-.136c0-.075.06-.136.135-.136H23.49a.136.136 0 0 1 0 .271m-3.552 3.374c0-.907.645-1.733 1.76-1.733s1.764.827 1.764 1.733-.645 1.734-1.764 1.734c-1.115 0-1.76-.827-1.76-1.734m2.545 0c0-.437-.289-.84-.785-.84s-.786.404-.786.84c0 .437.293.841.786.841.492 0 .785-.404.785-.84m-3.231.644c.372-.212.595-.616.595-1.062 0-.663-.479-1.227-1.222-1.227h-1.56v3.289h.966v-.84h.181l.553.84h1.137zm-.822-.597h-.399v-.93h.404c.26 0 .427.211.427.465 0 .253-.172.465-.432.465m-5.774-1.695-.58 1.96-.566-1.96h-.77l-.57 1.96-.574-1.96h-1.02L9.744 20.5h.84l.542-1.787.538 1.787h.843l1.168-3.282zm2.481 2.48h-.003a.75.75 0 0 1-.723-.507h2.455q.03-.163.03-.332c0-.904-.644-1.73-1.76-1.73v.89a.75.75 0 0 1 .722.508h-2.451q-.03.163-.03.332c0 .905.644 1.73 1.757 1.73h.002z"/>
        <path fill="url(#ideal_32_svg__b)" d="M15.134 20.59q.057 0 .112-.003.34-.02.614-.132a1.62 1.62 0 0 0 .817-.727 1.8 1.8 0 0 0 .175-.465h-1.024a1 1 0 0 1-.073.124.7.7 0 0 1-.304.248.8.8 0 0 1-.316.063.74.74 0 0 1-.55-.227l-.664.672c.295.273.705.445 1.214.445z"/>
        <path fill="url(#ideal_32_svg__c)" d="M15.134 17.128c-.944 0-1.55.594-1.712 1.326h1.02a.75.75 0 0 1 .692-.435c.264 0 .469.114.602.286l.671-.678c-.3-.304-.73-.499-1.272-.499"/>
    </g>
    <rect width="31" height="23" x=".5" y=".5" stroke="#ccc" rx="3.5"/>
    <defs>
        <linearGradient id="ideal_32_svg__b" x1="16.352" x2="14.826" y1="18.667" y2="20.536" gradientUnits="userSpaceOnUse">
            <stop offset=".02" stop-color="#1d1c1c" stop-opacity="0"/>
            <stop offset=".68" stop-color="#1d1c1c"/>
        </linearGradient>
        <linearGradient id="ideal_32_svg__c" x1="13.69" x2="15.255" y1="19.064" y2="17.517" gradientUnits="userSpaceOnUse">
            <stop offset=".02" stop-color="#1d1c1c" stop-opacity="0"/>
            <stop offset=".68" stop-color="#1d1c1c"/>
        </linearGradient>
        <clipPath id="ideal_32_svg__a">
            <rect width="32" height="24" fill="#fff" rx="4"/>
        </clipPath>
    </defs>
</svg>
