<svg xmlns="http://www.w3.org/2000/svg" width="32" height="24" fill="none" viewBox="0 0 32 24">
    <g clip-path="url(#ideal_32_svg__a)">
        <rect width="32" height="24" fill="#fff" rx="4"/>
        <rect width="31" height="23" x=".5" y=".5" fill="#fff" stroke="#ccc" rx="3.5"/>
        <path fill="#fff" d="M5.135 3.485V20.55a1.49 1.49 0 0 0 1.485 1.485h10.196c7.708 0 11.05-4.314 11.05-10.04C27.866 6.3 24.524 2 16.816 2H6.62a1.49 1.49 0 0 0-1.485 1.485"/>
        <path fill="#000" d="M16.816 20.676H7.949a1.426 1.426 0 0 1-1.425-1.425V4.791c0-.787.638-1.426 1.425-1.426h8.867c8.414 0 9.669 5.414 9.669 8.637 0 5.592-3.439 8.673-9.67 8.673M7.949 3.842a.95.95 0 0 0-.95.95v14.459c0 .527.423.95.95.95h8.867c5.926 0 9.193-2.91 9.193-8.198 0-7.1-5.762-8.161-9.193-8.161z"/>
        <path fill="#c06" d="M17.446 5.238c4.983 0 7.145 2.955 7.145 6.764 0 3.98-2.162 6.795-7.145 6.795H11.96V6.188c0-.52.423-.95.95-.95zm2.08 5.064-1.135 3.015h.668l.237-.67h1.129l.23.67h.69l-1.128-3.015zm2.236 0v3.015h2.13v-.558h-1.47v-2.457zm-9.157-.008v3.015h1.3c.23 0 .431-.044.602-.118a1.2 1.2 0 0 0 .423-.32 1.4 1.4 0 0 0 .253-.483q.078-.276.08-.608a1.9 1.9 0 0 0-.103-.653 1.5 1.5 0 0 0-.29-.462 1.2 1.2 0 0 0-.437-.274q-.254-.09-.542-.089v-.008zm3.09 0v3.015h2.287v-.557h-1.626v-.735h1.462v-.513h-1.463v-.645h1.59v-.565zm-1.96.573c.163 0 .296.022.408.066.11.045.2.119.267.2a.8.8 0 0 1 .149.313c.03.118.045.26.045.408 0 .17-.023.304-.068.423a.9.9 0 0 1-.17.282.55.55 0 0 1-.238.156 1 1 0 0 1-.282.045v.007h-.587v-1.9zm6.14.177.379 1.107h-.78l.394-1.107z"/>
        <path fill="#000" d="M9.479 14c.58 0 1.055.468 1.055 1.055v3.743h-.008a2.1 2.1 0 0 1-2.102-2.101v-1.642c0-.58.468-1.055 1.055-1.055m0-3.579a1.389 1.389 0 1 1 0 2.778 1.389 1.389 0 0 1 0-2.778"/>
    </g>
    <rect width="31" height="23" x=".5" y=".5" stroke="#ccc" rx="3.5"/>
    <defs>
        <clipPath id="ideal_32_svg__a">
            <rect width="32" height="24" fill="#fff" rx="4"/>
        </clipPath>
    </defs>
</svg>
