<svg xmlns="http://www.w3.org/2000/svg" width="24" height="24" fill="none" viewBox="0 0 24 24">
    <path fill="currentColor" d="m19 15.081-2.45-2.45a.777.777 0 0 0-1.043-.052l-.057.052L9.081 19h9.142c.429 0 .777-.348.777-.777zm-8.889-5.748a.778.778 0 1 0-1.556.001.778.778 0 0 0 1.556-.001M19 5.777A.78.78 0 0 0 18.223 5H5.777A.78.78 0 0 0 5 5.777v12.446c0 .429.348.777.777.777h.476l7.783-7.783a2.78 2.78 0 0 1 3.928 0L19 12.253zm-6.889 3.556a2.779 2.779 0 1 1-5.557 0 2.779 2.779 0 0 1 5.557 0M21 18.223A2.78 2.78 0 0 1 18.223 21H5.777A2.78 2.78 0 0 1 3 18.223V5.777A2.78 2.78 0 0 1 5.777 3h12.446A2.78 2.78 0 0 1 21 5.777z"/>
</svg>
