<svg xmlns="http://www.w3.org/2000/svg" width="24" height="24" fill="none" viewBox="0 0 24 24">
    <path fill="currentColor" d="M18.3 3a2.76 2.76 0 0 1 1.909.759A2.54 2.54 0 0 1 21 5.59v5.182c0 6.045-6.003 9.992-8.208 11.045a1.82 1.82 0 0 1-1.584 0C9.003 20.765 3 16.818 3 10.773V5.59c0-.687.285-1.346.791-1.832A2.76 2.76 0 0 1 5.701 3zM5.7 5a.76.76 0 0 0-.524.202.54.54 0 0 0-.176.389v5.182c0 2.326 1.153 4.356 2.729 6.019 1.538 1.623 3.325 2.722 4.271 3.185.946-.463 2.733-1.562 4.272-3.185C17.847 15.129 19 13.099 19 10.772V5.592a.54.54 0 0 0-.176-.389A.76.76 0 0 0 18.3 5zm7.78 3.073a1.8 1.8 0 0 1 1.024.001c.343.09.658.278.91.548s.432.61.521.982c.089.363.087.746-.006 1.108a2.15 2.15 0 0 1-.522.948l-2.91 3.123A.7.7 0 0 1 12 15a.7.7 0 0 1-.496-.217L8.593 11.66a2.15 2.15 0 0 1-.522-.948 2.3 2.3 0 0 1-.007-1.108c.09-.373.27-.712.522-.982s.567-.459.91-.548c.336-.098.689-.099 1.024 0 .336.098.643.291.888.56l.592.638.592-.638a1.95 1.95 0 0 1 .887-.56"/>
</svg>
