<svg xmlns="http://www.w3.org/2000/svg" width="24" height="24" fill="none" viewBox="0 0 24 24">
    <path fill="currentColor" fill-rule="evenodd" d="M19 1H5a3 3 0 0 0-3 3v6c0 7 6.67 11.57 9.12 12.79a1.95 1.95 0 0 0 1.76 0C15.33 21.57 22 17 22 10V4a3 3 0 0 0-3-3m-6.38 13.754 3.64-3.57a2.4 2.4 0 0 0 .66-2.35 2.43 2.43 0 0 0-1.79-1.75 2.47 2.47 0 0 0-2.39.64l-.74.73-.74-.73a2.47 2.47 0 0 0-2.39-.64A2.43 2.43 0 0 0 7.09 10.1a2.4 2.4 0 0 0 .65 1.084l3.64 3.57a.9.9 0 0 0 1.24 0" clip-rule="evenodd"/>
</svg>
