<svg xmlns="http://www.w3.org/2000/svg" width="24" height="24" fill="none" xmlns:v="https://vecta.io/nano"><g fill="#fdb82b"><path d="M19.712 1H4.288A3.29 3.29 0 0 0 1 4.288v15.423A3.29 3.29 0 0 0 4.288 23h15.423A3.29 3.29 0 0 0 23 19.712V4.288A3.29 3.29 0 0 0 19.712 1z"/><path d="M4.986 15.664v.082 2.147c0 .021.001.042-.002.063-.008.062-.06.108-.121.109s-.109-.04-.121-.1a.31.31 0 0 1-.004-.057l-.003-.991-.001-1.758c-.001-.333-.26-.592-.586-.591s-.584.26-.584.593l.002 4.844c.002.577.258 1.027.74 1.343.285.187.604.247.943.245.861-.006 1.555-.696 1.555-1.557l-.001-2.554c-.002-.386-.176-.691-.486-.913l-.931-.636-.399-.271v.001zm13.675-4.029c-.033-.095-.077-.181-.089-.272l-.056-.585-.004-1.878c0-.112-.008-.225-.025-.336-.036-.237-.125-.452-.305-.62-.208-.193-.463-.26-.737-.264-.414-.006-.806.092-1.176.274-.414.204-.689.525-.785.983-.027.125-.035.255-.053.389l.073-.014.832-.186c.066-.014.098-.038.108-.11.036-.281.204-.446.476-.511a1.12 1.12 0 0 1 .124-.023c.259-.033.428.084.471.342.023.142.023.288.038.432.005.045-.012.06-.052.068l-.564.126c-.318.07-.628.163-.91.332-.296.177-.533.409-.655.739-.13.351-.121.706.006 1.053.101.279.291.482.576.583.212.075.427.059.643.007.42-.102.75-.316.93-.724.06.114.108.24.156.366.013.033.032.04.066.032l.34-.077.574-.13v.001zm-8.142.018l.058-.015.759-.17 1.49-.334c.028-.006.052-.009.055-.05.028-.422-.007-.836-.162-1.232-.131-.334-.342-.598-.688-.733-.233-.091-.475-.101-.721-.067-.417.058-.79.214-1.098.507-.267.255-.442.567-.553.916-.144.448-.177.908-.133 1.374.03.314.098.618.246.899.158.3.384.526.712.634.243.081.492.08.741.033.457-.086.858-.278 1.167-.637.256-.3.393-.654.463-1.037.003-.016.004-.031.006-.051l-.063.013-.838.186c-.078.016-.117.045-.14.126a.72.72 0 0 1-.583.548c-.214.044-.396-.008-.525-.191-.151-.214-.197-.459-.193-.719h.001zm-4.535 2.857l.028-.002.888-.199c.042-.009.037-.035.037-.063l.004-1.019.001-1.397-.022-.508c-.02-.226-.072-.444-.183-.645-.108-.195-.262-.338-.484-.391a1.13 1.13 0 0 0-.849.135c-.263.152-.46.374-.625.626l-.032.049-.012-.493-.061.01-.844.183c-.052.011-.064.032-.064.083l.001 3.201v.066a1.08 1.08 0 0 1 .968.104v-.073l.001-1.592c.001-.251.027-.499.112-.738.105-.294.288-.505.608-.569.233-.046.403.044.472.271a1.3 1.3 0 0 1 .055.365l.002 2.525v.07h0zM22.104 8.06l-.031-.17c-.116-.514-.516-.908-1.01-.978a1.78 1.78 0 0 0-1.314.316c-.372.262-.595.634-.733 1.059-.165.506-.193 1.025-.122 1.55.041.306.119.602.282.87.192.313.463.513.829.573.261.043.517.006.769-.065.362-.102.683-.273.932-.562.234-.272.355-.593.411-.942l.029-.249-.035.003-.893.2c-.038.008-.04.033-.048.06-.037.116-.065.236-.117.345-.098.206-.268.321-.493.358-.202.033-.365-.038-.472-.208-.062-.098-.111-.21-.143-.322-.085-.294-.102-.597-.087-.902.013-.278.056-.551.176-.805.098-.206.24-.367.471-.427.278-.072.481.026.593.289.029.068.047.14.073.217l.933-.209h-.001zM9.301 12.933l-.059.018-.332.083c-.129.02-.205-.038-.232-.166a1.03 1.03 0 0 1-.019-.21l.003-2.044v-.057l.69-.156v-.845l-.681.153v-.78l-.962.214v.067l.001.658c0 .041-.009.059-.053.068l-.496.112v.845l.538-.119v.079 2.119a1.52 1.52 0 0 0 .04.346c.1.417.413.66.824.634.255-.016.491-.107.719-.217.014-.007.025-.037.025-.056l-.002-.716c0-.007-.002-.015-.003-.031zm-6.213-3.36l-.057.009-.877.195c-.054.011-.068.032-.068.086l.001 5.451v.066l.056-.009.876-.196c.053-.011.069-.031.069-.086l-.002-5.451v-.065h0zm11.138-1.108l-.051.008-.821.182c-.049.011-.066.027-.066.081l.002 4.071v.063l.065-.013.832-.185c.055-.012.068-.035.069-.087l.006-1.425c.002-.255-.002-.511.046-.764.098-.525.383-.88.915-1.012.04-.01.039-.033.039-.062V8.313c0-.016-.003-.032-.004-.051-.238.056-.461.131-.643.293s-.273.383-.354.607l-.031-.698h-.001zM3.29 16.849c-.016.002-.028.001-.038.003l-.862.208c-.239.06-.381.301-.325.54a.45.45 0 0 0 .539.335l.64-.152c.038-.009.047-.025.047-.061l-.001-.67v-.202zm0 1.188l-.031.004-.878.213c-.237.061-.375.307-.314.546a.45.45 0 0 0 .535.325l.634-.151c.041-.009.056-.024.055-.067l-.001-.441v-.428h0zm-.003-2.378l-.037.005-.84.202c-.256.062-.404.298-.345.546a.45.45 0 0 0 .557.329l.618-.147c.039-.009.051-.024.051-.064l-.001-.819-.002-.052h0z"/></g><g fill="#2e2a27"><path d="M4.986 15.664l.399.271.931.636c.311.222.484.527.486.913l.001 2.554a1.56 1.56 0 0 1-1.555 1.557c-.339.002-.658-.058-.943-.245-.482-.316-.738-.766-.74-1.343l-.002-4.844a.58.58 0 0 1 .584-.593.58.58 0 0 1 .586.591l.001 1.758.003.991c0 .019 0 .038.004.057.012.061.061.101.121.1s.113-.046.121-.109c.003-.021.002-.042.002-.063v-2.147-.082-.001zm13.675-4.029l-.574.13-.34.077c-.034.008-.054.001-.066-.032l-.145-.379c-.191.421-.521.635-.941.737-.216.052-.43.068-.643-.007-.285-.101-.475-.304-.576-.583-.126-.348-.135-.703-.006-1.053.122-.33.359-.562.655-.739.282-.169.591-.262.91-.332l.564-.126c.04-.009.057-.023.052-.068l-.038-.432c-.043-.258-.211-.376-.471-.342a1.04 1.04 0 0 0-.124.023c-.272.065-.439.23-.476.511-.009.072-.041.096-.108.11l-.832.186-.073.014.053-.389c.097-.458.372-.779.785-.983a2.55 2.55 0 0 1 1.176-.274c.274.004.529.07.737.264.18.168.268.382.305.62a2.32 2.32 0 0 1 .025.336l.004 1.878c.002.195.028.391.056.585.013.09.057.176.089.272v-.001zM17.539 10c-.02.002-.034.002-.046.006l-.575.171a1.35 1.35 0 0 0-.45.256c-.156.136-.222.304-.192.511s.16.35.341.354c.25.007.467-.078.635-.263.268-.294.271-.665.287-1.035h0zm-7.021 1.652c-.005.26.042.505.193.719.128.182.311.235.525.191a.72.72 0 0 0 .583-.548c.023-.081.061-.11.14-.126l.838-.186.063-.013-.006.051c-.07.384-.207.738-.463 1.038-.308.359-.709.551-1.167.637-.249.047-.497.048-.741-.033-.328-.108-.554-.334-.712-.634-.147-.282-.216-.586-.246-.899a3.38 3.38 0 0 1 .133-1.374c.112-.349.286-.661.553-.916a1.93 1.93 0 0 1 1.098-.507c.246-.034.488-.025.721.067.345.135.556.399.688.733.156.397.19.81.162 1.232-.003.041-.027.044-.055.05l-1.49.334-.759.17-.058.015h-.001zm1.398-1.056a.95.95 0 0 0-.15-.534c-.08-.115-.191-.181-.331-.189a.77.77 0 0 0-.586.21c-.164.151-.242.349-.286.562-.018.083-.027.168-.041.263l1.393-.312z"/><path d="M5.983 14.509v-.07l-.002-2.525a1.3 1.3 0 0 0-.055-.365c-.069-.227-.239-.317-.472-.271-.321.063-.504.275-.608.569a2.21 2.21 0 0 0-.112.738l-.001 1.592v.073a1.08 1.08 0 0 0-.968-.104v-.066l-.001-3.201c0-.051.012-.072.064-.083l.844-.183c.018-.004.037-.006.061-.01v.488c.023-.011.033-.027.044-.044.165-.252.362-.474.625-.626s.548-.207.849-.135c.222.053.376.196.484.391a1.6 1.6 0 0 1 .183.645l.022.508-.001 1.397-.004 1.019c0 .028.005.054-.037.063l-.888.199c-.007.002-.014.001-.028.002h0zM22.104 8.06l-.933.209-.073-.217c-.112-.263-.315-.361-.593-.289-.232.06-.373.221-.471.427-.121.254-.163.527-.176.805a2.74 2.74 0 0 0 .087.902 1.28 1.28 0 0 0 .143.322c.107.17.269.241.472.208a.62.62 0 0 0 .493-.358c.052-.109.08-.23.117-.345.009-.027.01-.051.048-.06l.893-.2c.007-.002.015-.002.035-.003l-.029.249c-.056.349-.178.671-.411.942-.249.289-.57.46-.932.562-.252.072-.508.108-.769.065a1.16 1.16 0 0 1-.829-.573c-.163-.267-.242-.564-.283-.87-.07-.525-.042-1.044.123-1.55.139-.425.361-.797.733-1.059a1.78 1.78 0 0 1 1.314-.316c.494.07.894.464 1.01.978l.031.17h.001z"/><path d="M9.301 12.933l.003.031.002.716c0 .019-.01.049-.025.056-.228.11-.464.201-.719.217-.411.025-.724-.218-.824-.634-.027-.112-.04-.23-.04-.346v-2.119-.079l-.538.119v-.844l.496-.112c.044-.009.053-.027.053-.068l-.001-.658v-.067l.962-.214v.78l.681-.153v.845l-.69.156v.057l-.003 2.044a1.03 1.03 0 0 0 .019.21c.027.128.103.186.232.166.112-.017.222-.054.332-.083l.059-.018zM3.089 9.572v.065l.002 5.451c0 .055-.016.075-.069.086l-.876.196-.056.008v-.066l-.001-5.451c0-.054.014-.075.068-.086l.877-.195c.016-.004.033-.005.057-.009V9.57zm11.137-1.107l.031.698c.081-.223.17-.443.354-.607s.406-.237.643-.293l.004.051v1.008c0 .03.001.053-.039.062-.532.132-.816.487-.915 1.012-.047.253-.044.509-.046.764l-.006 1.425c0 .053-.013.075-.069.087l-.832.185-.065.013v-.063l-.002-4.071c0-.053.017-.07.066-.081l.821-.182.051-.008h.001zM3.29 16.849v.202l.001.67c0 .037-.009.053-.047.061l-.64.152a.45.45 0 0 1-.539-.335.45.45 0 0 1 .325-.54l.862-.208c.011-.003.022-.002.038-.003z"/><path d="M3.29 18.036v.428l.001.441c.001.044-.014.058-.055.067l-.634.151a.45.45 0 0 1-.535-.325c-.061-.238.077-.485.314-.546l.878-.213c.007-.002.015-.002.031-.004h0zm-.003-2.377l.002.052.001.819c0 .041-.012.055-.051.064l-.618.147a.45.45 0 0 1-.557-.329c-.059-.249.089-.484.345-.546l.84-.202c.011-.003.022-.003.037-.005h0z"/></g><path d="M17.539 10c-.016.37-.019.741-.287 1.035a.8.8 0 0 1-.635.263c-.181-.005-.311-.146-.341-.355s.036-.375.192-.511a1.35 1.35 0 0 1 .45-.256l.575-.171c.012-.004.026-.004.046-.006h0zm-5.622.597l-1.393.313.041-.263c.044-.213.122-.41.286-.562a.77.77 0 0 1 .586-.21c.14.008.251.074.331.189.111.16.145.341.15.534z" fill="#fdb82b"/></svg>