<svg xmlns="http://www.w3.org/2000/svg" width="32" height="24" fill="none" viewBox="0 0 32 24"><rect width="31" height="23" x=".5" y=".5" fill="#fff" stroke="#CCC" rx="3.5"/><path fill="#FDB82B" d="M23.01 2H8.99A2.99 2.99 0 0 0 6 4.99v14.02A2.99 2.99 0 0 0 8.99 22h14.02A2.99 2.99 0 0 0 26 19.01V4.99A2.99 2.99 0 0 0 23.01 2Z"/><path fill="#FDB82B" d="M9.624 15.33v2.028c0 .019 0 .038-.002.057a.113.113 0 0 1-.11.099.11.11 0 0 1-.11-.092.279.279 0 0 1-.004-.051l-.003-.9v-1.599a.53.53 0 0 0-.534-.537.53.53 0 0 0-.53.54c0 1.467-.004 2.935.001 4.402.002.525.235.934.673 1.222.259.17.549.225.857.223a1.416 1.416 0 0 0 1.413-1.416c0-.773.003-1.547 0-2.321a.987.987 0 0 0-.443-.83c-.278-.199-.564-.386-.846-.579l-.363-.246Zm12.431-3.662c-.03-.087-.07-.164-.081-.247a4.02 4.02 0 0 1-.052-.532c-.006-.569 0-1.138-.003-1.707 0-.102-.008-.205-.023-.306a.93.93 0 0 0-.277-.563c-.189-.176-.421-.236-.67-.24a2.322 2.322 0 0 0-1.07.249c-.375.185-.626.477-.713.893-.024.114-.032.232-.048.354l.067-.013c.251-.057.503-.115.756-.169.06-.013.09-.034.098-.1.033-.256.186-.405.433-.464.037-.01.074-.017.112-.021.236-.03.39.076.428.311.021.13.021.262.034.393.004.041-.01.054-.048.062-.17.037-.341.077-.512.115-.29.064-.57.149-.827.302-.269.161-.484.372-.595.672-.118.32-.11.642.005.958a.839.839 0 0 0 .523.53c.193.068.389.054.585.006.38-.092.681-.287.845-.658.003-.006.01-.011.01-.011l.132.344c.011.03.029.037.06.03.103-.025.206-.048.31-.07l.521-.119v.001Zm-7.402.016.053-.014.69-.155 1.354-.303c.026-.006.047-.009.05-.046.026-.383-.006-.76-.148-1.12-.119-.304-.31-.544-.625-.667a1.283 1.283 0 0 0-.655-.06c-.38.053-.718.195-.998.461a1.939 1.939 0 0 0-.503.833c-.131.407-.161.825-.121 1.249.027.285.09.561.223.818.143.273.35.478.647.576.221.073.447.073.674.03.415-.079.78-.253 1.06-.58.233-.272.358-.594.421-.942.003-.015.004-.029.006-.047l-.058.012c-.253.057-.506.117-.761.169-.071.014-.106.04-.127.114a.657.657 0 0 1-.53.498c-.195.04-.361-.007-.478-.173-.137-.194-.18-.417-.175-.653Zm-4.123 2.597c.013-.001.02 0 .026-.002.269-.06.537-.122.807-.181.038-.009.033-.032.034-.057 0-.31.002-.618.003-.927.001-.423.003-.846.001-1.27 0-.154-.006-.309-.02-.462a1.463 1.463 0 0 0-.166-.586.675.675 0 0 0-.44-.356 1.027 1.027 0 0 0-.772.124c-.24.138-.418.34-.569.569l-.029.044-.01-.005v-.443c-.023.004-.04.005-.056.009-.256.056-.512.113-.768.166-.047.01-.058.03-.058.076v2.97a.983.983 0 0 1 .88.094v-.066c0-.482 0-.965.002-1.447a2.01 2.01 0 0 1 .101-.67c.096-.268.262-.46.553-.518.212-.042.367.04.43.246.031.107.049.221.05.332.004.766.002 1.53.002 2.296v.063Zm14.656-5.863c-.01-.056-.018-.106-.029-.154-.105-.468-.469-.825-.918-.89a1.618 1.618 0 0 0-1.195.287c-.338.239-.54.576-.666.963-.15.46-.175.932-.112 1.41.038.278.109.547.257.79.174.285.42.466.754.521.237.039.47.006.7-.06.328-.092.62-.248.846-.51.213-.248.323-.54.374-.857.012-.074.018-.149.027-.226-.018.002-.025.001-.032.003-.27.06-.54.122-.812.181-.035.008-.036.03-.044.055-.034.105-.059.214-.106.313a.568.568 0 0 1-.448.326.398.398 0 0 1-.43-.19c-.055-.09-.1-.19-.129-.293a2.5 2.5 0 0 1-.08-.82c.013-.252.051-.5.161-.731.089-.188.218-.334.429-.388.252-.066.437.023.538.262.026.062.043.128.067.198l.848-.19Zm-11.64 4.43c-.02.007-.036.013-.053.017-.1.025-.2.059-.302.075-.117.018-.186-.035-.21-.151a.934.934 0 0 1-.018-.191c0-.62.002-1.24.003-1.858v-.052l.627-.141v-.769l-.62.139v-.709l-.874.195V10.063c0 .037-.008.053-.047.062-.15.03-.298.066-.452.101v.768l.49-.108v.072c-.001.642-.004 1.284 0 1.926 0 .104.012.212.036.314.091.379.376.6.75.576.23-.014.446-.097.653-.196.013-.007.022-.034.022-.051 0-.217 0-.434-.002-.651l-.002-.028ZM7.9 9.793l-.052.008c-.266.06-.531.12-.797.177-.049.01-.062.029-.062.078l.001 4.956v.06l.051-.008.797-.179c.048-.01.063-.028.063-.078-.002-1.652-.002-3.303-.002-4.955v-.06.001Zm10.125-1.007-.047.008c-.249.055-.497.112-.746.165-.045.01-.06.025-.06.074v3.758l.06-.012c.252-.057.504-.115.756-.168.05-.011.062-.032.063-.08 0-.431.002-.863.005-1.295.001-.232-.002-.465.042-.695.09-.478.347-.8.831-.92.037-.01.035-.03.035-.057v-.916c0-.014-.002-.029-.004-.046-.216.051-.418.119-.584.267-.168.149-.249.348-.323.551l-.027-.634h-.001Zm-9.942 7.622c-.015.001-.025 0-.035.003-.261.063-.523.123-.783.189a.407.407 0 0 0-.296.49.408.408 0 0 0 .49.305c.194-.044.387-.094.582-.139.034-.007.043-.022.043-.055-.002-.204-.001-.407-.001-.61v-.183Zm0 1.08-.028.003c-.266.064-.533.125-.798.193a.409.409 0 0 0 .201.792c.192-.044.384-.093.576-.137.038-.009.051-.022.05-.061-.002-.133 0-.267 0-.4v-.39h-.001Zm-.003-2.162c-.013.002-.024.002-.033.005-.255.06-.51.12-.764.183a.41.41 0 1 0 .193.796c.187-.045.374-.091.561-.134.036-.008.047-.022.047-.059-.002-.248-.001-.496-.001-.744l-.003-.047Z"/><path fill="#2E2A27" d="m9.624 15.33.362.247c.283.192.569.38.847.579.282.201.44.479.441.83.004.773.002 1.547.002 2.321 0 .782-.632 1.41-1.414 1.415-.308.002-.598-.053-.857-.223-.438-.287-.67-.696-.673-1.22-.004-1.469-.001-2.937-.001-4.404a.53.53 0 0 1 .53-.54.53.53 0 0 1 .534.538c.002.533 0 1.065 0 1.598l.003.9c0 .018 0 .035.004.052a.11.11 0 0 0 .11.091.112.112 0 0 0 .11-.098c.003-.019.002-.038.002-.058v-2.027ZM22.055 11.668l-.522.118-.309.07c-.03.008-.049.001-.06-.03l-.132-.344s-.007.006-.01.012c-.164.37-.464.566-.845.658-.196.048-.392.062-.585-.006a.839.839 0 0 1-.523-.53 1.361 1.361 0 0 1-.005-.958c.11-.3.326-.51.595-.672.256-.154.537-.239.827-.302.17-.038.341-.078.512-.115.037-.008.052-.021.048-.062-.013-.131-.013-.264-.034-.393-.04-.235-.192-.342-.428-.312a1.11 1.11 0 0 0-.112.021c-.247.06-.4.21-.433.465-.009.066-.038.087-.098.1-.253.053-.504.112-.756.169l-.067.012c.016-.122.024-.24.048-.353.087-.417.338-.709.714-.894a2.317 2.317 0 0 1 1.069-.248c.249.003.481.064.67.24a.93.93 0 0 1 .277.563c.015.1.023.203.023.305.002.57-.003 1.138.003 1.708.003.177.026.356.052.532.012.082.052.16.081.247Zm-1.02-1.486c-.018.002-.03.002-.041.005-.175.05-.352.096-.523.155-.15.052-.288.127-.41.232a.488.488 0 0 0-.174.465c.028.19.146.318.31.322a.721.721 0 0 0 .578-.239c.243-.267.246-.604.26-.94ZM14.653 11.684c-.004.236.038.459.175.653.117.166.283.214.477.174a.657.657 0 0 0 .53-.499c.021-.073.056-.1.128-.114.254-.052.507-.112.76-.169l.059-.012c-.003.019-.003.033-.006.047-.064.349-.188.67-.421.943-.28.327-.645.5-1.06.58a1.326 1.326 0 0 1-.674-.03c-.298-.1-.504-.304-.647-.577a2.184 2.184 0 0 1-.223-.818c-.041-.424-.01-.841.12-1.249.102-.317.26-.601.503-.832.28-.267.62-.409.998-.462.224-.03.444-.022.656.06.314.123.506.363.625.667.142.36.173.737.148 1.12-.003.038-.025.04-.05.046l-1.355.304a1394.799 1394.799 0 0 0-.742.168h-.001Zm1.271-.96a.863.863 0 0 0-.136-.485.378.378 0 0 0-.3-.172.7.7 0 0 0-.533.192c-.15.137-.22.317-.26.51-.016.076-.024.153-.037.24l1.266-.285ZM10.53 14.28v-.063c0-.765.002-1.53-.002-2.295 0-.111-.018-.226-.05-.332-.063-.206-.217-.288-.429-.246-.291.057-.458.25-.553.517a2.01 2.01 0 0 0-.102.67c-.002.482 0 .965 0 1.447v.066a.983.983 0 0 0-.88-.094v-.06l-.001-2.91c0-.046.01-.066.058-.075.256-.054.511-.111.767-.167l.056-.008v.443l.01.004.03-.044c.15-.229.33-.43.569-.57.24-.138.498-.187.771-.122a.675.675 0 0 1 .44.355c.102.183.149.382.167.587.014.153.02.308.02.462.002.423 0 .846-.001 1.27 0 .309-.002.617-.004.926 0 .026.005.05-.034.057-.269.059-.538.12-.807.181-.006.002-.013.001-.025.002ZM25.186 8.418l-.849.19c-.023-.07-.04-.136-.066-.198-.102-.24-.287-.328-.54-.262-.21.054-.339.2-.428.388a1.89 1.89 0 0 0-.16.732c-.013.277.002.552.08.82.029.101.073.202.13.292a.398.398 0 0 0 .428.19.567.567 0 0 0 .448-.326c.047-.099.073-.208.107-.313.008-.025.009-.047.044-.055.27-.058.54-.12.812-.181l.031-.003c-.009.077-.014.152-.026.226-.052.318-.162.61-.374.856-.227.263-.519.419-.848.512-.229.065-.461.098-.699.06a1.054 1.054 0 0 1-.753-.522 1.99 1.99 0 0 1-.257-.79 3.147 3.147 0 0 1 .111-1.41c.126-.387.328-.724.667-.963.358-.252.76-.348 1.194-.286.45.064.813.421.919.889.01.048.017.098.028.154ZM13.547 12.848l.002.028c.002.217.003.434.002.65 0 .018-.009.045-.022.052-.207.1-.422.182-.654.197-.373.022-.658-.198-.749-.577a1.382 1.382 0 0 1-.037-.314c-.002-.642 0-1.284 0-1.926v-.072l-.489.108v-.768c.154-.035.302-.07.452-.101.04-.008.048-.025.048-.062-.002-.2-.001-.4-.001-.599v-.06l.875-.196v.709l.62-.139v.769l-.628.141v.052l-.003 1.858c0 .063.004.129.018.19.024.117.093.17.21.152.102-.016.202-.05.302-.075l.054-.017ZM7.899 9.793v.06l.001 4.955c0 .05-.014.068-.063.078-.266.057-.53.119-.796.178-.015.004-.03.005-.052.008v-5.015c0-.05.012-.068.061-.078.266-.057.532-.118.797-.178l.052-.007v-.001ZM18.024 8.786l.028.634c.073-.203.154-.402.322-.551.166-.148.369-.216.585-.267.001.017.004.032.004.046v.916c0 .027 0 .048-.036.057-.483.12-.742.442-.831.92-.043.23-.04.462-.042.695-.003.432-.005.864-.005 1.296 0 .047-.012.068-.062.079-.253.053-.504.111-.757.168l-.059.012v-.057l-.001-3.701c0-.049.015-.064.06-.074.249-.053.498-.11.746-.165l.047-.008ZM8.082 16.408V17.2c0 .033-.008.048-.042.055-.194.045-.388.095-.582.14a.409.409 0 0 1-.49-.305.407.407 0 0 1 .296-.491c.26-.066.522-.126.783-.189.01-.003.02-.002.035-.003ZM8.082 17.488v.39c0 .133-.002.266.001.4 0 .04-.012.052-.05.06-.192.045-.384.094-.577.138a.409.409 0 0 1-.2-.792c.264-.068.531-.129.798-.193l.028-.003ZM8.08 15.326l.002.047v.745c0 .037-.01.05-.046.058-.187.043-.374.09-.561.134a.41.41 0 1 1-.193-.796c.254-.062.51-.122.764-.183.01-.003.02-.003.033-.005Z"/><path fill="#FDB82B" d="M21.036 10.181c-.015.337-.018.674-.262.942a.723.723 0 0 1-.577.238c-.164-.004-.282-.133-.31-.322a.488.488 0 0 1 .175-.464c.12-.105.26-.18.409-.233.171-.059.348-.104.523-.155.01-.003.023-.003.042-.005ZM15.924 10.724l-1.266.284c.013-.086.02-.163.037-.239.04-.193.11-.373.26-.51a.699.699 0 0 1 .532-.192.379.379 0 0 1 .3.172c.101.145.133.31.137.485Z"/></svg>