<svg xmlns="http://www.w3.org/2000/svg" width="32" height="24" fill="none" viewBox="0 0 32 24">
    <rect width="32" height="24" fill="#fff" rx="4"/>
    <rect width="31" height="23" x=".5" y=".5" fill="#fff" stroke="#ccc" rx="3.5"/>
    <path fill="#fdb82b" d="M23.01 2H8.99A2.99 2.99 0 0 0 6 4.99v14.02A2.99 2.99 0 0 0 8.99 22h14.02A2.99 2.99 0 0 0 26 19.01V4.99A2.99 2.99 0 0 0 23.01 2"/>
    <path fill="#fdb82b" d="M9.624 15.33v2.028q0 .029-.002.057a.113.113 0 0 1-.11.099.11.11 0 0 1-.11-.092.3.3 0 0 1-.004-.051l-.003-.9v-1.599a.53.53 0 0 0-.534-.537.53.53 0 0 0-.53.54c0 1.467-.003 2.935.001 4.402.002.525.235.934.673 1.222.26.17.549.225.857.223a1.416 1.416 0 0 0 1.413-1.416c0-.773.003-1.547 0-2.321a.99.99 0 0 0-.443-.83c-.278-.199-.564-.386-.846-.579zm12.431-3.662c-.03-.087-.07-.164-.081-.247a4 4 0 0 1-.051-.532c-.007-.569-.002-1.138-.004-1.707q0-.154-.023-.306a.93.93 0 0 0-.277-.563c-.189-.176-.421-.236-.67-.24a2.3 2.3 0 0 0-1.07.249c-.375.185-.625.477-.713.893-.024.114-.032.232-.048.354l.067-.013q.377-.087.756-.169c.06-.013.09-.034.098-.1.033-.256.186-.405.433-.464q.055-.015.112-.021c.236-.03.39.076.428.311.021.13.021.262.034.393.005.041-.01.054-.047.062q-.257.057-.513.115c-.29.064-.57.149-.827.302-.269.161-.484.372-.595.672-.118.32-.11.642.005.958a.84.84 0 0 0 .523.53c.193.068.389.054.585.006.381-.092.681-.287.845-.658.003-.006.01-.011.01-.011l.132.344c.011.03.03.037.06.03q.154-.037.31-.07zm-7.402.016.053-.014.69-.155 1.354-.303c.026-.006.048-.009.05-.046.026-.383-.006-.76-.147-1.12-.12-.304-.312-.544-.625-.667a1.3 1.3 0 0 0-.656-.06c-.38.053-.718.195-.998.461a1.94 1.94 0 0 0-.503.833c-.131.407-.161.825-.12 1.249.026.285.088.561.222.818.144.273.35.478.647.576.222.073.447.073.674.03.415-.079.78-.253 1.06-.58.233-.272.358-.594.421-.942q.004-.021.006-.047l-.058.012c-.253.057-.506.117-.761.169-.071.014-.106.04-.127.114a.66.66 0 0 1-.53.498c-.195.04-.36-.007-.478-.173-.136-.194-.179-.417-.175-.653zm-4.123 2.597q.018 0 .026-.002.404-.091.807-.181c.038-.009.033-.032.034-.057q.002-.464.003-.927.003-.634.001-1.27 0-.232-.02-.462a1.5 1.5 0 0 0-.166-.586.68.68 0 0 0-.44-.356 1.03 1.03 0 0 0-.772.124 1.7 1.7 0 0 0-.568.569l-.03.044-.01-.005v-.443q-.033.005-.056.009-.383.085-.768.166c-.047.01-.058.03-.058.076l.001 2.91v.06a.98.98 0 0 1 .88.094v-1.513a2 2 0 0 1 .103-.67c.095-.268.261-.46.553-.518.211-.042.366.04.428.246.033.107.05.221.05.332.005.766.003 1.53.003 2.296zm14.656-5.863q-.014-.083-.029-.154c-.105-.468-.469-.825-.918-.89a1.62 1.62 0 0 0-1.195.287c-.338.239-.54.576-.666.963-.15.46-.175.932-.111 1.41.037.278.108.547.256.79.174.285.421.466.754.521.237.039.47.006.7-.06.328-.092.62-.248.846-.51.213-.248.323-.54.374-.857.012-.074.018-.149.027-.226-.018.002-.025.001-.032.003q-.405.091-.812.181c-.035.008-.036.03-.043.055-.034.105-.06.214-.107.313a.57.57 0 0 1-.448.326.4.4 0 0 1-.429-.19q-.084-.137-.13-.293a2.5 2.5 0 0 1-.08-.82c.013-.252.052-.5.161-.731.089-.188.218-.334.429-.388.252-.066.437.023.538.262.027.062.044.128.067.198zm-11.64 4.43q-.029.01-.053.017c-.1.025-.2.059-.302.075-.117.018-.186-.035-.21-.151a1 1 0 0 1-.018-.191q0-.93.003-1.858v-.052l.627-.141v-.769l-.62.139v-.709l-.874.195v.66c0 .037-.008.053-.047.062q-.223.047-.451.101v.768l.489-.108v.072c0 .642-.003 1.284 0 1.926 0 .104.012.212.036.314.091.379.376.6.75.576.23-.014.446-.097.653-.196.013-.007.022-.034.022-.051q.001-.325-.002-.651zM7.9 9.793l-.052.008q-.398.09-.797.177c-.049.01-.062.029-.062.078q.002 2.478.001 4.956v.06l.052-.008.796-.179c.048-.01.063-.028.063-.078q-.003-2.477-.002-4.955zm10.125-1.007-.047.008q-.372.084-.746.165c-.045.01-.06.025-.06.074l.001 3.7v.058l.059-.012q.378-.087.756-.168c.05-.011.062-.032.063-.08q0-.647.005-1.295c.001-.232-.001-.465.042-.695.09-.478.348-.8.831-.92.037-.01.035-.03.035-.057v-.916l-.003-.046c-.216.051-.42.119-.585.267-.168.149-.248.348-.323.551zm-9.942 7.622q-.02 0-.035.003c-.261.063-.522.123-.783.189a.407.407 0 0 0-.296.49.41.41 0 0 0 .49.305c.194-.044.387-.094.582-.139.034-.007.043-.022.043-.055q-.002-.306 0-.61zm0 1.08-.028.003c-.266.064-.533.125-.798.193a.409.409 0 0 0 .201.792c.192-.044.384-.093.577-.137.037-.009.05-.022.05-.061q-.003-.2-.002-.4zm-.002-2.162q-.02.002-.034.005-.383.09-.764.183a.41.41 0 1 0 .193.796q.28-.069.561-.134c.036-.008.047-.022.047-.059q-.002-.372-.001-.744z"/>
    <path fill="#2e2a27" d="M9.624 15.33c.128.088.245.168.363.247.282.192.568.38.846.579.282.201.44.479.442.83.004.773 0 1.547 0 2.321 0 .782-.63 1.41-1.413 1.415-.308.002-.598-.053-.857-.223-.438-.287-.67-.696-.672-1.22-.005-1.469-.002-2.937-.002-4.404a.53.53 0 0 1 .53-.54.53.53 0 0 1 .534.538q.002.799 0 1.598l.003.9q-.001.027.004.052a.11.11 0 0 0 .11.091.11.11 0 0 0 .11-.098q.003-.028.002-.058v-2.027M22.055 11.668l-.521.118-.31.07c-.03.008-.049.001-.06-.03l-.132-.344s-.007.006-.01.012c-.164.37-.464.566-.845.658-.196.048-.392.062-.585-.006a.84.84 0 0 1-.523-.53 1.36 1.36 0 0 1-.005-.958c.11-.3.326-.51.595-.672.256-.154.538-.239.827-.302q.255-.058.512-.115c.037-.008.052-.021.048-.062-.013-.131-.013-.264-.034-.393-.039-.235-.192-.342-.428-.312a1 1 0 0 0-.112.021c-.247.06-.4.21-.433.465-.008.066-.037.087-.098.1q-.378.082-.756.169l-.067.012c.016-.122.024-.24.048-.353.088-.417.338-.709.714-.894a2.3 2.3 0 0 1 1.069-.248c.249.003.481.064.67.24a.93.93 0 0 1 .277.563q.023.151.023.305c.002.57-.003 1.138.004 1.708.002.177.026.356.05.532.013.082.053.16.082.247m-1.02-1.486q-.026.002-.041.005c-.175.05-.351.096-.523.155q-.226.076-.409.232a.49.49 0 0 0-.174.465c.027.19.145.318.31.322a.72.72 0 0 0 .577-.239c.243-.267.246-.604.26-.94M14.653 11.684c-.004.236.038.459.175.653.117.166.283.214.477.174a.66.66 0 0 0 .53-.499c.022-.073.057-.1.128-.114.254-.052.507-.112.761-.169l.058-.012q-.002.027-.006.047c-.064.349-.188.67-.42.943-.28.327-.646.5-1.062.58a1.3 1.3 0 0 1-.673-.03c-.298-.1-.504-.304-.647-.577a2.2 2.2 0 0 1-.223-.818c-.04-.424-.01-.841.12-1.249a1.94 1.94 0 0 1 .504-.832c.28-.267.618-.409.998-.462.223-.03.443-.022.655.06.314.123.506.363.625.667.142.36.173.737.148 1.12-.003.038-.025.04-.05.046l-1.355.304-.69.155zm1.271-.96a.86.86 0 0 0-.136-.485.38.38 0 0 0-.3-.172.7.7 0 0 0-.533.192c-.15.137-.22.317-.26.51-.016.076-.024.153-.037.24zM10.53 14.28v-.063c0-.765.002-1.53-.002-2.295 0-.111-.018-.226-.05-.332-.063-.206-.217-.288-.429-.246-.291.057-.458.25-.553.517a2 2 0 0 0-.102.67q-.002.723 0 1.447v.066a.98.98 0 0 0-.88-.094v-.06l-.001-2.91c0-.046.01-.066.058-.075q.384-.082.767-.167l.056-.008v.443l.01.004.03-.044c.15-.229.33-.43.569-.57.24-.138.498-.187.771-.122a.68.68 0 0 1 .44.355c.102.183.149.382.167.587q.02.23.02.462.002.634-.001 1.27 0 .463-.004.926c0 .026.005.05-.034.057q-.404.089-.807.181-.008.002-.025.002M25.186 8.418l-.849.19c-.023-.07-.04-.136-.066-.198-.102-.24-.287-.328-.54-.262-.21.054-.338.2-.428.388-.11.23-.148.479-.16.732-.013.277.002.552.08.82.029.101.073.202.13.292a.4.4 0 0 0 .428.19.57.57 0 0 0 .448-.326c.047-.099.073-.208.107-.313.008-.025.009-.047.044-.055q.405-.088.812-.181l.031-.003c-.009.077-.014.152-.026.226-.051.318-.162.61-.374.856-.227.263-.519.419-.847.512-.23.065-.462.098-.7.06a1.05 1.05 0 0 1-.753-.522 2 2 0 0 1-.257-.79 3.15 3.15 0 0 1 .111-1.41c.126-.387.329-.724.667-.963.358-.252.76-.348 1.194-.286.45.064.813.421.919.889q.014.071.028.154M13.547 12.848l.002.028q.003.326.002.65c0 .018-.009.045-.022.052-.207.1-.422.182-.653.197-.374.022-.659-.198-.75-.577a1.4 1.4 0 0 1-.037-.314q-.002-.963 0-1.926v-.072l-.489.108v-.768c.154-.035.302-.07.452-.101.04-.008.048-.025.048-.062q-.002-.3-.001-.599v-.06l.875-.196v.709l.62-.139v.769l-.628.141v.052l-.003 1.858c0 .063.005.129.018.19q.035.177.21.152c.102-.016.202-.05.302-.075zM7.899 9.793v.06l.001 4.955c0 .05-.014.068-.062.078q-.4.088-.797.178-.021.005-.051.008v-.06l-.001-4.955c0-.05.013-.068.061-.078q.399-.087.798-.178.02-.004.051-.007zM18.024 8.786l.028.634c.073-.203.154-.402.322-.551.166-.148.369-.216.585-.267q.003.025.004.046v.916c0 .027 0 .048-.036.057-.483.12-.741.442-.83.92-.044.23-.04.462-.043.695q-.004.648-.005 1.296c0 .047-.012.068-.062.079q-.378.081-.757.168l-.059.012v-.057l-.001-3.701c0-.049.015-.064.06-.074q.373-.081.747-.165c.011-.003.023-.004.046-.008M8.082 16.408v.793c0 .033-.008.048-.042.055-.194.045-.387.095-.582.14a.41.41 0 0 1-.49-.305.407.407 0 0 1 .296-.491c.26-.066.522-.126.783-.189q.014-.003.035-.003M8.082 17.488v.39q-.002.2.001.4c0 .04-.012.052-.05.06-.192.045-.384.094-.576.138a.409.409 0 0 1-.202-.792c.266-.068.532-.129.799-.193zM8.08 15.326l.002.047v.745c0 .037-.01.05-.046.058q-.28.066-.561.134a.41.41 0 1 1-.193-.796l.764-.183q.014-.003.034-.005"/>
    <path fill="#fdb82b" d="M21.036 10.182c-.015.336-.018.673-.261.94a.72.72 0 0 1-.577.24c-.165-.005-.283-.134-.31-.323a.49.49 0 0 1 .174-.464c.12-.105.26-.18.409-.233.172-.059.348-.104.523-.155q.014-.003.042-.005M15.924 10.724l-1.266.284c.013-.086.02-.163.037-.239.04-.193.11-.373.26-.51a.7.7 0 0 1 .532-.192.38.38 0 0 1 .3.172c.101.145.133.31.137.485"/>
</svg>
