<svg width="32" height="24" viewBox="0 0 32 24" fill="none" xmlns="http://www.w3.org/2000/svg">
<rect x="0.5" y="0.5" width="31" height="23" rx="3.5" fill="white" stroke="#CCCCCC"/>
<path d="M23.0105 2H8.98951C7.33845 2 6 3.33845 6 4.98951V19.0105C6 20.6615 7.33845 22 8.98951 22H23.0105C24.6615 22 26 20.6615 26 19.0105V4.98951C26 3.33845 24.6615 2 23.0105 2Z" fill="#FDB82B"/>
<path d="M9.62377 15.3308V15.4059C9.62377 16.0565 9.62377 16.7071 9.62377 17.3577C9.62377 17.3768 9.62448 17.3959 9.622 17.415C9.61457 17.4716 9.56751 17.513 9.51197 17.5137C9.45749 17.5144 9.41256 17.4776 9.40159 17.4224C9.3984 17.4055 9.3977 17.3881 9.3977 17.3708C9.39664 17.0708 9.39557 16.7704 9.39522 16.4704C9.39487 15.9376 9.39628 15.4051 9.39451 14.8723C9.39345 14.5691 9.15818 14.3342 8.86135 14.3349C8.56346 14.3356 8.33067 14.5716 8.33067 14.8741C8.33067 16.342 8.32749 17.8098 8.33209 19.2774C8.33386 19.802 8.56665 20.211 9.00464 20.4986C9.26396 20.6688 9.55372 20.7236 9.86187 20.7215C10.6444 20.7162 11.2753 20.0889 11.2753 19.3064C11.2753 18.5326 11.2777 17.7589 11.2742 16.9848C11.2724 16.6338 11.1146 16.3565 10.8323 16.1548C10.5542 15.9563 10.2684 15.7688 9.98605 15.5764C9.86894 15.4968 9.75148 15.4172 9.62341 15.3301L9.62377 15.3308ZM22.0552 11.6681C22.0255 11.5814 21.9855 11.5036 21.9738 11.4211C21.9483 11.2449 21.9243 11.0666 21.9225 10.889C21.9161 10.3201 21.9211 9.7509 21.919 9.18165C21.9186 9.07976 21.9115 8.97681 21.896 8.87598C21.8631 8.66017 21.7828 8.46523 21.619 8.31275C21.43 8.13727 21.1976 8.07677 20.9489 8.07288C20.5728 8.06722 20.2158 8.15638 19.8797 8.32159C19.5037 8.50663 19.2535 8.7985 19.1658 9.21491C19.1417 9.32883 19.1339 9.44664 19.118 9.5687C19.1506 9.56268 19.1679 9.55985 19.1845 9.55596C19.4364 9.49936 19.688 9.44063 19.9409 9.3872C20.0014 9.37447 20.0304 9.35289 20.0389 9.28708C20.0722 9.03129 20.2247 8.88164 20.4716 8.82256C20.5088 8.81371 20.5463 8.80628 20.5841 8.80169C20.8201 8.77126 20.9733 8.8781 21.0119 9.11302C21.0331 9.24251 21.0331 9.37518 21.0462 9.50608C21.0504 9.54712 21.0352 9.56021 20.9984 9.56799C20.8272 9.60514 20.657 9.64512 20.4858 9.68297C20.1967 9.74665 19.9151 9.83156 19.659 9.98511C19.3901 10.1464 19.1746 10.3569 19.0635 10.6573C18.9457 10.9761 18.9535 11.2987 19.0685 11.615C19.1605 11.8683 19.3328 12.0534 19.5921 12.145C19.7853 12.2133 19.9806 12.1988 20.1766 12.1514C20.5579 12.059 20.858 11.8644 21.0218 11.4933C21.0246 11.4869 21.0317 11.482 21.032 11.4816C21.0762 11.597 21.1205 11.7112 21.164 11.8262C21.1753 11.8563 21.193 11.863 21.2241 11.8556C21.3267 11.8308 21.4304 11.8082 21.5333 11.7852C21.7088 11.7456 21.8843 11.7059 22.0552 11.6674V11.6681ZM14.6529 11.684C14.6727 11.679 14.689 11.6741 14.7056 11.6702C14.9355 11.6185 15.1655 11.5665 15.3955 11.5152C15.8469 11.4141 16.2987 11.3129 16.7501 11.2117C16.7759 11.206 16.7975 11.2032 16.8 11.1661C16.8255 10.7825 16.794 10.4065 16.6525 10.046C16.5333 9.74205 16.3411 9.50219 16.0273 9.37942C15.8151 9.29664 15.5954 9.28779 15.3718 9.31892C14.9925 9.37199 14.6536 9.51386 14.3737 9.78026C14.1307 10.0116 13.9722 10.2957 13.8706 10.6127C13.7397 11.0203 13.7097 11.4378 13.75 11.862C13.7772 12.1471 13.8392 12.4234 13.9732 12.6796C14.1165 12.9527 14.3221 13.1575 14.6203 13.2562C14.8414 13.3295 15.0672 13.3288 15.2936 13.286C15.7093 13.2074 16.074 13.0333 16.3542 12.7068C16.5874 12.4344 16.7119 12.1124 16.7752 11.7636C16.7777 11.7494 16.7788 11.7353 16.7809 11.7169C16.7568 11.7219 16.7402 11.7254 16.7232 11.7289C16.4696 11.7859 16.2166 11.8457 15.9619 11.8977C15.8908 11.9122 15.8557 11.9387 15.8349 12.012C15.7585 12.2819 15.583 12.4528 15.3045 12.5104C15.11 12.5508 14.944 12.503 14.8273 12.3371C14.6904 12.1425 14.6479 11.92 14.6522 11.6836L14.6529 11.684ZM10.5302 14.2808C10.5426 14.2797 10.5493 14.2801 10.5556 14.2787C10.8245 14.2182 11.0934 14.157 11.3626 14.0979C11.4008 14.0894 11.3962 14.0661 11.3966 14.0406C11.3977 13.7317 11.3994 13.4229 11.4001 13.1144C11.4012 12.6909 11.4033 12.2677 11.4012 11.8443C11.4005 11.69 11.3952 11.5354 11.3814 11.3822C11.363 11.177 11.3156 10.9782 11.2148 10.796C11.1164 10.6184 10.9763 10.4885 10.7746 10.4404C10.5015 10.3757 10.2436 10.4249 10.003 10.5636C9.76351 10.7019 9.58485 10.9039 9.43449 11.1328C9.42494 11.1477 9.41503 11.1625 9.40513 11.177C9.40159 11.1756 9.39805 11.1738 9.39416 11.1724V10.7291C9.37222 10.7327 9.35524 10.7344 9.33861 10.738C9.08283 10.7939 8.82739 10.8508 8.57125 10.9042C8.52384 10.9142 8.51287 10.9336 8.51287 10.98C8.51429 11.95 8.51393 12.9198 8.51393 13.8899C8.51393 13.9083 8.51393 13.9263 8.51393 13.9497C8.82527 13.8418 9.11467 13.8732 9.39381 14.0441V13.978C9.39381 13.4957 9.39239 13.0132 9.39451 12.531C9.39557 12.3028 9.41928 12.0771 9.4964 11.8602C9.59157 11.5931 9.75785 11.401 10.0494 11.3433C10.2613 11.3012 10.4155 11.3833 10.4782 11.5895C10.5104 11.6957 10.5277 11.8103 10.5284 11.9214C10.5326 12.6866 10.5305 13.4519 10.5305 14.2168C10.5305 14.2373 10.5305 14.2575 10.5305 14.2804L10.5302 14.2808ZM25.1855 8.41782C25.1752 8.36193 25.1682 8.3124 25.1572 8.26357C25.0518 7.79622 24.6881 7.43854 24.2388 7.3745C23.805 7.31294 23.4031 7.40882 23.0444 7.66143C22.7058 7.89988 22.5038 8.23739 22.3778 8.62408C22.2278 9.08436 22.2027 9.55596 22.2664 10.0332C22.3035 10.3117 22.3746 10.5809 22.5232 10.8239C22.6973 11.1087 22.9439 11.2902 23.2768 11.3451C23.5142 11.384 23.747 11.3507 23.9762 11.2856C24.3053 11.1926 24.5971 11.0373 24.8232 10.7744C25.0358 10.5275 25.1462 10.2356 25.1972 9.91824C25.2092 9.8443 25.2149 9.7693 25.2237 9.69182C25.206 9.69359 25.1989 9.69323 25.1922 9.695C24.9216 9.75585 24.6513 9.81741 24.3803 9.87649C24.3452 9.88392 24.3442 9.90621 24.3364 9.93062C24.3024 10.0357 24.277 10.1454 24.2299 10.2444C24.1411 10.4312 23.9858 10.5367 23.7817 10.5696C23.5977 10.5993 23.4502 10.5349 23.3529 10.3803C23.2966 10.2908 23.2524 10.1892 23.223 10.0874C23.1456 9.82024 23.1307 9.54464 23.1438 9.26762C23.1558 9.01467 23.1944 8.76701 23.304 8.53564C23.3928 8.34813 23.522 8.20201 23.7325 8.14753C23.9851 8.08208 24.1698 8.17123 24.2713 8.4104C24.2975 8.47195 24.3145 8.53776 24.3378 8.60781C24.6173 8.54519 24.8972 8.48257 25.1862 8.41782H25.1855ZM13.5466 12.848C13.5257 12.8547 13.5098 12.8607 13.4931 12.8646C13.3927 12.8904 13.2933 12.924 13.191 12.9396C13.0739 12.9576 13.0049 12.9049 12.9805 12.7889C12.9674 12.7266 12.9628 12.6615 12.9628 12.5978C12.9628 11.9783 12.9646 11.3589 12.9657 10.7397C12.9657 10.7228 12.9657 10.7061 12.9657 10.6881C13.1772 10.6403 13.3828 10.594 13.5933 10.5466V9.77814C13.3874 9.82413 13.1836 9.86977 12.9738 9.91683V9.20819C12.6791 9.27399 12.3904 9.33803 12.0989 9.40313C12.0989 9.42648 12.0989 9.44523 12.0989 9.46398C12.0989 9.66351 12.0982 9.86305 12.0996 10.0626C12.0996 10.0997 12.0911 10.1164 12.0515 10.1249C11.9022 10.1556 11.7539 10.1914 11.6004 10.2264V10.9941C11.7628 10.958 11.9234 10.9226 12.0897 10.8859C12.0897 10.9166 12.0897 10.9372 12.0897 10.9577C12.089 11.5998 12.0865 12.2416 12.0893 12.8837C12.0897 12.9884 12.1017 13.096 12.1261 13.1979C12.217 13.5768 12.5018 13.7975 12.8754 13.7745C13.1068 13.7604 13.3216 13.6772 13.5289 13.5775C13.5416 13.5711 13.5512 13.5442 13.5512 13.5265C13.5519 13.3097 13.5505 13.0928 13.5494 12.8759C13.5494 12.8692 13.548 12.8621 13.5466 12.848ZM7.8987 9.793C7.87711 9.79618 7.8619 9.7976 7.84704 9.80078C7.58135 9.86022 7.31601 9.92107 7.04996 9.97803C7.00114 9.98829 6.98805 10.0067 6.98805 10.0562C6.98946 11.7081 6.98911 13.3599 6.98911 15.0117V15.0715C7.01033 15.0683 7.02555 15.0673 7.04041 15.0637C7.3061 15.0039 7.57109 14.9431 7.83714 14.8854C7.88525 14.8752 7.89976 14.8571 7.89976 14.8072C7.89834 13.1554 7.89834 11.5036 7.89834 9.85173V9.79229L7.8987 9.793ZM18.0238 8.78612C18.0004 8.79001 17.9887 8.79107 17.9771 8.79355C17.7283 8.84909 17.48 8.9057 17.2306 8.95912C17.1856 8.96867 17.1701 8.98389 17.1704 9.03271C17.1722 10.2664 17.1718 11.5 17.1718 12.7337V12.7906C17.1948 12.786 17.2132 12.7829 17.2309 12.779C17.4828 12.7224 17.7347 12.664 17.9873 12.6106C18.0372 12.6 18.0492 12.5791 18.0496 12.5317C18.0496 12.0997 18.0521 11.6677 18.0549 11.2357C18.0563 11.0037 18.0535 10.7712 18.0966 10.5409C18.1861 10.0633 18.4444 9.74064 18.928 9.6207C18.9645 9.61151 18.9634 9.59099 18.9634 9.5641C18.9634 9.25878 18.9634 8.95346 18.9634 8.64814C18.9634 8.63364 18.9609 8.61913 18.9595 8.6018C18.7434 8.65309 18.5406 8.72067 18.3747 8.86855C18.2074 9.0175 18.1264 9.21703 18.0524 9.42046C18.0432 9.21173 18.034 9.00299 18.0245 8.78612H18.0238ZM8.08196 16.4078C8.06745 16.4092 8.05684 16.4088 8.04729 16.411C7.78584 16.4736 7.52439 16.5344 7.26365 16.5999C7.04642 16.6544 6.91729 16.8734 6.96823 17.0906C7.01989 17.3089 7.2364 17.4454 7.45788 17.3952C7.65211 17.351 7.84527 17.3014 8.03986 17.2565C8.07418 17.2487 8.08302 17.2339 8.08267 17.2006C8.08125 16.9975 8.08196 16.7945 8.08196 16.5917C8.08196 16.5312 8.08196 16.4708 8.08196 16.4078ZM8.08196 17.4875C8.06745 17.4893 8.06038 17.4897 8.05401 17.4911C7.78761 17.5551 7.52085 17.616 7.25551 17.6842C7.04041 17.7394 6.91481 17.9637 6.97036 18.1803C7.02484 18.3929 7.241 18.5256 7.45681 18.476C7.64928 18.4318 7.84103 18.3826 8.03349 18.3388C8.07064 18.3303 8.08408 18.3172 8.08337 18.2779C8.08054 18.1445 8.08231 18.0108 8.08231 17.8771V17.4875H8.08196ZM8.07948 15.3259C8.06568 15.3277 8.05542 15.3284 8.04552 15.3305C7.79114 15.3913 7.53642 15.4518 7.28204 15.5138C7.04925 15.5704 6.91481 15.7844 6.96859 16.0105C7.0213 16.2337 7.24242 16.3646 7.47486 16.3094C7.66201 16.2652 7.84881 16.2189 8.03632 16.1757C8.0717 16.1676 8.08302 16.1541 8.08267 16.1173C8.0809 15.8693 8.0816 15.6213 8.0816 15.3729C8.0816 15.3577 8.08019 15.3429 8.07948 15.3255V15.3259Z" fill="#FDB82B"/>
<path d="M9.62377 15.3308C9.75184 15.4179 9.86929 15.4975 9.9864 15.5771C10.2687 15.7692 10.5546 15.9571 10.8327 16.1555C11.115 16.3572 11.2728 16.6346 11.2745 16.9855C11.2784 17.7593 11.2756 18.533 11.2756 19.3071C11.2756 20.0893 10.6444 20.7169 9.86222 20.7222C9.55407 20.7244 9.26396 20.6692 9.00499 20.4993C8.56665 20.2117 8.33421 19.8027 8.33244 19.2781C8.32784 17.8102 8.33067 16.3423 8.33102 14.8748C8.33102 14.5723 8.56417 14.3364 8.86171 14.3356C9.15853 14.3349 9.3938 14.5699 9.39486 14.873C9.39663 15.4059 9.39486 15.9383 9.39557 16.4711C9.39557 16.7711 9.39699 17.0715 9.39805 17.3715C9.39805 17.3888 9.3984 17.4062 9.40194 17.4232C9.41291 17.4783 9.45784 17.5151 9.51232 17.5144C9.56787 17.5137 9.61492 17.4727 9.62235 17.4157C9.62483 17.397 9.62412 17.3775 9.62412 17.3584C9.62412 16.7078 9.62412 16.0572 9.62412 15.4066V15.3316L9.62377 15.3308Z" fill="#2E2A27"/>
<path d="M22.0552 11.6681C21.8843 11.7066 21.7088 11.7463 21.5333 11.7859C21.43 11.8092 21.3267 11.8315 21.2241 11.8563C21.1933 11.8637 21.1753 11.8574 21.164 11.8269C21.1208 11.7119 21.0762 11.5973 21.032 11.4823C21.0317 11.4827 21.0246 11.4876 21.0218 11.494C20.858 11.8648 20.5579 12.0597 20.1766 12.1521C19.9806 12.1995 19.7853 12.214 19.5921 12.1457C19.3328 12.0541 19.1605 11.869 19.0685 11.6157C18.9539 11.2994 18.9461 10.9768 19.0635 10.658C19.1743 10.3576 19.3901 10.1471 19.659 9.98581C19.9151 9.83227 20.1964 9.74736 20.4858 9.68368C20.6567 9.64582 20.8272 9.60584 20.9984 9.5687C21.0352 9.56056 21.0501 9.54782 21.0462 9.50678C21.0331 9.37588 21.0331 9.24286 21.0119 9.11373C20.9729 8.87881 20.8201 8.77197 20.5841 8.80239C20.5463 8.80734 20.5088 8.81442 20.4716 8.82326C20.2247 8.88235 20.0722 9.03235 20.0389 9.28779C20.0304 9.35359 20.0014 9.37517 19.9409 9.38791C19.6883 9.44133 19.4368 9.50006 19.1845 9.55667C19.1676 9.56056 19.1506 9.56304 19.118 9.5694C19.1339 9.44699 19.1417 9.32954 19.1658 9.21562C19.2535 8.79921 19.5037 8.50733 19.8797 8.3223C20.2158 8.15673 20.5728 8.06793 20.9489 8.07359C21.1976 8.07748 21.43 8.13762 21.619 8.31346C21.7828 8.46594 21.8631 8.66088 21.896 8.87669C21.9112 8.97752 21.9186 9.08047 21.919 9.18236C21.9211 9.7516 21.9161 10.3205 21.9225 10.8897C21.9246 11.0673 21.9483 11.2457 21.9738 11.4218C21.9858 11.5039 22.0258 11.5821 22.0552 11.6688L22.0552 11.6681ZM21.0356 10.1815C21.0172 10.1836 21.0048 10.1836 20.9935 10.1868C20.819 10.2377 20.6425 10.283 20.4709 10.3421C20.3216 10.3937 20.1826 10.4694 20.0619 10.5745C19.9204 10.698 19.8603 10.8508 19.8875 11.0387C19.9148 11.2283 20.0326 11.3567 20.1974 11.361C20.4242 11.3674 20.622 11.2902 20.7745 11.1222C21.0179 10.8547 21.0211 10.5176 21.0356 10.1811V10.1815Z" fill="#2E2A27"/>
<path d="M14.6529 11.684C14.6486 11.9203 14.6911 12.1429 14.828 12.3374C14.9447 12.5034 15.1107 12.5511 15.3052 12.5108C15.584 12.4531 15.7595 12.2819 15.8356 12.0123C15.8565 11.9391 15.8915 11.9125 15.9626 11.898C16.2173 11.8457 16.4703 11.7859 16.7239 11.7293C16.7406 11.7254 16.7575 11.7222 16.7816 11.7173C16.7795 11.7357 16.7788 11.7502 16.7759 11.764C16.7123 12.1128 16.5881 12.4347 16.3549 12.7072C16.0751 13.0337 15.7103 13.2078 15.2943 13.2863C15.0679 13.3291 14.8421 13.3298 14.621 13.2566C14.3228 13.1579 14.1172 12.953 13.9739 12.6799C13.8399 12.4238 13.7779 12.1475 13.7507 11.8623C13.71 11.4381 13.7404 11.0206 13.8713 10.6131C13.9732 10.2961 14.1314 10.012 14.3744 9.78062C14.6546 9.51421 14.9932 9.37235 15.3725 9.31928C15.5957 9.28814 15.8158 9.29699 16.028 9.37978C16.3415 9.50219 16.534 9.74241 16.6532 10.0463C16.7947 10.4068 16.8262 10.7829 16.8007 11.1664C16.7982 11.2036 16.7763 11.2064 16.7508 11.212C16.2994 11.3132 15.8476 11.4144 15.3962 11.5156C15.1662 11.5672 14.9362 11.6189 14.7063 11.6706C14.6897 11.6744 14.673 11.679 14.6536 11.6844L14.6529 11.684ZM15.924 10.7242C15.9194 10.5483 15.8879 10.3838 15.7878 10.2388C15.7153 10.1341 15.6145 10.0743 15.4871 10.0672C15.2833 10.0559 15.1043 10.1203 14.9546 10.2586C14.8057 10.3962 14.7349 10.5759 14.6946 10.7691C14.6787 10.8448 14.6706 10.9219 14.6575 11.0083C15.0863 10.912 15.503 10.8186 15.924 10.7242Z" fill="#2E2A27"/>
<path d="M10.5302 14.2808C10.5302 14.2578 10.5302 14.2376 10.5302 14.2171C10.5302 13.4519 10.5323 12.6866 10.528 11.9217C10.5273 11.8107 10.51 11.696 10.4778 11.5899C10.4152 11.3836 10.2609 11.3016 10.049 11.3437C9.7575 11.4013 9.59122 11.5934 9.49605 11.8605C9.41892 12.0774 9.39522 12.3031 9.39416 12.5313C9.39203 13.0135 9.39345 13.4961 9.39345 13.9783V14.0445C9.11466 13.8736 8.82526 13.8421 8.51358 13.95C8.51358 13.9267 8.51358 13.9086 8.51358 13.8902C8.51358 12.9201 8.51393 11.9504 8.51252 10.9803C8.51252 10.934 8.52348 10.9145 8.57089 10.9046C8.82703 10.8512 9.08247 10.7939 9.33826 10.7383C9.35489 10.7348 9.37187 10.733 9.3938 10.7295V11.1728C9.39734 11.1742 9.40088 11.176 9.40477 11.1774C9.41468 11.1625 9.42423 11.148 9.43413 11.1332C9.58449 10.9043 9.76316 10.7026 10.0027 10.5639C10.2432 10.4249 10.5012 10.376 10.7743 10.4408C10.9759 10.4886 11.1157 10.6187 11.2144 10.7963C11.3156 10.9785 11.3626 11.1777 11.381 11.3826C11.3948 11.5361 11.4001 11.6907 11.4008 11.8446C11.403 12.2681 11.4008 12.6912 11.3998 13.1147C11.3991 13.4236 11.3977 13.7324 11.3962 14.0409C11.3962 14.0668 11.4008 14.0901 11.3623 14.0983C11.093 14.157 10.8242 14.2185 10.5553 14.279C10.5489 14.2805 10.5422 14.2801 10.5298 14.2812L10.5302 14.2808Z" fill="#2E2A27"/>
<path d="M25.1855 8.41782C24.8968 8.48257 24.6166 8.54519 24.3371 8.60781C24.3138 8.53776 24.2968 8.47231 24.2706 8.4104C24.1691 8.17088 23.9844 8.08208 23.7318 8.14753C23.5213 8.20201 23.3925 8.34848 23.3033 8.53564C23.1937 8.76666 23.1551 9.01467 23.1431 9.26762C23.1296 9.54464 23.1448 9.81989 23.2223 10.0874C23.2517 10.1892 23.2959 10.2904 23.3522 10.3803C23.4495 10.5349 23.597 10.5993 23.781 10.5696C23.9854 10.5367 24.1408 10.4312 24.2292 10.2444C24.2763 10.1454 24.3017 10.0357 24.3357 9.93062C24.3435 9.90621 24.3445 9.88392 24.3796 9.87649C24.6506 9.81776 24.9209 9.75585 25.1915 9.695C25.1982 9.69358 25.2053 9.69359 25.223 9.69182C25.2141 9.7693 25.2085 9.8443 25.1965 9.91824C25.1455 10.2356 25.0348 10.5278 24.8225 10.7744C24.5961 11.0373 24.3042 11.1926 23.9755 11.2856C23.7463 11.3507 23.5138 11.384 23.2761 11.3451C22.9435 11.2906 22.6969 11.1087 22.5225 10.8239C22.3739 10.5809 22.3028 10.3117 22.2657 10.0332C22.202 9.55596 22.2271 9.08436 22.3771 8.62408C22.5031 8.23739 22.7054 7.89988 23.0437 7.66143C23.4024 7.40882 23.8043 7.31294 24.238 7.3745C24.6874 7.43854 25.0511 7.79622 25.1565 8.26357C25.1674 8.3124 25.1745 8.36193 25.1848 8.41782L25.1855 8.41782Z" fill="#2E2A27"/>
<path d="M13.5466 12.848C13.548 12.8625 13.549 12.8692 13.5494 12.8759C13.5505 13.0928 13.5515 13.3097 13.5512 13.5265C13.5512 13.5439 13.542 13.5711 13.5289 13.5775C13.3216 13.6772 13.1068 13.7604 12.8754 13.7745C12.5018 13.7972 12.217 13.5768 12.1261 13.1979C12.1017 13.096 12.0897 12.9888 12.0893 12.8837C12.0868 12.2416 12.0893 11.5998 12.0897 10.9577C12.0897 10.9372 12.0897 10.9163 12.0897 10.8859C11.9234 10.9226 11.7628 10.9584 11.6004 10.9941V10.2264C11.7539 10.1914 11.9022 10.1556 12.0515 10.1249C12.0914 10.1167 12.0999 10.1001 12.0996 10.0626C12.0978 9.86305 12.0989 9.66351 12.0989 9.46398C12.0989 9.44523 12.0989 9.42612 12.0989 9.40313C12.3904 9.33803 12.6791 9.27364 12.9738 9.20819V9.91683C13.1839 9.86977 13.3874 9.82449 13.5933 9.77814V10.5466C13.3828 10.594 13.1772 10.6403 12.9657 10.6881C12.9657 10.7058 12.9657 10.7228 12.9657 10.7397C12.9646 11.3592 12.9628 11.9787 12.9628 12.5978C12.9628 12.6615 12.9674 12.7266 12.9805 12.7889C13.0049 12.9049 13.0739 12.9576 13.191 12.9396C13.2933 12.924 13.3927 12.8904 13.4931 12.8646C13.5094 12.8603 13.5257 12.8543 13.5466 12.848Z" fill="#2E2A27"/>
<path d="M7.8987 9.793L7.89869 9.85243C7.89869 11.5043 7.89869 13.1561 7.90011 14.8079C7.90011 14.8578 7.8856 14.8759 7.83749 14.8861C7.57144 14.9434 7.3061 15.0047 7.04076 15.0644C7.0259 15.0676 7.01069 15.069 6.98946 15.0722V15.0124C6.98946 13.3606 6.98946 11.7088 6.9884 10.0569C6.9884 10.0074 7.00149 9.989 7.05031 9.97874C7.31636 9.92178 7.5817 9.86092 7.8474 9.80149C7.86225 9.7983 7.87747 9.79689 7.89905 9.7937L7.8987 9.793Z" fill="#2E2A27"/>
<path d="M18.0238 8.78612C18.0333 9.00264 18.0425 9.21137 18.0517 9.42046C18.1253 9.21739 18.2063 9.0175 18.374 8.86855C18.5403 8.72067 18.7427 8.65274 18.9588 8.6018C18.9602 8.61913 18.9627 8.63364 18.9627 8.64814C18.9627 8.95346 18.9627 9.25878 18.9627 9.5641C18.9627 9.59099 18.9638 9.61186 18.9273 9.6207C18.4441 9.74029 18.1854 10.0633 18.0959 10.5409C18.0528 10.7712 18.056 11.0033 18.0542 11.2357C18.0514 11.6677 18.0492 12.0997 18.0489 12.5317C18.0489 12.5794 18.0368 12.6 17.9866 12.6106C17.734 12.664 17.4825 12.7224 17.2302 12.779C17.2122 12.7829 17.1941 12.786 17.1711 12.7906V12.7337C17.1711 11.5 17.1711 10.2664 17.1697 9.03271C17.1697 8.98424 17.1853 8.96903 17.2299 8.95912C17.4789 8.9057 17.7276 8.84874 17.9763 8.79355C17.988 8.79107 17.9997 8.78966 18.0231 8.78612H18.0238Z" fill="#2E2A27"/>
<path d="M8.08196 16.4078C8.08196 16.4708 8.08196 16.5312 8.08196 16.5917C8.08196 16.7948 8.08125 16.9979 8.08267 17.2006C8.08267 17.2339 8.07418 17.2487 8.03986 17.2565C7.84563 17.3014 7.65246 17.351 7.45788 17.3952C7.23676 17.4454 7.01989 17.3089 6.96823 17.0906C6.91693 16.8734 7.04642 16.6544 7.26365 16.5999C7.52439 16.5344 7.78584 16.4736 8.04729 16.411C8.05684 16.4085 8.06745 16.4088 8.08196 16.4078Z" fill="#2E2A27"/>
<path d="M8.08196 17.4875L8.08196 17.8771C8.08196 18.0108 8.08019 18.1442 8.08302 18.2779C8.08373 18.3175 8.07064 18.3303 8.03313 18.3388C7.84067 18.383 7.64892 18.4318 7.45646 18.476C7.24065 18.5255 7.02448 18.3929 6.97 18.1803C6.91446 17.9637 7.04005 17.7394 7.25515 17.6842C7.52049 17.6163 7.78725 17.5551 8.05365 17.4911C8.06038 17.4897 8.0671 17.4893 8.0816 17.4875L8.08196 17.4875Z" fill="#2E2A27"/>
<path d="M8.07948 15.3259C8.08019 15.3429 8.0816 15.3581 8.0816 15.3733C8.0816 15.6213 8.08089 15.8693 8.08266 16.1177C8.08266 16.1548 8.07134 16.1679 8.03632 16.176C7.84881 16.2192 7.66201 16.2656 7.47486 16.3098C7.24242 16.365 7.0213 16.2341 6.96858 16.0108C6.91516 15.7848 7.04925 15.5707 7.28204 15.5141C7.53641 15.4522 7.79114 15.3917 8.04552 15.3308C8.05542 15.3284 8.06568 15.328 8.07948 15.3262L8.07948 15.3259Z" fill="#2E2A27"/>
<path d="M21.0356 10.1815C21.0211 10.5179 21.0179 10.8547 20.7745 11.1225C20.622 11.2902 20.4242 11.3674 20.1974 11.3613C20.0326 11.3567 19.9151 11.2283 19.8875 11.039C19.8603 10.8512 19.9204 10.6983 20.0619 10.5749C20.1826 10.4698 20.3216 10.3941 20.4709 10.3424C20.6425 10.283 20.819 10.2381 20.9935 10.1871C21.0048 10.1839 21.0172 10.1839 21.0356 10.1818V10.1815Z" fill="#FDB82B"/>
<path d="M15.924 10.7242C15.503 10.8186 15.0863 10.912 14.6575 11.0083C14.6706 10.9219 14.6787 10.8448 14.6946 10.7691C14.7349 10.5759 14.8057 10.3962 14.9546 10.2586C15.1047 10.1199 15.2837 10.0555 15.4871 10.0672C15.6145 10.0743 15.7153 10.1344 15.7878 10.2388C15.8883 10.3838 15.9198 10.5483 15.924 10.7242Z" fill="#FDB82B"/>
</svg>
