<svg xmlns="http://www.w3.org/2000/svg" width="24" height="24" fill="none" viewBox="0 0 24 24"><path fill="#FDB82B" d="M19.712 1H4.288A3.288 3.288 0 0 0 1 4.288v15.424A3.288 3.288 0 0 0 4.288 23h15.424A3.288 3.288 0 0 0 23 19.712V4.288A3.288 3.288 0 0 0 19.712 1Z"/><path fill="#FDB82B" d="M4.986 15.664V17.893c0 .021.001.043-.002.063a.124.124 0 0 1-.12.11.12.12 0 0 1-.122-.101.309.309 0 0 1-.005-.057l-.002-.99-.001-1.758a.583.583 0 0 0-.586-.592.582.582 0 0 0-.584.594c0 1.614-.004 3.229.001 4.843.002.577.258 1.027.74 1.344.285.187.604.247.943.245a1.557 1.557 0 0 0 1.555-1.557c0-.851.003-1.702-.001-2.554-.002-.386-.176-.69-.486-.913-.306-.218-.62-.424-.931-.636l-.4-.27h.001Zm13.675-4.03c-.033-.095-.077-.18-.09-.27a4.415 4.415 0 0 1-.056-.586c-.007-.626-.002-1.252-.004-1.878 0-.112-.008-.226-.025-.336a1.023 1.023 0 0 0-.305-.62c-.208-.193-.464-.26-.737-.264a2.554 2.554 0 0 0-1.176.274c-.414.203-.69.524-.786.982-.026.126-.035.255-.052.39l.073-.014c.277-.063.554-.127.832-.186.067-.014.098-.038.108-.11.036-.282.204-.446.476-.511.04-.01.082-.018.124-.023.26-.034.428.084.47.342.023.143.023.289.038.433.005.045-.012.06-.053.068-.188.04-.375.085-.564.126-.318.07-.627.164-.91.333-.295.177-.532.409-.654.739-.13.35-.121.706.005 1.053.102.28.291.483.576.583.213.076.428.06.643.007.42-.101.75-.315.93-.723.003-.007.01-.013.011-.013.049.127.098.252.145.379.013.033.032.04.067.032.112-.027.227-.052.34-.077l.574-.13Zm-8.143.018.058-.015.759-.17 1.49-.334c.029-.006.052-.01.055-.05.028-.422-.007-.836-.162-1.232-.131-.335-.343-.599-.688-.734a1.412 1.412 0 0 0-.721-.066c-.417.058-.79.214-1.098.507a2.132 2.132 0 0 0-.553.916 3.392 3.392 0 0 0-.133 1.374c.03.314.098.618.246.9.157.3.383.525.711.634.244.08.492.08.741.033.457-.087.858-.278 1.167-.637.256-.3.393-.654.463-1.038l.006-.051-.063.013c-.28.063-.558.128-.838.185-.078.016-.117.046-.14.126a.723.723 0 0 1-.583.549c-.214.044-.396-.009-.525-.191-.15-.214-.197-.459-.193-.719h.001ZM5.983 14.51c.014-.001.021 0 .028-.002l.888-.2c.042-.009.037-.034.037-.062l.004-1.02c.001-.465.004-.93.001-1.396 0-.17-.006-.34-.021-.509a1.609 1.609 0 0 0-.184-.644c-.108-.196-.262-.339-.484-.392a1.13 1.13 0 0 0-.849.136c-.263.152-.46.374-.625.626l-.032.049-.012-.005v-.488c-.025.004-.043.006-.061.01-.282.061-.563.124-.845.183-.052.01-.064.032-.064.083.002 1.067.001 2.134.001 3.2v.067c.343-.12.661-.084.968.104v-.073c0-.53-.001-1.062.001-1.592.001-.25.027-.5.112-.738.105-.294.288-.505.608-.568.233-.047.403.044.472.27.035.117.054.243.055.366.005.841.003 1.683.003 2.524v.07Zm16.121-6.45c-.011-.06-.019-.115-.031-.17-.116-.513-.516-.907-1.01-.977a1.78 1.78 0 0 0-1.314.316c-.373.262-.595.633-.733 1.058a3.461 3.461 0 0 0-.123 1.55c.04.307.12.603.283.87.191.314.462.513.829.574.26.042.517.006.769-.066.362-.102.683-.273.932-.562.233-.272.355-.593.41-.942.014-.081.02-.164.03-.249l-.035.003c-.297.067-.595.135-.893.2-.038.008-.04.033-.048.06-.037.115-.065.236-.117.345a.624.624 0 0 1-.493.357.438.438 0 0 1-.472-.208 1.276 1.276 0 0 1-.143-.322 2.747 2.747 0 0 1-.087-.902c.013-.278.056-.55.177-.805.097-.206.24-.367.47-.427.279-.072.482.026.594.29.028.067.047.14.073.217l.933-.21ZM9.301 12.934c-.023.007-.04.014-.059.018-.11.028-.22.065-.332.083-.129.02-.205-.039-.231-.166a1.029 1.029 0 0 1-.02-.21c0-.682.002-1.363.003-2.044v-.057l.69-.156v-.845c-.226.05-.45.1-.68.153v-.78l-.963.214v.726c0 .04-.009.059-.052.068-.165.034-.328.074-.497.112v.845l.539-.12v.08c-.001.706-.004 1.412 0 2.118 0 .115.013.234.04.346.1.416.413.66.824.634.255-.016.49-.107.719-.217.014-.007.024-.036.024-.056.001-.238 0-.477-.002-.716l-.003-.03ZM3.09 9.573c-.024.003-.04.004-.057.008-.292.065-.584.132-.877.195-.054.011-.068.031-.068.086l.001 5.45v.067c.023-.004.04-.005.056-.009.293-.066.584-.133.877-.196.053-.011.069-.031.069-.086-.002-1.817-.002-3.634-.002-5.451v-.065Zm11.137-1.108-.051.008c-.274.061-.547.123-.821.182-.05.01-.067.027-.066.081l.001 4.071v.063l.065-.013c.277-.062.554-.127.832-.185.055-.012.068-.035.069-.087 0-.475.002-.95.005-1.426.002-.255-.001-.51.046-.764.099-.525.383-.88.915-1.012.04-.01.039-.033.039-.062V8.313c0-.016-.003-.032-.005-.051-.237.056-.46.13-.643.293-.184.164-.273.384-.354.608l-.031-.698ZM3.29 16.849c-.016.001-.027 0-.038.003-.288.069-.575.136-.862.208a.448.448 0 0 0-.325.54.45.45 0 0 0 .539.335c.213-.049.426-.103.64-.153.038-.008.047-.025.047-.061-.002-.224 0-.447 0-.67v-.202Zm0 1.187-.03.004c-.294.07-.587.138-.879.213a.45.45 0 0 0 .221.87c.212-.048.423-.102.635-.15.04-.01.056-.024.055-.067-.003-.147-.001-.294-.001-.441v-.429Zm-.003-2.378c-.015.002-.026.003-.037.006l-.84.201a.451.451 0 1 0 .212.875c.206-.048.412-.1.618-.147.039-.009.051-.023.051-.064-.002-.273-.001-.546-.001-.819l-.003-.052Z"/><path fill="#2E2A27" d="m4.986 15.664.4.27c.31.212.624.419.93.637.31.222.484.527.486.913.004.851.001 1.702.001 2.554 0 .86-.694 1.55-1.555 1.556-.338.003-.658-.058-.942-.245-.483-.316-.738-.766-.74-1.343-.005-1.615-.002-3.23-.002-4.844 0-.332.257-.592.584-.593.326 0 .585.258.586.591.002.586 0 1.172.001 1.758l.003.99c0 .02 0 .039.004.057a.12.12 0 0 0 .122.1.124.124 0 0 0 .12-.108c.003-.02.003-.042.003-.063V15.664ZM18.66 11.635l-.573.13c-.114.025-.228.05-.34.077-.034.008-.054.001-.067-.032-.047-.127-.096-.253-.145-.38 0 .001-.008.006-.011.013-.18.408-.51.623-.93.724-.215.052-.43.068-.643-.007a.923.923 0 0 1-.576-.583 1.497 1.497 0 0 1-.005-1.053c.122-.33.36-.562.655-.74.282-.168.591-.262.91-.332.187-.042.375-.086.563-.126.04-.01.057-.023.053-.069-.015-.144-.015-.29-.038-.432-.043-.258-.21-.376-.47-.342a1.215 1.215 0 0 0-.124.023c-.272.065-.44.23-.476.51-.01.073-.041.097-.108.11-.278.06-.555.124-.832.186-.019.005-.037.007-.073.014.017-.134.026-.264.052-.389.097-.458.372-.779.786-.982.37-.183.762-.28 1.176-.274.273.004.53.07.737.264.18.168.268.382.305.62.016.11.024.224.025.336.002.626-.003 1.252.004 1.878.002.195.028.391.056.585.013.09.057.176.09.272v-.001ZM17.54 10c-.021.002-.035.002-.047.005-.192.056-.386.106-.575.171-.164.057-.317.14-.45.256a.536.536 0 0 0-.192.51c.03.21.16.35.341.355a.793.793 0 0 0 .635-.263c.268-.294.271-.665.287-1.035ZM10.518 11.652c-.005.26.042.505.193.72.128.182.31.234.525.19a.723.723 0 0 0 .583-.548c.023-.081.062-.11.14-.126.28-.058.558-.123.837-.186l.064-.013c-.002.02-.003.036-.006.051-.07.384-.207.738-.463 1.038-.308.36-.71.55-1.167.637a1.457 1.457 0 0 1-.74-.033c-.329-.108-.555-.334-.713-.634a2.402 2.402 0 0 1-.245-.9 3.385 3.385 0 0 1 .133-1.374c.112-.348.286-.66.553-.915.308-.293.68-.45 1.098-.508.245-.034.487-.024.72.067.346.134.557.399.689.733.155.396.19.81.162 1.232-.003.04-.027.044-.055.05l-1.49.334-.76.17-.057.016Zm1.398-1.055c-.005-.194-.04-.375-.15-.534a.416.416 0 0 0-.33-.19.77.77 0 0 0-.586.211c-.164.152-.242.35-.286.562-.017.083-.026.168-.04.263l1.393-.312ZM5.983 14.509v-.07c0-.842.003-1.684-.002-2.525 0-.122-.02-.248-.055-.365-.07-.227-.239-.317-.472-.271-.32.063-.504.275-.608.569a2.21 2.21 0 0 0-.112.738c-.003.53-.001 1.06-.001 1.591v.073a1.081 1.081 0 0 0-.968-.104v-.066l-.001-3.2c0-.052.012-.073.064-.084.282-.059.563-.122.844-.183.018-.004.037-.006.061-.01v.488l.012.005.033-.049c.165-.251.362-.473.625-.626.265-.153.548-.206.849-.135.222.052.375.196.484.391.111.2.163.42.183.645.015.169.021.339.022.508.002.466 0 .931-.001 1.397l-.004 1.019c0 .028.005.054-.037.063-.297.065-.592.132-.888.199-.007.002-.015.001-.028.002ZM22.104 8.06l-.933.209c-.026-.077-.044-.15-.073-.218-.112-.263-.315-.36-.593-.289-.232.06-.373.221-.471.427-.12.254-.163.527-.177.805a2.74 2.74 0 0 0 .088.902c.032.112.08.223.142.322.107.17.27.241.472.209a.623.623 0 0 0 .493-.358c.052-.11.08-.23.117-.345.009-.027.01-.052.049-.06.298-.064.595-.133.893-.2l.034-.003c-.01.085-.016.168-.029.25-.056.348-.178.67-.411.94-.25.29-.57.46-.932.563a1.753 1.753 0 0 1-.77.066c-.365-.06-.636-.26-.828-.574a2.191 2.191 0 0 1-.283-.87 3.461 3.461 0 0 1 .123-1.55c.138-.425.361-.796.733-1.058a1.78 1.78 0 0 1 1.314-.316c.494.07.894.464 1.01.978.012.054.02.108.031.17h.001ZM9.301 12.933l.003.03c.002.24.003.478.002.716 0 .02-.01.05-.024.056-.228.11-.464.201-.719.217-.411.025-.724-.218-.824-.634a1.516 1.516 0 0 1-.04-.346c-.003-.706 0-1.412 0-2.119v-.079l-.539.12v-.845c.17-.038.332-.078.497-.112.044-.009.053-.027.053-.068-.002-.22-.001-.44-.001-.659v-.067l.962-.214v.78l.682-.153v.845l-.69.156v.057c-.002.681-.004 1.363-.004 2.044 0 .07.005.141.02.21.026.127.102.185.231.166.113-.018.222-.055.332-.083l.06-.018ZM3.089 9.572v.066l.001 5.45c0 .056-.016.076-.069.087-.292.063-.584.13-.876.196l-.057.008V9.863c0-.055.014-.075.067-.086.293-.063.585-.13.877-.195.017-.004.033-.005.057-.009ZM14.226 8.465l.03.698c.082-.224.171-.444.355-.608.183-.162.406-.237.644-.293.001.019.004.035.004.051v1.008c0 .03.001.052-.039.062-.532.131-.816.487-.915 1.012-.047.253-.043.509-.045.764-.003.475-.006.95-.006 1.426 0 .052-.013.075-.069.087-.278.058-.554.123-.832.185l-.065.013v-.063l-.001-4.071c0-.053.017-.07.066-.081.274-.059.547-.121.821-.182l.051-.008h.001ZM3.29 16.849v.202l.001.67c0 .036-.01.053-.047.061-.214.05-.426.104-.64.153a.45.45 0 0 1-.539-.335.448.448 0 0 1 .325-.54c.287-.072.574-.14.862-.208.01-.003.022-.002.038-.003ZM3.29 18.036v.429c0 .147-.002.294.001.44.001.044-.013.058-.055.068-.211.048-.422.102-.634.15a.45.45 0 0 1-.221-.87c.292-.075.585-.142.878-.213l.03-.004h.001ZM3.287 15.659l.003.052c0 .272-.001.545.001.818 0 .041-.012.056-.051.065-.206.047-.412.098-.618.147a.451.451 0 1 1-.212-.875c.28-.069.56-.135.84-.202.011-.003.022-.003.037-.005Z"/><path fill="#FDB82B" d="M17.54 10c-.017.37-.02.74-.288 1.035a.796.796 0 0 1-.635.262c-.181-.005-.31-.146-.34-.354a.536.536 0 0 1 .191-.51c.133-.116.286-.2.45-.256.189-.066.383-.115.575-.171.012-.004.026-.004.046-.006ZM11.916 10.597l-1.393.312c.015-.095.024-.18.041-.263.044-.213.122-.41.286-.562a.769.769 0 0 1 .586-.21c.14.008.25.074.33.189.111.16.146.34.15.534Z"/></svg>