<svg width="24" height="24" viewBox="0 0 24 24" fill="none" xmlns="http://www.w3.org/2000/svg">
<path d="M19.7115 1H4.28846C2.47229 1 1 2.47229 1 4.28846V19.7115C1 21.5277 2.47229 23 4.28846 23H19.7115C21.5277 23 23 21.5277 23 19.7115V4.28846C23 2.47229 21.5277 1 19.7115 1Z" fill="#FDB82B"/>
<path d="M4.98617 15.6639V15.7464C4.98617 16.4621 4.98617 17.1778 4.98617 17.8935C4.98617 17.9145 4.98695 17.9355 4.98422 17.9565C4.97605 18.0188 4.92429 18.0643 4.86319 18.0651C4.80326 18.0659 4.75384 18.0254 4.74177 17.9647C4.73827 17.946 4.73749 17.9269 4.73749 17.9079C4.73632 17.5779 4.73516 17.2475 4.73477 16.9174C4.73438 16.3314 4.73593 15.7457 4.73399 15.1596C4.73282 14.8261 4.47402 14.5676 4.14751 14.5684C3.81983 14.5692 3.56376 14.8288 3.56376 15.1615C3.56376 16.7762 3.56026 18.3908 3.56532 20.0051C3.56727 20.5822 3.82334 21.0321 4.30513 21.3485C4.59039 21.5357 4.90911 21.596 5.24808 21.5937C6.10892 21.5878 6.8028 20.8978 6.8028 20.037C6.8028 19.1859 6.80552 18.3348 6.80163 17.4833C6.79969 17.0972 6.62612 16.7921 6.31556 16.5703C6.00968 16.352 5.69523 16.1457 5.38468 15.934C5.25586 15.8464 5.12666 15.7589 4.98578 15.6632L4.98617 15.6639ZM18.6607 11.6349C18.628 11.5395 18.5841 11.4539 18.5712 11.3632C18.5432 11.1694 18.5167 10.9733 18.5148 10.7779C18.5078 10.1522 18.5132 9.52599 18.5109 8.89982C18.5105 8.78774 18.5027 8.67449 18.4856 8.56358C18.4494 8.32619 18.3611 8.11176 18.1809 7.94402C17.9731 7.751 17.7174 7.68445 17.4438 7.68017C17.0301 7.67394 16.6374 7.77201 16.2677 7.95375C15.854 8.15729 15.5789 8.47835 15.4824 8.9364C15.4559 9.06171 15.4474 9.1913 15.4299 9.32557C15.4657 9.31895 15.4847 9.31584 15.503 9.31156C15.7801 9.24929 16.0568 9.18469 16.3351 9.12593C16.4016 9.11192 16.4335 9.08818 16.4429 9.01579C16.4794 8.73442 16.6472 8.56981 16.9188 8.50481C16.9597 8.49509 17.0009 8.48691 17.0426 8.48185C17.3021 8.44839 17.4706 8.56591 17.5131 8.82432C17.5364 8.96676 17.5364 9.11269 17.5508 9.25669C17.5555 9.30183 17.5388 9.31623 17.4983 9.32479C17.3099 9.36565 17.1227 9.40963 16.9344 9.45127C16.6164 9.52132 16.3066 9.61472 16.0249 9.78362C15.7291 9.96108 15.4921 10.1926 15.3699 10.523C15.2403 10.8737 15.2489 11.2286 15.3754 11.5765C15.4766 11.8552 15.6661 12.0587 15.9513 12.1595C16.1638 12.2346 16.3786 12.2186 16.5942 12.1665C17.0138 12.0649 17.3438 11.8509 17.524 11.4426C17.5271 11.4356 17.5349 11.4302 17.5352 11.4298C17.5839 11.5567 17.6325 11.6824 17.6804 11.8088C17.6929 11.8419 17.7123 11.8493 17.7466 11.8411C17.8594 11.8139 17.9735 11.789 18.0867 11.7637C18.2797 11.7201 18.4728 11.6765 18.6607 11.6341V11.6349ZM10.5182 11.6524C10.54 11.6469 10.5579 11.6415 10.5762 11.6372C10.8291 11.5804 11.0821 11.5232 11.335 11.4668C11.8316 11.3555 12.3286 11.2442 12.8252 11.1329C12.8536 11.1266 12.8773 11.1235 12.88 11.0827C12.9081 10.6608 12.8734 10.2471 12.7177 9.85055C12.5866 9.51626 12.3753 9.2524 12.0301 9.11736C11.7966 9.0263 11.5549 9.01657 11.309 9.05082C10.8918 9.10919 10.519 9.26525 10.2111 9.55829C9.94377 9.81281 9.76942 10.1253 9.65773 10.474C9.51374 10.9223 9.48066 11.3815 9.52502 11.8481C9.55499 12.1618 9.62309 12.4658 9.77059 12.7475C9.9282 13.0479 10.1543 13.2733 10.4824 13.3819C10.7256 13.4624 10.9739 13.4616 11.223 13.4145C11.6802 13.3282 12.0815 13.1367 12.3897 12.7775C12.6461 12.4778 12.7831 12.1237 12.8528 11.74C12.8555 11.7244 12.8567 11.7088 12.859 11.6886C12.8326 11.694 12.8143 11.6979 12.7956 11.7018C12.5166 11.7645 12.2383 11.8302 11.9581 11.8875C11.8799 11.9034 11.8413 11.9326 11.8184 12.0132C11.7343 12.3101 11.5413 12.4981 11.235 12.5615C11.021 12.6059 10.8385 12.5533 10.71 12.3708C10.5594 12.1568 10.5127 11.912 10.5174 11.652L10.5182 11.6524ZM5.98321 14.5089C5.99684 14.5077 6.00423 14.5081 6.01123 14.5065C6.307 14.44 6.60277 14.3727 6.89892 14.3077C6.94095 14.2983 6.93589 14.2727 6.93628 14.2446C6.93745 13.9049 6.9394 13.5652 6.94018 13.2258C6.94134 12.76 6.94368 12.2945 6.94134 11.8287C6.94057 11.659 6.93473 11.4889 6.91955 11.3204C6.89931 11.0947 6.84717 10.876 6.73625 10.6756C6.62806 10.4802 6.47395 10.3374 6.25213 10.2845C5.95169 10.2133 5.66799 10.2674 5.40336 10.4199C5.13989 10.5721 4.94336 10.7943 4.77796 11.0461C4.76746 11.0624 4.75656 11.0788 4.74566 11.0947C4.74177 11.0932 4.73788 11.0912 4.7336 11.0897V10.602C4.70947 10.6059 4.69079 10.6079 4.6725 10.6118C4.39113 10.6733 4.11015 10.7359 3.8284 10.7947C3.77625 10.8056 3.76418 10.827 3.76418 10.878C3.76574 11.9451 3.76535 13.0118 3.76535 14.0789C3.76535 14.0991 3.76535 14.1189 3.76535 14.1446C4.10782 14.0259 4.42616 14.0606 4.73321 14.2485V14.1758C4.73321 13.6453 4.73165 13.1145 4.73399 12.5841C4.73516 12.3331 4.76123 12.0848 4.84607 11.8462C4.95075 11.5524 5.13366 11.3411 5.45434 11.2776C5.68745 11.2313 5.85712 11.3216 5.92601 11.5485C5.96142 11.6652 5.98049 11.7913 5.98127 11.9135C5.98594 12.7553 5.9836 13.5971 5.9836 14.4384C5.9836 14.461 5.9836 14.4832 5.9836 14.5085L5.98321 14.5089ZM22.1041 8.05961C22.0928 7.99812 22.085 7.94364 22.0729 7.88993C21.957 7.37584 21.5569 6.98239 21.0627 6.91195C20.5855 6.84424 20.1434 6.9497 19.7488 7.22757C19.3764 7.48987 19.1542 7.86113 19.0156 8.28649C18.8506 8.7928 18.823 9.31156 18.8931 9.83654C18.9339 10.1428 19.0121 10.439 19.1756 10.7063C19.3671 11.0196 19.6383 11.2193 20.0045 11.2796C20.2656 11.3224 20.5217 11.2858 20.7739 11.2142C21.1358 11.1118 21.4569 10.941 21.7056 10.6518C21.9395 10.3802 22.0609 10.0591 22.1169 9.71006C22.1301 9.62873 22.1364 9.54623 22.1461 9.461C22.1266 9.46294 22.1189 9.46255 22.1115 9.4645C21.8138 9.53144 21.5164 9.59915 21.2183 9.66414C21.1798 9.67232 21.1786 9.69683 21.1701 9.72369C21.1327 9.83927 21.1047 9.95991 21.0529 10.0689C20.9552 10.2744 20.7844 10.3903 20.5599 10.4265C20.3575 10.4592 20.1952 10.3884 20.0882 10.2183C20.0263 10.1199 19.9777 10.0082 19.9454 9.89609C19.8601 9.60227 19.8438 9.2991 19.8582 8.99439C19.8714 8.71613 19.9138 8.44372 20.0345 8.1892C20.1322 7.98294 20.2742 7.82222 20.5058 7.76228C20.7836 7.69029 20.9868 7.78836 21.0985 8.05144C21.1273 8.11915 21.1459 8.19154 21.1716 8.26859C21.4791 8.19971 21.7869 8.13083 22.1048 8.05961H22.1041ZM9.30125 12.9328C9.27829 12.9402 9.26078 12.9468 9.24249 12.951C9.13196 12.9795 9.02261 13.0164 8.91014 13.0336C8.78132 13.0534 8.70544 12.9954 8.67858 12.8678C8.66419 12.7993 8.65913 12.7277 8.65913 12.6576C8.65913 11.9762 8.66107 11.2948 8.66224 10.6137C8.66224 10.595 8.66224 10.5767 8.66224 10.5569C8.89496 10.5044 9.12107 10.4534 9.35262 10.4012V9.55596C9.12613 9.60655 8.90197 9.65675 8.67119 9.70851V8.92901C8.34701 9.00139 8.02945 9.07183 7.70878 9.14344C7.70878 9.16912 7.70878 9.18975 7.70878 9.21037C7.70878 9.42986 7.708 9.64935 7.70956 9.86885C7.70956 9.90971 7.70022 9.928 7.65663 9.93734C7.4924 9.9712 7.32934 10.0105 7.16044 10.049V10.8935C7.33907 10.8538 7.51575 10.8149 7.69866 10.7744C7.69866 10.8083 7.69866 10.8309 7.69866 10.8534C7.69788 11.5598 7.69516 12.2657 7.69827 12.9721C7.69866 13.0873 7.71189 13.2056 7.73875 13.3176C7.83876 13.7344 8.15204 13.9773 8.563 13.952C8.81752 13.9364 9.05374 13.845 9.28179 13.7352C9.2958 13.7282 9.30631 13.6986 9.30631 13.6792C9.30709 13.4406 9.30553 13.2021 9.30437 12.9635C9.30437 12.9561 9.30281 12.9483 9.30125 12.9328ZM3.08859 9.5723C3.06485 9.5758 3.04812 9.57736 3.03177 9.58086C2.73951 9.64624 2.44763 9.71318 2.15498 9.77583C2.10127 9.78712 2.08687 9.80736 2.08687 9.86184C2.08843 11.6789 2.08804 13.4959 2.08804 15.3129V15.3787C2.11139 15.3752 2.12813 15.374 2.14447 15.3701C2.43674 15.3043 2.72822 15.2374 3.02088 15.174C3.0738 15.1627 3.08976 15.1428 3.08976 15.088C3.0882 13.2709 3.0882 11.4539 3.0882 9.6369V9.57152L3.08859 9.5723ZM14.2262 8.46473C14.2005 8.46901 14.1876 8.47018 14.1748 8.4729C13.9012 8.534 13.628 8.59627 13.3536 8.65503C13.3042 8.66554 13.2871 8.68227 13.2875 8.73598C13.2894 10.093 13.289 11.45 13.289 12.8071V12.8697C13.3143 12.8647 13.3346 12.8612 13.354 12.8569C13.6311 12.7946 13.9082 12.7304 14.1861 12.6716C14.2409 12.66 14.2542 12.637 14.2546 12.5848C14.2546 12.1097 14.2573 11.6345 14.2604 11.1593C14.262 10.904 14.2589 10.6483 14.3063 10.395C14.4048 9.86962 14.6889 9.5147 15.2209 9.38278C15.261 9.37266 15.2598 9.35009 15.2598 9.32051C15.2598 8.98466 15.2598 8.64881 15.2598 8.31296C15.2598 8.297 15.2571 8.28104 15.2555 8.26197C15.0177 8.3184 14.7947 8.39273 14.6122 8.55541C14.4281 8.71925 14.339 8.93874 14.2577 9.16251C14.2476 8.9329 14.2374 8.70329 14.2269 8.46473H14.2262ZM3.29018 16.8486C3.27422 16.8501 3.26255 16.8497 3.25204 16.8521C2.96445 16.9209 2.67685 16.9879 2.39004 17.0599C2.15109 17.1198 2.00904 17.3607 2.06508 17.5996C2.1219 17.8398 2.36007 17.99 2.60369 17.9347C2.81734 17.8861 3.02983 17.8316 3.24387 17.7822C3.28162 17.7736 3.29135 17.7573 3.29096 17.7207C3.2894 17.4973 3.29018 17.2739 3.29018 17.0509C3.29018 16.9844 3.29018 16.9178 3.29018 16.8486ZM3.29018 18.0363C3.27422 18.0382 3.26644 18.0386 3.25943 18.0402C2.96639 18.1106 2.67296 18.1776 2.38108 18.2527C2.14447 18.3134 2.00632 18.5601 2.06742 18.7983C2.12735 19.0322 2.36513 19.1781 2.60252 19.1236C2.81423 19.075 3.02516 19.0209 3.23686 18.9726C3.27773 18.9633 3.29251 18.9489 3.29174 18.9057C3.28862 18.759 3.29057 18.6119 3.29057 18.4648V18.0363H3.29018ZM3.28745 15.6585C3.27228 15.6604 3.26099 15.6612 3.25009 15.6635C2.97028 15.7305 2.69008 15.797 2.41027 15.8651C2.1542 15.9274 2.00632 16.1628 2.06547 16.4115C2.12346 16.6571 2.36669 16.8011 2.62237 16.7404C2.82824 16.6917 3.03372 16.6407 3.23998 16.5933C3.27889 16.5843 3.29135 16.5695 3.29096 16.529C3.28901 16.2562 3.28979 15.9834 3.28979 15.7102C3.28979 15.6935 3.28823 15.6772 3.28745 15.6581V15.6585Z" fill="#FDB82B"/>
<path d="M4.98617 15.6639C5.12705 15.7597 5.25625 15.8472 5.38506 15.9348C5.69562 16.1461 6.01006 16.3528 6.31595 16.5711C6.62651 16.7929 6.80007 17.098 6.80202 17.4841C6.8063 18.3352 6.80319 19.1863 6.80319 20.0378C6.80319 20.8982 6.10891 21.5886 5.24846 21.5945C4.9095 21.5968 4.59038 21.5361 4.30551 21.3493C3.82334 21.0329 3.56765 20.583 3.56571 20.0059C3.56065 18.3912 3.56376 16.7766 3.56415 15.1623C3.56415 14.8296 3.82061 14.57 4.1479 14.5692C4.47441 14.5684 4.73321 14.8268 4.73438 15.1604C4.73632 15.7464 4.73438 16.3321 4.73515 16.9182C4.73515 17.2482 4.73671 17.5786 4.73788 17.9087C4.73788 17.9277 4.73827 17.9468 4.74216 17.9655C4.75422 18.0262 4.80365 18.0667 4.86358 18.0659C4.92468 18.0651 4.97644 18.02 4.98461 17.9573C4.98733 17.9367 4.98656 17.9153 4.98656 17.8943C4.98656 17.1786 4.98656 16.4629 4.98656 15.7472V15.6647L4.98617 15.6639Z" fill="#2E2A27"/>
<path d="M18.6607 11.6349C18.4728 11.6773 18.2797 11.7209 18.0867 11.7645C17.9731 11.7902 17.8594 11.8147 17.7466 11.8419C17.7127 11.8501 17.6929 11.8431 17.6804 11.8096C17.6329 11.6831 17.5839 11.557 17.5352 11.4306C17.5349 11.431 17.5271 11.4364 17.524 11.4434C17.3438 11.8513 17.0138 12.0657 16.5942 12.1673C16.3786 12.2194 16.1638 12.2354 15.9513 12.1603C15.6661 12.0595 15.4766 11.8559 15.3754 11.5773C15.2493 11.2294 15.2407 10.8745 15.3699 10.5238C15.4917 10.1934 15.7291 9.96185 16.0249 9.78439C16.3066 9.6155 16.616 9.5221 16.9344 9.45205C17.1223 9.4104 17.3099 9.36643 17.4983 9.32557C17.5387 9.31662 17.5551 9.30261 17.5508 9.25746C17.5364 9.11347 17.5364 8.96714 17.5131 8.8251C17.4703 8.56669 17.3021 8.44916 17.0426 8.48263C17.0009 8.48808 16.9597 8.49586 16.9188 8.50559C16.6472 8.57058 16.4794 8.73559 16.4429 9.01657C16.4335 9.08895 16.4016 9.11269 16.3351 9.1267C16.0572 9.18547 15.7805 9.25007 15.503 9.31233C15.4843 9.31662 15.4657 9.31934 15.4299 9.32634C15.4474 9.19169 15.4559 9.06249 15.4824 8.93718C15.5789 8.47913 15.854 8.15807 16.2677 7.95453C16.6374 7.7724 17.0301 7.67472 17.4438 7.68095C17.7174 7.68523 17.9731 7.75139 18.1809 7.9448C18.3611 8.11253 18.4494 8.32696 18.4856 8.56436C18.5023 8.67527 18.5105 8.78852 18.5109 8.9006C18.5132 9.52677 18.5078 10.1525 18.5148 10.7787C18.5171 10.9741 18.5432 11.1702 18.5712 11.364C18.5844 11.4543 18.6284 11.5403 18.6607 11.6357L18.6607 11.6349ZM17.5391 9.9996C17.5189 10.0019 17.5053 10.0019 17.4928 10.0054C17.301 10.0615 17.1068 10.1113 16.918 10.1763C16.7538 10.2331 16.6009 10.3164 16.4681 10.432C16.3125 10.5678 16.2463 10.7359 16.2763 10.9426C16.3063 11.1511 16.4358 11.2924 16.6172 11.2971C16.8667 11.3041 17.0842 11.2193 17.2519 11.0344C17.5197 10.7402 17.5232 10.3693 17.5391 9.99921V9.9996Z" fill="#2E2A27"/>
<path d="M10.5182 11.6524C10.5135 11.9124 10.5602 12.1571 10.7108 12.3712C10.8392 12.5537 11.0218 12.6062 11.2358 12.5619C11.5425 12.4984 11.7355 12.3101 11.8192 12.0135C11.8421 11.933 11.8806 11.9038 11.9589 11.8878C12.2391 11.8302 12.5173 11.7645 12.7964 11.7022C12.8146 11.6979 12.8333 11.6944 12.8598 11.689C12.8575 11.7092 12.8567 11.7252 12.8536 11.7403C12.7835 12.1241 12.6469 12.4782 12.3905 12.7779C12.0826 13.1371 11.6814 13.3285 11.2237 13.4149C10.9747 13.462 10.7264 13.4628 10.4831 13.3822C10.1551 13.2737 9.92898 13.0483 9.77136 12.7479C9.62387 12.4661 9.55576 12.1622 9.5258 11.8485C9.48104 11.3819 9.51451 10.9227 9.6585 10.4744C9.77058 10.1257 9.94454 9.81319 10.2119 9.55868C10.5201 9.26564 10.8926 9.10958 11.3097 9.05121C11.5553 9.01696 11.7974 9.02669 12.0309 9.11775C12.3757 9.2524 12.5874 9.51665 12.7185 9.85094C12.8742 10.2475 12.9088 10.6612 12.8808 11.083C12.8781 11.1239 12.854 11.127 12.8259 11.1332C12.3294 11.2446 11.8324 11.3559 11.3358 11.4672C11.0829 11.524 10.8299 11.5808 10.5769 11.6376C10.5586 11.6419 10.5404 11.6469 10.519 11.6528L10.5182 11.6524ZM11.9165 10.5966C11.9114 10.4032 11.8768 10.2222 11.7666 10.0626C11.6868 9.94746 11.5759 9.88169 11.4358 9.8739C11.2117 9.86145 11.0148 9.93228 10.8501 10.0844C10.6863 10.2358 10.6085 10.4335 10.5641 10.646C10.5466 10.7293 10.5376 10.8141 10.5232 10.9091C10.9949 10.8032 11.4533 10.7005 11.9165 10.5966Z" fill="#2E2A27"/>
<path d="M5.98321 14.5089C5.98321 14.4836 5.98321 14.4614 5.98321 14.4388C5.98321 13.5971 5.98555 12.7553 5.98088 11.9139C5.9801 11.7917 5.96103 11.6656 5.92561 11.5489C5.85673 11.322 5.68705 11.2317 5.45394 11.278C5.13327 11.3415 4.95036 11.5528 4.84568 11.8466C4.76084 12.0852 4.73476 12.3334 4.7336 12.5845C4.73126 13.1149 4.73282 13.6457 4.73282 14.1762V14.2489C4.42615 14.061 4.10782 14.0263 3.76496 14.145C3.76496 14.1193 3.76496 14.0995 3.76496 14.0792C3.76496 13.0122 3.76535 11.9454 3.76379 10.8783C3.76379 10.8274 3.77586 10.806 3.828 10.7951C4.10976 10.7363 4.39074 10.6733 4.67211 10.6122C4.6904 10.6083 4.70908 10.6063 4.73321 10.6024V11.0901C4.7371 11.0916 4.74099 11.0936 4.74527 11.0951C4.75617 11.0788 4.76667 11.0628 4.77757 11.0465C4.94297 10.7947 5.1395 10.5729 5.40296 10.4203C5.6676 10.2674 5.9513 10.2137 6.25174 10.2849C6.47356 10.3374 6.62728 10.4806 6.73586 10.676C6.84716 10.8764 6.89892 11.0955 6.91916 11.3208C6.93434 11.4897 6.94017 11.6598 6.94095 11.8291C6.94329 12.2949 6.94095 12.7604 6.93978 13.2262C6.93901 13.5659 6.93745 13.9057 6.93589 14.245C6.93589 14.2734 6.94095 14.2991 6.89853 14.3081C6.60238 14.3727 6.30661 14.4404 6.01084 14.5069C6.00384 14.5085 5.99644 14.5081 5.98282 14.5093L5.98321 14.5089Z" fill="#2E2A27"/>
<path d="M22.1041 8.05961C21.7865 8.13083 21.4783 8.19971 21.1708 8.26859C21.1452 8.19153 21.1265 8.11954 21.0977 8.05143C20.986 7.78797 20.7828 7.69029 20.505 7.76228C20.2734 7.82222 20.1318 7.98333 20.0337 8.1892C19.9131 8.44333 19.8706 8.71613 19.8574 8.99439C19.8426 9.2991 19.8594 9.60188 19.9446 9.89609C19.9769 10.0082 20.0255 10.1195 20.0874 10.2183C20.1944 10.3884 20.3567 10.4592 20.5591 10.4265C20.784 10.3903 20.9549 10.2744 21.0521 10.0689C21.1039 9.95991 21.1319 9.83927 21.1693 9.72369C21.1779 9.69683 21.179 9.67232 21.2175 9.66414C21.5156 9.59954 21.813 9.53144 22.1107 9.4645C22.1181 9.46294 22.1259 9.46294 22.1453 9.461C22.1356 9.54623 22.1294 9.62873 22.1161 9.71006C22.0601 10.0591 21.9383 10.3806 21.7048 10.6518C21.4557 10.941 21.1347 11.1118 20.7731 11.2142C20.5209 11.2858 20.2653 11.3224 20.0037 11.2796C19.6379 11.2196 19.3667 11.0196 19.1748 10.7063C19.0114 10.439 18.9331 10.1428 18.8923 9.83654C18.8222 9.31156 18.8499 8.7928 19.0149 8.28649C19.1534 7.86113 19.376 7.48987 19.748 7.22757C20.1427 6.9497 20.5848 6.84424 21.0619 6.91195C21.5561 6.98239 21.9562 7.37584 22.0722 7.88993C22.0842 7.94364 22.092 7.99812 22.1033 8.05961L22.1041 8.05961Z" fill="#2E2A27"/>
<path d="M9.30125 12.9328C9.30281 12.9487 9.30398 12.9561 9.30437 12.9635C9.30553 13.2021 9.3067 13.4406 9.30631 13.6792C9.30631 13.6982 9.29619 13.7282 9.28179 13.7352C9.05374 13.845 8.81752 13.9364 8.563 13.952C8.15204 13.9769 7.83876 13.7344 7.73875 13.3176C7.71189 13.2056 7.69866 13.0876 7.69827 12.9721C7.69555 12.2657 7.69827 11.5598 7.69866 10.8534C7.69866 10.8309 7.69866 10.8079 7.69866 10.7744C7.51575 10.8149 7.33907 10.8542 7.16044 10.8935V10.049C7.32934 10.0105 7.4924 9.9712 7.65663 9.93734C7.70061 9.92839 7.70995 9.9101 7.70956 9.86885C7.70761 9.64935 7.70878 9.42986 7.70878 9.21037C7.70878 9.18975 7.70878 9.16873 7.70878 9.14344C8.02945 9.07183 8.34701 9.001 8.67119 8.92901V9.70851C8.90236 9.65675 9.12613 9.60694 9.35262 9.55596V10.4012C9.12107 10.4534 8.89496 10.5044 8.66224 10.5569C8.66224 10.5764 8.66224 10.595 8.66224 10.6137C8.66107 11.2951 8.65913 11.9766 8.65913 12.6576C8.65913 12.7277 8.66419 12.7993 8.67858 12.8678C8.70544 12.9954 8.78132 13.0534 8.91014 13.0336C9.02261 13.0164 9.13196 12.9795 9.24249 12.951C9.26039 12.9464 9.27829 12.9398 9.30125 12.9328Z" fill="#2E2A27"/>
<path d="M3.08859 9.5723L3.08859 9.63768C3.08859 11.4547 3.08859 13.2717 3.09014 15.0887C3.09014 15.1436 3.07419 15.1635 3.02126 15.1747C2.72861 15.2378 2.43673 15.3051 2.14486 15.3709C2.12851 15.3744 2.11178 15.3759 2.08843 15.3794V15.3137C2.08843 13.4967 2.08843 11.6796 2.08726 9.86262C2.08726 9.80813 2.10166 9.7879 2.15537 9.77661C2.44802 9.71395 2.73989 9.64702 3.03216 9.58164C3.0485 9.57813 3.06524 9.57658 3.08898 9.57308L3.08859 9.5723Z" fill="#2E2A27"/>
<path d="M14.2262 8.46473C14.2367 8.7029 14.2468 8.93251 14.2569 9.16251C14.3378 8.93913 14.427 8.71925 14.6114 8.55541C14.7943 8.39273 15.0169 8.31801 15.2547 8.26197C15.2563 8.28104 15.259 8.297 15.259 8.31296C15.259 8.64881 15.259 8.98466 15.259 9.32051C15.259 9.35009 15.2602 9.37305 15.2201 9.38278C14.6885 9.51431 14.404 9.86962 14.3055 10.395C14.2581 10.6483 14.2616 10.9036 14.2596 11.1593C14.2565 11.6345 14.2542 12.1097 14.2538 12.5848C14.2538 12.6374 14.2406 12.66 14.1853 12.6716C13.9074 12.7304 13.6307 12.7946 13.3533 12.8569C13.3334 12.8612 13.3136 12.8647 13.2883 12.8697V12.8071C13.2883 11.45 13.2883 10.093 13.2867 8.73598C13.2867 8.68266 13.3038 8.66593 13.3529 8.65503C13.6268 8.59627 13.9004 8.53361 14.174 8.4729C14.1869 8.47018 14.1997 8.46862 14.2254 8.46473H14.2262Z" fill="#2E2A27"/>
<path d="M3.29018 16.8486C3.29018 16.9178 3.29018 16.9844 3.29018 17.0509C3.29018 17.2743 3.2894 17.4977 3.29096 17.7207C3.29096 17.7573 3.28162 17.7736 3.24387 17.7822C3.03022 17.8316 2.81773 17.8861 2.60369 17.9347C2.36046 17.99 2.1219 17.8398 2.06508 17.5996C2.00865 17.3607 2.15109 17.1198 2.39004 17.0599C2.67685 16.9879 2.96445 16.9209 3.25204 16.8521C3.26255 16.8493 3.27422 16.8497 3.29018 16.8486Z" fill="#2E2A27"/>
<path d="M3.29018 18.0363L3.29018 18.4648C3.29018 18.6119 3.28823 18.7586 3.29134 18.9057C3.29212 18.9493 3.27772 18.9633 3.23647 18.9726C3.02477 19.0213 2.81384 19.075 2.60213 19.1236C2.36474 19.1781 2.12696 19.0322 2.06702 18.7983C2.00593 18.5601 2.14408 18.3134 2.38069 18.2527C2.67257 18.1779 2.966 18.1106 3.25904 18.0402C3.26644 18.0386 3.27383 18.0382 3.28979 18.0363L3.29018 18.0363Z" fill="#2E2A27"/>
<path d="M3.28745 15.6585C3.28823 15.6772 3.28979 15.6939 3.28979 15.7106C3.28979 15.9834 3.28901 16.2562 3.29095 16.5294C3.29095 16.5703 3.2785 16.5847 3.23997 16.5937C3.03372 16.6411 2.82823 16.6921 2.62237 16.7408C2.36668 16.8015 2.12345 16.6575 2.06547 16.4119C2.0067 16.1632 2.1542 15.9278 2.41027 15.8655C2.69008 15.7974 2.97028 15.7309 3.25009 15.6639C3.26099 15.6612 3.27227 15.6608 3.28745 15.6589L3.28745 15.6585Z" fill="#2E2A27"/>
<path d="M17.5391 9.9996C17.5232 10.3697 17.5197 10.7402 17.2519 11.0348C17.0842 11.2193 16.8667 11.3041 16.6172 11.2975C16.4358 11.2924 16.3066 11.1511 16.2763 10.9429C16.2463 10.7363 16.3125 10.5682 16.4681 10.4324C16.6009 10.3168 16.7538 10.2335 16.918 10.1767C17.1068 10.1113 17.301 10.0619 17.4928 10.0058C17.5053 10.0023 17.5189 10.0023 17.5391 9.99999V9.9996Z" fill="#FDB82B"/>
<path d="M11.9165 10.5966C11.4533 10.7005 10.9949 10.8032 10.5232 10.9091C10.5376 10.8141 10.5466 10.7293 10.5641 10.646C10.6085 10.4335 10.6863 10.2358 10.8501 10.0844C11.0151 9.93189 11.2121 9.86106 11.4358 9.8739C11.5759 9.88169 11.6868 9.94785 11.7666 10.0626C11.8771 10.2222 11.9118 10.4032 11.9165 10.5966Z" fill="#FDB82B"/>
</svg>
