<svg width="24" height="24" viewBox="0 0 24 24" fill="none" xmlns="http://www.w3.org/2000/svg">
    <path d="M2 16.5C2 15.1193 3.11929 14 4.5 14C5.88071 14 7 15.1193 7 16.5V19.5C7 20.8807 5.88071 22 4.5 22C3.11929 22 2 20.8807 2 19.5V16.5Z" fill="currentColor"/>
    <path d="M9.5 10.5C9.5 9.11929 10.6193 8 12 8C13.3807 8 14.5 9.11929 14.5 10.5V19.5C14.5 20.8807 13.3807 22 12 22C10.6193 22 9.5 20.8807 9.5 19.5V10.5Z" fill="currentColor"/>
    <path d="M17 4.5C17 3.11929 18.1193 2 19.5 2C20.8807 2 22 3.11929 22 4.5V19.5C22 20.8807 20.8807 22 19.5 22C18.1193 22 17 20.8807 17 19.5V4.5Z" fill="currentColor"/>
</svg>
