<svg xmlns="http://www.w3.org/2000/svg" width="32" height="24" fill="none" xmlns:v="https://vecta.io/nano"><rect x=".5" y=".5" width="31" height="23" rx="3.5" fill="#fff" stroke="#ccc"/><g fill="#fdb82b"><path d="M23.011 2H8.99A2.99 2.99 0 0 0 6 4.99v14.021A2.99 2.99 0 0 0 8.99 22h14.021A2.99 2.99 0 0 0 26 19.011V4.99A2.99 2.99 0 0 0 23.011 2z"/><path d="M9.624 15.331v.075 1.952c0 .019.001.038-.002.057-.007.057-.054.098-.11.099a.11.11 0 0 1-.11-.091c-.003-.017-.004-.034-.004-.052l-.002-.9v-1.598a.53.53 0 0 0-.533-.537.53.53 0 0 0-.531.539l.001 4.403c.002.525.235.934.673 1.221.259.17.549.225.857.223.783-.005 1.413-.633 1.413-1.415l-.001-2.322c-.002-.351-.16-.628-.442-.83l-.846-.578-.363-.246v.001zm12.431-3.663c-.03-.087-.07-.165-.081-.247l-.051-.532-.003-1.707a2.07 2.07 0 0 0-.023-.306.93.93 0 0 0-.277-.563c-.189-.175-.421-.236-.67-.24-.376-.006-.733.084-1.069.249-.376.185-.626.477-.714.893-.024.114-.032.232-.048.354l.067-.013.756-.169c.061-.013.09-.034.098-.1.033-.256.186-.405.433-.465.037-.009.075-.016.113-.021a.34.34 0 0 1 .428.311c.021.129.021.262.034.393.004.041-.011.054-.048.062l-.513.115c-.289.064-.571.149-.827.302-.269.161-.484.372-.595.672-.118.319-.11.641.005.958.092.253.264.438.524.53.193.068.389.054.585.006.381-.092.681-.287.845-.658.054.104.099.218.142.333.011.03.029.037.06.029l.309-.07.522-.118v.001zm-7.402.016l.053-.014.69-.155 1.355-.303c.026-.006.047-.008.05-.046.026-.384-.006-.76-.148-1.12-.119-.304-.311-.544-.625-.667-.212-.083-.432-.092-.655-.06-.379.053-.718.195-.998.461-.243.231-.401.515-.503.832-.131.408-.161.825-.121 1.249.027.285.089.561.223.818.143.273.349.478.647.577.221.073.447.073.673.03.416-.079.78-.253 1.061-.579.233-.272.358-.594.421-.943.002-.014.004-.028.006-.047l-.058.012-.761.169c-.071.014-.106.041-.127.114-.076.27-.252.441-.53.498a.43.43 0 0 1-.477-.173c-.137-.195-.179-.417-.175-.653h.001zm-4.123 2.597l.025-.002.807-.181c.038-.008.034-.032.034-.057l.004-.926.001-1.27-.02-.462c-.018-.205-.066-.404-.167-.586s-.239-.307-.44-.356c-.273-.065-.531-.016-.772.123s-.418.34-.569.569l-.029.044-.011-.448-.056.009-.767.166c-.047.01-.058.029-.058.076l.001 2.91v.06a.98.98 0 0 1 .88.094v-.066l.001-1.447a2.01 2.01 0 0 1 .102-.671c.095-.267.261-.459.553-.517.212-.042.366.04.429.246.032.106.05.221.05.332l.002 2.295v.064h0zm14.655-5.863l-.028-.154c-.105-.467-.469-.825-.918-.889-.434-.062-.836.034-1.194.287-.339.238-.541.576-.667.963-.15.46-.175.932-.111 1.409.037.278.108.548.257.791.174.285.421.466.754.521.237.039.47.006.699-.059.329-.093.621-.248.847-.511.213-.247.323-.539.374-.856l.027-.226-.032.003-.812.181c-.035.007-.036.03-.044.054-.034.105-.059.215-.107.314-.089.187-.244.292-.448.325-.184.03-.332-.035-.429-.189-.056-.089-.101-.191-.13-.293-.077-.267-.092-.543-.079-.82.012-.253.051-.501.16-.732.089-.188.218-.334.429-.388.253-.065.437.024.539.263.026.062.043.127.067.197l.848-.19h-.001zm-11.639 4.43l-.053.017-.302.075c-.117.018-.186-.035-.211-.151-.013-.062-.018-.127-.018-.191l.003-1.858v-.052l.628-.142v-.768l-.619.139v-.709l-.875.195v.061l.001.599c0 .037-.008.054-.048.062l-.451.101v.768l.489-.108v.072 1.926c0 .105.012.212.037.314.091.379.376.6.749.577.231-.014.446-.097.653-.197.013-.006.022-.033.022-.051l-.002-.651c0-.007-.001-.014-.003-.028zM7.899 9.793l-.052.008-.797.177c-.049.01-.062.029-.062.078l.001 4.955v.06l.051-.008.797-.178c.048-.01.063-.028.063-.078l-.001-4.955v-.059.001zm10.125-1.007l-.047.007-.747.166c-.045.01-.06.025-.06.074l.001 3.701v.057l.059-.012.756-.168c.05-.011.062-.031.062-.079l.005-1.296c.001-.232-.001-.464.042-.695.09-.478.348-.8.831-.92.037-.009.035-.03.035-.057v-.916c0-.014-.003-.029-.004-.046-.216.051-.419.119-.585.267s-.248.348-.322.552l-.028-.634h-.001zm-9.942 7.622c-.015.001-.025.001-.035.003l-.784.189c-.217.054-.346.273-.295.491a.41.41 0 0 0 .49.305l.582-.139c.034-.008.043-.023.043-.056l-.001-.609v-.184zm0 1.08l-.028.004-.798.193c-.215.055-.341.279-.285.496a.41.41 0 0 0 .486.296l.577-.137c.037-.008.051-.022.05-.061l-.001-.401v-.39h0zm-.002-2.162l-.034.005-.763.183c-.233.057-.367.271-.313.497a.41.41 0 0 0 .506.299l.561-.134c.035-.008.047-.022.046-.058l-.001-.744-.002-.047h0z"/></g><g fill="#2e2a27"><path d="M9.624 15.331l.363.246.846.578c.282.202.44.479.442.83l.001 2.322c0 .782-.631 1.41-1.413 1.415-.308.002-.598-.053-.857-.223-.438-.288-.671-.697-.673-1.221l-.001-4.403a.53.53 0 0 1 .531-.539.53.53 0 0 1 .533.537l.001 1.598.002.9c0 .017 0 .035.004.052a.11.11 0 0 0 .11.091c.056-.001.103-.042.11-.099.002-.019.002-.038.002-.057v-1.952-.075-.001zm12.431-3.663l-.522.118-.309.07c-.031.007-.049.001-.06-.029l-.132-.345c-.174.383-.474.577-.855.67-.196.047-.391.062-.585-.006a.84.84 0 0 1-.524-.53 1.36 1.36 0 0 1-.005-.958c.111-.3.327-.511.595-.672.256-.154.537-.238.827-.302l.513-.115c.037-.008.052-.021.048-.062l-.034-.393a.34.34 0 0 0-.428-.311 1.11 1.11 0 0 0-.113.021c-.247.059-.399.209-.433.465-.009.066-.038.087-.098.1l-.756.169-.067.013.048-.354c.088-.416.338-.708.714-.893a2.32 2.32 0 0 1 1.069-.249c.249.004.481.064.67.24a.93.93 0 0 1 .277.563 2.09 2.09 0 0 1 .023.306l.003 1.707a4.07 4.07 0 0 0 .051.532c.012.082.052.16.081.247v-.001zm-1.02-1.487c-.018.002-.031.002-.042.005l-.523.155a1.24 1.24 0 0 0-.409.232c-.142.123-.202.276-.174.464s.145.318.31.322a.72.72 0 0 0 .577-.239c.243-.268.247-.605.261-.941h0zm-6.382 1.503c-.004.236.038.459.175.653a.43.43 0 0 0 .477.173c.279-.058.454-.229.53-.498.021-.073.056-.1.127-.114l.761-.169.058-.012-.006.047c-.064.349-.188.671-.421.943-.28.326-.645.501-1.061.579-.226.043-.452.043-.673-.03-.298-.099-.504-.304-.647-.577-.134-.256-.196-.532-.223-.818a3.07 3.07 0 0 1 .121-1.249c.102-.317.26-.601.503-.832.28-.266.619-.408.998-.461a1.28 1.28 0 0 1 .655.061c.314.122.506.363.625.667.142.361.173.737.148 1.12-.002.037-.024.04-.05.046l-1.355.304-.69.155-.053.014h-.001zm1.271-.96c-.005-.176-.036-.34-.136-.485-.073-.105-.173-.165-.301-.172a.7.7 0 0 0-.533.191c-.149.138-.22.317-.26.511-.016.076-.024.153-.037.239l1.266-.284zm-5.394 3.557v-.064l-.002-2.295c-.001-.111-.018-.226-.05-.332-.063-.206-.217-.288-.429-.246-.291.058-.458.25-.553.517a2.01 2.01 0 0 0-.102.671l-.001 1.447v.066a.98.98 0 0 0-.88-.095v-.06l-.001-2.91c0-.046.011-.066.058-.076l.767-.166.056-.009v.443c.021-.01.03-.025.04-.04.15-.229.329-.431.569-.569s.498-.188.772-.123c.202.048.341.178.44.356s.148.381.167.586l.02.462-.001 1.27-.004.926c0 .026.005.049-.034.057l-.807.181c-.006.002-.013.001-.026.002h0zm14.656-5.863l-.848.19-.066-.197c-.102-.24-.286-.328-.539-.263-.21.054-.339.201-.428.388-.11.231-.148.479-.16.732a2.49 2.49 0 0 0 .079.82 1.17 1.17 0 0 0 .13.293c.097.155.245.219.429.189.204-.033.36-.138.448-.325.047-.099.073-.209.107-.314.008-.024.009-.047.044-.054l.812-.181.031-.003-.026.226c-.051.317-.162.61-.374.856-.226.263-.518.418-.847.511-.229.065-.462.098-.699.059-.333-.055-.579-.236-.754-.521-.149-.243-.22-.512-.257-.791-.064-.477-.039-.949.111-1.409.126-.387.328-.724.667-.963a1.62 1.62 0 0 1 1.194-.287c.449.064.813.422.919.889l.028.154h.001z"/><path d="M13.547 12.848l.003.028.002.651c0 .017-.009.045-.022.051-.207.1-.422.183-.653.197-.374.023-.658-.198-.749-.577a1.44 1.44 0 0 1-.037-.314v-1.926-.072l-.489.108v-.768l.451-.101c.04-.008.048-.025.048-.062l-.001-.599v-.061l.875-.195v.709l.619-.139v.768l-.628.142v.052l-.003 1.858c0 .064.005.129.018.191.024.116.093.169.211.151.102-.016.202-.049.302-.075l.053-.017zM7.899 9.793v.059l.001 4.955c0 .05-.015.068-.063.078l-.797.178-.051.008v-.06l-.001-4.955c0-.05.013-.068.062-.078l.797-.177.052-.008v-.001zm10.125-1.007l.028.634c.074-.203.155-.403.322-.552s.369-.216.585-.267l.004.046v.916c0 .027.001.048-.035.057-.483.12-.742.443-.831.92-.043.23-.04.462-.042.695l-.005 1.296c0 .048-.012.068-.062.079l-.756.168-.059.012v-.057l-.001-3.701c0-.048.016-.064.06-.074l.746-.166.047-.007h.001zm-9.942 7.622v.184l.001.609c0 .033-.008.048-.043.056l-.582.139a.41.41 0 0 1-.49-.305c-.051-.217.078-.436.295-.491l.784-.189c.01-.003.02-.002.035-.003z"/><path d="M8.082 17.488v.39l.001.401c.001.04-.012.052-.05.061l-.577.137a.41.41 0 0 1-.486-.296c-.056-.217.07-.441.285-.496l.798-.193.028-.004h0zm-.003-2.162l.002.047.001.744c0 .037-.011.05-.046.058l-.561.134a.41.41 0 0 1-.506-.299c-.053-.226.081-.44.313-.497l.763-.183c.01-.002.02-.003.034-.005h0z"/></g><path d="M21.036 10.182c-.014.336-.018.673-.261.941a.72.72 0 0 1-.577.239c-.165-.005-.282-.133-.31-.322s.033-.341.174-.464a1.23 1.23 0 0 1 .409-.232l.523-.155c.011-.003.024-.003.042-.005h0zm-5.112.542l-1.266.284.037-.239c.04-.193.111-.373.26-.511a.7.7 0 0 1 .533-.191.38.38 0 0 1 .301.172c.1.145.132.309.136.485z" fill="#fdb82b"/></svg>