<svg width="24" height="24" viewBox="0 0 24 24" fill="none" xmlns="http://www.w3.org/2000/svg">
  <path
    d="M2 2C2 1.44772 2.44772 1 3 1H4C5.65685 1 7 2.34315 7 4V15.1C6.67689 15.0344 6.34247 15 6 15C5.65753 15 5.32311 15.0344 5 15.1V4C5 3.44772 4.55228 3 4 3H3C2.44772 3 2 2.55228 2 2Z"
    fill="currentColor" />
  <path
    d="M11 20C11 19.6575 10.9656 19.3231 10.9 19H21C21.5523 19 22 19.4477 22 20C22 20.5523 21.5523 21 21 21H10.9C10.9656 20.6769 11 20.3425 11 20Z"
    fill="currentColor" />
  <path fill-rule="evenodd" clip-rule="evenodd"
    d="M11 5C9.89543 5 9 5.89543 9 7V15.0526C9 16.1572 9.89543 17.0526 11 17.0526H19.0526C20.1572 17.0526 21.0526 16.1572 21.0526 15.0526V7C21.0526 5.89543 20.1572 5 19.0526 5H11ZM13 8C12.4477 8 12 8.44772 12 9C12 9.55228 12.4477 10 13 10H17C17.5523 10 18 9.55228 18 9C18 8.44772 17.5523 8 17 8H13Z"
    fill="currentColor" />
  <path
    d="M9 20C9 21.6569 7.65685 23 6 23C4.34315 23 3 21.6569 3 20C3 18.3431 4.34315 17 6 17C7.65685 17 9 18.3431 9 20Z"
    fill="currentColor" />
</svg>
