<svg xmlns="http://www.w3.org/2000/svg" width="24" height="24" fill="none" viewBox="0 0 24 24">
    <path fill="currentColor" d="M18 21v-.8H6v.8a1 1 0 1 1-2 0V3a1 1 0 0 1 2 0v.8h12V3a1 1 0 1 1 2 0v18a1 1 0 1 1-2 0m-5-2.8h1.5v-1.6H13zM9.5 11H11V9.4H9.5zm7 7.2H18V13H6v5.2h5v-1.7c0-.495.19-.975.54-1.333l.136-.128a1.86 1.86 0 0 1 1.199-.44h1.75c.443 0 .866.16 1.2.44l.136.128.123.14c.27.338.416.76.416 1.193zM13 11h5V5.8H6V11h1.5V9.3c0-.495.19-.975.54-1.333l.136-.128A1.86 1.86 0 0 1 9.375 7.4h1.75c.443 0 .866.158 1.2.439l.136.128.123.14c.27.338.416.76.416 1.193z"/>
</svg>
