<svg xmlns="http://www.w3.org/2000/svg" width="24" height="24" fill="none" viewBox="0 0 24 24">
    <path fill="currentColor" d="M20.204 2.01A2 2 0 0 1 22 4v16l-.01.204a2 2 0 0 1-1.786 1.785L20 22H4a2 2 0 0 1-1.99-1.796L2 20V4a2 2 0 0 1 2-2h16zM4 20h16V4H4zm4-5a1 1 0 0 1 1 1v2H7v-2a1 1 0 0 1 1-1m4-2a1 1 0 0 1 1 1v4h-2v-4a1 1 0 0 1 1-1m4-6a1 1 0 0 1 1 1v10h-2V8a1 1 0 0 1 1-1m-3.875-1c.483 0 .875.392.875.875v3.5a.875.875 0 0 1-1.75 0V8.987l-3.757 3.757a.875.875 0 0 1-1.237-1.237l3.757-3.757H8.625a.875.875 0 1 1 0-1.75z"/>
</svg>
