<svg xmlns="http://www.w3.org/2000/svg" width="24" height="24" fill="none" viewBox="0 0 24 24">
    <path fill="currentColor" d="M13.75 2.001a3.05 3.05 0 0 1 2.208.937l3.137 3.227A3.213 3.213 0 0 1 20 8.4v10.8c0 .734-.284 1.443-.796 1.97a2.73 2.73 0 0 1-1.954.83H6.75c-.738 0-1.44-.302-1.954-.83A2.83 2.83 0 0 1 4 19.2V4.8c0-.734.283-1.443.796-1.97A2.73 2.73 0 0 1 6.75 2zM6.75 4a.73.73 0 0 0-.52.225A.83.83 0 0 0 6 4.8v14.4c0 .221.086.427.23.575.142.147.33.225.52.225h10.5c.19 0 .378-.078.52-.225A.83.83 0 0 0 18 19.2V9.4h-3.375c-.507 0-.987-.208-1.336-.567A1.91 1.91 0 0 1 12.75 7.5V4zM12 18H8v-3h4zm2.5-3a1.5 1.5 0 1 1 0 3 1.5 1.5 0 0 1 0-3m.25-7.6h2.757L14.75 4.563z"/>
</svg>
