<svg xmlns="http://www.w3.org/2000/svg" width="50" height="24" fill="none" viewBox="0 0 50 24">
    <path fill="#414042" d="M19.642 20.134h-.407a.3.3 0 0 1-.241-.114v.94a.04.04 0 0 1-.038.04h-.27v-2.53c0-.06.05-.11.114-.11h.842c.283 0 .516.148.516.5v.773c0 .298-.233.5-.516.5m.208-1.275c0-.163-.095-.209-.208-.209h-.609a.04.04 0 0 0-.038.039v.968c.007.093.078.17.17.181h.478a.21.21 0 0 0 .208-.209v-.77M23.742 18.857v1.164c0 .063-.049.114-.113.114H22.8a.516.516 0 0 1-.516-.518v-.11c0-.288.23-.519.516-.519h.598a.04.04 0 0 0 .038-.038v-.089c0-.113-.074-.21-.212-.21h-.704a.04.04 0 0 1-.039-.039v-.252h.743c.286 0 .516.174.516.498zm-.941.975h.601c.022 0 .036-.018.036-.038v-.565c-.018.032-.053.05-.092.053H22.8a.207.207 0 0 0-.209.21v.13c0 .118.093.21.209.21M27.359 18.36c.021 0 .038.014.038.035v2.087a.52.52 0 0 1-.516.518h-.87v-.256a.04.04 0 0 1 .038-.04h.83a.21.21 0 0 0 .21-.209v-.475a.31.31 0 0 1-.245.114h-.4a.52.52 0 0 1-.516-.518v-1.257h.27c.02 0 .038.015.038.036v1.235c0 .113.092.21.208.21h.47a.204.204 0 0 0 .174-.182V18.36h.27M31.742 18.877v1.257h-.27a.04.04 0 0 1-.038-.039V18.86a.21.21 0 0 0-.208-.209h-.46c.035.022.063.057.063.1v1.384h-.268a.04.04 0 0 1-.039-.039v-1.405a.04.04 0 0 0-.038-.039h-.535c-.018 0-.032.014-.035.032v1.413a.04.04 0 0 1-.039.039h-.268v-1.544a.23.23 0 0 1 .23-.23h1.39c.287 0 .517.23.517.517zM33.932 19.616v-.752c0-.33.23-.504.516-.504h.474c.287 0 .517.174.517.504v.408c0 .06-.008.11-.093.11h-.969a.17.17 0 0 1-.138-.067v.316c0 .117.093.21.209.21h.878c.021 0 .038.017.038.038v.256h-.916a.516.516 0 0 1-.516-.518zm.517-.966c-.116 0-.209.068-.209.21v.191c0 .022.015.035.036.039h.824a.04.04 0 0 0 .039-.039v-.192q.001-.211-.205-.209zM39.144 18.877v1.257h-.27a.04.04 0 0 1-.038-.039V18.86a.21.21 0 0 0-.209-.209h-.64a.04.04 0 0 0-.039.039v1.405a.04.04 0 0 1-.038.039h-.27V18.59a.23.23 0 0 1 .23-.23h.757c.287 0 .517.23.517.517M42.226 19.878v.256h-.357a.52.52 0 0 1-.517-.518V17.5h.269c.021 0 .038.018.038.04v.888a.11.11 0 0 1 .103-.064h.375v.256c0 .021-.018.035-.038.035h-.439v.976c0 .117.092.21.209.21h.318c.022 0 .039.017.039.038zM44.263 19.066v-.238c0-.287.198-.469.485-.469h.97v.252a.04.04 0 0 1-.04.04h-.93q-.176 0-.177.174v.103c0 .018.014.033.032.039l1.094.26c.056.01.096.06.096.116v.316c0 .309-.22.476-.506.476h-1.001v-.253c0-.021.017-.038.038-.038h.963c.116 0 .22-.067.22-.185v-.167c0-.018-.015-.031-.033-.035l-1.111-.273a.12.12 0 0 1-.1-.117z"/>
    <path fill="#2f6fb4" d="m10.365 4-.063.002v3.086l.063-.002a3.296 3.296 0 0 1 3.287 3.282h3.076C16.72 6.855 13.868 4 10.364 4"/>
    <path fill="#049b95" d="M13.652 10.368v.016a3.296 3.296 0 0 1-3.287 3.298l-.063-.002v3.086l.063.002c3.508 0 6.364-2.863 6.364-6.384v-.016z"/>
    <path fill="#ef3e37" d="M10.302 7.088V4.002C6.826 4.036 4.009 6.877 4 10.368h3.077a3.297 3.297 0 0 1 3.225-3.28"/>
    <path fill="#f78d22" d="M7.077 10.384v-.017H4v.017c0 3.498 2.822 6.347 6.302 6.381V13.68a3.296 3.296 0 0 1-3.225-3.297"/>
    <path fill="#144a8c" d="M10.365 6.216h-.042v2.015h.041c1.18 0 2.142.96 2.147 2.143h2.01c-.007-2.294-1.868-4.158-4.157-4.158"/>
    <path fill="#02746e" d="M12.511 10.374v.01a2.15 2.15 0 0 1-2.146 2.154l-.042-.001v2.015h.041a4.166 4.166 0 0 0 4.156-4.168v-.01z"/>
    <path fill="#c72127" d="M10.323 8.231V6.216a4.166 4.166 0 0 0-4.115 4.157h2.01a2.15 2.15 0 0 1 2.105-2.142"/>
    <path fill="#ce6a28" d="M8.218 10.384v-.011h-2.01v.01a4.167 4.167 0 0 0 4.115 4.168v-2.015a2.15 2.15 0 0 1-2.105-2.152"/>
    <path fill="#414042" d="M18.59 5.644c0-.82 1.228-.804 1.228 0v9.82c0 .756-1.228.788-1.228 0zM23.502 11.178h3.306c2.145 0 3.078-1.002 3.046-2.233-.017-1.347-1.147-2.43-3.046-2.43h-3.306v4.662m0 1.035v3.185c0 .756-1.195.756-1.195.016V5.99c0-.345.245-.574.606-.574h3.88c2.832 0 4.273 1.609 4.273 3.53 0 1.658-.9 2.857-2.914 3.201l2.653 2.874c.622.624-.279 1.347-.819.788l-3.307-3.596h-3.177M33.29 5.644c0-.82 1.229-.804 1.229 0v9.82c0 .756-1.228.788-1.228 0zM37.335 13.28c.426 1.363 2.242 1.659 3.553 1.659 1.391 0 3.552-.428 3.552-2.085 0-1.43-1.719-1.544-3.52-1.691-2.259-.18-4.681-.394-4.681-2.841 0-2.168 2.488-3.136 4.486-3.136 1.719 0 3.863.41 4.551 2.282.245.657-.868.953-1.113.394-.491-1.247-2.243-1.461-3.422-1.461-1.097 0-3.225.443-3.225 1.938s1.637 1.576 3.536 1.724c2.243.197 4.65.313 4.65 2.775 0 2.463-2.799 3.285-4.812 3.285-1.67 0-4.224-.575-4.765-2.546-.196-.722 1.08-.968 1.212-.295"/>
</svg>
