<svg width="24" height="24" viewBox="0 0 24 24" fill="none" xmlns="http://www.w3.org/2000/svg">
  <path d="M6 11C8.76142 11 11 8.76142 11 6C11 3.23858 8.76142 1 6 1C3.23858 1 1 3.23858 1 6C1 8.76142 3.23858 11 6 11Z"
    fill="currentColor" />
  <path
    d="M6 23C8.76142 23 11 20.7614 11 18C11 15.2386 8.76142 13 6 13C3.23858 13 1 15.2386 1 18C1 20.7614 3.23858 23 6 23Z"
    fill="currentColor" />
  <path
    d="M23 6C23 8.76142 20.7614 11 18 11C15.2386 11 13 8.76142 13 6C13 3.23858 15.2386 1 18 1C20.7614 1 23 3.23858 23 6Z"
    fill="currentColor" />
  <path
    d="M18 23C20.7614 23 23 20.7614 23 18C23 15.2386 20.7614 13 18 13C15.2386 13 13 15.2386 13 18C13 20.7614 15.2386 23 18 23Z"
    fill="currentColor" />
</svg>
