<svg width="24" height="24" viewBox="0 0 24 24" fill="none" xmlns="http://www.w3.org/2000/svg">
  <path
    d="M20.9999 1H14.2389C13.4438 1.00234 12.6819 1.31862 12.1189 1.88L1.87786 12.121C1.31575 12.6835 1 13.4463 1 14.2415C1 15.0367 1.31575 15.7995 1.87786 16.362L7.63786 22.122C8.2004 22.6841 8.96311 22.9999 9.75836 22.9999C10.5536 22.9999 11.3163 22.6841 11.8789 22.122L22.1199 11.881C22.6812 11.318 22.9975 10.5561 22.9999 9.761V3C22.9983 2.47005 22.7871 1.96227 22.4123 1.58753C22.0376 1.2128 21.5298 1.00158 20.9999 1ZM17.4999 8C17.2032 8 16.9132 7.91203 16.6665 7.7472C16.4198 7.58238 16.2276 7.34811 16.114 7.07403C16.0005 6.79994 15.9708 6.49834 16.0287 6.20736C16.0866 5.91639 16.2294 5.64912 16.4392 5.43934C16.649 5.22956 16.9163 5.0867 17.2072 5.02882C17.4982 4.97094 17.7998 5.00065 18.0739 5.11418C18.348 5.22771 18.5822 5.41997 18.7471 5.66664C18.9119 5.91332 18.9999 6.20333 18.9999 6.5C18.9999 6.89782 18.8418 7.27936 18.5605 7.56066C18.2792 7.84196 17.8977 8 17.4999 8Z"
    fill="currentColor" />
</svg>
