<svg xmlns="http://www.w3.org/2000/svg" width="24" height="24" fill="none" viewBox="0 0 24 24">
    <path fill="currentColor" d="M15.324 9.101a.425.425 0 1 1 0-.85.425.425 0 0 1 0 .85"/>
    <path fill="currentColor" d="M21 11.798V5.7A2.7 2.7 0 0 0 18.3 3h-6.098c-.716 0-1.403.285-1.909.791l-7.402 7.402a3.064 3.064 0 0 0 0 4.318l.002.003 5.593 5.593.003.002a3.063 3.063 0 0 0 4.318 0l7.402-7.402c.506-.506.79-1.193.791-1.91m-6.251-3.122c0-.278.197-.51.459-.563l.116-.011c.317 0 .574.257.574.574l-.011.116a.575.575 0 0 1-1.138-.116m-.85 0a1.426 1.426 0 1 0 2.852-.001 1.426 1.426 0 0 0-2.853 0M19 11.798a.7.7 0 0 1-.205.495l-7.399 7.398-.077.07a1.063 1.063 0 0 1-1.418-.068L4.307 14.1a1.06 1.06 0 0 1 0-1.494l7.4-7.4A.7.7 0 0 1 12.202 5H18.3a.7.7 0 0 1 .7.7z"/>
</svg>
