<svg xmlns="http://www.w3.org/2000/svg" width="32" height="24" fill="none" viewBox="0 0 32 24">
    <rect width="31" height="23" x=".5" y=".5" fill="#fff" rx="3.5"/>
    <rect width="31" height="23" x=".5" y=".5" stroke="#ccc" rx="3.5"/>
    <path fill="url(#jcb_32_svg__a)" d="M22.241 13.952h1.781c.051 0 .17-.017.22-.017a.78.78 0 0 0 .628-.776.81.81 0 0 0-.627-.777c-.051-.016-.153-.016-.22-.016H22.24z"/>
    <path fill="url(#jcb_32_svg__b)" d="M23.819 3c-1.697 0-3.088 1.338-3.088 3.006v3.122h4.36c.101 0 .22 0 .305.017.984.05 1.713.545 1.713 1.404 0 .677-.492 1.255-1.408 1.371v.033c1.001.066 1.765.611 1.765 1.454 0 .908-.849 1.503-1.968 1.503h-4.784v6.112h4.53c1.696 0 3.087-1.338 3.087-3.007V3z"/>
    <path fill="url(#jcb_32_svg__c)" d="M24.65 10.747c0-.396-.288-.66-.628-.71-.034 0-.118-.017-.17-.017h-1.61v1.454h1.61c.052 0 .153 0 .17-.017.34-.05.628-.314.628-.71"/>
    <path fill="url(#jcb_32_svg__d)" d="M6.754 3C5.057 3 3.666 4.338 3.666 6.006v7.417c.865.413 1.765.678 2.664.678 1.068 0 1.645-.628 1.645-1.487V9.112h2.646v3.485c0 1.355-.865 2.462-3.8 2.462-1.78 0-3.172-.38-3.172-.38v6.326h4.53c1.696 0 3.087-1.338 3.087-3.006V3z"/>
    <path fill="url(#jcb_32_svg__e)" d="M15.286 3c-1.696 0-3.087 1.338-3.087 3.006v3.932c.78-.644 2.137-1.057 4.325-.958 1.17.05 2.426.363 2.426.363v1.272c-.628-.314-1.374-.595-2.34-.66-1.663-.116-2.664.677-2.664 2.064 0 1.404 1 2.197 2.663 2.065.967-.066 1.713-.363 2.34-.66v1.271s-1.237.314-2.425.364c-2.188.099-3.545-.314-4.325-.958v6.937h4.529c1.696 0 3.087-1.338 3.087-3.006V3z"/>
    <defs>
        <linearGradient id="jcb_32_svg__a" x1="20.729" x2="28.351" y1="13.161" y2="13.161" gradientUnits="userSpaceOnUse">
            <stop stop-color="#007940"/>
            <stop offset=".229" stop-color="#00873f"/>
            <stop offset=".743" stop-color="#40a737"/>
            <stop offset="1" stop-color="#5cb531"/>
        </linearGradient>
        <linearGradient id="jcb_32_svg__b" x1="20.728" x2="28.352" y1="12.004" y2="12.004" gradientUnits="userSpaceOnUse">
            <stop stop-color="#007940"/>
            <stop offset=".229" stop-color="#00873f"/>
            <stop offset=".743" stop-color="#40a737"/>
            <stop offset="1" stop-color="#5cb531"/>
        </linearGradient>
        <linearGradient id="jcb_32_svg__c" x1="20.729" x2="28.352" y1="10.745" y2="10.745" gradientUnits="userSpaceOnUse">
            <stop stop-color="#007940"/>
            <stop offset=".229" stop-color="#00873f"/>
            <stop offset=".743" stop-color="#40a737"/>
            <stop offset="1" stop-color="#5cb531"/>
        </linearGradient>
        <linearGradient id="jcb_32_svg__d" x1="3.663" x2="11.403" y1="12.004" y2="12.004" gradientUnits="userSpaceOnUse">
            <stop stop-color="#1f286f"/>
            <stop offset=".475" stop-color="#004e94"/>
            <stop offset=".826" stop-color="#0066b1"/>
            <stop offset="1" stop-color="#006fbc"/>
        </linearGradient>
        <linearGradient id="jcb_32_svg__e" x1="12.155" x2="19.673" y1="12.004" y2="12.004" gradientUnits="userSpaceOnUse">
            <stop stop-color="#6c2c2f"/>
            <stop offset=".173" stop-color="#882730"/>
            <stop offset=".573" stop-color="#be1833"/>
            <stop offset=".859" stop-color="#dc0436"/>
            <stop offset="1" stop-color="#e60039"/>
        </linearGradient>
    </defs>
</svg>
