<svg width="24" height="24" viewBox="0 0 24 24" fill="none" xmlns="http://www.w3.org/2000/svg">
    <path d="M22 16.298a3.11 3.11 0 0 1-3.105 3.105H2V7.105A3.11 3.11 0 0 1 5.105 4H22v12.298z" fill="#fff"/>
    <path d="M16.499 13.144h1.283c.037 0 .122-.012.16-.012a.573.573 0 0 0 .451-.575.593.593 0 0 0-.452-.574c-.037-.012-.11-.012-.159-.012H16.5v1.173z" fill="url(#jcb_24_svg__a)"/>
    <path d="M17.636 5.04c-1.223 0-2.225.99-2.225 2.224v2.31h3.141c.074 0 .16 0 .22.013.71.036 1.235.403 1.235 1.039 0 .501-.354.929-1.014 1.014v.025c.72.049 1.271.452 1.271 1.076 0 .672-.611 1.112-1.418 1.112h-3.448v4.524h3.265c1.222 0 2.224-.99 2.224-2.226V5.04h-3.251z" fill="url(#jcb_24_svg__b)"/>
    <path d="M18.235 10.773a.52.52 0 0 0-.453-.526c-.024 0-.085-.012-.122-.012h-1.161v1.075h1.161c.037 0 .11 0 .122-.012a.52.52 0 0 0 .453-.525z" fill="url(#jcb_24_svg__c)"/>
    <path d="M5.337 5.04c-1.222 0-2.225.99-2.225 2.224v5.489c.624.306 1.272.501 1.92.501.77 0 1.186-.464 1.186-1.1V9.562h1.907v2.58c0 1.002-.624 1.821-2.739 1.821-1.283 0-2.286-.28-2.286-.28v4.681h3.264c1.223 0 2.225-.99 2.225-2.225V5.04H5.337z" fill="url(#jcb_24_svg__d)"/>
    <path d="M11.486 5.04c-1.222 0-2.224.99-2.224 2.224v2.91c.562-.477 1.54-.783 3.117-.71.844.037 1.748.27 1.748.27v.94a4.231 4.231 0 0 0-1.687-.488c-1.198-.086-1.92.501-1.92 1.528 0 1.039.722 1.626 1.92 1.528.697-.049 1.235-.269 1.687-.489v.941s-.892.233-1.748.27c-1.577.073-2.555-.233-3.117-.71v5.135h3.264c1.222 0 2.225-.99 2.225-2.225V5.039h-3.264z" fill="url(#jcb_24_svg__e)"/>
    <defs>
        <linearGradient id="jcb_24_svg__a" x1="15.409" y1="12.559" x2="20.902" y2="12.559" gradientUnits="userSpaceOnUse">
            <stop stop-color="#007940"/>
            <stop offset=".229" stop-color="#00873F"/>
            <stop offset=".743" stop-color="#40A737"/>
            <stop offset="1" stop-color="#5CB531"/>
        </linearGradient>
        <linearGradient id="jcb_24_svg__b" x1="15.409" y1="11.702" x2="20.902" y2="11.702" gradientUnits="userSpaceOnUse">
            <stop stop-color="#007940"/>
            <stop offset=".229" stop-color="#00873F"/>
            <stop offset=".743" stop-color="#40A737"/>
            <stop offset="1" stop-color="#5CB531"/>
        </linearGradient>
        <linearGradient id="jcb_24_svg__c" x1="15.409" y1="10.771" x2="20.902" y2="10.771" gradientUnits="userSpaceOnUse">
            <stop stop-color="#007940"/>
            <stop offset=".229" stop-color="#00873F"/>
            <stop offset=".743" stop-color="#40A737"/>
            <stop offset="1" stop-color="#5CB531"/>
        </linearGradient>
        <linearGradient id="jcb_24_svg__d" x1="3.11" y1="11.702" x2="8.688" y2="11.702" gradientUnits="userSpaceOnUse">
            <stop stop-color="#1F286F"/>
            <stop offset=".475" stop-color="#004E94"/>
            <stop offset=".826" stop-color="#0066B1"/>
            <stop offset="1" stop-color="#006FBC"/>
        </linearGradient>
        <linearGradient id="jcb_24_svg__e" x1="9.23" y1="11.702" x2="14.648" y2="11.702" gradientUnits="userSpaceOnUse">
            <stop stop-color="#6C2C2F"/>
            <stop offset=".173" stop-color="#882730"/>
            <stop offset=".573" stop-color="#BE1833"/>
            <stop offset=".859" stop-color="#DC0436"/>
            <stop offset="1" stop-color="#E60039"/>
        </linearGradient>
    </defs>
</svg>
