<svg xmlns="http://www.w3.org/2000/svg" width="24" height="24" fill="none" viewBox="0 0 24 24">
    <path fill="currentColor" d="M16.025 8.424a.45.45 0 1 0 0-.898.45.45 0 0 0 0 .898"/>
    <path fill="currentColor" d="M16.565 7.864a.55.55 0 0 0-.43-.428l-.11-.012a.55.55 0 0 0-.55.55l.01.112a.551.551 0 0 0 1.08 0l.011-.111zM4 20h2.491v-.797c0-.503.2-.986.557-1.342l.139-.126c.337-.276.762-.43 1.203-.43h.797v-.796a1.9 1.9 0 0 1 1.898-1.899h.154a.8.8 0 0 0 .563-.233l.731-.732a1 1 0 0 1 1.036-.237 4.838 4.838 0 1 0-2.977-2.977 1 1 0 0 1-.238 1.036l-6.12 6.12A.8.8 0 0 0 4 18.15zm7.187-2.593a1.9 1.9 0 0 1-1.899 1.898h-.797v.797A1.9 1.9 0 0 1 6.593 22H3.898A1.9 1.9 0 0 1 2 20.102V18.15c0-.741.295-1.453.82-1.977l5.701-5.702a6.838 6.838 0 1 1 13.436-2.4 6.84 6.84 0 0 1-4.53 7.221 6.84 6.84 0 0 1-3.899.187l-.311.312a2.8 2.8 0 0 1-1.701.806l-.277.013h-.053zm6.288-9.432a1.45 1.45 0 0 1-2.892.148l-.007-.148.007-.148a1.45 1.45 0 0 1 1.442-1.302l.148.008a1.45 1.45 0 0 1 1.302 1.442"/>
</svg>
