<svg width="24" height="24" viewBox="0 0 24 24" fill="none" xmlns="http://www.w3.org/2000/svg">
  <path fill-rule="evenodd" clip-rule="evenodd"
    d="M8 15C11.866 15 15 11.866 15 8C15 4.13401 11.866 1 8 1C4.13401 1 1 4.13401 1 8C1 11.866 4.13401 15 8 15ZM6 8C7.10457 8 8 7.10457 8 6C8 4.89543 7.10457 4 6 4C4.89543 4 4 4.89543 4 6C4 7.10457 4.89543 8 6 8Z"
    fill="currentColor" />
  <path
    d="M12.275 15.7788L15.9299 19.4337L15.9393 19.4242C16.5251 18.8384 17.4749 18.8384 18.0606 19.4242C18.6464 20.01 18.6464 20.9597 18.0606 21.5455L18.0511 21.5549L18.7508 22.2546C19.7272 23.2309 21.3101 23.2309 22.2864 22.2546C23.2627 21.2783 23.2627 19.6954 22.2864 18.7191L15.8105 12.2433L12.275 15.7788Z"
    fill="currentColor" />
</svg>
