<svg xmlns="http://www.w3.org/2000/svg" width="24" height="24" fill="none" viewBox="0 0 24 24">
    <path fill="currentColor" fill-rule="evenodd" d="M4 1a3 3 0 0 0-3 3v16a3 3 0 0 0 3 3h10a3 3 0 0 0 3-3v-2.126A4 4 0 0 1 14 14v-3a4 4 0 0 1 3-3.874V4a3 3 0 0 0-3-3zm2 4a1 1 0 0 0-1 1v1a1 1 0 0 0 1 1h1a1 1 0 0 0 1-1V6a1 1 0 0 0-1-1zm3 12a1 1 0 1 0 0 2h3a1 1 0 1 0 0-2zm1-11a1 1 0 0 1 1-1h1a1 1 0 0 1 1 1v1a1 1 0 0 1-1 1h-1a1 1 0 0 1-1-1zm-4 4a1 1 0 0 0-1 1v1a1 1 0 0 0 1 1h1a1 1 0 0 0 1-1v-1a1 1 0 0 0-1-1z" clip-rule="evenodd"/>
    <path fill="currentColor" d="M18 9a2 2 0 0 0-2 2v3a2 2 0 0 0 2 2h3a2 2 0 0 0 2-2v-3a2 2 0 0 0-2-2z"/>
</svg>
