<svg xmlns="http://www.w3.org/2000/svg" width="24" height="24" fill="none" viewBox="0 0 24 24">
    <path fill="currentColor" d="M16 3a2 2 0 0 1 2 2v2.5h-2V5H6v14h10v-1.5h2V19a2 2 0 0 1-2 2H6a2 2 0 0 1-2-2V5a2 2 0 0 1 2-2zm3 6.5a1 1 0 0 1 1 1v4a1 1 0 0 1-1 1h-4a1 1 0 0 1-1-1v-4a1 1 0 0 1 1-1zM10 12H8v-2h2zm2-3H8V7h4z"/>
    <path fill="currentColor" d="M16 3a2 2 0 0 1 2 2v2.5h-2V5H6v14h10v-1.5h2V19a2 2 0 0 1-2 2H6a2 2 0 0 1-2-2V5a2 2 0 0 1 2-2zm3 6.5a1 1 0 0 1 1 1v4a1 1 0 0 1-1 1h-4a1 1 0 0 1-1-1v-4a1 1 0 0 1 1-1zM10 12H8v-2h2zm2-3H8V7h4z"/>
    <path fill="currentColor" d="M16 3a2 2 0 0 1 2 2v2.5h-2V5H6v14h10v-1.5h2V19a2 2 0 0 1-2 2H6a2 2 0 0 1-2-2V5a2 2 0 0 1 2-2zm3 6.5a1 1 0 0 1 1 1v4a1 1 0 0 1-1 1h-4a1 1 0 0 1-1-1v-4a1 1 0 0 1 1-1zM10 12H8v-2h2zm2-3H8V7h4z"/>
</svg>
