<svg xmlns="http://www.w3.org/2000/svg" width="32" height="24" fill="none" viewBox="0 0 32 24">
    <g clip-path="url(#klarna_32_svg__a)">
        <rect width="32" height="24" fill="#ffb3c7" rx="4"/>
        <path fill="#000" d="M28.26 13.337a.744.744 0 0 0-.74.747c0 .412.331.747.74.747s.74-.335.74-.747a.744.744 0 0 0-.74-.747m-2.436-.577c0-.565-.478-1.023-1.068-1.023s-1.069.458-1.069 1.023c0 .564.479 1.022 1.069 1.022s1.069-.458 1.069-1.022m.004-1.988h1.18v3.975h-1.18v-.254c-.333.229-.735.364-1.169.364a2.09 2.09 0 0 1-2.078-2.097c0-1.159.93-2.098 2.078-2.098.434 0 .836.135 1.17.364zm-9.437.518v-.518h-1.207v3.975h1.21V12.89c0-.626.672-.962 1.139-.962h.014v-1.156c-.48 0-.92.207-1.156.517m-3.007 1.47c0-.565-.479-1.023-1.07-1.023-.59 0-1.068.458-1.068 1.023 0 .564.479 1.022 1.069 1.022s1.069-.458 1.069-1.022m.003-1.988h1.18v3.975h-1.18v-.254c-.333.229-.735.364-1.169.364a2.09 2.09 0 0 1-2.078-2.097c0-1.159.93-2.098 2.078-2.098.434 0 .836.135 1.17.364zm7.099-.107c-.471 0-.917.148-1.216.555v-.447h-1.174v3.974h1.189v-2.089c0-.604.402-.9.885-.9.519 0 .816.312.816.892v2.097h1.178v-2.528c0-.925-.728-1.554-1.678-1.554M8.422 14.747h1.234V9H8.422zM3 14.748h1.307V9H3zM7.572 9c0 1.245-.481 2.402-1.338 3.263l1.807 2.486H6.427l-1.964-2.702.507-.383A3.31 3.31 0 0 0 6.292 9z"/>
        <rect width="31" height="23" x=".5" y=".5" stroke="#ccc" rx="3.5"/>
    </g>
    <defs>
        <clipPath id="klarna_32_svg__a">
            <rect width="32" height="24" fill="#fff" rx="4"/>
        </clipPath>
    </defs>
</svg>
