<svg width="32" height="24" viewBox="0 0 32 24" fill="none" xmlns="http://www.w3.org/2000/svg">
    <path d="M0 4a4 4 0 0 1 4-4h24a4 4 0 0 1 4 4v16a4 4 0 0 1-4 4H4a4 4 0 0 1-4-4V4Z" fill="#FFB3C7"/>
    <path d="M28.26 13.34a.74.74 0 0 0 0 1.5c.4 0 .74-.34.74-.76a.74.74 0 0 0-.74-.74Zm-2.44-.58c0-.57-.47-1.02-1.06-1.02-.6 0-1.07.45-1.07 1.02 0 .56.48 1.02 1.07 1.02.59 0 1.06-.46 1.06-1.02Zm0-1.99h1.19v3.98h-1.18v-.26c-.33.23-.74.37-1.17.37a2.09 2.09 0 0 1-2.08-2.1 2.09 2.09 0 0 1 3.25-1.73v-.26Zm-9.43.52v-.52h-1.2v3.98h1.2v-1.86c0-.62.68-.96 1.14-.96h.02v-1.16c-.48 0-.92.21-1.16.52Zm-3 1.47c0-.57-.49-1.02-1.08-1.02-.59 0-1.06.45-1.06 1.02 0 .56.47 1.02 1.06 1.02.6 0 1.07-.46 1.07-1.02Zm0-1.99h1.18v3.98h-1.18v-.26c-.34.23-.74.37-1.17.37a2.09 2.09 0 0 1-2.08-2.1 2.09 2.09 0 0 1 3.25-1.73v-.26Zm7.1-.1c-.48 0-.92.14-1.22.55v-.45H18.1v3.98h1.18v-2.1c0-.6.4-.9.89-.9.52 0 .82.32.82.9v2.1h1.17v-2.53c0-.93-.72-1.55-1.67-1.55ZM8.42 14.75h1.24V9H8.42v5.75Zm-5.42 0h1.3V9H3v5.75ZM7.57 9a4.6 4.6 0 0 1-1.34 3.26l1.81 2.49H6.43l-1.97-2.7.51-.39A3.31 3.31 0 0 0 6.29 9h1.28Z" fill="#000"/>
</svg>
