<svg width="40" height="24" viewBox="0 0 40 24" fill="none" xmlns="http://www.w3.org/2000/svg">
    <path d="M34.543 2H5.457A3.457 3.457 0 0 0 2 5.457v13.086A3.457 3.457 0 0 0 5.457 22h29.086A3.457 3.457 0 0 0 38 18.543V5.457A3.457 3.457 0 0 0 34.543 2z" fill="#FFB3C7"/>
    <path d="M34.635 13.717a.857.857 0 0 0-.853.86c0 .476.382.861.853.861a.857.857 0 0 0 .853-.86.857.857 0 0 0-.853-.86zm-2.806-.665c0-.65-.55-1.178-1.23-1.178-.68 0-1.232.527-1.232 1.178 0 .65.551 1.178 1.231 1.178s1.231-.527 1.231-1.178zm.005-2.29h1.359v4.58h-1.359v-.293c-.384.264-.847.42-1.347.42a2.406 2.406 0 0 1-2.395-2.417 2.405 2.405 0 0 1 2.395-2.416c.5 0 .963.155 1.347.42v-.294zm-10.874.597v-.597h-1.39v4.58h1.393v-2.139c0-.72.775-1.109 1.313-1.109l.016.001v-1.332c-.552 0-1.06.238-1.332.596zm-3.465 1.693c0-.65-.551-1.178-1.231-1.178s-1.231.527-1.231 1.178c0 .65.55 1.178 1.23 1.178.68 0 1.232-.527 1.232-1.178zm.005-2.29h1.358v4.58H17.5v-.293c-.384.264-.848.42-1.347.42a2.406 2.406 0 0 1-2.395-2.417 2.405 2.405 0 0 1 2.395-2.416c.5 0 .963.155 1.347.42v-.294zm8.178-.123c-.543 0-1.056.17-1.4.64v-.517h-1.353v4.58h1.37v-2.407c0-.696.462-1.037 1.02-1.037.597 0 .94.36.94 1.028v2.415h1.357V12.43c0-1.066-.84-1.79-1.934-1.79v-.001zm-13.9 4.703h1.423v-6.62h-1.422v6.62zm-6.247.001h1.506V8.72H5.531v6.623zM10.8 8.72a5.293 5.293 0 0 1-1.54 3.76l2.08 2.864H9.48L7.219 12.23l.583-.441a3.815 3.815 0 0 0 1.524-3.07h1.474z" fill="#0A0B09"/>
</svg>
