<svg xmlns="http://www.w3.org/2000/svg" width="24" height="24" fill="none" viewBox="0 0 24 24">
    <path fill="currentColor" d="M7 1a1 1 0 0 0-1 1v2H2a1 1 0 0 0 0 2h8.947a9.4 9.4 0 0 1-3.476 6.343l-.279.223A8.2 8.2 0 0 1 4.45 8.684a1 1 0 0 0-1.898.632 10.2 10.2 0 0 0 3.044 4.527l-4.22 3.376a1 1 0 0 0 1.25 1.562l4.656-3.725 2.664 1.776a1 1 0 0 0 1.11-1.664l-2.138-1.425A11.4 11.4 0 0 0 12.957 6H16a1 1 0 1 0 0-2H8V2a1 1 0 0 0-1-1"/>
    <path fill="currentColor" fill-rule="evenodd" d="M17.923 9.615a1 1 0 0 0-1.846 0l-5 12a1 1 0 1 0 1.846.77L14.333 19h5.334l1.41 3.385a1 1 0 0 0 1.846-.77zm.91 7.385L17 12.6 15.167 17z" clip-rule="evenodd"/>
</svg>
