<svg xmlns="http://www.w3.org/2000/svg" width="24" height="24" fill="none" viewBox="0 0 24 24">
    <path fill="currentColor" d="m14.984 18.255-.784 2.183a.84.84 0 0 1-.323.405.9.9 0 0 1-.507.157.9.9 0 0 1-.75-.371q-.288-.371-.103-.822l3.505-9.044a1 1 0 0 1 .346-.405.9.9 0 0 1 .508-.158h.691a.9.9 0 0 1 .508.158q.23.157.346.404l3.505 9.068a.75.75 0 0 1-.092.799.88.88 0 0 1-.738.371.87.87 0 0 1-.519-.157 1 1 0 0 1-.334-.428l-.784-2.16zm-5.558-4.477L5.413 17.67a.91.91 0 0 1-.634.259.87.87 0 0 1-.657-.259.84.84 0 0 1-.254-.63q0-.383.254-.63l4.013-3.915a10.5 10.5 0 0 1-1.465-1.8A15.5 15.5 0 0 1 5.46 8.4h1.937q.461.877.922 1.53.462.652 1.107 1.305.762-.743 1.58-2.081.819-1.34 1.234-2.554H2.923a.9.9 0 0 1-.658-.259A.86.86 0 0 1 2 5.7a.86.86 0 0 1 .265-.641.9.9 0 0 1 .658-.259h5.535v-.9a.86.86 0 0 1 .265-.641A.9.9 0 0 1 9.38 3q.392 0 .657.259a.86.86 0 0 1 .266.641v.9h5.535q.391 0 .657.259a.86.86 0 0 1 .265.641.86.86 0 0 1-.265.641.9.9 0 0 1-.657.259h-1.753q-.484 1.62-1.453 3.33t-1.914 2.61l2.214 2.205-.692 1.845zm6.135 2.902h3.32l-1.66-4.59z"/>
</svg>
