<svg width="24" height="24" viewBox="0 0 24 24" fill="none" xmlns="http://www.w3.org/2000/svg">
<path d="M7.00002 1C6.44774 1 6.00002 1.44772 6.00002 2V4H2.00002C1.44774 4 1.00002 4.44772 1.00002 5C1.00002 5.55228 1.44774 6 2.00002 6H10.9468C10.6818 8.47918 9.43927 10.768 7.471 12.3426L7.19206 12.5657C5.91869 11.5731 4.96214 10.224 4.44873 8.6838C4.27409 8.15986 3.70777 7.8767 3.18382 8.05134C2.65988 8.22599 2.37672 8.79231 2.55137 9.31625C3.13941 11.0804 4.19503 12.6429 5.59542 13.843L1.37534 17.2191C0.94408 17.5641 0.874158 18.1934 1.21917 18.6247C1.56418 19.0559 2.19347 19.1259 2.62473 18.7808L7.28099 15.0558L9.94535 16.8321C10.4049 17.1384 11.0257 17.0143 11.3321 16.5547C11.6385 16.0952 11.5143 15.4743 11.0548 15.168L8.9174 13.7431C11.2452 11.7942 12.6919 9.00416 12.9562 6H16C16.5523 6 17 5.55228 17 5C17 4.44772 16.5523 4 16 4H12.0064L12 3.99998L11.9936 4H8.00002V2C8.00002 1.44772 7.55231 1 7.00002 1Z" fill="currentColor"/>
<path fill-rule="evenodd" clip-rule="evenodd" d="M17.9231 9.61539C17.7678 9.24274 17.4037 9 17 9C16.5963 9 16.2322 9.24274 16.077 9.61539L11.077 21.6154C10.8645 22.1252 11.1056 22.7107 11.6154 22.9231C12.1252 23.1355 12.7107 22.8944 12.9231 22.3846L14.3334 19H19.6667L21.077 22.3846C21.2894 22.8944 21.8749 23.1355 22.3847 22.9231C22.8945 22.7107 23.1355 22.1252 22.9231 21.6154L17.9231 9.61539ZM18.8334 17L17 12.6L15.1667 17H18.8334Z" fill="currentColor"/>
</svg>
