<svg xmlns="http://www.w3.org/2000/svg" width="24" height="24" fill="none" viewBox="0 0 24 24">
    <path fill="currentColor" d="M18.244 6.866a.9.9 0 0 0-.248-.623.79.79 0 0 0-.563-.243H6.567a.79.79 0 0 0-.563.243.9.9 0 0 0-.248.623v7.389h12.488zM4.422 18.085l.03-.018h-.02zm0 0 .01-.018h.02zM4.537 18h14.926l-.85-1.745H5.387zm15.707-3.176c0 .14.032.277.091.4l.966 1.983a1.96 1.96 0 0 1-.08 1.868c-.17.28-.408.515-.695.678a1.9 1.9 0 0 1-.938.246L4.412 20v-.001a1.9 1.9 0 0 1-.938-.246 1.9 1.9 0 0 1-.695-.678 1.96 1.96 0 0 1-.08-1.868l.966-1.983c.06-.123.09-.26.09-.4V6.866c.001-.75.29-1.476.813-2.015a2.79 2.79 0 0 1 2-.851h10.865c.755 0 1.474.31 1.999.85.523.54.812 1.266.812 2.016z"/>
</svg>
