<svg xmlns="http://www.w3.org/2000/svg" width="24" height="24" fill="none" viewBox="0 0 24 24">
    <path fill="currentColor" d="M14.658 4.165a6.04 6.04 0 0 1 3.52.22 5.93 5.93 0 0 1 2.779 2.15A5.77 5.77 0 0 1 22 9.861l-.005.232c-.1 2.362-1.704 4.067-2.995 5.332l-.013.01-4.922 4.665a2.8 2.8 0 0 1-.904.65 2.83 2.83 0 0 1-2.29.015 2.8 2.8 0 0 1-.913-.64l-4.946-4.69-.012-.01c-1.332-1.305-3-3.072-3-5.564a5.8 5.8 0 0 1 1.053-3.321A5.94 5.94 0 0 1 5.827 4.4a6.05 6.05 0 0 1 3.512-.223c.995.235 1.91.718 2.659 1.401a6 6 0 0 1 2.66-1.412M4 9.862c0 1.56 1.025 2.788 2.388 4.123l4.958 4.7.05.052a.8.8 0 0 0 .609.263.8.8 0 0 0 .336-.073.8.8 0 0 0 .268-.197l.06-.061 4.943-4.684C18.974 12.65 20 11.413 20 9.862v-.005a3.77 3.77 0 0 0-.683-2.177 3.93 3.93 0 0 0-1.841-1.423 4.04 4.04 0 0 0-2.354-.147 3.96 3.96 0 0 0-2.014 1.185l-.016.018a1.51 1.51 0 0 1-1.684.345 1.5 1.5 0 0 1-.513-.36A3.97 3.97 0 0 0 8.88 6.122a4.05 4.05 0 0 0-2.35.15A3.94 3.94 0 0 0 4.69 7.69 3.8 3.8 0 0 0 4 9.862"/>
</svg>
