<svg xmlns="http://www.w3.org/2000/svg" width="24" height="24" fill="none" viewBox="0 0 24 24">
    <path fill="currentColor" d="M10.581 8.291a5.52 5.52 0 0 1 4.03 2.204 1 1 0 1 1-1.602 1.197 3.53 3.53 0 0 0-2.57-1.406 3.52 3.52 0 0 0-2.746 1.026L4.99 14.017a3.534 3.534 0 0 0 .044 4.95 3.524 3.524 0 0 0 4.93.053l1.547-1.547a1 1 0 1 1 1.415 1.413l-1.548 1.55-.013.011A5.523 5.523 0 0 1 2 16.517a5.53 5.53 0 0 1 1.55-3.888l.012-.013 2.716-2.718a5.53 5.53 0 0 1 4.303-1.607M16.522 2a5.52 5.52 0 0 1 3.86 1.62 5.533 5.533 0 0 1 .067 7.751l-.012.013-2.715 2.717a5.525 5.525 0 0 1-6.558.945 5.5 5.5 0 0 1-1.775-1.541 1 1 0 1 1 1.602-1.197 3.53 3.53 0 0 0 2.57 1.406 3.53 3.53 0 0 0 2.746-1.026l2.703-2.706a3.533 3.533 0 0 0-.043-4.949 3.524 3.524 0 0 0-4.932-.054L12.48 6.53a1.001 1.001 0 0 1-1.41-1.417l1.556-1.55.01-.01A5.52 5.52 0 0 1 16.523 2"/>
</svg>
