<svg xmlns="http://www.w3.org/2000/svg" width="24" height="24" fill="none" viewBox="0 0 24 24">
    <path fill="currentColor" d="M19 3a2 2 0 0 1 2 2v14a2 2 0 0 1-1.796 1.99L19 21H5l-.204-.01a2 2 0 0 1-1.785-1.786L3 19V5a2 2 0 0 1 2-2zM5 19h14V5H5zm4.237-2H7.164v-6.68h2.073zm5.278-6.846c2.098 0 2.485 1.383 2.485 3.182L16.999 17h-2.07v-3.248c0-.775-.014-1.772-1.077-1.772-1.078 0-1.244.844-1.244 1.715V17h-2.07v-6.68h1.987v.913h.029a2.18 2.18 0 0 1 1.96-1.079m-6.548-3.13a1.2 1.2 0 0 1 1.436 1.18 1.207 1.207 0 0 1-1.2 1.203 1.202 1.202 0 0 1-1.18-1.438 1.2 1.2 0 0 1 .944-.946"/>
</svg>
