<svg width="24" height="24" viewBox="0 0 24 24" fill="none" xmlns="http://www.w3.org/2000/svg">
    <path d="M6.975 23A5.96 5.96 0 0 1 2.75 12.821l4.021-4.012a5.992 5.992 0 0 1 8.448 0c.217.218.418.452.6.7A1 1 0 1 1 14.21 10.7a3.985 3.985 0 0 0-6.027-.471l-4.022 4.009a3.957 3.957 0 0 0 0 5.595v.005a3.988 3.988 0 0 0 5.624 0l.5-.5a1.003 1.003 0 0 1 1.632.326 1.003 1.003 0 0 1-.218 1.091l-.5.5A5.96 5.96 0 0 1 6.975 23zm10.254-7.81 4.02-4.012a5.956 5.956 0 0 0 .013-8.423l-.013-.013a5.99 5.99 0 0 0-8.447 0l-.5.5a1 1 0 0 0 1.412 1.417l.5-.5a3.97 3.97 0 0 1 5.628 5.6v.005l-4.021 4.012a3.987 3.987 0 0 1-6.027-.471A1.002 1.002 0 0 0 8.18 14.49a5.976 5.976 0 0 0 9.048.7z" fill="#000"/>
</svg>
