<svg xmlns="http://www.w3.org/2000/svg" width="24" height="24" fill="none" viewBox="0 0 24 24">
    <path fill="currentColor" d="M8 4.5A1.5 1.5 0 0 1 9.5 3h12a1.5 1.5 0 0 1 0 3h-12A1.5 1.5 0 0 1 8 4.5M8 12a1.5 1.5 0 0 1 1.5-1.5h12a1.5 1.5 0 0 1 0 3h-12A1.5 1.5 0 0 1 8 12M8 19.5A1.5 1.5 0 0 1 9.5 18h12a1.5 1.5 0 0 1 0 3h-12A1.5 1.5 0 0 1 8 19.5M1 19a2 2 0 0 1 2-2h1a2 2 0 0 1 2 2v1a2 2 0 0 1-2 2H3a2 2 0 0 1-2-2zM1 11.5a2 2 0 0 1 2-2h1a2 2 0 0 1 2 2v1a2 2 0 0 1-2 2H3a2 2 0 0 1-2-2zM1 4a2 2 0 0 1 2-2h1a2 2 0 0 1 2 2v1a2 2 0 0 1-2 2H3a2 2 0 0 1-2-2z"/>
</svg>
