<svg xmlns="http://www.w3.org/2000/svg" width="24" height="24" fill="none" viewBox="0 0 24 24">
    <path fill="currentColor" d="M6.187 3.863A10 10 0 1 1 7.83 21.088a.8.8 0 0 0-.41-.04l-3.008.882-.024.007a1.9 1.9 0 0 1-2.349-2.22l.028-.107.938-2.9a.8.8 0 0 0-.038-.424 10 10 0 0 1 3.22-12.423m6.448.162a8 8 0 0 0-7.988 11.127l.146.322.03.065a2.8 2.8 0 0 1 .131 1.634 1 1 0 0 1-.025.093l-.87 2.682 2.863-.836.086-.021c.45-.09.915-.067 1.353.065l.186.064.068.028a8 8 0 1 0 4.02-15.223M8.409 11a1 1 0 0 1 0 2H8.4a1 1 0 0 1 0-2zm3.6 0a1 1 0 0 1 0 2H12a1 1 0 0 1 0-2zm3.6 0a1 1 0 1 1 0 2h-.01a1 1 0 0 1 0-2z"/>
</svg>
