<svg xmlns="http://www.w3.org/2000/svg" width="16" height="16" fill="none" viewBox="0 0 16 16">
    <path fill="currentColor" d="M12.364 6.7a4.5 4.5 0 0 0-1.28-3.151A4.31 4.31 0 0 0 8.007 2.25a4.31 4.31 0 0 0-3.076 1.299A4.5 4.5 0 0 0 3.65 6.7c0 1.374.763 2.867 1.768 4.211.927 1.24 1.987 2.255 2.59 2.793.602-.538 1.662-1.552 2.59-2.793 1.004-1.344 1.766-2.837 1.766-4.21m-3.192 0c0-.675-.534-1.2-1.165-1.2-.63 0-1.165.525-1.165 1.2 0 .676.535 1.2 1.165 1.2.631 0 1.165-.524 1.165-1.2m1.5 0c0 1.478-1.18 2.7-2.665 2.7-1.484 0-2.665-1.221-2.665-2.7 0-1.478 1.18-2.7 2.665-2.7s2.665 1.222 2.665 2.7m3.192 0c0 1.871-1.006 3.692-2.065 5.11-1.077 1.44-2.3 2.584-2.913 3.123l-.04.032a1.38 1.38 0 0 1-1.717-.032c-.613-.539-1.837-1.684-2.914-3.123C3.155 10.392 2.15 8.57 2.15 6.7a6 6 0 0 1 1.711-4.203A5.81 5.81 0 0 1 8.007.75c1.558 0 3.05.63 4.147 1.747a6 6 0 0 1 1.71 4.203"/>
</svg>
