<svg xmlns="http://www.w3.org/2000/svg" width="24" height="24" fill="none" viewBox="0 0 24 24">
    <path fill="currentColor" d="M18 10.2c0-1.653-.64-3.234-1.768-4.394A5.9 5.9 0 0 0 12 4a5.9 5.9 0 0 0-4.232 1.806A6.3 6.3 0 0 0 6 10.2c0 1.919 1.052 3.995 2.43 5.858 1.282 1.731 2.747 3.146 3.57 3.888.823-.742 2.288-2.157 3.57-3.888C16.947 14.195 18 12.118 18 10.2m-4.375 0c0-.965-.754-1.7-1.625-1.7s-1.625.735-1.625 1.7c0 .966.754 1.7 1.625 1.7s1.625-.734 1.625-1.7m2 0c0 2.017-1.597 3.7-3.625 3.7s-3.625-1.683-3.625-3.7S9.972 6.5 12 6.5s3.625 1.683 3.625 3.7m4.375 0c0 2.575-1.372 5.086-2.823 7.048-1.473 1.99-3.149 3.574-3.987 4.32l-.052.042a1.86 1.86 0 0 1-2.276 0l-.052-.043c-.838-.745-2.514-2.328-3.987-4.319C5.371 15.286 4 12.775 4 10.2c0-2.166.836-4.248 2.333-5.788A7.9 7.9 0 0 1 12 2c2.131 0 4.169.871 5.667 2.412A8.3 8.3 0 0 1 20 10.2"/>
</svg>
