<svg xmlns="http://www.w3.org/2000/svg" width="16" height="16" fill="none" viewBox="0 0 16 16">
    <path fill="currentColor" fill-rule="evenodd" d="M8 1a6.15 6.15 0 0 0-4.242 1.677A5.6 5.6 0 0 0 2 6.727c0 .483.063.964.187 1.432.706 2.832 3.553 5.48 4.973 6.555.237.185.534.286.84.286s.603-.101.84-.286c1.467-1.108 4.467-3.901 5.04-6.835a5.5 5.5 0 0 0-.055-2.516 5.64 5.64 0 0 0-1.178-2.252 6 6 0 0 0-2.075-1.554A6.25 6.25 0 0 0 8.001 1m0 7.636c-.395 0-.782-.112-1.11-.321a1.93 1.93 0 0 1-.737-.857 1.83 1.83 0 0 1-.114-1.103c.077-.37.267-.71.547-.978.28-.267.636-.448 1.024-.522a2.1 2.1 0 0 1 1.156.108c.366.145.678.39.898.704S10 6.35 10 6.727c0 .507-.211.992-.586 1.35A2.05 2.05 0 0 1 8 8.637" clip-rule="evenodd"/>
</svg>
