<svg xmlns="http://www.w3.org/2000/svg" width="24" height="24" fill="none" viewBox="0 0 24 24">
    <path fill="currentColor" d="M19 3q.825 0 1.412.588Q21 4.176 21 5v14q0 .825-.588 1.412A1.93 1.93 0 0 1 19 21h-6a.97.97 0 0 1-.713-.287A.97.97 0 0 1 12 20q0-.425.287-.713A.97.97 0 0 1 13 19h6V5h-6a.97.97 0 0 1-.713-.287A.97.97 0 0 1 12 4q0-.425.287-.713A.97.97 0 0 1 13 3zm-9 4.438a.95.95 0 0 1 .725.287L14.3 11.3q.3.3.3.7t-.3.7l-3.575 3.575a.93.93 0 0 1-.712.288 1.02 1.02 0 0 1-.713-.313.97.97 0 0 1-.263-.713.98.98 0 0 1 .288-.687l1.85-1.85H3v-2h8.175L9.3 9.125a.92.92 0 0 1-.275-.675q0-.4.275-.7a.95.95 0 0 1 .7-.312"/>
</svg>
