<svg xmlns="http://www.w3.org/2000/svg" width="24" height="24" fill="none" viewBox="0 0 24 24">
    <path fill="currentColor" d="M11 3q.425 0 .713.287Q12 3.575 12 4a.97.97 0 0 1-.287.713A.97.97 0 0 1 11 5H5v14h6q.425 0 .713.287.288.288.287.713a.97.97 0 0 1-.287.713A.97.97 0 0 1 11 21H5q-.824 0-1.412-.588A1.93 1.93 0 0 1 3 19V5q0-.824.588-1.412A1.93 1.93 0 0 1 5 3zm5 4.438a.95.95 0 0 1 .725.287L20.3 11.3q.3.3.3.7t-.3.7l-3.575 3.575a.93.93 0 0 1-.712.288 1.02 1.02 0 0 1-.713-.313.97.97 0 0 1-.263-.713.98.98 0 0 1 .288-.687l1.85-1.85H9v-2h8.175L15.3 9.125a.92.92 0 0 1-.275-.675q0-.4.275-.7a.95.95 0 0 1 .7-.312"/>
</svg>
