<svg xmlns="http://www.w3.org/2000/svg" width="24" height="24" fill="none" viewBox="0 0 24 24">
    <path fill="currentColor" d="M19.2 18a.73.73 0 0 1 .566.293c.15.188.234.442.234.707s-.084.52-.234.707A.73.73 0 0 1 19.2 20H4.8a.73.73 0 0 1-.566-.293A1.14 1.14 0 0 1 4 19c0-.265.084-.52.234-.707A.73.73 0 0 1 4.8 18zm-2.98-8.15a3.28 3.28 0 1 1 0 6.56 3.28 3.28 0 0 1 0-6.56m-6.553-.075a1.556 1.556 0 0 1 1.556 1.557v3.112A1.557 1.557 0 0 1 9.667 16H6.556A1.555 1.555 0 0 1 5 14.444v-3.112a1.56 1.56 0 0 1 1.556-1.557zM8.111 2a.78.78 0 0 1 .693.423l2.333 4.669a.78.78 0 0 1-.693 1.128H5.777a.778.778 0 0 1-.691-1.128l2.333-4.67A.78.78 0 0 1 8.11 2"/>
</svg>
