<svg xmlns="http://www.w3.org/2000/svg" width="24" height="24" fill="none" viewBox="0 0 24 24">
    <path fill="currentColor" d="M16.401 10.615a1.93 1.93 0 0 1 1.646 1.288l.66 1.326 1.468.234c.323.02.634.12.907.29l.127.088.12.097c.27.235.469.54.577.881.124.39.125.809.002 1.199a1.96 1.96 0 0 1-.614.916l-1.064 1.082.235 1.484a1.97 1.97 0 0 1-.709 2.112 1.93 1.93 0 0 1-2.24.056l-1.3-.68-1.301.68a1.93 1.93 0 0 1-2.233-.059 1.97 1.97 0 0 1-.699-1 2 2 0 0 1-.011-1.11l.232-1.483-1.038-1.057a1.96 1.96 0 0 1-.633-.906 2 2 0 0 1-.015-1.214c.121-.396.365-.746.7-.996l.129-.088a1.9 1.9 0 0 1 .918-.293l1.463-.233.676-1.357a1.96 1.96 0 0 1 .676-.893l.13-.086a1.94 1.94 0 0 1 1.035-.287zM2 20.355v-1.928A4.9 4.9 0 0 1 3.392 15a4.74 4.74 0 0 1 3.384-1.43h.945a1 1 0 0 1 0 2h-.945c-.73 0-1.433.296-1.956.83A2.9 2.9 0 0 0 4 18.426v1.928a1 1 0 1 1-2 0M12.386 6.856C12.386 5.26 11.123 4 9.609 4 8.096 4 6.833 5.259 6.833 6.856c0 1.598 1.262 2.858 2.776 2.858s2.777-1.26 2.777-2.858m2 0c0 2.663-2.119 4.858-4.777 4.858S4.833 9.519 4.833 6.856 6.952 2 9.609 2c2.658 0 4.777 2.194 4.777 4.856"/>
</svg>
