<svg xmlns="http://www.w3.org/2000/svg" width="32" height="24" fill="none" viewBox="0 0 32 24">
    <g clip-path="url(#maestro_32_svg__a)">
        <rect width="31" height="23" x=".5" y=".5" fill="#fff" stroke="#ccc" rx="3.5"/>
        <g clip-path="url(#maestro_32_svg__b)">
            <path fill="#000" d="M12.05 19.6v-1.02a.6.6 0 0 0-.174-.465.61.61 0 0 0-.469-.178.64.64 0 0 0-.577.289.6.6 0 0 0-.543-.29.55.55 0 0 0-.48.242v-.2H9.45V19.6h.36V18.7a.38.38 0 0 1 .098-.31.39.39 0 0 1 .304-.12c.237 0 .357.151.357.427v.902h.36V18.7a.38.38 0 0 1 .1-.308.39.39 0 0 1 .303-.123c.243 0 .36.152.36.428v.902zm2.01-.81v-.81h-.361v.197a.62.62 0 0 0-.515-.238.853.853 0 0 0-.833.849c0 .459.369.835.833.849.2.007.392-.081.515-.238v.197h.357zm-1.328 0a.494.494 0 0 1 .514-.462c.27.01.482.231.478.498a.494.494 0 0 1-.493.483.5.5 0 0 1-.367-.15.48.48 0 0 1-.135-.37zm8.957-.85c.117 0 .234.023.343.065.21.082.378.244.465.45.09.218.09.461 0 .679a.83.83 0 0 1-.465.45.98.98 0 0 1-.703 0 .83.83 0 0 1-.462-.45.9.9 0 0 1 0-.68.83.83 0 0 1 .46-.449.9.9 0 0 1 .358-.07zm0 .34a.5.5 0 0 0-.204.037.48.48 0 0 0-.272.277.58.58 0 0 0 0 .421.48.48 0 0 0 .272.277.56.56 0 0 0 .578-.107.5.5 0 0 0 .109-.17.58.58 0 0 0 0-.421.5.5 0 0 0-.11-.17.5.5 0 0 0-.17-.107.5.5 0 0 0-.206-.047zm-5.69.51c0-.51-.32-.85-.777-.85a.86.86 0 0 0-.738.436.84.84 0 0 0 .012.849.86.86 0 0 0 .75.414c.244.007.484-.074.671-.228l-.17-.262a.8.8 0 0 1-.479.17.454.454 0 0 1-.49-.398h1.217Q16 18.86 16 18.79m-1.22-.143a.42.42 0 0 1 .431-.392.405.405 0 0 1 .415.393zm2.723-.255a1.07 1.07 0 0 0-.515-.14c-.196 0-.312.073-.312.192 0 .117.123.138.277.159l.172.023c.357.052.573.201.573.486s-.274.53-.746.53a1.2 1.2 0 0 1-.71-.21l.172-.276c.158.116.35.176.546.17.244 0 .375-.071.375-.197 0-.091-.093-.142-.289-.17l-.171-.024c-.368-.05-.567-.213-.567-.478 0-.323.268-.52.687-.52a1.24 1.24 0 0 1 .667.17zm1.717-.092h-.583v.732c0 .17.059.273.238.273a.67.67 0 0 0 .315-.093l.103.302a.84.84 0 0 1-.446.126c-.422 0-.57-.224-.57-.6V18.3h-.333v-.322h.333v-.493h.36v.493h.583v.322m1.234-.363q.13 0 .254.044l-.11.34a.6.6 0 0 0-.223-.04c-.233 0-.344.149-.344.417v.908h-.357v-1.621h.354v.197a.49.49 0 0 1 .433-.238zm2.468 1.426c.044 0 .087.016.12.046a.157.157 0 0 1-.054.261.2.2 0 0 1-.066.014.17.17 0 0 1-.154-.098.16.16 0 0 1 .036-.177.17.17 0 0 1 .11-.046zm0 .288a.12.12 0 0 0 .09-.037.12.12 0 0 0 .029-.138.13.13 0 0 0-.209-.04.124.124 0 0 0 0 .17.13.13 0 0 0 .09.038zm.01-.203a.07.07 0 0 1 .045.014.04.04 0 0 1 .015.035.04.04 0 0 1-.01.031.06.06 0 0 1-.037.015l.05.057h-.04l-.046-.057h-.016v.057h-.032v-.157zm-.036.03v.04h.037a.04.04 0 0 0 .02 0 .02.02 0 0 0 0-.015.02.02 0 0 0 0-.016.04.04 0 0 0-.02 0l-.037-.01"/>
            <path fill="#7673c0" d="M13.296 5.61h5.408v9.608h-5.408z"/>
            <path fill="#eb001b" d="M13.64 10.414A6.08 6.08 0 0 1 16 5.607c-2.534-1.97-6.173-1.683-8.36.659a6.064 6.064 0 0 0 0 8.294c2.187 2.342 5.826 2.629 8.36.659a6.08 6.08 0 0 1-2.36-4.805"/>
            <path fill="#00a1df" d="M25.999 10.414a6.11 6.11 0 0 1-3.48 5.495A6.24 6.24 0 0 1 16 15.22a6.09 6.09 0 0 0 2.361-4.806c0-1.876-.87-3.647-2.361-4.806a6.24 6.24 0 0 1 6.52-.692A6.11 6.11 0 0 1 26 10.412z"/>
        </g>
    </g>
    <defs>
        <clipPath id="maestro_32_svg__a">
            <rect width="32" height="24" fill="#fff" rx="4"/>
        </clipPath>
        <clipPath id="maestro_32_svg__b">
            <path fill="#fff" d="M6 4.3h20v15.384H6z"/>
        </clipPath>
    </defs>
</svg>
