<svg xmlns="http://www.w3.org/2000/svg" width="24" height="24" fill="none" viewBox="0 0 24 24">
    <path fill="currentColor" d="M9.143 13c1.025 0 1.857.832 1.857 1.857v4.286A1.86 1.86 0 0 1 9.143 21H4.857A1.86 1.86 0 0 1 3 19.143v-4.286C3 13.832 3.832 13 4.857 13zm10 0c1.025 0 1.857.832 1.857 1.857v4.286A1.86 1.86 0 0 1 19.143 21h-4.286A1.86 1.86 0 0 1 13 19.143v-4.286c0-1.025.832-1.857 1.857-1.857zM5 19h4v-4H5zm10 0h4v-4h-4zM9.143 3C10.168 3 11 3.832 11 4.857v4.286A1.86 1.86 0 0 1 9.143 11H4.857A1.86 1.86 0 0 1 3 9.143V4.857C3 3.832 3.832 3 4.857 3zm10 0C20.168 3 21 3.832 21 4.857v4.286A1.86 1.86 0 0 1 19.143 11h-4.286A1.86 1.86 0 0 1 13 9.143V4.857C13 3.832 13.832 3 14.857 3zM5 9h4V5H5zm10 0h4V5h-4z"/>
</svg>
