<svg width="32" height="24" viewBox="0 0 32 24" fill="none" xmlns="http://www.w3.org/2000/svg">
    <rect x=".5" y=".5" width="31" height="23" rx="3.5" fill="#fff" stroke="#CCC"/>
    <path d="M11.947 18.884a6.945 6.945 0 0 0 6.948-6.942A6.945 6.945 0 0 0 11.947 5 6.945 6.945 0 0 0 5 11.942a6.945 6.945 0 0 0 6.947 6.942z" fill="#EB001B"/>
    <path d="M20.053 19A6.945 6.945 0 0 0 27 12.058a6.945 6.945 0 0 0-6.947-6.942 6.945 6.945 0 0 0-6.948 6.942A6.945 6.945 0 0 0 20.053 19z" fill="#F79E1B"/>
    <path fill-rule="evenodd" clip-rule="evenodd" d="M16.102 6.348a6.93 6.93 0 0 1 2.793 5.564 6.932 6.932 0 0 1-2.996 5.71 6.93 6.93 0 0 1-2.793-5.564 6.932 6.932 0 0 1 2.996-5.71z" fill="#FF5F00"/>
</svg>
