<svg xmlns="http://www.w3.org/2000/svg" width="32" height="24" fill="none" viewBox="0 0 32 24">
    <rect width="31" height="23" x=".5" y=".5" fill="#fff" stroke="#ccc" rx="3.5"/>
    <g clip-path="url(#mastercard_32_svg__a)">
        <path fill="#eb001b" d="M11.947 18.884a6.945 6.945 0 0 0 6.948-6.942A6.945 6.945 0 0 0 11.947 5 6.945 6.945 0 0 0 5 11.942a6.945 6.945 0 0 0 6.947 6.942"/>
        <path fill="#f79e1b" d="M20.053 19A6.945 6.945 0 0 0 27 12.058a6.945 6.945 0 0 0-6.947-6.942 6.945 6.945 0 0 0-6.948 6.942A6.945 6.945 0 0 0 20.054 19"/>
        <path fill="#ff5f00" fill-rule="evenodd" d="M16.102 6.348a6.93 6.93 0 0 1 2.793 5.564 6.93 6.93 0 0 1-2.996 5.71 6.93 6.93 0 0 1-2.793-5.564 6.93 6.93 0 0 1 2.996-5.71" clip-rule="evenodd"/>
    </g>
    <defs>
        <clipPath id="mastercard_32_svg__a">
            <path fill="#fff" d="M5 5h22v14H5z"/>
        </clipPath>
    </defs>
</svg>
