<svg width="32" height="24" viewBox="0 0 32 24" fill="none" xmlns="http://www.w3.org/2000/svg">
    <rect x=".5" y=".5" width="31" height="23" rx="3.5" fill="#fff"/>
    <path d="M12.316 18.843c3.488 0 6.315-2.875 6.315-6.421C18.631 8.875 15.804 6 12.316 6 8.828 6 6 8.875 6 12.422c0 3.546 2.828 6.421 6.316 6.421z" fill="#EB001B"/>
    <path d="M19.684 18.95c3.488 0 6.316-2.875 6.316-6.421 0-3.547-2.828-6.422-6.316-6.422s-6.315 2.875-6.315 6.422c0 3.546 2.827 6.421 6.315 6.421z" fill="#F79E1B"/>
    <path fill-rule="evenodd" clip-rule="evenodd" d="M16.092 7.247a6.447 6.447 0 0 1 2.54 5.147 6.445 6.445 0 0 1-2.724 5.283 6.448 6.448 0 0 1-2.54-5.148 6.445 6.445 0 0 1 2.724-5.282z" fill="#FF5F00"/>
    <rect x=".5" y=".5" width="31" height="23" rx="3.5" stroke="#CCC"/>
</svg>
