<svg xmlns="http://www.w3.org/2000/svg" width="24" height="24" fill="none" viewBox="0 0 24 24">
    <path fill="currentColor" d="m13.336 1.68 4.503 7.506c.116.19.17.402.16.615-.011.213-.087.42-.22.602a1.417 1.417 0 0 1-.545.437 1.74 1.74 0 0 1-.73.16H7.496a1.74 1.74 0 0 1-.73-.16 1.418 1.418 0 0 1-.545-.437 1.108 1.108 0 0 1-.22-.602 1.08 1.08 0 0 1 .159-.615l4.503-7.505c.126-.205.317-.377.553-.497.236-.12.507-.184.783-.184s.547.064.783.184.427.292.553.497ZM13 15.5a2.5 2.5 0 0 1 2.5-2.5h5a2.5 2.5 0 0 1 2.5 2.5v5a2.5 2.5 0 0 1-2.5 2.5h-5a2.5 2.5 0 0 1-2.5-2.5v-5ZM6 23a5 5 0 1 0 0-10 5 5 0 0 0 0 10Z"/>
</svg>
