<svg xmlns="http://www.w3.org/2000/svg" width="24" height="24" fill="none" viewBox="0 0 24 24">
    <path fill="currentColor" d="M19.5 17.26c0-1.22-1.014-2.241-2.306-2.241s-2.305 1.022-2.305 2.24c0 1.22 1.014 2.24 2.305 2.241s2.306-1.021 2.306-2.24m-15 2.24h4.611v-4.481H4.5zm7.663-16.993q.21.02.411.09l.195.084.182.108c.175.12.327.272.445.45l.013.019 3.496 5.502c.136.206.227.44.26.686l.01.114.005.114a1.64 1.64 0 0 1-.804 1.405 1.67 1.67 0 0 1-.852.236H8.506v-.002a1.658 1.658 0 0 1-1.469-.811 1.64 1.64 0 0 1-.228-.874l.006-.115a1.64 1.64 0 0 1 .264-.747l3.513-5.473.002.002c.14-.228.329-.42.556-.557l.189-.097c.193-.085.402-.133.613-.14zm-3.06 6.807h5.785L12.01 4.785zM21.5 17.26c0 2.36-1.947 4.24-4.306 4.24s-4.305-1.88-4.305-4.24 1.946-4.241 4.305-4.241 4.306 1.88 4.306 4.24m-10.389 2.314c0 1.082-.89 1.926-1.944 1.926H4.444c-1.055 0-1.944-.844-1.944-1.926v-4.63c0-1.082.89-1.925 1.944-1.925h4.723c1.055 0 1.944.843 1.944 1.925z"/>
</svg>
