<svg xmlns="http://www.w3.org/2000/svg" width="24" height="24" fill="none" viewBox="0 0 24 24">
    <path fill="currentColor" d="M6.833 20.5v-8.35h-.666C4.68 12.15 3.5 10.92 3.5 9.45V3.5a1 1 0 0 1 2 0v5.95c0 .402.321.7.667.7h.666V3.5a1 1 0 0 1 2 0v6.65H9.5c.17 0 .338-.069.465-.198a.72.72 0 0 0 .202-.502V3.5a1 1 0 1 1 2 0v5.95c0 .71-.277 1.395-.774 1.902a2.65 2.65 0 0 1-1.893.798h-.667v8.35a1 1 0 1 1-2 0m11.667 0v-4.95H17c-1.488 0-2.667-1.232-2.667-2.7v-5.1c0-1.386.54-2.72 1.507-3.705A5.13 5.13 0 0 1 19.5 2.5a1 1 0 0 1 1 1v17a1 1 0 1 1-2 0m-2.167-7.65c0 .401.321.7.667.7h1.5V4.667c-.459.157-.882.42-1.232.778a3.3 3.3 0 0 0-.935 2.305z"/>
</svg>
