<svg width="24" height="24" viewBox="0 0 24 24" fill="none" xmlns="http://www.w3.org/2000/svg">
  <path fill-rule="evenodd" clip-rule="evenodd"
    d="M3 21C3 22.1046 3.89543 23 5 23L19 23C20.1046 23 21 22.1046 21 21V3C21 1.89543 20.1046 1 19 1H5C3.89543 1 3 1.89543 3 3V21ZM6 4.5C6 4.22386 6.22386 4 6.5 4C6.77614 4 7 4.22386 7 4.5V8C7 8.09849 7.0194 8.19602 7.05709 8.28701C7.09478 8.37801 7.15003 8.46069 7.21967 8.53033C7.28931 8.59997 7.37199 8.65522 7.46299 8.69291C7.55398 8.7306 7.65151 8.75 7.75 8.75C7.84849 8.75 7.94602 8.7306 8.03701 8.69291C8.12801 8.65522 8.21069 8.59997 8.28033 8.53033C8.34997 8.46069 8.40522 8.37801 8.44291 8.28701C8.4806 8.19602 8.5 8.09849 8.5 8V4.5C8.5 4.22386 8.72386 4 9 4C9.27614 4 9.5 4.22386 9.5 4.5V8C9.5 8.09849 9.5194 8.19602 9.55709 8.28701C9.59478 8.37801 9.65003 8.46069 9.71967 8.53033C9.78931 8.59997 9.87199 8.65522 9.96299 8.69291C10.054 8.7306 10.1515 8.75 10.25 8.75C10.3485 8.75 10.446 8.7306 10.537 8.69291C10.628 8.65522 10.7107 8.59997 10.7803 8.53033C10.85 8.46069 10.9052 8.37801 10.9429 8.28701C10.9806 8.19602 11 8.09849 11 8V4.5C11 4.22386 11.2239 4 11.5 4C11.7761 4 12 4.22386 12 4.5V8C12 8.79565 11.6839 9.55871 11.1213 10.1213C10.8019 10.4407 10.4179 10.6807 10 10.8284V19.2308C10 19.6556 9.55228 20 9 20C8.44772 20 8 19.6556 8 19.2308V10.8284C7.5821 10.6807 7.19808 10.4407 6.87868 10.1213C6.31607 9.55871 6 8.79565 6 8V4.5ZM16 4C14.8954 4 14 4.89543 14 6V11C14 11.7403 14.4022 12.3866 15 12.7324V19C15 19.5523 15.4477 20 16 20C16.5523 20 17 19.5523 17 19V5C17 4.44772 16.5523 4 16 4Z"
    fill="currentColor" />
</svg>
