<svg xmlns="http://www.w3.org/2000/svg" width="16" height="16" fill="none" viewBox="0 0 16 16">
    <path fill="currentColor" d="M4.244 8.744Q4.55 8.438 4.55 8t-.306-.744A1.01 1.01 0 0 0 3.5 6.95q-.438 0-.744.306A1.01 1.01 0 0 0 2.45 8q0 .438.306.744t.744.306.744-.306m3.5 0Q8.05 8.438 8.05 8t-.306-.744A1.01 1.01 0 0 0 7 6.95q-.438 0-.744.306A1.01 1.01 0 0 0 5.95 8q0 .438.306.744T7 9.05t.744-.306m3.5 0q.306-.306.306-.744t-.306-.744a1.01 1.01 0 0 0-.744-.306q-.438 0-.744.306A1.01 1.01 0 0 0 9.45 8q0 .438.306.744t.744.306.744-.306M7 15a6.8 6.8 0 0 1-2.73-.551 7.1 7.1 0 0 1-2.222-1.496A7.1 7.1 0 0 1 .55 10.73 6.8 6.8 0 0 1 0 8q0-1.452.551-2.73a7.1 7.1 0 0 1 1.496-2.222A7.1 7.1 0 0 1 4.27 1.55 6.8 6.8 0 0 1 7 1q1.452 0 2.73.551a7.1 7.1 0 0 1 2.223 1.497q.944.945 1.496 2.222.55 1.278.551 2.73 0 1.452-.551 2.73a7.1 7.1 0 0 1-1.496 2.223 7.1 7.1 0 0 1-2.223 1.496A6.8 6.8 0 0 1 7 15m0-1.4q2.344 0 3.973-1.627Q12.6 10.344 12.6 8t-1.627-3.972Q9.344 2.4 7 2.4T3.028 4.028 1.4 8q0 2.344 1.628 3.973Q4.655 13.6 7 13.6"/>
</svg>
