<svg xmlns="http://www.w3.org/2000/svg" width="24" height="24" fill="none" viewBox="0 0 24 24">
    <path fill="currentColor" d="M20 16.015a1.71 1.71 0 0 0-1.7-1.72c-.905 0-1.7.737-1.7 1.72s.795 1.72 1.7 1.72 1.7-.737 1.7-1.72m-16 0c0 .983.795 1.72 1.7 1.72s1.7-.737 1.7-1.72-.795-1.72-1.7-1.72-1.7.737-1.7 1.72m15.3-7.137c0 .479-.192.945-.544 1.294a1.92 1.92 0 0 1-1.188.545l.562 1.67q.084-.004.17-.004c2.077 0 3.7 1.659 3.7 3.632s-1.623 3.632-3.7 3.632-3.7-1.66-3.7-3.632c0-1.241.642-2.358 1.635-3.016l-.634-1.889A4.4 4.4 0 0 0 13 15.123c0 .479-.192.945-.544 1.294s-.84.554-1.356.554H9.269A3.685 3.685 0 0 1 5.7 19.647c-2.077 0-3.7-1.66-3.7-3.632s1.623-3.632 3.7-3.632a3.684 3.684 0 0 1 3.569 2.676h1.733a6.26 6.26 0 0 1 2.499-4.938q-.035-.046-.077-.084a.8.8 0 0 0-.384-.19l-.14-.014h-1.8c-.2 0-.4.08-.553.231a.84.84 0 0 0-.247.597c0 .31-.157.6-.42.779s-.6.226-.906.125l-5.4-1.784c-.523-.172-.8-.717-.619-1.216.18-.499.75-.763 1.272-.591L8.604 9.42q.195-.377.503-.684a2.83 2.83 0 0 1 1.993-.815h1.8l.264.012a2.83 2.83 0 0 1 1.633.712q.264.241.455.534a6.5 6.5 0 0 1 2.048-.364v-.524a3.5 3.5 0 0 0-1.402-2.22.93.93 0 0 1-.197-1.338c.332-.422.96-.506 1.4-.189a5.4 5.4 0 0 1 2.187 3.517 1 1 0 0 1 .012.146z"/>
</svg>
