<svg width="24" height="24" viewBox="0 0 24 24" fill="none" xmlns="http://www.w3.org/2000/svg">
<path d="M3 2C1.89543 2 1 2.89543 1 4V6C1 7.10457 1.89543 8 3 8H7C8.10457 8 9 7.10457 9 6V4C9 2.89543 8.10457 2 7 2H3Z" fill="currentColor"/>
<path d="M13 7C13 6.44772 13.4477 6 14 6H15.6135C17.0713 6 18.3781 6.78754 19.0781 8H21C22.1046 8 23 8.89543 23 10C23 11.1046 22.1046 12 21 12H20.1801L20.7329 14.3955C21.3519 14.6219 21.9293 14.9398 22.4473 15.3358C23.3248 16.0065 23.0924 17.2869 22.1875 17.9201C21.3737 16.7591 20.0255 16 18.5 16C16.0147 16 14 18.0147 14 20.5C14 20.669 14.0093 20.8358 14.0275 21H10.9725C10.9907 20.8358 11 20.669 11 20.5C11 18.0147 8.98528 16 6.5 16C4.01472 16 2 18.0147 2 20.5C2 20.5791 2.00204 20.6578 2.00608 20.7359C1.40493 20.391 1 19.7428 1 19V16C1 14.8954 1.89543 14 3 14V12C3 10.8954 3.89543 10 5 10H12C13.1046 10 14 10.8954 14 12C14 13.1046 13.1046 14 12 14C11.7348 14 11.4804 14.158 11.2929 14.4393C11.1054 14.7206 11 15.1022 11 15.5V16H13.8097C14.5666 15.211 15.5137 14.6223 16.5661 14.2944C17.2249 14.0891 17.9078 13.9913 18.5892 14.0006L17.5622 9.55028C17.3528 8.64282 16.5448 8 15.6135 8H14C13.4477 8 13 7.55228 13 7Z" fill="currentColor"/>
<path d="M6.5 23C7.88071 23 9 21.8807 9 20.5C9 19.1193 7.88071 18 6.5 18C5.11929 18 4 19.1193 4 20.5C4 21.8807 5.11929 23 6.5 23Z" fill="currentColor"/>
<path d="M18.5 23C19.8807 23 21 21.8807 21 20.5C21 19.1193 19.8807 18 18.5 18C17.1193 18 16 19.1193 16 20.5C16 21.8807 17.1193 23 18.5 23Z" fill="currentColor"/>
</svg>
