<svg fill="none" height="24" viewBox="0 0 24 24" width="24" xmlns="http://www.w3.org/2000/svg"><g fill="#0f131a"><path d="m3 2c-1.10457 0-2 .89543-2 2v2c0 1.10457.89543 2 2 2h4c1.10457 0 2-.89543 2-2v-2c0-1.10457-.89543-2-2-2z"/><path d="m13 7c0-.55228.4477-1 1-1h1.6135c1.4578 0 2.7646.78754 3.4646 2h1.9219c1.1046 0 2 .89543 2 2 0 1.1046-.8954 2-2 2h-.8199l.5528 2.3955c.619.2264 1.1964.5443 1.7144.9403.8775.6707.6451 1.9511-.2598 2.5843-.8138-1.161-2.162-1.9201-3.6875-1.9201-2.4853 0-4.5 2.0147-4.5 4.5 0 .169.0093.3358.0275.5h-3.055c.0182-.1642.0275-.331.0275-.5 0-2.4853-2.01472-4.5-4.5-4.5s-4.5 2.0147-4.5 4.5c0 .0791.00204.1578.00608.2359-.60115-.3449-1.00608-.9931-1.00608-1.7359v-3c0-1.1046.89543-2 2-2v-2c0-1.1046.89543-2 2-2h7c1.1046 0 2 .8954 2 2s-.8954 2-2 2c-.2652 0-.5196.158-.7071.4393s-.2929.6629-.2929 1.0607v.5h2.8097c.7569-.789 1.704-1.3777 2.7564-1.7056.6588-.2053 1.3417-.3031 2.0231-.2938l-1.027-4.45032c-.2094-.90746-1.0174-1.55028-1.9487-1.55028h-1.6135c-.5523 0-1-.44772-1-1z"/><path d="m6.5 23c1.38071 0 2.5-1.1193 2.5-2.5s-1.11929-2.5-2.5-2.5-2.5 1.1193-2.5 2.5 1.11929 2.5 2.5 2.5z"/><path d="m18.5 23c1.3807 0 2.5-1.1193 2.5-2.5s-1.1193-2.5-2.5-2.5-2.5 1.1193-2.5 2.5 1.1193 2.5 2.5 2.5z"/></g></svg>