<svg xmlns="http://www.w3.org/2000/svg" width="16" height="16" fill="none" viewBox="0 0 16 16">
    <path fill="currentColor" d="M15.333 8c0 .177-.069.347-.193.473l-4 4a.68.68 0 0 1-.473.194A.667.667 0 0 1 10 12c0-.177.07-.347.193-.473l2.867-2.86H2.94l2.867 2.86a.675.675 0 0 1-.002.944.67.67 0 0 1-.472.196.68.68 0 0 1-.473-.194l-4-4a.675.675 0 0 1 0-.946l4-4a.68.68 0 0 1 .473-.194A.667.667 0 0 1 6 4c0 .177-.07.347-.193.473L2.94 7.333h10.12l-2.867-2.86a.675.675 0 0 1 .002-.944.67.67 0 0 1 .472-.196c.177 0 .347.071.473.194l4 4a.68.68 0 0 1 .193.473"/>
</svg>
