<svg xmlns="http://www.w3.org/2000/svg" width="24" height="24" fill="none" viewBox="0 0 24 24">
    <path fill="currentColor" d="M18.175 13H13v-2h5.175L16.3 9.125a1.07 1.07 0 0 1-.288-.713.93.93 0 0 1 .288-.712q.3-.3.7-.3t.7.3l3.6 3.6q.15.15.212.325.063.176.063.375 0 .2-.062.375a.9.9 0 0 1-.213.325l-3.6 3.6q-.3.3-.7.3a.96.96 0 0 1-.7-.3q-.3-.3-.3-.713 0-.412.3-.712zm-12.35 0L7.7 14.875q.275.3.288.712a.93.93 0 0 1-.288.713q-.3.3-.7.3a.96.96 0 0 1-.7-.3l-3.6-3.6a.9.9 0 0 1-.212-.325A1.1 1.1 0 0 1 2.425 12q0-.2.063-.375A.9.9 0 0 1 2.7 11.3l3.6-3.6q.3-.3.7-.3t.7.3.3.712-.3.713L5.825 11H11v2z"/>
</svg>
