<svg xmlns="http://www.w3.org/2000/svg" width="24" height="24" fill="none" viewBox="0 0 24 24">
    <path fill="currentColor" d="M23 12c0 .265-.104.52-.29.71l-6 6c-.19.186-.445.29-.71.29a1 1 0 0 1-1-1c0-.265.104-.52.29-.71l4.3-4.29H4.41l4.3 4.29c.186.19.29.445.29.71a1 1 0 0 1-1 1c-.266 0-.52-.104-.71-.29l-6-6a1.013 1.013 0 0 1 0-1.42l6-6C7.48 5.104 7.734 5 8 5a1 1 0 0 1 1 1c0 .266-.104.52-.29.71L4.41 11h15.18l-4.3-4.29A1.01 1.01 0 0 1 15 6a1 1 0 0 1 1-1c.265 0 .52.104.71.29l6 6c.186.19.29.445.29.71"/>
</svg>
