<svg xmlns="http://www.w3.org/2000/svg" width="24" height="24" fill="none" viewBox="0 0 24 24">
    <path fill="currentColor" d="M17 12a16.8 16.8 0 0 0-2.31-8.495 1 1 0 0 1 1.727-1.01A18.8 18.8 0 0 1 19 12c0 3.335-.891 6.612-2.583 9.505a1 1 0 0 1-1.727-1.01A16.8 16.8 0 0 0 17 12m-5.14-7.973a1 1 0 0 1 1.369.357 15.07 15.07 0 0 1 2.077 7.614 15.07 15.07 0 0 1-2.068 7.617 1 1 0 0 1-1.726-1.01A13.07 13.07 0 0 0 13.306 12a13.07 13.07 0 0 0-1.802-6.604 1 1 0 0 1 .356-1.368M9.592 12c0-1.65-.437-3.272-1.27-4.71a1 1 0 0 1 1.73-1.002A11.4 11.4 0 0 1 11.593 12c0 2.003-.531 3.97-1.54 5.712a1 1 0 1 1-1.73-1.002A9.4 9.4 0 0 0 9.592 12m-3.694 0c0-.983-.261-1.95-.761-2.808a1 1 0 0 1 1.726-1.008A7.57 7.57 0 0 1 7.898 12c0 1.34-.357 2.655-1.035 3.816a1 1 0 1 1-1.726-1.008c.5-.857.761-1.825.761-2.808"/>
</svg>
