<svg xmlns="http://www.w3.org/2000/svg" width="24" height="24">
    <path style="stroke:none;fill-rule:nonzero;fill:#262626;fill-opacity:1" d="M18.14 15.484c-1.675 1.895-4.644 3.157-8.023 3.157-5.234-.004-9.476-3.024-9.476-6.754 0-3.727 4.242-6.75 9.476-6.75 4.367 0 8.043 2.101 9.145 4.965l.285-.055c-1.133-2.95-4.926-5.121-9.43-5.121-5.402 0-9.777 3.113-9.777 6.96 0 3.844 4.375 6.966 9.777 6.966 3.578 0 6.711-1.372 8.41-3.415"/>
    <path style="stroke:none;fill-rule:nonzero;fill:#262626;fill-opacity:1" d="M7.309 11.992v-.015a2.709 2.709 0 0 0-.633-1.735.492.492 0 0 0-.692-.039.492.492 0 0 0-.023.707l-.004.004-.004-.004.043.059c.106.148.32.52.328 1.027A1.864 1.864 0 0 1 6 13.023c-.023.032-.043.051-.047.055l.004-.004.004.004a.489.489 0 1 0 .715.668 2.709 2.709 0 0 0 .633-1.734c.003-.008 0-.012 0-.02Zm.718 2.77a.502.502 0 0 1-.293-.102.48.48 0 0 1-.09-.672c.004-.004.551-.758.551-1.98 0-1.23-.554-2.051-.558-2.059a.48.48 0 0 1 .777-.558c.035.046.742 1.062.742 2.617 0 1.562-.715 2.523-.75 2.562a.461.461 0 0 1-.379.192Zm1.766.914a.478.478 0 0 1-.29-.098.48.48 0 0 1-.097-.672c.008-.008.793-1.101.793-2.886 0-1.817-.797-2.98-.804-2.993a.482.482 0 0 1 .12-.668.482.482 0 0 1 .669.121c.039.055.972 1.426.972 3.54 0 2.12-.945 3.41-.984 3.464a.461.461 0 0 1-.379.192Zm0 0"/>
    <path style="stroke:none;fill-rule:nonzero;fill:#262626;fill-opacity:1" d="M11.527 16.629a.48.48 0 0 1-.383-.77c.008-.011 1.055-1.46 1.055-3.824 0-2.375-1.054-3.941-1.062-3.96a.479.479 0 0 1 .125-.669.486.486 0 0 1 .668.121c.05.075 1.234 1.813 1.234 4.504 0 2.7-1.195 4.332-1.242 4.403a.523.523 0 0 1-.395.195Zm12.164-1.079a.211.211 0 0 1-.168-.085l-2.671-4.043c-.34-.52-.723-1.106-1.375-1.078-.782.027-1.407.047-1.415.05a.203.203 0 0 1-.207-.19.203.203 0 0 1 .192-.208l1.41-.047c.875-.035 1.344.684 1.723 1.254l.039.067 2.633 3.976a.203.203 0 0 1-.055.277.235.235 0 0 1-.106.028Zm0 0"/>
    <path style="stroke:none;fill-rule:nonzero;fill:#262626;fill-opacity:1" d="M21.18 16.813c-.621 0-.957-.247-1.14-.375a.422.422 0 0 0-.071-.051c-.168-.094-.66-.57-.82-1.028-.09-.25-.153-.37-.239-.539-.043-.086-.094-.18-.152-.312-.13-.278-.586-.645-.75-.766l-.012-.008c-.086-.07-2.047-1.722-2.363-2.015-.309-.278-.371-.453-.414-.614-.004-.007-.004-.02-.008-.03-.035-.126-.078-.462.258-.837.344-.383.937-.183.965-.175l.015.007 3.453 1.989a.2.2 0 0 1 .075.273.194.194 0 0 1-.274.07l-3.418-1.964c-.074-.024-.379-.094-.52.066-.206.223-.187.398-.163.465a.116.116 0 0 1 .007.039c.02.09.047.195.29.418.304.273 2.238 1.902 2.347 2 .094.066.68.508.871.91.059.125.106.215.149.3.086.173.16.313.257.59.125.36.543.758.641.813.031.02.066.047.11.074.156.11.413.297.902.297.113 0 .199.09.199.203 0 .11-.082.2-.195.2Zm0 0"/>
    <path style="stroke:none;fill-rule:nonzero;fill:#262626;fill-opacity:1" d="M16.496 12.52c-.016-.004-1.57-.282-1.957-.34a.561.561 0 0 1-.375-.22c-.152-.214-.11-.483-.105-.51.011-.079.34-1.919.421-2.325a.6.6 0 0 1 .254-.41.6.6 0 0 1 .422-.07c.114.02 2.043.351 2.535.44a.61.61 0 0 1 .446.282c.14.238.07.512.05.578l-.238 1.051-.394-.09.246-1.074c.012-.039.035-.176-.012-.258-.012-.015-.047-.07-.172-.09-.504-.09-2.52-.437-2.543-.441l-.015-.004s-.07-.012-.118.02c-.039.027-.062.074-.078.144-.078.406-.414 2.297-.418 2.317-.004.03-.011.148.035.21.012.024.04.047.11.06.387.058 1.898.327 1.96.339Zm0 0"/>
    <path style="stroke:none;fill-rule:nonzero;fill:#262626;fill-opacity:1" d="M18.113 14.754c-.125 0-.3-.102-.43-.188l-.007-.004c-.309-.218-1.324-.945-1.39-1.011-.118-.094-.2-.281-.231-.38-.059-.179-.016-.386.133-.62.171-.27.527-.25.71-.196l.079.02-.098.39-.09-.027c-.055-.015-.223-.039-.262.032-.074.117-.105.218-.086.277a.56.56 0 0 0 .11.2c.062.054.87.632 1.363.987.082.055.18.106.219.118.074-.004.375-.055.62-.149l.138.375c-.293.106-.66.176-.778.176Zm0 0"/>
    <path style="stroke:none;fill-rule:nonzero;fill:#262626;fill-opacity:1" d="M18.434 15.742c-.137 0-.332-.031-.59-.148-.442-.211-1.149-.504-1.153-.508l-.02-.012-.019-.015a.743.743 0 0 1-.28-.563c-.017-.387.401-.7.679-.715h.012l.16.012a.195.195 0 0 1 .183.21.195.195 0 0 1-.21.184l-.134-.007c-.09.011-.292.16-.289.3a.34.34 0 0 0 .106.243c.137.062.742.316 1.14.5.297.14.45.117.481.109l.023-.016.012.004.754-.183a.195.195 0 0 1 .238.148.195.195 0 0 1-.148.238l-.738.18a.417.417 0 0 1-.207.04Zm0 0"/>
</svg>
