<svg xmlns="http://www.w3.org/2000/svg" width="32" height="32" viewBox="0 0 32 32">
    <path style="stroke:none;fill-rule:nonzero;fill:#000;fill-opacity:1" d="M24.188 20.645c-2.235 2.527-6.192 4.21-10.7 4.21C6.512 24.848.855 20.825.855 15.848c0-4.97 5.657-9 12.633-9 5.825 0 10.727 2.804 12.196 6.62l.378-.073c-1.511-3.934-6.566-6.829-12.574-6.829C6.285 6.566.453 10.72.453 15.848c0 5.125 5.832 9.289 13.035 9.289 4.774 0 8.95-1.828 11.215-4.555"/>
    <path style="stroke:none;fill-rule:nonzero;fill:#000;fill-opacity:1" d="M9.746 15.988v-.02a3.63 3.63 0 0 0-.844-2.312.666.666 0 0 0-.582-.207.65.65 0 0 0-.371 1.098l-.008.004-.003-.004.058.078c.14.2.426.695.438 1.371A2.477 2.477 0 0 1 8 17.363c-.031.043-.059.067-.063.075l.004-.004.008.003a.654.654 0 0 0 .953.89c.543-.647.84-1.464.844-2.311.004-.012 0-.016 0-.028Zm.957 3.696a.677.677 0 0 1-.39-.137.637.637 0 0 1-.122-.895c.008-.007.735-1.011.735-2.64 0-1.64-.739-2.735-.742-2.746a.64.64 0 0 1 1.035-.746c.047.062.988 1.418.988 3.492 0 2.082-.953 3.363-1 3.414a.617.617 0 0 1-.504.258Zm2.356 1.218a.64.64 0 0 1-.555-.316.638.638 0 0 1 .039-.711c.008-.012 1.055-1.469 1.055-3.848 0-2.422-1.063-3.972-1.07-3.992a.644.644 0 0 1 .16-.89c.289-.2.687-.13.89.16.05.074 1.297 1.902 1.297 4.718 0 2.829-1.262 4.547-1.313 4.622a.617.617 0 0 1-.503.257Zm0 0"/>
    <path style="stroke:none;fill-rule:nonzero;fill:#000;fill-opacity:1" d="M15.371 22.172a.633.633 0 0 1-.574-.356.635.635 0 0 1 .062-.671c.012-.016 1.407-1.946 1.407-5.098 0-3.168-1.407-5.254-1.418-5.281a.63.63 0 0 1-.008-.711.64.64 0 0 1 .656-.282.657.657 0 0 1 .41.262c.067.102 1.645 2.418 1.645 6.008 0 3.598-1.594 5.773-1.656 5.867a.693.693 0 0 1-.524.262Zm16.219-1.438a.287.287 0 0 1-.227-.113l-3.562-5.39c-.453-.696-.961-1.477-1.832-1.438-1.043.035-1.875.062-1.887.066a.268.268 0 0 1-.273-.254.269.269 0 0 1 .253-.277l1.88-.062c1.167-.047 1.792.91 2.296 1.671l.055.09 3.508 5.301a.273.273 0 0 1-.07.371.3.3 0 0 1-.141.035Zm0 0"/>
    <path style="stroke:none;fill-rule:nonzero;fill:#000;fill-opacity:1" d="M28.238 22.418c-.828 0-1.273-.328-1.52-.5a.42.42 0 0 0-.093-.07c-.223-.125-.879-.758-1.094-1.368-.12-.335-.203-.496-.316-.722-.059-.113-.125-.238-.203-.414-.176-.371-.782-.86-1-1.02l-.016-.012c-.117-.093-2.73-2.296-3.152-2.687-.41-.371-.496-.605-.551-.816-.008-.012-.008-.028-.012-.043-.047-.168-.105-.614.344-1.114.46-.511 1.25-.246 1.285-.234l.024.008 4.601 2.652a.266.266 0 0 1-.062.488.25.25 0 0 1-.203-.03l-4.555-2.618c-.102-.031-.508-.125-.695.086-.274.297-.25.531-.22.621a.12.12 0 0 1 .012.05c.028.122.063.262.387.56.406.363 2.985 2.535 3.13 2.667.124.086.905.676 1.16 1.211.077.168.14.29.198.403.114.23.215.418.344.785.168.48.723 1.012.856 1.086.039.023.086.062.144.097.207.145.551.395 1.203.395.153 0 .266.121.266.273a.26.26 0 0 1-.262.266Zm0 0"/>
    <path style="stroke:none;fill-rule:nonzero;fill:#000;fill-opacity:1" d="M21.996 16.691c-.023-.003-2.094-.375-2.61-.453a.718.718 0 0 1-.5-.293c-.202-.285-.148-.644-.14-.68.016-.105.453-2.558.563-3.097a.793.793 0 0 1 .336-.547.79.79 0 0 1 .562-.094c.152.028 2.727.47 3.383.586.242.028.46.168.594.375.187.32.093.684.066.774l-.316 1.398-.528-.117.328-1.434c.016-.05.047-.234-.015-.343-.016-.02-.063-.094-.23-.121a605.61 605.61 0 0 0-3.391-.586l-.02-.008s-.094-.016-.156.027c-.05.035-.082.098-.106.192-.101.543-.55 3.062-.554 3.09-.008.038-.016.199.047.28.015.032.05.063.144.079.516.078 2.531.437 2.613.453Zm0 0"/>
    <path style="stroke:none;fill-rule:nonzero;fill:#000;fill-opacity:1" d="M24.152 19.672c-.168 0-.402-.137-.574-.25l-.012-.008c-.41-.289-1.765-1.258-1.851-1.348-.156-.125-.266-.375-.309-.503-.078-.239-.02-.516.18-.829.227-.359.7-.332.945-.261l.106.027-.133.52-.117-.036c-.075-.02-.297-.05-.352.043-.098.157-.14.29-.113.368a.783.783 0 0 0 .144.27c.086.07 1.16.839 1.82 1.315.11.07.239.141.29.157.101-.008.5-.075.828-.2l.183.5c-.39.141-.878.235-1.035.235Zm0 0"/>
    <path style="stroke:none;fill-rule:nonzero;fill:#000;fill-opacity:1" d="M24.578 20.988c-.183 0-.441-.039-.785-.195-.59-.281-1.531-.672-1.54-.68l-.026-.015-.024-.02a.991.991 0 0 1-.375-.75c-.02-.515.535-.933.906-.953h.016l.215.016c.07.004.133.035.18.09.046.05.07.12.062.19a.251.251 0 0 1-.176.231.234.234 0 0 1-.101.012l-.18-.008c-.121.016-.39.215-.387.403a.466.466 0 0 0 .14.32c.184.086.993.422 1.52.668.399.187.602.156.645.144l.031-.02.016.005 1.004-.242a.263.263 0 0 1 .277.101c.02.027.031.063.04.094a.25.25 0 0 1-.032.203.265.265 0 0 1-.164.117l-.985.238a.618.618 0 0 1-.277.055Zm0 0"/>
</svg>
