<svg xmlns="http://www.w3.org/2000/svg" width="24" height="24" fill="none" viewBox="0 0 24 24">
    <path fill="currentColor" d="M3.293 3.293a1 1 0 0 1 1.414 0l13.982 13.983.034.035 1.98 1.98a1 1 0 1 1-1.414 1.414L17.584 19H4.8C3.236 19 2 17.714 2 16.167V8.833c0-1.48 1.13-2.717 2.596-2.823L3.293 4.707a1 1 0 0 1 0-1.414M19.2 6C20.764 6 22 7.286 22 8.833V17a1 1 0 0 1-2 0V8.833A.817.817 0 0 0 19.2 8H11a1 1 0 0 1 0-2zM4.8 8c-.425 0-.8.356-.8.833v7.334c0 .477.375.833.8.833h10.784l-2.1-2.1a2.75 2.75 0 0 1-1.484.434c-1.563 0-2.8-1.287-2.8-2.834 0-.538.15-1.043.41-1.475L6.586 8zm1.808 3.5a1 1 0 0 1 0 2H6.6a1 1 0 0 1 0-2zm10.8 0a1 1 0 0 1 0 2H17.4a1 1 0 0 1 0-2zm-6.2 1.123a.82.82 0 0 0 .705.705z"/>
</svg>
