<svg xmlns="http://www.w3.org/2000/svg" width="24" height="24" fill="none" viewBox="0 0 24 24">
    <path fill="currentColor" d="m15.165 2.174 2.624 2.624 3.494-3.494a1 1 0 1 1 1.414 1.414l-19.99 19.99a1 1 0 1 1-1.414-1.414l2.698-2.698V4a3.01 3.01 0 0 1 3-3h5.34a4 4 0 0 1 2.834 1.174"/>
    <path fill="currentColor" fill-rule="evenodd" d="M5.581 22.645a3 3 0 0 0 1.41.355h10a3.01 3.01 0 0 0 3-3V8.655q0-.202-.02-.4L16 12.225V13h-.774l-1 1H16v2h-2v-1.774l-1 1V19h-2v-1.774l-1 1V19h-.774zm10.126-3.938A1 1 0 0 0 16 18v-1h-2v2h1a1 1 0 0 0 .707-.293" clip-rule="evenodd"/>
</svg>
