<svg width="24" height="24" viewBox="0 0 24 24" fill="none" xmlns="http://www.w3.org/2000/svg">
<path d="M15.1648 2.174L17.7889 4.7981L21.283 1.30403C21.6735 0.913505 22.3067 0.913506 22.6972 1.30403C23.0877 1.69455 23.0877 2.32772 22.6972 2.71824L2.70711 22.7083C2.31658 23.0989 1.68342 23.0989 1.29289 22.7083C0.902369 22.3178 0.902369 21.6846 1.29289 21.2941L3.99082 18.5962V4C3.99319 3.20508 4.31002 2.4434 4.87212 1.8813C5.43421 1.31921 6.1959 1.00237 6.99082 1H12.3308C12.8572 0.999968 13.3783 1.10363 13.8646 1.30507C14.3509 1.50651 14.7927 1.80177 15.1648 2.174Z" fill="black"/>
<path fill-rule="evenodd" clip-rule="evenodd" d="M5.58109 22.6446C6.01104 22.8744 6.49445 22.9985 6.99082 23H16.9908C17.7857 22.9976 18.5474 22.6808 19.1095 22.1187C19.6716 21.5566 19.9884 20.7949 19.9908 20V8.655C19.9908 8.52084 19.984 8.38737 19.9706 8.25506L16 12.2257V13H15.2257L14.2257 14H16V16H14V14.2257L13 15.2257V19H11V17.2257L10 18.2257V19H9.22565L5.58109 22.6446ZM15.7071 18.7071C15.8946 18.5196 16 18.2652 16 18V17H14V19H15C15.2652 19 15.5196 18.8946 15.7071 18.7071Z" fill="black"/>
</svg>
