<svg xmlns="http://www.w3.org/2000/svg" width="24" height="24" fill="none" viewBox="0 0 24 24">
    <path fill="currentColor" d="M3.297 3.295a1 1 0 0 1 1.414 0l15.996 15.998a1 1 0 0 1-1.237 1.554q-.12.17-.266.323a2.73 2.73 0 0 1-1.954.83H6.75c-.738 0-1.44-.302-1.954-.83A2.83 2.83 0 0 1 4 19.2V5.412l-.703-.703a1 1 0 0 1 0-1.414M6 19.2c0 .221.086.427.23.575.142.147.33.225.52.225h10.5c.19 0 .378-.078.52-.225a.8.8 0 0 0 .207-.384l-1.812-1.812c-.334.49-.89.821-1.54.821h-5.25c-1.062 0-1.875-.877-1.875-1.9v-5.4c0-.59.271-1.13.704-1.483L6 7.412zm3.5-2.8H11v-1.6H9.5zm3.5 0h1.5v-.487L13.387 14.8H13zM13.9 2c.739 0 1.441.302 1.955.83l3.35 3.445A2.83 2.83 0 0 1 20 8.245v7.842l-2-2V8.245a.83.83 0 0 0-.23-.575l-3.349-3.445a.74.74 0 0 0-.38-.21L13.901 4H7.913L6.207 2.293a1 1 0 0 0-.24-.177q.38-.115.783-.116zm-4.4 9.2v1.6h1.887l-1.6-1.6zm5.125-2c1.062 0 1.875.877 1.875 1.9v1.487L13.113 9.2z"/>
</svg>
