<svg xmlns="http://www.w3.org/2000/svg" width="24" height="24" fill="none" viewBox="0 0 24 24">
    <path fill="currentColor" d="M12.67 19.605a1 1 0 0 1 1.738.99 2.8 2.8 0 0 1-1.015 1.027 2.76 2.76 0 0 1-2.787 0 2.8 2.8 0 0 1-1.015-1.026 1 1 0 0 1 1.737-.991c.07.122.17.222.287.29a.763.763 0 0 0 1.056-.29M16.334 8.4c0-1.17-.46-2.292-1.273-3.116A4.3 4.3 0 0 0 12 4c-1.145 0-2.247.46-3.06 1.284A4.44 4.44 0 0 0 7.665 8.4c0 2.128-.33 3.621-.868 4.776-.486 1.04-1.118 1.744-1.67 2.324h13.743c-.552-.58-1.184-1.284-1.67-2.324-.539-1.155-.868-2.648-.868-4.776m2 0c0 1.922.297 3.108.68 3.93.289.617.643 1.071 1.051 1.52l.426.453.023.023c.214.239.363.527.436.837l.027.135.017.136a1.91 1.91 0 0 1-.846 1.755c-.308.203-.668.311-1.037.311H4.888a1.88 1.88 0 0 1-1.73-1.138 1.9 1.9 0 0 1-.134-1.067l.027-.134c.073-.31.223-.598.438-.837l.02-.022c.591-.617 1.092-1.149 1.476-1.972.384-.822.681-2.008.681-3.93 0-1.693.664-3.32 1.85-4.521A6.3 6.3 0 0 1 12 2a6.3 6.3 0 0 1 4.482 1.879A6.44 6.44 0 0 1 18.333 8.4"/>
</svg>
