<svg width="24" height="24" viewBox="0 0 24 24" fill="none" xmlns="http://www.w3.org/2000/svg">
<path d="M12 3C12.4927 3 12.9772 3.12919 13.4043 3.375C13.8304 3.62025 14.1853 3.97303 14.4307 4.39941L21.625 16.835C21.8704 17.2564 21.9999 17.7347 22 18.2227C22.0001 18.7122 21.8698 19.1927 21.6231 19.6152C21.3764 20.0377 21.0221 20.3874 20.5977 20.6299C20.1733 20.8722 19.6926 20.9995 19.2041 21H4.81446C4.32662 21.0027 3.84554 20.8786 3.41993 20.6396C2.99174 20.3992 2.63372 20.0501 2.3838 19.627C2.13384 19.2036 2.00111 18.7213 2.00001 18.2295C1.99896 17.7392 2.12937 17.2584 2.37598 16.835L9.56934 4.39941C9.81474 3.97323 10.1697 3.62017 10.5957 3.375C11.0228 3.12919 11.5074 3.00001 12 3ZM12.0088 15.4473C11.4566 15.4474 11.0088 15.8951 11.0088 16.4473C11.0089 16.9994 11.4567 17.4471 12.0088 17.4473H12.0176C12.5698 17.4473 13.0175 16.9995 13.0176 16.4473C13.0176 15.895 12.5699 15.4473 12.0176 15.4473H12.0088ZM12.0088 8.3418C11.4566 8.34192 11.0088 8.78959 11.0088 9.3418V14.5H13.0088V9.3418C13.0088 8.78951 12.5611 8.3418 12.0088 8.3418Z" fill="currentColor"/>
</svg>
