<svg width="16" height="16" viewBox="0 0 16 16" fill="none" xmlns="http://www.w3.org/2000/svg">
<path d="M8.00001 1.75C8.35376 1.75 8.70393 1.83856 9.01465 2.00879C9.32452 2.17864 9.58673 2.42569 9.77051 2.72949L14.9648 11.2754C15.15 11.5769 15.2499 11.9232 15.25 12.2783C15.2501 12.6334 15.1508 12.9796 14.9658 13.2812C14.7811 13.5824 14.5188 13.8272 14.21 13.9951C13.9013 14.163 13.554 14.2497 13.2031 14.25H2.81055C2.46022 14.2519 2.1132 14.1673 1.80372 14.002C1.49209 13.8354 1.22724 13.5908 1.04004 13.2891C0.85264 12.987 0.750847 12.64 0.750005 12.2832C0.749165 11.9264 0.84907 11.5784 1.03516 11.2754L6.2295 2.72949C6.41328 2.42569 6.6755 2.17864 6.98536 2.00879C7.29607 1.83856 7.64626 1.75 8.00001 1.75ZM8.00684 10.5C7.59263 10.5 7.25684 10.8358 7.25684 11.25C7.25696 11.6641 7.5927 12 8.00684 12H8.0127C8.42684 12 8.76259 11.6641 8.7627 11.25C8.7627 10.8358 8.42691 10.5 8.0127 10.5H8.00684ZM8.00684 5.42188C7.59277 5.42188 7.25707 5.75786 7.25684 6.17188V9.78125H8.75684V6.17188C8.75661 5.75797 8.42076 5.42205 8.00684 5.42188Z" fill="currentColor"/>
</svg>
