<svg xmlns="http://www.w3.org/2000/svg" width="16" height="16" fill="none" viewBox="0 0 16 16">
    <path fill="currentColor" d="M13.75 12.278a.4.4 0 0 0-.063-.218l-.002-.002v-.001L8.489 3.509l-.002-.003a.5.5 0 0 0-.193-.182.61.61 0 0 0-.588 0 .5.5 0 0 0-.193.182l-.002.003-5.196 8.549-.002.002a.4.4 0 0 0-.063.22c0 .073.021.15.064.219.044.07.11.133.197.18a.6.6 0 0 0 .294.071H13.2a.6.6 0 0 0 .292-.073.5.5 0 0 0 .194-.18.4.4 0 0 0 .063-.219m-5.737-1.97a.75.75 0 0 1 0 1.5h-.006a.75.75 0 0 1 0-1.5zm-.756-4.136a.75.75 0 0 1 1.5 0v3.61h-1.5zm7.993 6.106c0 .355-.1.702-.284 1.003a2 2 0 0 1-.756.714 2.1 2.1 0 0 1-1.007.255H2.811v-.001a2.1 2.1 0 0 1-1.007-.247 2 2 0 0 1-.764-.713 1.9 1.9 0 0 1-.29-1.006c0-.357.1-.705.285-1.008L6.23 2.73c.183-.303.446-.55.755-.72a2.11 2.11 0 0 1 2.03 0c.31.17.572.417.756.72l5.194 8.546c.185.302.285.648.285 1.003"/>
</svg>
