<svg xmlns="http://www.w3.org/2000/svg" width="24" height="24" fill="none" viewBox="0 0 24 24">
    <path fill="currentColor" d="M12 3c.493 0 .977.13 1.404.375s.781.598 1.027 1.024l7.194 12.436h-.001a2.76 2.76 0 0 1 0 2.78 2.8 2.8 0 0 1-1.026 1.015c-.425.242-.905.37-1.394.37H4.814v-.001a2.8 2.8 0 0 1-1.394-.36 2.8 2.8 0 0 1-1.036-1.012 2.76 2.76 0 0 1-.008-2.792h-.001L9.569 4.399h.001c.246-.426.6-.779 1.026-1.024A2.8 2.8 0 0 1 12 3m0 2a.8.8 0 0 0-.406.108.8.8 0 0 0-.291.29l-.002.003-7.195 12.435-.002.004a.76.76 0 0 0 .295 1.055c.123.07.264.106.407.105h14.396a.8.8 0 0 0 .403-.107.8.8 0 0 0 .29-.287.76.76 0 0 0 0-.766l-.001-.004L12.699 5.4l-.002-.003a.8.8 0 0 0-.29-.29A.8.8 0 0 0 12 5m.018 10.447a1 1 0 1 1 0 2h-.01a1 1 0 0 1 0-2zm-1.01-6.105a1 1 0 0 1 2 0V14.5h-2z"/>
</svg>
