<svg xmlns="http://www.w3.org/2000/svg" width="24" height="24" fill="none" viewBox="0 0 24 24">
    <path fill="currentColor" d="M10.263 19.46h3.369v-3.35h-3.37zM7.473 4.54a.8.8 0 0 0-.654.344l-.005.007L4.23 8.616l-.004.006a1.226 1.226 0 0 0 .204 1.641 1.24 1.24 0 0 0 1.66-.042 2.01 2.01 0 0 1 2.767 0l.09.078a1.24 1.24 0 0 0 1.618-.078 2.01 2.01 0 0 1 2.766 0l.09.077a1.24 1.24 0 0 0 1.617-.077 2.01 2.01 0 0 1 2.769 0 1.24 1.24 0 0 0 1.046.328 1.238 1.238 0 0 0 1.037-1.064c.037-.303-.04-.61-.216-.86l-.006-.006-2.59-3.732-.003-.004a.79.79 0 0 0-.653-.343zm12.633 14.136c0 .735-.295 1.44-.818 1.96a2.8 2.8 0 0 1-1.973.814H6.58c-.74 0-1.45-.293-1.973-.813a2.77 2.77 0 0 1-.817-1.962v-6.467a3.216 3.216 0 0 1-1.766-2.482 3.2 3.2 0 0 1 .566-2.249l2.58-3.715A2.79 2.79 0 0 1 7.474 2.55h8.947l.17.005a2.8 2.8 0 0 1 2.13 1.202h.002l2.59 3.73a3.206 3.206 0 0 1-1.207 4.724zm-4.474.784h1.683a.79.79 0 0 0 .79-.785v-6.174a3.24 3.24 0 0 1-1.601-.772 1 1 0 0 1-.082-.07h-.003l-.001.002a3.247 3.247 0 0 1-4.469 0l-.002-.002-.002.001v.001a3.247 3.247 0 0 1-4.47 0v-.002h-.003l-.001.002a3.24 3.24 0 0 1-1.682.838v6.176c0 .209.084.408.231.555.149.147.35.23.56.23h1.683v-3.455c0-.5.2-.98.555-1.333l.139-.125a1.9 1.9 0 0 1 1.201-.426h3.578a1.9 1.9 0 0 1 1.34.551c.355.354.556.833.556 1.333z"/>
</svg>
