<svg xmlns="http://www.w3.org/2000/svg" width="24" height="24" fill="none" viewBox="0 0 24 24">
    <path fill="currentColor" d="M20.46 2.37A2.01 2.01 0 0 0 18.56 1H5.44a2.01 2.01 0 0 0-1.9 1.37L1 10a3 3 0 0 0 5.45 1.73.28.28 0 0 1 .22-.12.26.26 0 0 1 .2.11 3 3 0 0 0 4.92 0 .255.255 0 0 1 .42 0 3 3 0 0 0 4.92 0 .26.26 0 0 1 .2-.11.28.28 0 0 1 .22.12A3 3 0 0 0 23 10zM20 11a1.03 1.03 0 0 1-.84-.45 2.27 2.27 0 0 0-1.83-.94 2.3 2.3 0 0 0-1.84.96 1 1 0 0 1-.82.43 1.04 1.04 0 0 1-.85-.46A2.27 2.27 0 0 0 12 9.61a2.31 2.31 0 0 0-1.85.96 1 1 0 0 1-.82.43 1.04 1.04 0 0 1-.85-.46 2.25 2.25 0 0 0-1.81-.93 2.3 2.3 0 0 0-1.86.98 1 1 0 0 1-1.78-.35L5.44 3h13.12l2.41 7.24A1.01 1.01 0 0 1 20 11m-1 4a1 1 0 0 0-1 1 1 1 0 0 1-1 1H7a1 1 0 0 1-1-1 1 1 0 1 0-2 0v4a3 3 0 0 0 3 3h10a3 3 0 0 0 3-3v-4a1 1 0 0 0-1-1m-1 5a1 1 0 0 1-1 1H7a1 1 0 0 1-1-1v-1h12z"/>
</svg>
