<svg xmlns="http://www.w3.org/2000/svg" width="24" height="24" fill="none" viewBox="0 0 24 24">
    <path fill="currentColor" d="M15.932 15.02c.218-.041.442-.016.647.068l.001-.002 4.705 1.911h.001a1.147 1.147 0 0 1-.328 2.202l-1.647.112-.112 1.647a1 1 0 0 1-.03.184 1.147 1.147 0 0 1-2.172.144l-1.911-4.706h.002a1.142 1.142 0 0 1 .844-1.56M19.2 4C20.843 4 22 5.445 22 7v6.5a1 1 0 1 1-2 0V11H4v6c0 .654.455 1 .8 1h8.7v2H4.8C3.157 20 2 18.555 2 17V7c0-1.555 1.157-3 2.8-3zM4.8 6c-.345 0-.8.346-.8 1v2h16V7c0-.654-.454-1-.8-1z"/>
</svg>
