<svg width="24" height="24" viewBox="0 0 24 24" fill="none" xmlns="http://www.w3.org/2000/svg">
  <path
    d="M19.5 16C19.5 14.067 17.933 12.5 16 12.5C14.067 12.5 12.5 14.067 12.5 16C10.567 16 9 17.567 9 19.5C9 21.433 10.567 23 12.5 23H19.5C21.433 23 23 21.433 23 19.5C23 17.567 21.433 16 19.5 16Z"
    fill="currentColor" />
  <path d="M4 1C2.34315 1 1 2.34315 1 4V5H21V4C21 2.34315 19.6569 1 18 1H4Z" fill="currentColor" />
  <path fill-rule="evenodd" clip-rule="evenodd"
    d="M21 7H1V13C1 14.6569 2.34315 16 4 16H8.25716C8.91022 15.2092 9.78007 14.6041 10.7757 14.2757C11.4991 12.0828 13.5647 10.5 16 10.5C18.1713 10.5 20.0487 11.7582 20.9429 13.5853C20.9804 13.396 21 13.2003 21 13V7ZM4 11C4 10.4477 4.44772 10 5 10H9C9.55228 10 10 10.4477 10 11C10 11.5523 9.55228 12 9 12H5C4.44772 12 4 11.5523 4 11Z"
    fill="currentColor" />
</svg>
