<svg xmlns="http://www.w3.org/2000/svg" width="24" height="24" fill="none" viewBox="0 0 24 24">
    <path fill="currentColor" d="M20.106 18.676c0 .735-.295 1.44-.818 1.96a2.8 2.8 0 0 1-1.973.814H6.58a2.8 2.8 0 0 1-1.973-.813 2.77 2.77 0 0 1-.817-1.962v-6.467a3.22 3.22 0 0 1-1.766-2.482 3.2 3.2 0 0 1 .566-2.249l2.58-3.715A2.79 2.79 0 0 1 7.474 2.55h8.947l.17.005a2.8 2.8 0 0 1 2.13 1.202l2.593 3.73a3.205 3.205 0 0 1-1.209 4.724zm-4.474.784h1.683a.79.79 0 0 0 .79-.785v-6.174a3.24 3.24 0 0 1-1.601-.772 1 1 0 0 1-.082-.07h-.003l-.001.002a3.247 3.247 0 0 1-4.469 0l-.002-.002-.002.001a3.25 3.25 0 0 1-4.47.001v-.002h-.003l-.001.002a3.24 3.24 0 0 1-1.682.838v6.176a.785.785 0 0 0 .791.785h1.683v-3.455c0-.5.2-.98.555-1.333l.139-.125a1.9 1.9 0 0 1 1.201-.426h3.578a1.9 1.9 0 0 1 1.34.551c.355.354.556.833.556 1.333z"/>
</svg>
