<svg xmlns="http://www.w3.org/2000/svg" width="24" height="24" fill="none" viewBox="0 0 24 24">
    <path fill="currentColor" d="M12 9.5c-1.653 0-3.234.64-4.395 1.768A5.93 5.93 0 0 0 5.89 14.5H18.11a5.93 5.93 0 0 0-1.716-3.232A6.3 6.3 0 0 0 12 9.5m8 7.75a.73.73 0 0 0-.225-.52.83.83 0 0 0-.575-.23H4.8a.83.83 0 0 0-.575.23.73.73 0 0 0-.225.52V18h16zm2 .875c0 .506-.207.987-.566 1.336-.359.348-.84.539-1.334.539H3.9c-.495 0-.975-.19-1.334-.54-.359-.348-.566-.829-.566-1.335v-.875c0-.738.302-1.44.83-1.954a2.8 2.8 0 0 1 1.015-.628 7.92 7.92 0 0 1 2.367-4.835A8.28 8.28 0 0 1 11 7.562V6h-.8a1 1 0 1 1 0-2h3.6a1 1 0 1 1 0 2H13v1.562a8.28 8.28 0 0 1 4.788 2.271 7.92 7.92 0 0 1 2.366 4.835c.376.134.724.345 1.016.628.528.513.83 1.216.83 1.954z"/>
</svg>
