<svg xmlns="http://www.w3.org/2000/svg" width="24" height="24" fill="none" viewBox="0 0 24 24">
    <path fill="currentColor" d="M8.154 18.416a1.834 1.834 0 1 1-.002 3.668 1.834 1.834 0 0 1 .002-3.668m10.083 0a1.834 1.834 0 1 1-.001 3.668 1.834 1.834 0 0 1 .001-3.668M4.533 2c.472 0 .88.33.979.791l2.437 11.384a.835.835 0 0 0 .834.659l.023-.001h8.963a.83.83 0 0 0 .466-.148q.035-.052.091-.156c.09-.171.195-.4.298-.646a14 14 0 0 0 .363-.972q.017-.054.027-.09l.008-.026.001-.01a1 1 0 0 1 1.954.43c-.066.299-.287.912-.507 1.44-.116.275-.246.563-.375.807a4 4 0 0 1-.211.36 1.7 1.7 0 0 1-.34.385 2.83 2.83 0 0 1-1.773.626H8.807v-.001a2.83 2.83 0 0 1-2.75-1.999l-.062-.238L3.724 4H1.7V2zm14.76 2.293a1 1 0 1 1 1.414 1.414l-4 4a1 1 0 0 1-1.414 0l-2-2a1 1 0 1 1 1.414-1.414L16 7.586z"/>
</svg>
