<svg width="24" height="24" viewBox="0 0 24 24" fill="none" xmlns="http://www.w3.org/2000/svg">
  <path fill-rule="evenodd" clip-rule="evenodd"
    d="M6.08296 6H5C3.89543 6 3 6.89543 3 8V20C3 21.6569 4.34315 23 6 23H11.4982C11.1772 22.2304 11 21.3859 11 20.5C11 16.9101 13.9101 14 17.5 14C18.7886 14 19.9897 14.375 21 15.0218V8C21 6.89543 20.1046 6 19 6H17.917C17.441 3.16229 14.973 1 12 1C9.027 1 6.55904 3.16229 6.08296 6ZM8.12602 6H15.874C15.4299 4.27477 13.8638 3 12 3C10.1362 3 8.57006 4.27477 8.12602 6ZM8 12.5C8.82843 12.5 9.5 11.8284 9.5 11C9.5 10.1716 8.82843 9.5 8 9.5C7.17157 9.5 6.5 10.1716 6.5 11C6.5 11.8284 7.17157 12.5 8 12.5ZM17.5 11C17.5 11.8284 16.8284 12.5 16 12.5C15.1716 12.5 14.5 11.8284 14.5 11C14.5 10.1716 15.1716 9.5 16 9.5C16.8284 9.5 17.5 10.1716 17.5 11Z"
    fill="currentColor" />
  <path
    d="M20.7627 18.432L17.2876 22.6773C17.2125 22.7713 17.118 22.8486 17.0102 22.9042C16.9024 22.9598 16.7837 22.9925 16.662 23H16.6099C16.4956 23.0006 16.3822 22.9792 16.2764 22.937C16.1705 22.8947 16.0743 22.8325 15.9931 22.7538L14.2555 21.0556C14.0919 20.8958 14 20.6789 14 20.4528C14 20.2267 14.0919 20.0099 14.2555 19.85C14.4191 19.6901 14.641 19.6003 14.8723 19.6003C15.1037 19.6003 15.3256 19.6901 15.4892 19.85L16.5404 20.8773L19.4074 17.3792C19.5349 17.1916 19.7335 17.0613 19.9594 17.0167C20.1853 16.9722 20.42 17.0173 20.612 17.1419C20.8039 17.2665 20.9373 17.4606 20.9829 17.6814C21.0284 17.9021 20.9823 18.1315 20.8548 18.3191C20.8273 18.3591 20.7965 18.3969 20.7627 18.432Z"
    fill="currentColor" />
</svg>
