<svg xmlns="http://www.w3.org/2000/svg" width="24" height="24" fill="none" viewBox="0 0 24 24">
    <path fill="currentColor" d="M12 1.5a2.9 2.9 0 0 1 1.446.39l6.608 3.798.004.002A2.9 2.9 0 0 1 21.5 8.197v7.604a2.896 2.896 0 0 1-1.442 2.507l-.004.002-6.609 3.797.001.001c-.41.238-.87.37-1.342.386a1 1 0 0 1-.208 0 2.9 2.9 0 0 1-1.342-.386L3.946 18.31l-.004-.002A2.9 2.9 0 0 1 2.5 15.8V8.197l.007-.19A2.895 2.895 0 0 1 3.943 5.69l.003-.002 6.608-3.797V1.89A2.9 2.9 0 0 1 12 1.5M4.5 15.799l.008.118a.91.91 0 0 0 .438.661L11 20.058v-7.482L4.5 8.822zm12.3-5.418a1 1 0 0 1-.114.066L13 12.577v7.482l6.054-3.48.096-.065a.9.9 0 0 0 .35-.714V8.822zM5.509 7.096 12 10.844l2.245-1.297-6.496-3.74zM12 3.5a.9.9 0 0 0-.442.12l-.004.001-1.8 1.033 6.492 3.738 2.244-1.296-6.044-3.475-.004-.002A.9.9 0 0 0 12 3.5"/>
</svg>
