<svg width="24" height="24" viewBox="0 0 24 24" fill="none" xmlns="http://www.w3.org/2000/svg">
  <path fill-rule="evenodd" clip-rule="evenodd" d="M3 1C1.89543 1 1 1.89543 1 3V21C1 22.1046 1.89543 23 3 23H9C10.1046 23 11 22.1046 11 21V3C11 1.89543 10.1046 1 9 1H3ZM4 4C4 4.55228 4.44772 5 5 5H7C7.55228 5 8 4.55228 8 4C8 3.44772 7.55228 3 7 3H5C4.44772 3 4 3.44772 4 4Z" fill="currentColor"/>
  <path fill-rule="evenodd" clip-rule="evenodd" d="M15 13C13.8954 13 13 13.8954 13 15V21C13 22.1046 13.8954 23 15 23H21C22.1046 23 23 22.1046 23 21V15C23 13.8954 22.1046 13 21 13H15ZM17 15C16.4477 15 16 15.4477 16 16C16 16.5523 16.4477 17 17 17H19C19.5523 17 20 16.5523 20 16C20 15.4477 19.5523 15 19 15H17Z" fill="currentColor"/>
  <path fill-rule="evenodd" clip-rule="evenodd" d="M15 1C13.8954 1 13 1.89543 13 3V9C13 10.1046 13.8954 11 15 11H21C22.1046 11 23 10.1046 23 9V3C23 1.89543 22.1046 1 21 1H15ZM17 3C16.4477 3 16 3.44772 16 4C16 4.55228 16.4477 5 17 5H19C19.5523 5 20 4.55228 20 4C20 3.44772 19.5523 3 19 3H17Z" fill="currentColor"/>
</svg>
