<svg xmlns="http://www.w3.org/2000/svg" width="24" height="24" fill="none" viewBox="0 0 24 24">
    <path fill="currentColor" d="M14.818 19H19v-4.182h-4.182zM5 19h3.637V5H5zm9.818-9.818H19V5h-4.182zM21 19.363c0 .847-.644 1.544-1.469 1.628l-.168.009h-4.909l-.167-.009a1.64 1.64 0 0 1-1.46-1.46l-.009-.168v-4.909c0-.903.733-1.635 1.636-1.636h4.91c.903 0 1.636.733 1.636 1.636zm-10.363 0-.01.168A1.637 1.637 0 0 1 9 21H4.637l-.168-.009A1.637 1.637 0 0 1 3 19.363V4.637c0-.847.644-1.544 1.469-1.628L4.637 3H9c.904 0 1.637.733 1.637 1.637zM21 9.546l-.009.167a1.636 1.636 0 0 1-1.628 1.469h-4.909a1.637 1.637 0 0 1-1.628-1.47l-.008-.166v-4.91c0-.903.733-1.636 1.636-1.636h4.91C20.266 3 21 3.733 21 4.637z"/>
</svg>
