<svg xmlns="http://www.w3.org/2000/svg" width="24" height="24" fill="none" viewBox="0 0 24 24"><path fill="currentColor" d="M20.089 19a.79.79 0 0 0-.795-.79.79.79 0 0 0-.794.79c0 .433.352.789.794.79a.79.79 0 0 0 .795-.79M15.315 7.723A3.73 3.73 0 0 0 11.58 4a3.73 3.73 0 0 0-3.737 3.723 3.73 3.73 0 0 0 3.545 3.717l.192.004.192-.005a3.73 3.73 0 0 0 3.544-3.716M22.09 19a2.79 2.79 0 0 1-2.795 2.79 2.787 2.787 0 0 1-1-5.392v-4.553a1 1 0 0 1 2 0v.789h.795a1 1 0 0 1 0 2h-.795v1.764A2.79 2.79 0 0 1 22.089 19M17.315 7.723a5.7 5.7 0 0 1-2.184 4.49 8.6 8.6 0 0 1 1.667.996 1 1 0 0 1-1.215 1.589 6.59 6.59 0 0 0-6.916-.677 6.57 6.57 0 0 0-2.676 2.419A6.54 6.54 0 0 0 5 20a1 1 0 0 1-2 0c0-1.597.448-3.162 1.294-4.519a8.57 8.57 0 0 1 3.731-3.268 5.7 5.7 0 0 1-2.183-4.49C5.842 4.559 8.414 2 11.579 2s5.736 2.56 5.736 5.723"/></svg>