<svg xmlns="http://www.w3.org/2000/svg" width="16" height="16" fill="none" viewBox="0 0 16 16">
    <path fill="currentColor" d="M10.571 14a1.65 1.65 0 0 1-1.21-.504 1.65 1.65 0 0 1-.504-1.21V3.714q0-.707.504-1.21A1.65 1.65 0 0 1 10.57 2h1.715q.707 0 1.21.504.504.503.504 1.21v8.572q0 .707-.504 1.21a1.65 1.65 0 0 1-1.21.504zm-6.857 0a1.65 1.65 0 0 1-1.21-.504A1.65 1.65 0 0 1 2 12.286V3.714q0-.707.504-1.21A1.65 1.65 0 0 1 3.714 2H5.43q.707 0 1.21.504.504.503.504 1.21v8.572q0 .707-.504 1.21A1.65 1.65 0 0 1 5.43 14zm6.857-1.714h1.715V3.714H10.57zm-6.857 0H5.43V3.714H3.714z"/>
</svg>
