<svg width="16" height="16" viewBox="0 0 16 16" fill="none" xmlns="http://www.w3.org/2000/svg">
    <path fill-rule="evenodd" clip-rule="evenodd" d="M6 1.7v12.6c0 .186-.105.364-.293.495A1.249 1.249 0 0 1 5 15a1.25 1.25 0 0 1-.707-.205C4.105 14.664 4 14.485 4 14.3V1.7c0-.186.105-.364.293-.495A1.25 1.25 0 0 1 5 1c.265 0 .52.074.707.205.188.131.293.31.293.495zm5-.7c-.265 0-.52.074-.707.205-.188.131-.293.31-.293.495v12.6c0 .186.105.364.293.495.187.131.442.205.707.205.265 0 .52-.074.707-.205.188-.131.293-.31.293-.495V1.7c0-.186-.105-.364-.293-.495A1.249 1.249 0 0 0 11 1z" fill="currentColor"/>
</svg>
