<svg xmlns="http://www.w3.org/2000/svg" width="32" height="24" fill="none" viewBox="0 0 32 24">
    <g clip-path="url(#pay_pal_32_svg__a)">
        <rect width="32" height="24" fill="#fff" rx="4"/>
        <rect width="31" height="23" x=".5" y=".5" fill="#fff" stroke="#ccc" rx="3.5"/>
        <path fill="#003087" fill-rule="evenodd" d="M17.22 11.05q.043 0 .08.024a.16.16 0 0 1 .075.146.2.2 0 0 1-.027.082l-2.987 4.44a.26.26 0 0 1-.213.115h-.898a.15.15 0 0 1-.081-.023.16.16 0 0 1-.074-.149.16.16 0 0 1 .028-.08l.93-1.35-.989-2.988a.17.17 0 0 1 .02-.145.16.16 0 0 1 .128-.067h.883q.084 0 .153.051.068.052.095.135l.525 1.805 1.236-1.878a.26.26 0 0 1 .214-.117zm-6.963-.085c.431 0 .863.096 1.056.384l.063.093.04-.256a.16.16 0 0 1 .052-.096.15.15 0 0 1 .101-.04l.89.002a.155.155 0 0 1 .15.117.2.2 0 0 1 .004.068l-.483 3.149a.27.27 0 0 1-.088.16.26.26 0 0 1-.169.064h-.804a.154.154 0 0 1-.15-.117.2.2 0 0 1-.004-.068l.044-.26a1.7 1.7 0 0 1-.567.392c-.213.09-.441.136-.671.134-.464 0-.856-.135-1.126-.465-.297-.359-.424-.873-.333-1.412.164-1.08 1.007-1.85 1.995-1.85M6.88 9.276c.625 0 1.096.17 1.361.491.237.292.321.709.237 1.239-.185 1.213-.895 1.826-2.125 1.826h-.59a.26.26 0 0 0-.168.063.27.27 0 0 0-.088.161l-.204 1.33a.27.27 0 0 1-.088.16.26.26 0 0 1-.168.064h-.892a.2.2 0 0 1-.065-.014.161.161 0 0 1-.088-.17l.755-4.923a.27.27 0 0 1 .087-.163.26.26 0 0 1 .17-.066zm3.586 2.663a.98.98 0 0 0-.663.248c-.184.163-.304.39-.338.637a.73.73 0 0 0 .14.648.7.7 0 0 0 .6.247.98.98 0 0 0 .667-.242 1.03 1.03 0 0 0 .342-.636.81.81 0 0 0-.152-.65.738.738 0 0 0-.596-.251m-4.413-1.598a.154.154 0 0 0-.154.134l-.198 1.287h.285c.464 0 .943 0 1.085-.568l.02-.121c.038-.242.008-.417-.09-.536-.164-.197-.483-.196-.82-.196z" clip-rule="evenodd"/>
        <path fill="#009cde" fill-rule="evenodd" d="M23.57 10.96c.43 0 .862.098 1.056.386l.063.093.04-.256a.16.16 0 0 1 .051-.097.15.15 0 0 1 .102-.038l.898.004a.15.15 0 0 1 .15.117.2.2 0 0 1 .004.069l-.484 3.148a.27.27 0 0 1-.087.16.26.26 0 0 1-.169.064h-.804a.15.15 0 0 1-.122-.054.16.16 0 0 1-.038-.131l.04-.263a1.7 1.7 0 0 1-.566.393c-.212.09-.44.135-.67.132-.464 0-.855-.134-1.126-.464-.297-.359-.419-.874-.333-1.413.165-1.08 1.008-1.85 1.995-1.85M20.2 9.28c.624 0 1.094.17 1.36.491.238.292.322.708.238 1.238-.185 1.214-.895 1.827-2.124 1.827h-.592a.26.26 0 0 0-.168.063.27.27 0 0 0-.087.161l-.215 1.393a.2.2 0 0 1-.062.113.18.18 0 0 1-.118.044h-.963a.2.2 0 0 1-.066-.014.16.16 0 0 1-.088-.17l.755-4.923a.27.27 0 0 1 .088-.164.26.26 0 0 1 .171-.065zm7.644-.002q.034 0 .065.015.03.015.053.042a.16.16 0 0 1 .036.129l-.756 4.922a.27.27 0 0 1-.088.16.26.26 0 0 1-.169.064h-.77a.156.156 0 0 1-.153-.185l.766-5.015a.154.154 0 0 1 .153-.132zm-4.062 2.658a.98.98 0 0 0-.663.248c-.184.163-.305.39-.339.637a.8.8 0 0 0 .14.65q.117.129.273.194c.104.043.216.06.327.054.244.006.481-.08.668-.242.162-.142.276-.333.325-.545l.016-.095a.81.81 0 0 0-.151-.65.76.76 0 0 0-.596-.25m-4.41-1.595a.15.15 0 0 0-.1.038.16.16 0 0 0-.053.096l-.198 1.287h.282c.494 0 1.006 0 1.108-.689.037-.242.008-.417-.09-.536-.164-.197-.483-.196-.82-.196z" clip-rule="evenodd"/>
    </g>
    <rect width="31" height="23" x=".5" y=".5" stroke="#ccc" rx="3.5"/>
    <defs>
        <clipPath id="pay_pal_32_svg__a">
            <rect width="32" height="24" fill="#fff" rx="4"/>
        </clipPath>
    </defs>
</svg>
