<svg width="32" height="24" viewBox="0 0 32 24" fill="none" xmlns="http://www.w3.org/2000/svg">
    <rect x=".5" y=".5" width="31" height="23" rx="3.5" fill="#fff" stroke="#CCC"/>
    <path fill-rule="evenodd" clip-rule="evenodd" d="M7.1 11.07c-.1.7-.62.7-1.11.7H5.7l.2-1.3c0-.03.02-.07.05-.1a.15.15 0 0 1 .1-.03h.13c.34 0 .66 0 .82.2.1.12.13.3.1.53Zm-.22-1.8H5a.25.25 0 0 0-.17.07.27.27 0 0 0-.08.16L4 14.42a.16.16 0 0 0 .04.13.16.16 0 0 0 .12.06h.89c.06 0 .12-.02.17-.06a.3.3 0 0 0 .08-.16l.2-1.33a.27.27 0 0 1 .1-.16.2.2 0 0 1 .16-.07h.6c1.22 0 1.93-.61 2.12-1.82.08-.53 0-.95-.24-1.24-.26-.32-.73-.5-1.36-.5Zm4.33 3.57c-.03.25-.15.47-.34.64a.98.98 0 0 1-.66.24.67.67 0 0 1-.6-.25.72.72 0 0 1-.15-.65c.04-.24.16-.47.34-.63a.98.98 0 0 1 .67-.25.73.73 0 0 1 .6.25.8.8 0 0 1 .14.65Zm1.25-1.79h-.9a.15.15 0 0 0-.1.04.16.16 0 0 0-.04.1l-.04.25-.07-.09c-.19-.29-.62-.39-1.05-.39-.99 0-1.83.77-2 1.85-.09.54.04 1.06.34 1.42.27.33.66.46 1.12.46a1.67 1.67 0 0 0 1.24-.52l-.05.25a.16.16 0 0 0 .04.13.16.16 0 0 0 .12.06h.8c.07 0 .13-.02.17-.06.05-.04.08-.1.09-.16l.48-3.15a.16.16 0 0 0-.03-.13.16.16 0 0 0-.12-.06Zm3.86 0h.9c.03 0 .06 0 .08.02l.06.07a.16.16 0 0 1-.01.16l-2.99 4.44a.25.25 0 0 1-.21.11h-.9a.15.15 0 0 1-.14-.08.16.16 0 0 1 .01-.17l.93-1.35-.99-2.98a.16.16 0 0 1 .03-.15.16.16 0 0 1 .12-.06h.88c.06 0 .11.01.16.05.04.03.08.08.1.13l.52 1.8 1.23-1.87a.26.26 0 0 1 .22-.12Z" fill="#003087"/>
    <path fill-rule="evenodd" clip-rule="evenodd" d="M20.41 11.07c-.1.7-.61.7-1.1.7h-.29l.2-1.3c0-.03.02-.07.05-.1a.15.15 0 0 1 .1-.03h.13c.34 0 .66 0 .82.2.1.12.13.3.1.53Zm-.21-1.8h-1.87a.25.25 0 0 0-.17.07.27.27 0 0 0-.09.16l-.75 4.92a.17.17 0 0 0 .03.13.16.16 0 0 0 .12.06h.96c.04 0 .09-.02.12-.04a.19.19 0 0 0 .06-.12l.22-1.39a.27.27 0 0 1 .08-.16.27.27 0 0 1 .17-.06h.6c1.22 0 1.93-.62 2.12-1.83.08-.53 0-.95-.24-1.24-.27-.32-.74-.49-1.36-.49Zm4.33 3.57c-.03.25-.16.48-.34.64a.98.98 0 0 1-.67.24.73.73 0 0 1-.6-.25.8.8 0 0 1-.14-.65c.03-.25.15-.47.34-.64a.98.98 0 0 1 .66-.24.74.74 0 0 1 .6.25.8.8 0 0 1 .15.65Zm1.25-1.8h-.9a.15.15 0 0 0-.1.05.16.16 0 0 0-.05.1l-.04.25-.06-.1c-.2-.28-.63-.38-1.06-.38-.99 0-1.83.77-2 1.85-.08.54.04 1.05.34 1.41.27.33.66.47 1.12.47a1.67 1.67 0 0 0 1.24-.53l-.04.26a.16.16 0 0 0 .1.18l.06.01h.8c.07 0 .13-.02.17-.06.05-.04.08-.1.1-.16l.47-3.15a.16.16 0 0 0-.03-.13.16.16 0 0 0-.12-.06Zm.28 3.38.77-5.01c0-.04.02-.07.05-.1a.15.15 0 0 1 .1-.03h.86a.15.15 0 0 1 .12.05.16.16 0 0 1 .04.13l-.76 4.93c0 .06-.04.12-.09.16a.25.25 0 0 1-.16.06h-.77a.15.15 0 0 1-.12-.06.16.16 0 0 1-.04-.13Z" fill="#009CDE"/>
</svg>
