<svg width="56" height="24" viewBox="0 0 56 24" fill="none" xmlns="http://www.w3.org/2000/svg">
  <path
    d="M11.5218 6.02318C10.9101 5.30681 9.80452 5 8.39376 5H4.29557C4.15578 5.0002 4.02063 5.05157 3.91432 5.14493C3.80802 5.23828 3.73749 5.36751 3.71539 5.50948L2.00496 16.642C1.99639 16.6939 1.99895 16.7472 2.01248 16.798C2.02601 16.8488 2.05017 16.896 2.08328 16.9362C2.11638 16.9764 2.15763 17.0087 2.20414 17.0308C2.25064 17.0529 2.30128 17.0643 2.35252 17.0642H4.88395L5.51887 12.918L5.49971 13.0489C5.52095 12.907 5.59085 12.7777 5.69676 12.6842C5.80268 12.5908 5.93761 12.5394 6.07715 12.5394H7.27856C9.64169 12.5394 11.4903 11.5542 12.0308 8.69722C12.0472 8.61278 12.0609 8.53115 12.0732 8.45093C12.2333 7.39538 12.0732 6.67761 11.5177 6.0274"
    fill="#003087" />
  <path
    d="M42.4989 11.3204C42.3443 12.3647 41.5684 12.3647 40.8186 12.3647H40.3917L40.6913 10.414C40.7001 10.3571 40.7284 10.3053 40.771 10.2678C40.8137 10.2304 40.8679 10.2099 40.9239 10.2099H41.1196C41.63 10.2099 42.113 10.2099 42.3621 10.5083C42.5098 10.6885 42.555 10.9531 42.4989 11.3204ZM42.1719 8.59426H39.3435C39.2484 8.59326 39.1561 8.6278 39.0839 8.69148C39.0117 8.75516 38.9644 8.84364 38.9508 8.94048L37.8069 16.3997C37.8013 16.4344 37.8031 16.4699 37.8123 16.5038C37.8214 16.5376 37.8376 16.5691 37.8597 16.5958C37.8819 16.6226 37.9094 16.6441 37.9405 16.6589C37.9715 16.6736 38.0053 16.6812 38.0395 16.6811H39.4981C39.5639 16.682 39.6278 16.6584 39.6781 16.6147C39.7283 16.571 39.7616 16.5102 39.7718 16.4433L40.0975 14.3322C40.1121 14.2374 40.1591 14.151 40.2301 14.0885C40.3011 14.0261 40.3913 13.9918 40.4847 13.9916H41.381C43.2447 13.9916 44.3202 13.0641 44.6007 11.2247C44.7279 10.4211 44.6007 9.78914 44.2408 9.34721C43.8371 8.86026 43.1242 8.6027 42.1773 8.6027"
    fill="#009CDE" />
  <path
    d="M22.3171 11.3204C22.1624 12.3646 21.3866 12.3646 20.6367 12.3646H20.2043L20.504 10.414C20.5128 10.3571 20.5411 10.3052 20.5837 10.2678C20.6264 10.2304 20.6806 10.2099 20.7366 10.2099H20.9323C21.4427 10.2099 21.9257 10.2099 22.1748 10.5083C22.3239 10.6884 22.3677 10.953 22.3116 11.3204M21.9859 8.59424H19.1617C19.0672 8.59426 18.976 8.62927 18.9046 8.69285C18.8332 8.75643 18.7865 8.84434 18.7731 8.94046L17.6291 16.3996C17.6236 16.4343 17.6254 16.4699 17.6345 16.5037C17.6437 16.5376 17.6599 16.569 17.682 16.5958C17.7041 16.6226 17.7317 16.6441 17.7627 16.6589C17.7938 16.6736 17.8276 16.6812 17.8617 16.6811H19.2123C19.3059 16.6813 19.3965 16.6471 19.4678 16.5846C19.539 16.5222 19.5862 16.4356 19.6009 16.3405L19.9101 14.3266C19.9248 14.2315 19.972 14.1449 20.0433 14.0824C20.1145 14.02 20.2051 13.9858 20.2988 13.986H21.1937C23.0573 13.986 24.1329 13.0585 24.4134 11.219C24.5406 10.4154 24.4134 9.78349 24.0535 9.34156C23.6512 8.85461 22.9383 8.59705 21.9914 8.59705"
    fill="#003087" />
  <path
    d="M28.5593 13.9987C28.5077 14.3748 28.3234 14.7183 28.0416 14.9638C27.7598 15.2093 27.4 15.3397 27.0308 15.3301C26.8613 15.3483 26.6901 15.3237 26.5319 15.2586C26.3737 15.1935 26.2333 15.0897 26.1229 14.9563C26.0124 14.8228 25.9352 14.6637 25.8979 14.4927C25.8606 14.3217 25.8643 14.144 25.9088 13.9748C25.96 13.5997 26.1423 13.2566 26.4216 13.0098C26.7009 12.7629 27.058 12.6292 27.4263 12.6335C27.5947 12.6244 27.7631 12.6537 27.9192 12.7194C28.0754 12.7851 28.2155 12.8855 28.3294 13.0135C28.4354 13.1504 28.511 13.3096 28.5507 13.4798C28.5904 13.6501 28.5934 13.8272 28.5593 13.9987ZM30.4476 11.2866H29.0984C29.0421 11.2867 28.9877 11.3074 28.9451 11.3451C28.9024 11.3828 28.8743 11.4349 28.8658 11.4921L28.8056 11.8806L28.7111 11.7398C28.4183 11.3021 27.7642 11.1558 27.1102 11.1558C25.6132 11.1558 24.3352 12.3225 24.0861 13.9593C23.9493 14.7756 24.1409 15.5553 24.5911 16.0999C25.0016 16.5996 25.5941 16.8036 26.2974 16.8036C26.646 16.807 26.9918 16.7383 27.3141 16.6014C27.6364 16.4646 27.9286 16.2624 28.1734 16.007L28.1063 16.3997C28.101 16.4345 28.103 16.47 28.1124 16.5039C28.1217 16.5378 28.138 16.5692 28.1602 16.5959C28.1825 16.6227 28.2101 16.6442 28.2412 16.6589C28.2723 16.6736 28.3061 16.6812 28.3403 16.6812H29.5595C29.6532 16.6817 29.7439 16.6476 29.8153 16.5851C29.8866 16.5226 29.9337 16.4358 29.9481 16.3406L30.6816 11.5695C30.6869 11.5348 30.6848 11.4992 30.6755 11.4653C30.6662 11.4315 30.6499 11.4001 30.6277 11.3733C30.6054 11.3466 30.5778 11.3251 30.5467 11.3104C30.5156 11.2956 30.4818 11.288 30.4476 11.2881"
    fill="#003087" />
  <path
    d="M48.741 13.999C48.6894 14.3753 48.5049 14.719 48.2228 14.9646C47.9407 15.2101 47.5806 15.3403 47.2112 15.3303C47.0421 15.3411 46.8728 15.3129 46.7157 15.2479C46.5585 15.1829 46.4174 15.0827 46.3026 14.9546C46.1988 14.8166 46.1258 14.6568 46.0889 14.4865C46.052 14.3162 46.0521 14.1397 46.0891 13.9694C46.1406 13.5942 46.3232 13.2511 46.6027 13.0043C46.8823 12.7575 47.2396 12.6237 47.608 12.6282C47.7764 12.6192 47.9447 12.6486 48.1009 12.7143C48.257 12.78 48.3971 12.8803 48.5111 13.0082C48.6172 13.1451 48.6927 13.3042 48.7325 13.4745C48.7722 13.6447 48.7751 13.8218 48.741 13.9933M50.6293 11.2813H49.2746C49.2184 11.2813 49.164 11.302 49.1213 11.3397C49.0787 11.3774 49.0505 11.4296 49.042 11.4868L48.9818 11.8752L48.8874 11.7345C48.5932 11.2968 47.9391 11.1504 47.2864 11.1504C45.7895 11.1504 44.5114 12.3171 44.2624 13.9539C44.1324 14.7702 44.3171 15.5499 44.7673 16.0946C45.1778 16.5942 45.7703 16.7983 46.4736 16.7983C46.8221 16.802 47.1678 16.7334 47.4899 16.5965C47.812 16.4597 48.104 16.2573 48.3483 16.0017L48.2881 16.4C48.2824 16.4354 48.2844 16.4716 48.294 16.5061C48.3036 16.5406 48.3205 16.5725 48.3436 16.5995C48.3666 16.6264 48.3952 16.6477 48.4273 16.6619C48.4593 16.6761 48.494 16.6828 48.5289 16.6814H49.7481C49.8418 16.6819 49.9325 16.6478 50.0038 16.5853C50.0751 16.5228 50.1223 16.4361 50.1367 16.3409L50.8688 11.5698C50.8743 11.5351 50.8725 11.4996 50.8633 11.4657C50.8542 11.4318 50.838 11.4004 50.8159 11.3736C50.7937 11.3468 50.7662 11.3253 50.7351 11.3106C50.7041 11.2959 50.6703 11.2883 50.6361 11.2883"
    fill="#009CDE" />
  <path
    d="M37.6642 11.2866H36.2959C36.2317 11.2866 36.1684 11.3028 36.1117 11.3337C36.0549 11.3646 36.0064 11.4093 35.9702 11.464L34.0983 14.3097L33.302 11.5751C33.2766 11.4931 33.2264 11.4215 33.1587 11.3709C33.091 11.3203 33.0094 11.2932 32.9257 11.2937H31.5874C31.5499 11.2936 31.5129 11.3027 31.4795 11.3203C31.4461 11.338 31.4173 11.3635 31.3955 11.3949C31.3736 11.4263 31.3594 11.4627 31.354 11.5009C31.3486 11.5391 31.3522 11.578 31.3644 11.6145L32.8627 16.1421L31.4533 18.1885C31.4282 18.2247 31.4132 18.2673 31.4101 18.3117C31.4069 18.356 31.4158 18.4004 31.4356 18.44C31.4554 18.4796 31.4854 18.5127 31.5223 18.5359C31.5592 18.5591 31.6016 18.5713 31.6449 18.5713H33.0064C33.0698 18.5713 33.1323 18.5555 33.1885 18.5254C33.2447 18.4953 33.293 18.4516 33.3293 18.3982L37.8558 11.668C37.8802 11.6315 37.8945 11.5889 37.897 11.5446C37.8996 11.5004 37.8904 11.4563 37.8704 11.4171C37.8504 11.3779 37.8204 11.345 37.7836 11.322C37.7468 11.299 37.7046 11.2868 37.6615 11.2866"
    fill="#003087" />
  <path
    d="M52.2238 8.80019L51.0634 16.4001C51.0579 16.4348 51.0597 16.4703 51.0689 16.5042C51.078 16.5381 51.0942 16.5695 51.1163 16.5963C51.1385 16.6231 51.166 16.6446 51.1971 16.6593C51.2281 16.6741 51.2619 16.6817 51.2961 16.6816H52.4633C52.5569 16.6821 52.6477 16.648 52.719 16.5855C52.7903 16.523 52.8375 16.4362 52.8519 16.341L53.9972 8.88182C54.0025 8.84705 54.0005 8.8115 53.9912 8.77763C53.9819 8.74375 53.9655 8.71235 53.9433 8.6856C53.921 8.65884 53.8934 8.63736 53.8623 8.62265C53.8312 8.60793 53.7974 8.60032 53.7632 8.60034H52.4564C52.401 8.60013 52.3472 8.62007 52.3047 8.65663C52.2621 8.69319 52.2335 8.74403 52.2238 8.80019Z"
    fill="#009CDE" />
  <path
    d="M11.5218 6.02318C10.9101 5.30681 9.80452 5 8.39376 5H4.29557C4.15578 5.0002 4.02063 5.05157 3.91432 5.14493C3.80802 5.23828 3.73749 5.36751 3.71539 5.50948L2.00496 16.642C1.99639 16.6939 1.99895 16.7472 2.01248 16.798C2.02601 16.8488 2.05017 16.896 2.08328 16.9362C2.11638 16.9764 2.15763 17.0087 2.20414 17.0308C2.25064 17.0529 2.30128 17.0643 2.35252 17.0642H4.88395L5.51887 12.918L5.49971 13.0489C5.52095 12.907 5.59085 12.7777 5.69676 12.6842C5.80268 12.5908 5.93761 12.5394 6.07715 12.5394H7.27856C9.64169 12.5394 11.4903 11.5542 12.0308 8.69722C12.0472 8.61278 12.0609 8.53115 12.0732 8.45093C12.2333 7.39538 12.0732 6.67761 11.5177 6.0274"
    fill="#003087" />
  <path
    d="M6.20578 8.46078C6.21865 8.37611 6.25144 8.29596 6.30128 8.22729C6.35111 8.15861 6.4165 8.10349 6.49176 8.06671C6.56038 8.03231 6.63573 8.0145 6.71206 8.01464H9.9263C10.2809 8.01189 10.6351 8.03872 10.9854 8.09486C11.0785 8.10893 11.1688 8.12723 11.2591 8.14693C11.3494 8.16664 11.4315 8.19056 11.5136 8.21449L11.6354 8.25389C11.7885 8.3054 11.9373 8.3699 12.0801 8.44671C12.2402 7.39116 12.0801 6.67339 11.5245 6.02318C10.9101 5.30681 9.80452 5 8.39376 5H4.29557C4.15586 5.00048 4.02085 5.05196 3.9146 5.14526C3.80835 5.23856 3.73775 5.36763 3.71539 5.50948L2.00496 16.642C1.99639 16.6939 1.99895 16.7472 2.01248 16.798C2.02601 16.8488 2.05017 16.896 2.08328 16.9362C2.11638 16.9764 2.15763 17.0087 2.20414 17.0308C2.25064 17.0529 2.30128 17.0643 2.35252 17.0642H4.88395L5.51887 12.918L6.20578 8.46078Z"
    fill="#003087" />
  <path
    d="M12.0779 8.44678C12.0656 8.527 12.0519 8.60863 12.0355 8.69307C11.4881 11.5473 9.64634 12.5353 7.28321 12.5353H6.08043C5.94097 12.535 5.80607 12.5863 5.70033 12.6799C5.59458 12.7734 5.52503 12.9029 5.50436 13.0447L4.8886 17.06L4.71346 18.1986C4.70632 18.2437 4.70879 18.2898 4.7207 18.3338C4.73261 18.3778 4.75368 18.4186 4.78244 18.4535C4.8112 18.4883 4.84697 18.5162 4.88727 18.5354C4.92758 18.5546 4.97145 18.5645 5.01586 18.5645H7.15048C7.2725 18.5644 7.39049 18.5196 7.48327 18.4381C7.57606 18.3566 7.63757 18.2437 7.65677 18.1198L7.67729 18.0086L8.07958 15.388L8.10558 15.2473C8.12475 15.1232 8.18621 15.0102 8.27896 14.9285C8.37172 14.8467 8.48973 14.8016 8.61187 14.8012H8.93206C10.9983 14.8012 12.6156 13.9384 13.0891 11.4403C13.2861 10.3974 13.1835 9.52625 12.6622 8.91403C12.4962 8.72467 12.2982 8.56779 12.0779 8.451"
    fill="#009CDE" />
  <path
    d="M11.5111 8.21469C11.429 8.18936 11.3441 8.16684 11.2566 8.14714C11.169 8.12743 11.0787 8.11054 10.9829 8.09506C10.6326 8.03892 10.2784 8.01209 9.92381 8.01484H6.7123C6.63597 8.0147 6.56062 8.03251 6.492 8.06691C6.41674 8.10369 6.35135 8.15881 6.30151 8.22749C6.25168 8.29616 6.21889 8.37632 6.20601 8.46098L5.52184 12.914L5.50269 13.0449C5.52363 12.9031 5.59325 12.7738 5.69894 12.6803C5.80462 12.5869 5.93937 12.5354 6.07876 12.5354H7.28153C9.64466 12.5354 11.4933 11.5502 12.0338 8.6932C12.0502 8.60876 12.0639 8.52713 12.0762 8.44691C11.9337 8.36951 11.7849 8.305 11.6315 8.2541L11.5097 8.21469"
    fill="#012169" />
</svg>
