<svg xmlns="http://www.w3.org/2000/svg" width="24" height="24" fill="none" viewBox="0 0 24 24">
    <path fill="currentColor" d="M12.804 8.267q.016.057.026.114l.017.01a1 1 0 0 0 2 .02h.001l-.001-.019q0-.123-.028-.244a3.536 3.536 0 0 0-4.413-2.9L7.609 6a3.536 3.536 0 0 0-.853 6.478l.002-.003a1 1 0 1 0 .938-1.766 1.536 1.536 0 0 1 .431-2.777l2.796-.749c.82-.22 1.662.267 1.881 1.086"/>
    <path fill="currentColor" d="M11.17 9.62q.01.056.026.113a1.536 1.536 0 0 0 1.88 1.086l2.797-.749a1.536 1.536 0 0 0 .431-2.777l-.042-.023a1 1 0 0 1 .98-1.743l.002-.002a3.536 3.536 0 0 1-.853 6.477l-2.797.75a3.536 3.536 0 0 1-4.413-2.9 1 1 0 0 1-.028-.244l-.001-.018h.002a1 1 0 0 1 2 .02z"/>
    <path fill="currentColor" fill-rule="evenodd" d="M4 1h16a3 3 0 0 1 3 3v10a3 3 0 0 1-3 3H8.41l-5.7 5.71c-.19.186-.444.29-.71.29a1 1 0 0 1-1-1V4a3 3 0 0 1 3-3m16.707 2.293A1 1 0 0 0 20 3H4a1 1 0 0 0-1 1v15.589l4-4.002.58-.587H20a1 1 0 0 0 1-1V4a1 1 0 0 0-.293-.707" clip-rule="evenodd"/>
</svg>
