<svg xmlns="http://www.w3.org/2000/svg" width="24" height="24" fill="none" viewBox="0 0 24 24">
    <path fill="currentColor" d="M18.8 4c.713 0 1.399.28 1.906.783s.794 1.187.794 1.902v10.107c0 .715-.287 1.399-.794 1.901a2.7 2.7 0 0 1-1.906.784H7.604l-.14.013a.7.7 0 0 0-.359.19l-1.87 1.855a1.607 1.607 0 0 1-2.463-.242 1.6 1.6 0 0 1-.272-.89V6.684c0-.715.287-1.4.794-1.902A2.7 2.7 0 0 1 5.2 4zm-4.67 5.845c-.936-1.41-2.91-1.791-4.408-.85l-2.223 1.393c-1.499.94-1.955 2.845-1.02 4.256a3.07 3.07 0 0 0 1.993 1.306v-.002c.48.082.956-.22 1.067-.684a.84.84 0 0 0-.678-1.022l-.043-.008a1.33 1.33 0 0 1-.803-.553c-.407-.613-.209-1.44.442-1.849l2.223-1.394c.65-.408 1.508-.243 1.915.37q.027.042.053.087l.016.003c.093.28.336.502.66.565.486.094.973-.21 1.085-.68a.83.83 0 0 0-.008-.426l-.005-.014a.8.8 0 0 0-.088-.193 3 3 0 0 0-.178-.305m1.582-2.525c-.48-.082-.955.221-1.066.685a.84.84 0 0 0 .677 1.021l.043.008c.322.077.613.266.804.554.406.613.208 1.44-.443 1.849l-2.222 1.394c-.651.408-1.509.242-1.915-.37a1 1 0 0 1-.053-.087l-.017-.003a.86.86 0 0 0-.659-.565c-.487-.094-.973.21-1.086.68a.83.83 0 0 0 .008.425l.006.015a.8.8 0 0 0 .088.193q.078.156.178.305c.936 1.41 2.909 1.791 4.408.851l2.223-1.394c1.498-.94 1.955-2.846 1.02-4.256a3.07 3.07 0 0 0-1.994-1.307z"/>
</svg>
