<svg width="24" height="24" viewBox="0 0 24 24" fill="none" xmlns="http://www.w3.org/2000/svg">
    <path d="M4 2a3 3 0 0 0-3 3v1h20V5a3 3 0 0 0-3-3H4z" fill="#000"/>
    <path fill-rule="evenodd" clip-rule="evenodd" d="M21 8H1v6a3 3 0 0 0 3 3h7a4.993 4.993 0 0 1 4.1-1.999A5.002 5.002 0 0 1 21 11.1V8zM5 12a1 1 0 0 1 1-1h4a1 1 0 1 1 0 2H6a1 1 0 0 1-1-1z" fill="#000"/>
    <path d="M20 13a2.997 2.997 0 0 1 3 3 3 3 0 0 1-3.1 2.998 5.018 5.018 0 0 0-2.847-3.56A3.001 3.001 0 0 1 20 13.001zM15 23a3 3 0 1 0 0-6 3 3 0 0 0 0 6z" fill="#000"/>
</svg>
