<svg xmlns="http://www.w3.org/2000/svg" width="24" height="24" fill="none" viewBox="0 0 24 24">
    <path fill="currentColor" fill-rule="evenodd" d="M4 1h16a3 3 0 0 1 3 3v10a3 3 0 0 1-3 3H8.41l-5.7 5.71A1.013 1.013 0 0 1 2 23a1 1 0 0 1-1-1V4a3 3 0 0 1 3-3Zm8.133 6.914c.028.028.055.057.08.086h.019a1 1 0 0 0 1.742-.982l.001-.001-.01-.015a1.007 1.007 0 0 0-.146-.198A3.536 3.536 0 0 0 8.547 6.5L6.5 8.547A3.536 3.536 0 0 0 9 14.583v-.003a1 1 0 1 0-.07-1.998 1.536 1.536 0 0 1-1.015-2.62L9.96 7.913c.6-.6 1.573-.6 2.172 0Zm.154 1.672a1.536 1.536 0 0 0 2.252.086l2.047-2.047a1.536 1.536 0 0 0-1.015-2.62h-.048a1 1 0 0 1-.023-1.999v-.003A3.536 3.536 0 0 1 18 9.039l-2.047 2.047a3.536 3.536 0 0 1-5.272-.304 1.008 1.008 0 0 1-.146-.197l-.01-.015.002-.001a1 1 0 0 1 1.742-.983h.018Z" clip-rule="evenodd"/>
</svg>
