<svg xmlns="http://www.w3.org/2000/svg" width="24" height="24" fill="none" viewBox="0 0 24 24">
    <path fill="currentColor" d="M14.857 16.416c1.578 0 2.857 1.25 2.857 2.792S16.435 22 14.857 22C13.28 22 12 20.75 12 19.208s1.28-2.792 2.857-2.792M19.2 4C20.843 4 22 5.445 22 7v4a1 1 0 1 1-2 0H4v6c0 .654.455 1 .8 1H10v2H4.8C3.157 20 2 18.555 2 17V7c0-1.555 1.157-3 2.8-3zm-.057 9c.334 0 .655.056.953.16 1.11.383 1.904 1.417 1.904 2.632 0 1.542-1.28 2.792-2.857 2.792l-.096-.002a4.6 4.6 0 0 0-.957-1.985 4.8 4.8 0 0 0-1.754-1.327c.25-1.292 1.411-2.27 2.807-2.27M4.8 6c-.345 0-.8.346-.8 1v2h16V7c0-.654-.454-1-.8-1z"/>
</svg>
