<svg width="24" height="24" fill="none" viewBox="0 0 24 24" xmlns="http://www.w3.org/2000/svg">
	<path d="M31 32v1a6 6 0 0 1-6 6H11.819l-7.41 7.41A1.95 1.95 0 0 1 3 47a2.006 2.006 0 0 1-2-2V23a6 6 0 0 1 6-6h1v6a9.013 9.013 0 0 0 9 9h14Z" fill="currentColor"/>
	<path d="M41 1H17a6 6 0 0 0-6 6v16a6 6 0 0 0 6 6h17.181l9.409 9.409A1.955 1.955 0 0 0 45 39a2.006 2.006 0 0 0 2-2V7a6 6 0 0 0-6-6ZM28.781 22.4a5.2 5.2 0 0 1-3.73 1.6 5.016 5.016 0 0 1-3.579-8.54l3.039-3a5.216 5.216 0 0 1 7.22.03.982.982 0 0 1-.04 1.39l-.02.02a1.015 1.015 0 0 1-1.41.01 3.083 3.083 0 0 0-3.05-.78 3 3 0 0 0-1.27.75c-.39.38-2.709 2.679-3.039 2.989-2.82 3.25 1.659 6.95 4.5 4.12a.955.955 0 0 1 .93-.22.037.037 0 0 0 .03.01.939.939 0 0 1 .419 1.621Zm7.75-7.849-3.04 3a5.216 5.216 0 0 1-7.22-.03.99.99 0 0 1 .03-1.39l.02-.02a1.015 1.015 0 0 1 1.41-.01 3.089 3.089 0 0 0 3.05.78c.482-.14.922-.398 1.28-.75.38-.38 2.7-2.679 3.04-2.989 2.82-3.25-1.66-6.95-4.5-4.12a.98.98 0 0 1-.94.22.031.031 0 0 0-.02-.01.938.938 0 0 1-.43-1.62 5.215 5.215 0 0 1 3.73-1.6 5.019 5.019 0 0 1 3.59 8.537v.002Z" fill="currentColor"/>
</svg>