<svg xmlns="http://www.w3.org/2000/svg" width="24" height="24" fill="none" viewBox="0 0 24 24">
    <path fill="currentColor" d="M18.8 4c.713 0 1.399.28 1.906.783s.794 1.187.794 1.902v10.107c0 .715-.287 1.399-.794 1.901a2.7 2.7 0 0 1-1.906.784H7.604l-.14.013a.7.7 0 0 0-.359.19l-1.87 1.855a1.607 1.607 0 0 1-2.463-.242 1.6 1.6 0 0 1-.272-.89V6.684c0-.715.287-1.4.794-1.902A2.7 2.7 0 0 1 5.2 4zM5.2 6a.7.7 0 0 0-.498.204.68.68 0 0 0-.202.48v12.762l1.198-1.186a2.7 2.7 0 0 1 1.906-.783H18.8a.7.7 0 0 0 .498-.204.68.68 0 0 0 .202-.481V6.685a.68.68 0 0 0-.202-.48A.7.7 0 0 0 18.8 6zm4.522 2.994c1.499-.94 3.472-.56 4.408.85q.099.15.178.306.055.09.088.193l.005.014a.83.83 0 0 1 .008.425c-.112.47-.599.775-1.086.68a.86.86 0 0 1-.659-.564l-.016-.003-.053-.087c-.407-.613-1.264-.778-1.915-.37l-2.223 1.394c-.65.409-.849 1.236-.442 1.849.19.287.482.476.803.553l.043.008a.84.84 0 0 1 .678 1.022c-.111.463-.586.767-1.066.684l-.001.002a3.07 3.07 0 0 1-1.993-1.306c-.935-1.41-.479-3.316 1.02-4.256zm4.924-.99c.11-.463.586-.766 1.066-.684v-.002a3.07 3.07 0 0 1 1.993 1.307c.936 1.41.48 3.316-1.02 4.256l-2.222 1.394c-1.499.94-3.472.559-4.408-.851q-.1-.15-.178-.305a.8.8 0 0 1-.088-.193l-.006-.015h.001a.83.83 0 0 1-.009-.425c.113-.47.6-.774 1.086-.68a.86.86 0 0 1 .66.565l.016.003q.024.045.053.087c.406.612 1.264.778 1.915.37l2.222-1.394c.65-.409.85-1.236.443-1.85a1.33 1.33 0 0 0-.804-.553l-.043-.008a.84.84 0 0 1-.678-1.021"/>
</svg>
