<svg xmlns="http://www.w3.org/2000/svg" width="24" height="24" fill="none" viewBox="0 0 24 24">
    <path fill="currentColor" d="M18 7h2v1.556H4.79Q4.382 8.555 4 8.44v9.783c0 .204.082.4.229.547.147.146.349.23.56.23H11v2H4.79a2.8 2.8 0 0 1-1.97-.811A2.77 2.77 0 0 1 2 18.223V5.777c0-.738.296-1.445.82-1.965A2.8 2.8 0 0 1 4.79 3H18zm.102 4.617a1 1 0 0 1 1.847.766l-.049.116q.45.339.79.79l.118-.049a1 1 0 0 1 .765 1.848l-.119.049q.04.274.041.558-.001.284-.04.557l.118.05a1.001 1.001 0 0 1-.765 1.847l-.119-.048a4 4 0 0 1-.79.789l.05.119a1 1 0 0 1-1.848.764l-.05-.119a4 4 0 0 1-.556.041q-.285-.001-.559-.04l-.048.118a1 1 0 0 1-1.848-.765l.048-.118a4 4 0 0 1-.79-.79l-.115.05a1 1 0 0 1-.766-1.85l.118-.048a4 4 0 0 1 0-1.116l-.118-.048a1.001 1.001 0 0 1 .766-1.848l.116.048a4 4 0 0 1 .789-.789l-.048-.116a1 1 0 0 1 1.848-.766l.047.118a4 4 0 0 1 1.118 0zm-.607 2.078a2 2 0 1 0 0 4.001 2 2 0 0 0 0-4M4.79 5a.8.8 0 0 0-.56.23.77.77 0 0 0 0 1.095c.147.147.349.23.56.23H16V5z"/>
</svg>
