<svg width="24" height="24" viewBox="0 0 24 24" fill="none" xmlns="http://www.w3.org/2000/svg">
  <path
    d="M5.5 1C4.67157 1 4 1.67157 4 2.5L4 4C2.34315 4 1 5.34315 1 7H20C20 5.34315 18.6569 4 17 4V2.5C17 1.67157 16.3284 1 15.5 1C14.6716 1 14 1.67157 14 2.5V4H7V2.5C7 1.67157 6.32843 1 5.5 1Z"
    fill="currentColor" />
  <path fill-rule="evenodd" clip-rule="evenodd"
    d="M20 11.2899V9H1V17C1 18.6569 2.34315 20 4 20H11.2899C11.1013 19.3663 11 18.695 11 18C11 14.134 14.134 11 18 11C18.695 11 19.3663 11.1013 20 11.2899ZM3 12C3 11.4477 3.44775 11 4 11H5C5.55225 11 6 11.4477 6 12C6 12.5523 5.55225 13 5 13H4C3.44775 13 3 12.5523 3 12ZM4 15C3.44775 15 3 15.4477 3 16C3 16.5523 3.44775 17 4 17H5C5.55225 17 6 16.5523 6 16C6 15.4477 5.55225 15 5 15H4ZM8 12C8 11.4477 8.44775 11 9 11H10C10.5522 11 11 11.4477 11 12C11 12.5523 10.5522 13 10 13H9C8.44775 13 8 12.5523 8 12Z"
    fill="currentColor" />
  <path fill-rule="evenodd" clip-rule="evenodd"
    d="M22.2829 18C22.2826 17.7981 22.3295 17.5987 22.4201 17.4163C22.5107 17.2339 22.6427 17.073 22.8066 16.9454C22.8831 16.8891 22.9406 16.8125 22.9719 16.7252C23.0033 16.638 23.007 16.5438 22.9828 16.4545C22.7537 15.7843 22.3791 15.1679 21.8834 14.6454C21.8178 14.5803 21.733 14.5359 21.6402 14.518C21.5475 14.5002 21.4513 14.5097 21.3644 14.5454C21.1668 14.6192 20.9543 14.6493 20.7428 14.6336C20.5313 14.6178 20.3262 14.5566 20.143 14.4545C19.9594 14.3522 19.8019 14.2123 19.6818 14.0449C19.5616 13.8775 19.4819 13.6867 19.4483 13.4863C19.4364 13.3966 19.3963 13.3125 19.3332 13.2452C19.2701 13.1778 19.187 13.1303 19.095 13.109C18.3729 12.9637 17.6269 12.9637 16.9047 13.109C16.813 13.1306 16.7302 13.1782 16.6673 13.2455C16.6044 13.3128 16.5643 13.3968 16.5524 13.4863C16.5188 13.6867 16.4391 13.8775 16.319 14.0449C16.1988 14.2123 16.0413 14.3522 15.8577 14.4545C15.6742 14.5568 15.4688 14.6182 15.257 14.6339C15.0451 14.6497 14.8323 14.6194 14.6344 14.5454C14.5475 14.5097 14.4513 14.5002 14.3586 14.518C14.2658 14.5359 14.181 14.5803 14.1154 14.6454C13.6212 15.1682 13.248 15.7847 13.0203 16.4545C12.9953 16.5433 12.9981 16.6372 13.0285 16.7245C13.0589 16.8117 13.1155 16.8886 13.1912 16.9454C13.3552 17.073 13.4872 17.2338 13.5778 17.4163C13.6684 17.5987 13.7153 17.7981 13.715 18C13.7152 18.2019 13.6684 18.4013 13.5778 18.5837C13.4871 18.7661 13.3551 18.927 13.1912 19.0546C13.1148 19.111 13.0575 19.1876 13.0263 19.2749C12.9952 19.3622 12.9916 19.4563 13.016 19.5455C13.2446 20.2157 13.6191 20.8323 14.1149 21.3546C14.1805 21.4197 14.2654 21.4641 14.3581 21.482C14.4508 21.4998 14.5471 21.4903 14.634 21.4546C14.8316 21.381 15.044 21.3509 15.2555 21.3666C15.467 21.3824 15.672 21.4435 15.8553 21.5455C16.0388 21.6478 16.1963 21.7877 16.3163 21.9552C16.4364 22.1226 16.516 22.3134 16.5495 22.5137C16.5615 22.6032 16.6015 22.6872 16.6644 22.7545C16.7273 22.8218 16.8101 22.8694 16.9019 22.891C17.624 23.0363 18.37 23.0363 19.0922 22.891C19.184 22.8695 19.2668 22.8219 19.3297 22.7546C19.3926 22.6872 19.4326 22.6032 19.4445 22.5137C19.4784 22.313 19.5587 22.1219 19.6795 21.9545C19.8003 21.787 19.9587 21.6473 20.143 21.5455C20.3264 21.4432 20.5317 21.3818 20.7435 21.3661C20.9553 21.3503 21.168 21.3806 21.3658 21.4546C21.4527 21.4903 21.5489 21.4998 21.6417 21.482C21.7344 21.4641 21.8192 21.4197 21.8848 21.3546C22.3805 20.8321 22.7552 20.2157 22.9842 19.5455C23.0085 19.4562 23.0047 19.362 22.9734 19.2748C22.9421 19.1875 22.8846 19.1109 22.8081 19.0546C22.644 18.9271 22.5117 18.7663 22.4208 18.5838C22.33 18.4014 22.2829 18.202 22.2829 18ZM19.225 18C19.225 18.6904 18.6653 19.25 17.975 19.25C17.2846 19.25 16.725 18.6904 16.725 18C16.725 17.3096 17.2846 16.75 17.975 16.75C18.6653 16.75 19.225 17.3096 19.225 18Z"
    fill="currentColor" />
</svg>
