<svg width="24" height="24" viewBox="0 0 24 24" fill="none" xmlns="http://www.w3.org/2000/svg">
  <path
    d="M21 1.5H5C4.20508 1.50237 3.4434 1.81921 2.8813 2.3813C2.31921 2.9434 2.00237 3.70508 2 4.5V12.7547C3.13383 11.9638 4.51275 11.5 6 11.5C9.86599 11.5 13 14.634 13 18.5C13 18.8395 12.9758 19.1734 12.9291 19.5H21C21.5299 19.4984 22.0377 19.2872 22.4125 18.9125C22.7872 18.5377 22.9984 18.0299 23 17.5V13.5H17C16.4701 13.4984 15.9623 13.2872 15.5875 12.9125C15.2128 12.5377 15.0016 12.0299 15 11.5V9.5C15.0016 8.97005 15.2128 8.46227 15.5875 8.08753C15.9623 7.7128 16.4701 7.50158 17 7.5H23V3.5C22.9984 2.97005 22.7872 2.46227 22.4125 2.08753C22.0377 1.7128 21.5299 1.50158 21 1.5Z"
    fill="currentColor" />
  <path
    d="M19.5 10.5C19.5 10.7967 19.412 11.0867 19.2472 11.3334C19.0824 11.58 18.8481 11.7723 18.574 11.8858C18.2999 11.9994 17.9983 12.0291 17.7074 11.9712C17.4164 11.9133 17.1491 11.7704 16.9393 11.5607C16.7296 11.3509 16.5867 11.0836 16.5288 10.7926C16.4709 10.5017 16.5006 10.2001 16.6142 9.92597C16.7277 9.65189 16.92 9.41762 17.1666 9.2528C17.4133 9.08797 17.7033 9 18 9C18.3978 9 18.7794 9.15804 19.0607 9.43934C19.342 9.72064 19.5 10.1022 19.5 10.5Z"
    fill="currentColor" />
  <path
    d="M5 22.5C4.99988 22.2345 5.10402 21.9795 5.29 21.79L7.59 19.5H2C1.73478 19.5 1.48043 19.3946 1.29289 19.2071C1.10536 19.0196 1 18.7652 1 18.5C1 18.2348 1.10536 17.9804 1.29289 17.7929C1.48043 17.6054 1.73478 17.5 2 17.5H7.59L5.29 15.21C5.10402 15.0205 4.99988 14.7655 5 14.5C5 14.2348 5.10536 13.9804 5.29289 13.7929C5.48043 13.6054 5.73478 13.5 6 13.5C6.26553 13.4999 6.52049 13.604 6.71 13.79L10.71 17.79C10.8959 17.9796 11.0001 18.2345 11.0001 18.5C11.0001 18.7655 10.8959 19.0204 10.71 19.21L6.71 23.21C6.52049 23.396 6.26553 23.5001 6 23.5C5.73478 23.5 5.48043 23.3946 5.29289 23.2071C5.10536 23.0196 5 22.7652 5 22.5Z"
    fill="currentColor" />
</svg>
