<svg xmlns="http://www.w3.org/2000/svg" width="24" height="24" fill="none" viewBox="0 0 24 24">
    <path fill="currentColor" d="M18 7h2v1.556H4.79Q4.382 8.555 4 8.44v9.783c0 .204.082.4.229.547.147.146.349.23.56.23H20v2H4.79a2.8 2.8 0 0 1-1.97-.811A2.77 2.77 0 0 1 2 18.223V5.777c0-.738.296-1.445.82-1.965A2.8 2.8 0 0 1 4.79 3H18zm-.707 3.293a1 1 0 1 1 1.414 1.414L17.414 13H21a1 1 0 1 1 0 2h-3.586l1.293 1.293a1 1 0 1 1-1.414 1.414l-3-3a1 1 0 0 1 0-1.414zM4.789 5a.8.8 0 0 0-.56.23.77.77 0 0 0 0 1.095c.147.147.349.23.56.23H16V5z"/>
</svg>
