<svg width="24" height="24" viewBox="0 0 24 24" fill="none" xmlns="http://www.w3.org/2000/svg">
  <path
    d="M6.5 4C6.99446 4 7.4778 4.14662 7.88893 4.42133C8.30005 4.69603 8.62048 5.08648 8.8097 5.54329C8.99892 6.00011 9.04843 6.50277 8.95197 6.98773C8.8555 7.47268 8.6174 7.91814 8.26777 8.26777C7.91814 8.6174 7.47268 8.8555 6.98773 8.95196C6.50278 9.04843 6.00011 8.99892 5.54329 8.8097C5.08648 8.62048 4.69603 8.30005 4.42133 7.88893C4.14662 7.4778 4 6.99445 4 6.5C4 5.83696 4.26339 5.20107 4.73223 4.73223C5.20108 4.26339 5.83696 4 6.5 4ZM6.5 2C5.60999 2 4.73996 2.26392 3.99994 2.75839C3.25991 3.25285 2.68314 3.95566 2.34254 4.77792C2.00195 5.60019 1.91283 6.50499 2.08647 7.37791C2.2601 8.25082 2.68868 9.05264 3.31802 9.68198C3.94736 10.3113 4.74918 10.7399 5.6221 10.9135C6.49501 11.0872 7.39981 10.9981 8.22208 10.6575C9.04434 10.3169 9.74715 9.74009 10.2416 9.00007C10.7361 8.26004 11 7.39002 11 6.5C11 5.30653 10.5259 4.16193 9.68198 3.31802C8.83807 2.47411 7.69348 2 6.5 2ZM17.5 15C17.9945 15 18.4778 15.1466 18.8889 15.4213C19.3001 15.696 19.6205 16.0865 19.8097 16.5433C19.9989 17.0001 20.0484 17.5028 19.952 17.9877C19.8555 18.4727 19.6174 18.9181 19.2678 19.2678C18.9181 19.6174 18.4727 19.8555 17.9877 19.952C17.5028 20.0484 17.0001 19.9989 16.5433 19.8097C16.0865 19.6205 15.696 19.3 15.4213 18.8889C15.1466 18.4778 15 17.9945 15 17.5C15 16.837 15.2634 16.2011 15.7322 15.7322C16.2011 15.2634 16.837 15 17.5 15ZM17.5 13C16.61 13 15.74 13.2639 14.9999 13.7584C14.2599 14.2529 13.6831 14.9557 13.3425 15.7779C13.0019 16.6002 12.9128 17.505 13.0865 18.3779C13.2601 19.2508 13.6887 20.0526 14.318 20.682C14.9474 21.3113 15.7492 21.7399 16.6221 21.9135C17.495 22.0872 18.3998 21.9981 19.2221 21.6575C20.0443 21.3169 20.7471 20.7401 21.2416 20.0001C21.7361 19.26 22 18.39 22 17.5C22 16.3065 21.5259 15.1619 20.682 14.318C19.8381 13.4741 18.6935 13 17.5 13ZM21 2C20.7345 1.99988 20.4795 2.10402 20.29 2.29L2.29 20.29C2.10402 20.4795 1.99988 20.7345 2 21C2 21.2652 2.10536 21.5196 2.2929 21.7071C2.48043 21.8946 2.73479 22 3 22C3.26553 22.0001 3.52049 21.896 3.71 21.71L21.71 3.71C21.896 3.52049 22.0001 3.26553 22 3C22 2.73478 21.8946 2.48043 21.7071 2.29289C21.5196 2.10536 21.2652 2 21 2Z"
    fill="currentColor" />
</svg>
