<svg width="24" height="24" viewBox="0 0 24 24" fill="none" xmlns="http://www.w3.org/2000/svg">
    <path d="M12.471 14.031a1.77 1.77 0 0 0 2.5-.015l1.09-1.091a1.778 1.778 0 0 1 2.509-.007l3.744 3.744A2.361 2.361 0 0 1 22.3 20l-.839.839a7.189 7.189 0 0 1-7.938 1.579 23.39 23.39 0 0 1-7.085-4.858 23.39 23.39 0 0 1-4.858-7.083 7.19 7.19 0 0 1 1.579-7.938L4 1.7a2.36 2.36 0 0 1 3.34-.015l3.744 3.744a1.778 1.778 0 0 1-.007 2.509l-1.093 1.09a1.77 1.77 0 0 0-.015 2.5l2.502 2.503z" fill="#000"/>
</svg>
