<svg xmlns="http://www.w3.org/2000/svg" width="24" height="24" fill="none" viewBox="0 0 24 24">
    <path fill="currentColor" d="m19.52 8.144-.003-.004-.002-.001zm-5.053 11.245h1.208v-.61c0-.1-.015-.425.09-.718.08-.226.202-.414.371-.58l.104-.09c.102-.081.199-.136.264-.17.086-.046.19-.092.278-.133l.278-.14a4.6 4.6 0 0 0 1.592-1.43c.052-.077.207-.322.413-.487.158-.127.325-.213.517-.27.249-.074.514-.063.6-.063h.218v-2.59a1.6 1.6 0 0 1-.37-.07v.001c-.24-.08-.443-.209-.62-.394a1.6 1.6 0 0 1-.248-.353 6 6 0 0 1-.129-.265l-.088-.18a4.6 4.6 0 0 0-.826-1.126c-.051-.052-.217-.206-.328-.387l-.06-.106a1.5 1.5 0 0 1-.124-.337V8.89c-.05-.205-.042-.418-.042-.483v-.643l-1.87.531-.002.001q-.018.005-.065.016a4.36 4.36 0 0 1-4.1 2.868A4.36 4.36 0 0 1 8.053 9.46a4.545 4.545 0 0 0-.284 6.694l.143.146q.046.051.096.113l.09.13.06.105c.054.106.095.215.124.335l.027.154c.019.15.015.282.015.331v1.92h1.208v-.07c0-.114-.002-.264.01-.396a1.5 1.5 0 0 1 .158-.583c.148-.288.382-.52.668-.664l.163-.07c.16-.056.305-.075.412-.084.13-.01.28-.01.395-.01h1.322c.116 0 .264 0 .395.01.143.012.353.042.574.154.25.126.462.32.61.56l.059.104.072.166c.058.161.078.308.087.417.01.132.01.282.01.396zm8.023-3.991a1.5 1.5 0 0 1-.158.583c-.148.288-.382.52-.668.664a1.5 1.5 0 0 1-.575.153c-.13.011-.28.01-.395.01h-.382a6.7 6.7 0 0 1-2.537 2.139v.747c0 .114 0 .263-.01.395a1.5 1.5 0 0 1-.158.583c-.148.288-.382.52-.668.664a1.5 1.5 0 0 1-.575.154c-.13.01-.28.01-.395.01h-1.795c-.115 0-.264 0-.395-.01a1.5 1.5 0 0 1-.575-.154 1.53 1.53 0 0 1-.668-.664 1.5 1.5 0 0 1-.159-.583c-.01-.132-.01-.281-.01-.395v-.07h-.734v.07c0 .114 0 .263-.01.395a1.5 1.5 0 0 1-.16.582c-.129.252-.324.462-.562.607l-.105.058a1.5 1.5 0 0 1-.575.154c-.13.01-.28.01-.395.01H8.031c-.115 0-.264 0-.395-.01a1.5 1.5 0 0 1-.575-.154 1.52 1.52 0 0 1-.668-.664 1.5 1.5 0 0 1-.158-.583c-.01-.132-.01-.281-.01-.395v-2.11a6.66 6.66 0 0 1-1.807-3.591A2.935 2.935 0 0 1 1.5 11.062c0-1.093.6-2.04 1.475-2.542a1.047 1.047 0 0 1 1.432.393c.287.506.113 1.15-.39 1.44a.82.82 0 0 0-.417.709.83.83 0 0 0 .82.82 6.68 6.68 0 0 1 2.793-4.428 4.4 4.4 0 0 1-.043-.614c0-2.41 1.963-4.34 4.357-4.34 2.132 0 3.92 1.53 4.287 3.567l1.552-.44c.145-.04.32-.09.475-.12.16-.03.42-.065.713.017h.001c.317.09.598.28.798.543l.08.117.056.1c.118.228.15.448.162.592.015.157.014.34.014.49v.925a6.7 6.7 0 0 1 1.21 1.718c.07.001.142 0 .209.006.136.01.336.038.55.14.27.13.498.336.652.595l.061.114v.001c.105.217.133.42.144.558.01.125.009.268.009.376v3.204c0 .114 0 .263-.01.395M9.27 6.84c0 1.218.998 2.228 2.257 2.228a2.247 2.247 0 0 0 2.258-2.228c0-1.219-.999-2.229-2.258-2.229A2.243 2.243 0 0 0 9.27 6.84"/>
</svg>
