<svg xmlns="http://www.w3.org/2000/svg" width="24" height="24" fill="none" viewBox="0 0 24 24">
    <path fill="currentColor" d="M12 2c5.523 0 10 4.477 10 10s-4.477 10-10 10S2 17.523 2 12 6.477 2 12 2m0 2a8 8 0 0 0-3.507 15.191c.006-.4.038-.796.116-1.134.171-.74 1.102-4.706 1.102-4.706-.008-.016-.281-.579-.281-1.406 0-1.315.757-2.299 1.7-2.299.8 0 1.188.607 1.188 1.333 0 .812-.512 2.026-.778 3.152-.221.942.47 1.71 1.392 1.71 1.67 0 2.953-1.773 2.953-4.333 0-2.266-1.616-3.852-3.924-3.852-2.673 0-4.242 2.02-4.242 4.108 0 .813.31 1.687.699 2.16a.29.29 0 0 1 .064.271l-.26 1.074c-.042.173-.136.21-.315.127C6.734 14.845 6 13.116 6 11.728 6 8.744 8.153 6 12.208 6 15.468 6 18 8.34 18 11.467c0 3.262-2.041 5.887-4.875 5.888-.952 0-1.847-.498-2.153-1.087l-.586 2.25a7 7 0 0 1-.469 1.206A8 8 0 1 0 12 4"/>
</svg>
