<svg xmlns="http://www.w3.org/2000/svg" width="32" height="24" fill="none" viewBox="0 0 32 24">
    <g clip-path="url(#pix_32_svg__a)">
        <rect width="32" height="24" fill="#fff" rx="4"/>
        <rect width="31" height="23" x=".5" y=".5" fill="#fff" stroke="#ccc" rx="3.5"/>
        <path fill="#32bcad" fill-rule="evenodd" d="M15.759 13.296c.19-.19.52-.19.709 0l2.7 2.7c.5.499 1.163.774 1.87.774h.324l-3.428 3.43a2.735 2.735 0 0 1-3.868 0l-3.418-3.42h.53c.707 0 1.371-.275 1.87-.774zm-5.877-5.31q.065.027.139.028h1.158c.487 0 .964.197 1.308.542l2.71 2.71c.253.252.584.379.916.379s.664-.127.916-.38l2.7-2.7c.345-.344.821-.541 1.308-.541h.943a.4.4 0 0 0 .147-.03l2.072 2.073a2.735 2.735 0 0 1 0 3.867l-2.072 2.072a.4.4 0 0 0-.147-.03h-.943c-.487 0-.963-.198-1.307-.542l-2.7-2.7c-.49-.489-1.343-.489-1.833 0l-2.71 2.71a1.86 1.86 0 0 1-1.308.541H10.02a.4.4 0 0 0-.14.029l-2.08-2.08a2.735 2.735 0 0 1 0-3.867zm4.185-4.185a2.735 2.735 0 0 1 3.867 0l3.428 3.43h-.325c-.706 0-1.37.274-1.869.773l-2.7 2.7a.5.5 0 0 1-.71 0l-2.71-2.71c-.498-.499-1.163-.774-1.87-.774h-.53z" clip-rule="evenodd"/>
    </g>
    <rect width="31" height="23" x=".5" y=".5" stroke="#ccc" rx="3.5"/>
    <defs>
        <clipPath id="pix_32_svg__a">
            <rect width="32" height="24" fill="#fff" rx="4"/>
        </clipPath>
    </defs>
</svg>
