<svg width="32" height="24" viewBox="0 0 32 24" fill="none" xmlns="http://www.w3.org/2000/svg">
    <rect x=".5" y=".5" width="31" height="23" rx="3.5" fill="#fff" stroke="#CCC"/>
    <path fill-rule="evenodd" clip-rule="evenodd" d="M11.18 7.22c.705 0 1.37.275 1.869.774l2.71 2.71a.502.502 0 0 0 .709 0l2.7-2.7a2.629 2.629 0 0 1 1.87-.774h.325l-3.43-3.43a2.734 2.734 0 0 0-3.867.001l-3.419 3.42h.532zm9.858 9.55c-.707 0-1.37-.275-1.87-.774l-2.7-2.7a.513.513 0 0 0-.71 0l-2.71 2.71a2.625 2.625 0 0 1-1.869.774h-.532l3.42 3.42a2.735 2.735 0 0 0 3.867 0l3.429-3.43h-.325zm1.089-8.776 2.072 2.072a2.735 2.735 0 0 1 0 3.868l-2.072 2.072a.394.394 0 0 0-.147-.03h-.942c-.488 0-.964-.197-1.309-.542l-2.7-2.7c-.489-.49-1.342-.489-1.832 0l-2.71 2.71a1.862 1.862 0 0 1-1.308.542h-1.158a.394.394 0 0 0-.14.028l-2.08-2.08a2.734 2.734 0 0 1 0-3.868l2.08-2.08c.044.016.09.028.14.028h1.158c.487 0 .964.198 1.308.542l2.71 2.71a1.296 1.296 0 0 0 1.833-.001l2.7-2.7a1.862 1.862 0 0 1 1.308-.541h.942a.395.395 0 0 0 .147-.03z" fill="#32BCAD"/>
</svg>
