<svg xmlns="http://www.w3.org/2000/svg" width="24" height="24" fill="none" viewBox="0 0 24 24">
    <path fill="currentColor" d="M10.23 2.94a2.5 2.5 0 0 1 3.536 0l7.29 7.29c.976.975.976 2.56 0 3.535l-2.66 2.66v.1h-.1l-4.53 4.53a2.5 2.5 0 0 1-3.536 0l-7.29-7.29a2.5 2.5 0 0 1-.172-3.345l.172-.19zm1.97 10.25-2.32 2.652a2 2 0 0 1-1.361.674l3.125 3.125a.5.5 0 0 0 .707 0l3.28-3.28c-.232-.1-.446-.24-.627-.422l-2.753-2.754zm-7.846-1.546a.5.5 0 0 0 0 .707l2.174 2.174h1.845l1.988-2.271-2.426-2.427H6.17zm9.637.453 2.427 2.428h1.05l2.174-2.174a.5.5 0 0 0 0-.707l-1.818-1.817H15.98zm-1.64-7.744a.5.5 0 0 0-.707 0L8.156 7.84c.449.05.87.252 1.193.574l2.752 2.752q.026-.003.052-.004l2.32-2.652a2 2 0 0 1 1.358-.675z"/>
</svg>
