<svg width="24" height="24" viewBox="0 0 24 24" fill="none" xmlns="http://www.w3.org/2000/svg">
    <path d="M17.89 6.158c-.865 0-1.675.335-2.285.945l-3.312 3.312a.614.614 0 0 1-.867 0l-3.3-3.3a3.211 3.211 0 0 0-2.284-.945h-.397l4.19-4.191a3.34 3.34 0 0 1 4.724 0l4.179 4.179h-.649zM5.842 17.826c.862 0 1.674-.336 2.284-.945l3.3-3.3a.625.625 0 0 1 .867 0l3.312 3.312a3.21 3.21 0 0 0 2.284.945h.652l-4.182 4.179a3.34 3.34 0 0 1-4.725 0l-4.189-4.191h.397z" fill="currentColor"/>
    <path d="M4.473 7.14 1.98 9.633a3.34 3.34 0 0 0 0 4.725l2.494 2.497h1.369c.595 0 1.177-.242 1.598-.663l3.298-3.298c.598-.597 1.643-.597 2.24 0l3.31 3.31a2.278 2.278 0 0 0 1.599.663h1.62l2.51-2.509a3.34 3.34 0 0 0 0-4.725L19.51 7.127h-1.62c-.596 0-1.178.242-1.6.664l-3.312 3.312a1.575 1.575 0 0 1-1.119.463 1.58 1.58 0 0 1-1.118-.463l-3.3-3.3a2.277 2.277 0 0 0-1.6-.664H4.474z" fill="currentColor"/>
</svg>
