<svg version="1.1" id="pix_full_24_svg__Layer_1" xmlns="http://www.w3.org/2000/svg" x="0" y="0" viewBox="0 0 600 600" style="enable-background:new 0 0 600 600" xml:space="preserve">
    <style>
        .pix_full_24_svg__st1{fill:#97969b}.pix_full_24_svg__st2{fill:#4bb6a7}
    </style>
    <radialGradient id="pix_full_24_svg__SVGID_1_" cx="-5492.114" cy="2437.729" r="2.037" gradientTransform="matrix(.0301 0 0 -.017 527.321 275.202)" gradientUnits="userSpaceOnUse">
        <stop offset="0" style="stop-color:#f9fafb"/>
        <stop offset=".247" style="stop-color:#f7f7f8"/>
        <stop offset=".403" style="stop-color:#eeeff0"/>
        <stop offset=".535" style="stop-color:#e0e0e2"/>
        <stop offset=".652" style="stop-color:#cdcbce"/>
        <stop offset=".76" style="stop-color:#b3b0b5"/>
        <stop offset=".862" style="stop-color:#948f95"/>
        <stop offset=".956" style="stop-color:#706971"/>
        <stop offset="1" style="stop-color:#5c545d"/>
    </radialGradient>
    <path style="fill:url(#pix_full_24_svg__SVGID_1_)" d="M361.73 233.82h.08v.09h-.08z"/>
    <path class="pix_full_24_svg__st1" d="M248.57 383.08c-1.92 0-3.47-1.55-3.47-3.47V272.53c0-22.6 18.39-40.99 40.99-40.99l33.26.05c22.53.04 40.86 18.41 40.86 40.93v27.81c0 22.6-18.39 40.99-40.99 40.99h-52.2c-1.92 0-3.47-1.55-3.47-3.47 0-1.92 1.55-3.47 3.47-3.47h52.2c18.78 0 34.05-15.28 34.05-34.05v-27.81c0-18.71-15.22-33.96-33.93-34l-33.25-.05c-18.77 0-34.05 15.28-34.05 34.05V379.6c0 1.93-1.55 3.48-3.47 3.48M395.85 341.82c-1.91 0-3.47-1.55-3.47-3.47v-87.97c0-6.58-5.35-11.93-11.93-11.93h-14.42c-1.92 0-3.47-1.55-3.47-3.47s1.55-3.47 3.47-3.47h14.42c10.4 0 18.87 8.46 18.87 18.87v87.97c0 1.92-1.55 3.47-3.47 3.47"/>
    <path class="pix_full_24_svg__st2" d="m392.76 222.69-6.54-6.54a4.165 4.165 0 0 1 0-5.88l6.54-6.54a4.158 4.158 0 0 1 5.89 0l6.54 6.54a4.165 4.165 0 0 1 0 5.88l-6.54 6.54c-1.64 1.62-4.27 1.62-5.89 0"/>
    <path class="pix_full_24_svg__st1" d="M437.66 341.32h-14.31c-1.91 0-3.47-1.55-3.47-3.47s1.55-3.47 3.47-3.47h14.31c6.48 0 12.58-2.53 17.17-7.11l33.46-32.84c2.75-2.75 6.41-4.27 10.3-4.27 3.89 0 7.55 1.52 10.3 4.27l33.34 32.72a24.13 24.13 0 0 0 17.17 7.11h11.63c1.92 0 3.47 1.55 3.47 3.47 0 1.91-1.55 3.47-3.47 3.47H559.4c-8.34 0-16.18-3.25-22.07-9.14L504 299.34a7.586 7.586 0 0 0-5.4-2.23c-2.04 0-3.95.79-5.39 2.23l-33.46 32.84c-5.92 5.89-13.75 9.14-22.09 9.14M437.66 231.52h-14.31c-1.91 0-3.47 1.55-3.47 3.47s1.55 3.47 3.47 3.47h14.31c6.48 0 12.58 2.53 17.17 7.11l33.46 32.84c2.75 2.75 6.41 4.27 10.3 4.27 3.89 0 7.55-1.52 10.3-4.27l33.34-32.72a24.13 24.13 0 0 1 17.17-7.11h11.63c1.92 0 3.47-1.55 3.47-3.47 0-1.91-1.55-3.47-3.47-3.47H559.4c-8.34 0-16.18 3.25-22.07 9.14L504 273.5a7.586 7.586 0 0 1-5.4 2.23c-2.04 0-3.95-.79-5.39-2.23l-33.46-32.84c-5.92-5.89-13.75-9.14-22.09-9.14"/>
    <path class="pix_full_24_svg__st2" d="M65.8 353.21c7.18 0 13.93-2.8 19.01-7.87l27.45-27.45c1.93-1.93 5.29-1.93 7.21 0l27.55 27.55c5.08 5.08 11.83 7.87 19.01 7.87h5.41l-34.76 34.76c-10.86 10.86-28.46 10.86-39.32 0L62.5 353.21h3.3zM166.02 256.13c-7.18 0-13.93 2.8-19.01 7.87l-27.55 27.55a5.11 5.11 0 0 1-7.21 0L84.81 264.1c-5.08-5.07-11.83-7.87-19.01-7.87h-3.31l34.86-34.86c10.86-10.86 28.46-10.86 39.31 0l34.76 34.76h-5.4z"/>
    <path class="pix_full_24_svg__st2" d="m33.66 285.06 20.76-20.76H65.8c4.95 0 9.8 2.01 13.3 5.51l27.45 27.45c2.57 2.57 5.94 3.85 9.32 3.85 3.37 0 6.75-1.29 9.31-3.85l27.55-27.55c3.5-3.5 8.34-5.51 13.3-5.51h13.48l20.87 20.87c10.86 10.86 10.86 28.46 0 39.31l-20.86 20.86h-13.48c-4.95 0-9.8-2.01-13.3-5.51l-27.55-27.55c-4.98-4.97-13.66-4.98-18.63 0L79.1 339.63c-3.5 3.5-8.35 5.51-13.3 5.51H54.42l-20.76-20.76c-10.86-10.86-10.86-28.46 0-39.32"/>
    <path class="pix_full_24_svg__st1" d="M270.44 367.39c-1.59 0-3.48.42-5.3.89V376c1.28.52 2.72.75 4.11.75 3.54 0 5.19-1.33 5.19-4.7 0-3.24-1.38-4.66-4-4.66m-6.85 14.83v-16.06h1.28l.1.7c1.68-.44 4-1.02 5.7-1.02 1.34 0 2.66.23 3.75 1.21 1.26 1.14 1.66 2.98 1.66 4.98 0 2.14-.65 4.1-2.35 5.17-1.21.77-2.83 1.05-4.29 1.05-1.45 0-2.85-.23-4.29-.7v4.68h-1.56zM284.5 367.32c-3.52 0-5.07 1.21-5.07 4.63 0 3.33 1.53 4.82 5.07 4.82 3.47 0 5.05-1.21 5.05-4.63 0-3.33-1.55-4.82-5.05-4.82m4.78 9.66c-1.24.98-2.87 1.26-4.77 1.26-1.95 0-3.6-.3-4.8-1.26-1.36-1.05-1.9-2.77-1.9-4.93 0-2.14.52-3.89 1.9-4.96 1.19-.95 2.85-1.25 4.8-1.25 1.9 0 3.54.3 4.77 1.25 1.38 1.07 1.91 2.82 1.91 4.94-.01 2.16-.55 3.9-1.91 4.95M305.75 377.91l-3.92-9.45h-.09l-3.87 9.45h-1.49l-4.35-11.75h1.69l3.48 9.61h.08l3.82-9.61h1.48l3.92 9.61h.08l3.4-9.61h1.61l-4.36 11.75zM318.61 367.23c-3.23 0-4.34 1.54-4.55 3.84h9.09c-.1-2.54-1.29-3.84-4.54-3.84m-.1 11.01c-1.99 0-3.35-.3-4.42-1.3-1.24-1.19-1.65-2.91-1.65-4.89 0-1.86.54-3.87 1.97-5.03 1.19-.91 2.68-1.19 4.21-1.19 1.4 0 3 .16 4.29 1.14 1.57 1.19 1.84 3.19 1.84 5.49h-10.7c.04 2.31.77 4.29 4.67 4.29 1.93 0 3.79-.35 5.51-.68v1.44c-1.83.36-3.82.73-5.72.73M327.3 377.91v-11.76h1.28l.1.7c2.18-.6 3.29-1.02 5.24-1.02h.19v1.58h-.42c-1.61 0-2.64.23-4.84.86v9.64h-1.55zM341.22 367.23c-3.22 0-4.33 1.54-4.54 3.84h9.09c-.11-2.54-1.3-3.84-4.55-3.84m-.1 11.01c-1.99 0-3.35-.3-4.42-1.3-1.24-1.19-1.65-2.91-1.65-4.89 0-1.86.54-3.87 1.97-5.03 1.2-.91 2.68-1.19 4.21-1.19 1.4 0 3 .16 4.29 1.14 1.57 1.19 1.84 3.19 1.84 5.49h-10.7c.04 2.31.78 4.29 4.67 4.29 1.93 0 3.79-.35 5.51-.68v1.44c-1.82.36-3.82.73-5.72.73M360.08 368.07c-1.26-.51-2.7-.74-4.1-.74-3.54 0-5.18 1.33-5.18 4.73 0 3.24 1.38 4.63 4 4.63 1.59 0 3.46-.42 5.28-.86v-7.76zm.29 9.84-.11-.7c-1.7.44-4.02 1.02-5.7 1.02-1.34 0-2.66-.21-3.75-1.21-1.25-1.14-1.65-2.98-1.65-4.98 0-2.14.65-4.08 2.35-5.14 1.21-.79 2.83-1.07 4.31-1.07 1.43 0 2.81.26 4.25.7v-5.33h1.55v16.72h-1.25zM379.34 367.39c-1.59 0-3.46.42-5.3.89v7.7c1.3.54 2.72.77 4.11.77 3.54 0 5.19-1.33 5.19-4.7-.01-3.24-1.39-4.66-4-4.66m3.28 9.8c-1.21.77-2.83 1.05-4.3 1.05-1.57 0-3.14-.3-4.71-.88l-.06.56h-1.07V361.2h1.55v5.61c1.68-.44 3.92-.98 5.53-.98 1.34 0 2.66.23 3.75 1.21 1.26 1.14 1.66 2.98 1.66 4.98 0 2.15-.65 4.08-2.35 5.17M386.03 382.43v-1.51c.59.07 1.17.12 1.59.12 1.49 0 2.37-.46 3.16-2.26l.36-.86-5.59-11.76h1.8l4.57 9.85h.08l4.32-9.85h1.7l-5.87 13.09c-1.09 2.44-2.28 3.3-4.5 3.3-.53 0-1.07-.05-1.62-.12M414.83 371.21h-4.11v4.12h4.13c2.83 0 3.9-.35 3.9-2.07 0-1.84-1.47-2.05-3.92-2.05m-.75-6.68h-3.35v4.19h3.37c2.79 0 3.9-.37 3.9-2.12 0-1.86-1.41-2.07-3.92-2.07m6.37 12.27c-1.51 1.07-3.33 1.12-6.66 1.12h-6.26v-15.95h6.12c2.87 0 4.63.05 6.09 1.02 1.05.7 1.47 1.77 1.47 3.17 0 1.68-.63 2.79-2.26 3.54v.09c1.85.47 3.04 1.52 3.04 3.77-.02 1.54-.52 2.54-1.54 3.24M433.67 372.98c-1.24-.12-2.49-.19-3.81-.19-2.16 0-2.91.49-2.91 1.58 0 1.02.63 1.58 2.28 1.58 1.38 0 3.04-.35 4.44-.7v-2.27zm.63 4.93-.08-.7c-1.8.49-3.89 1.02-5.74 1.02-1.13 0-2.34-.16-3.2-.86-.79-.63-1.17-1.65-1.17-2.84 0-1.33.52-2.56 1.78-3.19 1.11-.58 2.6-.63 3.96-.63 1.11 0 2.6.07 3.83.16v-.21c0-1.84-1.09-2.44-4.06-2.44-1.15 0-2.56.07-3.9.21v-2.37c1.49-.14 3.16-.23 4.55-.23 1.84 0 3.75.16 4.92 1.09 1.21.96 1.44 2.28 1.44 4.03v6.96h-2.33zM449.56 377.91v-6.5c0-2.14-.98-2.91-2.74-2.91-1.3 0-2.93.37-4.31.75v8.66h-2.95v-11.76h2.41l.1.75c1.86-.54 3.94-1.07 5.66-1.07 1.3 0 2.62.21 3.62 1.21.84.84 1.15 2 1.15 3.68v7.19h-2.94zM460.23 378.24c-1.36 0-2.85-.21-3.94-1.23-1.3-1.16-1.67-3-1.67-4.98 0-1.86.54-3.89 2.16-5.03 1.32-.96 2.95-1.17 4.65-1.17 1.22 0 2.41.09 3.73.23v2.51c-1.07-.12-2.34-.21-3.37-.21-2.81 0-4.13.98-4.13 3.68 0 2.54.99 3.63 3.29 3.63 1.34 0 2.91-.28 4.44-.6v2.42c-1.66.38-3.46.75-5.16.75M473.85 368.3c-2.81 0-4.04.98-4.04 3.66s1.22 3.82 4.04 3.82c2.79 0 4-.95 4-3.63 0-2.69-1.19-3.85-4-3.85m5.07 8.71c-1.3.98-2.99 1.23-5.07 1.23-2.12 0-3.81-.28-5.09-1.23-1.47-1.07-1.99-2.84-1.99-4.96s.52-3.91 1.99-4.98c1.28-.95 2.97-1.23 5.09-1.23 2.09 0 3.77.28 5.07 1.23 1.47 1.07 1.97 2.86 1.97 4.96 0 2.11-.53 3.91-1.97 4.98M497.17 378.24c-1.78 0-3.71-.33-5.15-1.65-1.72-1.58-2.24-4.03-2.24-6.66 0-2.35.67-5.14 2.91-6.77 1.74-1.26 3.9-1.52 6.07-1.52 1.59 0 3.23.12 5.01.28v2.86c-1.53-.14-3.41-.26-4.88-.26-4.08 0-5.82 1.72-5.82 5.4 0 3.75 1.61 5.43 4.63 5.43 1.97 0 4.17-.44 6.39-.96v2.84c-2.23.5-4.56 1.01-6.92 1.01M512.28 367.93c-2.45 0-3.39.98-3.58 2.77h7.12c-.08-1.91-1.09-2.77-3.54-2.77m-.44 10.31c-1.74 0-3.31-.23-4.48-1.3-1.26-1.16-1.7-2.91-1.7-4.91 0-1.79.52-3.79 1.99-4.96 1.3-1.02 2.95-1.23 4.63-1.23 1.51 0 3.29.19 4.59 1.19 1.7 1.33 1.84 3.37 1.86 5.8h-10.06c.06 1.79.92 2.96 3.9 2.96 1.85 0 3.9-.3 5.64-.6v2.31c-2.03.34-4.25.74-6.37.74M531.13 377.91v-6.5c0-2.14-.98-2.91-2.75-2.91-1.3 0-2.93.37-4.31.75v8.66h-2.95v-11.76h2.41l.1.75c1.86-.54 3.94-1.07 5.66-1.07 1.3 0 2.62.21 3.62 1.21.84.84 1.15 2 1.15 3.68v7.19h-2.93zM541.9 378.24c-1.42 0-2.72-.44-3.43-1.68-.52-.84-.78-1.98-.78-3.56v-4.4h-2.14v-2.44h2.14l.31-3.56h2.62v3.56h4.17v2.44h-4.17v3.77c0 .91.06 1.68.29 2.23.31.79 1 1.09 1.93 1.09.69 0 1.53-.12 2.11-.23v2.35c-.96.22-2.07.43-3.05.43M547.01 377.91v-11.76h2.41l.11.75c1.95-.61 3.39-1.07 5.23-1.07.09 0 .21 0 .38.02v2.79c-.34-.02-.73-.02-1.03-.02-1.45 0-2.54.19-4.15.61v8.68h-2.95zM565.42 372.98c-1.24-.12-2.49-.19-3.81-.19-2.16 0-2.91.49-2.91 1.58 0 1.02.63 1.58 2.28 1.58 1.38 0 3.04-.35 4.44-.7v-2.27zm.63 4.93-.08-.7c-1.8.49-3.89 1.02-5.74 1.02-1.13 0-2.34-.16-3.2-.86-.79-.63-1.17-1.65-1.17-2.84 0-1.33.52-2.56 1.78-3.19 1.11-.58 2.6-.63 3.96-.63 1.11 0 2.6.07 3.83.16v-.21c0-1.84-1.09-2.44-4.06-2.44-1.15 0-2.56.07-3.9.21v-2.37c1.49-.14 3.16-.23 4.55-.23 1.84 0 3.75.16 4.92 1.09 1.21.96 1.44 2.28 1.44 4.03v6.96h-2.33zM571.31 361.2h2.96v16.72h-2.96z"/>
</svg>
