<svg width="68" height="24" viewBox="0 0 68 24" fill="none" xmlns="http://www.w3.org/2000/svg">
    <path d="M27.629 22.373a.43.43 0 0 1-.43-.43V8.676c0-2.8 2.278-5.079 5.077-5.079l4.12.006a5.079 5.079 0 0 1 5.061 5.071v3.446c0 2.8-2.278 5.079-5.077 5.079h-6.466a.43.43 0 1 1 0-.86h6.466a4.223 4.223 0 0 0 4.217-4.219V8.674a4.219 4.219 0 0 0-4.202-4.212l-4.119-.006a4.224 4.224 0 0 0-4.218 4.218v13.267a.43.43 0 0 1-.43.432ZM45.87 17.26a.43.43 0 0 1-.43-.43V5.93a1.48 1.48 0 0 0-1.477-1.478h-1.786a.43.43 0 1 1 0-.86h1.786a2.34 2.34 0 0 1 2.337 2.338v10.9a.43.43 0 0 1-.43.43" fill="#97969B"/>
    <path d="m45.489 2.5-.81-.81a.516.516 0 0 1 0-.728l.81-.81a.516.516 0 0 1 .73 0l.81.81a.516.516 0 0 1 0 .728l-.81.81c-.203.201-.53.201-.73 0Z" fill="#4BB6A7"/>
    <path d="M51.05 17.199h-1.772a.43.43 0 0 1 0-.86h1.772c.803 0 1.559-.314 2.127-.881l4.145-4.069c.34-.34.794-.529 1.275-.529.482 0 .936.188 1.276.529l4.13 4.054a2.989 2.989 0 0 0 2.127.88h1.44a.43.43 0 1 1 0 .86h-1.44a3.84 3.84 0 0 1-2.734-1.132l-4.129-4.054a.94.94 0 0 0-.668-.276.937.937 0 0 0-.668.276l-4.145 4.07a3.853 3.853 0 0 1-2.736 1.132Zm0-13.604h-1.772a.43.43 0 0 0 0 .86h1.772c.803 0 1.559.313 2.127.88l4.145 4.07c.34.34.794.528 1.275.528.482 0 .936-.188 1.276-.529l4.13-4.054a2.988 2.988 0 0 1 2.127-.88h1.44a.43.43 0 1 0 0-.86h-1.44a3.841 3.841 0 0 0-2.734 1.132l-4.129 4.054a.939.939 0 0 1-.668.276.937.937 0 0 1-.668-.276l-4.145-4.069a3.853 3.853 0 0 0-2.736-1.132" fill="#97969B"/>
    <path d="M4.99 18.672c.89 0 1.725-.347 2.355-.975l3.4-3.401a.646.646 0 0 1 .893 0l3.412 3.413c.63.63 1.465.975 2.355.975h.67l-4.306 4.307a3.443 3.443 0 0 1-4.87 0l-4.318-4.32h.409ZM17.404 6.644c-.89 0-1.726.347-2.355.975l-3.412 3.413a.633.633 0 0 1-.894 0l-3.398-3.4a3.312 3.312 0 0 0-2.355-.976h-.41l4.318-4.319a3.441 3.441 0 0 1 4.869 0l4.306 4.307h-.67Z" fill="#4BB6A7"/>
    <path d="M1.009 10.228 3.58 7.656h1.41c.613 0 1.214.249 1.647.683l3.4 3.4c.319.32.736.478 1.155.478.417 0 .836-.16 1.153-.477l3.412-3.414a2.344 2.344 0 0 1 1.648-.682h1.67l2.585 2.585a3.443 3.443 0 0 1 0 4.87l-2.584 2.585h-1.67a2.346 2.346 0 0 1-1.647-.682l-3.413-3.414c-.617-.615-1.692-.617-2.307 0L6.637 16.99a2.346 2.346 0 0 1-1.647.683H3.58L1.01 15.1a3.445 3.445 0 0 1 0-4.872Z" fill="#4BB6A7"/>
    <path d="M30.338 20.429c-.197 0-.431.052-.657.11v.956c.159.065.337.093.51.093.438 0 .642-.165.642-.582 0-.401-.17-.577-.495-.577Zm-.849 1.837v-1.99h.159l.012.087c.208-.055.495-.126.706-.126.166 0 .33.028.465.15.156.14.205.369.205.616 0 .266-.08.509-.29.641-.15.096-.351.13-.532.13-.18 0-.353-.028-.532-.087v.58h-.193v-.001Zm2.59-1.846c-.436 0-.628.15-.628.574 0 .412.19.597.628.597.43 0 .626-.15.626-.574 0-.412-.192-.597-.626-.597Zm.592 1.197c-.153.121-.355.156-.59.156-.242 0-.447-.037-.595-.156-.169-.13-.236-.343-.236-.611 0-.265.065-.482.236-.614.147-.118.353-.155.594-.155.236 0 .439.037.591.155.171.132.237.349.237.611-.001.268-.068.484-.237.614Zm2.04.115-.485-1.17h-.011l-.48 1.17h-.184l-.54-1.456h.21l.431 1.19h.01l.473-1.19h.184l.485 1.19h.01l.421-1.19h.2l-.54 1.456h-.184Zm1.593-1.323c-.4 0-.537.19-.563.476h1.126c-.013-.315-.16-.476-.563-.476Zm-.012 1.364c-.247 0-.415-.037-.548-.161-.153-.148-.204-.36-.204-.606 0-.23.067-.48.244-.623.147-.113.332-.148.521-.148.174 0 .372.02.532.142.194.147.228.395.228.68h-1.326c.005.286.096.531.579.531.239 0 .47-.043.682-.084v.178c-.226.045-.473.09-.708.09Zm1.089-.041v-1.457h.158l.012.087c.27-.075.408-.127.65-.127h.023v.196h-.052c-.2 0-.327.029-.6.107v1.194h-.191Zm1.724-1.323c-.4 0-.536.19-.563.476h1.126c-.013-.315-.16-.476-.563-.476Zm-.013 1.364c-.246 0-.414-.037-.547-.161-.154-.148-.205-.36-.205-.606 0-.23.067-.48.245-.623.148-.113.331-.148.521-.148.173 0 .372.02.531.142.195.147.228.395.228.68H38.54c.005.286.097.531.578.531.24 0 .47-.043.683-.084v.178c-.226.045-.473.09-.709.09Zm2.349-1.26a1.373 1.373 0 0 0-.508-.092c-.438 0-.642.165-.642.586 0 .402.171.574.496.574.197 0 .428-.052.654-.107v-.961Zm.036 1.219-.014-.087c-.21.055-.498.127-.706.127-.166 0-.33-.026-.464-.15-.155-.142-.205-.37-.205-.617 0-.265.08-.506.291-.637.15-.098.35-.133.534-.133.177 0 .348.033.527.087v-.66h.192v2.071h-.155v-.001Zm2.35-1.303c-.197 0-.43.052-.657.11v.954c.161.067.337.095.51.095.438 0 .642-.165.642-.582-.001-.401-.172-.577-.495-.577Zm.406 1.214c-.15.095-.35.13-.533.13-.194 0-.389-.037-.583-.11l-.008.07h-.132v-2.071h.192v.695c.208-.055.485-.122.685-.122.166 0 .33.029.464.15.156.141.206.37.206.617 0 .267-.08.506-.291.64Zm.422.65v-.188c.073.009.145.015.197.015.185 0 .294-.057.392-.28l.044-.107-.692-1.457h.223l.566 1.22h.01l.535-1.22h.21l-.727 1.622c-.135.302-.282.409-.557.409-.066 0-.133-.006-.2-.015Zm3.567-1.391h-.509v.51h.512c.35 0 .483-.043.483-.256 0-.228-.182-.254-.486-.254Zm-.092-.828h-.415v.52h.417c.346 0 .483-.046.483-.263 0-.23-.175-.257-.485-.257Zm.789 1.52c-.187.133-.413.14-.825.14h-.776v-1.977h.758c.356 0 .574.006.755.127.13.086.182.219.182.392 0 .208-.078.346-.28.439v.011c.229.058.376.188.376.467-.002.19-.064.315-.19.401Zm1.637-.473a4.874 4.874 0 0 0-.472-.023c-.267 0-.36.06-.36.195 0 .127.078.196.282.196.171 0 .377-.043.55-.087v-.28Zm.078.611-.01-.087c-.223.061-.482.127-.71.127-.14 0-.29-.02-.397-.107-.098-.078-.145-.204-.145-.352 0-.165.064-.317.22-.395.138-.072.322-.078.49-.078.138 0 .323.009.475.02v-.026c0-.228-.135-.302-.503-.302-.142 0-.317.008-.483.026v-.294c.185-.017.392-.029.564-.029.228 0 .465.02.61.135.15.12.178.283.178.5v.862h-.289Zm1.89 0v-.805c0-.265-.121-.36-.34-.36-.16 0-.362.045-.533.092v1.073h-.365v-1.457h.298l.013.093c.23-.067.488-.133.7-.133.162 0 .325.026.449.15.104.104.142.248.142.456v.891h-.364Zm1.322.04c-.168 0-.353-.025-.488-.151-.161-.144-.207-.372-.207-.617 0-.23.067-.482.268-.624.163-.119.365-.145.576-.145.15 0 .298.012.462.029v.31a4.032 4.032 0 0 0-.418-.025c-.348 0-.511.121-.511.456 0 .315.122.45.407.45.166 0 .36-.035.55-.075v.3a2.947 2.947 0 0 1-.639.093Zm1.687-1.23c-.348 0-.5.12-.5.453 0 .332.15.473.5.473.346 0 .495-.118.495-.45 0-.333-.147-.477-.495-.477Zm.628 1.078c-.161.122-.37.153-.628.153-.263 0-.472-.035-.63-.152-.183-.133-.247-.352-.247-.615s.064-.484.247-.617c.158-.118.367-.152.63-.152.259 0 .467.034.628.152.182.133.244.354.244.614 0 .262-.066.485-.244.617Zm2.26.153c-.22 0-.459-.041-.637-.204-.213-.196-.278-.5-.278-.826 0-.29.083-.636.36-.838.216-.157.484-.189.752-.189.197 0 .4.015.621.035v.354a7.193 7.193 0 0 0-.604-.032c-.506 0-.721.213-.721.67 0 .464.2.672.573.672.244 0 .517-.055.792-.12v.353c-.277.062-.565.125-.858.125Zm1.872-1.277c-.303 0-.42.121-.443.343h.882c-.01-.237-.135-.343-.439-.343Zm-.054 1.277c-.216 0-.41-.029-.555-.161-.156-.144-.21-.36-.21-.608 0-.222.064-.47.246-.615.16-.126.365-.152.573-.152.187 0 .408.023.569.147.21.165.228.418.23.719h-1.246c.007.221.114.366.483.366.23 0 .483-.037.699-.074v.286c-.252.042-.527.092-.79.092Zm2.389-.041v-.805c0-.265-.121-.36-.34-.36-.162 0-.364.045-.534.092v1.073h-.366v-1.457h.299l.012.093c.23-.067.488-.133.701-.133.161 0 .325.026.449.15.104.104.142.248.142.456v.891h-.363Zm1.334.04c-.176 0-.337-.054-.425-.207-.064-.104-.096-.245-.096-.441v-.545h-.266v-.303h.266l.038-.44h.325v.44h.516v.303h-.516v.467c0 .112.007.208.035.276.039.098.124.135.24.135.085 0 .189-.015.26-.029v.292a1.784 1.784 0 0 1-.377.053Zm.633-.04v-1.457h.299l.013.093c.242-.076.42-.133.648-.133.011 0 .026 0 .047.003v.346c-.042-.003-.09-.003-.128-.003-.18 0-.314.024-.514.076v1.075h-.365Zm2.28-.61a4.874 4.874 0 0 0-.472-.024c-.267 0-.36.06-.36.195 0 .127.078.196.282.196.171 0 .377-.043.55-.087v-.28Zm.078.61-.01-.087c-.222.061-.481.127-.71.127-.14 0-.29-.02-.397-.107-.098-.078-.145-.204-.145-.352 0-.165.065-.317.22-.395.138-.072.323-.078.491-.078.138 0 .322.009.474.02v-.026c0-.228-.135-.302-.502-.302-.143 0-.317.008-.483.026v-.294c.184-.017.391-.029.563-.029.228 0 .465.02.61.135.15.12.178.283.178.5v.862h-.289Zm.652-2.07h.367v2.071h-.367v-2.071Z" fill="#97969B"/>
</svg>
