<svg xmlns="http://www.w3.org/2000/svg" width="24" height="24" fill="none" viewBox="0 0 24 24">
    <path fill="currentColor" fill-rule="evenodd" d="M22.017 14.359a3.34 3.34 0 0 0 0-4.725L19.51 7.127h-1.62a2.2 2.2 0 0 0-.984.227c-.226.11-.435.256-.614.435l-3.314 3.314a1.57 1.57 0 0 1-1.119.463 1.6 1.6 0 0 1-1.118-.463L7.439 7.802a2.25 2.25 0 0 0-.917-.556 2.3 2.3 0 0 0-.68-.107H4.473L1.98 9.634a3.34 3.34 0 0 0 0 4.725l2.494 2.497h1.369a2.25 2.25 0 0 0 1.147-.315q.247-.144.45-.347l3.3-3.3c.164-.164.362-.283.575-.356a1.66 1.66 0 0 1 1.087 0c.214.073.412.192.577.357l3.313 3.312a2.26 2.26 0 0 0 1.254.635q.17.026.342.026h1.62zm-3.338.51 1.924-1.924a1.34 1.34 0 0 0 0-1.897l-1.922-1.92h-.792a.28.28 0 0 0-.184.077l-2.794 2.794 2.791 2.792a.28.28 0 0 0 .185.077zm-.138 2.969h-.654a3.2 3.2 0 0 1-2.282-.945l-3.312-3.312a.6.6 0 0 0-.434-.175.62.62 0 0 0-.433.175l-3.3 3.3q-.203.202-.434.364c-.538.377-1.18.58-1.85.58h-.397l4.19 4.192a3.34 3.34 0 0 0 4.724 0zm-3.788.957-1.808 1.807a1.34 1.34 0 0 1-1.896.001l-1.93-1.93q.22-.177.421-.378l2.32-2.32 2.33 2.332q.267.266.563.488M5.445 6.17h.397a3.2 3.2 0 0 1 2.284.945l3.3 3.3.001.001a.61.61 0 0 0 .864 0l.002-.001 3.312-3.312q.27-.27.585-.465a3.2 3.2 0 0 1 1.7-.48h.648l-4.179-4.18a3.34 3.34 0 0 0-4.725 0zm5.603-2.777L9.12 5.323q.219.176.42.378l2.32 2.319 2.33-2.332q.267-.266.563-.487l-1.808-1.808a1.34 1.34 0 0 0-1.897 0m-2.241 8.605-2.78-2.781a.28.28 0 0 0-.185-.078h-.54l-1.91 1.91a1.34 1.34 0 0 0 0 1.896l1.91 1.911h.54c.062 0 .136-.03.184-.078z" clip-rule="evenodd"/>
</svg>
