<svg width="16" height="16" viewBox="0 0 16 16" fill="none" xmlns="http://www.w3.org/2000/svg">
  <path
    d="M9.84499 1.15558C9.91549 0.70773 9.67589 0.268477 9.26116 0.0853101C8.84644 -0.0978566 8.36039 0.0208971 8.07685 0.374663L1.21971 8.93022C0.979197 9.2303 0.932077 9.64171 1.09851 9.9884C1.26494 10.3351 1.61544 10.5556 2.00001 10.5556H6.83026L6.15503 14.8445C6.08453 15.2924 6.32413 15.7317 6.73885 15.9148C7.15357 16.098 7.63963 15.9792 7.92317 15.6255L14.7803 7.06991C15.0208 6.76983 15.0679 6.35842 14.9015 6.01173C14.7351 5.66504 14.3846 5.44451 14 5.44451H9.16976L9.84499 1.15558Z"
    fill="currentColor" />
</svg>
