<svg width="24" height="24" viewBox="0 0 24 24" fill="none" xmlns="http://www.w3.org/2000/svg">
  <path
    d="M14.1322 2.14545C14.1988 1.69264 13.9494 1.25245 13.5268 1.07672C13.1042 0.900998 12.6163 1.03459 12.3421 1.40108L3.19926 13.6233C2.97251 13.9264 2.93635 14.3316 3.10586 14.6701C3.27536 15.0085 3.62146 15.2223 4.00001 15.2223H10.8423L9.86777 21.8547C9.80124 22.3075 10.0506 22.7477 10.4732 22.9234C10.8958 23.0992 11.3837 22.9656 11.6579 22.5991L20.8008 10.3769C21.0275 10.0737 21.0637 9.66856 20.8942 9.33008C20.7247 8.99161 20.3786 8.77785 20 8.77785H13.1577L14.1322 2.14545Z"
    fill="currentColor" />
</svg>
