<svg xmlns="http://www.w3.org/2000/svg" width="49" height="24" fill="none" viewBox="0 0 49 24">
    <path fill="currentColor" fill-rule="evenodd" d="M11.247 1c-4.1 0-7.645 2.915-8.518 7.002L.046 20.574C-.22 21.821.71 23 1.96 23h34.218c5.061 0 9.434-3.61 10.491-8.66l2.286-10.922C49.216 2.173 48.286 1 47.039 1zm7.436 9.384q-.3 1.488-1.569 2.304-1.254.8-3.151.8h-1.929l-.815 3.936H8.82L11.188 6h3.747q2.18 0 3.167 1.152 1.005 1.152.58 3.232m-2.227-.32q.22-1.072-.235-1.552-.455-.495-1.521-.496h-1.537l-.705 3.456h1.599q.94 0 1.584-.32.658-.32.815-1.088M23.458 6h-2.321l-2.368 11.424h2.32zm8.773 8.864h2.21q.032.624.44.88.407.24 1.034.24.596 0 .91-.208a.88.88 0 0 0 .392-.56q.125-.48-.11-.736-.22-.255-.721-.368l-.878-.192q-1.333-.305-1.96-1.04-.628-.751-.361-1.92.235-1.04 1.192-1.584.972-.56 2.352-.56 1.582 0 2.446.656.878.64.972 1.824l-2.133.224q-.078-.544-.376-.816t-.956-.272q-.596 0-.91.208a.9.9 0 0 0-.376.512q-.126.528.172.752.315.225.847.352l.784.176q1.364.304 2.007 1.056.644.752.345 2.032-.25 1.088-1.27 1.632-1.005.528-2.446.528a5.4 5.4 0 0 1-1.819-.288q-.815-.304-1.301-.928-.471-.625-.486-1.6m-3.497-.944 1.02-4.848h2.32l-1.74 8.352h-2.258l.203-1.04q-.58.672-1.238.992a3.15 3.15 0 0 1-1.333.304q-.91 0-1.474-.432-.55-.449-.737-1.2-.188-.752.016-1.712l1.082-5.264h2.336l-1.05 5.024q-.142.688.03 1.152.174.448.8.448.77 0 1.318-.608.266-.272.439-.512.188-.256.266-.656" clip-rule="evenodd"/>
</svg>
