<svg xmlns="http://www.w3.org/2000/svg" width="64" height="32" fill="none" viewBox="0 0 64 32">
    <path fill="currentColor" d="M64 6.4c0 8.96 0 13.441-1.744 16.864a16 16 0 0 1-6.992 6.992C51.84 32 47.36 32 38.4 32H0v-6.4c0-8.96 0-13.441 1.744-16.864a16 16 0 0 1 6.992-6.992C12.16 0 16.64 0 25.6 0H64zm-17.91 6.46q-1.2 0-2.08.37-.88.36-1.35 1.04t-.47 1.61v.1q0 1.161.64 1.83.65.67 2 .89l2.28.38q.71.13.98.39.28.261.28.75v.12q0 .659-.54 1.03-.53.37-1.5.37-1.03 0-1.66-.43-.63-.44-.76-1.29h-1.84q.13 1.531 1.229 2.36 1.11.82 2.99.82 1.241 0 2.13-.36.9-.37 1.37-1.07.48-.7.48-1.67v-.16q0-1.18-.65-1.84-.65-.671-2.01-.9l-2.26-.36q-.67-.12-.97-.38-.29-.27-.29-.76v-.08q.001-.62.52-.97.531-.35 1.461-.35.789 0 1.29.27.5.26.71.79.16.34.42.5t.639.16q.45 0 .691-.19.25-.2.25-.57 0-.69-.5-1.23-.5-.55-1.41-.86-.9-.31-2.07-.31m-14.164.181v7.1q0 .93.37 1.619a2.57 2.57 0 0 0 1.05 1.05q.69.37 1.6.37 1 0 1.78-.389.78-.401 1.22-1.111.175-.285.28-.6V23h2.04v-9.959h-2.16v6.139q0 .69-.28 1.19-.27.499-.77.77-.5.26-1.17.26-.86 0-1.33-.46-.469-.46-.47-1.3v-6.599zM15 9v14h2.32v-5.52h3.9q1.4 0 2.42-.48t1.56-1.37q.54-.9.54-2.13V13q0-1.23-.54-2.13-.54-.91-1.56-1.39T21.22 9zm12.416-.2V23h2.14V8.8zm-6.396 2q1.14 0 1.76.59.619.58.62 1.63v.46q0 1.05-.62 1.64-.62.58-1.76.58h-3.7v-4.9z"/>
</svg>
