<svg xmlns="http://www.w3.org/2000/svg" width="63" height="32" fill="none" viewBox="0 0 63 32">
    <path fill="currentColor" fill-rule="evenodd" d="M14.46 2C9.19 2 4.63 5.71 3.51 10.911L.058 26.913C-.283 28.5.913 30 2.52 30h43.994c6.508 0 12.13-4.594 13.49-11.023l2.938-13.9C63.279 3.493 62.084 2 60.48 2zm9.56 11.943q-.383 1.894-2.016 2.933-1.613 1.018-4.052 1.018h-2.48l-1.048 5.01H11.34l3.044-14.54h4.818q2.802 0 4.072 1.466 1.291 1.466.746 4.113m-2.862-.407q.282-1.365-.303-1.975-.584-.631-1.955-.631h-1.976l-.907 4.398h2.056q1.21 0 2.036-.407.847-.407 1.049-1.385m9.002-5.172h-2.984l-3.044 14.54h2.983zm11.28 11.281h2.842q.04.795.564 1.12.525.306 1.33.305.767 0 1.17-.264.404-.265.504-.713.16-.611-.141-.937-.283-.325-.928-.468l-1.128-.244q-1.714-.387-2.52-1.324-.807-.957-.464-2.444.303-1.323 1.532-2.016 1.25-.713 3.024-.713 2.036 0 3.145.836 1.13.814 1.25 2.32l-2.742.286q-.1-.693-.484-1.038-.382-.347-1.23-.347-.765 0-1.169.265-.382.265-.484.652-.16.672.222.957.404.285 1.089.448l1.008.224q1.754.387 2.58 1.344t.444 2.586q-.323 1.384-1.633 2.077-1.29.672-3.145.672-1.29 0-2.339-.366-1.048-.387-1.673-1.182-.604-.794-.625-2.036m-4.496-1.201 1.31-6.17h2.984L39 22.903h-2.903l.262-1.325q-.746.856-1.592 1.263a4.1 4.1 0 0 1-1.714.387q-1.17 0-1.895-.55-.705-.57-.948-1.527-.24-.957.02-2.179l1.392-6.7h3.004l-1.351 6.395q-.182.875.04 1.466.222.57 1.028.57.988 0 1.694-.774.342-.346.564-.652.242-.326.343-.834" clip-rule="evenodd"/>
</svg>
