<svg xmlns="http://www.w3.org/2000/svg" width="32" height="16" fill="none" viewBox="0 0 32 16">
    <path fill="currentColor" d="M32 3.2c0 4.48 0 6.72-.872 8.432a8 8 0 0 1-3.496 3.496C25.92 16 23.68 16 19.2 16H0v-3.2c0-4.48 0-6.72.872-8.432A8 8 0 0 1 4.368.872C6.08 0 8.32 0 12.8 0H32zm-8.955 3.23q-.6 0-1.04.185a1.47 1.47 0 0 0-.675.52 1.4 1.4 0 0 0-.235.805v.05q0 .58.32.915.325.334 1 .445l1.14.19q.354.065.49.195.14.13.14.375v.06a.59.59 0 0 1-.27.515q-.265.185-.75.185-.515 0-.83-.215-.315-.22-.38-.645h-.92q.065.765.614 1.18.555.41 1.495.41.621 0 1.066-.18.45-.185.684-.535.24-.35.24-.835v-.08q0-.59-.324-.92-.326-.335-1.005-.45l-1.13-.18q-.336-.06-.486-.19a.5.5 0 0 1-.144-.38v-.04q0-.31.26-.485.265-.174.73-.175.395 0 .645.135a.74.74 0 0 1 .355.395.56.56 0 0 0 .21.25.6.6 0 0 0 .32.08q.225 0 .345-.095a.35.35 0 0 0 .125-.285.88.88 0 0 0-.25-.615q-.25-.276-.705-.43a3.2 3.2 0 0 0-1.035-.155m-7.082.09v3.55q0 .465.185.81.185.34.525.525.345.185.8.185.5 0 .89-.194a1.51 1.51 0 0 0 .75-.856v.96h1.02V6.52h-1.08v3.07a1.2 1.2 0 0 1-.14.595.93.93 0 0 1-.385.385q-.249.13-.585.13-.43 0-.665-.23-.234-.23-.235-.65v-3.3zM7.5 4.5v7h1.16V8.74h1.95q.7 0 1.21-.24t.78-.685q.27-.45.27-1.065V6.5q0-.615-.27-1.065a1.74 1.74 0 0 0-.78-.695q-.51-.24-1.21-.24zm6.208-.1v7.1h1.07V4.4zm-3.198 1q.57 0 .88.295.31.29.31.815v.23q0 .525-.31.82-.31.29-.88.29H8.66V5.4z"/>
</svg>
