<svg xmlns="http://www.w3.org/2000/svg" width="36" height="16" fill="none" viewBox="0 0 36 16">
    <path fill="currentColor" fill-rule="evenodd" d="M8.263 0C5.25 0 2.646 2.12 2.005 5.092L.034 14.236C-.162 15.143.522 16 1.44 16h25.14c3.718 0 6.93-2.625 7.707-6.299l1.68-7.943A1.45 1.45 0 0 0 34.559 0zm5.463 6.825A2.5 2.5 0 0 1 12.574 8.5q-.921.582-2.316.582H8.841l-.599 2.863H6.48l1.74-8.309h2.753q1.6 0 2.327.838.737.838.426 2.35m-1.636-.233q.161-.78-.173-1.129-.334-.36-1.117-.36H9.67l-.518 2.513h1.176q.69 0 1.163-.233.483-.233.599-.791m5.144-2.956h-1.705l-1.74 8.309h1.706zm6.445 6.447h1.625q.023.454.322.64.3.174.76.174.438 0 .669-.15.23-.153.288-.408.091-.35-.08-.535-.162-.187-.53-.268l-.646-.14q-.98-.221-1.44-.756-.46-.547-.265-1.396.173-.758.876-1.152.714-.408 1.728-.408 1.162 0 1.797.477.645.465.714 1.327l-1.567.163q-.057-.396-.276-.594t-.703-.197q-.438 0-.668.15a.65.65 0 0 0-.277.373q-.092.385.127.547.23.163.622.256l.576.128q1.002.222 1.475.768.473.547.253 1.478-.185.79-.933 1.187-.736.384-1.797.384a4 4 0 0 1-1.336-.21 2.1 2.1 0 0 1-.956-.675q-.346-.453-.358-1.163m-2.568-.687.749-3.526h1.704l-1.278 6.075h-1.66l.15-.757a2.9 2.9 0 0 1-.91.722 2.3 2.3 0 0 1-.979.22q-.668 0-1.082-.313a1.6 1.6 0 0 1-.542-.873q-.138-.547.012-1.245l.795-3.829h1.716l-.772 3.654q-.103.5.023.838.127.326.588.326.564 0 .967-.442.195-.198.323-.373.138-.186.196-.477" clip-rule="evenodd"/>
</svg>
