<svg xmlns="http://www.w3.org/2000/svg" width="48" height="24" fill="none" viewBox="0 0 48 24">
    <path fill="currentColor" d="M48 4.8c0 6.72 0 10.08-1.308 12.648a12 12 0 0 1-5.244 5.244C38.88 24 35.52 24 28.8 24H0v-4.8C0 12.48 0 9.12 1.308 6.552a12 12 0 0 1 5.244-5.244C9.12 0 12.48 0 19.2 0H48zM34.567 9.645q-.9 0-1.56.278-.66.27-1.012.78-.353.51-.353 1.208v.074q0 .87.48 1.373.489.502 1.5.666l1.71.286q.532.098.735.293.21.195.21.563v.089q0 .495-.404.772-.398.278-1.125.278-.772 0-1.246-.322-.472-.33-.57-.968h-1.38q.098 1.148.922 1.77.833.614 2.243.614.93 0 1.598-.27.675-.276 1.027-.802.36-.525.36-1.252v-.12q0-.885-.488-1.38-.487-.502-1.507-.676l-1.695-.27q-.503-.089-.728-.283-.217-.204-.217-.572v-.06q0-.464.39-.726.397-.262 1.096-.262.591 0 .967.202.375.195.533.591.12.255.315.376.195.12.479.12.338 0 .518-.142a.52.52 0 0 0 .188-.428q0-.518-.375-.923-.375-.412-1.058-.645-.675-.232-1.553-.232m-10.623.136v5.324q0 .698.279 1.215.277.51.786.788.518.277 1.2.277.75 0 1.336-.292.584-.3.914-.833.132-.213.21-.45v1.44h1.53V9.78h-1.62v4.605a1.8 1.8 0 0 1-.21.892 1.4 1.4 0 0 1-.576.579 1.9 1.9 0 0 1-.878.194q-.645 0-.997-.345-.353-.345-.354-.975V9.78zM11.25 6.75v10.5h1.74v-4.14h2.925q1.05 0 1.816-.36.763-.36 1.168-1.027.406-.675.406-1.598V9.75q0-.923-.406-1.598A2.6 2.6 0 0 0 17.73 7.11q-.765-.36-1.815-.36zm9.312-.15v10.65h1.605V6.6zm-4.797 1.5q.855 0 1.32.443.465.435.465 1.222v.345q0 .787-.466 1.23-.465.435-1.32.434H12.99V8.101z"/>
</svg>
