<svg xmlns="http://www.w3.org/2000/svg" width="32" height="24" fill="none" viewBox="0 0 32 24">
  <rect width="31" height="23" x=".5" y=".5" fill="#00eb5e" stroke="#ccc" rx="3.5"/>
  <path fill="#211d44" d="M26.491 11.282c.536 0 .752.373.752.63H25.74c0-.26.219-.63.752-.63m.631 1.78c-.1.195-.33.327-.625.327-.56 0-.78-.399-.787-.754h2.778a2 2 0 0 0 .029-.303c0-1.255-.864-1.963-2.03-1.963-1.23 0-2.09.709-2.09 1.963s.86 1.963 2.097 1.963 1.788-.67 1.94-1.232zM7.136 13.167c-.499 0-.853-.357-.853-.832s.333-.832.853-.832.853.381.853.832-.337.832-.853.832m.373-2.76c-.547 0-1.016.241-1.259.525v-.451H5v5.182h1.288v-1.855c.302.325.723.449 1.149.449 1.276 0 1.868-.965 1.868-1.925 0-1.186-.76-1.925-1.796-1.925M11.022 9H9.73v5.182h1.293zM14.144 10.481v1.925c0 .292-.04.433-.16.575-.116.137-.297.201-.498.201-.2 0-.382-.064-.498-.2-.119-.143-.159-.284-.159-.576v-1.925H11.54v2.04c0 .573.088.947.363 1.265.291.336.736.47 1.171.47.51 0 .863-.191 1.107-.474l.001.4h1.25v-3.701zM19.633 10.481h-.88l-.97.988-.971-.988h-.88v.88l.987.971-.987.97v.88h.88l.97-.987.97.988h.881v-.88l-.987-.971.987-.97zM22.013 11.282c.536 0 .752.373.752.63h-1.504c0-.26.219-.63.752-.63m.631 1.78c-.1.195-.33.327-.625.327-.56 0-.78-.399-.786-.754h2.778c.007-.05.028-.192.028-.303 0-1.255-.863-1.963-2.03-1.963-1.23 0-2.09.709-2.09 1.963s.86 1.963 2.097 1.963 1.788-.67 1.94-1.232z"/>
</svg>
