<svg width="42" height="32" viewBox="0 0 42 32" fill="none" xmlns="http://www.w3.org/2000/svg">
<path d="M20 28C21.1046 28 22 28.8954 22 30C22 31.1046 21.1046 32 20 32H14C12.8954 32 12 31.1046 12 30C12 28.8954 12.8954 28 14 28H20ZM35.5996 14C37.8398 14 38.9608 13.9996 39.8164 14.4355C40.5689 14.819 41.181 15.4311 41.5645 16.1836C42.0004 17.0392 42 18.1602 42 20.4004V25.5996C42 27.8398 42.0004 28.9608 41.5645 29.8164C41.181 30.5689 40.5689 31.181 39.8164 31.5645C38.9608 32.0004 37.8398 32 35.5996 32H30.4004C28.1602 32 27.0392 32.0004 26.1836 31.5645C25.4311 31.181 24.819 30.5689 24.4355 29.8164C23.9996 28.9608 24 27.8398 24 25.5996V20.4004C24 18.1602 23.9996 17.0392 24.4355 16.1836C24.819 15.4311 25.4311 14.819 26.1836 14.4355C27.0392 13.9996 28.1602 14 30.4004 14H35.5996ZM29.1992 16C28.0796 16 27.5195 16.0008 27.0918 16.2188C26.7159 16.4104 26.4104 16.7159 26.2188 17.0918C26.0008 17.5195 26 18.0796 26 19.1992V26.8008C26 27.9204 26.0008 28.4805 26.2188 28.9082C26.4104 29.2841 26.7159 29.5896 27.0918 29.7812C27.5195 29.9992 28.0796 30 29.1992 30H36.8008C37.9204 30 38.4805 29.9992 38.9082 29.7812C39.2841 29.5896 39.5896 29.2841 39.7812 28.9082C39.9992 28.4805 40 27.9204 40 26.8008V19.1992C40 18.0796 39.9992 17.5195 39.7812 17.0918C39.5896 16.7159 39.2841 16.4104 38.9082 16.2188C38.4805 16.0008 37.9204 16 36.8008 16H29.1992ZM38 28H28V18H38V28ZM31.5996 1.63278e-09C33.8398 1.63278e-09 34.9608 -0.000427067 35.8164 0.435547C36.5689 0.819016 37.181 1.43109 37.5645 2.18359C38.0004 3.03924 38 4.16018 38 6.40039V12.0605C37.0572 12.003 35.8951 12 34.4004 12H31.5996C28.2396 12 26.5588 12.0004 25.2754 12.6543C24.1469 13.2294 23.2294 14.1469 22.6543 15.2754C22.0004 16.5588 22 18.2396 22 21.5996V24.4004C22 24.9817 22.0044 25.5126 22.0078 26H6.40039C4.16018 26 3.03924 26.0004 2.18359 25.5645C1.43109 25.181 0.819016 24.5689 0.435547 23.8164C-0.000427067 22.9608 1.63278e-09 21.8398 1.63278e-09 19.5996V6.40039C1.63278e-09 4.16018 -0.000427067 3.03924 0.435547 2.18359C0.819016 1.43109 1.43109 0.819016 2.18359 0.435547C3.03924 -0.000427067 4.16018 1.63278e-09 6.40039 1.63278e-09H31.5996Z" fill="currentColor"/>
</svg>
