<svg xmlns="http://www.w3.org/2000/svg" width="24" height="24" fill="none" viewBox="0 0 24 24">
    <path fill="currentColor" d="M7.6 20h8.8v-5.2H7.6zm0-11.7h8.8V4H7.6zm10.8 8.1h.8a.8.8 0 0 0 .8-.8v-4.5a.8.8 0 0 0-.8-.8H4.8a.8.8 0 0 0-.8.8v4.5a.8.8 0 0 0 .8.8h.8v-1.7a1.9 1.9 0 0 1 1.9-1.9h9a1.9 1.9 0 0 1 1.9 1.9zm0-8.1h.8a2.8 2.8 0 0 1 2.8 2.8v4.5a2.8 2.8 0 0 1-2.8 2.8h-.8v1.7a1.9 1.9 0 0 1-1.9 1.9h-9a1.9 1.9 0 0 1-1.9-1.9v-1.7h-.8A2.8 2.8 0 0 1 2 15.6v-4.5a2.8 2.8 0 0 1 2.8-2.8h.8V3.9A1.9 1.9 0 0 1 7.5 2h9a1.9 1.9 0 0 1 1.204.43l.14.127.126.14c.277.337.43.763.43 1.203z"/>
</svg>
