<svg xmlns="http://www.w3.org/2000/svg" width="24" height="24" fill="none" viewBox="0 0 24 24">
    <path fill="currentColor" d="M19.843 15.343a1 1 0 0 1 1.414 1.414L19.714 18.3l1.543 1.543a1 1 0 1 1-1.414 1.414L18.3 19.714l-1.543 1.543a1 1 0 1 1-1.414-1.414l1.543-1.543-1.543-1.543a1 1 0 0 1 1.414-1.414l1.543 1.543zM7.6 8.3h8.8V4H7.6zm10.8 0h.8a2.8 2.8 0 0 1 2.8 2.8v1.35a1 1 0 0 1-2 0V11.1a.8.8 0 0 0-.8-.8H4.8a.8.8 0 0 0-.8.8v4.5a.8.8 0 0 0 .8.8h.8v-1.7a1.9 1.9 0 0 1 1.9-1.9h5.74a1 1 0 0 1 0 2H7.6V20h4.877a1 1 0 1 1 0 2H7.5a1.9 1.9 0 0 1-1.9-1.9v-1.7h-.8A2.8 2.8 0 0 1 2 15.6v-4.5a2.8 2.8 0 0 1 2.8-2.8h.8V3.9A1.9 1.9 0 0 1 7.5 2h9a1.9 1.9 0 0 1 1.204.43l.14.127.126.14c.277.337.43.763.43 1.203z"/>
</svg>
