<svg xmlns="http://www.w3.org/2000/svg" width="24" height="24" fill="none" viewBox="0 0 24 24">
    <path fill="currentColor" d="M6 2a1 1 0 0 1 1-1h10a1 1 0 0 1 1 1v2H6z"/>
    <path fill="currentColor" fill-rule="evenodd" d="M22.693 2.807a1 1 0 0 0-1.415-1.414L16.672 6H4a3 3 0 0 0-3 3v6a2 2 0 0 0 2 2h2v.672l-3.611 3.611a1 1 0 0 0 1.414 1.414zM5 9a1 1 0 0 0 0 2h1a1 1 0 1 0 0-2z" clip-rule="evenodd"/>
    <path fill="currentColor" d="m6.05 22.28 1.426-1.428A1 1 0 0 0 8 21h8a1 1 0 0 0 1-1v-6h-2.671l7.43-7.43A3 3 0 0 1 23 9v6a2 2 0 0 1-2 2h-2v3a3 3 0 0 1-3 3H8a3 3 0 0 1-1.95-.72"/>
    <path fill="currentColor" d="M11.329 17H14a1 1 0 1 1 0 2h-4a1 1 0 0 1-.524-.148z"/>
</svg>
