<svg width="24" height="24" viewBox="0 0 24 24" fill="none" xmlns="http://www.w3.org/2000/svg">
<path d="M6 2C6 1.44772 6.44772 1 7 1H17C17.5523 1 18 1.44772 18 2V4H6V2Z" fill="black"/>
<path fill-rule="evenodd" clip-rule="evenodd" d="M22.6926 2.80741C23.0831 2.41689 23.0831 1.78374 22.6926 1.39323C22.302 1.00271 21.6689 1.00271 21.2784 1.39323L16.6716 6H4C2.34315 6 1 7.34315 1 9V15C1 16.1046 1.89543 17 3 17H5V17.6717L1.38871 21.283C0.998196 21.6735 0.998197 22.3067 1.38871 22.6972C1.77923 23.0877 2.41238 23.0877 2.8029 22.6972L22.6926 2.80741ZM5 9C4.44772 9 4 9.44772 4 10C4 10.5523 4.44772 11 5 11H6C6.55228 11 7 10.5523 7 10C7 9.44772 6.55228 9 6 9H5Z" fill="black"/>
<path d="M6.04925 22.2792L7.47637 20.8521C7.62867 20.9459 7.80802 21 8 21H16C16.5523 21 17 20.5523 17 20V14H14.3285L21.759 6.56951C22.5109 7.11465 23 8.00021 23 9V15C23 16.1046 22.1046 17 21 17H19V20C19 21.6569 17.6569 23 16 23H8C7.25518 23 6.57376 22.7286 6.04925 22.2792Z" fill="black"/>
<path d="M11.3285 17H14C14.5523 17 15 17.4477 15 18C15 18.5523 14.5523 19 14 19H10C9.80802 19 9.62867 18.9459 9.47637 18.8521L11.3285 17Z" fill="black"/>
</svg>
