<svg xmlns="http://www.w3.org/2000/svg" width="16" height="16" fill="none" viewBox="0 0 16 16">
    <path fill="currentColor" d="M13.17 10.17a.75.75 0 0 1 1.06 1.06l-.97.97.97.97a.75.75 0 0 1-1.06 1.06l-.97-.97-.97.97a.75.75 0 0 1-1.06-1.06l.97-.97-.97-.97a.75.75 0 0 1 1.06-1.06l.97.97zM5.15 5.45h5.7v-2.7h-5.7zm7.2 0h.45a1.95 1.95 0 0 1 1.95 1.95v.9a.75.75 0 0 1-1.5 0v-.9a.45.45 0 0 0-.45-.45H3.2a.45.45 0 0 0-.45.45v3a.45.45 0 0 0 .45.45h.45V9.8c0-.358.142-.701.395-.954l.1-.09A1.35 1.35 0 0 1 5 8.45h3.826a.75.75 0 1 1 0 1.5H5.15v3.3h3.168a.75.75 0 0 1 0 1.5H5a1.35 1.35 0 0 1-1.35-1.35v-1.05H3.2a1.95 1.95 0 0 1-1.95-1.95v-3A1.95 1.95 0 0 1 3.2 5.45h.45V2.6A1.35 1.35 0 0 1 5 1.25h6c.313 0 .615.109.855.306l.1.09.089.098c.197.24.306.542.306.856z"/>
</svg>
