<svg xmlns="http://www.w3.org/2000/svg" width="16" height="16" fill="none" viewBox="0 0 16 16">
    <path fill="currentColor" d="M10.82 5.111c0-1.585-1.274-2.861-2.835-2.861S5.15 3.526 5.15 5.111c0 1.486 1.12 2.7 2.546 2.846l.29.016.288-.016a2.85 2.85 0 0 0 2.546-2.846m1.5 0c0 1.396-.654 2.64-1.67 3.439.709.322 1.363.771 1.923 1.336a6.55 6.55 0 0 1 1.898 4.614.75.75 0 0 1-1.5 0 5.05 5.05 0 0 0-1.462-3.558 4.96 4.96 0 0 0-3.524-1.47c-1.32 0-2.588.528-3.523 1.47A5.05 5.05 0 0 0 3 14.5a.75.75 0 0 1-1.5 0c0-1.73.682-3.39 1.897-4.614A6.5 6.5 0 0 1 5.32 8.55 4.37 4.37 0 0 1 3.65 5.11C3.65 2.708 5.586.75 7.985.75s4.335 1.958 4.335 4.361"/>
</svg>
