<svg xmlns="http://www.w3.org/2000/svg" width="24" height="24" fill="none" viewBox="0 0 24 24">
    <path fill="currentColor" fill-rule="evenodd" d="M14.357 1.77C11.835 3.16 8.34 5.087 4 5.5c-1.65.157-3 1.343-3 3v1c0 1.657 1.347 2.843 2.997 3 4.346.413 7.85 2.343 10.374 3.734.31.17.606.334.886.484C16.784 17.54 19 16.234 19 14.5V3.293c0-1.734-2.216-2.837-3.743-2.016-.284.153-.584.318-.9.492ZM6 9a1 1 0 0 1 1-1h3a1 1 0 1 1 0 2H7a1 1 0 0 1-1-1Z" clip-rule="evenodd"/>
    <path fill="currentColor" d="M21 12.465A3.998 3.998 0 0 0 23 9c0-1.48-.804-2.773-2-3.465v6.93ZM10.769 16.597c-1.857-.905-3.974-1.726-6.393-2.042l1.156 6.012A3 3 0 0 0 8.478 23h1.1a2 2 0 0 0 1.965-2.378l-.774-4.025Z"/>
</svg>
