<svg xmlns="http://www.w3.org/2000/svg" width="24" height="24" fill="none" viewBox="0 0 24 24">
    <path fill="currentColor" d="M7 8a1 1 0 0 0 0 2h3a1 1 0 1 0 0-2z"/>
    <path fill="currentColor" fill-rule="evenodd" d="M19 13v1.5c0 1.734-2.216 3.04-3.743 2.218q-.42-.226-.886-.484c-1.155-.636-2.515-1.386-4.066-2.05l1.238 6.438A2 2 0 0 1 9.579 23h-1.1a3 3 0 0 1-2.947-2.433l-1.551-8.069C2.338 12.336 1 11.152 1 9.5v-1c0-1.657 1.35-2.843 3-3 4.339-.412 7.834-2.34 10.358-3.73q.472-.263.9-.493C16.783.456 19 1.56 19 3.293V5a4 4 0 0 1 0 8M4.19 7.491c4.78-.454 8.644-2.592 11.148-3.978q.466-.256.866-.474A.4.4 0 0 1 16.415 3a.9.9 0 0 1 .359.099.6.6 0 0 1 .224.19l.002.005V14.5q.001.002-.004.021a.3.3 0 0 1-.039.076.84.84 0 0 1-.274.25.9.9 0 0 1-.357.122c-.088.007-.12-.011-.122-.012q-.396-.214-.854-.469c-2.507-1.385-6.376-3.524-11.164-3.979-.411-.04-.727-.202-.918-.386A.82.82 0 0 1 3 9.5v-1c0-.25.091-.451.268-.621.193-.186.51-.349.921-.388m1.889 5.328 1.417 7.37a1 1 0 0 0 .982.811h1.1L8.11 13.36a21 21 0 0 0-2.03-.54M19 11a2 2 0 1 0 0-4z" clip-rule="evenodd"/>
</svg>
