<svg xmlns="http://www.w3.org/2000/svg" width="24" height="24" fill="none" viewBox="0 0 24 24">
    <path fill="currentColor" d="M19.016 2c.27-.006.538.045.788.15l.122.056.119.065A1.95 1.95 0 0 1 21 3.947v11.369a1.95 1.95 0 0 1-1.074 1.74 1.94 1.94 0 0 1-2.038-.183l-.02-.015a11.25 11.25 0 0 0-7.18-2.438 6.6 6.6 0 0 0 1.235 2.95 2.9 2.9 0 0 1-.577 4.05 2.885 2.885 0 0 1-4.047-.58 12.4 12.4 0 0 1-2.425-6.42A2.886 2.886 0 0 1 2 11.526V7.737c0-.766.304-1.502.845-2.046a2.89 2.89 0 0 1 2.044-.85h5.667l.025.002a11.25 11.25 0 0 0 7.286-2.437l.02-.015c.29-.218.634-.35.994-.383zM6.884 14.42A10.4 10.4 0 0 0 8.9 19.645a.89.89 0 0 0 1.243.178.896.896 0 0 0 .177-1.255 8.6 8.6 0 0 1-1.651-4.146zM19 4.057a13.25 13.25 0 0 1-7.889 2.788l-.582-.002H8.723v5.579h1.806c3.061-.08 6.053.907 8.471 2.785zm-15 7.47c0 .239.095.467.262.634.167.168.392.26.627.26h1.834V6.843H4.889a.89.89 0 0 0-.627.262.9.9 0 0 0-.262.633z"/>
</svg>
