<svg width="48" height="24" viewBox="0 0 48 24" fill="none" xmlns="http://www.w3.org/2000/svg">
<mask id="mask0_1_88" style="mask-type:luminance" maskUnits="userSpaceOnUse" x="0" y="0" width="48" height="24">
<path d="M48 0H0V24H48V0Z" fill="white"/>
</mask>
<g mask="url(#mask0_1_88)">
<path d="M0 18.28L1.216 11.4282H4.352C5.12 11.4282 5.632 11.6203 5.824 11.8765C6.016 12.1326 6.08 12.773 5.952 13.6054C5.824 14.3739 5.568 14.8861 5.248 15.2063C4.928 15.5265 4.352 15.5905 3.52 15.5905H1.216L0.768 18.28H0ZM1.344 14.9502H3.2C3.968 14.9502 4.48 14.8861 4.672 14.694C4.864 14.5019 5.12 14.1818 5.184 13.6054C5.312 12.9651 5.312 12.5809 5.248 12.3888C5.184 12.1966 4.8 12.1326 4.224 12.1326H1.856L1.344 14.9502ZM6.656 13.4774H7.36L7.168 14.0537H7.232C7.552 13.6054 8.064 13.4133 8.704 13.4133C9.6 13.4133 9.96267 13.8616 9.792 14.7581L9.728 15.0783H9.024L9.088 14.9502V14.694C9.216 14.2458 8.96 13.9896 8.448 13.9896C7.68 13.9896 7.168 14.4379 7.04 15.4625L6.528 18.28H5.824L6.656 13.4774ZM10.368 13.4774H13.824L13.696 14.1818L10.24 17.7037H13.12L12.992 18.28H9.28L9.408 17.6397L12.928 14.1177H10.304L10.368 13.4774ZM17.28 16.8712H17.984V16.9993C17.92 17.5116 17.664 17.8958 17.344 18.0879C17.024 18.28 16.448 18.3441 15.68 18.3441C14.848 18.3441 14.272 18.216 14.08 17.8958C13.888 17.5756 13.824 16.8712 14.016 15.8467C14.144 14.8861 14.4 14.2458 14.784 13.9256C15.168 13.6054 15.68 13.4133 16.448 13.4133C17.344 13.4133 17.92 13.6054 18.112 13.8616C18.304 14.1177 18.368 14.7581 18.24 15.6546L18.176 16.0388H14.72C14.592 16.8072 14.592 17.2555 14.72 17.4476C14.848 17.6397 15.168 17.7677 15.744 17.7677C16.3413 17.7677 16.7253 17.7251 16.896 17.6397C17.0667 17.5543 17.1947 17.3408 17.28 16.9993V16.8712ZM17.536 15.4625V15.2704C17.664 14.7581 17.6 14.4379 17.472 14.2458C17.344 14.0537 16.96 14.0537 16.448 14.0537C15.936 14.0537 15.488 14.1177 15.296 14.3098C15.104 14.5019 14.912 14.8861 14.784 15.4625H17.536ZM20.48 11.4282L19.264 18.28H18.56L19.776 11.4282H20.48ZM23.808 16.8712H24.512V16.9993C24.448 17.5116 24.192 17.8958 23.872 18.0879C23.552 18.28 22.976 18.3441 22.208 18.3441C21.312 18.3441 20.8 18.216 20.608 17.8958C20.416 17.5756 20.352 16.8712 20.544 15.8467C20.672 14.8861 20.928 14.2458 21.312 13.9256C21.696 13.6054 22.208 13.4133 22.976 13.4133C23.872 13.4133 24.448 13.6054 24.64 13.8616C24.832 14.1177 24.896 14.7581 24.768 15.6546L24.704 16.0388H21.248C21.12 16.8072 21.12 17.2555 21.248 17.4476C21.376 17.6397 21.696 17.7677 22.272 17.7677C22.8693 17.7677 23.2533 17.7251 23.424 17.6397C23.5947 17.5543 23.7227 17.3408 23.808 16.9993V16.8712ZM24.064 15.4625V15.2704C24.192 14.7581 24.128 14.4379 24 14.2458C23.872 14.0537 23.488 14.0537 22.976 14.0537C22.464 14.0537 22.016 14.1177 21.824 14.3098C21.632 14.5019 21.44 14.8861 21.312 15.4625H24.064ZM32.064 13.4774L29.888 18.28H28.864L28.672 15.6546L28.608 14.8221V13.9896H28.544L28.416 14.4379L28.224 14.8221L27.904 15.6546L26.816 18.28H25.728L25.28 13.4774H25.984L26.24 16.1669L26.304 16.9993V17.8318H26.368L26.496 17.3835L26.688 16.9993L27.008 16.1669L28.16 13.4774H29.184L29.376 16.1669L29.44 16.9993V17.8318H29.504L29.632 17.3835L29.824 16.9993L30.208 16.1669L31.36 13.4774H32.064ZM35.648 13.4774L34.688 15.6546L34.24 16.6791L34.048 17.2555L33.792 17.7677L33.664 17.2555L33.6 16.6791L33.408 15.6546L33.088 13.4774H32.32L33.28 18.7283L33.152 18.9204C32.896 19.5607 32.512 19.8809 32.128 19.8809C32.0627 19.8636 31.9986 19.8423 31.936 19.8169L31.808 20.3932C31.9126 20.4239 32.0197 20.4453 32.128 20.4572C32.576 20.4572 32.96 20.3292 33.216 20.073C33.472 19.8169 33.792 19.3046 34.112 18.6002L36.352 13.4774H35.648Z" fill="#CE4749"/>
<path d="M40.832 17.7036L40.768 18.344H35.904L36.16 17.0633C36.288 16.3375 36.5013 15.8679 36.8 15.6545C37.12 15.3983 37.824 15.2703 38.848 15.1422C39.7013 15.0568 40.2133 14.9287 40.384 14.758C40.576 14.5659 40.768 14.1817 40.896 13.5413C40.96 12.965 40.96 12.5808 40.768 12.3887C40.576 12.1966 40.256 12.1325 39.616 12.1325C38.784 12.1325 38.272 12.1966 38.016 12.3246C37.76 12.4527 37.632 12.8369 37.568 13.3492L37.44 13.8615H36.736L36.8 13.5413C36.928 12.7088 37.184 12.1325 37.568 11.8764C37.952 11.6202 38.656 11.4922 39.68 11.4922C40.576 11.4922 41.152 11.6202 41.408 11.9404C41.664 12.2606 41.728 12.7729 41.6 13.6053C41.4293 14.4165 41.1733 14.9714 40.832 15.2703C40.4907 15.5691 39.8507 15.7399 38.912 15.7825C38.016 15.9106 37.504 16.0387 37.312 16.1668C37.12 16.2948 36.928 16.7431 36.8 17.4475V17.7036H40.832ZM47.168 11.5562L46.4 16.1027H47.36L47.232 16.7431H46.272L46.016 18.344H45.248L45.504 16.7431H41.792L41.92 15.8466L46.016 11.5562H47.168ZM45.632 16.1027L46.336 12.0685L42.496 16.1027H45.632ZM15.872 9.37899C17.3519 8.51437 18.9176 7.80616 20.544 7.26581L20.224 5.60089C18.1389 6.25349 16.1237 7.1115 14.208 8.16231L15.872 9.37899ZM34.432 8.48249L40.192 5.28071C37.824 4.57632 34.752 4 30.976 4H30.912L29.568 6.62546C31.2785 6.979 32.9209 7.60605 34.432 8.48249ZM12.736 8.99477C10.24 10.5957 8.896 11.9404 8.896 11.9404H12.096L14.4 10.2755L12.736 8.99477ZM29.056 4.06404C26.5042 4.17146 23.9718 4.55797 21.504 5.21668L21.76 6.94564C24.192 6.30528 26.368 6.17721 28.288 6.43335L29.056 4.06404ZM43.264 6.56142L35.776 9.31495C36.1603 9.58652 36.5239 9.88617 36.864 10.2115H48C48 10.2115 46.72 8.22635 43.264 6.56142Z" fill="#AFB2BA"/>
</g>
</svg>
