<svg xmlns="http://www.w3.org/2000/svg" width="24" height="24" fill="none" viewBox="0 0 24 24">
    <path fill="currentColor" d="M19 20v-.009a1 1 0 1 1 2 0V20a1 1 0 1 1-2 0m-8-.009v-.889a1 1 0 0 1 2 0v.89a1 1 0 0 1-2 0m3.556 0v-2.665a2.777 2.777 0 0 1 2.777-2.777H20a1 1 0 0 1 0 2h-2.667a.78.78 0 0 0-.777.777v2.665a1 1 0 0 1-2 0m-9.556-1h2.444V16.55H5zm6-3.433v-.01a1 1 0 0 1 2 0v.01a1 1 0 1 1-2 0m8-3.553v-.01a1 1 0 0 1 2 0v.01a1 1 0 0 1-2 0m-14.991-1.01a1 1 0 0 1 0 2H4a1 1 0 1 1 0-2zM11 10.22V7.554a1 1 0 1 1 2 0v2.665a2.776 2.776 0 0 1-2.777 2.776H7.556a1 1 0 1 1 0-2h2.667A.78.78 0 0 0 11 10.22m5.444.776a1 1 0 0 1 0 2h-.888a1 1 0 1 1 0-2zm.112-3.553H19V5h-2.444zM5 7.442h2.444V5H5zM12.009 3a1 1 0 1 1 0 2H12a1 1 0 1 1 0-2zM9.444 19.103a1.89 1.89 0 0 1-1.888 1.888H4.889A1.89 1.89 0 0 1 3 19.102v-2.665c0-1.043.846-1.888 1.889-1.888h2.667c1.042 0 1.888.845 1.888 1.889zm0-11.55a1.89 1.89 0 0 1-1.888 1.89H4.889A1.89 1.89 0 0 1 3 7.552V4.89C3 3.845 3.846 3 4.889 3h2.667c1.042 0 1.888.845 1.888 1.889zm11.556 0a1.89 1.89 0 0 1-1.889 1.89h-2.667a1.89 1.89 0 0 1-1.888-1.89V4.89c0-1.044.846-1.889 1.888-1.889h2.667C20.154 3 21 3.845 21 4.889z"/>
</svg>
