<svg width="24" height="24" viewBox="0 0 24 24" fill="none" xmlns="http://www.w3.org/2000/svg">
    <path fill-rule="evenodd" clip-rule="evenodd" d="M8 2a1 1 0 0 1-1 1H3v4a1 1 0 0 1-2 0V2a1 1 0 0 1 1-1h5a1 1 0 0 1 1 1zM1 17v5a1 1 0 0 0 1 1h5a1 1 0 0 0 0-2H3v-4a1 1 0 1 0-2 0zm16 6h5a1 1 0 0 0 1-1v-5a1 1 0 0 0-2 0v4h-4a1 1 0 0 0 0 2zm6-16V2a1 1 0 0 0-1-1h-5a1 1 0 1 0 0 2h4v4a1 1 0 0 0 2 0zm-8 3h3a1 1 0 0 0 1-1V6a1 1 0 0 0-1-1h-3a1 1 0 0 0-1 1v3a1 1 0 0 0 1 1zm-5-3H7v3h3V7zm1-2a1 1 0 0 1 1 1v5a1 1 0 0 1-1 1H6a1 1 0 0 1-1-1V6a1 1 0 0 1 1-1h5zm-2 9H6a1 1 0 0 0-1 1v3a1 1 0 0 0 1 1h3a1 1 0 0 0 1-1v-3a1 1 0 0 0-1-1zm6-1a1 1 0 1 0-1 1h1v-1zm0 5v-2h-2a1 1 0 0 0-1 1v1a1 1 0 0 0 1 1h1a1 1 0 0 0 1-1zm3-6a1 1 0 0 0-1 1v1h-2v2h2v2a1 1 0 0 0 2 0v-5a1 1 0 0 0-1-1z" fill="#000"/>
</svg>
