<svg xmlns="http://www.w3.org/2000/svg" width="24" height="24" fill="none" viewBox="0 0 24 24">
    <path fill="currentColor" d="M4 3a1 1 0 0 0-1 1v3a1 1 0 0 1-2 0V4a3 3 0 0 1 3-3h3a1 1 0 0 1 0 2zM15 10h3a1 1 0 0 0 1-1V6a1 1 0 0 0-1-1h-3a1 1 0 0 0-1 1v3a1 1 0 0 0 1 1"/>
    <path fill="currentColor" fill-rule="evenodd" d="M11 5a1 1 0 0 1 1 1v5a1 1 0 0 1-1 1H6a1 1 0 0 1-1-1V6a1 1 0 0 1 1-1zm-1 2H7v3h3z" clip-rule="evenodd"/>
    <path fill="currentColor" d="M9 14H6a1 1 0 0 0-1 1v3a1 1 0 0 0 1 1h3a1 1 0 0 0 1-1v-3a1 1 0 0 0-1-1M15 13a1 1 0 1 0-1 1h1v2h-2a1 1 0 0 0-1 1v1a1 1 0 0 0 1 1h1a1 1 0 0 0 1-1v-2h2v2a1 1 0 0 0 2 0v-5a1 1 0 0 0-2 0v1h-2zM21 4a1 1 0 0 0-1-1h-3a1 1 0 1 1 0-2h3a3 3 0 0 1 3 3v3a1 1 0 1 1-2 0z"/>
    <path fill="currentColor" d="M4 21a1 1 0 0 1-1-1v-3a1 1 0 1 0-2 0v3a3 3 0 0 0 3 3h3a1 1 0 1 0 0-2zM21 20a1 1 0 0 1-1 1h-3a1 1 0 1 0 0 2h3a3 3 0 0 0 3-3v-3a1 1 0 1 0-2 0z"/>
</svg>
