<svg xmlns="http://www.w3.org/2000/svg" width="24" height="24" fill="none" viewBox="0 0 24 24">
    <path fill="currentColor" d="M16.224 12.984a.9.9 0 0 1 1.273 0l3.24 3.24a.9.9 0 0 1 0 1.273l-3.24 3.24a.9.9 0 0 1-1.273-1.273l1.703-1.703h-2.73a4.14 4.14 0 0 1-3.383-1.819l-.274-.343a.9.9 0 0 1 1.407-1.123l.29.365.049.067a2.34 2.34 0 0 0 1.93 1.053h2.711l-1.703-1.705a.9.9 0 0 1 0-1.272m0-9.72a.9.9 0 0 1 1.273 0l3.24 3.24a.9.9 0 0 1 0 1.272l-3.24 3.24a.9.9 0 0 1-1.273-1.272l1.703-1.704h-2.671a2.34 2.34 0 0 0-1.92.982L8.93 15.965l-.024.036a4.14 4.14 0 0 1-3.41 1.759H3v-1.8h2.504a2.34 2.34 0 0 0 1.921-.983l4.404-6.942.023-.036a4.14 4.14 0 0 1 3.41-1.76h2.665l-1.703-1.703a.9.9 0 0 1 0-1.272M5.497 6.24a4.14 4.14 0 0 1 3.72 2.277.9.9 0 0 1-1.607.81A2.34 2.34 0 0 0 5.504 8.04H3v-1.8z"/>
</svg>
