<svg width="24" height="24" viewBox="0 0 24 24" fill="none" xmlns="http://www.w3.org/2000/svg">
  <path
    d="M12.5997 9.53258C12.3827 9.12603 12.1469 8.6843 11.8861 8.22694C12.1944 7.88824 12.5281 7.56434 12.8927 7.26184C14.4672 5.95529 16.5412 5.10366 19.451 5.00896C19.495 5.00305 19.5398 5 19.5854 5L18.2926 3.70709C17.9021 3.31655 17.9021 2.68338 18.2926 2.29287C18.6832 1.90236 19.3163 1.90238 19.7069 2.29291L22.6916 5.27784C22.8816 5.45986 22.9999 5.71612 22.9999 6C22.9999 6.28161 22.8835 6.53603 22.6962 6.71777L19.7065 9.70728C19.3159 10.0978 18.6828 10.0978 18.2923 9.70724C17.9018 9.3167 17.9018 8.68354 18.2923 8.29302L19.5794 7.00596C17.0217 7.07754 15.3709 7.80434 14.1698 8.80096C13.6992 9.19148 13.2864 9.63189 12.9098 10.1119L12.8914 10.0777C12.8129 9.93187 12.7337 9.78358 12.6518 9.63027L12.5997 9.53258Z"
    fill="currentColor" />
  <path
    d="M2 20.0002C1.44772 20.0002 1 19.5524 1 19.0002C1 18.4479 1.44772 18.0002 2 18.0002C4.24241 18.0002 5.61076 17.2877 6.63664 16.2618C7.25488 15.6436 7.75965 14.905 8.24605 14.0746C8.5927 14.6762 8.98585 15.3087 9.44428 15.9353C9.03341 16.5564 8.57721 17.1497 8.05086 17.676C6.63924 19.0876 4.75759 20.0002 2 20.0002Z"
    fill="currentColor" />
  <path
    d="M22.6922 17.2777C22.8822 17.4597 23.0005 17.716 23.0005 17.9998C23.0005 18.2815 22.8841 18.5359 22.6968 18.7176L19.7071 21.7071C19.3166 22.0976 18.6834 22.0976 18.2929 21.7071C17.9024 21.3166 17.9024 20.6834 18.2929 20.2929L19.586 18.9998C19.5415 18.9998 19.4977 18.9969 19.4547 18.9913C16.543 18.8972 14.4679 18.0454 12.8927 16.7383C11.2584 15.3822 10.2429 13.5961 9.36953 11.9741C9.29235 11.8308 9.21638 11.689 9.14133 11.5489C8.33562 10.0453 7.63369 8.7354 6.63664 7.73836C5.61076 6.71247 4.24241 6 2 6C1.44772 6 1 5.55228 1 5C1 4.44772 1.44772 4 2 4C4.75759 4 6.63924 4.91253 8.05086 6.32414C9.27004 7.54332 10.1128 9.12156 10.8876 10.5724C10.9692 10.7252 11.05 10.8765 11.1305 11.0259C12.0071 12.6539 12.8666 14.1178 14.1698 15.1992C15.371 16.1959 17.0221 16.9228 19.5804 16.9942L18.2932 15.7069C17.9027 15.3164 17.9027 14.6832 18.2933 14.2927C18.6838 13.9022 19.317 13.9022 19.7075 14.2928L22.6922 17.2777Z"
    fill="currentColor" />
</svg>
