<svg width="24" height="24" viewBox="0 0 24 24" fill="none" xmlns="http://www.w3.org/2000/svg">
  <path fill-rule="evenodd" clip-rule="evenodd"
    d="M6.375 1H17.625C18.5201 1 19.3786 1.31607 20.0115 1.87868C20.6444 2.44129 21 3.20435 21 4V21C20.9982 21.5299 20.7606 22.0377 20.339 22.4125C19.9175 22.7872 19.3462 22.9984 18.75 23C18.3405 23.004 17.9383 22.9033 17.5912 22.71L15.375 21.53L13.1587 22.71C12.8099 22.8997 12.4089 23 12 23C11.5911 23 11.1901 22.8997 10.8413 22.71L8.625 21.53L6.40875 22.71C6.06173 22.9033 5.65953 23.004 5.25 23C4.65381 22.9984 4.08255 22.7872 3.66098 22.4125C3.23941 22.0377 3.00178 21.5299 3 21V4C3 3.20435 3.35558 2.44129 3.98851 1.87868C4.62145 1.31607 5.47989 1 6.375 1ZM12.3471 14.0058C12.217 14.0057 12.0883 13.9779 11.9698 13.9243C11.8512 13.8707 11.7453 13.7926 11.6592 13.695C11.573 13.5975 11.5086 13.4827 11.4702 13.3584C11.4317 13.2341 11.4201 13.103 11.4361 12.9738C11.5862 12.0414 12.0552 11.19 12.7631 10.5648C13.0841 10.2844 13.336 9.93363 13.4991 9.53983C13.5885 9.32486 13.6171 9.08946 13.5818 8.85933C13.5466 8.6292 13.4488 8.41317 13.2991 8.23483C13.0995 8.06269 12.8594 7.94412 12.6014 7.89024C12.3434 7.83636 12.0759 7.84895 11.8241 7.92683C11.5708 7.9936 11.3412 8.13012 11.1616 8.32086C10.982 8.51161 10.8595 8.74893 10.8081 9.00583C10.7813 9.12379 10.7313 9.23523 10.6611 9.3337C10.5908 9.43217 10.5017 9.5157 10.3989 9.57943C10.2961 9.64317 10.1816 9.68583 10.0622 9.70496C9.94273 9.72408 9.82068 9.71928 9.70311 9.69083C9.46547 9.63169 9.2609 9.48092 9.13405 9.27144C9.00721 9.06197 8.9684 8.81082 9.02611 8.57283C9.15101 7.99626 9.43139 7.46489 9.83684 7.03635C10.2423 6.6078 10.7573 6.29845 11.3261 6.14183C11.8915 5.97159 12.4919 5.95428 13.0661 6.09165C13.6404 6.22902 14.168 6.51617 14.5951 6.92383C14.9805 7.33343 15.2465 7.84069 15.3643 8.39066C15.482 8.94063 15.447 9.51233 15.2631 10.0438C15.0297 10.7334 14.6255 11.3527 14.0881 11.8438C13.6672 12.1825 13.3736 12.6538 13.2551 13.1808C13.2317 13.406 13.1262 13.6146 12.9587 13.7668C12.7912 13.919 12.5734 14.0041 12.3471 14.0058ZM12.2471 15.0058C12.0493 15.0058 11.856 15.0645 11.6915 15.1744C11.5271 15.2842 11.3989 15.4404 11.3232 15.6231C11.2475 15.8059 11.2277 16.0069 11.2663 16.2009C11.3049 16.3949 11.4002 16.5731 11.54 16.7129C11.6799 16.8528 11.858 16.948 12.052 16.9866C12.246 17.0252 12.4471 17.0054 12.6298 16.9297C12.8125 16.854 12.9687 16.7259 13.0786 16.5614C13.1885 16.397 13.2471 16.2036 13.2471 16.0058C13.2471 15.7411 13.1422 15.4872 12.9553 15.2998C12.7684 15.1123 12.5148 15.0066 12.2501 15.0058H12.2471Z"
    fill="currentColor" />
</svg>
