<svg xmlns="http://www.w3.org/2000/svg" width="24" height="24" fill="none" viewBox="0 0 24 24">
    <path fill="currentColor" d="M18 2a2 2 0 0 1 2 2v18.017l-1.394-.598-3.043-1.305-3.067 1.754-.536.307-.515-.343-2.574-1.716-3.52 1.32L4 21.944V4a2 2 0 0 1 2-2zM6 19.057l2.648-.993.48-.18.427.284 2.485 1.657 2.964-1.693.433-.247.457.196 2.106.902V4H6zM12.889 12c.49 0 .888.407.888.91a.9.9 0 0 1-.888.908H9.333a.9.9 0 0 1-.889-.909.9.9 0 0 1 .889-.909zm1.778-3.637a.9.9 0 0 1 .889.91.9.9 0 0 1-.889.909H9.333a.9.9 0 0 1-.889-.91.9.9 0 0 1 .889-.909z"/>
</svg>
