<svg xmlns="http://www.w3.org/2000/svg" width="24" height="24" fill="none" viewBox="0 0 24 24">
    <path fill="currentColor" d="M8 9a1 1 0 0 1 1-1h6a1 1 0 1 1 0 2H9a1 1 0 0 1-1-1M9 12a1 1 0 1 0 0 2h4a1 1 0 1 0 0-2z"/>
    <path fill="currentColor" fill-rule="evenodd" d="M10.841 22.71c.35.19.75.29 1.159.29s.81-.1 1.159-.29l2.216-1.18 2.216 1.18c.347.193.75.294 1.159.29a2.4 2.4 0 0 0 1.589-.588A1.9 1.9 0 0 0 21 21V4c0-.796-.356-1.559-.988-2.121C19.379 1.316 18.52 1 17.625 1H6.375c-.895 0-1.754.316-2.386.879S3 3.204 3 4v17a1.9 1.9 0 0 0 .661 1.412c.422.375.993.586 1.589.588a2.34 2.34 0 0 0 1.159-.29l2.216-1.18zM5 20.926c.04.03.129.074.255.074h.015a.34.34 0 0 0 .199-.055l2.216-1.18a2 2 0 0 1 1.88 0l2.216 1.18.016.008A.43.43 0 0 0 12 21a.43.43 0 0 0 .203-.047l.016-.008 2.216-1.18a2 2 0 0 1 1.88 0l2.216 1.18.013.006.02.012a.34.34 0 0 0 .166.037h.015a.43.43 0 0 0 .255-.074V4c0-.184-.08-.416-.317-.626C18.438 3.156 18.06 3 17.625 3H6.375c-.436 0-.813.156-1.058.373C5.08 3.585 5 3.817 5 4z" clip-rule="evenodd"/>
</svg>
