<svg width="24" height="24" viewBox="0 0 24 24" fill="none" xmlns="http://www.w3.org/2000/svg">
  <path fill-rule="evenodd" clip-rule="evenodd"
    d="M15.625 1H4.375C3.47989 1 2.62145 1.31607 1.98851 1.87868C1.35558 2.44129 1 3.20435 1 4V21C1.00178 21.5299 1.23941 22.0377 1.66098 22.4125C2.08255 22.7872 2.65381 22.9984 3.25 23C3.65953 23.004 4.06173 22.9033 4.40875 22.71L6.625 21.53L8.84125 22.71C9.19009 22.8997 9.59108 23 10 23C10.4089 23 10.8099 22.8997 11.1587 22.71L12.2112 22.1497C12.0734 21.6229 12 21.07 12 20.5C12 16.9101 14.9101 14 18.5 14C18.6682 14 18.835 14.0064 19 14.0189V4C19 3.20435 18.6444 2.44129 18.0115 1.87868C17.3786 1.31607 16.5201 1 15.625 1ZM11.375 14H6.625C6.32663 14 6.04048 13.8946 5.8295 13.7071C5.61853 13.5196 5.5 13.2652 5.5 13C5.5 12.7348 5.61853 12.4804 5.8295 12.2929C6.04048 12.1054 6.32663 12 6.625 12H11.375C11.6734 12 11.9595 12.1054 12.1705 12.2929C12.3815 12.4804 12.5 12.7348 12.5 13C12.5 13.2652 12.3815 13.5196 12.1705 13.7071C11.9595 13.8946 11.6734 14 11.375 14ZM13.375 10H6.625C6.32663 10 6.04048 9.89464 5.8295 9.70711C5.61853 9.51957 5.5 9.26522 5.5 9C5.5 8.73478 5.61853 8.48043 5.8295 8.29289C6.04048 8.10536 6.32663 8 6.625 8H13.375C13.6734 8 13.9595 8.10536 14.1705 8.29289C14.3815 8.48043 14.5 8.73478 14.5 9C14.5 9.26522 14.3815 9.51957 14.1705 9.70711C13.9595 9.89464 13.6734 10 13.375 10Z"
    fill="currentColor" />
  <path
    d="M18.7841 22.6866L22.7841 17.6866C22.823 17.6452 22.8584 17.6008 22.8901 17.5536C23.0369 17.3327 23.0899 17.0625 23.0375 16.8025C22.9851 16.5425 22.8315 16.3139 22.6106 16.1671C22.3897 16.0203 22.1195 15.9673 21.8595 16.0197C21.5994 16.0721 21.3709 16.2257 21.2241 16.4466L17.9241 20.5666L16.7141 19.3566C16.5258 19.1683 16.2704 19.0625 16.0041 19.0625C15.7378 19.0625 15.4824 19.1683 15.2941 19.3566C15.1058 19.5449 15 19.8003 15 20.0666C15 20.3329 15.1058 20.5883 15.2941 20.7766L17.2941 22.7766C17.3875 22.8693 17.4983 22.9426 17.6202 22.9924C17.742 23.0422 17.8725 23.0674 18.0041 23.0666H18.0641C18.2041 23.0578 18.3407 23.0193 18.4648 22.9538C18.5889 22.8883 18.6977 22.7972 18.7841 22.6866Z"
    fill="currentColor" />
</svg>
