<svg xmlns="http://www.w3.org/2000/svg" width="24" height="24" fill="none" viewBox="0 0 24 24">
    <path fill="currentColor" fill-rule="evenodd" d="M6.375 1h11.25c.895 0 1.754.316 2.387.879C20.644 2.44 21 3.204 21 4v17a1.9 1.9 0 0 1-.661 1.413A2.4 2.4 0 0 1 18.75 23a2.34 2.34 0 0 1-1.159-.29l-2.216-1.18-2.216 1.18c-.35.19-.75.29-1.159.29s-.81-.1-1.159-.29l-2.216-1.18-2.216 1.18A2.34 2.34 0 0 1 5.25 23a2.4 2.4 0 0 1-1.589-.587A1.9 1.9 0 0 1 3 21V4c0-.796.356-1.559.989-2.121C4.62 1.316 5.479 1 6.375 1m10.4 7.542c.355-.41.283-1.007-.161-1.334s-1.092-.261-1.447.148L10.59 12.63l-1.834-1.691a1.09 1.09 0 0 0-1.455 0 .898.898 0 0 0 0 1.342l2.647 2.441c.207.19.492.292.784.277a1.06 1.06 0 0 0 .747-.355z" clip-rule="evenodd"/>
</svg>
