<svg xmlns="http://www.w3.org/2000/svg" width="24" height="24" fill="none" viewBox="0 0 24 24">
    <path fill="currentColor" d="M19 4a1 1 0 0 1 1 1v14a1 1 0 0 1-1 1H5a1 1 0 0 1-1-1V5a1 1 0 0 1 1-1zm0-2H5a3 3 0 0 0-3 3v14a3 3 0 0 0 3 3h14a3 3 0 0 0 3-3V5a3 3 0 0 0-3-3m-7 5H7a1 1 0 0 0 0 2h5a1 1 0 1 0 0-2m0 4H7a1 1 0 0 0 0 2h5a1 1 0 0 0 0-2m0 4H7a1 1 0 0 0 0 2h5a1 1 0 0 0 0-2m4.5-8.5a1.5 1.5 0 1 0 0 3 1.5 1.5 0 0 0 0-3m0 4a1.5 1.5 0 1 0 0 3 1.5 1.5 0 0 0 0-3m0 4a1.5 1.5 0 1 0 0 3 1.5 1.5 0 0 0 0-3"/>
</svg>
