<svg xmlns="http://www.w3.org/2000/svg" width="24" height="24" fill="none" viewBox="0 0 24 24">
    <path fill="currentColor" d="M17.625 1H6.375c-.895 0-1.754.316-2.386.879S3 3.204 3 4v17a1.9 1.9 0 0 0 .661 1.413c.422.374.993.585 1.589.587a2.34 2.34 0 0 0 1.159-.29l2.216-1.18 2.216 1.18c.35.19.75.29 1.159.29s.81-.1 1.159-.29l2.216-1.18 2.216 1.18c.347.193.75.294 1.159.29a2.4 2.4 0 0 0 1.589-.587A1.9 1.9 0 0 0 21 21V4c0-.796-.356-1.559-.988-2.121C19.379 1.316 18.52 1 17.625 1m-4.25 13h-4.75a1.2 1.2 0 0 1-.795-.293A.95.95 0 0 1 7.5 13c0-.265.119-.52.33-.707A1.2 1.2 0 0 1 8.625 12h4.75a1.2 1.2 0 0 1 .796.293c.21.187.329.442.329.707s-.118.52-.33.707a1.2 1.2 0 0 1-.795.293m2-4h-6.75a1.2 1.2 0 0 1-.795-.293A.95.95 0 0 1 7.5 9c0-.265.119-.52.33-.707A1.2 1.2 0 0 1 8.625 8h6.75a1.2 1.2 0 0 1 .796.293c.21.187.329.442.329.707s-.119.52-.33.707a1.2 1.2 0 0 1-.795.293"/>
</svg>
