<svg xmlns="http://www.w3.org/2000/svg" width="24" height="24" fill="none" viewBox="0 0 24 24">
    <path fill="currentColor" fill-rule="evenodd" d="M17.625 1H6.375c-.895 0-1.754.316-2.386.879S3 3.204 3 4v17a1.9 1.9 0 0 0 .661 1.413c.422.374.993.585 1.589.587a2.34 2.34 0 0 0 1.159-.29l2.216-1.18 2.216 1.18c.35.19.75.29 1.159.29s.81-.1 1.159-.29l2.216-1.18 2.216 1.18c.347.193.75.294 1.159.29a2.4 2.4 0 0 0 1.589-.587A1.9 1.9 0 0 0 21 21V4c0-.796-.356-1.559-.988-2.121C19.379 1.316 18.52 1 17.625 1m-6.65 4.546c0-.572.512-.946 1.025-.946s1.025.374 1.025.946c0 1.636.17 2.756.633 3.464.214.326.495.57.89.744.411.179.992.3 1.827.3.513 0 1.025.374 1.025.946s-.512.946-1.025.946c-.835 0-1.416.122-1.826.3a1.95 1.95 0 0 0-.89.744c-.464.708-.634 1.828-.634 3.465 0 .571-.512.945-1.025.945s-1.025-.374-1.025-.945c0-1.637-.17-2.757-.634-3.465a1.95 1.95 0 0 0-.89-.743c-.41-.18-.992-.301-1.826-.301-.513 0-1.025-.374-1.025-.946s.512-.945 1.025-.945c.834 0 1.416-.122 1.826-.301.396-.173.677-.418.89-.744.464-.708.634-1.827.634-3.464" clip-rule="evenodd"/>
</svg>
