<svg xmlns="http://www.w3.org/2000/svg" width="24" height="24" fill="none" viewBox="0 0 24 24">
    <path fill="currentColor" fill-rule="evenodd" d="M17.625 1H6.375c-.895 0-1.754.316-2.386.879S3 3.204 3 4v17a1.9 1.9 0 0 0 .661 1.413c.422.374.993.585 1.589.587a2.34 2.34 0 0 0 1.159-.29l2.216-1.18 2.216 1.18c.35.19.75.29 1.159.29s.81-.1 1.159-.29l2.216-1.18 2.216 1.18c.347.193.75.294 1.159.29a2.4 2.4 0 0 0 1.589-.587A1.9 1.9 0 0 0 21 21V4c0-.796-.356-1.559-.988-2.121C19.379 1.316 18.52 1 17.625 1M11 6a1 1 0 0 1 2 0v6a1 1 0 0 1-2 0zm2.5 10a1.5 1.5 0 1 1-3 0 1.5 1.5 0 0 1 3 0" clip-rule="evenodd"/>
</svg>
