<svg xmlns="http://www.w3.org/2000/svg" width="24" height="24" fill="none" viewBox="0 0 24 24">
    <path fill="currentColor" d="M18 2a2 2 0 0 1 2 2v7h-2V5a1 1 0 0 0-1-1H7a1 1 0 0 0-1 1v14.057l3.129-1.173 2.911 1.941L12 22l-3.129-1.884L4 21.943V4a2 2 0 0 1 2-2zm-1.128 11.394a1 1 0 0 1 1.59 1.212L17.019 16.5H19a1.001 1.001 0 0 1 .795 1.606l-2.667 3.5a1 1 0 0 1-1.59-1.212l1.443-1.894H15a1.001 1.001 0 0 1-.795-1.606zM13 11a1 1 0 1 1 0 2H9a1 1 0 1 1 0-2zm2-3a1 1 0 1 1 0 2H9a1 1 0 0 1 0-2z"/>
</svg>
