<svg xmlns="http://www.w3.org/2000/svg" width="24" height="24" fill="none" viewBox="0 0 24 24">
    <path fill="currentColor" d="M17 20.002a1 1 0 0 1 1 1v.01a1 1 0 1 1-2 0v-.01a1 1 0 0 1 1-1m-4.96-.177L12 22l-3.129-1.884L4 21.943V19h2v.057l3.129-1.173zm3.413-6.436a3.1 3.1 0 0 1 3.599.431l.185.187.063.075c.366.488.7 1.097.7 1.9 0 1.185-.891 1.945-1.44 2.316a6 6 0 0 1-1.189.613l-.026.01-.012.004h-.002L17 17.983l.33.944a1 1 0 0 1-.755-1.849l.094-.039h-.001l.006-.002q.013-.004.044-.017a3.897 3.897 0 0 0 .723-.379c.45-.303.559-.542.559-.658 0-.188-.062-.37-.273-.66a1.1 1.1 0 0 0-1.327-.174l-.052.029c-.121.06-.296.239-.453.553a1 1 0 0 1-1.79-.895c.243-.486.67-1.108 1.348-1.447M6 17H4v-2h2zm7-5.943a1 1 0 0 1 0 2H9a1 1 0 1 1 0-2zM6 13H4V7h2zm9-4.943a1 1 0 1 1 0 2H9a1 1 0 1 1 0-2zM20 9h-2V7h2zM7 4a1 1 0 0 0-1 1H4V4a2 2 0 0 1 2-2h1zm11-2a2 2 0 0 1 2 2v1h-2a1 1 0 0 0-1-1V2zm-7 2H9V2h2zm4 0h-2V2h2z"/>
</svg>
