<svg width="24" height="24" viewBox="0 0 24 24" fill="none" xmlns="http://www.w3.org/2000/svg">
    <path d="M12 18C13.1046 18 14 17.1046 14 16C14 14.8954 13.1046 14 12 14C10.8954 14 10 14.8954 10 16C10 17.1046 10.8954 18 12 18Z" fill="currentColor"/>
    <path fill-rule="evenodd" clip-rule="evenodd" d="M20 9V20C20 20.7956 19.6839 21.5587 19.1213 22.1213C18.5587 22.6839 17.7956 23 17 23H7C6.20435 23 5.44129 22.6839 4.87868 22.1213C4.31607 21.5587 4 20.7956 4 20V4C4 3.20435 4.31607 2.44129 4.87868 1.87868C5.44129 1.31607 6.20435 1 7 1H12V8C12 8.26522 12.1054 8.51957 12.2929 8.70711C12.4804 8.89464 12.7348 9 13 9H20ZM16 16C16 18.2091 14.2091 20 12 20C9.79086 20 8 18.2091 8 16C8 13.7909 9.79086 12 12 12C14.2091 12 16 13.7909 16 16Z" fill="currentColor"/>
    <path d="M20 7H14V1L20 7Z" fill="currentColor"/>
</svg>
