<svg width="24" height="24" viewBox="0 0 24 24" fill="none" xmlns="http://www.w3.org/2000/svg">
<path fill="currentColor" d="M13.9941 10.3311C14.8263 10.0795 15.7066 10.0323 16.5605 10.1943C17.4145 10.3565 18.2171 10.7231 18.9014 11.2617C19.5856 11.8003 20.1324 12.4956 20.4961 13.2891C20.726 13.791 20.5049 14.3842 20.0029 14.6143C19.5009 14.8442 18.9078 14.624 18.6777 14.1221C18.4456 13.6158 18.0981 13.174 17.665 12.833C17.2319 12.4921 16.7247 12.2612 16.1875 12.1592C15.6505 12.0573 15.0971 12.0868 14.5732 12.2451C14.1818 12.3634 13.815 12.5517 13.4893 12.7998H14.667C15.2191 12.8 15.6669 13.2477 15.667 13.7998C15.667 14.352 15.2191 14.7996 14.667 14.7998H11.1113C10.559 14.7998 10.1113 14.3521 10.1113 13.7998V10.2002C10.1113 9.64791 10.559 9.2002 11.1113 9.2002C11.6635 9.20031 12.1113 9.64798 12.1113 10.2002V11.3428C12.6657 10.8851 13.3044 10.5396 13.9941 10.3311ZM19 8.84961V6.59961C18.9999 6.38363 18.9147 6.17928 18.7676 6.03027C18.6208 5.8817 18.4247 5.79992 18.2227 5.7998H16.5557V6.59961C16.5557 7.15186 16.1079 7.59955 15.5557 7.59961C15.0034 7.59961 14.5557 7.15189 14.5557 6.59961V5.7998H9.44434V6.59961C9.44434 7.15189 8.99662 7.59961 8.44434 7.59961C7.8921 7.59955 7.44434 7.15186 7.44434 6.59961V5.7998H5.77734C5.57525 5.79992 5.37916 5.8817 5.23242 6.03027C5.08529 6.17928 5.0001 6.38363 5 6.59961V9.2002H7.55566C8.1079 9.20025 8.55566 9.64795 8.55566 10.2002C8.55556 10.7524 8.10783 11.2001 7.55566 11.2002H5V19.2002C5.00005 19.4163 5.08521 19.6215 5.23242 19.7705C5.37913 19.9189 5.5754 19.9999 5.77734 20H10.5996V22H5.77734C5.0369 21.9999 4.32939 21.7019 3.80957 21.1758C3.29008 20.6498 3.00005 19.9387 3 19.2002V6.59961C3.0001 5.86112 3.29013 5.14996 3.80957 4.62402C4.32938 4.09794 5.03695 3.79992 5.77734 3.7998H7.44434V3C7.44434 2.44775 7.8921 2.00006 8.44434 2C8.99662 2 9.44434 2.44772 9.44434 3V3.7998H14.5557V3C14.5557 2.44772 15.0034 2 15.5557 2C16.1079 2.00006 16.5557 2.44775 16.5557 3V3.7998H18.2227C18.963 3.79992 19.6706 4.09794 20.1904 4.62402C20.7099 5.14996 20.9999 5.86112 21 6.59961V8.84961C21 9.40189 20.5523 9.84961 20 9.84961C19.4477 9.84961 19 9.40189 19 8.84961ZM21 21C21 21.5523 20.5523 22 20 22C19.4477 22 19 21.5523 19 21V19.8564C18.4454 20.3144 17.8064 20.6605 17.1162 20.8691C16.284 21.1206 15.4037 21.168 14.5498 21.0059C13.696 20.8437 12.8941 20.4769 12.21 19.9385C11.5257 19.3999 10.979 18.7046 10.6152 17.9111C10.3853 17.4093 10.6057 16.8162 11.1074 16.5859C11.6095 16.3558 12.2035 16.5761 12.4336 17.0781C12.6657 17.5844 13.0132 18.0263 13.4463 18.3672C13.8793 18.708 14.3858 18.938 14.9229 19.04C15.46 19.142 16.0141 19.1135 16.5381 18.9551C16.9295 18.8368 17.2964 18.6485 17.6221 18.4004H16.4443C15.8922 18.4003 15.4445 17.9525 15.4443 17.4004C15.4443 16.8481 15.8921 16.4004 16.4443 16.4004H20C20.5523 16.4004 21 16.8481 21 17.4004V21Z" />
</svg>
