<svg xmlns="http://www.w3.org/2000/svg" width="24" height="24" fill="none" viewBox="0 0 24 24">
    <path fill="currentColor" d="M4 19.2V4.8c0-.734.283-1.443.796-1.97A2.73 2.73 0 0 1 6.75 2h7v.001a3.05 3.05 0 0 1 2.208.937l3.137 3.227A3.213 3.213 0 0 1 20 8.4v10.8c0 .734-.284 1.443-.796 1.97a2.73 2.73 0 0 1-1.954.83H6.75c-.738 0-1.44-.302-1.954-.83A2.83 2.83 0 0 1 4 19.2M14.75 7.4h2.757L14.75 4.563zM6 19.2c0 .221.086.427.23.575.142.147.33.225.52.225h10.5c.19 0 .378-.078.52-.225A.83.83 0 0 0 18 19.2V9.4h-3.375c-.507 0-.987-.208-1.336-.567A1.91 1.91 0 0 1 12.75 7.5V4h-6a.73.73 0 0 0-.52.225A.83.83 0 0 0 6 4.8z"/>
    <path fill="currentColor" d="M14.6 14.5a2.25 2.25 0 0 0-2.25-2.25c-.645 0-1.231.248-1.67.65h.62a.9.9 0 1 1 0 1.8H8.5a.9.9 0 0 1-.9-.9V11a.9.9 0 0 1 1.8 0v.63a4.27 4.27 0 0 1 2.95-1.18 4.05 4.05 0 0 1 4.05 4.05 4.4 4.4 0 0 1-7.92 2.64.9.9 0 1 1 1.44-1.08 2.6 2.6 0 0 0 4.68-1.56"/>
</svg>
