<svg width="48" height="24" viewBox="0 0 48 24" fill="none" xmlns="http://www.w3.org/2000/svg">
    <path fill-rule="evenodd" clip-rule="evenodd" d="M2 8h21.213l-2.47 8.875H2V8z" fill="#BE0811"/>
    <path fill-rule="evenodd" clip-rule="evenodd" d="m46 8-2.51 8.875H20.741L23.213 8H46z" fill="#001D7E"/>
    <path d="M26.4 12.21c.047-.293.063-.54.055-.746a1.474 1.474 0 0 0-.103-.508.8.8 0 0 0-.509-.485 1.17 1.17 0 0 0-.333-.048c-.215 0-.43.048-.628.135-.207.088-.397.23-.572.421-.183.191-.35.437-.5.731-.152.302-.287.66-.398 1.073-.111.421-.183.779-.198 1.088-.016.302.015.557.087.755a.822.822 0 0 0 .334.437.96.96 0 0 0 .54.143c.183 0 .365-.024.54-.08.175-.055.342-.158.509-.301.166-.143.317-.342.476-.596.151-.254.294-.58.43-.977h-.755c-.064.19-.143.35-.23.484-.096.135-.192.239-.295.318a.575.575 0 0 1-.326.111c-.15 0-.27-.055-.341-.158-.08-.104-.12-.263-.12-.47 0-.206.04-.452.12-.738.08-.294.175-.532.286-.739.111-.199.23-.358.365-.46a.7.7 0 0 1 .43-.16c.103 0 .182.024.254.072.063.047.11.127.143.246.023.111.031.27.008.46.23-.007.476-.007.73-.007zm.095.58a4.789 4.789 0 0 0-.175 1.09c-.008.301.024.556.103.754a.86.86 0 0 0 .358.437c.159.095.35.143.572.143.222 0 .437-.048.643-.143a1.83 1.83 0 0 0 .58-.437c.183-.198.342-.445.493-.755.143-.301.27-.667.381-1.088.104-.421.16-.779.16-1.073.007-.302-.032-.548-.112-.739a.821.821 0 0 0-.358-.42 1.118 1.118 0 0 0-.564-.136c-.214 0-.429.048-.627.135-.199.088-.39.23-.572.421a2.99 2.99 0 0 0-.493.74 4.92 4.92 0 0 0-.39 1.072zm.755 0c.071-.293.166-.531.278-.738a1.6 1.6 0 0 1 .357-.46.7.7 0 0 1 .43-.16c.15 0 .261.056.34.16.08.102.12.253.128.46.008.199-.032.445-.103.739-.072.294-.167.54-.27.739-.112.206-.23.357-.366.469a.7.7 0 0 1-.429.159.42.42 0 0 1-.35-.16c-.079-.103-.119-.262-.127-.468 0-.199.032-.445.112-.74zm5.521 2.241h.74c.118-.508.23-1.017.349-1.525.12-.5.23-1.01.35-1.502.063-.286.095-.532.095-.73 0-.2-.032-.358-.087-.47a.543.543 0 0 0-.223-.254.6.6 0 0 0-.31-.08.937.937 0 0 0-.58.215 2.154 2.154 0 0 0-.524.612c0-.167-.016-.31-.048-.437a.543.543 0 0 0-.183-.286.508.508 0 0 0-.333-.103.906.906 0 0 0-.318.063 1.657 1.657 0 0 0-.564.414c-.08.087-.143.182-.207.27h-.008c.056-.215.103-.421.16-.636h-.7l-.548 2.201c-.183.739-.366 1.494-.556 2.24h.739c.103-.405.198-.81.293-1.215.096-.405.2-.803.294-1.208a2.52 2.52 0 0 1 .151-.453c.064-.127.128-.238.199-.317a.813.813 0 0 1 .222-.191c.08-.04.151-.064.23-.064.056 0 .104.008.144.032.048.024.08.064.111.12a.473.473 0 0 1 .048.23c0 .095-.016.222-.048.365-.103.445-.214.89-.318 1.335-.11.445-.214.898-.325 1.35h.739l.286-1.215.286-1.208c.04-.175.095-.325.15-.452.056-.128.128-.239.191-.318a.815.815 0 0 1 .223-.191.474.474 0 0 1 .222-.064c.056 0 .103.008.151.032a.234.234 0 0 1 .111.12.473.473 0 0 1 .048.23c0 .095-.008.222-.048.365l-.31 1.335c-.087.493-.19.938-.294 1.39zm2.456-2.216c.047-.215.11-.397.182-.556.072-.16.151-.294.239-.398a1.06 1.06 0 0 1 .27-.238.531.531 0 0 1 .278-.08c.095 0 .175.024.246.08a.537.537 0 0 1 .167.238c.04.104.063.239.063.398 0 .159-.023.341-.063.556a2.86 2.86 0 0 1-.175.556c-.071.159-.15.294-.238.405a.964.964 0 0 1-.27.246.558.558 0 0 1-.286.08.382.382 0 0 1-.247-.08.521.521 0 0 1-.166-.246 1.219 1.219 0 0 1-.056-.405 1.801 1.801 0 0 1 .056-.556zm-1.597 3.909h.746c.08-.366.167-.74.247-1.105.08-.365.166-.73.246-1.096h.008a.866.866 0 0 0 .12.357.624.624 0 0 0 .237.239c.104.056.223.08.358.087.175 0 .358-.063.532-.175.175-.119.342-.278.5-.492.16-.215.303-.469.43-.763.127-.294.23-.62.31-.985.087-.39.127-.731.119-1.017 0-.294-.04-.532-.12-.723a1.001 1.001 0 0 0-.31-.43.798.798 0 0 0-.468-.142.812.812 0 0 0-.302.056c-.103.04-.206.11-.318.214-.11.103-.23.246-.365.445h-.008c.048-.199.087-.397.135-.596h-.7c-.23 1.001-.46 2.01-.69 3.027-.239 1.025-.47 2.058-.708 3.099zm3.646-1.693h.74c.07-.325.134-.651.206-.969.071-.326.135-.643.206-.961.064-.286.143-.533.239-.74.095-.198.206-.357.341-.46a.693.693 0 0 1 .445-.159.51.51 0 0 1 .191.04c.064.024.12.056.183.095.095-.453.183-.905.278-1.35a.592.592 0 0 0-.127-.032c-.048-.008-.088-.008-.128-.008a.682.682 0 0 0-.285.055c-.088.04-.175.096-.263.175-.08.08-.166.183-.254.302-.087.12-.183.27-.286.437h-.008c.064-.286.12-.572.183-.858h-.7l-.476 2.2c-.159.74-.326 1.487-.485 2.233zm4.442-1.819a1.868 1.868 0 0 1-.128.405c-.055.12-.119.223-.182.31a1.466 1.466 0 0 1-.223.223 1.21 1.21 0 0 1-.238.135.612.612 0 0 1-.23.04.362.362 0 0 1-.23-.072.356.356 0 0 1-.12-.215 1.003 1.003 0 0 1 .008-.341.923.923 0 0 1 .111-.318.534.534 0 0 1 .167-.183.659.659 0 0 1 .23-.08l.437-.07c.072-.009.151-.033.23-.056a.729.729 0 0 0 .24-.136c-.017.12-.048.239-.072.358zm-.914-1.28c.056-.15.111-.27.159-.357a.867.867 0 0 1 .159-.198.388.388 0 0 1 .175-.08c.063-.016.135-.016.206-.016.143 0 .246.016.326.056.071.04.127.095.143.175a.608.608 0 0 1 0 .294c-.024.119-.048.206-.08.27a.288.288 0 0 1-.119.135.542.542 0 0 1-.19.056c-.263.04-.533.071-.795.103a1.282 1.282 0 0 0-.556.199 1.425 1.425 0 0 0-.262.238c-.08.103-.151.23-.223.381-.063.151-.127.342-.167.556a2.672 2.672 0 0 0-.063.668c.008.182.047.333.111.453a.54.54 0 0 0 .262.254c.111.056.239.08.39.08.087 0 .174-.009.278-.033.103-.023.206-.055.31-.103.103-.048.206-.119.31-.198.103-.088.198-.191.285-.318-.008.08-.023.159-.031.238-.008.08-.008.159-.016.239h.739c-.008-.112 0-.247.015-.39a5.19 5.19 0 0 1 .08-.516l.215-1.113.214-1.096c.032-.167.056-.326.064-.469.008-.15 0-.286-.032-.413a.799.799 0 0 0-.16-.318.861.861 0 0 0-.317-.214 1.567 1.567 0 0 0-.516-.08c-.12 0-.239.008-.358.024a1.165 1.165 0 0 0-.357.111 1.23 1.23 0 0 0-.342.255 1.754 1.754 0 0 0-.302.437 3.284 3.284 0 0 0-.246.675c.222.016.453.016.691.016zm-29.802-1.779h1.247c.064 0 .12.008.175.032a.322.322 0 0 1 .135.12.579.579 0 0 1 .056.23c0 .095-.024.222-.064.373-.04.143-.095.262-.15.357-.056.096-.12.175-.184.239a.703.703 0 0 1-.19.135.501.501 0 0 1-.175.04h-1.295c.127-.509.286-1.017.445-1.526zm-1.192.675H2v.731h7.588l-.128.406H2v.739h7.23l-.127.405H2v.73h6.88l-.15.485H2v.731h7.5l.731-2.232h1.176c.08 0 .143.016.199.047a.235.235 0 0 1 .11.167c.025.08.025.183.009.326-.016.135-.056.31-.12.524-.047.16-.087.294-.127.413-.031.12-.063.223-.079.302-.024.088-.04.167-.048.239-.008.071-.016.143-.016.214h1.073c-.016-.08-.024-.175-.016-.294s.032-.238.056-.373c.024-.127.055-.254.087-.373.032-.112.056-.207.08-.287.04-.119.071-.246.11-.389.033-.135.065-.27.088-.405a2.18 2.18 0 0 0 .032-.381.774.774 0 0 0-.056-.294.244.244 0 0 0-.166-.151c0-.008 0-.008.008-.016.238-.127.444-.302.611-.549.167-.238.31-.548.421-.913a3.02 3.02 0 0 0 .096-.405c.024-.151.04-.294.032-.437 0-.143-.032-.278-.08-.398a.614.614 0 0 0-.246-.286c-.111-.071-.27-.11-.469-.11h-2.614l-.572 1.835zm5.768 2.869a1.424 1.424 0 0 1-.42.445.88.88 0 0 1-.501.15.55.55 0 0 1-.358-.11.624.624 0 0 1-.19-.279.885.885 0 0 1-.048-.357c.008-.127.024-.247.055-.358 0-.008 0-.008.008-.016h2.614c.016-.047.024-.087.04-.135.175-.572.254-1.057.254-1.462-.008-.405-.103-.707-.294-.921-.19-.215-.485-.318-.874-.318-.27 0-.524.047-.77.143a2.275 2.275 0 0 0-.7.437 3.345 3.345 0 0 0-.595.763c-.183.31-.334.675-.47 1.104-.126.429-.198.795-.206 1.104-.008.31.032.564.135.763.096.199.239.35.43.437.19.095.42.143.69.143.27 0 .54-.056.795-.159.254-.103.5-.27.723-.5.23-.23.445-.517.636-.882-.318.008-.636.008-.954.008zm-1.184-1.399c0-.008 0-.008.008-.016.008-.023.032-.071.064-.143.04-.079.087-.159.15-.254.064-.095.144-.19.24-.278.095-.095.198-.167.317-.23a.807.807 0 0 1 .39-.096c.126 0 .23.024.31.08a.49.49 0 0 1 .174.206.81.81 0 0 1 .072.263 1.45 1.45 0 0 1 0 .262.627.627 0 0 1-.04.198c0 .008 0 .008-.008.016-.556-.008-1.113-.008-1.677-.008zm3.703.509c.063-.215.143-.405.238-.572a1.93 1.93 0 0 1 .31-.413c.111-.112.223-.191.342-.247a.812.812 0 0 1 .35-.087c.11 0 .206.024.293.087.08.056.143.135.19.247.049.11.064.246.064.413-.008.167-.04.357-.103.572a2.691 2.691 0 0 1-.238.572 1.933 1.933 0 0 1-.31.413c-.111.111-.223.19-.342.246a.807.807 0 0 1-.341.088.514.514 0 0 1-.294-.088.464.464 0 0 1-.191-.246.933.933 0 0 1-.056-.413 1.763 1.763 0 0 1 .088-.572zm1 2.256h.867c.31-1.033.612-2.058.922-3.083.302-1.024.611-2.05.913-3.066h-.89c-.11.357-.214.723-.325 1.08-.112.358-.215.723-.326 1.08h-.008a.773.773 0 0 0-.127-.357.678.678 0 0 0-.278-.238 1.006 1.006 0 0 0-.43-.087 1.31 1.31 0 0 0-.643.174 2.341 2.341 0 0 0-.627.493 3.899 3.899 0 0 0-.549.77c-.167.303-.31.636-.42 1.002-.12.397-.184.747-.2 1.048-.015.302.016.549.096.747.08.199.19.35.341.453a.946.946 0 0 0 .549.151c.135 0 .27-.016.413-.064.143-.04.286-.119.429-.23a3.03 3.03 0 0 0 .453-.453h.008c-.056.199-.111.39-.167.58z" fill="#fff"/>
</svg>
