<svg xmlns="http://www.w3.org/2000/svg" width="24" height="24" fill="none" viewBox="0 0 24 24">
    <path fill="currentColor" d="M18.111 12.553H13V19.5h4.333a.77.77 0 0 0 .548-.229.8.8 0 0 0 .23-.56zm-5.111-2h6v-1.58h-6zm-8 0h6v-1.58H5zm.889 8.158c0 .211.084.413.23.56a.77.77 0 0 0 .548.229H11v-6.947H5.889zM17.223 5.737c0-.33-.13-.645-.36-.877-.23-.23-.541-.36-.863-.36h-.018c-.496-.009-1.076.23-1.648.87-.366.408-.696.951-.965 1.604H16c.322 0 .633-.129.862-.36.23-.231.36-.547.36-.877m-10.446 0c0 .33.13.646.36.877s.541.36.863.36h2.63c-.268-.653-.598-1.196-.964-1.605-.572-.64-1.152-.878-1.648-.869H8c-.322 0-.633.13-.862.36-.23.232-.36.547-.36.877m12.446 0c0 .428-.085.848-.245 1.237h.133c1.05 0 1.889.855 1.889 1.895v1.79c0 .674-.354 1.268-.889 1.604v6.448c0 .738-.291 1.446-.811 1.97a2.78 2.78 0 0 1-1.967.819H6.667a2.77 2.77 0 0 1-1.967-.82 2.8 2.8 0 0 1-.811-1.97v-6.447A1.9 1.9 0 0 1 3 10.658V8.87c0-1.04.84-1.895 1.889-1.895h.133a3.24 3.24 0 0 1 .697-3.522A3.22 3.22 0 0 1 8 2.5v.002c1.211-.015 2.306.581 3.157 1.533.314.35.595.75.843 1.186.248-.436.53-.835.843-1.186.85-.952 1.946-1.548 3.157-1.533V2.5c.857 0 1.677.343 2.281.951s.942 1.43.942 2.286"/>
</svg>
