<svg xmlns="http://www.w3.org/2000/svg" width="24" height="24" fill="none" viewBox="0 0 24 24">
    <path fill="currentColor" d="M15.137 8.704a3.292 3.292 0 0 1 2.323.954l1.787 1.772q.206.203.364.44c.261-.529.389-1.068.389-1.693 0-.843-.258-1.667-.741-2.363a4.2 4.2 0 0 0-1.969-1.537 4.27 4.27 0 0 0-2.507-.16 4.24 4.24 0 0 0-2.198 1.318L9.91 10.026a.875.875 0 0 0 0 1.242.91.91 0 0 0 1.28 0l1.624-1.61.118-.11a3.3 3.3 0 0 1 2.205-.844M3 10.177c0 1.705 1.112 3.038 2.554 4.466h-.001l5.248 5.035.036.037a.9.9 0 0 0 .646.285.92.92 0 0 0 .873-.585.98.98 0 0 0-.22-1.078v-.001l-.035-.037a1 1 0 0 1 1.441-1.386l.035.038h.001a1.02 1.02 0 0 0 .732.332 1.03 1.03 0 0 0 .75-.296 1 1 0 0 0 .293-.728.98.98 0 0 0-.33-.713v-.001l-.038-.033a1 1 0 0 1 1.371-1.455q.019.016.037.034a1.02 1.02 0 0 0 .723.296 1.04 1.04 0 0 0 .724-.296.873.873 0 0 0 0-1.241h-.001l-1.786-1.77a1.3 1.3 0 0 0-.916-.376 1.3 1.3 0 0 0-.822.29l-.093.085-1.625 1.61a2.91 2.91 0 0 1-3.881.19l-.213-.19a2.875 2.875 0 0 1 0-4.084l.008-.007 1.554-1.508a4.24 4.24 0 0 0-1.848-.973 4.27 4.27 0 0 0-2.507.161 4.2 4.2 0 0 0-1.969 1.536A4.14 4.14 0 0 0 3 10.177m19 0c0 2.307-1.211 3.807-2.753 5.335-.28.278-.613.498-.978.648a3 3 0 0 1-.917.215 2.99 2.99 0 0 1-1.899 2.695c-.33.13-.68.201-1.033.211a2.98 2.98 0 0 1-.872 1.877l-.001.001a2.9 2.9 0 0 1-2.1.841 2.92 2.92 0 0 1-2.031-.88v.001l-5.259-5.047-.01-.01C2.736 14.668 1 12.8 1 10.177v-.001c0-1.252.384-2.473 1.099-3.502A6.2 6.2 0 0 1 5 4.409a6.27 6.27 0 0 1 3.68-.237 6.24 6.24 0 0 1 2.818 1.516 6.24 6.24 0 0 1 2.82-1.517A6.27 6.27 0 0 1 18 4.408a6.2 6.2 0 0 1 2.901 2.265A6.15 6.15 0 0 1 22 10.177"/>
</svg>
