<svg width="24" height="24" viewBox="0 0 24 24" fill="none" xmlns="http://www.w3.org/2000/svg">
  <path
    d="M15.0037 17.2787L21.2869 10.9955C21.8304 10.4514 22.2615 9.80551 22.5554 9.09481C22.8493 8.3841 23.0004 7.62245 23 6.85336C22.9996 6.08427 22.8477 5.32279 22.553 4.6124C22.2583 3.90201 21.8265 3.25663 21.2824 2.71309C20.7383 2.16956 20.0924 1.73852 19.3817 1.44458C18.671 1.15065 17.9094 0.999583 17.1403 1C15.587 1.00085 14.0977 1.61868 13 2.71759C11.9023 1.61868 10.413 1.00085 8.85973 1C7.30648 0.999156 5.81651 1.61537 4.7176 2.71309C3.61868 3.81081 3.00085 5.30011 3 6.85336C2.9996 7.5988 3.14132 8.32966 3.41017 9.00972C3.79226 8.12916 4.42004 7.37659 5.21913 6.84265C6.04137 6.29325 7.00807 6 7.99698 6C9.32306 6 10.5948 6.52678 11.5325 7.46447C12.4702 8.40215 12.997 9.67392 12.997 11C12.997 11.9889 12.7037 12.9556 12.1543 13.7779C11.9394 14.0995 11.689 14.3934 11.4091 14.6547C12.2879 15.0082 13.1124 15.5 13.8493 16.1179C14.2709 16.4713 14.6568 16.8602 15.0037 17.2787Z"
    fill="currentColor" />
  <path
    d="M13.1454 18.1964C12.9629 18.0044 12.769 17.8221 12.5644 17.6504C12.5584 17.6455 12.5525 17.6405 12.5466 17.6356C11.794 17.0087 10.9252 16.5501 9.99821 16.2806C9.35279 16.093 8.67918 15.9971 7.99698 16C6.32746 15.9931 4.70949 16.578 3.43022 17.6508C2.15096 18.7235 1.29313 20.2148 1.00898 21.86C0.989701 22.0033 1.00155 22.1491 1.04372 22.2874C1.08589 22.4258 1.15739 22.5534 1.25334 22.6616C1.34929 22.7698 1.46745 22.856 1.59974 22.9144C1.73204 22.9728 1.87538 23.002 2.01998 23H13.976C14.1202 23.0009 14.2629 22.9709 14.3946 22.9121C14.5263 22.8533 14.6439 22.7671 14.7396 22.6591C14.8352 22.5512 14.9067 22.424 14.9492 22.2862C14.9917 22.1484 15.0042 22.0031 14.986 21.86C14.7473 20.4779 14.1037 19.2044 13.1454 18.1964Z"
    fill="currentColor" />
  <path
    d="M7.70318 13.9856C7.60567 13.976 7.50839 13.9616 7.41171 13.9424C6.82976 13.8266 6.29521 13.5409 5.87566 13.1213C5.4561 12.7018 5.17038 12.1672 5.05462 11.5853C5.03539 11.4886 5.02099 11.3913 5.0114 11.2938C4.96324 10.8044 5.036 10.3091 5.22534 9.85195C5.42402 9.37229 5.74325 8.95361 6.15046 8.6356C6.20863 8.59017 6.2686 8.5468 6.33027 8.50559C6.79278 8.19655 7.33147 8.02259 7.8859 8.00206C7.92286 8.00069 7.95989 8 7.99698 8C8.69317 8 9.36442 8.24199 9.89825 8.67939C9.97451 8.74188 10.048 8.80835 10.1183 8.87868C10.6809 9.44129 10.997 10.2044 10.997 11C10.997 11.5933 10.821 12.1734 10.4914 12.6667C10.1617 13.1601 9.69321 13.5446 9.14503 13.7716C8.7851 13.9207 8.40144 13.9975 8.01566 13.9999"
    fill="currentColor" />
  <path d="M7.9788 13.9999C7.88691 13.9994 7.79494 13.9946 7.70318 13.9856L7.9788 13.9999Z" fill="currentColor" />
</svg>
