<svg width="24" height="24" viewBox="0 0 24 24" fill="none" xmlns="http://www.w3.org/2000/svg">
    <path d="M7.5 1a3.5 3.5 0 0 0-3.226 4.859c.182.43.45.818.786 1.141H3a2.006 2.006 0 0 0-2 2v3h10V4.5A3.5 3.5 0 0 0 7.5 1zM9 7 6.76 5.79A1.453 1.453 0 0 1 6 4.5a1.5 1.5 0 0 1 3 0V7zm12 0h-2.06A3.45 3.45 0 0 0 20 4.5a3.5 3.5 0 1 0-7 0V12h10V9a2.006 2.006 0 0 0-2-2zm-3.76-1.21L15 7V4.5a1.5 1.5 0 1 1 2.799.75 1.453 1.453 0 0 1-.559.54zM13 14v9h5a3 3 0 0 0 3-3v-6h-8zM3 14v6a3 3 0 0 0 3 3h5v-9H3z" fill="#000"/>
</svg>
