<svg width="16" height="16" viewBox="0 0 16 16" fill="none" xmlns="http://www.w3.org/2000/svg">
<path d="M8 1C11.866 1 15 4.13401 15 8C15 11.866 11.866 15 8 15C4.13401 15 1 11.866 1 8C1 4.13401 4.13401 1 8 1ZM7.45921 4.66838C7.16837 4.37754 6.69694 4.37754 6.4061 4.66838L4.66838 6.4061C4.37754 6.69694 4.37754 7.16837 4.66838 7.45921L6.4061 9.19693C6.69696 9.48752 7.16846 9.48769 7.45921 9.19693C7.74997 8.90618 7.7498 8.43469 7.45921 8.14383L6.99278 7.6774H8.84396C8.9971 7.67743 9.14952 7.70801 9.291 7.76661C9.43218 7.8252 9.56107 7.91067 9.66918 8.01873C9.77741 8.12703 9.86369 8.25644 9.92228 8.39789C9.98073 8.53923 10.0105 8.69101 10.0105 8.84396C10.0105 8.9971 9.98088 9.14952 9.92228 9.291C9.86365 9.43241 9.77744 9.56093 9.66918 9.66918C9.56093 9.77744 9.43241 9.86365 9.291 9.92228C9.14952 9.98088 8.9971 10.0105 8.84396 10.0105H7.62794C7.21676 10.0105 6.88341 10.3441 6.8832 10.7553C6.88334 11.1665 7.21672 11.5 7.62794 11.5H8.84396C9.19255 11.5 9.53814 11.4316 9.86022 11.2983C10.1824 11.1648 10.4757 10.9689 10.7223 10.7223C10.9689 10.4757 11.1648 10.1824 11.2983 9.86022C11.4316 9.53814 11.5 9.19255 11.5 8.84396C11.5 8.49534 11.4317 8.1498 11.2983 7.8277C11.1649 7.50554 10.9688 7.21223 10.7223 6.96563C10.4758 6.71914 10.1823 6.52404 9.86022 6.39059C9.53808 6.25719 9.19262 6.18795 8.84396 6.18792H6.99278L7.45921 5.72149C7.74997 5.43073 7.7498 4.95924 7.45921 4.66838Z" fill="currentColor"/>
</svg>
