<svg width="24" height="24" viewBox="0 0 24 24" fill="none" xmlns="http://www.w3.org/2000/svg">
<path d="M12 2C17.5228 2 22 6.47715 22 12C22 17.5228 17.5228 22 12 22C6.47715 22 2 17.5228 2 12C2 6.47715 6.47715 2 12 2ZM11.207 7.29297C10.8165 6.90244 10.1835 6.90244 9.79297 7.29297L7.29297 9.79297C6.90248 10.1835 6.90246 10.8165 7.29297 11.207L9.79297 13.707C10.1835 14.0975 10.8165 14.0975 11.207 13.707C11.5975 13.3165 11.5975 12.6835 11.207 12.293L10.4141 11.5H13.25C13.4798 11.5 13.7076 11.5449 13.9199 11.6328C14.1322 11.7208 14.3248 11.8502 14.4873 12.0127C14.6498 12.1752 14.7792 12.3678 14.8672 12.5801C14.9551 12.7924 15 13.0202 15 13.25C15 13.4798 14.9551 13.7076 14.8672 13.9199C14.7792 14.1322 14.6498 14.3248 14.4873 14.4873C14.3248 14.6498 14.1322 14.7792 13.9199 14.8672C13.7076 14.9551 13.4798 15 13.25 15H11.5C10.9477 15 10.5 15.4477 10.5 16C10.5 16.5523 10.9477 17 11.5 17H13.25C13.7424 17 14.2306 16.9033 14.6855 16.7148C15.1404 16.5264 15.5532 16.2495 15.9014 15.9014C16.2495 15.5532 16.5264 15.1404 16.7148 14.6855C16.9033 14.2306 17 13.7424 17 13.25C17 12.7576 16.9033 12.2694 16.7148 11.8145C16.5264 11.3596 16.2495 10.9468 15.9014 10.5986C15.5532 10.2505 15.1404 9.97361 14.6855 9.78516C14.2306 9.5967 13.7425 9.5 13.25 9.5H10.4141L11.207 8.70703C11.5975 8.31652 11.5975 7.6835 11.207 7.29297Z" fill="currentColor"/>
</svg>
