<svg xmlns="http://www.w3.org/2000/svg" width="24" height="24" fill="none" viewBox="0 0 24 24">
    <path fill="currentColor" d="M8.013 2.79a1 1 0 0 1 .8 1.833 8.02 8.02 0 0 0-4.447 9.752 8.025 8.025 0 0 0 9.212 5.472 8.02 8.02 0 0 0 5.83-4.745 1 1 0 0 1 1.841.779 10.02 10.02 0 0 1-7.282 5.928A10.02 10.02 0 0 1 2.169 10.142 10.03 10.03 0 0 1 8.013 2.79m5.007-.781.43.053a10.02 10.02 0 0 1 8.541 8.919c.115 1.151-.832 2-1.852 2l-7.217.001a1.9 1.9 0 0 1-1.902-1.902V3.861c0-.955.744-1.848 1.787-1.861zm0 8.972h6.957a8.02 8.02 0 0 0-6.957-6.959z"/>
</svg>
