<svg xmlns="http://www.w3.org/2000/svg" width="24" height="24" fill="none" viewBox="0 0 24 24">
    <path fill="currentColor" fill-rule="evenodd" d="M13.81 2.025c4.658.858 8.19 4.966 8.19 9.906l-.014.518C21.718 17.77 17.35 22 12 22l-.396-.007a9.9 9.9 0 0 1-5.32-1.798c-.823-.58-.81-1.754-.098-2.465l5.276-5.268c.301-.3.487-.697.53-1.118L12 11.16V3.691c0-1.01.822-1.847 1.81-1.666m-5.714.632c1.045-.446 2.085.424 2.086 1.568v6.173l-.01.182a1.84 1.84 0 0 1-.528 1.118l-4.359 4.353c-.781.78-2.071.68-2.534-.292l-.042-.097A10.1 10.1 0 0 1 2 11.931c0-4.167 2.513-7.742 6.096-9.274" clip-rule="evenodd"/>
</svg>
