<svg xmlns="http://www.w3.org/2000/svg" width="24" height="24" fill="none" viewBox="0 0 24 24">
    <path fill="currentColor" d="M12 11.16V3c0-1.105.904-2.019 1.99-1.82C19.115 2.116 23 6.604 23 12l-.015.566C22.691 18.378 17.885 23 12 23v-2a9 9 0 0 0 2-17.777v7.936c0 1.067-.426 2.09-1.184 2.84l-5.645 5.597A8.95 8.95 0 0 0 12 21v2l-.437-.009a10.94 10.94 0 0 1-5.85-1.964h-.001c-.905-.633-.891-1.916-.108-2.693l5.804-5.754a2 2 0 0 0 .582-1.222zm-4-.834v-6.39A9 9 0 0 0 3.455 14.83zm1.99.2a2 2 0 0 1-.582 1.22l-4.795 4.755c-.86.852-2.278.744-2.787-.32l-.046-.105A11 11 0 0 1 1 12C1 7.449 3.764 3.543 7.705 1.87 8.855 1.382 10 2.333 10 3.582v6.744z"/>
</svg>
