<svg width="24" height="24" viewBox="0 0 24 24" fill="none" xmlns="http://www.w3.org/2000/svg">
  <path
    d="M23 12.0001C23 18.0752 18.0751 23.0001 12 23.0001C9.66213 23.0001 7.49463 22.2708 5.71257 21.0272C4.80701 20.3953 4.82073 19.1114 5.60485 18.3339L11.4081 12.5798C11.7869 12.2043 12 11.693 12 11.1596L12 3.00006C12 1.8955 12.9033 0.981061 13.9899 1.1796C19.1151 2.11608 23 6.6044 23 12.0001Z"
    fill="currentColor" />
  <path
    d="M9.99998 10.3262C9.99998 10.8596 9.78692 11.3709 9.40816 11.7464L4.61327 16.5007C3.72573 17.3807 2.24322 17.2369 1.77986 16.076C1.27671 14.8155 1 13.4401 1 12.0001C1 7.4489 3.76396 3.54327 7.70489 1.8702C8.85483 1.38201 9.99998 2.33303 9.99998 3.5823V10.3262Z"
    fill="currentColor" />
</svg>
