<svg xmlns="http://www.w3.org/2000/svg" width="24" height="24" fill="none" viewBox="0 0 24 24">
    <path fill="currentColor" fill-rule="evenodd" d="M23 7a3 3 0 0 0-3-3H4a3 3 0 0 0-3 3v10a3 3 0 0 0 3 3h16a3 3 0 0 0 3-3zm-9 1a1 1 0 0 1 1-1h4a1 1 0 1 1 0 2h-4a1 1 0 0 1-1-1m0 4a1 1 0 0 1 1-1h4a1 1 0 1 1 0 2h-4a1 1 0 0 1-1-1M7.293 7.707a1 1 0 0 1 1.414 0l3 3a1 1 0 0 1 .293.707V16a1 1 0 0 1-1 1h-1a1 1 0 0 1-1-1v-1a1 1 0 1 0-2 0v1a1 1 0 0 1-1 1H5a1 1 0 0 1-1-1v-4.586a1 1 0 0 1 .293-.707z" clip-rule="evenodd"/>
</svg>
