<svg width="24" height="24" viewBox="0 0 24 24" fill="none" xmlns="http://www.w3.org/2000/svg">
  <path
    d="M17.625 1H6.375C5.47989 1 4.62145 1.31607 3.98851 1.87868C3.35558 2.44129 3 3.20435 3 4V21C3.00178 21.5299 3.23941 22.0377 3.66098 22.4125C4.08255 22.7872 4.65381 22.9984 5.25 23C5.65953 23.004 6.06173 22.9033 6.40875 22.71L8.625 21.53L10.8413 22.71C11.1901 22.8997 11.5911 23 12 23C12.4089 23 12.8099 22.8997 13.1587 22.71L15.375 21.53L17.5912 22.71C17.9383 22.9033 18.3405 23.004 18.75 23C19.3462 22.9984 19.9175 22.7872 20.339 22.4125C20.7606 22.0377 20.9982 21.5299 21 21V4C21 3.20435 20.6444 2.44129 20.0115 1.87868C19.3786 1.31607 18.5201 1 17.625 1ZM13.375 14H8.625C8.32663 14 8.04048 13.8946 7.8295 13.7071C7.61853 13.5196 7.5 13.2652 7.5 13C7.5 12.7348 7.61853 12.4804 7.8295 12.2929C8.04048 12.1054 8.32663 12 8.625 12H13.375C13.6734 12 13.9595 12.1054 14.1705 12.2929C14.3815 12.4804 14.5 12.7348 14.5 13C14.5 13.2652 14.3815 13.5196 14.1705 13.7071C13.9595 13.8946 13.6734 14 13.375 14ZM15.375 10H8.625C8.32663 10 8.04048 9.89464 7.8295 9.70711C7.61853 9.51957 7.5 9.26522 7.5 9C7.5 8.73478 7.61853 8.48043 7.8295 8.29289C8.04048 8.10536 8.32663 8 8.625 8H15.375C15.6734 8 15.9595 8.10536 16.1705 8.29289C16.3815 8.48043 16.5 8.73478 16.5 9C16.5 9.26522 16.3815 9.51957 16.1705 9.70711C15.9595 9.89464 15.6734 10 15.375 10Z"
    fill="currentColor" />
</svg>
