<svg width="52" height="24" viewBox="0 0 52 24" fill="none" xmlns="http://www.w3.org/2000/svg">
    <path fill-rule="evenodd" clip-rule="evenodd" d="M4.493 9.159c1.24 0 2.262-.412 2.425-1.529a3.16 3.16 0 0 0-.008-1.094c-.166-.805-1.099-1.285-1.898-1.696-.59-.305-1.109-.572-1.188-.904a.858.858 0 0 1-.008-.351c.049-.216.198-.446.627-.446a.599.599 0 0 1 .462.159.568.568 0 0 1 .176.446v.415h1.712v-.475C6.793 2.23 5.45 2 4.48 2c-1.221 0-2.217.394-2.399 1.487a2.25 2.25 0 0 0 .015.9c.17.782 1.04 1.245 1.82 1.66.584.312 1.118.596 1.269.966.053.16.058.331.013.494-.055.223-.21.446-.668.446-.429 0-.688-.241-.688-.605v-.645H1.994v.515c0 1.49 1.21 1.94 2.5 1.94zm37.199-1.7h.038l-.093-5.246h1.698v6.616h-2.443L39.2 3.4h-.037l.095 5.428h-1.688V2.213h2.547l1.576 5.246zm-39.68 5.752H4.53c.344.001.684.068 1 .197.318.128.606.317.849.554.242.237.434.519.565.828a2.494 2.494 0 0 1-.004 1.952c-.132.309-.325.59-.569.826a2.622 2.622 0 0 1-.85.55 2.676 2.676 0 0 1-1.002.193H3.385v2.046H2.012V13.21zm1.365 3.866h1.046v.001a1.382 1.382 0 0 0 .985-.37 1.288 1.288 0 0 0 0-1.894 1.356 1.356 0 0 0-.985-.369H3.377v2.632zm8.1-2.364c.325.139.616.345.852.604v-.684h1.363v5.72h-1.356v-.743a2.435 2.435 0 0 1-.855.642c-.33.15-.69.225-1.054.22-1.422 0-2.9-1.103-2.9-2.973 0-1.898 1.427-2.985 2.915-2.985.355-.007.708.06 1.034.2zm-1.86 4.28c.306.186.663.28 1.025.268 1.005 0 1.758-.792 1.758-1.784a1.74 1.74 0 0 0-.318-.987 1.81 1.81 0 0 0-.828-.647 1.863 1.863 0 0 0-1.058-.085c-.354.075-.677.25-.927.505a1.73 1.73 0 0 0-.349 1.95c.147.32.39.593.697.78zm7.697-.507-1.637-3.856h-1.446l2.41 5.443L15.407 23h1.376l3.506-8.37h-1.427l-1.547 3.856zm-6.45-15.653.038-.002.916 6.066h1.841l-1.263-6.684H9.344L8.072 8.897h1.854l.938-6.064zm7.999 4.491.847-5.111h2.796l.151 6.684h-1.716l-.043-6.01-.038.002-1.146 6.008h-1.74l-1.146-6.01h-.037l-.044 6.01H15.03l.151-6.684h2.798l.846 5.111h.038zm7.268-3.718a.813.813 0 0 0 .008.346c.082.33.592.593 1.175.894.791.409 1.715.886 1.881 1.689.066.358.068.724.008 1.083-.162 1.107-1.172 1.514-2.402 1.514-1.275 0-2.468-.446-2.467-1.933v-.507h1.817v.648c0 .356.258.595.684.595.451 0 .605-.226.66-.446A.84.84 0 0 0 27.483 7c-.148-.368-.675-.65-1.253-.958-.77-.41-1.63-.87-1.798-1.644a2.206 2.206 0 0 1-.017-.892c.18-1.08 1.167-1.467 2.374-1.467.96 0 2.289.224 2.289 1.666v.458h-1.695v-.409a.55.55 0 0 0-.176-.438.58.58 0 0 0-.456-.156c-.424 0-.57.233-.62.446zm9.526-1.393h-1.736v4.945a1.36 1.36 0 0 1-.017.255.593.593 0 0 1-.232.367.622.622 0 0 1-.425.118.622.622 0 0 1-.426-.118.593.593 0 0 1-.232-.367 1.245 1.245 0 0 1-.017-.255V2.213h-1.74v4.793c0 .122.008.373.014.438.121 1.248 1.133 1.652 2.394 1.652 1.262 0 2.274-.404 2.393-1.652.008-.065.02-.316.018-.438l.006-4.793zM47.57 6.118v-.974l2.43.008v1.784c-.002.13-.005.223-.025.446-.115 1.218-1.196 1.652-2.412 1.652-1.217 0-2.3-.434-2.414-1.652a4.26 4.26 0 0 1-.023-.446V4.129c0-.125.015-.335.029-.446.152-1.241 1.191-1.658 2.407-1.658 1.217 0 2.282.399 2.408 1.652.014.148.02.297.017.446v.223h-1.73v-.375c-.001-.085-.008-.17-.022-.254-.032-.147-.161-.485-.686-.485-.5 0-.646.32-.684.485-.02.105-.029.21-.027.317v3.055c-.002.085.003.17.015.254.034.179.206.485.702.485.497 0 .67-.306.702-.486.013-.084.018-.168.015-.253v-.97h-.702z" fill="#000"/>
</svg>
