<svg xmlns="http://www.w3.org/2000/svg" width="16" height="16" fill="none" viewBox="0 0 16 16">
    <path fill="currentColor" d="M7.948 10.775q-.675.242-1.44.242-1.89 0-3.199-1.309Q2 8.398 2 6.508q0-1.89 1.31-3.199Q4.618 2 6.508 2q1.89 0 3.2 1.31 1.308 1.309 1.308 3.199a4.23 4.23 0 0 1-.901 2.636L14 13.029l-.971.971-3.884-3.884a4.1 4.1 0 0 1-1.197.659M6.508 9.63a3 3 0 0 0 2.212-.91 3 3 0 0 0 .91-2.211 3 3 0 0 0-.91-2.211 3 3 0 0 0-2.211-.91 3 3 0 0 0-2.211.91 3 3 0 0 0-.91 2.21q0 1.302.91 2.212a3 3 0 0 0 2.21.91"/>
</svg>
