<svg xmlns="http://www.w3.org/2000/svg" width="24" height="24" fill="none" viewBox="0 0 24 24"><path fill="currentColor" d="M16 9.5a6 6 0 1 1 0 12 6 6 0 0 1 0-12M12 2c.429 0 .842.138 1.184.388l.141.113.009.008c1.423 1.28 3.373 2.191 4.791 2.191.443 0 .866.158 1.2.439l.136.128.123.14c.27.338.416.76.416 1.193V8a1 1 0 1 1-2 0V6.695c-2.05-.047-4.389-1.25-5.995-2.691L12 4l-.005.004v-.001C10.396 5.435 8.05 6.647 6 6.695v6.203c0 1.553.405 2.76 1.059 3.726.66.977 1.612 1.76 2.774 2.4a1 1 0 0 1-.966 1.752c-1.356-.747-2.58-1.725-3.465-3.032C4.511 16.427 4 14.825 4 12.898V6.6c0-.495.19-.975.54-1.333l.136-.128A1.86 1.86 0 0 1 5.875 4.7l.271-.01c1.389-.106 3.194-.99 4.521-2.181l.008-.008A2 2 0 0 1 12 2m4 9.5a4 4 0 1 0 0 8 4 4 0 0 0 0-8m0 1.333a1 1 0 0 1 1 1v1.278l.863.541a1 1 0 1 1-1.06 1.696l-1.333-.833a1 1 0 0 1-.47-.848v-1.834a1 1 0 0 1 1-1"/></svg>