<svg xmlns="http://www.w3.org/2000/svg" width="24" height="24" fill="none" viewBox="0 0 24 24">
    <path fill="currentColor" d="M18 6.695c-2.05-.047-4.389-1.25-5.995-2.691L12 4l-.005.004v-.001C10.396 5.435 8.05 6.647 6 6.695v6.203c0 1.995.668 3.435 1.713 4.536 1.064 1.12 2.566 1.935 4.303 2.555 1.722-.623 3.214-1.437 4.272-2.553C17.332 16.334 18 14.893 18 12.898zm-4.092 2.807a1 1 0 0 1 1.434 1.394l-3.5 3.6a1 1 0 0 1-1.434 0l-1.75-1.8a1 1 0 0 1 1.434-1.394l1.033 1.062zM20 12.898c0 2.505-.864 4.44-2.26 5.913-1.372 1.448-3.211 2.404-5.105 3.083l-.008.003a1.85 1.85 0 0 1-1.25-.012c-1.9-.674-3.742-1.628-5.115-3.075C4.863 17.338 4 15.404 4 12.899V6.6c0-.495.19-.975.54-1.333l.136-.128A1.86 1.86 0 0 1 5.875 4.7l.271-.01c1.389-.106 3.194-.99 4.521-2.181l.008-.008a2.01 2.01 0 0 1 2.509-.113l.141.113.009.008c1.423 1.28 3.373 2.191 4.791 2.191.443 0 .866.158 1.2.439l.136.128.123.14c.27.338.416.76.416 1.193z"/>
</svg>
