<svg xmlns="http://www.w3.org/2000/svg" width="24" height="24" fill="none" viewBox="0 0 24 24">
    <path fill="currentColor" d="M17 5a1.01 1.01 0 0 0-.77.36l-6.3 7.16-2.22-2.23A1.01 1.01 0 0 0 7 10a1 1 0 0 0-1 1c0 .265.104.52.29.71l3 3a1.01 1.01 0 0 0 1.48-.07l7-8A1 1 0 0 0 17 5m0 0a1.01 1.01 0 0 0-.77.36l-6.3 7.16-2.22-2.23A1.01 1.01 0 0 0 7 10a1 1 0 0 0-1 1c0 .265.104.52.29.71l3 3a1.01 1.01 0 0 0 1.48-.07l7-8A1 1 0 0 0 17 5m0 0a1.01 1.01 0 0 0-.77.36l-6.3 7.16-2.22-2.23A1.01 1.01 0 0 0 7 10a1 1 0 0 0-1 1c0 .265.104.52.29.71l3 3a1.01 1.01 0 0 0 1.48-.07l7-8A1 1 0 0 0 17 5M5 1a3 3 0 0 0-3 3v6c0 7 6.67 11.57 9.12 12.79a1.95 1.95 0 0 0 1.76 0C15.33 21.57 22 17 22 10V4a3 3 0 0 0-3-3zm15 9c0 6.93-7.93 10.96-7.99 11C11.93 20.96 4 16.93 4 10V4a1 1 0 0 1 1-1h14a1 1 0 0 1 1 1zM9.29 14.71a1.01 1.01 0 0 0 1.48-.07l7-8a1 1 0 1 0-1.54-1.28l-6.3 7.16-2.22-2.23A1.01 1.01 0 0 0 7 10a1 1 0 0 0-1 1c0 .265.104.52.29.71zM17 5a1.01 1.01 0 0 0-.77.36l-6.3 7.16-2.22-2.23A1.01 1.01 0 0 0 7 10a1 1 0 0 0-1 1c0 .265.104.52.29.71l3 3a1.01 1.01 0 0 0 1.48-.07l7-8A1 1 0 0 0 17 5"/>
</svg>
