<svg xmlns="http://www.w3.org/2000/svg" width="24" height="24" fill="none" viewBox="0 0 24 24">
    <path fill="currentColor" d="M19 12c0-.453-.36-.8-.777-.8H5.777A.79.79 0 0 0 5 12v7.2c0 .454.36.8.777.8h12.446a.79.79 0 0 0 .777-.8zm-7 3.5c-.073 0-.111.056-.111.1 0 .043.038.1.111.1a.11.11 0 0 0 .104-.066l.007-.034-.007-.034A.11.11 0 0 0 12 15.5m1.889.1c0 1.037-.834 1.9-1.889 1.9-.99 0-1.784-.758-1.879-1.708l-.01-.192.01-.193c.096-.95.89-1.707 1.879-1.707l.195.01c.96.099 1.694.917 1.694 1.89m1.555-8.1c0-.932-.365-1.824-1.012-2.48A3.42 3.42 0 0 0 12 4c-.91 0-1.785.365-2.432 1.02A3.53 3.53 0 0 0 8.556 7.5v1.7h6.888zm2 1.7h.779C19.768 9.2 21 10.466 21 12v7.2c0 1.535-1.232 2.8-2.777 2.8H5.777C4.232 22 3 20.735 3 19.2V12c0-1.534 1.232-2.8 2.777-2.8h.779V7.5c0-1.455.57-2.852 1.59-3.885A5.42 5.42 0 0 1 12 2c1.448 0 2.834.582 3.855 1.615a5.53 5.53 0 0 1 1.59 3.885z"/>
</svg>
