<svg xmlns="http://www.w3.org/2000/svg" width="16" height="16" fill="none" viewBox="0 0 16 16">
    <path fill="currentColor" d="M13.608 1.06a1.05 1.05 0 0 1 .973.15l.112.097.097.112q.09.12.142.258l.042.143.022.147c.012.143-.009.287-.056.424h.001l-4.07 11.9a1.05 1.05 0 0 1-1.968.05L6.912 9.375l-.049-.092a.5.5 0 0 0-.238-.195l-4.966-1.99v-.002a1.05 1.05 0 0 1-.66-1l.007-.08a1.05 1.05 0 0 1 .703-.887h.001l11.898-4.07m-5.35 7.722q.011.021.02.042l.002.002 1.566 3.908 2.879-8.417zM3.267 6.153 7.174 7.72h-.001l.043.02 4.467-4.466z"/>
</svg>
