<svg xmlns="http://www.w3.org/2000/svg" width="24" height="24" fill="none" viewBox="0 0 24 24">
    <path fill="currentColor" d="M13.792 12.8c.742 0 1.454.295 1.979.82.232.232.416.503.552.795l.947-.827a2.81 2.81 0 0 1 1.966-.757 2.812 2.812 0 0 1 2.53 3.936c-.147.338-.359.645-.624.902l-.02.017-3.21 2.946C17.07 21.56 15.902 22 14.69 22h-3.596c-1.234 0-2.421-.454-3.266-1.417v.001l-1.136-1.278A1.9 1.9 0 0 1 4.8 21.1H3a1 1 0 1 1 0-2h1.698v-4.3H3a1 1 0 1 1 0-2zm-7.094 4.5h.035c.201 0 .401.032.591.095l.188.073.178.092q.261.151.462.379l1.171 1.317.005.006c.414.473 1.024.738 1.766.738h3.596c.742 0 1.352-.265 1.766-.738a1 1 0 0 1 .077-.078l3.223-2.958a.816.816 0 0 0 .015-1.147.813.813 0 0 0-1.184.014l-2.723 2.383q-.044.053-.094.104a2.8 2.8 0 0 1-1.978.82h-1.799a1 1 0 0 1 0-2h1.799a.8.8 0 0 0 .474-.158q.055-.071.126-.135l.048-.043a.8.8 0 0 0-.648-1.264H6.698zM11.993 2c.543 0 .983.432.998.97a7.29 7.29 0 0 1 6.227 6.231 1 1 0 0 1-.03 2H4.797a1 1 0 0 1-.031-2 7.292 7.292 0 0 1 6.227-6.23 1 1 0 0 1 1-.971m0 2.9a5.29 5.29 0 0 0-5.2 4.3h10.4a5.293 5.293 0 0 0-5.2-4.3"/>
</svg>
