<svg xmlns="http://www.w3.org/2000/svg" width="24" height="24" fill="none" viewBox="0 0 24 24">
    <path fill="currentColor" d="M20.504 12a2.99 2.99 0 0 1 1.1-2.32 1.03 1.03 0 0 0 .37-1.08 11 11 0 0 0-2.311-3.98.98.98 0 0 0-1.09-.22 2.94 2.94 0 0 1-2.57-.2 3.02 3.02 0 0 1-1.46-2.13.985.985 0 0 0-.74-.83 11.15 11.15 0 0 0-4.6 0 .98.98 0 0 0-.741.83A3.02 3.02 0 0 1 7.004 4.2a2.94 2.94 0 0 1-2.562.2.98.98 0 0 0-1.09.22A11 11 0 0 0 1.038 8.6a1.03 1.03 0 0 0 .366 1.08 3 3 0 0 1 0 4.64 1.03 1.03 0 0 0-.37 1.08 11 11 0 0 0 2.31 3.98.98.98 0 0 0 1.09.22 2.94 2.94 0 0 1 2.564.2 3.02 3.02 0 0 1 1.46 2.13.98.98 0 0 0 .74.83c1.517.32 3.084.32 4.6 0a.985.985 0 0 0 .742-.83 3.02 3.02 0 0 1 2.722-2.525 2.94 2.94 0 0 1 1.304.195.98.98 0 0 0 1.09-.22 11 11 0 0 0 2.31-3.98 1.03 1.03 0 0 0-.37-1.08A2.99 2.99 0 0 1 20.505 12m-.661 3.4a8.6 8.6 0 0 1-1.23 2.12 5 5 0 0 0-1.111-.12 4.97 4.97 0 0 0-4.763 3.52q-.615.077-1.235.08a9 9 0 0 1-1.231-.09A4.97 4.97 0 0 0 5.51 17.4a5 5 0 0 0-1.111.12 8.8 8.8 0 0 1-1.23-2.12 4.97 4.97 0 0 0 1.34-3.4 4.95 4.95 0 0 0-1.34-3.4 8.6 8.6 0 0 1 1.235-2.12 5.07 5.07 0 0 0 3.61-.55 5 5 0 0 0 2.262-2.85q.611-.077 1.228-.08.619 0 1.23.09a5 5 0 0 0 2.262 2.84 5.02 5.02 0 0 0 3.608.55 8.8 8.8 0 0 1 1.23 2.12 4.98 4.98 0 0 0 0 6.8zm-8.34-5.4a2 2 0 1 1 0 4 2 2 0 0 1 0-4m0-2a4 4 0 1 0 0 8 4 4 0 0 0 0-8"/>
</svg>
