<svg xmlns="http://www.w3.org/2000/svg" width="24" height="24" fill="none" viewBox="0 0 24 24">
    <path fill="currentColor" d="M13.68 12c0-.953-.761-1.71-1.68-1.71s-1.68.757-1.68 1.71.761 1.71 1.68 1.71 1.68-.757 1.68-1.71m5.557 0a1.13 1.13 0 0 0 .366.832l.102.082.008.006a3.12 3.12 0 0 1 1.218 1.877c.16.754.039 1.543-.343 2.212a3.1 3.1 0 0 1-1.732 1.413 3.07 3.07 0 0 1-2.227-.13l-.009-.004a1.07 1.07 0 0 0-.998.044c-.151.088-.28.213-.376.364a1.1 1.1 0 0 0-.169.503v.007a3.13 3.13 0 0 1-.994 2.01A3.08 3.08 0 0 1 12 22.03a3.07 3.07 0 0 1-2.082-.815 3.13 3.13 0 0 1-.994-2.01v-.007a1.1 1.1 0 0 0-.17-.504 1.074 1.074 0 0 0-1.375-.409l-.008.006c-.7.321-1.495.368-2.227.13a3.1 3.1 0 0 1-1.732-1.413 3.15 3.15 0 0 1-.343-2.212 3.12 3.12 0 0 1 1.218-1.877l.008-.006c.143-.102.261-.238.343-.397a1.13 1.13 0 0 0 0-1.034c-.082-.16-.2-.295-.343-.397l-.009-.006A3.12 3.12 0 0 1 3.07 9.203a3.15 3.15 0 0 1 .344-2.211 3.1 3.1 0 0 1 1.73-1.412c.64-.208 1.328-.2 1.959.02l.266.108.01.004a1.07 1.07 0 0 0 .998-.044 1.11 1.11 0 0 0 .545-.867q.005-.06.016-.116a3.13 3.13 0 0 1 .98-1.9A3.07 3.07 0 0 1 12 1.968c.772 0 1.515.292 2.083.815a3.13 3.13 0 0 1 .954 1.724l.04.287V4.8c.016.18.074.352.17.503a1.074 1.074 0 0 0 1.374.408l.008-.004a3.07 3.07 0 0 1 2.227-.13c.733.238 1.35.743 1.732 1.413s.503 1.458.343 2.212a3.12 3.12 0 0 1-1.218 1.877l-.008.006a1.1 1.1 0 0 0-.343.397 1.14 1.14 0 0 0-.125.517"/>
</svg>
