<svg xmlns="http://www.w3.org/2000/svg" width="24" height="24" fill="none" viewBox="0 0 24 24">
    <path fill="currentColor" d="M17.125 22.25A2.9 2.9 0 0 1 15 21.375a2.9 2.9 0 0 1-.875-2.125q0-.15.075-.7l-7.025-4.1a2.97 2.97 0 0 1-2.05.8A2.9 2.9 0 0 1 3 14.375a2.9 2.9 0 0 1-.875-2.125q0-1.25.875-2.125a2.9 2.9 0 0 1 2.125-.875 2.97 2.97 0 0 1 2.05.8l7.025-4.1a1.7 1.7 0 0 1-.062-.338 5 5 0 0 1-.013-.362q0-1.25.875-2.125a2.9 2.9 0 0 1 2.125-.875q1.25 0 2.125.875t.875 2.125-.875 2.125a2.9 2.9 0 0 1-2.125.875 2.97 2.97 0 0 1-2.05-.8l-7.025 4.1q.05.176.063.337.012.164.012.363 0 .2-.012.363-.014.162-.063.337l7.025 4.1a2.97 2.97 0 0 1 2.05-.8q1.25 0 2.125.875t.875 2.125-.875 2.125a2.9 2.9 0 0 1-2.125.875m0-2q.424 0 .712-.288a.97.97 0 0 0 .288-.712.97.97 0 0 0-.288-.712.97.97 0 0 0-.712-.288.97.97 0 0 0-.712.288.97.97 0 0 0-.288.712q0 .424.288.712.287.288.712.288m-12-7q.424 0 .713-.287a.97.97 0 0 0 .287-.713.97.97 0 0 0-.287-.713.97.97 0 0 0-.713-.287.97.97 0 0 0-.713.287.97.97 0 0 0-.287.713q0 .424.287.713.288.287.713.287m12.712-7.287a.97.97 0 0 0 .288-.713.97.97 0 0 0-.288-.713.97.97 0 0 0-.712-.287.97.97 0 0 0-.712.287.97.97 0 0 0-.288.713q0 .424.288.713.287.287.712.287.424 0 .712-.287"/>
</svg>
