<svg xmlns="http://www.w3.org/2000/svg" width="16" height="16" fill="none" viewBox="0 0 16 16">
    <path fill="currentColor" d="M12.333 15a2.12 2.12 0 0 1-1.534-.613 2 2 0 0 1-.632-1.487q0-.105.054-.49L5.147 9.54a2.2 2.2 0 0 1-.668.411q-.379.15-.812.149a2.12 2.12 0 0 1-1.535-.612A2 2 0 0 1 1.5 8q0-.876.632-1.487A2.12 2.12 0 0 1 3.667 5.9q.434 0 .812.149.38.149.668.411l5.074-2.87a1.2 1.2 0 0 1-.045-.236 3 3 0 0 1-.01-.254q0-.875.633-1.487A2.12 2.12 0 0 1 12.333 1q.903 0 1.535.613.632.612.632 1.487t-.632 1.488a2.12 2.12 0 0 1-1.535.612q-.434 0-.812-.149a2.2 2.2 0 0 1-.668-.411L5.779 7.51q.037.123.045.236a3 3 0 0 1 0 .508 1.2 1.2 0 0 1-.045.236l5.074 2.87q.288-.263.668-.411.379-.15.812-.149.903 0 1.535.612.632.614.632 1.488 0 .875-.632 1.487a2.12 2.12 0 0 1-1.535.613m0-1.4a.7.7 0 0 0 .515-.201.67.67 0 0 0 .208-.499.67.67 0 0 0-.208-.499.7.7 0 0 0-.515-.201.7.7 0 0 0-.514.201.67.67 0 0 0-.208.499q0 .298.208.499a.7.7 0 0 0 .514.201M3.667 8.7a.7.7 0 0 0 .514-.201A.67.67 0 0 0 4.39 8a.67.67 0 0 0-.208-.499.7.7 0 0 0-.514-.201.7.7 0 0 0-.515.201.67.67 0 0 0-.208.499q0 .297.208.499a.7.7 0 0 0 .515.201m9.18-5.101a.67.67 0 0 0 .209-.499.67.67 0 0 0-.208-.499.7.7 0 0 0-.515-.201.7.7 0 0 0-.514.201.67.67 0 0 0-.208.499q0 .297.208.499a.7.7 0 0 0 .514.201.7.7 0 0 0 .515-.201"/>
</svg>
