<svg xmlns="http://www.w3.org/2000/svg" width="24" height="24" fill="none" viewBox="0 0 24 24">
    <path fill="currentColor" d="M8.154 18.416a1.834 1.834 0 1 1-.002 3.668 1.834 1.834 0 0 1 .002-3.668m10.083 0a1.834 1.834 0 1 1-.002 3.668 1.834 1.834 0 0 1 .002-3.668M4.533 2c.472 0 .88.33.979.791l.811 3.792H21.07a1.002 1.002 0 0 1 .977 1.217l-1.513 6.811a2.83 2.83 0 0 1-2.762 2.222H8.806v-.001a2.83 2.83 0 0 1-2.75-1.999l-.062-.238-1.456-6.796-.005-.025L3.725 4H1.7V2zM7.95 14.175a.835.835 0 0 0 .834.659l.023-.001h8.963a.834.834 0 0 0 .812-.654v-.001l1.242-5.595H6.752z"/>
</svg>
