<svg xmlns="http://www.w3.org/2000/svg" width="24" height="24" fill="none" viewBox="0 0 24 24">
    <path fill="currentColor" d="M4 19.2V4.8c0-.734.283-1.443.796-1.97A2.73 2.73 0 0 1 6.75 2h7.15c.739 0 1.441.302 1.954.83l3.35 3.445c.513.527.796 1.237.796 1.97V19.2c0 .734-.284 1.443-.796 1.97a2.73 2.73 0 0 1-1.954.83H6.75c-.738 0-1.44-.302-1.954-.83A2.83 2.83 0 0 1 4 19.2m9-2.8h1.5v-1.6H13zm-3.5 0H11v-1.6H9.5zm0-3.6h5v-1.6h-5zm7 3.7c0 1.023-.813 1.9-1.875 1.9h-5.25c-1.062 0-1.875-.877-1.875-1.9v-5.4c0-1.023.813-1.9 1.875-1.9h5.25c1.062 0 1.875.877 1.875 1.9zM6 19.2c0 .221.086.427.23.575.142.147.33.225.52.225h10.5c.19 0 .378-.078.52-.225A.83.83 0 0 0 18 19.2V8.245a.83.83 0 0 0-.23-.575l-3.35-3.445a.74.74 0 0 0-.379-.21L13.901 4H6.75a.73.73 0 0 0-.52.225A.83.83 0 0 0 6 4.8z"/>
</svg>
