<svg width="24" height="24" viewBox="0 0 24 24" fill="none" xmlns="http://www.w3.org/2000/svg">
    <path d="m11.433 10.691-.248 1.441c-.108.585-.41.975-1.027.975-.707 0-.894-.512-.738-1.232.22-1.022.934-1.326 2.013-1.184Zm1.114-2.06-.752.055-.238 1.412c-.288-.012-.378-.023-.716-.023-1.058 0-1.982.52-2.226 1.737-.22 1.098.314 1.95 1.48 1.95 1.194 0 1.713-.727 1.9-1.75l.552-3.381Zm-8.16 2.122c-1.102-.117-2.05-.01-2.066.426-.024.656 1.818.084 1.782 1.29-.052 1.773-2.612 1.365-3.246 1.14l.115-.526c1.093.202 2.245.219 2.27-.484.027-.747-1.822-.076-1.778-1.286.032-.9 1.188-1.387 3.08-1.063l-.156.503Zm2.974 1.206c-.159.74-.662 1.204-1.26 1.204-.627 0-.909-.423-.74-1.204.158-.74.667-1.237 1.266-1.237.598 0 .894.497.734 1.237Zm-.637-1.843c-1.097 0-1.979.74-2.196 1.843-.217 1.103.374 1.843 1.47 1.843s1.978-.74 2.195-1.843c.217-1.103-.373-1.843-1.47-1.843Zm12.67 3.667h-.952c-.579-.634-1.684-2.091-2.499-3.633h.7c.773 1.245 2.752 3.633 2.752 3.633Zm1-7.216.438-1.067.126 1.085.894-.366-.625.935.678.613L21 7.85l-.05 1.128-.503-.834-.739.795.277-1.12-.872-.138.849-.564-.348-.966.78.417Zm1.859 5.403c-.162.752-.673 1.223-1.281 1.223-.636 0-.923-.43-.752-1.223.162-.752.679-1.256 1.287-1.256.608 0 .908.504.746 1.256Zm-.648-1.872c-1.114 0-2.01.752-2.23 1.872-.22 1.12.38 1.872 1.493 1.872 1.114 0 2.01-.752 2.23-1.872.22-1.12-.38-1.872-1.493-1.872" fill="#2B3797"/>
    <path d="M15.221 13.473c1.8-1.167 3.364-2.96 4.474-4.51-.798 2.913-2.718 4.48-4.474 4.51Z" fill="#ED1C24"/>
    <path d="M14.508 10.656c.345 0 .532.146.532.425 0 .741-1.237.692-1.783.563.192-.555.626-.988 1.25-.988Zm1.274.385c0-.537-.367-.932-1.2-.932-1.35 0-2.227 1.023-2.227 2.289 0 .817.582 1.496 1.644 1.496.732 0 1.221-.42 1.221-.42-.931.116-2.075 0-2.075-1.163 0-.046.002-.093.005-.139 1.271.308 2.632-.064 2.632-1.131" fill="#2B3797"/>
</svg>
