<svg width="32" height="25" viewBox="0 0 32 25" fill="none" xmlns="http://www.w3.org/2000/svg">
<g clip-path="url(#clip0_11532_2893)">
<rect x="0.5" y="1" width="31" height="23" rx="3.5" fill="white" stroke="#CCCCCC"/>
</g>
<path d="M15.3383 11.1912L15.0498 12.6325C14.9227 13.2168 14.5706 13.6069 13.8516 13.6069C13.0263 13.6069 12.8085 13.095 12.9896 12.3747C13.2458 11.353 14.0793 11.0487 15.3383 11.1912ZM16.6381 9.13064L15.7605 9.18649L15.4831 10.5978C15.1476 10.586 15.0421 10.5753 14.6476 10.5753C13.4129 10.5753 12.3353 11.0943 12.0505 12.3118C11.794 13.4095 12.4176 14.2614 13.7774 14.2614C15.1703 14.2614 15.7763 13.5347 15.9942 12.5129L16.6381 9.13064ZM7.11927 11.2527C5.83267 11.1355 4.72585 11.2423 4.70789 11.6792C4.68007 12.3351 6.8284 11.7628 6.78696 12.9695C6.72658 14.7423 3.7392 14.3344 3 14.1089L3.13418 13.5826C4.40874 13.7849 5.75335 13.8016 5.78275 13.0988C5.81432 12.3517 3.65711 13.0232 3.70763 11.8133C3.74532 10.9121 5.09367 10.4261 7.30061 10.7503L7.11927 11.2527ZM10.5883 12.4586C10.4026 13.1986 9.81578 13.6633 9.11704 13.6633C8.38632 13.6633 8.05757 13.2398 8.25352 12.4586C8.4394 11.7186 9.03297 11.2219 9.73152 11.2219C10.4297 11.2219 10.774 11.7186 10.5883 12.4586ZM9.8442 10.6161C8.56471 10.6161 7.53622 11.3561 7.28325 12.4586C7.02968 13.5617 7.71875 14.3017 8.99765 14.3017C10.2765 14.3017 11.3054 13.5617 11.5584 12.4586C11.812 11.3563 11.1233 10.6161 9.8442 10.6161ZM24.6272 14.2829H23.515C22.8406 13.6489 21.5504 12.1918 20.6005 10.6499H21.4166C22.3186 11.8946 24.6272 14.2829 24.6272 14.2829ZM25.7926 7.06677L26.3045 6L26.4505 7.08453L27.4938 6.71947L26.7647 7.65442L27.5556 8.26713L26.5 8.34862L26.4418 9.47656L25.855 8.64304L24.9926 9.43828L25.3159 8.31764L24.2986 8.17971L25.2886 7.61574L24.8825 6.6504L25.7926 7.06677ZM27.9615 12.4699C27.7728 13.2215 27.1769 13.6935 26.4673 13.6935C25.7253 13.6935 25.3908 13.2633 25.5902 12.4699C25.7788 11.7182 26.3816 11.2137 27.091 11.2137C27.801 11.2137 28.1505 11.7182 27.9615 12.4699ZM27.2057 10.5976C25.9063 10.5976 24.8618 11.3498 24.6043 12.4699C24.347 13.5901 25.0467 14.3419 26.3459 14.3419C27.6453 14.3419 28.6902 13.5901 28.9471 12.4699C29.2046 11.3498 28.5051 10.5976 27.2055 10.5976" fill="#2B3797"/>
<path d="M19.7578 13.9733C21.8584 12.8065 23.6831 11.0135 24.9772 9.4635C24.0468 12.3757 21.8071 13.9429 19.7578 13.9733Z" fill="#ED1C24"/>
<path d="M18.9256 11.1564C19.3279 11.1564 19.547 11.3025 19.547 11.5815C19.547 12.3221 18.1033 12.2731 17.4665 12.1435C17.6905 11.589 18.1962 11.1564 18.9256 11.1564ZM20.4122 11.5412C20.4122 11.0041 19.9842 10.6094 19.0132 10.6094C17.4381 10.6094 16.4147 11.6318 16.4147 12.8975C16.4147 13.7148 17.0934 14.3942 18.3328 14.3942C19.1868 14.3942 19.7571 13.9733 19.7571 13.9733C18.6702 14.0897 17.3355 13.9733 17.3355 12.8107C17.3355 12.7645 17.338 12.7183 17.3418 12.6723C18.8247 12.9802 20.4122 12.6076 20.4122 11.541" fill="#2B3797"/>
<defs>
<clipPath id="clip0_11532_2893">
<rect y="0.5" width="32" height="24" rx="4" fill="white"/>
</clipPath>
</defs>
</svg>
