<svg width="24" height="24" viewBox="0 0 24 24" fill="none" xmlns="http://www.w3.org/2000/svg">
  <path
    d="M11.7071 15.2929C12.0976 15.6834 12.0976 16.3166 11.7071 16.7071L7.70711 20.7071C7.51957 20.8946 7.26522 21 7 21C6.73478 21 6.48043 20.8946 6.29289 20.7071L2.29289 16.7071C1.90237 16.3166 1.90237 15.6834 2.29289 15.2929C2.68342 14.9024 3.31658 14.9024 3.70711 15.2929L6 17.5858L6 4C6 3.44772 6.44772 3 7 3C7.55228 3 8 3.44772 8 4L8 17.5858L10.2929 15.2929C10.6834 14.9024 11.3166 14.9024 11.7071 15.2929Z"
    fill="currentColor" />
  <path
    d="M12.2929 8.70711C11.9024 8.31658 11.9024 7.68342 12.2929 7.29289L16.2929 3.29289C16.4804 3.10536 16.7348 3 17 3C17.2652 3 17.5196 3.10536 17.7071 3.29289L21.7071 7.29289C22.0976 7.68342 22.0976 8.31658 21.7071 8.70711C21.3166 9.09763 20.6834 9.09763 20.2929 8.70711L18 6.41421L18 20C18 20.5523 17.5523 21 17 21C16.4477 21 16 20.5523 16 20L16 6.41421L13.7071 8.70711C13.3166 9.09763 12.6834 9.09763 12.2929 8.70711Z"
    fill="currentColor" />
</svg>
