<svg width="16" height="16" viewBox="0 0 16 16" fill="none" xmlns="http://www.w3.org/2000/svg">
  <path
    d="M12.0002 0C12.2841 0 12.5403 0.118293 12.7223 0.308275L15.7073 3.29302C16.0978 3.68354 16.0978 4.3167 15.7073 4.70724C15.3168 5.09777 14.6836 5.09779 14.2931 4.70728L13.0002 3.41444V14.9999C13.0002 15.5522 12.5525 15.9999 12.0002 15.9999C11.4479 15.9999 11.0002 15.5522 11.0002 14.9999V3.41447L9.70716 4.70757C9.31664 5.09811 8.68348 5.09813 8.29294 4.70761C7.90241 4.3171 7.90239 3.68394 8.2929 3.2934L11.2824 0.303724C11.4641 0.116405 11.7186 0 12.0002 0Z"
    fill="currentColor" />
  <path
    d="M4 16C3.71612 16 3.45986 15.8817 3.27784 15.6917L0.292915 12.707C-0.0976227 12.3165 -0.0976398 11.6833 0.292873 11.2928C0.683385 10.9022 1.31655 10.9022 1.70709 11.2927L3 12.5856L3 1.00007C3 0.447785 3.44772 7.01739e-05 4 7.02222e-05C4.55229 7.02705e-05 5 0.447786 5 1.00007L5 12.5855L6.29302 11.2924C6.68354 10.9019 7.3167 10.9019 7.70724 11.2924C8.09777 11.6829 8.09779 12.3161 7.70728 12.7066L4.71778 15.6963C4.53603 15.8836 4.28161 16 4 16Z"
    fill="currentColor" />
</svg>
