<svg xmlns="http://www.w3.org/2000/svg" width="16" height="16" fill="none" viewBox="0 0 16 16">
    <path fill="currentColor" d="M3.734 12.799a.533.533 0 1 0-1.067 0 .533.533 0 0 0 1.067 0m3.7-6.852a1.87 1.87 0 0 1-1.487 1.488L2.957 8l2.99.565a1.87 1.87 0 0 1 1.488 1.488L8 13.042l.565-2.99a1.87 1.87 0 0 1 1.488-1.487L13.042 8l-2.99-.565a1.87 1.87 0 0 1-1.487-1.488L8 2.957zm5.951 1.988h.002zM12.132 4.4v-.533H11.6a.667.667 0 0 1 0-1.334h.533v-.533a.667.667 0 0 1 1.333 0v.533H14a.667.667 0 0 1 0 1.334h-.534V4.4a.667.667 0 0 1-1.333 0m-7.064 8.398a1.867 1.867 0 1 1-3.734 0 1.867 1.867 0 0 1 3.734 0m9.599-4.8a1.27 1.27 0 0 1-1.034 1.245h.001l-3.334.63a.53.53 0 0 0-.404.349l-.021.077-.63 3.334a1.267 1.267 0 0 1-2.49 0l-.63-3.334a.53.53 0 0 0-.348-.404L5.7 9.875l-3.334-.63a1.266 1.266 0 0 1 0-2.49l3.334-.63.077-.02a.53.53 0 0 0 .348-.405l.63-3.334a1.266 1.266 0 0 1 1.966-.807l.088.067.082.074c.182.18.306.412.354.666l.63 3.334.02.077a.53.53 0 0 0 .405.348l3.334.63A1.27 1.27 0 0 1 14.666 8"/>
</svg>
