<svg xmlns="http://www.w3.org/2000/svg" width="16" height="16" viewBox="0 0 16 16" fill="none">
  <path fill="currentColor" d="M4.4 1.68a.68.68 0 0 0-1.35 0c0 .82-.09 1.32-.27 1.62-.13.22-.38.43-1.1.43a.68.68 0 1 0 0 1.36c.72 0 .97.21 1.1.43.18.3.27.8.27 1.62a.68.68 0 0 0 1.36 0c0-.82.08-1.33.26-1.62.13-.22.38-.43 1.1-.43a.68.68 0 1 0 0-1.36c-.72 0-.97-.21-1.1-.43-.18-.3-.26-.8-.26-1.62ZM11.23 1.68a.68.68 0 0 0-1.37 0c0 2.05-.18 3.59-.76 4.6-.28.5-.65.87-1.16 1.12-.52.26-1.22.42-2.17.42a.68.68 0 1 0 0 1.36c.95 0 1.65.16 2.17.42.5.25.88.62 1.16 1.11.58 1.02.76 2.56.76 4.6a.68.68 0 1 0 1.37 0c0-2.04.18-3.58.76-4.6.28-.49.65-.86 1.16-1.11a4.81 4.81 0 0 1 2.17-.42.68.68 0 0 0 0-1.36c-.95 0-1.65-.16-2.17-.42A2.69 2.69 0 0 1 12 6.29c-.58-1.02-.76-2.56-.76-4.6ZM6.11 11.23a.68.68 0 1 0-1.36 0c0 .6-.07.93-.19 1.1-.07.1-.23.26-.83.26a.68.68 0 0 0 0 1.36c.6 0 .76.17.83.27.12.17.19.49.19 1.1a.68.68 0 0 0 1.36 0c0-.61.07-.93.19-1.1.07-.1.23-.27.84-.27a.68.68 0 1 0 0-1.36c-.6 0-.77-.16-.84-.26-.12-.17-.19-.5-.19-1.1Z"/>
</svg>
