<svg xmlns="http://www.w3.org/2000/svg" width="24" height="24" fill="none" viewBox="0 0 24 24">
    <path fill="currentColor" d="M5.602 19.198a.8.8 0 1 0-1.6 0 .8.8 0 0 0 1.6 0m5.55-10.277a2.8 2.8 0 0 1-2.231 2.231L4.437 12l4.484.848a2.8 2.8 0 0 1 2.231 2.231L12 19.562l.848-4.483a2.8 2.8 0 0 1 2.231-2.231L19.562 12l-4.483-.848a2.8 2.8 0 0 1-2.231-2.231L12 4.437zm8.926 2.981h.004zm-1.88-5.3v-.8h-.8a1 1 0 0 1 0-2h.8v-.8a1 1 0 0 1 2 0v.8h.8a1 1 0 0 1 0 2h-.8v.8a1 1 0 0 1-2 0M7.602 19.198a2.8 2.8 0 1 1-5.6 0 2.8 2.8 0 0 1 5.6 0M22 12a1.9 1.9 0 0 1-1.55 1.866l.001.001-5 .945a.8.8 0 0 0-.607.522l-.031.116-.946 5.001a1.9 1.9 0 0 1-3.734 0l-.945-5a.8.8 0 0 0-.522-.607l-.116-.031-5.001-.946a1.9 1.9 0 0 1 0-3.734l5-.945.117-.032a.8.8 0 0 0 .521-.606l.946-5.001a1.9 1.9 0 0 1 2.949-1.211l.132.1.123.112a1.9 1.9 0 0 1 .53.999l.945 5 .032.117a.8.8 0 0 0 .606.521l5.001.946A1.9 1.9 0 0 1 22 12"/>
</svg>
