<svg xmlns="http://www.w3.org/2000/svg" width="24" height="24" viewBox="0 0 24 24" fill="none">>
  <path fill="currentColor" d="M6 2a1 1 0 0 0-2 0c0 1.2-.12 1.94-.389 2.378C3.42 4.69 3.058 5 2 5a1 1 0 0 0 0 2c1.058 0 1.42.31 1.611.622C3.88 8.06 4 8.8 4 10a1 1 0 1 0 2 0c0-1.2.12-1.94.389-2.378C6.58 7.31 6.942 7 8 7a1 1 0 0 0 0-2c-1.058 0-1.42-.31-1.611-.622C6.12 3.94 6 3.2 6 2ZM16 2a1 1 0 1 0-2 0c0 3.003-.263 5.257-1.118 6.754-.41.717-.957 1.26-1.704 1.633-.761.38-1.785.613-3.178.613a1 1 0 0 0 0 2c1.393 0 2.417.233 3.178.613.747.374 1.294.916 1.704 1.633C13.737 16.743 14 18.997 14 22a1 1 0 1 0 2 0c0-3.003.263-5.257 1.118-6.754.41-.717.957-1.259 1.704-1.633.761-.38 1.785-.613 3.178-.613a1 1 0 1 0 0-2c-1.393 0-2.417-.232-3.178-.613-.747-.374-1.294-.916-1.704-1.633C16.263 7.257 16 5.003 16 2ZM8.5 16a1 1 0 1 0-2 0c0 .894-.103 1.363-.273 1.613-.102.15-.341.387-1.227.387a1 1 0 1 0 0 2c.886 0 1.125.238 1.227.387.17.25.273.719.273 1.613a1 1 0 1 0 2 0c0-.894.103-1.363.273-1.613.102-.15.341-.387 1.227-.387a1 1 0 1 0 0-2c-.886 0-1.125-.238-1.227-.387-.17-.25-.273-.719-.273-1.613Z"/>
</svg>