<svg xmlns="http://www.w3.org/2000/svg" width="32" height="24" fill="none" viewBox="0 0 32 24">
    <rect width="32" height="24" fill="#fff" rx="4"/>
    <rect width="31" height="23" x=".5" y=".5" fill="#fff" stroke="#ccc" rx="3.5"/>
    <path fill="currentColor" d="M17.313 12.978a15.9 15.9 0 0 1 3.937 2.954v-1.307a.875.875 0 0 1 1.75 0v3.5c0 .247-.103.47-.268.629l-.005.006-.015.012a.9.9 0 0 1-.274.169l-.017.006a1 1 0 0 1-.171.043q-.017.003-.035.006h-.025l-.065.004h-3.5a.875.875 0 0 1 0-1.75h1.465a14.1 14.1 0 0 0-5.058-3.398 18 18 0 0 0 2.28-.875M22.174 5.002h.016l.025.002.035.005a1 1 0 0 1 .17.043l.018.006a.9.9 0 0 1 .274.17l.015.012.005.005c.165.16.268.383.268.63v3.5a.875.875 0 0 1-1.75 0V8.067a15.86 15.86 0 0 1-11.375 4.808.875.875 0 0 1 0-1.75c3.86 0 7.552-1.582 10.215-4.375h-1.465a.875.875 0 0 1 0-1.75h3.5z"/>
</svg>
