<svg xmlns="http://www.w3.org/2000/svg" width="32" height="24" fill="none" viewBox="0 0 32 24">
    <rect width="31" height="23" x=".5" y=".5" fill="#fff" stroke="#ccc" rx="3.5"/>
    <path stroke="#000" stroke-linecap="round" stroke-width="2" d="M9 12v0c4.704 0 9.2 1.934 12.436 5.35L23 19"/>
    <rect width="6" height="2" x="24" y="14" fill="#000" rx="1" transform="rotate(90 24 14)"/>
    <rect width="6" height="2" x="18" y="18" fill="#000" rx="1"/>
    <path fill="#fff" stroke="#fff" stroke-linecap="round" stroke-width="4" d="M22.274 4.313a1 1 0 1 1 1.452 1.375l-1.564 1.651A18.13 18.13 0 0 1 9 13a1 1 0 0 1 0-2 16.13 16.13 0 0 0 11.71-5.037z"/>
    <rect width="6" height="2" x="18" y="4" fill="#000" rx="1"/>
    <rect width="6" height="2" x="22" y="10" fill="#000" rx="1" transform="rotate(-90 22 10)"/>
    <path stroke="#000" stroke-linecap="round" stroke-width="2" d="M9 12v0c4.704 0 9.2-1.934 12.436-5.35L23 5"/>
</svg>
