<svg width="24" height="24" viewBox="0 0 24 24" fill="none" xmlns="http://www.w3.org/2000/svg">
  <path fill-rule="evenodd" clip-rule="evenodd"
    d="M1 4C1 2.34315 2.34315 1 4 1H20C21.6569 1 23 2.34315 23 4V7.19707L22.3438 6.66706C21.0658 5.63484 19.1864 5.81904 18.1371 7.09157L8.6822 18.5576C8.33959 18.9731 8.11681 19.4717 8.03505 20H4C2.34315 20 1 18.6569 1 17V4ZM5 6.25C5.69036 6.25 6.25 5.69036 6.25 5C6.25 4.30964 5.69036 3.75 5 3.75C4.30964 3.75 3.75 4.30964 3.75 5C3.75 5.69036 4.30964 6.25 5 6.25ZM10.25 5C10.25 5.69036 9.69036 6.25 9 6.25C8.30964 6.25 7.75 5.69036 7.75 5C7.75 4.30964 8.30964 3.75 9 3.75C9.69036 3.75 10.25 4.30964 10.25 5ZM13 6.25C13.6904 6.25 14.25 5.69036 14.25 5C14.25 4.30964 13.6904 3.75 13 3.75C12.3096 3.75 11.75 4.30964 11.75 5C11.75 5.69036 12.3096 6.25 13 6.25Z"
    fill="currentColor" />
  <path
    d="M23 10.1489C22.9759 9.89423 22.8527 9.64892 22.6366 9.47445L21.0871 8.22296C20.7218 7.92791 20.2092 7.93078 19.8498 8.20144C19.7883 8.24781 19.7312 8.30204 19.6801 8.36397L18.5559 9.72727L21.6549 12.2302L22.7791 10.8669C22.8225 10.8144 22.8595 10.7587 22.8902 10.7009C22.8944 10.693 22.8985 10.685 22.9024 10.677C22.9036 10.6746 22.9048 10.6722 22.906 10.6698C22.958 10.5629 22.9891 10.4493 23 10.3346C23.0059 10.2728 23.0058 10.2105 23 10.1489Z"
    fill="currentColor" />
  <path d="M23 17V13.7428L17.8403 20H20C21.6569 20 23 18.6569 23 17Z" fill="currentColor" />
  <path
    d="M20.4669 13.671L13.3243 22.333C13.1773 22.5112 12.9722 22.6332 12.7443 22.678L11.2039 22.9807C10.5878 23.1018 10.0128 22.6374 10.0091 22.0157L10 20.4615C9.99907 20.2999 10.0381 20.1416 10.1123 20C10.1438 19.94 10.1815 19.883 10.2252 19.83L17.3679 11.1681L20.4669 13.671Z"
    fill="currentColor" />
</svg>
