<svg xmlns="http://www.w3.org/2000/svg" width="24" height="24" fill="none" viewBox="0 0 24 24">
    <path fill="currentColor" d="M19.182 8a2.819 2.819 0 0 1 1.993 4.81l-7.726 7.727c-.322.322-.72.558-1.157.686l-2.463.72a1.428 1.428 0 0 1-1.771-1.771v-.001l.72-2.463v-.001c.128-.437.364-.835.686-1.156l7.725-7.726A2.82 2.82 0 0 1 19.182 8M18 4a3 3 0 0 1 3 3h-2a1 1 0 0 0-1-1H5a1 1 0 0 0-1 1v10a1 1 0 0 0 1 1h1v2H5a3 3 0 0 1-3-3V7a3 3 0 0 1 3-3zm1.182 6a.82.82 0 0 0-.578.24l-7.726 7.726h-.001a.7.7 0 0 0-.18.303l-.427 1.46 1.46-.426a.7.7 0 0 0 .305-.18l7.726-7.727A.818.818 0 0 0 19.18 10M6 7a1 1 0 1 1 0 2 1 1 0 0 1 0-2m3 0a1 1 0 1 1 0 2 1 1 0 0 1 0-2m3 0a1 1 0 1 1 0 2 1 1 0 0 1 0-2"/>
    <path fill="currentColor" d="M19.182 8a2.819 2.819 0 0 1 1.993 4.81l-7.726 7.727c-.322.322-.72.558-1.157.686l-2.463.72a1.428 1.428 0 0 1-1.771-1.771v-.001l.72-2.463v-.001c.128-.437.364-.835.686-1.156l7.725-7.726A2.82 2.82 0 0 1 19.182 8M18 4a3 3 0 0 1 3 3h-2a1 1 0 0 0-1-1H5a1 1 0 0 0-1 1v10a1 1 0 0 0 1 1h1v2H5a3 3 0 0 1-3-3V7a3 3 0 0 1 3-3zm1.182 6a.82.82 0 0 0-.578.24l-7.726 7.726h-.001a.7.7 0 0 0-.18.303l-.427 1.46 1.46-.426a.7.7 0 0 0 .305-.18l7.726-7.727A.818.818 0 0 0 19.18 10M6 7a1 1 0 1 1 0 2 1 1 0 0 1 0-2m3 0a1 1 0 1 1 0 2 1 1 0 0 1 0-2m3 0a1 1 0 1 1 0 2 1 1 0 0 1 0-2"/>
    <path fill="currentColor" d="M19.182 8a2.819 2.819 0 0 1 1.993 4.81l-7.726 7.727c-.322.322-.72.558-1.157.686l-2.463.72a1.428 1.428 0 0 1-1.771-1.771v-.001l.72-2.463v-.001c.128-.437.364-.835.686-1.156l7.725-7.726A2.82 2.82 0 0 1 19.182 8M18 4a3 3 0 0 1 3 3h-2a1 1 0 0 0-1-1H5a1 1 0 0 0-1 1v10a1 1 0 0 0 1 1h1v2H5a3 3 0 0 1-3-3V7a3 3 0 0 1 3-3zm1.182 6a.82.82 0 0 0-.578.24l-7.726 7.726h-.001a.7.7 0 0 0-.18.303l-.427 1.46 1.46-.426a.7.7 0 0 0 .305-.18l7.726-7.727A.818.818 0 0 0 19.18 10M6 7a1 1 0 1 1 0 2 1 1 0 0 1 0-2m3 0a1 1 0 1 1 0 2 1 1 0 0 1 0-2m3 0a1 1 0 1 1 0 2 1 1 0 0 1 0-2"/>
    <path fill="currentColor" d="M19.182 8a2.819 2.819 0 0 1 1.993 4.81l-7.726 7.727c-.322.322-.72.558-1.157.686l-2.463.72a1.428 1.428 0 0 1-1.771-1.771v-.001l.72-2.463v-.001c.128-.437.364-.835.686-1.156l7.725-7.726A2.82 2.82 0 0 1 19.182 8M18 4a3 3 0 0 1 3 3h-2a1 1 0 0 0-1-1H5a1 1 0 0 0-1 1v10a1 1 0 0 0 1 1h1v2H5a3 3 0 0 1-3-3V7a3 3 0 0 1 3-3zm1.182 6a.82.82 0 0 0-.578.24l-7.726 7.726h-.001a.7.7 0 0 0-.18.303l-.427 1.46 1.46-.426a.7.7 0 0 0 .305-.18l7.726-7.727A.818.818 0 0 0 19.18 10M6 7a1 1 0 1 1 0 2 1 1 0 0 1 0-2m3 0a1 1 0 1 1 0 2 1 1 0 0 1 0-2m3 0a1 1 0 1 1 0 2 1 1 0 0 1 0-2"/>
</svg>
