<svg xmlns="http://www.w3.org/2000/svg" width="24" height="24" fill="none" viewBox="0 0 24 24">
    <path fill="currentColor" fill-rule="evenodd" d="M1.817 9.95a2.98 2.98 0 0 0 0 4.1c.631.657.922 1.587.784 2.503-.24 1.581.799 3.066 2.322 3.318.883.146 1.645.72 2.051 1.546.702 1.426 2.383 1.993 3.759 1.267a2.7 2.7 0 0 1 2.534 0c1.376.726 3.057.159 3.759-1.267a2.8 2.8 0 0 1 2.05-1.546c1.524-.252 2.563-1.737 2.323-3.318a2.97 2.97 0 0 1 .784-2.502 2.98 2.98 0 0 0 0-4.102 2.97 2.97 0 0 1-.784-2.502c.24-1.581-.799-3.066-2.322-3.318a2.8 2.8 0 0 1-2.051-1.546c-.702-1.426-2.383-1.993-3.759-1.267-.796.42-1.738.42-2.534 0C9.357.59 7.676 1.157 6.974 2.583a2.8 2.8 0 0 1-2.05 1.546C3.4 4.381 2.36 5.866 2.6 7.447a2.97 2.97 0 0 1-.784 2.502m5.476 5.375a1 1 0 1 0 1.414 1.414l8.032-8.032a1 1 0 0 0-1.414-1.414zM10.5 8.75a1.75 1.75 0 1 1-3.5 0 1.75 1.75 0 0 1 3.5 0M15.25 17a1.75 1.75 0 1 0 0-3.5 1.75 1.75 0 0 0 0 3.5" clip-rule="evenodd"/>
</svg>
