<svg xmlns="http://www.w3.org/2000/svg" width="95" height="24" fill="none" viewBox="0 0 95 24">
    <path fill="currentColor" d="M70.824 5.016c-.756 0-1.303.548-1.303 1.305v8.334c0 2.639 1.912 4.555 4.547 4.555 2.633 0 4.545-1.916 4.545-4.555V6.32c0-.757-.547-1.305-1.302-1.305s-1.302.548-1.302 1.305v8.483c0 1.11-.799 1.885-1.941 1.885-1.144 0-1.943-.776-1.943-1.885V6.32c0-.757-.547-1.305-1.301-1.305m-28.367 0c-.756 0-1.302.548-1.302 1.305v8.334c0 2.639 1.911 4.555 4.546 4.555 2.634 0 4.546-1.916 4.546-4.555V6.32c0-.757-.547-1.305-1.303-1.305-.754 0-1.301.548-1.301 1.305v8.483c0 1.11-.799 1.885-1.942 1.885-1.144 0-1.943-.776-1.943-1.885V6.32c0-.757-.546-1.305-1.3-1.305m38.305 18.511h2.604l-.002-5.143c.394.485 1.411.826 2.266.826 2.076 0 4.224-1.707 4.224-4.54V9.455c0-2.643-1.912-4.664-4.546-4.664s-4.546 2.021-4.546 4.66zm4.546-6.838c-1.144 0-1.942-.76-1.942-1.869V9.298c0-1.105.798-1.99 1.942-1.99s1.942.885 1.942 1.99v5.522c0 1.11-.799 1.869-1.942 1.869M67.373 9.34v9.613H64.77V9.186c0-1.089-.715-1.879-1.797-1.879-1.088 0-1.781.76-1.789 1.85v9.797h-2.599V9.158c-.007-1.09-.7-1.85-1.788-1.85-1.082 0-1.797.79-1.797 1.878v9.768h-2.604V9.341c0-2.64 1.81-4.551 4.401-4.551 1.077 0 2.522.647 3.088 1.53.566-.883 2.011-1.53 3.088-1.53 2.59 0 4.4 1.911 4.4 4.55M19.447 0a4.507 4.507 0 0 1 4.502 4.512v14.976A4.507 4.507 0 0 1 19.446 24H4.502A4.507 4.507 0 0 1 0 19.488V4.512A4.507 4.507 0 0 1 4.502 0zM7.292 17.855a5.38 5.38 0 0 0 7.632 0 5.43 5.43 0 0 0 0-7.662zm9.364-11.71a5.38 5.38 0 0 0-7.632 0 5.433 5.433 0 0 0 0 7.663zm13.496 8.73c.152 4.115 3.946 4.335 4.71 4.335 2.11 0 4.38-1.315 4.38-4.182 0-1.978-.996-3.296-2.96-3.917l-.46-.151c-1.82-.6-2.837-.938-2.837-2.338 0-.873.676-1.438 1.72-1.438 1.204 0 1.533.63 1.799 1.135.096.187.19.379.356.515.355.294.874.334 1.302.2.618-.193.923-.712.816-1.39-.333-1.655-2.163-2.854-4.352-2.854-3.157 0-4.29 2.184-4.301 4.058-.013 2.636 1.92 3.669 3.072 4.05.236.078.452.15.657.215 1.903.618 2.611.848 2.611 2.088 0 .792-.476 1.64-1.807 1.64-1.28 0-2.085-.734-2.17-1.966zM93.028 4.79c1.09 0 1.972.885 1.972 1.975s-.883 1.976-1.972 1.976a1.975 1.975 0 0 1-1.971-1.976c0-1.09.883-1.975 1.971-1.975m0 .478a1.497 1.497 0 0 0 0 2.995 1.497 1.497 0 0 0 0-2.995m.058.478c.398 0 .656.232.656.59 0 .28-.18.482-.458.531h.001l.389.407c.057.057.088.115.088.183s-.06.203-.229.203c-.11 0-.148-.04-.208-.107l-.547-.667h-.01v.542c0 .154-.09.232-.22.232-.129 0-.218-.078-.218-.232V5.96c0-.136.1-.214.219-.214zm-.31.407v.415h.289v.001c.139 0 .23-.098.23-.213 0-.125-.1-.203-.23-.203z"/>
</svg>
