<svg xmlns="http://www.w3.org/2000/svg" width="24" height="24" fill="none" viewBox="0 0 24 24">
    <path fill="currentColor" d="M19.2 5a2.77 2.77 0 0 1 1.99.848 2.9 2.9 0 0 1 .81 2.01v1.856a1 1 0 0 1-1 1c-.44 0-.87.181-1.191.513-.323.332-.51.79-.51 1.273s.187.94.51 1.273c.321.332.75.513 1.191.513a1 1 0 0 1 1 1v1.857a2.9 2.9 0 0 1-.81 2.01A2.77 2.77 0 0 1 19.2 20H4.8a2.77 2.77 0 0 1-1.99-.848 2.9 2.9 0 0 1-.81-2.01v-1.856a1 1 0 0 1 1-1c.44 0 .87-.181 1.191-.513.323-.332.51-.79.51-1.273s-.187-.94-.51-1.273A1.66 1.66 0 0 0 3 10.714a1 1 0 0 1-1-1V7.857c0-.747.288-1.471.81-2.01A2.77 2.77 0 0 1 4.8 5zm-3.522 9.286c-.753 0-1.363.448-1.363 1s.61 1 1.363 1h.011c.753 0 1.363-.448 1.364-1 0-.552-.611-1-1.364-1zm.947-5.29c-.54-.384-1.403-.374-1.927.023l-7.357 5.57c-.524.397-.51 1.03.03 1.415.54.384 1.403.374 1.927-.023l7.358-5.57c.524-.397.51-1.03-.031-1.415m-8.306-.282c-.752 0-1.363.448-1.363 1s.61 1 1.363 1h.012c.753 0 1.362-.448 1.362-1s-.61-1-1.362-1z"/>
</svg>
