<svg xmlns="http://www.w3.org/2000/svg" width="32" height="32" fill="none" viewBox="0 0 32 32">
    <path fill="currentColor" d="M29.976 0H2.31C1.034 0 0 1.02 0 2.282v27.437C0 30.979 1.034 32 2.31 32h27.665c1.276 0 2.31-1.02 2.31-2.282V2.282A2.303 2.303 0 0 0 29.976 0m-9.701 24.089c-2.816 2.798-7.322 2.924-10.287.367-.011-.012-.034-.023-.046-.046a.467.467 0 0 1-.011-.654l10.01-9.929a.47.47 0 0 1 .656.012 7.455 7.455 0 0 1-.322 10.25m2.08-15.857-10.01 9.93a.47.47 0 0 1-.656-.012 7.43 7.43 0 0 1 .322-10.239C14.827 5.114 19.332 5 22.298 7.544c.011.012.034.023.046.046a.45.45 0 0 1 .011.642"/>
</svg>
