<svg xmlns="http://www.w3.org/2000/svg" width="24" height="24" fill="none" viewBox="0 0 24 24">
    <path fill="currentColor" d="M11 21v-2.8h2V21a1 1 0 1 1-2 0m-2.68-3.906L6.353 19.06l-.006.007-.002.001a1.001 1.001 0 1 1-1.414-1.414v-.002l.007-.005 1.968-1.968zm10.75.562a1 1 0 0 1-1.414 1.414l-1.976-1.976 1.414-1.414zM14.6 12a2.6 2.6 0 1 0-5.2 0 2.6 2.6 0 0 0 5.2 0m-8.8-1v2H3a1 1 0 1 1 0-2zM21 11a1 1 0 1 1 0 2h-2.8v-2zM4.93 4.93a1 1 0 0 1 1.414 0L8.32 6.906 6.906 8.32 4.93 6.344a1 1 0 0 1 0-1.414m12.726 0a1 1 0 0 1 1.414 1.414L17.094 8.32 15.68 6.906zM11 3a1 1 0 1 1 2 0v2.8h-2zm5.6 9a4.6 4.6 0 1 1-9.2 0 4.6 4.6 0 0 1 9.2 0"/>
</svg>
