<svg width="24" height="24" viewBox="0 0 24 24" fill="none" xmlns="http://www.w3.org/2000/svg">
    <path d="M11.95 6c-1.57 0-3.14.65-4.22 1.78a5.93 5.93 0 0 0 .05 8.44 5.89 5.89 0 0 0 8.43 0A5.98 5.98 0 0 0 18 12c0-1.57-.65-3.14-1.73-4.22A6.33 6.33 0 0 0 11.95 6ZM11.99 1.5c-.4 0-.79.16-1.06.45a1.48 1.48 0 0 0 .02 2.1c.28.29.66.45 1.05.45.4 0 .78-.16 1.05-.45a1.5 1.5 0 0 0 .02-2.1c-.3-.29-.7-.45-1.08-.45ZM11.99 19.5c-.4 0-.79.16-1.06.45a1.48 1.48 0 0 0 .02 2.1c.28.29.66.45 1.05.45.4 0 .78-.16 1.05-.45a1.5 1.5 0 0 0 .02-2.1c-.3-.29-.7-.45-1.08-.45ZM1.5 12.01c0 .4.16.79.45 1.06a1.48 1.48 0 0 0 2.1-.02c.29-.28.45-.66.45-1.05 0-.4-.16-.78-.45-1.05a1.5 1.5 0 0 0-2.1-.02c-.29.3-.45.7-.45 1.08ZM19.5 12.01c0 .4.16.79.45 1.06a1.48 1.48 0 0 0 2.1-.02c.29-.28.45-.66.45-1.05 0-.4-.16-.78-.45-1.05a1.5 1.5 0 0 0-2.1-.02c-.29.3-.45.7-.45 1.08ZM4.57 4.58c-.28.28-.44.67-.43 1.07a1.48 1.48 0 0 0 1.5 1.48 1.47 1.47 0 0 0 1.5-1.5 1.5 1.5 0 0 0-1.5-1.5c-.4.02-.8.18-1.07.45ZM17.3 17.31a1.48 1.48 0 0 0 1.07 2.54 1.47 1.47 0 0 0 1.5-1.5 1.5 1.5 0 0 0-1.5-1.49c-.4.01-.8.18-1.08.45ZM4.58 19.43c.28.28.67.44 1.07.43a1.48 1.48 0 0 0 1.48-1.5 1.47 1.47 0 0 0-1.5-1.5 1.5 1.5 0 0 0-1.5 1.5c.02.4.18.8.45 1.07ZM17.31 6.7a1.48 1.48 0 0 0 2.54-1.07 1.47 1.47 0 0 0-1.5-1.5 1.5 1.5 0 0 0-1.49 1.5c.01.4.18.8.45 1.08Z" fill="currentColor"/>
</svg>
