<svg xmlns="http://www.w3.org/2000/svg" width="16" height="16" fill="none" viewBox="0 0 16 16">
    <path fill="currentColor" d="M9.362 5.671q0-.566-.409-.908t-1.085-.342q-.416 0-.754.165t-.582.48a.88.88 0 0 1-.624.348.87.87 0 0 1-.683-.19.6.6 0 0 1-.222-.421.7.7 0 0 1 .136-.474 3.1 3.1 0 0 1 1.17-.98A3.5 3.5 0 0 1 7.87 3q1.393 0 2.262.724.87.723.869 1.894 0 .592-.273 1.066T9.722 7.803q-.532.46-.719.717a1.4 1.4 0 0 0-.244.585.9.9 0 0 1-.294.527.83.83 0 0 1-.568.21.84.84 0 0 1-.567-.204.64.64 0 0 1-.237-.506q0-.514.244-.941.245-.428.819-.902.732-.592.97-.914.236-.323.236-.704M7.868 13a1.16 1.16 0 0 1-.811-.31.97.97 0 0 1-.338-.743q0-.434.338-.743a1.16 1.16 0 0 1 .811-.31q.474 0 .812.31a.97.97 0 0 1 .338.743q0 .435-.338.744a1.16 1.16 0 0 1-.812.309"/>
</svg>
