<svg xmlns="http://www.w3.org/2000/svg" width="24" height="24" fill="none" viewBox="0 0 24 24">
    <path fill="currentColor" d="M14.044 8.274q0-.906-.614-1.453-.615-.547-1.627-.547-.625 0-1.132.263a2.5 2.5 0 0 0-.872.768 1.3 1.3 0 0 1-.938.558 1.25 1.25 0 0 1-1.023-.305 1 1 0 0 1-.334-.674 1.17 1.17 0 0 1 .205-.758 4.8 4.8 0 0 1 1.756-1.568A4.97 4.97 0 0 1 11.803 4q2.09 0 3.393 1.158 1.305 1.158 1.304 3.031 0 .947-.41 1.706-.408.757-1.508 1.79-.797.735-1.077 1.147a2.3 2.3 0 0 0-.366.936 1.47 1.47 0 0 1-.442.842q-.355.337-.851.337-.495 0-.851-.326a1.06 1.06 0 0 1-.356-.81q0-.822.366-1.506.367-.684 1.229-1.442 1.098-.947 1.454-1.463t.356-1.126M11.803 20a1.68 1.68 0 0 1-1.218-.495 1.6 1.6 0 0 1-.506-1.19q0-.694.506-1.189a1.68 1.68 0 0 1 1.218-.494q.711 0 1.217.494.506.495.506 1.19t-.506 1.19a1.68 1.68 0 0 1-1.217.494"/>
</svg>
