<svg xmlns="http://www.w3.org/2000/svg" width="44" height="24" fill="none" viewBox="0 0 44 24">
    <path fill="#000" fill-rule="evenodd" d="M26.48 7.33c.7 0 1.28-.47 1.28-1.16 0-.64-.56-1.17-1.28-1.17-.75 0-1.27.51-1.27 1.17 0 .7.55 1.16 1.27 1.16ZM8.04 17c1.95 0 3.57-.85 3.57-2.75 0-1.58-1.4-2.21-3.38-2.6-.09 0-.18-.03-.28-.04l-.3-.06-.06-.01c-.66-.14-1.35-.36-1.35-.96 0-.62.69-.86 1.34-.86.92 0 1.63.41 1.84 1.3l1.84-.5C10.8 8.9 9.33 8.1 7.6 8.1c-1.76 0-3.34.74-3.34 2.56 0 1.76 1.42 2.18 2.91 2.49l.1.02.1.02.14.03c1.09.22 2.05.53 2.05 1.18 0 .74-.81.98-1.53.98-1.01 0-1.8-.47-2.08-1.42L4 14.47C4.49 16.27 6.3 17 8.04 17Zm19.47-8.72v8.66h-2.07V8.28h2.07ZM21.31 17c.59 0 1.66-.23 2.16-1.7a9.05 9.05 0 0 0 .36-2.7v-.22l.01-.08c.07-1.08.2-2.04.6-2.04V8.28c-.62 0-1.74.23-2.26 1.76-.24.76-.3 1.7-.36 2.59v.09l-.01.05-.06.8v.08l-.01.07c-.07.67-.2 1.31-.45 1.31-.23 0-.38-.55-.46-1.16l-.01-.07-.03-.18v-.07l-.01-.07c-.04-.3-.06-.58-.07-.8-.04-.9-.1-1.9-.37-2.66-.49-1.5-1.59-1.74-2.2-1.74-.62 0-1.69.23-2.2 1.74-.24.76-.3 1.76-.35 2.65 0 .23-.03.51-.06.8v.08c-.08.73-.23 1.48-.52 1.48-.29 0-.46-.7-.56-1.38l-.01-.08-.01-.07a10.5 10.5 0 0 1-.08-.83 118 118 0 0 1-.07-4.39h-2v.46c0 1.5 0 2.58.07 3.93.06 1.18.24 2.08.43 2.6C13.16 16.43 13.92 17 15 17c1.07 0 1.92-.67 2.22-1.73a12.57 12.57 0 0 0 .38-2.85l.06-.75v-.07c.08-.67.2-1.33.47-1.33.25 0 .38.6.46 1.23v.07l.01.07.01.07.06.84v.13c.06.9.1 1.83.36 2.6.5 1.5 1.64 1.72 2.25 1.72h.02Zm9.28-4.46c0 1.39.29 2.27 1.02 3.25L29.94 17a6.85 6.85 0 0 1-1.42-4.46V5.23h2.07v7.3ZM35.85 17a3.98 3.98 0 0 0 3.83-2.53l-1.9-.5c-.29.74-.95 1.21-1.88 1.21-1.16 0-2.2-.87-2.25-2.24h6.32c.25-2.58-1.28-4.84-4.13-4.84-2.54 0-4.24 1.94-4.24 4.44C31.6 15 33.3 17 35.85 17Zm-.03-7.22c-1.06 0-1.95.67-2.15 1.64h4.3c-.16-.88-1.02-1.64-2.15-1.64Z" clip-rule="evenodd"/>
</svg>
