<svg xmlns="http://www.w3.org/2000/svg" width="32" height="24" fill="none" viewBox="0 0 32 24">
    <rect width="31" height="23" x=".5" y=".5" fill="#fff" stroke="#ccc" rx="3.5"/>
    <path fill="#000" fill-rule="evenodd" d="M18.99 9.554c.46 0 .847-.313.847-.777 0-.424-.367-.777-.847-.777-.5 0-.848.343-.848.777 0 .474.368.777.848.777M6.696 16c1.297 0 2.38-.565 2.38-1.836 0-1.05-.93-1.473-2.257-1.725l-.187-.035-.196-.037-.041-.009c-.442-.09-.904-.236-.904-.635 0-.414.46-.575.899-.575.612 0 1.082.272 1.225.867l1.226-.333c-.317-1.09-1.287-1.614-2.441-1.614-1.174 0-2.226.494-2.226 1.705 0 1.173.945 1.456 1.94 1.66l.064.013.064.013.097.019c.725.151 1.368.353 1.368.787 0 .494-.541.656-1.021.656-.674 0-1.195-.313-1.389-.949L4 14.315C4.327 15.515 5.532 16 6.696 16m12.978-5.81v5.77h-1.379v-5.77zM15.541 16c.391-.003 1.104-.152 1.438-1.13.163-.504.204-.948.235-1.755l.003-.055.003-.054.004-.081.004-.054c.045-.716.137-1.36.394-1.36v-1.322c-.408 0-1.154.152-1.5 1.17-.162.507-.204 1.13-.244 1.728l-.002.028-.002.032-.002.032c-.009.155-.02.346-.038.54l-.004.048-.005.048c-.045.445-.127.874-.296.874-.157 0-.253-.367-.312-.775l-.007-.047-.015-.119-.005-.048-.006-.047a12 12 0 0 1-.043-.538c-.03-.595-.072-1.261-.245-1.766-.327-1.008-1.062-1.16-1.471-1.16-.408 0-1.123.152-1.46 1.16-.164.505-.205 1.17-.235 1.766-.009.149-.022.34-.042.538l-.005.047c-.052.484-.15.989-.341.989s-.311-.47-.377-.925l-.006-.047-.007-.048a7 7 0 0 1-.05-.554 79 79 0 0 1-.05-2.926H9.514v.307c0 .996.004 1.72.05 2.619.042.787.164 1.382.287 1.735.255.767.766 1.15 1.49 1.15.716 0 1.277-.444 1.482-1.15.143-.525.204-1.13.234-1.735l.014-.17c.01-.148.024-.321.042-.495l.005-.048c.049-.446.134-.891.307-.891.17 0 .257.4.306.82l.006.047.005.048.004.048c.02.203.032.403.042.56v.001l.005.08v.006c.03.603.062 1.216.235 1.729.337 1.009 1.092 1.15 1.5 1.15zm6.183-2.976c0 .928.194 1.513.684 2.169L21.295 16c-.664-.888-.95-1.755-.95-2.976V8.151h1.38zM25.236 16c1.317 0 2.185-.767 2.553-1.685l-1.266-.333c-.195.495-.634.807-1.257.807-.776 0-1.46-.585-1.5-1.493h4.217c.163-1.725-.858-3.228-2.757-3.228-1.696 0-2.83 1.291-2.83 2.956 0 1.644 1.134 2.976 2.84 2.976m-.024-4.812c-.705 0-1.297.444-1.43 1.09h2.86c-.102-.586-.674-1.09-1.43-1.09" clip-rule="evenodd"/>
</svg>
