<svg xmlns="http://www.w3.org/2000/svg" width="24" height="24" fill="none" viewBox="0 0 24 24">
    <rect width="18" height="18" x="3" y="3" fill="#000" rx="4.5"/>
    <mask id="swile_24_svg__a" width="18" height="18" x="3" y="3" maskUnits="userSpaceOnUse" style="mask-type:luminance">
        <path fill="#fff" d="M17.593 3H6.407A3.407 3.407 0 0 0 3 6.407v11.186A3.407 3.407 0 0 0 6.407 21h11.186A3.407 3.407 0 0 0 21 17.593V6.407A3.407 3.407 0 0 0 17.593 3"/>
    </mask>
    <g mask="url(#swile_24_svg__a)">
        <path fill="url(#swile_24_svg__b)" fill-rule="evenodd" d="M3 6.694A3.695 3.695 0 0 1 6.696 3h10.608A3.695 3.695 0 0 1 21 6.694v10.612A3.695 3.695 0 0 1 17.304 21H6.696A3.695 3.695 0 0 1 3 17.306zm3.696-3.183a3.183 3.183 0 0 0-3.182 3.183v10.612a3.183 3.183 0 0 0 3.182 3.183h10.608a3.183 3.183 0 0 0 3.182-3.183V6.694a3.183 3.183 0 0 0-3.182-3.183z" clip-rule="evenodd"/>
    </g>
    <mask id="swile_24_svg__c" width="12" height="4" x="6" y="10" maskUnits="userSpaceOnUse" style="mask-type:luminance">
        <path fill="#fff" d="M17.015 10.231H6.904v3.456h10.11z"/>
    </mask>
    <g mask="url(#swile_24_svg__c)">
        <path fill="#fff" fill-rule="evenodd" d="M13.219 10.902c.194 0 .358-.136.358-.336 0-.183-.156-.335-.358-.335-.21 0-.358.148-.358.335 0 .206.155.336.358.336m-5.18 2.785c.547 0 1.004-.245 1.004-.794 0-.453-.392-.636-.95-.745l-.08-.014q-.04-.006-.082-.017l-.017-.004c-.186-.039-.38-.103-.38-.275 0-.18.194-.25.378-.25.26 0 .457.118.516.375l.516-.144c-.134-.469-.544-.695-1.03-.695-.495 0-.938.214-.938.736 0 .506.399.63.817.718l.026.006.027.006.04.009c.306.065.576.152.576.339 0 .214-.228.284-.43.284-.283 0-.504-.136-.585-.41l-.546.149c.14.516.647.726 1.139.726m5.467-2.51v2.493h-.58v-2.493zm-1.741 2.51c.163-.002.465-.066.606-.488.07-.218.087-.41.1-.759l.001-.022.003-.023.002-.035.002-.023c.02-.308.058-.588.165-.588v-.572c-.172 0-.485.066-.633.506-.068.218-.084.488-.103.747v.041c-.004.066-.008.15-.016.235l-.002.02-.002.02c-.018.192-.054.377-.125.377-.067 0-.107-.158-.132-.335l-.002-.02-.006-.052-.002-.02-.002-.021-.018-.233c-.012-.257-.03-.545-.103-.763-.142-.436-.451-.502-.623-.502s-.473.066-.615.502c-.069.218-.087.506-.099.763-.004.064-.008.146-.018.233l-.002.02c-.022.21-.063.428-.144.428s-.131-.203-.157-.399l-.002-.02-.002-.021a3 3 0 0 1-.02-.239 36 36 0 0 1-.023-1.263H9.23v.134c0 .43.002.743.022 1.131.018.34.069.597.121.75.108.33.324.497.63.497.3 0 .537-.191.624-.498.06-.226.087-.487.1-.749l.005-.074q.006-.096.019-.214l.002-.02c.02-.194.056-.385.129-.385.07 0 .11.173.13.354l.001.02.002.021.003.02c.008.09.014.176.018.243l.002.035v.002c.012.262.026.525.099.747.141.436.46.498.633.498zM14.37 12.4c0 .401.081.654.29.936l-.472.35c-.279-.383-.4-.76-.4-1.286v-2.104h.58V12.4zm1.479 1.286c.554 0 .92-.331 1.075-.728l-.534-.144c-.08.213-.266.347-.53.347-.327 0-.614-.253-.632-.646h1.777c.069-.744-.362-1.394-1.16-1.394-.714 0-1.192.557-1.192 1.277 0 .712.478 1.288 1.196 1.288m-.01-2.08a.6.6 0 0 0-.603.471h1.205c-.042-.253-.283-.47-.603-.47" clip-rule="evenodd"/>
    </g>
    <defs>
        <linearGradient id="swile_24_svg__b" x1="4.832" x2="19.317" y1="4.5" y2="19.667" gradientUnits="userSpaceOnUse">
            <stop stop-color="#A51CF1"/>
            <stop offset=".12" stop-color="#336DFF"/>
            <stop offset=".245" stop-color="#31BBFD"/>
            <stop offset=".365" stop-color="#3CEAFF"/>
            <stop offset=".49" stop-color="#00EAB2"/>
            <stop offset=".615" stop-color="#B0E836"/>
            <stop offset=".74" stop-color="#FFDA19"/>
            <stop offset=".875" stop-color="#FF8D40"/>
            <stop offset="1" stop-color="#FF2055"/>
        </linearGradient>
    </defs>
</svg>
