<svg xmlns="http://www.w3.org/2000/svg" width="32" height="24" fill="none" viewBox="0 0 32 24">
    <rect width="31" height="23" x=".5" y=".5" fill="#fff" stroke="#CCC" rx="3.5"/>
    <path fill="#000" fill-rule="evenodd" d="M18.99 9.55c.46 0 .85-.3.85-.77 0-.43-.37-.78-.85-.78-.5 0-.85.34-.85.78 0 .47.37.77.85.77M6.69 16c1.3 0 2.39-.56 2.39-1.84 0-1.05-.93-1.47-2.26-1.72l-.19-.04-.2-.03-.04-.01c-.44-.1-.9-.24-.9-.64 0-.41.46-.57.9-.57.61 0 1.08.27 1.23.87l1.22-.34c-.32-1.09-1.29-1.61-2.44-1.61-1.17 0-2.23.5-2.23 1.7 0 1.18.95 1.46 1.94 1.66l.07.02h.06c.03.02.07.02.1.03.72.15 1.37.35 1.37.78 0 .5-.54.66-1.02.66-.68 0-1.2-.31-1.4-.95L4 14.32C4.33 15.52 5.53 16 6.7 16Zm12.98-5.81v5.77H18.3v-5.77zM15.54 16c.4 0 1.1-.15 1.44-1.13a6 6 0 0 0 .24-1.81v-.19c.05-.72.15-1.36.4-1.36V10.2c-.4 0-1.15.15-1.5 1.17-.16.5-.2 1.13-.24 1.73v.09l-.05.54v.09c-.05.45-.13.88-.3.88-.16 0-.25-.37-.31-.78l-.01-.04-.02-.12v-.1c-.03-.2-.04-.39-.05-.54a7 7 0 0 0-.24-1.76c-.33-1-1.07-1.16-1.47-1.16-.41 0-1.13.15-1.47 1.16-.16.5-.2 1.17-.23 1.76 0 .15-.02.35-.04.54v.05c-.06.48-.16.99-.35.99s-.3-.47-.37-.93l-.01-.04v-.05a7 7 0 0 1-.06-.56c-.03-.84-.05-1.76-.05-2.92H9.51v.3c0 1 0 1.73.05 2.62.05.8.17 1.39.3 1.74.25.77.76 1.15 1.48 1.15a1.5 1.5 0 0 0 1.48-1.15c.15-.52.2-1.13.24-1.74l.01-.17.04-.49v-.05c.06-.44.14-.89.32-.89.17 0 .25.4.3.82v.05l.01.05v.04c.03.2.04.4.05.56v.09c.03.6.06 1.22.24 1.73.33 1 1.09 1.15 1.5 1.15h.01Zm6.18-2.98c0 .93.2 1.52.69 2.17L21.3 16a4.57 4.57 0 0 1-.95-2.98V8.15h1.37zM25.24 16c1.31 0 2.18-.77 2.55-1.68l-1.27-.34c-.2.5-.63.8-1.25.8a1.5 1.5 0 0 1-1.5-1.48h4.21c.17-1.73-.85-3.23-2.75-3.23-1.7 0-2.83 1.29-2.83 2.95 0 1.65 1.13 2.98 2.84 2.98m-.03-4.81c-.7 0-1.3.44-1.43 1.09h2.86c-.1-.59-.67-1.1-1.43-1.1Z" clip-rule="evenodd"/>
</svg>
