<svg xmlns="http://www.w3.org/2000/svg" width="24" height="24" fill="none" viewBox="0 0 24 24">
    <g clip-path="url(#swile_24_svg__a)">
        <path fill="#fff" d="M0 0h24v24H0z"/>
        <rect width="24" height="24" fill="#000" rx="6"/>
        <mask id="swile_24_svg__b" width="24" height="24" x="0" y="0" maskUnits="userSpaceOnUse" style="mask-type:luminance">
            <path fill="#fff" d="M19.457 0H4.543A4.543 4.543 0 0 0 0 4.543v14.914A4.543 4.543 0 0 0 4.543 24h14.914A4.543 4.543 0 0 0 24 19.457V4.543A4.543 4.543 0 0 0 19.457 0"/>
        </mask>
        <g mask="url(#swile_24_svg__b)">
            <path fill="url(#swile_24_svg__c)" fill-rule="evenodd" d="M0 4.926A4.927 4.927 0 0 1 4.929 0H19.07A4.927 4.927 0 0 1 24 4.926v14.149A4.927 4.927 0 0 1 19.071 24H4.93A4.927 4.927 0 0 1 0 19.075zM4.929.68A4.244 4.244 0 0 0 .686 4.926v14.149c0 2.344 1.9 4.244 4.243 4.244H19.07c2.344 0 4.243-1.9 4.243-4.244V4.925c0-2.344-1.9-4.244-4.243-4.244z" clip-rule="evenodd"/>
        </g>
        <mask id="swile_24_svg__d" width="14" height="6" x="5" y="9" maskUnits="userSpaceOnUse" style="mask-type:luminance">
            <path fill="#fff" d="M18.686 9.641H5.205v4.608h13.481z"/>
        </mask>
        <g mask="url(#swile_24_svg__d)">
            <path fill="#fff" fill-rule="evenodd" d="M13.625 10.536c.259 0 .477-.181.477-.447 0-.245-.207-.448-.477-.448-.28 0-.477.198-.477.447 0 .275.207.448.477.448M6.72 14.249c.728 0 1.337-.326 1.337-1.059 0-.603-.523-.847-1.267-.992q-.048-.01-.105-.02-.053-.008-.11-.022l-.022-.005c-.248-.052-.507-.137-.507-.367 0-.24.259-.333.504-.333.345 0 .61.157.688.5l.687-.192c-.178-.626-.725-.927-1.372-.927-.66 0-1.251.285-1.251.982 0 .674.53.839 1.089.957l.035.008.035.008.054.011c.407.088.768.203.768.453 0 .285-.304.378-.574.378-.377 0-.671-.18-.78-.546l-.727.198c.186.688.863.968 1.518.968m7.288-3.346v3.324h-.774v-3.324zm-2.322 3.346c.219-.003.62-.088.81-.65.09-.29.115-.546.131-1.012q0-.017.003-.03l.003-.03c0-.017.003-.03.003-.047l.002-.03c.027-.411.078-.785.221-.785v-.762c-.229 0-.647.088-.844.675-.091.29-.113.65-.137.995v.056c-.006.087-.011.2-.022.312l-.002.027-.003.028c-.024.255-.073.502-.167.502-.09 0-.143-.212-.176-.447l-.002-.028-.008-.069-.003-.027-.003-.027c-.01-.116-.019-.225-.024-.31-.016-.343-.04-.727-.138-1.018-.188-.581-.6-.669-.83-.669s-.63.088-.82.67c-.091.29-.116.674-.132 1.017-.005.085-.01.194-.024.31l-.003.027c-.03.28-.083.57-.191.57s-.175-.271-.21-.532l-.003-.027-.003-.027a4 4 0 0 1-.027-.319 49 49 0 0 1-.03-1.684h-.752v.179c0 .573.003.99.03 1.508.024.453.092.795.162.999.143.441.431.663.838.663.402 0 .717-.255.833-.663.081-.302.116-.65.133-.999l.008-.099c.005-.085.013-.183.024-.285l.003-.027c.027-.258.075-.513.172-.513.095 0 .146.23.173.472l.002.027.003.027.003.028c.01.118.019.233.024.324q.001.023.003.046v.003c.016.348.035.7.132.995.189.582.615.664.844.664zm3.476-1.714c0 .535.108.872.385 1.248l-.628.466c-.372-.51-.534-1.012-.534-1.714V9.729h.774v2.806zm1.97 1.714c.74 0 1.227-.442 1.435-.97l-.712-.193c-.108.285-.356.464-.706.464-.437 0-.82-.338-.844-.862h2.37c.092-.992-.483-1.859-1.548-1.859-.951 0-1.588.743-1.588 1.703 0 .95.637 1.717 1.594 1.717m-.013-2.773c-.396 0-.728.255-.803.628h1.607c-.057-.337-.378-.628-.804-.628" clip-rule="evenodd"/>
        </g>
    </g>
    <defs>
        <linearGradient id="swile_24_svg__c" x1="2.443" x2="21.756" y1="2" y2="22.223" gradientUnits="userSpaceOnUse">
            <stop stop-color="#A51CF1"/>
            <stop offset=".12" stop-color="#336DFF"/>
            <stop offset=".245" stop-color="#31BBFD"/>
            <stop offset=".365" stop-color="#3CEAFF"/>
            <stop offset=".49" stop-color="#00EAB2"/>
            <stop offset=".615" stop-color="#B0E836"/>
            <stop offset=".74" stop-color="#FFDA19"/>
            <stop offset=".875" stop-color="#FF8D40"/>
            <stop offset="1" stop-color="#FF2055"/>
        </linearGradient>
        <clipPath id="swile_24_svg__a">
            <path fill="#fff" d="M0 0h24v24H0z"/>
        </clipPath>
    </defs>
</svg>
