<svg width="24" height="24" viewBox="0 0 24 24" fill="none" xmlns="http://www.w3.org/2000/svg">
  <path fill-rule="evenodd" clip-rule="evenodd"
    d="M12.5517 1H10V2C10 2.55228 9.55228 3 9 3H6C5.44772 3 5 2.55228 5 2V1H2.44833C2.06421 1 1.69582 1.15259 1.42421 1.4242C1.15259 1.69582 1 2.06421 1 2.44834V21.5517C1 21.9358 1.15259 22.3042 1.42421 22.5758C1.69582 22.8474 2.06421 23 2.44833 23H12.5517C12.9358 23 13.3042 22.8474 13.5758 22.5758C13.8474 22.3042 14 21.9358 14 21.5517V2.44834C14 2.06421 13.8474 1.69582 13.5758 1.4242C13.3042 1.15259 12.9358 1 12.5517 1ZM6.00002 21L9.00002 21C9.5523 20.9999 10 20.5522 10 20C9.99999 19.4477 9.55227 19 8.99998 19L5.99998 19C5.4477 19.0001 4.99999 19.4478 5 20C5.00001 20.5523 5.44773 21 6.00002 21Z"
    fill="currentColor" />
  <path
    d="M19.0721 4.58276L16 7.65479V3.97754L16.4555 3.52197C16.8851 3.09229 17.5816 3.09229 18.0112 3.52197L19.0721 4.58276Z"
    fill="currentColor" />
  <path
    d="M22.678 9.74438L16 16.4226V10.4834L20.4863 5.99707L22.678 8.18872C23.1077 8.61841 23.1077 9.31494 22.678 9.74438Z"
    fill="currentColor" />
</svg>
