<svg width="24" height="24" viewBox="0 0 24 24" fill="none" xmlns="http://www.w3.org/2000/svg">
  <path fill-rule="evenodd" clip-rule="evenodd"
    d="M5 1.5C3.34314 1.5 2 2.84314 2 4.5V18.5C2 20.1569 3.34314 21.5 5 21.5H13.4083L13.6718 19.655C12.6382 18.5783 12 17.114 12 15.5C12 12.1863 14.6863 9.5 18 9.5V4.5C18 2.84314 16.6569 1.5 15 1.5H5ZM6 6.5C6 5.94769 6.44771 5.5 7 5.5H13C13.5523 5.5 14 5.94769 14 6.5C14 7.05231 13.5523 7.5 13 7.5H7C6.44771 7.5 6 7.05231 6 6.5ZM7 9.5C6.44771 9.5 6 9.94769 6 10.5C6 11.0523 6.44771 11.5 7 11.5H10C10.5523 11.5 11 11.0523 11 10.5C11 9.94769 10.5523 9.5 10 9.5H7Z"
    fill="currentColor" />
  <path fill-rule="evenodd" clip-rule="evenodd"
    d="M22 15.5C22 16.8997 21.2811 18.1315 20.1923 18.8462L20.6837 22.2859C20.8059 23.1416 19.8583 23.7388 19.139 23.2594L18 22.5L16.861 23.2594C16.1417 23.7388 15.1941 23.1416 15.3163 22.2859L15.8077 18.8462C14.7189 18.1315 14 16.8997 14 15.5C14 13.2909 15.7909 11.5 18 11.5C20.2091 11.5 22 13.2909 22 15.5ZM18 17C18.8284 17 19.5 16.3284 19.5 15.5C19.5 14.6716 18.8284 14 18 14C17.1716 14 16.5 14.6716 16.5 15.5C16.5 16.3284 17.1716 17 18 17Z"
    fill="currentColor" />
</svg>
