<svg xmlns="http://www.w3.org/2000/svg" width="24" height="24" fill="none" viewBox="0 0 24 24">
    <path fill="currentColor" d="M18 10a4 4 0 0 1 2.192 7.347l.492 3.44c.122.855-.826 1.452-1.545.973L18 21l-1.139.76c-.719.48-1.667-.118-1.545-.974l.492-3.44A4 4 0 0 1 18 10m-1-8a3 3 0 0 1 3 3v3.333h-2V5a1 1 0 0 0-1-1H7a1 1 0 0 0-1 1v12a1 1 0 0 0 1 1h6.5v2H7a3 3 0 0 1-3-3V5a3 3 0 0 1 3-3zm1 10.5a1.5 1.5 0 1 0 0 3 1.5 1.5 0 0 0 0-3M12 10a1 1 0 1 1 0 2H9a1 1 0 1 1 0-2zm2-4a1 1 0 1 1 0 2H9a1 1 0 0 1 0-2z"/>
</svg>
