<svg width="32" height="32" viewBox="0 0 32 32" fill="none" xmlns="http://www.w3.org/2000/svg">
<path d="M11 6.25C10.5858 6.25 10.25 6.58579 10.25 7V25C10.25 25.4142 10.5858 25.75 11 25.75H21C21.4142 25.75 21.75 25.4142 21.75 25V7C21.75 6.58579 21.4142 6.25 21 6.25H11Z" stroke="white" stroke-width="1.5" stroke-linejoin="round"/>
<path d="M17.3038 18.5167C16.4157 19.3873 14.9946 19.4267 14.0597 18.6306C14.056 18.6269 14.049 18.6233 14.0453 18.6164C13.9873 18.5592 13.9873 18.4699 14.0416 18.4132L17.1989 15.3234C17.2569 15.2699 17.3474 15.2699 17.4055 15.3271C18.2318 16.244 18.1956 17.6429 17.3038 18.5172V18.5167ZM17.9597 13.5822L14.8024 16.6719C14.7444 16.7255 14.6539 16.7255 14.5958 16.6683C13.7695 15.7551 13.802 14.3562 14.6975 13.4819C15.5856 12.6112 17.0067 12.5755 17.9416 13.3679C17.9453 13.3716 17.9523 13.3753 17.956 13.3821C18.014 13.4357 18.014 13.5249 17.9597 13.5822Z" fill="white"/>
<path d="M21.7458 17.3733C21.8839 16.7356 23.5757 14.0421 24.3149 12.9524C26.4827 9.75671 24.7293 6.25671 21 6.25671" stroke="white" stroke-width="1.5" stroke-linecap="round"/>
</svg>
