<svg xmlns="http://www.w3.org/2000/svg" width="24" height="24" fill="none" viewBox="0 0 24 24">
    <path fill="currentColor" d="M20 5.3a.8.8 0 0 0-.235-.563.82.82 0 0 0-.58-.237H17.46v8.8h1.724a.82.82 0 0 0 .58-.238A.8.8 0 0 0 20 12.5zM6.93 4.5a.83.83 0 0 0-.493.162.8.8 0 0 0-.29.415l-2.115 7.201a.79.79 0 0 0 .128.699.81.81 0 0 0 .655.323h5.292a1 1 0 0 1 .972 1.238l-.908 3.708-.001.004a1.8 1.8 0 0 0 .329 1.541 1.84 1.84 0 0 0 .858.608l2.803-5.548a2.8 2.8 0 0 1 1.3-1.273V4.5zm15.07 8c0 .745-.3 1.459-.828 1.983a2.82 2.82 0 0 1-1.987.817H16.68a.83.83 0 0 0-.433.122.8.8 0 0 0-.299.325v.003l-3.133 6.201a1 1 0 0 1-.905.549 3.86 3.86 0 0 1-2.988-1.479 3.8 3.8 0 0 1-.693-3.254l.604-2.467H4.815a2.83 2.83 0 0 1-2.25-1.116 2.8 2.8 0 0 1-.452-2.47l2.116-7.2a2.8 2.8 0 0 1 1.015-1.456A2.83 2.83 0 0 1 6.931 2.5h12.254c.744 0 1.458.293 1.987.817C21.7 3.842 22 4.554 22 5.3z"/>
</svg>
