<svg xmlns="http://www.w3.org/2000/svg" width="24" height="24" fill="none" viewBox="0 0 24 24">
    <path fill="currentColor" d="M12.09 2a3.86 3.86 0 0 1 2.988 1.479 3.794 3.794 0 0 1 .692 3.25h.001L15.168 9.2h4.018a2.83 2.83 0 0 1 2.25 1.117 2.8 2.8 0 0 1 .493 2.311l-.041.158-2.116 7.2a2.8 2.8 0 0 1-1.015 1.456 2.83 2.83 0 0 1-1.687.558H4.815a2.82 2.82 0 0 1-1.987-.817A2.8 2.8 0 0 1 2 19.2V12c0-.745.3-1.459.828-1.983A2.82 2.82 0 0 1 4.815 9.2H7.32l.115-.008a.807.807 0 0 0 .617-.44v-.002l3.133-6.201.072-.121c.188-.27.499-.432.833-.428M9.839 9.65a2.8 2.8 0 0 1-1.3 1.272v9.08h8.53a.83.83 0 0 0 .494-.163.8.8 0 0 0 .29-.416l2.115-7.2a.79.79 0 0 0-.128-.698.81.81 0 0 0-.655-.324h-5.292a1 1 0 0 1-.972-1.238l.908-3.708.001-.004a1.8 1.8 0 0 0-.329-1.54 1.84 1.84 0 0 0-.86-.61zM4 19.2c0 .21.084.412.235.563a.82.82 0 0 0 .58.237H6.54v-8.8H4.815a.82.82 0 0 0-.58.238A.8.8 0 0 0 4 12z"/>
</svg>
