<svg xmlns="http://www.w3.org/2000/svg" width="24" height="24" fill="none" viewBox="0 0 24 24">
    <path fill="currentColor" d="M12.09 2a3.86 3.86 0 0 1 2.988 1.478 3.794 3.794 0 0 1 .692 3.25l.001.001-.604 2.471h4.018a2.83 2.83 0 0 1 2.25 1.116 2.8 2.8 0 0 1 .493 2.312l-.041.158-2.116 7.2a2.8 2.8 0 0 1-1.015 1.456 2.83 2.83 0 0 1-1.687.558H4.815a2.82 2.82 0 0 1-1.987-.817A2.8 2.8 0 0 1 2 19.2V12c0-.745.3-1.459.828-1.983A2.82 2.82 0 0 1 4.815 9.2H7.32l.115-.008a.807.807 0 0 0 .617-.44V8.75l3.133-6.201.072-.121c.188-.27.499-.432.833-.428M4 19.2c0 .21.084.412.235.563a.82.82 0 0 0 .58.237H6.54v-8.8H4.815a.82.82 0 0 0-.58.238A.8.8 0 0 0 4 12z"/>
</svg>
