<svg width="32" height="25" viewBox="0 0 32 25" fill="none" xmlns="http://www.w3.org/2000/svg">
<g clip-path="url(#clip0_11532_2886)">
<rect x="0.5" y="1" width="31" height="23" rx="3.5" fill="white" stroke="#CCCCCC"/>
</g>
<path d="M16 20.5C20.4183 20.5 24 16.9183 24 12.5C24 8.08172 20.4183 4.5 16 4.5C11.5817 4.5 8 8.08172 8 12.5C8 16.9183 11.5817 20.5 16 20.5Z" fill="white"/>
<path fill-rule="evenodd" clip-rule="evenodd" d="M22.0756 13.0424H19.662C19.7434 13.5576 20.2586 13.7746 20.6925 13.7746C20.9637 13.7746 21.2078 13.7203 21.4519 13.6119L21.3976 14.3441C21.1264 14.4525 20.801 14.5068 20.4756 14.5068C19.3908 14.5068 18.6315 13.883 18.6315 12.7983C18.6315 11.8763 19.3095 11.1712 20.34 11.1712C21.5061 11.1712 22.1027 11.9034 22.0756 13.0424ZM17.6824 14.4254C17.6281 14.3169 17.5468 14.1271 17.4925 13.9373L17.3569 13.4492C17.2756 13.2051 17.1942 13.0966 16.9502 13.0966H16.5434V14.4254H15.6214V10.1136H16.5434V12.5H16.6519L17.5468 11.2254H18.5773L17.5197 12.5542H17.5739C17.9807 12.5542 18.1163 12.7983 18.2247 13.1237L18.4146 13.7203C18.4688 13.9373 18.6044 14.2627 18.7129 14.4254H17.6824ZM14.6993 13.7203C14.9434 13.7203 15.1332 13.6661 15.2959 13.5847L15.2146 14.3712C15.0247 14.4797 14.7536 14.5068 14.5095 14.5068C13.5061 14.5068 12.801 13.8559 12.801 12.8254C12.801 11.822 13.479 11.1712 14.5095 11.1712C14.8892 11.1712 15.1603 11.2525 15.4586 11.3881L15.1875 12.1203C15.0519 12.039 14.862 11.9576 14.6451 11.9576C14.1298 11.9576 13.8044 12.2831 13.8044 12.8254C13.7773 13.3407 14.1298 13.7203 14.6993 13.7203ZM11.5536 10.8186H12.5027V10.1136H11.5536V10.8186ZM11.5536 14.4254H12.5027V11.2254H11.5536V14.4254ZM22.2654 12.6898V10.5203L23.2146 10.1407V11.2797H23.8654L23.7298 11.9847H23.2146V12.7169C23.2146 13.422 23.4858 13.9373 23.7841 14.3441C23.9197 13.7475 24.001 13.1237 24.001 12.4729C24.001 8.07966 20.4214 4.5 16.001 4.5C12.4214 4.5 9.38407 6.85932 8.38068 10.1136H11.3637L11.2553 10.9814H10.0078V14.4525H8.97729V10.9542H8.16373C8.05526 11.4424 8.02814 11.9576 8.02814 12.4729C8.02814 16.8932 11.6078 20.4729 16.0281 20.4729C19.7705 20.4729 22.9163 17.8966 23.7841 14.4254H22.8349C22.6451 14.1271 22.2654 13.6119 22.2654 12.6898ZM20.3671 11.822C19.9603 11.822 19.7163 12.0932 19.6349 12.4458H21.0722C21.018 12.039 20.7468 11.822 20.3671 11.822Z" fill="#D52B1E"/>
<defs>
<clipPath id="clip0_11532_2886">
<rect y="0.5" width="32" height="24" rx="4" fill="white"/>
</clipPath>
</defs>
</svg>
