<svg xmlns="http://www.w3.org/2000/svg" width="32" height="24" fill="none" viewBox="0 0 32 24">
    <g clip-path="url(#ticket_32_svg__a)">
        <rect width="31" height="23" x=".5" y=".5" fill="#fff" stroke="#ccc" rx="3.5"/>
    </g>
    <path fill="#fff" d="M16 20a8 8 0 1 0 0-16 8 8 0 0 0 0 16"/>
    <path fill="#d52b1e" fill-rule="evenodd" d="M22.076 12.542h-2.414c.082.516.597.733 1.03.733.272 0 .516-.055.76-.163l-.054.732a2.5 2.5 0 0 1-.922.163c-1.085 0-1.844-.624-1.844-1.709 0-.922.678-1.627 1.708-1.627 1.166 0 1.763.732 1.736 1.871m-4.394 1.383a3 3 0 0 1-.19-.488l-.135-.488c-.081-.244-.163-.352-.407-.352h-.406v1.328h-.923V9.614h.923V12h.108l.895-1.275h1.03l-1.057 1.33h.054c.407 0 .542.243.65.569l.19.596c.055.217.19.543.299.705zM14.7 13.22c.245 0 .434-.054.597-.135l-.081.786c-.19.109-.461.136-.705.136-1.004 0-1.709-.651-1.709-1.682 0-1.003.678-1.654 1.709-1.654.38 0 .65.082.949.217l-.271.732a1.07 1.07 0 0 0-.543-.162c-.515 0-.84.325-.84.867-.028.516.325.895.894.895m-3.145-2.901h.949v-.705h-.95zm0 3.606h.949v-3.2h-.95zm10.712-1.735v-2.17l.949-.38v1.14h.65l-.135.705h-.515v.732c0 .705.27 1.22.57 1.627.135-.596.216-1.22.216-1.871 0-4.393-3.58-7.973-8-7.973a7.98 7.98 0 0 0-7.62 5.614h2.983l-.109.867h-1.247v3.472h-1.03v-3.499h-.814c-.109.488-.136 1.004-.136 1.519a7.997 7.997 0 0 0 15.756 1.952h-.949c-.19-.298-.57-.813-.57-1.735m-1.899-.868c-.407 0-.65.271-.732.624h1.437c-.054-.407-.325-.624-.705-.624" clip-rule="evenodd"/>
    <defs>
        <clipPath id="ticket_32_svg__a">
            <rect width="32" height="24" fill="#fff" rx="4"/>
        </clipPath>
    </defs>
</svg>
