<svg width="16" height="16" viewBox="0 0 16 16" fill="none" xmlns="http://www.w3.org/2000/svg">
  <path fill-rule="evenodd" clip-rule="evenodd"
    d="M2.34083 2.34546C3.84024 0.844823 5.87428 0.00115773 7.99563 0H8.00437C10.1257 0.00115773 12.1598 0.844823 13.6592 2.34546C15.1586 3.8461 16.0006 5.88083 16 8.00218C15.9994 10.1235 15.1563 12.1578 13.6561 13.6576C12.1559 15.1574 10.1214 16 8 16C5.87865 16 3.84415 15.1574 2.34392 13.6576C0.843689 12.1578 0.000579675 10.1235 2.97751e-07 8.00218C-0.000578058 5.88083 0.841422 3.8461 2.34083 2.34546ZM9.29289 11.2071C9.68342 11.5976 10.3166 11.5976 10.7071 11.2071C11.0976 10.8166 11.0976 10.1834 10.7071 9.79289L9 8.08579V4C9 3.44772 8.55229 3 8 3C7.44772 3 7 3.44772 7 4V8.91421L9.29289 11.2071Z"
    fill="currentColor" />
</svg>
