<svg xmlns="http://www.w3.org/2000/svg" width="24" height="24" fill="none" viewBox="0 0 24 24">
    <path fill="currentColor" fill-rule="evenodd" d="M12 6a5.96 5.96 0 0 0-4.48 2.02Q7.76 7.995 8 8a8.01 8.01 0 0 1 8 8q.005.24-.02.48A5.993 5.993 0 0 0 12 6m4-4a5.96 5.96 0 0 0-4.48 2.02q.24-.025.48-.02a8.01 8.01 0 0 1 8 8q.005.24-.02.48A5.993 5.993 0 0 0 16 2" clip-rule="evenodd"/>
    <path fill="currentColor" d="M12 16a4 4 0 1 0-8 .001 4 4 0 0 0 8 0m2 0a6 6 0 0 1-1.01 3.333l-.128.183a6 6 0 0 1-5.814 2.408l-.219-.04a6 6 0 0 1-2.912-1.487l-.16-.155a6 6 0 0 1-1.594-2.854l-.048-.217a6 6 0 0 1 .26-3.26l.082-.207a6 6 0 0 1 2.027-2.566l.183-.127A6 6 0 0 1 14 16"/>
</svg>
