<svg width="24" height="24" viewBox="0 0 24 24" fill="none" xmlns="http://www.w3.org/2000/svg">
  <path fill-rule="evenodd" clip-rule="evenodd"
    d="M12 23C18.0751 23 23 18.0751 23 12C23 5.92487 18.0751 1 12 1C5.92487 1 1 5.92487 1 12C1 18.0751 5.92487 23 12 23ZM19 12C19.0001 12.2655 18.896 12.5205 18.71 12.71L14.71 16.71C14.5205 16.896 14.2655 17.0001 14 17C13.7348 17 13.4804 16.8946 13.2929 16.7071C13.1054 16.5196 13 16.2652 13 16C12.9999 15.7345 13.104 15.4795 13.29 15.29L15.59 13H12C11.7348 13 11.4804 12.8946 11.2929 12.7071C11.1054 12.5196 11 12.2652 11 12C11 11.7348 11.1054 11.4804 11.2929 11.2929C11.4804 11.1054 11.7348 11 12 11H15.59L13.29 8.71C13.104 8.52049 12.9999 8.26553 13 8C13 7.73478 13.1054 7.48043 13.2929 7.29289C13.4804 7.10536 13.7348 7 14 7C14.2655 6.99988 14.5205 7.10402 14.71 7.29L18.71 11.29C18.896 11.4795 19.0001 11.7345 19 12ZM5 12C5 11.4477 5.44772 11 6 11H8C8.55228 11 9 11.4477 9 12C9 12.5523 8.55228 13 8 13H6C5.44772 13 5 12.5523 5 12Z"
    fill="currentColor" />
</svg>
