<svg xmlns="http://www.w3.org/2000/svg" width="24" height="24" fill="none" viewBox="0 0 24 24">
    <path fill="currentColor" d="M20.121 13.879a1 1 0 0 1 1 1v4.242a1 1 0 1 1-2 0v-1.828l-3.242 3.242-1.414-1.414 3.242-3.242h-1.828a1 1 0 0 1 0-2zM19.201 4c.748 0 1.462.303 1.985.836S22 6.088 22 6.833v4.584a1 1 0 0 1-2 0V6.833c0-.227-.09-.44-.241-.596A.78.78 0 0 0 19.2 6H4.8a.78.78 0 0 0-.559.237.85.85 0 0 0-.241.596v7.334c0 .227.09.44.241.596A.78.78 0 0 0 4.8 15H12v2H4.8a2.78 2.78 0 0 1-1.987-.836A2.85 2.85 0 0 1 2 14.167V6.833c0-.745.29-1.464.813-1.997A2.78 2.78 0 0 1 4.8 4zM12 7.667c1.564 0 2.8 1.286 2.8 2.833s-1.236 2.833-2.8 2.833-2.8-1.286-2.8-2.833 1.236-2.833 2.8-2.833M6.61 9.5a1 1 0 0 1 0 2H6.6a1 1 0 0 1 0-2zm10.8 0a1 1 0 0 1 0 2h-.01a1 1 0 1 1 0-2zM12 9.667c-.425 0-.8.355-.8.833s.375.833.8.833.8-.355.8-.833a.817.817 0 0 0-.8-.833"/>
</svg>
