<svg width="24" height="24" viewBox="0 0 24 24" fill="none" xmlns="http://www.w3.org/2000/svg">
  <path
    d="M22.5801 6.19002L15.5801 1.19002C15.4125 1.06528 15.2089 0.998577 15.0001 1.00002C14.7348 1.00002 14.4805 1.10538 14.2929 1.29292C14.1054 1.48045 14.0001 1.73481 14.0001 2.00002V6.00002H2.00005C1.73484 6.00002 1.48048 6.10538 1.29295 6.29292C1.10541 6.48045 1.00005 6.73481 1.00005 7.00002C1.00005 7.26524 1.10541 7.51959 1.29295 7.70713C1.48048 7.89467 1.73484 8.00002 2.00005 8.00002H14.0001V12C14.0001 12.2652 14.1054 12.5196 14.2929 12.7071C14.4805 12.8947 14.7348 13 15.0001 13C15.2089 13.0015 15.4125 12.9348 15.5801 12.81L22.5801 7.81002C22.7098 7.71854 22.8157 7.59721 22.8888 7.45624C22.9619 7.31528 23.0001 7.15881 23.0001 7.00002C23.0001 6.84123 22.9619 6.68477 22.8888 6.5438C22.8157 6.40284 22.7098 6.28151 22.5801 6.19002ZM1.42005 17.81L8.42005 22.81C8.58757 22.9348 8.7912 23.0015 9.00005 23C9.26527 23 9.51962 22.8947 9.70716 22.7071C9.8947 22.5196 10.0001 22.2652 10.0001 22V18H22.0001C22.2653 18 22.5196 17.8947 22.7072 17.7071C22.8947 17.5196 23.0001 17.2652 23.0001 17C23.0001 16.7348 22.8947 16.4805 22.7072 16.2929C22.5196 16.1054 22.2653 16 22.0001 16H10.0001V12C10.0001 11.7348 9.8947 11.4805 9.70716 11.2929C9.51962 11.1054 9.26527 11 9.00005 11C8.7912 10.9986 8.58757 11.0653 8.42005 11.19L1.42005 16.19C1.29026 16.2815 1.18436 16.4028 1.11126 16.5438C1.03816 16.6848 1 16.8412 1 17C1 17.1588 1.03816 17.3153 1.11126 17.4562C1.18436 17.5972 1.29026 17.7185 1.42005 17.81Z"
    fill="currentColor" />
</svg>
