<svg xmlns="http://www.w3.org/2000/svg" width="24" height="24" fill="none" viewBox="0 0 24 24">
    <path fill="currentColor" d="M19 1a1 1 0 0 1 .72.3l2.99 3a1 1 0 0 1-1.42 1.4L20 4.42V8a1 1 0 1 1-2 0V4.41l-1.28 1.3a1 1 0 0 1-1.42-1.42l3-2.99A1 1 0 0 1 19 1Z"/>
    <path fill="currentColor" fill-rule="evenodd" d="M18.41 17.41A2 2 0 0 0 19 16v-5a6 6 0 0 1-5.92-5H3a2 2 0 0 0-2 2v8a2 2 0 0 0 2 2h14a2 2 0 0 0 1.41-.59ZM5.5 16A2.5 2.5 0 0 0 3 13.5V16h2.5Zm0-8H3v2.5A2.5 2.5 0 0 0 5.5 8Zm6.5 4a2 2 0 1 0-4 0 2 2 0 0 0 4 0Zm5 1.5a2.5 2.5 0 0 0-2.5 2.5H17v-2.5Z" clip-rule="evenodd"/>
    <path fill="currentColor" d="M23 13v8a1 1 0 0 1-.3.7s-.43.3-.7.3H6a2 2 0 0 1-2-2h17v-9a2 2 0 0 1 2 2Z"/>
</svg>
