<svg xmlns="http://www.w3.org/2000/svg" width="24" height="24" fill="none" viewBox="0 0 24 24">
    <path fill="currentColor" d="M7.5 16.5c-.469 0-.8.362-.8.75s.331.75.8.75.8-.362.8-.75-.331-.75-.8-.75m9 0c-.469 0-.8.362-.8.75s.331.75.8.75.8-.362.8-.75-.331-.75-.8-.75m-1.7-1.432a2.83 2.83 0 0 1 1.7-.568c1.17 0 2.197.716 2.607 1.75H20v-3.017L16.927 9.5H14.8zm-2-8.318a.73.73 0 0 0-.224-.52A.83.83 0 0 0 12 6H4.8a.83.83 0 0 0-.575.23.73.73 0 0 0-.225.52v9.5h.893A2.8 2.8 0 0 1 7.5 14.5c1.17 0 2.197.716 2.607 1.75H12.8zm2 .75h2.17q.317 0 .617.103l.195.079.186.1q.27.165.473.411L21.573 12l.097.128c.212.307.33.674.33 1.053v3.195c0 .506-.207.987-.566 1.336-.359.348-.84.539-1.334.539h-.993A2.8 2.8 0 0 1 16.5 20a2.8 2.8 0 0 1-2.607-1.75h-3.786A2.8 2.8 0 0 1 7.5 20a2.8 2.8 0 0 1-2.607-1.75H3.9c-.495 0-.975-.19-1.334-.54-.359-.348-.566-.829-.566-1.335V6.75c0-.738.302-1.44.83-1.954A2.83 2.83 0 0 1 4.8 4H12c.734 0 1.443.283 1.97.796.528.513.83 1.215.83 1.954z"/>
</svg>
