<svg width="24" height="24" viewBox="0 0 24 24" fill="none" xmlns="http://www.w3.org/2000/svg">
    <path d="m22.12 9.12-3.24-3.24A3.015 3.015 0 0 0 16.76 5H14a2.006 2.006 0 0 0-2-2H4a3 3 0 0 0-3 3v11a2.017 2.017 0 0 0 1.06 1.77 4.5 4.5 0 0 1 8.91.23h2.06a4.5 4.5 0 0 1 8.91-.23A2.016 2.016 0 0 0 23 17v-5.76a3.015 3.015 0 0 0-.88-2.12zM20.24 12H14V7h2.76a.965.965 0 0 1 .7.29l3.25 3.25c.184.187.288.438.29.7a.76.76 0 0 1-.76.76zM6.5 22a2.5 2.5 0 1 1 0-5 2.5 2.5 0 0 1 0 5zm11 0a2.5 2.5 0 1 1 0-5 2.5 2.5 0 0 1 0 5z" fill="#000"/>
</svg>
