<svg xmlns="http://www.w3.org/2000/svg" width="24" height="24" fill="none" viewBox="0 0 24 24">
    <path fill="#000" d="M22 17.056c0 .286-.21.637-.467.78l-9.066 5.057a1.07 1.07 0 0 1-.933 0l-9.067-5.057c-.257-.143-.467-.494-.467-.78V6.944c0-.286.21-.638.467-.78l9.067-5.057c.257-.143.677-.143.933 0l9.066 5.056c.257.143.467.495.467.78z"/>
    <path fill="#fff" d="m16.72 12.024-2.36 3.348-1.213-1.795 1.4-2.016c.26-.36.813-1.345.172-2.696-.52-1.092-1.644-1.623-2.632-1.623s-2.067.49-2.638 1.623c-.653 1.297-.086 2.318.16 2.656l1.423 2.027 1.052 1.465 1.584 2.336c.01.016.263.387.708.387.446 0 .681-.364.713-.41l3.707-5.3H16.72zm-4.645.086s-.618-.905-1.02-1.54c-.43-.68.05-1.693 1.02-1.693.972 0 1.452 1.014 1.021 1.693-.402.633-1.02 1.54-1.02 1.54"/>
    <path fill="#fff" d="m9.796 15.264-2.322-3.15s-.619-.91-1.02-1.543c-.43-.68.049-1.692 1.02-1.692q.183 0 .34.045l.82-1.45a3 3 0 0 0-1.149-.233c-.986 0-2.066.49-2.637 1.623-.653 1.296-.086 2.317.159 2.655l4.06 5.81c.034.05.292.416.723.416.432 0 .683-.358.714-.404l1.223-1.805-1.05-1.496-.882 1.224"/>
</svg>
