<svg width="24" height="24" viewBox="0 0 24 24" fill="none" xmlns="http://www.w3.org/2000/svg">
    <path d="M22 17.0563C22 17.3422 21.7899 17.6934 21.5334 17.8364L12.4673 22.8928C12.2108 23.0357 11.7907 23.0357 11.5341 22.8928L2.46662 17.8364C2.21005 17.6934 2 17.3422 2 17.0563V6.94375C2 6.65778 2.21005 6.30644 2.46662 6.16346L11.5341 1.10724C11.7907 0.964254 12.2108 0.964254 12.4673 1.10724L21.5334 6.16346C21.7899 6.30644 22 6.65778 22 6.94375V17.0563Z" fill="black"/>
    <path d="M16.7205 12.0244L14.3592 15.3716L13.1468 13.5769L14.5467 11.5614C14.8061 11.2006 15.3601 10.216 14.7187 8.86516C14.1999 7.77303 13.0749 7.24194 12.0867 7.24194C11.0985 7.24194 10.02 7.73218 9.44906 8.86516C8.79635 10.1616 9.36307 11.1829 9.60836 11.5206C9.60836 11.5206 10.3809 12.6209 11.0322 13.5483L12.0839 15.0134L13.6684 17.3489C13.6783 17.3652 13.9306 17.7356 14.3761 17.7356C14.8216 17.7356 15.057 17.372 15.0894 17.3257L18.7956 12.0258H16.7205V12.0244ZM12.0754 12.1102C12.0754 12.1102 11.4565 11.2047 11.0548 10.5701C10.6248 9.89057 11.1041 8.87742 12.0754 8.87742C13.0467 8.87742 13.5274 9.89057 13.0961 10.5701C12.6943 11.2033 12.0754 12.1102 12.0754 12.1102Z" fill="white"/>
    <path d="M9.79594 15.264L7.47409 12.1143C7.47409 12.1143 6.85521 11.2047 6.45344 10.5715C6.02347 9.89195 6.50278 8.8788 7.47409 8.8788C7.59533 8.8788 7.70952 8.89514 7.81384 8.92374L8.63431 7.47482C8.25932 7.31822 7.86177 7.2406 7.48537 7.2406C6.49855 7.2406 5.41869 7.73083 4.84774 8.86382C4.19503 10.1602 4.76175 11.1815 5.00704 11.5193L9.0671 17.3285C9.10093 17.3788 9.35892 17.7452 9.7903 17.7452C10.2217 17.7452 10.4726 17.387 10.5036 17.3407L11.7273 15.5364L10.677 14.0399L9.79453 15.264H9.79594Z" fill="white"/>
</svg>
