<svg xmlns="http://www.w3.org/2000/svg" width="24" height="24" fill="none" viewBox="0 0 24 24">
    <path fill="currentColor" d="M2.295 2.793a1 1 0 0 1 1.414 0l17.998 18a1 1 0 1 1-1.414 1.414l-1.61-1.61q-.018.074-.045.144a1.48 1.48 0 0 1-2.06.752l-4.155-2.184a.91.91 0 0 0-.845 0l-4.153 2.183a1.476 1.476 0 0 1-2.166-1.354l.02-.205.793-4.623.012-.109a.9.9 0 0 0-.273-.695v-.001l-3.363-3.273h.001a1.48 1.48 0 0 1-.377-1.515l.077-.192c.09-.185.22-.35.378-.483l.166-.122q.176-.11.375-.167l.203-.043 3.077-.45-4.053-4.053a1 1 0 0 1 0-1.414M4.6 10.536l2.605 2.536.123.127a2.9 2.9 0 0 1 .715 2.45l-.614 3.582 3.219-1.692a2.9 2.9 0 0 1 2.706 0l3.218 1.691-.154-.898-8.308-8.31zm7.606-8.021q.204.029.393.111l.181.097.166.12c.158.131.287.294.378.48h.001l2.078 4.211h.001a.91.91 0 0 0 .683.497l4.646.68h.001c.205.03.4.102.575.21l.166.123.147.143q.138.153.229.338l.077.19.05.201a1.48 1.48 0 0 1-.424 1.314v.001l-2.913 2.836a1 1 0 1 1-1.396-1.432l2.153-2.099-3.6-.526a2.9 2.9 0 0 1-2.105-1.436l-.083-.155L12 5.159l-.593 1.202a1 1 0 1 1-1.793-.884l1.063-2.154A1.48 1.48 0 0 1 12 2.5zM3.843 9.799l.005.005-.007-.008z"/>
</svg>
