<svg width="24" height="24" viewBox="0 0 24 24" fill="none" xmlns="http://www.w3.org/2000/svg">
  <path
    d="M21.7076 2.70711C22.0981 2.31658 22.0981 1.68342 21.7076 1.29289C21.3171 0.902369 20.6839 0.902369 20.2934 1.29289L15.0387 6.54755L12.9203 1.60808C12.8435 1.42769 12.7153 1.27387 12.5517 1.16576C12.3881 1.05764 12.1964 1 12.0003 1C11.8042 1 11.6125 1.05764 11.4489 1.16576C11.2853 1.27387 11.1571 1.42769 11.0803 1.60808L8.3003 8.09008L1.8593 9.01008C1.67487 9.0341 1.50099 9.10974 1.35768 9.22828C1.21437 9.34682 1.10747 9.50343 1.0493 9.68008C0.992339 9.85741 0.984579 10.0469 1.02685 10.2283C1.06911 10.4097 1.15982 10.5762 1.2893 10.7101L5.9403 15.3521L5.89132 15.695L1.29339 20.2929C0.902863 20.6834 0.902863 21.3166 1.29339 21.7071C1.68391 22.0976 2.31708 22.0976 2.7076 21.7071L5.42 18.9947L5.41973 18.9966L16.248 8.16832L16.2466 8.16811L21.7076 2.70711Z"
    fill="currentColor" />
  <path
    d="M22.7113 10.7101L18.0603 15.3521L18.9903 21.8631C19.0152 22.0437 18.9903 22.2276 18.9182 22.395C18.8462 22.5625 18.7297 22.707 18.5815 22.8131C18.4332 22.9191 18.2588 22.9827 18.077 22.9967C17.8953 23.0108 17.7131 22.975 17.5503 22.8931L12.0003 20.1231L6.4503 22.8931C6.28745 22.975 6.10532 23.0108 5.92358 22.9967C5.74184 22.9827 5.56741 22.9191 5.41914 22.8131C5.27088 22.707 5.15442 22.5625 5.08237 22.395C5.05788 22.3382 5.03884 22.2794 5.02535 22.2194L18.723 8.52182L22.1413 9.01008C22.3257 9.0341 22.4996 9.10974 22.6429 9.22828C22.7862 9.34682 22.8931 9.50343 22.9513 9.68008C23.0083 9.85741 23.016 10.0469 22.9737 10.2283C22.9315 10.4097 22.8408 10.5762 22.7113 10.7101Z"
    fill="currentColor" />
</svg>
