<svg xmlns="http://www.w3.org/2000/svg" width="32" height="24" fill="none" viewBox="0 0 32 24">
    <g clip-path="url(#union_pay_32_svg__a)">
        <path fill="#e21836" d="M7.18 3h7.238c1.01 0 1.638.817 1.403 1.823L12.45 19.18C12.213 20.182 11.2 21 10.19 21H2.952c-1.01 0-1.64-.818-1.404-1.82L4.921 4.823C5.157 3.817 6.168 3 7.179 3"/>
        <path fill="#00447c" d="M13.816 3h8.323c1.01 0 .555.817.317 1.823L19.087 19.18c-.236 1.002-.163 1.82-1.175 1.82H9.588c-1.012 0-1.639-.818-1.4-1.82l3.368-14.357C11.796 3.817 12.805 3 13.816 3"/>
        <path fill="#007b84" d="M21.809 3h7.238c1.012 0 1.64.817 1.403 1.823L27.08 19.18C26.843 20.182 25.83 21 24.82 21h-7.235c-1.013 0-1.64-.818-1.403-1.82l3.37-14.357C19.786 3.817 20.797 3 21.809 3"/>
        <path fill="#fefefe" d="M9.07 7.6c-.745.008-.965 0-1.035-.016l-.53 2.429c-.109.465-.187.796-.455 1.01a.8.8 0 0 1-.534.185c-.33 0-.522-.163-.555-.471l-.006-.106.1-.627s.528-2.095.622-2.372l.008-.031c-1.026.009-1.208 0-1.22-.017-.007.023-.033.153-.033.153l-.538 2.361-.046.2-.09.656c0 .194.039.353.115.487.245.425.945.489 1.34.489.51 0 .989-.108 1.312-.304.561-.33.708-.843.839-1.3l.06-.235s.544-2.176.636-2.459q.004-.021.01-.031m1.847 1.756c-.13 0-.37.032-.585.136-.078.04-.152.086-.23.132l.07-.252-.038-.042c-.455.091-.557.103-.978.162l-.036.024c-.048.402-.092.704-.273 1.494q-.104.44-.212.876l.019.037c.431-.022.562-.022.937-.016l.03-.033c.048-.242.054-.299.16-.789.05-.233.153-.743.204-.925a.7.7 0 0 1 .274-.086c.21 0 .185.182.177.255-.01.121-.086.519-.165.86l-.052.22c-.036.163-.076.32-.113.482l.016.032c.425-.022.555-.022.918-.016l.043-.033c.065-.378.084-.48.2-1.03l.06-.253c.113-.495.17-.746.084-.95-.09-.23-.31-.285-.51-.285m2.064.519c-.226.043-.37.071-.513.09-.142.023-.28.043-.5.073l-.016.016-.016.012c-.023.161-.039.301-.07.465-.025.17-.064.362-.128.64-.05.211-.075.285-.103.36-.028.074-.058.147-.114.355l.013.02.011.017c.204-.01.338-.016.475-.017.137-.005.279 0 .499 0l.02-.015.02-.017c.032-.188.036-.238.056-.33.019-.099.052-.235.133-.599q.06-.254.122-.515.062-.26.126-.516l-.006-.02zm.005-.7c-.205-.12-.566-.081-.808.085-.242.163-.27.394-.065.515.202.117.564.083.804-.085.241-.166.272-.395.07-.514m1.242 2.786c.415 0 .841-.114 1.162-.45.247-.274.36-.681.399-.849.127-.555.028-.814-.097-.972-.19-.24-.524-.318-.871-.318-.21 0-.707.02-1.095.376-.28.257-.409.605-.486.938-.079.34-.17.952.398 1.18.175.075.427.095.59.095m-.032-1.25c.095-.42.209-.773.497-.773.226 0 .243.263.142.685-.018.093-.1.442-.212.59-.078.11-.17.176-.272.176-.03 0-.211 0-.214-.266a1.8 1.8 0 0 1 .059-.411m2.632 1.196.032-.033c.046-.242.054-.299.156-.789.05-.232.156-.743.206-.925.093-.043.184-.086.275-.086.21 0 .184.182.175.255-.007.121-.084.519-.164.86l-.05.22c-.037.163-.078.32-.115.482l.016.032c.426-.022.551-.022.916-.016l.045-.033c.064-.378.08-.48.2-1.03l.058-.253c.114-.495.172-.746.088-.95-.094-.23-.314-.285-.512-.285-.13 0-.371.032-.585.136q-.115.062-.228.132l.065-.252-.035-.042c-.455.091-.56.104-.98.162l-.032.024c-.051.402-.093.704-.274 1.495-.069.29-.14.585-.212.876l.02.036c.431-.022.56-.022.934-.016m3.134.016.187-.9s.136-.564.144-.585c0 0 .043-.059.086-.082h.063c.592 0 1.261 0 1.786-.383.357-.262.6-.65.71-1.121.028-.116.049-.253.049-.39a.8.8 0 0 0-.142-.5c-.268-.37-.8-.378-1.415-.38l-.303.002c-.787.01-1.103.007-1.233-.009-.01.057-.031.159-.031.159l-.282 1.298-.707 2.887c.688-.009.97-.009 1.088.004m.522-2.303.299-1.289.01-.066.004-.05.12.012.632.054c.244.093.345.335.274.65a.95.95 0 0 1-.494.647c-.199.099-.443.107-.695.107h-.162zm1.867 1.116c-.08.335-.17.947.394 1.165.18.076.34.098.505.09.173-.01.333-.095.482-.22l-.04.154.025.032c.406-.017.532-.017.972-.013l.04-.03c.064-.375.125-.739.291-1.455l.246-1.026-.013-.037a18 18 0 0 1-1.012.163l-.033.026q-.008.053-.013.102a.62.62 0 0 0-.319-.26c-.194-.075-.65.022-1.042.377-.276.252-.408.6-.483.932m.953.02c.098-.413.21-.762.498-.762.183 0 .28.167.26.453l-.052.231q-.044.184-.09.366a1 1 0 0 1-.108.215c-.074.104-.251.17-.353.17-.03 0-.208 0-.214-.262-.001-.13.026-.264.06-.41m4.98-1.364-.034-.04c-.45.091-.53.105-.944.16l-.03.03-.005.02-.001-.007c-.308.704-.299.552-.549 1.106l-.003-.068-.062-1.2-.04-.04c-.47.09-.481.104-.916.16l-.034.03q-.006.021-.008.047l.003.006c.055.276.042.214.096.65.025.213.06.427.085.638.043.353.067.526.119 1.065-.293.48-.363.662-.646 1.084l.002.005-.199.312c-.022.033-.043.055-.072.065a.3.3 0 0 1-.13.018h-.11l-.165.541.563.01c.33-.002.537-.155.649-.36l.353-.602h-.005l.037-.042c.238-.508 2.047-3.588 2.047-3.588m-5.933 7.105h-.239l.883-2.897h.293l.093-.299.009.332c-.011.205.151.387.579.357h.494l.17-.558h-.186q-.16 0-.15-.084l-.01-.338h-.914v.002c-.296.006-1.18.028-1.359.075-.216.056-.444.218-.444.218l.09-.298h-.857l-.178.593-.895 2.941h-.173l-.17.554h1.704l-.057.185h.84l.056-.185h.236zm-.7-2.309c-.137.038-.392.152-.392.152l.227-.74h.68l-.164.54s-.21.011-.351.048m.013 1.058s-.214.027-.354.058a4 4 0 0 0-.398.173l.234-.77h.683zm-.381 1.258h-.682l.198-.65h.68zm1.643-1.797h.983l-.14.454h-.997l-.15.496h.872l-.66.923a.27.27 0 0 1-.134.11.4.4 0 0 1-.177.051h-.242l-.166.544h.632a.77.77 0 0 0 .667-.343l.453-.615.097.624c.02.117.105.185.163.212.063.031.128.085.22.094q.149.007.22.007h.31l.187-.608h-.123c-.07 0-.191-.012-.212-.034-.02-.027-.02-.068-.032-.13l-.098-.626h-.404l.177-.209h.994l.153-.496h-.92l.143-.454h.918l.17-.56h-2.737zM14.62 16.63l.23-.757h.943l.172-.564h-.944l.144-.466h.923l.17-.546H13.95l-.167.546h.524l-.14.466h-.526l-.174.573h.524l-.305 1.003c-.042.132.019.183.057.244.04.06.08.1.17.123.092.02.155.033.241.033h1.064l.19-.625-.472.065c-.091 0-.343-.011-.316-.095m.108-3.627-.239.429a.5.5 0 0 1-.138.178q-.057.034-.214.033h-.125l-.167.548h.415c.199 0 .352-.073.425-.109.078-.041.099-.018.16-.076l.14-.12h1.293l.172-.571h-.947l.165-.312zm1.91 3.638c-.022-.031-.006-.087.027-.202l.354-1.162h1.258q.274-.002.402-.01a.8.8 0 0 0 .302-.101.56.56 0 0 0 .22-.202c.055-.074.142-.237.217-.488l.445-1.47-1.306.008s-.401.059-.578.124c-.179.072-.434.275-.434.275l.118-.403h-.807l-1.128 3.715c-.04.144-.067.248-.073.311-.002.068.086.135.143.186.067.05.167.042.263.05.1.008.244.013.442.013h.62l.19-.638-.555.052a.15.15 0 0 1-.12-.058m.61-2.148h1.32l-.084.261c-.012.007-.04-.012-.174.003h-1.144zm.264-.876h1.332l-.096.315s-.628-.006-.728.012c-.443.076-.701.31-.701.31zm1.002 2.012a.14.14 0 0 1-.052.08q-.039.025-.136.024h-.188l.011-.318h-.783l-.031 1.555c-.002.112.01.177.092.23.083.064.338.072.68.072h.492l.177-.582-.427.024-.142.008c-.02-.008-.038-.016-.059-.036-.018-.018-.048-.007-.043-.12l.003-.398.448-.018a.58.58 0 0 0 .433-.153c.084-.071.112-.153.144-.264l.075-.353h-.616z"/>
        <rect width="31" height="23" x=".5" y=".5" stroke="#ccc" rx="3.5"/>
    </g>
    <defs>
        <clipPath id="union_pay_32_svg__a">
            <path fill="#fff" d="M0 0h32v24H0z"/>
        </clipPath>
    </defs>
</svg>
