<svg width="32" height="24" viewBox="0 0 32 24" fill="none" xmlns="http://www.w3.org/2000/svg">
    <path d="M6.267 2h7.987c1.115 0 1.808.909 1.548 2.027l-3.718 15.966c-.263 1.114-1.38 2.024-2.495 2.024H1.603c-1.114 0-1.809-.91-1.548-2.024l3.72-15.966C4.035 2.91 5.15 2 6.267 2z" fill="#E21836"/>
    <path d="M13.59 2h9.184c1.115 0 .612.909.35 2.027l-3.718 15.966c-.26 1.114-.18 2.024-1.296 2.024H8.925c-1.118 0-1.809-.91-1.546-2.024l3.717-15.966C11.36 2.91 12.474 2 13.59 2z" fill="#00447C"/>
    <path d="M22.41 2h7.987c1.117 0 1.81.909 1.548 2.027l-3.718 15.966c-.263 1.114-1.38 2.024-2.496 2.024h-7.983c-1.117 0-1.81-.91-1.549-2.024l3.719-15.966C20.178 2.91 21.293 2 22.41 2z" fill="#007B84"/>
    <path d="M8.353 7.116c-.822.009-1.064 0-1.142-.018l-.585 2.7c-.12.518-.206.886-.501 1.124a.893.893 0 0 1-.59.206c-.364 0-.576-.181-.612-.524l-.007-.118.111-.697s.582-2.33.686-2.638a.224.224 0 0 0 .009-.035c-1.133.01-1.333 0-1.347-.018-.008.025-.036.17-.036.17l-.594 2.626-.05.222-.1.729c0 .216.043.392.127.541.271.473 1.043.544 1.48.544.562 0 1.09-.12 1.447-.338.619-.365.78-.937.925-1.445l.067-.261s.6-2.42.701-2.735c.004-.017.006-.026.01-.035zm2.039 1.952c-.145 0-.409.035-.646.152-.086.044-.167.095-.253.146l.077-.28-.042-.047c-.503.102-.616.115-1.08.18l-.039.027c-.054.447-.102.783-.302 1.662-.076.324-.155.651-.234.974l.021.041c.476-.025.62-.025 1.034-.018l.034-.037c.052-.269.06-.332.176-.877.054-.259.168-.827.225-1.029.103-.048.205-.095.302-.095.232 0 .204.202.195.283-.01.135-.094.577-.18.957l-.059.244c-.04.181-.084.357-.125.536l.018.036c.47-.025.612-.025 1.013-.018l.047-.037c.072-.42.094-.533.222-1.145l.065-.281c.125-.55.188-.83.093-1.057-.1-.255-.341-.317-.562-.317zm2.277.577c-.25.048-.408.08-.566.1-.157.025-.31.048-.55.082l-.02.017-.018.014c-.025.18-.042.335-.075.517a9.44 9.44 0 0 1-.143.71 2.784 2.784 0 0 1-.114.402c-.03.083-.064.163-.125.395l.014.021.012.02c.226-.01.373-.018.524-.02.152-.005.308 0 .55.002l.022-.017.023-.02c.035-.209.04-.265.062-.367.02-.11.057-.26.147-.665.043-.19.09-.38.134-.574.046-.193.094-.383.14-.573l-.008-.023-.009-.021zm.005-.777c-.226-.134-.624-.092-.891.093-.267.181-.298.438-.072.574.223.13.622.09.887-.095.267-.185.3-.44.076-.572zm1.371 3.097c.458 0 .928-.126 1.282-.501.272-.304.397-.757.44-.943.141-.618.031-.906-.106-1.081-.21-.268-.579-.354-.962-.354-.23 0-.78.023-1.208.418-.309.285-.45.672-.537 1.043-.086.378-.186 1.06.44 1.312.193.083.472.106.651.106zm-.036-1.39c.106-.467.23-.86.55-.86.249 0 .267.293.156.762-.02.104-.111.491-.234.656-.086.122-.188.196-.3.196-.034 0-.233 0-.236-.296a2.012 2.012 0 0 1 .064-.457zm2.904 1.33.036-.036c.051-.27.06-.333.172-.878.056-.259.173-.827.227-1.029.104-.048.204-.095.305-.095.23 0 .202.202.193.283a9.42 9.42 0 0 1-.181.956l-.055.245c-.042.181-.087.357-.128.536l.018.036c.47-.025.608-.025 1.011-.018l.049-.036c.07-.421.09-.534.222-1.146l.063-.281c.126-.55.19-.83.097-1.057-.104-.255-.346-.316-.565-.316-.144 0-.41.034-.645.15a4.288 4.288 0 0 0-.252.147l.072-.28-.039-.047c-.502.102-.617.115-1.081.18l-.036.027a14.25 14.25 0 0 1-.302 1.662c-.076.324-.155.651-.234.974l.021.041c.477-.025.62-.025 1.032-.018zm3.459.018c.03-.144.205-1 .207-1 0 0 .15-.629.159-.652 0 0 .047-.065.094-.09h.07c.653 0 1.392 0 1.97-.427.394-.292.663-.723.784-1.247.03-.128.054-.281.054-.434 0-.2-.04-.4-.157-.554-.295-.413-.883-.42-1.561-.424l-.335.003c-.868.01-1.217.008-1.36-.01l-.035.176-.31 1.444-.78 3.21c.758-.01 1.07-.01 1.2.005zm.576-2.561.33-1.433.01-.074.005-.056.132.013.698.06c.27.104.38.373.303.723-.07.32-.278.59-.545.72-.22.11-.49.12-.767.12h-.18l.014-.073zm2.06 1.24c-.088.373-.188 1.053.435 1.296.198.085.376.11.557.1.191-.01.368-.105.532-.243l-.044.17.028.036a16.57 16.57 0 0 1 1.072-.015l.044-.034c.07-.416.138-.82.322-1.618l.271-1.14-.014-.042c-.501.093-.635.113-1.117.182l-.037.03-.014.112a.689.689 0 0 0-.352-.288c-.214-.085-.717.024-1.15.418-.304.281-.45.667-.533 1.036zm1.052.023c.107-.46.23-.848.55-.848.202 0 .308.187.287.504l-.058.258c-.032.136-.067.271-.1.407a.988.988 0 0 1-.118.238c-.082.116-.278.189-.39.189-.032 0-.23 0-.236-.29a1.999 1.999 0 0 1 .065-.458zm5.496-1.516-.039-.044c-.496.1-.585.116-1.04.177l-.034.034-.006.021-.001-.007c-.34.782-.33.613-.605 1.23l-.003-.076-.07-1.335-.043-.044c-.52.1-.532.116-1.011.177l-.038.034c-.005.016-.005.033-.008.053l.003.006c.06.307.045.238.106.722.028.237.065.476.093.71.047.393.074.586.132 1.184-.324.535-.4.737-.713 1.207l.002.004-.22.347c-.024.037-.047.062-.08.073a.332.332 0 0 1-.143.02h-.122l-.18.602.62.01c.364-.001.593-.171.716-.4l.39-.669h-.006l.041-.047c.263-.565 2.259-3.99 2.259-3.99zm-6.548 7.9h-.264l.975-3.222h.323l.102-.332.01.37c-.012.228.168.43.64.396h.545l.187-.62h-.205c-.118 0-.173-.03-.166-.094l-.01-.375h-1.01v.002c-.326.006-1.3.031-1.498.083-.24.062-.49.243-.49.243l.098-.332H21.3l-.196.66-.988 3.27h-.191l-.188.616h1.881l-.063.206h.927l.062-.206h.26l.204-.665zm-.772-2.567c-.152.042-.433.169-.433.169l.25-.824h.75l-.18.6s-.232.014-.387.055zm.014 1.176s-.235.03-.39.065c-.154.046-.44.192-.44.192l.258-.857h.755l-.183.6zm-.42 1.399h-.753l.218-.723h.75l-.215.723zm1.813-1.999h1.085l-.156.505h-1.1l-.165.552h.962l-.728 1.026a.3.3 0 0 1-.148.123.432.432 0 0 1-.195.057h-.267l-.184.604h.699c.362 0 .577-.165.735-.381l.5-.684.107.694c.023.13.116.206.18.236.07.035.142.095.244.104.109.005.188.008.24.008h.344l.206-.676h-.136c-.077 0-.211-.013-.234-.038-.023-.03-.023-.075-.035-.144l-.109-.696h-.445l.195-.233h1.098l.168-.552h-1.016l.159-.505h1.012l.188-.623h-3.02l-.184.623zm-9.165 2.14.253-.843h1.04l.191-.627H14.92l.16-.518h1.017l.189-.607h-2.548l-.184.607h.578l-.154.518h-.58l-.193.638h.579l-.338 1.114c-.045.148.022.204.064.273a.279.279 0 0 0 .187.136c.102.023.171.036.266.036h1.174l.209-.694-.52.071c-.1 0-.379-.012-.348-.105zm.119-4.034-.264.477a.554.554 0 0 1-.153.198c-.04.025-.12.036-.236.036h-.137l-.184.61h.457c.22 0 .389-.08.47-.121.086-.046.108-.02.175-.085l.155-.133h1.427l.19-.635h-1.045l.182-.347h-1.037zm2.107 4.046c-.024-.035-.007-.097.03-.226l.39-1.29h1.389a9.29 9.29 0 0 0 .443-.013.907.907 0 0 0 .334-.112.625.625 0 0 0 .242-.224c.06-.083.157-.264.24-.543l.49-1.634-1.44.008s-.443.066-.639.138c-.197.08-.478.306-.478.306l.13-.448h-.89l-1.245 4.13c-.044.16-.074.277-.08.347-.003.075.094.15.157.206.075.056.185.047.29.056.112.009.27.014.488.014h.684l.21-.709-.612.058a.161.161 0 0 1-.133-.064zm.672-2.389h1.458l-.093.29c-.012.007-.044-.014-.192.004h-1.262l.09-.294zm.293-.974h1.47l-.106.35s-.693-.007-.804.013c-.488.085-.773.346-.773.346l.213-.71zm1.105 2.237a.156.156 0 0 1-.058.09c-.03.019-.077.026-.149.026h-.207l.012-.354h-.864l-.035 1.73c-.001.124.01.196.102.254.091.072.373.082.751.082h.542l.195-.648-.471.026-.157.01c-.021-.01-.042-.018-.065-.041-.02-.02-.053-.008-.047-.132l.003-.444.494-.02c.267 0 .381-.087.479-.17.093-.079.123-.17.158-.293l.083-.393h-.68l-.086.277z" fill="#FEFEFE"/>
</svg>
