<svg width="28" height="24" viewBox="0 0 28 24" fill="none" xmlns="http://www.w3.org/2000/svg">
    <path d="M6.7 4.5h5.99c.837 0 1.357.682 1.162 1.52l-2.79 11.974c-.196.837-1.033 1.519-1.87 1.519h-5.99c-.835 0-1.356-.682-1.161-1.519L4.83 6.021C5.026 5.18 5.863 4.5 6.701 4.5z" fill="#E21836"/>
    <path d="M12.192 4.5h6.889c.836 0 .459.682.262 1.52l-2.789 11.974c-.195.837-.134 1.519-.972 1.519H8.693c-.838 0-1.356-.682-1.16-1.519l2.79-11.973c.197-.84 1.032-1.521 1.869-1.521z" fill="#00447C"/>
    <path d="M18.807 4.5h5.99c.838 0 1.358.682 1.162 1.52L23.17 17.995c-.197.837-1.035 1.519-1.872 1.519h-5.987c-.838 0-1.358-.682-1.162-1.519l2.79-11.973c.194-.84 1.03-1.521 1.868-1.521z" fill="#007B84"/>
    <path d="M8.264 8.337c-.616.007-.797 0-.856-.013l-.439 2.025c-.09.388-.154.664-.376.843a.67.67 0 0 1-.442.154c-.273 0-.432-.136-.459-.393l-.005-.088.083-.523s.437-1.747.515-1.978a.169.169 0 0 0 .006-.027c-.85.008-1 0-1.01-.013a3.257 3.257 0 0 0-.027.127l-.445 1.97-.039.166-.074.547c0 .162.032.294.096.406.203.355.781.408 1.109.408.422 0 .818-.09 1.085-.254.465-.274.586-.703.694-1.084l.05-.195s.45-1.815.526-2.051c.003-.014.005-.02.008-.027zm1.53 1.464c-.109 0-.307.027-.485.114-.064.033-.125.071-.19.11l.059-.21-.032-.036c-.377.077-.462.087-.81.136l-.03.02c-.04.335-.076.587-.226 1.246a79.01 79.01 0 0 1-.176.73l.017.032a8.68 8.68 0 0 1 .775-.014l.025-.027c.04-.202.045-.25.132-.659.041-.194.127-.62.169-.771a.579.579 0 0 1 .227-.072c.174 0 .153.152.146.213-.007.101-.07.432-.136.717l-.043.184c-.03.135-.064.267-.094.402l.013.027a8.36 8.36 0 0 1 .76-.014l.035-.027c.055-.316.07-.4.167-.86l.049-.21c.094-.413.14-.623.07-.793-.076-.191-.256-.238-.422-.238zm1.708.433c-.187.036-.307.06-.425.075-.118.019-.232.036-.413.061l-.014.013-.014.01c-.018.135-.031.251-.056.388a7.137 7.137 0 0 1-.107.534 2.102 2.102 0 0 1-.086.3c-.023.062-.048.123-.094.297l.011.016.01.014c.168-.008.279-.013.392-.014.114-.004.231 0 .413 0l.016-.012.017-.015c.026-.156.03-.199.046-.275.016-.082.044-.196.111-.5l.1-.43.105-.43-.005-.016-.007-.016zm.004-.583c-.17-.1-.469-.069-.67.07-.2.136-.222.328-.053.43.167.098.467.069.666-.071.2-.139.224-.33.057-.43zm1.028 2.323c.343 0 .696-.095.961-.376.204-.228.298-.568.33-.707.106-.463.024-.68-.08-.811-.156-.201-.433-.265-.721-.265-.173 0-.585.017-.906.313-.231.214-.338.504-.402.783-.065.283-.14.794.33.984.144.062.353.079.488.079zm-.027-1.042c.079-.35.173-.645.412-.645.187 0 .2.219.117.57-.015.079-.083.37-.176.493-.064.091-.14.146-.225.146-.025 0-.174 0-.177-.221 0-.11.021-.222.049-.343zm2.178.997.027-.027c.038-.202.044-.25.129-.659.042-.194.13-.62.17-.771.078-.036.153-.072.228-.072.173 0 .152.152.145.212-.006.102-.07.433-.136.718l-.04.184c-.032.135-.066.267-.097.402l.014.027c.353-.02.456-.02.758-.014l.037-.027c.053-.316.067-.4.166-.86l.048-.21c.094-.414.142-.623.072-.793-.078-.191-.26-.238-.423-.238a1.181 1.181 0 0 0-.673.223l.054-.21-.03-.035c-.376.077-.462.087-.81.136l-.027.02c-.042.335-.076.587-.226 1.246-.057.243-.117.488-.176.73l.016.032c.357-.02.464-.02.774-.014zm2.594.014.155-.751s.112-.471.12-.488c0 0 .035-.05.07-.069h.052c.49 0 1.044 0 1.478-.32.296-.218.497-.542.588-.935.023-.096.04-.21.04-.325 0-.15-.03-.3-.117-.416-.222-.31-.662-.315-1.171-.318l-.251.003c-.652.008-.913.005-1.02-.008l-.026.132-.233 1.083-.585 2.407c.569-.006.802-.006.9.005zm.432-1.921.247-1.076.008-.055.004-.042.099.01.523.045c.202.078.286.28.227.543a.789.789 0 0 1-.409.54c-.164.082-.366.089-.574.089H17.7l.01-.054zm1.545.93c-.066.28-.141.79.326.972a.912.912 0 0 0 .418.075.69.69 0 0 0 .399-.183l-.034.128.022.027c.336-.014.44-.014.804-.011l.033-.026c.053-.312.103-.615.241-1.213l.204-.855-.011-.032c-.376.07-.476.085-.838.136l-.027.023-.011.084a.517.517 0 0 0-.264-.216c-.16-.064-.538.018-.863.313-.228.212-.337.5-.4.778zm.79.017c.08-.345.172-.636.411-.636.152 0 .232.14.215.378-.012.06-.026.122-.043.193-.024.102-.05.204-.075.305a.74.74 0 0 1-.089.18c-.061.086-.208.14-.292.14-.024 0-.172 0-.177-.217-.001-.109.021-.22.05-.343zm4.121-1.137-.03-.034c-.371.076-.438.088-.78.134l-.025.025-.004.016-.001-.006c-.255.587-.247.46-.454.923l-.002-.057-.052-1.001-.033-.034c-.39.076-.399.088-.758.134L22 9.957c-.004.012-.004.025-.007.04l.003.005c.045.23.034.178.079.54.021.179.049.358.07.534.035.294.055.439.099.888-.243.4-.3.552-.535.904l.002.004-.165.26c-.019.028-.036.046-.06.055a.249.249 0 0 1-.108.015h-.09l-.136.451.465.008c.273-.001.445-.129.537-.3l.293-.502h-.005l.031-.035c.197-.424 1.694-2.992 1.694-2.992zm-4.911 5.925h-.198l.73-2.416h.243l.077-.25.008.277c-.01.171.125.323.479.298h.409l.14-.465h-.153c-.089 0-.13-.023-.125-.07l-.007-.282H20.1v.001c-.244.005-.976.024-1.124.063-.179.046-.367.182-.367.182l.074-.25h-.709l-.147.495-.74 2.454h-.145l-.14.462h1.41l-.047.154h.696l.046-.154h.195l.153-.499zm-.58-1.925c-.113.03-.324.126-.324.126l.188-.617h.563l-.136.45s-.174.01-.29.04zm.012.882s-.177.022-.294.048c-.114.035-.33.145-.33.145l.195-.643h.566l-.137.45zm-.316 1.049h-.564l.163-.543h.563l-.162.543zm1.36-1.5h.814l-.117.38h-.825l-.124.414h.722l-.546.769a.225.225 0 0 1-.111.092.325.325 0 0 1-.147.043h-.2l-.137.453h.523a.637.637 0 0 0 .552-.286l.375-.513.08.52a.245.245 0 0 0 .134.177c.053.027.107.072.184.079.082.003.141.006.18.006h.258l.154-.508H21.4c-.059 0-.159-.01-.176-.028-.017-.022-.017-.056-.026-.108l-.082-.522h-.334l.146-.174h.823l.127-.414h-.762l.119-.38h.76l.14-.466H19.87l-.138.467zm-6.874 1.605.19-.632h.78l.143-.47h-.781l.12-.389h.763l.141-.455h-1.91l-.139.455h.434l-.116.39h-.435l-.144.477h.434l-.253.836c-.035.111.016.153.047.205a.21.21 0 0 0 .14.102.84.84 0 0 0 .2.027h.88l.157-.52-.39.053c-.075 0-.284-.01-.26-.079zm.09-3.025-.198.358a.416.416 0 0 1-.115.149c-.03.018-.09.026-.177.026h-.103l-.138.458h.343c.165 0 .291-.06.352-.09.065-.036.082-.016.132-.064l.116-.1h1.07l.142-.477h-.783l.136-.26h-.777zm1.58 3.034c-.018-.026-.005-.072.023-.168l.293-.969h1.04c.152-.002.262-.004.333-.01a.678.678 0 0 0 .25-.084.468.468 0 0 0 .182-.167c.045-.062.118-.198.18-.407l.368-1.226-1.08.006s-.333.05-.48.104c-.147.06-.358.229-.358.229l.097-.336h-.667l-.934 3.098a1.9 1.9 0 0 0-.06.26c-.002.056.07.112.118.155.056.042.138.035.218.042.083.006.201.01.365.01h.513l.157-.532-.459.044a.12.12 0 0 1-.099-.049zm.504-1.791h1.094l-.07.218c-.01.005-.033-.011-.144.002h-.947l.067-.22zm.22-.73h1.102l-.08.262s-.52-.005-.602.01c-.367.063-.58.259-.58.259l.16-.532zm.829 1.677a.116.116 0 0 1-.044.068c-.022.014-.058.019-.111.019h-.156l.009-.265h-.648l-.026 1.297c-.001.093.008.147.076.19.069.055.28.062.564.062h.406l.146-.486-.353.02-.118.007c-.016-.007-.031-.014-.048-.03-.015-.015-.04-.006-.036-.1l.003-.332.37-.016a.48.48 0 0 0 .359-.127c.07-.06.093-.128.119-.22l.062-.294h-.51l-.064.207z" fill="#FEFEFE"/>
</svg>
