<svg xmlns="http://www.w3.org/2000/svg" width="24" height="24" fill="none" viewBox="0 0 24 24"><path fill="currentColor" d="M19 12.902a.79.79 0 0 0-.777-.8H5.777a.79.79 0 0 0-.777.8V19.2c0 .453.36.8.777.8h12.446a.79.79 0 0 0 .777-.8zm2 6.298c0 1.535-1.232 2.8-2.777 2.8H5.777C4.232 22 3 20.735 3 19.2v-6.298c0-1.534 1.232-2.8 2.777-2.8h.779v-2.6a5.53 5.53 0 0 1 1.4-3.685 5.406 5.406 0 0 1 7.278-.742 5.5 5.5 0 0 1 2.102 3.332 1 1 0 0 1-1.961.394 3.5 3.5 0 0 0-1.337-2.122 3.405 3.405 0 0 0-4.59.47 3.53 3.53 0 0 0-.892 2.353v2.6h9.667c1.545 0 2.777 1.266 2.777 2.8z"/></svg>