<svg xmlns="http://www.w3.org/2000/svg" width="24" height="24" fill="none" viewBox="0 0 24 24">
    <path fill="currentColor" d="M15.419 19.232a1 1 0 1 1 .854 1.808 10 10 0 0 1-7.63.38 1 1 0 1 1 .671-1.884c1.995.71 4.19.602 6.105-.304m-12.07-4.55a1 1 0 0 1 1.315.52 8 8 0 0 0 1.943 2.72 1 1 0 1 1-1.347 1.476A10 10 0 0 1 2.83 16a1 1 0 0 1 .519-1.316M11.999 2a9.998 9.998 0 0 1 9.868 11.623 10 10 0 0 1-2.488 5.127 1 1 0 0 1-1.477-1.35A8.003 8.003 0 0 0 16.37 5.3 8 8 0 0 0 12 4h-1V2zm-1 8.815-1.893 1.892a1 1 0 1 1-1.414-1.414l3.6-3.6.073-.066a1 1 0 0 1 1.341.066l3.6 3.6a1 1 0 1 1-1.414 1.414l-1.893-1.892V17h-2zM2.5 8.875a1 1 0 0 1 1.9.625 8 8 0 0 0-.4 2.4 1 1 0 0 1-2-.025c.013-1.02.181-2.031.5-3m3.026-4.497a1 1 0 0 1 1.295 1.524q-.378.321-.713.686a1 1 0 1 1-1.472-1.353q.419-.455.89-.857"/>
</svg>
