<svg width="24" height="24" viewBox="0 0 24 24" fill="none" xmlns="http://www.w3.org/2000/svg">
<path fill-rule="evenodd" clip-rule="evenodd" d="M12 23C18.0752 23 23 18.0751 23 12C23 5.92493 18.0752 1 12 1C5.9248 1 1 5.92493 1 12C1 18.0751 5.9248 23 12 23ZM16.707 9.29285L12.707 5.29285C12.3167 4.90234 11.6833 4.90234 11.293 5.29285L7.29297 9.29285C6.90234 9.68347 6.90234 10.3165 7.29297 10.7072C7.68335 11.0977 8.31665 11.0977 8.70703 10.7072L12 7.41418L15.293 10.7072C15.6833 11.0977 16.3167 11.0977 16.707 10.7072C17.0977 10.3165 17.0977 9.68347 16.707 9.29285ZM16.707 14.2928L12.707 10.2928C12.3167 9.90234 11.6833 9.90234 11.293 10.2928L7.29297 14.2928C6.90234 14.6835 6.90234 15.3165 7.29297 15.7072C7.68335 16.0977 8.31665 16.0977 8.70703 15.7072L11 13.4142V18C11 18.5522 11.4478 19 12 19C12.5522 19 13 18.5522 13 18V13.4142L15.293 15.7072C15.6833 16.0977 16.3167 16.0977 16.707 15.7072C17.0977 15.3165 17.0977 14.6835 16.707 14.2928Z" fill="currentColor"/>
</svg>
