<svg xmlns="http://www.w3.org/2000/svg" width="16" height="16" fill="none" viewBox="0 0 16 16">
    <path fill="currentColor" d="M10.243 12.746a.75.75 0 0 1 .642 1.356 6.75 6.75 0 0 1-5.15.256.75.75 0 0 1 .502-1.413 5.25 5.25 0 0 0 4.006-.199M2.2 9.712a.75.75 0 0 1 .987.39 5.25 5.25 0 0 0 1.276 1.784.75.75 0 0 1-1.012 1.108A6.75 6.75 0 0 1 1.81 10.7a.75.75 0 0 1 .39-.987M8 1.25a6.75 6.75 0 0 1 6.178 4.028 6.75 6.75 0 0 1-1.197 7.279.75.75 0 0 1-1.106-1.013A5.251 5.251 0 0 0 8 2.75h-.75v-1.5zm-.75 6.161-1.12 1.12A.75.75 0 1 1 5.07 7.47l2.4-2.4a.75.75 0 0 1 1.061 0l2.4 2.4a.75.75 0 0 1-1.06 1.06L8.75 7.41v4.007h-1.5zm-5.661-1.52a.75.75 0 1 1 1.425.468 5.3 5.3 0 0 0-.263 1.576.75.75 0 0 1-1.5-.019 6.8 6.8 0 0 1 .338-2.025m2.043-3.036a.75.75 0 1 1 .97 1.143q-.246.21-.467.45a.75.75 0 1 1-1.105-1.014q.284-.308.602-.579"/>
</svg>
