<svg xmlns="http://www.w3.org/2000/svg" width="24" height="24" fill="none" viewBox="0 0 24 24">
    <path fill="currentColor" d="M11.371 12.109a1 1 0 0 1 1.33.068l3.6 3.556a1 1 0 0 1-1.404 1.422l-1.898-1.874v5.72h-2v-5.72l-1.898 1.874a1 1 0 0 1-1.406-1.423l3.6-3.555zM8.725 3.022a7.4 7.4 0 0 1 3.24.475A7.3 7.3 0 0 1 14.67 5.33a7.2 7.2 0 0 1 1.366 2.112h.912c1.08 0 2.134.344 3.004.98a5 5 0 0 1 1.828 2.566 4.96 4.96 0 0 1-.078 3.144 5 5 0 0 1-1.953 2.473 1 1 0 0 1-1.102-1.67 3 3 0 0 0 1.175-1.484 2.96 2.96 0 0 0 .047-1.876 3 3 0 0 0-1.099-1.538 3.1 3.1 0 0 0-1.577-.585l-.245-.01h-1.611a1 1 0 0 1-.957-.71 5.2 5.2 0 0 0-1.174-2.04 5.3 5.3 0 0 0-1.965-1.329 5.38 5.38 0 0 0-4.637.363A5.3 5.3 0 0 0 4.88 7.343a5.15 5.15 0 0 0-.608 4.526c.252.75.675 1.436 1.237 2.003a1 1 0 0 1-1.42 1.408 7.2 7.2 0 0 1-1.713-2.771 7.15 7.15 0 0 1 .843-6.28A7.3 7.3 0 0 1 5.6 3.998a7.36 7.36 0 0 1 3.125-.974"/>
</svg>
