<svg width="16" height="16" viewBox="0 0 16 16" fill="none" xmlns="http://www.w3.org/2000/svg">
  <path
    d="M7.99999 10C9.10456 10 9.99999 9.10457 9.99999 8C9.99999 6.89543 9.10456 6 7.99999 6C6.89542 6 5.99999 6.89543 5.99999 8C5.99999 9.10457 6.89542 10 7.99999 10Z"
    fill="currentColor" />
  <path fill-rule="evenodd" clip-rule="evenodd"
    d="M12.977 13.1192C14.4051 11.939 15.4417 10.3001 15.9345 8.44333C16.0218 8.15515 16.0218 7.84485 15.9345 7.55667C15.4417 5.69985 14.4051 4.061 12.977 2.88085C11.5488 1.7007 9.80441 1.04147 8 1C6.19559 1.04147 4.45119 1.7007 3.02303 2.88085C1.59487 4.061 0.558252 5.69985 0.0654546 7.55667C-0.0218182 7.84485 -0.0218182 8.15515 0.0654546 8.44333C0.558252 10.3001 1.59487 11.939 3.02303 13.1192C4.45119 14.2993 6.19559 14.9585 8 15C9.80441 14.9585 11.5488 14.2993 12.977 13.1192ZM12 8C12 10.2091 10.2092 12 8.00002 12C5.79088 12 4.00002 10.2091 4.00002 8C4.00002 5.79086 5.79088 4 8.00002 4C10.2092 4 12 5.79086 12 8Z"
    fill="currentColor" />
</svg>
