<svg width="16" height="16" viewBox="0 0 16 16" fill="none" xmlns="http://www.w3.org/2000/svg">
    <path d="M8 10a2 2 0 1 0 0-4 2 2 0 0 0 0 4Z" fill="currentColor"/>
    <path fill-rule="evenodd" clip-rule="evenodd" d="M12.977 13.12c1.428-1.181 2.465-2.82 2.957-4.677a1.534 1.534 0 0 0 0-.886C15.442 5.7 14.405 4.06 12.977 2.88 11.549 1.7 9.804 1.04 8 1c-1.804.041-3.549.7-4.977 1.88C1.595 4.062.558 5.7.065 7.558a1.534 1.534 0 0 0 0 .886c.493 1.857 1.53 3.496 2.958 4.676C4.451 14.3 6.196 14.96 8 15c1.804-.041 3.549-.7 4.977-1.88ZM12 8a4 4 0 1 1-8 0 4 4 0 0 1 8 0Z" fill="currentColor"/>
</svg>
