<svg xmlns="http://www.w3.org/2000/svg" width="16" height="16" fill="none" viewBox="0 0 16 16">
    <path fill="currentColor" d="M8 2c1.693 0 3.346.513 4.75 1.472a8.64 8.64 0 0 1 3.008 3.61l.126.295.013.032c.139.381.139.8 0 1.182l-.013.032a8.65 8.65 0 0 1-3.135 3.905A8.4 8.4 0 0 1 8 14a8.4 8.4 0 0 1-4.749-1.472A8.65 8.65 0 0 1 .117 8.623q-.008-.015-.013-.032a1.73 1.73 0 0 1 0-1.182l.013-.032A8.65 8.65 0 0 1 3.25 3.472 8.4 8.4 0 0 1 8.001 2m0 2c-1.287 0-2.547.39-3.62 1.123A6.65 6.65 0 0 0 2.023 8a6.65 6.65 0 0 0 2.355 2.877A6.4 6.4 0 0 0 8 12c1.288 0 2.548-.39 3.622-1.123A6.65 6.65 0 0 0 13.976 8a6.65 6.65 0 0 0-2.354-2.877A6.4 6.4 0 0 0 8 4m1.1 4c0-.65-.511-1.143-1.1-1.143-.588 0-1.1.492-1.1 1.143 0 .65.512 1.143 1.1 1.143S9.1 8.65 9.1 8m2 0c0 1.717-1.368 3.143-3.1 3.143-1.73 0-3.1-1.426-3.1-3.143S6.27 4.857 8 4.857c1.732 0 3.1 1.426 3.1 3.143"/>
</svg>
