<svg xmlns="http://www.w3.org/2000/svg" width="24" height="24" fill="none" viewBox="0 0 24 24">
    <path fill="currentColor" fill-rule="evenodd" d="M11.024 7.096a5 5 0 1 1-1.802 9.061 5.001 5.001 0 0 1 1.802-9.061M12 9a3.002 3.002 0 0 0-2.943 3.585A3.001 3.001 0 0 0 15 12a3 3 0 0 0-3-3" clip-rule="evenodd"/>
    <path fill="currentColor" fill-rule="evenodd" d="M12 3a11.6 11.6 0 0 1 10.91 8.43c.12.37.12.77 0 1.14a11.6 11.6 0 0 1-4.066 6.012l-.374.276A11.6 11.6 0 0 1 12 21a11.6 11.6 0 0 1-6.47-2.142l-.374-.276A11.6 11.6 0 0 1 1.09 12.57c-.12-.37-.12-.77 0-1.14a11.6 11.6 0 0 1 3.705-5.72l.361-.292A11.6 11.6 0 0 1 12 3m0 2.001a9.6 9.6 0 0 0-5.312 1.77l-.308.23a9.6 9.6 0 0 0-3.254 4.607l-.112.369-.007.023.007.023.112.369a9.6 9.6 0 0 0 3.254 4.607l.308.23A9.6 9.6 0 0 0 12 18.998a9.6 9.6 0 0 0 5.62-1.999l.3-.241a9.6 9.6 0 0 0 3.066-4.735l.006-.023-.006-.023a9.6 9.6 0 0 0-3.066-4.735l-.3-.241a9.6 9.6 0 0 0-5.62-2" clip-rule="evenodd"/>
</svg>
