<svg xmlns="http://www.w3.org/2000/svg" width="24" height="24" fill="none" viewBox="0 0 24 24">
    <path fill="currentColor" d="M12 4.5c2.202 0 4.352.65 6.177 1.864a11 11 0 0 1 4.074 4.942q.008.015.013.032c.16.427.16.897 0 1.324l-.013.032a11 11 0 0 1-4.074 4.942A11.16 11.16 0 0 1 12 19.5c-2.203 0-4.353-.65-6.179-1.864a11 11 0 0 1-4.073-4.942q-.008-.015-.013-.032a1.9 1.9 0 0 1 0-1.324l.013-.032A11 11 0 0 1 5.82 6.364 11.16 11.16 0 0 1 12 4.5m0 2a9.03 9.03 0 0 0-4.998 1.51A9 9 0 0 0 3.696 12a9 9 0 0 0 3.306 3.99 9.025 9.025 0 0 0 9.995 0A9 9 0 0 0 20.302 12a9 9 0 0 0-3.305-3.99A9.03 9.03 0 0 0 12 6.5m1.765 5.5A1.776 1.776 0 0 0 12 10.214c-.944 0-1.765.77-1.765 1.786s.821 1.786 1.765 1.786c.945 0 1.766-.77 1.766-1.786m2.077 0c0 2.061-1.69 3.786-3.843 3.786S8.157 14.061 8.157 12s1.69-3.786 3.842-3.786S15.843 9.939 15.843 12"/>
</svg>
