<svg xmlns="http://www.w3.org/2000/svg" width="24" height="24" fill="none" viewBox="0 0 24 24">
    <path fill="currentColor" d="M11.167 13.747a1.5 1.5 0 1 0 1.667-2.495 1.5 1.5 0 0 0-1.667 2.495"/>
    <path fill="currentColor" fill-rule="evenodd" d="M4 2h16a3.01 3.01 0 0 1 3 3v10a3.01 3.01 0 0 1-3 3H4a3.01 3.01 0 0 1-3-3V5a3.01 3.01 0 0 1 3-3m-.704 2.296c.187-.188.442-.295.708-.296h15.992A1.01 1.01 0 0 1 21 5.004v9.992A1.01 1.01 0 0 1 19.996 16H4.004A1.01 1.01 0 0 1 3 14.996V5.004c.001-.266.108-.52.296-.708" clip-rule="evenodd"/>
    <path fill="currentColor" d="M14 22h-4a1 1 0 0 1 0-2h4a1 1 0 0 1 0 2"/>
</svg>
