<svg xmlns="http://www.w3.org/2000/svg" width="24" height="24" fill="none" viewBox="0 0 24 24">
    <path fill="currentColor" d="M14 19a1 1 0 0 1 0 2h-4a1 1 0 0 1 0-2zm5.273-15.954A2.737 2.737 0 0 1 22 5.773v9.091a2.74 2.74 0 0 1-.8 1.926l-.201.182c-.415.34-.923.55-1.457.605l-.27.015H4.729l-.27-.015A2.737 2.737 0 0 1 2 14.864v-9.09a2.737 2.737 0 0 1 2.728-2.728zM4.59 5.06a.735.735 0 0 0-.59.718v9.08l.015.143a.74.74 0 0 0 .718.59h14.534a.736.736 0 0 0 .733-.734V5.78l-.015-.143a.74.74 0 0 0-.575-.575l-.143-.015H4.733zM12 10a2 2 0 1 1 0 4 2 2 0 0 1 0-4"/>
</svg>
