<svg width="32" height="24" viewBox="0 0 32 24" fill="none" xmlns="http://www.w3.org/2000/svg">
    <rect x=".5" y=".5" width="31" height="23" rx="3.5" fill="#FAFBFC"/>
    <path fill-rule="evenodd" clip-rule="evenodd" d="M20.964 13.713c.005-1.173-.958-1.684-1.729-2.092-.517-.274-.947-.502-.94-.853.006-.266.257-.55.808-.622.273-.036 1.025-.065 1.878.332l.334-1.576a5.093 5.093 0 0 0-1.782-.328c-1.883 0-3.207 1.009-3.218 2.455-.012 1.07.946 1.666 1.667 2.023.743.364.992.597.988.923-.005.498-.593.719-1.14.727-.931.014-1.483-.247-1.92-.454l-.035-.016-.346 1.63c.446.205 1.267.384 2.117.393 2.002 0 3.311-.997 3.317-2.542h.001zm-7.89-5.004-3.086 7.43H7.975l-1.519-5.93c-.092-.364-.172-.498-.452-.652-.458-.251-1.215-.486-1.88-.632l.046-.216h3.24c.414 0 .785.278.88.757l.802 4.3 1.981-5.057h2.001zm14.622 7.43h-1.76l-.23-1.11h-2.444l-.398 1.11h-2l2.858-6.885a.867.867 0 0 1 .812-.545h1.624l1.538 7.43zm-3.886-2.632 1.002-2.79.577 2.79H23.81zm-9.589 2.632 1.575-7.43h-1.905l-1.575 7.43h1.905z" fill="#1A1F71"/>
    <rect x=".5" y=".5" width="31" height="23" rx="3.5" stroke="#CCC"/>
</svg>
