<svg xmlns="http://www.w3.org/2000/svg" width="32" height="24" fill="none" viewBox="0 0 32 24">
    <rect width="31" height="23" x=".5" y=".5" fill="#fff" stroke="#CCC" rx="3.5"/>
    <path fill="#1434CB" d="M12.112 8.137 8.97 15.634H6.92L5.374 9.65c-.094-.368-.175-.503-.461-.659-.466-.253-1.236-.49-1.913-.637l.046-.218h3.3c.42 0 .799.28.894.764l.817 4.338 2.018-5.102h2.037Zm8.033 5.05c.008-1.98-2.736-2.088-2.718-2.972.006-.27.262-.555.823-.628.278-.037 1.044-.064 1.912.335l.34-1.59A5.21 5.21 0 0 0 18.69 8c-1.917 0-3.266 1.019-3.278 2.478-.012 1.08.963 1.682 1.698 2.04.756.367 1.01.603 1.007.932-.006.503-.603.725-1.162.734-.974.015-1.54-.264-1.99-.474l-.352 1.643c.453.207 1.29.389 2.156.398 2.038 0 3.37-1.006 3.377-2.565Zm5.061 2.447H27l-1.566-7.497H23.78a.882.882 0 0 0-.825.55l-2.91 6.947h2.036l.404-1.12h2.488l.234 1.12Zm-2.163-2.657 1.02-2.814.588 2.814h-1.608Zm-8.16-4.84-1.603 7.497h-1.94l1.605-7.497h1.938Z"/>
</svg>
