<svg width="32" height="24" viewBox="0 0 32 24" fill="none" xmlns="http://www.w3.org/2000/svg">
    <rect x=".5" y=".5" width="31" height="23" rx="3.5" fill="#fff" stroke="#CCC"/>
    <path d="m12.732 8.131-3.01 7.184H7.756L6.275 9.582c-.09-.353-.168-.482-.442-.631C5.388 8.708 4.65 8.48 4 8.34l.044-.209h3.163c.402 0 .765.268.857.732l.783 4.158 1.933-4.89h1.953zm2.656 0-1.536 7.184h-1.859L13.53 8.13h1.858zm5.042 4.838c.008-1.895-2.621-2-2.604-2.847.006-.258.252-.532.788-.602.267-.034 1.001-.062 1.833.322l.326-1.525A5.01 5.01 0 0 0 19.035 8c-1.838 0-3.13.976-3.14 2.374-.012 1.035.923 1.611 1.626 1.956.724.352.967.578.964.892-.005.482-.578.696-1.112.704-.934.014-1.476-.253-1.908-.454l-.338 1.574c.435.2 1.236.373 2.066.382 1.954 0 3.231-.965 3.237-2.459zm4.852 2.346H27L25.499 8.13h-1.586a.846.846 0 0 0-.791.527l-2.789 6.657h1.952l.387-1.073h2.384l.226 1.073zm-2.075-2.545.979-2.698.562 2.698h-1.541zm-5.44 4.522h-.755v.703h.845v.211h-1.1v-1.95h1.056v.212h-.801v.616h.755v.208zm.48-1.14h.254v2.054h-.254v-2.053zm.896 1.4c.006.345.223.487.48.487a.913.913 0 0 0 .388-.073l.046.183c-.09.04-.245.09-.468.09-.431 0-.689-.287-.689-.71 0-.422.249-.752.657-.752.46 0 .579.4.579.657a.61.61 0 0 1-.01.119h-.983zm.747-.182c.002-.159-.067-.41-.353-.41-.26 0-.37.234-.391.41h.744zm1.63.787a.983.983 0 0 1-.401.081c-.423 0-.698-.286-.698-.714 0-.431.295-.747.752-.747a.8.8 0 0 1 .353.076l-.057.193a.624.624 0 0 0-.296-.066c-.32 0-.494.24-.494.53 0 .323.208.523.486.523.144 0 .24-.035.312-.067l.044.191zm.715-1.686v.335h.364V17h-.364v.755c0 .174.049.272.19.272.07 0 .11-.006.148-.017l.012.194a.696.696 0 0 1-.226.034.363.363 0 0 1-.275-.107c-.07-.078-.098-.202-.098-.367V17h-.217v-.194h.217v-.26l.249-.075zm.72.772a6.74 6.74 0 0 0-.012-.437h.223l.011.278h.009c.064-.188.22-.307.39-.307.026 0 .047.003.07.006v.24c-.026-.006-.052-.006-.087-.006-.18 0-.307.133-.341.325a.772.772 0 0 0-.009.118v.746h-.254v-.963zm2.256.252c0 .518-.362.743-.698.743-.376 0-.67-.278-.67-.72 0-.466.309-.74.694-.74.402 0 .674.291.674.717zm-1.108.014c0 .307.173.538.422.538.243 0 .425-.228.425-.544 0-.237-.118-.535-.42-.535-.297 0-.427.278-.427.541zm1.498-.324a5.04 5.04 0 0 0-.012-.379h.226l.014.232h.006c.07-.13.231-.26.463-.26.194 0 .494.115.494.595v.833h-.254V17.4c0-.225-.084-.413-.324-.413a.367.367 0 0 0-.341.26.36.36 0 0 0-.018.119v.841h-.254v-1.02z" fill="#1A1F71"/>
</svg>
