<svg xmlns="http://www.w3.org/2000/svg" width="32" height="24" fill="none" viewBox="0 0 32 24">
    <rect width="31" height="23" x=".5" y=".5" fill="#fff" stroke="#CCC" rx="3.5"/>
    <path fill="#1334CB" d="M12.367 7.634 9.31 14.93H7.315L5.81 9.107c-.091-.358-.171-.49-.448-.641-.455-.246-1.205-.476-1.863-.62l.044-.212h3.213c.408 0 .776.273.87.744l.795 4.221 1.962-4.965h1.983Zm7.816 4.913c.008-1.924-2.662-2.032-2.643-2.892.006-.262.255-.54.8-.611.271-.035 1.017-.063 1.862.327l.33-1.549a5.084 5.084 0 0 0-1.765-.322c-1.866 0-3.178.99-3.189 2.411-.012 1.051.938 1.636 1.652 1.986.736.358.982.587.979.906-.006.49-.587.706-1.129.715-.95.015-1.5-.256-1.938-.46l-.343 1.599c.44.202 1.255.378 2.098.387 1.983 0 3.28-.98 3.286-2.497Zm4.927 2.382h1.745l-1.524-7.295h-1.61a.858.858 0 0 0-.803.535l-2.832 6.76h1.982l.393-1.09h2.422l.229 1.09h-.002Zm-2.106-2.584.994-2.74.57 2.74h-1.564Zm-7.94-4.71-1.56 7.294h-1.886l1.559-7.295h1.888ZM16.206 18.353v-1.972h1.233v.21h-.98v.63h.78v.208h-.78v.713h.98v.21h-1.233v.001ZM18.064 16.303v2.05h-.231v-2.05h.231ZM19.165 18.203c.13 0 .238-.016.32-.048a.82.82 0 0 0 .221-.128h.006l-.02.21a.652.652 0 0 1-.203.103c-.092.033-.205.05-.343.05a.751.751 0 0 1-.39-.098.687.687 0 0 1-.26-.273.821.821 0 0 1-.093-.397c0-.148.03-.28.091-.396a.7.7 0 0 1 .252-.274.658.658 0 0 1 .36-.1c.153 0 .278.028.374.083.097.054.167.13.21.228a.836.836 0 0 1 .066.341c0 .018 0 .038-.002.063a.822.822 0 0 1-.008.065h-1.108l.001.005v.006a.602.602 0 0 0 .144.413c.093.1.22.15.382.15v-.003Zm-.058-1.175c-.13 0-.234.04-.313.119a.546.546 0 0 0-.145.332h.884v-.026a.591.591 0 0 0-.039-.225.3.3 0 0 0-.13-.148.512.512 0 0 0-.256-.053ZM20 17.621c0-.149.03-.28.091-.396a.674.674 0 0 1 .258-.274c.11-.067.24-.1.389-.1.13 0 .233.016.31.045.077.029.134.06.17.093l.024.244h-.006a.716.716 0 0 0-.212-.14.702.702 0 0 0-.273-.05.477.477 0 0 0-.448.268.675.675 0 0 0-.066.311c0 .182.049.323.147.423.098.1.225.15.38.15a.878.878 0 0 0 .21-.021.55.55 0 0 0 .152-.063c.044-.027.088-.057.13-.092h.009l-.024.21a.575.575 0 0 1-.188.11.857.857 0 0 1-.316.051.744.744 0 0 1-.39-.098.679.679 0 0 1-.257-.273.845.845 0 0 1-.09-.397ZM21.908 17.959c0 .093.02.155.06.188a.24.24 0 0 0 .155.047c.058 0 .11-.005.153-.015a.503.503 0 0 0 .107-.037h.007l-.02.195a.454.454 0 0 1-.117.037.767.767 0 0 1-.158.015.466.466 0 0 1-.306-.092c-.075-.062-.112-.162-.112-.303v-.916h-.27l.032-.153.238-.034v-.313l.232-.034v.343h.449l-.029.193h-.42v.88l-.001-.001ZM23.246 17.09a.336.336 0 0 0-.267.108c-.063.07-.096.18-.096.325v.83h-.231v-1.466h.22v.306h.013c.033-.127.089-.217.169-.267a.484.484 0 0 1 .33-.071c.024.002.04.005.052.008l-.029.252H23.4a.517.517 0 0 0-.154-.026ZM24.31 16.85c.144 0 .27.034.38.1.111.067.197.158.26.273a.821.821 0 0 1 .092.397.833.833 0 0 1-.093.397.697.697 0 0 1-.639.37.7.7 0 0 1-.638-.37.82.82 0 0 1-.093-.397c0-.148.032-.28.093-.397a.702.702 0 0 1 .638-.373Zm0 1.348c.163 0 .286-.052.368-.155.082-.103.123-.243.123-.422 0-.178-.04-.32-.123-.423-.082-.103-.204-.155-.368-.155-.163 0-.285.052-.368.155-.084.102-.125.244-.125.423 0 .18.041.32.125.422.083.103.205.155.368.155ZM26.137 16.85c.16 0 .284.041.375.123.09.08.135.208.135.381v1h-.228v-.935c0-.123-.026-.215-.08-.277-.052-.061-.147-.092-.286-.092a.483.483 0 0 0-.221.05.397.397 0 0 0-.158.14.389.389 0 0 0-.059.216v.897h-.231v-1.466h.22v.312h.014a.463.463 0 0 1 .125-.202.517.517 0 0 1 .19-.11.636.636 0 0 1 .206-.035l-.002-.002Z"/>
</svg>
