<svg xmlns="http://www.w3.org/2000/svg" width="32" height="24" fill="none" viewBox="0 0 32 24">
    <rect width="31" height="23" x=".5" y=".5" fill="#fff" stroke="#ccc" rx="3.5"/>
    <path fill="#1334cb" d="M12.367 7.634 9.31 14.93H7.315L5.81 9.107c-.091-.358-.171-.49-.448-.641-.455-.246-1.205-.476-1.863-.62l.044-.212h3.213c.408 0 .776.273.87.744l.795 4.221 1.962-4.965zm7.816 4.913c.008-1.924-2.662-2.032-2.643-2.892.006-.262.255-.54.8-.611.271-.035 1.017-.063 1.862.327l.33-1.549a5.1 5.1 0 0 0-1.765-.322c-1.866 0-3.178.99-3.189 2.411-.012 1.051.938 1.636 1.652 1.986.736.358.982.587.979.906-.006.49-.587.706-1.129.715-.95.015-1.5-.256-1.938-.46l-.343 1.599c.44.202 1.255.378 2.098.387 1.983 0 3.28-.98 3.286-2.497m4.927 2.382h1.745l-1.524-7.295h-1.61a.86.86 0 0 0-.803.535l-2.832 6.76h1.982l.393-1.09h2.422l.229 1.09zm-2.106-2.584.994-2.74.57 2.74zm-7.94-4.71-1.56 7.294h-1.886l1.559-7.295zM16.206 18.353v-1.972h1.233v.21h-.98v.63h.78v.208h-.78v.713h.98v.21zM18.064 16.303v2.05h-.231v-2.05zM19.165 18.203q.196 0 .32-.048a.8.8 0 0 0 .221-.128h.006l-.02.21a.7.7 0 0 1-.203.103q-.137.05-.343.05a.75.75 0 0 1-.39-.098.7.7 0 0 1-.26-.273.8.8 0 0 1-.093-.397q0-.222.091-.396a.7.7 0 0 1 .252-.274.66.66 0 0 1 .36-.1q.23 0 .374.083.146.081.21.228a.8.8 0 0 1 .066.341q0 .026-.002.063l-.008.065h-1.108l.001.005v.006a.6.6 0 0 0 .144.413q.14.15.382.15zm-.058-1.175q-.195 0-.313.119a.55.55 0 0 0-.145.332h.884v-.026a.6.6 0 0 0-.039-.225.3.3 0 0 0-.13-.148.5.5 0 0 0-.256-.053M20 17.621q0-.223.091-.396a.67.67 0 0 1 .258-.274q.165-.1.389-.1.195 0 .31.045.116.044.17.093l.024.244h-.006a.7.7 0 0 0-.212-.14.7.7 0 0 0-.273-.05.477.477 0 0 0-.448.268.7.7 0 0 0-.066.311q0 .273.147.423t.38.15a1 1 0 0 0 .21-.021.6.6 0 0 0 .152-.063q.066-.04.13-.092h.009l-.024.21a.6.6 0 0 1-.188.11.9.9 0 0 1-.316.051.74.74 0 0 1-.39-.098.7.7 0 0 1-.257-.273.85.85 0 0 1-.09-.397M21.908 17.959q0 .139.06.188a.24.24 0 0 0 .155.047q.088 0 .153-.015a.5.5 0 0 0 .107-.037h.007l-.02.195a.5.5 0 0 1-.117.037 1 1 0 0 1-.158.015.47.47 0 0 1-.306-.092q-.112-.092-.112-.303v-.916h-.27l.032-.153.238-.034v-.313l.232-.034v.343h.449l-.029.193h-.42zM23.246 17.09a.34.34 0 0 0-.267.108q-.095.106-.096.325v.83h-.231v-1.466h.22v.306h.013q.05-.191.169-.267a.48.48 0 0 1 .33-.071q.035.003.052.008l-.029.252H23.4a.5.5 0 0 0-.154-.026M24.31 16.85q.216 0 .38.1.166.1.26.273a.8.8 0 0 1 .092.397.83.83 0 0 1-.093.397.7.7 0 0 1-.639.37.7.7 0 0 1-.638-.37.8.8 0 0 1-.093-.397q0-.222.093-.397a.7.7 0 0 1 .638-.373m0 1.348q.245 0 .368-.155.123-.154.123-.422t-.123-.423q-.123-.155-.368-.155-.244 0-.368.155-.125.154-.125.423 0 .27.125.422.124.155.368.155M26.138 16.85q.238 0 .374.123.135.12.135.381v1h-.228v-.935q0-.184-.08-.277-.078-.092-.286-.092a.5.5 0 0 0-.221.05.4.4 0 0 0-.158.14.4.4 0 0 0-.059.216v.897h-.231v-1.466h.22v.312h.014a.46.46 0 0 1 .125-.202.5.5 0 0 1 .19-.11.6.6 0 0 1 .206-.035z"/>
</svg>
