<svg xmlns="http://www.w3.org/2000/svg" width="28" height="24" fill="none" viewBox="0 0 28 24">
    <path fill="#1334CB" d="m10.871 6.15-3.404 8.12h-2.22L3.571 7.79c-.1-.399-.19-.546-.498-.714-.507-.273-1.341-.53-2.074-.69l.05-.236h3.575c.455 0 .865.304.97.828l.884 4.7 2.185-5.528h2.207Zm8.701 5.469c.009-2.143-2.963-2.262-2.943-3.22.008-.291.284-.6.892-.68.301-.039 1.132-.07 2.072.363l.368-1.723A5.66 5.66 0 0 0 17.996 6c-2.078 0-3.538 1.103-3.55 2.684-.013 1.17 1.043 1.821 1.84 2.211.818.399 1.092.654 1.088 1.009-.006.545-.653.786-1.256.796-1.057.016-1.67-.286-2.158-.513l-.382 1.78c.491.225 1.398.421 2.336.43 2.208 0 3.652-1.09 3.658-2.778Zm5.485 2.651H27l-1.697-8.12H23.51a.955.955 0 0 0-.895.595l-3.152 7.525h2.206l.438-1.213h2.697l.253 1.213Zm-2.344-2.877 1.106-3.05.635 3.05h-1.741ZM13.874 6.15l-1.737 8.121h-2.1l1.736-8.12h2.101ZM15.145 18.082v-2.195h1.372v.233h-1.091v.702h.869v.231h-.87v.794h1.092v.234h-1.372v.001ZM17.213 15.8v2.282h-.257V15.8h.257ZM18.439 17.915c.145 0 .264-.018.356-.053a.915.915 0 0 0 .246-.143h.006l-.022.233a.726.726 0 0 1-.226.116 1.152 1.152 0 0 1-.381.055.836.836 0 0 1-.434-.11.764.764 0 0 1-.29-.303.914.914 0 0 1-.104-.441c0-.165.034-.313.102-.442a.779.779 0 0 1 .28-.305.732.732 0 0 1 .4-.11c.171 0 .31.03.418.091.107.06.185.146.233.254a.931.931 0 0 1 .074.38c0 .02 0 .043-.003.07a.937.937 0 0 1-.008.072h-1.234s0 .004.002.006c0 .003 0 .004-.002.006.004.195.058.348.162.46a.55.55 0 0 0 .425.168v-.004Zm-.064-1.308a.473.473 0 0 0-.35.132.608.608 0 0 0-.16.37h.984v-.03a.66.66 0 0 0-.043-.25.334.334 0 0 0-.146-.165.57.57 0 0 0-.284-.059l-.001.002ZM19.369 17.267c0-.166.034-.313.101-.441a.751.751 0 0 1 .286-.305.818.818 0 0 1 .434-.11c.144 0 .26.016.345.049a.61.61 0 0 1 .19.103l.026.272h-.006a.797.797 0 0 0-.236-.156.781.781 0 0 0-.305-.056.532.532 0 0 0-.498.299.751.751 0 0 0-.073.347c0 .202.054.358.163.47.108.112.25.168.424.168.093 0 .17-.009.233-.025a.61.61 0 0 0 .169-.07c.05-.03.097-.063.145-.102h.009l-.026.234a.64.64 0 0 1-.21.123.955.955 0 0 1-.351.056.829.829 0 0 1-.434-.11.756.756 0 0 1-.286-.303.94.94 0 0 1-.101-.441v-.002ZM21.492 17.643c0 .103.022.173.066.21a.266.266 0 0 0 .174.052.786.786 0 0 0 .17-.017.55.55 0 0 0 .118-.04h.009l-.023.216a.504.504 0 0 1-.13.041.864.864 0 0 1-.176.017.518.518 0 0 1-.34-.102c-.083-.069-.124-.18-.124-.337v-1.02h-.301l.035-.17.266-.038v-.35l.257-.037v.382h.5l-.031.214h-.469v.98-.001ZM22.982 16.675a.374.374 0 0 0-.297.12c-.071.08-.107.201-.107.363v.924h-.258V16.45h.246v.34h.014c.036-.141.099-.241.188-.297a.538.538 0 0 1 .368-.079.296.296 0 0 1 .057.01l-.031.28h-.009a.567.567 0 0 0-.17-.029ZM24.167 16.41c.16 0 .3.037.423.11a.786.786 0 0 1 .288.304c.07.13.104.277.104.442a.928.928 0 0 1-.104.442.775.775 0 0 1-.711.413.778.778 0 0 1-.71-.413.914.914 0 0 1-.104-.442c0-.165.035-.313.103-.442a.782.782 0 0 1 .71-.415Zm0 1.499c.18 0 .317-.058.409-.172.091-.115.137-.271.137-.47 0-.198-.046-.357-.137-.471-.092-.115-.228-.173-.41-.173-.181 0-.317.058-.41.172-.093.115-.138.272-.138.472 0 .2.046.355.138.47.093.114.229.172.41.172ZM26.2 16.41c.178 0 .316.045.417.135.1.09.15.232.15.425v1.112h-.253v-1.04c0-.137-.03-.24-.088-.308-.06-.069-.165-.102-.32-.102a.54.54 0 0 0-.246.055.442.442 0 0 0-.176.157.432.432 0 0 0-.065.24v.998h-.257V16.45h.245v.347h.015a.517.517 0 0 1 .14-.224.577.577 0 0 1 .21-.124.708.708 0 0 1 .23-.039h-.001Z"/>
</svg>
