<svg width="28" height="24" viewBox="0 0 28 24" fill="none" xmlns="http://www.w3.org/2000/svg">
    <path d="M26 4.2H2v15.245h24V4.2z" fill="#fff"/>
    <path d="M25.604 16.968H2.401v2.081h23.203v-2.081z" fill="#F8B600"/>
    <path d="M25.604 4.6H2.401v2.082h23.203V4.601zM13.802 8.971l-1.227 5.717h-1.477l1.221-5.717h1.483zm6.22 3.694.782-2.149.444 2.15h-1.226zm1.651 2.024h1.372L21.847 8.97h-1.26a.676.676 0 0 0-.633.42l-2.216 5.312h1.555l.304-.845h1.898l.178.83zm-3.863-1.864c0-1.512-2.086-1.594-2.072-2.27 0-.203.198-.42.628-.483.497-.045.997.043 1.449.256l.256-1.212a3.92 3.92 0 0 0-1.381-.251c-1.449 0-2.492.772-2.502 1.888 0 .82.734 1.28 1.294 1.555.56.275.773.459.768.71 0 .386-.459.555-.883.56a3.037 3.037 0 0 1-1.522-.362l-.256 1.26c.524.203 1.08.306 1.642.304 1.555 0 2.574-.768 2.58-1.955zM11.682 8.96 9.268 14.68h-1.54l-1.18-4.554a.633.633 0 0 0-.352-.483 6.147 6.147 0 0 0-1.448-.483l.033-.169h2.53a.695.695 0 0 1 .687.585l.623 3.308 1.535-3.893 1.526-.029z" fill="#1A1F71"/>
</svg>
