<svg xmlns="http://www.w3.org/2000/svg" width="28" height="24" fill="none" viewBox="0 0 28 24">
    <path fill="#1434CB" d="M10.872 8.148 7.468 16.27H5.247L3.572 9.789c-.102-.4-.19-.546-.5-.714-.504-.274-1.338-.53-2.072-.69l.05-.237h3.575c.455 0 .865.304.968.828l.885 4.7 2.187-5.528h2.207Zm8.701 5.47c.01-2.143-2.964-2.261-2.943-3.219.006-.291.284-.601.891-.68.301-.04 1.13-.07 2.071.363l.37-1.722A5.645 5.645 0 0 0 17.995 8c-2.077 0-3.538 1.104-3.55 2.685-.014 1.169 1.043 1.821 1.839 2.21.819.398 1.093.653 1.09 1.01-.006.544-.653.784-1.258.794-1.056.016-1.669-.286-2.157-.513l-.38 1.78c.49.225 1.396.421 2.336.43 2.207 0 3.65-1.09 3.657-2.778Zm5.484 2.652H27l-1.696-8.122H23.51a.956.956 0 0 0-.894.596l-3.152 7.526h2.206l.438-1.213h2.695l.254 1.213Zm-2.344-2.878 1.105-3.049.637 3.05h-1.742Zm-8.84-5.244-1.737 8.122h-2.1l1.737-8.122h2.1Z"/>
</svg>
