<svg xmlns="http://www.w3.org/2000/svg" width="24" height="24" fill="none" viewBox="0 0 24 24">
    <path fill="currentColor" d="M10.262 4.013c.245-.032.494-.006.727.074l.115.045.11.053c.218.114.405.275.55.468l.07.099.062.105c.134.246.203.522.204.801v13.679c0 .32-.09.636-.265.908a1.64 1.64 0 0 1-.73.623 1.61 1.61 0 0 1-1.811-.37l-3.044-3.17-.002-.003a.3.3 0 0 0-.084-.06.2.2 0 0 0-.087-.017H3.9a1.88 1.88 0 0 1-1.358-.582A1.96 1.96 0 0 1 2 15.311V9.688c0-.501.19-.99.542-1.356l.139-.13A1.88 1.88 0 0 1 3.9 7.75h2.176a.2.2 0 0 0 .087-.018.3.3 0 0 0 .084-.06l.003-.001 3.045-3.17c.227-.236.52-.4.844-.468zM20 12.499a7.7 7.7 0 0 0-.546-2.858 7.5 7.5 0 0 0-1.548-2.413 1 1 0 1 1 1.443-1.385A9.5 9.5 0 0 1 21.312 8.9a9.74 9.74 0 0 1 0 7.196 9.5 9.5 0 0 1-1.963 3.058 1 1 0 1 1-1.443-1.384 7.5 7.5 0 0 0 1.548-2.414A7.7 7.7 0 0 0 20 12.5M7.694 9.053h.001a2.3 2.3 0 0 1-.739.515c-.278.12-.578.182-.882.181v.001H4v5.498h2.074c.304 0 .604.062.882.182s.529.295.737.512l2.407 2.506V6.55zm7.806 3.446c0-.807-.252-1.588-.712-2.226a1 1 0 0 1 1.623-1.17A5.8 5.8 0 0 1 17.5 12.5c0 1.22-.38 2.412-1.089 3.396a1 1 0 1 1-1.623-1.17c.46-.638.712-1.419.712-2.226"/>
</svg>
