<svg xmlns="http://www.w3.org/2000/svg" width="24" height="24" fill="none" viewBox="0 0 24 24">
    <path fill="currentColor" d="M17.006 16.4c-.267 0-.523-.106-.711-.294a1 1 0 0 1-.16-1.207 5.83 5.83 0 0 0 .81-2.973 5.8 5.8 0 0 0-.808-2.968.995.995 0 0 1 .363-1.315 1.01 1.01 0 0 1 1.346.27l.03.051a7.9 7.9 0 0 1 1.083 3.97 7.87 7.87 0 0 1-1.084 3.968 1 1 0 0 1-.87.497m4.324 1.673A12.2 12.2 0 0 0 23 11.93a12.2 12.2 0 0 0-1.674-6.144 1.005 1.005 0 0 0-1.341-.394.995.995 0 0 0-.44 1.32q.02.038.043.073a10.2 10.2 0 0 1 1.398 5.146 10.2 10.2 0 0 1-1.408 5.142.995.995 0 0 0 .392 1.321 1.01 1.01 0 0 0 1.347-.32zM7.01 6.908s3.615-2.768 4.95-3.6 3.065.124 3.065 1.695v13.994c0 1.57-1.73 2.528-3.065 1.696s-4.95-3.695-4.95-3.695H3.005a2 2 0 0 1-2.004-2v-6.09c0-1.105.897-2 2.004-2z"/>
</svg>
