<svg width="24" height="24" viewBox="0 0 24 24" fill="none" xmlns="http://www.w3.org/2000/svg">
<path d="M17.0057 16.3991C16.739 16.3991 16.4832 16.2938 16.2946 16.1062C16.106 15.9187 16 15.6643 16 15.3991C15.9992 15.2235 16.0458 15.0508 16.1348 14.8991C16.6671 13.9979 16.9471 12.9713 16.9454 11.9261C16.9472 10.8827 16.6679 9.85793 16.1368 8.95811C16.0186 8.7338 15.9905 8.47329 16.058 8.22915C16.1255 7.98501 16.2836 7.77542 16.5005 7.64268C16.7173 7.50994 16.9768 7.46392 17.2264 7.51393C17.476 7.56393 17.6973 7.70623 17.8455 7.91211C17.8566 7.92911 17.8667 7.94711 17.8757 7.96411C18.5819 9.16958 18.9556 10.539 18.9589 11.9341C18.9561 13.3287 18.582 14.6978 17.8747 15.9021C17.7862 16.0533 17.6594 16.1787 17.5069 16.2659C17.3545 16.3531 17.1816 16.3991 17.0057 16.3991ZM21.3304 18.0731C22.4212 16.2069 22.9971 14.0875 23 11.9291C22.9965 9.77024 22.4192 7.65065 21.3264 5.78511C21.1979 5.55916 20.986 5.39176 20.7356 5.3183C20.4852 5.24484 20.2159 5.27107 19.9846 5.39145C19.7533 5.51183 19.5781 5.71693 19.4961 5.96338C19.4141 6.20983 19.4318 6.47833 19.5452 6.71211C19.5583 6.73611 19.5724 6.76111 19.5875 6.78411C20.5016 8.34694 20.9842 10.1222 20.9865 11.9301C20.9809 13.7375 20.4951 15.5114 19.5784 17.0721C19.461 17.3003 19.4362 17.5646 19.5091 17.8105C19.582 18.0563 19.7471 18.2649 19.9702 18.3933C20.1934 18.5216 20.4576 18.5598 20.7083 18.5001C20.959 18.4403 21.177 18.2871 21.3174 18.0721L21.3304 18.0731Z" fill="currentColor"/>
<path d="M7.01093 6.90783C7.01093 6.90783 10.6254 4.13955 11.9599 3.30714C13.2945 2.47474 15.0255 3.43225 15.0255 5.00282V18.9972C15.0255 20.5678 13.2945 21.5253 11.9599 20.6929C10.6254 19.8605 7.01093 16.9976 7.01093 16.9976H3.00364C1.89706 16.9976 1 16.1023 1 14.9979V8.90745C1 7.80309 1.89706 6.90783 3.00364 6.90783H7.01093Z" fill="currentColor"/>
</svg>
