<svg width="24" height="24" viewBox="0 0 24 24" fill="none" xmlns="http://www.w3.org/2000/svg">
    <path d="M20.314 3H3.7v18h16.614V3z" fill="#253A7A"/>
    <path d="M19.904 3.416H4.116v11.275h15.788V3.416z" fill="#fff"/>
    <path d="m16 5.459-3.095 7.398H10.88L9.357 6.954a.832.832 0 0 0-.455-.668 8.077 8.077 0 0 0-1.883-.608l.043-.22h3.253a.893.893 0 0 1 .882.756l.805 4.277 1.993-5.032H16z" fill="#253A7A"/>
    <path d="M8.513 17.577c.097.022.197.032.296.028.45 0 .723-.23.723-.63s-.252-.586-.668-.586a1.647 1.647 0 0 0-.35.027v1.161zm-.591-1.599a5.17 5.17 0 0 1 .915-.07c.347-.027.693.072.974.278a.985.985 0 0 1 .323.762c.012.288-.09.57-.284.783a1.425 1.425 0 0 1-1.04.361 2.353 2.353 0 0 1-.297 0v1.293h-.591v-3.407zM12.396 17.922l-.257-.848c-.066-.209-.12-.444-.17-.641-.05.197-.099.438-.159.64l-.252.85h.838zm-.942.471-.285.975h-.619l1.057-3.433h.767l1.068 3.433h-.646l-.296-.975h-1.046zM14.712 19.368v-1.43l-1.046-2.003h.685l.4.881c.11.252.191.45.28.685a8.47 8.47 0 0 1 .29-.685l.426-.881h.658l-1.096 1.987v1.446h-.597z" fill="#fff"/>
</svg>
