<svg xmlns="http://www.w3.org/2000/svg" width="32" height="24" fill="none" viewBox="0 0 32 24">
    <rect width="31" height="23" x=".5" y=".5" fill="#fff" stroke="#ccc" rx="3.5"/>
    <path fill="#1834cb" d="M23.692 3.5H8v17h15.692z"/>
    <path fill="#fff" d="M23.3 3.892H8.392V14.54H23.3z"/>
    <path fill="#1834cb" d="m19.616 5.825-2.924 6.982h-1.91l-1.44-5.573c-.088-.34-.164-.468-.429-.613-.436-.235-1.153-.457-1.783-.593l.042-.203h3.074c.393 0 .745.26.833.71l.761 4.04 1.88-4.75z"/>
    <path fill="#fff" d="M11.908 19.008v-3.243h1.185q.35 0 .614.108a.88.88 0 0 1 .412.337q.149.228.148.583 0 .355-.147.582a.87.87 0 0 1-.413.334c-.178.072-.38.108-.614.108h-.611v1.19h-.577zm1.1-2.791h-.526v1.169h.526q.319 0 .489-.13t.168-.454q0-.326-.168-.456-.169-.128-.49-.127zM14.293 19.008l1.204-3.243h.61l1.205 3.243h-.614l-.316-.889h-1.24l-.317.889zm.99-1.324h.952l-.468-1.31h-.01l-.473 1.31zM18.322 19.008v-1.405l-1.144-1.839h.637l.849 1.408h.013l.84-1.408h.521l-1.144 1.834v1.41z"/>
</svg>
