<svg width="32" height="24" viewBox="0 0 32 24" fill="none" xmlns="http://www.w3.org/2000/svg">
    <rect x=".5" y=".5" width="31" height="23" rx="3.5" fill="#FAFBFC"/>
    <path d="M23.947 3.053H8.053v17.219h15.894V3.053z" fill="#1C3378"/>
    <path d="M23.549 14.235H8.45V3.451h15.1v10.784z" fill="#fff"/>
    <path d="m19.819 5.408-2.962 7.072H14.92l-1.458-5.645c-.088-.347-.165-.474-.433-.622-.442-.237-1.168-.461-1.806-.601l.042-.204h3.113c.396 0 .754.264.844.72l.771 4.091 1.903-4.81h1.922z" fill="#1C3378"/>
    <path d="M12.659 16.998c.07.02.164.026.28.026.43 0 .693-.221.693-.606 0-.365-.243-.56-.642-.56-.157 0-.27.014-.332.03v1.11zm-.57-1.53c.205-.04.49-.069.88-.069.42 0 .728.093.929.269.187.16.309.418.309.727 0 .31-.094.569-.272.746-.229.238-.588.35-.995.35a1.64 1.64 0 0 1-.281-.02v1.24h-.57v-3.243zm4.282 1.858-.247-.81c-.061-.2-.112-.424-.16-.615h-.01c-.045.19-.093.421-.148.615l-.243.81h.808zm-.902.453-.271.932h-.594l1.01-3.287h.734l1.024 3.287h-.617l-.285-.932h-1zm3.114.931v-1.37l-.995-1.916h.653l.379.843c.108.245.186.428.272.654h.008c.08-.21.17-.415.276-.654l.38-.843h.65l-1.048 1.902v1.385h-.575z" fill="#fff"/>
    <rect x=".5" y=".5" width="31" height="23" rx="3.5" stroke="#CCC"/>
</svg>
