<svg xmlns="http://www.w3.org/2000/svg" width="24" height="24" fill="none" viewBox="0 0 24 24">
    <path fill="#1834CB" d="M20.615 3H4v18h16.615V3Z"/>
    <path fill="#fff" d="M20.2 3.415H4.415V14.69H20.2V3.415Z"/>
    <path fill="#1834CB" d="m16.3 5.462-3.097 7.393H11.18l-1.525-5.9c-.092-.362-.173-.497-.454-.65-.461-.25-1.221-.484-1.888-.628l.044-.215h3.256c.415 0 .789.276.881.752l.807 4.277 1.99-5.03H16.3Z"/>
    <path fill="#fff" d="M8.137 19.42v-3.434h1.256c.246 0 .464.039.65.115a.927.927 0 0 1 .437.356c.104.162.156.367.156.618 0 .252-.051.454-.156.616a.925.925 0 0 1-.438.354 1.723 1.723 0 0 1-.65.115h-.647v1.26h-.61.002Zm1.165-2.955h-.557v1.238h.557c.225 0 .398-.047.518-.137.12-.093.178-.252.178-.481 0-.23-.058-.393-.178-.484-.12-.09-.29-.134-.518-.134v-.002ZM10.663 19.42l1.275-3.434h.647l1.275 3.434h-.65l-.335-.94h-1.313l-.335.94h-.564Zm1.047-1.402h1.01l-.497-1.387h-.01l-.5 1.387h-.003ZM14.93 19.42v-1.488l-1.212-1.946h.674l.899 1.49h.015l.889-1.49h.552l-1.212 1.941v1.493h-.606Z"/>
</svg>
