<svg width="32" height="24" viewBox="0 0 32 24" fill="none" xmlns="http://www.w3.org/2000/svg">
    <rect x=".5" y=".5" width="31" height="23" rx="3.5" fill="#fff" stroke="#CCC"/>
    <path fill-rule="evenodd" clip-rule="evenodd" d="M8.053 3.053h15.894v17.219H8.053V3.053zm.398 11.182H23.55V3.451H8.451v10.784z" fill="#1C3378"/>
    <path fill-rule="evenodd" clip-rule="evenodd" d="M12.658 16.998c.07.02.165.026.281.026.43 0 .693-.221.693-.606 0-.365-.243-.56-.642-.56-.157 0-.27.014-.332.03v1.11zm-.57-1.53a4.7 4.7 0 0 1 .88-.069c.421 0 .729.093.93.269.187.16.309.418.309.727 0 .31-.094.569-.272.746-.23.238-.589.35-.996.35a1.64 1.64 0 0 1-.28-.02v1.24h-.57v-3.243zm4.283 1.858-.247-.81a7.294 7.294 0 0 1-.127-.483l-.033-.132h-.01l-.045.196a9.22 9.22 0 0 1-.103.42l-.243.809h.808zm-.902.453-.271.932h-.594l1.01-3.287h.734l1.024 3.287h-.617l-.285-.932h-1zm3.114-.44v1.372h.575v-1.385l1.047-1.902h-.65l-.379.843a13.23 13.23 0 0 0-.276.654h-.008c-.086-.226-.165-.41-.272-.654l-.38-.843h-.653l.996 1.915z" fill="#fff"/>
    <path d="m19.819 5.408-2.962 7.072H14.92l-1.458-5.645c-.088-.347-.165-.474-.433-.622-.442-.237-1.168-.461-1.806-.601l.042-.204h3.113c.396 0 .754.264.844.72l.771 4.091 1.903-4.81h1.922z" fill="#1C3378"/>
</svg>
