<svg xmlns="http://www.w3.org/2000/svg" width="32" height="24" fill="none" viewBox="0 0 32 24">
    <rect width="31" height="23" x=".5" y=".5" fill="#fff" stroke="#CCC" rx="3.5"/>
    <path fill="#1834CB" d="M23.692 3.5H8v17h15.692v-17Z"/>
    <path fill="#fff" d="M23.3 3.892H8.392V14.54H23.3V3.892Z"/>
    <path fill="#1834CB" d="m19.616 5.825-2.924 6.982h-1.91l-1.44-5.573c-.088-.34-.164-.468-.429-.613-.436-.235-1.153-.457-1.783-.593l.042-.203h3.074c.393 0 .745.26.833.71l.761 4.04 1.88-4.75h1.896Z"/>
    <path fill="#fff" d="M11.908 19.008v-3.243h1.185c.233 0 .438.036.614.108a.875.875 0 0 1 .412.337c.1.152.148.346.148.583 0 .238-.048.43-.147.582a.874.874 0 0 1-.413.334c-.178.072-.38.108-.614.108h-.611v1.19h-.577.003Zm1.1-2.791h-.526v1.169h.526c.212 0 .376-.044.489-.13.113-.087.168-.237.168-.454 0-.216-.055-.37-.168-.456-.113-.086-.275-.127-.49-.127v-.002ZM14.293 19.008l1.204-3.243h.61l1.205 3.243h-.614l-.316-.889h-1.24l-.317.889h-.532Zm.99-1.324h.952l-.468-1.31h-.01l-.473 1.31h-.002ZM18.322 19.008v-1.405l-1.144-1.839h.637l.849 1.408h.013l.84-1.408h.521l-1.144 1.834v1.41h-.572Z"/>
</svg>
