<svg xmlns="http://www.w3.org/2000/svg" width="24" height="24">
    <path style="stroke:none;fill-rule:nonzero;fill:#00be28;fill-opacity:1" d="M24 24H3.691A3.691 3.691 0 0 1 0 20.309V0h20.309A3.691 3.691 0 0 1 24 3.691Zm0 0"/>
    <path style="stroke:none;fill-rule:nonzero;fill:#fff;fill-opacity:1" d="M11.156 18.332H6.648c-.82 0-1.293-.348-1.59-1.105l-2.83-7.278h3.035c.816 0 1.312.36 1.574 1.13l1.258 3.702h.496l2.816-7.754h5.442c2.683 0 4.172 1.27 4.172 3.54 0 1.23-.61 2.25-1.727 2.87.16.325.36.793.66 1.586.809 2.137 1.29 2.797 1.8 3.305h-2.87c-1.29 0-2.074-.57-2.547-1.8l-1.75-4.606c.21.047.469.062.719.062 1.078 0 1.675-.37 1.675-1.054 0-.66-.484-.98-1.48-.98h-1.14Zm0 0"/>
</svg>
