<svg xmlns="http://www.w3.org/2000/svg" width="24" height="24" fill="none" viewBox="0 0 24 24">
    <path fill="currentColor" d="M18 5h-.75c-.658 0-1.293.266-1.763.743a2.59 2.59 0 0 0-.737 1.813v.841q.37-.064.75-.064c.658 0 1.293-.265 1.763-.742.47-.478.737-1.13.737-1.814zM7.323 9.458c-.45.041-.887.176-1.284.392.068.46.227.903.469 1.3.331.545.804.983 1.363 1.267a3.32 3.32 0 0 0 3.089-.045 3.5 3.5 0 0 0-.468-1.3A3.4 3.4 0 0 0 9.13 9.806a3.3 3.3 0 0 0-1.806-.348M20 5.778c0 1.202-.47 2.36-1.312 3.215a4.47 4.47 0 0 1-3.188 1.34c-.658 0-1.293.266-1.763.743A2.59 2.59 0 0 0 13 12.89c0 .713.17 1.245.388 1.91.219.668.487 1.47.487 2.534A5.5 5.5 0 0 1 13.616 19H20v2H4v-2h7.451a3.5 3.5 0 0 0 .424-1.667c0-.713-.17-1.244-.388-1.91-.096-.294-.201-.614-.29-.97-.43.156-.878.26-1.338.303-.997.091-2-.102-2.893-.556a5.4 5.4 0 0 1-2.167-2.01A5.5 5.5 0 0 1 4 9.333a1 1 0 0 1 .394-.795 5.317 5.317 0 0 1 5.64-.516 5.4 5.4 0 0 1 2.076 1.872q.097-.114.203-.221.207-.21.437-.389V7.556c0-1.204.47-2.36 1.313-3.216A4.47 4.47 0 0 1 17.25 3h1.313c.338 0 .661.12.917.332l.105.097.095.106c.207.257.32.579.32.91z"/>
</svg>
