<svg xmlns="http://www.w3.org/2000/svg" width="24" height="24" fill="none" viewBox="0 0 24 24">
    <path fill="currentColor" fill-rule="evenodd" d="M19 1a2.01 2.01 0 0 1 2 2v8a2.005 2.005 0 0 1-2 2h-6v9a1 1 0 1 1-2 0v-9H5a2.006 2.006 0 0 1-2-2V3a2.006 2.006 0 0 1 2-2zM5 11h2.5A2.5 2.5 0 0 0 5 8.5zm14-2.5a2.5 2.5 0 0 0-2.5 2.5H19zm-6.235-3.348a2 2 0 1 0-1.532 3.696 2 2 0 0 0 1.532-3.696M5 5.5A2.5 2.5 0 0 0 7.5 3H5zM16.5 3A2.5 2.5 0 0 0 19 5.5V3z" clip-rule="evenodd"/>
    <path fill="currentColor" d="M1.564 15.315a6.03 6.03 0 0 1 4.946.497 6.03 6.03 0 0 1 2.904 4.035.825.825 0 0 1-.548.948 6.03 6.03 0 0 1-4.946-.496 6.03 6.03 0 0 1-2.904-4.035.826.826 0 0 1 .548-.95M17.42 15.812a6.03 6.03 0 0 1 4.946-.497.826.826 0 0 1 .548.949 6.03 6.03 0 0 1-2.904 4.035 6.03 6.03 0 0 1-4.946.496.825.825 0 0 1-.548-.948 6.03 6.03 0 0 1 2.904-4.036"/>
</svg>
