<svg xmlns="http://www.w3.org/2000/svg" width="16" height="16" fill="none" viewBox="0 0 16 16">
    <g fill="currentColor" clip-path="url(#wealth_16_svg__a)">
        <path fill-rule="evenodd" d="M13 0a2 2 0 0 1 2 2v5a2 2 0 0 1-2 2H9v6a1 1 0 0 1-2 0V9H3a2 2 0 0 1-2-2V2a2 2 0 0 1 2-2zM8 2.484a2 2 0 1 0 .001 4.001 2 2 0 0 0 0-4" clip-rule="evenodd"/>
        <path d="M.647 10.627a4.05 4.05 0 0 1 3.348.323 4.05 4.05 0 0 1 1.952 2.738.97.97 0 0 1-.637 1.101 4.05 4.05 0 0 1-3.346-.323 4.05 4.05 0 0 1-1.953-2.737.97.97 0 0 1 .636-1.102M11.976 10.94a4.05 4.05 0 0 1 3.347-.324c.458.158.73.627.636 1.103a4.05 4.05 0 0 1-1.953 2.736 4.05 4.05 0 0 1-3.346.323.97.97 0 0 1-.637-1.101 4.05 4.05 0 0 1 1.953-2.737"/>
    </g>
    <defs>
        <clipPath id="wealth_16_svg__a">
            <path fill="#fff" d="M0 0h16v16H0z"/>
        </clipPath>
    </defs>
</svg>
