<svg xmlns="http://www.w3.org/2000/svg" width="16" height="16" fill="none" viewBox="0 0 16 16">
    <path fill="currentColor" fill-rule="evenodd" d="M13 0a2 2 0 0 1 2 2v5a2 2 0 0 1-2 2H9v6a1 1 0 1 1-2 0V9H3a2 2 0 0 1-2-2V2a2 2 0 0 1 2-2zM8 2.484a2 2 0 1 0 0 4 2 2 0 0 0 0-4" clip-rule="evenodd"/>
    <path fill="currentColor" d="M.647 10.627a4.05 4.05 0 0 1 4.622 1.48 4.05 4.05 0 0 1 .678 1.58.97.97 0 0 1-.637 1.102 4.05 4.05 0 0 1-3.346-.323 4.05 4.05 0 0 1-1.953-2.737.97.97 0 0 1 .636-1.102m11.329.313a4.05 4.05 0 0 1 3.347-.324c.458.158.73.627.636 1.103a4.05 4.05 0 0 1-3.59 3.26 4.05 4.05 0 0 1-1.709-.201.97.97 0 0 1-.637-1.101 4.05 4.05 0 0 1 1.953-2.737"/>
</svg>
