<svg xmlns="http://www.w3.org/2000/svg" width="48" height="48" fill="none" viewBox="0 0 48 48">
    <path fill="currentColor" fill-rule="evenodd" d="M26 32.38c.411.003.895-.415 1.34-2.59 1-4.875 5.018-5.656 7.483-5.787 1.237-.066 2.245.857 2.173 1.988-.143 2.255-1.156 4.472-3.039 6.194-1.883 1.723-4.307 2.649-6.771 2.78l-.641.035h5.55a2 2 0 0 1 1.868 2.714l-2.81 7.356A3 3 0 0 1 28.351 47h-8.703a3 3 0 0 1-2.802-1.93l-2.81-7.356A2 2 0 0 1 15.904 35h5.551l-.641-.035c-2.465-.131-4.888-1.057-6.771-2.78s-2.897-3.94-3.04-6.194c-.072-1.13.936-2.053 2.173-1.988 2.465.13 6.484.912 7.483 5.786.446 2.176.93 2.594 1.341 2.592V21H11.765a3.83 3.83 0 0 1-2.662-1.065A3.58 3.58 0 0 1 8 17.363V4.637c0-.965.397-1.89 1.103-2.572A3.83 3.83 0 0 1 11.765 1h24.47C38.315 1 40 2.628 40 4.637v12.726c0 .965-.397 1.89-1.102 2.572A3.83 3.83 0 0 1 36.235 21H26zM10.823 17.364c0 .241.1.473.277.644.176.17.415.265.665.265h3.68a5.4 5.4 0 0 0-1.573-2.944 5.7 5.7 0 0 0-3.049-1.518zm26.354-3.553a5.7 5.7 0 0 0-3.05 1.518 5.4 5.4 0 0 0-1.571 2.945h3.68c.249 0 .488-.096.664-.266a.9.9 0 0 0 .277-.644zM25.44 7.64a3.9 3.9 0 0 0-2.174-.206c-.73.14-1.402.486-1.928.995a3.6 3.6 0 0 0-1.03 1.862 3.52 3.52 0 0 0 .213 2.1 3.67 3.67 0 0 0 1.387 1.632c.62.4 1.347.614 2.092.614.999 0 1.956-.384 2.662-1.066A3.58 3.58 0 0 0 27.765 11a3.55 3.55 0 0 0-.635-2.02 3.74 3.74 0 0 0-1.69-1.34m7.03-3.912a5.4 5.4 0 0 0 1.574 2.944 5.7 5.7 0 0 0 3.048 1.52V4.636a.9.9 0 0 0-.276-.644.96.96 0 0 0-.666-.265zm-20.705 0a.96.96 0 0 0-.665.265.9.9 0 0 0-.277.644V8.19a5.7 5.7 0 0 0 3.05-1.518 5.4 5.4 0 0 0 1.571-2.944z" clip-rule="evenodd"/>
</svg>
