<svg xmlns="http://www.w3.org/2000/svg" width="16" height="16" fill="none" viewBox="0 0 16 16">
    <path fill="currentColor" d="M12 3h-.25c-.376 0-.751.159-1.038.465-.29.308-.462.74-.462 1.202v.343q.124-.01.25-.01c.376 0 .751-.159 1.038-.465.29-.308.462-.74.462-1.202zM4.69 6.342c-.218.02-.434.08-.637.175.054.26.148.508.279.734.215.371.518.662.866.848s.732.262 1.112.225a2 2 0 0 0 .636-.175 2.5 2.5 0 0 0-.278-.733 2.2 2.2 0 0 0-.866-.849 1.96 1.96 0 0 0-1.112-.225M14 3.333c0 .952-.354 1.878-1.003 2.57A3.42 3.42 0 0 1 10.5 7c-.376 0-.751.159-1.038.465-.29.308-.462.74-.462 1.202l.005.182c.023.412.125.75.262 1.186.156.501.358 1.13.358 1.965 0 .338-.039.674-.112 1H14v2H2v-2h5.418c.134-.309.207-.65.207-1 0-.5-.11-.87-.267-1.368a16 16 0 0 1-.137-.458 4 4 0 0 1-.72.141 3.96 3.96 0 0 1-2.244-.45 4.2 4.2 0 0 1-1.655-1.611A4.5 4.5 0 0 1 2 6a1 1 0 0 1 .375-.781 4 4 0 0 1 2.124-.867 3.96 3.96 0 0 1 2.244.45 4.2 4.2 0 0 1 1.37 1.182q.067-.065.137-.127v-1.19c0-.952.354-1.878 1.003-2.57A3.42 3.42 0 0 1 11.75 1h.938c.37 0 .71.158.95.414.238.254.362.586.362.919z"/>
</svg>
