<svg xmlns="http://www.w3.org/2000/svg" width="24" height="24" fill="none" viewBox="0 0 24 24">
    <path fill="currentColor" d="M12.26 11.01c.241-.03.488 0 .716.089l8.1 3.15h.001c.245.096.458.256.618.463l.066.092.057.095a1.452 1.452 0 0 1-.837 2.085h-.002l-3.05.946-.945 3.05v.001a1.452 1.452 0 0 1-2.18.78 1.45 1.45 0 0 1-.555-.684v-.002l-3.15-8.1a1.45 1.45 0 0 1-.07-.82l.025-.102c.067-.238.194-.455.369-.63l.078-.071c.187-.162.412-.274.654-.324zM18 4a3 3 0 0 1 3 3v4h-2V7a1 1 0 0 0-1-1H5a1 1 0 0 0-1 1v10a1 1 0 0 0 1 1h5v2H5a3 3 0 0 1-3-3V7a3 3 0 0 1 3-3zm-2.46 14.88.494-1.592a1.9 1.9 0 0 1 1.253-1.253l1.594-.495-5.466-2.125zM6 7a1 1 0 1 1 0 2 1 1 0 0 1 0-2m3 0a1 1 0 1 1 0 2 1 1 0 0 1 0-2m3 0a1 1 0 1 1 0 2 1 1 0 0 1 0-2"/>
</svg>
