<svg width="24" height="24" viewBox="0 0 24 24" fill="none" xmlns="http://www.w3.org/2000/svg">
  <path fill-rule="evenodd" clip-rule="evenodd"
    d="M1 5C1 3.34326 2.34314 2 4 2H20C21.6569 2 23 3.34326 23 5V14.5222C22.6767 14.2356 22.2891 14.0168 21.8569 13.8896L15.8465 12.1218C14.7933 11.812 13.655 12.1023 12.8787 12.8787C12.1024 13.6548 11.8121 14.7932 12.1219 15.8464L13.8897 21.8569C13.9039 21.9053 13.9192 21.9529 13.9357 22H4C2.34314 22 1 20.6567 1 19V5ZM7.25 7C7.25 7.69043 6.69037 8.25 6 8.25C5.30963 8.25 4.75 7.69043 4.75 7C4.75 6.30957 5.30963 5.75 6 5.75C6.69037 5.75 7.25 6.30957 7.25 7ZM11.25 7C11.25 7.69043 10.6904 8.25 10 8.25C9.30963 8.25 8.75 7.69043 8.75 7C8.75 6.30957 9.30963 5.75 10 5.75C10.6904 5.75 11.25 6.30957 11.25 7ZM14 8.25C14.6904 8.25 15.25 7.69043 15.25 7C15.25 6.30957 14.6904 5.75 14 5.75C13.3096 5.75 12.75 6.30957 12.75 7C12.75 7.69043 13.3096 8.25 14 8.25Z"
    fill="currentColor" />
  <path
    d="M15.2822 14.0406C14.9311 13.9374 14.5517 14.0341 14.2929 14.2929C14.0341 14.5517 13.9374 14.9311 14.0406 15.2822L15.8084 21.2926C15.9244 21.6869 16.2697 21.97 16.6791 22.0065C17.0884 22.0429 17.4784 21.8252 17.6622 21.4576L18.9273 18.9273L21.4576 17.6622C21.8252 17.4784 22.0429 17.0884 22.0065 16.6791C21.97 16.2697 21.6868 15.9244 21.2926 15.8084L15.2822 14.0406Z"
    fill="currentColor" />
</svg>
