<svg xmlns="http://www.w3.org/2000/svg" width="24" height="24" fill="none" viewBox="0 0 24 24">
    <path fill="currentColor" d="M7.25 7a1.25 1.25 0 1 1-2.5 0 1.25 1.25 0 0 1 2.5 0M11.25 7a1.25 1.25 0 1 1-2.5 0 1.25 1.25 0 0 1 2.5 0M14 8.25a1.25 1.25 0 1 0 0-2.5 1.25 1.25 0 0 0 0 2.5"/>
    <path fill="currentColor" fill-rule="evenodd" d="M14.323 14.252a1 1 0 0 1 .99-.252l6.01 1.768a1 1 0 1 1-.564 1.918l-4.252-1.25 1.25 4.252a1 1 0 0 1-1.918.564l-1.768-6.01a1 1 0 0 1 .252-.99" clip-rule="evenodd"/>
    <path fill="currentColor" d="M4 4h16a1 1 0 0 1 1 1v8.588l.887.261c.424.125.8.334 1.113.605V5a3 3 0 0 0-3-3H4a3 3 0 0 0-3 3v14a3 3 0 0 0 3 3h9.98a3 3 0 0 1-.06-.184L13.386 20H4a1 1 0 0 1-1-1V5a1 1 0 0 1 1-1"/>
</svg>
