<svg xmlns="http://www.w3.org/2000/svg" width="24" height="24" fill="none" viewBox="0 0 24 24">
    <path fill="currentColor" d="M12 2c5.523 0 10 4.477 10 10s-4.477 10-10 10a9.95 9.95 0 0 1-4.955-1.315L2.032 21.97l1.33-4.934A9.95 9.95 0 0 1 2 12C2 6.477 6.477 2 12 2m0 2a8 8 0 0 0-6.911 12.028l.422.722-.657 2.43 2.48-.634.704.402a8 8 0 0 0 11.951-6.536L20 12a8 8 0 0 0-8-8M8.991 7.34h.056c.145 0 .326-.001.504.425l.26.63c.218.527.464 1.123.507 1.209.062.124.104.269.02.434l-.033.067c-.063.128-.11.222-.215.346q-.06.07-.121.145c-.088.106-.177.214-.253.29-.125.123-.254.257-.11.505s.645 1.06 1.385 1.715a6.4 6.4 0 0 0 1.84 1.158q.1.043.161.072c.25.123.395.103.54-.063.144-.165.621-.722.787-.97.166-.247.332-.207.56-.124s1.452.682 1.701.805l.144.072c.168.08.283.136.333.217.061.103.061.6-.146 1.177s-1.2 1.105-1.679 1.177c-.429.063-.97.09-1.567-.099-.36-.113-.826-.265-1.419-.52-2.335-1.004-3.911-3.258-4.207-3.68l-.043-.06C7.87 12.1 6.98 10.925 6.98 9.706c0-1.14.562-1.737.822-2.013l.05-.053a.92.92 0 0 1 .663-.309c.166 0 .333.002.477.009"/>
</svg>
