<svg xmlns="http://www.w3.org/2000/svg" width="24" height="24" fill="none" viewBox="0 0 24 24">
    <path fill="currentColor" fill-rule="evenodd" d="M19.084 4.907A9.92 9.92 0 0 0 12.04 2c-5.488 0-9.955 4.446-9.957 9.91a9.85 9.85 0 0 0 1.33 4.954L2 22l5.28-1.378a10 10 0 0 0 4.758 1.206h.005c5.487 0 9.955-4.446 9.957-9.911a9.85 9.85 0 0 0-2.916-7.01m-2.504 9.078c-.25-.124-1.472-.723-1.7-.806-.229-.083-.395-.123-.56.124-.167.248-.644.805-.789.97-.144.166-.29.187-.539.063a4 4 0 0 0-.162-.072c-.35-.151-1.042-.45-1.84-1.157-.739-.656-1.239-1.468-1.383-1.716-.145-.248-.016-.382.11-.505.075-.076.164-.183.252-.29q.06-.075.12-.145c.107-.124.153-.217.216-.346l.034-.067c.083-.166.04-.31-.02-.434-.044-.085-.29-.682-.508-1.21-.1-.244-.194-.473-.26-.63-.178-.425-.359-.424-.504-.424h-.056c-.144-.007-.31-.01-.477-.01a.92.92 0 0 0-.663.31l-.05.053c-.26.276-.821.874-.821 2.013 0 1.219.89 2.396 1.016 2.562l.043.06c.295.422 1.872 2.676 4.208 3.68.592.255 1.057.408 1.418.52.596.189 1.138.163 1.567.1.478-.072 1.472-.6 1.679-1.178s.207-1.074.146-1.177c-.05-.081-.164-.136-.333-.217z" clip-rule="evenodd"/>
</svg>
