<svg width="24" height="24" viewBox="0 0 24 24" fill="none" xmlns="http://www.w3.org/2000/svg">
    <path d="M2.014 10.227a.998.998 0 0 1-.717-.3 1.025 1.025 0 0 1 0-1.443 15.139 15.139 0 0 1 21.4-.11 1.026 1.026 0 0 1-.311 1.667 1.01 1.01 0 0 1-1.105-.205 13.12 13.12 0 0 0-18.544.095.998.998 0 0 1-.723.296zm17.923 2.588a1.026 1.026 0 0 0 0-1.444A11.1 11.1 0 0 0 4.24 11.3l-.075.076a1.026 1.026 0 0 0 0 1.444 1.01 1.01 0 0 0 1.427.006l.006-.006a9.086 9.086 0 0 1 12.849-.058l.057.058a1.009 1.009 0 0 0 1.426.007l.007-.012zM17.069 15.7a1.024 1.024 0 0 0 0-1.442 7.063 7.063 0 0 0-9.989-.049l-.048.049a1.024 1.024 0 0 0 .326 1.663 1.009 1.009 0 0 0 1.101-.214l.007-.007a5.046 5.046 0 0 1 7.135-.034l.034.034a1.008 1.008 0 0 0 1.427.007l.007-.007zM12 17a1.5 1.5 0 1 0 .007 0H12z" fill="#000"/>
</svg>
