<svg width="24" height="24" viewBox="0 0 24 24" fill="none" xmlns="http://www.w3.org/2000/svg">
  <path
    d="M6 3.5C6 4.88071 4.88071 6 3.5 6C2.11929 6 1 4.88071 1 3.5C1 2.11929 2.11929 1 3.5 1C4.88071 1 6 2.11929 6 3.5Z"
    fill="currentColor" />
  <path
    d="M23 20.5C23 21.8807 21.8807 23 20.5 23C19.1193 23 18 21.8807 18 20.5C18 19.1193 19.1193 18 20.5 18C21.8807 18 23 19.1193 23 20.5Z"
    fill="currentColor" />
  <path
    d="M7.97813 3.94642C7.9926 3.79957 8 3.65065 8 3.5C8 2.92643 7.89269 2.37792 7.69705 1.87345C9.01874 1.31113 10.473 1 12 1C18.0751 1 23 5.92487 23 12C23 13.527 22.6889 14.9813 22.1265 16.3029C21.6221 16.1073 21.0736 16 20.5 16C20.3493 16 20.2004 16.0074 20.0536 16.0219C20.6592 14.8115 21 13.4455 21 12C21 7.02944 16.9706 3 12 3C10.5545 3 9.18852 3.3408 7.97813 3.94642Z"
    fill="currentColor" />
  <path
    d="M3.94642 7.97813C3.79957 7.9926 3.65065 8 3.5 8C2.92643 8 2.37792 7.89269 1.87345 7.69705C1.31113 9.01874 1 10.473 1 12C1 18.0751 5.92487 23 12 23C13.527 23 14.9813 22.6889 16.3029 22.1265C16.1073 21.6221 16 21.0736 16 20.5C16 20.3493 16.0074 20.2004 16.0219 20.0536C14.8115 20.6592 13.4455 21 12 21C7.02944 21 3 16.9706 3 12C3 10.5545 3.3408 9.18852 3.94642 7.97813Z"
    fill="currentColor" />
  <path
    d="M10.0271 11C10.1278 9.15394 10.5012 7.56879 10.9992 6.44829C11.2932 5.78671 11.5916 5.37514 11.8218 5.15603C11.9037 5.0781 11.9629 5.03657 12 5.01514C12.0371 5.03657 12.0963 5.0781 12.1782 5.15603C12.4084 5.37514 12.7068 5.78671 13.0008 6.44829C13.4988 7.56879 13.8722 9.15394 13.9729 11L10.0271 11Z"
    fill="currentColor" />
  <path
    d="M5.07089 11C5.41885 8.5674 7.01747 6.53827 9.1945 5.58485C8.55642 6.99768 8.12814 8.88879 8.02442 11H5.07089Z"
    fill="currentColor" />
  <path
    d="M18.9291 11H15.9756C15.8719 8.88879 15.4436 6.99768 14.8055 5.58485C16.9825 6.53827 18.5812 8.5674 18.9291 11Z"
    fill="currentColor" />
  <path
    d="M13.9729 13C13.8722 14.846 13.4988 16.4312 13.0008 17.5517C12.7068 18.2132 12.4084 18.6248 12.1782 18.8439C12.0963 18.9219 12.0371 18.9634 12 18.9848C11.963 18.9634 11.9037 18.9219 11.8218 18.8439C11.5916 18.6248 11.2932 18.2132 10.9992 17.5517C10.5012 16.4312 10.1278 14.846 10.0271 13L13.9729 13Z"
    fill="currentColor" />
  <path
    d="M15.9756 13H18.9291C18.5812 15.4326 16.9825 17.4617 14.8055 18.4151C15.4436 17.0023 15.8719 15.1112 15.9756 13Z"
    fill="currentColor" />
  <path
    d="M5.07089 13H8.02442C8.12814 15.1112 8.55642 17.0023 9.1945 18.4151C7.01747 17.4617 5.41885 15.4326 5.07089 13Z"
    fill="currentColor" />
</svg>
