<svg xmlns="http://www.w3.org/2000/svg" width="24" height="24" fill="none" viewBox="0 0 24 24">
    <path fill="currentColor" d="M12 20a1 1 0 1 1 0 2H4.023a1 1 0 1 1 0-2zm-6.317-2.6v-7.298h2V17.4a1 1 0 0 1-2 0m3.545-6.298a1 1 0 1 1 2 0V18.4h-2zM12.773 14v-3.898h2V14a1 1 0 0 1-2 0m3.544-2.898a1 1 0 1 1 2 0V14h-2zM12.004 2a2.75 2.75 0 0 1 1.22.291l6.972 3.461v.001c1.336.664.922 2.749-.64 2.749H4.443c-1.567 0-1.97-2.087-.64-2.75l6.971-3.467h.003A2.75 2.75 0 0 1 12.004 2m-.007 2a.75.75 0 0 0-.335.078L6.786 6.501h10.421l-4.873-2.42-.004-.002a.75.75 0 0 0-.334-.08M16.121 21.778l-1.414-1.414 3.243-3.243H16.12a1 1 0 1 1 0-2h4.243a1 1 0 0 1 1 1v4.243a1 1 0 1 1-2 0v-1.829z"/>
</svg>
