<svg xmlns="http://www.w3.org/2000/svg" width="24" height="24" fill="none" viewBox="0 0 24 24">
    <path fill="currentColor" d="M12 5s6.253 0 7.814.418c.86.23 1.538.908 1.768 1.769C22 8.747 22 12 22 12s0 3.255-.418 4.814a2.5 2.5 0 0 1-1.768 1.768C18.254 19 12 19 12 19s-6.253 0-7.813-.418a2.5 2.5 0 0 1-1.769-1.768C2 15.254 2 12 2 12s0-3.254.418-4.813c.23-.861.908-1.54 1.769-1.769C5.747 5 12 5 12 5m-.263 2.001a124 124 0 0 0-3 .05c-.866.026-1.761.064-2.526.12-.82.06-1.325.13-1.507.179h-.002a.5.5 0 0 0-.351.352l-.001.002c-.148.553-.248 1.562-.3 2.577-.025.478-.038.912-.044 1.226L4 11.875 4 11.972v.056l.001.097q0 .13.005.368c.006.314.02.748.044 1.226.052 1.015.152 2.024.3 2.577v.002a.5.5 0 0 0 .353.352h.001c.182.05.686.12 1.507.18.765.055 1.66.093 2.526.118a123 123 0 0 0 3 .051l.197.001h.132l.197-.001a125 125 0 0 0 3-.05 61 61 0 0 0 2.526-.12c.82-.06 1.324-.13 1.507-.179a.5.5 0 0 0 .353-.352l.001-.002c.148-.553.248-1.562.3-2.577A39 39 0 0 0 20 12.125l.001-.097v-.056l-.001-.097q0-.13-.005-.368c-.006-.314-.02-.748-.044-1.226-.052-1.015-.152-2.024-.3-2.577v-.002a.5.5 0 0 0-.352-.351l-.002-.001c-.182-.05-.686-.12-1.507-.18a61 61 0 0 0-2.526-.118 123 123 0 0 0-3-.051L12.066 7h-.132zM15.182 12l-5.227 2.954V9.046z"/>
</svg>
