<svg xmlns="http://www.w3.org/2000/svg" width="24" height="24" fill="none" viewBox="0 0 24 24">
    <path fill="currentColor" d="M9.25 19.2c0-.468-.362-.8-.75-.8s-.75.332-.75.8.362.8.75.8.75-.331.75-.8M4 15.15V4.8c0-.734.283-1.443.796-1.97A2.73 2.73 0 0 1 6.75 2h7v.001a3.05 3.05 0 0 1 2.21.937l3.138 3.228A3.17 3.17 0 0 1 20 8.4v10.8c0 .734-.284 1.443-.796 1.97a2.73 2.73 0 0 1-1.954.83h-3.799a1 1 0 0 1 0-2h3.799c.19 0 .378-.078.52-.225A.83.83 0 0 0 18 19.2V9.4h-3.375c-.507 0-.987-.208-1.336-.567A1.91 1.91 0 0 1 12.75 7.5V4h-6a.73.73 0 0 0-.52.225A.83.83 0 0 0 6 4.8v10.35a1 1 0 0 1-2 0M7.5 12v-.9a1 1 0 0 1 2 0v.9a1 1 0 1 1-2 0m0-4.5v-.9a1 1 0 0 1 2 0v.9a1 1 0 0 1-2 0m7.25-.1h2.759L14.75 4.562zm-3.5 11.8c0 1.52-1.205 2.8-2.75 2.8s-2.75-1.28-2.75-2.8c0-1.17.716-2.196 1.75-2.607V15.6a1 1 0 0 1 2 0v.993a2.8 2.8 0 0 1 1.75 2.607"/>
</svg>
