<svg version="1" xmlns="http://www.w3.org/2000/svg" width="933.333" height="933.333" viewBox="0 0 700.000000 700.000000"><path d="M49.8 6.2C32.1 8.4 16.4 21.8 10.4 39.7l-2.6 7.8v299.1c0 164.4.3 300.6.7 302.5C10.6 659.3 15.1 668 22 675c6.2 6.3 11.3 9.4 20.2 12.5l7.3 2.4 300.7.1c214 0 302.2-.3 306-1.1 18.9-3.9 35.8-21.4 38.5-39.9.5-3 .8-139.6.7-303.5-.1-228.7-.4-299.2-1.3-303-4.2-17.2-20.8-33-38.1-36.1-5.6-1-598.4-1.2-606.2-.2zm341.6 122.2c4.3.4 8.8 1 10 1.2 1.2.2 3.5.7 5.1 1 26.3 4.7 57.7 20.2 75.6 37.2 8.2 7.7 17.4-2.8-103.8 117.9-62.6 62.4-109.2 108-111.1 108.9-5.8 2.6-9.6 1.1-15.9-6.5-9.2-11.1-18.9-27.7-24.6-42.1-3.4-8.5-7.5-22.8-8.3-28.8-.3-2.6-.8-5-1-5.4-.7-1-1.7-16.6-1.8-24.8 0-7.5 1-20.3 1.9-25 .3-1.4 1-5 1.5-8.1 2.6-14 10.8-34.9 19.3-48.9 9.9-16.3 27.4-35.7 40.7-45 1.9-1.4 3.7-2.8 4-3.1 1.3-1.5 13.3-8.6 21-12.4 13.7-6.8 29.4-11.9 45.8-15 1.2-.2 5.9-.7 10.5-1.1 4.5-.3 8.3-.7 8.4-.8.5-.4 15.2.1 22.7.8zm52.7 170.1c1.5.5 5.7 5.2 11.7 13 6.8 8.9 17.5 29.7 21.6 41.5 10.4 30.6 11.9 59.9 4.6 91-8.1 34.3-29.1 66.4-58 88.9-3.6 2.8-7 5.5-7.7 6.1-.7.5-1.4 1-1.7 1-.3 0-2.2 1.2-4.3 2.6-11.4 7.8-37 18.1-51.8 20.9-14.9 2.7-22.3 3.3-36.5 3-14.5-.3-27.6-2.1-38-5.1-9.2-2.6-20.4-6.6-21.4-7.5-.6-.5-1.5-.9-2.2-.9-1.6 0-20.6-10.4-27-14.9-10.6-7.3-16.3-12.9-17-16.5-.3-1.9-.3-4.3.1-5.5.6-1.9 49.5-51 168.3-169 26.2-26 49-47.9 50.7-48.6 2.8-1.3 4.6-1.3 8.6 0z"/></svg>