<?xml version="1.0" encoding="UTF-8" standalone="no"?>
<svg width="243px" height="243px" viewBox="0 0 243 243" version="1.1" xmlns="http://www.w3.org/2000/svg" xmlns:xlink="http://www.w3.org/1999/xlink" xmlns:sketch="http://www.bohemiancoding.com/sketch/ns">
    <!-- Generator: Sketch 3.4.1 (15681) - http://www.bohemiancoding.com/sketch -->
    <title>icon-phone</title>
    <desc>Created with Sketch.</desc>
    <defs></defs>
    <g id="Website" stroke="none" stroke-width="1" fill="none" fill-rule="evenodd" sketch:type="MSPage">
        <g id="icon-phone" sketch:type="MSArtboardGroup" fill="#FFFFFF">
            <path d="M225.936917,175.326517 C222.511771,172.586399 207.682297,162.489736 189.565209,150.411678 C187.594622,149.031479 181.74329,145.130591 181.022721,144.590164 L180.909471,144.510038 C178.216704,142.71486 175.383817,141.729508 172.834196,141.729508 C166.841396,141.729508 163.093111,145.719618 161.070381,150.776441 L163.391573,151.704918 L161.187873,150.524365 C158.45374,155.62808 155.612168,159.890438 153.043334,162.854477 C151.891577,164.183428 150.837455,165.198713 149.956123,165.849221 C149.577924,166.128367 149.251397,166.325228 148.994524,166.439193 C148.854314,166.501399 148.7941,166.516393 148.834196,166.516393 L150.093874,166.856946 C146.44259,164.727031 130.849065,149.856384 112.044586,131.051905 C89.3797112,108.38703 78.3239849,96.8706489 76.2812754,93.0770455 L74.0800976,94.2622951 L76.5800976,94.2622951 L76.5800976,93.4754098 L74.0800976,93.4754098 L76.4209206,94.3532184 C77.367034,91.8302494 84.3508214,86.1981627 92.5479881,81.9213801 C96.8652758,79.7631516 99.8426908,76.5376188 100.87735,72.916311 C101.897543,69.3456355 100.926349,65.8250563 98.1128845,62.0737705 L96.1128845,63.5737705 L98.1930103,62.18702 C97.9742048,61.8588118 96.4820466,59.744921 96.0069821,59.0560774 C94.8181965,57.3323384 93.7550374,55.7029315 92.7484201,54.025236 L92.6744845,53.909355 C91.4677371,52.1279661 90.1278296,50.1435815 88.2694333,47.3869359 C88.1649715,47.2319829 84.5179991,41.8205611 83.4417845,40.2249694 C83.3600584,40.1038045 83.3600584,40.1038045 83.2783288,39.982642 C74.2958621,26.666529 69.6323021,19.8809259 67.7699746,17.5530165 C64.2309551,13.3054123 61.7936485,11.5 57.5555075,11.5 L57.5555075,11.5 C56.3973404,11.5 55.2675326,11.692894 53.8485336,12.0798937 C53.2017891,12.2562786 50.7338963,13.011756 50.1801801,13.1699606 L50.0764135,13.2020622 L48.8960856,13.5955049 C40.927441,16.0852402 35.7099715,19.3263955 27.066429,27.969938 C18.658689,36.377678 13.6557659,44.249576 11.5365703,54.2005815 C8.96805529,66.2614344 11.1006638,80.612635 18.664957,98.388724 C19.9510611,101.425368 21.4468758,104.551355 23.1396137,107.756569 C28.1448608,117.234046 34.7764489,127.242412 42.6404286,137.532678 C48.8640526,145.676486 55.5237033,153.563392 62.2168462,160.929603 C64.6117223,163.56531 66.8598783,165.966838 68.9157674,168.106046 C69.6651868,168.885837 70.3461445,169.58599 70.9570942,170.207219 C71.3595859,170.616482 71.6326038,170.891319 71.9188881,171.177603 C72.3544468,171.613162 73.1494858,172.392026 74.1439894,173.348232 C75.6535391,174.79965 77.3666991,176.413996 79.2586764,178.157906 C84.5065337,182.995061 90.2399011,188.013692 96.2980111,192.982213 C113.409997,207.016504 129.938795,218.101984 144.701857,224.42901 C157.199971,229.897012 168.212612,232.5 178.342393,232.5 C193.555808,232.5 204.763151,226.555236 214.780225,215.981657 C223.376653,207.38652 226.617808,202.16905 229.122035,194.155524 L229.500986,193.020078 L227.129278,192.229508 L229.365346,193.347542 C233.404854,185.268526 233.133283,180.923393 225.910031,175.305308 L225.936917,175.326517 Z M219.249373,190.652054 L219.121081,191.442623 C217.006945,197.379339 214.911365,200.911887 207.656593,208.166659 C198.396889,217.426364 190.000101,221.204918 179.129278,221.204918 C170.74827,221.204918 161.206709,218.8663 149.828215,213.935619 C135.957395,208.015106 120.039462,197.241013 103.461191,183.516876 C97.6174619,178.67921 92.1000076,173.807724 87.074577,169.139624 C85.3044787,167.495387 83.7191978,165.990733 82.3389688,164.654906 C81.4965789,163.839615 80.9226101,163.274192 80.5691761,162.920758 C80.2157421,162.567324 79.6503182,161.993355 78.8350278,161.150965 C77.4992004,159.770736 75.9945464,158.185455 74.3503098,156.415357 C69.6822094,151.389926 64.8107234,145.872472 59.9730576,140.028743 C46.2489208,123.450471 35.4748272,107.532539 29.559736,93.6743247 C17.9194209,66.2853404 20.4256777,51.1694788 35.3487059,35.807538 C42.5780465,28.5785686 46.1105948,26.4829892 52.8378802,24.2405607 L54.018208,23.8471181 C55.7532165,23.1577611 57.1132632,22.795082 57.5555075,22.795082 C57.5451454,22.9092587 58.0577755,23.386535 58.7824953,24.2561987 C60.4833245,26.3830353 65.622262,33.8649431 73.4087892,45.4681195 C76.4654882,50.0248928 78.7038045,53.3769257 83.0163653,59.8457669 C84.2419563,61.5977366 85.3545236,63.2490206 86.4971415,64.9930165 C86.9560413,65.6934423 88.316486,67.7959479 88.5245621,68.108062 C89.0214094,68.853333 89.2094883,69.164636 89.3297824,69.4533417 C89.2460656,69.973451 88.4495093,70.7087338 86.7325555,71.5672107 C76.5723073,76.6473348 67.2102629,83.780321 65.0076164,90.7553683 L67.3915731,91.5081967 L65.0703813,90.57972 C64.0838775,93.0459796 64.3295397,95.5026022 65.4638239,98.3383128 C68.9017035,104.567689 95.2165149,131.65194 103.501155,139.016064 C110.657666,147.093091 137.741917,173.407902 143.685662,176.709983 C145.055668,177.211788 145.488928,177.347181 146.063923,177.49093 C146.897247,177.699261 147.666717,177.811475 148.440753,177.811475 C152.973677,177.811475 157.327183,174.759822 161.729292,169.42769 C164.81513,165.689915 167.638416,161.224634 170.696867,155.663813 C172.357145,152.620002 172.343422,152.624992 174.263297,153.824914 C175.458397,154.435054 177.249576,155.68888 182.810376,159.654637 C204.513039,174.123855 215.402745,181.485909 218.485573,183.952172 C221.107477,185.991728 220.939836,185.25411 219.625076,189.52708 L219.249373,190.652054 Z" id="Shape" sketch:type="MSShapeGroup"></path>
        </g>
    </g>
</svg>