<?xml version="1.0" encoding="UTF-8" standalone="no"?>
<svg width="268" height="268" viewBox="0 0 268 268" version="1.1" xmlns="http://www.w3.org/2000/svg" xmlns:xlink="http://www.w3.org/1999/xlink">
    <title>Facebook</title>
    <g transform="translate(-635.000000, -112.000000)">
        <path d="M887.717,112.553 L650.283,112.553 C642.146,112.553 635.553,119.146 635.553,127.283 L635.553,364.717 C635.553,372.852 642.146,379.447 650.283,379.447 L778.109,379.447 L778.109,276.092 L743.328,276.092 L743.328,235.812 L778.109,235.812 L778.109,206.107 C778.109,171.634 799.164,152.863 829.916,152.863 C844.646,152.863 857.307,153.96 860.996,154.45 L860.996,190.476 L839.668,190.486 C822.943,190.486 819.705,198.433 819.705,210.095 L819.705,235.812 L859.592,235.812 L854.398,276.092 L819.705,276.092 L819.705,379.447 L887.717,379.447 C895.852,379.447 902.447,372.852 902.447,364.717 L902.447,127.283 C902.447,119.146 895.852,112.553 887.717,112.553"></path>
    </g>
</svg>
