<?xml version="1.0" encoding="UTF-8" standalone="no"?>
<svg width="506px" height="150px" viewBox="0 0 506 150" version="1.1" xmlns="http://www.w3.org/2000/svg" xmlns:xlink="http://www.w3.org/1999/xlink" xmlns:sketch="http://www.bohemiancoding.com/sketch/ns">
    <!-- Generator: Sketch 3.3.2 (12043) - http://www.bohemiancoding.com/sketch -->
    <title>icon-app-store</title>
    <desc>Created with Sketch.</desc>
    <defs></defs>
    <g id="Website" stroke="none" stroke-width="1" fill="none" fill-rule="evenodd" sketch:type="MSPage">
        <g id="icon-app-store" sketch:type="MSArtboardGroup">
            <g id="store-apple" sketch:type="MSLayerGroup">
                <path d="M488.25,150 L17.625,150 C7.875,150 0,142.125 0,132.375 L0,18 C0,8.25 7.875,0.375 17.625,0.375 L488.25,0.375 C498,0.375 506.25,8.25 506.25,18 L506.25,132.375 C506.25,142.125 498,150 488.25,150 L488.25,150 L488.25,150 Z" id="Shape" fill="#A6A6A6" sketch:type="MSShapeGroup"></path>
                <path d="M502.5,132.375 C502.5,140.25 496.125,146.625 488.25,146.625 L17.625,146.625 C9.75,146.625 3.375,140.25 3.375,132.375 L3.375,18 C3.375,10.125 9.75,3.75 17.625,3.75 L488.25,3.75 C496.125,3.75 502.5,10.125 502.5,18 L502.5,132.375 L502.5,132.375 Z" id="Shape" fill="#000000" sketch:type="MSShapeGroup"></path>
                <path d="M112.875,74.25 C112.875,62.25 122.625,56.25 123.375,55.875 C117.75,47.625 108.75,46.5 105.75,46.5 C98.25,45.75 91.125,51 87.375,51 C83.625,51 77.625,46.5 71.625,46.875 C63.75,46.875 56.25,51.75 52.125,58.875 C43.5,73.5 49.875,95.25 58.125,107.25 C62.25,113.25 67.125,119.625 73.125,119.25 C79.125,118.875 81.375,115.5 88.875,115.5 C96,115.5 98.25,119.25 104.625,119.25 C111,119.25 115.125,113.25 119.25,107.625 C124.125,100.875 126,94.5 126,94.125 C125.625,93.375 113.25,88.5 112.875,74.25 L112.875,74.25 Z" id="Shape" fill="#FFFFFF" sketch:type="MSShapeGroup"></path>
                <path d="M100.875,38.625 C104.25,34.5 106.5,28.875 105.75,23.25 C100.875,23.625 95.25,26.625 91.5,30.375 C88.5,33.75 85.875,39.75 86.625,45 C92.25,45.75 97.5,42.75 100.875,38.625 L100.875,38.625 Z" id="Shape" fill="#FFFFFF" sketch:type="MSShapeGroup"></path>
                <path d="M201,118.125 L192.375,118.125 L187.875,103.5 L171.75,103.5 L167.25,118.125 L159,118.125 L175.125,68.25 L184.875,68.25 L201,118.125 L201,118.125 Z M186.75,97.5 L182.625,84.375 C182.25,82.875 181.5,79.875 180,75 L180,75 C179.625,77.25 178.875,80.25 177.75,84.375 L173.625,97.5 L186.75,97.5 L186.75,97.5 Z" id="Shape" fill="#FFFFFF" sketch:type="MSShapeGroup"></path>
                <path d="M242.625,99.75 C242.625,105.75 241.125,110.625 237.75,114.375 C234.75,117.375 231,119.25 226.875,119.25 C222,119.25 218.625,117.375 216.75,114 L216.75,114 L216.75,133.125 L208.875,133.125 L208.875,94.5 C208.875,90.75 208.875,86.625 208.5,82.5 L215.625,82.5 L216,88.125 C218.625,84 222.75,81.75 228,81.75 C232.125,81.75 235.875,83.25 238.5,86.625 C241.125,89.625 242.625,94.125 242.625,99.75 L242.625,99.75 Z M234.375,100.125 C234.375,96.75 233.625,93.75 232.125,91.5 C230.25,89.25 228,88.125 225,88.125 C223.125,88.125 221.25,88.875 219.75,90 C218.25,91.5 217.125,93 216.75,95.25 C216.375,96.375 216.375,97.125 216.375,97.5 L216.375,103.5 C216.375,106.125 217.125,108.375 218.625,110.25 C220.125,112.125 222.375,112.875 225,112.875 C228,112.875 230.25,111.75 232.125,109.5 C233.625,106.875 234.375,103.875 234.375,100.125 L234.375,100.125 Z" id="Shape" fill="#FFFFFF" sketch:type="MSShapeGroup"></path>
                <path d="M283.875,99.75 C283.875,105.75 282.375,110.625 279,114.375 C276,117.375 272.25,119.25 268.125,119.25 C263.25,119.25 259.875,117.375 258,114 L258,114 L258,133.125 L250.125,133.125 L250.125,94.5 C250.125,90.75 250.125,86.625 249.75,82.5 L256.875,82.5 L257.25,88.125 C259.875,84 264,81.75 269.25,81.75 C273.375,81.75 277.125,83.25 279.75,86.625 C282.375,89.625 283.875,94.125 283.875,99.75 L283.875,99.75 Z M275.625,100.125 C275.625,96.75 274.875,93.75 273.375,91.5 C271.5,89.25 269.25,88.125 266.25,88.125 C264.375,88.125 262.5,88.875 261,90 C259.5,91.5 258.375,93 258,95.25 C257.625,96.375 257.625,97.125 257.625,97.5 L257.625,103.5 C257.625,106.125 258.375,108.375 259.875,110.25 C261.375,112.125 263.625,112.875 266.25,112.875 C269.25,112.875 271.5,111.75 273.375,109.5 C274.875,106.875 275.625,103.875 275.625,100.125 L275.625,100.125 Z" id="Shape" fill="#FFFFFF" sketch:type="MSShapeGroup"></path>
                <path d="M330,104.25 C330,108.375 328.5,112.125 325.5,114.75 C322.125,117.75 317.625,119.25 312,119.25 C306.75,119.25 302.25,118.125 299.25,116.25 L301.125,109.5 C304.5,111.75 308.625,112.875 312.75,112.875 C315.75,112.875 318,112.125 319.875,111 C321.375,109.5 322.5,108 322.5,105.375 C322.5,103.5 321.75,101.625 320.25,100.125 C318.75,98.625 316.5,97.5 313.5,96.375 C304.875,93 300.375,88.5 300.375,82.125 C300.375,78 301.875,74.625 304.875,72 C307.875,69.375 312,68.25 317.25,68.25 C321.75,68.25 325.5,69 328.5,70.5 L326.625,76.875 C323.625,75.375 320.625,74.625 317.25,74.625 C314.25,74.625 312.375,75.375 310.5,76.875 C309,78 308.625,79.5 308.625,81.375 C308.625,83.25 309.375,85.125 310.875,86.25 C312.375,87.375 314.625,88.875 318,90 C322.125,91.875 325.5,93.75 327.375,96 C329.25,97.875 330,100.875 330,104.25 L330,104.25 Z" id="Shape" fill="#FFFFFF" sketch:type="MSShapeGroup"></path>
                <path d="M356.625,88.125 L347.625,88.125 L347.625,105.75 C347.625,110.25 349.125,112.5 352.125,112.5 C353.625,112.5 354.75,112.5 355.5,112.125 L355.875,118.125 C354.375,118.875 352.125,118.875 349.5,118.875 C346.5,118.875 343.875,117.75 342,115.875 C340.125,114 339.375,110.625 339.375,106.125 L339.375,88.125 L334.125,88.125 L334.125,82.125 L339.375,82.125 L339.375,75.375 L347.25,73.125 L347.25,82.125 L356.25,82.125 C356.625,82.125 356.625,88.125 356.625,88.125 L356.625,88.125 Z" id="Shape" fill="#FFFFFF" sketch:type="MSShapeGroup"></path>
                <path d="M396.375,99.75 C396.375,105.375 394.875,109.875 391.5,113.25 C388.125,117 383.625,118.875 378.375,118.875 C373.125,118.875 369,117 365.625,113.625 C362.625,110.25 360.75,105.75 360.75,100.5 C360.75,94.875 362.25,90.375 365.625,86.625 C369,83.25 373.125,81.375 378.75,81.375 C384,81.375 388.125,83.25 391.5,86.625 C394.875,90 396.375,94.5 396.375,99.75 L396.375,99.75 Z M388.125,100.125 C388.125,96.75 387.375,94.125 385.875,91.5 C384.375,88.5 381.75,87.375 378.75,87.375 C375.375,87.375 373.125,88.875 371.25,91.5 C369.75,93.75 369,96.75 369,100.125 C369,103.5 369.75,106.125 371.25,108.75 C373.125,111.75 375.375,112.875 378.375,112.875 C381.375,112.875 384,111.375 385.5,108.375 C387.375,106.125 388.125,103.5 388.125,100.125 L388.125,100.125 Z" id="Shape" fill="#FFFFFF" sketch:type="MSShapeGroup"></path>
                <path d="M422.25,89.25 C421.5,89.25 420.75,88.875 419.625,88.875 C416.625,88.875 414.75,90 413.25,92.25 C411.75,94.125 411.375,96.375 411.375,99.375 L411.375,118.125 L403.5,118.125 L403.5,93.375 C403.5,89.25 403.5,85.5 403.125,82.125 L410.25,82.125 L410.625,88.875 L411,88.875 C411.75,86.625 413.25,84.75 415.125,83.25 C417,82.125 418.875,81.375 420.75,81.375 L422.625,81.375 C422.25,81.75 422.25,89.25 422.25,89.25 L422.25,89.25 Z" id="Shape" fill="#FFFFFF" sketch:type="MSShapeGroup"></path>
                <path d="M458.25,98.625 C458.25,100.125 458.25,101.25 457.875,102.375 L433.875,102.375 C433.875,105.75 435,108.75 437.25,110.625 C439.125,112.125 441.75,113.25 445.125,113.25 C448.5,113.25 451.875,112.5 454.875,111.375 L456,117 C452.625,118.5 448.5,119.25 444,119.25 C438.375,119.25 433.875,117.75 430.875,114.375 C427.875,111 426,106.875 426,101.25 C426,96 427.5,91.125 430.5,87.75 C433.5,84 437.625,82.125 443.25,82.125 C448.5,82.125 452.25,84 454.875,87.75 C457.125,90 458.25,94.125 458.25,98.625 L458.25,98.625 Z M450.375,96.375 C450.375,94.125 450,91.875 448.875,90.375 C447.375,88.125 445.5,87 442.5,87 C439.875,87 437.625,88.125 436.125,90.375 C434.625,92.25 433.875,94.125 433.875,96.75 L450.375,96.375 L450.375,96.375 Z" id="Shape" fill="#FFFFFF" sketch:type="MSShapeGroup"></path>
                <path d="M183.75,37.5 C183.75,42 182.25,45.375 179.625,47.625 C177,49.5 173.625,50.625 169.125,50.625 C166.875,50.625 165,50.625 163.5,50.25 L163.5,26.25 C165.75,25.875 168,25.875 170.25,25.875 C174.375,25.875 177.75,26.625 180,28.5 C182.625,30.75 183.75,33.75 183.75,37.5 L183.75,37.5 Z M179.625,37.5 C179.625,34.5 178.875,32.625 177.375,30.75 C175.875,29.25 173.625,28.5 170.625,28.5 C169.5,28.5 168.375,28.5 167.625,28.875 L167.625,47.25 L170.25,47.25 C173.25,47.25 175.5,46.5 177.375,44.625 C178.875,43.125 179.625,40.875 179.625,37.5 L179.625,37.5 Z" id="Shape" fill="#FFFFFF" sketch:type="MSShapeGroup"></path>
                <path d="M205.875,41.25 C205.875,43.875 205.125,46.125 203.625,48 C202.125,49.875 199.875,50.625 197.25,50.625 C194.625,50.625 192.75,49.875 190.875,48 C189.375,46.125 188.625,44.25 188.625,41.625 C188.625,39 189.375,36.75 190.875,34.875 C192.375,33 194.625,32.25 197.25,32.25 C199.875,32.25 201.75,33 203.625,34.875 C205.125,36.75 205.875,38.625 205.875,41.25 L205.875,41.25 Z M201.75,41.625 C201.75,40.125 201.375,38.625 200.625,37.5 C199.875,36 198.75,35.25 197.25,35.25 C195.75,35.25 194.625,36 193.5,37.5 C192.75,38.625 192.375,40.125 192.375,41.625 C192.375,43.125 192.75,44.625 193.5,45.75 C194.25,47.25 195.375,48 197.25,48 C198.75,48 199.875,47.25 200.625,45.75 C201.375,44.625 201.75,43.125 201.75,41.625 L201.75,41.625 Z" id="Shape" fill="#FFFFFF" sketch:type="MSShapeGroup"></path>
                <path d="M235.5,32.625 L229.875,50.25 L226.125,50.25 L223.875,42.75 C223.125,40.875 222.75,39 222.375,37.125 L222.375,37.125 C222,39 221.625,40.875 220.875,42.75 L218.625,50.25 L214.875,50.25 L209.625,32.625 L213.75,32.625 L215.625,40.875 C216,42.75 216.375,44.625 216.75,46.5 L216.75,46.5 C217.125,45 217.5,43.125 218.25,40.875 L220.875,32.625 L224.25,32.625 L226.5,40.875 C227.25,42.75 227.625,45 228,46.875 L228,46.875 C228.375,45 228.75,43.125 229.125,40.875 L231.375,32.625 L235.5,32.625 L235.5,32.625 Z" id="Shape" fill="#FFFFFF" sketch:type="MSShapeGroup"></path>
                <path d="M255.75,50.25 L252,50.25 L252,40.125 C252,37.125 250.875,35.625 248.625,35.625 C247.5,35.625 246.375,36 245.625,36.75 C244.875,37.5 244.5,38.625 244.5,39.75 L244.5,50.25 L240.75,50.25 L240.75,37.5 L240.75,32.625 L244.125,32.625 L244.125,35.25 C244.5,34.5 245.25,33.75 246,33 C247.125,32.25 248.25,31.875 249.375,31.875 C250.875,31.875 252.375,32.25 253.5,33.375 C255,34.5 255.375,36.75 255.375,39.375 L255.375,50.25 L255.75,50.25 Z" id="Shape" fill="#FFFFFF" sketch:type="MSShapeGroup"></path>
                <path d="M266.625,50.25 L262.875,50.25 L262.875,24.375 L266.625,24.375 L266.625,50.25 L266.625,50.25 Z" id="Shape" fill="#FFFFFF" sketch:type="MSShapeGroup"></path>
                <path d="M289.875,41.25 C289.875,43.875 289.125,46.125 287.625,48 C286.125,49.875 283.875,50.625 281.25,50.625 C278.625,50.625 276.75,49.875 274.875,48 C273.375,46.125 272.625,44.25 272.625,41.625 C272.625,39 273.375,36.75 274.875,34.875 C276.375,33 278.625,32.25 281.25,32.25 C283.875,32.25 285.75,33 287.625,34.875 C289.125,36.75 289.875,38.625 289.875,41.25 L289.875,41.25 Z M285.75,41.625 C285.75,40.125 285.375,38.625 284.625,37.5 C283.875,36 282.75,35.25 281.25,35.25 C279.75,35.25 278.625,36 277.5,37.5 C276.75,38.625 276.375,40.125 276.375,41.625 C276.375,43.125 276.75,44.625 277.5,45.75 C278.25,47.25 279.375,48 281.25,48 C282.75,48 283.875,47.25 284.625,45.75 C285.375,44.625 285.75,43.125 285.75,41.625 L285.75,41.625 Z" id="Shape" fill="#FFFFFF" sketch:type="MSShapeGroup"></path>
                <path d="M308.625,50.25 L305.25,50.25 L304.875,48.375 C303.75,49.875 301.875,50.625 299.625,50.625 C298.125,50.625 296.625,50.25 295.5,49.125 C294.75,48 294,46.875 294,45.375 C294,43.125 294.75,41.625 296.625,40.5 C298.5,39.375 301.125,38.625 304.125,39 L304.125,38.625 C304.125,36.375 303,35.25 300.375,35.25 C298.5,35.25 297,35.625 295.875,36.375 L295.125,33.75 C296.625,32.625 298.875,32.25 301.125,32.25 C305.625,32.25 308.25,34.5 308.25,39.375 L308.25,45.75 C308.625,48 308.625,49.5 308.625,50.25 L308.625,50.25 Z M304.5,44.25 L304.5,41.625 C300,41.625 298.125,42.75 298.125,45.375 C298.125,46.125 298.5,46.875 298.875,47.625 C299.25,48 300,48.375 300.75,48.375 C301.5,48.375 302.25,48 303,47.625 C303.75,47.25 304.125,46.5 304.5,45.375 L304.5,44.25 L304.5,44.25 Z" id="Shape" fill="#FFFFFF" sketch:type="MSShapeGroup"></path>
                <path d="M331.125,50.25 L327.75,50.25 L327.75,47.25 C326.625,49.5 324.75,50.625 322.125,50.625 C319.875,50.625 318.375,49.875 316.875,48 C315.375,46.125 314.625,44.25 314.625,41.625 C314.625,38.625 315.375,36.375 316.875,34.5 C318.375,33 320.25,31.875 322.5,31.875 C324.75,31.875 326.625,32.625 327.375,34.125 L327.375,34.125 L327.375,24 L331.125,24 L331.125,45 C330.75,47.25 331.125,48.75 331.125,50.25 L331.125,50.25 Z M327,42.75 L327,39.75 L327,38.625 C326.625,37.5 326.25,36.75 325.5,36.375 C324.75,35.625 324,35.25 322.875,35.25 C321.375,35.25 320.25,36 319.5,37.125 C318.75,38.25 318.375,39.75 318.375,41.625 C318.375,43.5 318.75,44.625 319.5,45.75 C320.25,46.875 321.375,47.625 322.875,47.625 C324,47.625 325.125,47.25 325.875,46.125 C326.625,45.375 327,44.25 327,42.75 L327,42.75 Z" id="Shape" fill="#FFFFFF" sketch:type="MSShapeGroup"></path>
                <path d="M364.5,41.25 C364.5,43.875 363.75,46.125 362.25,48 C360.75,49.875 358.5,50.625 355.875,50.625 C353.25,50.625 351.375,49.875 349.5,48 C348,46.125 347.25,44.25 347.25,41.625 C347.25,39 348,36.75 349.5,34.875 C351,33 353.25,32.25 355.875,32.25 C358.5,32.25 360.375,33 362.25,34.875 C363.75,36.75 364.5,38.625 364.5,41.25 L364.5,41.25 Z M360.75,41.625 C360.75,40.125 360.375,38.625 359.625,37.5 C358.875,36 357.75,35.25 356.25,35.25 C354.75,35.25 353.625,36 352.5,37.5 C351.75,38.625 351.375,40.125 351.375,41.625 C351.375,43.125 351.75,44.625 352.5,45.75 C353.25,47.25 354.375,48 356.25,48 C357.75,48 358.875,47.25 359.625,45.75 C360.375,44.625 360.75,43.125 360.75,41.625 L360.75,41.625 Z" id="Shape" fill="#FFFFFF" sketch:type="MSShapeGroup"></path>
                <path d="M385.875,50.25 L382.125,50.25 L382.125,40.125 C382.125,37.125 381,35.625 378.375,35.625 C377.25,35.625 376.125,36 375.375,36.75 C374.625,37.5 374.25,38.625 374.25,39.75 L374.25,50.25 L370.5,50.25 L370.5,37.5 L370.5,32.625 L373.875,32.625 L373.875,35.25 C374.25,34.5 375,33.75 375.75,33 C376.875,32.25 378,31.875 379.5,31.875 C381,31.875 382.5,32.25 383.625,33.375 C385.125,34.5 385.5,36.75 385.5,39.375 L385.5,50.25 L385.875,50.25 Z" id="Shape" fill="#FFFFFF" sketch:type="MSShapeGroup"></path>
                <path d="M412.125,35.625 L407.625,35.625 L407.625,44.25 C407.625,46.5 408.375,47.625 409.875,47.625 L411.75,47.625 L411.75,50.625 C411,51 409.875,51 408.75,51 C407.25,51 406.125,50.625 405,49.5 C404.25,48.375 403.5,46.875 403.5,44.625 L403.5,35.625 L400.875,35.625 L400.875,32.625 L403.5,32.625 L403.5,29.25 L407.25,28.125 L407.25,32.625 L411.75,32.625 L412.125,35.625 L412.125,35.625 Z" id="Shape" fill="#FFFFFF" sketch:type="MSShapeGroup"></path>
                <path d="M433.125,50.25 L429.375,50.25 L429.375,40.125 C429.375,37.125 428.25,35.25 426,35.25 C424.125,35.25 423,36 422.25,37.875 L422.25,39.375 L422.25,49.875 L418.5,49.875 L418.5,24 L422.25,24 L422.25,34.5 C423.375,32.625 425.25,31.5 427.5,31.5 C429,31.5 430.5,31.875 431.625,33 C433.125,34.5 433.5,36.375 433.5,39 C433.125,39.75 433.125,50.25 433.125,50.25 L433.125,50.25 Z" id="Shape" fill="#FFFFFF" sketch:type="MSShapeGroup"></path>
                <path d="M454.5,40.875 L454.5,42.75 L442.875,42.75 C442.875,44.625 443.625,45.75 444.75,46.875 C445.875,47.625 447,48 448.5,48 C450.375,48 451.875,47.625 453.375,47.25 L454.125,49.875 C452.625,50.625 450.375,51 448.125,51 C445.5,51 443.25,50.25 441.75,48.75 C440.25,47.25 439.5,45 439.5,42.375 C439.5,39.75 440.25,37.5 441.75,35.625 C443.25,33.75 445.5,32.625 447.75,32.625 C450.375,32.625 452.25,33.75 453.375,35.625 C454.125,36.75 454.5,38.625 454.5,40.875 L454.5,40.875 Z M450.75,39.75 C450.75,38.625 450.375,37.5 450,36.75 C449.25,35.625 448.125,35.25 447,35.25 C445.875,35.25 444.75,35.625 444,36.75 C443.25,37.5 442.875,38.625 442.875,39.75 C442.5,39.75 450.75,39.75 450.75,39.75 L450.75,39.75 Z" id="Shape" fill="#FFFFFF" sketch:type="MSShapeGroup"></path>
            </g>
        </g>
    </g>
</svg>