<svg width="20" height="20" viewBox="0 0 20 20" xmlns="http://www.w3.org/2000/svg">
    <title>
        web/balance
    </title>
    <path d="M11.303 4.529c.442-.11.697.089.697.54v.924H5.448l5.855-1.464zM14 9.993c-.556 0-1 .447-1 .999v1.002c0 .556.448.999 1 .999h2v2.002a.998.998 0 0 1-1.005.992h-9.99c-.552 0-1.005-.45-1.005-.992v-7.01a.999.999 0 0 1 1.006-.992h9.989c.553 0 1.005.45 1.005.992v2.008h-2zm3 2h-3v-1h3v1zm0-2V7.985a2.005 2.005 0 0 0-2.005-1.998H13V5.07c0-1.104-.868-1.78-1.94-1.511l-6.12 1.53C3.87 5.356 3 6.467 3 7.569v7.426c0 1.097.899 1.998 2.006 1.998h9.989A1.998 1.998 0 0 0 17 15v-2.008a.994.994 0 0 0 1-1v-1.001a.995.995 0 0 0-1-1z"  fill-rule="evenodd"/>
</svg>
