<svg width="18" height="18" viewBox="0 0 18 18" xmlns="http://www.w3.org/2000/svg">
    <title>
        Artboard 2
    </title>
    <path d="M4 15h7V5.56c0-.309.232-.56.5-.56.276 0 .5.25.5.56v9.94c0 .276-.205.5-.459.5H3.46C3.205 16 3 15.768 3 15.5v-.03-9.91c0-.309.232-.56.5-.56.276 0 .5.25.5.56V15zM5.5 3H2.501A.504.504 0 0 0 2 3.5c0 .268.224.5.501.5H12.5A.504.504 0 0 0 13 3.5c0-.268-.224-.5-.501-.5H9.5c0-.556-.452-1-1.01-1H6.51A1 1 0 0 0 5.5 3zm0 3c.276 0 .5.182.5.408v7.184c0 .225-.232.408-.5.408-.276 0-.5-.182-.5-.408V6.408C5 6.183 5.232 6 5.5 6zm2 0c.276 0 .5.182.5.408v7.184c0 .225-.232.408-.5.408-.276 0-.5-.182-.5-.408V6.408C7 6.183 7.232 6 7.5 6zm2 0c.276 0 .5.182.5.408v7.184c0 .225-.232.408-.5.408-.276 0-.5-.182-.5-.408V6.408C9 6.183 9.232 6 9.5 6z"  fill-rule="evenodd"/>
</svg>
