<svg width="20" height="20" viewBox="0 0 20 20" xmlns="http://www.w3.org/2000/svg">
    <title>
        web/calendar
    </title>
    <path d="M16 5H3V4a1 1 0 0 1 1-1h11a1 1 0 0 1 1 1v1zm0 11a1 1 0 0 1-1 1H4a1 1 0 0 1-1-1V6h13v10zM4 2c-1.104 0-2 .915-2 2.043v11.966c0 1.42 1 1.868 2 1.868h11c1 0 2-.448 2-1.868V4.043C17 3 16.105 2 15 2H4zm9 7h1v1h-1V9zm2 .5a1.5 1.5 0 1 0-3 0 1.5 1.5 0 0 0 3 0zM5 13h1v1H5v-1zm.5 2a1.5 1.5 0 1 0 0-3 1.5 1.5 0 0 0 0 3zM9 13h1v1H9v-1zm.5 2a1.5 1.5 0 1 0 0-3 1.5 1.5 0 0 0 0 3zm3.5-2h1v1h-1v-1zm2 .5a1.5 1.5 0 1 0-3 0 1.5 1.5 0 0 0 3 0zM9.5 11a1.5 1.5 0 1 0 0-3 1.5 1.5 0 0 0 0 3zM9 9h1v1H9V9zm-3.5 2a1.5 1.5 0 1 0 0-3 1.5 1.5 0 0 0 0 3zM5 9h1v1H5V9z"  fill-rule="evenodd"/>
</svg>
