<svg width="32" height="23" viewBox="0 0 32 23" xmlns="http://www.w3.org/2000/svg" xmlns:xlink="http://www.w3.org/1999/xlink">
    <title>
        web/bank-ec
    </title>
    <defs>
        <rect id="a" width="23" height="21" rx=".47"/>
        <mask id="b" x="0" y="0" width="23" height="21" fill="#fff">
            <use xlink:href="#a"/>
        </mask>
    </defs>
    <g transform="translate(9 1)" fill="none" fill-rule="evenodd">
        <use stroke="#01509B" mask="url(#b)" stroke-width="1.56" xlink:href="#a"/>
        <g opacity=".9">
            <path d="M19.796 18.283h-8.868c-.727 0-1.22-.711-1.22-1.218 0-.47.013-12.924 0-13.406-.012-.482.85-1.23 1.43-1.23.578.012 8.645 0 8.645 0v6.28H15.08V5.733s-.308-.012-.702 0c-.198.013-.53.206-.53.519-.012.65 0 8.174 0 8.367 0 .18.123.422.53.434.406.024.714 0 .714 0v-3.22h4.705v6.451" fill="#E11A1D"/>
            <path d="M8.194 5.708s-.357-.024-.678-.012c-.332.012-.615.326-.615.519V8.71h1.293V5.708zm-3.99-3.279c.973.012 8.066 0 8.066 0v9.404L6.9 11.82v2.76c0 .049.136.459.616.483h.666v-2.327h4.1l-.012 5.546H4.166s-1.22-.194-1.33-1.35c.013-.434 0-13.082 0-13.298 0-.205.469-1.206 1.368-1.206z" fill="#00509B"/>
        </g>
    </g>
</svg>
