<?xml version="1.0" encoding="UTF-8"?>
<svg width="48px" height="48px" viewBox="0 0 48 48" version="1.1" xmlns="http://www.w3.org/2000/svg" xmlns:xlink="http://www.w3.org/1999/xlink">
    <g id="Symbols" stroke="none" stroke-width="1" fill="none" fill-rule="evenodd">
        <g id="live_support_icon" fill="#FFFFFF">
            <path d="M33,27 C33,28.1045695 32.1045695,29 31,29 L19.8284271,29 C19.2979941,29 18.7892863,29.2107137 18.4142136,29.5857864 L17,31 C16.5424723,31.4575277 15.8006734,31.4575277 15.3431458,31 C15.1234332,30.7802875 15,30.4822933 15,30.1715729 L15,18 C15,16.8954305 15.8954305,16 17,16 L31,16 C32.1045695,16 33,16.8954305 33,18 L33,27 Z M18,20 L30,20 L30,19 L18,19 L18,20 Z M18,23 L24,23 L24,22 L18,22 L18,23 Z M18,26 L27,26 L27,25 L18,25 L18,26 Z" id="icon"></path>
        </g>
    </g>
</svg>