<svg xmlns="http://www.w3.org/2000/svg" width="30" height="30" viewBox="0 0 30 30">
    <title>
        icon-cotract-free
    </title>
    <path fill-rule="evenodd" d="M25.45 9.3h-6.51A2.39 2.39 0 0 0 21.15 8a5 5 0 0 0-.08-4.24A1.77 1.77 0 0 0 19.7 3a4.18 4.18 0 0 0-2.95 1.22A9.39 9.39 0 0 0 14.5 8a9.39 9.39 0 0 0-2.26-3.76A4.17 4.17 0 0 0 9.3 3a1.77 1.77 0 0 0-1.36.8A5 5 0 0 0 7.85 8a2.39 2.39 0 0 0 2.2 1.25h-6.5A1.52 1.52 0 0 0 2 10.79v3.11a1.52 1.52 0 0 0 1.55 1.49h.21a1.43 1.43 0 0 0-.09.49v9.64A1.52 1.52 0 0 0 5.22 27h18.56a1.52 1.52 0 0 0 1.55-1.49v-9.64a1.43 1.43 0 0 0-.09-.49h.21A1.52 1.52 0 0 0 27 13.89v-3.1a1.52 1.52 0 0 0-1.55-1.49zm-7.93-4.38a3.28 3.28 0 0 1 2-.92h.08a.73.73 0 0 1 .58.34 4.12 4.12 0 0 1 0 3.35c-.21.53-1 .61-2.2.67a6.81 6.81 0 0 0-1.68.22l-.42.18c-.13.06-.38.18-.6.27a8.81 8.81 0 0 1 2.24-4.11zm-8.7 2.77a4.12 4.12 0 0 1 0-3.35A.73.73 0 0 1 9.4 4h.11a3.28 3.28 0 0 1 2 .92A8.8 8.8 0 0 1 13.72 9c-.22-.09-.48-.21-.6-.27l-.42-.15a6.78 6.78 0 0 0-1.7-.22c-1.13-.06-2-.14-2.18-.67zM11.61 26H5.22a.5.5 0 0 1-.51-.49v-9.64a.5.5 0 0 1 .51-.49h6.38V26zm0-11.62H3.55a.5.5 0 0 1-.55-.49v-3.1a.5.5 0 0 1 .51-.49h8.06v4.09zM16.35 26h-3.7V10.3h3.7V26zm7.94-.49a.5.5 0 0 1-.51.49h-6.39V15.38h6.42a.5.5 0 0 1 .48.49v9.64zM26 13.89a.5.5 0 0 1-.51.49h-8.1V10.3h8.06a.5.5 0 0 1 .51.49v3.11z" />
</svg>
