<svg width="30" height="30" viewBox="0 0 30 30" xmlns="http://www.w3.org/2000/svg">
    <title>
        icon-delivery
    </title>
    <path d="M23.825 22.759c-.663 0-1.206-.559-1.206-1.242 0-.683.543-1.241 1.206-1.241.664 0 1.207.558 1.207 1.241s-.543 1.242-1.207 1.242zm0-3.725c-1.327 0-2.412 1.118-2.412 2.483 0 1.366 1.085 2.483 2.412 2.483s2.413-1.117 2.413-2.483c0-1.365-1.086-2.483-2.413-2.483zm4.826.31c0 .125-.181.311-.302.311h-1.086c-.542-1.303-1.87-2.172-3.438-2.172a3.876 3.876 0 0 0-3.498 2.172h-4.825c-.543-1.303-1.87-2.172-3.439-2.172a3.887 3.887 0 0 0-2.804 1.18 3.86 3.86 0 0 0-.694.992H6.937c-.121 0-.302-.186-.302-.31V17.73l.12-.124c.03-.031.06-.093.091-.124h1.9c.332 0 .603-.28.603-.62a.614.614 0 0 0-.603-.622h-1.81v-8.69c0-.123.181-.31.302-.31h10.857c.12 0 .302.187.302.31v8.69H15.38a.614.614 0 0 0-.603.621c0 .341.271.62.603.62h3.016v.932c0 .341.271.62.603.62.332 0 .603-.279.603-.62v-8.38h2.413v3.414c0 .186.06.342.211.466l1.357 1.241c.12.093.241.155.392.155h2.564a.619.619 0 0 0 .573-.403l.21-.59 1.026.466v2.39h-.603a.614.614 0 0 0-.603.62c0 .341.271.62.603.62h.905v.932zm-3.318-8.875l.996 3.041-.212.559h-1.93l-.965-.9v-3.135h1.508c.211 0 .543.156.603.435zm4.223 7.076v-3.166a.614.614 0 0 0-.362-.558l-1.72-.776-.964-2.948c-.242-.838-1.116-1.304-1.78-1.304h-5.127V7.552c0-.807-.724-1.552-1.508-1.552H7.238c-.784 0-1.508.745-1.508 1.552v9.372l-.12.124a.622.622 0 0 0-.181.435v1.862c0 .807.723 1.552 1.508 1.552h1.266c-.03.217-.06.403-.03.62 0 .342.03.528.09.776.06.28.302.497.574.497.03 0 .09 0 .12-.031a.595.595 0 0 0 .453-.745c-.06-.217-.06-.31-.06-.497 0-.745.27-1.458.753-1.955.513-.528 1.207-.807 1.96-.807 1.177 0 2.172.683 2.443 1.707.06.28.302.466.573.466h5.55c.331 0 .573-.125.663-.404a2.655 2.655 0 0 1 2.533-1.769c1.177 0 2.142.683 2.413 1.707v.031c.03.062.03.124.09.155.03.062.06.093.121.124l.03.031c.03.031.09.063.151.094h1.719c.784 0 1.508-.745 1.508-1.552v-1.242c0-.155-.06-.31-.18-.434l-.121-.124zm-17.493 5.214c-.663 0-1.206-.559-1.206-1.242 0-.683.543-1.241 1.206-1.241.664 0 1.207.558 1.207 1.241s-.543 1.242-1.207 1.242zm0-3.725c-1.326 0-2.412 1.118-2.412 2.483 0 1.366 1.086 2.483 2.412 2.483 1.327 0 2.413-1.117 2.413-2.483 0-1.365-1.086-2.483-2.413-2.483zM.651 11.146h2.984c.36 0 .65.293.65.659a.657.657 0 0 1-.65.658H.65A.653.653 0 0 1 0 11.805c0-.364.295-.659.65-.659zm1.73 2.195h1.667a.66.66 0 0 1 .666.659.663.663 0 0 1-.666.659H2.38A.66.66 0 0 1 1.714 14c0-.364.299-.659.666-.659z"  fill-rule="evenodd"/>
</svg>
