<svg width="23" height="23" viewBox="0 0 23 23" xmlns="http://www.w3.org/2000/svg">
    <title>
        doc_upload_fail
    </title>
    <g  fill-rule="evenodd">
        <path d="M1 11.5C1 17.3 5.7 22 11.5 22S22 17.3 22 11.5 17.3 1 11.5 1 1 5.7 1 11.5zm-1 0C0 5.149 5.147 0 11.5 0 17.851 0 23 5.147 23 11.5 23 17.851 17.853 23 11.5 23 5.149 23 0 17.853 0 11.5z" fill-rule="nonzero"/>
        <path d="M11.5 12.21l-4.07 4.06a.502.502 0 1 1-.71-.71l4.07-4.06-4.06-4.07a.502.502 0 0 1 .71-.71l4.06 4.07 4.07-4.07a.502.502 0 0 1 .71.71l-4.07 4.07 4.07 4.07a.502.502 0 1 1-.71.71l-4.07-4.07z"/>
    </g>
</svg>
