<svg width="23" height="23" viewBox="0 0 23 23" xmlns="http://www.w3.org/2000/svg">
    <title>
        doc_upload_successful
    </title>
    <g fill-rule="nonzero" >
        <path d="M11.5 22C17.299 22 22 17.299 22 11.5S17.299 1 11.5 1 1 5.701 1 11.5 5.701 22 11.5 22zm0 1C5.149 23 0 17.851 0 11.5S5.149 0 11.5 0 23 5.149 23 11.5 17.851 23 11.5 23z"/>
        <path d="M10.546 14.439l-3.192-3.193a.5.5 0 0 0-.708.708l3.6 3.6A.5.5 0 0 0 11 15.5l5.4-7.2a.5.5 0 0 0-.8-.6l-5.054 6.739z"/>
    </g>
</svg>
