<svg width="23" height="23" viewBox="0 0 23 23" xmlns="http://www.w3.org/2000/svg">
    <title>
        doc_upload_pending
    </title>
    <g  fill-rule="evenodd">
        <path d="M1 11.5C1 17.3 5.7 22 11.5 22S22 17.3 22 11.5 17.3 1 11.5 1 1 5.7 1 11.5zm-1 0C0 5.149 5.147 0 11.5 0 17.851 0 23 5.147 23 11.5 23 17.851 17.853 23 11.5 23 5.149 23 0 17.853 0 11.5z" fill-rule="nonzero"/>
        <path d="M11.475 6.009a.499.499 0 0 0-.387.145L7.553 9.69a.5.5 0 1 0 .707.707L11 7.657V16.5a.5.5 0 1 0 1 0V7.707l2.69 2.69a.5.5 0 0 0 .707-.707l-3.536-3.536a.499.499 0 0 0-.386-.145z"/>
    </g>
</svg>
