<svg width="20" height="20" viewBox="0 0 20 20" xmlns="http://www.w3.org/2000/svg">
    <title>
        web/download
    </title>
    <path d="M5.5 16s-3.396-.66-3.375-3.766C2.137 10.48 3.637 8.875 5.5 8.771c0-2.389 1.49-4.617 3.938-4.617 1.93 0 3.219 1.212 3.677 2.892 2.787-.121 4.672 2.14 4.76 4.034.076 1.633-1.305 3.74-3.315 4.92H5.5zM9.438 3C6.765 3 4.582 5.124 4.394 7.813 2.43 8.39 1 10.151 1 12.234 1 14.693 2.991 16.696 5.5 17h9.563C16.995 15.991 19 13.59 19 11.369c0-2.92-2.222-5.299-5.025-5.466C13.15 4.183 11.43 3 9.438 3zm1.124 9.371V6.943a.563.563 0 0 0-1.124 0v5.411L7.038 9.97a.565.565 0 1 0-.8.799l3.341 3.325a.544.544 0 0 0 .429.157c.154.011.31-.04.428-.158l3.342-3.324a.565.565 0 1 0-.8-.799l-2.416 2.402z"  fill-rule="evenodd"/>
</svg>
