<?xml version="1.0" encoding="UTF-8"?>
<svg width="42px" height="42px" viewBox="0 0 42 42" version="1.1" xmlns="http://www.w3.org/2000/svg" xmlns:xlink="http://www.w3.org/1999/xlink">
        <g id="frame" transform="translate(-186.000000, -46.000000)">
            <g id="Share" transform="translate(24.000000, 12.000000)">
                <g id="FB_icon" transform="translate(162.000000, 34.000000)">
                    <rect id="BG" fill="none" x="0" y="0" width="42" height="42" rx="3"></rect>
                    <path d="M31.676259,9 L10.3246403,9 C9.59306166,9 9,9.59306166 9,10.3246403 L9,31.676259 C9,32.4078376 9.59306166,33.0008993 10.3246403,33.0008993 L21.8201439,33.0008993 L21.8201439,23.7068345 L18.692446,23.7068345 L18.692446,20.0845324 L21.8201439,20.0845324 L21.8201439,17.4127698 C21.8201439,14.3129496 23.7131295,12.625 26.4793165,12.625 C27.4128785,12.6217884 28.3459202,12.6695212 29.2742806,12.7679856 L29.2742806,16.0053957 L27.3561151,16.0053957 C25.852518,16.0053957 25.557554,16.7203237 25.557554,17.7688849 L25.557554,20.0818345 L29.1438849,20.0818345 L28.6771583,23.7041367 L25.5602518,23.7041367 L25.5602518,33.0008993 L31.6753597,33.0008993 C32.4069383,33.0008993 33,32.4078376 33,31.676259 L33,10.3246403 C33.0000002,9.5934127 32.4074864,9.00049642 31.676259,9 Z" id="Shape" fill="#FFFFFF" fill-rule="nonzero"></path>
                </g>
            </g>
        </g>
</svg>
