<?xml version="1.0" encoding="UTF-8" standalone="no"?>
<svg width="22px" height="13px" viewBox="0 0 22 13" version="1.1" xmlns="http://www.w3.org/2000/svg" xmlns:xlink="http://www.w3.org/1999/xlink">
    <title>icon-filter</title>
            <g id="icon-filter">
                <path d="M1.5,2 L11.5,2 C12.0522847,2 12.5,1.55228475 12.5,1 C12.5,0.44771525 12.0522847,0 11.5,0 L1.5,0 C0.94771525,0 0.5,0.44771525 0.5,1 C0.5,1.55228475 0.94771525,2 1.5,2 Z M1.5,7 L9,7 C9.55228475,7 10,6.55228475 10,6 C10,5.44771525 9.55228475,5 9,5 L1.5,5 C0.94771525,5 0.5,5.44771525 0.5,6 C0.5,6.55228475 0.94771525,7 1.5,7 Z M1.5,12 L6,12 C6.55228475,12 7,11.5522847 7,11 C7,10.4477153 6.55228475,10 6,10 L1.5,10 C0.94771525,10 0.5,10.4477153 0.5,11 C0.5,11.5522847 0.94771525,12 1.5,12 Z" id="List"></path>
                <path d="M18.5,9.08578644 L18.5,1 C18.5,0.44771525 18.0522847,0 17.5,0 C16.9477153,0 16.5,0.44771525 16.5,1 L16.5,9.08578644 L14.7071068,7.29289322 C14.3165825,6.90236893 13.6834175,6.90236893 13.2928932,7.29289322 C12.9023689,7.68341751 12.9023689,8.31658249 13.2928932,8.70710678 L16.7928932,12.2071068 C16.9881554,12.4023689 17.2440777,12.5 17.5,12.5 C17.7559223,12.5 18.0118446,12.4023689 18.2071068,12.2071068 L21.7071068,8.70710678 C22.0976311,8.31658249 22.0976311,7.68341751 21.7071068,7.29289322 C21.3165825,6.90236893 20.6834175,6.90236893 20.2928932,7.29289322 L18.5,9.08578644 Z" id="Down-Arrow"></path>
    </g>
</svg>
