<?xml version="1.0" encoding="UTF-8" standalone="no"?>
<svg width="200px" height="136px" viewBox="0 0 200 136" version="1.1" xmlns="http://www.w3.org/2000/svg" xmlns:xlink="http://www.w3.org/1999/xlink" xmlns:sketch="http://www.bohemiancoding.com/sketch/ns">
    <!-- Generator: Sketch 3.3.1 (12005) - http://www.bohemiancoding.com/sketch -->
    <title>flag-uk</title>
    <desc>Created with Sketch.</desc>
    <defs></defs>
    <g id="Flags" stroke="none" stroke-width="1" fill="none" fill-rule="evenodd" sketch:type="MSPage">
        <g id="flag-uk" sketch:type="MSArtboardGroup">
            <g id="Imported-Layers" sketch:type="MSLayerGroup" transform="translate(0.000000, 0.692308)">
                <path d="M116.930769,134.496154 L174.996154,134.496154 L116.930769,94.6346154 L116.930769,134.496154" id="Fill-1" fill="#1A3179" sketch:type="MSShapeGroup"></path>
                <path d="M1.34230769,89.9153846 L1.34230769,117.657692 C1.34230769,118.715385 1.45,119.746154 1.63846154,120.75 L45.9923077,90.6423077 L1.34230769,89.9153846" id="Fill-2" fill="#1A3179" sketch:type="MSShapeGroup"></path>
                <path d="M1.64230769,15.4923077 C1.45,16.5076923 1.34230769,17.5461538 1.34230769,18.6153846 L1.34230769,44.9807692 L45.65,45.7038462 L1.64230769,15.4923077" id="Fill-3" fill="#1A3179" sketch:type="MSShapeGroup"></path>
                <path d="M176.9,1.77692308 L116.930769,1.77692308 L116.930769,42.4884615 L176.9,1.77692308" id="Fill-4" fill="#1A3179" sketch:type="MSShapeGroup"></path>
                <path d="M199.426923,44.9807692 L199.426923,18.6153846 C199.426923,17.5461538 199.315385,16.5038462 199.123077,15.4923077 L155.115385,45.7038462 L199.426923,44.9807692" id="Fill-5" fill="#1A3179" sketch:type="MSShapeGroup"></path>
                <path d="M199.130769,120.753846 C199.315385,119.746154 199.426923,118.715385 199.426923,117.657692 L199.426923,89.9153846 L154.773077,90.6423077 L199.130769,120.753846" id="Fill-6" fill="#1A3179" sketch:type="MSShapeGroup"></path>
                <path d="M83.8346154,1.77692308 L23.8653846,1.77692308 L83.8346154,42.4884615 L83.8346154,1.77692308" id="Fill-7" fill="#1A3179" sketch:type="MSShapeGroup"></path>
                <path d="M25.7692308,134.496154 L83.8346154,134.496154 L83.8346154,94.6346154 L25.7692308,134.496154" id="Fill-8" fill="#1A3179" sketch:type="MSShapeGroup"></path>
                <path d="M83.8346154,42.4884615 L23.8653846,1.77692308 L18.1769231,1.77692308 C14.4576923,1.77692308 11.0307692,3 8.24230769,5.04230769 L67.2846154,46.3230769 L52.4846154,46.3230769 L2.97307692,11.4192308 C2.36538462,12.6961538 1.91153846,14.0615385 1.64230769,15.4923077 L45.65,45.7038462 L1.34230769,44.9807692 L1.34230769,53.9653846 L58.9576923,54.8384615 L90.4538462,55.3115385 L90.4538462,1.77692308 L83.8346154,1.77692308 L83.8346154,42.4884615" id="Fill-9" fill="#FFFFFF" sketch:type="MSShapeGroup"></path>
                <path d="M110.311538,82.2692308 L110.311538,134.496154 L116.930769,134.496154 L116.930769,94.6346154 L174.996154,134.496154 L182.588462,134.496154 C186.657692,134.496154 190.388462,133.05 193.3,130.646154 L133.484615,91.2615385 L148.284615,91.2615385 L198.230769,123.853846 C198.626923,122.861538 198.926923,121.826923 199.130769,120.753846 L154.773077,90.6423077 L199.426923,89.9153846 L199.426923,80.9307692 L141.742308,81.7961538 L110.311538,82.2692308" id="Fill-10" fill="#FFFFFF" sketch:type="MSShapeGroup"></path>
                <path d="M1.34230769,80.9307692 L1.34230769,89.9153846 L45.9923077,90.6423077 L1.63846154,120.75 C2.37307692,124.707692 4.48076923,128.184615 7.46538462,130.646154 L67.2846154,91.2615385 L82.0884615,91.2615385 L18.3961538,134.496154 L25.7692308,134.496154 L83.8346154,94.6346154 L83.8346154,134.496154 L90.4538462,134.496154 L90.4538462,82.2692308 L59.0192308,81.7961538 L1.34230769,80.9307692" id="Fill-11" fill="#FFFFFF" sketch:type="MSShapeGroup"></path>
                <path d="M155.115385,45.7038462 L199.123077,15.4923077 C198.319231,11.2153846 195.9,7.52307692 192.523077,5.04230769 L133.484615,46.3230769 L118.676923,46.3230769 L182.392308,1.77692308 L176.9,1.77692308 L116.930769,42.4884615 L116.930769,1.77692308 L110.311538,1.77692308 L110.311538,55.3115385 L141.807692,54.8384615 L199.426923,53.9653846 L199.426923,44.9807692 L155.115385,45.7038462" id="Fill-12" fill="#FFFFFF" sketch:type="MSShapeGroup"></path>
                <path d="M141.807692,54.8384615 L110.311538,55.3115385 L110.311538,1.77692308 L90.4538462,1.77692308 L90.4538462,55.3115385 L58.9576923,54.8384615 L1.34230769,53.9653846 L1.34230769,80.9307692 L59.0192308,81.7961538 L90.4538462,82.2692308 L90.4538462,134.496154 L110.311538,134.496154 L110.311538,82.2692308 L141.742308,81.7961538 L199.426923,80.9307692 L199.426923,53.9653846 L141.807692,54.8384615" id="Fill-13" fill="#FF2B2D" sketch:type="MSShapeGroup"></path>
                <path d="M52.4846154,46.3230769 L67.2846154,46.3230769 L8.24230769,5.04230769 C5.99615385,6.69230769 4.18076923,8.87692308 2.97307692,11.4192308 L52.4846154,46.3230769" id="Fill-14" fill="#FF2B2D" sketch:type="MSShapeGroup"></path>
                <path d="M118.676923,46.3230769 L133.484615,46.3230769 L192.523077,5.04230769 C189.734615,3 186.307692,1.77692308 182.588462,1.77692308 L182.392308,1.77692308 L118.676923,46.3230769" id="Fill-15" fill="#FF2B2D" sketch:type="MSShapeGroup"></path>
                <path d="M133.484615,91.2615385 L193.3,130.646154 C195.473077,128.853846 197.176923,126.519231 198.230769,123.853846 L148.284615,91.2615385 L133.484615,91.2615385" id="Fill-16" fill="#FF2B2D" sketch:type="MSShapeGroup"></path>
                <path d="M67.2846154,91.2615385 L7.46538462,130.646154 C10.3769231,133.05 14.1076923,134.496154 18.1769231,134.496154 L18.3961538,134.496154 L82.0884615,91.2615385 L67.2846154,91.2615385" id="Fill-17" fill="#FF2B2D" sketch:type="MSShapeGroup"></path>
            </g>
        </g>
    </g>
</svg>