<svg xmlns="http://www.w3.org/2000/svg" width="200" height="136" viewBox="0 0 200 136">
  <g fill="none" fill-rule="evenodd">
    <path fill="#0072CE" d="M2.84217094e-14,45.3514739 L200,45.3514739 L200,19.9908192 C200,8.95019463 191.050534,0 179.999872,0 L20.0001277,0 C8.95436216,0 2.84217094e-14,8.95999186 2.84217094e-14,19.9908192 L2.84217094e-14,45.3514739 Z"/>
    <polygon fill="#000" points="0 91.703 200 91.703 200 45 0 45"/>
    <path fill="#FFF" d="M2.84217094e-14,116.360655 C2.84217094e-14,127.401279 8.94946575,136.351474 20.0001277,136.351474 L179.999872,136.351474 C191.045638,136.351474 200,127.391482 200,116.360655 L200,91 L2.84217094e-14,91 L2.84217094e-14,116.360655 Z"/>
  </g>
</svg>
