<?xml version="1.0" encoding="UTF-8" standalone="no"?>
<svg width="200px" height="136px" viewBox="0 0 200 136" version="1.1" xmlns="http://www.w3.org/2000/svg" xmlns:xlink="http://www.w3.org/1999/xlink" xmlns:sketch="http://www.bohemiancoding.com/sketch/ns">
    <!-- Generator: Sketch 3.3.3 (12081) - http://www.bohemiancoding.com/sketch -->
    <title>flag-us</title>
    <desc>Created with Sketch.</desc>
    <defs></defs>
    <g id="Flags" stroke="none" stroke-width="1" fill="none" fill-rule="evenodd" sketch:type="MSPage">
        <g id="flag-us" sketch:type="MSArtboardGroup">
            <path d="M4.35379151,122.178846 C6.87476233,128.059619 12.7154363,132.178846 19.5165627,132.178846 L180.564207,132.178846 C187.365333,132.178846 193.206007,128.059619 195.726978,122.178846 L4.35379151,122.178846 Z" id="Mask" fill="#FF2B2D" sketch:type="MSShapeGroup"></path>
            <path d="M195.56924,12.8211532 C192.968294,7.13240246 187.227163,3.17884615 180.564207,3.17884615 L85.0791016,3.17884615 L85.0791016,12.8211538 L195.569244,12.8211538 L195.56924,12.8211532 Z M85.0791016,22.8211538 L197,22.8211538 L197,32.8211538 L85.0791016,32.8211538 L85.0791016,22.8211538 Z M85.0791016,42.8211538 L197,42.8211538 L197,52.8211538 L85.0791016,52.8211538 L85.0791016,42.8211538 Z M85.0791016,62.8211538 L197,62.8211538 L197,72.8211538 L85.0791016,72.8211538 L85.0791016,62.8211538 Z M2.35351563,82.8211538 L196.381511,82.8211538 L196.381511,92.8211538 L2.35351563,92.8211538 L2.35351563,82.8211538 Z M2.35351563,102.821154 L196.381511,102.821154 L196.381511,112.821154 L2.35351563,112.821154 L2.35351563,102.821154 Z" id="Mask-Copy-2" fill="#FF2B2D" sketch:type="MSShapeGroup"></path>
            <path d="M3.02638705,72.8211538 L3.02638705,19.6690218 C3.02638705,10.5630692 10.4106101,3.17884615 19.5165627,3.17884615 L85,3.17884615 L85,72.8211538 L3.02638705,72.8211538 Z" id="Mask-Copy" fill="#1A3179" sketch:type="MSShapeGroup"></path>
            <path d="M13.8800001,13.853154 L12.1871785,15.031123 L12.7843829,13.0571416 L11.1409572,11.811185 L13.2028715,11.7691663 L13.8800001,9.82115385 L14.5571288,11.7691663 L16.619043,11.811185 L14.9756173,13.0571416 L15.5728217,15.031123 L13.8800001,13.853154 Z M25.8800001,13.853154 L24.1871785,15.031123 L24.7843829,13.0571416 L23.1409572,11.811185 L25.2028715,11.7691663 L25.8800001,9.82115385 L26.5571288,11.7691663 L28.619043,11.811185 L26.9756173,13.0571416 L27.5728217,15.031123 L25.8800001,13.853154 Z M37.8800001,13.853154 L36.1871785,15.031123 L36.7843829,13.0571416 L35.1409572,11.811185 L37.2028715,11.7691663 L37.8800001,9.82115385 L38.5571288,11.7691663 L40.619043,11.811185 L38.9756173,13.0571416 L39.5728217,15.031123 L37.8800001,13.853154 Z M50.8800001,13.853154 L49.1871785,15.031123 L49.7843829,13.0571416 L48.1409572,11.811185 L50.2028715,11.7691663 L50.8800001,9.82115385 L51.5571288,11.7691663 L53.619043,11.811185 L51.9756173,13.0571416 L52.5728217,15.031123 L50.8800001,13.853154 Z M63.8800001,13.853154 L62.1871785,15.031123 L62.7843829,13.0571416 L61.1409572,11.811185 L63.2028715,11.7691663 L63.8800001,9.82115385 L64.5571288,11.7691663 L66.619043,11.811185 L64.9756173,13.0571416 L65.5728217,15.031123 L63.8800001,13.853154 Z M75.8800001,13.853154 L74.1871785,15.031123 L74.7843829,13.0571416 L73.1409572,11.811185 L75.2028715,11.7691663 L75.8800001,9.82115385 L76.5571288,11.7691663 L78.619043,11.811185 L76.9756173,13.0571416 L77.5728217,15.031123 L75.8800001,13.853154 Z M13.8800001,25.853154 L12.1871785,27.031123 L12.7843829,25.0571416 L11.1409572,23.811185 L13.2028715,23.7691663 L13.8800001,21.8211538 L14.5571288,23.7691663 L16.619043,23.811185 L14.9756173,25.0571416 L15.5728217,27.031123 L13.8800001,25.853154 Z M25.8800001,25.853154 L24.1871785,27.031123 L24.7843829,25.0571416 L23.1409572,23.811185 L25.2028715,23.7691663 L25.8800001,21.8211538 L26.5571288,23.7691663 L28.619043,23.811185 L26.9756173,25.0571416 L27.5728217,27.031123 L25.8800001,25.853154 Z M37.8800001,25.853154 L36.1871785,27.031123 L36.7843829,25.0571416 L35.1409572,23.811185 L37.2028715,23.7691663 L37.8800001,21.8211538 L38.5571288,23.7691663 L40.619043,23.811185 L38.9756173,25.0571416 L39.5728217,27.031123 L37.8800001,25.853154 Z M50.8800001,25.853154 L49.1871785,27.031123 L49.7843829,25.0571416 L48.1409572,23.811185 L50.2028715,23.7691663 L50.8800001,21.8211538 L51.5571288,23.7691663 L53.619043,23.811185 L51.9756173,25.0571416 L52.5728217,27.031123 L50.8800001,25.853154 Z M63.8800001,25.853154 L62.1871785,27.031123 L62.7843829,25.0571416 L61.1409572,23.811185 L63.2028715,23.7691663 L63.8800001,21.8211538 L64.5571288,23.7691663 L66.619043,23.811185 L64.9756173,25.0571416 L65.5728217,27.031123 L63.8800001,25.853154 Z M75.8800001,25.853154 L74.1871785,27.031123 L74.7843829,25.0571416 L73.1409572,23.811185 L75.2028715,23.7691663 L75.8800001,21.8211538 L76.5571288,23.7691663 L78.619043,23.811185 L76.9756173,25.0571416 L77.5728217,27.031123 L75.8800001,25.853154 Z M13.8800001,51.853154 L12.1871785,53.031123 L12.7843829,51.0571416 L11.1409572,49.811185 L13.2028715,49.7691663 L13.8800001,47.8211538 L14.5571288,49.7691663 L16.619043,49.811185 L14.9756173,51.0571416 L15.5728217,53.031123 L13.8800001,51.853154 Z M25.8800001,51.853154 L24.1871785,53.031123 L24.7843829,51.0571416 L23.1409572,49.811185 L25.2028715,49.7691663 L25.8800001,47.8211538 L26.5571288,49.7691663 L28.619043,49.811185 L26.9756173,51.0571416 L27.5728217,53.031123 L25.8800001,51.853154 Z M37.8800001,51.853154 L36.1871785,53.031123 L36.7843829,51.0571416 L35.1409572,49.811185 L37.2028715,49.7691663 L37.8800001,47.8211538 L38.5571288,49.7691663 L40.619043,49.811185 L38.9756173,51.0571416 L39.5728217,53.031123 L37.8800001,51.853154 Z M50.8800001,51.853154 L49.1871785,53.031123 L49.7843829,51.0571416 L48.1409572,49.811185 L50.2028715,49.7691663 L50.8800001,47.8211538 L51.5571288,49.7691663 L53.619043,49.811185 L51.9756173,51.0571416 L52.5728217,53.031123 L50.8800001,51.853154 Z M63.8800001,51.853154 L62.1871785,53.031123 L62.7843829,51.0571416 L61.1409572,49.811185 L63.2028715,49.7691663 L63.8800001,47.8211538 L64.5571288,49.7691663 L66.619043,49.811185 L64.9756173,51.0571416 L65.5728217,53.031123 L63.8800001,51.853154 Z M75.8800001,51.853154 L74.1871785,53.031123 L74.7843829,51.0571416 L73.1409572,49.811185 L75.2028715,49.7691663 L75.8800001,47.8211538 L76.5571288,49.7691663 L78.619043,49.811185 L76.9756173,51.0571416 L77.5728217,53.031123 L75.8800001,51.853154 Z M13.8800001,37.853154 L12.1871785,39.031123 L12.7843829,37.0571416 L11.1409572,35.811185 L13.2028715,35.7691663 L13.8800001,33.8211538 L14.5571288,35.7691663 L16.619043,35.811185 L14.9756173,37.0571416 L15.5728217,39.031123 L13.8800001,37.853154 Z M25.8800001,37.853154 L24.1871785,39.031123 L24.7843829,37.0571416 L23.1409572,35.811185 L25.2028715,35.7691663 L25.8800001,33.8211538 L26.5571288,35.7691663 L28.619043,35.811185 L26.9756173,37.0571416 L27.5728217,39.031123 L25.8800001,37.853154 Z M37.8800001,37.853154 L36.1871785,39.031123 L36.7843829,37.0571416 L35.1409572,35.811185 L37.2028715,35.7691663 L37.8800001,33.8211538 L38.5571288,35.7691663 L40.619043,35.811185 L38.9756173,37.0571416 L39.5728217,39.031123 L37.8800001,37.853154 Z M50.8800001,37.853154 L49.1871785,39.031123 L49.7843829,37.0571416 L48.1409572,35.811185 L50.2028715,35.7691663 L50.8800001,33.8211538 L51.5571288,35.7691663 L53.619043,35.811185 L51.9756173,37.0571416 L52.5728217,39.031123 L50.8800001,37.853154 Z M63.8800001,37.853154 L62.1871785,39.031123 L62.7843829,37.0571416 L61.1409572,35.811185 L63.2028715,35.7691663 L63.8800001,33.8211538 L64.5571288,35.7691663 L66.619043,35.811185 L64.9756173,37.0571416 L65.5728217,39.031123 L63.8800001,37.853154 Z M75.8800001,37.853154 L74.1871785,39.031123 L74.7843829,37.0571416 L73.1409572,35.811185 L75.2028715,35.7691663 L75.8800001,33.8211538 L76.5571288,35.7691663 L78.619043,35.811185 L76.9756173,37.0571416 L77.5728217,39.031123 L75.8800001,37.853154 Z M13.8800001,64.853154 L12.1871785,66.031123 L12.7843829,64.0571416 L11.1409572,62.811185 L13.2028715,62.7691663 L13.8800001,60.8211538 L14.5571288,62.7691663 L16.619043,62.811185 L14.9756173,64.0571416 L15.5728217,66.031123 L13.8800001,64.853154 Z M25.8800001,64.853154 L24.1871785,66.031123 L24.7843829,64.0571416 L23.1409572,62.811185 L25.2028715,62.7691663 L25.8800001,60.8211538 L26.5571288,62.7691663 L28.619043,62.811185 L26.9756173,64.0571416 L27.5728217,66.031123 L25.8800001,64.853154 Z M37.8800001,64.853154 L36.1871785,66.031123 L36.7843829,64.0571416 L35.1409572,62.811185 L37.2028715,62.7691663 L37.8800001,60.8211538 L38.5571288,62.7691663 L40.619043,62.811185 L38.9756173,64.0571416 L39.5728217,66.031123 L37.8800001,64.853154 Z M50.8800001,64.853154 L49.1871785,66.031123 L49.7843829,64.0571416 L48.1409572,62.811185 L50.2028715,62.7691663 L50.8800001,60.8211538 L51.5571288,62.7691663 L53.619043,62.811185 L51.9756173,64.0571416 L52.5728217,66.031123 L50.8800001,64.853154 Z M63.8800001,64.853154 L62.1871785,66.031123 L62.7843829,64.0571416 L61.1409572,62.811185 L63.2028715,62.7691663 L63.8800001,60.8211538 L64.5571288,62.7691663 L66.619043,62.811185 L64.9756173,64.0571416 L65.5728217,66.031123 L63.8800001,64.853154 Z M75.8800001,64.853154 L74.1871785,66.031123 L74.7843829,64.0571416 L73.1409572,62.811185 L75.2028715,62.7691663 L75.8800001,60.8211538 L76.5571288,62.7691663 L78.619043,62.811185 L76.9756173,64.0571416 L77.5728217,66.031123 L75.8800001,64.853154 Z M19.8800001,19.853154 L18.1871785,21.031123 L18.7843829,19.0571416 L17.1409572,17.811185 L19.2028715,17.7691663 L19.8800001,15.8211538 L20.5571288,17.7691663 L22.619043,17.811185 L20.9756173,19.0571416 L21.5728217,21.031123 L19.8800001,19.853154 Z M31.8800001,19.853154 L30.1871785,21.031123 L30.7843829,19.0571416 L29.1409572,17.811185 L31.2028715,17.7691663 L31.8800001,15.8211538 L32.5571288,17.7691663 L34.619043,17.811185 L32.9756173,19.0571416 L33.5728217,21.031123 L31.8800001,19.853154 Z M43.8800001,19.853154 L42.1871785,21.031123 L42.7843829,19.0571416 L41.1409572,17.811185 L43.2028715,17.7691663 L43.8800001,15.8211538 L44.5571288,17.7691663 L46.619043,17.811185 L44.9756173,19.0571416 L45.5728217,21.031123 L43.8800001,19.853154 Z M56.8800001,19.853154 L55.1871785,21.031123 L55.7843829,19.0571416 L54.1409572,17.811185 L56.2028715,17.7691663 L56.8800001,15.8211538 L57.5571288,17.7691663 L59.619043,17.811185 L57.9756173,19.0571416 L58.5728217,21.031123 L56.8800001,19.853154 Z M69.8800001,19.853154 L68.1871785,21.031123 L68.7843829,19.0571416 L67.1409572,17.811185 L69.2028715,17.7691663 L69.8800001,15.8211538 L70.5571288,17.7691663 L72.619043,17.811185 L70.9756173,19.0571416 L71.5728217,21.031123 L69.8800001,19.853154 Z M19.8800001,44.853154 L18.1871785,46.031123 L18.7843829,44.0571416 L17.1409572,42.811185 L19.2028715,42.7691663 L19.8800001,40.8211538 L20.5571288,42.7691663 L22.619043,42.811185 L20.9756173,44.0571416 L21.5728217,46.031123 L19.8800001,44.853154 Z M31.8800001,44.853154 L30.1871785,46.031123 L30.7843829,44.0571416 L29.1409572,42.811185 L31.2028715,42.7691663 L31.8800001,40.8211538 L32.5571288,42.7691663 L34.619043,42.811185 L32.9756173,44.0571416 L33.5728217,46.031123 L31.8800001,44.853154 Z M43.8800001,44.853154 L42.1871785,46.031123 L42.7843829,44.0571416 L41.1409572,42.811185 L43.2028715,42.7691663 L43.8800001,40.8211538 L44.5571288,42.7691663 L46.619043,42.811185 L44.9756173,44.0571416 L45.5728217,46.031123 L43.8800001,44.853154 Z M56.8800001,44.853154 L55.1871785,46.031123 L55.7843829,44.0571416 L54.1409572,42.811185 L56.2028715,42.7691663 L56.8800001,40.8211538 L57.5571288,42.7691663 L59.619043,42.811185 L57.9756173,44.0571416 L58.5728217,46.031123 L56.8800001,44.853154 Z M69.8800001,44.853154 L68.1871785,46.031123 L68.7843829,44.0571416 L67.1409572,42.811185 L69.2028715,42.7691663 L69.8800001,40.8211538 L70.5571288,42.7691663 L72.619043,42.811185 L70.9756173,44.0571416 L71.5728217,46.031123 L69.8800001,44.853154 Z M19.8800001,31.853154 L18.1871785,33.031123 L18.7843829,31.0571416 L17.1409572,29.811185 L19.2028715,29.7691663 L19.8800001,27.8211538 L20.5571288,29.7691663 L22.619043,29.811185 L20.9756173,31.0571416 L21.5728217,33.031123 L19.8800001,31.853154 Z M31.8800001,31.853154 L30.1871785,33.031123 L30.7843829,31.0571416 L29.1409572,29.811185 L31.2028715,29.7691663 L31.8800001,27.8211538 L32.5571288,29.7691663 L34.619043,29.811185 L32.9756173,31.0571416 L33.5728217,33.031123 L31.8800001,31.853154 Z M43.8800001,31.853154 L42.1871785,33.031123 L42.7843829,31.0571416 L41.1409572,29.811185 L43.2028715,29.7691663 L43.8800001,27.8211538 L44.5571288,29.7691663 L46.619043,29.811185 L44.9756173,31.0571416 L45.5728217,33.031123 L43.8800001,31.853154 Z M56.8800001,31.853154 L55.1871785,33.031123 L55.7843829,31.0571416 L54.1409572,29.811185 L56.2028715,29.7691663 L56.8800001,27.8211538 L57.5571288,29.7691663 L59.619043,29.811185 L57.9756173,31.0571416 L58.5728217,33.031123 L56.8800001,31.853154 Z M69.8800001,31.853154 L68.1871785,33.031123 L68.7843829,31.0571416 L67.1409572,29.811185 L69.2028715,29.7691663 L69.8800001,27.8211538 L70.5571288,29.7691663 L72.619043,29.811185 L70.9756173,31.0571416 L71.5728217,33.031123 L69.8800001,31.853154 Z M19.8800001,58.853154 L18.1871785,60.031123 L18.7843829,58.0571416 L17.1409572,56.811185 L19.2028715,56.7691663 L19.8800001,54.8211538 L20.5571288,56.7691663 L22.619043,56.811185 L20.9756173,58.0571416 L21.5728217,60.031123 L19.8800001,58.853154 Z M31.8800001,58.853154 L30.1871785,60.031123 L30.7843829,58.0571416 L29.1409572,56.811185 L31.2028715,56.7691663 L31.8800001,54.8211538 L32.5571288,56.7691663 L34.619043,56.811185 L32.9756173,58.0571416 L33.5728217,60.031123 L31.8800001,58.853154 Z M43.8800001,58.853154 L42.1871785,60.031123 L42.7843829,58.0571416 L41.1409572,56.811185 L43.2028715,56.7691663 L43.8800001,54.8211538 L44.5571288,56.7691663 L46.619043,56.811185 L44.9756173,58.0571416 L45.5728217,60.031123 L43.8800001,58.853154 Z M56.8800001,58.853154 L55.1871785,60.031123 L55.7843829,58.0571416 L54.1409572,56.811185 L56.2028715,56.7691663 L56.8800001,54.8211538 L57.5571288,56.7691663 L59.619043,56.811185 L57.9756173,58.0571416 L58.5728217,60.031123 L56.8800001,58.853154 Z M69.8800001,58.853154 L68.1871785,60.031123 L68.7843829,58.0571416 L67.1409572,56.811185 L69.2028715,56.7691663 L69.8800001,54.8211538 L70.5571288,56.7691663 L72.619043,56.811185 L70.9756173,58.0571416 L71.5728217,60.031123 L69.8800001,58.853154 Z" id="Star-1" fill="#FFFFFF" sketch:type="MSShapeGroup"></path>
        </g>
    </g>
</svg>