<svg xmlns="http://www.w3.org/2000/svg" xmlns:xlink="http://www.w3.org/1999/xlink" width="200" height="136" viewBox="0 0 200 136">
  <defs>
    <polygon id="svg+croatia-a" points="59.916 23.5 59.916 .547 0 .547 0 23.5 59.916 23.5"/>
  </defs>
  <g fill="none" fill-rule="evenodd" transform="translate(.533)">
    <path fill="#CD1228" d="M0,72.0544218 L200,72.0544218 L200,19.9993965 C200,8.95403481 191.050534,0 179.999872,0 L20.0001277,0 C8.95436216,0 0,8.96190734 0,19.9993965 L0,72.0544218 Z"/>
    <polygon fill="#FFF" points="0 91 200 91 200 45 0 45"/>
    <path fill="#0037A5" d="M0,113.675737 C0,126.199201 10.1584381,136.351474 22.6749753,136.351474 L177.325025,136.351474 C189.848068,136.351474 200,126.201954 200,113.675737 L200,91 L0,91 L0,113.675737 Z"/>
    <g transform="translate(69.467 30)">
      <g transform="translate(0 .453)">
        <mask id="svg+croatia-b" fill="#fff">
          <use xlink:href="#svg+croatia-a"/>
        </mask>
        <path fill="#FFF" d="M4.4903,4.8984 L12.0563,8.1914 L15.2543,20.1144 C11.8013,20.8284 9.9703,21.4134 6.3013,22.8324 L0.8383,11.2774 L4.4903,4.8984 Z M17.0333,2.1934 L23.8713,6.0974 L23.9183,6.0974 C23.9183,6.0974 24.1833,9.2134 24.1833,9.2404 L24.1813,9.2404 L24.4573,12.2954 C24.4653,12.2964 24.4703,12.2964 24.4763,12.2964 L24.7693,15.5104 C24.7633,15.5114 24.7583,15.5114 24.7543,15.5114 L25.0523,18.7694 C21.5523,19.0294 19.2853,19.3654 15.3453,20.0674 L12.1383,8.1194 L17.0333,2.1934 Z M29.8423,1.4874 L35.9673,6.1344 L34.8853,18.7664 C31.5103,18.5874 29.1013,18.5934 25.1443,18.7534 L23.9823,6.1464 L29.8423,1.4874 Z M36.0603,6.1034 L42.7563,2.2504 L47.9333,7.8604 L44.4823,20.0424 C41.1403,19.3614 39.2303,19.0674 34.9703,18.7494 L36.0603,6.1034 Z M55.3833,4.9054 L59.2653,11.4294 L57.3443,15.3594 C57.3493,15.3614 57.3533,15.3634 57.3593,15.3654 L56.1153,17.8744 L53.6873,22.8394 C50.4843,21.5584 48.7653,21.0084 44.5643,20.0724 L48.0083,7.8974 L55.3833,4.9054 Z M29.6293,19.3654 C37.6463,19.3454 45.8243,20.6034 53.9023,23.5004 L59.9163,11.3664 L55.6913,4.0024 C55.6913,4.0024 48.1483,7.1004 48.0863,7.1004 C48.0233,7.1004 42.7673,1.3164 42.7673,1.3164 L36.0173,5.3944 L29.6813,0.5464 L23.7193,5.3194 L16.7583,1.2964 L11.6853,7.3304 L4.0743,4.0754 L0.0003,11.3724 L6.0103,23.4374 C13.4063,20.8054 21.6113,19.3844 29.6293,19.3654 L29.6293,19.3654 Z" mask="url(#svg+croatia-b)"/>
      </g>
      <path fill="#00A8BE" d="M51.7989 8.5342L53.2809 9.0002 53.2789 8.9962 54.4039 8.0772 54.3909 8.1082C54.4159 8.1662 54.6349 9.4572 54.6269 9.4682 54.6209 9.4732 55.2229 9.6912 55.6639 9.8482 55.9059 9.9322 56.0979 9.9982 56.1019 10.0012 56.1019 10.0012 56.0959 10.0032 56.0939 10.0032 56.0979 10.0032 56.1129 10.0092 56.1129 10.0092L54.9809 10.9802 55.1129 12.3842 54.1059 12.0542 53.8459 11.9742 52.7579 12.9902 52.4419 11.5352 50.8769 11.0572 52.0939 9.9752 51.7989 8.5342zM53.6879 23.2932L56.1149 18.3272 55.1329 20.3112C55.1229 20.3312 55.1149 20.3452 55.1149 20.3452L54.5239 21.5462C52.9399 20.9432 51.3789 20.4582 49.8149 19.9532 48.2519 19.4482 46.7309 19.0012 45.1469 18.5152L46.8619 12.4302C48.7499 12.8302 50.4999 13.2832 52.2519 13.8482 53.9959 14.4112 55.6559 15.0842 57.3439 15.8122L59.2659 11.8832 55.3829 5.3582 48.0079 8.3502 44.5649 20.5252C48.7659 21.4622 50.4849 22.0122 53.6879 23.2932L53.6879 23.2932zM24.8731 10.5771C24.8671 10.5771 25.0161 10.2051 25.0061 10.1871L24.8301 10.0241 25.1131 9.4981 25.5191 9.4111 25.5081 8.8141 25.8221 8.7361C25.8281 8.7331 25.8321 8.7311 25.8361 8.7281L25.8751 8.4151 25.4571 7.8751 25.4611 7.6121 25.6781 7.6261 26.0761 7.7741 26.3071 8.1111 26.5291 8.0491C26.5291 8.0491 26.5531 7.6941 26.5531 7.6871 26.5531 7.6821 27.0161 7.3711 27.0161 7.3711L27.5101 7.6121 27.5191 7.9711 27.5431 8.0071 27.5211 8.0081 27.5211 8.0161C27.5211 8.0161 27.8711 8.0241 27.8711 8.0161 27.8711 8.0111 27.7971 7.7561 27.7971 7.7561L27.7971 7.6191C27.7971 7.6121 28.1001 7.5821 28.1001 7.5821L28.3281 7.3951 28.6331 7.4011 28.6621 7.5821 28.3341 8.0351C28.3341 8.0351 28.3531 8.4221 28.3531 8.4281 28.3531 8.4331 28.6441 8.5651 28.6441 8.5651L28.7481 9.1491 29.2051 9.5981 29.2341 9.9321 29.3941 10.1461 29.4611 10.4091 29.2051 10.3861 29.2421 10.9331 28.9321 10.9331 28.8791 11.4191 28.2971 11.4381 28.2831 11.7421 28.1371 11.9681 27.0551 12.0911 26.7441 11.9911 26.2851 11.9791 26.2621 11.8051 25.8631 11.5251 25.4321 11.4581 25.3611 11.0781 25.0901 11.0401 24.9921 10.7501 24.9691 10.6981C24.9411 10.6611 24.8771 10.5771 24.8731 10.5771L24.8731 10.5771zM30.3321 12.3371L30.3441 12.7001 30.3631 12.7321 30.3461 12.7321 30.3461 12.7411C30.3461 12.7411 30.6931 12.7481 30.6931 12.7411 30.6931 12.7351 30.6171 12.4791 30.6171 12.4791L30.6171 12.3431C30.6171 12.3371 30.9201 12.3061 30.9201 12.3061L31.1481 12.1191 31.4531 12.1261 31.4841 12.3061 31.1561 12.7611C31.1561 12.7611 31.1761 13.1461 31.1761 13.1521 31.1761 13.1581 31.4671 13.2891 31.4671 13.2891L31.5681 13.8731 32.0231 14.3211 32.0571 14.6571 32.2151 14.8711 32.2831 15.1331 32.0251 15.1111 32.0641 15.6571 31.7541 15.6571 31.7011 16.1431 31.1171 16.1621 31.1031 16.4681 30.9591 16.6901 29.8751 16.8151 29.5661 16.7161 29.1091 16.7041 29.0821 16.5291 28.6861 16.2491 28.2521 16.1811 28.1841 15.8021 27.9101 15.7641 27.8121 15.4731 27.7891 15.4221C27.7621 15.3851 27.6991 15.3011 27.6951 15.3011 27.6871 15.3011 27.8361 14.9291 27.8281 14.9111L27.6501 14.7481 27.9361 14.2231 28.3421 14.1341 28.3281 13.5371 28.6431 13.4621C28.6501 13.4571 28.6561 13.4541 28.6581 13.4521L28.6951 13.1401 28.2811 12.5981 28.2851 12.3371 28.4981 12.3491 28.8981 12.4981 29.1291 12.8341 29.3501 12.7731C29.3501 12.7731 29.3751 12.4181 29.3751 12.4121 29.3751 12.4051 29.8381 12.0941 29.8381 12.0941L30.3321 12.3371zM30.5571 9.3221L30.9591 9.2331 30.9511 8.6381 31.2621 8.5601C31.2691 8.5571 31.2771 8.5541 31.2791 8.5521L31.3161 8.2401 30.8981 7.6991 30.9041 7.4361 31.1211 7.4501 31.5191 7.5991 31.7501 7.9341 31.9671 7.8731C31.9671 7.8731 31.9941 7.5181 31.9941 7.5121 31.9941 7.5061 32.4551 7.1941 32.4551 7.1941L32.9511 7.4361 32.9631 7.7981 32.9861 7.8321 32.9631 7.8331 32.9631 7.8421C32.9631 7.8421 33.3121 7.8481 33.3121 7.8421 33.3121 7.8351 33.2361 7.5811 33.2361 7.5811L33.2361 7.4441C33.2361 7.4361 33.5411 7.4061 33.5411 7.4061L33.7711 7.2201 34.0741 7.2261 34.1051 7.4061 33.7771 7.8601C33.7771 7.8601 33.7951 8.2451 33.7951 8.2511 33.7951 8.2591 34.0861 8.3891 34.0861 8.3891L34.1871 8.9731 34.6461 9.4211 34.6761 9.7581 34.8381 9.9721 34.9021 10.2331 34.6461 10.2111 34.6841 10.7581 34.3751 10.7581 34.3221 11.2441 33.7361 11.2621 33.7271 11.5671 33.5801 11.7921 32.4961 11.9161 32.1841 11.8151 31.7301 11.8041 31.7031 11.6291 31.3031 11.3481 30.8751 11.2811 30.8031 10.9011 30.5311 10.8641 30.4341 10.5721 30.4081 10.5221C30.3831 10.4851 30.3201 10.4001 30.3141 10.4001 30.3101 10.4001 30.4571 10.0291 30.4471 10.0111L30.2711 9.8481 30.5571 9.3221zM34.8851 19.2201L35.9671 6.5881 29.8421 1.9401 23.9821 6.5991 25.1441 19.2071C29.1021 19.0471 31.5101 19.0411 34.8851 19.2201L34.8851 19.2201zM4.6016 16.8847C6.3226 17.2337 7.5466 17.2457 9.0916 16.8227 10.9336 16.0677 11.5836 15.0527 12.1856 14.2367 12.4646 15.9607 12.1736 17.5237 10.0666 18.6267 8.1776 19.4977 5.6286 18.9487 4.6016 16.8847L4.6016 16.8847zM5.7696 10.9497L5.7656 10.9477 6.0256 9.5347 6.0376 9.5687C6.1076 9.6057 7.1096 10.4417 7.1096 10.4537 7.1096 10.4607 7.7126 10.2467 8.1526 10.0887 8.3926 9.9987 8.5836 9.9277 8.5896 9.9277 8.5896 9.9277 8.5856 9.9327 8.5836 9.9327 8.5876 9.9327 8.6016 9.9277 8.6016 9.9277L8.3716 11.3857 9.3986 12.3687 8.4196 12.7547 8.1606 12.8617 7.9966 14.3257 6.7926 13.4137 5.2836 14.0427 5.5016 12.4467 4.3306 11.5337 5.7696 10.9497zM15.2536 20.5677L12.0566 8.6447 4.4906 5.3517.8376 11.7307 6.3006 23.2847C9.9706 21.8657 11.8006 21.2807 15.2536 20.5677L15.2536 20.5677z"/>
      <path fill="#FFF" d="M10.0665,18.6269 C12.1735,17.5229 12.4645,15.9609 12.1855,14.2359 C11.5845,15.0529 10.9335,16.0669 9.0915,16.8219 C7.5465,17.2459 6.3225,17.2329 4.6015,16.8849 C5.6295,18.9489 8.1775,19.4979 10.0665,18.6269"/>
      <path fill="#F8EC00" d="M30.3145,10.4004 C30.3205,10.4004 30.3825,10.4854 30.4085,10.5224 L30.3435,10.3824 L30.4925,9.9604 L30.4605,9.9624 L30.3085,9.8284 L30.6035,9.3624 L30.9705,9.2494 C30.9705,9.2494 30.9885,8.6754 30.9805,8.6754 C30.9805,8.6844 31.1955,8.5944 31.2615,8.5604 L30.9515,8.6374 L30.9595,9.2334 L30.5565,9.3224 L30.2715,9.8484 L30.4475,10.0104 C30.4575,10.0294 30.3105,10.4004 30.3145,10.4004"/>
      <path fill="#F8EC00" d="M31.0059,7.4892 L31.2309,7.5152 L31.4899,7.6312 L31.6819,7.9032 L31.4009,7.9032 L31.0059,7.4892 Z M32.5309,9.2052 L32.5219,8.7652 C32.5219,8.7652 32.3789,8.7202 32.3069,8.6762 C32.3609,8.6582 32.8179,8.6582 32.8179,8.6582 L32.6189,8.7922 L32.6189,9.1702 L33.4379,9.1772 L33.7149,9.1082 L33.3909,9.3552 L33.1859,9.7152 L33.0759,9.7332 L32.7659,9.3202 L32.4039,9.3272 C32.4039,9.3272 32.2089,9.8112 32.2089,9.8212 C32.2089,9.8282 32.0649,9.8032 32.0649,9.8032 L31.6879,9.3982 C31.6879,9.3982 31.5699,9.1952 31.5879,9.1952 C31.6079,9.1952 32.5309,9.2052 32.5309,9.2052 L32.5309,9.2052 Z M33.2659,7.4992 L33.5449,7.4542 L33.7769,7.2442 L33.9829,7.2692 L33.3559,7.7452 L33.2659,7.4992 Z M32.3609,7.2962 L32.3319,7.4802 L32.0019,7.5332 L32.3609,7.2962 Z M32.9339,7.4632 L32.5919,7.4712 L32.5669,7.2862 L32.9339,7.4632 Z M30.8189,10.8942 L30.6289,10.7972 L31.0259,10.3922 L30.8189,10.8942 Z M31.6149,8.5812 L31.4359,8.7572 L31.4359,8.8962 L31.4749,9.0322 L31.5979,9.1872 L31.3809,9.2222 C31.3809,9.2222 31.3809,9.7062 31.3929,9.7062 C31.4009,9.7062 31.5079,9.7762 31.5179,9.7852 C31.5259,9.7942 31.5529,9.9692 31.5529,9.9692 L31.7969,10.0762 L31.8129,10.2682 L32.0649,10.4092 C32.0649,10.4092 32.1369,10.7352 32.1449,10.7352 C32.1539,10.7352 32.2969,10.7792 32.2969,10.7792 L32.2969,10.7872 L32.3169,10.7442 L32.5569,10.6042 L32.5469,10.3302 L32.3169,10.2782 L32.2249,10.1902 L32.4849,10.2332 L32.8089,10.2082 L32.9159,10.1562 C32.8709,10.2682 32.8359,10.2602 32.8259,10.2602 C32.8179,10.2602 32.6489,10.3472 32.6489,10.3472 L32.6579,10.6112 C32.6579,10.6112 33.2129,10.6812 33.2029,10.6812 C33.1939,10.6812 33.2029,10.7882 33.1859,10.7882 C33.1679,10.7882 32.6109,10.6662 32.6109,10.6662 L32.3069,10.8492 C32.3179,10.9362 32.3319,11.0732 32.3319,11.0792 C32.3319,11.0872 32.5469,11.2902 32.5469,11.2902 L32.9159,11.2802 C32.9159,11.2802 33.1039,11.0342 33.1109,11.0342 C33.1229,11.0342 33.2379,10.6292 33.2379,10.6292 L33.4439,10.4272 C33.4439,10.4272 33.4729,10.0052 33.4729,9.9972 C33.4729,9.9872 33.8049,9.9432 33.8049,9.9432 L33.8299,9.1702 L33.6969,9.0982 L33.6969,8.8172 L33.4019,8.3862 L33.6969,8.3602 L33.7679,8.2822 L34.0369,8.4132 L34.1639,9.0112 L34.6369,9.4412 L34.6369,9.6362 L34.1639,9.6882 L33.8219,10.1462 L33.8219,10.8492 C33.8219,10.8492 34.0099,11.1832 34.0179,11.1922 C34.0269,11.2012 33.8599,11.1922 33.8599,11.1922 L33.6779,10.8942 L33.2289,11.1312 L33.3109,11.5362 L33.5099,11.7202 L33.1859,11.7642 C33.1859,11.7642 32.9959,11.4742 32.9959,11.4662 C32.9959,11.4572 32.7659,11.5542 32.7659,11.5542 L32.6929,11.7912 C32.6929,11.7912 32.5919,11.6142 32.5919,11.6062 C32.5919,11.5972 32.3519,11.6242 32.3419,11.6242 C32.3319,11.6242 32.2349,11.7912 32.2349,11.7912 L31.7969,11.8002 L31.7599,11.7022 L31.8479,11.6242 L31.7769,10.9992 L31.4099,11.0252 L31.3649,11.3332 L31.2109,11.2712 L31.1859,10.4972 L31.0259,10.3572 L30.9359,9.9352 L30.4999,9.9592 L30.6469,10.2432 L30.4769,10.6662 L30.4339,10.5722 L30.5309,10.8642 L30.8029,10.9012 L30.8749,11.2812 L31.3029,11.3482 L31.7029,11.6292 L31.7309,11.8032 L32.1839,11.8152 L32.4959,11.9162 L33.5799,11.7922 L33.7269,11.5672 L33.7359,11.2612 L34.3219,11.2442 L34.3749,10.7582 L34.6839,10.7582 L34.6469,10.2112 L34.9019,10.2332 L34.8379,9.9712 L34.6759,9.7582 L34.6469,9.4212 L34.1879,8.9722 L34.0859,8.3882 C34.0859,8.3882 33.7949,8.2592 33.7949,8.2512 C33.7949,8.2452 33.7769,7.8602 33.7769,7.8602 L34.1059,7.4062 L34.0739,7.2262 L33.7719,7.2192 L33.5409,7.4062 C33.5409,7.4062 33.2359,7.4362 33.2359,7.4442 L33.2359,7.5812 C33.2359,7.5812 33.3129,7.8352 33.3129,7.8422 C33.3129,7.8472 32.9629,7.8422 32.9629,7.8422 L32.9629,7.8332 L32.0019,7.8692 L32.0119,7.7622 L32.3689,7.7272 L32.4139,7.5862 C32.4139,7.5862 32.5219,7.5782 32.5219,7.5862 C32.5219,7.5952 32.6019,7.7182 32.6019,7.7182 L32.9509,7.7802 L32.9629,7.7982 L32.9509,7.4362 L32.4549,7.1942 C32.4549,7.1942 31.9939,7.5062 31.9939,7.5112 C31.9939,7.5182 31.9669,7.8732 31.9669,7.8732 L31.7499,7.9342 L31.5199,7.5992 L31.1209,7.4502 L30.9039,7.4362 L30.8989,7.6992 L31.3169,8.2402 L31.2789,8.5512 C31.2829,8.5512 31.2929,8.5462 31.2929,8.5462 C31.2929,8.5362 31.6149,8.5812 31.6149,8.5812 L31.6149,8.5812 Z"/>
      <path fill="#584B17" d="M30.9707,9.249 L30.6037,9.362 L30.3087,9.828 L30.4607,9.962 L30.4917,9.96 L30.4957,9.952 L30.4997,9.959 L30.9357,9.936 L31.0257,10.357 L31.1857,10.497 L31.2107,11.271 L31.3657,11.333 L31.4097,11.025 L31.7777,10.999 L31.8477,11.624 L31.7597,11.702 L31.7967,11.8 L32.2347,11.791 C32.2347,11.791 32.3317,11.624 32.3417,11.624 C32.3517,11.624 32.5917,11.598 32.5917,11.606 C32.5917,11.614 32.6937,11.791 32.6937,11.791 L32.7657,11.555 C32.7657,11.555 32.9957,11.457 32.9957,11.466 C32.9957,11.475 33.1857,11.765 33.1857,11.765 L33.5097,11.721 L33.3107,11.536 L33.2287,11.131 L33.6777,10.895 L33.8597,11.192 C33.8597,11.192 34.0277,11.201 34.0177,11.192 C34.0097,11.184 33.8227,10.85 33.8227,10.85 L33.8227,10.146 L34.1637,9.688 L34.6367,9.637 L34.6367,9.441 L34.1637,9.012 L34.0367,8.413 L33.7677,8.282 L33.6977,8.36 L33.4027,8.387 L33.6977,8.817 L33.6977,9.099 L33.8297,9.17 L33.8047,9.943 C33.8047,9.943 33.4727,9.987 33.4727,9.997 C33.4727,10.005 33.4437,10.428 33.4437,10.428 L33.2387,10.629 C33.2387,10.629 33.1227,11.034 33.1117,11.034 C33.1037,11.034 32.9157,11.28 32.9157,11.28 L32.5467,11.29 C32.5467,11.29 32.3317,11.087 32.3317,11.079 C32.3317,11.073 32.3187,10.936 32.3067,10.85 L32.2617,10.876 L32.2967,10.787 L32.2967,10.779 C32.2967,10.779 32.1547,10.735 32.1447,10.735 C32.1367,10.735 32.0647,10.409 32.0647,10.409 L31.8127,10.269 L31.7967,10.076 L31.5527,9.97 C31.5527,9.97 31.5257,9.794 31.5177,9.785 C31.5077,9.776 31.4007,9.706 31.3927,9.706 C31.3807,9.706 31.3807,9.223 31.3807,9.223 L31.5977,9.187 L31.4747,9.032 L31.4357,8.896 L31.4357,8.757 L31.6157,8.581 C31.6157,8.581 31.2927,8.536 31.2927,8.546 C31.2927,8.546 31.2827,8.551 31.2797,8.552 C31.2777,8.554 31.2697,8.558 31.2617,8.561 C31.1957,8.595 30.9807,8.685 30.9807,8.676 C30.9887,8.676 30.9707,9.249 30.9707,9.249"/>
      <path fill="#584B17" d="M33.1856 10.7881C33.2036 10.7881 33.1936 10.6821 33.2036 10.6821 33.2126 10.6821 32.6586 10.6111 32.6586 10.6111L32.6486 10.3481C32.6486 10.3481 32.8186 10.2601 32.8266 10.2601 32.8356 10.2601 32.8716 10.2681 32.9156 10.1561L32.8086 10.2081 32.4846 10.2331 32.2246 10.1901 32.3166 10.2781 32.5466 10.3301 32.5566 10.6041 32.3166 10.7441 32.2966 10.7871 32.2616 10.8761 32.3066 10.8501 32.6116 10.6661C32.6116 10.6661 33.1676 10.7881 33.1856 10.7881M31.9727 9.3867C31.9727 9.3487 32.0057 9.3207 32.0427 9.3207L32.1207 9.3207C32.1597 9.3207 32.1897 9.3487 32.1897 9.3867L32.1897 9.4627C32.1897 9.4987 32.1597 9.5307 32.1207 9.5307L32.0427 9.5307C32.0057 9.5307 31.9727 9.4987 31.9727 9.4627L31.9727 9.3867zM32.9957 9.3427C32.9957 9.3057 33.0297 9.2747 33.0667 9.2747L33.1427 9.2747C33.1817 9.2747 33.2127 9.3057 33.2127 9.3427L33.2127 9.4177C33.2127 9.4567 33.1817 9.4867 33.1427 9.4867L33.0667 9.4867C33.0297 9.4867 32.9957 9.4567 32.9957 9.4177L32.9957 9.3427zM31.6877 9.3987L32.0647 9.8037C32.0647 9.8037 32.2087 9.8277 32.2087 9.8217 32.2087 9.8117 32.4047 9.3267 32.4047 9.3267L32.7657 9.3207 33.0767 9.7337 33.1857 9.7147 33.3907 9.3557 33.7147 9.1087 33.4377 9.1777 32.6187 9.1697 32.6187 8.7917 32.8187 8.6577C32.8187 8.6577 32.3617 8.6577 32.3067 8.6757 32.3787 8.7207 32.5217 8.7657 32.5217 8.7657L32.5317 9.2047C32.5317 9.2047 31.6077 9.1957 31.5877 9.1957 31.5707 9.1957 31.6877 9.3987 31.6877 9.3987L31.6877 9.3987z"/>
      <path fill="#806B34" d="M32.1211,9.5302 C32.1601,9.5302 32.1891,9.4992 32.1891,9.4632 L32.1891,9.3862 C32.1891,9.3482 32.1601,9.3202 32.1211,9.3202 L32.0431,9.3202 C32.0061,9.3202 31.9731,9.3482 31.9731,9.3862 L31.9731,9.4632 C31.9731,9.4992 32.0061,9.5302 32.0431,9.5302 L32.1211,9.5302 Z"/>
      <path fill="#806C35" d="M33.1426,9.4863 C33.1816,9.4863 33.2126,9.4573 33.2126,9.4183 L33.2126,9.3423 C33.2126,9.3053 33.1816,9.2743 33.1426,9.2743 L33.0666,9.2743 C33.0296,9.2743 32.9966,9.3053 32.9966,9.3423 L32.9966,9.4183 C32.9966,9.4573 33.0296,9.4863 33.0666,9.4863 L33.1426,9.4863 Z"/>
      <polygon fill="#584B17" points="31.682 7.903 31.491 7.631 31.231 7.515 31.006 7.489 31.401 7.903"/>
      <polygon fill="#584B17" points="33.983 7.269 33.778 7.245 33.545 7.455 33.266 7.498 33.355 7.745"/>
      <path fill="#584B17" d="M32.6016,7.7187 C32.6016,7.7187 32.5216,7.5957 32.5216,7.5857 C32.5216,7.5777 32.4146,7.5857 32.4146,7.5857 L32.3696,7.7277 L32.0116,7.7627 L32.0016,7.8687 L32.9626,7.8327 L32.9866,7.8317 L32.9626,7.7977 L32.9516,7.7807 L32.6016,7.7187 Z"/>
      <polygon fill="#584B17" points="32.934 7.463 32.567 7.286 32.592 7.472"/>
      <polygon fill="#584B17" points="32.361 7.296 32.002 7.533 32.332 7.481"/>
      <polygon fill="#584B17" points="30.646 10.243 30.5 9.959 30.497 9.952 30.492 9.96 30.343 10.383 30.409 10.522 30.433 10.572 30.477 10.666"/>
      <polygon fill="#584B17" points="30.818 10.895 31.025 10.393 30.629 10.796"/>
      <path fill="#F8EC00" d="M25.5665,7.665 L25.7895,7.692 L26.0485,7.807 L26.2365,8.079 L25.9595,8.079 L25.5665,7.665 Z M26.9185,7.472 L26.8905,7.656 L26.5605,7.71 L26.9185,7.472 Z M27.4905,7.64 L27.1525,7.648 L27.1255,7.463 L27.4905,7.64 Z M27.8245,7.674 L28.0995,7.63 L28.3345,7.419 L28.5395,7.446 L27.9105,7.922 L27.8245,7.674 Z M25.3755,11.069 L25.1875,10.973 L25.5805,10.567 L25.3755,11.069 Z M26.1715,8.755 L25.9945,8.932 L25.9945,9.073 L26.0355,9.209 L26.1565,9.362 L25.9415,9.397 C25.9415,9.397 25.9415,9.882 25.9515,9.882 C25.9595,9.882 26.0665,9.952 26.0725,9.961 C26.0845,9.97 26.1095,10.145 26.1095,10.145 L26.3535,10.252 L26.3715,10.445 L26.6215,10.587 C26.6215,10.587 26.6915,10.911 26.7035,10.911 C26.7125,10.911 26.8555,10.956 26.8555,10.956 L26.8555,10.964 L26.8735,10.921 L27.1155,10.779 L27.1035,10.507 L26.8735,10.454 L26.7835,10.365 L27.0435,10.409 L27.3675,10.382 L27.4725,10.33 C27.4275,10.445 27.3905,10.437 27.3845,10.437 C27.3755,10.437 27.2035,10.524 27.2035,10.524 L27.2145,10.788 C27.2145,10.788 27.7675,10.858 27.7615,10.858 C27.7525,10.858 27.7615,10.965 27.7445,10.965 C27.7225,10.965 27.1685,10.841 27.1685,10.841 L26.8655,11.025 C26.8755,11.111 26.8905,11.249 26.8905,11.254 C26.8905,11.264 27.1035,11.466 27.1035,11.466 L27.4725,11.457 C27.4725,11.457 27.6625,11.21 27.6715,11.21 C27.6795,11.21 27.7965,10.807 27.7965,10.807 L28.0025,10.604 C28.0025,10.604 28.0295,10.181 28.0295,10.173 C28.0295,10.163 28.3595,10.119 28.3595,10.119 L28.3865,9.345 L28.2715,9.284 L27.9475,9.53 L27.7445,9.891 L27.6365,9.908 L27.3205,9.494 L26.9625,9.504 C26.9625,9.504 26.7655,9.987 26.7655,9.996 C26.7655,10.005 26.6215,9.978 26.6215,9.978 L26.2445,9.574 C26.2445,9.574 26.1285,9.372 26.1485,9.372 C26.1645,9.372 27.0875,9.38 27.0875,9.38 L27.0805,8.94 C27.0805,8.94 26.9355,8.896 26.8655,8.853 C26.9185,8.835 27.3755,8.835 27.3755,8.835 L27.1775,8.968 L27.1775,9.345 L27.9925,9.353 L28.2715,9.284 L28.2525,9.274 L28.2525,8.993 L27.9575,8.563 L28.2525,8.536 L28.3245,8.456 L28.5935,8.588 L28.7205,9.187 L29.1955,9.618 L29.1955,9.811 L28.7205,9.864 L28.3775,10.321 L28.3775,11.025 C28.3775,11.025 28.5685,11.359 28.5785,11.368 C28.5865,11.378 28.4165,11.368 28.4165,11.368 L28.2365,11.069 L27.7895,11.308 L27.8675,11.712 L28.0645,11.895 L27.7445,11.94 C27.7445,11.94 27.5525,11.649 27.5525,11.642 C27.5525,11.632 27.3205,11.728 27.3205,11.728 L27.2505,11.968 C27.2505,11.968 27.1525,11.791 27.1525,11.781 C27.1525,11.773 26.9105,11.8 26.9005,11.8 C26.8905,11.8 26.7955,11.968 26.7955,11.968 L26.3535,11.977 L26.3185,11.879 L26.4065,11.8 L26.3365,11.176 L25.9685,11.201 L25.9215,11.51 L25.7695,11.447 L25.7425,10.674 L25.5805,10.532 L25.4945,10.11 L25.0565,10.135 L25.2055,10.419 L25.0375,10.841 L24.9925,10.75 L25.0895,11.04 L25.3615,11.078 L25.4315,11.458 L25.8635,11.525 L26.2615,11.805 L26.2855,11.979 L26.7445,11.991 L27.0545,12.091 L28.1365,11.968 L28.2835,11.742 L28.2965,11.438 L28.8795,11.419 L28.9315,10.934 L29.2425,10.934 L29.2055,10.386 L29.4615,10.409 L29.3945,10.146 L29.2345,9.933 L29.2055,9.598 L28.7485,9.149 L28.6445,8.565 C28.6445,8.565 28.3535,8.434 28.3535,8.428 C28.3535,8.422 28.3345,8.035 28.3345,8.035 L28.6625,7.582 L28.6325,7.401 L28.3285,7.395 L28.0995,7.582 C28.0995,7.582 27.7965,7.612 27.7965,7.619 L27.7965,7.756 C27.7965,7.756 27.8715,8.011 27.8715,8.017 C27.8715,8.024 27.5215,8.017 27.5215,8.017 L27.5215,8.008 L26.5605,8.044 L26.5665,7.938 L26.9275,7.903 L26.9705,7.763 C26.9705,7.763 27.0805,7.753 27.0805,7.763 C27.0805,7.769 27.1605,7.894 27.1605,7.894 L27.5095,7.954 L27.5195,7.971 L27.5095,7.612 L27.0155,7.371 C27.0155,7.371 26.5525,7.683 26.5525,7.687 C26.5525,7.694 26.5295,8.049 26.5295,8.049 L26.3065,8.111 L26.0765,7.774 L25.6775,7.626 L25.4615,7.612 L25.4575,7.875 L25.8755,8.415 L25.8365,8.728 L25.8515,8.721 C25.8515,8.712 26.1715,8.755 26.1715,8.755 L26.1715,8.755 Z"/>
      <path fill="#F8EC00" d="M25.0508,10.1347 L25.0178,10.1367 L24.8668,10.0047 L25.1598,9.5387 L25.5308,9.4247 C25.5308,9.4247 25.5468,8.8537 25.5368,8.8537 C25.5368,8.8607 25.7518,8.7707 25.8218,8.7367 L25.5078,8.8147 L25.5198,9.4107 L25.1128,9.4977 L24.8298,10.0247 L25.0058,10.1877 C25.0158,10.2047 24.8668,10.5767 24.8728,10.5767 C24.8768,10.5767 24.9418,10.6607 24.9688,10.6977 L24.9028,10.5597 L25.0508,10.1347 Z"/>
      <path fill="#584B17" d="M25.5313,9.4248 L25.1603,9.5388 L24.8673,10.0048 L25.0173,10.1368 L25.0513,10.1348 L25.0523,10.1278 L25.0563,10.1348 L25.4943,10.1108 L25.5803,10.5318 L25.7423,10.6738 L25.7693,11.4468 L25.9223,11.5098 L25.9683,11.2008 L26.3363,11.1758 L26.4063,11.7998 L26.3183,11.8788 L26.3533,11.9768 L26.7953,11.9678 C26.7953,11.9678 26.8903,11.7998 26.9003,11.7998 C26.9103,11.7998 27.1523,11.7738 27.1523,11.7808 C27.1523,11.7908 27.2503,11.9678 27.2503,11.9678 L27.3203,11.7288 C27.3203,11.7288 27.5523,11.6318 27.5523,11.6418 C27.5523,11.6498 27.7443,11.9408 27.7443,11.9408 L28.0643,11.8958 L27.8673,11.7118 L27.7893,11.3078 L28.2363,11.0698 L28.4163,11.3678 C28.4163,11.3678 28.5863,11.3778 28.5783,11.3678 C28.5683,11.3598 28.3773,11.0258 28.3773,11.0258 L28.3773,10.3208 L28.7203,9.8638 L29.1953,9.8118 L29.1953,9.6178 L28.7203,9.1878 L28.5943,8.5878 L28.3243,8.4558 L28.2523,8.5358 L27.9573,8.5638 L28.2523,8.9928 L28.2523,9.2748 L28.2713,9.2838 L28.3863,9.3448 L28.3593,10.1188 C28.3593,10.1188 28.0293,10.1628 28.0293,10.1728 C28.0293,10.1808 28.0023,10.6048 28.0023,10.6048 L27.7973,10.8068 C27.7973,10.8068 27.6793,11.2098 27.6723,11.2098 C27.6623,11.2098 27.4723,11.4568 27.4723,11.4568 L27.1033,11.4658 C27.1033,11.4658 26.8903,11.2638 26.8903,11.2538 C26.8903,11.2488 26.8753,11.1118 26.8653,11.0258 L26.8183,11.0518 L26.8553,10.9638 L26.8553,10.9558 C26.8553,10.9558 26.7133,10.9108 26.7033,10.9108 C26.6913,10.9108 26.6213,10.5868 26.6213,10.5868 L26.3713,10.4458 L26.3533,10.2518 L26.1093,10.1458 C26.1093,10.1458 26.0843,9.9698 26.0723,9.9608 C26.0663,9.9518 25.9593,9.8818 25.9513,9.8818 C25.9413,9.8818 25.9413,9.3978 25.9413,9.3978 L26.1563,9.3628 L26.0353,9.2088 L25.9943,9.0728 L25.9943,8.9318 L26.1723,8.7548 C26.1723,8.7548 25.8513,8.7118 25.8513,8.7208 L25.8363,8.7288 C25.8323,8.7318 25.8283,8.7338 25.8223,8.7368 C25.7523,8.7708 25.5373,8.8608 25.5373,8.8538 C25.5473,8.8538 25.5313,9.4248 25.5313,9.4248"/>
      <path fill="#584B17" d="M27.7442 10.9648C27.7622 10.9648 27.7522 10.8588 27.7622 10.8588 27.7672 10.8588 27.2152 10.7878 27.2152 10.7878L27.2032 10.5248C27.2032 10.5248 27.3752 10.4378 27.3852 10.4378 27.3902 10.4378 27.4282 10.4448 27.4732 10.3298L27.3672 10.3818 27.0432 10.4088 26.7832 10.3648 26.8732 10.4538 27.1032 10.5068 27.1152 10.7788 26.8732 10.9208 26.8552 10.9638 26.8182 11.0518 26.8652 11.0258 27.1682 10.8408C27.1682 10.8408 27.7232 10.9648 27.7442 10.9648M27.7676 9.5947C27.7676 9.6317 27.7386 9.6617 27.7016 9.6617L27.6216 9.6617C27.5856 9.6617 27.5526 9.6317 27.5526 9.5947L27.5526 9.5187C27.5526 9.4807 27.5856 9.4517 27.6216 9.4517L27.7016 9.4517C27.7386 9.4517 27.7676 9.4807 27.7676 9.5187L27.7676 9.5947zM26.7476 9.6397C26.7476 9.6767 26.7166 9.7057 26.6796 9.7057L26.6016 9.7057C26.5646 9.7057 26.5336 9.6767 26.5336 9.6397L26.5336 9.5637C26.5336 9.5257 26.5646 9.4937 26.6016 9.4937L26.6796 9.4937C26.7166 9.4937 26.7476 9.5257 26.7476 9.5637L26.7476 9.6397zM27.1776 9.3447L27.1776 8.9677 27.3746 8.8347C27.3746 8.8347 26.9176 8.8347 26.8656 8.8537 26.9356 8.8967 27.0806 8.9407 27.0806 8.9407L27.0876 9.3797C27.0876 9.3797 26.1636 9.3717 26.1486 9.3717 26.1286 9.3717 26.2446 9.5737 26.2446 9.5737L26.6216 9.9787C26.6216 9.9787 26.7656 10.0047 26.7656 9.9957 26.7656 9.9877 26.9626 9.5037 26.9626 9.5037L27.3206 9.4937 27.6366 9.9077 27.7446 9.8907 27.9476 9.5307 28.2716 9.2837 27.9926 9.3537 27.1776 9.3447z"/>
      <path fill="#806B34" d="M26.6016,9.4941 C26.5646,9.4941 26.5336,9.5251 26.5336,9.5631 L26.5336,9.6401 C26.5336,9.6771 26.5646,9.7061 26.6016,9.7061 L26.6796,9.7061 C26.7166,9.7061 26.7476,9.6771 26.7476,9.6401 L26.7476,9.5631 C26.7476,9.5251 26.7166,9.4941 26.6796,9.4941 L26.6016,9.4941 Z"/>
      <path fill="#806C35" d="M27.6211,9.4521 C27.5861,9.4521 27.5531,9.4801 27.5531,9.5181 L27.5531,9.5951 C27.5531,9.6321 27.5861,9.6621 27.6211,9.6621 L27.7011,9.6621 C27.7381,9.6621 27.7671,9.6321 27.7671,9.5951 L27.7671,9.5181 C27.7671,9.4801 27.7381,9.4521 27.7011,9.4521 L27.6211,9.4521 Z"/>
      <polygon fill="#584B17" points="26.236 8.079 26.049 7.807 25.789 7.692 25.566 7.665 25.959 8.079"/>
      <polygon fill="#584B17" points="28.539 7.446 28.334 7.419 28.1 7.63 27.824 7.674 27.91 7.922"/>
      <path fill="#584B17" d="M27.1602,7.8945 C27.1602,7.8945 27.0802,7.7695 27.0802,7.7625 C27.0802,7.7525 26.9712,7.7625 26.9712,7.7625 L26.9282,7.9035 L26.5662,7.9385 L26.5602,8.0435 L27.5212,8.0075 L27.5432,8.0065 L27.5192,7.9705 L27.5102,7.9545 L27.1602,7.8945 Z"/>
      <polygon fill="#584B17" points="27.49 7.64 27.125 7.463 27.152 7.649"/>
      <polygon fill="#584B17" points="26.918 7.472 26.561 7.71 26.891 7.657"/>
      <polygon fill="#584B17" points="25.037 10.841 25.205 10.419 25.057 10.135 25.053 10.128 25.051 10.135 24.902 10.56 24.969 10.698 24.992 10.75"/>
      <polygon fill="#584B17" points="25.375 11.069 25.58 10.567 25.188 10.972"/>
      <path fill="#1E246B" d="M36.6309,16.9355 L37.3789,17.1015 C37.3629,17.2505 37.4099,17.3115 37.3399,17.4245 C37.2969,17.5145 37.2419,17.5935 37.0199,17.6455 L36.3219,17.6575 L36.2969,17.3305 L36.6309,16.9355 Z M37.5309,14.1805 C37.3419,14.2465 37.2849,14.1695 37.2639,14.0555 C37.2479,13.9625 37.3419,13.8545 37.4429,13.7465 C37.1759,13.7655 37.1879,13.5655 37.3239,13.3795 C37.4529,13.2205 37.8539,12.8625 38.0139,12.6765 C37.9119,12.6825 37.7929,12.6985 37.6899,12.6175 C37.6469,12.5685 37.7309,12.4615 37.7719,12.3785 C37.6349,12.3735 37.5899,12.3515 37.5669,12.2855 C37.5449,12.2175 37.6099,12.0595 37.6369,11.9715 C37.4709,11.9595 36.9649,12.0605 36.8129,12.0005 C36.6539,11.9415 36.6879,11.7175 36.6989,11.6125 C36.7049,11.5215 36.9019,11.2375 36.9919,11.0125 C37.0739,10.8135 37.1449,10.6415 37.1899,10.4135 C37.0019,10.2855 36.7419,10.0265 36.6739,9.8625 C36.6109,9.6965 36.6619,9.5355 36.7989,9.4205 L37.6369,9.8465 C37.7809,9.7045 37.8909,9.5395 38.1879,9.4545 L39.5669,10.3695 L40.5389,10.3325 C40.3299,10.8015 40.0429,11.0055 39.3519,11.2045 C39.5719,11.6055 39.8279,11.9565 40.1579,12.1745 L40.4199,12.2515 C41.0819,12.2565 41.0269,12.3405 41.1949,12.3735 C41.4099,12.3275 41.2229,12.2745 41.9649,12.2245 C42.0609,12.2535 42.1929,12.2515 42.2909,12.2325 C42.3849,12.2135 42.5099,12.1355 42.5999,12.0855 L42.8849,12.0815 C43.1249,12.1855 43.2619,12.1735 43.5139,12.1035 L43.9979,12.0935 C44.3169,12.1715 44.4749,12.1505 44.6519,12.0945 L45.0329,11.8165 C45.1059,11.7375 45.1989,11.6635 45.2659,11.6765 C45.3299,11.6895 45.3989,11.8135 45.4239,11.8935 L45.4339,12.6335 L45.3519,12.7765 C45.3029,12.8425 45.2289,12.9465 45.2289,13.0095 C45.2309,13.0735 45.2869,13.1165 45.3299,13.1905 L45.3049,13.4905 C45.2439,13.6575 44.8559,13.9965 44.8649,14.2815 C44.8279,14.5335 44.7929,14.8555 44.9059,14.9815 C44.9099,15.0235 44.8239,15.0815 44.7809,15.1335 C44.7699,15.2405 44.7519,15.5105 44.7769,15.6095 C44.8009,15.7075 44.8519,15.6745 44.9199,15.7285 C44.9339,15.7475 44.9009,16.2235 44.9009,16.2365 C44.6149,16.4685 44.3169,16.6715 44.1059,17.0405 L44.0919,17.4975 L43.6739,17.8165 L43.0179,17.5815 L43.0669,17.4745 L43.4829,16.8235 C43.5799,16.5455 43.5649,16.1455 43.5529,15.9265 C43.4609,15.7235 43.2309,15.5875 43.0669,15.5595 C42.8239,15.8455 42.4789,16.1915 42.2599,16.3505 C42.2169,16.4465 42.2169,16.6115 42.1469,16.6995 C42.0759,16.7865 41.9669,16.8175 41.8299,16.8745 L41.7249,17.1455 L41.0819,16.9925 C41.1209,16.9065 41.2049,16.8605 41.2459,16.7675 C41.2889,16.6635 41.2599,16.6075 41.2809,16.5185 L41.8499,15.5895 C41.7309,15.6175 41.4419,15.6625 41.3439,15.6365 C41.2379,15.6145 41.2129,15.5475 41.1639,15.4795 C41.0959,15.5285 40.9279,15.6475 40.8439,15.6475 C40.7579,15.6475 40.6579,15.6355 40.6269,15.5085 C40.5449,15.5815 40.5099,15.6405 40.4059,15.6775 C40.3299,15.7175 40.2539,15.6965 40.0589,15.7015 C40.0509,16.1215 39.5059,16.4435 39.4179,16.8315 L39.3689,17.6545 C39.3199,17.7335 39.1349,17.7615 39.0159,17.9605 L38.3259,17.7815 C38.4219,17.1905 38.6469,17.1875 38.6779,16.9895 L38.6779,16.1975 C38.6899,15.9115 38.8539,15.6875 38.9139,15.4835 C38.7789,15.4125 38.7009,15.3365 38.5719,15.3365 C38.4489,15.3365 38.3259,15.3925 38.1579,15.4835 C38.0589,15.7255 37.7499,16.1815 37.5979,16.4025 C37.6109,16.5205 37.6129,16.6525 37.5859,16.7595 C37.5589,16.8655 37.4549,16.9345 37.4299,17.0405 L36.6599,16.8495 C36.7769,16.3315 36.9919,16.2665 37.1099,16.0255 C37.2359,15.8015 37.2599,15.6575 37.4549,15.5465 C37.4809,15.3165 37.4379,15.1295 37.5329,14.9285 C37.4939,14.6645 37.4199,14.4345 37.5309,14.1805 L37.5309,14.1805 Z M39.1739,8.8205 C39.6309,8.7095 40.1519,8.6445 40.6329,8.6875 C40.9359,8.7025 40.9219,8.8525 41.2329,8.8495 C41.5289,8.8555 41.9279,9.1055 42.3669,9.1495 C42.8519,9.1945 43.0509,9.1565 43.3669,8.9465 L43.6129,8.9585 L43.6189,9.1085 C43.4299,9.2425 43.2809,9.4365 42.9469,9.5245 C42.6059,9.6725 42.4419,9.6955 41.6249,9.6555 L41.6779,9.7825 C42.3479,9.9755 42.4709,10.1785 42.9199,10.2355 C43.3669,10.2955 43.9569,10.2875 44.3749,10.1355 L44.6349,10.1355 L44.6349,10.2625 C44.2459,10.4615 43.8049,10.7365 43.2809,10.7925 C42.7559,10.8505 42.0629,10.7505 41.4849,10.6045 C41.1679,10.5475 40.9119,10.3325 40.5509,10.2385 C40.3499,10.1815 39.8359,10.0565 39.5879,10.2625 L38.2699,9.3885 C38.5469,9.1225 38.6289,8.9835 39.1739,8.8205 L39.1739,8.8205 Z M43.5759,18.1715 C43.5199,18.2495 43.5019,18.3155 43.2769,18.3685 L42.5799,18.3055 L42.5799,17.9885 L42.9549,17.6715 L43.6269,17.8995 C43.6099,18.0485 43.6449,18.0595 43.5759,18.1715 L43.5759,18.1715 Z M41.6409,17.5255 C41.5699,17.6415 41.6019,17.6305 41.3809,17.6845 L40.7229,17.6575 L40.7109,17.4065 L41.0309,17.0755 L41.7049,17.2415 C41.6859,17.3905 41.7109,17.4145 41.6409,17.5255 L41.6409,17.5255 Z M38.9419,18.2985 C38.8969,18.3885 38.8669,18.4285 38.6449,18.4815 L38.0259,18.4945 L38.0259,18.1905 L38.3069,17.9245 L39.0079,18.0395 C38.9899,18.1885 39.0099,18.1855 38.9419,18.2985 L38.9419,18.2985 Z M44.4829,20.4955 L47.9339,8.3135 L42.7559,2.7035 L36.0609,6.5565 L34.9709,19.2025 C39.2309,19.5205 41.1409,19.8145 44.4829,20.4955 L44.4829,20.4955 Z"/>
      <path fill="#F8EC00" d="M29.7383,12.1972 L29.7113,12.3822 L29.3813,12.4332 L29.7383,12.1972 Z M30.3123,12.3642 L29.9743,12.3722 L29.9453,12.1872 L30.3123,12.3642 Z M30.6443,12.3992 L30.9243,12.3542 L31.1563,12.1442 L31.3633,12.1702 L30.7323,12.6452 L30.6443,12.3992 Z M28.1993,15.7942 L28.0083,15.6962 L28.4043,15.2922 L28.1993,15.7942 Z M28.7793,12.8022 L28.3843,12.3892 L28.6113,12.4162 L28.8693,12.5312 L29.0583,12.8022 L28.7793,12.8022 Z M29.3493,12.7732 L29.1293,12.8342 L28.8983,12.4982 L28.4983,12.3492 L28.2853,12.3372 L28.2813,12.5982 L28.6953,13.1392 L28.6583,13.4522 L28.6743,13.4442 C28.6743,13.4362 28.9943,13.4802 28.9943,13.4802 L28.8143,13.6562 L28.8143,13.7972 L28.8573,13.9322 L28.9783,14.0872 L28.7613,14.1232 C28.7613,14.1232 28.7613,14.6062 28.7693,14.6062 C28.7793,14.6062 28.8863,14.6762 28.8963,14.6852 C28.9083,14.6942 28.9313,14.8702 28.9313,14.8702 L29.1743,14.9752 L29.1933,15.1692 L29.4453,15.3102 C29.4453,15.3102 29.5153,15.6352 29.5233,15.6352 C29.5353,15.6352 29.6763,15.6782 29.6763,15.6782 C29.6763,15.6782 29.6773,15.6862 29.6773,15.6872 L29.6913,15.6442 L29.9373,15.5032 L29.9273,15.2292 L29.6913,15.1772 L29.6073,15.0902 L29.8653,15.1342 L30.1873,15.1072 L30.2953,15.0552 C30.2483,15.1692 30.2133,15.1602 30.2073,15.1602 C30.1993,15.1602 30.0253,15.2472 30.0253,15.2472 L30.0353,15.5112 C30.0353,15.5112 30.5903,15.5822 30.5823,15.5822 C30.5723,15.5822 30.5823,15.6882 30.5643,15.6882 C30.5473,15.6882 29.9903,15.5652 29.9903,15.5652 L29.6853,15.7502 C29.6933,15.8372 29.7113,15.9712 29.7113,15.9782 C29.7113,15.9862 29.9273,16.1902 29.9273,16.1902 L30.2953,16.1802 C30.2953,16.1802 30.4843,15.9332 30.4943,15.9332 C30.5023,15.9332 30.6173,15.5292 30.6173,15.5292 L30.8243,15.3282 C30.8243,15.3282 30.8513,14.9052 30.8513,14.8962 C30.8513,14.8882 31.1833,14.8432 31.1833,14.8432 L31.2113,14.0702 L31.0933,14.0092 L30.7693,14.2552 L30.5643,14.6142 L30.4573,14.6332 L30.1423,14.2182 L29.7833,14.2272 C29.7833,14.2272 29.5863,14.7132 29.5863,14.7212 C29.5863,14.7292 29.4453,14.7032 29.4453,14.7032 L29.0683,14.2982 C29.0683,14.2982 28.9513,14.0952 28.9683,14.0952 C28.9863,14.0952 29.9103,14.1042 29.9103,14.1042 L29.9023,13.6662 C29.9023,13.6662 29.7583,13.6212 29.6873,13.5762 C29.7383,13.5602 30.1993,13.5602 30.1993,13.5602 L29.9983,13.6912 L29.9983,14.0702 L30.8143,14.0782 L31.0933,14.0092 L31.0743,14.0002 L31.0743,13.7182 L30.7793,13.2882 L31.0743,13.2592 L31.1443,13.1812 L31.4163,13.3132 L31.5433,13.9122 L32.0173,14.3432 L32.0173,14.5362 L31.5433,14.5892 L31.2013,15.0472 L31.2013,15.7492 C31.2013,15.7492 31.3883,16.0842 31.3983,16.0932 C31.4083,16.1012 31.2363,16.0932 31.2363,16.0932 L31.0583,15.7942 L30.6073,16.0312 L30.6893,16.4362 L30.8883,16.6202 L30.5643,16.6642 C30.5643,16.6642 30.3773,16.3752 30.3773,16.3652 C30.3773,16.3562 30.1423,16.4532 30.1423,16.4532 L30.0703,16.6902 C30.0703,16.6902 29.9743,16.5152 29.9743,16.5062 C29.9743,16.4962 29.7303,16.5242 29.7223,16.5242 C29.7113,16.5242 29.6153,16.6902 29.6153,16.6902 L29.1743,16.6992 L29.1383,16.6022 L29.2283,16.5242 L29.1563,15.8982 L28.7913,15.9262 L28.7443,16.2322 L28.5923,16.1712 L28.5643,15.3972 L28.4043,15.2572 L28.3143,14.8352 L27.8773,14.8582 L28.0273,15.1422 L27.8553,15.5652 L27.8123,15.4722 L27.9103,15.7632 L28.1833,15.8012 L28.2523,16.1802 L28.6853,16.2492 L29.0823,16.5292 L29.1093,16.7042 L29.5663,16.7162 L29.8753,16.8152 L30.9593,16.6902 L31.1033,16.4682 L31.1173,16.1622 L31.7013,16.1432 L31.7543,15.6572 L32.0643,15.6572 L32.0253,15.1112 L32.2833,15.1332 L32.2153,14.8712 L32.0563,14.6572 L32.0233,14.3212 L31.5683,13.8732 L31.4673,13.2892 C31.4673,13.2892 31.1753,13.1582 31.1753,13.1522 C31.1753,13.1462 31.1563,12.7602 31.1563,12.7602 L31.4843,12.3052 L31.4533,12.1262 L31.1483,12.1192 L30.9203,12.3052 C30.9203,12.3052 30.6173,12.3372 30.6173,12.3432 L30.6173,12.4792 C30.6173,12.4792 30.6933,12.7352 30.6933,12.7412 C30.6933,12.7482 30.3453,12.7412 30.3453,12.7412 L30.3453,12.7322 L29.3813,12.7682 L29.3903,12.6632 L29.7483,12.6282 L29.7933,12.4862 C29.7933,12.4862 29.9023,12.4782 29.9023,12.4862 C29.9023,12.4952 29.9803,12.6182 29.9803,12.6182 L30.3303,12.6802 L30.3433,12.7002 L30.3323,12.3372 L29.8383,12.0932 C29.8383,12.0932 29.3753,12.4052 29.3753,12.4122 C29.3753,12.4182 29.3493,12.7732 29.3493,12.7732 L29.3493,12.7732 Z"/>
      <path fill="#F8EC00" d="M27.8711,14.8584 L27.8381,14.8604 L27.6871,14.7294 L27.9821,14.2624 L28.3501,14.1494 C28.3501,14.1494 28.3671,13.5764 28.3571,13.5764 C28.3571,13.5844 28.5701,13.4964 28.6421,13.4624 L28.3281,13.5374 L28.3421,14.1334 L27.9351,14.2224 L27.6501,14.7484 L27.8281,14.9114 C27.8361,14.9284 27.6871,15.3004 27.6951,15.3004 C27.6991,15.3004 27.7621,15.3844 27.7891,15.4214 L27.7231,15.2824 L27.8711,14.8584 Z"/>
      <path fill="#584B17" d="M28.3497,14.1494 L27.9827,14.2624 L27.6877,14.7294 L27.8377,14.8604 L27.8707,14.8584 L27.8727,14.8534 L27.8767,14.8584 L28.3147,14.8354 L28.4047,15.2564 L28.5647,15.3974 L28.5917,16.1704 L28.7447,16.2324 L28.7907,15.9254 L29.1567,15.8984 L29.2287,16.5244 L29.1387,16.6024 L29.1737,16.6994 L29.6157,16.6904 C29.6157,16.6904 29.7107,16.5244 29.7227,16.5244 C29.7307,16.5244 29.9747,16.4964 29.9747,16.5054 C29.9747,16.5154 30.0707,16.6904 30.0707,16.6904 L30.1427,16.4534 C30.1427,16.4534 30.3767,16.3564 30.3767,16.3654 C30.3767,16.3754 30.5647,16.6644 30.5647,16.6644 L30.8887,16.6204 L30.6897,16.4364 L30.6077,16.0314 L31.0587,15.7944 L31.2367,16.0934 C31.2367,16.0934 31.4087,16.1014 31.3987,16.0934 C31.3887,16.0844 31.2017,15.7494 31.2017,15.7494 L31.2017,15.0464 L31.5427,14.5884 L32.0177,14.5364 L32.0177,14.3424 L31.5427,13.9124 L31.4157,13.3134 L31.1447,13.1814 L31.0747,13.2594 L30.7797,13.2884 L31.0747,13.7174 L31.0747,14.0004 L31.0937,14.0084 L31.2107,14.0704 L31.1837,14.8434 C31.1837,14.8434 30.8517,14.8884 30.8517,14.8964 C30.8517,14.9054 30.8247,15.3284 30.8247,15.3284 L30.6177,15.5294 C30.6177,15.5294 30.5017,15.9334 30.4947,15.9334 C30.4847,15.9334 30.2947,16.1804 30.2947,16.1804 L29.9277,16.1904 C29.9277,16.1904 29.7107,15.9864 29.7107,15.9784 C29.7107,15.9714 29.6937,15.8364 29.6857,15.7504 L29.6427,15.7764 L29.6777,15.6874 C29.6777,15.6864 29.6757,15.6784 29.6757,15.6784 C29.6757,15.6784 29.5357,15.6344 29.5237,15.6344 C29.5157,15.6344 29.4457,15.3104 29.4457,15.3104 L29.1937,15.1694 L29.1737,14.9754 L28.9317,14.8704 C28.9317,14.8704 28.9087,14.6944 28.8967,14.6854 C28.8867,14.6764 28.7797,14.6064 28.7697,14.6064 C28.7617,14.6064 28.7617,14.1234 28.7617,14.1234 L28.9787,14.0874 L28.8577,13.9324 L28.8147,13.7964 L28.8147,13.6564 L28.9947,13.4804 C28.9947,13.4804 28.6737,13.4364 28.6737,13.4444 L28.6587,13.4524 C28.6567,13.4544 28.6507,13.4574 28.6427,13.4624 C28.5707,13.4964 28.3577,13.5844 28.3577,13.5764 C28.3677,13.5764 28.3497,14.1494 28.3497,14.1494"/>
      <path fill="#584B17" d="M29.6856 15.75L29.9906 15.565C29.9906 15.565 30.5466 15.688 30.5646 15.688 30.5816 15.688 30.5726 15.582 30.5816 15.582 30.5896 15.582 30.0356 15.512 30.0356 15.512L30.0256 15.247C30.0256 15.247 30.1996 15.16 30.2066 15.16 30.2126 15.16 30.2476 15.169 30.2946 15.056L30.1876 15.107 29.8656 15.134 29.6076 15.09 29.6916 15.178 29.9276 15.229 29.9376 15.503 29.6916 15.645 29.6776 15.688 29.6426 15.776 29.6856 15.75zM30.5899 14.3193C30.5899 14.3563 30.5609 14.3853 30.5219 14.3853L30.4449 14.3853C30.4059 14.3853 30.3769 14.3563 30.3769 14.3193L30.3769 14.2423C30.3769 14.2053 30.4059 14.1753 30.4449 14.1753L30.5219 14.1753C30.5609 14.1753 30.5899 14.2053 30.5899 14.2423L30.5899 14.3193zM29.5719 14.3633C29.5719 14.4003 29.5389 14.4293 29.4999 14.4293L29.4219 14.4293C29.3849 14.4293 29.3539 14.4003 29.3539 14.3633L29.3539 14.2873C29.3539 14.2503 29.3849 14.2183 29.4219 14.2183L29.4999 14.2183C29.5389 14.2183 29.5719 14.2503 29.5719 14.2873L29.5719 14.3633zM31.0939 14.0083L30.8149 14.0783 29.9979 14.0703 29.9979 13.6913 30.1989 13.5603C30.1989 13.5603 29.7379 13.5603 29.6879 13.5763 29.7579 13.6213 29.9029 13.6663 29.9029 13.6663L29.9099 14.1043C29.9099 14.1043 28.9859 14.0953 28.9689 14.0953 28.9509 14.0953 29.0689 14.2983 29.0689 14.2983L29.4449 14.7033C29.4449 14.7033 29.5859 14.7293 29.5859 14.7213 29.5859 14.7133 29.7829 14.2273 29.7829 14.2273L30.1429 14.2183 30.4569 14.6323 30.5649 14.6143 30.7699 14.2553 31.0939 14.0083z"/>
      <path fill="#806B34" d="M29.4219,14.2187 C29.3849,14.2187 29.3539,14.2497 29.3539,14.2867 L29.3539,14.3637 C29.3539,14.4007 29.3849,14.4297 29.4219,14.4297 L29.4999,14.4297 C29.5389,14.4297 29.5719,14.4007 29.5719,14.3637 L29.5719,14.2867 C29.5719,14.2497 29.5389,14.2187 29.4999,14.2187 L29.4219,14.2187 Z"/>
      <path fill="#806C35" d="M30.4454,14.1758 C30.4064,14.1758 30.3774,14.2048 30.3774,14.2418 L30.3774,14.3198 C30.3774,14.3568 30.4064,14.3858 30.4454,14.3858 L30.5214,14.3858 C30.5604,14.3858 30.5904,14.3568 30.5904,14.3198 L30.5904,14.2418 C30.5904,14.2048 30.5604,14.1758 30.5214,14.1758 L30.4454,14.1758 Z"/>
      <polygon fill="#584B17" points="28.611 12.416 28.384 12.39 28.779 12.803 29.058 12.803 28.869 12.531"/>
      <polygon fill="#584B17" points="31.363 12.17 31.156 12.145 30.924 12.355 30.644 12.399 30.732 12.646"/>
      <path fill="#584B17" d="M29.9805,12.6181 C29.9805,12.6181 29.9025,12.4951 29.9025,12.4861 C29.9025,12.4781 29.7935,12.4861 29.7935,12.4861 L29.7485,12.6281 L29.3905,12.6631 L29.3805,12.7681 L30.3455,12.7321 L30.3635,12.7321 L30.3435,12.7001 L30.3305,12.6801 L29.9805,12.6181 Z"/>
      <polygon fill="#584B17" points="30.313 12.364 29.945 12.187 29.974 12.372"/>
      <polygon fill="#584B17" points="29.738 12.197 29.381 12.433 29.711 12.382"/>
      <polygon fill="#584B17" points="28.027 15.143 27.877 14.859 27.873 14.854 27.871 14.859 27.722 15.283 27.789 15.422 27.812 15.473 27.855 15.566"/>
      <polygon fill="#584B17" points="28.199 15.794 28.404 15.292 28.008 15.696"/>
      <path fill="#BA1F1B" d="M37.0196 17.6455C37.2426 17.5935 37.2966 17.5145 37.3396 17.4245 37.4106 17.3115 37.3636 17.2505 37.3786 17.1015L36.6306 16.9355 36.2966 17.3305 36.3226 17.6575 37.0196 17.6455zM38.0254 18.1904L38.0254 18.4944 38.6444 18.4814C38.8674 18.4284 38.8964 18.3884 38.9414 18.2984 39.0094 18.1854 38.9904 18.1884 39.0074 18.0394L38.3064 17.9244 38.0254 18.1904zM40.711 17.4062L40.723 17.6572 41.381 17.6842C41.602 17.6312 41.57 17.6412 41.641 17.5252 41.711 17.4142 41.686 17.3902 41.705 17.2412L41.031 17.0752 40.711 17.4062zM42.5801 17.9883L42.5801 18.3053 43.2771 18.3683C43.5021 18.3153 43.5191 18.2503 43.5761 18.1723 43.6441 18.0593 43.6091 18.0493 43.6271 17.8993L42.9551 17.6723 42.5801 17.9883zM39.3672 9.5478C39.4692 9.5758 39.5252 9.6208 39.6112 9.7228 39.6972 9.8258 39.6912 9.9318 39.7112 10.0798L39.6272 10.1398C39.6272 10.0268 39.5702 9.9278 39.5272 9.8268 39.4842 9.7308 39.4492 9.6458 39.3672 9.5478L39.3672 9.5478zM39.9862 8.7368C40.0022 8.8528 40.0642 8.9498 40.0822 9.0648 40.0962 9.1778 40.0682 9.3068 40.0822 9.4198 40.0822 9.4198 40.0642 9.2068 40.0192 9.0548 39.9692 8.8848 39.9082 8.8318 39.8772 8.7528L39.9862 8.7368zM38.8942 9.3188C38.7932 9.2608 38.6522 9.2248 38.5252 9.1948L38.7172 9.0528C38.8102 9.1198 38.9302 9.1948 39.0002 9.2768 39.0722 9.3608 39.0682 9.3528 39.0822 9.4568 38.9722 9.3768 39.0002 9.3778 38.8942 9.3188L38.8942 9.3188zM40.8122 9.8248C40.8122 9.9428 40.7792 10.0448 40.6872 10.1238 40.7132 10.0218 40.7072 9.9188 40.6952 9.8178 40.6812 9.7148 40.6462 9.6258 40.6092 9.5108 40.7132 9.5978 40.7542 9.7068 40.8122 9.8248L40.8122 9.8248zM41.0622 8.8588L41.0002 9.4498 40.9472 8.8198 41.0622 8.8588zM41.7792 10.2148C41.8282 10.0608 41.8012 9.8468 41.7972 9.8468 41.8122 9.8688 41.9082 10.0948 41.8732 10.2448 41.8362 10.3428 41.7262 10.3718 41.6012 10.4618 41.6972 10.3798 41.7302 10.3668 41.7792 10.2148L41.7792 10.2148zM42.8052 10.2518C42.8902 10.3198 42.9312 10.4038 42.9392 10.4878 42.9512 10.5718 42.9312 10.6488 42.8632 10.7538L42.7422 10.7458C42.8082 10.6138 42.8362 10.5718 42.8282 10.4848 42.8182 10.3968 42.7302 10.3018 42.6802 10.2218L42.8052 10.2518zM41.9472 9.2478C41.9822 9.2898 41.9722 9.5128 41.9862 9.6438 41.9082 9.6578 41.8942 9.3398 41.8492 9.1878 41.8832 9.1698 41.9162 9.1768 41.9472 9.2478L41.9472 9.2478zM42.7732 9.2548L42.8572 9.2478 42.8572 9.4738C42.8572 9.4808 42.7542 9.5258 42.7422 9.5188L42.7732 9.2548zM43.6972 10.2898L43.7192 10.6048 43.6212 10.6568 43.5902 10.2898 43.6972 10.2898zM40.5512 10.2378C40.9122 10.3328 41.1682 10.5478 41.4842 10.6048 42.0622 10.7508 42.7562 10.8508 43.2812 10.7928 43.8042 10.7358 44.2462 10.4618 44.6352 10.2628L44.6352 10.1358 44.3752 10.1358C43.9572 10.2868 43.3672 10.2958 42.9202 10.2348 42.4712 10.1788 42.3472 9.9758 41.6782 9.7818L41.6252 9.6548C42.4412 9.6948 42.6052 9.6728 42.9472 9.5248 43.2812 9.4368 43.4292 9.2418 43.6192 9.1088L43.6132 8.9588 43.3672 8.9458C43.0512 9.1558 42.8512 9.1938 42.3672 9.1498 41.9282 9.1058 41.5292 8.8558 41.2322 8.8498 40.9222 8.8528 40.9352 8.7018 40.6332 8.6878 40.1522 8.6448 39.6312 8.7098 39.1742 8.8198 38.6292 8.9838 38.5472 9.1218 38.2692 9.3888L39.5882 10.2628C39.8362 10.0568 40.3492 10.1818 40.5512 10.2378L40.5512 10.2378z"/>
      <path fill="#000" d="M38.7168 9.0527L38.5258 9.1957C38.6528 9.2247 38.7928 9.2607 38.8948 9.3187 38.9998 9.3777 38.9728 9.3767 39.0818 9.4567 39.0688 9.3527 39.0718 9.3607 38.9998 9.2777 38.9298 9.1957 38.8108 9.1197 38.7168 9.0527M39.711 10.0801C39.691 9.9321 39.697 9.8261 39.611 9.7231 39.525 9.6211 39.469 9.5761 39.367 9.5481 39.449 9.6451 39.484 9.7301 39.527 9.8271 39.57 9.9281 39.627 10.0261 39.627 10.1401L39.711 10.0801zM40.0821 9.4199C40.0681 9.3069 40.0961 9.1779 40.0821 9.0649 40.0641 8.9499 40.0021 8.8529 39.9861 8.7369L39.8771 8.7529C39.9081 8.8319 39.9691 8.8849 40.0201 9.0549 40.0641 9.2069 40.0821 9.4199 40.0821 9.4199"/>
      <polygon fill="#000" points="41.063 8.858 40.947 8.82 41.001 9.45"/>
      <path fill="#000" d="M40.6875 10.124C40.7795 10.045 40.8125 9.942 40.8125 9.825 40.7535 9.707 40.7125 9.598 40.6095 9.511 40.6465 9.626 40.6815 9.715 40.6955 9.817 40.7075 9.919 40.7125 10.021 40.6875 10.124M41.8731 10.2451C41.9081 10.0951 41.8121 9.8691 41.7971 9.8471 41.8011 9.8471 41.8281 10.0601 41.7791 10.2151 41.7301 10.3671 41.6971 10.3801 41.6021 10.4621 41.7271 10.3721 41.8361 10.3431 41.8731 10.2451M41.9864 9.6435C41.9724 9.5125 41.9824 9.2895 41.9474 9.2475 41.9164 9.1765 41.8824 9.1695 41.8494 9.1875 41.8944 9.3395 41.9084 9.6585 41.9864 9.6435M42.8575 9.248L42.7735 9.255 42.7425 9.519C42.7535 9.525 42.8575 9.48 42.8575 9.474L42.8575 9.248zM42.7422 10.7461L42.8632 10.7541C42.9312 10.6481 42.9512 10.5721 42.9392 10.4881 42.9312 10.4041 42.8902 10.3201 42.8042 10.2521L42.6802 10.2221C42.7302 10.3021 42.8182 10.3961 42.8282 10.4841 42.8362 10.5721 42.8082 10.6141 42.7422 10.7461"/>
      <polygon fill="#000" points="43.719 10.604 43.698 10.29 43.59 10.29 43.621 10.658"/>
      <path fill="#F8EC00" d="M37.8438,10.6552 C38.0038,10.6242 38.1148,10.5402 38.2758,10.5402 C38.4358,10.5402 38.4828,10.6342 38.6328,10.6552 L38.3788,10.7882 C38.3418,10.8192 38.3048,10.8642 38.2618,10.8602 C38.2208,10.8582 38.1528,10.8112 38.1188,10.7722 L37.8438,10.6552 Z M38.8228,14.3102 C38.8708,14.3152 39.0118,14.4632 39.0938,14.6912 C39.1148,14.8612 39.1508,15.0532 39.1368,15.2312 C39.0118,15.2452 38.9608,15.2262 38.8358,15.2392 C38.8228,14.9142 38.8208,14.5422 38.8228,14.3102 L38.8228,14.3102 Z M39.2928,10.5552 C39.5178,10.4882 39.9178,10.4522 40.1038,10.4502 L39.7948,10.6982 C39.5858,10.7672 39.5878,10.8702 39.4418,10.8832 C39.3048,10.8832 39.1468,10.7752 39.0548,10.7232 C39.0688,10.6782 39.1118,10.6042 39.2928,10.5552 L39.2928,10.5552 Z M38.2928,13.9192 C38.2698,13.5952 38.1988,13.3702 38.0978,13.1182 C38.2108,13.3082 38.3028,13.6182 38.3518,13.9062 C38.3518,13.9292 38.3108,13.9462 38.2928,13.9192 L38.2928,13.9192 Z M39.8648,13.2252 C39.9048,13.3102 39.9568,13.5092 40.0488,13.6902 C40.0758,13.7762 40.1468,13.8502 40.1208,13.9202 C40.1038,13.9572 40.0278,13.9572 39.9688,13.9412 C39.9358,13.8792 39.8438,13.4062 39.7868,13.2432 C39.7808,13.2012 39.8238,13.1992 39.8648,13.2252 L39.8648,13.2252 Z M40.5568,13.0362 C40.5938,13.0172 40.7108,13.2472 40.7478,13.3532 C40.7558,13.4162 40.8358,13.6472 40.8578,13.8432 C40.8638,13.8822 40.7288,13.8262 40.7068,13.7812 C40.7048,13.6942 40.5278,13.0602 40.5568,13.0362 L40.5568,13.0362 Z M41.3048,14.0812 C41.3438,14.0782 41.2108,14.5882 41.1878,14.6682 C41.1428,14.7432 40.9938,14.9382 40.8748,15.1252 C40.8318,15.1582 40.7288,15.1952 40.7308,15.1502 C40.7288,15.1252 40.8748,14.8672 41.0278,14.5972 C41.1738,14.3352 41.2868,14.0672 41.3048,14.0812 L41.3048,14.0812 Z M41.7188,14.3532 C41.7438,14.2252 41.7778,13.9942 41.8298,13.6932 C41.8928,14.1132 41.8188,14.5632 41.6208,14.8772 C41.5778,14.8962 41.7108,14.4362 41.7188,14.3532 L41.7188,14.3532 Z M42.1448,13.3242 C42.1638,13.3612 42.1818,13.4142 42.1558,13.4652 C42.1268,13.4902 41.7458,12.8572 41.7818,12.8552 C41.7888,12.8262 42.1018,13.2522 42.1448,13.3242 L42.1448,13.3242 Z M42.9748,13.0182 C42.9978,13.1392 43.0508,13.6022 43.1188,13.9042 C43.1168,13.9312 43.0858,13.9522 43.0508,13.9342 C43.0218,13.9122 43.0348,13.7122 42.9768,13.4892 C42.9218,13.2682 42.8238,13.0532 42.8418,12.9942 C42.8618,12.9622 42.9258,12.9762 42.9748,13.0182 L42.9748,13.0182 Z M43.5758,14.8182 C43.6368,14.7512 43.6448,14.6662 43.6798,14.6342 C43.6018,14.8192 43.8088,15.1062 43.9258,15.3342 C44.0038,15.3542 44.0668,15.3542 44.1038,15.4012 C44.1118,15.4232 44.0198,15.4372 44.0298,15.5152 L44.2268,15.9122 C44.2888,15.9612 44.3908,15.9862 44.4868,16.0032 C44.5118,16.0232 44.4668,16.0562 44.4458,16.0792 C44.3848,16.1242 44.2638,16.1612 44.2268,16.1412 C44.0328,15.7382 43.9238,15.4732 43.6528,15.0412 C43.5818,14.9382 43.4098,14.9542 43.4218,14.9142 C43.4258,14.8672 43.5178,14.8862 43.5758,14.8182 L43.5758,14.8182 Z M43.9888,14.0262 C44.1308,14.2232 44.3168,14.3742 44.5238,14.5552 C44.5408,14.5772 44.2108,14.5462 44.1248,14.5662 C44.0368,14.5862 44.0448,14.6332 43.9868,14.6702 C43.9688,14.7072 43.9258,14.1832 43.8418,13.8862 C43.7578,13.5912 43.6468,13.3412 43.6778,13.3722 C43.7538,13.5702 43.8498,13.8302 43.9888,14.0262 L43.9888,14.0262 Z M45.1878,12.1212 C45.2388,12.2192 45.1938,12.3462 45.1188,12.5002 C45.0838,12.5622 44.9728,12.5512 44.8518,12.5462 C44.7908,12.4942 44.7758,12.4512 44.7738,12.3912 C44.8518,12.2242 44.9958,12.1362 45.1878,12.1212 L45.1878,12.1212 Z M37.1098,16.0252 C36.9918,16.2662 36.7778,16.3322 36.6598,16.8492 L37.4298,17.0412 C37.4548,16.9342 37.5588,16.8652 37.5858,16.7592 C37.6138,16.6522 37.6118,16.5202 37.5978,16.4022 C37.7498,16.1812 38.0588,15.7252 38.1578,15.4832 C38.3258,15.3922 38.4488,15.3372 38.5728,15.3372 C38.7008,15.3372 38.7798,15.4122 38.9138,15.4832 C38.8538,15.6872 38.6898,15.9112 38.6778,16.1972 L38.6778,16.9892 C38.6468,17.1872 38.4218,17.1902 38.3258,17.7812 L39.0158,17.9612 C39.1348,17.7612 39.3208,17.7332 39.3688,17.6542 L39.4178,16.8322 C39.5058,16.4432 40.0508,16.1212 40.0588,15.7012 C40.2538,15.6962 40.3298,15.7172 40.4068,15.6772 C40.5098,15.6402 40.5448,15.5822 40.6268,15.5092 C40.6578,15.6352 40.7578,15.6472 40.8438,15.6472 C40.9278,15.6472 41.0958,15.5282 41.1638,15.4792 C41.2128,15.5482 41.2388,15.6142 41.3438,15.6362 C41.4418,15.6622 41.7308,15.6172 41.8498,15.5902 L41.2818,16.5182 C41.2598,16.6072 41.2888,16.6632 41.2458,16.7672 C41.2048,16.8602 41.1208,16.9062 41.0818,16.9922 L41.7248,17.1452 L41.8298,16.8752 C41.9668,16.8172 42.0758,16.7862 42.1468,16.6992 C42.2168,16.6112 42.2168,16.4462 42.2598,16.3502 C42.4788,16.1912 42.8238,15.8452 43.0668,15.5592 C43.2308,15.5882 43.4608,15.7232 43.5528,15.9262 C43.5648,16.1452 43.5798,16.5462 43.4828,16.8232 L43.0668,17.4742 L43.0178,17.5822 L43.6738,17.8162 L44.0918,17.4972 L44.1058,17.0412 C44.3168,16.6722 44.6148,16.4682 44.9008,16.2362 C44.9008,16.2232 44.9338,15.7472 44.9198,15.7282 C44.8518,15.6752 44.8008,15.7082 44.7778,15.6092 C44.7518,15.5102 44.7698,15.2402 44.7808,15.1342 C44.8238,15.0822 44.9098,15.0232 44.9058,14.9812 C44.7928,14.8552 44.8278,14.5332 44.8648,14.2812 C44.8558,13.9962 45.2438,13.6572 45.3048,13.4902 L45.3298,13.1902 C45.2868,13.1162 45.2308,13.0732 45.2288,13.0092 C45.2288,12.9462 45.3028,12.8432 45.3518,12.7762 L45.4338,12.6342 L45.4238,11.8932 C45.3988,11.8132 45.3298,11.6892 45.2658,11.6762 C45.1988,11.6632 45.1058,11.7372 45.0328,11.8162 L44.6528,12.0942 C44.4748,12.1502 44.3168,12.1722 43.9978,12.0932 L43.5138,12.1032 C43.2618,12.1742 43.1248,12.1852 42.8848,12.0812 L42.5998,12.0862 C42.5098,12.1352 42.3848,12.2142 42.2908,12.2322 C42.1938,12.2522 42.0608,12.2542 41.9648,12.2242 C41.2228,12.2742 41.4098,12.3272 41.1958,12.3742 C41.0278,12.3412 41.0818,12.2572 40.4198,12.2522 L40.1578,12.1752 C39.8278,11.9562 39.5728,11.6052 39.3518,11.2042 C40.0428,11.0062 40.3298,10.8012 40.5388,10.3332 L39.5668,10.3692 L38.1878,9.4542 C37.8908,9.5402 37.7818,9.7042 37.6368,9.8462 L36.7988,9.4212 C36.6618,9.5352 36.6118,9.6962 36.6738,9.8622 C36.7418,10.0262 37.0018,10.2852 37.1898,10.4132 C37.1448,10.6412 37.0738,10.8132 36.9918,11.0122 C36.9028,11.2372 36.7048,11.5212 36.6988,11.6122 C36.6878,11.7172 36.6548,11.9412 36.8128,12.0012 C36.9648,12.0602 37.4708,11.9602 37.6368,11.9712 C37.6098,12.0592 37.5448,12.2172 37.5668,12.2852 C37.5898,12.3512 37.6348,12.3742 37.7718,12.3792 C37.7308,12.4622 37.6468,12.5682 37.6898,12.6172 C37.7928,12.6982 37.9118,12.6822 38.0138,12.6762 C37.8538,12.8622 37.4528,13.2202 37.3238,13.3802 C37.1878,13.5652 37.1758,13.7652 37.4438,13.7462 C37.3418,13.8542 37.2478,13.9632 37.2638,14.0552 C37.2848,14.1702 37.3418,14.2462 37.5318,14.1802 C37.4198,14.4342 37.4938,14.6642 37.5328,14.9282 C37.4378,15.1302 37.4808,15.3162 37.4548,15.5472 C37.2598,15.6572 37.2368,15.8012 37.1098,16.0252 L37.1098,16.0252 Z"/>
      <path fill="#000" d="M38.2618 10.8603C38.3048 10.8643 38.3418 10.8193 38.3788 10.7883L38.6328 10.6553C38.4828 10.6333 38.4358 10.5403 38.2758 10.5403 38.1158 10.5403 38.0038 10.6243 37.8438 10.6553L38.1188 10.7723C38.1528 10.8113 38.2208 10.8583 38.2618 10.8603M39.795 10.6982L40.104 10.4502C39.918 10.4522 39.518 10.4882 39.293 10.5552 39.111 10.6042 39.068 10.6782 39.055 10.7232 39.147 10.7752 39.305 10.8832 39.441 10.8832 39.588 10.8702 39.586 10.7672 39.795 10.6982M38.293 13.9189C38.311 13.9459 38.352 13.9299 38.352 13.9059 38.303 13.6179 38.211 13.3089 38.098 13.1179 38.199 13.3699 38.27 13.5959 38.293 13.9189M39.1368 15.2314C39.1508 15.0534 39.1158 14.8614 39.0938 14.6914 39.0118 14.4624 38.8708 14.3154 38.8228 14.3104 38.8208 14.5424 38.8228 14.9144 38.8358 15.2394 38.9608 15.2264 39.0118 15.2454 39.1368 15.2314M40.1211 13.9199C40.1461 13.8509 40.0761 13.7759 40.0491 13.6909 39.9571 13.5089 39.9041 13.3109 39.8651 13.2259 39.8241 13.1989 39.7811 13.2009 39.7871 13.2429 39.8441 13.4059 39.9351 13.8789 39.9691 13.9409 40.0271 13.9569 40.1031 13.9569 40.1211 13.9199M40.8575 13.8437C40.8365 13.6477 40.7555 13.4157 40.7485 13.3537 40.7115 13.2467 40.5935 13.0177 40.5565 13.0357 40.5275 13.0607 40.7055 13.6947 40.7075 13.7817 40.7285 13.8257 40.8635 13.8817 40.8575 13.8437M40.875 15.125C40.994 14.938 41.143 14.743 41.187 14.668 41.211 14.588 41.344 14.078 41.305 14.081 41.287 14.067 41.174 14.335 41.027 14.598 40.875 14.867 40.729 15.125 40.73 15.15 40.729 15.195 40.832 15.158 40.875 15.125M41.8301 13.6933C41.7771 13.9943 41.7441 14.2253 41.7191 14.3533 41.7111 14.4363 41.5781 14.8963 41.6211 14.8773 41.8181 14.5633 41.8921 14.1133 41.8301 13.6933M42.1563 13.4648C42.1813 13.4138 42.1643 13.3608 42.1443 13.3238 42.1013 13.2518 41.7893 12.8258 41.7813 12.8558 41.7463 12.8578 42.1273 13.4898 42.1563 13.4648M43.0508 13.9345C43.0858 13.9525 43.1168 13.9315 43.1188 13.9045 43.0508 13.6025 42.9978 13.1395 42.9748 13.0185 42.9258 12.9765 42.8618 12.9615 42.8418 12.9945 42.8238 13.0535 42.9218 13.2685 42.9768 13.4895 43.0348 13.7115 43.0218 13.9125 43.0508 13.9345M43.9864 14.6699C44.0454 14.6329 44.0374 14.5859 44.1254 14.5659 44.2114 14.5459 44.5414 14.5769 44.5234 14.5559 44.3164 14.3739 44.1314 14.2239 43.9884 14.0259 43.8494 13.8299 43.7544 13.5699 43.6774 13.3719 43.6464 13.3409 43.7574 13.5909 43.8414 13.8869 43.9254 14.1839 43.9684 14.7069 43.9864 14.6699M43.6524 15.041C43.9234 15.474 44.0334 15.738 44.2264 16.142 44.2634 16.161 44.3844 16.124 44.4454 16.079 44.4664 16.057 44.5114 16.023 44.4864 16.003 44.3904 15.986 44.2894 15.961 44.2264 15.912L44.0294 15.516C44.0194 15.437 44.1114 15.423 44.1034 15.401 44.0664 15.354 44.0044 15.354 43.9254 15.334 43.8084 15.106 43.6014 14.819 43.6794 14.634 43.6444 14.666 43.6364 14.751 43.5764 14.818 43.5174 14.887 43.4254 14.867 43.4224 14.914 43.4104 14.954 43.5824 14.938 43.6524 15.041M45.1192 12.5C45.1932 12.347 45.2382 12.22 45.1872 12.121 44.9962 12.137 44.8512 12.225 44.7732 12.392 44.7752 12.451 44.7912 12.494 44.8512 12.546 44.9732 12.552 45.0842 12.562 45.1192 12.5"/>
      <path fill="#FCFCFD" d="M46.8614,12.4297 L45.1464,18.5157 C46.7304,19.0007 48.2524,19.4487 49.8144,19.9527 C51.3794,20.4577 52.9394,20.9437 54.5234,21.5457 L55.1154,20.3447 C53.5784,19.7327 51.9554,19.1587 50.3534,18.6417 C48.7524,18.1247 47.1504,17.6297 45.5094,17.2487 L46.4824,13.7827 C46.4824,13.7827 49.1234,14.3717 51.6834,15.1957 C54.2384,16.0177 56.7364,17.0737 56.7244,17.0737 C56.7074,17.0737 55.2934,19.9857 55.1324,20.3117 L56.1154,18.3267 L57.3594,15.8187 C57.3534,15.8167 57.3494,15.8147 57.3434,15.8127 C55.6564,15.0837 53.9964,14.4107 52.2524,13.8487 C50.5004,13.2837 48.7504,12.8297 46.8614,12.4297"/>
      <path fill="#FF1821" d="M54.9024,17.9521 C54.2814,17.9541 53.5784,17.6061 53.2694,17.6521 C53.2834,17.8411 53.6074,18.2291 53.9784,18.3821 L53.9654,19.2741 L53.7974,19.4281 L53.6174,19.3101 C53.7614,19.0981 53.7154,18.8501 53.6544,18.6391 C53.5154,18.4391 53.4984,18.3591 53.2404,18.3471 C52.9334,18.2871 52.7144,18.2051 52.3244,17.9341 L52.1794,17.9571 C52.0974,18.1071 52.0114,18.2091 51.8184,18.2991 L51.4234,18.2751 C51.4234,18.2751 50.5114,18.0761 50.5114,18.0631 C50.5114,18.0531 50.5024,17.9231 50.5254,17.9121 C50.5474,17.8991 50.8384,17.8991 50.8614,17.8991 C51.0544,17.9571 51.4594,17.9571 51.4594,17.9571 L51.4494,17.6171 C51.0474,17.5901 50.8454,17.5621 50.5724,17.4741 C50.3824,17.3971 50.1194,17.2871 49.5804,17.0881 C49.1364,17.0281 48.3324,17.0181 47.9224,17.1551 C47.6834,17.1791 47.3384,17.3001 47.1814,17.3001 L47.0044,17.2521 C46.8814,17.2181 46.8814,17.1811 46.9294,17.0751 C47.6974,17.0161 47.8164,16.9591 48.0454,16.8531 C48.0584,16.7831 47.9594,16.6291 47.9234,16.6171 C47.4454,16.5941 47.0624,16.6291 46.9294,16.6051 C46.7244,16.5471 46.4494,16.4421 46.4494,16.4301 C46.4494,16.4171 46.4164,16.2411 46.4254,16.2411 C46.4374,16.2411 46.7384,16.3231 46.7504,16.3231 C47.0764,16.3821 47.6384,16.3581 47.7674,16.2881 L47.7814,16.0301 C47.7674,15.9111 47.6874,15.8061 47.6604,15.7951 C47.6384,15.7831 47.1324,15.7231 46.9514,15.7231 C46.6624,15.6731 46.7074,15.5281 46.7034,15.3841 C46.9614,15.2371 47.1364,15.1981 47.2794,14.9601 L48.2134,14.9601 L48.2244,15.3011 C48.4554,15.4111 48.5904,15.5321 48.8164,15.6411 C49.0474,15.7521 49.3734,15.8491 49.6034,15.9591 L51.6174,16.1361 C51.8844,16.1781 52.2774,16.2931 52.5074,16.4301 C52.7424,16.5651 52.8924,16.7391 53.0194,16.9591 C53.4334,17.1031 53.8474,17.1901 54.2714,17.2521 C54.6994,17.3151 55.2304,17.3431 55.6444,17.3581 C55.8474,17.4301 55.8474,17.5341 55.7524,17.6401 C55.7524,17.6401 55.5234,17.9491 54.9024,17.9521 M51.6834,15.1951 C49.1234,14.3721 46.4824,13.7821 46.4824,13.7821 L45.5094,17.2491 C47.1504,17.6301 48.7524,18.1251 50.3534,18.6411 C51.9554,19.1581 53.5784,19.7321 55.1154,20.3451 C55.1154,20.3451 55.1234,20.3311 55.1324,20.3111 C55.2934,19.9851 56.7074,17.0731 56.7244,17.0731 C56.7364,17.0731 54.2384,16.0171 51.6834,15.1951"/>
      <path fill="#000" d="M55.6446,17.3584 C55.2306,17.3424 54.6996,17.3154 54.2716,17.2524 C53.8476,17.1904 53.4336,17.1034 53.0196,16.9594 C52.8926,16.7394 52.7426,16.5654 52.5076,16.4294 C52.2776,16.2934 51.8846,16.1774 51.6176,16.1354 L49.6036,15.9594 C49.3736,15.8494 49.0466,15.7524 48.8166,15.6414 C48.5896,15.5324 48.4556,15.4114 48.2246,15.3004 L48.2126,14.9604 L47.2796,14.9604 C47.1366,15.1984 46.9606,15.2374 46.7036,15.3834 C46.7066,15.5284 46.6626,15.6724 46.9516,15.7234 C47.1326,15.7234 47.6386,15.7834 47.6606,15.7954 C47.6876,15.8064 47.7676,15.9114 47.7816,16.0304 L47.7676,16.2884 C47.6386,16.3584 47.0766,16.3814 46.7496,16.3234 C46.7386,16.3234 46.4376,16.2414 46.4256,16.2414 C46.4156,16.2414 46.4496,16.4174 46.4496,16.4294 C46.4496,16.4424 46.7246,16.5464 46.9296,16.6054 C47.0626,16.6294 47.4456,16.5934 47.9236,16.6174 C47.9586,16.6294 48.0586,16.7834 48.0446,16.8534 C47.8166,16.9594 47.6976,17.0164 46.9296,17.0754 C46.8806,17.1814 46.8806,17.2174 47.0036,17.2524 L47.1816,17.2994 C47.3376,17.2994 47.6836,17.1784 47.9216,17.1554 C48.3326,17.0184 49.1366,17.0284 49.5806,17.0874 L49.5546,16.8404 L51.3306,16.7944 C51.8946,16.8884 51.9356,17.1584 52.0626,17.5814 L51.4496,17.6174 L51.4586,17.9574 C51.4586,17.9574 51.0546,17.9574 50.8616,17.8994 C50.8376,17.8994 50.5466,17.8994 50.5256,17.9124 C50.5016,17.9224 50.5116,18.0524 50.5116,18.0634 C50.5116,18.0764 51.4236,18.2754 51.4236,18.2754 L51.8186,18.2984 C52.0116,18.2094 52.0976,18.1074 52.1796,17.9574 L52.3246,17.9344 C52.7146,18.2054 52.9336,18.2874 53.2406,18.3464 C53.4986,18.3594 53.5156,18.4394 53.6546,18.6394 C53.7146,18.8504 53.7616,19.0984 53.6176,19.3104 L53.7966,19.4274 L53.9646,19.2744 L53.9786,18.3814 C53.6076,18.2294 53.2836,17.8404 53.2696,17.6524 C53.5786,17.6064 54.2816,17.9544 54.9026,17.9524 C55.5236,17.9494 55.7516,17.6394 55.7516,17.6394 C55.8476,17.5344 55.8476,17.4294 55.6446,17.3584"/>
      <path fill="#FFF" d="M51.3301,16.7939 L49.5551,16.8409 L49.5801,17.0879 C50.1191,17.2869 50.3831,17.3979 50.5721,17.4749 C50.8461,17.5629 51.0471,17.5899 51.4491,17.6169 L52.0621,17.5809 C51.9351,17.1579 51.8941,16.8889 51.3301,16.7939"/>
      <path fill="#1E246B" d="M25.0528,19.2226 L24.7538,15.9646 C23.1118,16.0736 21.3088,16.2096 19.6118,16.4496 C17.9118,16.6896 16.2088,17.0066 14.5348,17.4296 C14.5348,17.4296 13.6248,14.1326 13.6568,14.1326 C15.4438,13.5336 17.1818,13.1156 18.9708,12.8796 C20.7578,12.6466 22.7288,12.6456 24.4568,12.7486 L24.1798,9.6936 C22.5818,9.7046 21.3888,9.6766 18.5708,10.0386 C15.7698,10.4286 14.6138,10.7626 12.9068,11.4156 L12.1638,8.6196 C13.9048,7.7856 15.8578,7.1356 17.9198,6.8546 C19.8868,6.5746 21.8538,6.5466 23.8708,6.5506 L17.0328,2.6466 L12.1388,8.5726 L15.3458,20.5206 C19.2848,19.8186 21.5528,19.4826 25.0528,19.2226"/>
      <path fill="#F8EC00" d="M5.2832,14.0429 L6.7932,13.4139 L7.9962,14.3259 L8.1602,12.8609 L8.1332,12.8719 L6.9262,12.0109 C6.9262,12.0109 8.0042,14.2879 7.9922,14.2759 C7.9782,14.2639 6.8472,13.4369 6.8062,13.4009 L6.9122,12.0119 C6.9122,12.0119 5.3082,14.0279 5.3082,14.0179 C5.3082,14.0039 5.5432,12.4329 5.5432,12.4329 L4.3552,11.5449 L9.3872,12.3589 L8.4202,12.7549 L9.3982,12.3689 L8.3712,11.3859 L8.6012,9.9279 C8.6012,9.9279 8.5882,9.9329 8.5842,9.9329 C8.5682,9.9669 7.0512,11.7559 6.9332,11.9099 C6.9202,11.9109 7.1112,10.4789 7.0972,10.4669 C7.1152,10.4739 7.7192,10.2499 8.1522,10.0889 C7.7132,10.2469 7.1092,10.4609 7.1092,10.4539 C7.1092,10.4409 6.1072,9.6059 6.0372,9.5679 L6.9352,11.9359 L5.7692,10.9499 L4.3302,11.5339 L5.5022,12.4459 L5.2832,14.0429 Z"/>
      <path fill="#FFC600" d="M4.3555,11.5449 L5.5425,12.4329 C5.5425,12.4329 5.3085,14.0039 5.3085,14.0179 C5.3085,14.0279 6.9125,12.0119 6.9125,12.0119 L6.8065,13.4009 C6.8475,13.4369 7.9785,14.2639 7.9925,14.2759 C8.0035,14.2879 6.9255,12.0109 6.9255,12.0109 L8.1325,12.8719 L8.1605,12.8609 L8.4195,12.7549 L9.3865,12.3589 L4.3555,11.5449 Z"/>
      <polygon fill="#FFC600" points="6.037 9.568 6.025 9.535 5.766 10.947 5.769 10.95 6.935 11.935"/>
      <path fill="#FFC600" d="M6.9336,11.9101 C7.0506,11.7561 8.5686,9.9671 8.5836,9.9321 C8.5856,9.9321 8.5896,9.9281 8.5896,9.9281 C8.5836,9.9281 8.3926,9.9991 8.1526,10.0891 C7.7186,10.2501 7.1156,10.4731 7.0976,10.4671 C7.1116,10.4781 6.9196,11.9111 6.9336,11.9101"/>
      <path fill="#F8EC00" d="M52.4415,11.5351 L52.7575,12.9901 L53.8455,11.9741 L53.8185,11.9671 L53.4645,10.5421 C53.4645,10.5421 52.7915,12.9681 52.7875,12.9501 C52.7855,12.9341 52.4685,11.5841 52.4595,11.5321 L53.4555,10.5341 C53.4555,10.5341 50.9065,11.0631 50.9125,11.0531 C50.9205,11.0421 52.1325,9.9871 52.1325,9.9871 L51.8085,8.5581 L55.1095,12.3661 L54.1055,12.0541 L55.1135,12.3841 L54.9805,10.9801 L56.1135,10.0091 C56.1135,10.0091 56.0975,10.0031 56.0935,10.0031 C56.0315,10.0221 53.7225,10.4251 53.5355,10.4691 C53.5255,10.4621 54.6115,9.4881 54.6095,9.4711 C54.6175,9.4861 55.2265,9.6971 55.6645,9.8481 C55.2225,9.6911 54.6215,9.4731 54.6275,9.4681 C54.6345,9.4571 54.4165,8.1661 54.3905,8.1081 L53.5195,10.4901 L53.2815,9.0001 L51.7985,8.5341 L52.0935,9.9751 L50.8775,11.0571 L52.4415,11.5351 Z"/>
      <path fill="#FFC600" d="M51.8086,8.5586 L52.1326,9.9876 C52.1326,9.9876 50.9196,11.0416 50.9126,11.0526 C50.9066,11.0636 53.4546,10.5346 53.4546,10.5346 L52.4586,11.5326 C52.4686,11.5836 52.7856,12.9346 52.7876,12.9506 C52.7906,12.9676 53.4646,10.5416 53.4646,10.5416 L53.8186,11.9666 L53.8456,11.9746 L54.1056,12.0536 L55.1096,12.3666 L51.8086,8.5586 Z"/>
      <polygon fill="#FFC700" points="54.391 8.108 54.405 8.077 53.28 8.996 53.282 9 53.52 10.49"/>
      <path fill="#FFC700" d="M53.5352,10.4687 C53.7222,10.4247 56.0312,10.0227 56.0942,10.0027 C56.0962,10.0027 56.1012,10.0007 56.1012,10.0007 C56.0982,9.9977 55.9062,9.9327 55.6642,9.8487 C55.2262,9.6977 54.6172,9.4867 54.6092,9.4707 C54.6112,9.4887 53.5252,10.4617 53.5352,10.4687"/>
      <path fill="#FF1821" d="M12.1641 8.6201L12.9061 11.4161C14.6131 10.7631 15.7691 10.4291 18.5701 10.0391 21.3891 9.6771 22.5821 9.7051 24.1801 9.6931L24.1841 9.6931C24.1841 9.6671 23.9181 6.5511 23.9181 6.5511L23.8711 6.5511C21.8531 6.5471 19.8871 6.5741 17.9201 6.8541 15.8571 7.1361 13.9041 7.7861 12.1641 8.6201M18.9707 12.8799C17.1817 13.1149 15.4437 13.5329 13.6567 14.1329 13.6247 14.1329 14.5347 17.4299 14.5347 17.4299 16.2087 17.0069 17.9117 16.6899 19.6117 16.4489 21.3087 16.2099 23.1117 16.0729 24.7537 15.9649 24.7577 15.9649 24.7637 15.9649 24.7697 15.9639L24.4767 12.7499C24.4707 12.7499 24.4647 12.7499 24.4567 12.7489 22.7287 12.6459 20.7577 12.6469 18.9707 12.8799"/>
      <path fill="#F91A22" d="M7.1836,55.3633 L16.0726,55.3583 L16.0726,45.4933 L7.1306,45.4933 L7.1306,35.6793 L16.2636,35.6793 L16.2636,45.4933 L25.3536,45.4933 L25.3536,55.4693 L16.2146,55.4693 L16.2126,65.0623 L10.9536,65.0563 C9.2466,62.6733 7.4726,59.1633 7.1836,55.3633 L7.1836,55.3633 Z M16.2636,35.3523 L25.3946,35.3523 L25.3946,25.5393 L16.2636,25.5393 L16.2636,35.3523 Z M34.5236,25.8203 L43.6546,25.8203 L43.6546,35.6353 L34.5236,35.6353 L34.5236,45.4503 L25.3946,45.4503 L25.3946,35.6353 L34.5236,35.6353 L34.5236,25.8203 Z M25.3946,65.1213 L34.5236,65.1213 L34.5236,55.3083 L25.3946,55.3083 L25.3946,65.1213 Z M52.7856,45.4933 L43.9156,45.4933 L43.9156,55.3583 C45.2616,55.3583 52.6306,55.3603 52.6676,55.3603 C52.4376,57.7133 51.4046,61.3423 48.9156,65.0683 L43.7046,65.0633 L43.7046,55.4693 L34.6346,55.4693 L34.6346,45.4933 L43.6546,45.4933 L43.6546,35.6793 L52.7856,35.6793 L52.7856,45.4933 Z M34.5786,74.4873 L34.5766,65.1693 L43.6056,65.1633 L43.6196,70.3813 C41.7756,71.7143 38.5336,73.6903 34.5786,74.4873 L34.5786,74.4873 Z M16.3436,70.3723 L16.3286,65.1683 L25.3436,65.1723 L25.3726,74.3953 C23.0096,73.9013 19.4546,72.5673 16.3436,70.3723 L16.3436,70.3723 Z M53.6176,54.8983 L53.6176,24.6253 L6.4046,24.6253 L6.3006,54.7973 C6.5706,58.4123 7.8886,61.7653 9.9006,64.6783 C10.0116,64.8403 10.1226,64.9993 10.2386,65.1563 C14.9516,71.6203 23.1136,75.7663 30.7306,75.4343 C37.7496,75.4793 45.2186,71.4373 49.6756,65.1563 C49.7876,64.9993 49.8966,64.8403 50.0056,64.6783 C51.9396,61.8053 53.2496,58.4913 53.6176,54.8983 L53.6176,54.8983 Z"/>
      <polygon fill="#FFF" points="16.215 55.47 25.354 55.47 25.354 45.493 16.264 45.493 16.072 45.493 16.072 55.359 16.215 55.359"/>
      <polygon fill="#FFF" points="34.635 45.493 34.635 55.47 43.705 55.47 43.705 55.358 43.916 55.358 43.916 45.493 43.655 45.493"/>
      <polygon fill="#FFF" points="16.264 35.352 25.395 35.352 25.395 25.539 16.264 25.539"/>
      <path fill="#FFF" d="M43.7051 55.4697L43.7051 65.0637 48.9161 65.0687C51.4041 61.3417 52.4371 57.7127 52.6681 55.3607 52.6311 55.3607 45.2621 55.3587 43.9161 55.3587L43.7051 55.3587 43.7051 55.4697zM34.5762 65.1689L34.5782 74.4869C38.5332 73.6899 41.7752 71.7139 43.6192 70.3809L43.6052 65.1629 34.5762 65.1689zM16.3282 65.1679L16.3442 70.3719C19.4552 72.5669 23.0102 73.9009 25.3732 74.3959L25.3442 65.1719 16.3282 65.1679zM16.2129 65.0625L16.2149 55.4695 16.2149 55.3585 16.0719 55.3585 7.1839 55.3635C7.4729 59.1635 9.2459 62.6725 10.9529 65.0565L16.2129 65.0625z"/>
      <polygon fill="#FFF" points="16.264 35.68 7.131 35.68 7.131 45.493 16.073 45.493 16.264 45.493"/>
      <polygon fill="#FFF" points="25.395 45.45 34.524 45.45 34.524 35.636 25.395 35.636"/>
      <polygon fill="#FFF" points="34.523 35.635 43.654 35.635 43.654 25.82 34.523 25.82"/>
      <polygon fill="#FFF" points="43.654 45.493 43.916 45.493 52.785 45.493 52.785 35.68 43.654 35.68"/>
      <polygon fill="#FFF" points="25.394 65.121 34.523 65.121 34.523 55.308 25.394 55.308"/>
    </g>
  </g>
</svg>
