<svg xmlns="http://www.w3.org/2000/svg" width="200" height="136" viewBox="0 0 200 136">
  <g fill="none" fill-rule="evenodd" transform="translate(-1)">
    <path fill="#FFF" d="M17.9977535,0 C8.61188379,0 1,7.59465628 1,16.9565655 L1,69.8253222 L201,69.8253222 L201,16.9565655 C201,7.59465628 193.388116,4.47189725e-16 183.998208,4.47189725e-16 L17.9977535,0 Z"/>
    <path fill="#EE2734" d="M1,118.865736 C1,128.230666 8.61188379,135.821294 17.9977535,135.821294 L183.998208,135.821294 C193.388116,135.821294 201,128.230666 201,118.865736 L201,69 L1,69 L1,118.865736"/>
    <path fill="#11457E" d="M8.33341077,0.179965804 C3.63377142,3.42868426 0.553571429,8.85794634 0.553571429,15.0070974 L0.553571429,114.992903 C0.553571429,121.917725 4.44932826,127.920012 10.1643153,130.933684 L102.821429,66.1964286 L8.33341077,0.179965804 Z" transform="translate(.446 3)"/>
  </g>
</svg>
