<svg xmlns="http://www.w3.org/2000/svg" width="200" height="136" viewBox="0 0 200 136">
  <g fill="none" fill-rule="evenodd">
    <rect width="200" height="136" fill="#FFF" rx="20"/>
    <path fill="#2F4712" d="M98.5941043,112.981859 C98.553288,112.962358 98.5446712,112.954195 98.5154195,112.926304 L98.4870748,112.899773 C98.4136054,112.832426 98.2918367,112.713379 98.1283447,112.527211 C97.8263039,112.184127 97.4210884,111.681859 97.0648526,111.238095 C96.3585034,110.357596 95.7748299,109.599093 95.6648526,109.456236 L95.485034,109.222222 L95.3052154,109.456236 C95.1952381,109.599546 94.6108844,110.358503 93.9049887,111.238095 C93.5489796,111.681859 93.1435374,112.184127 92.8417234,112.526984 C92.6780045,112.713152 92.5564626,112.832426 92.4829932,112.899546 L92.4546485,112.926304 C92.4244898,112.955102 92.4163265,112.962812 92.3904762,112.975283 L92.360771,112.977324 L91.9061224,112.933787 L92.1253968,112.763265 L92.3290249,112.89229 C92.3192744,112.868934 92.3018141,112.827891 92.2705215,112.78254 C92.2192744,112.70839 92.1444444,112.616553 92.0594104,112.52381 C91.8752834,112.322902 91.614059,112.081179 91.4072562,111.892971 C90.9430839,111.470975 90.4759637,111.082313 90.4714286,111.078231 L90.4668934,111.074603 L93.7238095,108.679138 L92.4378685,108.079592 L93.1249433,107.307256 L95.485034,108.317687 L97.8451247,107.307256 L98.5321995,108.079592 L97.2462585,108.679138 L100.503175,111.074603 L100.50068,111.076644 C100.494104,111.082086 100.026984,111.470748 99.5628118,111.892744 C99.3557823,112.080952 99.0947846,112.322676 98.9104308,112.52381 C98.8253968,112.616327 98.7505669,112.708163 98.6995465,112.782313 C98.668254,112.827891 98.6507937,112.869161 98.6424036,112.889116 L98.8446712,112.763265 L99.0639456,112.933787 L98.6176871,112.97551 L98.5972789,112.980045 L98.5941043,112.981859 Z M104.473923,109.349206 C102.002041,109.349206 100.318141,108.239909 100.263265,108.203175 C102.410658,107.184354 104.270295,106.6678 105.790249,106.6678 L105.816553,106.6678 C107.09932,106.672789 107.893197,107.059184 108.33356,107.382086 C108.775057,107.706122 108.968707,108.051927 108.987075,108.085941 L108.985034,108.087075 C107.529252,108.926077 106.012245,109.350113 104.47483,109.350113 L104.473923,109.349206 Z M86.4988662,109.349206 C84.9621315,109.34898 83.4442177,108.924263 81.9875283,108.086848 L81.985941,108.085941 L81.9866213,108.084127 C81.9866213,108.084127 82.1770975,107.721088 82.639229,107.382086 C83.0793651,107.058957 83.8732426,106.672789 85.1562358,106.6678 L85.1827664,106.6678 C86.7022676,106.6678 88.561678,107.184354 90.7095238,108.203175 C90.6369615,108.251247 88.9507937,109.349206 86.4995465,109.349206 L86.5018141,109.351474 L86.4988662,109.349206 Z M111.131519,107.873016 C110.882766,107.873016 110.669388,107.747392 110.6,107.560317 C110.531973,107.376871 110.553061,107.142857 110.662132,106.864626 C110.84263,106.405896 111.262358,105.92381 111.794331,105.881179 C111.804535,105.880272 111.815193,105.880045 111.82585,105.880045 L111.897959,105.881859 C112.012245,105.88458 112.134467,105.912472 112.252154,105.962132 L112.252154,105.962358 C112.252154,105.963492 112.29229,106.439456 112.172562,106.918367 C112.102494,107.197506 111.997279,107.410884 111.850113,107.570975 C111.670975,107.765986 111.417007,107.87483 111.131293,107.87483 L111.131519,107.873016 Z M79.8390023,107.873016 C79.5548753,107.873016 79.2995465,107.765533 79.1201814,107.570748 C78.9730159,107.410658 78.8675737,107.197506 78.7977324,106.918141 C78.6834467,106.460544 78.714966,106.005442 78.7181406,105.961905 C78.837415,105.911791 78.9589569,105.884354 79.0723356,105.881633 L79.0977324,105.881179 C79.6671202,105.881179 80.115873,106.375057 80.3081633,106.864626 C80.4172336,107.142857 80.438322,107.376871 80.3702948,107.560091 C80.3022676,107.743764 80.0891156,107.870748 79.8396825,107.870748 L79.8390023,107.873016 Z M99.4126984,106.512472 C101.991156,101.631746 104.669615,101.104762 105.701587,101.104762 C106.049433,101.106349 106.280499,101.161451 106.322222,101.172336 L106.324717,101.184807 C106.324717,101.186168 106.479365,102.266213 105.72585,103.433787 C105.019274,104.528571 103.350794,105.951701 99.4145125,106.513832 L99.4115646,106.514286 L99.4126984,106.512472 Z M91.5578231,106.514739 C87.621542,105.952608 85.9530612,104.529478 85.2464853,103.434694 C84.4929705,102.26712 84.647619,101.187075 84.6492063,101.17619 L84.6498866,101.173016 L84.6528345,101.172109 C84.6539683,101.172109 84.893424,101.107483 85.2555556,101.105669 C86.3027211,101.105669 88.9811791,101.632426 91.5589569,106.512018 L91.5605442,106.515193 L91.5560091,106.512925 L91.5578231,106.514739 Z M107.482993,105.734694 C106.699546,105.734467 105.820181,105.670295 104.869841,105.543537 L104.868254,105.543311 L104.869388,105.542177 C106.955782,103.520862 108.9322,103.096825 110.222902,103.096825 C110.32381,103.097052 110.411338,103.099773 110.498186,103.103628 C111.524263,103.151701 112.212245,103.456689 112.259184,103.477778 C112.256916,103.50068 112.235374,103.697732 112.124263,103.936508 C112.010431,104.181859 111.773243,104.543084 111.288435,104.871882 C110.444898,105.443991 109.164626,105.734467 107.483447,105.734467 L107.481179,105.736735 L107.482993,105.734694 Z M83.4897959,105.734694 C81.8081633,105.734467 80.5278912,105.444444 79.6843537,104.872109 C79.1995465,104.543311 78.9623583,104.182086 78.8485261,103.936735 C78.7419501,103.706803 78.7176871,103.515873 78.7138322,103.478005 C78.7582766,103.457596 79.446712,103.151927 80.4746032,103.103855 C80.5614512,103.099773 80.6489796,103.097279 80.7408163,103.097052 C82.0405896,103.097052 84.0170068,103.521088 86.1027211,105.541497 L86.1047619,105.543537 L86.1022676,105.543764 C85.1498866,105.668481 84.270068,105.73424 83.4877551,105.73424 L83.4897959,105.734694 Z M115.487528,105.421769 C114.523356,105.406576 113.840816,105.252608 113.45941,104.964399 C113.279138,104.828118 113.189569,104.646032 113.219955,104.476871 C113.256463,104.27415 113.417914,104.067574 113.713832,103.845805 C114.521995,103.239683 115.719728,102.918821 117.273696,102.892063 C117.373243,102.890249 117.474376,102.889116 117.574376,102.889116 C117.660771,102.889116 117.746712,102.890023 117.831293,102.892063 C119.686395,102.936961 121.335147,103.355556 121.351474,103.359637 L121.355556,103.360544 L121.351927,103.364399 C119.834694,104.881633 117.398413,105.422902 115.62517,105.422902 L115.489116,105.422902 L115.487528,105.421769 Z M75.3469388,105.421769 C73.5736961,105.421769 71.1376417,104.880272 69.6183673,103.361224 L69.61678,103.35941 L69.6213152,103.358277 C69.6371882,103.354195 71.2861678,102.935828 73.1412698,102.890703 C73.2519274,102.887982 73.3632653,102.886395 73.475737,102.886395 C75.138322,102.886395 76.4108844,103.208844 77.2585034,103.844444 C77.5544218,104.06644 77.7160998,104.273016 77.752381,104.47551 C77.7827664,104.644671 77.693424,104.826984 77.5129252,104.963039 C77.1312925,105.251247 76.4489796,105.404989 75.4845805,105.420408 L75.3485261,105.424943 L75.3469388,105.421769 Z M121.371882,102.473923 C121.163492,102.473923 121.008617,102.334921 120.963719,102.197506 C120.90839,102.029025 120.921542,101.83356 121.004535,101.6 C121.085034,101.373243 121.220862,101.160317 121.387302,101.000227 C121.512018,100.880272 121.712472,100.737188 121.957143,100.737188 C122.07619,100.740363 122.169388,100.761224 122.25102,100.8 C122.252608,100.822449 122.278458,101.225397 122.185261,101.636961 C122.128571,101.887755 122.048526,102.069388 121.934014,102.208844 C121.795692,102.374376 121.589342,102.471882 121.371655,102.471882 L121.371882,102.473923 Z M69.600907,102.473923 C69.3825397,102.473923 69.177551,102.377324 69.0387755,102.209297 C68.9240363,102.070068 68.8442177,101.888209 68.7875283,101.637415 C68.6927438,101.218367 68.7213152,100.80839 68.721542,100.804308 L68.7217687,100.800227 C68.8043084,100.761224 68.8965986,100.740363 68.9977324,100.737868 L68.9984127,100.737868 C69.260771,100.737868 69.460771,100.880726 69.5854875,101.000454 C69.7517007,101.160317 69.8877551,101.373469 69.968254,101.600227 C70.0510204,101.833787 70.0643991,102.029252 70.0090703,102.197732 C69.9637188,102.331519 69.8095238,102.472109 69.600907,102.472109 L69.600907,102.473923 Z M108.099773,102.174603 C107.85102,102.174603 107.637642,102.04898 107.568254,101.861905 C107.500227,101.678458 107.521315,101.444444 107.630385,101.166213 C107.810884,100.707483 108.230612,100.225397 108.762585,100.182766 C108.772789,100.181859 108.783447,100.181633 108.794104,100.181633 L108.866213,100.183447 C108.980499,100.186168 109.102721,100.214059 109.220408,100.263719 L109.220408,100.263946 C109.220408,100.265079 109.260544,100.741043 109.140816,101.219955 C109.070748,101.499093 108.965533,101.712472 108.818367,101.872562 C108.639229,102.067574 108.382993,102.17415 108.099546,102.17415 L108.099773,102.174603 Z M82.8730159,102.174603 C82.5888889,102.174603 82.3335601,102.06712 82.154195,101.872336 C82.0070295,101.712245 81.9015873,101.499093 81.831746,101.219728 C81.7174603,100.762132 81.7489796,100.307029 81.7521542,100.263492 C81.8714286,100.213379 81.9929705,100.185941 82.1063492,100.18322 L82.131746,100.182766 C82.7011338,100.182766 83.1498866,100.676644 83.3421769,101.166213 C83.4512472,101.444444 83.4723356,101.678458 83.4043084,101.861678 C83.3362812,102.047619 83.1208617,102.172336 82.8736961,102.172336 L82.8730159,102.174603 Z M76.4081633,101.907029 C72.8396825,101.781406 70.9877551,100.76712 70.062585,99.9380952 C69.5417234,99.4714286 69.2521542,99.0088435 69.1011338,98.7029478 C68.9587302,98.414059 68.9047619,98.1929705 68.8952381,98.1501134 L68.9,98.1480726 C68.9006803,98.1480726 69.2376417,98.0274376 69.7809524,98.01678 L69.8643991,98.015873 C71.0678005,98.015873 73.5176871,98.5213152 76.4068027,101.905442 L76.4068027,101.90771 L76.4081633,101.907029 Z M114.564626,101.904762 C117.367347,98.621542 119.763039,98.0589569 120.941497,98.0156463 C120.976644,98.0145125 121.011565,98.0138322 121.045578,98.0138322 C121.093651,98.0138322 121.14059,98.014966 121.185488,98.0156463 C121.711791,98.0260771 122.043311,98.1376417 122.076871,98.1494331 L122.076871,98.1501134 C122.076644,98.1501134 122.026984,98.3852608 121.870748,98.7022676 C121.719728,99.0081633 121.430612,99.4707483 120.909524,99.937415 C119.984127,100.76644 118.131746,101.780952 114.563719,101.906349 L114.565986,101.904082 L114.564626,101.904762 Z M80.2834467,101.546485 C77.4124717,101.109297 75.785941,99.8768707 74.9269841,98.9195011 C74.0265306,97.9160998 73.7569161,96.9816327 73.744898,96.9380952 C73.7501134,96.9365079 74.100907,96.8451247 74.6292517,96.831746 C74.6675737,96.8306122 74.707483,96.8301587 74.7480726,96.8301587 C74.7891156,96.8301587 74.830839,96.8306122 74.8734694,96.831746 C76.3174603,96.8632653 78.9401361,97.5172336 80.2827664,101.544898 L80.285034,101.544898 L80.2834467,101.546485 Z M110.689342,101.546485 C112.0322,97.5174603 114.654875,96.8634921 116.098639,96.8319728 C116.14127,96.830839 116.18322,96.8303855 116.224263,96.8303855 C116.265079,96.8303855 116.304535,96.830839 116.343311,96.8319728 C116.871429,96.8453515 117.222449,96.9367347 117.22585,96.9378685 L117.227891,96.938322 C117.225624,96.9462585 116.963265,97.8972789 116.045578,98.9197279 C115.1839,99.876644 113.55805,101.110204 110.687302,101.545578 L110.689342,101.546485 Z M125.428571,100.1678 C123.831293,100.1678 122.692744,99.8494331 122.681406,99.8460317 L122.678685,99.8453515 L122.681859,99.8403628 C122.692063,99.8253968 123.931066,98.0219955 126.320181,97.5442177 C126.944898,97.4192744 127.598413,97.3560091 128.261905,97.3560091 C128.317234,97.3560091 128.372109,97.3564626 128.426304,97.3573696 C129.801361,97.378458 130.795238,97.6575964 130.805215,97.6605442 L130.807937,97.6702948 C130.807483,97.6702948 130.819048,97.7736961 130.79932,97.9045351 C130.779138,98.0362812 130.721995,98.2430839 130.565306,98.4789116 C130.288889,98.8943311 129.643991,99.4684807 128.14127,99.8442177 C127.286395,100.059637 126.37483,100.168481 125.433787,100.168481 L125.428571,100.1678 Z M65.5442177,100.1678 C64.6034014,100.1678 63.6907029,100.058957 62.831746,99.8442177 C61.3285714,99.468254 60.6836735,98.8943311 60.407483,98.4789116 C60.2505669,98.2430839 60.1936508,98.0362812 60.1736961,97.9043084 C60.1544218,97.7782313 60.1646259,97.6777778 60.1666667,97.6609977 L60.1736961,97.6585034 C60.177551,97.6575964 61.1714286,97.378458 62.5464853,97.3573696 C62.6006803,97.3564626 62.6553288,97.3560091 62.7108844,97.3560091 C63.3746032,97.3560091 64.0278912,97.4192744 64.6528345,97.5442177 C67.0419501,98.0219955 68.2809524,99.8253968 68.2929705,99.8435374 L68.2941043,99.8455782 L68.2911565,99.8462585 C68.277551,99.8485261 67.139229,100.168254 65.5428571,100.168254 L65.5442177,100.1678 Z M118.764172,97.7460317 C118.516327,97.7460317 118.310431,97.6231293 118.239909,97.4331066 C118.170068,97.245805 118.188662,97.0142857 118.295011,96.7451247 C118.475964,96.2861678 118.895918,95.8040816 119.427211,95.7612245 C119.437415,95.7603175 119.448073,95.7600907 119.45873,95.7600907 L119.530839,95.7619048 C119.645351,95.7646259 119.7678,95.792517 119.885034,95.8421769 L119.885034,95.8424036 C119.885034,95.8439909 119.92517,96.3142857 119.805442,96.7911565 C119.73356,97.0782313 119.628118,97.2938776 119.48322,97.4505669 C119.306349,97.6433107 119.052381,97.747619 118.764399,97.747619 L118.764172,97.7460317 Z M72.2086168,97.7460317 C71.9208617,97.7460317 71.6655329,97.6410431 71.4893424,97.4503401 C71.3444444,97.2936508 71.2390023,97.0777778 71.1673469,96.7909297 C71.0526077,96.3340136 71.0845805,95.8834467 71.0877551,95.8419501 C71.2070295,95.7918367 71.3285714,95.7643991 71.4419501,95.761678 L71.4673469,95.7612245 C72.0356009,95.7612245 72.485034,96.2553288 72.6780045,96.744898 C72.784127,97.0142857 72.8027211,97.2455782 72.7331066,97.4328798 C72.6628118,97.623356 72.4564626,97.745805 72.2092971,97.745805 L72.2086168,97.7460317 Z M67.1972789,97.0589569 C67.175737,97.0537415 65.8419501,96.7106576 64.4836735,95.8741497 C63.2265306,95.1002268 61.6886621,93.7312925 61.5011338,91.6043084 L61.5011338,91.6031746 L61.5043084,91.6022676 C61.5045351,91.6022676 61.6213152,91.5739229 61.7941043,91.5673469 C61.8179138,91.5664399 61.8433107,91.5659864 61.8698413,91.5659864 C62.2453515,91.5659864 63.014059,91.6716553 63.9439909,92.3786848 C65.1276644,93.2811791 66.2206349,94.8548753 67.1979592,97.0612245 L67.1972789,97.0589569 Z M123.77551,97.0589569 C124.751701,94.8528345 125.846032,93.278458 127.029025,92.3786848 C127.866213,91.7417234 128.570068,91.585941 129.012925,91.5673469 C129.04059,91.5662132 129.066667,91.5657596 129.091837,91.5657596 C129.122676,91.5657596 129.151927,91.5664399 129.179819,91.5673469 C129.35102,91.5739229 129.467574,91.6018141 129.472109,91.6031746 L129.471882,91.607483 C129.284354,93.7315193 127.746712,95.1004535 126.489569,95.8741497 C125.13356,96.7063492 123.802494,97.0510204 123.773016,97.0578231 L123.77551,97.0589569 Z M70.4693878,96.9387755 C70.4609977,96.9353741 69.5104308,96.5548753 68.3222222,95.5591837 C67.2151927,94.6312925 65.6587302,92.9605442 64.531746,90.2689342 C64.5324263,90.2687075 64.7907029,90.1310658 65.1861678,90.1061224 C65.2090703,90.1045351 65.2321995,90.1040816 65.2555556,90.1040816 C65.2895692,90.1040816 65.3247166,90.1052154 65.3605442,90.1061224 C65.9072562,90.121542 66.7399093,90.3487528 67.6630385,91.344898 C68.723356,92.4893424 69.6698413,94.3698413 70.475737,96.9346939 L70.4780045,96.9419501 L70.4712018,96.9396825 L70.4693878,96.9387755 Z M120.498866,96.9319728 C121.303628,94.3707483 122.250113,92.4900227 123.310431,91.3455782 C124.233333,90.3494331 125.066213,90.1222222 125.602268,90.1072562 C125.64898,90.1058957 125.683673,90.1047619 125.717914,90.1047619 C125.741497,90.1047619 125.764172,90.1052154 125.786848,90.1068027 C126.165533,90.1303855 126.418141,90.2573696 126.44195,90.2698413 C125.314286,92.9614512 123.758503,94.6321995 122.651247,95.5598639 C121.463265,96.5555556 120.512472,96.9360544 120.503175,96.9399093 L120.495465,96.9428571 L120.497732,96.9315193 L120.498866,96.9319728 Z M128.981859,96.69161 C128.566667,96.69161 128.297279,96.5984127 128.181633,96.4147392 C128.035147,96.1820862 128.212245,95.8836735 128.270295,95.7977324 C128.561905,95.3641723 129.24195,94.9267574 130.103401,94.9267574 L130.140816,94.9269841 C130.321088,94.9297052 130.50907,94.954195 130.684127,94.9979592 L130.68458,95 C130.685488,95.0058957 130.74127,95.4222222 130.55941,95.8433107 C130.448299,96.0972789 130.07415,96.6913832 128.981179,96.6913832 L128.981859,96.69161 Z M61.9909297,96.69161 C60.8977324,96.69161 60.5235828,96.0986395 60.4133787,95.8435374 C60.2324263,95.424263 60.2873016,95.0070295 60.2877551,95.0029478 L60.2884354,94.9984127 C60.4653061,94.954195 60.652381,94.9297052 60.8321995,94.9272109 L60.8696145,94.9269841 C61.7310658,94.9269841 62.4111111,95.3643991 62.7027211,95.7979592 C62.7605442,95.8839002 62.9378685,96.1820862 62.7911565,96.414966 C62.6732426,96.5986395 62.4056689,96.69161 61.9907029,96.69161 L61.9909297,96.69161 Z M131.403628,93.6371882 C130.757143,93.6371882 130.33356,93.5961451 130.329478,93.5956916 L130.328345,93.5945578 C130.328571,93.5897959 130.351927,92.7929705 131.055329,92.0258503 C131.718141,91.3031746 133.140363,90.423356 136.152608,90.3349206 L136.154875,90.3346939 L136.154422,90.3390023 C136.153968,90.3421769 136.064399,91.0310658 135.747166,91.7530612 C135.455556,92.4163265 134.903628,93.2439909 133.929932,93.4210884 C132.948073,93.5956916 132.0161,93.6342404 131.403855,93.6342404 L131.403628,93.6371882 Z M59.569161,93.6371882 C58.9587302,93.6371882 58.0247166,93.5997732 57.0428571,93.4213152 C56.069161,93.2442177 55.5172336,92.4163265 55.2258503,91.753288 C54.9086168,91.0310658 54.8190476,90.3421769 54.8181406,90.3351474 L54.8208617,90.3351474 C57.8326531,90.4235828 59.255102,91.3036281 59.9179138,92.0260771 C60.6022676,92.7721088 60.6428571,93.546712 60.644898,93.5956916 L60.6428571,93.5959184 C60.638322,93.5959184 60.2142857,93.6367347 59.5680272,93.6367347 L59.569161,93.6371882 Z M128.265306,90.5034014 C128.263492,90.4870748 128.096372,88.7795918 128.096372,87.0825397 C128.096372,85.3870748 129.903855,84.7088435 129.980726,84.6809524 L129.98322,84.6800454 C129.978458,84.7145125 129.895465,85.2997732 129.812925,85.9854875 C129.74898,86.5185941 129.64127,87.4811791 129.64127,87.9399093 C129.64127,88.4136054 129.311338,88.9920635 128.954649,89.5462585 C128.614739,90.0743764 128.270975,90.4997732 128.2678,90.5040816 L128.26576,90.506576 L128.268027,90.5043084 L128.265306,90.5034014 Z M62.7052154,90.5034014 C62.7011338,90.4984127 62.3571429,90.0730159 62.0174603,89.5446712 C61.660771,88.9902494 61.330839,88.4117914 61.330839,87.938322 C61.330839,87.4811791 61.223356,86.5174603 61.1591837,85.9839002 C61.0780045,85.3070295 60.9959184,84.7276644 60.9891156,84.678458 L60.9920635,84.6793651 C61.0684807,84.7072562 62.8759637,85.3854875 62.8759637,87.0809524 C62.8759637,88.7791383 62.7086168,90.4854875 62.7070295,90.5024943 L62.7068027,90.5049887 L62.7045351,90.5049887 L62.7052154,90.5034014 Z M130.609977,90.3424036 C130.573016,90.3424036 130.540816,90.3356009 130.511791,90.321542 C130.477778,90.3052154 130.44263,90.2641723 130.424263,90.2197279 C130.380499,90.1129252 130.390023,89.9954649 130.423356,89.8160998 C130.481859,89.5006803 130.627664,89.0866213 130.882313,88.5133787 C131.287755,87.6 131.809524,86.6612245 131.860544,86.5698413 L131.865986,86.5639456 C131.873016,86.5548753 132.588889,85.6535147 133.498413,84.7562358 C134.02585,84.2360544 134.521088,83.8156463 134.970068,83.5058957 C135.538549,83.114059 135.978458,82.9287982 136.354649,82.922449 L136.356689,82.922449 C136.480499,82.922449 136.579138,82.9376417 136.668707,82.9673469 L136.671882,82.9684807 L136.672109,82.9702948 C136.672109,82.9702948 136.755102,83.7034014 136.69161,84.5927438 C136.606122,85.7875283 136.309977,86.6820862 135.811565,87.2517007 C135.264853,87.8764172 134.329252,88.5843537 133.176871,89.2451247 C132.139002,89.8401361 131.200227,90.2487528 130.665986,90.3376417 C130.647846,90.3376417 130.629705,90.3399093 130.609297,90.3399093 L130.609977,90.3424036 Z M60.3628118,90.3424036 C60.3437642,90.3424036 60.3249433,90.3405896 60.3061224,90.3376417 C59.7718821,90.2485261 58.8331066,89.8401361 57.7952381,89.2451247 C56.6428571,88.5843537 55.7070295,87.8764172 55.1603175,87.2517007 C54.6619048,86.6820862 54.3659864,85.7875283 54.2804989,84.5927438 C54.2199546,83.744898 54.292517,83.0385488 54.3002268,82.9684807 C54.3936508,82.937415 54.4929705,82.9222222 54.5984127,82.9222222 C54.9984127,82.9287982 55.4253968,83.1088435 56.0018141,83.5058957 C56.4510204,83.8154195 56.9462585,84.2362812 57.4734694,84.7562358 C58.38322,85.6535147 59.0988662,86.5548753 59.1058957,86.5637188 L59.1131519,86.5727891 C59.1732426,86.6804989 59.6884354,87.6092971 60.0897959,88.5133787 C60.3446712,89.0875283 60.4904762,89.5013605 60.5487528,89.8163265 C60.5820862,89.9956916 60.5918367,90.1133787 60.5478458,90.2201814 C60.5294785,90.2643991 60.4945578,90.3054422 60.4605442,90.3217687 C60.4287982,90.3353741 60.3970522,90.3421769 60.360771,90.3421769 L60.3628118,90.3424036 Z"/>
    <path fill="#FFAD2D" d="M158.464853,21.6498866 L157.930839,21.862585 L157.721542,21.9460317 L157.074376,21.9104308 L156.468254,22.2013605 L155.393424,22.9358277 L155.346032,22.9698413 L154.945351,23.0743764 L154.573243,22.9138322 L154.361905,23.0099773 L154.289116,23.4453515 L154.087982,23.7580499 L153.840363,23.9319728 L152.98254,24.0197279 L152.259184,24.3927438 L151.318141,24.1408163 L150.880952,24.3120181 L149.951474,25.1492063 L149.476417,25.3741497 L149.310431,25.3646259 L148.680499,25.3321995 L148.414512,25.4192744 L148.017234,25.8031746 L147.265533,25.861678 L147.031293,26.0238095 L146.664399,26.7630385 L146.266893,27.1730159 L146.039456,27.2210884 L145.792971,27.130839 L145.60771,27.1634921 L145.52381,27.6365079 L145.343991,27.8346939 L144.840816,28.0079365 L144.438776,28.3428571 L144.085941,28.5240363 L143.613379,28.5122449 L143.504762,28.5122449 L143.034014,28.7721088 L142.148526,28.8496599 L141.780272,29.200907 L141.699093,29.2759637 L141.527211,29.3798186 L141.246032,29.547619 L141.177098,29.5893424 L140.838095,29.5287982 L140.44127,29.685941 L140.280726,29.4390023 L140.006122,29.6038549 L139.642404,29.6195011 L139.189342,29.4179138 L138.844218,29.2641723 L138.591837,29.3006803 L138.504082,29.7405896 L138.495238,29.7873016 L138.229932,30.1403628 L137.734694,30.4403628 L137.667347,30.5281179 L137.103855,31.2555556 L136.033107,32.3816327 L135.127664,32.8414966 L134.189116,33.1269841 L133.5322,33.6666667 L131.80907,34.5208617 L129.089342,35.8739229 L128.533107,36.0521542 L127.734921,36.1795918 L126.311338,36.7038549 L125.055329,37.0827664 L124.985488,37.1040816 L124.736961,37.1793651 L122.965986,37.7151927 L122.141723,37.6281179 L121.653515,37.8054422 L120.38254,37.6643991 L119.498866,37.6818594 L118.939456,37.7981859 L117.887982,38.3024943 L116.113152,39.1555556 L115.526757,39.6920635 L114.613605,40.1684807 L113.544444,40.5070295 L113.546939,40.0578231 L113.54059,40.0387755 L113.169615,40.1560091 L112.901814,40.2405896 L112.034467,40.3743764 L111.551927,40.3743764 L111.252381,40.2873016 L111.206122,40.3029478 L109.433333,40.8870748 L107.456236,41.0780045 L106.466893,41.3952381 L105.727664,41.3834467 L105.265533,41.5210884 L104.359637,41.631746 L104.035828,41.5453515 L103.962812,41.5253968 L101.298413,41.6410431 L100.080272,41.5034014 L99.4988662,41.6356009 L98.5247166,41.3079365 L97.1031746,41.1430839 L96.7709751,41.0435374 L96.0238095,40.8217687 L95.6857143,41.0165533 L95.4326531,41.0435374 L94.8278912,40.824263 L94.6102041,40.8185941 L94.1108844,40.999093 L93.8235828,40.9253968 L93.5566893,40.7126984 L92.9306122,40.6195011 L92.5492063,40.2988662 L90.4172336,40.5814059 L89.8387755,40.4113379 L87.899093,39.8462585 L87.5904762,39.8619048 L87.2058957,40.1501134 L86.6281179,40.360771 L86.1265306,40.4911565 L85.4435374,40.514966 L84.6505669,40.3068027 L83.8328798,39.9104308 L83.5306122,39.8385488 L82.8562358,39.906576 L82.6498866,39.9253968 L81.4104308,39.2605442 L79.8136054,38.2619048 L78.7301587,37.7412698 L78.323356,37.6752834 L78.2687075,37.8687075 L78.4705215,38.5047619 L78.539229,39.1337868 L78.5185941,39.714966 L78.507483,40.0748299 L78.6086168,40.3979592 L78.9997732,40.8315193 L79.1628118,41.2668934 L79.2820862,42.4650794 L79.2807256,43.6809524 L79.0904762,45.6199546 L79.0263039,45.9151927 L78.7993197,46.9197279 L78.5920635,47.8424036 L77.7879819,50.2988662 L77.5671202,50.6034014 L77.0249433,50.9732426 L75.7961451,51.8095238 L74.8913832,52.3312925 L74.6049887,52.4498866 L73.8705215,52.5054422 L73.4129252,52.4816327 L72.8430839,52.1730159 L72.2836735,52.0290249 L71.5507937,51.5020408 L70.7356009,51.3333333 L69.8419501,50.81678 L69.6092971,50.5371882 L69.1226757,50.4913832 L68.4478458,50.2888889 L68.4482993,50.2877551 L68.2004535,50.2136054 L68.0292517,50.1637188 L68.0292517,50.1634921 L67.1684807,50.1399093 L66.3657596,49.7693878 L65.9430839,49.6673469 L65.3655329,49.6380952 L64.7609977,49.9190476 L64.760771,49.9181406 L64.4544218,50.060771 L64.0673469,49.9070295 L63.7873016,49.9244898 L63.470068,50.4040816 L63.4226757,50.478458 L63.2040816,50.5941043 L62.9319728,50.5902494 L62.7190476,50.5845805 L62.4886621,50.6852608 L62.178458,50.8197279 L62.178458,50.8204082 L61.9045351,50.9399093 L61.7707483,50.9977324 L61.7684807,50.9954649 L61.6861678,51.0120181 L61.5399093,51.037415 L61.3585034,51.0721088 L61.0387755,50.8852608 L60.8687075,50.785034 L60.5836735,50.7269841 L60.4301587,50.8378685 L60.4,51.3596372 L60.2598639,51.6721088 L59.8151927,52.0653061 L59.3632653,52.4632653 L59.0482993,52.9274376 L58.2147392,54.829932 L57.692517,55.5975057 L57.5303855,55.7764172 L56.9843537,56.3786848 L56.5,56.7544218 L55.3839002,57.6195011 L54.3274376,58.0142857 L53.4174603,58.2002268 L52.9750567,58.2020408 L52.1369615,58.0904762 L51.3834467,57.8591837 L50.5557823,57.3417234 L49.6480726,56.6122449 L48.3342404,55.3142857 L48.1482993,55.2024943 L48.1095238,55.176644 L47.6956916,54.9120181 L47.3886621,54.9199546 L47.2684807,55.1181406 L47.2027211,55.4045351 L47.1471655,55.6585034 L46.9965986,57.1022676 L47.0077098,57.185941 L47.0868481,57.7804989 L48.0848073,59.1750567 L48.3927438,59.915873 L48.4433107,60.0004535 L48.6492063,60.3462585 L48.8058957,60.6099773 L48.821542,60.6367347 L49.162585,61.6544218 L48.9229025,62.2290249 L49.0439909,62.6138322 L48.7410431,62.8489796 L48.6854875,63.1811791 L49.5814059,64.3043084 L49.7768707,64.7997732 L49.5585034,65.4866213 L49.2102041,65.8655329 L49.1129252,65.969161 L49.1619048,66.2594104 L49.5741497,66.6301587 L50.2746032,67.2537415 L50.6480726,68.1802721 L50.9321995,68.4287982 L51.2623583,68.3585034 L51.4460317,68.4986395 L51.7244898,68.4938776 L51.9984127,68.7678005 L52.175737,68.8537415 L52.4560091,68.993424 L52.677551,69.2818594 L52.7265306,70.1687075 L53.1396825,71.2707483 L53.1460317,71.868254 L53.1482993,71.9530612 L53.4054422,72.3947846 L53.4861678,72.7435374 L53.3492063,73.6662132 L53.6768707,73.9623583 L54.0321995,73.8897959 L54.261678,73.9260771 L54.6303855,74.2331066 L55.0768707,74.9136054 L55.5136054,74.8496599 L55.7907029,74.98322 L57.1290249,76.1927438 L57.4326531,76.3460317 L57.4494331,76.3555556 L57.6678005,76.4650794 L57.939229,76.7390023 L58.3600907,76.4596372 L58.4068027,76.4548753 L58.8643991,76.4145125 L59.0653061,76.5498866 L59.4517007,76.8104308 L59.9582766,76.8038549 L61.0566893,77.1405896 L61.5371882,77.2637188 L62.5034014,77.8641723 L62.914059,78.1181406 L63.1571429,78.3156463 L63.4800454,78.5789116 L64.1251701,78.8564626 L64.678458,78.9888889 L64.9782313,79.0600907 L65.2038549,79.1471655 L65.2095238,79.1331066 L65.2126984,79.1340136 L65.2072562,79.1482993 L66.4054422,79.6070295 L67.0544218,79.7585034 L67.6548753,79.9795918 L68.0918367,80.1390023 L68.4124717,80.1442177 L68.8659864,79.7628118 L69.3052154,79.737415 L69.670068,79.8283447 L70.0260771,79.7687075 L70.5895692,79.421542 L70.6995465,79.2585034 L71.099093,79.068254 L72.4469388,78.900907 L72.8408163,79.0287982 L73.8521542,78.5888889 L74.5297052,78.7773243 L75.1294785,78.5646259 L76.4399093,78.8557823 L76.7882086,79.100907 L77.177551,79.5464853 L77.2251701,79.5485261 L77.6587302,79.5569161 L77.477551,79.8587302 L78.0496599,80.4589569 L78.5664399,81.2401361 L78.6013605,81.3433107 L78.9770975,82.4462585 L79.2564626,82.8369615 L79.4519274,83.3823129 L79.4614512,83.7378685 L79.1575964,83.9696145 L79.1077098,84.1018141 L79.0904762,84.1507937 L79.1521542,84.2993197 L79.2668934,84.2367347 L79.4852608,84.115873 L79.7496599,84.0748299 L80.2181406,84.1247166 L80.5274376,84.1571429 L81.015873,83.9147392 L81.3394558,83.7537415 L81.8594104,83.977551 L82.430839,83.9712018 L82.6707483,84.0780045 L83.3498866,84.385941 L83.6965986,84.4185941 L83.8247166,84.3344671 L83.9063492,84.1403628 L83.8643991,83.9145125 L83.6047619,83.6145125 L83.030839,82.9482993 L82.7959184,82.6058957 L82.6170068,82.1102041 L82.5614512,81.476644 L82.5219955,81.0492063 L82.5931973,80.4875283 L82.7473923,80.2870748 L82.860771,79.8408163 L82.8628118,79.8408163 L82.8920635,79.7240363 L83.2108844,79.300907 L84.0553288,78.7582766 L84.9623583,77.9460317 L85.6793651,77.4732426 L86.4185941,77.1530612 L86.438322,77.0632653 L86.5206349,77.0963719 L88.400907,76.4571429 L88.4319728,76.4535147 L89.269161,76.3077098 L94.9199546,76.7056689 L95.1294785,76.6424036 L95.1303855,76.6410431 L95.3185941,76.1126984 L95.4199546,76.0147392 L95.4873016,75.9507937 L96.1086168,75.6773243 L96.399093,75.6358277 L97.2054422,75.8349206 L97.5356009,75.9163265 L98.0643991,75.6199546 L98.4394558,75.6263039 L99.2142857,75.2031746 L99.6929705,75.2151927 L99.8750567,75.1424036 L100.807483,74.4723356 L101.705669,74.214966 L101.939229,74.0907029 L102.021542,74.0455782 L102.942177,73.5594104 L103.526984,73.1102041 L104.031746,72.8419501 L104.58458,72.6993197 L106.031293,72.5975057 L106.322222,72.1126984 L106.944444,72.0297052 L107.320181,71.6056689 L107.750113,71.430839 L108.058277,70.9868481 L108.316553,70.6147392 L108.677324,70.4058957 L109.833787,70.3333333 L111.204535,70.5031746 L111.385714,70.3931973 L111.695465,69.2877551 L112.019728,69.0802721 L112.892971,67.8077098 L112.895918,67.3439909 L112.896825,66.9566893 L113.040363,66.4052154 L112.942857,65.4095238 L113.058503,64.4013605 L113.601361,63.1201814 L114.079592,62.6034014 L114.850794,62.0816327 L115.242857,61.9108844 L115.798186,61.8174603 L115.798186,61.8160998 L115.879819,61.8022676 L116.021315,61.7780045 L117.93356,61.7517007 C117.960091,61.7319728 118.629025,61.7421769 118.629025,61.7421769 L119.266667,61.7335601 L120.879819,62.0206349 L120.994558,62.0405896 L121.539909,62.2172336 L122.168934,62.7063492 L122.834694,63.3566893 L122.959637,63.4780045 L123.39093,63.6596372 L123.521315,63.7165533 L123.877551,63.6596372 L124.384807,63.3954649 L124.767574,63.0718821 L125.289342,62.7868481 L125.302041,62.7687075 L125.595692,62.3269841 L125.604535,62.3179138 L125.610884,62.3195011 L125.611565,62.3170068 L125.606576,62.315873 L125.722449,62.1401361 L126.730839,61.7471655 L127.91678,61.6782313 L128.050113,61.6061224 L128.124263,61.5664399 L128.437642,61.1984127 L128.731293,61.1959184 L129.442177,61.4530612 L129.94195,61.3539683 L130.338776,61.5124717 L130.647166,61.4759637 L131.228798,61.4070295 L131.853288,61.8464853 L132.217234,61.8929705 L133.500227,62.6435374 L133.566893,62.6544218 L133.601361,62.660771 L133.67483,62.6727891 L133.826984,62.6276644 L134.053288,62.5621315 L134.08322,62.553288 L134.111791,62.5927438 L134.257596,62.7984127 L134.457596,62.8269841 L134.694331,62.5111111 L134.600227,62.3678005 L134.564626,62.3156463 L134.106349,62.222449 L133.694785,61.5188209 L134.086621,61.0968254 L133.471882,60.3426304 L133.369841,60.2176871 L133.335147,60.1646259 L133.122676,59.8419501 L132.046485,58.2013605 L130.644671,57.0823129 L130.644218,57.08322 L130.153288,56.6904762 L130.150113,56.6882086 L129.978231,56.5530612 L129.229478,55.79161 L128.694785,55.0818594 L128.624717,54.9290249 L128.514286,54.6882086 L128.193878,53.9902494 L127.635601,53.5603175 L127.180726,53.0634921 L127.158503,53.0342404 L126.219728,51.7585034 L126.065533,51.5446712 L125.843764,51.4165533 L125.375283,51.4133787 L125.331066,51.3689342 L125.304762,51.3414966 L125.320635,51.3247166 L125.545351,51.1013605 L125.795918,51.038322 L125.903855,50.7913832 L125.42585,49.4072562 L125.422676,49.3589569 L125.387075,48.91678 L125.776644,46.9088435 L125.826531,46.6641723 L126.490476,45.3131519 L126.901814,44.9761905 L127.350794,44.0936508 L127.735374,43.5294785 L128.103855,43.1707483 L128.168254,43.1326531 L128.83356,42.729932 L129.392517,42.6512472 L129.924943,42.5761905 L130.854422,42.8628118 L131.739002,42.8455782 L131.911565,42.8272109 L132.312925,42.7811791 L132.973016,42.5732426 L133.28458,42.3809524 L133.446259,42.1331066 L133.783447,41.0022676 L133.891837,40.6424036 L134.099773,40.2514739 L135.302948,38.8664399 L136.212472,38.0251701 L138.257596,36.5256236 L139.25873,35.9272109 L139.769841,35.6217687 L144.33356,33.5931973 L145.519501,32.3909297 L146.137415,31.7657596 L147.230612,31.0321995 L148.509751,30.5081633 L149.610431,29.6369615 L149.850794,29.3344671 L150.153741,28.3587302 L150.406122,28.2977324 L150.634014,27.8047619 L150.698866,27.6646259 L151.597052,27.0315193 L151.698639,26.9809524 L155.187982,25.2326531 L155.695011,25.3022676 L155.96644,24.8956916 L156.981633,24.7253968 L157.168481,24.6936508 L157.418821,24.5687075 L157.631746,24.2061224 L157.631746,24.1344671 L157.660998,23.1655329 L157.877778,22.9036281 L157.995918,22.2650794 L158.107256,22.1176871 L158.223583,21.9643991 L158.511111,21.7623583 L158.461224,21.6419501 L158.464853,21.6498866 Z"/>
  </g>
</svg>
