<svg xmlns="http://www.w3.org/2000/svg" xmlns:xlink="http://www.w3.org/1999/xlink" width="200" height="136" viewBox="0 0 200 136">
  <defs>
    <polygon id="svg+malta-a" points="0 .061 0 7.675 7.595 7.675 7.595 .061 0 .061"/>
    <polygon id="svg+malta-c" points=".813 7.641 8.428 7.641 8.428 .045 .813 .045 .813 7.641"/>
  </defs>
  <g fill="none" fill-rule="evenodd">
    <path fill="#FFF" d="M0,17.2524695 L0,118.745481 C0,128.275534 7.66937007,136 17.1261235,136 L100,136 L100,0.00102473685 L17.1261235,0.00102473685 C7.66835277,0 0,7.72651582 0,17.2524695 Z"/>
    <path fill="#EE2734" d="M183.1766,-2.48154072e-13 L100,-4.54747351e-13 L100,136 L183.1766,136 C192.467194,136 200,128.275475 200,118.745351 L200,17.2515748 C200,7.72554929 192.467194,0.00102474457 183.1766,0.00102474457"/>
    <g transform="translate(16.79 17.345)">
      <path fill="#FF172D" d="M20.2858546 9.99111836C20.1882146 8.83047601 19.0819111 7.72756862 17.9212687 7.6333248 18.375507 7.76917175 18.8959706 8.08756303 19.3654916 8.55368786 19.8316164 9.01896365 20.1483096 9.53857822 20.2858546 9.99111836M27.6652306 10.4057063L27.6652306 17.5147468 20.3558158 17.5147468C20.3524196 17.5945568 20.3422311 17.6786121 20.3269483 17.7669126L27.9190945 17.7669126 27.9190945 10.1535404 20.3269483 10.1535404C20.3422311 10.243539 20.3524196 10.3258962 20.3558158 10.4057063L27.6652306 10.4057063z"/>
      <g transform="translate(0 10.092)">
        <mask id="svg+malta-b" fill="#fff">
          <use xlink:href="#svg+malta-a"/>
        </mask>
        <path fill="#FF172D" d="M0.253694172,7.42250732 L0.253694172,0.313466828 L7.56310891,0.313466828 C7.564807,0.233656747 7.57499552,0.151299536 7.59452352,0.0613009344 L-0.000169808683,0.0613009344 L-0.000169808683,7.67467322 L7.59452352,7.67467322 C7.57499552,7.5863727 7.564807,7.5023174 7.56310891,7.42250732 L0.253694172,7.42250732 Z" mask="url(#svg+malta-b)"/>
      </g>
      <g transform="translate(9.34 20.28)">
        <mask id="svg+malta-d" fill="#fff">
          <use xlink:href="#svg+malta-c"/>
        </mask>
        <path fill="#FF172D" d="M8.17374093,7.38599846 L1.06470044,7.38599846 L1.06470044,0.0765837158 C0.984890359,0.0731875422 0.902533148,0.0629990212 0.812534546,0.046018153 L0.812534546,7.64156052 L8.42760491,7.64156052 L8.42760491,0.0451691096 C8.33760631,0.0629990212 8.2552491,0.0731875422 8.17374093,0.0765837158 L8.17374093,7.38599846 Z" mask="url(#svg+malta-d)"/>
      </g>
      <path fill="#FF172D" d="M17.922797 20.2874678C19.0817413 20.193224 20.1880448 19.0903166 20.2856848 17.9313724 20.1481398 18.3839125 19.8314466 18.9009799 19.3653218 19.3671048 18.8958008 19.8349277 18.3770352 20.1516209 17.922797 20.2874678M7.63307009 17.9294196C7.72901199 19.0866657 8.83191939 20.1929693 9.99256173 20.2872131 9.54171968 20.1513662 9.02125607 19.834673 8.55513123 19.3668501 8.08730831 18.9015743 7.77061512 18.3802616 7.63307009 17.9294196M9.99612771 7.63307009C8.83548537 7.72901199 7.7291818 8.83191939 7.6332399 9.99425982 7.77078493 9.54002159 8.08747812 9.02125607 8.55530104 8.55343315 9.02142588 8.08730831 9.54188949 7.76891703 9.99612771 7.63307009M10.4040931.255307354L17.5131336.255307354 17.5131336 7.56472209C17.5946417 7.56811827 17.6769989 7.5766087 17.7669975 7.5961367L17.7669975-.000254713024 10.1519272-.000254713024 10.1519272 7.5961367C10.2419258 7.5766087 10.324283 7.56811827 10.4040931 7.56472209L10.4040931.255307354z"/>
      <path fill="#F11A29" d="M.507473248 10.6610985L7.58849531 10.6610985C7.56811827 10.5829865 7.56217496 10.4989312 7.56387305 10.4055364L.253609267 10.4055364.253609267 17.5145769 7.56387305 17.5145769C7.56217496 17.4237293 7.56811827 17.3371269 7.58849531 17.2590149L.507473248 17.2590149.507473248 10.6610985zM17.2594394.507388343L17.2594394 7.59010849C17.3358533 7.56973145 17.4216067 7.56209006 17.5133034 7.56548623L17.5133034.25522245 10.4042629.25522245 10.4042629 7.56548623C10.4968086 7.56209006 10.581713 7.56973145 10.659825 7.59010849L10.659825.507388343 17.2594394.507388343zM10.6594853 27.4131496L10.6594853 20.3321275C10.5813733 20.3508065 10.497318 20.3601459 10.4039233 20.3567498L10.4039233 27.6670135 17.5129638 27.6670135 17.5129638 20.3567498C17.4221161 20.3601459 17.3355137 20.3508065 17.2590998 20.3321275L17.2590998 27.4131496 10.6594853 27.4131496zM27.6652306 10.4057063L20.3558158 10.4057063C20.3575139 10.498252 20.3490235 10.5831563 20.3303445 10.6612683L27.4113666 10.6612683 27.4113666 17.2591847 20.3303445 17.2591847C20.3490235 17.3372967 20.3575139 17.4238991 20.3558158 17.5147468L27.6652306 17.5147468 27.6652306 10.4057063z"/>
      <path fill="#9C877D" d="M.759469333 10.9131795L7.70464445 10.9131795C7.64945663 10.8418599 7.60955159 10.7552574 7.5883255 10.6610136L.507303439 10.6610136.507303439 17.259779 7.5883255 17.259779C7.61124967 17.1646862 7.64945663 17.0806309 7.70464445 17.005915L.759469333 17.005915.759469333 10.9131795zM17.0057452.762780602L17.0057452 7.70455954C17.078763 7.64937172 17.1636673 7.61116477 17.2596092 7.58993868L17.2596092.507218535 10.6591457.507218535 10.6591457 7.58993868C10.7542386 7.61116477 10.84169 7.64937172 10.9130097 7.70455954L10.9130097.762780602 17.0057452.762780602zM10.9131795 27.1593705L10.9131795 20.2158935C10.8418599 20.2710813 10.7544084 20.3092882 10.6593155 20.3322124L10.6593155 27.4132345 17.259779 27.4132345 17.259779 20.3322124C17.1629881 20.3092882 17.0789328 20.2710813 17.005915 20.2175916L17.005915 27.1593705 10.9131795 27.1593705zM27.4115364 10.6610985L20.3305143 10.6610985C20.3092882 10.7553423 20.2710813 10.8419448 20.2158935 10.9132644L27.1576724 10.9132644 27.1576724 17.0059999 20.2124973 17.0059999C20.2710813 17.0807158 20.3092882 17.1647711 20.3305143 17.2590149L27.4115364 17.2590149 27.4115364 10.6610985z"/>
      <path fill="#CECCCC" d="M18.6424462 13.5796852L18.6424462 13.6009113C18.6424462 13.6077037 18.6424462 13.6127979 18.6441443 13.6178922 18.6475405 13.7027965 18.6704646 13.7690219 18.7103697 13.8114741 18.7519728 13.8513791 18.7986702 13.8717562 18.8564052 13.8700581 18.912442 13.8666619 18.9591394 13.8445868 18.9939502 13.808927 19.0253648 13.7724181 19.0423457 13.7223245 19.0372514 13.6645896 19.0372514 13.6374202 19.0321571 13.6026094 19.0219686 13.5584592L18.6424462 13.5796852zM13.3259911 11.322758C13.3726885 11.3329466 13.4058012 11.3456822 13.4058012 11.3456822 13.4058012 11.3456822 13.4516495 11.3176638 13.4864603 11.2879473 13.4321215 11.2319104 13.3956126 11.1622888 13.3709904 11.0841768 13.2631619 11.1351195 13.1536353 11.1954015 13.0984474 11.2650231 13.1519372 11.2760607 13.1935403 11.2896454 13.2393886 11.3049281 13.2699542 11.3049281 13.2979726 11.3108714 13.3259911 11.322758M14.0274707 12.9329689C14.0096408 12.915139 13.9909619 12.9015543 13.9714339 12.8828753L13.9646415 13.0857967 13.9680377 13.0857967C14.0062447 13.0238165 14.0342631 12.9558931 14.052093 12.8735358 14.0393573 12.8862715 14.0342631 12.8896677 14.0308669 12.8930638L14.0274707 12.9329689z"/>
      <polygon fill="#CECCCC" points="12.633 9.207 12.573 9.603 12.875 9.522"/>
      <polygon fill="#CECCCC" points="16.784 9.921 16.442 10.129 16.695 10.311"/>
      <path fill="#CECCCC" d="M9.23003584 14.0290839C9.37946748 14.0358763 9.49408834 14.011254 9.57644556 13.95267 9.64267094 13.9059726 9.67748172 13.8431434 9.67917981 13.7624843 9.68427407 13.67758 9.65625564 13.6045622 9.59342642 13.5451292 9.52889912 13.4848471 9.42531583 13.4517344 9.2801294 13.444093 9.1256035 13.4339045 9.00758647 13.4602248 8.92692734 13.5162617 8.86324909 13.561261 8.82843831 13.6291845 8.82504214 13.7157869 8.82079692 13.7972951 8.84541918 13.8635205 8.90485222 13.9161612 8.97786995 13.9823865 9.08400038 14.0205935 9.23003584 14.0290839M16.5215358 14.6658665C16.5215358 14.6658665 16.5113472 14.6607722 16.5079511 14.6607722L16.5045549 14.6777531C16.5130453 14.6726588 16.5215358 14.6658665 16.5215358 14.6658665"/>
      <polygon fill="#CECCCC" points="14.059 12.537 14.054 12.523 14.054 12.537"/>
      <path fill="#CECCCC" d="M14.1734213 11.7738548C14.1717232 11.7789491 14.1717232 11.7823452 14.1700251 11.7874395 14.1717232 11.7806472 14.1734213 11.777251 14.1751194 11.7704586L14.1734213 11.7738548zM14.0257727 11.4471429C14.0079427 11.4819537 13.8967181 11.6033669 13.836436 11.5761975 13.8067195 11.605914 13.7574749 11.6296872 13.7574749 11.6296872L13.9476607 11.7273272 13.954453 11.7290253 13.9561511 11.6661961 14.1055827 11.5430848 14.2151093 11.3528991C14.1947323 11.3690309 14.1735062 11.3843137 14.1514311 11.3953513 14.1488839 11.410634 14.1454878 11.430162 14.1437897 11.4369544 14.1319031 11.468369 14.0818095 11.468369 14.0257727 11.4471429M12.6958311 13.6111848C12.8817716 13.5449594 13.0770515 13.5033562 13.2595959 13.460055 13.10507 13.4023201 12.9165823 12.9463838 12.8945072 12.7188401 12.7569622 12.6076154 12.7289437 12.3792228 12.7773392 12.188188L12.7654526 12.1864899C12.7654526 12.1864899 12.616021 12.3622419 12.2747055 12.520164 12.1753674 12.638181 12.0675389 12.7290287 12.0675389 12.7290287 12.0675389 12.7290287 11.9962193 12.8665737 12.0140492 12.9676098 12.0344262 13.068646 12.1150854 13.0907211 12.1286701 13.1136453 12.1439528 13.1382676 12.1753674 13.2002477 12.147349 13.2180777 12.126972 13.2367566 12.0607466 13.1917573 12.0327281 13.1815688L12.1498961 13.2579827 12.6958311 13.6111848zM14.0589703 12.6278227L14.0589703 12.6065966 14.0555741 12.6065966C14.053876 12.6065966 14.053876 12.6048985 14.0504798 12.6048985L14.0377442 12.7950842 14.0589703 12.6278227zM15.3739687 11.6527812C15.3586859 11.6510831 15.3527426 11.6578755 15.3374598 11.6544793 15.2016129 11.7589116 14.9163343 11.7835339 14.9163343 11.7835339 14.9163343 11.7835339 14.9859559 11.8548536 15.0708602 11.9575878 15.2016129 11.843816 15.3043471 11.7359875 15.3739687 11.6527812M13.916331 14.6128013C13.9927449 14.783459 14.0589703 15.0636433 13.9282176 15.1918489 13.9681226 15.2495838 13.916331 15.3489219 13.996141 15.3625066 14.0708569 15.3769403 14.4919824 15.3625066 14.6329236 15.2776023 14.7619782 15.3378843 14.9462206 15.5034478 15.0455587 15.5993897 15.1746133 15.604484 15.3045169 15.6358986 15.4454581 15.7157087 15.4089493 15.6392948 15.3291392 15.5102402 15.2196126 15.5696732 15.1932923 15.4253358 15.0302759 15.5017497 15.0302759 15.5017497 15.0302759 15.5017497 15.0243326 15.291187 14.8315998 15.3209035 14.894429 15.0823223 14.5650001 15.096756 14.5650001 15.096756 14.5650001 15.096756 14.5548116 14.8284583 14.0657626 14.8794009 14.5250951 14.6756305 14.9360321 14.7953456 15.2595176 14.9906256 15.2764985 14.9710976 15.3113093 14.9311926 15.3622519 14.8734576 15.3028189 14.8513825 15.247631 14.8284583 15.2247069 14.7953456 15.2196126 14.8199679 15.052351 14.8148736 15.0175403 14.7673272 14.9827295 14.7206298 14.9827295 14.6722343 14.9861257 14.6323293 14.856222 14.5397835 14.7305636 14.4234646 14.6227351 14.2927119 14.5013219 14.3776162 14.3790596 14.4667658 14.2381184 14.529595 14.0674607 14.6060089 13.9706697 14.6161974 13.916331 14.6128013M15.55473 15.7918679C15.5793523 15.8088487 15.6031255 15.8249806 15.6294459 15.8445085 15.6065217 15.8198863 15.5793523 15.8020564 15.55473 15.7918679"/>
      <path fill="#CECCCC" d="M14.6924415 15.466854C14.5829149 15.4600617 14.6542346 15.6111914 14.4682941 15.5084572 14.4682941 15.5084572 14.0522628 15.6392099 13.8170778 15.5763806 13.8170778 15.5763806 13.6871741 15.6842092 13.5929303 15.6111914 13.5148183 15.5483622 13.6277411 15.251197 13.4723662 15.0389362 13.5233088 15.1552551 13.3976503 15.4880801 13.2601053 15.5517584 13.312746 15.7436422 13.4485929 15.8319427 13.6048169 15.9210923 13.7440601 15.7317556 13.9283025 15.5899653 14.2195244 15.7504345 14.4555584 15.700341 14.6457442 15.642606 14.8214961 15.6128895 14.7688554 15.5814749 14.72046 15.5398718 14.6924415 15.466854M14.0589703 16.0356282L14.1251956 15.9991194C14.1217995 15.9855347 14.1150071 15.9795914 14.1107619 15.9643086 14.0835925 15.9795914 14.0555741 15.9991194 14.0309518 16.0144021 14.0377442 16.0186474 14.0436875 16.0177983 14.0487817 16.0237416 14.053876 16.0271378 14.0555741 16.032232 14.0589703 16.0356282"/>
      <path fill="#CECCCC" d="M19.0785998,13.8433981 C19.0667132,13.8917936 19.0420909,13.9316986 19.0055821,13.9665094 C18.9707713,13.997924 18.9274701,14.017452 18.8748294,14.0208482 C18.8162454,14.0225463 18.7670009,14.0072635 18.7236997,13.9724527 C18.6820965,13.9376419 18.6506819,13.8833032 18.6277578,13.8085874 L18.37729,14.0089616 C18.318706,14.055659 18.281348,14.0938659 18.2626691,14.1252805 C18.2465373,14.1583932 18.2346507,14.1982983 18.2312545,14.2500899 L18.2066322,14.2500899 L18.1930475,14.0072635 L18.6039845,13.6778347 C18.6014374,13.6523634 18.5997393,13.6345335 18.5997393,13.6192507 L18.5997393,13.6014208 C18.5997393,13.5946284 18.5980412,13.5895341 18.5997393,13.5810437 L18.3356868,13.5946284 C18.2779519,13.5980246 18.241443,13.606515 18.2278583,13.6192507 C18.2100284,13.6379296 18.2032361,13.6625519 18.2032361,13.6973627 L18.2066322,13.7321734 L18.1794628,13.7338715 L18.1582368,13.3424625 L18.1845571,13.3424625 L18.1845571,13.3755752 C18.1879533,13.4154803 18.2032361,13.4401025 18.2278583,13.4587815 C18.2431411,13.4655738 18.2762538,13.46897 18.3288945,13.4655738 L18.9164325,13.4341592 C18.9741675,13.4324611 19.0072802,13.4256688 19.0225629,13.410386 C19.0403929,13.3942542 19.0505814,13.3670848 19.0471852,13.332274 L19.0471852,13.2974632 L19.0718075,13.2957651 L19.0887883,13.6294392 C19.0955807,13.723683 19.0904864,13.7967007 19.0785998,13.8433981 L19.0785998,13.8433981 Z M18.9554885,15.2112071 L18.9342624,15.2052638 L18.9376586,15.1848867 C18.9427529,15.1653587 18.9427529,15.1449817 18.9376586,15.1254537 C18.9342624,15.1033786 18.9206777,15.092341 18.9028478,15.0889448 C18.8841689,15.0838506 18.8527543,15.0889448 18.808604,15.1033786 L18.4732319,15.2146032 L18.7007755,15.4599768 C18.7355863,15.4964857 18.7619066,15.5168627 18.7814346,15.523655 C18.7933212,15.5262022 18.8069059,15.5262022 18.8145473,15.521957 C18.8264339,15.5185608 18.8366224,15.5100703 18.8451129,15.5015799 C18.8527543,15.4896933 18.8612447,15.4735615 18.868037,15.4506373 L18.8926593,15.4565806 L18.8120002,15.7656324 L18.788227,15.7588401 L18.7916231,15.7435573 C18.7950193,15.7291235 18.7933212,15.7121427 18.788227,15.6875204 C18.7848308,15.6645963 18.7771894,15.6391249 18.7619066,15.6178989 C18.7483219,15.5949747 18.7220016,15.5644091 18.6888889,15.5262022 L18.4087046,15.2281879 L18.1862552,15.1687549 C18.1336145,15.1551702 18.0988037,15.151774 18.0801248,15.1619625 C18.0588987,15.171302 18.0419178,15.1950752 18.0342764,15.229886 L18.025786,15.2596025 L18.0003147,15.2528102 L18.0988037,14.8800801 L18.123426,14.8834763 L18.1166336,14.9148909 C18.1055961,14.9530979 18.1115394,14.9828144 18.1302183,15.0040405 C18.1404068,15.0193233 18.1718214,15.0303608 18.2193679,15.0439455 L18.4282326,15.0991333 L18.8629428,14.9530979 C18.9130363,14.9378151 18.946149,14.9242304 18.9588847,14.9148909 C18.9707713,14.9097967 18.9902993,14.8911177 19.0140725,14.8630993 C19.0225629,14.8546088 19.0259591,14.8435713 19.0319024,14.8265904 L19.0573737,14.8333827 L18.9554885,15.2112071 Z M17.9009766,12.3923829 L17.9128632,12.4204014 C17.9264479,12.4569102 17.947674,12.4806835 17.9722962,12.4849287 C17.9909752,12.491721 18.0240879,12.4849287 18.0707853,12.4670988 L18.7287939,12.2344609 L18.690587,12.1334247 C18.6787004,12.0918216 18.6642666,12.0638031 18.6540781,12.0493694 C18.6370972,12.0289924 18.6158712,12.0162567 18.5878527,12.0111624 C18.5598343,12.0009739 18.5250235,12.0043701 18.4834204,12.0145586 L18.4749299,11.9907854 L18.6820965,11.9279562 L18.9291682,12.6309641 L18.730492,12.7124723 L18.7220016,12.68785 C18.7551143,12.6725673 18.7797365,12.6564354 18.7916231,12.6428507 C18.8120002,12.6216247 18.8230377,12.5961534 18.8264339,12.5715311 C18.8298301,12.5452108 18.8264339,12.5154942 18.8145473,12.4789854 L18.7737932,12.3575722 L18.1149355,12.589361 C18.0605968,12.6097381 18.0308802,12.6241718 18.0223898,12.6428507 C18.0105032,12.6640768 18.007107,12.6929443 18.0206917,12.726057 L18.0308802,12.7557735 L18.007107,12.765113 L17.8780524,12.3991753 L17.9009766,12.3923829 Z M17.5477745,11.7589966 L17.5350389,11.7377705 L17.7668277,10.8174074 L17.3142876,11.1502324 C17.2692883,11.1850432 17.244666,11.2096655 17.2412699,11.2283444 C17.2361756,11.2546648 17.244666,11.279287 17.2658921,11.3081545 L17.2845711,11.3361729 L17.2658921,11.3489086 L17.0757064,11.0941956 L17.0952344,11.0806109 L17.1139134,11.1052331 C17.1385356,11.1357987 17.1631579,11.1502324 17.1894782,11.1502324 C17.2098553,11.1502324 17.2395718,11.1341006 17.2777787,11.101837 L17.7897519,10.7257107 C17.7982423,10.6875038 17.8033366,10.6577872 17.8033366,10.6416554 C17.8033366,10.6246746 17.7965443,10.6034485 17.7897519,10.5762791 C17.7838086,10.5652415 17.7736201,10.5465626 17.7583373,10.5253365 L17.7770163,10.5100537 L17.9264479,10.7095789 L17.7090928,11.5645656 L18.1302183,11.2529667 C18.1777648,11.2181559 18.1998399,11.1935336 18.2032361,11.1731566 C18.2100284,11.1485343 18.2032361,11.122214 18.1794628,11.0941956 L18.1616329,11.0687243 L18.1811609,11.0525924 L18.3704976,11.3098526 L18.3509696,11.3225882 L18.3322907,11.297966 C18.3093665,11.2665514 18.281348,11.2529667 18.2524806,11.2546648 C18.2380468,11.2546648 18.2100284,11.2699475 18.1684253,11.297966 L17.5477745,11.7589966 Z M17.147026,13.1302017 C17.0009906,13.1454844 16.6809012,12.7888862 16.2377006,12.8984128 C16.226663,13.293218 15.7919528,13.5700062 15.7919528,13.5700062 C15.7919528,13.5700062 16.1977955,13.5131202 16.4185468,13.6464201 C16.6477885,13.840002 16.9840097,14.1023564 16.9840097,14.1023564 L17.2862692,14.6160276 C17.2862692,14.6160276 17.0120281,14.662725 16.9075958,14.3078249 C16.8031635,14.5948016 16.7997673,14.1269786 16.3922265,13.9113216 C16.2674171,13.9283025 16.2045879,13.9342458 16.1018536,13.8518886 C15.8063865,13.9325477 15.4599768,14.1023564 15.0456436,14.0590552 C15.0006443,14.0726399 14.9607393,14.095564 14.9199852,14.115092 C14.9624373,14.211883 15.0040405,14.2976364 15.0354551,14.3570694 C15.1101709,14.428389 15.3377145,14.5948016 15.4998818,14.7238561 C15.7206331,14.4980106 16.0254397,14.2212224 16.1867579,14.2628256 C15.875159,14.5319723 15.7834623,15.111869 15.757142,15.3971476 C15.816575,15.4565806 15.8615743,15.5100703 15.8929889,15.5482773 C15.9626105,15.4854481 16.0161002,15.4565806 16.0161002,15.4565806 C16.0161002,15.4565806 15.6544077,15.1135671 15.9031774,14.9242304 C16.1383625,14.7484784 16.3370386,15.132246 16.5051492,15.1483779 C16.6724108,15.1653587 16.6078835,15.0023424 16.6078835,15.0023424 C16.6078835,15.0023424 16.5051492,14.9429093 16.4703384,14.8401751 C16.4007169,14.8367789 16.2164745,14.8647974 16.2309082,14.72046 C16.2563795,14.7255542 16.2810018,14.7255542 16.305624,14.7255542 C16.1697771,14.6406499 16.089118,14.5115953 16.089118,14.5115953 C16.089118,14.5115953 16.364208,14.6788568 16.4669423,14.6381028 C16.3905284,14.5948016 16.2597757,14.5031049 16.2563795,14.4003706 C16.2529833,14.2577313 16.5051492,14.0938659 16.5051492,14.0938659 L16.6240153,14.3842388 L16.7615603,14.3918802 C16.7615603,14.3918802 16.8761812,14.5812169 16.9424066,14.7255542 C17.0171224,14.7238561 17.0918382,14.7323466 17.0918382,14.7323466 C17.0918382,14.7323466 17.107121,14.7917796 17.067216,14.8155528 C17.1105172,14.838477 17.2658921,14.8299866 17.2658921,14.8299866 C17.2658921,14.8299866 17.204761,14.8783821 17.1733464,14.8928158 C17.2310813,14.8996081 17.2990048,14.9726259 17.2990048,14.9726259 C17.2990048,14.9726259 17.1699502,14.993852 17.1139134,14.9624373 C17.147026,15.0320589 17.1436299,15.092341 17.1436299,15.092341 C17.1436299,15.092341 17.0205186,15.0609264 16.9296709,14.9828144 C16.8829735,15.1415855 16.7887297,15.2910171 16.6409962,15.3377145 C16.4287353,15.4039399 16.1867579,15.0388513 16.110344,15.1831886 C16.032232,15.3258279 16.4075092,15.6297855 16.4100564,15.8513858 C16.5085454,15.8004432 16.7785412,15.5949747 16.7785412,15.5949747 C16.7785412,15.5949747 16.7887297,15.2052638 16.9424066,15.1653587 C16.9424066,15.1653587 17.0009906,15.1950752 16.9840097,15.2349803 C17.0655179,15.2213956 17.1198567,15.2562064 17.1215547,15.3207337 C17.2098553,15.3156394 17.2013648,15.4217698 17.2013648,15.4217698 L17.0374994,15.4565806 L16.9262748,15.6705396 C16.9262748,15.6705396 16.7284476,15.9991194 16.5136397,16.1570414 C16.5858084,16.2215687 16.6690146,16.2793037 16.7284476,16.2810018 C16.8549551,16.2826999 16.8668417,16.0144021 16.8668417,16.0144021 C16.8668417,16.0144021 16.9041996,16.1315701 16.9678779,16.1018536 C16.9610855,16.1816637 17.0468389,16.2028898 17.0468389,16.2028898 C17.0468389,16.2028898 16.8362762,16.6741089 16.2580776,16.2648699 C16.1977955,16.3293972 16.0568543,16.3327934 16.0568543,16.3327934 C16.0568543,16.3327934 16.0076098,16.3922265 15.9464787,16.4083583 L15.9991194,16.4270372 L16.5543937,16.7267496 L16.2215687,16.9941982 L11.884655,16.9941982 L11.5866407,16.7369381 L12.7523773,16.7972202 L11.337871,16.5730727 L12.1886125,16.5892045 L12.7277551,16.5484504 L12.9001109,16.3506233 L13.3339721,16.2996807 C13.3806695,16.2478891 13.4256688,16.1867579 13.4706681,16.1154383 C13.0919947,15.8980832 12.88313,16.0059117 12.8381307,15.9116679 C12.7803958,15.7919528 12.9765248,15.4769577 12.9162427,15.2774325 C12.6199266,15.2247918 12.1554998,14.9497017 11.9975778,14.5744245 C11.7241858,14.7535727 11.4091907,14.3324471 11.2283444,14.4538603 C11.0610829,14.565085 11.5170192,14.7917796 11.5204154,15.0057386 C11.5204154,15.2213956 11.240231,15.3096961 11.240231,15.3096961 C11.240231,15.3096961 11.2631552,15.4506373 11.3310787,15.4964857 L11.2716456,15.4964857 C11.2716456,15.4964857 11.3692856,15.6875204 11.317494,15.7749719 C11.2682495,15.8632724 11.064479,15.8479896 11.064479,15.8479896 C11.064479,15.8479896 10.9948575,16.089118 11.0322154,16.1765694 C10.9167455,16.1604376 10.9591977,16.0237416 10.9133493,15.9778933 C10.8963684,16.0339301 10.8437278,15.9889308 10.8437278,15.9889308 L10.7919361,15.8072355 L10.808917,15.6561058 L10.7078808,15.5864843 C10.7078808,15.5864843 10.5830714,15.4565806 10.6747681,15.347054 C10.7741062,15.2264898 11.1383458,15.151774 10.9914613,14.9497017 C10.8403316,14.7450822 10.7325031,14.330749 10.9591977,14.1617894 C11.1884394,13.9928298 11.6757903,14.4317852 11.9542765,14.3562204 C11.9559746,14.3545223 11.9559746,14.3562204 11.9576727,14.3562204 C12.0459732,14.0590552 12.2064424,13.8697185 12.4076657,13.7457581 L12.0179548,13.4086879 L11.9593708,13.3704809 C11.92456,13.3772733 11.8880512,13.3738771 11.884655,13.3594434 C11.8498442,13.3662357 11.7904112,13.3407644 11.7853169,13.3008594 C11.7589966,13.312746 11.7055068,13.2762371 11.7012616,13.2363321 C11.670696,13.2448225 11.6528661,13.2117098 11.6426776,13.1667105 L11.6409795,13.1667105 C11.6409795,13.1667105 11.4890007,13.0096375 11.5204154,12.9714305 C11.5382453,12.9476573 11.6282439,12.9714305 11.6944693,12.9909585 C11.7072049,12.9680344 11.7190915,12.9510535 11.7190915,12.9510535 C11.7190915,12.9510535 11.7224877,12.8449231 11.7471099,12.7107742 C11.3939079,12.9179408 11.1120255,13.5199126 10.6662777,13.0113356 C10.7537292,12.9892605 10.7953323,12.9332236 10.7673138,12.8304893 C10.574581,12.9162427 10.4540168,12.8355836 10.5533549,12.5995495 C10.5796753,12.4900229 10.5414683,12.1020101 10.8471239,12.0892744 C10.7325031,11.9729555 10.8980665,11.4091907 11.2546648,11.55183 C11.2266463,11.4906988 11.3590971,11.181647 11.5552261,11.1918356 C11.5645656,11.1324025 11.6477719,10.9829709 11.8354105,10.9727824 C12.1020101,11.103535 12.5019095,11.1604209 12.8585078,11.219854 C12.7022838,11.162119 12.529928,11.0738185 12.3040824,11.0806109 C12.3787982,10.9031608 12.6445488,10.9184436 12.6445488,10.9184436 C12.6445488,10.9184436 12.7370946,10.6679758 13.0953909,10.8174074 C13.1582201,10.77071 13.2626524,10.7792005 13.3611415,10.7970304 C13.4171783,10.5516568 13.626043,10.3640182 13.8917936,10.3640182 C14.1966002,10.3640182 14.4436718,10.6110899 14.4436718,10.9167455 C14.4436718,10.9396697 14.4334833,10.9583486 14.4317852,10.9795747 L14.447068,10.9515563 C14.447068,10.9515563 14.544708,10.9099531 14.6177257,10.9515563 C14.740837,10.8598596 14.8486655,10.8318411 14.8486655,10.8318411 C14.8486655,10.8318411 14.8851744,10.9642919 14.8316847,11.0525924 C15.1033786,11.024574 15.4769577,11.1748547 15.7325197,11.1918356 C15.8063865,11.3429653 15.8004432,11.3990021 15.7834623,11.4915479 C15.7673305,11.5849427 15.6645963,11.5603204 15.6645963,11.5603204 C15.6229931,11.6010745 15.562711,11.629942 15.4896933,11.6460738 C15.4090342,11.7437138 15.2825267,11.8812588 15.1254537,12.0222 C15.2859229,12.2217252 15.4752596,12.4900229 15.4141284,12.6063419 C15.5380888,12.6657749 15.7240293,12.9425631 15.7240293,12.9425631 C15.7240293,12.9425631 16.1315701,12.7294532 16.2648699,12.529928 C16.500055,12.529928 16.8863697,12.7786977 17.0791026,12.8033199 C17.3159857,12.9960528 17.5528688,13.1913328 17.5528688,13.1913328 C17.5528688,13.1913328 17.2692883,13.3738771 17.147026,13.1302017 L17.147026,13.1302017 Z M16.1171364,18.496156 C16.0390244,18.5411553 15.9413844,18.5411553 15.8615743,18.496156 C15.7834623,18.4503077 15.7350669,18.3654033 15.7350669,18.2762538 C15.7350669,18.1862552 15.7834623,18.1005018 15.8615743,18.0572006 C15.9413844,18.0088051 16.0390244,18.0088051 16.1171364,18.0572006 C16.1960974,18.1005018 16.2427948,18.1862552 16.2427948,18.2762538 C16.2427948,18.3654033 16.1960974,18.4503077 16.1171364,18.496156 L16.1171364,18.496156 Z M14.466596,18.8069059 L14.1286767,18.8069059 L14.1074506,19.0904864 C14.0853755,19.3774631 13.7916065,19.3443504 13.7899084,19.0718075 L13.7899084,18.8069059 L13.4519891,18.8069059 C13.1123718,18.8069059 13.1123718,18.5377592 13.4519891,18.5377592 L13.7899084,18.5377592 L13.7899084,18.2762538 C13.7899084,18.0105032 14.1286767,18.0105032 14.1286767,18.2762538 L14.1286767,18.5377592 L14.466596,18.5377592 C14.8070624,18.5377592 14.8070624,18.8069059 14.466596,18.8069059 L14.466596,18.8069059 Z M12.0561617,18.496156 C11.9763517,18.5411553 11.8812588,18.5411553 11.8022978,18.496156 C11.7241858,18.4503077 11.6740922,18.3654033 11.6740922,18.2762538 C11.6740922,18.1862552 11.7241858,18.1005018 11.8022978,18.0572006 C11.8812588,18.0088051 11.9763517,18.0088051 12.0561617,18.0572006 C12.1351228,18.1005018 12.1835183,18.1862552 12.1818202,18.2762538 C12.1835183,18.3654033 12.1351228,18.4503077 12.0561617,18.496156 L12.0561617,18.496156 Z M10.9880651,9.81383809 C11.024574,9.74251845 11.0789128,9.68308541 11.1570248,9.63468993 C11.1833451,9.61601098 11.2113636,9.60327533 11.2368349,9.59138872 C11.2631552,9.5812002 11.2996641,9.57186072 11.3523048,9.55827603 C11.3794741,9.55318177 11.395606,9.54638942 11.4007002,9.54384229 C11.4091907,9.53874803 11.4142849,9.53025759 11.4142849,9.52176716 C11.4142849,9.51157864 11.4091907,9.49544681 11.3973041,9.47676786 L11.4193792,9.46403221 L11.5959802,9.6907268 L11.5747541,9.70431149 C11.5170192,9.65761411 11.4635294,9.62789759 11.4091907,9.61940715 C11.337871,9.60497341 11.2648533,9.61940715 11.1918356,9.66610454 C11.0941956,9.72893375 11.0458001,9.81723427 11.044102,9.92845895 C11.044102,10.0193066 11.0738185,10.1110033 11.1307044,10.2018509 C11.1799489,10.2748687 11.2368349,10.3309055 11.3030602,10.3759048 C11.3726818,10.4158099 11.4389072,10.4353379 11.5017364,10.4353379 C11.5645656,10.4319417 11.6214515,10.4158099 11.6672999,10.3843953 C11.6961673,10.3657163 11.7224877,10.3461883 11.7437138,10.3215661 C11.7640908,10.2960948 11.7853169,10.2697744 11.7989016,10.2400579 L11.6562623,10.0193066 C11.63164,9.98109965 11.611263,9.95647739 11.5976783,9.94968504 C11.5832446,9.93949652 11.5679618,9.93610035 11.5552261,9.93949652 C11.5382453,9.94119461 11.513623,9.95308121 11.4839065,9.97091113 L11.4703218,9.94968504 L11.7657889,9.75780123 L11.7785246,9.77902731 L11.7640908,9.78921583 C11.7360724,9.80874383 11.7224877,9.83166801 11.7241858,9.85713931 C11.7241858,9.87666731 11.7386195,9.90468574 11.7657889,9.94628887 L11.9160696,10.183172 C11.8880512,10.2332655 11.8583346,10.2782648 11.8218258,10.3147737 C11.787015,10.3546787 11.7454119,10.3894895 11.6944693,10.4259984 C11.5433395,10.5202422 11.4007002,10.5448645 11.2631552,10.5015633 C11.1587229,10.4667525 11.0789128,10.4039233 11.0194797,10.3096794 C10.9727824,10.2434541 10.946462,10.1670402 10.9396697,10.085532 C10.9311792,9.98619391 10.946462,9.89534626 10.9880651,9.81383809 L10.9880651,9.81383809 Z M12.4441746,9.95308121 C12.4586083,9.92506278 12.4738911,9.87666731 12.4832306,9.80534766 L12.6012476,8.99620929 L12.6224737,8.99111503 L13.1251074,9.64487845 C13.1684086,9.69582106 13.1998232,9.72723567 13.2244455,9.73912227 C13.2482187,9.75270697 13.2796333,9.75440505 13.3161422,9.74761271 L13.3229345,9.77223497 L12.9765248,9.8647807 L12.9697325,9.83846035 C13.0011471,9.82996992 13.0240712,9.81723427 13.0359578,9.80534766 C13.0444483,9.78921583 13.0469954,9.77563114 13.0427502,9.76204645 C13.0376559,9.74421653 13.0206751,9.71450001 12.9926566,9.67968923 L12.9060542,9.56506837 L12.5664368,9.65761411 L12.5418146,9.81383809 C12.5350222,9.84864887 12.5350222,9.87666731 12.5418146,9.89364817 C12.5435127,9.90808191 12.5528521,9.91827043 12.569833,9.92506278 C12.5851158,9.93185513 12.6131342,9.93185513 12.6581335,9.92336469 L12.6640768,9.94628887 L12.3872887,10.0210047 L12.3787982,9.99808051 C12.413609,9.98109965 12.4373822,9.96496782 12.4441746,9.95308121 L12.4441746,9.95308121 Z M13.7160416,9.71450001 L13.7508524,9.7161981 C13.7890594,9.71789619 13.8153797,9.70770767 13.8332096,9.68308541 C13.8433981,9.66950071 13.8501905,9.63638802 13.8518886,9.58459637 L13.8765108,8.9945112 C13.8765108,8.93847434 13.8697185,8.90366356 13.861228,8.88838077 C13.8433981,8.86715469 13.8187759,8.85696617 13.7839651,8.85526808 L13.7508524,8.85356999 L13.7508524,8.82894774 L14.1634875,8.84338147 L14.1634875,8.86885278 C14.1133939,8.86715469 14.0802812,8.87224895 14.0590552,8.87819225 C14.0386781,8.88838077 14.0276406,8.89856929 14.0191501,8.91300303 C14.0106597,8.92658773 14.0055654,8.95970042 14.0021692,9.01488824 L13.9826412,9.58799255 C13.9792451,9.62450141 13.9843393,9.6516708 13.9894336,9.66610454 C13.9928298,9.67629306 14.0013202,9.68308541 14.0140559,9.68733063 C14.0259425,9.69242489 14.0590552,9.69582106 14.1184882,9.69751915 L14.1847136,9.70091532 C14.2543351,9.70261341 14.3044287,9.70091532 14.3324471,9.6907268 C14.3621637,9.68308541 14.387635,9.66440645 14.4122572,9.63978419 C14.4351814,9.61601098 14.4623508,9.57355881 14.486973,9.51837099 L14.5098972,9.52346525 L14.4224457,9.76714071 L13.7160416,9.74082036 L13.7160416,9.71450001 Z M14.9080986,9.82063044 L14.9378151,9.83166801 C14.976022,9.84185653 15.0057386,9.83846035 15.0303608,9.82063044 C15.0439455,9.81044192 15.0592283,9.77902731 15.073662,9.73063184 L15.2596025,9.17196127 C15.2757344,9.1176225 15.2825267,9.08281172 15.2757344,9.06413276 C15.2646968,9.0395105 15.2443198,9.02083155 15.209509,9.01149207 L15.1780944,8.99960546 L15.1848867,8.97837938 L15.5779938,9.10743397 L15.5712015,9.13035815 C15.523655,9.11592441 15.4896933,9.10913206 15.4701653,9.11252823 C15.4489392,9.11422632 15.4319584,9.12101867 15.4183737,9.13375432 C15.4090342,9.14394284 15.3954495,9.17535745 15.3776196,9.22545101 L15.1967733,9.77053688 C15.1848867,9.80704575 15.1814905,9.83336609 15.1848867,9.84864887 C15.1848867,9.85883739 15.189981,9.86817687 15.2001695,9.87496922 C15.209509,9.88345965 15.2409236,9.89704435 15.2978095,9.91487426 L15.3606387,9.93610035 C15.4285622,9.95987356 15.4752596,9.96836399 15.5049761,9.96666591 C15.5380888,9.96496782 15.5661072,9.95647739 15.5975218,9.93949652 C15.6297855,9.92166661 15.6645963,9.890252 15.7002561,9.84185653 L15.7223312,9.85544122 L15.5712015,10.066004 L14.9013062,9.84355461 L14.9080986,9.82063044 Z M16.0144021,10.2332655 C16.050911,10.2502464 16.0755333,10.2561897 16.089118,10.2544916 C16.1205326,10.2502464 16.168079,10.2281713 16.2283611,10.1899643 L16.9245767,9.76374453 L16.9424066,9.77563114 L16.7632584,10.5796753 C16.7471266,10.6459006 16.7454285,10.6908999 16.7505228,10.7189184 C16.7607113,10.7443897 16.7768431,10.7690119 16.8031635,10.7936342 L16.7921259,10.8140112 L16.4983569,10.6051466 L16.5119416,10.5864676 C16.5433562,10.6051466 16.5645823,10.614486 16.5815631,10.6127879 C16.599393,10.6110899 16.6095816,10.6051466 16.618072,10.5932599 C16.6308077,10.5762791 16.6409962,10.5465626 16.6511847,10.5015633 L16.6825993,10.3623201 L16.3939245,10.1568516 L16.2614738,10.2400579 C16.2283611,10.2595859 16.2045879,10.2782648 16.1960974,10.2893024 C16.1867579,10.3028871 16.1867579,10.3164718 16.1918522,10.3326036 C16.1960974,10.3495845 16.2147764,10.3725087 16.2495872,10.4005271 L16.2343044,10.419206 L16.0008174,10.2519445 L16.0144021,10.2332655 Z M10.0575136,12.276064 L9.55148368,12.413609 C9.54469133,12.4356842 9.53874803,12.451816 9.53195568,12.4654007 C9.53025759,12.4704949 9.52686142,12.4772873 9.52516333,12.4832306 C9.52176716,12.4883248 9.51837099,12.4951172 9.5166729,12.5019095 L9.76544262,12.5961534 C9.81893235,12.6165304 9.85544122,12.6241718 9.87157305,12.6165304 C9.89704435,12.6097381 9.91487426,12.5868139 9.92845895,12.5545502 L9.93779843,12.5231356 L9.96326973,12.529928 L9.82232853,12.8967147 L9.8002534,12.8899224 L9.81214001,12.8568097 C9.8257247,12.8203008 9.8257247,12.7888862 9.80534766,12.7668111 C9.79685723,12.7523773 9.76883879,12.7353965 9.71789619,12.7158685 L9.17026319,12.5087019 C9.11422632,12.4849287 9.07771745,12.4806835 9.06243467,12.4849287 C9.03781241,12.4951172 9.01743537,12.5180414 9.00639781,12.5486069 L8.99281311,12.5817196 L8.97158703,12.5732292 L9.08705693,12.2633283 C9.12186771,12.1699336 9.15413136,12.1071044 9.18554597,12.0688974 C9.2135644,12.0289924 9.25177135,12.0043701 9.29931779,11.9856911 C9.34601517,11.9695593 9.39271256,11.9729555 9.44365517,11.9907854 C9.49544681,12.0111624 9.53535185,12.0442751 9.55997411,12.0952177 C9.58459637,12.1419151 9.59308681,12.2047443 9.5812002,12.2845544 L9.89534626,12.1996501 C9.96326973,12.1801221 10.0159104,12.1622922 10.0456269,12.140217 C10.0744944,12.1172929 10.1008148,12.0841802 10.1237389,12.0391809 L10.1466631,12.0476713 L10.0575136,12.276064 Z M9.87496922,15.3343184 L9.86817687,15.3029038 C9.86053548,15.2646968 9.84185653,15.2400745 9.81723427,15.229886 C9.8002534,15.2230937 9.76544262,15.2247918 9.71110384,15.2366784 L9.13884858,15.3759215 C9.09384928,15.3835629 9.06583085,15.3954495 9.05054807,15.4039399 C9.04290668,15.4124304 9.03441624,15.4217698 9.03102007,15.4387507 C9.02422772,15.4582787 9.02422772,15.4803538 9.02762389,15.5015799 L9.03781241,15.5329945 L9.01319016,15.5397869 L8.85526808,14.8800801 L9.04800094,14.8231942 L9.05224615,14.8469674 C9.0140392,14.8681935 8.98771885,14.8868725 8.97158703,14.9080986 C8.95460616,14.9276266 8.94611573,14.9497017 8.94271955,14.976022 C8.94017242,14.9972481 8.94271955,15.0320589 8.95290807,15.0787563 L8.99960546,15.2748853 L9.34941135,15.1916791 L9.31120439,15.0286627 C9.30101587,14.993852 9.28658213,14.9675316 9.26620509,14.954796 C9.24667709,14.9412113 9.21016823,14.9378151 9.16007467,14.9429093 L9.15667849,14.9182871 L9.45554177,14.8486655 L9.46233412,14.8715897 C9.42752334,14.8800801 9.40290108,14.8894196 9.39101447,14.9030043 C9.37403361,14.9148909 9.36639222,14.9310227 9.36129795,14.9463055 C9.35959987,14.9624373 9.35959987,14.9879087 9.36469413,15.0159271 L9.40375013,15.1797925 L9.68138732,15.1101709 C9.72723567,15.1016805 9.75695219,15.092341 9.77053688,15.0821525 C9.77902731,15.0753601 9.78751775,15.0634735 9.79346105,15.0473417 C9.79685723,15.0261156 9.79685723,15.0057386 9.79346105,14.9845125 L9.78581966,14.9513998 L9.80874383,14.9463055 L9.89959148,15.327526 L9.87496922,15.3343184 Z M8.92658773,13.4010465 C9.02083155,13.3178403 9.13715049,13.2796333 9.27129935,13.2898218 C9.40884439,13.2957651 9.52176716,13.3458587 9.60836959,13.4384044 C9.69582106,13.5317992 9.73402801,13.6413258 9.72723567,13.7652861 C9.72129236,13.8917936 9.6711988,13.9928298 9.57695498,14.0734889 C9.48186212,14.153299 9.36469413,14.1898078 9.22375292,14.1813174 C9.07771745,14.1753741 8.96479468,14.1167901 8.87649417,14.0140559 C8.80347643,13.9232082 8.76866565,13.8187759 8.775458,13.6990607 C8.78225035,13.5827418 8.83234391,13.4817056 8.92658773,13.4010465 L8.92658773,13.4010465 Z M27.1580969,10.9133493 L20.216318,10.9133493 C20.1993371,10.9362735 20.1916957,10.9600467 20.1730168,10.9761785 C19.727269,11.4236244 18.6421915,11.062781 17.7489978,10.1704363 C16.8583513,9.2780917 16.4966588,8.19216518 16.9424066,7.74726643 C16.9593875,7.72943652 16.9857078,7.72094608 17.0060848,7.70481426 L17.0060848,0.763035315 L10.9133493,0.763035315 L10.9133493,7.70481426 C10.9328773,7.72264417 10.9583486,7.72943652 10.9761785,7.74726643 C11.4219263,8.19216518 11.0610829,9.2780917 10.1704363,10.1704363 C9.27639361,11.062781 8.19386326,11.4236244 7.74556834,10.9761785 C7.72773843,10.9600467 7.72094608,10.9362735 7.70481426,10.9133493 L0.759639141,10.9133493 L0.759639141,17.0060848 L7.70481426,17.0060848 C7.72094608,16.9874059 7.72773843,16.9610855 7.74556834,16.9441047 C8.19386326,16.4966588 9.27639361,16.8600494 10.1704363,17.7506959 C11.0610829,18.6438896 11.4219263,19.7289671 10.9761785,20.1730168 C10.9583486,20.1933938 10.9328773,20.2010352 10.9133493,20.216318 L10.9133493,27.159795 L17.0060848,27.159795 L17.0060848,20.2180161 C16.9857078,20.2027333 16.9593875,20.1933938 16.9424066,20.1730168 C16.4966588,19.7289671 16.8583513,18.6438896 17.7489978,17.7506959 C18.6421915,16.8600494 19.727269,16.4966588 20.1730168,16.9441047 C20.1916957,16.9610855 20.1993371,16.9874059 20.2129218,17.0060848 L27.1580969,17.0060848 L27.1580969,10.9133493 Z"/>
      <path fill="#CECCCC" d="M9.24829028,12.1369907 C9.20329098,12.1565187 9.17017828,12.1930275 9.14725411,12.2499135 C9.13876368,12.2728376 9.13197133,12.3059503 9.12263185,12.3526477 L9.47838104,12.4850985 C9.48177722,12.4800042 9.48517339,12.4732119 9.48517339,12.4672686 C9.48856956,12.4604762 9.48856956,12.455382 9.49026765,12.4519858 C9.52168226,12.3704776 9.5284746,12.3025541 9.5089466,12.2482154 C9.48856956,12.1930275 9.45375878,12.1565187 9.39602383,12.1352926 C9.34423218,12.1140665 9.29498766,12.1140665 9.24829028,12.1369907"/>
      <path fill="#D0D1D1" d="M7.5883255,10.6610985 C7.60955159,10.7553423 7.64945663,10.8419448 7.70464445,10.9132644 C7.72077627,10.9361886 7.72756862,10.9599618 7.74624758,10.9760936 C8.19369345,11.4235395 9.2762238,11.062696 10.1702665,10.1703514 C11.0609131,9.2780068 11.4226056,8.19208027 10.9760087,7.74718152 C10.9581788,7.72935161 10.9327075,7.72255926 10.9131795,7.70472935 C10.8418599,7.64954153 10.7544084,7.61133458 10.6593155,7.59010849 C10.5812035,7.56973145 10.4971482,7.56209006 10.4037535,7.56548623 C10.3247924,7.56803336 10.2415862,7.5765238 10.1524366,7.59690084 C10.102343,7.60454223 10.0488533,7.61812692 9.99621262,7.63340971 C9.54197439,7.76925665 9.02066174,8.08764793 8.55538595,8.55377277 C9.14886729,7.95944238 9.99281645,7.8405763 10.4360171,8.28632409 C10.883463,8.73292093 10.7637479,9.57687008 10.1702665,10.1703514 C9.573389,10.7655309 8.73113793,10.885246 8.2845411,10.4386491 C7.83709522,9.99459944 7.95850843,9.1489522 8.55538595,8.55377277 C8.08756303,9.02074664 7.77086983,9.54036121 7.6333248,9.99459944 C7.61634393,10.0472401 7.60530637,10.1007299 7.59511785,10.1533706 C7.57474081,10.2433692 7.56540133,10.3257264 7.56370324,10.4055364 C7.56200515,10.4989312 7.5687975,10.5829865 7.5883255,10.6610985"/>
      <path fill="#9C877D" d="M10.5267798,9.45384369 L10.3476317,9.63129376 L9.27104464,8.55300863 L9.4501928,8.37470951 L10.5267798,9.45384369 Z M8.19530664,9.63129376 L8.3744548,9.45384369 L9.09104744,9.81044192 L8.73275112,9.09384928 L8.91359736,8.91470112 L9.62934096,10.3495845 L8.19530664,9.63129376 Z M8.28445619,10.438734 C8.73105303,10.8853309 9.57330409,10.7656158 10.1701816,10.1704363 C10.763663,9.57695498 10.8833781,8.73215679 10.4359322,8.28640899 C9.99273154,7.8406612 9.14878239,7.95952728 8.55530104,8.55300863 C7.95842352,9.1490371 7.83701032,9.99468434 8.28445619,10.438734 L8.28445619,10.438734 Z"/>
      <polygon fill="#D0D1D1" points="8.913 8.915 8.732 9.094 9.091 9.811 8.374 9.454 8.195 9.632 9.63 10.349"/>
      <polygon fill="#D0D1D1" points="9.271 8.553 10.348 9.632 10.527 9.454 9.451 8.374"/>
      <path fill="#D0D1D1" d="M19.6341289 10.4389039C19.1900792 10.8846516 18.3435829 10.7657856 17.7484035 10.1706061 18.6424462 11.0621017 19.7266746 11.4237942 20.1732715 10.9763483 20.1911014 10.9593675 20.1995918 10.9364433 20.2165727 10.9135191 20.2709115 10.8421995 20.3091184 10.755597 20.3303445 10.6613532 20.3490235 10.5832412 20.3575139 10.4983369 20.3558158 10.4057912 20.3524196 10.3259811 20.3422311 10.2436239 20.3269483 10.1536253 20.3142127 10.1009846 20.300628 10.0474948 20.2861943 9.99145798 20.1478002 9.53806879 19.831107 9.01930327 19.3658312 8.55317843 19.9593125 9.14835787 20.0781786 9.99485415 19.6341289 10.4389039M17.2594394 7.58993868C17.1634975 7.61116477 17.0785931 7.64937172 17.0055754 7.70455954 16.9860474 7.72069137 16.958878 7.7291818 16.9427462 7.74786076 16.4969984 8.19191046 16.8578419 9.27783699 17.7484884 10.1701816 17.153309 9.57670027 17.0335938 8.73275112 17.4801907 8.28615428 17.9259385 7.84040649 18.7698876 7.96012161 19.3650671 8.55360296 18.8963951 8.08747812 18.3750824 7.76908684 17.9208442 7.6332399 17.8665054 7.61795712 17.8147138 7.60522146 17.7671674 7.59673103 17.6771688 7.57635399 17.5948115 7.5687126 17.5133034 7.56531642 17.4216067 7.56192025 17.3358533 7.57041068 17.2594394 7.58993868"/>
      <path fill="#9C877D" d="M18.287631,10.3493298 L19.3659161,9.27274273 L19.5442152,9.45358897 L18.4667791,10.530176 L18.287631,10.3493298 Z M17.5710383,9.63103905 L18.287631,8.19530664 L18.4667791,8.3744548 L18.1084828,9.09359457 L18.8267735,8.7344492 L19.0059217,8.91529545 L17.5710383,9.63103905 Z M19.6342138,10.4384793 C20.0782635,9.99442963 19.9593974,9.14878239 19.3659161,8.55360296 C18.7698876,7.96012161 17.9259385,7.84040649 17.4801907,8.28615428 C17.0335938,8.73275112 17.153309,9.57670027 17.7484884,10.1701816 C18.3436678,10.765361 19.1893151,10.8850762 19.6342138,10.4384793 L19.6342138,10.4384793 Z"/>
      <polygon fill="#D0D1D1" points="19.006 8.915 18.827 8.734 18.108 9.094 18.467 8.374 18.287 8.195 17.572 9.632"/>
      <polygon fill="#D0D1D1" points="19.545 9.454 19.365 9.273 18.288 10.35 18.466 10.53"/>
      <path fill="#D0D1D1" d="M17.4800209,19.6357421 C17.0342731,19.1916924 17.1531392,18.3451961 17.7483186,17.7500167 C16.8585211,18.6440594 16.4968286,19.7282878 16.9425764,20.1731866 C16.9595573,20.1927146 16.9858776,20.2029031 17.0054056,20.2181859 C17.0784233,20.2708266 17.1633277,20.3090335 17.2592696,20.3319577 C17.3356835,20.3506367 17.4222859,20.3608252 17.5131336,20.357429 C17.5946417,20.3540328 17.6769989,20.3438443 17.7669975,20.3251654 C17.8179402,20.3158259 17.8697318,20.3022412 17.9223725,20.2878074 C18.3774598,20.1511115 18.8962253,19.8344183 19.3657463,19.3674444 C18.7705669,19.9626238 17.9257687,20.0814899 17.4800209,19.6357421"/>
      <path fill="#D0D1D1" d="M20.3554762,17.5148317 C20.3571743,17.423984 20.3486839,17.3373816 20.3308539,17.2592696 C20.3087788,17.1650258 20.2705719,17.0801214 20.2128369,17.0054056 C20.1992522,16.9875757 20.1916108,16.9612554 20.1729319,16.9442745 C19.7271841,16.4968286 18.6421066,16.8602192 17.7489129,17.7500167 C18.3440924,17.1565353 19.1897396,17.0359712 19.6337893,17.483417 C20.078688,17.9274668 19.9589729,18.7714159 19.3654916,19.3674444 C19.8316164,18.9013195 20.1483096,18.3834031 20.2858546,17.9308629 C20.3011374,17.8748261 20.3138731,17.8196382 20.3274578,17.7669975 C20.3418915,17.678697 20.35208,17.5946417 20.3554762,17.5148317"/>
      <path fill="#9C877D" d="M18.6474556,19.3671048 L18.4666093,19.5462529 L17.3908713,18.4696659 L17.5708685,18.2888196 L18.6474556,19.3671048 Z M19.7240426,18.2888196 L19.5448945,18.4696659 L18.8266037,18.1105205 L19.1865981,18.8279622 L19.0057519,19.0088084 L18.2874612,17.5713779 L19.7240426,18.2888196 Z M17.4800209,19.6354025 C17.9257687,20.0819993 18.7705669,19.9622842 19.3657463,19.3671048 C19.9592276,18.7719253 20.0789428,17.9279762 19.634044,17.4830774 C19.1899943,17.0356316 18.3443471,17.1561957 17.7483186,17.7505261 C17.1531392,18.3457055 17.0342731,19.1913528 17.4800209,19.6354025 L17.4800209,19.6354025 Z"/>
      <polygon fill="#D0D1D1" points="19.006 19.009 19.187 18.828 18.827 18.11 19.545 18.47 19.724 18.289 18.287 17.571"/>
      <polygon fill="#D0D1D1" points="18.467 19.546 18.648 19.367 17.571 18.29 17.39 18.47"/>
      <path fill="#D0D1D1" d="M8.28479581,17.4833321 C8.7305436,17.0358863 9.57364371,17.1564504 10.1705212,17.7499318 C9.27647852,16.8601343 8.19394817,16.4967437 7.74565324,16.9441896 C7.72782333,16.9611704 7.72103099,16.9874908 7.70405012,17.0061697 C7.64971134,17.0800365 7.61150439,17.1649409 7.58858021,17.2591847 C7.56820317,17.3372967 7.56141082,17.4238991 7.56310891,17.5147468 C7.564807,17.5945568 7.57499552,17.6786121 7.59537256,17.7669126 C7.60471204,17.8195533 7.61659865,17.8747412 7.63273047,17.9290799 C7.77112455,18.380771 8.08781774,18.9012346 8.55479162,19.3673595 C7.9579141,18.77218 7.83734993,17.9273818 8.28479581,17.4833321"/>
      <path fill="#D0D1D1" d="M10.6594853,20.3322124 C10.7537292,20.3092882 10.8420297,20.2710813 10.9133493,20.2158935 C10.9328773,20.2014597 10.9583486,20.1929693 10.9761785,20.1734413 C11.4219263,19.7285425 11.0610829,18.6443141 10.1704363,17.7502714 C10.7639177,18.3454508 10.8836328,19.1910981 10.4353379,19.6359968 C9.99298625,20.0817446 9.1490371,19.9620295 8.55470671,19.3668501 C9.02083155,19.834673 9.5421442,20.1513662 9.99298625,20.2872131 C10.0490231,20.3024959 10.1008148,20.3152315 10.1517574,20.3271182 C10.241756,20.344099 10.3241132,20.3534385 10.4039233,20.3568347 C10.497318,20.3602308 10.5813733,20.3500423 10.6594853,20.3322124"/>
      <path fill="#9C877D" d="M9.62968058,17.5712081 L8.55479162,18.6494933 L8.37394537,18.4703451 L9.45053242,17.39206 L9.62968058,17.5712081 Z M10.3479713,18.2894989 L9.62968058,19.7252313 L9.45053242,19.5460831 L9.81052682,18.8277924 L9.09053801,19.1877868 L8.91308794,19.0086386 L10.3479713,18.2894989 Z M8.28479581,17.4829076 C7.83734993,17.9278064 7.9579141,18.7717555 8.55479162,19.366935 C9.14912201,19.9621144 9.99307116,20.0818295 10.4354228,19.6360817 C10.8837177,19.191183 10.7640026,18.3455357 10.1705212,17.7503563 C9.57364371,17.156875 8.7305436,17.0354617 8.28479581,17.4829076 L8.28479581,17.4829076 Z"/>
      <polygon fill="#D0D1D1" points="8.913 19.009 9.091 19.188 9.811 18.828 9.451 19.546 9.63 19.725 10.347 18.289"/>
      <polygon fill="#D0D1D1" points="8.374 18.47 8.555 18.649 9.63 17.571 9.451 17.392"/>
      <path fill="#000" d="M12.0557372 18.0570308C11.9759271 18.0086353 11.8816833 18.0086353 11.8018732 18.0570308 11.7237613 18.100332 11.6745167 18.1860854 11.6745167 18.276084 11.6745167 18.3652335 11.7237613 18.4501379 11.8018732 18.4968353 11.8816833 18.5409855 11.9759271 18.5409855 12.0557372 18.4968353 12.1355473 18.4501379 12.1830937 18.3652335 12.1813956 18.276084 12.1830937 18.1860854 12.1355473 18.100332 12.0557372 18.0570308M16.1168817 18.0570308C16.0387697 18.0086353 15.9411297 18.0086353 15.8613196 18.0570308 15.7832076 18.100332 15.7356612 18.1860854 15.7356612 18.276084 15.7356612 18.3652335 15.7832076 18.4501379 15.8613196 18.4968353 15.9411297 18.5409855 16.0387697 18.5409855 16.1168817 18.4968353 16.1966918 18.4501379 16.2425401 18.3652335 16.2425401 18.276084 16.2425401 18.1860854 16.1966918 18.100332 16.1168817 18.0570308M14.4669356 18.5380139L14.1290163 18.5380139 14.1290163 18.2756595C14.1290163 18.0107579 13.790248 18.0107579 13.790248 18.2756595L13.790248 18.5380139 13.4523287 18.5380139C13.1118623 18.5380139 13.1118623 18.8063116 13.4523287 18.8063116L13.790248 18.8063116 13.790248 19.0720622C13.7919461 19.3437561 14.0857151 19.3768688 14.1069412 19.0898921L14.1290163 18.8063116 14.4669356 18.8063116C14.806553 18.8063116 14.806553 18.5380139 14.4669356 18.5380139"/>
      <path fill="#9C877D" d="M16.9295011 14.9826446C17.0203488 15.0607566 17.1434601 15.0921712 17.1434601 15.0921712 17.1434601 15.0921712 17.1468562 15.0327381 17.1137435 14.9631166 17.1697804 14.9945312 17.2996841 14.9724561 17.2996841 14.9724561 17.2996841 14.9724561 17.2309115 14.8994383 17.1731766 14.893495 17.2045912 14.8782122 17.2657223 14.8298168 17.2657223 14.8298168 17.2657223 14.8298168 17.1103474 14.8383072 17.0670462 14.815383 17.1069512 14.7916098 17.0916684 14.7321768 17.0916684 14.7321768 17.0916684 14.7321768 17.0178016 14.7236863 16.9430858 14.7253844 16.9524253 14.7440634 16.9609157 14.7635914 16.9677081 14.7805722 16.9643119 14.8450995 16.9490291 14.9147211 16.9295011 14.9826446M16.5049794 14.6774984L16.5083756 14.6605175C16.4981871 14.6545742 16.4879986 14.6494799 16.4667725 14.6375933 16.3640382 14.6791965 16.0889481 14.5119349 16.0889481 14.5119349 16.0889481 14.5119349 16.1696073 14.6409895 16.3063033 14.7258939 16.3971509 14.7258939 16.476961 14.6910831 16.5049794 14.6774984M14.8135151 16.3490101C14.7753082 16.3141994 14.7404974 16.2827848 14.7158751 16.2513702 14.6555931 16.3209917 14.5834244 16.3702362 14.6165371 16.3923114 14.6496498 16.4152355 14.7303089 16.3906133 14.8135151 16.3490101"/>
      <path fill="#9C877D" d="M15.8781307,16.410396 C15.8433199,16.4851118 15.6811526,16.4536972 15.6811526,16.4536972 C15.6811526,16.4536972 15.5444566,16.5360544 15.4238924,16.4452068 C15.2914417,16.5165264 15.1717265,16.5165264 15.0672942,16.488508 C15.0520114,16.488508 15.042672,16.4902061 15.0307853,16.488508 C15.0460681,16.5182245 15.0358796,16.5725633 15.0358796,16.5725633 C15.0358796,16.5725633 14.9110702,16.5632238 14.8567314,16.4350182 C14.7752233,16.5165264 14.5052275,16.547941 14.5052275,16.547941 C14.5052275,16.547941 14.3311736,16.6031288 14.299759,16.5810537 C14.2683444,16.5598276 14.3753238,16.4621876 14.3753238,16.4621876 L14.4220212,16.2660586 C14.3277774,16.2762471 14.2165527,16.2193612 14.1257051,15.999459 L14.0586306,16.0359678 C14.1800438,16.1548339 14.299759,16.4536972 14.299759,16.4536972 C14.299759,16.4536972 14.0441969,16.469829 13.9643868,16.4350182 C13.8828786,16.4019055 13.8769353,16.3178503 13.7835406,16.3407744 C13.7436355,16.3059636 13.7071267,16.2813414 13.6723159,16.2524739 C13.5517517,16.3237936 13.4252442,16.3738871 13.284303,16.3509629 C13.3012839,16.3373783 13.3191138,16.3178503 13.3343966,16.2991713 L12.8996864,16.3509629 L12.7273306,16.547941 L12.188188,16.5895441 L11.3374465,16.5725633 L12.7519528,16.7967107 L11.5862162,16.7372777 L11.8850795,16.9936888 L16.2211442,16.9936888 L16.5548183,16.7270892 L15.9995439,16.4273769 L15.9460541,16.4086979 C15.9214319,16.4171883 15.8993568,16.4188864 15.8781307,16.410396"/>
      <path fill="#9C877D" d="M15.8614894 15.9046208C15.8614894 15.9046208 15.7799812 15.9640539 15.6721527 15.9046208 15.6611152 15.8799986 15.6458324 15.8596215 15.6297006 15.8451878 15.6025312 15.8248107 15.579607 15.8086789 15.5549847 15.791698 15.5082874 15.7687739 15.4649861 15.7653777 15.4649861 15.7653777 15.4649861 15.7653777 15.4581938 15.7458497 15.4454581 15.7152841 15.3045169 15.6363231 15.1746133 15.6040595 15.0455587 15.5998142 15.090558 15.6397193 15.1219726 15.6711339 15.1219726 15.6711339 15.1219726 15.6711339 14.9547111 15.69236 14.8214112 15.6125499 14.6456593 15.6422664 14.4554735 15.7008504 14.2194395 15.7500949 13.9282176 15.5896257 13.7439751 15.732265 13.604732 15.9216017 13.6480332 15.946224 13.6938816 15.9708462 13.740579 15.9971666 13.740579 15.9971666 13.9112367 15.9224507 14.0309518 16.0141474 14.0555741 15.9988646 14.0835925 15.9793366 14.1099129 15.9640539 14.1150071 15.9793366 14.1217995 15.986129 14.1251956 15.9988646 14.2168923 16.2196159 14.327268 16.2756528 14.4223608 16.2663133L14.4622659 16.1100893 14.7721667 16.0489582C14.8069775 16.1287683 14.7653744 16.1949937 14.7152808 16.2510305 14.7407521 16.2824451 14.7755629 16.3138597 14.8137698 16.3486705 14.8884857 16.3113126 14.9657486 16.2612191 15.0107479 16.2128236 15.1415006 16.2034841 15.1049917 16.2680114 15.0973503 16.3410291 15.1746133 16.3809342 15.1398025 16.4785742 15.1398025 16.4785742 15.1398025 16.4785742 15.1066898 16.4870646 15.0667848 16.4879136 15.1720662 16.5167811 15.2909322 16.5167811 15.423383 16.4454615 15.5447962 16.5363091 15.6806432 16.4531029 15.6806432 16.4531029 15.6806432 16.4531029 15.8436595 16.4853665 15.8784703 16.4106507 15.8996964 16.4182921 15.9209225 16.417443 15.9463938 16.4089526 16.0075249 16.3919717 16.0567694 16.3325387 16.0567694 16.3325387 16.0567694 16.3325387 16.1977106 16.3291425 16.2579927 16.2646152 16.2393137 16.2510305 16.2231819 16.2442382 16.2011068 16.2298045L16.3590289 16.0073551C16.3590289 16.0073551 16.4303485 16.083769 16.5135548 16.1567867 16.7283627 15.9988646 16.9261899 15.6711339 16.9261899 15.6711339L17.0374145 15.4571749 17.2012799 15.4223642C17.2012799 15.4223642 17.2097704 15.3162337 17.1214698 15.321328 17.1197718 15.2559517 17.065433 15.2211409 16.9839248 15.2347256 17.0009057 15.1948205 16.9423217 15.165104 16.9423217 15.165104 16.7886448 15.2050091 16.7784563 15.59472 16.7784563 15.59472 16.7784563 15.59472 16.5084605 15.8001885 16.4099715 15.8519801 16.4074243 15.6295308 16.0321471 15.3255732 16.1102591 15.1829339 16.186673 15.0385965 16.4286504 15.4036852 16.6409113 15.3374598 16.7886448 15.2907624 16.8828886 15.1421798 16.929586 14.9825597 16.949114 14.9146362 16.9643968 14.8450146 16.967793 14.7804873 16.9610006 14.7635065 16.9525102 14.7439785 16.9423217 14.7252995 16.8760963 14.5809621 16.7623245 14.3924745 16.7623245 14.3924745L16.6239304 14.3839841 16.5050643 14.0936112C16.5050643 14.0936112 16.2528984 14.2583256 16.2562946 14.4009649 16.2596908 14.5036992 16.3904435 14.5945468 16.4668574 14.6378481 16.4880835 14.6488856 16.498272 14.6539799 16.5084605 14.6607722 16.5118567 14.6607722 16.5211961 14.6658665 16.5211961 14.6658665 16.5211961 14.6658665 16.5135548 14.6726588 16.5050643 14.6777531 16.4770459 14.6904887 16.3972358 14.7252995 16.3055391 14.7252995 16.2809169 14.7252995 16.2562946 14.7252995 16.2316723 14.7202053 16.2163896 14.8645426 16.400632 14.8365242 16.4702535 14.8399204 16.5050643 14.9426546 16.6077986 15.0029367 16.6077986 15.0029367 16.6077986 15.0029367 16.6723259 15.165104 16.5050643 15.1481231 16.3378028 15.1319913 16.1382776 14.7490727 15.9030925 14.9248247 15.6543228 15.1133124 16.0160153 15.4571749 16.0160153 15.4571749 16.0160153 15.4571749 15.9625256 15.4851934 15.892904 15.5480226 15.9243186 15.5913238 15.9463938 15.6210403 15.9463938 15.6210403L15.8614894 15.9046208zM13.6725706 16.2528135C13.5995529 16.1984747 13.5316294 16.1500793 13.4704983 16.1152685 13.425499 16.1865881 13.3804997 16.2477193 13.3346513 16.2995109 13.3193685 16.3173408 13.3015386 16.3377179 13.2845578 16.3504535 13.425499 16.3742267 13.5511574 16.3241332 13.6725706 16.2528135"/>
      <path fill="#9C877D" d="M13.9959712 15.3623368C13.9161612 15.3487521 13.9679528 15.249414 13.9280478 15.1916791 14.0588004 15.0634735 13.9925751 14.7832892 13.9161612 14.6126315 13.8728599 14.6092353 13.8516339 14.5981977 13.8516339 14.5981977L13.6130527 14.6058391C13.5782419 14.7518746 13.5960718 14.9726259 13.4653191 15.0108328 13.4704134 15.0159271 13.4670172 15.0320589 13.4721114 15.0388513 13.6274864 15.2511121 13.5154127 15.5482773 13.5926756 15.6111065 13.6877685 15.6841242 13.8168231 15.5762957 13.8168231 15.5762957 14.0520081 15.6391249 14.4688884 15.5083723 14.4688884 15.5083723 14.6539799 15.6111065 14.5826602 15.4599768 14.6921868 15.4667691 14.7210543 15.5397869 14.7686007 15.58139 14.8220905 15.6128046 14.9545412 15.6926147 15.1218028 15.6705396 15.1218028 15.6705396 15.1218028 15.6705396 15.0903882 15.6391249 15.0453889 15.5992199 14.9460508 15.503278 14.7618084 15.3377145 14.6327538 15.2774325 14.4918126 15.3623368 14.0706871 15.3776196 13.9959712 15.3623368M11.9579274 14.3557958C11.9562293 14.3557958 11.9562293 14.3540977 11.9545312 14.3557958 11.676045 14.4322097 11.1886941 13.9924052 10.9594524 14.1613649 10.7327578 14.3311736 10.8405863 14.7455068 10.990867 14.9492772 11.1386005 15.1513495 10.7735119 15.2260653 10.6741738 15.3474785 10.5833261 15.4570051 10.7072865 15.5860597 10.7072865 15.5860597L10.8083226 15.6556813 10.7921908 15.806811 10.8439825 15.9893554C10.8439825 15.9893554 10.8966232 16.0343547 10.913604 15.9774687 10.9594524 16.0241661 10.9161512 16.1600131 11.0324701 16.1769939 10.9942632 16.0886934 11.0638847 15.8484141 11.0638847 15.8484141 11.0638847 15.8484141 11.2685042 15.8628479 11.3177487 15.7753964 11.3695403 15.6870959 11.2710513 15.4969102 11.2710513 15.4969102L11.3313334 15.4969102C11.2634099 15.4502128 11.2396367 15.3092716 11.2396367 15.3092716 11.2396367 15.3092716 11.519821 15.2218201 11.519821 15.0061631 11.5164248 14.7922041 11.0604885 14.5646605 11.2285991 14.4534358 11.4094454 14.3328717 11.7244405 14.7539972 11.9978325 14.574849 11.9749083 14.5145669 11.9545312 14.4551339 11.9460408 14.3923047 11.9477389 14.37872 11.9545312 14.3710786 11.9579274 14.3557958M12.0325583 12.1867446C12.1981218 11.9184469 12.2974599 11.8547686 12.3755719 11.8683533 12.4027413 11.7741095 12.5436825 11.6594887 12.632832 11.6442059 12.6430206 11.5346793 12.8187725 11.4438316 12.9928264 11.3708139 13.0488633 11.3393993 13.1439562 11.3011923 13.2398981 11.3045885 13.1932007 11.2893057 13.1515976 11.2765701 13.0989569 11.2646835 13.0989569 11.2646835 13.0989569 11.2663816 13.0955607 11.2680797 13.0208449 11.2765701 12.9410348 11.2510988 12.8586776 11.2196842 12.5020793 11.1602511 12.1021799 11.1042143 11.8355803 10.9726125 11.6479417 10.9828011 11.5647354 11.1322327 11.5553959 11.1916657 11.3592669 11.1814772 11.2268161 11.490529 11.2548346 11.5516602 10.8982363 11.4090209 10.7326729 11.9727857 10.8472937 12.0891046 10.5416381 12.1018403 10.5798451 12.4898531 10.5535247 12.5993797 10.4541866 12.8354138 10.5747508 12.9160729 10.7674837 12.8303195 10.7955021 12.9330538 10.753899 12.9890906 10.6664475 13.0111658 11.1121953 13.5197428 11.3940777 12.917771 11.7472798 12.7106044 11.7820905 12.5187206 11.8568064 12.2665547 12.0325583 12.1867446M12.7655375 12.1867446L12.7774241 12.1884427C12.795254 12.1137269 12.8232725 12.0424072 12.8648756 11.9897666 12.795254 12.0704257 12.6678975 12.2809884 12.4259202 12.2580643 12.4106374 12.3472138 12.344412 12.4389105 12.2747904 12.5204187 12.6161059 12.3624966 12.7655375 12.1867446 12.7655375 12.1867446M13.5233088 11.259759C13.5462329 11.2334387 13.5513272 11.1782509 13.5233088 11.0704223 13.5233088 11.0653281 13.5267049 11.0356116 13.5385915 11.0008008L13.5351954 11.0008008C13.4867999 11.0279702 13.4290649 11.0542905 13.3704809 11.084007 13.3959523 11.162119 13.4324611 11.2317406 13.4867999 11.2877775 13.5020827 11.279287 13.5216107 11.2665514 13.5233088 11.259759M13.67758 10.7755496C13.6928627 10.7619649 13.7106926 10.7560216 13.7293716 10.7475311 13.7624843 10.7271541 13.8015403 10.7178146 13.8414453 10.7127204 13.8533319 10.7127204 13.8584262 10.705928 13.8669166 10.705928 13.8703128 10.705928 13.8728599 10.7093242 13.8762561 10.7093242 13.8830485 10.7093242 13.8881427 10.705928 13.893237 10.705928 13.9611605 10.7144184 14.0095559 10.7373426 14.0537062 10.7619649 14.0554043 10.765361 14.0621966 10.765361 14.0655928 10.7670591 14.2116283 10.8536616 14.2515333 10.999697 14.2481371 11.0625262L14.2481371 11.0854504 14.2481371 11.0905447 14.244741 11.0905447C14.2430429 11.1406382 14.226062 11.1898828 14.1836098 11.2263916 14.166629 11.2764852 14.1564404 11.351201 14.1521952 11.3953513 14.1734213 11.3843137 14.1946474 11.3690309 14.2150244 11.3528991L14.4323795 10.97932C14.4340776 10.9580939 14.4434171 10.9394149 14.4434171 10.9164908 14.4434171 10.6116842 14.1963455 10.3646126 13.8915389 10.3646126 13.6257883 10.3646126 13.4169236 10.5514021 13.3608868 10.7967757 13.4806019 10.8205489 13.5867323 10.8638501 13.5867323 10.8638501 13.5867323 10.8638501 13.619845 10.8171527 13.67758 10.7755496M14.1750345 11.7704586C14.1733364 11.777251 14.1716383 11.7806472 14.1699402 11.7874395 14.0536213 12.1058308 14.1521103 12.2781866 14.1521103 12.2781866 14.1521103 12.2781866 14.1835249 12.3877132 14.2030529 12.4921455 14.5596512 12.3571476 14.8551183 12.1516791 15.0707753 11.9580972 14.9858709 11.855363 14.9162494 11.7840433 14.9162494 11.7840433 14.9162494 11.7840433 15.201528 11.758572 15.3373749 11.6541397 15.3526577 11.6575359 15.35945 11.6507435 15.3738838 11.6524416 15.4519958 11.563292 15.4986932 11.5004628 15.4986932 11.5004628L15.6014274 11.5055571C15.6014274 11.5055571 15.5598243 11.561594 15.4902027 11.6464983 15.5632205 11.6295174 15.6226535 11.601499 15.6642566 11.5598959 15.6642566 11.5598959 15.7669909 11.5845181 15.7839718 11.4919724 15.8001036 11.3994267 15.8068959 11.3425408 15.7321801 11.191411 15.476618 11.1752792 15.103888 11.0241495 14.831345 11.0521679 14.8848348 10.9647164 14.8483259 10.8322657 14.8483259 10.8322657 14.8483259 10.8322657 14.7404974 10.8602841 14.6173861 10.9511317 14.6292727 10.9579241 14.6428574 10.9613203 14.6513478 10.9732069 14.5825753 11.1786754 14.3006929 11.4469731 14.1750345 11.7704586"/>
      <polygon fill="#9C877D" points="14.062 12.606 14.059 12.606 14.059 12.627"/>
      <path fill="#9C877D" d="M16.2645303 12.5300129C16.1320796 12.728689 15.7236897 12.942648 15.7236897 12.942648 15.7236897 12.942648 15.5385982 12.6658598 15.4137888 12.6064268 15.47492 12.4901078 15.2864323 12.2218101 15.1251141 12.0222849 14.8865329 12.2345458 14.5732358 12.4502028 14.2149395 12.5580313 14.2200338 12.5928421 14.2200338 12.6259548 14.2166376 12.6463318 14.2013548 12.7142553 14.1003187 12.8237819 14.0527722 12.8730264 14.0340933 12.9562327 14.0060748 13.0241561 13.9678679 13.0852873 13.9780564 13.0852873 14.4288985 13.0818911 14.6921019 13.3968862 14.7243656 13.6329203 14.8254017 13.9046142 14.9196456 14.1151769 14.9612487 14.0956489 15.0011537 14.0718757 15.045304 14.0591401 15.4604862 14.1024413 15.8068959 13.9326326 16.102363 13.8519735 16.2050973 13.9343307 16.2679265 13.9275383 16.3918868 13.9114065 16.8002767 14.1270635 16.8036729 14.5948865 16.9081052 14.3079098 17.0125376 14.6628099 17.2859296 14.6161125 17.2859296 14.6161125L16.9845191 14.1024413C16.9845191 14.1024413 16.6474489 13.8400869 16.4190562 13.6456559 16.1983049 13.5132051 15.7916131 13.5700911 15.7916131 13.5700911 15.7916131 13.5700911 16.2263234 13.2924539 16.23821 12.8984977 16.6805616 12.7889711 17.000651 13.1455693 17.1466864 13.1302866 17.2697977 13.373962 17.5533782 13.1914177 17.5533782 13.1914177 17.5533782 13.1914177 17.3156461 12.9961377 17.078763 12.8034049 16.8860301 12.7787826 16.4997154 12.5300129 16.2645303 12.5300129M13.6725706 16.2528135C13.7073814 16.280832 13.7438902 16.3054542 13.7837953 16.341114 13.876341 16.3173408 13.8831334 16.4022452 13.9646415 16.4353579 14.0436026 16.4701686 14.2991646 16.4531878 14.2991646 16.4531878 14.2991646 16.4531878 14.1802986 16.1551735 14.0588853 16.0354584 14.0554892 16.0320622 14.0537911 16.026968 14.0486968 16.0235718 14.0436026 16.0176285 14.0376593 16.0193266 14.0308669 16.0142323 13.9111518 15.9225356 13.7404941 15.9972515 13.7404941 15.9972515 13.6937967 15.9709311 13.6479483 15.9463089 13.6046471 15.9208376 13.4484231 15.831688 13.3125762 15.7433875 13.2599355 15.5515037 13.3974805 15.4886745 13.523139 15.1550004 13.4721964 15.0386814 13.4671021 15.0327381 13.4704983 15.0157573 13.465404 15.010663 13.5961567 14.9724561 13.5783268 14.7517048 13.6131376 14.6065183L13.8517188 14.5980279C13.8517188 14.5980279 13.8729448 14.6090655 13.9162461 14.6124617 13.9714339 14.6158578 14.0673758 14.6065183 14.2380335 14.5301044 14.3789747 14.4664262 14.502086 14.3772766 14.6226502 14.2923723 14.4672752 14.1038846 14.3560505 13.8831334 14.384069 13.6292694 14.1183184 13.6725706 13.4390837 13.5129504 13.269275 13.465404 13.2658788 13.465404 13.2633317 13.4603097 13.2599355 13.4603097 13.0773912 13.503611 12.8812621 13.5452141 12.6961707 13.6114395L12.9415442 13.7685125 13.2183324 14.1752043 12.7140006 14.0087918 12.4074959 13.7455883C12.2062726 13.8695487 12.0458034 14.0588853 11.9575029 14.3560505 11.9549558 14.3704843 11.9481634 14.3789747 11.9464653 14.3925594 11.9549558 14.4553886 11.9744838 14.5148217 11.9974079 14.5742547 12.15533 14.9495319 12.6197568 15.224622 12.9160729 15.2781117 12.976355 15.4767878 12.780226 15.791783 12.83881 15.9114981 12.8829602 16.0057419 13.0918249 15.8979134 13.4704983 16.1152685 13.5316294 16.1500793 13.5995529 16.1984747 13.6725706 16.2528135M11.6942145 12.9909585C11.6279892 12.9714305 11.5379906 12.9476573 11.5201606 12.9714305 11.488746 13.0087885 11.6415738 13.1667105 11.6415738 13.1667105L11.6424229 13.1667105C11.6398758 13.1531258 11.6330834 13.1454844 11.6347815 13.1285036 11.6364796 13.0902966 11.6712904 13.0308636 11.6942145 12.9909585"/>
      <path fill="#9C877D" d="M13.2182475 14.1750345L12.9414593 13.7683427 12.6960858 13.6112697 12.1501509 13.2580676 12.0329829 13.1816537C12.0278886 13.1816537 12.0177001 13.1748613 12.0143039 13.1765594 12.0024173 13.186748 12.0227943 13.3276892 12.0143039 13.3540095 12.0092096 13.3658961 11.9828893 13.3675942 11.9599651 13.3709904L12.0177001 13.4091973 12.407411 13.7454185 12.7139157 14.009471 13.2182475 14.1750345zM15.6791149 14.897995C15.661285 14.9294096 15.4931744 14.9149758 15.3624217 14.8733727 15.3106301 14.9311076 15.2758193 14.9710127 15.2596874 14.9905407 15.4702502 15.1170482 15.6409079 15.2681779 15.7572269 15.3972325 15.7835472 15.1119539 15.8743949 14.5312082 16.1868429 14.2629105 16.0255246 14.2213074 15.720718 14.4980955 15.4999667 14.7239411 15.6060972 14.8113925 15.6893034 14.880165 15.6791149 14.897995M13.67758 10.7755496C13.6928627 10.763663 13.7106926 10.7560216 13.7293716 10.7475311 13.7106926 10.7560216 13.6928627 10.7619649 13.67758 10.7755496M13.5233088 11.259759C13.5216107 11.2665514 13.5020827 11.279287 13.4867999 11.2877775 13.4519891 11.317494 13.4052917 11.3463615 13.4052917 11.3463615 13.4052917 11.3463615 13.372179 11.3327768 13.3263307 11.3225882 13.3475568 11.3293806 13.3687829 11.3344748 13.3891599 11.3506067 13.5301011 11.5000383 13.7440601 11.6409795 13.7440601 11.6409795L13.9478305 11.7275819 13.7567957 11.629942C13.7567957 11.629942 13.8068893 11.6061687 13.8366058 11.5764522 13.8960388 11.6027726 14.0072635 11.4822084 14.0259425 11.4473976 14.0819793 11.4686237 14.1320729 11.4686237 14.1431105 11.4372091 14.1448085 11.4304168 14.1482047 11.4108888 14.1516009 11.395606 14.1566951 11.3506067 14.1668837 11.2767399 14.1830155 11.2266463 14.2263167 11.1901375 14.2432976 11.1400439 14.2449957 11.0907994 14.0709418 11.1324025 13.7703804 10.9481601 13.5385915 11.0008008 13.5267049 11.0356116 13.5233088 11.0653281 13.5233088 11.0704223 13.5513272 11.1782509 13.5462329 11.2334387 13.5233088 11.259759M14.0539609 10.7622196C14.055659 10.7656158 14.0624513 10.7656158 14.0658475 10.7673138 14.0624513 10.7656158 14.055659 10.7656158 14.0539609 10.7622196M14.2480522 11.0624413C14.2480522 11.0692337 14.2514484 11.0802712 14.2480522 11.0853655L14.2480522 11.0624413zM13.8417 10.7125505C13.8552847 10.7125505 13.8646242 10.7091544 13.8765108 10.7091544 13.8731146 10.7091544 13.8697185 10.7057582 13.8663223 10.7057582 13.8586809 10.7057582 13.8535867 10.7125505 13.8417 10.7125505"/>
      <path fill="#9C877D" d="M13.967783 13.085542L13.9643868 13.085542 13.9711792 12.8834696C13.7674087 12.7009253 13.5746759 12.6380961 13.4252442 12.3893264 13.3394909 12.2713093 13.4074143 11.991125 13.2562846 11.8051845 13.1051549 11.619244 12.9446857 11.4935856 12.9761003 11.3806628 12.9828926 11.3772666 12.9879869 11.3738705 12.9930812 11.3704743 12.8181782 11.443492 12.6424262 11.5351887 12.6330867 11.6447153 12.5430881 11.659149 12.4021469 11.7737699 12.3758266 11.8680137 12.2977146 11.8552781 12.1983765 11.9181073 12.0328131 12.186405 11.8570611 12.2662151 11.7823452 12.518381 11.7475345 12.7111138 11.7220632 12.8452627 11.719516 12.9513931 11.719516 12.9513931 11.719516 12.9513931 11.7076294 12.9675249 11.6940447 12.9912982 11.6711206 13.0312032 11.6363098 13.0906362 11.6346117 13.1288432 11.6329136 13.144975 11.639706 13.1534655 11.6431021 13.1670501 11.6524416 13.2112004 11.6711206 13.2443131 11.7008371 13.2366717 11.7059313 13.2765767 11.758572 13.3130856 11.7857414 13.301199 11.7908357 13.341104 11.8502687 13.3657263 11.8850795 13.358934 11.8884757 13.3742167 11.9249845 13.3776129 11.9597953 13.3708206 11.9827195 13.3674244 12.0090398 13.3657263 12.0141341 13.3538397 12.0226245 13.3275194 12.0030965 13.1865781 12.0141341 13.1763896 12.0175303 13.1746915 12.0277188 13.1814839 12.0328131 13.1814839 12.0608315 13.1916724 12.1270569 13.2366717 12.1465849 13.2179928 12.1754523 13.2001628 12.1440377 13.1381827 12.128755 13.1135604 12.1151703 13.0906362 12.0345111 13.0685611 12.0141341 12.9675249 11.9963042 12.8664888 12.0676238 12.7289437 12.0676238 12.7289437 12.0676238 12.7289437 12.1754523 12.6380961 12.2747904 12.5200791 12.344412 12.4385709 12.4106374 12.3477233 12.4259202 12.2577247 12.6678975 12.2814979 12.795254 12.0709351 12.8648756 11.9894269 12.8232725 12.0420676 12.795254 12.1133873 12.7774241 12.1881031 12.7290287 12.3791379 12.7570471 12.6083796 12.8945921 12.7187552 12.9166672 12.9462989 13.1051549 13.4022352 13.2596808 13.4599701 13.263077 13.4599701 13.2664731 13.4650644 13.2698693 13.4650644 13.4388289 13.5134599 14.1189127 13.672231 14.3838143 13.6297788 14.3557958 13.8827937 14.4670205 14.103545 14.6223955 14.2928817 14.730224 14.4236344 14.8567314 14.5399533 14.985786 14.6324991 14.9823899 14.6724041 14.9823899 14.7207996 15.0172006 14.7666479 15.0520114 14.8150434 15.220122 14.8201377 15.2243672 14.7955154 15.2481405 14.8286281 15.3024792 14.8515523 15.3627613 14.8727784 15.493514 14.9143815 15.6607756 14.9296643 15.6794545 14.8982497 15.688794 14.8795707 15.6064368 14.8116472 15.5003063 14.7241958 15.33729 14.5942921 15.1105954 14.4287287 15.0358796 14.357409 15.004465 14.297976 14.9628619 14.2113735 14.9195607 14.1154316 14.8253168 13.9048689 14.7242807 13.633175 14.6928661 13.3971409 14.4288136 13.0821458 13.9779715 13.085542 13.967783 13.085542M13.0987871 11.2646835C13.1531258 11.1950619 13.2626524 11.1356289 13.3704809 11.0838372 13.4290649 11.0541207 13.4867999 11.0278004 13.5351954 11.000631L13.5385915 11.000631C13.7703804 10.9479903 14.0709418 11.1322327 14.2449957 11.0906296L14.2483918 11.0906296 14.2483918 11.0855353C14.250939 11.0804411 14.2483918 11.0694035 14.2483918 11.0626111 14.250939 10.9997819 14.211883 10.8537465 14.0658475 10.767144 14.0624513 10.765446 14.055659 10.765446 14.0539609 10.7620498 14.0089616 10.7374275 13.9614152 10.7145033 13.8934917 10.7060129 13.8883974 10.7060129 13.8833032 10.7094091 13.8765108 10.7094091 13.8646242 10.7094091 13.8552847 10.7128053 13.8417 10.7128053 13.801795 10.7170505 13.76189 10.727239 13.7287773 10.747616 13.7109474 10.7552574 13.6922684 10.7637479 13.6778347 10.7756345 13.6192507 10.8172376 13.586138 10.8630859 13.586138 10.8630859 13.586138 10.8630859 13.4800075 10.8206338 13.3611415 10.7968606 13.2626524 10.7790306 13.1582201 10.7705402 13.0953909 10.8172376 12.7370946 10.667806 12.6445488 10.9182738 12.6445488 10.9182738 12.6445488 10.9182738 12.3787982 10.902991 12.3040824 11.0804411 12.529928 11.0736487 12.7022838 11.1619492 12.8585078 11.2196842 12.940865 11.2510988 13.0206751 11.2765701 13.0953909 11.2680797 13.0987871 11.2663816 13.0987871 11.2663816 13.0987871 11.2646835"/>
      <path fill="#9C877D" d="M14.030782,12.8931487 C14.0273858,12.8931487 14.0256878,12.898243 14.0256878,12.898243 L14.0375744,12.7955088 L14.05031,12.604474 C13.7387111,12.5866441 13.8669166,11.9897666 13.8669166,11.9897666 L13.9051236,11.979578 C13.8949351,11.9625972 13.8796523,11.939673 13.8762561,11.9167488 C13.8448415,11.8997679 13.7786161,11.8853342 13.7641824,11.8403349 C13.7106926,11.8335426 13.6758819,11.8072222 13.6656933,11.7622229 C13.6147507,11.7741095 13.5629591,11.7027899 13.5629591,11.7027899 C13.5629591,11.7027899 13.6928627,11.6790167 13.7293716,11.7087332 C13.7735219,11.724016 13.815125,11.7376007 13.8287097,11.7775057 C13.8762561,11.7902413 13.9110669,11.8148636 13.9110669,11.8530706 C13.9280478,11.8547686 13.9399344,11.8751457 13.9492738,11.8912775 L13.9543681,11.7291102 L13.9475758,11.7274121 L13.7438053,11.6408097 C13.7438053,11.6408097 13.5298464,11.4998685 13.3889052,11.3512859 C13.3693772,11.334305 13.3473021,11.3292108 13.326076,11.3224184 C13.2980575,11.3113809 13.2700391,11.3045885 13.2394736,11.3045885 C13.1435316,11.3011923 13.0492878,11.3393993 12.9924019,11.3708139 C12.9873077,11.3742101 12.9830624,11.3776063 12.9762701,11.3810024 C12.9448555,11.4939252 13.1053247,11.6195836 13.2564544,11.8055241 C13.4075841,11.9914646 13.3396607,12.271649 13.4254141,12.388817 C13.5748457,12.6375867 13.7667295,12.7004159 13.971349,12.8829602 C13.990877,12.9016392 14.0095559,12.9143748 14.0273858,12.9330538 L14.030782,12.8931487 Z"/>
      <path fill="#9C877D" d="M13.9262648,12.0009739 C13.9126801,12.1155948 13.8795674,12.529928 14.0536213,12.5367203 L14.0536213,12.5231356 L13.9415475,12.1300285 L13.9457928,11.9890873 L13.9330571,12.0111624 C13.9330571,12.0111624 13.9279629,12.0043701 13.9262648,12.0009739"/>
      <path fill="#9C877D" d="M13.828455,11.7771661 C13.8148703,11.737261 13.7741162,11.7245254 13.7291169,11.7092426 C13.692608,11.6795261 13.5635534,11.7024503 13.5635534,11.7024503 C13.5635534,11.7024503 13.614496,11.7737699 13.6662877,11.7618833 C13.6756272,11.8068826 13.7104379,11.8332029 13.7639277,11.8399953 C13.7783614,11.8849946 13.8454358,11.9002774 13.8768504,11.9164092 C13.8802466,11.9393334 13.8946804,11.9631066 13.9048689,11.9792384 L13.927793,11.9724461 C13.927793,11.9724461 13.927793,11.9826346 13.926095,12.0013135 C13.927793,12.0047097 13.9328873,12.010653 13.9328873,12.010653 L13.946472,11.9894269 L13.9498682,11.8917869 C13.9396797,11.8748061 13.927793,11.8552781 13.9116612,11.85358 C13.9116612,11.815373 13.8768504,11.7907508 13.828455,11.7771661"/>
      <path fill="#9C877D" d="M14.1054129 11.5433395L13.9559813 11.6664508 13.9542832 11.72928 13.9491889 11.8914473 13.9466418 11.9890873 13.9415475 12.1300285 14.0536213 12.5231356 14.0587155 12.5367203C14.067206 12.5367203 14.0756964 12.5418146 14.0858849 12.5401165 14.1249409 12.5248337 14.1631479 12.5070038 14.2030529 12.491721 14.1835249 12.3872887 14.1521103 12.2777621 14.1521103 12.2777621 14.1521103 12.2777621 14.0536213 12.1054063 14.1699402 11.787015 14.1716383 11.7819207 14.1716383 11.7785246 14.1733364 11.7734303L14.1750345 11.7734303C14.3006929 11.4473976 14.5825753 11.1782509 14.6513478 10.9727824 14.6428574 10.9608957 14.6292727 10.9583486 14.6182351 10.9515563 14.5452174 10.9099531 14.4467284 10.9515563 14.4467284 10.9515563L14.4322946 10.9795747 14.2149395 11.3523048 14.1054129 11.5433395zM14.0589703 12.6278227L14.0377442 12.7950842 14.0258576 12.8978185C14.0258576 12.8978185 14.0275556 12.8927242 14.0309518 12.8927242 14.034348 12.8901771 14.0394423 12.8867809 14.0521779 12.8731962 14.1005734 12.8231027 14.2016095 12.7144251 14.2168923 12.6456526 14.2194395 12.6261246 14.2194395 12.5930119 14.2151942 12.5582011 14.1634026 12.575182 14.1150071 12.5964081 14.0623664 12.6065966L14.0589703 12.6278227z"/>
      <path fill="#9C877D" d="M15.4983536 11.5002081C15.4983536 11.5002081 15.4516562 11.5630373 15.3743932 11.6530359 15.3039226 11.7353931 15.2011884 11.8432217 15.0704357 11.9578425 14.8547786 12.1522735 14.5601606 12.357742 14.2035623 12.4918908 14.1636573 12.5071736 14.1254504 12.5250035 14.0855453 12.5402863 14.0753568 12.5419844 14.0668664 12.5368901 14.059225 12.5368901L14.0541307 12.5368901C13.8800768 12.5300978 13.9131895 12.1157646 13.9259251 12.0011437 13.9276232 11.9824648 13.9276232 11.9731253 13.9276232 11.9731253L13.9046991 11.9790686 13.8664921 11.9892571C13.8664921 11.9892571 13.7391356 12.5861346 14.0507345 12.6048136 14.0541307 12.6048136 14.0541307 12.6065117 14.0558288 12.6065117L14.059225 12.6065117 14.0626211 12.6065117C14.1152618 12.5963232 14.1636573 12.5750971 14.2145999 12.5581162 14.5728962 12.4502877 14.8861932 12.2346307 15.1256235 12.0223698 15.2826965 11.8814286 15.409204 11.7438836 15.4898631 11.6462436 15.5594847 11.5613392 15.6010878 11.5053024 15.6010878 11.5053024L15.4983536 11.5002081zM15.2596025 14.9908803C14.936117 14.7956003 14.52518 14.6758852 14.0658475 14.8796556 14.5548965 14.828713 14.565085 15.0970107 14.565085 15.0970107 14.565085 15.0970107 14.8945139 15.0817279 14.8316847 15.3211582 15.0244175 15.2914417 15.0303608 15.5020044 15.0303608 15.5020044 15.0303608 15.5020044 15.1933772 15.4255905 15.2196975 15.5699279 15.3292241 15.5096458 15.4090342 15.6395495 15.445543 15.7159634 15.4582787 15.7456799 15.465071 15.7652079 15.465071 15.7652079 15.465071 15.7652079 15.5083723 15.7686041 15.5550696 15.7915282 15.5796919 15.8017168 15.6060123 15.8203957 15.6297855 15.845018 15.6459173 15.8594517 15.6612001 15.8798288 15.6722376 15.904451 15.7800662 15.9638841 15.8615743 15.904451 15.8615743 15.904451L15.9464787 15.6208705C15.9464787 15.6208705 15.9244035 15.591154 15.8929889 15.5478528 15.8615743 15.5096458 15.816575 15.4570051 15.757142 15.3975721 15.640823 15.2676685 15.4701653 15.1165387 15.2596025 14.9908803M16.3590289 16.00744L16.2011068 16.2298894C16.2231819 16.2443231 16.2393137 16.2511154 16.2579927 16.2647001 16.8361913 16.6739391 17.0476031 16.20272 17.0476031 16.20272 17.0476031 16.20272 16.9610006 16.1814939 16.967793 16.1016838 16.9049638 16.1314003 16.8667568 16.0142323 16.8667568 16.0142323 16.8667568 16.0142323 16.8548702 16.28253 16.7292118 16.280832 16.6689297 16.2791339 16.5865725 16.2213989 16.5135548 16.1568716 16.4303485 16.0838539 16.3590289 16.00744 16.3590289 16.00744M14.2994193 16.5812235C14.330834 16.6024496 14.5048879 16.5481108 14.5048879 16.5481108 14.5048879 16.5481108 14.7757327 16.5166962 14.8563918 16.4351881 14.9115796 16.5633936 15.03554 16.5727331 15.03554 16.5727331 15.03554 16.5727331 15.0457285 16.5183943 15.0304457 16.4886778 15.0423323 16.4903759 15.0525209 16.4886778 15.0669546 16.4886778 15.1068596 16.4869797 15.1399723 16.4784893 15.1399723 16.4784893 15.1399723 16.4784893 15.1747831 16.3808493 15.0966711 16.3409442 15.1051615 16.2679265 15.1416704 16.2033992 15.0109177 16.2127387 14.9659184 16.2611342 14.8878064 16.3112277 14.8130906 16.3494347 14.7307334 16.3901888 14.6492252 16.4156601 14.6161125 16.3918868 14.5829998 16.3706608 14.6560176 16.3205672 14.7154506 16.2509456 14.7655442 16.1949088 14.8071473 16.1286834 14.7723365 16.0488733L14.4615866 16.1100044 14.4225306 16.2662284 14.3758333 16.4615084C14.3758333 16.4615084 14.2680047 16.5599974 14.2994193 16.5812235"/>
      <path fill="#000" d="M14.5099821 9.52355015L14.4870579 9.51845589C14.4615866 9.57364371 14.4352663 9.61609588 14.4123421 9.6398691 14.3868708 9.66449136 14.3622486 9.68232127 14.332532 9.6908117 14.3045136 9.70100022 14.25442 9.70269831 14.1847985 9.70100022L14.1185731 9.69760405C14.0591401 9.69590596 14.0260274 9.69250979 14.0141408 9.68741553 14.0005561 9.68232127 13.9929147 9.67637797 13.9895185 9.66618944 13.9844242 9.65090666 13.97933 9.62458632 13.9827262 9.58807745L14.0022542 9.0141241C14.0056503 8.95978532 14.0107446 8.92667263 14.019235 8.91308794 14.0277255 8.8986542 14.038763 8.88846568 14.0591401 8.87827716 14.0803661 8.87148481 14.1134788 8.86723959 14.1635724 8.86893768L14.1635724 8.84346638 13.7500883 8.82903264 13.7500883 8.8536549 13.78405 8.85535299C13.8188608 8.85705107 13.843483 8.86723959 13.8613129 8.88846568 13.8698034 8.90374846 13.8765957 8.93855924 13.8765957 8.9945961L13.8519735 9.58468128C13.8502754 9.63647292 13.843483 9.66958562 13.8332945 9.68232127 13.8154646 9.70779257 13.7882952 9.71798109 13.7500883 9.71628301L13.7152775 9.71458492 13.7152775 9.74090526 14.4216816 9.76722561 14.5099821 9.52355015zM9.78556495 14.9510602L9.79405538 14.9841729C9.79745156 15.0053989 9.79745156 15.025776 9.79405538 15.0470021 9.78726303 15.0639829 9.7787726 15.0750205 9.77028217 15.0818129 9.75754652 15.0920014 9.72783 15.1021899 9.68113261 15.1098313L9.40434446 15.1803019 9.36443942 15.0155875C9.35934515 14.987569 9.35934515 14.9629468 9.36104324 14.9459659 9.3661375 14.9315322 9.37462794 14.9145513 9.39075976 14.9026647 9.40264637 14.889929 9.42726863 14.8797405 9.46207941 14.8712501L9.45528706 14.8483259 9.15727282 14.9179475 9.160669 14.9425697C9.20991351 14.9374755 9.24642238 14.9408716 9.26679942 14.9544563 9.28632742 14.968041 9.3016102 14.9943614 9.31094968 15.0291722L9.34915663 15.1913395 8.99935075 15.2745457 8.9535024 15.0784167C8.94331388 15.0325683 8.93991771 14.9977576 8.94331388 14.9756824 8.94671006 14.9493621 8.95435145 14.928136 8.97133232 14.907759 8.98831318 14.8865329 9.01463353 14.8678539 9.05284048 14.8466278L9.04774622 14.8237037 8.85501337 14.8797405 9.01293544 15.5394473 9.0375577 15.5335039 9.02736918 15.5012403C9.02482205 15.4800142 9.02482205 15.4587881 9.03076535 15.4384111 9.03416153 15.4222793 9.04265196 15.4120907 9.0511424 15.4036003 9.06557613 15.3951099 9.09444361 15.3840723 9.13859387 15.3755819L9.71084913 15.2363388C9.76603695 15.2244521 9.80084773 15.2227541 9.81697955 15.2295464 9.84160181 15.2397349 9.86028077 15.2643572 9.8687712 15.3025641L9.87471451 15.3339787 9.90018581 15.3271864 9.80848912 14.9459659 9.78556495 14.9510602zM8.92658773 13.5166862C9.0080959 13.4606494 9.12526389 13.43348 9.27978979 13.4436685 9.42582525 13.4521589 9.52855951 13.4852716 9.59308681 13.5447047 9.65591602 13.6049867 9.68478349 13.6771554 9.67968923 13.7620598 9.67799115 13.8435679 9.64318037 13.9063972 9.57695498 13.9530945 9.49374873 14.0108295 9.37912787 14.0354518 9.22969623 14.0295084 9.0845098 14.021018 8.97837938 13.9828111 8.90536164 13.9165857 8.84507956 13.8630959 8.8204573 13.7968706 8.82555156 13.7153624 8.82894774 13.629609 8.86375851 13.5616855 8.92658773 13.5166862M9.22375292 14.1814872C9.36469413 14.1899777 9.48186212 14.1534688 9.57695498 14.0736587 9.6711988 13.9929996 9.72129236 13.8911144 9.72723567 13.7654559 9.73402801 13.6406466 9.69582106 13.531969 9.60836959 13.4385742 9.52176716 13.3460285 9.40884439 13.2959349 9.27129935 13.2891426 9.13715049 13.2798031 9.02083155 13.3180101 8.92658773 13.4003673 8.83234391 13.4818754 8.78225035 13.5829116 8.775458 13.6992306 8.76866565 13.8180966 8.80347643 13.923378 8.87649417 14.0142257 8.96479468 14.1169599 9.07771745 14.1746949 9.22375292 14.1814872M18.2527353 11.2547497C18.2807537 11.2530516 18.3087722 11.2666363 18.3325454 11.2980509L18.3503753 11.3226731 18.3707523 11.3090884 18.1814156 11.0526773 18.1618876 11.0688092 18.1797176 11.0942805C18.2026417 11.1222989 18.2094341 11.1486192 18.2026417 11.1732415 18.2000946 11.1936185 18.1780195 11.2182408 18.129624 11.2530516L17.7084985 11.5646505 17.9258536 10.7088148 17.7764219 10.5101386 17.758592 10.5254214C17.7738748 10.5466475 17.7832143 10.5653264 17.7900066 10.576364 17.796799 10.6026843 17.8035913 10.6247595 17.8035913 10.6408913 17.8035913 10.6578722 17.7984971 10.6875887 17.7900066 10.7257956L17.2780334 11.1019219C17.2398265 11.1333365 17.2092609 11.1503173 17.1897329 11.1503173 17.1634126 11.1503173 17.1387903 11.1350345 17.113319 11.105318L17.0954891 11.0806958 17.0751121 11.0942805 17.2661468 11.3489935 17.2839768 11.3362578 17.2661468 11.3073904C17.2449208 11.2793719 17.2364303 11.2547497 17.2415246 11.2284293 17.2449208 11.2097504 17.269543 11.1851281 17.3145423 11.1503173L17.7670825 10.8166433 17.5344446 11.7370063 17.5480293 11.7590815 18.1678309 11.2980509C18.2094341 11.2700325 18.2374525 11.2547497 18.2527353 11.2547497M19.0139027 14.8631842C18.9909785 14.8912026 18.9706015 14.9098816 18.9595639 14.9149758 18.9459792 14.9243153 18.9128665 14.9379 18.862773 14.9523337L18.4289118 15.0983692 18.2191981 15.0440304C18.1716516 15.0304457 18.140237 15.0194082 18.1300485 15.0041254 18.1122186 14.9828993 18.1054263 14.9523337 18.1164638 14.9149758L18.1232562 14.8827122 18.0986339 14.880165 18.0009939 15.2528951 18.0256162 15.2596874 18.0341066 15.2299709C18.041748 15.1951601 18.0587289 15.1713869 18.079955 15.1620475 18.0986339 15.1518589 18.1334447 15.1552551 18.1860854 15.1679908L18.4085348 15.2282728 18.6887191 15.5262871C18.7218318 15.564494 18.7490012 15.5942106 18.7617368 15.6179838 18.7770196 15.6392099 18.784661 15.6638321 18.7880572 15.6876053 18.7931514 15.7122276 18.7948495 15.7292085 18.7914533 15.7436422L18.7880572 15.758925 18.8118304 15.7648683 18.8924895 15.4566655 18.8678672 15.4498732C18.8610749 15.4736464 18.8534335 15.4897782 18.8449431 15.5016648 18.8364526 15.5101553 18.8262641 15.5177966 18.8152265 15.5211928 18.8067361 15.5262871 18.7931514 15.5262871 18.7821139 15.5228909 18.7617368 15.5169476 18.7354165 15.4965706 18.7006057 15.4600617L18.4730621 15.2146881 18.8084342 15.1034635C18.8534335 15.0890297 18.8848481 15.0839355 18.902678 15.0890297 18.921357 15.0924259 18.9340926 15.1034635 18.9374888 15.1255386 18.9425831 15.1450666 18.9425831 15.1645946 18.9374888 15.1849716L18.9340926 15.2044996 18.9561678 15.211292 19.0572039 14.8334677 19.0317326 14.8266753C19.0257893 14.8436562 19.0223931 14.8546937 19.0139027 14.8631842M18.9940351 13.8085024C18.9592243 13.8450113 18.9125269 13.8662374 18.8564901 13.8696336 18.7987551 13.8713317 18.7520577 13.8518037 18.7104546 13.8118986 18.6705495 13.7685974 18.6476254 13.702372 18.6442292 13.6174677 18.6425311 13.6132225 18.6425311 13.6081282 18.6425311 13.6013359L18.6425311 13.5792607 19.0220535 13.5580346C19.032242 13.6030339 19.0373363 13.6378447 19.0373363 13.6641651 19.0424306 13.7219 19.0254497 13.7719936 18.9940351 13.8085024L18.9940351 13.8085024zM19.0466758 13.2973783L19.0466758 13.3321891C19.050072 13.3669999 19.0407325 13.3941693 19.0220535 13.4103011 19.0076198 13.4255839 18.9745071 13.4323762 18.9159231 13.4340743L18.3292341 13.4654889C18.2757444 13.4688851 18.2426317 13.4654889 18.2281979 13.4586966 18.2027266 13.4400176 18.1882929 13.4153953 18.1848967 13.3754903L18.1848967 13.3423776 18.1585764 13.3423776 18.1798025 13.7337866 18.2061228 13.7320885 18.2027266 13.6972778C18.2027266 13.662467 18.209519 13.6378447 18.2281979 13.6191658 18.2409336 13.6064301 18.2774424 13.5979397 18.3360264 13.5945435L18.5992299 13.5809588C18.5975318 13.5894492 18.5992299 13.5945435 18.5992299 13.6013359L18.5992299 13.6191658C18.5992299 13.6344485 18.600928 13.6522785 18.6043242 13.6777498L18.1933872 14.0071786 18.2061228 14.250005 18.2315941 14.250005C18.2341412 14.1982134 18.2460278 14.1583083 18.2630087 14.1251956 18.2808386 14.093781 18.3190456 14.0555741 18.3767805 14.0088767L18.6272483 13.8085024C18.6510215 13.8832183 18.6824362 13.937557 18.7240393 13.9723678 18.7664915 14.0071786 18.816585 14.0224614 18.87432 14.0207633 18.9278097 14.0173671 18.9711109 13.9978391 19.0059217 13.9664245 19.0424306 13.9316137 19.0670528 13.8917087 19.0789394 13.8433132 19.089977 13.7966158 19.0950713 13.7235981 19.0882789 13.6293543L19.0721471 13.2956802 19.0466758 13.2973783zM18.0305406 12.7555188L18.0203521 12.7258023C18.0076165 12.6926896 18.0110126 12.6646712 18.0220502 12.642596 18.0305406 12.6247661 18.0602571 12.6094833 18.115445 12.5899553L18.7734536 12.3573174 18.8150567 12.4787307C18.8260943 12.5152395 18.8294905 12.544956 18.8260943 12.5712764 18.8235472 12.5967477 18.8116606 12.6213699 18.7912835 12.642596 18.780246 12.6561807 18.7556237 12.6723126 18.721662 12.6875953L18.7301524 12.7122176 18.9296776 12.6315585 18.682606 11.9277015 18.4745903 11.9913797 18.4830808 12.0143039C18.5246839 12.0041154 18.5594947 12.0007192 18.5875131 12.0109077 18.6155315 12.016002 18.6376067 12.0295867 18.6537385 12.0491147 18.663927 12.0643975 18.6792098 12.0924159 18.6902474 12.134019L18.7284543 12.2350552 18.0704457 12.466844C18.0237483 12.485523 17.9906356 12.4914663 17.9728057 12.485523 17.9473344 12.4804287 17.9261083 12.4566555 17.9125236 12.4201467L17.901486 12.3921282 17.8777128 12.3989206 18.0076165 12.7657073 18.0305406 12.7555188zM11.2630703 10.5019029C11.4006153 10.5452041 11.5432546 10.5197328 11.6943843 10.425489 11.745327 10.3889801 11.7869301 10.3541693 11.8217409 10.3142643 11.8582497 10.2777554 11.8879662 10.2336052 11.9168337 10.1835116L11.765704 9.94662848C11.7393836 9.90502536 11.7241009 9.87700692 11.7241009 9.85662988 11.7224028 9.83200762 11.7359875 9.80908345 11.7640059 9.78870641L11.7784396 9.77851789 11.765704 9.7572918 11.4702369 9.95002466 11.4838216 9.97125074C11.5135381 9.95342083 11.5381604 9.94153422 11.5551412 9.93983614 11.5678769 9.93643996 11.5831597 9.93983614 11.5984424 9.95002466 11.6111781 9.95596796 11.6315551 9.98143926 11.6561774 10.0196462L11.7988167 10.2395485C11.785232 10.270114 11.7640059 10.2964344 11.7436289 10.3210566 11.7224028 10.3456789 11.6960824 10.3660559 11.668064 10.3838858 11.6213666 10.4153004 11.5644807 10.4322813 11.5016515 10.4356775 11.4388223 10.4356775 11.3725969 10.4153004 11.3029753 10.3762445 11.2367499 10.3312451 11.179864 10.2743592 11.1306195 10.2013415 11.0737336 10.1104939 11.0440171 10.0196462 11.0440171 9.92794953 11.0457152 9.81672484 11.0941107 9.72927337 11.1917506 9.66644416 11.2647684 9.61974677 11.3377861 9.60446399 11.4091058 9.61974677 11.4634445 9.6282372 11.5169343 9.65795372 11.5746692 9.70465111L11.5967444 9.69106642 11.4192943 9.46352278 11.3972192 9.47710748C11.4091058 9.49493739 11.4142 9.51191826 11.4142 9.52210678 11.4142 9.52974817 11.4091058 9.5382386 11.4006153 9.54333286 11.3955211 9.54672904 11.3793892 9.55352138 11.3522199 9.55861564 11.2995792 9.5713513 11.2630703 9.58153982 11.2367499 9.59172834 11.2112786 9.6027659 11.1832602 9.6163506 11.1569399 9.63502955 11.0788279 9.68257598 11.0244891 9.74200902 10.9879802 9.81332867 10.9463771 9.89483684 10.9310943 9.98653352 10.9395848 10.0858716 10.9463771 10.1665307 10.9726974 10.2429446 11.0193948 10.30917 11.0788279 10.4042629 11.158638 10.4670921 11.2630703 10.5019029M12.632832 9.20677205L12.8748094 9.52176716 12.573399 9.60327533 12.632832 9.20677205zM12.6642466 9.94628887L12.6574543 9.92336469C12.613304 9.93185513 12.5844366 9.93185513 12.5700028 9.92506278 12.553022 9.91827043 12.5436825 9.90808191 12.5419844 9.89364817 12.535192 9.87666731 12.535192 9.84864887 12.5419844 9.81383809L12.5666066 9.65761411 12.906224 9.56506837 12.9928264 9.67968923C13.0208449 9.71450001 13.0378257 9.74421653 13.042071 9.76204645 13.0471652 9.77563114 13.043769 9.78921583 13.0361277 9.80534766 13.024241 9.81723427 13.0013169 9.82996992 12.9690532 9.83846035L12.9758456 9.8647807 13.3222553 9.77223497 13.316312 9.74761271C13.2798031 9.75440505 13.2483885 9.75270697 13.2246153 9.73912227 13.199993 9.72723567 13.1685784 9.69582106 13.1252772 9.64487845L12.6226435 8.99111503 12.6014174 8.99620929 12.4834004 9.80534766C12.4740609 9.87666731 12.4587781 9.92506278 12.4434954 9.95308121 12.437552 9.96496782 12.4137788 9.98109965 12.3789681 9.99808051L12.3874585 10.0210047 12.6642466 9.94628887zM15.7222463 9.85518651L15.7010202 9.84160181C15.6645113 9.88999729 15.6297006 9.92141189 15.598286 9.94009085 15.5660223 9.95622267 15.5380039 9.96471311 15.5048912 9.96641119 15.4751747 9.96810928 15.4284773 9.95961885 15.3605538 9.93669468L15.2977246 9.91461955C15.2416877 9.89678964 15.2094241 9.88320494 15.2000846 9.87471451 15.1898961 9.8687712 15.1848018 9.85858268 15.1848018 9.84839416 15.1814056 9.83396042 15.1848018 9.80679103 15.1966884 9.77028217L15.3775347 9.2251963C15.3953646 9.17510273 15.4089493 9.14368813 15.4191378 9.13349961 15.4318735 9.12076396 15.4488543 9.11397161 15.4700804 9.11227352 15.4904574 9.10887735 15.5235701 9.1156697 15.5711166 9.13010343L15.5779089 9.10717926 15.1848018 8.97812466 15.1780095 8.99935075 15.2094241 9.01123736C15.2450839 9.02142588 15.2646119 9.03925579 15.2764985 9.06387805 15.2824418 9.082557 15.2764985 9.11736778 15.2595176 9.17170656L15.0735771 9.73122617C15.0591434 9.7787726 15.0438606 9.81018721 15.031125 9.82037573 15.0056537 9.83820564 14.9759371 9.84160181 14.9377302 9.83226234L14.9080137 9.82037573 14.9012213 9.8432999 15.5711166 10.0657493 15.7222463 9.85518651zM16.7835506 9.9214968L16.69525 10.3112077 16.4422351 10.1286634 16.7835506 9.9214968zM16.2495023 10.4003573C16.2146915 10.3723389 16.1968616 10.3494147 16.1917673 10.3324338 16.186673 10.316302 16.186673 10.3027173 16.1968616 10.2899816 16.204503 10.278095 16.2282762 10.2594161 16.2613889 10.2398881L16.3938396 10.1566818 16.6825144 10.3629994 16.6510998 10.5022425C16.6409113 10.5463928 16.6307227 10.5761093 16.6179871 10.5930901 16.6094967 10.6049767 16.5993081 10.61092 16.5814782 10.6126181 16.5644974 10.6143162 16.5432713 10.6049767 16.5118567 10.5862978L16.498272 10.6049767 16.792041 10.8138414 16.8030786 10.7934644C16.7767582 10.7688421 16.7606264 10.7442199 16.7504379 10.7187486 16.7453436 10.6907301 16.7470417 10.6465799 16.7640226 10.5795054L16.9423217 9.77546133 16.9244918 9.76357472 16.2282762 10.1897945C16.1679941 10.2280015 16.1204477 10.2500766 16.0890331 10.2551709 16.0754484 10.2568689 16.0508261 10.2500766 16.0143172 10.2330957L16.0007325 10.2517747 16.2350685 10.4190362 16.2495023 10.4003573zM9.49035255 12.4520707C9.48865447 12.4554669 9.48865447 12.4605611 9.48525829 12.4673535 9.48525829 12.4732968 9.48186212 12.4800891 9.47846595 12.4851834L9.12186771 12.3527326C9.13205623 12.3060352 9.13884858 12.2729225 9.14733901 12.2499984 9.17026319 12.1931124 9.20337588 12.1566036 9.24837518 12.1370756 9.29507257 12.1141514 9.34431709 12.1141514 9.39610873 12.1353775 9.45384369 12.1566036 9.48865447 12.1931124 9.50818247 12.2483003 9.52855951 12.302639 9.52176716 12.3705625 9.49035255 12.4520707M10.0456269 12.1404718C10.0159104 12.1616978 9.96326973 12.1803768 9.89534626 12.1999048L9.5812002 12.2848091C9.59308681 12.2049991 9.58459637 12.1421698 9.55997411 12.0954725 9.53535185 12.0445299 9.49544681 12.0105681 9.44365517 11.9910401 9.39271256 11.9732102 9.34601517 11.969814 9.29931779 11.9859459 9.25177135 12.0046248 9.2135644 12.0292471 9.18554597 12.0691521 9.15413136 12.1073591 9.12186771 12.1701883 9.08705693 12.262734L8.97158703 12.5734839 8.99281311 12.5811253 9.00639781 12.5480126C9.01743537 12.5182961 9.03781241 12.4953719 9.06243467 12.4851834 9.07771745 12.4800891 9.11422632 12.4851834 9.17026319 12.5081076L9.71789619 12.7161232C9.76883879 12.7356512 9.79685723 12.7526321 9.80534766 12.7670658 9.8257247 12.7882919 9.8257247 12.8205555 9.81214001 12.8570644L9.8002534 12.8901771 9.82232853 12.8961204 9.96326973 12.5301827 9.93779843 12.5233903 9.92845895 12.5548049C9.91487426 12.5862195 9.89704435 12.6099928 9.87157305 12.6159361 9.85544122 12.6244265 9.81893235 12.6159361 9.76544262 12.5964081L9.5166729 12.5021643C9.51837099 12.4953719 9.52176716 12.4885796 9.52516333 12.4834853 9.52686142 12.4766929 9.53025759 12.4699006 9.53195568 12.4656554 9.53874803 12.4520707 9.54469133 12.4350898 9.55148368 12.4138637L10.0575136 12.2763187 10.1466631 12.047077 10.1237389 12.0394356C10.1008148 12.0835858 10.0736454 12.1166985 10.0456269 12.1404718"/>
    </g>
  </g>
</svg>
