<svg xmlns="http://www.w3.org/2000/svg" width="200" height="136" viewBox="0 0 200 136">
  <g fill="none" fill-rule="evenodd">
    <path fill="#EF2130" d="M86.5534806,136 L183.001903,136 C192.388972,136 200,128.274625 200,118.744716 L200,81.6467273 L86.5534806,81.6467273 L86.5534806,136 M183.001903,0 L86.5534806,0 L86.5534806,54.3532727 L200,54.3532727 L200,17.254259 C200,7.72434994 192.388972,5.68834648e-16 183.001903,5.68834648e-16 M0,81.6467273 L0,118.744716 C0,128.274625 7.6120375,136 16.9980967,136 L59.6604419,136 L59.6604419,81.6467273 L0,81.6467273 M59.6604419,0 L16.9991064,0 C7.61102781,0 0,7.72434994 0,17.254259 L0,54.3532727 L59.6614516,54.3532727 L59.6614516,0"/>
    <rect width="27.416" height="136" x="59.775" fill="#FFF"/>
    <rect width="27.416" height="200" x="86.292" y="-32.36" fill="#FFF" transform="rotate(-90 100 67.64)"/>
    <rect width="13.933" height="200" x="93.034" y="-31.91" fill="#002868" transform="rotate(-90 100 68.09)"/>
    <rect width="13.933" height="136" x="66.517" fill="#002968"/>
  </g>
</svg>
