<?xml version="1.0" encoding="UTF-8" standalone="no"?>
<svg width="200px" height="136px" viewBox="0 0 200 136" version="1.1" xmlns="http://www.w3.org/2000/svg" xmlns:xlink="http://www.w3.org/1999/xlink" xmlns:sketch="http://www.bohemiancoding.com/sketch/ns">
    <!-- Generator: Sketch 3.3.1 (12005) - http://www.bohemiancoding.com/sketch -->
    <title>flag-br</title>
    <desc>Created with Sketch.</desc>
    <defs></defs>
    <g id="Flags" stroke="none" stroke-width="1" fill="none" fill-rule="evenodd" sketch:type="MSPage">
        <g id="flag-br" sketch:type="MSArtboardGroup">
            <g id="Imported-Layers" sketch:type="MSLayerGroup" transform="translate(0.000000, -1.230769)">
                <path d="M17.8076923,2.91923077 C8.51153846,2.91923077 0.973076923,10.4576923 0.973076923,19.7538462 L0.973076923,118.796154 C0.973076923,128.096154 8.51153846,135.634615 17.8076923,135.634615 L157.976923,135.634615 L157.976923,2.91923077 L17.8076923,2.91923077" id="Fill-1" fill="#3C9242" sketch:type="MSShapeGroup"></path>
                <path d="M182.219231,2.91923077 L133.284615,2.91923077 L133.284615,135.634615 L182.219231,135.634615 C191.519231,135.634615 199.057692,128.096154 199.057692,118.796154 L199.057692,19.7538462 C199.057692,10.4576923 191.519231,2.91923077 182.219231,2.91923077" id="Fill-2" fill="#3C9242" sketch:type="MSShapeGroup"></path>
                <path d="M21.6384615,69.2692308 L100.011538,119.323077 L178.388462,69.2692308 L100.011538,19.2269231 L21.6384615,69.2692308" id="Fill-3" fill="#EDC226" sketch:type="MSShapeGroup"></path>
                <path d="M127.192308,69.2692308 C127.192308,84.2769231 115.015385,96.4538462 100.011538,96.4538462 C85.0076923,96.4538462 72.8384615,84.2769231 72.8384615,69.2692308 C72.8384615,54.2730769 85.0076923,42.0961538 100.011538,42.0961538 C115.015385,42.0961538 127.192308,54.2730769 127.192308,69.2692308" id="Fill-4" fill="#2D136E" sketch:type="MSShapeGroup"></path>
                <path d="M84.4846154,57.6269231 C81.3153846,57.6269231 78.2,57.8538462 75.1461538,58.2846154 C74.5615385,59.6192308 74.0769231,61.0076923 73.7,62.4423077 C77.2038462,61.8346154 80.8038462,61.5076923 84.4846154,61.5076923 C100.423077,61.5076923 114.957692,67.5153846 125.961538,77.3846154 C126.396154,76 126.715385,74.5576923 126.926923,73.0884615 C115.45,63.4384615 100.646154,57.6269231 84.4846154,57.6269231" id="Fill-5" fill="#FFFFFF" sketch:type="MSShapeGroup"></path>
                <path d="M76.8307692,61.3307692 C77.4692308,61.25 77.9192308,60.6153846 77.8307692,59.9038462 C77.7423077,59.1961538 77.1576923,58.6846154 76.5192308,58.7576923 C75.8769231,58.8346154 75.4307692,59.4807692 75.5192308,60.1846154 C75.6076923,60.8961538 76.1923077,61.4076923 76.8307692,61.3307692 M76.7730769,60.85 C77.15,60.8038462 77.4076923,60.4076923 77.3538462,59.9653846 C77.3,59.5115385 76.95,59.1884615 76.5730769,59.2384615 C76.1961538,59.2846154 75.9384615,59.6807692 75.9961538,60.1269231 C76.05,60.5730769 76.4,60.8961538 76.7730769,60.85" id="Fill-6" fill="#3C9242" sketch:type="MSShapeGroup"></path>
                <path d="M78.9384615,61.0961538 L79.4192308,61.0615385 L79.3576923,60.1038462 L80.3846154,60.0307692 C80.8346154,60 81.1730769,59.6076923 81.1423077,59.1576923 C81.1115385,58.7153846 80.7230769,58.3730769 80.2692308,58.4038462 L78.7961538,58.5076923 L78.9384615,61.0961538 L78.9384615,61.0961538 Z M79.3192308,59.6230769 L80.3192308,59.5538462 C80.4961538,59.5461538 80.6346154,59.3807692 80.6230769,59.1961538 C80.6076923,59.0115385 80.4538462,58.8730769 80.2692308,58.8923077 L79.2730769,58.9576923 L79.3192308,59.6230769 L79.3192308,59.6230769 Z" id="Fill-7" fill="#3C9242" sketch:type="MSShapeGroup"></path>
                <path d="M81.1346154,60.9423077 C81.1115385,60.5730769 81.0538462,59.7576923 80.5038462,59.8 L79.8,59.85 C80.6076923,59.7923077 80.6653846,60.6038462 80.6923077,60.9692308" id="Fill-8" fill="#3C9242" sketch:type="MSShapeGroup"></path>
                <path d="M82.2230769,60.8923077 L83.4423077,60.8653846 C84.0576923,60.8615385 84.5423077,60.3576923 84.5346154,59.7384615 L84.5230769,59.3692308 C84.5115385,58.7576923 84.0115385,58.2692308 83.3961538,58.2769231 L82.1769231,58.3 L82.2230769,60.8923077 L82.2230769,60.8923077 Z M82.6961538,60.4076923 L83.3961538,60.3884615 C83.7846154,60.3769231 84.0923077,60.0615385 84.0807692,59.6730769 L84.0807692,59.45 C84.0769231,59.0653846 83.7576923,58.7576923 83.3653846,58.7653846 L82.6653846,58.7769231 L82.6961538,60.4076923 L82.6961538,60.4076923 Z" id="Fill-9" fill="#3C9242" sketch:type="MSShapeGroup"></path>
                <path d="M85.5115385,60.8576923 L87.8384615,60.9384615 L87.8538462,60.4576923 L85.9692308,60.3923077 L85.9923077,59.7269231 L87.4730769,59.7807692 L87.4884615,59.3346154 L86.0076923,59.2846154 L86.0269231,58.7692308 L87.8038462,58.8307692 L87.8153846,58.3461538 L85.6,58.2692308 L85.5115385,60.8576923" id="Fill-10" fill="#3C9242" sketch:type="MSShapeGroup"></path>
                <path d="M88.7923077,61.0038462 L89.2384615,61.0346154 L89.3884615,59.2692308 L89.7461538,61.0807692 L90.1576923,61.1192308 L90.8269231,59.3961538 L90.6692308,61.1615385 L91.1115385,61.2038462 L91.3346154,58.6230769 L90.6923077,58.5653846 L90.0230769,60.2923077 L89.6653846,58.4769231 L89.0192308,58.4192308 L88.7923077,61.0038462" id="Fill-11" fill="#3C9242" sketch:type="MSShapeGroup"></path>
                <path d="M94.1538462,61.6 L96.0692308,61.9307692 L96.1461538,61.4961538 L94.6692308,61.2384615 L94.7653846,60.6576923 L95.9730769,60.8653846 L96.0461538,60.4230769 L94.8423077,60.2192308 L94.9115385,59.8192308 L96.3384615,60.0692308 L96.4192308,59.6269231 L94.5461538,59.3038462 L94.1538462,61.6" id="Fill-12" fill="#3C9242" sketch:type="MSShapeGroup"></path>
                <path d="M99.0692308,62.5692308 L99.5346154,62.6846154 L99.7769231,61.7576923 L100.776923,62.0153846 C101.211538,62.1307692 101.661538,61.8653846 101.776923,61.4346154 C101.884615,61.0038462 101.623077,60.5538462 101.188462,60.4384615 L99.7538462,60.0692308 L99.0692308,62.5692308 L99.0692308,62.5692308 Z M99.8961538,61.2884615 L100.869231,61.5423077 C101.038462,61.5846154 101.226923,61.4807692 101.269231,61.3038462 C101.315385,61.1230769 101.211538,60.9423077 101.030769,60.8961538 L100.065385,60.6461538 L99.8961538,61.2884615 L99.8961538,61.2884615 Z" id="Fill-13" fill="#3C9242" sketch:type="MSShapeGroup"></path>
                <path d="M102.246154,63.4115385 L102.703846,63.5615385 L102.992308,62.6423077 L103.980769,62.95 C104.407692,63.0884615 104.865385,62.8538462 105.007692,62.4230769 C105.134615,61.9923077 104.9,61.5384615 104.473077,61.4038462 L103.057692,60.9538462 L102.246154,63.4115385 L102.246154,63.4115385 Z M103.138462,62.1846154 L104.088462,62.4846154 C104.265385,62.5384615 104.453846,62.4461538 104.507692,62.2692308 C104.565385,62.0884615 104.469231,61.9076923 104.292308,61.85 L103.342308,61.55 L103.138462,62.1846154 L103.138462,62.1846154 Z" id="Fill-14" fill="#3C9242" sketch:type="MSShapeGroup"></path>
                <path d="M104.346154,64.0769231 C104.457692,63.7269231 104.7,62.95 104.176923,62.7807692 L103.5,62.5730769 C104.280769,62.8153846 104.034615,63.5884615 103.919231,63.9423077" id="Fill-15" fill="#3C9242" sketch:type="MSShapeGroup"></path>
                <path d="M106.465385,64.8346154 C107.069231,65.0615385 107.761538,64.7 108.007692,64.0307692 C108.257692,63.3653846 107.973077,62.6346154 107.373077,62.4115385 C106.769231,62.1846154 106.076923,62.5461538 105.826923,63.2153846 C105.576923,63.8846154 105.861538,64.6115385 106.465385,64.8346154 M106.634615,64.3846154 C106.984615,64.5192308 107.4,64.2807692 107.557692,63.8615385 C107.715385,63.4423077 107.557692,62.9961538 107.203846,62.8615385 C106.85,62.7269231 106.434615,62.9615385 106.276923,63.3884615 C106.119231,63.8076923 106.280769,64.2576923 106.634615,64.3846154" id="Fill-16" fill="#3C9242" sketch:type="MSShapeGroup"></path>
                <path d="M109.511538,66.0692308 C110.103846,66.3269231 110.811538,65.9961538 111.096154,65.3423077 C111.380769,64.6884615 111.138462,63.95 110.542308,63.6923077 C109.953846,63.4384615 109.242308,63.7576923 108.957692,64.4153846 C108.676923,65.0692308 108.923077,65.8115385 109.511538,66.0692308 M109.703846,65.6269231 C110.05,65.7807692 110.476923,65.5653846 110.653846,65.1538462 C110.838462,64.7423077 110.7,64.2807692 110.353846,64.1346154 C110.011538,63.9846154 109.580769,64.1961538 109.4,64.6076923 C109.223077,65.0192308 109.357692,65.4730769 109.703846,65.6269231" id="Fill-17" fill="#3C9242" sketch:type="MSShapeGroup"></path>
                <path d="M110.2,64.9538462 L111.096154,65.3423077 L110.95,65.6807692 L110.05,65.2884615 L110.2,64.9538462" id="Fill-18" fill="#3C9242" sketch:type="MSShapeGroup"></path>
                <path d="M110.757692,65.1961538 L111.096154,65.3423077 L110.580769,66.5307692 L110.242308,66.3846154 L110.757692,65.1961538" id="Fill-19" fill="#3C9242" sketch:type="MSShapeGroup"></path>
                <path d="M111.446154,66.9346154 L111.876923,67.15 L112.307692,66.2884615 L113.230769,66.75 C113.634615,66.9576923 114.123077,66.7923077 114.323077,66.3884615 C114.523077,65.9846154 114.365385,65.5 113.957692,65.2923077 L112.638462,64.6384615 L111.446154,66.9346154 L111.446154,66.9346154 Z M112.519231,65.8615385 L113.415385,66.3038462 C113.580769,66.3884615 113.776923,66.3192308 113.861538,66.1576923 C113.942308,65.9923077 113.876923,65.7923077 113.715385,65.7076923 L112.819231,65.2615385 L112.519231,65.8615385 L112.519231,65.8615385 Z" id="Fill-20" fill="#3C9242" sketch:type="MSShapeGroup"></path>
                <path d="M113.415385,67.9153846 C113.580769,67.5884615 113.942308,66.8615385 113.446154,66.6115385 L112.819231,66.2961538 C113.546154,66.6576923 113.184615,67.3884615 113.019231,67.7192308" id="Fill-21" fill="#3C9242" sketch:type="MSShapeGroup"></path>
                <path d="M114.376923,68.4269231 L116.403846,69.5730769 L116.642308,69.1538462 L115,68.2192308 L115.326923,67.65 L116.615385,68.3769231 L116.834615,67.9884615 L115.55,67.2615385 L115.8,66.8076923 L117.35,67.6846154 L117.584615,67.2615385 L115.653846,66.1730769 L114.376923,68.4269231" id="Fill-22" fill="#3C9242" sketch:type="MSShapeGroup"></path>
                <path d="M118.153846,69.6923077 C118.015385,69.9115385 118.157692,70.1538462 118.465385,70.3538462 C118.780769,70.55 118.992308,70.5423077 119.080769,70.4038462 C119.369231,69.9615385 117.730769,69.3115385 118.234615,68.5346154 C118.669231,67.8730769 119.411538,68.3884615 119.692308,68.5653846 C119.973077,68.7461538 120.426923,69.2076923 120.073077,69.7423077 L119.6,69.4384615 C119.75,69.2076923 119.584615,68.9769231 119.330769,68.8269231 C119.096154,68.6615385 118.896154,68.5961538 118.75,68.8269231 C118.511538,69.1884615 120.115385,69.8653846 119.623077,70.6423077 C119.265385,71.2115385 118.630769,70.9615385 118.211538,70.6961538 C117.85,70.4615385 117.315385,69.9230769 117.665385,69.3807692 L118.153846,69.6923077" id="Fill-23" fill="#3C9242" sketch:type="MSShapeGroup"></path>
                <path d="M120.934615,71.5269231 C120.780769,71.7384615 120.911538,71.9846154 121.211538,72.2038462 C121.507692,72.4192308 121.723077,72.4230769 121.823077,72.2846154 C122.130769,71.8615385 120.523077,71.1269231 121.069231,70.3807692 C121.538462,69.7346154 122.257692,70.2884615 122.530769,70.4846154 C122.796154,70.6807692 123.223077,71.1615385 122.846154,71.6769231 L122.388462,71.35 C122.546154,71.1269231 122.4,70.8961538 122.15,70.7192308 C121.923077,70.5538462 121.730769,70.4769231 121.573077,70.6961538 C121.315385,71.0423077 122.880769,71.8038462 122.346154,72.5461538 C121.957692,73.1 121.334615,72.8192308 120.934615,72.5307692 C120.588462,72.2846154 120.080769,71.7192308 120.457692,71.1884615 L120.934615,71.5269231" id="Fill-24" fill="#3C9242" sketch:type="MSShapeGroup"></path>
                <path d="M123.561538,74.5076923 C124.061538,74.9076923 124.830769,74.7730769 125.273077,74.2192308 C125.719231,73.6615385 125.669231,72.8846154 125.169231,72.4846154 C124.665385,72.0807692 123.896154,72.2076923 123.45,72.7653846 C123.007692,73.3307692 123.053846,74.1076923 123.561538,74.5076923 M123.861538,74.1307692 C124.153846,74.3653846 124.619231,74.2730769 124.896154,73.9192308 C125.180769,73.5692308 125.165385,73.0923077 124.865385,72.8538462 C124.573077,72.6192308 124.111538,72.7153846 123.830769,73.0653846 C123.546154,73.4192308 123.561538,73.8923077 123.861538,74.1307692" id="Fill-25" fill="#3C9242" sketch:type="MSShapeGroup"></path>
                <path d="M77.8269231,63.2307692 L77.4653846,64.3346154 L78.0153846,64.5153846 L77.8269231,63.2307692" id="Fill-26" fill="#FFFFFF" sketch:type="MSShapeGroup"></path>
                <path d="M77.8269231,63.2307692 L78.1846154,64.3346154 L77.6346154,64.5153846 L77.8269231,63.2307692" id="Fill-27" fill="#FFFFFF" sketch:type="MSShapeGroup"></path>
                <path d="M78.9346154,64.0307692 L77.7653846,64.0307692 L77.7653846,64.6115385 L78.9346154,64.0307692" id="Fill-28" fill="#FFFFFF" sketch:type="MSShapeGroup"></path>
                <path d="M78.9346154,64.0307692 L77.9923077,64.7153846 L77.6461538,64.25 L78.9346154,64.0307692" id="Fill-29" fill="#FFFFFF" sketch:type="MSShapeGroup"></path>
                <path d="M76.7192308,64.0307692 L77.6615385,64.7153846 L78,64.25 L76.7192308,64.0307692" id="Fill-30" fill="#FFFFFF" sketch:type="MSShapeGroup"></path>
                <path d="M76.7192308,64.0307692 L77.8846154,64.0307692 L77.8846154,64.6115385 L76.7192308,64.0307692" id="Fill-31" fill="#FFFFFF" sketch:type="MSShapeGroup"></path>
                <path d="M78.5076923,65.3346154 L78.15,64.2269231 L77.5961538,64.4076923 L78.5076923,65.3346154" id="Fill-32" fill="#FFFFFF" sketch:type="MSShapeGroup"></path>
                <path d="M78.5076923,65.3346154 L77.5692308,64.65 L77.9076923,64.1769231 L78.5076923,65.3346154" id="Fill-33" fill="#FFFFFF" sketch:type="MSShapeGroup"></path>
                <path d="M77.1423077,65.3346154 L78.0884615,64.65 L77.7423077,64.1769231 L77.1423077,65.3346154" id="Fill-34" fill="#FFFFFF" sketch:type="MSShapeGroup"></path>
                <path d="M77.1423077,65.3346154 L77.5,64.2269231 L78.0576923,64.4076923 L77.1423077,65.3346154" id="Fill-35" fill="#FFFFFF" sketch:type="MSShapeGroup"></path>
                <path d="M80.2269231,74.6538462 L79.8692308,75.7615385 L80.4230769,75.9384615 L80.2269231,74.6538462" id="Fill-36" fill="#FFFFFF" sketch:type="MSShapeGroup"></path>
                <path d="M80.2269231,74.6538462 L80.5846154,75.7615385 L80.0384615,75.9384615 L80.2269231,74.6538462" id="Fill-37" fill="#FFFFFF" sketch:type="MSShapeGroup"></path>
                <path d="M81.3384615,75.4615385 L80.1730769,75.4615385 L80.1730769,76.0423077 L81.3384615,75.4615385" id="Fill-38" fill="#FFFFFF" sketch:type="MSShapeGroup"></path>
                <path d="M81.3384615,75.4615385 L80.3923077,76.1384615 L80.0538462,75.6730769 L81.3384615,75.4615385" id="Fill-39" fill="#FFFFFF" sketch:type="MSShapeGroup"></path>
                <path d="M79.1192308,75.4615385 L80.0615385,76.1384615 L80.4076923,75.6730769 L79.1192308,75.4615385" id="Fill-40" fill="#FFFFFF" sketch:type="MSShapeGroup"></path>
                <path d="M79.1192308,75.4615385 L80.2884615,75.4615385 L80.2884615,76.0423077 L79.1192308,75.4615385" id="Fill-41" fill="#FFFFFF" sketch:type="MSShapeGroup"></path>
                <path d="M80.9153846,76.7576923 L80.5538462,75.6538462 L80,75.8346154 L80.9153846,76.7576923" id="Fill-42" fill="#FFFFFF" sketch:type="MSShapeGroup"></path>
                <path d="M80.9153846,76.7576923 L79.9730769,76.0769231 L80.3153846,75.6076923 L80.9153846,76.7576923" id="Fill-43" fill="#FFFFFF" sketch:type="MSShapeGroup"></path>
                <path d="M79.5461538,76.7576923 L80.4884615,76.0769231 L80.1423077,75.6076923 L79.5461538,76.7576923" id="Fill-44" fill="#FFFFFF" sketch:type="MSShapeGroup"></path>
                <path d="M79.5461538,76.7576923 L79.9076923,75.6538462 L80.4615385,75.8346154 L79.5461538,76.7576923" id="Fill-45" fill="#FFFFFF" sketch:type="MSShapeGroup"></path>
                <path d="M76.9038462,77.4807692 L76.6615385,78.2192308 L77.0307692,78.3384615 L76.9038462,77.4807692" id="Fill-46" fill="#FFFFFF" sketch:type="MSShapeGroup"></path>
                <path d="M76.9038462,77.4807692 L77.1423077,78.2192308 L76.7730769,78.3384615 L76.9038462,77.4807692" id="Fill-47" fill="#FFFFFF" sketch:type="MSShapeGroup"></path>
                <path d="M77.6384615,78.0192308 L76.8653846,78.0192308 L76.8653846,78.4076923 L77.6384615,78.0192308" id="Fill-48" fill="#FFFFFF" sketch:type="MSShapeGroup"></path>
                <path d="M77.6384615,78.0192308 L77.0076923,78.4769231 L76.7846154,78.1615385 L77.6384615,78.0192308" id="Fill-49" fill="#FFFFFF" sketch:type="MSShapeGroup"></path>
                <path d="M76.1615385,78.0192308 L76.7884615,78.4769231 L77.0153846,78.1615385 L76.1615385,78.0192308" id="Fill-50" fill="#FFFFFF" sketch:type="MSShapeGroup"></path>
                <path d="M76.1615385,78.0192308 L76.9384615,78.0192308 L76.9384615,78.4076923 L76.1615385,78.0192308" id="Fill-51" fill="#FFFFFF" sketch:type="MSShapeGroup"></path>
                <path d="M77.3615385,78.8846154 L77.1192308,78.15 L76.75,78.2692308 L77.3615385,78.8846154" id="Fill-52" fill="#FFFFFF" sketch:type="MSShapeGroup"></path>
                <path d="M77.3615385,78.8846154 L76.7269231,78.4307692 L76.9615385,78.1153846 L77.3615385,78.8846154" id="Fill-53" fill="#FFFFFF" sketch:type="MSShapeGroup"></path>
                <path d="M76.4423077,78.8846154 L77.0730769,78.4307692 L76.8461538,78.1153846 L76.4423077,78.8846154" id="Fill-54" fill="#FFFFFF" sketch:type="MSShapeGroup"></path>
                <path d="M76.4423077,78.8846154 L76.6846154,78.15 L77.0538462,78.2692308 L76.4423077,78.8846154" id="Fill-55" fill="#FFFFFF" sketch:type="MSShapeGroup"></path>
                <path d="M82.8923077,73.6 L82.7230769,74.1230769 L82.9846154,74.2115385 L82.8923077,73.6" id="Fill-56" fill="#FFFFFF" sketch:type="MSShapeGroup"></path>
                <path d="M82.8923077,73.6 L83.0615385,74.1230769 L82.8,74.2115385 L82.8923077,73.6" id="Fill-57" fill="#FFFFFF" sketch:type="MSShapeGroup"></path>
                <path d="M83.4230769,73.9846154 L82.8653846,73.9846154 L82.8653846,74.2576923 L83.4230769,73.9846154" id="Fill-58" fill="#FFFFFF" sketch:type="MSShapeGroup"></path>
                <path d="M83.4230769,73.9846154 L82.9692308,74.3115385 L82.8076923,74.0846154 L83.4230769,73.9846154" id="Fill-59" fill="#FFFFFF" sketch:type="MSShapeGroup"></path>
                <path d="M82.3653846,73.9846154 L82.8115385,74.3115385 L82.9769231,74.0846154 L82.3653846,73.9846154" id="Fill-60" fill="#FFFFFF" sketch:type="MSShapeGroup"></path>
                <path d="M82.3653846,73.9846154 L82.9153846,73.9846154 L82.9153846,74.2576923 L82.3653846,73.9846154" id="Fill-61" fill="#FFFFFF" sketch:type="MSShapeGroup"></path>
                <path d="M83.2192308,74.6038462 L83.0461538,74.0692308 L82.7846154,74.1615385 L83.2192308,74.6038462" id="Fill-62" fill="#FFFFFF" sketch:type="MSShapeGroup"></path>
                <path d="M83.2192308,74.6038462 L82.7692308,74.2769231 L82.9307692,74.0538462 L83.2192308,74.6038462" id="Fill-63" fill="#FFFFFF" sketch:type="MSShapeGroup"></path>
                <path d="M82.5653846,74.6038462 L83.0153846,74.2769231 L82.85,74.0538462 L82.5653846,74.6038462" id="Fill-64" fill="#FFFFFF" sketch:type="MSShapeGroup"></path>
                <path d="M82.5653846,74.6038462 L82.7384615,74.0692308 L83,74.1615385 L82.5653846,74.6038462" id="Fill-65" fill="#FFFFFF" sketch:type="MSShapeGroup"></path>
                <path d="M85.8846154,77.5461538 L85.5884615,78.4692308 L86.0461538,78.6230769 L85.8846154,77.5461538" id="Fill-66" fill="#FFFFFF" sketch:type="MSShapeGroup"></path>
                <path d="M85.8846154,77.5461538 L86.1846154,78.4692308 L85.7269231,78.6230769 L85.8846154,77.5461538" id="Fill-67" fill="#FFFFFF" sketch:type="MSShapeGroup"></path>
                <path d="M86.8076923,78.2153846 L85.8384615,78.2153846 L85.8384615,78.7 L86.8076923,78.2153846" id="Fill-68" fill="#FFFFFF" sketch:type="MSShapeGroup"></path>
                <path d="M86.8076923,78.2153846 L86.0269231,78.7923077 L85.7423077,78.3961538 L86.8076923,78.2153846" id="Fill-69" fill="#FFFFFF" sketch:type="MSShapeGroup"></path>
                <path d="M84.9615385,78.2153846 L85.7461538,78.7923077 L86.0346154,78.3961538 L84.9615385,78.2153846" id="Fill-70" fill="#FFFFFF" sketch:type="MSShapeGroup"></path>
                <path d="M84.9615385,78.2153846 L85.9346154,78.2153846 L85.9346154,78.7 L84.9615385,78.2153846" id="Fill-71" fill="#FFFFFF" sketch:type="MSShapeGroup"></path>
                <path d="M86.4576923,79.3 L86.1576923,78.3846154 L85.6961538,78.5307692 L86.4576923,79.3" id="Fill-72" fill="#FFFFFF" sketch:type="MSShapeGroup"></path>
                <path d="M86.4576923,79.3 L85.6730769,78.7307692 L85.9576923,78.3384615 L86.4576923,79.3" id="Fill-73" fill="#FFFFFF" sketch:type="MSShapeGroup"></path>
                <path d="M85.3192308,79.3 L86.1,78.7307692 L85.8153846,78.3384615 L85.3192308,79.3" id="Fill-74" fill="#FFFFFF" sketch:type="MSShapeGroup"></path>
                <path d="M85.3192308,79.3 L85.6192308,78.3846154 L86.0769231,78.5307692 L85.3192308,79.3" id="Fill-75" fill="#FFFFFF" sketch:type="MSShapeGroup"></path>
                <path d="M85.0730769,80.2461538 L84.7730769,81.1692308 L85.2346154,81.3230769 L85.0730769,80.2461538" id="Fill-76" fill="#FFFFFF" sketch:type="MSShapeGroup"></path>
                <path d="M85.0730769,80.2461538 L85.3730769,81.1692308 L84.9115385,81.3230769 L85.0730769,80.2461538" id="Fill-77" fill="#FFFFFF" sketch:type="MSShapeGroup"></path>
                <path d="M85.9961538,80.9153846 L85.0230769,80.9153846 L85.0230769,81.4 L85.9961538,80.9153846" id="Fill-78" fill="#FFFFFF" sketch:type="MSShapeGroup"></path>
                <path d="M85.9961538,80.9153846 L85.2115385,81.4884615 L84.9269231,81.0961538 L85.9961538,80.9153846" id="Fill-79" fill="#FFFFFF" sketch:type="MSShapeGroup"></path>
                <path d="M84.15,80.9153846 L84.9384615,81.4884615 L85.2192308,81.0961538 L84.15,80.9153846" id="Fill-80" fill="#FFFFFF" sketch:type="MSShapeGroup"></path>
                <path d="M84.15,80.9153846 L85.1192308,80.9153846 L85.1192308,81.4 L84.15,80.9153846" id="Fill-81" fill="#FFFFFF" sketch:type="MSShapeGroup"></path>
                <path d="M85.6423077,82.0076923 L85.3461538,81.0807692 L84.8846154,81.2269231 L85.6423077,82.0076923" id="Fill-82" fill="#FFFFFF" sketch:type="MSShapeGroup"></path>
                <path d="M85.6423077,82.0076923 L84.8538462,81.4307692 L85.1423077,81.0384615 L85.6423077,82.0076923" id="Fill-83" fill="#FFFFFF" sketch:type="MSShapeGroup"></path>
                <path d="M84.5038462,82.0076923 L85.2923077,81.4307692 L85.0038462,81.0384615 L84.5038462,82.0076923" id="Fill-84" fill="#FFFFFF" sketch:type="MSShapeGroup"></path>
                <path d="M84.5038462,82.0076923 L84.8038462,81.0807692 L85.2653846,81.2269231 L84.5038462,82.0076923" id="Fill-85" fill="#FFFFFF" sketch:type="MSShapeGroup"></path>
                <path d="M108.446154,59.6730769 L108.080769,60.7846154 L108.638462,60.9653846 L108.446154,59.6730769" id="Fill-86" fill="#FFFFFF" sketch:type="MSShapeGroup"></path>
                <path d="M108.446154,59.6730769 L108.803846,60.7846154 L108.253846,60.9653846 L108.446154,59.6730769" id="Fill-87" fill="#FFFFFF" sketch:type="MSShapeGroup"></path>
                <path d="M109.55,60.4807692 L108.388462,60.4807692 L108.388462,61.0653846 L109.55,60.4807692" id="Fill-88" fill="#FFFFFF" sketch:type="MSShapeGroup"></path>
                <path d="M109.55,60.4807692 L108.607692,61.1653846 L108.269231,60.6923077 L109.55,60.4807692" id="Fill-89" fill="#FFFFFF" sketch:type="MSShapeGroup"></path>
                <path d="M107.334615,60.4807692 L108.276923,61.1653846 L108.623077,60.6923077 L107.334615,60.4807692" id="Fill-90" fill="#FFFFFF" sketch:type="MSShapeGroup"></path>
                <path d="M107.334615,60.4807692 L108.503846,60.4807692 L108.503846,61.0653846 L107.334615,60.4807692" id="Fill-91" fill="#FFFFFF" sketch:type="MSShapeGroup"></path>
                <path d="M109.130769,61.7846154 L108.769231,60.6769231 L108.211538,60.8576923 L109.130769,61.7846154" id="Fill-92" fill="#FFFFFF" sketch:type="MSShapeGroup"></path>
                <path d="M109.130769,61.7846154 L108.188462,61.1 L108.526923,60.6269231 L109.130769,61.7846154" id="Fill-93" fill="#FFFFFF" sketch:type="MSShapeGroup"></path>
                <path d="M107.761538,61.7846154 L108.7,61.1 L108.361538,60.6269231 L107.761538,61.7846154" id="Fill-94" fill="#FFFFFF" sketch:type="MSShapeGroup"></path>
                <path d="M107.761538,61.7846154 L108.119231,60.6769231 L108.676923,60.8576923 L107.761538,61.7846154" id="Fill-95" fill="#FFFFFF" sketch:type="MSShapeGroup"></path>
                <path d="M119.057692,77.65 L118.696154,78.7576923 L119.25,78.9384615 L119.057692,77.65" id="Fill-96" fill="#FFFFFF" sketch:type="MSShapeGroup"></path>
                <path d="M119.057692,77.65 L119.419231,78.7576923 L118.861538,78.9384615 L119.057692,77.65" id="Fill-97" fill="#FFFFFF" sketch:type="MSShapeGroup"></path>
                <path d="M120.161538,78.45 L119,78.45 L119,79.0346154 L120.161538,78.45" id="Fill-98" fill="#FFFFFF" sketch:type="MSShapeGroup"></path>
                <path d="M120.161538,78.45 L119.219231,79.1384615 L118.880769,78.6653846 L120.161538,78.45" id="Fill-99" fill="#FFFFFF" sketch:type="MSShapeGroup"></path>
                <path d="M117.95,78.45 L118.888462,79.1384615 L119.234615,78.6653846 L117.95,78.45" id="Fill-100" fill="#FFFFFF" sketch:type="MSShapeGroup"></path>
                <path d="M117.95,78.45 L119.111538,78.45 L119.111538,79.0346154 L117.95,78.45" id="Fill-101" fill="#FFFFFF" sketch:type="MSShapeGroup"></path>
                <path d="M119.742308,79.7576923 L119.380769,78.65 L118.826923,78.8230769 L119.742308,79.7576923" id="Fill-102" fill="#FFFFFF" sketch:type="MSShapeGroup"></path>
                <path d="M119.742308,79.7576923 L118.796154,79.0692308 L119.142308,78.5961538 L119.742308,79.7576923" id="Fill-103" fill="#FFFFFF" sketch:type="MSShapeGroup"></path>
                <path d="M118.369231,79.7576923 L119.315385,79.0692308 L118.969231,78.5961538 L118.369231,79.7576923" id="Fill-104" fill="#FFFFFF" sketch:type="MSShapeGroup"></path>
                <path d="M118.369231,79.7576923 L118.730769,78.65 L119.284615,78.8230769 L118.369231,79.7576923" id="Fill-105" fill="#FFFFFF" sketch:type="MSShapeGroup"></path>
                <path d="M122.826923,78.2961538 L122.588462,79.0346154 L122.957692,79.1538462 L122.826923,78.2961538" id="Fill-106" fill="#FFFFFF" sketch:type="MSShapeGroup"></path>
                <path d="M122.826923,78.2961538 L123.069231,79.0346154 L122.7,79.1538462 L122.826923,78.2961538" id="Fill-107" fill="#FFFFFF" sketch:type="MSShapeGroup"></path>
                <path d="M123.565385,78.8346154 L122.788462,78.8346154 L122.788462,79.2153846 L123.565385,78.8346154" id="Fill-108" fill="#FFFFFF" sketch:type="MSShapeGroup"></path>
                <path d="M123.565385,78.8346154 L122.938462,79.2884615 L122.715385,78.9769231 L123.565385,78.8346154" id="Fill-109" fill="#FFFFFF" sketch:type="MSShapeGroup"></path>
                <path d="M122.088462,78.8346154 L122.719231,79.2884615 L122.95,78.9769231 L122.088462,78.8346154" id="Fill-110" fill="#FFFFFF" sketch:type="MSShapeGroup"></path>
                <path d="M122.088462,78.8346154 L122.865385,78.8346154 L122.865385,79.2153846 L122.088462,78.8346154" id="Fill-111" fill="#FFFFFF" sketch:type="MSShapeGroup"></path>
                <path d="M123.284615,79.7 L123.046154,78.9615385 L122.676923,79.0807692 L123.284615,79.7" id="Fill-112" fill="#FFFFFF" sketch:type="MSShapeGroup"></path>
                <path d="M123.284615,79.7 L122.653846,79.2461538 L122.884615,78.9307692 L123.284615,79.7" id="Fill-113" fill="#FFFFFF" sketch:type="MSShapeGroup"></path>
                <path d="M122.369231,79.7 L123,79.2461538 L122.773077,78.9307692 L122.369231,79.7" id="Fill-114" fill="#FFFFFF" sketch:type="MSShapeGroup"></path>
                <path d="M122.369231,79.7 L122.607692,78.9615385 L122.984615,79.0807692 L122.369231,79.7" id="Fill-115" fill="#FFFFFF" sketch:type="MSShapeGroup"></path>
                <path d="M120.161538,80.2461538 L119.861538,81.1692308 L120.326923,81.3230769 L120.161538,80.2461538" id="Fill-116" fill="#FFFFFF" sketch:type="MSShapeGroup"></path>
                <path d="M120.161538,80.2461538 L120.465385,81.1692308 L120.003846,81.3230769 L120.161538,80.2461538" id="Fill-117" fill="#FFFFFF" sketch:type="MSShapeGroup"></path>
                <path d="M121.088462,80.9153846 L120.119231,80.9153846 L120.119231,81.4 L121.088462,80.9153846" id="Fill-118" fill="#FFFFFF" sketch:type="MSShapeGroup"></path>
                <path d="M121.088462,80.9153846 L120.303846,81.4884615 L120.019231,81.0961538 L121.088462,80.9153846" id="Fill-119" fill="#FFFFFF" sketch:type="MSShapeGroup"></path>
                <path d="M119.242308,80.9153846 L120.026923,81.4884615 L120.315385,81.0961538 L119.242308,80.9153846" id="Fill-120" fill="#FFFFFF" sketch:type="MSShapeGroup"></path>
                <path d="M119.242308,80.9153846 L120.215385,80.9153846 L120.215385,81.4 L119.242308,80.9153846" id="Fill-121" fill="#FFFFFF" sketch:type="MSShapeGroup"></path>
                <path d="M120.738462,82.0076923 L120.438462,81.0807692 L119.973077,81.2269231 L120.738462,82.0076923" id="Fill-122" fill="#FFFFFF" sketch:type="MSShapeGroup"></path>
                <path d="M120.738462,82.0076923 L119.953846,81.4307692 L120.238462,81.0384615 L120.738462,82.0076923" id="Fill-123" fill="#FFFFFF" sketch:type="MSShapeGroup"></path>
                <path d="M119.596154,82.0076923 L120.380769,81.4307692 L120.096154,81.0384615 L119.596154,82.0076923" id="Fill-124" fill="#FFFFFF" sketch:type="MSShapeGroup"></path>
                <path d="M119.596154,82.0076923 L119.892308,81.0807692 L120.357692,81.2269231 L119.596154,82.0076923" id="Fill-125" fill="#FFFFFF" sketch:type="MSShapeGroup"></path>
                <path d="M113.619231,85.9384615 L113.319231,86.8653846 L113.780769,87.0153846 L113.619231,85.9384615" id="Fill-126" fill="#FFFFFF" sketch:type="MSShapeGroup"></path>
                <path d="M113.619231,85.9384615 L113.923077,86.8653846 L113.461538,87.0153846 L113.619231,85.9384615" id="Fill-127" fill="#FFFFFF" sketch:type="MSShapeGroup"></path>
                <path d="M114.546154,86.6153846 L113.573077,86.6153846 L113.573077,87.1 L114.546154,86.6153846" id="Fill-128" fill="#FFFFFF" sketch:type="MSShapeGroup"></path>
                <path d="M114.546154,86.6153846 L113.761538,87.1846154 L113.473077,86.7884615 L114.546154,86.6153846" id="Fill-129" fill="#FFFFFF" sketch:type="MSShapeGroup"></path>
                <path d="M112.696154,86.6153846 L113.484615,87.1846154 L113.765385,86.7884615 L112.696154,86.6153846" id="Fill-130" fill="#FFFFFF" sketch:type="MSShapeGroup"></path>
                <path d="M112.696154,86.6153846 L113.665385,86.6153846 L113.665385,87.1 L112.696154,86.6153846" id="Fill-131" fill="#FFFFFF" sketch:type="MSShapeGroup"></path>
                <path d="M114.192308,87.6961538 L113.892308,86.7730769 L113.430769,86.9230769 L114.192308,87.6961538" id="Fill-132" fill="#FFFFFF" sketch:type="MSShapeGroup"></path>
                <path d="M114.192308,87.6961538 L113.4,87.1230769 L113.692308,86.7346154 L114.192308,87.6961538" id="Fill-133" fill="#FFFFFF" sketch:type="MSShapeGroup"></path>
                <path d="M113.05,87.6961538 L113.838462,87.1230769 L113.553846,86.7346154 L113.05,87.6961538" id="Fill-134" fill="#FFFFFF" sketch:type="MSShapeGroup"></path>
                <path d="M113.05,87.6961538 L113.35,86.7730769 L113.811538,86.9230769 L113.05,87.6961538" id="Fill-135" fill="#FFFFFF" sketch:type="MSShapeGroup"></path>
                <path d="M113.584615,88.8730769 L113.346154,89.6115385 L113.715385,89.7307692 L113.584615,88.8730769" id="Fill-136" fill="#FFFFFF" sketch:type="MSShapeGroup"></path>
                <path d="M113.584615,88.8730769 L113.823077,89.6115385 L113.453846,89.7307692 L113.584615,88.8730769" id="Fill-137" fill="#FFFFFF" sketch:type="MSShapeGroup"></path>
                <path d="M114.323077,89.4115385 L113.546154,89.4115385 L113.546154,89.8 L114.323077,89.4115385" id="Fill-138" fill="#FFFFFF" sketch:type="MSShapeGroup"></path>
                <path d="M114.323077,89.4115385 L113.692308,89.8653846 L113.461538,89.55 L114.323077,89.4115385" id="Fill-139" fill="#FFFFFF" sketch:type="MSShapeGroup"></path>
                <path d="M112.85,89.4115385 L113.473077,89.8653846 L113.7,89.55 L112.85,89.4115385" id="Fill-140" fill="#FFFFFF" sketch:type="MSShapeGroup"></path>
                <path d="M112.85,89.4115385 L113.619231,89.4115385 L113.619231,89.8 L112.85,89.4115385" id="Fill-141" fill="#FFFFFF" sketch:type="MSShapeGroup"></path>
                <path d="M114.042308,90.2730769 L113.803846,89.5384615 L113.430769,89.6615385 L114.042308,90.2730769" id="Fill-142" fill="#FFFFFF" sketch:type="MSShapeGroup"></path>
                <path d="M114.042308,90.2730769 L113.411538,89.8192308 L113.642308,89.5038462 L114.042308,90.2730769" id="Fill-143" fill="#FFFFFF" sketch:type="MSShapeGroup"></path>
                <path d="M113.126923,90.2730769 L113.757692,89.8192308 L113.530769,89.5038462 L113.126923,90.2730769" id="Fill-144" fill="#FFFFFF" sketch:type="MSShapeGroup"></path>
                <path d="M113.126923,90.2730769 L113.369231,89.5384615 L113.742308,89.6615385 L113.126923,90.2730769" id="Fill-145" fill="#FFFFFF" sketch:type="MSShapeGroup"></path>
                <path d="M116.319231,83.9923077 L116.080769,84.7346154 L116.45,84.85 L116.319231,83.9923077" id="Fill-146" fill="#FFFFFF" sketch:type="MSShapeGroup"></path>
                <path d="M116.319231,83.9923077 L116.557692,84.7346154 L116.192308,84.85 L116.319231,83.9923077" id="Fill-147" fill="#FFFFFF" sketch:type="MSShapeGroup"></path>
                <path d="M117.057692,84.5269231 L116.280769,84.5269231 L116.280769,84.9153846 L117.057692,84.5269231" id="Fill-148" fill="#FFFFFF" sketch:type="MSShapeGroup"></path>
                <path d="M117.057692,84.5269231 L116.430769,84.9846154 L116.203846,84.6730769 L117.057692,84.5269231" id="Fill-149" fill="#FFFFFF" sketch:type="MSShapeGroup"></path>
                <path d="M115.580769,84.5269231 L116.211538,84.9846154 L116.442308,84.6730769 L115.580769,84.5269231" id="Fill-150" fill="#FFFFFF" sketch:type="MSShapeGroup"></path>
                <path d="M115.580769,84.5269231 L116.361538,84.5269231 L116.361538,84.9153846 L115.580769,84.5269231" id="Fill-151" fill="#FFFFFF" sketch:type="MSShapeGroup"></path>
                <path d="M116.776923,85.3961538 L116.538462,84.6576923 L116.173077,84.7807692 L116.776923,85.3961538" id="Fill-152" fill="#FFFFFF" sketch:type="MSShapeGroup"></path>
                <path d="M116.776923,85.3961538 L116.15,84.9384615 L116.380769,84.6269231 L116.776923,85.3961538" id="Fill-153" fill="#FFFFFF" sketch:type="MSShapeGroup"></path>
                <path d="M115.865385,85.3961538 L116.492308,84.9384615 L116.261538,84.6269231 L115.865385,85.3961538" id="Fill-154" fill="#FFFFFF" sketch:type="MSShapeGroup"></path>
                <path d="M115.865385,85.3961538 L116.107692,84.6576923 L116.473077,84.7807692 L115.865385,85.3961538" id="Fill-155" fill="#FFFFFF" sketch:type="MSShapeGroup"></path>
                <path d="M118.5,82.4307692 L118.203846,83.3538462 L118.661538,83.5038462 L118.5,82.4307692" id="Fill-156" fill="#FFFFFF" sketch:type="MSShapeGroup"></path>
                <path d="M118.5,82.4307692 L118.8,83.3538462 L118.338462,83.5038462 L118.5,82.4307692" id="Fill-157" fill="#FFFFFF" sketch:type="MSShapeGroup"></path>
                <path d="M119.423077,83.1 L118.45,83.1 L118.45,83.5846154 L119.423077,83.1" id="Fill-158" fill="#FFFFFF" sketch:type="MSShapeGroup"></path>
                <path d="M119.423077,83.1 L118.638462,83.6692308 L118.357692,83.2769231 L119.423077,83.1" id="Fill-159" fill="#FFFFFF" sketch:type="MSShapeGroup"></path>
                <path d="M117.576923,83.1 L118.361538,83.6692308 L118.646154,83.2769231 L117.576923,83.1" id="Fill-160" fill="#FFFFFF" sketch:type="MSShapeGroup"></path>
                <path d="M117.576923,83.1 L118.55,83.1 L118.55,83.5846154 L117.576923,83.1" id="Fill-161" fill="#FFFFFF" sketch:type="MSShapeGroup"></path>
                <path d="M119.073077,84.1807692 L118.773077,83.2615385 L118.307692,83.4115385 L119.073077,84.1807692" id="Fill-162" fill="#FFFFFF" sketch:type="MSShapeGroup"></path>
                <path d="M119.073077,84.1807692 L118.292308,83.6115385 L118.573077,83.2230769 L119.073077,84.1807692" id="Fill-163" fill="#FFFFFF" sketch:type="MSShapeGroup"></path>
                <path d="M117.930769,84.1807692 L118.715385,83.6115385 L118.430769,83.2230769 L117.930769,84.1807692" id="Fill-164" fill="#FFFFFF" sketch:type="MSShapeGroup"></path>
                <path d="M117.930769,84.1807692 L118.234615,83.2615385 L118.692308,83.4115385 L117.930769,84.1807692" id="Fill-165" fill="#FFFFFF" sketch:type="MSShapeGroup"></path>
                <path d="M113.507692,83.4769231 L113.273077,84.2115385 L113.642308,84.3346154 L113.507692,83.4769231" id="Fill-166" fill="#FFFFFF" sketch:type="MSShapeGroup"></path>
                <path d="M113.507692,83.4769231 L113.746154,84.2115385 L113.380769,84.3346154 L113.507692,83.4769231" id="Fill-167" fill="#FFFFFF" sketch:type="MSShapeGroup"></path>
                <path d="M114.246154,84.0115385 L113.473077,84.0115385 L113.473077,84.4 L114.246154,84.0115385" id="Fill-168" fill="#FFFFFF" sketch:type="MSShapeGroup"></path>
                <path d="M114.246154,84.0115385 L113.619231,84.4653846 L113.396154,84.15 L114.246154,84.0115385" id="Fill-169" fill="#FFFFFF" sketch:type="MSShapeGroup"></path>
                <path d="M112.769231,84.0115385 L113.4,84.4653846 L113.626923,84.15 L112.769231,84.0115385" id="Fill-170" fill="#FFFFFF" sketch:type="MSShapeGroup"></path>
                <path d="M112.769231,84.0115385 L113.546154,84.0115385 L113.546154,84.4 L112.769231,84.0115385" id="Fill-171" fill="#FFFFFF" sketch:type="MSShapeGroup"></path>
                <path d="M113.965385,84.8807692 L113.726923,84.1423077 L113.353846,84.2538462 L113.965385,84.8807692" id="Fill-172" fill="#FFFFFF" sketch:type="MSShapeGroup"></path>
                <path d="M113.965385,84.8807692 L113.334615,84.4230769 L113.565385,84.1076923 L113.965385,84.8807692" id="Fill-173" fill="#FFFFFF" sketch:type="MSShapeGroup"></path>
                <path d="M113.053846,84.8807692 L113.680769,84.4230769 L113.453846,84.1076923 L113.053846,84.8807692" id="Fill-174" fill="#FFFFFF" sketch:type="MSShapeGroup"></path>
                <path d="M113.053846,84.8807692 L113.288462,84.1423077 L113.665385,84.2538462 L113.053846,84.8807692" id="Fill-175" fill="#FFFFFF" sketch:type="MSShapeGroup"></path>
                <path d="M89.6576923,69.4115385 L89.3576923,70.3346154 L89.8230769,70.4846154 L89.6576923,69.4115385" id="Fill-176" fill="#FFFFFF" sketch:type="MSShapeGroup"></path>
                <path d="M89.6576923,69.4115385 L89.9576923,70.3346154 L89.4961538,70.4846154 L89.6576923,69.4115385" id="Fill-177" fill="#FFFFFF" sketch:type="MSShapeGroup"></path>
                <path d="M90.5807692,70.0807692 L89.6115385,70.0807692 L89.6115385,70.5692308 L90.5807692,70.0807692" id="Fill-178" fill="#FFFFFF" sketch:type="MSShapeGroup"></path>
                <path d="M90.5807692,70.0807692 L89.7961538,70.6538462 L89.5115385,70.2576923 L90.5807692,70.0807692" id="Fill-179" fill="#FFFFFF" sketch:type="MSShapeGroup"></path>
                <path d="M88.7384615,70.0807692 L89.5230769,70.6538462 L89.8038462,70.2576923 L88.7384615,70.0807692" id="Fill-180" fill="#FFFFFF" sketch:type="MSShapeGroup"></path>
                <path d="M88.7384615,70.0807692 L89.7076923,70.0807692 L89.7076923,70.5692308 L88.7384615,70.0807692" id="Fill-181" fill="#FFFFFF" sketch:type="MSShapeGroup"></path>
                <path d="M90.2269231,71.1653846 L89.9307692,70.2461538 L89.4653846,70.3961538 L90.2269231,71.1653846" id="Fill-182" fill="#FFFFFF" sketch:type="MSShapeGroup"></path>
                <path d="M90.2269231,71.1653846 L89.4461538,70.6 L89.7307692,70.2038462 L90.2269231,71.1653846" id="Fill-183" fill="#FFFFFF" sketch:type="MSShapeGroup"></path>
                <path d="M89.0884615,71.1653846 L89.8730769,70.6 L89.5884615,70.2038462 L89.0884615,71.1653846" id="Fill-184" fill="#FFFFFF" sketch:type="MSShapeGroup"></path>
                <path d="M89.0884615,71.1653846 L89.3884615,70.2461538 L89.8538462,70.3961538 L89.0884615,71.1653846" id="Fill-185" fill="#FFFFFF" sketch:type="MSShapeGroup"></path>
                <path d="M107.407692,67.1307692 L107.169231,67.8653846 L107.538462,67.9884615 L107.407692,67.1307692" id="Fill-186" fill="#FFFFFF" sketch:type="MSShapeGroup"></path>
                <path d="M107.407692,67.1307692 L107.65,67.8653846 L107.280769,67.9884615 L107.407692,67.1307692" id="Fill-187" fill="#FFFFFF" sketch:type="MSShapeGroup"></path>
                <path d="M108.146154,67.6653846 L107.373077,67.6653846 L107.373077,68.0538462 L108.146154,67.6653846" id="Fill-188" fill="#FFFFFF" sketch:type="MSShapeGroup"></path>
                <path d="M108.146154,67.6653846 L107.519231,68.1230769 L107.296154,67.8115385 L108.146154,67.6653846" id="Fill-189" fill="#FFFFFF" sketch:type="MSShapeGroup"></path>
                <path d="M106.673077,67.6653846 L107.3,68.1230769 L107.526923,67.8115385 L106.673077,67.6653846" id="Fill-190" fill="#FFFFFF" sketch:type="MSShapeGroup"></path>
                <path d="M106.673077,67.6653846 L107.446154,67.6653846 L107.446154,68.0538462 L106.673077,67.6653846" id="Fill-191" fill="#FFFFFF" sketch:type="MSShapeGroup"></path>
                <path d="M107.865385,68.5346154 L107.626923,67.7961538 L107.253846,67.9153846 L107.865385,68.5346154" id="Fill-192" fill="#FFFFFF" sketch:type="MSShapeGroup"></path>
                <path d="M107.865385,68.5346154 L107.234615,68.0769231 L107.465385,67.7615385 L107.865385,68.5346154" id="Fill-193" fill="#FFFFFF" sketch:type="MSShapeGroup"></path>
                <path d="M106.95,68.5346154 L107.580769,68.0769231 L107.35,67.7615385 L106.95,68.5346154" id="Fill-194" fill="#FFFFFF" sketch:type="MSShapeGroup"></path>
                <path d="M106.95,68.5346154 L107.188462,67.7961538 L107.561538,67.9153846 L106.95,68.5346154" id="Fill-195" fill="#FFFFFF" sketch:type="MSShapeGroup"></path>
                <path d="M100.011538,80.3076923 L99.65,81.4192308 L100.207692,81.6 L100.011538,80.3076923" id="Fill-196" fill="#FFFFFF" sketch:type="MSShapeGroup"></path>
                <path d="M100.011538,80.3076923 L100.373077,81.4192308 L99.8192308,81.6 L100.011538,80.3076923" id="Fill-197" fill="#FFFFFF" sketch:type="MSShapeGroup"></path>
                <path d="M101.119231,81.1153846 L99.9538462,81.1153846 L99.9538462,81.7 L101.119231,81.1153846" id="Fill-198" fill="#FFFFFF" sketch:type="MSShapeGroup"></path>
                <path d="M101.119231,81.1153846 L100.180769,81.8 L99.8346154,81.3269231 L101.119231,81.1153846" id="Fill-199" fill="#FFFFFF" sketch:type="MSShapeGroup"></path>
                <path d="M98.9076923,81.1153846 L99.8461538,81.8 L100.192308,81.3269231 L98.9076923,81.1153846" id="Fill-200" fill="#FFFFFF" sketch:type="MSShapeGroup"></path>
                <path d="M98.9076923,81.1153846 L100.073077,81.1153846 L100.073077,81.7 L98.9076923,81.1153846" id="Fill-201" fill="#FFFFFF" sketch:type="MSShapeGroup"></path>
                <path d="M100.696154,82.4153846 L100.338462,81.3115385 L99.7846154,81.4884615 L100.696154,82.4153846" id="Fill-202" fill="#FFFFFF" sketch:type="MSShapeGroup"></path>
                <path d="M100.696154,82.4153846 L99.7538462,81.7346154 L100.096154,81.2615385 L100.696154,82.4153846" id="Fill-203" fill="#FFFFFF" sketch:type="MSShapeGroup"></path>
                <path d="M99.3269231,82.4153846 L100.269231,81.7346154 L99.9269231,81.2615385 L99.3269231,82.4153846" id="Fill-204" fill="#FFFFFF" sketch:type="MSShapeGroup"></path>
                <path d="M99.3269231,82.4153846 L99.6884615,81.3115385 L100.242308,81.4884615 L99.3269231,82.4153846" id="Fill-205" fill="#FFFFFF" sketch:type="MSShapeGroup"></path>
                <path d="M103.157692,75.1076923 L102.857692,76.0307692 L103.319231,76.1807692 L103.157692,75.1076923" id="Fill-206" fill="#FFFFFF" sketch:type="MSShapeGroup"></path>
                <path d="M103.157692,75.1076923 L103.457692,76.0307692 L102.992308,76.1807692 L103.157692,75.1076923" id="Fill-207" fill="#FFFFFF" sketch:type="MSShapeGroup"></path>
                <path d="M104.080769,75.7769231 L103.111538,75.7769231 L103.111538,76.2615385 L104.080769,75.7769231" id="Fill-208" fill="#FFFFFF" sketch:type="MSShapeGroup"></path>
                <path d="M104.080769,75.7769231 L103.292308,76.3461538 L103.007692,75.9538462 L104.080769,75.7769231" id="Fill-209" fill="#FFFFFF" sketch:type="MSShapeGroup"></path>
                <path d="M102.230769,75.7769231 L103.019231,76.3461538 L103.303846,75.9538462 L102.230769,75.7769231" id="Fill-210" fill="#FFFFFF" sketch:type="MSShapeGroup"></path>
                <path d="M102.230769,75.7769231 L103.2,75.7769231 L103.2,76.2615385 L102.230769,75.7769231" id="Fill-211" fill="#FFFFFF" sketch:type="MSShapeGroup"></path>
                <path d="M103.723077,76.8615385 L103.426923,75.9384615 L102.969231,76.0923077 L103.723077,76.8615385" id="Fill-212" fill="#FFFFFF" sketch:type="MSShapeGroup"></path>
                <path d="M103.723077,76.8615385 L102.942308,76.2923077 L103.223077,75.8961538 L103.723077,76.8615385" id="Fill-213" fill="#FFFFFF" sketch:type="MSShapeGroup"></path>
                <path d="M102.584615,76.8615385 L103.373077,76.2923077 L103.088462,75.8961538 L102.584615,76.8615385" id="Fill-214" fill="#FFFFFF" sketch:type="MSShapeGroup"></path>
                <path d="M102.584615,76.8615385 L102.888462,75.9384615 L103.346154,76.0923077 L102.584615,76.8615385" id="Fill-215" fill="#FFFFFF" sketch:type="MSShapeGroup"></path>
                <path d="M100.011538,72.6692308 L99.7115385,73.5884615 L100.176923,73.7423077 L100.011538,72.6692308" id="Fill-216" fill="#FFFFFF" sketch:type="MSShapeGroup"></path>
                <path d="M100.011538,72.6692308 L100.315385,73.5884615 L99.85,73.7423077 L100.011538,72.6692308" id="Fill-217" fill="#FFFFFF" sketch:type="MSShapeGroup"></path>
                <path d="M100.934615,73.3346154 L99.9653846,73.3346154 L99.9653846,73.8230769 L100.934615,73.3346154" id="Fill-218" fill="#FFFFFF" sketch:type="MSShapeGroup"></path>
                <path d="M100.934615,73.3346154 L100.15,73.9038462 L99.8653846,73.5153846 L100.934615,73.3346154" id="Fill-219" fill="#FFFFFF" sketch:type="MSShapeGroup"></path>
                <path d="M99.0923077,73.3346154 L99.8769231,73.9038462 L100.157692,73.5153846 L99.0923077,73.3346154" id="Fill-220" fill="#FFFFFF" sketch:type="MSShapeGroup"></path>
                <path d="M99.0923077,73.3346154 L100.061538,73.3346154 L100.061538,73.8230769 L99.0923077,73.3346154" id="Fill-221" fill="#FFFFFF" sketch:type="MSShapeGroup"></path>
                <path d="M100.580769,74.4230769 L100.284615,73.5 L99.8230769,73.6461538 L100.580769,74.4230769" id="Fill-222" fill="#FFFFFF" sketch:type="MSShapeGroup"></path>
                <path d="M100.580769,74.4230769 L99.8,73.8538462 L100.080769,73.4576923 L100.580769,74.4230769" id="Fill-223" fill="#FFFFFF" sketch:type="MSShapeGroup"></path>
                <path d="M99.4384615,74.4230769 L100.226923,73.8538462 L99.9423077,73.4576923 L99.4384615,74.4230769" id="Fill-224" fill="#FFFFFF" sketch:type="MSShapeGroup"></path>
                <path d="M99.4384615,74.4230769 L99.7423077,73.5 L100.207692,73.6461538 L99.4384615,74.4230769" id="Fill-225" fill="#FFFFFF" sketch:type="MSShapeGroup"></path>
                <path d="M97.2769231,75.3 L97.0384615,76.0423077 L97.4038462,76.1576923 L97.2769231,75.3" id="Fill-226" fill="#FFFFFF" sketch:type="MSShapeGroup"></path>
                <path d="M97.2769231,75.3 L97.5153846,76.0423077 L97.1461538,76.1576923 L97.2769231,75.3" id="Fill-227" fill="#FFFFFF" sketch:type="MSShapeGroup"></path>
                <path d="M98.0153846,75.8346154 L97.2423077,75.8346154 L97.2423077,76.2230769 L98.0153846,75.8346154" id="Fill-228" fill="#FFFFFF" sketch:type="MSShapeGroup"></path>
                <path d="M98.0153846,75.8346154 L97.3846154,76.2961538 L97.1576923,75.9807692 L98.0153846,75.8346154" id="Fill-229" fill="#FFFFFF" sketch:type="MSShapeGroup"></path>
                <path d="M96.5346154,75.8346154 L97.1653846,76.2961538 L97.3923077,75.9807692 L96.5346154,75.8346154" id="Fill-230" fill="#FFFFFF" sketch:type="MSShapeGroup"></path>
                <path d="M96.5346154,75.8346154 L97.3153846,75.8346154 L97.3153846,76.2230769 L96.5346154,75.8346154" id="Fill-231" fill="#FFFFFF" sketch:type="MSShapeGroup"></path>
                <path d="M97.7307692,76.7038462 L97.4961538,75.9653846 L97.1230769,76.0846154 L97.7307692,76.7038462" id="Fill-232" fill="#FFFFFF" sketch:type="MSShapeGroup"></path>
                <path d="M97.7307692,76.7038462 L97.1038462,76.25 L97.3346154,75.9346154 L97.7307692,76.7038462" id="Fill-233" fill="#FFFFFF" sketch:type="MSShapeGroup"></path>
                <path d="M96.8192308,76.7038462 L97.45,76.25 L97.2230769,75.9346154 L96.8192308,76.7038462" id="Fill-234" fill="#FFFFFF" sketch:type="MSShapeGroup"></path>
                <path d="M96.8192308,76.7038462 L97.0615385,75.9653846 L97.4307692,76.0846154 L96.8192308,76.7038462" id="Fill-235" fill="#FFFFFF" sketch:type="MSShapeGroup"></path>
                <path d="M98.6423077,77.4076923 L98.4730769,77.9346154 L98.7384615,78.0192308 L98.6423077,77.4076923" id="Fill-236" fill="#FFFFFF" sketch:type="MSShapeGroup"></path>
                <path d="M98.6423077,77.4076923 L98.8192308,77.9346154 L98.5538462,78.0192308 L98.6423077,77.4076923" id="Fill-237" fill="#FFFFFF" sketch:type="MSShapeGroup"></path>
                <path d="M99.1692308,77.7923077 L98.6192308,77.7923077 L98.6192308,78.0692308 L99.1692308,77.7923077" id="Fill-238" fill="#FFFFFF" sketch:type="MSShapeGroup"></path>
                <path d="M99.1692308,77.7923077 L98.7192308,78.1192308 L98.5615385,77.8961538 L99.1692308,77.7923077" id="Fill-239" fill="#FFFFFF" sketch:type="MSShapeGroup"></path>
                <path d="M98.1192308,77.7923077 L98.5653846,78.1192308 L98.7307692,77.8961538 L98.1192308,77.7923077" id="Fill-240" fill="#FFFFFF" sketch:type="MSShapeGroup"></path>
                <path d="M98.1192308,77.7923077 L98.6692308,77.7923077 L98.6692308,78.0692308 L98.1192308,77.7923077" id="Fill-241" fill="#FFFFFF" sketch:type="MSShapeGroup"></path>
                <path d="M98.9692308,78.4153846 L98.7961538,77.8807692 L98.5346154,77.9730769 L98.9692308,78.4153846" id="Fill-242" fill="#FFFFFF" sketch:type="MSShapeGroup"></path>
                <path d="M98.9692308,78.4153846 L98.5192308,78.0846154 L98.6846154,77.8615385 L98.9692308,78.4153846" id="Fill-243" fill="#FFFFFF" sketch:type="MSShapeGroup"></path>
                <path d="M98.3192308,78.4153846 L98.7692308,78.0846154 L98.6038462,77.8615385 L98.3192308,78.4153846" id="Fill-244" fill="#FFFFFF" sketch:type="MSShapeGroup"></path>
                <path d="M98.3192308,78.4153846 L98.4884615,77.8807692 L98.75,77.9730769 L98.3192308,78.4153846" id="Fill-245" fill="#FFFFFF" sketch:type="MSShapeGroup"></path>
                <path d="M108.15,86.6038462 L107.846154,87.5307692 L108.311538,87.6807692 L108.15,86.6038462" id="Fill-246" fill="#FFFFFF" sketch:type="MSShapeGroup"></path>
                <path d="M108.15,86.6038462 L108.45,87.5307692 L107.988462,87.6807692 L108.15,86.6038462" id="Fill-247" fill="#FFFFFF" sketch:type="MSShapeGroup"></path>
                <path d="M109.073077,87.2769231 L108.1,87.2769231 L108.1,87.7615385 L109.073077,87.2769231" id="Fill-248" fill="#FFFFFF" sketch:type="MSShapeGroup"></path>
                <path d="M109.073077,87.2769231 L108.288462,87.8461538 L108,87.4538462 L109.073077,87.2769231" id="Fill-249" fill="#FFFFFF" sketch:type="MSShapeGroup"></path>
                <path d="M107.223077,87.2769231 L108.011538,87.8461538 L108.296154,87.4538462 L107.223077,87.2769231" id="Fill-250" fill="#FFFFFF" sketch:type="MSShapeGroup"></path>
                <path d="M107.223077,87.2769231 L108.196154,87.2769231 L108.196154,87.7615385 L107.223077,87.2769231" id="Fill-251" fill="#FFFFFF" sketch:type="MSShapeGroup"></path>
                <path d="M108.723077,88.3615385 L108.423077,87.4384615 L107.957692,87.5923077 L108.723077,88.3615385" id="Fill-252" fill="#FFFFFF" sketch:type="MSShapeGroup"></path>
                <path d="M108.723077,88.3615385 L107.934615,87.7923077 L108.219231,87.4038462 L108.723077,88.3615385" id="Fill-253" fill="#FFFFFF" sketch:type="MSShapeGroup"></path>
                <path d="M107.576923,88.3615385 L108.365385,87.7923077 L108.076923,87.4038462 L107.576923,88.3615385" id="Fill-254" fill="#FFFFFF" sketch:type="MSShapeGroup"></path>
                <path d="M107.576923,88.3615385 L107.876923,87.4384615 L108.334615,87.5923077 L107.576923,88.3615385" id="Fill-255" fill="#FFFFFF" sketch:type="MSShapeGroup"></path>
                <path d="M110.476923,84.4 L110.238462,85.1346154 L110.607692,85.2576923 L110.476923,84.4" id="Fill-256" fill="#FFFFFF" sketch:type="MSShapeGroup"></path>
                <path d="M110.476923,84.4 L110.715385,85.1346154 L110.35,85.2576923 L110.476923,84.4" id="Fill-257" fill="#FFFFFF" sketch:type="MSShapeGroup"></path>
                <path d="M111.219231,84.9384615 L110.438462,84.9384615 L110.438462,85.3153846 L111.219231,84.9384615" id="Fill-258" fill="#FFFFFF" sketch:type="MSShapeGroup"></path>
                <path d="M111.219231,84.9384615 L110.592308,85.3884615 L110.361538,85.0807692 L111.219231,84.9384615" id="Fill-259" fill="#FFFFFF" sketch:type="MSShapeGroup"></path>
                <path d="M109.738462,84.9384615 L110.365385,85.3884615 L110.596154,85.0807692 L109.738462,84.9384615" id="Fill-260" fill="#FFFFFF" sketch:type="MSShapeGroup"></path>
                <path d="M109.738462,84.9384615 L110.515385,84.9384615 L110.515385,85.3153846 L109.738462,84.9384615" id="Fill-261" fill="#FFFFFF" sketch:type="MSShapeGroup"></path>
                <path d="M110.934615,85.8 L110.696154,85.0615385 L110.326923,85.1846154 L110.934615,85.8" id="Fill-262" fill="#FFFFFF" sketch:type="MSShapeGroup"></path>
                <path d="M110.934615,85.8 L110.307692,85.35 L110.534615,85.0346154 L110.934615,85.8" id="Fill-263" fill="#FFFFFF" sketch:type="MSShapeGroup"></path>
                <path d="M110.026923,85.8 L110.65,85.35 L110.419231,85.0346154 L110.026923,85.8" id="Fill-264" fill="#FFFFFF" sketch:type="MSShapeGroup"></path>
                <path d="M110.026923,85.8 L110.261538,85.0615385 L110.626923,85.1846154 L110.026923,85.8" id="Fill-265" fill="#FFFFFF" sketch:type="MSShapeGroup"></path>
                <path d="M106.007692,83.7307692 L105.765385,84.4692308 L106.134615,84.5923077 L106.007692,83.7307692" id="Fill-266" fill="#FFFFFF" sketch:type="MSShapeGroup"></path>
                <path d="M106.007692,83.7307692 L106.246154,84.4692308 L105.873077,84.5923077 L106.007692,83.7307692" id="Fill-267" fill="#FFFFFF" sketch:type="MSShapeGroup"></path>
                <path d="M106.742308,84.2653846 L105.965385,84.2653846 L105.965385,84.6576923 L106.742308,84.2653846" id="Fill-268" fill="#FFFFFF" sketch:type="MSShapeGroup"></path>
                <path d="M106.742308,84.2653846 L106.111538,84.7230769 L105.884615,84.4076923 L106.742308,84.2653846" id="Fill-269" fill="#FFFFFF" sketch:type="MSShapeGroup"></path>
                <path d="M105.265385,84.2653846 L105.892308,84.7230769 L106.119231,84.4076923 L105.265385,84.2653846" id="Fill-270" fill="#FFFFFF" sketch:type="MSShapeGroup"></path>
                <path d="M105.265385,84.2653846 L106.042308,84.2653846 L106.042308,84.6576923 L105.265385,84.2653846" id="Fill-271" fill="#FFFFFF" sketch:type="MSShapeGroup"></path>
                <path d="M106.465385,85.1384615 L106.223077,84.4 L105.85,84.5230769 L106.465385,85.1384615" id="Fill-272" fill="#FFFFFF" sketch:type="MSShapeGroup"></path>
                <path d="M106.465385,85.1384615 L105.830769,84.6769231 L106.057692,84.3692308 L106.465385,85.1384615" id="Fill-273" fill="#FFFFFF" sketch:type="MSShapeGroup"></path>
                <path d="M105.546154,85.1384615 L106.176923,84.6769231 L105.95,84.3692308 L105.546154,85.1384615" id="Fill-274" fill="#FFFFFF" sketch:type="MSShapeGroup"></path>
                <path d="M105.546154,85.1384615 L105.788462,84.4 L106.157692,84.5230769 L105.546154,85.1384615" id="Fill-275" fill="#FFFFFF" sketch:type="MSShapeGroup"></path>
                <path d="M89.1,82.5307692 L88.7461538,83.6346154 L89.3,83.8230769 L89.1,82.5307692" id="Fill-276" fill="#FFFFFF" sketch:type="MSShapeGroup"></path>
                <path d="M89.1,82.5307692 L89.4615385,83.6346154 L88.9115385,83.8230769 L89.1,82.5307692" id="Fill-277" fill="#FFFFFF" sketch:type="MSShapeGroup"></path>
                <path d="M90.2153846,83.3384615 L89.05,83.3384615 L89.05,83.9192308 L90.2153846,83.3384615" id="Fill-278" fill="#FFFFFF" sketch:type="MSShapeGroup"></path>
                <path d="M90.2153846,83.3384615 L89.2692308,84.0192308 L88.9307692,83.55 L90.2153846,83.3384615" id="Fill-279" fill="#FFFFFF" sketch:type="MSShapeGroup"></path>
                <path d="M87.9961538,83.3384615 L88.9423077,84.0192308 L89.2807692,83.55 L87.9961538,83.3384615" id="Fill-280" fill="#FFFFFF" sketch:type="MSShapeGroup"></path>
                <path d="M87.9961538,83.3384615 L89.1615385,83.3384615 L89.1615385,83.9192308 L87.9961538,83.3384615" id="Fill-281" fill="#FFFFFF" sketch:type="MSShapeGroup"></path>
                <path d="M89.7923077,84.6346154 L89.4307692,83.5269231 L88.8769231,83.7153846 L89.7923077,84.6346154" id="Fill-282" fill="#FFFFFF" sketch:type="MSShapeGroup"></path>
                <path d="M89.7923077,84.6346154 L88.8461538,83.9538462 L89.1884615,83.4807692 L89.7923077,84.6346154" id="Fill-283" fill="#FFFFFF" sketch:type="MSShapeGroup"></path>
                <path d="M88.4192308,84.6346154 L89.3615385,83.9538462 L89.0192308,83.4807692 L88.4192308,84.6346154" id="Fill-284" fill="#FFFFFF" sketch:type="MSShapeGroup"></path>
                <path d="M88.4192308,84.6346154 L88.7807692,83.5269231 L89.3346154,83.7153846 L88.4192308,84.6346154" id="Fill-285" fill="#FFFFFF" sketch:type="MSShapeGroup"></path>
                <path d="M100.011538,90.1461538 L99.8923077,90.5153846 L100.080769,90.5769231 L100.011538,90.1461538" id="Fill-286" fill="#FFFFFF" sketch:type="MSShapeGroup"></path>
                <path d="M100.011538,90.1461538 L100.134615,90.5153846 L99.9461538,90.5769231 L100.011538,90.1461538" id="Fill-287" fill="#FFFFFF" sketch:type="MSShapeGroup"></path>
                <path d="M100.380769,90.4153846 L99.9923077,90.4153846 L99.9923077,90.6076923 L100.380769,90.4153846" id="Fill-288" fill="#FFFFFF" sketch:type="MSShapeGroup"></path>
                <path d="M100.380769,90.4153846 L100.065385,90.6461538 L99.9538462,90.4846154 L100.380769,90.4153846" id="Fill-289" fill="#FFFFFF" sketch:type="MSShapeGroup"></path>
                <path d="M99.6423077,90.4153846 L99.9576923,90.6461538 L100.073077,90.4846154 L99.6423077,90.4153846" id="Fill-290" fill="#FFFFFF" sketch:type="MSShapeGroup"></path>
                <path d="M99.6423077,90.4153846 L100.034615,90.4153846 L100.034615,90.6076923 L99.6423077,90.4153846" id="Fill-291" fill="#FFFFFF" sketch:type="MSShapeGroup"></path>
                <path d="M100.238462,90.85 L100.123077,90.4807692 L99.9384615,90.5423077 L100.238462,90.85" id="Fill-292" fill="#FFFFFF" sketch:type="MSShapeGroup"></path>
                <path d="M100.238462,90.85 L99.9269231,90.6192308 L100.038462,90.4653846 L100.238462,90.85" id="Fill-293" fill="#FFFFFF" sketch:type="MSShapeGroup"></path>
                <path d="M99.7846154,90.85 L100.096154,90.6192308 L99.9846154,90.4653846 L99.7846154,90.85" id="Fill-294" fill="#FFFFFF" sketch:type="MSShapeGroup"></path>
                <path d="M99.7846154,90.85 L99.9076923,90.4807692 L100.092308,90.5423077 L99.7846154,90.85" id="Fill-295" fill="#FFFFFF" sketch:type="MSShapeGroup"></path>
            </g>
        </g>
    </g>
</svg>