<svg xmlns="http://www.w3.org/2000/svg" width="200" height="136" viewBox="0 0 200 136">
  <g fill="none" fill-rule="evenodd">
    <path fill="#FFF" d="M0,116.005808 C0,127.048295 8.94946575,136 20.0001277,136 L179.999872,136 C191.045638,136 200,127.050379 200,116.005808 L200,19.9941922 C200,8.95170478 191.050534,0 179.999872,0 L20.0001277,0 C8.95436216,0 0,8.94962075 0,19.9941922 L0,116.005808 Z"/>
    <polyline fill="#003580" points="86.553 54.353 86.553 0 59.661 0 59.661 54.353 0 54.353 0 81.647 59.661 81.647 59.661 136 86.553 136 86.553 81.647 200 81.647 200 54.353 86.553 54.353"/>
  </g>
</svg>
