<svg width="160" height="47" viewBox="0 0 160 47" xmlns="http://www.w3.org/2000/svg">
    <title>
      Google-Play
    </title>
    <defs>
        <linearGradient x1="91.49%" y1="4.95%" x2="-38.35%" y2="71.91%" id="a">
            <stop stop-color="#00A0FF" offset="0%"/>
            <stop stop-color="#00A1FF" offset="1%"/>
            <stop stop-color="#00BEFF" offset="26%"/>
            <stop stop-color="#00D2FF" offset="51%"/>
            <stop stop-color="#00DFFF" offset="76%"/>
            <stop stop-color="#00E3FF" offset="100%"/>
        </linearGradient>
        <linearGradient x1="107.68%" y1="50%" x2="-130.64%" y2="50%" id="b">
            <stop stop-color="#FFE000" offset="0%"/>
            <stop stop-color="#FFBD00" offset="41%"/>
            <stop stop-color="#FFA500" offset="78%"/>
            <stop stop-color="#FF9C00" offset="100%"/>
        </linearGradient>
        <linearGradient x1="86.22%" y1="17.88%" x2="-50.15%" y2="194.7%" id="c">
            <stop stop-color="#FF3A44" offset="0%"/>
            <stop stop-color="#C31162" offset="100%"/>
        </linearGradient>
        <linearGradient x1="-18.75%" y1="-54.05%" x2="42.12%" y2="24.92%" id="d">
            <stop stop-color="#32A071" offset="0%"/>
            <stop stop-color="#2DA771" offset="7%"/>
            <stop stop-color="#15CF74" offset="48%"/>
            <stop stop-color="#06E775" offset="80%"/>
            <stop stop-color="#00F076" offset="100%"/>
        </linearGradient>
    </defs>
    <g fill="none" fill-rule="evenodd">
        <rect fill="#000" width="160" height="47.41" rx="5.93"/>
        <path d="M154.074.948a4.978 4.978 0 0 1 4.978 4.978V41.48a4.978 4.978 0 0 1-4.978 4.978H5.926a4.978 4.978 0 0 1-4.978-4.978V5.926A4.978 4.978 0 0 1 5.926.948h148.148zm0-.948H5.926A5.926 5.926 0 0 0 0 5.926V41.48a5.926 5.926 0 0 0 5.926 5.926h148.148A5.926 5.926 0 0 0 160 41.481V5.926A5.926 5.926 0 0 0 154.074 0z" fill="#A6A6A6"/>
        <path d="M56.201 12.136c.041.879-.28 1.736-.888 2.37a3.449 3.449 0 0 1-2.608 1.055 3.733 3.733 0 0 1-2.62-6.364 3.556 3.556 0 0 1 2.62-1.067c.501-.001.997.1 1.458.297.429.173.81.445 1.114.794l-.628.628a2.37 2.37 0 0 0-1.944-.842 2.75 2.75 0 0 0-2.761 2.845 2.797 2.797 0 0 0 4.74 2.05 2.24 2.24 0 0 0 .593-1.446h-2.572v-.853h3.45c.03.176.047.354.046.533zM61.63 9.173h-3.2v2.252h2.915v.854H58.43v2.251h3.2v.877H57.48v-7.11h4.149zM65.517 15.407h-.913V9.173h-1.99v-.877h4.942v.877h-2.039zM71.04 15.407v-7.11h.913v7.11zM76.006 15.407h-.913V9.173h-1.99v-.877h4.882v.877h-1.98zM87.241 14.483a3.698 3.698 0 0 1-5.214 0 3.84 3.84 0 0 1 0-5.274 3.674 3.674 0 0 1 5.214 0 3.828 3.828 0 0 1 0 5.274zm-4.539-.593a2.738 2.738 0 0 0 3.864 0 3.034 3.034 0 0 0 0-4.077 2.738 2.738 0 0 0-3.864 0 3.034 3.034 0 0 0 0 4.077zM89.576 15.407v-7.11h1.114l3.461 5.534V8.296h.9v7.111h-.947l-3.615-5.795v5.795zM80.759 25.778a5.037 5.037 0 1 0 5.06 5.037 4.966 4.966 0 0 0-5.06-5.037zm0 8.095a3.058 3.058 0 1 1 2.844-3.058 2.916 2.916 0 0 1-2.844 3.058zm-11.035-8.095a5.037 5.037 0 1 0 5.05 5.037 4.966 4.966 0 0 0-5.061-5.037h.011zm0 8.095a3.058 3.058 0 1 1 2.833-3.058 2.916 2.916 0 0 1-2.844 3.058h.011zM56.581 27.33v2.134h5.12a4.468 4.468 0 0 1-1.185 2.69 5.239 5.239 0 0 1-3.947 1.565 5.689 5.689 0 1 1 0-11.378 5.452 5.452 0 0 1 3.875 1.529l1.506-1.506a7.455 7.455 0 0 0-5.37-2.216 7.834 7.834 0 1 0 0 15.656 7.111 7.111 0 0 0 5.464-2.192 7.111 7.111 0 0 0 1.85-5.002 6.957 6.957 0 0 0-.12-1.339h-7.193v.06zm53.7 1.66a4.74 4.74 0 0 0-4.314-3.212 4.74 4.74 0 0 0-4.74 5.037 4.93 4.93 0 0 0 5.001 5.037 5.013 5.013 0 0 0 4.196-2.228l-1.719-1.185a2.88 2.88 0 0 1-2.477 1.398 2.56 2.56 0 0 1-2.441-1.529l6.743-2.785-.249-.533zm-6.874 1.683a2.761 2.761 0 0 1 2.632-2.94 1.956 1.956 0 0 1 1.872 1.067l-4.504 1.873zm-5.475 4.883h2.216V20.74h-2.216v14.815zm-3.627-8.652h-.083a3.556 3.556 0 0 0-2.655-1.185 5.049 5.049 0 0 0 0 10.085 3.437 3.437 0 0 0 2.655-1.185h.071v.818c0 1.932-1.03 2.963-2.69 2.963a2.785 2.785 0 0 1-2.536-1.79l-1.932.806a4.8 4.8 0 0 0 4.468 2.975c2.596 0 4.74-1.529 4.74-5.25v-9.067h-2.038v.83zm-2.536 6.969a3.07 3.07 0 0 1 0-6.116 2.844 2.844 0 0 1 2.69 3.058 2.82 2.82 0 0 1-2.702 3.058h.012zm28.895-13.132h-5.298v14.815h2.216v-5.618h3.094a4.61 4.61 0 1 0-.012-9.197zm0 7.11h-3.094v-5.048h3.141a2.536 2.536 0 1 1 0 5.073l-.047-.024zm13.665-2.132a4.148 4.148 0 0 0-3.947 2.263l1.968.818a2.098 2.098 0 0 1 2.014-1.09 2.133 2.133 0 0 1 2.37 1.908v.154a4.895 4.895 0 0 0-2.31-.569c-2.122 0-4.267 1.185-4.267 3.33a3.425 3.425 0 0 0 3.674 3.26 3.117 3.117 0 0 0 2.845-1.423h.07v1.186h2.134v-5.701c0-2.596-1.967-4.1-4.492-4.1l-.06-.036zm-.273 8.118a1.54 1.54 0 0 1-1.73-1.256c0-1.185 1.256-1.577 2.37-1.577.704-.017 1.4.155 2.015.498a2.679 2.679 0 0 1-2.595 2.37l-.06-.035zm12.599-7.763l-2.536 6.424h-.072l-2.63-6.424h-2.371l3.947 8.984-2.252 4.99h2.31l6.069-13.974h-2.465zm-19.923 9.482h2.216V20.74h-2.216v14.815z" fill="#FFF"/>
        <path d="M12.373 8.936a2.37 2.37 0 0 0-.545 1.66v26.216a2.37 2.37 0 0 0 .545 1.66l.083.082 14.685-14.673v-.355L12.456 8.853l-.083.083z" fill="url(#a)"/>
        <path d="M32 28.776l-4.86-4.895v-.355L32 18.63l.107.06 5.819 3.306c1.66.936 1.66 2.477 0 3.425l-5.796 3.295-.13.06z" fill="url(#b)"/>
        <path d="M32.142 28.705l-5.001-5.001L12.373 38.47a1.932 1.932 0 0 0 2.466.071l17.315-9.837" fill="url(#c)"/>
        <path d="M32.142 18.702L14.827 8.865a1.932 1.932 0 0 0-2.466.071l14.78 14.768 5.001-5.002z" fill="url(#d)"/>
        <path d="M32 28.599l-17.173 9.777a1.98 1.98 0 0 1-2.37 0l-.084.083.083.083c.702.53 1.67.53 2.37 0l17.316-9.837L32 28.6z" fill="#000" opacity=".2"/>
        <path d="M12.373 38.305a2.37 2.37 0 0 1-.545-1.66v.179a2.37 2.37 0 0 0 .545 1.659l.083-.083-.083-.095zM37.926 25.244L32 28.6l.107.106 5.819-3.295a2.074 2.074 0 0 0 1.185-1.706 2.204 2.204 0 0 1-1.185 1.54z" fill="#000" opacity=".12"/>
        <path d="M14.827 9.031l23.099 13.132c.612.302 1.05.871 1.185 1.54a2.074 2.074 0 0 0-1.185-1.706l-23.1-13.132c-1.659-.936-3.01-.154-3.01 1.742v.178c.036-1.908 1.363-2.69 3.01-1.754z" fill="#000" opacity=".25"/>
    </g>
</svg>
