<?xml version="1.0" encoding="UTF-8" standalone="no"?>
<svg width="2px" height="10px" viewBox="0 0 2 10" version="1.1" xmlns="http://www.w3.org/2000/svg" xmlns:xlink="http://www.w3.org/1999/xlink">
    <!-- Generator: Sketch 39.1 (31720) - http://www.bohemiancoding.com/sketch -->
    <title>Combined Shape</title>
    <desc>Created with Sketch.</desc>
    <defs></defs>
    <g id="Analytics" stroke="none" stroke-width="1" fill="none" fill-rule="evenodd">
        <g id="Analytics-Overview" transform="translate(-150.000000, -56.000000)" fill="#F7F7F7">
            <g id="Group-5" transform="translate(112.000000, 31.000000)">
                <g id="Group-18" transform="translate(30.000000, 18.000000)">
                    <g id="Group-17" transform="translate(0.000000, 3.000000)">
                        <path d="M8,8.99077797 C8,8.44358641 8.44386482,8 9,8 C9.55228475,8 10,8.45097518 10,8.99077797 L10,13.009222 C10,13.5564136 9.55613518,14 9,14 C8.44771525,14 8,13.5490248 8,13.009222 L8,8.99077797 Z M8,4.99895656 C8,4.44724809 8.44386482,4 9,4 C9.55228475,4 10,4.44266033 10,4.99895656 L10,6.00104344 C10,6.55275191 9.55613518,7 9,7 C8.44771525,7 8,6.55733967 8,6.00104344 L8,4.99895656 Z" id="Combined-Shape"></path>
                    </g>
                </g>
            </g>
        </g>
    </g>
</svg>