<svg xmlns="http://www.w3.org/2000/svg" width="24" height="24" viewBox="0 0 24 24">
    <path  fill-rule="evenodd" d="M3 22c.55 0 1-.449 1-1a1.001 1.001 0 0 0-2 0c0 .551.449 1 1 1M18.695 3.968A2.505 2.505 0 0 0 21 5.5c1.378 0 2.5-1.122 2.5-2.499A2.503 2.503 0 0 0 21 .5 2.504 2.504 0 0 0 18.71 2H4.473C3.109 1.968 2 3.076 2 4.44V7a1 1 0 1 0 2 0V4.44c0-.26.212-.472.473-.472h14.222zM5.305 20.032A2.505 2.505 0 0 0 3 18.5a2.503 2.503 0 0 0-2.5 2.499A2.503 2.503 0 0 0 3 23.5 2.504 2.504 0 0 0 5.29 22h14.236c1.364.032 2.473-1.076 2.473-2.44V17a1 1 0 1 0-2 0v2.56c0 .26-.212.472-.473.472H5.305zM21 2c-.55 0-1 .449-1 1a1.001 1.001 0 0 0 2 0c0-.551-.449-1-1-1zm-5.298 9.837c-.762-.321-1.421-.598-1.421-1.045 0-.45.458-.788 1.065-.788.545 0 1.023.225 1.336.418.222.124.426.16.61.109.17-.05.308-.172.415-.37l.202-.404c.22-.403.13-.787-.218-.992a3.656 3.656 0 0 0-1.654-.627v-.471c0-.418-.267-.667-.714-.667h-.085c-.462 0-.726.27-.726.739v.442c-1.372.302-2.278 1.339-2.278 2.635 0 1.648 1.46 2.29 2.633 2.806.784.345 1.46.643 1.46 1.107 0 .59-.547.8-1.017.8-.526 0-1.061-.19-1.601-.568-.393-.255-.767-.192-1.031.172l-.267.377a.8.8 0 0 0-.164.542.678.678 0 0 0 .3.49 4.355 4.355 0 0 0 1.965.846v.479c0 .416.27.665.726.665h.085c.44 0 .714-.288.714-.75v-.4c1.408-.27 2.338-1.328 2.338-2.69 0-1.73-1.482-2.353-2.673-2.855zM5 8.95c0-.454.24-.95.695-.95h2.45c.921 0 1.19.063 1.581.214 1.022.392 1.667 1.57 1.667 2.882 0 .96-.455 2.01-1.35 2.463v.025s.124.165.34.543l1.146 2.071c.278.48.237.834-.306.834h-.959c-.38 0-.63-.152-.822-.493l-1.196-2.554H7v2.341c0 .454-.24.694-.695.694h-.61c-.455 0-.695-.24-.695-.694V8.95zm2.96 3.141c.706 0 1.15-.39 1.15-1.11 0-.456-.116-.797-.532-.96-.203-.089-.468-.127-.834-.127H7v2.197h.96z"/>
</svg>
