<svg xmlns="http://www.w3.org/2000/svg" width="24" height="24" viewBox="0 0 24 24">
    <path  fill-rule="evenodd" d="M3 22c.55 0 1-.449 1-1a1.001 1.001 0 0 0-2 0c0 .551.449 1 1 1m5.013-9.5h-1.08c-.516 0-.933.447-.933 1 0 .553.417 1 .933 1h1.602a5.616 5.616 0 0 0 7.584 2.627c.493-.248.693-.848.446-1.343a1.004 1.004 0 0 0-1.343-.446 3.602 3.602 0 0 1-4.314-.838h1.159c.516 0 .933-.447.933-1 0-.553-.417-1-.933-1H10.02A3.63 3.63 0 0 1 10 12h2.066c.516 0 .933-.447.933-1 0-.553-.417-1-.933-1h-1.385a3.606 3.606 0 0 1 4.747-1.009.999.999 0 1 0 1.008-1.726 5.613 5.613 0 0 0-2.828-.765A5.618 5.618 0 0 0 8.412 10H6.933C6.417 10 6 10.447 6 11c0 .553.417 1 .933 1h1.068a5.692 5.692 0 0 0 .012.5zm10.682-8.532A2.505 2.505 0 0 0 21 5.5c1.378 0 2.5-1.122 2.5-2.499A2.503 2.503 0 0 0 21 .5 2.504 2.504 0 0 0 18.71 2H4.473C3.109 1.968 2 3.076 2 4.44V7a1 1 0 1 0 2 0V4.44c0-.26.212-.472.473-.472h14.222zM5.305 20.032A2.505 2.505 0 0 0 3 18.5a2.503 2.503 0 0 0-2.5 2.499A2.503 2.503 0 0 0 3 23.5 2.504 2.504 0 0 0 5.29 22h14.236c1.364.032 2.473-1.076 2.473-2.44V17a1 1 0 1 0-2 0v2.56c0 .26-.212.472-.473.472H5.305zM21 2c-.55 0-1 .449-1 1a1.001 1.001 0 0 0 2 0c0-.551-.449-1-1-1z"/>
</svg>
