<svg xmlns="http://www.w3.org/2000/svg" width="24" height="24" viewBox="0 0 24 24">
    <path  fill-rule="evenodd" d="M3 22c.55 0 1-.449 1-1a1.001 1.001 0 0 0-2 0c0 .551.449 1 1 1M18.695 3.968A2.505 2.505 0 0 0 21 5.5c1.378 0 2.5-1.122 2.5-2.499A2.503 2.503 0 0 0 21 .5 2.504 2.504 0 0 0 18.71 2H4.473C3.109 1.968 2 3.076 2 4.44V7a1 1 0 1 0 2 0V4.44c0-.26.212-.472.473-.472h14.222zM5.305 20.032A2.505 2.505 0 0 0 3 18.5a2.503 2.503 0 0 0-2.5 2.499A2.503 2.503 0 0 0 3 23.5 2.504 2.504 0 0 0 5.29 22h14.236c1.364.032 2.473-1.076 2.473-2.44V17a1 1 0 1 0-2 0v2.56c0 .26-.212.472-.473.472H5.305zM21 2c-.55 0-1 .449-1 1a1.001 1.001 0 0 0 2 0c0-.551-.449-1-1-1zm-7 8.716c0-.421.218-.654.637-.654h.608c.42 0 .653.233.653.654v.747c0 .296-.046.545-.046.545h.031c.311-.95 1.183-2.008 2.304-2.008.435 0 .591.218.591.654v.607c0 .42-.249.653-.668.653-1.449 0-2.149 1.433-2.149 2.88v2.553c0 .436-.218.654-.638.654h-.686c-.419 0-.637-.218-.637-.654v-6.631zM6 7.654C6 7.233 6.233 7 6.654 7h.669c.435 0 .653.233.653.654v5.26h.981l1.65-2.365c.187-.311.421-.436.779-.436h.746c.529 0 .701.358.406.778l-1.977 2.772v.03l2.335 3.58c.264.452.093.779-.436.779h-.841c-.358 0-.591-.14-.763-.451l-1.852-3.02H7.976v2.817c0 .436-.218.654-.653.654h-.669c-.421 0-.654-.218-.654-.654V7.654z"/>
</svg>
