<svg width="24" height="24" viewBox="0 0 24 24" xmlns="http://www.w3.org/2000/svg">
    <title>
        icon-nav-overview
    </title>
    <path d="M14.9 2.64c1.436.622 2.62 1.56 3.277 2.173-.731.682-2.115 1.766-3.773 2.37a3.458 3.458 0 0 0 .495-4.543zm-5.672-.003C7.79 3.26 6.605 4.2 5.948 4.813c.731.682 2.116 1.77 3.776 2.373a3.458 3.458 0 0 1-.496-4.549zM11 9.555V11H4.5a1 1 0 0 0-1 1v7.209A2.504 2.504 0 0 0 2 21.5 2.503 2.503 0 0 0 4.5 24C5.878 24 7 22.878 7 21.501a2.505 2.505 0 0 0-1.5-2.292V13H11v6.209A2.504 2.504 0 0 0 9.5 21.5 2.503 2.503 0 0 0 12 24c1.378 0 2.5-1.122 2.5-2.499a2.505 2.505 0 0 0-1.5-2.292V13h5.5v6.209A2.504 2.504 0 0 0 17 21.5 2.503 2.503 0 0 0 19.5 24c1.378 0 2.5-1.122 2.5-2.499a2.505 2.505 0 0 0-1.5-2.292V12a1 1 0 0 0-1-1H13V9.57c4.073-.48 7.122-3.885 7.155-3.922.173-.197.335-.547.332-.824.034-.43-.211-.708-.33-.845C20.12 3.939 16.596 0 12.057 0c-4.476 0-7.92 3.79-8.064 3.951-.146.164-.388.434-.358.865-.027.428.214.697.36.86.133.148 3.056 3.363 7.004 3.88zM4.5 20.5c-.55 0-1 .449-1 1a1.001 1.001 0 0 0 2 0c0-.551-.449-1-1-1zm7.5 0c-.55 0-1 .449-1 1a1.001 1.001 0 0 0 2 0c0-.551-.449-1-1-1zm7.5 0c-.55 0-1 .449-1 1a1.001 1.001 0 0 0 2 0c0-.551-.449-1-1-1zM12.062 3.163a1.467 1.467 0 0 0 0 2.932c.81 0 1.466-.657 1.466-1.465s-.657-1.466-1.466-1.466z"  fill-rule="evenodd"/>
</svg>
