<svg width="24" height="24" viewBox="0 0 24 24" xmlns="http://www.w3.org/2000/svg">
    <title>
        icon-nav-transactions-NORWAY
    </title>
    <path d="M3 22c.55 0 1-.449 1-1a1.001 1.001 0 0 0-2 0c0 .551.449 1 1 1M18.695 3.968A2.505 2.505 0 0 0 21 5.5c1.378 0 2.5-1.122 2.5-2.499A2.503 2.503 0 0 0 21 .5 2.504 2.504 0 0 0 18.71 2H4.473C3.109 1.968 2 3.076 2 4.44V7a1 1 0 1 0 2 0V4.44c0-.26.212-.472.473-.472h14.222zM5.305 20.032A2.505 2.505 0 0 0 3 18.5a2.503 2.503 0 0 0-2.5 2.499A2.503 2.503 0 0 0 3 23.5 2.504 2.504 0 0 0 5.29 22h14.236c1.364.032 2.473-1.076 2.473-2.44V17a1 1 0 1 0-2 0v2.56c0 .26-.212.472-.473.472H5.305zM21 2c-.55 0-1 .449-1 1a1.001 1.001 0 0 0 2 0c0-.551-.449-1-1-1zM5 14.5c0 .252.048.5.3.5h.4c.252 0 .3-.248.3-.5V12l1.9 2.6s.234.4.4.4h.4c.252 0 .3-.133.3-.385V10.38c0-.252-.048-.38-.3-.38h-.4c-.252 0-.3.128-.3.38V13s-1.858-2.581-2-2.8c-.142-.219-.283-.2-.5-.2h-.2c-.252 0-.3.128-.3.38v4.12zm4.418-2.034c0-1.435 1.064-2.555 2.618-2.555 1.554 0 2.618 1.12 2.618 2.555 0 1.47-1.064 2.618-2.618 2.618-1.554 0-2.618-1.148-2.618-2.618zm1.267 0c0 .854.56 1.498 1.351 1.498.791 0 1.351-.644 1.351-1.498 0-.819-.56-1.435-1.351-1.435-.791 0-1.351.616-1.351 1.435zM15 14.615c0 .252.048.385.3.385h.4c.252 0 .3-.133.3-.385V13h1l1 1.727c.105.189.245.273.455.273h.245c.308 0 .447-.196.3-.462L17.8 12.5l1.2-2.1c.147-.266.008-.4-.3-.4h-.266a.47.47 0 0 0-.455.268L17 12h-1v-1.62c0-.252-.048-.38-.3-.38h-.4c-.252 0-.3.128-.3.38v4.235z"  fill-rule="evenodd"/>
</svg>
