<svg width="24" height="24" viewBox="0 0 24 24" xmlns="http://www.w3.org/2000/svg">
    <title>
        icon-nav-transactions-romania
    </title>
    <path d="M3 22c.55 0 1-.449 1-1a1.001 1.001 0 0 0-2 0c0 .551.449 1 1 1M18.695 3.968A2.505 2.505 0 0 0 21 5.5c1.378 0 2.5-1.122 2.5-2.499A2.503 2.503 0 0 0 21 .5 2.504 2.504 0 0 0 18.71 2H4.473C3.109 1.968 2 3.076 2 4.44V7a1 1 0 1 0 2 0V4.44c0-.26.212-.472.473-.472h14.222zM5.305 20.032A2.505 2.505 0 0 0 3 18.5a2.503 2.503 0 0 0-2.5 2.499A2.503 2.503 0 0 0 3 23.5 2.504 2.504 0 0 0 5.29 22h14.236c1.364.032 2.473-1.076 2.473-2.44V17a1 1 0 1 0-2 0v2.56c0 .26-.212.472-.473.472H5.305zM21 2c-.55 0-1 .449-1 1a1.001 1.001 0 0 0 2 0c0-.551-.449-1-1-1zM5 14.45c0 .36.14.55.5.55h3c.36 0 .5-.19.5-.55v-.95c0-.36-.14-.5-.5-.5H7V8.6c0-.36-.14-.6-.5-.6h-1c-.36 0-.5.24-.5.6v5.85zm4.5-2.01c0-1.51 1.02-2.69 2.68-2.69 1.53 0 2.38 1.08 2.38 2.46 0 .27-.22.79-.56.79h-2.73c.13.63.65.7 1.2.7.35 0 .68-.11.94-.24.33-.15.57-.11.74.21l.14.26c.16.31.02.58-.28.75-.37.21-.89.34-1.68.34-1.84 0-2.83-1.21-2.83-2.58zm1.8-.44h1.54c0-.42-.192-1-.84-1-.603 0-.741.716-.7 1zm3.7 1.19c0 1.45.98 1.81 2 1.81.69 0 1.72-.22 2-.77v.22c0 .36.24.55.6.55h.8c.36 0 .6-.19.6-.55V10.6c0-.36-.14-.6-.5-.6h-1c-.36 0-.5.24-.5.6v1.53c0 .77-.78 1.42-1.52 1.42-.36 0-.48-.2-.48-.68V10.6c0-.36-.26-.6-.62-.6h-.78c-.36 0-.6.24-.6.6v2.59z"  fill-rule="evenodd"/>
</svg>
