<svg width="24" height="24" viewBox="0 0 24 24" xmlns="http://www.w3.org/2000/svg">
    <title>
        icon-nav-employees
    </title>
    <path d="M8.492 5.174a1.53 1.53 0 1 0 1.53 1.53 1.53 1.53 0 0 0-1.53-1.53m5.24 8.287a8.449 8.449 0 0 0-5.24-1.814C3.81 11.647 0 15.457 0 20.14a1.086 1.086 0 1 0 2.174 0 6.324 6.324 0 0 1 6.318-6.318 6.324 6.324 0 0 1 6.318 6.318 1.086 1.086 0 1 0 2.174 0c0-1.848-.593-3.56-1.6-4.955.44-.114.896-.173 1.354-.173 3.07 0 5.383 2.205 5.383 5.128a1.086 1.086 0 1 0 2.174 0c0-4.095-3.32-7.301-7.557-7.301a7.575 7.575 0 0 0-3.007.622zm-5.24-3.054a3.707 3.707 0 0 1-3.703-3.704A3.707 3.707 0 0 1 8.492 3a3.707 3.707 0 0 1 3.703 3.703 3.707 3.707 0 0 1-3.703 3.704zm8.245 1.62a3.378 3.378 0 0 1-3.374-3.372 3.379 3.379 0 0 1 3.374-3.374 3.379 3.379 0 0 1 3.374 3.374 3.378 3.378 0 0 1-3.374 3.373zm0-4.572c-.66 0-1.2.538-1.2 1.2 0 .66.54 1.199 1.2 1.199.661 0 1.2-.538 1.2-1.199 0-.662-.539-1.2-1.2-1.2z"  fill-rule="evenodd"/>
</svg>
