<svg xmlns="http://www.w3.org/2000/svg" width="24" height="24" viewBox="0 0 24 24">
    <path  fill-rule="evenodd" d="M3 22c.55 0 1-.449 1-1a1.001 1.001 0 0 0-2 0c0 .551.449 1 1 1M18.695 3.968A2.505 2.505 0 0 0 21 5.5c1.378 0 2.5-1.122 2.5-2.499A2.503 2.503 0 0 0 21 .5 2.504 2.504 0 0 0 18.71 2H4.473C3.109 1.968 2 3.076 2 4.44V7a1 1 0 1 0 2 0V4.44c0-.26.212-.472.473-.472h14.222zM5.305 20.032A2.505 2.505 0 0 0 3 18.5a2.503 2.503 0 0 0-2.5 2.499A2.503 2.503 0 0 0 3 23.5 2.504 2.504 0 0 0 5.29 22h14.236c1.364.032 2.473-1.076 2.473-2.44V17a1 1 0 1 0-2 0v2.56c0 .26-.212.472-.473.472H5.305zM21 2c-.55 0-1 .449-1 1a1.001 1.001 0 0 0 2 0c0-.551-.449-1-1-1zm-5.77 13.992h-4.078V13.02h1.964c.435 0 .79-.356.79-.79v-.421a.791.791 0 0 0-.79-.79h-1.964V9.24c0-.798.611-1.408 1.55-1.408.437 0 .856.152 1.095.313 1.238.83 2.152-.675 1.142-1.424-.453-.336-1.267-.72-2.285-.72-2.065 0-3.55 1.33-3.55 3.177v1.843h-.315a.791.791 0 0 0-.789.789v.42c0 .435.355.79.79.79h.313v2.973h-.33c-.016 0-.03.01-.046.013-.404.033-.727.455-.727.868v.42c0 .435.355.699.79.699h6.44c.433 0 .79-.355.79-.79v-.42a.792.792 0 0 0-.79-.79z"/>
</svg>
