<svg width="24" height="24" viewBox="0 0 24 24" xmlns="http://www.w3.org/2000/svg">
    <title>
        icon-nav-shop
    </title>
    <path d="M11.007 12.669A3.006 3.006 0 0 0 9 15.501a3.004 3.004 0 0 0 3 2.999c1.654 0 3-1.346 3-2.999 0-1.307-.84-2.421-2.007-2.832.005-.043.007-.087.007-.131V2.1c0-.608-.448-1.1-1-1.1s-1 .492-1 1.1v10.438c0 .044.002.088.007.131zM11.313 23h4.71c2.926 0 4.977-.5 6.007-3.077.75-1.875.963-7.433.963-7.433.078-.823-.537-1.49-1.37-1.49h-4.597c-.558 0-1.003.45-1.003 1.007v-.09c0 .56.452 1.006 1.009 1.006h4.098c-.205 2.09-.323 5.684-1.06 7C19.333 21.239 17.5 21 16.023 21H7.977c-1.477 0-3.31.239-4.047-1.077-.737-1.316-.855-4.91-1.06-7h4.098c.557 0 1.009-.446 1.009-1.007v.09c0-.555-.445-1.006-1.003-1.006H2.377c-.833 0-1.448.667-1.37 1.49 0 0 .214 5.558.963 7.433C3 22.5 5.05 23 7.977 23h3.336zm.688-9c-.827 0-1.501.673-1.501 1.501A1.5 1.5 0 1 0 12 14z"  fill-rule="evenodd"/>
</svg>
