<svg xmlns="http://www.w3.org/2000/svg" width="24" height="24" viewBox="0 0 24 24">
  <path fill="#CED2D9" fill-rule="evenodd" d="M2.9995469,22 C3.55052107,22 4,21.5512239 4,20.9990934 C4,20.4478694 3.55052107,20 2.9995469,20 C2.44857272,20 2,20.4478694 2,20.9990934 C2,21.5512239 2.44857272,22 2.9995469,22 M18.6949021,3.96799946 C19.0739156,4.86690098 19.9645789,5.5 21.0004801,5.5 C22.3784329,5.5 23.5,4.37821744 23.5,3.00096043 C23.5,1.62178256 22.3784329,0.5 21.0004801,0.5 C19.9772188,0.5 19.0956727,1.11774338 18.7090039,2.00000022 L4.473,2.00000022 C3.109,1.96799946 2,3.07599946 2,4.43999946 L2,7 C2,7.553 2.447,8 3,8 C3.553,8 4,7.553 4,7 L4,4.43999946 C4,4.17999946 4.212,3.96799946 4.473,3.96799946 L18.6949021,3.96799946 L18.6949021,3.96799946 Z M5.30509789,20.0320005 C4.92608435,19.133099 4.0354211,18.5 2.99951988,18.5 C1.62156712,18.5 0.5,19.6217826 0.5,20.9990396 C0.5,22.3782174 1.62156712,23.5 2.99951988,23.5 C4.02278124,23.5 4.90432733,22.8822566 5.29099608,21.9999998 L19.527,21.9999998 C20.891,22.0320005 22,20.9240005 22,19.5600005 L22,17 C22,16.447 21.553,16 21,16 C20.447,16 20,16.447 20,17 L20,19.5600005 C20,19.8200005 19.788,20.0320005 19.527,20.0320005 L5.30509789,20.0320005 L5.30509789,20.0320005 Z M21.0004531,2 C20.4494789,2 20,2.44877607 20,3.00090662 C20,3.55213055 20.4494789,4 21.0004531,4 C21.5514273,4 22,3.55213055 22,3.00090662 C22,2.44877607 21.5514273,2 21.0004531,2 L21.0004531,2 Z M5,7.6537 C5,7.2327 5.233,6.9997 5.654,6.9997 L6.323,6.9997 C6.758,6.9997 6.976,7.2327 6.976,7.6537 L6.976,12.9147 L7.957,12.9147 L9.607,10.5487 C9.794,10.2377 10.028,10.1127 10.386,10.1127 L11.132,10.1127 C11.661,10.1127 11.833,10.4707 11.538,10.8907 L9.561,13.6627 L9.561,13.6927 L11.896,17.2737 C12.16,17.7247 11.989,18.0517 11.46,18.0517 L10.619,18.0517 C10.261,18.0517 10.028,17.9117 9.856,17.6007 L8.004,14.5807 L6.976,14.5807 L6.976,17.3977 C6.976,17.8337 6.758,18.0517 6.323,18.0517 L5.654,18.0517 C5.233,18.0517 5,17.8337 5,17.3977 L5,7.6537 Z M14,12.8232727 C14.3217159,12.3277184 15.296336,12 16.38,12 C17.736,12 19,12.444 19,14.064 L19,17.3999996 C19,17.7359996 18.6359992,18 18.2999992,18 L17.7000008,18 C17.3760008,18 16.992,17.7359996 16.992,17.3999996 L16.992,14.376 C16.992,13.632 16.8,13 16.032,13 C14.952,13 14,14.028 14,15.132 L14,17.3999996 C14,17.7359996 13.6240002,18 13.3000002,18 L12.6999998,18 C12.3759998,18 12,17.7359996 12,17.3999996 L12,12.6000004 C12,12.2760004 12.3759998,12 12.6999998,12 L13.3000002,12 C13.6240002,12 14,12.2760004 14,12.6000004 L14,12.8232727 Z"/>
</svg>
