<svg xmlns="http://www.w3.org/2000/svg" width="24" height="24" viewBox="0 0 24 24">
    <path  fill-rule="evenodd" d="M3 22c.55 0 1-.449 1-1a1.001 1.001 0 0 0-2 0c0 .551.449 1 1 1M18.695 3.968A2.505 2.505 0 0 0 21 5.5c1.378 0 2.5-1.122 2.5-2.499A2.503 2.503 0 0 0 21 .5 2.504 2.504 0 0 0 18.71 2H4.473C3.109 1.968 2 3.076 2 4.44V7a1 1 0 1 0 2 0V4.44c0-.26.212-.472.473-.472h14.222zM5.305 20.032A2.505 2.505 0 0 0 3 18.5a2.503 2.503 0 0 0-2.5 2.499A2.503 2.503 0 0 0 3 23.5 2.504 2.504 0 0 0 5.29 22h14.236c1.364.032 2.473-1.076 2.473-2.44V17a1 1 0 1 0-2 0v2.56c0 .26-.212.472-.473.472H5.305zM21 2c-.55 0-1 .449-1 1a1.001 1.001 0 0 0 2 0c0-.551-.449-1-1-1zM10 8.701c0-.458.242-.7.701-.7h.577c.46 0 .722.242.722.7v5.326h2.555c.459 0 .701.242.701.701v.511c0 .46-.242.701-.701.701h-3.854c-.459 0-.701-.242-.701-.7V8.7zm-3 1.342c.347 0 .688.092.987.266a1.018 1.018 0 0 0 1.398-.367 1.024 1.024 0 0 0-.368-1.397A4.004 4.004 0 0 0 3 12a4.004 4.004 0 0 0 5.791 3.577c.502-.253.706-.867.454-1.371a1.025 1.025 0 0 0-1.371-.455A1.96 1.96 0 0 1 5.043 12 1.96 1.96 0 0 1 7 10.043zm8.536 4.314l.324-.474c.226-.325.496-.346.83-.14.345.215.841.44 1.36.44.388 0 .808-.15.808-.613 0-.864-3.506-.94-3.506-3.258 0-1.208.864-2.071 2.061-2.297v-.421c0-.388.173-.594.56-.594h.066c.376 0 .55.173.55.486v.496a3.591 3.591 0 0 1 1.542.518c.313.183.345.485.183.809l-.258.507c-.184.356-.454.399-.81.205a2.47 2.47 0 0 0-1.186-.335c-.389 0-.819.173-.819.605 0 .916 3.505.85 3.505 3.235 0 1.143-.777 2.136-2.157 2.352v.389c0 .387-.174.593-.55.593h-.066c-.387 0-.56-.173-.56-.486v-.496a4.094 4.094 0 0 1-1.769-.701c-.302-.206-.323-.518-.108-.82z"/>
</svg>
