<svg xmlns="http://www.w3.org/2000/svg" width="24" height="24" viewBox="0 0 24 24">
    <path  d="M3 22c.55 0 1-.449 1-1a1.001 1.001 0 0 0-2 0c0 .551.449 1 1 1M18.695 3.968A2.505 2.505 0 0 0 21 5.5c1.378 0 2.5-1.122 2.5-2.499A2.503 2.503 0 0 0 21 .5 2.504 2.504 0 0 0 18.71 2H4.473C3.109 1.968 2 3.076 2 4.44V7a1 1 0 1 0 2 0V4.44c0-.26.212-.472.473-.472h14.222zM5.305 20.032A2.505 2.505 0 0 0 3 18.5a2.503 2.503 0 0 0-2.5 2.499A2.503 2.503 0 0 0 3 23.5 2.504 2.504 0 0 0 5.29 22h14.236c1.364.032 2.473-1.076 2.473-2.44V17a1 1 0 1 0-2 0v2.56c0 .26-.212.472-.473.472H5.305zM21 2c-.55 0-1 .449-1 1a1.001 1.001 0 0 0 2 0c0-.551-.449-1-1-1zM9.154 15.722l.31-.435c.222-.307.49-.336.811-.126.42.294 1.135.7 2.003.7.756 0 1.457-.391 1.457-1.203 0-1.682-4.735-1.513-4.735-4.525 0-1.443 1.08-2.564 2.633-2.816v-.742c0-.378.168-.575.561-.575h.098c.364 0 .547.169.547.49v.799c.965.07 1.652.434 2.031.7.307.183.336.477.168.785l-.238.476c-.183.336-.449.378-.799.182-.365-.224-.967-.518-1.68-.518-.842 0-1.514.49-1.514 1.19 0 1.668 4.735 1.373 4.735 4.512 0 1.428-.994 2.647-2.703 2.87v.7c0 .38-.183.59-.547.59h-.098c-.393 0-.56-.183-.56-.491v-.798a4.771 4.771 0 0 1-2.38-.953c-.296-.21-.31-.518-.1-.812z" fill-rule="evenodd"/>
</svg>
