<svg width="24" height="24" viewBox="0 0 24 24" xmlns="http://www.w3.org/2000/svg">
    <title>
        icon-nav-support
    </title>
    <path d="M21 9c-.55 0-1 .449-1 1a1.001 1.001 0 0 0 2 0c0-.551-.449-1-1-1m0 3.5a2.503 2.503 0 0 1-2.5-2.499A2.503 2.503 0 0 1 21 7.5c1.378 0 2.5 1.122 2.5 2.501A2.503 2.503 0 0 1 21 12.5zm-7 0a2.503 2.503 0 0 1-2.5-2.499A2.503 2.503 0 0 1 14 7.5c1.378 0 2.5 1.122 2.5 2.501A2.503 2.503 0 0 1 14 12.5zM14 9c-.55 0-1 .449-1 1a1.001 1.001 0 0 0 2 0c0-.551-.449-1-1-1zm-7 3.5a2.503 2.503 0 0 1-2.5-2.499A2.503 2.503 0 0 1 7 7.5c1.378 0 2.5 1.122 2.5 2.501A2.503 2.503 0 0 1 7 12.5zM7 9c-.55 0-1 .449-1 1a1.001 1.001 0 0 0 2 0c0-.551-.449-1-1-1zM4.033 21.698a1 1 0 0 1-1-1v-2.65A3.74 3.74 0 0 1 0 14.38V5.733A3.738 3.738 0 0 1 3.733 2h14.768a3.738 3.738 0 0 1 3.733 3.733 1 1 0 1 1-2 0c0-.956-.777-1.733-1.733-1.733H3.733C2.777 4 2 4.777 2 5.733v8.647c0 .956.777 1.733 1.733 1.733h.3a1 1 0 0 1 1 1v1.744l3.983-2.583c.163-.105.351-.161.544-.161h8.941c.956 0 1.733-.777 1.733-1.733a1 1 0 1 1 2 0 3.738 3.738 0 0 1-3.733 3.733H9.856l-5.279 3.424a1.001 1.001 0 0 1-.544.161z"  fill-rule="evenodd"/>
</svg>
