<svg width="24" height="24" viewBox="0 0 24 24" xmlns="http://www.w3.org/2000/svg">
    <title>
        icon-nav-transactions-Czech Republic
    </title>
    <path d="M3 22c.55 0 1-.449 1-1a1.001 1.001 0 0 0-2 0c0 .551.449 1 1 1M18.695 3.968A2.505 2.505 0 0 0 21 5.5c1.378 0 2.5-1.122 2.5-2.499A2.503 2.503 0 0 0 21 .5 2.504 2.504 0 0 0 18.71 2H4.473C3.109 1.968 2 3.076 2 4.44V7a1 1 0 1 0 2 0V4.44c0-.26.212-.472.473-.472h14.222zM5.305 20.032A2.505 2.505 0 0 0 3 18.5a2.503 2.503 0 0 0-2.5 2.499A2.503 2.503 0 0 0 3 23.5 2.504 2.504 0 0 0 5.29 22h14.236c1.364.032 2.473-1.076 2.473-2.44V17a1 1 0 1 0-2 0v2.56c0 .26-.212.472-.473.472H5.305zM21 2c-.55 0-1 .449-1 1a1.001 1.001 0 0 0 2 0c0-.551-.449-1-1-1zM6 15.34c0 .432.268.66.7.66h.568C7.7 16 8 15.772 8 15.34V13h.792l1.56 2.532c.18.324.42.468.78.468h.924c.528 0 .72-.336.468-.792l-2.016-3.66 1.872-3.336c.252-.456.06-.792-.468-.792h-.816c-.36 0-.6.144-.78.468L8.792 11H8V8.08c0-.432-.3-.66-.732-.66H6.7c-.432 0-.7.228-.7.66v7.26zm6.824-2.436c0 1.704 1.236 3.24 3.444 3.24 1.02 0 1.764-.36 2.196-.648.324-.216.36-.54.18-.9l-.156-.3c-.204-.396-.504-.444-.9-.228-.3.18-.708.348-1.116.348-1.044 0-1.548-.804-1.548-1.536s.492-1.476 1.476-1.476c.36 0 .672.108.912.228.384.192.66.18.888-.192l.204-.312c.216-.348.192-.684-.144-.9-.396-.264-1.056-.552-1.992-.552-2.22 0-3.444 1.572-3.444 3.228zM15.536 9h.984c.36 0 .6-.132.804-.432l.372-.564c.3-.456.18-.804-.276-.804h-.408c-.372 0-.492.144-.672.456l-.3.528h-.024l-.3-.528c-.18-.312-.3-.456-.672-.456h-.408c-.456 0-.576.348-.276.804l.372.564c.204.3.444.432.804.432z"  fill-rule="evenodd"/>
</svg>
