<svg width="24" height="24" viewBox="0 0 24 24" xmlns="http://www.w3.org/2000/svg">
    <title>
        icon-nav-support copy
    </title>
    <g  fill-rule="evenodd">
        <path d="M14 19.993A3.01 3.01 0 0 1 10.991 23H3.01C1.35 23 0 21.658 0 20.01V3.99A2.997 2.997 0 0 1 3.009 1h7.997A2.994 2.994 0 0 1 14 4.004v.998A.996.996 0 0 1 13 6c-.552 0-1-.443-1-.998v-.998A.994.994 0 0 0 11.006 3H3.009A.997.997 0 0 0 2 3.99v16.02c0 .54.452.99 1.009.99h7.982A1.01 1.01 0 0 0 12 19.993a1 1 0 0 1 2 0z"/>
        <path d="M5 4h4v1H5zM9 10h12v2H9z"/>
        <path d="M10.002 9A.996.996 0 0 0 9 10.003v4.994C9 15.551 9.456 16 10.002 16h9.996A.996.996 0 0 0 21 14.997v-4.994C21 9.449 20.544 9 19.998 9h-9.996zM9 7h12a2 2 0 0 1 2 2v7a2 2 0 0 1-2 2H9a2 2 0 0 1-2-2V9a2 2 0 0 1 2-2z"/>
    </g>
</svg>
