<svg xmlns="http://www.w3.org/2000/svg" width="24" height="24" viewBox="0 0 24 24">
    <path  fill-rule="evenodd" d="M3 22c.55 0 1-.449 1-1a1.001 1.001 0 0 0-2 0c0 .551.449 1 1 1M18.695 3.968A2.505 2.505 0 0 0 21 5.5c1.378 0 2.5-1.122 2.5-2.499A2.503 2.503 0 0 0 21 .5 2.504 2.504 0 0 0 18.71 2H4.473C3.109 1.968 2 3.076 2 4.44V7a1 1 0 1 0 2 0V4.44c0-.26.212-.472.473-.472h14.222zM5.305 20.032A2.505 2.505 0 0 0 3 18.5a2.503 2.503 0 0 0-2.5 2.499A2.503 2.503 0 0 0 3 23.5 2.504 2.504 0 0 0 5.29 22h14.236c1.364.032 2.473-1.076 2.473-2.44V17a1 1 0 1 0-2 0v2.56c0 .26-.212.472-.473.472H5.305zM21 2c-.55 0-1 .449-1 1a1.001 1.001 0 0 0 2 0c0-.551-.449-1-1-1zm-1.113 6.017H17.42a.679.679 0 0 0-.678.678v6.644c0 .374.304.678.678.678h.644a.679.679 0 0 0 .678-.678v-2.01h.785a.896.896 0 0 0 .896-.895v-.209a.896.896 0 0 0-.896-.895h-.785v-1.313h1.144a.896.896 0 0 0 .896-.896v-.208a.896.896 0 0 0-.896-.896zM15.087 8h-.392a.804.804 0 0 0-.804.804V11H12V8.804A.803.803 0 0 0 11.197 8h-.393a.804.804 0 0 0-.804.804v6.392c0 .444.36.804.804.804h.393c.444 0 .803-.36.803-.804V13h1.891v2.196c0 .444.36.804.804.804h.392c.444 0 .804-.36.804-.804V8.804A.804.804 0 0 0 15.087 8zM7 10.043c.347 0 .688.092.987.266a1.018 1.018 0 0 0 1.398-.367 1.024 1.024 0 0 0-.368-1.397A4.004 4.004 0 0 0 3 12a4.004 4.004 0 0 0 5.791 3.577c.502-.253.706-.867.454-1.371a1.025 1.025 0 0 0-1.371-.455A1.96 1.96 0 0 1 5.043 12 1.96 1.96 0 0 1 7 10.043z"/>
</svg>
