<svg width="24" height="24" viewBox="0 0 24 24" xmlns="http://www.w3.org/2000/svg">
    <title>
        icon-nav-transactions-hungary
    </title>
    <path d="M3 22c.55 0 1-.449 1-1a1.001 1.001 0 0 0-2 0c0 .551.449 1 1 1M18.695 3.968A2.505 2.505 0 0 0 21 5.5c1.378 0 2.5-1.122 2.5-2.499A2.503 2.503 0 0 0 21 .5 2.504 2.504 0 0 0 18.71 2H4.473C3.109 1.968 2 3.076 2 4.44V7a1 1 0 1 0 2 0V4.44c0-.26.212-.472.473-.472h14.222zM5.305 20.032A2.505 2.505 0 0 0 3 18.5a2.503 2.503 0 0 0-2.5 2.499A2.503 2.503 0 0 0 3 23.5 2.504 2.504 0 0 0 5.29 22h14.236c1.364.032 2.473-1.076 2.473-2.44V17a1 1 0 1 0-2 0v2.56c0 .26-.212.472-.473.472H5.305zM21 2c-.55 0-1 .449-1 1a1.001 1.001 0 0 0 2 0c0-.551-.449-1-1-1zM7 16.24c0 .504.266.77.77.77h.53c.504 0 .7-.266.7-.77V13h2c.504 0 1-.096 1-.6v-.8c0-.504-.496-.6-1-.6H9V9h3.2c.504 0 .8-.166.8-.67v-.56c0-.504-.296-.77-.8-.77H7.77c-.504 0-.77.266-.77.77v8.47zm8-1.646C15 16.736 16.561 17 17.626 17c.644 0 .994-.226.994-.8v-.374c0-.532-.21-.7-.77-.77-.434-.056-.84-.294-.84-.91V12H18c.49 0 1 .004 1-.5v-1c0-.504-.496-.5-1-.5h-.99V8.77c0-.504-.267-.77-.771-.77H15.7c-.504 0-.7.266-.7.77V10h-.5c-.504 0-.5.338-.5.842v.35c0 .504.01.808.5.808h.5v2.594z"  fill-rule="evenodd"/>
</svg>
