<svg width="24" height="24" viewBox="0 0 24 24" xmlns="http://www.w3.org/2000/svg">
    <title>
        icon-nav-refer-a-friend
    </title>
    <path d="M15.054 8.597c-.689 0-1.25.561-1.25 1.251a1.25 1.25 0 1 0 1.25-1.251M15.028 7.1A2.754 2.754 0 0 0 12.3 9.851a2.753 2.753 0 0 0 2.75 2.749 2.753 2.753 0 0 0 2.75-2.749c0-.733-.288-1.4-.757-1.894a5.396 5.396 0 0 1 5.152-3.775A1.09 1.09 0 0 0 22.19 2h-.002a7.565 7.565 0 0 0-7.16 5.1zm-4.587 14.897h-.056a.77.77 0 0 1-.306-.065c-.4-.13-1.031-.47-2.185-1.21C4.946 18.84 0 14.99 0 10.395a5.87 5.87 0 0 1 5.863-5.862 5.84 5.84 0 0 1 4.554 2.164 5.88 5.88 0 0 1 2.673-1.858 1.09 1.09 0 1 1 .698 2.067 3.688 3.688 0 0 0-2.332 2.382 1.091 1.091 0 0 1-2.083 0 3.665 3.665 0 0 0-3.51-2.574c-2.03 0-3.681 1.65-3.681 3.681 0 4.204 6.51 8.37 8.233 9.292 1.722-.924 8.232-5.09 8.232-9.292 0-.6-.14-1.173-.415-1.7a1.091 1.091 0 0 1 1.935-1.01 5.89 5.89 0 0 1 .662 2.71c0 4.782-5.546 8.832-7.93 10.353-1.122.714-1.744 1.05-2.142 1.181a.796.796 0 0 1-.316.069z"  fill-rule="evenodd"/>
</svg>
