<svg width="24" height="24" viewBox="0 0 24 24" xmlns="http://www.w3.org/2000/svg">
    <title>
        icon-nav-transactions-Bulgaria
    </title>
    <path d="M3 22c.55 0 1-.449 1-1a1.001 1.001 0 0 0-2 0c0 .551.449 1 1 1M18.695 3.968A2.505 2.505 0 0 0 21 5.5c1.378 0 2.5-1.122 2.5-2.499A2.503 2.503 0 0 0 21 .5 2.504 2.504 0 0 0 18.71 2H4.473C3.109 1.968 2 3.076 2 4.44V7a1 1 0 1 0 2 0V4.44c0-.26.212-.472.473-.472h14.222zM5.305 20.032A2.505 2.505 0 0 0 3 18.5a2.503 2.503 0 0 0-2.5 2.499A2.503 2.503 0 0 0 3 23.5 2.504 2.504 0 0 0 5.29 22h14.236c1.364.032 2.473-1.076 2.473-2.44V17a1 1 0 1 0-2 0v2.56c0 .26-.212.472-.473.472H5.305zM21 2c-.55 0-1 .449-1 1a1.001 1.001 0 0 0 2 0c0-.551-.449-1-1-1zM5.2 15.007c-.104-.004-.176-.09-.159-.203l.136-.864a.424.424 0 0 1 .214-.286S6 13.456 6 12.708V8.526c0-.274.226-.496.507-.496h4.936a.51.51 0 0 1 .508.502v5.967a.499.499 0 0 1-.493.501h-.966a.49.49 0 0 1-.492-.498V10H8c0 2.18-.015 2.235-.032 3.484C7.9 15.2 5.2 15.007 5.2 15.007zM14.54 15a.506.506 0 0 1-.501-.501V8.532c0-.277.22-.502.504-.502h2.55c.935 0 1.638.133 2.107.397.47.264.705.661.705 1.19 0 .428-.127.786-.38 1.076-.255.29-.634.511-1.137.663.597.149 1.045.378 1.346.69.3.31.45.7.45 1.17 0 .635-.222 1.091-.666 1.368-.445.277-1.17.416-2.178.416h-2.8zM16 11h.61c.474 0 .85-.091 1.09-.25.24-.159.338-.433.338-.75 0-.25-.137-.56-.338-.7-.2-.14-.593-.3-1.058-.3H16v2zm0 3h.534c.71 0 .937-.092 1.166-.2.229-.108.586-.461.586-.8 0-.368-.307-.612-.586-.796-.28-.184-.532-.204-1.09-.204H16v2z"  fill-rule="evenodd"/>
</svg>
