<svg xmlns="http://www.w3.org/2000/svg" width="24" height="24" viewBox="0 0 24 24">
    <path  fill-rule="evenodd" d="M3 22c.55 0 1-.449 1-1a1.001 1.001 0 0 0-2 0c0 .551.449 1 1 1M18.695 3.968A2.505 2.505 0 0 0 21 5.5c1.378 0 2.5-1.122 2.5-2.499A2.503 2.503 0 0 0 21 .5 2.504 2.504 0 0 0 18.71 2H4.473C3.109 1.968 2 3.076 2 4.44V7a1 1 0 1 0 2 0V4.44c0-.26.212-.472.473-.472h14.222zM5.305 20.032A2.505 2.505 0 0 0 3 18.5a2.503 2.503 0 0 0-2.5 2.499A2.503 2.503 0 0 0 3 23.5 2.504 2.504 0 0 0 5.29 22h14.236c1.364.032 2.473-1.076 2.473-2.44V17a1 1 0 1 0-2 0v2.56c0 .26-.212.472-.473.472H5.305zM21 2c-.55 0-1 .449-1 1a1.001 1.001 0 0 0 2 0c0-.551-.449-1-1-1zm-5.976 10.696l-.416.224c-.337.192-.608-.033-.608-.56v-.528c0-.385.095-.609.336-.737l.688-.384V6.672c0-.432.224-.672.672-.672h.688c.432 0 .628.24.628.672v2.87l.432-.256c.464-.272.8-.08.8.45v.543c0 .384-.143.608-.416.784l-.816.464v3.705c0 .785.365.928.67.961.303.032.495.208.495.576v.544c0 .416-.176.688-.673.688-1.087 0-2.48-.288-2.48-2.625v-2.68zm-2.345 3.268H9.065l4.229-6.372c.33-.463.032-1.629-.692-1.629H6.749a.75.75 0 0 0-.75.75v.523c0 .413.319.73.732.73h3.69s-4.273 6.408-4.313 6.595c-.3.5.086 1.404.718 1.404h5.853a.732.732 0 0 0 .749-.729v-.523a.749.749 0 0 0-.75-.749z"/>
</svg>
