<svg xmlns="http://www.w3.org/2000/svg" width="30" height="30" viewBox="0 0 30 30">
    <title>
        icon-no-monthly-fees
    </title>
    <g >
        <path d="M3.33 25A1.33 1.33 0 0 1 2 23.68V7.19a1.32 1.32 0 0 1 1.33-1.32h4.6v1.3a.58.58 0 0 0 1.15 0v-1.3h4.62v1.3a.58.58 0 0 0 1.15 0v-1.3H20v1.3a.58.58 0 0 0 1.15 0v-1.3h4.48A1.33 1.33 0 0 1 27 7.19V15a7.52 7.52 0 0 1 1 .75V7.19a2.33 2.33 0 0 0-2.33-2.32h-4.48v-2.3a.58.58 0 0 0-1.15 0v2.3h-5.19v-2.3a.58.58 0 0 0-1.15 0v2.3H9.08v-2.3a.58.58 0 0 0-1.15 0v2.3h-4.6A2.32 2.32 0 0 0 1 7.19v16.49A2.33 2.33 0 0 0 3.33 26h13.82a7.49 7.49 0 0 1-.68-1H3.33z"/>
        <path d="M16.13 18.33a1.16 1.16 0 0 0-.72-.25h-2.28A1.17 1.17 0 0 0 12 19.24v2.28a1.17 1.17 0 0 0 1.16 1.16h2.5a7.46 7.46 0 0 1-.11-1 .16.16 0 0 1-.09 0h-2.33a.17.17 0 0 1-.13-.16v-2.28a.17.17 0 0 1 .16-.16h2.29a.17.17 0 0 1 .16.16v1a7.39 7.39 0 0 1 .52-1.91zM22.92 13.86v-1.51a1.17 1.17 0 0 0-1.16-1.16h-2.29a1.17 1.17 0 0 0-1.16 1.16v2.28a1.15 1.15 0 0 0 .27.74 7.52 7.52 0 0 1 .9-.58.17.17 0 0 1-.16-.16v-2.28a.17.17 0 0 1 .16-.16h2.29a.17.17 0 0 1 .16.16V14a7.57 7.57 0 0 1 .99-.14zM23 15.29a6 6 0 1 0 6 6 6 6 0 0 0-6-6zm-5 6a5 5 0 0 1 8.27-3.7l-.09.08-6.72 6.5-.28.27a4.9 4.9 0 0 1-1.18-3.2zm5 5a5 5 0 0 1-3.09-1.1l.26-.25 6.72-6.5.11-.16a4.9 4.9 0 0 1 1 3 5 5 0 0 1-5 4.92zM6.78 18.09a1.17 1.17 0 0 0-1.16 1.16v2.28a1.17 1.17 0 0 0 1.16 1.16h2.29a1.17 1.17 0 0 0 1.16-1.16v-2.29a1.17 1.17 0 0 0-1.16-1.16H6.78zm2.45 1.16v2.28a.17.17 0 0 1-.16.16H6.78a.17.17 0 0 1-.16-.16v-2.29a.17.17 0 0 1 .16-.16h2.29a.17.17 0 0 1 .16.16zM16.58 14.63v-2.28a1.17 1.17 0 0 0-1.16-1.16h-2.29A1.17 1.17 0 0 0 12 12.35v2.28a1.17 1.17 0 0 0 1.16 1.16h2.29a1.17 1.17 0 0 0 1.13-1.16zm-1 0a.17.17 0 0 1-.16.16h-2.29a.17.17 0 0 1-.13-.16v-2.28a.17.17 0 0 1 .16-.16h2.29a.17.17 0 0 1 .16.16v2.28zM10.23 12.35a1.17 1.17 0 0 0-1.16-1.16H6.78a1.17 1.17 0 0 0-1.16 1.16v2.28a1.17 1.17 0 0 0 1.16 1.16h2.29a1.17 1.17 0 0 0 1.16-1.16v-2.28zm-1 2.28a.17.17 0 0 1-.16.16H6.78a.17.17 0 0 1-.16-.16v-2.28a.17.17 0 0 1 .16-.16h2.29a.17.17 0 0 1 .16.16v2.28z"/>
    </g>
</svg>
