<svg xmlns="http://www.w3.org/2000/svg" width="30" height="30" viewBox="0 0 30 30">
    <title>
        icon-online-shopping
    </title>
    <path fill-rule="evenodd" d="M18.1 9.19a2 2 0 0 1-1.25-.47.16.16 0 0 0-.26 0l-.09.11a.17.17 0 0 0 0 .26 2.31 2.31 0 0 0 1.35.55v.53a.16.16 0 0 0 .18.18h.06a.17.17 0 0 0 .18-.19v-.48a1.44 1.44 0 0 0 1.4-1.43C19.69 6.51 17 6.81 17 5.57a1 1 0 0 1 1.12-.92 1.74 1.74 0 0 1 1 .34.16.16 0 0 0 .26 0l.07-.12a.17.17 0 0 0 0-.26 2 2 0 0 0-1.13-.4v-.59a.16.16 0 0 0-.18-.18h-.09a.17.17 0 0 0-.18.19v.54a1.58 1.58 0 0 0-1.26.83 1.32 1.32 0 0 0-.13.58c0 1 1.06 1.3 1.85 1.69a1.16 1.16 0 0 1 .83 1 1 1 0 0 1-1.06.92z" />
    <path fill-rule="evenodd" d="M26.91 22.87L29 13.32a1.76 1.76 0 0 0-1.9-2.12h-3.53A6.75 6.75 0 0 0 25 7a7 7 0 1 0-14 0 6.75 6.75 0 0 0 1.4 4.16h-4a2.21 2.21 0 0 0-1.16.3L5.57 4.63A.55.55 0 0 0 5 4.21H1.55a.55.55 0 0 0 0 1.11h3.06L6.48 13a1.92 1.92 0 0 0 .05.35l2.39 9.6a3.59 3.59 0 1 0 4.39 3.69h9.41a3.55 3.55 0 1 0 4.19-3.77zm-3-10.57h3.19c.66 0 1 .33.86.77l-1.14 5.13H23.3zM12.12 7a5.88 5.88 0 1 1 11.77 0 5.63 5.63 0 0 1-1.8 4.16h-8.17A5.63 5.63 0 0 1 12.12 7zM8.88 18.22l-.46-1.86a.56.56 0 0 0 0-.15l-.85-3.39a.69.69 0 0 1 .83-.51h3.4l.76 5.89H9zm.9 10.67a2.49 2.49 0 1 1 2.45-2.49 2.47 2.47 0 0 1-2.45 2.49zm3.45-3.4A3.56 3.56 0 0 0 10 22.82l-.85-3.52h3.56l.8 6.19h-.29zm4 0h-2.62l-.8-6.19h3.44v6.19zm0-7.3h-3.56l-.76-5.89h4.35v5.9zm4.16 7.3h-3.04V19.3h3.73zm-3.07-7.3v-5.88h4.49l-.61 5.89h-3.85zm4.17 7.3l.66-6.19h3.4l-.75 3.54a3.56 3.56 0 0 0-3 2.65h-.28zm3.75 3.4a2.49 2.49 0 0 1 0-5h.4a2.49 2.49 0 0 1-.38 5z" />
</svg>
