<svg width="42" height="42" viewBox="0 0 42 42" xmlns="http://www.w3.org/2000/svg">
    <title>
        icon-overview-balance
    </title>
    <path d="M42 25v-.998A2.996 2.996 0 0 0 39.003 21H39v-6.003A3.997 3.997 0 0 0 35.01 11h-4.806V6.557c0-2.216-1.74-3.572-3.887-3.043L3.887 9.042C1.732 9.572 0 11.79 0 14V35.004c0 1.1.447 2.1 1.169 2.824A3.974 3.974 0 0 0 3.99 39h31.02c2.2 0 3.99-1.79 3.99-3.997L39.003 29A3 3 0 0 0 42 25.998V25zm-5 4v6.003A1.996 1.996 0 0 1 35.01 37H3.99A1.997 1.997 0 0 1 2 35.003V14.997C2 13.895 2.894 13 3.99 13h31.02c1.096 0 1.99.896 1.99 1.997V21h-4.003A3 3 0 0 0 30 24.002v1.996A2.996 2.996 0 0 0 32.997 29H37zm-5-3.002A.996.996 0 0 0 32.997 27h6.006A1 1 0 0 0 40 25.998v-1.996A.996.996 0 0 0 39.003 23h-6.006A1 1 0 0 0 32 24.002v1.996zM28.204 11V6.557c0-.914-.52-1.32-1.408-1.1l-22.43 5.527a2.3 2.3 0 0 0-.062.016h23.9z"  fill-rule="evenodd"/>
</svg>
