<svg width="18" height="24" viewBox="0 0 18 24" xmlns="http://www.w3.org/2000/svg">
    <title>
        Artboard 2
    </title>
    <path d="M13.97 18.146a5.466 5.466 0 0 1-3.89 1.611 5.463 5.463 0 0 1-3.889-1.61 5.465 5.465 0 0 1-1.612-3.89c0-1.46.568-2.832 1.595-3.869l.581 2.732a.5.5 0 0 0 .98-.208L6.901 9a.504.504 0 0 0-.399-.386c-.036-.007-.073 0-.11 0-.029.001-.057-.005-.085 0v.001l-3.91.831a.5.5 0 1 0 .206.978l2.71-.576a6.452 6.452 0 0 0-1.735 4.41c0 1.735.677 3.367 1.905 4.595a6.453 6.453 0 0 0 4.595 1.904 6.457 6.457 0 0 0 4.597-1.904.5.5 0 0 0-.707-.707zm1.936-4.428a.507.507 0 0 0-.593-.385l-2.71.576A6.452 6.452 0 0 0 14.338 9.5a6.458 6.458 0 0 0-1.905-4.596A6.453 6.453 0 0 0 7.838 3C6.1 3 4.468 3.676 3.24 4.904a.5.5 0 0 0 .707.707A5.466 5.466 0 0 1 7.838 4c1.468 0 2.849.572 3.888 1.611A5.465 5.465 0 0 1 13.338 9.5c0 1.46-.568 2.832-1.595 3.869l-.581-2.732a.5.5 0 0 0-.979.208l.832 3.913a.502.502 0 0 0 .594.385v-.001l3.91-.831a.5.5 0 0 0 .387-.593z"  fill-rule="evenodd"/>
</svg>
