<?xml version="1.0" encoding="UTF-8" standalone="no"?>
<svg width="64px" height="20px" viewBox="0 0 64 20" version="1.1" xmlns="http://www.w3.org/2000/svg" xmlns:xlink="http://www.w3.org/1999/xlink">
    <!-- Generator: Sketch 41 (35326) - http://www.bohemiancoding.com/sketch -->
    <title>Artboard</title>
    <desc>Created with Sketch.</desc>
    <defs></defs>
    <g id="Master" stroke="none" stroke-width="1" fill="none" fill-rule="evenodd">
        <g id="Artboard">
            <path d="M7.619,17.55 L8.292,17.55 C8.499,17.55 8.66,17.567 8.776,17.603 C8.87562981,17.6292061 8.966218,17.6821068 9.038,17.756 C9.095,17.822 9.128,17.904 9.133,18.002 C9.13656212,18.1160737 9.1157667,18.2295962 9.072,18.335 C9.02911967,18.4507804 8.96615527,18.5580907 8.886,18.652 C8.805,18.745 8.714,18.822 8.611,18.884 C8.50699511,18.9467556 8.39451234,18.9942408 8.277,19.025 C8.157,19.057 8.019,19.072 7.862,19.072 L7.042,19.072 L7.619,17.549 L7.619,17.55 Z M18.497,15.379 L19.006,15.379 C19.136,15.379 19.236,15.384 19.306,15.392 C19.376,15.4 19.436,15.411 19.489,15.424 C19.659,15.474 19.764,15.56 19.801,15.681 C19.839,15.803 19.823,15.952 19.757,16.128 C19.6697419,16.3577638 19.5109286,16.5533881 19.304,16.686 C19.198,16.753 19.078,16.806 18.942,16.843 C18.7975176,16.8814727 18.6485112,16.9003087 18.499,16.899 L17.921,16.899 L18.497,15.379 L18.497,15.379 Z M8.448,15.362 L9.022,15.362 C9.197,15.362 9.332,15.378 9.425,15.408 C9.518,15.438 9.589,15.482 9.636,15.538 C9.68513369,15.5983733 9.71134433,15.6741717 9.71,15.752 C9.70970418,15.8514207 9.69035512,15.9498633 9.653,16.042 C9.53739122,16.3541713 9.28487734,16.5959948 8.968,16.698 C8.856,16.735 8.718,16.754 8.554,16.754 L7.921,16.754 L8.448,15.362 L8.448,15.362 Z M7.981,14.547 C7.88517773,14.5471354 7.79142912,14.5749127 7.711,14.627 C7.61804539,14.6908971 7.54879313,14.7837021 7.514,14.891 L5.743,19.56 C5.697,19.682 5.696,19.769 5.74,19.823 C5.785,19.877 5.854,19.903 5.95,19.903 L7.433,19.903 C7.657,19.903 7.866,19.891 8.058,19.864 C8.24830184,19.83847 8.4362414,19.7976718 8.62,19.742 C8.802,19.687 8.976,19.617 9.142,19.532 C9.47557934,19.3632233 9.76445851,19.1178645 9.985,18.816 C10.099,18.66 10.192,18.488 10.264,18.297 C10.333,18.115 10.366,17.951 10.364,17.804 C10.364775,17.6713247 10.3339229,17.5403747 10.274,17.422 C10.2159971,17.3126546 10.1305277,17.2202925 10.026,17.154 C9.90896123,17.0812529 9.77887169,17.0320023 9.643,17.009 C9.91555474,16.9236378 10.166096,16.7795936 10.377,16.587 C10.579465,16.3981572 10.7367039,16.1660588 10.837,15.908 C10.925,15.677 10.958,15.475 10.937,15.304 C10.9202409,15.1413032 10.8448927,14.9902514 10.725,14.879 C10.5803103,14.7546133 10.4066437,14.6686397 10.22,14.629 C9.94537412,14.567643 9.66432772,14.5397734 9.383,14.546 L7.98,14.546 L7.981,14.547 Z M31.643,14.547 C31.5471777,14.5471354 31.4534291,14.5749127 31.373,14.627 C31.2803248,14.6907492 31.2111202,14.7831392 31.176,14.89 L29.405,19.56 C29.359,19.683 29.358,19.77 29.401,19.824 C29.447,19.878 29.516,19.905 29.611,19.905 L32.415,19.905 C32.4432289,19.9045258 32.4708296,19.8965906 32.495,19.882 C32.5263279,19.8637481 32.5535604,19.8392388 32.575,19.81 C32.6076523,19.7700594 32.6355091,19.7264283 32.658,19.68 C32.685,19.625 32.714,19.558 32.745,19.479 C32.775,19.399 32.797,19.331 32.81,19.278 C32.8218055,19.2353514 32.8275287,19.1912492 32.827,19.147 C32.825,19.114 32.817,19.09 32.8,19.074 C32.7828501,19.0591054 32.7607024,19.0512465 32.738,19.052 L30.728,19.052 L31.301,17.541 L32.987,17.541 C33.0150057,17.5408188 33.0425161,17.5335973 33.067,17.52 C33.0979661,17.5029408 33.1251749,17.4798133 33.147,17.452 C33.178212,17.4127063 33.2050378,17.3701203 33.227,17.325 C33.2910445,17.1991041 33.3413348,17.0666728 33.377,16.93 C33.3889724,16.8884281 33.3943709,16.8452398 33.393,16.802 C33.391,16.77 33.381,16.746 33.366,16.731 C33.3487475,16.7155029 33.3261789,16.7072636 33.303,16.708 L31.617,16.708 L32.113,15.4 L34.105,15.4 C34.1329245,15.3995903 34.1602196,15.3916437 34.184,15.377 C34.2140666,15.3574123 34.2404662,15.3327049 34.262,15.304 C34.2942082,15.2639403 34.3217209,15.2203226 34.344,15.174 C34.372,15.121 34.4,15.055 34.43,14.977 C34.462,14.895 34.483,14.827 34.497,14.772 C34.5086806,14.7289853 34.5144007,14.6845706 34.514,14.64 C34.514,14.606 34.504,14.581 34.49,14.568 C34.4731093,14.5534411 34.4512732,14.5459238 34.429,14.547 L31.643,14.547 L31.643,14.547 Z M18.014,14.547 C17.9181695,14.5470785 17.8244051,14.5748606 17.744,14.627 C17.6516458,14.6908552 17.5827916,14.7832464 17.548,14.89 L15.703,19.756 C15.6925661,19.7793736 15.6914923,19.8058585 15.7,19.83 C15.71,19.853 15.733,19.87 15.771,19.884 C15.8235629,19.90134 15.8779009,19.9127443 15.933,19.918 C16.003,19.926 16.093,19.93 16.203,19.93 C16.313,19.93 16.408,19.926 16.483,19.918 C16.558,19.909 16.62,19.898 16.668,19.884 C16.7089388,19.8738489 16.7473848,19.8554764 16.781,19.83 C16.8058814,19.8107188 16.8252048,19.7851843 16.837,19.756 L17.611,17.714 L17.965,17.714 C18.085,17.714 18.185,17.732 18.264,17.769 C18.342,17.804 18.404,17.857 18.447,17.928 C18.491,17.998 18.521,18.086 18.539,18.191 C18.557,18.296 18.57,18.416 18.58,18.551 L18.626,19.747 C18.6241697,19.7757048 18.6275578,19.8045037 18.636,19.832 C18.646,19.856 18.668,19.875 18.704,19.89 C18.7547464,19.9084426 18.808047,19.9189003 18.862,19.921 C19.0718293,19.9329761 19.2821707,19.9329761 19.492,19.921 C19.5594288,19.9183056 19.6264237,19.9089263 19.692,19.893 C19.7298694,19.8846243 19.7649762,19.8667267 19.794,19.841 C19.8146172,19.8187036 19.8305938,19.7925291 19.841,19.764 C19.8530544,19.727107 19.8601171,19.6887667 19.862,19.65 C19.866,19.602 19.867,19.525 19.863,19.42 L19.793,18.365 C19.7878414,18.2502419 19.7748108,18.1359732 19.754,18.023 C19.736,17.923 19.708,17.833 19.674,17.753 C19.6118073,17.6067611 19.5008402,17.4866056 19.36,17.413 C19.553,17.36 19.733,17.291 19.9,17.205 C20.069,17.12 20.22,17.019 20.356,16.902 C20.492,16.787 20.612,16.655 20.716,16.507 C20.819,16.36 20.904,16.197 20.973,16.017 C21.053,15.804 21.091,15.616 21.088,15.451 C21.0875774,15.3000189 21.0442243,15.1522716 20.963,15.025 C20.8755038,14.8982656 20.7552199,14.7976834 20.615,14.734 C20.4425588,14.6526368 20.2582433,14.5993001 20.069,14.576 C19.8664383,14.5539533 19.6627475,14.5439357 19.459,14.546 L18.014,14.546 L18.014,14.547 Z M13.334,14.547 C13.2378538,14.5470564 13.1437628,14.5748324 13.063,14.627 C12.9704793,14.69091 12.9013179,14.7832423 12.866,14.89 L11.096,19.56 C11.05,19.683 11.049,19.77 11.093,19.824 C11.138,19.878 11.208,19.905 11.302,19.905 L14.105,19.905 C14.1332009,19.9043411 14.1607552,19.8964192 14.185,19.882 C14.2167605,19.8635679 14.2446152,19.83911 14.267,19.81 C14.2986282,19.7695294 14.3261002,19.7259763 14.349,19.68 C14.4130218,19.5514374 14.463945,19.416759 14.501,19.278 C14.5127277,19.2353357 14.5184495,19.1912446 14.518,19.147 C14.517,19.114 14.507,19.09 14.491,19.074 C14.4738501,19.0591054 14.4517024,19.0512465 14.429,19.052 L12.419,19.052 L12.992,17.541 L14.679,17.541 C14.706655,17.54057 14.7337818,17.5333591 14.758,17.52 C14.7888894,17.5028298 14.8160777,17.4797197 14.838,17.452 C14.8694307,17.4128618 14.8962725,17.3702504 14.918,17.325 C14.945,17.273 14.973,17.206 15.004,17.127 C15.034,17.049 15.054,16.983 15.068,16.93 C15.0799885,16.8884314 15.0853874,16.8452406 15.084,16.802 C15.082,16.77 15.073,16.746 15.057,16.731 C15.0398593,16.7153178 15.0172127,16.70705 14.994,16.708 L13.308,16.708 L13.803,15.4 L15.796,15.4 C15.8236218,15.3996618 15.8506138,15.3917026 15.874,15.377 C15.9047435,15.3575493 15.9318233,15.332839 15.954,15.304 C15.9850766,15.2635402 16.0118859,15.2199752 16.034,15.174 C16.0667207,15.1100402 16.0957678,15.0442668 16.121,14.977 C16.152,14.895 16.174,14.827 16.188,14.772 C16.1997232,14.7289717 16.2057744,14.6845962 16.206,14.64 C16.204,14.606 16.196,14.581 16.181,14.568 C16.1642164,14.5532558 16.1423029,14.5457119 16.12,14.547 L13.334,14.547 L13.334,14.547 Z M53.605,14.53 C53.5185564,14.5291851 53.4321235,14.5325223 53.346,14.54 C53.2870982,14.5450184 53.2290142,14.5571052 53.173,14.576 C53.134161,14.5888003 53.097924,14.6084427 53.066,14.634 C53.0416514,14.6535683 53.0227171,14.6790435 53.011,14.708 L52.058,17.222 C51.986,17.412 51.913,17.612 51.838,17.822 C51.762,18.032 51.691,18.234 51.628,18.427 L51.623,18.427 C51.613,18.316 51.603,18.206 51.589,18.096 L51.549,17.758 C51.535,17.643 51.518,17.529 51.499,17.415 C51.4804072,17.2984256 51.462407,17.1817574 51.445,17.065 L51.101,15.105 C51.0904559,15.0134203 51.0713729,14.9230269 51.044,14.835 C51.0249234,14.7704851 50.9906279,14.7114968 50.944,14.663 C50.8965546,14.6192157 50.8387361,14.5882415 50.776,14.573 C50.6887651,14.5532709 50.5994041,14.5445364 50.51,14.547 L49.902,14.547 C49.7856859,14.5476126 49.6719385,14.5812513 49.574,14.644 C49.4670749,14.7128919 49.3864198,14.8157358 49.345,14.936 L47.519,19.752 C47.5086102,19.7755628 47.5058141,19.8017758 47.511,19.827 C47.518,19.848 47.537,19.867 47.568,19.882 C47.6136254,19.9010017 47.661816,19.9131336 47.711,19.918 C47.774,19.926 47.855,19.93 47.956,19.93 C48.059,19.93 48.146,19.926 48.216,19.918 C48.2737444,19.9118183 48.3307066,19.8997557 48.386,19.882 C48.4238978,19.8705661 48.4592171,19.8518876 48.49,19.827 C48.511999,19.8059976 48.5290744,19.7803846 48.54,19.752 L49.604,16.948 C49.7557775,16.5501982 49.8968285,16.1483863 50.027,15.743 L50.035,15.743 C50.0477058,16.0732602 50.0797608,16.4024916 50.131,16.729 L50.571,19.234 C50.591,19.372 50.612,19.484 50.636,19.572 C50.6551849,19.6466767 50.6891925,19.7167323 50.736,19.778 C50.7783289,19.8290431 50.8351758,19.866011 50.899,19.884 C50.966,19.904 51.049,19.914 51.15,19.914 L51.633,19.914 C51.6904589,19.9132904 51.7475903,19.9052248 51.803,19.89 C51.9237407,19.860007 52.0312653,19.791135 52.109,19.694 C52.1510848,19.6433106 52.1842257,19.5858214 52.207,19.524 L54.034,14.708 C54.0438404,14.6846044 54.0459427,14.6586753 54.04,14.634 C54.034,14.612 54.016,14.593 53.987,14.576 C53.9429973,14.555498 53.8954739,14.5436172 53.847,14.541 C53.7665819,14.533094 53.6858037,14.5294223 53.605,14.53 L53.605,14.53 Z M43.907,14.522 C43.794,14.522 43.701,14.526 43.625,14.534 C43.551,14.542 43.488,14.554 43.438,14.567 C43.3970707,14.5771774 43.3586297,14.5955474 43.325,14.621 C43.3011016,14.6411746 43.2825529,14.6669366 43.271,14.696 L42.036,17.954 C41.906,18.297 41.843,18.596 41.849,18.851 C41.854,19.107 41.92,19.32 42.048,19.491 C42.176,19.662 42.363,19.789 42.611,19.874 C42.857,19.958 43.156,20 43.507,20 C43.881,20 44.229,19.953 44.553,19.86 C45.1800596,19.6850965 45.7327814,19.3100604 46.127,18.792 C46.326,18.532 46.487,18.237 46.612,17.909 L47.83,14.696 C47.8405889,14.672255 47.8413083,14.6452756 47.832,14.621 C47.823,14.6 47.801,14.581 47.762,14.567 C47.7110051,14.5503884 47.6583674,14.5393244 47.605,14.534 C47.5169688,14.524936 47.4284901,14.5209294 47.34,14.522 C47.23,14.522 47.138,14.526 47.061,14.534 C46.985,14.542 46.923,14.554 46.874,14.567 C46.8340382,14.5773204 46.7966062,14.5956961 46.764,14.621 C46.7397365,14.6410576 46.720837,14.6668297 46.709,14.696 L45.486,17.922 C45.4189123,18.1009926 45.3281015,18.2701699 45.216,18.425 C45.1124411,18.5665473 44.9884195,18.691917 44.848,18.797 C44.712813,18.8973829 44.5621726,18.9750674 44.402,19.027 C44.242,19.079 44.072,19.106 43.894,19.106 C43.718,19.106 43.569,19.08 43.446,19.029 C43.3306766,18.9838998 43.2326387,18.9033686 43.166,18.799 C43.0992981,18.6814687 43.0690171,18.5467705 43.079,18.412 C43.082,18.257 43.126,18.072 43.206,17.859 L44.406,14.696 C44.4166528,14.6721348 44.4166528,14.6448652 44.406,14.621 C44.396,14.6 44.371,14.581 44.334,14.567 C44.2820073,14.5502831 44.2283641,14.5392192 44.174,14.534 C44.0852952,14.5249998 43.9961546,14.5209935 43.907,14.522 L43.907,14.522 Z M2.058,14.522 C1.946,14.522 1.853,14.526 1.778,14.534 C1.702,14.544 1.64,14.554 1.59,14.568 C1.54877316,14.5773349 1.5101611,14.5957867 1.477,14.622 C1.45271524,14.6416296 1.4337943,14.6670869 1.422,14.696 L0.187,17.955 C0.057,18.297 -0.005,18.595 -3.88578059e-16,18.851 C0.006,19.107 0.072,19.319 0.2,19.491 C0.328,19.661 0.516,19.789 0.763,19.874 C1.009,19.958 1.308,20 1.659,20 C2.033,20 2.381,19.953 2.704,19.86 C3.028,19.765 3.321,19.63 3.584,19.45 C3.848,19.27 4.08,19.05 4.278,18.79 C4.478,18.531 4.639,18.238 4.764,17.91 L5.982,14.696 C5.99253271,14.6725926 5.993253,14.6459421 5.984,14.622 C5.976,14.599 5.952,14.582 5.914,14.568 C5.86265272,14.5512262 5.80970189,14.5398317 5.756,14.534 C5.66797043,14.524914 5.57949049,14.5209073 5.491,14.522 C5.382,14.522 5.29,14.526 5.213,14.534 C5.14988861,14.5405324 5.08737167,14.5518991 5.026,14.568 C4.98552126,14.5777359 4.94764533,14.5961621 4.915,14.622 C4.89104927,14.6417197 4.87247358,14.6671753 4.861,14.696 L3.638,17.922 C3.567,18.109 3.476,18.277 3.368,18.425 C3.258,18.573 3.135,18.697 2.999,18.797 C2.72377372,19.0016423 2.38894355,19.1102074 2.046,19.106 C1.87,19.106 1.721,19.081 1.598,19.029 C1.48260573,18.9840207 1.38453382,18.9034616 1.318,18.799 C1.25112021,18.6815102 1.2205015,18.5468575 1.23,18.412 C1.24228849,18.2219293 1.28552376,18.0351394 1.358,17.859 L2.558,14.696 C2.56823611,14.6723953 2.56823611,14.6456047 2.558,14.622 C2.548,14.599 2.523,14.582 2.485,14.568 C2.4329794,14.5511886 2.37936162,14.5397948 2.325,14.534 C2.23629611,14.5249872 2.14715476,14.5209808 2.058,14.522 L2.058,14.522 Z M36.567,14.522 C36.457,14.522 36.365,14.526 36.29,14.534 C36.215,14.543 36.152,14.554 36.103,14.567 C36.0609989,14.5767374 36.0214908,14.5951292 35.987,14.621 C35.9622773,14.6408486 35.943007,14.666657 35.931,14.696 L34.013,19.756 C34.003,19.784 34.002,19.808 34.013,19.831 C34.023,19.852 34.046,19.871 34.084,19.884 C34.1368988,19.9011733 34.191587,19.9122452 34.247,19.917 C34.317,19.925 34.407,19.93 34.516,19.93 C34.628,19.93 34.721,19.925 34.796,19.917 C34.872,19.909 34.933,19.898 34.981,19.884 C35.0220873,19.8739214 35.0608117,19.855918 35.095,19.831 C35.1199538,19.8113757 35.1392737,19.7855008 35.151,19.756 L37.069,14.696 C37.0802314,14.6723367 37.0805965,14.6449544 37.07,14.621 C37.06,14.599 37.035,14.581 36.997,14.567 C36.9452981,14.5504766 36.8920071,14.5394163 36.838,14.534 C36.7479598,14.5249675 36.6574861,14.5209613 36.567,14.522 L36.567,14.522 Z M23.106,14.522 C22.959,14.522 22.844,14.525 22.759,14.532 C22.6894652,14.5345247 22.6215567,14.5537311 22.561,14.588 C22.5133265,14.6178934 22.4781425,14.6640946 22.462,14.718 C22.4396897,14.7947551 22.4246238,14.8734326 22.417,14.953 L21.912,19.627 C21.9034721,19.6801248 21.9048282,19.7343677 21.916,19.787 C21.927,19.827 21.957,19.857 22.006,19.878 C22.056,19.898 22.13,19.913 22.226,19.919 C22.323,19.926 22.455,19.929 22.621,19.929 C22.78,19.929 22.908,19.926 23.007,19.919 C23.0901736,19.9152407 23.1725172,19.9007885 23.252,19.876 C23.3109832,19.8572604 23.3649868,19.8254735 23.41,19.783 C23.451,19.743 23.491,19.691 23.53,19.627 L25.662,16.232 L25.671,16.232 L25.277,19.627 C25.2658547,19.6797511 25.2658547,19.7342489 25.277,19.787 C25.287,19.827 25.317,19.857 25.367,19.878 C25.417,19.898 25.49,19.913 25.587,19.919 C25.683,19.926 25.813,19.929 25.977,19.929 C26.124,19.929 26.247,19.926 26.343,19.919 C26.441,19.913 26.524,19.899 26.592,19.878 C26.6545289,19.8601892 26.712503,19.829156 26.762,19.787 C26.8135021,19.7403271 26.8579647,19.6864331 26.894,19.627 L29.943,14.965 C30.008,14.863 30.053,14.782 30.08,14.723 C30.107,14.663 30.11,14.619 30.09,14.588 C30.07,14.558 30.026,14.539 29.959,14.533 C29.8619294,14.5241069 29.764473,14.5201018 29.667,14.521 C29.532,14.521 29.425,14.525 29.347,14.533 C29.2836398,14.5370784 29.2210974,14.5495197 29.161,14.57 C29.1185549,14.584747 29.0806562,14.6102425 29.051,14.644 C29.0218476,14.6797443 28.9957555,14.7178789 28.973,14.758 L26.443,18.849 L26.435,18.849 L26.927,14.774 C26.936,14.72 26.937,14.674 26.93,14.642 C26.922,14.609 26.9,14.583 26.861,14.565 C26.804822,14.5431633 26.7452583,14.5313183 26.685,14.53 C26.4714918,14.517189 26.2573789,14.5181911 26.044,14.533 C25.9767277,14.5371292 25.9102237,14.5495567 25.846,14.57 C25.7991263,14.5849274 25.7565754,14.611007 25.722,14.646 C25.6864782,14.6854266 25.6549882,14.7283066 25.628,14.774 L23.066,18.85 L23.061,18.85 L23.638,14.747 C23.6487375,14.7072801 23.6527929,14.6660507 23.65,14.625 C23.646,14.595 23.628,14.573 23.593,14.558 C23.5389907,14.5391031 23.482219,14.5293032 23.425,14.529 C23.3184145,14.5238224 23.2117099,14.5214882 23.105,14.522 L23.106,14.522 Z M58.368,14.455 C57.0625315,14.4504307 55.8309313,15.0601191 55.043,16.101 C54.773,16.451 54.555,16.845 54.388,17.284 C54.228,17.709 54.148,18.09 54.151,18.424 C54.152,18.76 54.231,19.044 54.387,19.278 C54.543,19.511 54.774,19.688 55.08,19.812 C55.385,19.934 55.761,19.996 56.207,19.996 C56.5205027,19.9959211 56.8333856,19.9681465 57.142,19.913 C57.4319635,19.8634421 57.7180228,19.793264 57.998,19.703 C58.09022,19.6756756 58.173662,19.6246449 58.24,19.555 C58.2947332,19.4906754 58.3377219,19.4172223 58.367,19.338 L59.176,17.205 C59.1950766,17.1581193 59.2065541,17.108496 59.21,17.058 C59.2130859,17.0201084 59.2058278,16.9820899 59.189,16.948 C59.173715,16.9182999 59.1491305,16.8944179 59.119,16.88 C59.0836404,16.8636322 59.0449443,16.855756 59.006,16.857 L57.12,16.857 C57.0923782,16.8573382 57.0653862,16.8652974 57.042,16.88 C57.0122156,16.8987373 56.9858387,16.9224089 56.964,16.95 C56.9329086,16.9893791 56.9060913,17.0319516 56.884,17.077 C56.8519389,17.1399685 56.8235579,17.204744 56.799,17.271 C56.742,17.421 56.716,17.526 56.722,17.588 C56.727,17.65 56.756,17.681 56.807,17.681 L57.865,17.681 L57.393,18.923 C57.1457429,19.0301876 56.8794804,19.0866366 56.61,19.089 C56.35,19.089 56.13,19.049 55.946,18.969 C55.7727757,18.8983879 55.6271473,18.7734632 55.531,18.613 C55.4330228,18.4341711 55.3866326,18.2316463 55.397,18.028 C55.401,17.794 55.461,17.524 55.577,17.218 C55.683,16.938 55.821,16.684 55.992,16.454 C56.162,16.224 56.357,16.026 56.574,15.861 C56.792,15.697 57.027,15.571 57.28,15.481 C57.5317122,15.391581 57.7968768,15.3459213 58.064,15.346 C58.317,15.346 58.529,15.371 58.702,15.42 C58.874,15.47 59.018,15.524 59.135,15.582 C59.25,15.64 59.341,15.694 59.405,15.744 C59.47,15.794 59.521,15.818 59.559,15.818 C59.584,15.818 59.609,15.811 59.633,15.798 C59.662351,15.7785782 59.6877922,15.7538155 59.708,15.725 C59.7393214,15.6807866 59.7667571,15.6339451 59.79,15.585 C59.82,15.528 59.85,15.459 59.88,15.379 C59.9216626,15.2782184 59.9525022,15.1732965 59.972,15.066 C59.982,14.996 59.975,14.942 59.951,14.903 C59.9091072,14.848083 59.8571923,14.8015972 59.798,14.766 C59.6998584,14.7041242 59.5943761,14.6547424 59.484,14.619 C59.3291442,14.56751 59.1702587,14.529043 59.009,14.504 C58.7967682,14.4695621 58.5819999,14.4531702 58.367,14.455 L58.368,14.455 Z M40.456,14.452 C40.199,14.452 39.945,14.483 39.692,14.547 C39.439,14.61 39.204,14.707 38.988,14.834 C38.77,14.964 38.576,15.124 38.403,15.319 C38.227879,15.5181057 38.0906237,15.7475422 37.998,15.996 C37.9207459,16.1781357 37.8816086,16.3741625 37.883,16.572 C37.890991,16.8562516 38.0292811,17.1210311 38.258,17.29 C38.367,17.374 38.483,17.45 38.608,17.515 C38.732,17.581 38.853,17.645 38.972,17.704 C39.09,17.764 39.192,17.827 39.277,17.894 C39.356402,17.9543583 39.4187705,18.0343002 39.458,18.126 C39.495,18.213 39.49,18.318 39.444,18.439 C39.3626636,18.6490174 39.2129452,18.825509 39.019,18.94 C38.9158955,19.0002939 38.8048009,19.0457417 38.689,19.075 C38.568,19.106 38.439,19.122 38.3,19.122 C38.1215539,19.1265509 37.9434701,19.1036159 37.772,19.054 C37.5616321,18.9901216 37.364962,18.8877175 37.192,18.752 C37.136,18.706 37.088,18.683 37.047,18.683 C37.0174715,18.6831964 36.9885098,18.6911264 36.963,18.706 C36.9312217,18.7253424 36.9039455,18.7512547 36.883,18.782 C36.851257,18.8266462 36.8238018,18.8741906 36.801,18.924 C36.7245919,19.0864104 36.6652731,19.2563235 36.624,19.431 C36.614,19.498 36.621,19.551 36.645,19.586 C36.6823301,19.6356126 36.7284223,19.6779768 36.781,19.711 C36.848,19.757 36.937,19.802 37.047,19.845 C37.157,19.888 37.29,19.925 37.443,19.955 C37.597,19.985 37.771,20 37.963,20 C38.248,20 38.529,19.964 38.807,19.893 C39.079878,19.8228127 39.3414654,19.7144071 39.584,19.571 C39.824,19.43 40.04,19.252 40.23,19.039 C40.42,18.827 40.568,18.58 40.675,18.299 C40.756,18.083 40.793,17.896 40.784,17.737 C40.7737938,17.4515028 40.6315394,17.1869465 40.399,17.021 C40.2869671,16.9367045 40.1686183,16.8611485 40.045,16.795 C39.9234669,16.7301388 39.8007805,16.6674621 39.677,16.607 C39.5662723,16.5542719 39.4610842,16.490623 39.363,16.417 C39.2816823,16.3578673 39.2180598,16.2776476 39.179,16.185 C39.1447547,16.0833867 39.1504754,15.9725477 39.195,15.875 C39.2602822,15.7047707 39.3792995,15.5604754 39.534,15.464 C39.615,15.414 39.707,15.374 39.81,15.344 C39.913,15.314 40.027,15.301 40.15,15.301 C40.309,15.301 40.447,15.319 40.565,15.356 C40.683,15.393 40.784,15.434 40.867,15.481 C40.95,15.526 41.019,15.568 41.073,15.607 C41.128,15.646 41.171,15.665 41.203,15.665 C41.235,15.665 41.263,15.657 41.288,15.64 C41.3172789,15.618709 41.3420832,15.591866 41.361,15.561 C41.3882892,15.5169708 41.4126744,15.4712068 41.434,15.424 C41.5071117,15.2618763 41.5666492,15.0939672 41.612,14.922 C41.6163396,14.8965725 41.6173481,14.870688 41.615,14.845 C41.6094446,14.8198307 41.5989039,14.7960292 41.584,14.775 C41.5455494,14.7313113 41.4985925,14.6959235 41.446,14.671 C41.3618357,14.6252032 41.2734202,14.5876935 41.182,14.559 C40.9466812,14.4873677 40.7019789,14.4513028 40.456,14.452 L40.456,14.452 Z M5.266,13.048 C5.044,13.048 4.879,13.086 4.772,13.161 C4.663,13.238 4.572,13.373 4.498,13.57 C4.428,13.758 4.416,13.888 4.463,13.963 C4.512,14.038 4.646,14.075 4.868,14.075 C5.088,14.075 5.254,14.037 5.364,13.958 C5.474,13.881 5.565,13.746 5.639,13.553 C5.711,13.363 5.722,13.231 5.672,13.157 C5.622,13.084 5.487,13.047 5.266,13.047 L5.266,13.048 Z M3.38,13.048 C3.162,13.048 2.998,13.086 2.888,13.161 C2.779,13.238 2.688,13.373 2.614,13.57 C2.542,13.758 2.531,13.888 2.581,13.963 C2.631,14.038 2.765,14.075 2.987,14.075 C3.208,14.075 3.373,14.037 3.482,13.958 C3.59,13.881 3.681,13.746 3.754,13.553 C3.826,13.363 3.838,13.231 3.789,13.157 C3.742,13.084 3.605,13.047 3.38,13.047 L3.38,13.048 Z" id="Shape" fill="#383A41"></path>
            <path d="M38.952,2.68 L38.953,2.68 C40.02,2.681 40.265,3.319 39.327,5.961 C38.365,8.677 37.665,9.361 36.614,9.361 L36.612,9.361 C35.586,9.361 35.228,8.692 36.187,5.988 C36.902,3.971 37.83,2.68 38.952,2.68 L38.952,2.68 Z M20.328,2.68 C21.396,2.681 21.64,3.319 20.703,5.961 C19.74,8.677 19.041,9.361 17.99,9.361 L17.988,9.361 C16.963,9.361 16.603,8.692 17.562,5.988 C18.278,3.971 19.206,2.68 20.328,2.68 L20.328,2.68 Z M47.912,2.623 L48.485,2.623 C49.535,2.623 49.925,2.939 49.57,3.926 C49.237,4.852 48.638,5.424 47.498,5.424 L46.904,5.424 L47.912,2.623 Z M52.749,0.233 C52.969,0.412 53.159,0.616 53.316,0.85 C53.721,1.45 53.876,2.164 53.783,2.981 L55.853,2.981 L52.733,11.814 L55.849,11.814 L58.969,2.981 L62.973,2.981 L63.943,0.232 L52.75,0.232 L52.749,0.233 Z M45.623,0.231 L41.532,11.81 L45.006,11.81 L46.493,7.734 C46.566,7.902 47.443,11.81 47.443,11.81 L51.096,11.81 C51.096,11.81 50.432,8.939 49.943,7.779 C49.818,7.481 49.687,7.146 49.511,6.867 C50.543,6.472 52.039,5.623 52.658,3.904 C53.038,2.847 53.016,1.994 52.594,1.367 C52.081,0.607 51.038,0.233 49.404,0.231 L45.623,0.231 L45.623,0.231 Z M29.775,0.226 C27.94,0.226 26.573,1.183 25.928,2.974 L22.81,11.804 L26.226,11.804 L27.828,7.265 L30.847,7.267 L31.706,4.837 L28.696,4.834 L29.182,3.427 C29.2946519,3.14429651 29.572879,2.96294849 29.877,2.974 L33.437,2.974 C33.467,2.931 33.493,2.884 33.522,2.841 C34.275,1.742 35.342,0.853 36.341,0.226 L29.775,0.226 L29.775,0.226 Z M11.235,0.226 C10.219,0.226 9.233,0.226 8.348,0.688 C7.465,1.15 6.684,2.075 6.084,3.926 C5.954,4.324 5.884,4.666 5.875,4.964 C5.866,5.263 5.917,5.516 6.026,5.737 C6.162,6.006 6.381,6.259 6.655,6.472 C6.929,6.686 7.257,6.859 7.611,6.97 L8.036,7.095 C8.26,7.162 8.522,7.241 8.689,7.293 C8.786,7.323 8.893,7.363 8.989,7.423 C9.16900165,7.51994954 9.28258526,7.70657851 9.286,7.911 C9.28795414,8.00587066 9.27305649,8.10033532 9.242,8.19 C9.159,8.441 9.034,8.603 8.796,8.702 C8.558,8.801 8.209,8.832 7.677,8.837 L1.048,8.837 L0,11.804 L7.096,11.804 C7.764,11.804 8.984,11.804 10.158,11.29 C11.331,10.776 12.456,9.75 12.932,7.696 C13.112,6.924 13.056,6.295 12.762,5.801 C12.468,5.307 11.936,4.948 11.16,4.719 L10.783,4.607 L10.225,4.441 C10.0416292,4.39178933 9.8837024,4.27495209 9.783,4.114 C9.6902767,3.9571696 9.66639642,3.76902189 9.717,3.594 C9.77351105,3.39902879 9.90615377,3.23502759 10.085,3.139 C10.272,3.033 10.517,2.974 10.803,2.974 L14.928,2.974 C14.958,2.931 14.984,2.884 15.013,2.841 C15.766,1.742 16.678,0.853 17.677,0.226 L11.235,0.226 L11.235,0.226 Z M39.772,0.06 C38.898,0.06 38.049,0.267 37.253,0.654 C36.115,1.209 35.083,2.135 34.241,3.364 C33.6624307,4.21900869 33.1978458,5.14582525 32.859,6.121 C32.166,8.073 32.175,9.657 32.882,10.701 C33.282,11.29 34.115,11.995 35.812,11.997 L35.816,11.997 C38.904,11.997 41.208,9.912 42.666,5.799 C43.053,4.711 43.56,2.681 42.631,1.31 C42.07,0.482 41.11,0.062 39.771,0.06 L39.772,0.06 Z M21.148,0.06 C20.2737245,0.0635004827 19.4118009,0.266668185 18.628,0.654 C17.491,1.209 16.458,2.135 15.617,3.364 C15.0382981,4.21908199 14.5733905,5.1458717 14.234,6.121 C13.543,8.073 13.55,9.657 14.257,10.701 C14.658,11.29 15.492,11.995 17.186,11.997 L17.192,11.997 C20.279,11.997 22.583,9.912 24.042,5.799 C24.428,4.711 24.936,2.681 24.007,1.31 C23.445,0.482 22.485,0.062 21.147,0.06 L21.148,0.06 Z" id="Shape" fill="#EE7F00"></path>
        </g>
    </g>
</svg>