<svg width="29" height="25" viewBox="0 0 29 25" xmlns="http://www.w3.org/2000/svg" xmlns:xlink="http://www.w3.org/1999/xlink">
    <title>
        iDEAL
    </title>
    <defs>
        <path id="a" d="M28.895.06H0v24.803h28.895V.06z"/>
    </defs>
    <g fill="none" fill-rule="evenodd">
        <path fill="#000" d="M3.212 21.668h4.63v-7.57h-4.63zM8.192 10.314c0 1.425-1.174 2.58-2.621 2.58-1.448 0-2.621-1.155-2.621-2.58s1.173-2.58 2.62-2.58c1.448 0 2.622 1.155 2.622 2.58"/>
        <g transform="translate(0 .077)">
            <mask id="b" fill="#fff">
                <use xlink:href="#a"/>
            </mask>
            <path d="M16.298 1.707c3.22 0 5.903.859 7.76 2.483 2.1 1.837 3.164 4.62 3.164 8.271 0 7.237-3.574 10.755-10.924 10.755H1.673V1.706h14.625zm.314-1.648H0v24.804h16.612v-.004c3.63-.049 6.504-.936 8.544-2.645 2.48-2.078 3.739-5.36 3.739-9.753 0-2.1-.331-3.983-.984-5.598-.624-1.545-1.547-2.858-2.741-3.904C23.065 1.117 20.11.12 16.612.065V.059z" fill="#000" mask="url(#b)"/>
        </g>
        <path d="M15.84 21.676H9.969V3.789h5.873-.237c4.898 0 10.112 1.903 10.112 8.967 0 7.468-5.214 8.92-10.112 8.92h.237z" fill="#CD0067"/>
        <path d="M9.837 9.136v2.845h.66c.247 0 .426-.014.535-.041a.82.82 0 0 0 .357-.179c.095-.084.172-.222.232-.414.06-.193.09-.455.09-.787s-.03-.587-.09-.765a.978.978 0 0 0-.251-.416.85.85 0 0 0-.41-.202c-.123-.027-.365-.041-.726-.041h-.397zm-.881-.73h1.612c.364 0 .641.028.832.083.256.074.476.206.659.396.182.19.321.422.417.697.095.275.143.614.143 1.017 0 .355-.045.66-.134.916a1.89 1.89 0 0 1-.468.76c-.153.148-.36.262-.62.344-.195.061-.455.091-.781.091h-1.66V8.407z" fill="#FFF"/>
        <path d="M10.568 8.524c.35 0 .62.026.798.078.235.068.438.19.606.364.17.177.301.397.39.654.091.262.137.591.137.98 0 .339-.043.634-.127.877-.103.294-.25.535-.438.714-.14.134-.332.24-.574.316-.182.057-.432.086-.744.086h-1.54V8.524h1.492zM8.836 8.29v4.539h1.78c.336 0 .611-.032.817-.096.277-.088.502-.213.667-.372.215-.206.383-.477.498-.806.093-.268.14-.589.14-.955 0-.414-.05-.769-.15-1.055a2 2 0 0 0-.443-.74 1.59 1.59 0 0 0-.711-.428c-.204-.059-.487-.087-.866-.087H8.836z" fill="#FFF"/>
        <path d="M10.234 9.254c.436 0 .622.02.7.038.144.03.263.089.354.173a.87.87 0 0 1 .22.367c.055.165.083.41.083.728 0 .319-.028.572-.084.752-.054.17-.12.293-.198.362a.707.707 0 0 1-.306.152c-.1.025-.27.037-.506.037h-.54v-2.61h.277zm-.517-.236v3.08h.78c.26 0 .444-.014.565-.044a.945.945 0 0 0 .407-.206c.112-.1.2-.252.266-.467.064-.206.095-.474.095-.821 0-.348-.031-.61-.096-.802a1.099 1.099 0 0 0-.282-.464.968.968 0 0 0-.466-.232c-.133-.03-.379-.044-.752-.044h-.517zM13.616 12.71V8.406h3.236v.73h-2.354v.953h2.19v.73h-2.19v1.162h2.438v.73z" fill="#FFF"/>
        <path d="M16.733 8.524v.494h-2.355v1.189h2.19v.494h-2.19v1.397h2.438v.495h-3.08V8.524h2.997zm-3.236-.235v4.539h3.558v-.965h-2.438v-.927h2.19v-.964h-2.19v-.718h2.355v-.965h-3.475zM20.247 11.004l-.603-1.594-.59 1.594h1.193zm1.625 1.706h-.96l-.382-.976h-1.746l-.362.976h-.936l1.698-4.304h.94l1.748 4.304z" fill="#FFF"/>
        <path d="M20.043 8.524l1.652 4.069h-.701l-.382-.977H18.7l-.361.977h-.679l1.606-4.069h.777zm-.94-.235l-1.792 4.539h1.195l.361-.977h1.581l.382.977h1.219l-1.844-4.54h-1.102z" fill="#FFF"/>
        <path d="M19.646 9.75c.13.347.352.933.43 1.136h-.851l.42-1.136zm-.763 1.372h1.536l-.776-2.053-.76 2.053zM22.61 12.71V8.442h.881v3.539h2.196v.73z" fill="#FFF"/>
        <path d="M23.371 8.56v3.538h2.197v.495h-2.84V8.559h.643zm-.881-.236v4.504h3.317v-.965H23.61V8.324h-1.12z" fill="#FFF"/>
    </g>
</svg>
