<svg width="32" height="23" viewBox="0 0 32 23" xmlns="http://www.w3.org/2000/svg">
    <title>
        web/bank-card
    </title>
    <g fill="#47494D" fill-rule="evenodd">
        <path d="M28.155 9.036h.468c.323 0 .469-.122.517-.382l.016-.32C29.286 6.56 32 6.24 32 3.795 32 2.1 30.465 1 28.623 1a4.637 4.637 0 0 0-2.39.672c-.292.184-.292.413-.098.688l.21.275c.178.26.469.275.76.137.307-.168.807-.382 1.405-.382 1.083 0 1.858.657 1.858 1.513 0 1.787-2.746 2.185-2.746 4.323v.306c0 .32.193.504.533.504zm-.582 2.46c0 .336.194.504.533.504h.566c.339 0 .533-.168.533-.504v-.49c0-.335-.194-.503-.533-.503h-.566c-.34 0-.533.168-.533.504v.489z"/>
        <path d="M30.052 14.008c-.189 0-.366-.044-.552-.056v4.554c0-.006 0-.006-.009-.006h-17.98c-.002 0-.011-.009-.011.006v-7.498h12.33a7.962 7.962 0 0 1-1.533-3H11.5V6.493c0 .007.002.007.01.007h10.545c-.011-.183-.055-.359-.055-.545 0-.327.058-.639.098-.955H11.51A1.5 1.5 0 0 0 10 6.492v12.014c0 .81.677 1.494 1.51 1.494h17.981c.834 0 1.509-.669 1.509-1.494v-4.595c-.315.038-.622.097-.948.097"/>
    </g>
</svg>
