<svg width="32" height="23" viewBox="0 0 32 23" xmlns="http://www.w3.org/2000/svg">
    <title>
        web/bank-cash
    </title>
    <path d="M30.5 12.5c-2.5 0-4 2-4 4h-13c0-2.5-1.5-4-4-4v-3c2.5 0 4-1.5 4-4h13c0 2 1.5 4 4 4v3zm-21 4V14c1.5 0 2.5 1 2.5 2.5H9.5zm0-11c0 .01 2.5 0 2.5 0C12 7 11 8 9.5 8V5.5zm21 11H28c0-1.5 1-2.5 2.5-2.5v2.5zM9.01 4C8.45 4 8 4.44 8 4.99V17c0 .54.45 1 1.01 1h21.98c.56 0 1.01-.45 1.01-1V4.99c0-.54-.45-.99-1.01-.99H9.01zM30.5 8C29 8 28 7 28 5.5h2.5c.01 0 0 2.5 0 2.5zM20 8a3 3 0 1 0 0 6 3 3 0 0 0 0-6m-1.5 3a1.5 1.5 0 1 1 3.001.001A1.5 1.5 0 0 1 18.5 11z" fill="#47494D" fill-rule="evenodd"/>
</svg>
