<svg width="32" height="23" viewBox="0 0 32 23" xmlns="http://www.w3.org/2000/svg">
    <title>
        web/bank-bitcoin
    </title>
    <g fill="none" fill-rule="evenodd">
        <path d="M31.686 14.04c-1.403 5.625-7.1 9.048-12.727 7.646-5.624-1.403-9.048-7.1-7.644-12.725 1.401-5.626 7.1-9.05 12.724-7.647 5.626 1.403 9.05 7.1 7.647 12.726z" fill="#F5922F"/>
        <path d="M26.063 9.998c.2-1.398-.818-2.149-2.21-2.65l.452-1.892-1.102-.287-.44 1.842a44.43 44.43 0 0 0-.882-.217l.442-1.855-1.101-.287-.452 1.892a35.53 35.53 0 0 1-.704-.173l.002-.006-1.52-.396-.294 1.23s.818.196.8.208c.447.117.528.425.514.67l-.514 2.156c.031.008.07.02.115.039l-.117-.03-.72 3.02c-.055.142-.193.354-.505.273.01.017-.802-.209-.802-.209l-.547 1.32 1.435.373c.266.07.528.143.785.212l-.456 1.914 1.101.287.452-1.894c.3.086.592.164.878.238l-.45 1.886 1.102.287.456-1.911c1.88.372 3.293.222 3.888-1.555.479-1.43-.024-2.256-1.013-2.794.72-.174 1.262-.669 1.407-1.691zm-2.518 3.69c-.34 1.431-2.645.658-3.392.464l.605-2.536c.747.195 3.143.58 2.787 2.073zm.34-3.711c-.31 1.301-2.228.64-2.85.478l.549-2.3c.622.162 2.626.464 2.302 1.822z" fill="#FFF"/>
    </g>
</svg>
