<svg xmlns="http://www.w3.org/2000/svg" width="13" height="13" viewBox="0 0 13 13">
  <title>icon-cash</title>
  <g>
    <path d="M13,3.86A0.83,0.83,0,0,0,12.17,3H0.84A0.83,0.83,0,0,0,0,3.86V9.22A0.83,0.83,0,0,0,.84,10H12.17A0.83,0.83,0,0,0,13,9.22V3.86ZM11.18,9.22a1.12,1.12,0,0,1,1-1.09V9.22h-1Zm1-1.92a2,2,0,0,0-1.83,1.92H2.72A2,2,0,0,0,.84,7.29V5.77A2,2,0,0,0,2.72,3.86h7.63a2,2,0,0,0,1.83,1.9V7.3ZM1.88,3.86a1.12,1.12,0,0,1-1,1.08V3.86h1Zm-1,5.36h0V8.12a1.12,1.12,0,0,1,1.05,1.1h-1ZM11.19,3.86h1V4.93A1.12,1.12,0,0,1,11.19,3.86Z"/>
    <path d="M6.54,8.88A2.35,2.35,0,1,0,4.2,6.53,2.34,2.34,0,0,0,6.54,8.88h0Zm0-.82A1.53,1.53,0,1,1,8,6.53a1.52,1.52,0,0,1-1.5,1.53h0Z"/>
  </g>
</svg>
