<svg width="13" height="13" viewBox="0 0 13 13" xmlns="http://www.w3.org/2000/svg">
    <title>
        web/refund
    </title>
    <path d="M4.57 3.37a.41.41 0 0 1 .566 0l.122.12a.376.376 0 0 1 0 .544L1.8 7h8.045c1.205.156 2.182-.788 2.157-2 .026-1.116-.952-2.06-1.996-2H8.011c-.158-.061-.337-.235-.337-.447v-.167c0-.213.179-.386.337-.386h1.995c1.581.002 2.992 1.365 2.994 3-.002 1.73-1.412 3.092-3.152 3H1.8l3.457 3.224a.377.377 0 0 1 0 .546l-.123.117a.409.409 0 0 1-.563 0L.195 7.896a.5.5 0 0 1-.009-.785L4.571 3.37z"  fill-rule="evenodd"/>
</svg>
