<?xml version="1.0" encoding="UTF-8" standalone="no"?>
<svg width="90px" height="77px" viewBox="0 0 90 77" version="1.1" xmlns="http://www.w3.org/2000/svg" xmlns:xlink="http://www.w3.org/1999/xlink" xmlns:sketch="http://www.bohemiancoding.com/sketch/ns">
    <!-- Generator: Sketch 3.5.1 (25234) - http://www.bohemiancoding.com/sketch -->
    <title>signup-ship</title>
    <desc>Created with Sketch.</desc>
    <defs></defs>
    <g id="Website" stroke="none" stroke-width="1" fill="none" fill-rule="evenodd" sketch:type="MSPage">
        <g id="signup-ship" sketch:type="MSArtboardGroup">
            <g id="truck" sketch:type="MSLayerGroup" transform="translate(33.000000, 24.000000)">
                <path d="M13.1984379,25.6768747 L13.1984379,25.6768747 L25.8197745,25.6768747 C27.1732006,25.6768747 28.2757637,24.5693792 28.2757637,23.2032141 L28.2757637,2.47366062 C28.2757637,1.10742053 27.1754806,0 25.8182126,0 L5.22365845,0 C3.86631588,0 2.76610732,1.10749558 2.76610732,2.47366062 L2.76610732,23.2032141 C2.76610732,24.5694542 3.86824061,25.6768747 5.22779092,25.6768747 L7.10615853,25.6768747 L7.10615853,23.2444423 L5.22779092,23.2444423 C5.2069746,23.2444423 5.18918425,23.2265658 5.18918425,23.2032141 L5.18918425,2.47366062 C5.18918425,2.4493964 5.20603739,2.43243243 5.22365845,2.43243243 L25.8182126,2.43243243 C25.8358334,2.43243243 25.8526868,2.44939595 25.8526868,2.47366062 L25.8526868,23.2032141 C25.8526868,23.2262959 25.834655,23.2444423 25.8197745,23.2444423 L13.1984379,23.2444423 L13.1984379,25.6768747 Z" id="Shape" sketch:type="MSShapeGroup"></path>
                <path d="M6.61523139,23.2730753 L1.85491791,23.2730753 C1.18580369,23.2730753 0.643379444,23.8175939 0.643379444,24.4892915 C0.643379444,25.1609892 1.18580369,25.7055078 1.85491791,25.7055078 L6.61523139,25.7055078 C7.2843456,25.7055078 7.82676985,25.1609892 7.82676985,24.4892915 C7.82676985,23.8175939 7.2843456,23.2730753 6.61523139,23.2730753 L6.61523139,23.2730753 Z" id="Shape" sketch:type="MSShapeGroup"></path>
                <path d="M29.0467671,23.2730753 L25.5169654,23.2730753 C24.8478511,23.2730753 24.3054269,23.8175939 24.3054269,24.4892915 C24.3054269,25.1609892 24.8478511,25.7055078 25.5169654,25.7055078 L29.0467671,25.7055078 C29.7158813,25.7055078 30.2583056,25.1609892 30.2583056,24.4892915 C30.2583056,23.8175939 29.7158813,23.2730753 29.0467671,23.2730753 L29.0467671,23.2730753 Z" id="Shape" sketch:type="MSShapeGroup"></path>
                <path d="M10.1423935,29.6773304 C12.5096567,29.6773304 14.4273846,27.7470316 14.4273846,25.3675148 C14.4273846,22.987998 12.5096567,21.0576992 10.1423935,21.0576992 C7.77513035,21.0576992 5.85740247,22.987998 5.85740247,25.3675148 C5.85740247,27.7470316 7.77513035,29.6773304 10.1423935,29.6773304 L10.1423935,29.6773304 Z M10.1423935,27.244898 C9.1148147,27.244898 8.2804794,26.4050935 8.2804794,25.3675148 C8.2804794,24.3299361 9.1148147,23.4901317 10.1423935,23.4901317 C11.1699723,23.4901317 12.0043076,24.3299361 12.0043076,25.3675148 C12.0043076,26.4050935 11.1699723,27.244898 10.1423935,27.244898 L10.1423935,27.244898 Z" id="Shape" sketch:type="MSShapeGroup"></path>
                <path d="M36.8563293,25.6768747 L36.8563293,23.2444423 L39.4321525,23.2444423 C39.451228,23.2444423 39.4669315,23.2286367 39.4669315,23.2044141 L39.4669315,19.7455626 C39.4669315,19.1711274 38.8012585,17.9578142 37.7072445,16.7404208 C37.2014313,16.1775637 36.6538084,15.6671028 36.1863108,15.3109342 C35.998683,15.1679877 35.8431484,15.0650173 35.747203,15.0137571 C35.8430473,15.0649633 35.9913519,15.1161898 36.3529915,15.1161898 L28.3649352,15.1161898 C28.3476804,15.1161898 28.3311319,15.1328604 28.3311319,15.1582466 L28.3311319,23.2023855 C28.3311319,23.2270918 28.3483704,23.2444423 28.3665145,23.2444423 L30.935431,23.2444423 L30.935431,25.6768747 L28.3665145,25.6768747 C27.0087448,25.6768747 25.908055,24.5690889 25.908055,23.2023855 L25.908055,15.1582466 C25.908055,13.791624 27.007295,12.6837574 28.3649352,12.6837574 L36.3529915,12.6837574 C37.3794004,12.6837574 41.8900084,16.8027158 41.8900084,19.7455626 L41.8900084,23.2044141 C41.8900084,24.5699164 40.7915663,25.6768747 39.4321525,25.6768747 L36.8563293,25.6768747 L36.8563293,25.6768747 Z" id="Shape" sketch:type="MSShapeGroup"></path>
                <path d="M35.1299506,15.0939963 L35.1299506,15.0939963 C36.487132,15.0939963 37.2809906,14.035199 36.9032934,12.7291063 L35.4083031,7.55936839 C35.0307865,6.25390018 33.6249004,5.19447834 32.2685721,5.19447834 L28.3639046,5.19447834 C27.0068279,5.19447834 25.908055,6.29576444 25.908055,7.65426968 L25.908055,12.634205 C25.908055,13.9919852 27.0088566,15.0939963 28.3667643,15.0939963 L28.3667643,12.6615639 C28.3455972,12.6615639 28.3311319,12.6470892 28.3311319,12.634205 L28.3311319,7.65426968 C28.3311319,7.64001252 28.3442099,7.62691077 28.3639046,7.62691077 L32.2685721,7.62691077 C32.5469755,7.62691077 33.0043639,7.9714714 33.0812948,8.23750149 L34.576285,13.4072394 C34.5036201,13.1559612 34.8743367,12.6615639 35.1299506,12.6615639 L35.1299506,15.0939963 Z" id="Shape" sketch:type="MSShapeGroup"></path>
                <path d="M34.0637821,29.6773304 C36.4310453,29.6773304 38.3487731,27.7470316 38.3487731,25.3675148 C38.3487731,22.987998 36.4310453,21.0576992 34.0637821,21.0576992 C31.6965189,21.0576992 29.778791,22.987998 29.778791,25.3675148 C29.778791,27.7470316 31.6965189,29.6773304 34.0637821,29.6773304 L34.0637821,29.6773304 Z M34.0637821,27.244898 C33.0362033,27.244898 32.201868,26.4050935 32.201868,25.3675148 C32.201868,24.3299361 33.0362033,23.4901317 34.0637821,23.4901317 C35.0913609,23.4901317 35.9256962,24.3299361 35.9256962,25.3675148 C35.9256962,26.4050935 35.0913609,27.244898 34.0637821,27.244898 L34.0637821,27.244898 Z" id="Shape" sketch:type="MSShapeGroup"></path>
            </g>
            <path d="M11.2776,43.3653993 C11.2776,43.9953566 11.7374211,44.3999993 12.3446,44.3999993 L18.6949998,44.3999993 C19.3149335,44.3999993 19.7295998,43.9945478 19.7295998,43.3653993 L19.7295998,43.0413993 C19.7295998,42.4122508 19.3149335,42.0067993 18.6949998,42.0067993 L13.5271999,42.0067993 L14.0271132,42.5161145 C14.0395244,41.8500416 14.5119824,41.3051229 15.6940877,40.4847442 C15.8693282,40.3631277 16.4981133,39.9386362 16.5713902,39.8885226 C18.6325037,38.4789388 19.5513998,37.3688518 19.5513998,35.5569995 C19.5513998,33.3174965 17.8223021,31.7683996 15.4387999,31.7683996 C13.7410738,31.7683996 12.4952805,32.5682816 11.6940098,33.695996 C11.340011,34.1974901 11.4575651,34.7400474 11.9436749,35.1117784 L12.2320297,35.3360756 C12.7059416,35.7266077 13.2505243,35.6142335 13.6659276,35.1691586 C14.099284,34.6244211 14.6497878,34.2749995 15.3253999,34.2749995 C16.2693669,34.2749995 16.8827998,34.8339051 16.8827998,35.6703995 C16.8827998,36.3402707 16.4325036,36.8920284 15.3109507,37.7015596 C15.1115165,37.8455101 14.3838924,38.3516962 14.2912567,38.4172908 C12.2223621,39.8822595 11.2776,41.088242 11.2776,43.0251993 L11.2776,43.3653993 L11.2776,43.3653993 Z" id="Shape" sketch:type="MSShapeGroup"></path>
            <path d="M17,52.5771484 L17,51.6816406 L17,68.9901797 C17,71.2190762 18.7944314,73 21.0079746,73 L81.9920254,73 C84.2074985,73 86,71.2055686 86,68.9920254 L86,8.00797464 C86,5.79250151 84.2055686,4 81.9920254,4 L21.0079746,4 C18.7925015,4 17,5.78788909 17,7.99336205 L17,25.6347656 L20,26.5302734 L20,7.99336205 C20,7.44631266 20.4477968,7 21.0079746,7 L81.9920254,7 C82.5496045,7 83,7.45024572 83,8.00797464 L83,68.9920254 C83,69.5496045 82.5497543,70 81.9920254,70 L21.0079746,70 C20.4449755,70 20,69.5559188 20,68.9901797 L20,51.6816406 L17,52.5771484 Z" id="Shape" sketch:type="MSShapeGroup"></path>
            <path d="M15,53.5 C23.0081289,53.5 29.5,47.0081289 29.5,39 C29.5,30.9918711 23.0081289,24.5 15,24.5 C6.99187113,24.5 0.5,30.9918711 0.5,39 C0.5,47.0081289 6.99187113,53.5 15,53.5 L15,53.5 Z M15,50.5 C8.64872538,50.5 3.5,45.3512746 3.5,39 C3.5,32.6487254 8.64872538,27.5 15,27.5 C21.3512746,27.5 26.5,32.6487254 26.5,39 C26.5,45.3512746 21.3512746,50.5 15,50.5 L15,50.5 Z" id="Shape" sketch:type="MSShapeGroup"></path>
        </g>
    </g>
</svg>