<?xml version="1.0" encoding="UTF-8" standalone="no"?>
<svg width="90px" height="77px" viewBox="0 0 90 77" version="1.1" xmlns="http://www.w3.org/2000/svg" xmlns:xlink="http://www.w3.org/1999/xlink" xmlns:sketch="http://www.bohemiancoding.com/sketch/ns">
    <!-- Generator: Sketch 3.5.1 (25234) - http://www.bohemiancoding.com/sketch -->
    <title>signup-account</title>
    <desc>Created with Sketch.</desc>
    <defs></defs>
    <g id="Website" stroke="none" stroke-width="1" fill="none" fill-rule="evenodd" sketch:type="MSPage">
        <g id="signup-account" sketch:type="MSArtboardGroup">
            <path d="M47.125957,31.2470916 C47.125957,28.1476007 49.4348112,25.3908573 51.6913992,25.3908573 C53.8667524,25.3908573 56.1091472,28.2762928 56.1091472,31.4556619 C56.1091472,33.7951139 54.8065337,36.7789123 53.1661488,38.2830552 L52.6347004,38.7703642 L52.8110542,39.5076837 C53.1403791,40.8845621 54.1241701,41.668127 55.9888609,42.3820803 C56.87078,42.7197498 56.7416499,42.6797488 60.3070342,43.7526086 C63.7790192,44.7989564 64.852372,46.6681353 64.8335595,49.6435842 L64.9400672,49.1349184 C64.9676459,49.0714603 64.9435027,49.1047222 64.8183515,49.217047 C64.5050059,49.4982786 63.9974595,49.804423 63.2521344,50.1057619 C60.9501592,51.0364627 57.1985668,51.6091427 51.6913989,51.6091427 C46.1796934,51.6091427 42.3521184,51.0354965 39.9237667,50.0996432 C39.1262223,49.7922806 38.5642798,49.4764561 38.1985911,49.1804985 C38.035742,49.0487023 37.9863153,48.990366 38.006498,49.0266646 L38.1664397,49.6435842 C38.1476415,46.6703848 39.2232052,44.7991697 42.6960988,43.7524818 C48.4152133,42.0285538 49.5913226,41.4911122 50.1811834,39.5898182 L50.4102392,38.8515042 L49.8899968,38.3229958 C48.3396519,36.7480179 47.125957,33.6567273 47.125957,31.2470916 L47.125957,31.2470916 Z M48.4229761,40.0821211 L48.1317895,38.8152986 C47.912882,39.5209016 46.7513815,40.0516675 42.1254274,41.4460813 C37.6261153,42.8021192 35.9750834,45.6745067 36.0002836,49.6602678 L36.0023894,49.993319 L36.1602254,50.2771874 C36.5199997,50.9242421 37.454243,51.6803396 39.2096624,52.3568541 C41.8941126,53.3914042 45.9548843,54 51.6913989,54 C57.4324509,54 61.4256558,53.3904379 63.9972334,52.3507354 C65.7076161,51.6592186 66.5895308,50.8676892 66.8932079,50.1689336 L66.9980244,49.9277526 L66.9997156,49.6602678 C67.0249281,45.6725652 65.3765532,42.8020201 60.8772282,41.4460643 C57.4053725,40.401348 57.5085884,40.4333215 56.698822,40.1232779 C55.4542055,39.6467388 54.9977821,39.283209 54.9055116,38.8974345 L54.550417,40.122063 C56.6800704,38.1692878 58.275356,34.5150875 58.275356,31.4556619 C58.275356,27.0303341 55.1432117,23 51.6913992,23 C48.1987475,23 44.9597482,26.8673253 44.9597482,31.2470916 C44.9597482,34.3213435 46.4243784,38.0517681 48.4229761,40.0821211 Z" id="Shape" sketch:type="MSShapeGroup"></path>
            <path d="M11.229,43.3653993 C11.229,43.9979416 11.6310576,44.3999993 12.2636,44.3999993 L17.7877998,44.3999993 C18.4077335,44.3999993 18.8223998,43.9945478 18.8223998,43.3653993 L18.8223998,43.0413993 C18.8223998,42.4122508 18.4077335,42.0067993 17.7877998,42.0067993 L15.8113999,42.0067993 L16.3113999,42.5067993 L16.3113999,32.9973995 C16.3113999,32.3648572 15.9093423,31.9627996 15.2767999,31.9627996 L14.7583999,31.9627996 C14.3748247,31.9627996 14.0599513,32.08996 13.7725376,32.3534225 L11.6874635,34.3892789 C11.2413119,34.8353808 11.2321769,35.4108832 11.6832466,35.8619529 L11.9100466,36.0887529 C12.3036686,36.5402883 12.8883171,36.5497181 13.3507705,36.1161681 L14.0873587,35.3961028 C14.3923303,35.0911759 14.5813968,34.8359361 14.6757877,34.6681301 L14.2399999,34.4229995 L14.2399999,34.9229995 L14.2723999,34.9229995 L14.2723999,34.4229995 L13.7729658,34.3992169 C13.7708187,34.4443073 13.7676729,34.5219032 13.7645439,34.6220321 C13.7593304,34.7888636 13.7561999,34.9579094 13.7561999,35.1195995 L13.7561999,42.5067993 L14.2561999,42.0067993 L12.2636,42.0067993 C11.6310576,42.0067993 11.229,42.4088569 11.229,43.0413993 L11.229,43.3653993 L11.229,43.3653993 Z" id="Shape" sketch:type="MSShapeGroup"></path>
            <path d="M17,52.5771484 L17,51.6816406 L17,68.9901797 C17,71.2190762 18.7944314,73 21.0079746,73 L81.9920254,73 C84.2074985,73 86,71.2055686 86,68.9920254 L86,8.00797464 C86,5.79250151 84.2055686,4 81.9920254,4 L21.0079746,4 C18.7925015,4 17,5.78788909 17,7.99336205 L17,25.6347656 L20,26.5302734 L20,7.99336205 C20,7.44631266 20.4477968,7 21.0079746,7 L81.9920254,7 C82.5496045,7 83,7.45024572 83,8.00797464 L83,68.9920254 C83,69.5496045 82.5497543,70 81.9920254,70 L21.0079746,70 C20.4449755,70 20,69.5559188 20,68.9901797 L20,51.6816406 L17,52.5771484 Z" id="Shape" sketch:type="MSShapeGroup"></path>
            <path d="M15,53.5 C23.0081289,53.5 29.5,47.0081289 29.5,39 C29.5,30.9918711 23.0081289,24.5 15,24.5 C6.99187113,24.5 0.5,30.9918711 0.5,39 C0.5,47.0081289 6.99187113,53.5 15,53.5 L15,53.5 Z M15,50.5 C8.64872538,50.5 3.5,45.3512746 3.5,39 C3.5,32.6487254 8.64872538,27.5 15,27.5 C21.3512746,27.5 26.5,32.6487254 26.5,39 C26.5,45.3512746 21.3512746,50.5 15,50.5 L15,50.5 Z" id="Shape" sketch:type="MSShapeGroup"></path>
        </g>
    </g>
</svg>
