<?xml version="1.0" encoding="UTF-8" standalone="no"?>
<svg width="90px" height="77px" viewBox="0 0 90 77" version="1.1" xmlns="http://www.w3.org/2000/svg" xmlns:xlink="http://www.w3.org/1999/xlink" xmlns:sketch="http://www.bohemiancoding.com/sketch/ns">
    <!-- Generator: Sketch 3.5.1 (25234) - http://www.bohemiancoding.com/sketch -->
    <title>signup-cart</title>
    <desc>Created with Sketch.</desc>
    <defs></defs>
    <g id="Website" stroke="none" stroke-width="1" fill="none" fill-rule="evenodd" sketch:type="MSPage">
        <g id="signup-cart" sketch:type="MSArtboardGroup">
            <g id="cart" sketch:type="MSLayerGroup" transform="translate(35.000000, 20.000000)">
                <path d="M10.3075061,37.6020408 C13.1137133,37.6020408 15.3873161,35.3236608 15.3873161,32.5147091 C15.3873161,29.7057574 13.1137133,27.4273774 10.3075061,27.4273774 C7.50129884,27.4273774 5.22769603,29.7057574 5.22769603,32.5147091 C5.22769603,35.3236608 7.50129884,37.6020408 10.3075061,37.6020408 L10.3075061,37.6020408 Z M10.3075061,34.6020408 C9.15956431,34.6020408 8.22769603,33.6682146 8.22769603,32.5147091 C8.22769603,31.3612037 9.15956431,30.4273774 10.3075061,30.4273774 C11.4554478,30.4273774 12.3873161,31.3612037 12.3873161,32.5147091 C12.3873161,33.6682146 11.4554478,34.6020408 10.3075061,34.6020408 L10.3075061,34.6020408 Z" id="Shape" sketch:type="MSShapeGroup"></path>
                <path d="M30.4852138,29.6274227 L30.4852138,29.6274227 L30.6428351,28.9247847 L33.2990609,17.083967 C33.6103722,15.6962158 32.5791564,14.5780505 30.9976658,14.5780505 L8.67428108,14.5780505 C7.09351664,14.5780505 6.09168562,15.6930592 6.43825083,17.0684921 L9.45502498,29.0413338 L9.60709022,29.6448437 L12.5161656,28.9118495 L12.3641004,28.3083397 L9.34732621,16.3354979 C9.41939181,16.6215088 9.32527346,17.022777 9.06556681,17.3119678 C8.88646058,17.5114076 8.72210414,17.5780505 8.67428108,17.5780505 L30.9976658,17.5780505 C30.9596167,17.5780505 30.8135742,17.5192488 30.6499022,17.341262 C30.4069677,17.0770804 30.3100682,16.7025372 30.3718108,16.4273031 L27.7155851,28.2681208 L27.5579638,28.9707589 L30.4852138,29.6274227 Z" id="Shape" sketch:type="MSShapeGroup"></path>
                <path d="M29.9964612,37.6020408 C32.8026684,37.6020408 35.0762712,35.3236608 35.0762712,32.5147091 C35.0762712,29.7057574 32.8026684,27.4273774 29.9964612,27.4273774 C27.1902539,27.4273774 24.9166511,29.7057574 24.9166511,32.5147091 C24.9166511,35.3236608 27.1902539,37.6020408 29.9964612,37.6020408 L29.9964612,37.6020408 Z M29.9964612,34.6020408 C28.8485194,34.6020408 27.9166511,33.6682146 27.9166511,32.5147091 C27.9166511,31.3612037 28.8485194,30.4273774 29.9964612,30.4273774 C31.1444029,30.4273774 32.0762712,31.3612037 32.0762712,32.5147091 C32.0762712,33.6682146 31.1444029,34.6020408 29.9964612,34.6020408 L29.9964612,34.6020408 Z" id="Shape" sketch:type="MSShapeGroup"></path>
                <path d="M14.4242876,33 L26.2430834,33 C27.0715105,33 27.7430834,32.3284271 27.7430834,31.5 C27.7430834,30.6715729 27.0715105,30 26.2430834,30 L14.4242876,30 C13.5958605,30 12.9242876,30.6715729 12.9242876,31.5 C12.9242876,32.3284271 13.5958605,33 14.4242876,33 L14.4242876,33 Z" id="Shape" sketch:type="MSShapeGroup"></path>
                <path d="M1.59764246,9.5 L5.76721219,9.5 L4.31135554,8.36122208 L7.70133774,22.0240863 C7.90083518,22.8281337 8.71436904,23.3182183 9.51841647,23.1187209 C10.3224639,22.9192234 10.8125485,22.1056896 10.6130511,21.3016422 L7.22306885,7.63877792 C7.05707686,6.96976969 6.45650557,6.5 5.76721219,6.5 L1.59764246,6.5 C0.769215332,6.5 0.0976424567,7.17157288 0.0976424567,8 C0.0976424567,8.82842712 0.769215332,9.5 1.59764246,9.5 L1.59764246,9.5 Z" id="Shape" sketch:type="MSShapeGroup"></path>
                <path d="M27.1590177,16.3785607 L13.1053268,16.3785607 C11.453847,14.7041781 10.4454937,12.4193166 10.4454937,9.85308038 C10.4454937,4.51937419 14.7836591,0.197899742 20.1321723,0.197899742 C25.4806854,0.197899742 29.8188508,4.51937419 29.8188508,9.85308038 C29.8188508,12.4193166 28.8104975,14.7041781 27.1590177,16.3785607 Z M20.1321723,16.2534116 C16.3725491,16.2534116 13.4454937,13.4634971 13.4454937,9.85308038 C13.4454937,6.17882277 16.43793,3.19789974 20.1321723,3.19789974 C23.8264145,3.19789974 26.8188508,6.17882277 26.8188508,9.85308038 C26.8188508,13.4634971 23.8917954,16.2534116 20.1321723,16.2534116 L20.1321723,16.2534116 Z" id="Mask" sketch:type="MSShapeGroup"></path>
                <path d="M18.0361458,12.0868483 C18.4902564,12.4874625 19.1425495,12.797747 19.9354058,12.8585691 L19.4736497,12.3600339 L19.4736497,12.990164 C19.4736497,13.4063917 19.7746694,13.6972067 20.190287,13.6972067 L20.2624994,13.6972067 C20.6876213,13.6972067 20.9791367,13.388319 20.9791367,12.9721603 L20.9791367,12.3600339 L20.5266164,12.8577744 C21.7858359,12.7376569 22.6490489,11.8329188 22.6490489,10.6676844 C22.6490489,9.54284029 22.0399638,8.97917618 20.7519752,8.41495496 C20.6782843,8.38267364 20.4330526,8.2770789 20.4188904,8.27093641 C19.6748111,7.94821223 19.4536493,7.76908052 19.4536493,7.51703374 C19.4536493,7.21063188 19.7766369,6.9278088 20.2895791,6.9278088 C20.6352683,6.9278088 20.9406951,7.04795312 21.2016291,7.23227576 C21.5765719,7.47324998 22.0077427,7.40781653 22.2308417,7.01846139 L22.3137527,6.87149063 C22.5120714,6.52540528 22.44977,6.11711597 22.0856212,5.89363743 C21.7287375,5.61110718 21.1745044,5.37896607 20.5056929,5.3433937 L20.9791367,5.84268797 L20.9791367,5.21255784 C20.9791367,4.79633018 20.678117,4.50551509 20.2624994,4.50551509 L20.190287,4.50551509 C19.7651651,4.50551509 19.4736497,4.81440285 19.4736497,5.23056156 L19.4736497,5.86069169 L19.9112509,5.36460059 C18.6906688,5.51812672 17.812764,6.4242895 17.812764,7.53503746 C17.812764,8.61351129 18.396699,9.13087046 19.7076795,9.71255003 C19.8224981,9.76327605 19.8224981,9.76327605 19.9341716,9.81247844 C20.7632592,10.1788696 21.0081637,10.3779165 21.0081637,10.6856881 C21.0081637,11.0425781 20.7157484,11.2839149 20.2444463,11.2839149 C19.7904034,11.2839149 19.387752,11.1046516 19.0703815,10.8467608 C18.7083636,10.5949663 18.3108253,10.6302064 18.0522544,10.965429 L17.9498272,11.0929677 C17.7017789,11.4223874 17.7285326,11.8314881 18.0473488,12.0964414 L18.0361458,12.0868483 Z" id="Shape" sketch:type="MSShapeGroup"></path>
            </g>
            <path d="M17,52.5771484 L17,51.6816406 L17,68.9901797 C17,71.2190762 18.7944314,73 21.0079746,73 L81.9920254,73 C84.2074985,73 86,71.2055686 86,68.9920254 L86,8.00797464 C86,5.79250151 84.2055686,4 81.9920254,4 L21.0079746,4 C18.7925015,4 17,5.78788909 17,7.99336205 L17,25.6347656 L20,26.5302734 L20,7.99336205 C20,7.44631266 20.4477968,7 21.0079746,7 L81.9920254,7 C82.5496045,7 83,7.45024572 83,8.00797464 L83,68.9920254 C83,69.5496045 82.5497543,70 81.9920254,70 L21.0079746,70 C20.4449755,70 20,69.5559188 20,68.9901797 L20,51.6816406 L17,52.5771484 Z" id="Shape" sketch:type="MSShapeGroup"></path>
            <path d="M15,53.5 C23.0081289,53.5 29.5,47.0081289 29.5,39 C29.5,30.9918711 23.0081289,24.5 15,24.5 C6.99187113,24.5 0.5,30.9918711 0.5,39 C0.5,47.0081289 6.99187113,53.5 15,53.5 L15,53.5 Z M15,50.5 C8.64872538,50.5 3.5,45.3512746 3.5,39 C3.5,32.6487254 8.64872538,27.5 15,27.5 C21.3512746,27.5 26.5,32.6487254 26.5,39 C26.5,45.3512746 21.3512746,50.5 15,50.5 L15,50.5 Z" id="Shape" sketch:type="MSShapeGroup"></path>
            <path d="M11.5491639,43.2721451 C12.5640644,44.0717637 13.7357795,44.5943993 15.1957999,44.5943993 C17.7260174,44.5943993 19.5837998,42.7477081 19.5837998,40.4169994 C19.5837998,38.1839925 17.9171905,36.7934154 15.7832929,36.566405 L16.1080611,37.3912761 L18.975461,34.0864762 C19.2265441,33.8128431 19.3407998,33.5001432 19.3407998,33.1107995 L19.3407998,32.9649996 C19.3407998,32.3554704 18.9294304,31.9627996 18.3061998,31.9627996 L12.539,31.9627996 C11.9190662,31.9627996 11.5044,32.368251 11.5044,32.9973995 L11.5044,33.3213995 C11.5044,33.9377419 11.9226576,34.3559995 12.539,34.3559995 L15.8761999,34.3559995 C16.1650642,34.3559995 16.4188605,34.3464223 16.6360607,34.3303334 C16.7705022,34.3203748 16.8652919,34.3100341 16.9189105,34.3023743 L16.8481998,33.8073995 L16.3481998,33.8073995 L16.3481998,33.8397995 L16.8481998,33.8397995 L16.5127432,33.4690316 C16.4643276,33.5128362 16.3829136,33.589879 16.2779715,33.6948211 C16.1045481,33.8682445 15.9270399,34.058546 15.7547782,34.2607663 L13.5502369,36.8705475 C13.2353507,37.2109608 13.148283,37.670045 13.3495084,38.1012422 L13.4039863,38.2106062 C13.609637,38.6479466 13.9624413,38.8757994 14.4505999,38.8757994 L14.8069999,38.8757994 C16.1076326,38.8757994 16.9637998,39.4903925 16.9637998,40.4817994 C16.9637998,41.3911138 16.1823632,42.0715993 15.1309999,42.0715993 C14.3616259,42.0715993 13.7037188,41.7661425 13.0961685,41.2754287 C12.5496394,40.9085671 12.012548,40.9702005 11.6396211,41.4578743 L11.3671474,41.8486671 C11.0239771,42.3348046 11.0776172,42.889086 11.5433037,43.2674563 L11.5491639,43.2721451 Z" id="Shape" sketch:type="MSShapeGroup"></path>
        </g>
    </g>
</svg>