<svg width="74" height="26" viewBox="0 0 74 26" xmlns="http://www.w3.org/2000/svg">
    <title>
        Logo type
    </title>
    <path d="M8.219 15.642c-.638 0-1.219.562-1.219 1.176 0 .246.078.48.23.7.734 1.103 2.395 1.679 3.658 1.679 2.161 0 4.457-1.357 4.457-3.872 0-2.626-2.1-3.453-3.787-4.12-1.316-.518-2.123-.874-2.123-1.65 0-.62.495-1.246 1.602-1.246.693 0 1.278.305 1.69.88.273.367.59.555.938.555.66 0 1.217-.54 1.217-1.18 0-.244-.065-.47-.188-.653C13.966 6.784 12.462 6 11.037 6 9.072 6 7.084 7.223 7.084 9.556c0 2.401 1.97 3.17 3.55 3.79 1.266.492 2.36.92 2.36 1.979 0 .773-.724 1.56-2.106 1.56-.423 0-1.215-.098-1.737-.739-.278-.323-.61-.504-.932-.504zm53.335-9.484h-.067c-2.307 0-4.163 1.878-4.163 4.19v4.854c0 .14-.014.28 0 .418v9.231c0 .641.52 1.163 1.162 1.163.641 0 1.161-.522 1.161-1.163v-6.04c.442.394 1.179.58 1.84.58h.067c2.307 0 4.067-1.999 4.067-4.309v-4.85c0-2.314-1.76-4.074-4.067-4.074zm1.805 9.044c0 1.266-.809 1.806-1.805 1.806h-.067c-.996 0-1.806-.54-1.806-1.806v-4.855c0-.998.81-1.806 1.806-1.806h.067c.996 0 1.805.808 1.805 1.806v4.855zm-8.46-7.92a1.158 1.158 0 0 0-2.312 0h-.007v7.996c0 .975-.79 1.764-1.762 1.764h-.066c-.976 0-1.764-.79-1.764-1.764V7.36l.003-.023c0-.009-.003-.018-.003-.025v-.03h-.002a1.16 1.16 0 0 0-1.157-1.108c-.622 0-1.126.49-1.155 1.109h-.01v7.995a4.096 4.096 0 0 0 4.088 4.094h.066a4.097 4.097 0 0 0 4.087-4.094V7.283h-.006zm-29.43 0a1.159 1.159 0 0 0-1.158-1.108c-.622 0-1.126.49-1.155 1.109h-.006v7.995c0 .975-.79 1.764-1.765 1.764h-.064c-.972 0-1.762-.79-1.762-1.764V7.36l.001-.023-.001-.025v-.03h-.003a1.16 1.16 0 0 0-1.155-1.108c-.625 0-1.129.49-1.158 1.109h-.009v7.995a4.097 4.097 0 0 0 4.087 4.094h.064a4.096 4.096 0 0 0 4.088-4.094V7.283h-.005zm12.468-1.108h-.065a4.072 4.072 0 0 0-2.925 1.24 4.073 4.073 0 0 0-2.92-1.233h-.065a4.094 4.094 0 0 0-4.087 4.092v7.995h.006c.028.618.532 1.11 1.156 1.11.623 0 1.128-.492 1.155-1.11h.007v-7.995c0-.977.789-1.766 1.763-1.766h.064c.95 0 1.72.75 1.761 1.69 0 .024-.004.045-.004.069v7.996h.006c.01.232.09.448.216.624a1.157 1.157 0 0 0 2.103-.618h.008v-7.995c0-.027-.002-.052-.003-.078a1.763 1.763 0 0 1 1.76-1.695h.064c.974 0 1.763.79 1.763 1.766v7.918l-.002.024.002.025v.03h.004c.028.616.531 1.109 1.156 1.109a1.16 1.16 0 0 0 1.155-1.11h.01v-7.996a4.095 4.095 0 0 0-4.088-4.092zm33.026-.007a2.309 2.309 0 1 0 0 4.619 2.309 2.309 0 0 0 0-4.62zm0 4.059a1.752 1.752 0 0 1-1.747-1.75 1.747 1.747 0 0 1 3.494 0c0 .964-.784 1.75-1.747 1.75zm-.716-2.578c0-.157.12-.246.246-.246h.591c.437 0 .723.268.723.672a.59.59 0 0 1-.503.607l.427.462c.067.072.103.13.103.212 0 .07-.063.228-.252.228-.126 0-.171-.046-.233-.121l-.602-.763h-.008v.621c0 .174-.103.263-.246.263-.141 0-.246-.089-.246-.263V7.648zm.492.687h.324c.16 0 .253-.107.253-.243 0-.147-.114-.234-.253-.234h-.324v.477z" fill-rule="evenodd"/>
</svg>
