<svg width="26" height="26" viewBox="0 0 26 26" xmlns="http://www.w3.org/2000/svg">
  <path d="M21.4 0H4.599A4.599 4.599 0 0 0 0 4.599v16.802A4.6 4.6 0 0 0 4.599 26H21.4a4.6 4.6 0 0 0 4.6-4.6V4.6C26 2.059 23.94 0 21.4 0M9.04 4.869a7.39 7.39 0 0 1 9.92-.482.615.615 0 0 1 .177.43.616.616 0 0 1-.174.427c-1.417 1.419-8.288 8.288-9.55 9.551a.62.62 0 0 1-.88-.045 7.388 7.388 0 0 1 .507-9.881M17.21 20.57c-2.705 2.706-6.987 2.871-9.889.503a.616.616 0 0 1-.023-.887c1.432-1.432 8.256-8.257 9.536-9.535a.614.614 0 0 1 .427-.174c.17 0 .323.072.434.182 2.387 2.902 2.229 7.199-.485 9.911" fill-rule="evenodd"/>
</svg>
