<?xml version="1.0" encoding="UTF-8"?>
<svg width="42px" height="42px" viewBox="0 0 42 42" version="1.1" xmlns="http://www.w3.org/2000/svg" xmlns:xlink="http://www.w3.org/1999/xlink">
    <g id="Components" stroke="none" stroke-width="1" fill="none" fill-rule="evenodd">
        <g id="share_button" transform="translate(-78.000000, -46.000000)">
            <g id="frame" transform="translate(24.000000, 12.000000)">
                <g id="Twitter" transform="translate(54.000000, 34.000000)">
                    <rect id="BG" x="0" y="0" width="42" height="42" rx="3"></rect>
                    <path d="M16.547808,30.505088 C25.604832,30.505088 30.557664,23.001632 30.557664,16.495232 C30.557664,16.282016 30.553344,16.06976 30.543552,15.858656 C31.504896,15.163712 32.340672,14.296544 33,13.309184 C32.117664,13.701056 31.168224,13.965248 30.172224,14.084288 C31.188864,13.47488 31.969344,12.510272 32.337408,11.360576 C31.385856,11.924576 30.332448,12.334784 29.21088,12.55568 C28.312416,11.598656 27.032736,11 25.616736,11 C22.897248,11 20.692032,13.205216 20.692032,15.923648 C20.692032,16.310144 20.735328,16.685792 20.819712,17.046368 C16.72752,16.84064 13.09872,14.881184 10.6704,11.901824 C10.247136,12.629312 10.003584,13.47488 10.003584,14.376608 C10.003584,16.085024 10.872864,17.593088 12.194688,18.475328 C11.387136,18.450464 10.628256,18.228512 9.964608,17.859296 C9.963456,17.87984 9.963456,17.90048 9.963456,17.92208 C9.963456,20.307104 11.661024,22.297952 13.913856,22.74944 C13.500384,22.861952 13.06512,22.922624 12.61584,22.922624 C12.298656,22.922624 11.990112,22.891232 11.690208,22.833824 C12.317088,24.790112 14.134752,26.213696 16.290144,26.253824 C14.604576,27.574496 12.481632,28.361504 10.174656,28.361504 C9.777312,28.361504 9.38544,28.338848 9,28.293344 C11.179296,29.689856 13.766688,30.505088 16.547808,30.505088" id="Twitter-Logo" fill="#FFFFFF"></path>
                </g>
            </g>
        </g>
    </g>
</svg>
