<?xml version="1.0" encoding="UTF-8"?>
<svg width="42px" height="42px" viewBox="0 0 42 42" version="1.1" xmlns="http://www.w3.org/2000/svg" xmlns:xlink="http://www.w3.org/1999/xlink">
    <g id="Components" stroke="none" stroke-width="1" fill="none" fill-rule="evenodd">
        <g id="share_button" transform="translate(-240.000000, -46.000000)">
            <g id="frame" transform="translate(24.000000, 12.000000)">
                <g id="Whatsapp" transform="translate(216.000000, 34.000000)">
                    <rect id="bg" x="0" y="0" width="42" height="42" rx="3"></rect>
                    <g id="whatsapp" transform="translate(9.000000, 9.000000)" fill="#FFFFFF">
                        <path d="M17.4975,14.382 C17.1975,14.232 15.732,13.515 15.4575,13.416 C15.1845,13.3155 14.985,13.266 14.7855,13.566 C14.5875,13.8615 14.0145,14.5305 13.8405,14.7285 C13.6665,14.9235 13.4925,14.9385 13.1955,14.8035 C12.8955,14.6535 11.9325,14.3385 10.7925,13.3185 C9.9045,12.5235 9.3075,11.5485 9.132,11.2485 C8.958,10.9485 9.1125,10.7835 9.2625,10.6335 C9.3975,10.4985 9.5625,10.2885 9.7125,10.1085 C9.8595,9.9285 9.9075,9.8085 10.0095,9.6135 C10.1085,9.4035 10.059,9.2385 9.984,9.0885 C9.909,8.9385 9.312,7.4685 9.063,6.8835 C8.823,6.2985 8.5755,6.3735 8.391,6.3735 C8.2185,6.3585 8.019,6.3585 7.821,6.3585 C7.62,6.3585 7.296,6.4335 7.023,6.7185 C6.75,7.0185 5.979,7.7385 5.979,9.1935 C5.979,10.6485 7.0485,12.0585 7.197,12.2685 C7.347,12.4635 9.303,15.4635 12.297,16.7535 C13.011,17.0535 13.566,17.2335 14.001,17.3835 C14.715,17.6085 15.366,17.5785 15.8805,17.5035 C16.455,17.4135 17.6475,16.7835 17.8965,16.0785 C18.1515,15.3735 18.1515,14.7885 18.0765,14.6535 C18.0015,14.5185 17.8065,14.4435 17.5065,14.3085 M12.06,21.75 L12.045,21.75 C10.275,21.75 8.52,21.27 6.99,20.37 L6.63,20.1555 L2.88,21.1305 L3.885,17.4855 L3.645,17.1105 C2.655,15.5355 2.13,13.7205 2.13,11.8515 C2.13,6.4065 6.585,1.9665 12.072,1.9665 C14.727,1.9665 17.217,3.0015 19.092,4.8765 C20.967,6.7365 22.002,9.2265 22.002,11.8665 C21.9975,17.3115 17.5425,21.7515 12.0675,21.7515 M20.52,3.45 C18.24,1.245 15.24,0 12.045,0 C5.463,0 0.105,5.334 0.1005,11.892 C0.1005,13.9875 0.6495,16.032 1.695,17.838 L0,24 L6.3345,22.347 C8.0805,23.292 10.0455,23.793 12.045,23.7945 L12.051,23.7945 C18.636,23.7945 23.997,18.459 24,11.8995 C24,8.724 22.7595,5.7345 20.505,3.4875" id="Shape"></path>
                    </g>
                </g>
            </g>
        </g>
    </g>
</svg>
