<svg xmlns="http://www.w3.org/2000/svg" width="30" height="30" viewBox="0 0 30 30">
    <title>
        icon-withdraw
    </title>
    <g >
        <path d="M27.92 17.34l-2.36-10a1.77 1.77 0 0 0-.74-1.12 1.64 1.64 0 0 0-1.31-.18l-.85.2-.84.2a1.63 1.63 0 0 0-1.08.76 1.55 1.55 0 0 0-.14.29L19.46 11l-.11.34a.61.61 0 0 1-.12.21.31.31 0 0 1-.16.11l-1.69.72h-.06a2.22 2.22 0 0 0-1.19.94 1.74 1.74 0 0 0 .07 1.47l.4 1 .19.46.47-.25 1.41-.6 1.21-.52.74-.31.7-.3a1.27 1.27 0 0 0 .52-.27l.06-.07 1.38 5.06v9.44a1.59 1.59 0 0 0 .44 1.17 1.51 1.51 0 0 0 1.14.45h1.57a1.54 1.54 0 0 0 1.14-.45 1.63 1.63 0 0 0 .43-1.22V17.17c0-.36 0 .39-.08.17zM27 28.38a.63.63 0 0 1-.15.47.52.52 0 0 1-.42.15h-1.57a.56.56 0 0 1-.43-.15.68.68 0 0 1-.15-.47v-9.6l-1.8-6.58-.41-1.73-.55 1.69-.09.26-.14.44-.06.2a.66.66 0 0 1-.12.22.49.49 0 0 1-.15.1l-.68.29-.79.33-1.21.51-1 .41-.21-.49a.82.82 0 0 1-.07-.63 1.33 1.33 0 0 1 .68-.47h.07l1.68-.72a1.32 1.32 0 0 0 .57-.39.87.87 0 0 0 .13-.22h.06l.11-.35 1.25-3.82a.41.41 0 0 1 0-.09.64.64 0 0 1 .45-.31l.85-.2.89-.23a.64.64 0 0 1 .54.06.74.74 0 0 1 .3.5l2.37 9a2.58 2.58 0 0 1 0 .53v11.29zm-13-2v-2.89c0-5.36-.06-7.1-.16-7.31-.25-.53-4.15-8.24-4.3-8.4A2.43 2.43 0 0 0 7.64 7h-3.1a2.46 2.46 0 0 0-1.87.75A2.78 2.78 0 0 0 2 9.69v18.88a1.42 1.42 0 0 0 .39 1 1.36 1.36 0 0 0 1 .4h9.18a1.36 1.36 0 0 0 1-.4 1.42 1.42 0 0 0 .39-1V28c.04-.53.04-1.07.04-1.65zm-1 2.22a.46.46 0 0 1-.1.33.39.39 0 0 1-.31.1H3.41a.4.4 0 0 1-.31-.1.48.48 0 0 1-.1-.36V9.69a1.77 1.77 0 0 1 .41-1.26A1.43 1.43 0 0 1 4.54 8h3.1a1.4 1.4 0 0 1 1.12.43s4 7.84 4.13 8.14c0 0 0 3.54.07 6.9V28.57zM22.81 2.39A6.36 6.36 0 0 0 22 .4l-.1-.13h-.15a4.3 4.3 0 0 0-2.34 0 5 5 0 0 0-2.21 1.01l-.13.12v.17a6.23 6.23 0 0 0 .13 2.16 6.32 6.32 0 0 0 .85 2l.09.11h.13a3.94 3.94 0 0 0 2.37 0 4.58 4.58 0 0 0 2.16-1.01l.11-.12v-.15a6.29 6.29 0 0 0-.1-2.17zm-2.43 2.53a3.16 3.16 0 0 1-1.65.08 5.72 5.72 0 0 1-.59-1.49A6.31 6.31 0 0 1 18 1.92a4 4 0 0 1 1.6-.71 3.5 3.5 0 0 1 1.65-.07 5.87 5.87 0 0 1 .59 1.49 5.69 5.69 0 0 1 .16 1.6 4 4 0 0 1-1.62.69z"/>
        <path d="M9.43 20.27l-1.52-.55a2.16 2.16 0 0 1-.59-.28.14.14 0 0 1 0-.14.21.21 0 0 1 .11-.18A1 1 0 0 1 8 19a6.66 6.66 0 0 1 2.31.58l.28.12.24-.2a2.48 2.48 0 0 0 .85-1.91v-.35l-.3-.13a9 9 0 0 0-2.19-.66v-1.22l-.39-.09a4.16 4.16 0 0 0-.88-.07 4 4 0 0 0-.86.07l-.37.1v1.27a3.26 3.26 0 0 0-1.69.94 2.83 2.83 0 0 0-.79 2c0 1.31.82 2.28 2.37 2.85l1.55.55a.81.81 0 0 1 .68.59.26.26 0 0 1-.14.24 1.37 1.37 0 0 1-.7.16 6 6 0 0 1-2.65-.81l-.26-.14-.24.16a2.07 2.07 0 0 0-.69.83 2.57 2.57 0 0 0-.31 1v.28l.23.15a6.34 6.34 0 0 0 2.52.94v1.22l.43.15a4.51 4.51 0 0 0 .82.06 5.26 5.26 0 0 0 .86-.06l.42-.06v-1.2a3.74 3.74 0 0 0 1.9-.89 2.79 2.79 0 0 0 .93-2.13c-.01-1.42-.93-2.46-2.5-3.07zm.88 4.46a2.92 2.92 0 0 1-1.77.7h-.45v1.19h-.5v-1.16l-.44-.06a5.74 5.74 0 0 1-2.25-.69 3.06 3.06 0 0 1 .1-.34 2.77 2.77 0 0 1 .2-.27 6.48 6.48 0 0 0 2.8.77 2.29 2.29 0 0 0 1.23-.31 1.26 1.26 0 0 0 .61-1.09 1.7 1.7 0 0 0-1.33-1.53L7 21.39c-1.23-.39-1.76-1.06-1.76-1.91a1.91 1.91 0 0 1 .51-1.35 2.57 2.57 0 0 1 1.48-.73l.42-.07v-1.25h.5v1.27h.45a7 7 0 0 1 2 .51 1.35 1.35 0 0 1-.28.62A6.7 6.7 0 0 0 8 18a2 2 0 0 0-1.15.33 1.18 1.18 0 0 0-.53 1 1.14 1.14 0 0 0 .42.93 3.19 3.19 0 0 0 .87.43l1.52.55c1.25.47 1.83 1.16 1.83 2.13a1.77 1.77 0 0 1-.65 1.36z"/>
    </g>
</svg>
