<svg width="125" height="37" viewBox="0 0 125 37" xmlns="http://www.w3.org/2000/svg">
    <title>
        SumUp Logo
    </title>
    <path d="M2.84 0h30.757c1.569 0 2.84 1.272 2.84 2.84v30.815c0 1.57-1.271 2.841-2.84 2.841H2.84C1.27 36.496 0 35.224 0 33.656V2.84C0 1.27 1.272 0 2.84 0zm19.664 15.786l-11.3 11.318c-.195.21-.19.537.013.74.017.018.035.033.054.048 3.347 2.914 8.425 2.777 11.61-.413 3.2-3.206 3.322-8.33.364-11.681-.205-.204-.532-.208-.741-.012zm-8.57 4.924l11.3-11.317c.194-.21.19-.538-.014-.742-.017-.016-.035-.032-.053-.046-3.348-2.915-8.425-2.777-11.61.412-3.201 3.207-3.323 8.33-.365 11.682l.001-.001c.204.204.532.208.74.012zm34.388 1.139c.39 0 .792.22 1.128.61.632.777 1.59.895 2.1.895 1.673 0 2.548-.952 2.548-1.89 0-1.283-1.322-1.801-2.854-2.398-1.911-.751-4.294-1.681-4.294-4.591 0-2.827 2.404-4.308 4.781-4.308 1.725 0 3.544.95 4.425 2.315.149.222.227.496.227.792 0 .775-.675 1.429-1.473 1.429-.42 0-.803-.228-1.134-.672-.499-.698-1.206-1.066-2.045-1.066-1.338 0-1.937.759-1.937 1.51 0 .939.976 1.37 2.568 1.999 2.04.807 4.58 1.808 4.58 4.99 0 3.047-2.776 4.692-5.391 4.692-1.527 0-3.537-.697-4.424-2.035-.184-.266-.279-.55-.279-.848 0-.744.703-1.424 1.474-1.424zm62.344-11.682c2.805 0 4.944 2.126 4.944 4.92v5.86c0 2.79-2.14 5.204-4.944 5.204h-.081c-.804 0-1.7-.225-2.237-.701v7.295c0 .775-.633 1.405-1.412 1.405-.78 0-1.413-.63-1.413-1.405V21.596c-.017-.166 0-.336 0-.505v-5.864c0-2.792 2.256-5.06 5.062-5.06h.08zm2.194 10.924v-5.864c0-1.205-.983-2.18-2.194-2.18h-.081c-1.212 0-2.196.975-2.196 2.18v5.864c0 1.53.984 2.181 2.196 2.181h.08c1.212 0 2.195-.652 2.195-2.181zm-10.169-9.581h.008v9.686c0 2.733-2.248 4.96-5.007 4.96h-.08c-2.762 0-5.008-2.227-5.008-4.96V11.51h.011c.036-.749.653-1.343 1.416-1.343.763 0 1.382.594 1.417 1.343h.002v.035c0 .008.004.02.004.03 0 .01-.004.02-.004.03v9.591c0 1.181.966 2.138 2.161 2.138h.081c1.19 0 2.159-.957 2.159-2.138V11.51h.008c.036-.749.65-1.343 1.416-1.343.764 0 1.38.594 1.416 1.343zm-33.313 0h.006v9.686c0 2.733-2.245 4.96-5.008 4.96h-.078c-2.76 0-5.008-2.227-5.008-4.96V11.51h.011c.035-.749.653-1.343 1.418-1.343.76 0 1.38.594 1.416 1.343h.004v9.686c0 1.181.967 2.138 2.159 2.138h.078c1.194 0 2.162-.957 2.162-2.138V11.51h.007c.036-.749.654-1.343 1.416-1.343.764 0 1.382.594 1.417 1.343zm15.243-1.343c2.73 0 4.952 2.222 4.952 4.955v9.682h-.012c-.035.747-.645 1.343-1.4 1.343-.756 0-1.366-.596-1.4-1.343h-.004v-.035l-.003-.03c0-.012.003-.02.003-.03v-9.587c0-1.181-.955-2.14-2.136-2.14h-.078c-1.15 0-2.086.913-2.13 2.054 0 .03.003.061.003.094v9.68h-.01c-.035.75-.645 1.346-1.4 1.346-.475 0-.892-.237-1.146-.597-.153-.213-.249-.474-.261-.755h-.007v-9.682c0-.029.004-.055.004-.084-.049-1.139-.983-2.047-2.132-2.047h-.078c-1.18 0-2.135.957-2.135 2.14v9.68h-.008c-.034.748-.645 1.345-1.4 1.345-.755 0-1.366-.597-1.4-1.345h-.007v-9.68c0-2.734 2.221-4.955 4.95-4.955h.078c1.386 0 2.637.572 3.536 1.492.9-.924 2.154-1.501 3.543-1.501h.078zm37.562 0c1.554 0 2.817 1.268 2.817 2.821 0 1.558-1.263 2.822-2.817 2.822-1.554 0-2.817-1.264-2.817-2.822 0-1.553 1.263-2.821 2.817-2.821zm0 4.96c1.177 0 2.134-.961 2.134-2.139 0-1.176-.957-2.13-2.134-2.13-1.175 0-2.134.954-2.134 2.13 0 1.178.96 2.138 2.134 2.138zm-.939-3.257c0-.187.141-.292.29-.292h.701c.517 0 .855.317.855.797 0 .378-.232.651-.596.72l.507.547c.078.086.121.155.121.252 0 .084-.074.27-.298.27-.15 0-.202-.054-.275-.143l-.714-.905h-.008v.737c0 .206-.123.311-.292.311-.167 0-.291-.105-.291-.311V11.87zm.583.814h.382c.191 0 .3-.127.3-.287 0-.176-.135-.279-.3-.279h-.382v.566z" fill-rule="evenodd"/>
</svg>
