<svg id="Layer_1" xmlns="http://www.w3.org/2000/svg" width="125" height="25" viewBox="0 0 429 84"><path fill="#333" id="logotype-characters" d="M328.514 28.754c8.295 0 14.537 4.567 14.537 14.51v19.881h-8.294l.244-4.809c-2.467 3.607-5.75 5.53-10.842 5.53-6.817 0-12.406-3.125-12.406-10.661 0-6.979 5.752-10.02 13.556-10.102h9.448c0-5.373-2.465-7.617-6.899-7.617-3.57 0-5.947 1.205-7.725 2.737l-5.992-3.376-.084-.083c.053-.06.104-.123.156-.178 3.023-3.429 7.11-5.832 14.301-5.832zm6.243 22.603v-2.645h-8.872c-3.615 0-5.998 1.284-5.998 4.253 0 2.884 2.301 4.405 6.572 4.405 4.848.001 8.298-2.325 8.298-6.013zm87.602 1.429L429 56.529c-3.266 4.436-8.587 7.337-14.611 7.337-9.935 0-17.985-7.862-17.985-17.558 0-9.694 8.05-17.555 17.985-17.555 6.016 0 11.32 2.889 14.59 7.309l-6.642 3.745a10.47 10.47 0 0 0-7.948-3.625c-5.72 0-10.374 4.542-10.374 10.125 0 5.582 4.654 10.127 10.374 10.127a10.453 10.453 0 0 0 7.97-3.648zm-291.403 0l6.641 3.743c-3.266 4.436-8.587 7.337-14.611 7.337-9.935 0-17.986-7.862-17.986-17.558 0-9.694 8.05-17.555 17.986-17.555 6.015 0 11.32 2.889 14.59 7.309l-6.642 3.745a10.47 10.47 0 0 0-7.948-3.625c-5.72 0-10.374 4.542-10.374 10.125 0 5.582 4.654 10.127 10.374 10.127a10.451 10.451 0 0 0 7.97-3.648zm121.446-23.31h8.296l-.164 5.772c2.302-4.248 5.833-6.494 10.27-6.494 5.009 0 8.298 2.322 10.104 6.412 2.71-4.007 6.817-6.412 11.827-6.412 8.131 0 12.976 5.292 12.976 13.867v20.523h-8.293v-19.72c0-4.651-1.728-7.216-6.491-7.216-4.842 0-7.721 2.887-7.721 8.5v18.437h-8.293V43.424c0-4.651-1.646-7.216-6.41-7.216-4.93 0-7.804 2.887-7.804 8.5v18.437h-8.296V29.476zM143.595 10h8.294v25.407c2.22-4.167 6.328-6.653 11.506-6.653 7.634 0 12.894 5.292 12.894 14.432v19.959h-8.3V43.826c0-4.811-2.297-7.618-7.147-7.618-5.42 0-8.953 3.208-8.953 8.66v18.276h-8.294V10zm84.235 18.754c9.939 0 17.988 7.86 17.988 17.555s-8.049 17.558-17.988 17.558c-9.932 0-17.986-7.862-17.986-17.558 0-9.695 8.054-17.555 17.986-17.555zm0 7.43c-5.717 0-10.373 4.541-10.373 10.125 0 5.582 4.656 10.127 10.373 10.127 5.727 0 10.381-4.545 10.381-10.127 0-5.584-4.654-10.126-10.381-10.125zm-43.295-6.708h8.3l-.085 6.331c2.305-5.29 6.245-6.974 10.024-6.974 1.768 0 3.16.29 4.345.78.467.19 1.443.648 2.393 1.342 0 0-1.15 1.396-2.161 3.094-1.016 1.7-1.702 3.522-1.702 3.522-1.314-.64-2.63-1.124-4.517-1.124-4.929 0-8.297 2.806-8.297 10.344v16.354h-8.3V29.476zm196.257 33.719V29.476h8.392v33.719h-8.392zm-1.315-46.804c0-3.05 2.549-5.3 5.51-5.3 2.963 0 5.514 2.25 5.514 5.3 0 3.21-2.551 5.378-5.514 5.378-2.962 0-5.51-2.167-5.51-5.378zm-24.734 35.406V36.3h-5.183v-6.824h5.183V10h8.309v19.477h9.214V36.3h-9.214v15.655c0 3.855 1.317 4.98 3.455 4.98 1.976 0 3.209-.885 4.113-1.607l3.95 5.459c-1.73 1.607-4.444 3.213-8.887 3.213-6.497 0-10.941-3.212-10.94-12.203z"></path><circle fill="#FC521F" cx="42" cy="42" r="42"></circle><path fill="#FFF" d="M51.87 61.316l-6.674-3.852 20.078-11.581c.77-.444 1.495-.954 2.17-1.522 2.61 3.716 2.866 8.609.54 12.639a11.846 11.846 0 0 1-10.23 5.895c-2.057 0-4.09-.545-5.884-1.58v.001zm-1.608 2.782c.77.445 1.574.819 2.405 1.12C50.75 69.332 46.638 72 41.98 72c-6.502 0-11.795-5.287-11.795-11.785V37.051l10.187 5.879v14.535c0 .574.307 1.104.804 1.391l9.086 5.242zm-24.025-1.205a11.84 11.84 0 0 1-10.225-5.891 11.699 11.699 0 0 1-1.176-8.943 11.706 11.706 0 0 1 5.495-7.158l6.672-3.85.001 23.16c0 .889.076 1.77.231 2.643-.332.026-.666.039-.998.039zM52.2 34.268l-10.184 5.875-12.6-7.267a1.612 1.612 0 0 0-1.607 0l-9.086 5.241c-.77.443-1.496.95-2.172 1.521-2.608-3.715-2.863-8.609-.539-12.639a11.845 11.845 0 0 1 10.229-5.896c2.055 0 4.09.548 5.884 1.582L52.2 34.268zM41.98 12c6.505 0 11.795 5.287 11.795 11.788v7.7l-20.072-11.58a14.966 14.966 0 0 0-2.408-1.122C33.211 14.669 37.325 12 41.98 12zm26.003 15.003c3.25 5.629 1.314 12.851-4.319 16.101l-20.075 11.58V42.932l12.599-7.269c.498-.287.805-.817.805-1.391V23.788c0-.885-.08-1.767-.232-2.636a11.842 11.842 0 0 1 11.222 5.851z"></path></svg>
