<svg xmlns="http://www.w3.org/2000/svg" fill="none" viewBox="0 0 174 152">
    <path fill="#138849" d="M83.165 51.602 24.251 87.535c-9.911-16.268-4.778-37.512 11.49-47.423 16.289-9.931 37.513-4.778 47.424 11.49"/>
    <path fill="#E6E6E6" d="M135.801 127.259h-84.64c-7.937 0-14.393-6.436-14.393-14.393V63.745c0-7.937 6.436-14.393 14.393-14.393h84.64c7.937 0 14.393 6.436 14.393 14.393v49.121c0 7.957-6.456 14.393-14.393 14.393"/>
    <path fill="#333" d="M150.194 69.628H36.768v-5.883c0-7.937 6.436-14.393 14.393-14.393h84.64c7.937 0 14.393 6.436 14.393 14.393z"/>
    <path fill="#fff" d="M119.295 63.646h7.542a.608.608 0 0 0 .593-.593v-7.542a.608.608 0 0 0-.593-.592h-7.542a.607.607 0 0 0-.592.593v7.541c0 .77 1.185.77 1.185 0v-7.542l-.593.593h7.542l-.592-.593v7.542l.592-.592h-7.542c-.75 0-.77 1.185 0 1.185m20.318-8.569-2.567 2.567-4.047 4.047-.928.928c-.533.533.296 1.382.829.83l2.567-2.567 4.047-4.048.928-.928c.533-.533-.296-1.362-.829-.829"/>
    <path fill="#fff" d="m132.05 55.927 2.566 2.566 4.048 4.048.927.928c.534.533 1.383-.297.83-.83l-2.567-2.566-4.047-4.048-.928-.928c-.533-.552-1.363.277-.829.83m-17.75 6.534h-7.088c-.77 0-.77 1.185 0 1.185h7.088c.751 0 .751-1.185 0-1.185"/>
    <path fill="#D29D72" d="m45.542 89.55.158-1.146c.592-15.775-24.877-16.031-31.175-13.939C4.061 77.94-1.96 96.914 3.35 103.231c3.614 4.305 18.618 11.175 27.207 12.893 1.382.276 2.784.592 4.205.553 1.422-.04 2.883-.454 3.93-1.402.77-.711 1.4-1.718 1.776-2.705.71 0 1.283-.118 1.757-.217 2.172-.533 3.988-2.271 4.423-4.462.098-.454.098-.908.118-1.481 1.047-.217 2.587-.612 3.416-1.303 1.026-.869 1.52-1.757 1.777-3.692l7.936 1.046c2.705.474 5.074.909 5.292.968 1.5.414 3.178-.119 4.106-1.54.908-1.382.77-3.258-.335-4.482a3.496 3.496 0 0 0-1.678-1.066 109.317 109.317 0 0 0-4.68-1.461z"/>
    <path fill="#D29D72" d="m45.542 89.55.158-1.146c.592-15.775-24.877-16.031-31.175-13.939C4.061 77.94-1.96 96.914 3.35 103.231c3.614 4.305 18.618 11.175 27.207 12.893 1.382.276 2.784.592 4.205.553 1.422-.04 2.883-.454 3.93-1.402.77-.711 1.4-1.718 1.776-2.705.71 0 1.283-.118 1.757-.217 2.172-.533 3.988-2.271 4.423-4.462.098-.454.098-.908.118-1.481 1.047-.217 2.587-.612 3.416-1.303 1.026-.869 1.52-1.757 1.777-3.692l7.936 1.046c2.705.474 5.074.909 5.292.968 1.5.414 3.178-.119 4.106-1.54.908-1.382.77-3.258-.335-4.482a3.496 3.496 0 0 0-1.678-1.066 109.317 109.317 0 0 0-4.68-1.461z"/>
    <path fill="#8E5A36" d="M38.651 105.541a.462.462 0 0 1 .553-.177c2.212.77 6.476 1.5 8.707.888.257-.079.514.079.593.336a.494.494 0 0 1-.336.592c-2.527.691-7.029-.138-9.28-.908-.256-.079-.375-.356-.296-.612l.06-.119Zm-4.304 6.358a.515.515 0 0 1 .514-.198c2.685.691 5.587.988 6.732.869.257-.039.494.158.533.415.04.256-.158.493-.414.533-1.244.138-4.225-.158-7.068-.889a.47.47 0 0 1-.336-.592c-.02-.039 0-.099.04-.138Zm6.437-12.123a.453.453 0 0 1 .474-.197l12.477 2.191c.257.04.435.297.395.553a.487.487 0 0 1-.552.395L41.1 100.507a.488.488 0 0 1-.395-.553c.02-.06.04-.138.079-.178M34.11 85.72c.12-.159.317-.257.514-.198l15.32 4.264a.494.494 0 0 1 .337.593.494.494 0 0 1-.593.335l-15.32-4.264a.494.494 0 0 1-.336-.593c.04-.059.059-.098.079-.138Z"/>
    <path fill="#333" d="M151.339 33.695c.335-.928.691-1.875 1.026-2.803.553-1.5 1.086-2.982 1.639-4.482.119-.336.257-.691.375-1.027.217-.592-.237-1.322-.829-1.46-.671-.159-1.224.197-1.461.829-.336.928-.691 1.875-1.027 2.803-.552 1.5-1.085 2.981-1.638 4.482-.119.336-.257.69-.375 1.026-.218.593.237 1.323.829 1.462.671.138 1.224-.218 1.461-.83m13.07 15.913c1.816-.178 3.652-.355 5.469-.533.256-.02.513-.06.77-.079.316-.04.592-.118.829-.355.197-.198.355-.533.355-.83-.019-.592-.533-1.243-1.184-1.184-1.817.178-3.653.355-5.469.533-.257.02-.513.06-.77.079-.316.04-.592.118-.829.355a1.27 1.27 0 0 0-.356.83c.02.592.514 1.263 1.185 1.184M35.86 141.178c-.336.928-.691 1.876-1.027 2.804-.552 1.5-1.086 2.981-1.638 4.481-.119.336-.257.691-.376 1.027-.217.592.237 1.323.83 1.461.671.158 1.224-.197 1.46-.829.336-.928.692-1.876 1.027-2.804.553-1.5 1.086-2.981 1.64-4.481.117-.336.256-.691.374-1.027.217-.592-.237-1.323-.829-1.461-.671-.158-1.224.197-1.461.829m-13.07-15.933-5.47.533c-.256.02-.512.059-.77.079-.315.04-.591.119-.828.356a1.271 1.271 0 0 0-.356.829c.02.592.533 1.244 1.185 1.184l5.469-.533c.256-.019.513-.059.77-.079.316-.039.592-.118.829-.355.197-.198.355-.533.355-.829-.02-.593-.533-1.244-1.184-1.185"/>
    <path stroke="#333" stroke-linecap="round" stroke-width="3" d="M96 86h-3c-6.627 0-12 5.373-12 12 0 3.554 1.545 6.747 4 8.944"/>
    <path stroke="#333" stroke-linecap="round" stroke-width="2.8" d="m91 80 5.646 5.646a.5.5 0 0 1 0 .708L91 92"/>
    <path stroke="#333" stroke-linecap="round" stroke-width="3" d="M90 109.944h3c6.627 0 12-5.372 12-12A11.97 11.97 0 0 0 101 89"/>
    <path stroke="#333" stroke-linecap="round" stroke-width="2.8" d="m95 115.944-5.646-5.646a.5.5 0 0 1 0-.707L95 103.944"/>
    <path fill="#D29D72" d="M32.557 39.012a9.428 9.428 0 0 0 5.127-12.308 9.428 9.428 0 0 0-12.309-5.127 9.428 9.428 0 1 0 7.182 17.435"/>
    <path fill="#542C0E" d="m23.726 26.659 12.143-2.774a9.414 9.414 0 0 0-10.167-2.432 2.573 2.573 0 0 0-3.272-1.968 2.571 2.571 0 0 0-1.17.75 11.608 11.608 0 0 0-11.3 20.239l10.918-17.388c.216.434.55.797.964 1.049a9.504 9.504 0 0 0-1.87 3.38 9.389 9.389 0 0 0 1.366 8.31 7.293 7.293 0 0 0 2.394-9.168z"/>
    <path fill="#fff" d="M36.163 32.354a4.931 4.931 0 0 1-9.859-.23z"/>
</svg>
