<svg xmlns="http://www.w3.org/2000/svg" width="1800" height="1200" fill="none" viewBox="0 0 1800 1200">
    <path fill="#6D4725" d="M1259.38 449.716c-17.68 17.346-17.98 45.772-.63 63.453 11.12 11.347 26.78 15.497 41.24 12.443 1.57-.321 3.08-.722 4.56-1.251 6.45-2.009 12.48-5.552 17.64-10.602 17.69-17.347 17.97-45.735.61-63.441a44.69 44.69 0 0 0-17.43-10.992 37.985 37.985 0 0 0-4.55-1.295c-14.39-3.314-30.09.565-41.44 11.685"/>
    <path fill="#000" d="M1265.42 432.446a118.87 118.87 0 0 0 14.58 12.022c14.87 10.426 31.26 17.009 48.04 19.962-9.05 14.435-10.24 31.773-4.48 46.727a48.998 48.998 0 0 0 6.79-7.785c15.6-22.253 10.22-52.96-12.05-68.575-16.18-11.343-36.81-11.589-52.88-2.351"/>
    <path fill="#fff" d="M1293.96 495.169c-4.62 10.442-16.86 15.17-27.3 10.547-10.45-4.622-15.17-16.861-10.55-27.303z"/>
    <path fill="#8D6235" d="m1010.65 287.055-.03-5.926c.28-8.138 4.25-12.761 11.06-14.028 2.04-.367 4.15-.208 6.12.384 5.72 1.716 9.39 7.284 9.77 13.223 1.64-2.363 4.04-4.311 7.24-5.323 4.85-1.506 10.28-.198 13.86 3.406 2.97 3.001 4.17 6.772 4.02 10.419v3.922c0-1.813 5.91-4.01 7.3-4.366 2.81-.68 5.86-.529 8.43.881 10.99 5.993 10.27 26.187 10.66 42.564.51 22.512 1.72 45.048.82 67.587-.72 18.085-1.04 41.979-13.69 55.703-16.42 17.871-47.15 21.762-70.81 15.268-22.244-6.115-36.672-24.849-47.35-44.247-1.466-2.659-2.874-5.335-4.101-8.11-9.301-19.675-13.727-29.767-20.764-50.389-2.271-6.652-4.646-15.028-.189-21.233 2.799-3.899 7.761-5.953 12.666-6.151 12.511-.53 18.61 16.938 22.87 25.917 4.381 9.191 5.728 14.315 9.283 12.831l-13.803-78.34c-1.425-7.545 3.152-14.944 10.551-17.018 7.944-2.241 16.188 2.443 18.314 10.42l19.013 70.899z"/>
    <path fill="#422611" d="M1073.67 365.943c.74-.345 1.24-1.115 1.16-1.968-.09-1.072-1.05-1.877-2.15-1.789l-75.437 6.975c-1.072.093-1.877 1.048-1.789 2.146.093 1.072 1.048 1.876 2.146 1.789l75.44-6.975c.25-.034.45-.103.63-.178"/>
    <path fill="#422611" d="M1042.01 366.138c.69-.28 1.14-.967 1.13-1.742l-1.73-83.21c-.02-1.033-.89-1.87-1.96-1.842-1.06.003-1.91.845-1.87 1.883l1.73 83.21c.01 1.033.89 1.87 1.96 1.842.26.024.51-.056.74-.141m25.28.147c.59-.239.98-.826.97-1.489l-1.55-71.027c-.01-.884-.77-1.6-1.68-1.577-.92.002-1.65.721-1.61 1.609l1.55 71.028c.01.883.77 1.6 1.68 1.577.23-.001.44-.048.64-.121m-39.75 63.44a1.943 1.943 0 0 0 1.13-2.108c-1.42-8.842-4.99-21.692-14.07-32.889-9.2-11.327-21.634-17.975-36.994-19.801a1.944 1.944 0 0 0-2.167 1.722 1.944 1.944 0 0 0 1.722 2.168c14.306 1.678 25.889 7.864 34.399 18.359 6.65 8.192 11.36 19.23 13.24 31.026a1.97 1.97 0 0 0 2.26 1.621.75.75 0 0 0 .48-.098"/>
    <path fill="#6D4725" d="m1136.24 281.668-.25-6.041c-.69-8.263-4.93-12.754-11.92-13.697-2.1-.29-4.24-.029-6.2.673-5.75 2.013-9.19 7.86-9.29 13.928-1.79-2.337-4.31-4.193-7.63-5.043-5.01-1.315-10.46.289-13.94 4.142-2.86 3.188-3.92 7.075-3.57 10.804l.17 3.994c-.08-1.846-6.18-3.813-7.62-4.085-2.89-.545-5.98-.246-8.51 1.301-10.87 6.639-9.18 27.119-8.75 43.809.57 22.926.43 45.906 2.45 68.751 1.6 18.332 3.09 42.604 16.63 55.979 17.57 17.349 48.99 19.837 72.73 12.059 22.31-7.317 36.07-27.049 45.98-47.288 1.35-2.759 2.67-5.571 3.76-8.422 8.52-20.458 12.52-30.931 18.64-52.228 1.97-6.877 4.01-15.514-.83-21.582-3.03-3.806-8.2-5.661-13.19-5.639-12.76.086-18.09 18.108-22.01 27.452-4.02 9.565-5.14 14.809-8.81 13.507l10.21-80.313c1.07-7.744-3.94-15.033-11.54-16.772-8.19-1.88-16.32 3.277-18.13 11.501l-15.85 72.957z"/>
    <path fill="#000" d="M1107.13 362.622c.28.905 1.11 1.536 2.07 1.503 1.17-.042 2.08-1.084 2.05-2.309l-2.4-84.403c-.03-1.225-1.02-2.177-2.19-2.135-1.17.042-2.08 1.084-2.05 2.309l2.4 84.403c.01.217.04.435.12.632m-25.05 1.486c.25.789.96 1.339 1.8 1.31 1.01-.037 1.8-.946 1.77-2.014l-2.04-73.424c-.03-1.068-.89-1.898-1.9-1.86-1.01.037-1.81.946-1.78 2.014l2.05 73.424c.01.167.03.357.1.55"/>
    <path fill="#94602B" d="M705.103 1150.79h87.7V741.612h-61.717z"/>
    <path fill="#000" d="M641.418 1183.96v15.01h151.391v-48.18h-60.857c-10.12 0-18.13-8.58-17.407-18.68.41-6.02-4.338-11.11-10.355-11.11h-12.308c-6.017 0-10.765 5.09-10.355 11.09v.02c.938 13.72-6.662 26.53-19.067 32.41-11.527 5.45-21.042 12.17-21.042 19.44"/>
    <path fill="#94602B" d="M921.367 1150.79h-87.681V741.612h61.717z"/>
    <path fill="#000" d="m887.001 473.633-147.182 34.43c-4.141-44.978 18.749-85.305 55.635-93.933 14.8-3.462 29.842-1.343 43.632 5.202 20.496 9.652 38.185 29.09 47.915 54.301"/>
    <path fill="#000" d="M795.444 414.156c11.452-2.679 18.564-14.134 15.885-25.586-2.679-11.452-14.134-18.564-25.586-15.885-11.452 2.679-18.564 14.134-15.885 25.586 2.679 11.452 14.134 18.564 25.586 15.885"/>
    <path fill="#94602B" d="M847.68 456.136c5.193 22.201-8.608 44.43-30.808 49.623-14.248 3.333-28.458-1.148-38.204-10.646a41.024 41.024 0 0 1-11.399-20.166 40.425 40.425 0 0 1-1.007-7.048c-1.17-19.67 11.959-37.91 31.8-42.551a41.02 41.02 0 0 1 23.13 1.27c10.715 3.774 19.68 11.91 24.283 22.751a40.085 40.085 0 0 1 2.205 6.767"/>
    <path fill="#000" d="m845.463 439.004-79.213 18.53c-1.17-19.67 11.959-37.91 31.8-42.551a41.02 41.02 0 0 1 23.13 1.271c10.715 3.773 19.68 11.909 24.283 22.75"/>
    <path fill="#3063E9" d="M987.099 677.716h-354.28c14.575-84.575 88.326-148.929 177.101-148.929 35.635 0 68.808 10.394 96.805 28.348 41.652 26.609 71.621 70 80.374 120.581"/>
    <mask id="illustration-referrals_svg__a" width="355" height="150" x="632" y="528" maskUnits="userSpaceOnUse" style="mask-type:alpha">
        <path fill="#3063E9" d="M986.922 677.851H632.643c14.574-84.574 88.326-148.929 177.101-148.929 35.635 0 68.808 10.394 96.804 28.348 41.653 26.609 71.622 70.001 80.374 120.581"/>
    </mask>
    <g mask="url(#illustration-referrals_svg__a)">
        <path fill="#000" stroke="#000" stroke-width=".309" d="M838.966 580.134c5.361-7.112 13.278-10.872 22.891-10.872 9.612 0 17.529 3.76 22.891 10.872 4.939 6.553 7.551 15.589 7.551 26.128v29.521c0 9.215-7.497 16.712-16.712 16.712h-.218v-3.198h.218c7.451 0 13.515-6.063 13.515-13.514v-29.521c0-9.713-2.302-17.982-6.654-23.914-4.747-6.467-11.866-9.886-20.589-9.886-8.723 0-15.842 3.419-20.59 9.886-4.354 5.932-6.653 14.201-6.653 23.914v29.521c0 7.451 6.063 13.514 13.514 13.514h.219v3.198h-.219c-9.215 0-16.712-7.497-16.712-16.712v-29.521c-.002-10.539 2.608-19.575 7.548-26.128Z"/>
        <path fill="#D8EDFF" stroke="#D8EDFF" stroke-width=".309" d="M834.611 606.046v29.739c0 7.451 6.063 13.514 13.514 13.514h.219v3.198h-.219c-9.215 0-16.712-7.497-16.712-16.712v-29.739zm54.491 29.736v-29.739h3.197v29.739c0 9.215-7.497 16.712-16.712 16.712h-.218v-3.198h.218c7.451 0 13.515-6.063 13.515-13.514Z"/>
        <path fill="#000" stroke="#000" stroke-width=".463" d="M754.32 648.289h4.185v-76.216c0-16.742 5.362-32.482 15.098-44.32 9.736-11.838 22.682-18.358 36.452-18.358 13.769 0 26.715 6.52 36.452 18.358 9.736 11.838 15.098 27.578 15.098 44.32h4.185c0-18.1-5.797-35.119-16.324-47.918-10.527-12.8-24.522-19.848-39.411-19.848-14.887 0-28.884 7.048-39.411 19.848-10.527 12.799-16.324 29.818-16.324 47.918z"/>
        <path fill="#000" d="M870.652 658.503a6.465 6.465 0 1 1-.002-12.93 6.465 6.465 0 0 1 .002 12.93m-17.59 0a6.464 6.464 0 0 1-6.465-6.465 6.464 6.464 0 0 1 6.465-6.465 6.464 6.464 0 0 1 6.465 6.465 6.464 6.464 0 0 1-6.465 6.465"/>
        <path fill="#D8EDFF" d="M755.313 657.727c-6.709 0-12.148-5.439-12.148-12.148s5.439-12.148 12.148-12.148 12.148 5.439 12.148 12.148-5.439 12.148-12.148 12.148"/>
        <path fill="#000" d="M755.318 652.017a6.465 6.465 0 0 1 0-12.93 6.465 6.465 0 1 1 0 12.93"/>
    </g>
    <path fill="#D8EDFF" d="M812.783 1089.08H659.791l25.691-411.365h127.301z"/>
    <path fill="#D8EDFF" d="M965.769 1089.08H812.776V677.715h127.321z"/>
    <path fill="#000" d="M985.076 1183.96v15.01h-151.39v-48.18h60.857c10.12 0 18.13-8.58 17.407-18.68-.41-6.02 4.337-11.11 10.355-11.11h12.308c6.017 0 10.765 5.09 10.354 11.09v.02c-.937 13.72 6.662 26.53 19.068 32.41 11.527 5.45 21.041 12.17 21.041 19.44"/>
    <path stroke="#8CBCFF" stroke-miterlimit="10" stroke-width="1.39" d="M812.776 1089.07V741.612"/>
    <path fill="#939393" d="M792.809 1190.52H641.418v8.42h151.391zm192.267 0h-151.39v8.42h151.39z"/>
    <path fill="#fff" d="M841.649 457.768c2.542 11.957-5.102 23.764-17.059 26.306-11.957 2.543-23.764-5.102-26.306-17.059z"/>
    <path fill="#939393" d="m1406.93 1148.71-133.51-471.777 162.86-10.452 134.98 483.239z"/>
    <path fill="#000" d="M1346.16 1183.19v16.07h241.02l-16.29-51.65h-127.63c-10.87 0-19.44-9.2-18.68-20.03.43-6.44-4.67-11.91-11.12-11.91h-13.2c-6.45 0-11.55 5.47-11.12 11.89v.02c1.02 14.7-7.15 28.45-20.45 34.76-12.33 5.86-22.53 13.05-22.53 20.85"/>
    <path fill="#ED7000" d="M1584.39 1190.24h-238.74v9.02h241.52z"/>
    <path fill="#939393" d="M1144.78 1149.26h159.66l-42.49-215.807 112.53-164.382-147.84-103.701-104.44 186.088c-12.15 23.971-14.28 53.57-10.3 80.179z"/>
    <path fill="#000" d="M1090.83 1183.19v16.07h222.75l-9.37-51.65H1187.9c-10.86 0-19.43-9.2-18.67-20.03.43-6.44-4.67-11.91-11.12-11.91h-13.21c-6.44 0-11.54 5.47-11.11 11.89v.02c1.01 14.7-7.15 28.45-20.46 34.76-12.31 5.86-22.5 13.05-22.5 20.85"/>
    <path fill="#ED7000" d="M1311.92 1190.24h-221.6v9.02h223.28z"/>
    <path fill="#000" d="m1466.19 670.658-310.57 77.17c-21.32-85.766 30.92-172.568 116.69-193.882 85.77-21.295 172.57 30.946 193.88 116.712"/>
    <path fill="#47995A" d="m1290.32 633.639 3.84 16.252c4.9 20.776 25.76 33.157 46.23 27.106 18.55-5.479 29.78-24.567 25.29-43.618l-3.92-16.602z"/>
    <path stroke="#000" stroke-linecap="round" stroke-miterlimit="10" stroke-width="1.39" d="m1312.86 819.822-20.36-74.631"/>
    <path fill="#fff" d="m1422.21 777.135-57.17-2.813c-3.63-.176-6.44-3.282-6.27-6.916l2.82-57.165c.17-3.633 3.28-6.447 6.91-6.271l57.17 2.813c3.63.176 6.44 3.283 6.27 6.917l-2.82 57.164c-.17 3.634-3.28 6.447-6.91 6.271"/>
    <path fill="#000" d="m1417.87 741.994-45.05-2.208a2.058 2.058 0 0 1-1.96-2.168l.71-14.34a2.056 2.056 0 0 1 2.17-1.954l45.05 2.208a2.057 2.057 0 0 1 1.95 2.168l-.7 14.34a2.075 2.075 0 0 1-2.17 1.954"/>
    <path fill="#939393" d="M1430.94 766.284c-61.7-5.353-74.43-41.008-74.43-41.008l-27.88 42.727 85.92 55.387 48.43-23.718z"/>
    <path stroke="#000" stroke-linecap="round" stroke-miterlimit="10" stroke-width="1.39" d="M1435.53 765.448c-67.3 0-78.69-40.5-78.69-40.5"/>
    <path fill="#ED7000" d="m728.657 656.339-286.818 56.266c-8.733-44.564 3.79-88.365 30.496-120.913a146.097 146.097 0 0 1 34.405-30.517c14.965-9.534 31.923-16.469 50.385-20.103 17.524-3.438 34.893-3.575 51.538-.879 17.407 2.813 33.994 8.772 49.017 17.349 35.577 20.298 62.459 55.406 70.977 98.797"/>
    <path fill="#000" d="m782.001 1032.35-35.068 41.24-8.518 7.62-49.096 47.1-41.828-18.56-11.527-111.395 25.945-36.69 18.13-25.633-89.4-87.505-15.376 173.703-11.702 132.24H440.167l-14.711-132.24-8.851-79.536a263.918 263.918 0 0 1 20.983-136.053l54.214-122.398.547-112.786a146.445 146.445 0 0 1 39.621-23.327l23.385 88.912 62.323-.019 18.325-89.85a145.715 145.715 0 0 1 44.759 26.453l-7.053 110.636 128.044 191.206c33.447 49.897 20.396 109.602-19.752 156.882"/>
    <path fill="#E5C39E" d="m575.262 1022.24-11.702 132.25H440.166l-14.711-132.25zm171.666 51.37-8.518 7.61-49.096 47.11-33.798-11.94-19.576-118.001 25.945-36.69z"/>
    <path fill="#939393" d="M388.796 1185v14.5h175.128v-46.54h-98.622c-8.557 0-15.317-8.28-14.711-18.05.332-5.81-3.673-10.73-8.752-10.73h-10.413c-5.08 0-9.105 4.92-8.753 10.73v.02c.801 13.24-5.626 25.63-16.118 31.31-9.709 5.26-17.759 11.75-17.759 18.76m266.86 3.73-14.008 3.75-50.365-181.86 44.954-12.02 30.614 107.96c2.208 8.26 11.956 12.64 21.236 9.55 5.529-1.83 11.312.79 12.621 5.69l2.696 10.06c1.309 4.9-2.403 10.06-8.088 11.23h-.02c-12.992 2.66-23.307 12.06-26.081 23.66-2.579 10.73-6.779 20.16-13.559 21.98"/>
    <path fill="#E5C39E" d="M567.546 517.911c21.813 5 43.549-8.629 48.549-30.441 5-21.813-8.63-43.548-30.442-48.548-21.812-5-43.548 8.629-48.548 30.441-5 21.813 8.629 43.548 30.441 48.548"/>
    <path fill="#DBAA53" d="m552.938 464.557 51.119-15.862c-10.276-9.471-25.168-13.406-39.478-8.95a39.056 39.056 0 0 0-4.878 1.869c-.036-.109-.067-.236-.102-.344-1.811-5.827-7.998-9.089-13.825-7.278a10.977 10.977 0 0 0-5.512 3.847c-23.432-9.44-50.682.228-62.712 23.066-12.824 24.38-3.464 54.546 20.916 67.37l41.091-78.09a10.97 10.97 0 0 0 4.475 4.172 41.137 41.137 0 0 0-6.912 15.112c-1.962 8.65-1.194 18.066 3.179 26.966a39.358 39.358 0 0 0 5.379 8.188c9.614-7.838 14.01-20.981 10.114-33.54a30.416 30.416 0 0 0-2.854-6.526"/>
    <path fill="#fff" d="M608.778 477.957c3.437 11.189-2.865 23.033-14.055 26.47-11.189 3.437-23.033-2.865-26.47-14.054zm38.318 193.6 57.164-2.814c3.634-.176 6.448-3.282 6.272-6.916l-2.814-57.164c-.175-3.634-3.282-6.447-6.916-6.272l-57.164 2.814c-3.634.176-6.447 3.282-6.271 6.916l2.813 57.164c.176 3.654 3.282 6.447 6.916 6.272"/>
    <path fill="#000" d="m651.444 636.417 45.052-2.207a2.058 2.058 0 0 0 1.953-2.169l-.703-14.34a2.06 2.06 0 0 0-2.169-1.954l-45.051 2.208a2.06 2.06 0 0 0-1.954 2.169l.703 14.34c.079 1.133 1.036 2.012 2.169 1.953"/>
    <path fill="#E5C39E" d="M727.224 654.784c-9.222-8.636-19.85-13.129-32.529-13.657-20.924-.84-43.176.919-63.983 3.205-7.131.468-16 2.305-17.681 9.24-1.269 5.256 2.911 10.589 7.952 12.543 3.81 1.465 11.898 1.876 17.954 1.719-2.774 3.575-3.907 8.46-2.696 12.855 1.172 4.24 4.474 7.717 8.499 9.437-1.876 2.207-3.087 5.118-3.165 7.912-.118 3.907 1.621 7.971 4.552 10.569.488.43 5.001 3.068 5.118 2.872-1.973 3.556-2.11 8.694.137 12.094 2.227 3.399 6.975 5.138 11.019 4.747l6.486.215 17.29.449a28.64 28.64 0 0 1 12.601 3.282l13.461 7.053c11.038 5.197 22.506 12.933 34.326 9.944 46.38-11.702-.781-77.072-19.341-94.479"/>
    <path fill="#E5C39E" d="M727.224 654.785c-9.222-8.635-19.85-13.129-32.529-13.656-20.924-.84-43.176.918-63.983 3.204-7.131.469-16 2.305-17.681 9.241-1.269 5.255 2.911 10.589 7.952 12.542 3.81 1.466 11.898 1.876 17.954 1.72-2.774 3.575-3.907 8.459-2.696 12.855 1.172 4.239 4.474 7.717 8.499 9.436-1.876 2.208-3.087 5.119-3.165 7.912-.118 3.908 1.621 7.971 4.552 10.57.488.43 5.001 3.067 5.118 2.872-1.973 3.555-2.11 8.694.137 12.093 2.227 3.399 6.975 5.138 11.019 4.747l6.486.215 17.29.45a28.627 28.627 0 0 1 12.601 3.282l13.461 7.053c11.038 5.196 22.506 12.933 34.326 9.944 46.38-11.703-.781-77.073-19.341-94.48"/>
    <path fill="#E5C39E" d="M727.232 654.768c-9.222-8.636-19.85-13.129-32.529-13.657-20.924-.84-35.909.215-56.715 2.501-7.131.469-16.001 2.305-17.681 9.241-1.27 5.255 2.911 10.589 7.951 12.543 3.81 1.465 4.65 2.578 10.687 2.422-2.774 3.575-3.907 8.46-2.696 12.855 1.172 4.24 4.474 7.717 8.498 9.437-1.875 2.207-3.086 5.118-3.164 7.912-.118 3.907 1.621 7.971 4.552 10.569.488.43 5.001 3.068 5.118 2.872-1.973 3.556-2.11 8.694.137 12.094 2.227 3.399 6.975 5.138 11.019 4.747l6.486.215 17.29.449a28.64 28.64 0 0 1 12.601 3.282l13.461 7.053c11.038 5.197 22.506 12.933 34.326 9.944 46.38-11.702-.781-77.072-19.341-94.479"/>
    <path stroke="#8D6235" stroke-linecap="round" stroke-miterlimit="10" stroke-width=".821" d="m682.325 664.891-44.291 3.168m38.561 20.682-31.982 1.547m30.409 20.431-23.839 1.777"/>
    <path stroke="#3063E9" stroke-linecap="round" stroke-width="4.5" d="M1068.39 213.981V150m49.92 78.557 45.59-45.588"/>
    <path fill="#fff" d="m846.417 751.574 53.257 20.962c3.384 1.336 7.227-.338 8.562-3.722l20.962-53.257c1.335-3.384-.338-7.226-3.722-8.561l-53.257-20.963c-3.384-1.335-7.226.338-8.562 3.723l-20.962 53.256c-1.343 3.402.338 7.227 3.722 8.562"/>
    <path fill="#000" d="m864.845 721.322 41.968 16.529a2.059 2.059 0 0 0 2.673-1.172l5.261-13.359a2.059 2.059 0 0 0-1.172-2.673l-41.968-16.529a2.059 2.059 0 0 0-2.673 1.172l-5.261 13.359c-.395 1.065.115 2.26 1.172 2.673"/>
    <path fill="#D8EDFF" d="m830.618 728.864 21.183-30.693s13.402 22.912 27.235 36.746c13.834 13.834 42.367 16.427 42.367 16.427l-6.917 35.882-35.45-7.349-33.719-12.105z"/>
    <path stroke="#3063E9" stroke-linecap="round" stroke-width="4.5" d="m972.876 183.092 45.584 45.588"/>
    <path stroke="#8CBCFF" stroke-linecap="round" stroke-miterlimit="10" stroke-width="1.39" d="M853.966 695.565s11.048 52.3 70.034 56.2"/>
    <rect width="78.97" height="31.259" x="770.352" y="516.88" fill="#3063E9" rx="3.829"/>
    <path fill="#000" d="M388.802 1193.06h176.037v6.581H388.802zM597.51 1008.8l50.117 182.653-6.346 1.741-50.117-182.653z"/>
    <path fill="#6D4725" d="M1431.48 824.233c-1.68 4.043-2.72 8.248-3.22 12.522-.81 6.926.75 15.333 3.22 23.544 3.72 12.231 9.86 23.609 17.65 33.734l2.39 3.122c-3.74 3.538-3.61 9.596-1.92 14.461 2.04 5.929 6.29 11.349 12.18 13.534 6.25 2.3 12.62.057 16.56-5.034 0 0 10.15 11.318 19.64-3.471 0 0 12.27 4.57 15.3-11.155 2.36.496 23.15 5.217 20.67-20.366-.08-.926-.21-1.917-.36-2.933-7.94-22.415-16.99-47.927-17.47-49.553-.87-2.951-2.12-5.789-3.61-8.482-7.01-12.741-20.15-22.86-34.52-25.551-18.67-3.548-39.28 8.313-46.51 25.628"/>
    <mask id="illustration-referrals_svg__b" width="107" height="130" x="1428" y="797" maskUnits="userSpaceOnUse" style="mask-type:alpha">
        <path fill="#6D4725" d="M1431.48 824.233c-1.69 4.042-2.73 8.247-3.23 12.522-.8 6.925.75 15.333 3.23 23.544 3.71 12.23 9.85 23.608 17.64 33.733l2.4 3.122c-3.74 3.539-3.62 9.597-1.93 14.461 2.05 5.93 6.29 11.35 12.18 13.535 6.25 2.299 12.62.057 16.56-5.034 0 0 10.15 11.318 19.65-3.472 0 0 12.27 4.57 15.29-11.155 2.36.497 23.15 5.218 20.67-20.365-.08-.927-.21-1.917-.35-2.934-7.95-22.414-17-47.926-17.48-49.552-.86-2.951-2.12-5.789-3.61-8.483-7.01-12.741-20.14-22.859-34.52-25.55-18.66-3.548-39.28 8.313-46.5 25.628"/>
    </mask>
    <g fill="#000" mask="url(#illustration-referrals_svg__b)">
        <path d="M1490.65 879.208c-2.71.144-5.35 1.12-7.32 2.83-4.35 3.763-5.96 10.448-4.14 17.022 1.4 5.013 4.61 9.909 9.81 14.997 3.14 3.065 6.15 5.406 9.19 7.148.71.415 1.62.16 2.04-.553.41-.713.16-1.626-.55-2.041-2.83-1.622-5.63-3.81-8.58-6.689-4.82-4.705-7.77-9.172-9.03-13.669-1.52-5.375-.22-10.987 3.2-13.951 2.53-2.185 6.72-2.756 9.95-1.349a1.47 1.47 0 0 0 1.96-.783 1.477 1.477 0 0 0-.78-1.966c-1.79-.772-3.79-1.095-5.75-.996"/>
        <path d="M1474.6 888.955a10.583 10.583 0 0 0-6.61 2.816c-2.8 2.556-4.42 6.468-4.34 10.467.07 3.487 1.29 7.064 3.86 11.274 2.69 4.435 5.83 7.975 9.3 10.491.67.491 1.6.343 2.1-.326.49-.668.34-1.603-.33-2.094-3.15-2.29-6.02-5.541-8.52-9.638-2.29-3.746-3.38-6.853-3.42-9.781-.06-3.104 1.23-6.245 3.36-8.202 1.19-1.09 3.22-2.317 6.08-2.001 1.09.126 1.92.347 2.86.791.74.35 1.64.023 1.98-.734.35-.744.03-1.644-.73-1.984a11.299 11.299 0 0 0-3.79-1.036c-.58-.063-1.2-.082-1.8-.043"/>
        <path d="M1455.71 891.408c-3.15.18-6.02 1.602-8.08 4.02-.54.627-.47 1.576.17 2.11.63.543 1.58.466 2.11-.174 1.56-1.821 3.62-2.823 6-2.962 2.99-.155 6.05 1.115 8.65 3.566.61.564 1.56.545 2.12-.056.56-.601.55-1.554-.05-2.118-3.2-3.037-7.06-4.594-10.88-4.393-.02.01-.03-.003-.04.007m-6.12-53.092c-.11.008-.22.03-.33.051a1.475 1.475 0 0 0-1.01 1.855c2.79 9.631 8.85 18.111 17.06 23.848 7.9 5.512 17.46 8.312 27.07 7.906 2.42 7.88 5.76 15.83 10.19 24.254 1.57 2.982 3.51 6.313 6.8 8.109 2.39 1.3 5.36 1.504 8.16.594 2.8-.933 5.06-2.873 6.21-5.326 1.78-3.832 1.02-8.162.15-11.936-2.05-9.051-5.57-21.685-8.23-30.384a1.508 1.508 0 0 0-2.88.888c2.65 8.651 6.15 21.213 8.19 30.157.78 3.428 1.41 7.033.04 10.014-.8 1.708-2.41 3.081-4.43 3.741-2.02.66-4.14.531-5.79-.374-2.55-1.378-4.16-4.145-5.59-6.866-4.55-8.66-7.92-16.788-10.32-24.85-.21-.664-.82-1.113-1.53-1.063 0 0-.01.01-.02-.003a41.064 41.064 0 0 1-26.34-7.315c-7.66-5.366-13.31-13.25-15.91-22.23-.17-.671-.81-1.1-1.49-1.07"/>
    </g>
    <path stroke="#47995A" stroke-miterlimit="10" stroke-width="1.244" d="m1553.69 840.365-37.18 22.581m-23.23 11.619-16.04 7.714"/>
    <path fill="#3063E9" d="M1587.24 866.506c-.35-.183-.67-.35-1-.566l-38.34-21.152 22.76-23.65 31.69 14.139c9.15 4.083 12.95 15.036 8.3 23.91-4.49 8.523-14.99 11.739-23.41 7.319"/>
    <path fill="#3063E9" d="M1603.14 830.083c-.33.214-.63.407-.99.582l-30.45 16.645-16.15-25.53 28.1-20.376c8.11-5.895 19.49-3.687 24.86 4.774 5.14 8.12 2.67 18.824-5.37 23.905"/>
    <path fill="#3063E9" d="M1579.84 798.102c.02.397.02.745.02 1.139l-.82 34.699-30.84 10.855-2.95-44.153c-1.05-9.978 6.56-18.732 16.56-19.135 9.6-.383 17.64 7.095 18.03 16.595"/>
    <path stroke="#47995A" stroke-miterlimit="10" stroke-width="1.244" d="m1550.38 877.426-29 2.008"/>
    <path fill="#ED7000" d="M1564.05 907.308c-.17-.254-.32-.47-.48-.734l-18.73-28.177 24.03-8.088 16.68 20.994c4.82 6.062 3.5 14.929-2.84 19.354-6.12 4.224-14.47 2.69-18.66-3.349"/>
    <path fill="#ED7000" d="M1587.94 888.008c-.31.031-.58.054-.89.05l-26.81.545-1.96-23.268 26.52-3.945c7.68-1.15 14.69 4.424 15.34 12.137.63 7.397-4.88 13.867-12.2 14.481"/>
    <path fill="#ED7000" d="M1583.18 857.67c-.14.273-.26.525-.4.784l-12.94 23.492-25.02-3.564 13.73-31.312c2.85-7.211 11.18-10.494 18.19-7.217 6.71 3.171 9.55 11.161 6.44 17.817"/>
    <path fill="#000" d="M394.499 752.853c2.89 12.489 15.36 20.273 27.85 17.383l-5.234-22.616-5.233-22.616c-12.488 2.894-20.273 15.36-17.383 27.849m98.113 446.767h-45.379v-19.54h25.834c10.793 0 19.545 8.75 19.545 19.54"/>
    <path fill="#000" d="m396.993 1057.1 50.232 142.52h29.58l-33.255-182.05z"/>
    <path fill="#A57955" d="M482.042 1199.62h-45.378v-19.54h25.834c10.793 0 19.544 8.75 19.544 19.54"/>
    <path fill="#A57955" d="m386.435 1057.1 50.232 142.52h29.58l-33.255-182.05z"/>
    <path fill="#000" d="M164 1167.24h77.069v32.38H196.38c-17.876 0-32.38-14.49-32.38-32.38"/>
    <path fill="#000" d="M196.384 1199.62c17.882 0 32.379-14.5 32.379-32.38 0-17.89-14.497-32.38-32.379-32.38-17.883 0-32.38 14.49-32.38 32.38 0 17.88 14.497 32.38 32.38 32.38"/>
    <path fill="#A57955" d="M392.148 1199.62h-62.46v-27.89h35.075c15.122 0 27.385 12.26 27.385 27.38z"/>
    <path fill="#A57955" d="M522.95 773.302h-40.571c-8.039-17.467-25.694-29.603-46.183-29.603-28.074 0-50.828 23.034-50.828 50.828 0 52.414-27.152 97.629-105.691 181.058-99.753 105.955-74.235 224.035-74.235 224.035h140.569v-50.27c0-17.4 12.24-38.91 27.164-47.85 79.135-47.39 97.151-90.2 97.151-171.154 0-73.942-6.138-115.096 23.056-115.096 21.12 0 34.644-17.538 34.597-36.977.012-2.754-2.275-4.971-5.029-4.971"/>
    <path fill="#47995A" d="m377.428 826.299 96.077 16.056-3.162 16.627-95.972-16.137z"/>
    <mask id="illustration-referrals_svg__c" width="327" height="457" x="202" y="743" maskUnits="userSpaceOnUse" style="mask-type:alpha">
        <path fill="#6D4725" d="M522.984 773.187h-40.571c-8.039-17.467-25.693-29.603-46.183-29.603-28.074 0-50.827 23.034-50.827 50.828 0 52.414-27.153 97.629-105.692 181.058-99.753 105.96-74.234 224.03-74.234 224.03h140.568v-50.27c0-17.39 12.24-38.91 27.164-47.85 79.135-47.38 97.151-90.19 97.151-171.149 0-73.942-6.138-115.096 23.057-115.096 21.119 0 34.643-17.538 34.596-36.977.012-2.754-2.275-4.971-5.029-4.971"/>
    </mask>
    <g mask="url(#illustration-referrals_svg__c)">
        <path fill="#000" d="M524.839 783.867a6.755 6.755 0 0 0 6.755-6.756 6.755 6.755 0 0 0-6.755-6.756 6.756 6.756 0 1 0 0 13.512"/>
    </g>
    <path fill="#000" d="M416.788 750.066c2.89 12.489 15.36 20.273 27.849 17.383l-5.233-22.616-5.233-22.616c-12.489 2.894-20.273 15.36-17.383 27.849"/>
    <mask id="illustration-referrals_svg__d" width="96" height="113" x="340" y="797" maskUnits="userSpaceOnUse" style="mask-type:alpha">
        <path fill="#D29D72" d="m401.502 896.782.842 3.192c.986 4.416-.507 7.453-4.004 9.085-1.051.486-2.192.69-3.34.655-3.332-.115-6.058-2.608-7.098-5.75a7.607 7.607 0 0 1-3.158 3.869c-2.399 1.497-5.511 1.542-7.934.095-2.009-1.196-3.186-3.053-3.601-5.055l-.553-2.105c.265.975-2.613 2.989-3.311 3.361-1.41.755-3.088 1.097-4.645.699-6.744-1.69-9.172-12.651-11.666-21.414-3.418-12.042-7.216-23.998-9.871-36.241-2.14-9.817-5.293-22.72-.405-31.875 6.344-11.9 22.33-18.294 35.958-18.091 12.829.194 23.191 8.257 31.635 17.201 1.154 1.226 2.293 2.466 3.332 3.786 7.747 9.287 11.538 14.097 18.181 24.205 2.143 3.26 4.594 7.44 3.059 11.386-.958 2.479-3.353 4.284-5.955 5.074-6.661 2.026-12.371-6.513-15.914-10.74-3.638-4.328-5.073-6.894-6.78-5.601l18.354 40.212c1.816 3.866.387 8.475-3.307 10.619-3.965 2.303-9.052.93-11.313-3.048l-20.096-35.458z"/>
    </mask>
    <g mask="url(#illustration-referrals_svg__d)">
        <path fill="#E5C39E" d="m401.502 896.784.842 3.192c.987 4.416-.507 7.453-4.003 9.085-1.052.486-2.193.69-3.341.655-3.331-.115-6.058-2.608-7.097-5.75a7.607 7.607 0 0 1-3.158 3.869c-2.4 1.497-5.512 1.542-7.934.095-2.01-1.196-3.186-3.053-3.602-5.055l-.552-2.105c.264.975-2.613 2.99-3.311 3.361-1.41.756-3.088 1.097-4.645.699-6.745-1.69-9.172-12.651-11.667-21.414-3.417-12.042-7.216-23.997-9.87-36.241-2.14-9.817-5.294-22.72-.406-31.875 6.345-11.9 22.331-18.294 35.958-18.09 12.829.193 23.191 8.256 31.635 17.2 1.154 1.226 2.293 2.466 3.332 3.787 7.747 9.287 11.538 14.096 18.181 24.204 2.143 3.26 4.595 7.44 3.059 11.386-.958 2.48-3.352 4.284-5.955 5.074-6.661 2.026-12.371-6.513-15.913-10.74-3.638-4.328-5.073-6.894-6.78-5.6l18.353 40.211c1.817 3.866.388 8.475-3.307 10.619-3.965 2.303-9.052.93-11.313-3.048l-20.095-35.458z"/>
        <path fill="#8E5A36" d="M373.001 859.435a1.275 1.275 0 0 1 2.503-.303l12.858 46.757a1.276 1.276 0 0 1-2.458.682l-12.859-46.757a1.75 1.75 0 0 1-.044-.379m-13.544 3.465a1.275 1.275 0 0 1 2.503-.302l12.82 46.643a1.276 1.276 0 0 1-2.459.682l-12.819-46.657a1.143 1.143 0 0 1-.045-.366"/>
    </g>
    <path fill="#8D6235" d="M486.756 537.356c16.214 10.125 45.94 27.709 61.076 39.389 2.971 2.29 5.964 4.721 7.29 8.411.447 1.248.629 2.597.438 3.912-.509 3.385-2.913 5.316-5.865 6.239-3.165.992-6.599.599-9.584-.844l-15.694-7.601"/>
    <path fill="#8D6235" d="M498.786 546.916c29.69 28.903 39.845 59.45 30.504 99.827-1.175 5.064-3.275 10.735-8.165 12.487-4.972 1.784-10.237-1.792-12.603-6.641-1.666 1.715-3.747 2.956-6.126 3.287-4.635.644-8.813-2.333-11.218-6.453-3.449 3.774-10.121 4.276-14.539 1.343-3.392-2.252-5.486-5.914-6.47-9.902-3.269 2.819-6.814 4.525-10.526 2.494-5.967-3.261-2.583-11.388-2.379-18.182.506-16.716-.755-23.097-9.062-37.656-7.031-12.316-14.465-20.995-8.355-35.194 4.135-9.613 13.11-14.988 23.139-18.004 14.912-4.493 24.642 1.726 35.8 12.594"/>
    <mask id="illustration-referrals_svg__e" width="153" height="166" x="408" y="518" maskUnits="userSpaceOnUse" style="mask-type:alpha">
        <path fill="#8D6235" d="M486.735 537.356c16.214 10.124 45.941 27.709 61.076 39.389 2.972 2.289 5.964 4.721 7.291 8.411.446 1.248.629 2.597.437 3.912-.508 3.385-2.913 5.315-5.864 6.239-3.165.992-6.599.598-9.584-.845l-15.694-7.6"/>
        <path fill="#8D6235" d="M498.768 546.92c29.69 28.903 39.845 59.449 30.504 99.826-1.175 5.064-3.275 10.735-8.165 12.487-4.972 1.785-10.237-1.792-12.603-6.641-1.667 1.715-3.747 2.957-6.126 3.287-4.635.644-8.813-2.333-11.218-6.453-3.449 3.774-10.121 4.276-14.539 1.343-3.392-2.252-5.486-5.914-6.47-9.902-3.269 2.819-6.814 4.525-10.526 2.494-5.967-3.26-2.583-11.387-2.379-18.182.506-16.716-.755-23.096-9.062-37.656-7.031-12.316-14.466-20.995-8.355-35.193 4.135-9.614 13.11-14.989 23.139-18.004 14.912-4.494 24.642 1.726 35.8 12.594"/>
    </mask>
    <g fill="#422611" mask="url(#illustration-referrals_svg__e)">
        <path d="M468.336 643.624a1.3 1.3 0 0 0 2.381.743c7.524-11.352 9.405-26.384 4.908-39.236a1.295 1.295 0 0 0-1.658-.793 1.295 1.295 0 0 0-.794 1.658c4.234 12.104 2.459 26.26-4.626 36.941a1.309 1.309 0 0 0-.211.687m20.751 8.791a1.304 1.304 0 0 0 2.422.695c8.463-14.16 9.777-32.419 3.431-47.646a1.304 1.304 0 0 0-1.702-.703 1.305 1.305 0 0 0-.703 1.702c6.039 14.477 4.787 31.837-3.258 45.31a1.193 1.193 0 0 0-.19.642m17.461 2.907a1.298 1.298 0 0 0 2.381.743 59.096 59.096 0 0 0 9.548-26.592 59.046 59.046 0 0 0-3.946-27.972 1.3 1.3 0 1 0-2.412.973 56.41 56.41 0 0 1 3.77 26.744 56.412 56.412 0 0 1-9.123 25.412 1.403 1.403 0 0 0-.218.692"/>
    </g>
</svg>
