<svg width="900" height="180" viewBox="0 0 900 180" fill="none" xmlns="http://www.w3.org/2000/svg">
<g clip-path="url(#clip0)">
<mask id="mask0" mask-type="alpha" maskUnits="userSpaceOnUse" x="0" y="0" width="100" height="177">
<path fill-rule="evenodd" clip-rule="evenodd" d="M1.17132 92.1708C0.405486 93.4153 0 94.8479 0 96.3091C0 100.67 3.53521 104.205 7.89613 104.205H27.2416C31.9252 104.205 35.5889 108.242 35.1357 112.904L29.7822 167.968C29.334 172.578 32.9571 176.57 37.5888 176.57C40.3124 176.57 42.8411 175.157 44.2686 172.838L98.692 84.3992C99.4579 83.1548 99.8633 81.7222 99.8633 80.2609C99.8633 75.9 96.3281 72.3648 91.9672 72.3648H72.6218C67.9382 72.3648 64.2746 68.3277 64.7278 63.666L70.0811 8.60229C70.5293 3.99234 66.9063 0 62.2747 0C59.551 0 57.0223 1.41301 55.5948 3.73266L1.17132 92.1708Z" fill="#EEF0F2"/>
</mask>
<g mask="url(#mask0)">
<path fill-rule="evenodd" clip-rule="evenodd" d="M0.865601 92.6676C0.29965 93.5873 0 94.646 0 95.7258V98.3701C0 101.593 2.6125 104.205 5.83518 104.205H29.5513C32.9972 104.205 35.6926 107.175 35.3591 110.605L29.5681 170.17C29.2347 173.6 31.9301 176.57 35.3759 176.57H38.7109C40.7372 176.57 42.6184 175.519 43.6804 173.793L98.9978 83.9024C99.5638 82.9828 99.8633 81.9241 99.8633 80.8442V78.2C99.8633 74.9773 97.2509 72.3648 94.0282 72.3648H70.312C66.8662 72.3648 64.1708 69.3946 64.5042 65.965L70.2953 6.39983C70.6287 2.97018 67.9333 0 64.4874 0H61.1524C59.1262 0 57.2449 1.05124 56.1829 2.77698L0.865601 92.6676Z" fill="#1641AC"/>
<g filter="url(#filter0_d)">
<path d="M97.1158 302.692C169.854 302.692 228.82 243.726 228.82 170.988C228.82 98.2494 169.854 39.2833 97.1158 39.2833C24.3774 39.2833 -34.5887 98.2494 -34.5887 170.988C-34.5887 243.726 24.3774 302.692 97.1158 302.692Z" fill="#2567D8"/>
</g>
<g filter="url(#filter1_d)">
<path d="M105.653 338.668C178.391 338.668 237.357 279.702 237.357 206.963C237.357 134.225 178.391 75.2589 105.653 75.2589C32.9142 75.2589 -26.0519 134.225 -26.0519 206.963C-26.0519 279.702 32.9142 338.668 105.653 338.668Z" fill="#3388FF"/>
</g>
</g>
<path d="M248.79 101.89C248.357 106.83 247.187 111.423 245.28 115.67C243.46 119.83 240.903 123.47 237.61 126.59C234.403 129.623 230.417 132.007 225.65 133.74C220.97 135.473 215.51 136.34 209.27 136.34C202.25 136.34 196.053 135.17 190.68 132.83C185.393 130.49 180.93 127.197 177.29 122.95C173.737 118.703 171.05 113.59 169.23 107.61C167.41 101.543 166.5 94.87 166.5 87.59C166.5 80.05 167.497 73.29 169.49 67.31C171.483 61.33 174.343 56.2167 178.07 51.97C181.797 47.7233 186.303 44.4733 191.59 42.22C196.877 39.9667 202.857 38.84 209.53 38.84C215.423 38.84 220.537 39.5767 224.87 41.05C229.29 42.5233 232.973 44.6467 235.92 47.42C238.953 50.1933 241.38 53.53 243.2 57.43C245.02 61.33 246.363 65.7067 247.23 70.56L227.99 73.03C227.037 67.57 225.173 63.28 222.4 60.16C219.713 57.04 215.423 55.48 209.53 55.48C202.077 55.48 196.4 58.2967 192.5 63.93C188.687 69.4767 186.78 77.3633 186.78 87.59C186.78 97.9033 188.817 105.833 192.89 111.38C197.05 116.927 202.597 119.7 209.53 119.7C215.51 119.7 219.887 118.183 222.66 115.15C225.52 112.03 227.297 107.61 227.99 101.89H248.79ZM260.866 66.14H279.066V134H260.866V66.14ZM260.606 41.18H279.326V57.56H260.606V41.18ZM295.267 66.14H312.947V75.63C315.2 72.0767 317.93 69.4333 321.137 67.7C324.344 65.88 327.724 64.97 331.277 64.97C333.01 64.97 334.44 65.0567 335.567 65.23C336.694 65.3167 337.69 65.4467 338.557 65.62L336.347 82.13C334.267 81.61 331.71 81.35 328.677 81.35C326.684 81.35 324.777 81.61 322.957 82.13C321.137 82.5633 319.49 83.43 318.017 84.73C316.457 86.1167 315.287 87.6767 314.507 89.41C313.814 91.1433 313.467 92.92 313.467 94.74V134H295.267V66.14ZM407.399 109.43C406.706 117.577 403.889 124.077 398.949 128.93C394.096 133.697 386.772 136.08 376.979 136.08C371.259 136.08 366.319 135.213 362.159 133.48C357.999 131.747 354.576 129.32 351.889 126.2C349.289 123.08 347.339 119.31 346.039 114.89C344.739 110.47 344.089 105.573 344.089 100.2C344.089 94.8267 344.826 89.93 346.299 85.51C347.859 81.0033 350.069 77.19 352.929 74.07C355.789 70.8633 359.299 68.3933 363.459 66.66C367.619 64.9267 372.386 64.06 377.759 64.06C382.352 64.06 386.339 64.6667 389.719 65.88C393.186 67.0067 396.089 68.61 398.429 70.69C400.769 72.77 402.589 75.2833 403.889 78.23C405.189 81.09 406.056 84.2533 406.489 87.72L388.159 90.19C387.726 86.7233 386.729 83.95 385.169 81.87C383.609 79.7033 380.922 78.62 377.109 78.62C374.336 78.62 372.039 79.2267 370.219 80.44C368.399 81.5667 366.926 83.1267 365.799 85.12C364.759 87.1133 364.022 89.41 363.589 92.01C363.156 94.5233 362.939 97.1667 362.939 99.94C362.939 102.8 363.156 105.53 363.589 108.13C364.022 110.73 364.759 113.027 365.799 115.02C366.839 117.013 368.269 118.617 370.089 119.83C371.909 120.957 374.206 121.52 376.979 121.52C380.619 121.52 383.436 120.48 385.429 118.4C387.422 116.32 388.592 113.33 388.939 109.43H407.399ZM419.793 66.14H437.993V108.52C437.993 113.373 438.859 116.667 440.593 118.4C442.326 120.047 444.709 120.87 447.743 120.87C450.083 120.87 451.989 120.523 453.463 119.83C455.023 119.137 456.496 118.14 457.883 116.84C459.269 115.627 460.353 114.197 461.133 112.55C461.999 110.817 462.433 108.953 462.433 106.96V66.14H480.633V134H462.953V124.64C460.179 128.627 457.016 131.53 453.463 133.35C449.996 135.17 446.269 136.08 442.283 136.08C434.569 136.08 428.893 134.087 425.253 130.1C421.613 126.027 419.793 119.657 419.793 110.99V66.14ZM496.872 66.14H515.072V134H496.872V66.14ZM496.612 41.18H515.332V57.56H496.612V41.18ZM535.433 80.31H524.773V66.14H535.433V48.07H553.633V66.14H569.233V80.31H553.633V111.64C553.633 115.193 554.37 117.62 555.843 118.92C557.316 120.133 559.223 120.74 561.563 120.74C562.776 120.74 563.99 120.697 565.203 120.61C566.503 120.437 567.76 120.177 568.973 119.83L571.573 133.22C569.06 134 566.59 134.52 564.163 134.78C561.823 135.127 559.57 135.3 557.403 135.3C549.95 135.3 544.403 133.523 540.763 129.97C537.21 126.417 535.433 120.437 535.433 112.03V80.31ZM609.086 41.18H628.456V96.43C628.456 104.317 629.843 110.167 632.616 113.98C635.389 117.793 640.026 119.7 646.526 119.7C653.026 119.7 657.619 117.793 660.306 113.98C663.079 110.167 664.466 104.317 664.466 96.43V41.18H683.836V96.43C683.836 103.45 682.969 109.473 681.236 114.5C679.503 119.527 677.033 123.687 673.826 126.98C670.619 130.187 666.676 132.527 661.996 134C657.403 135.56 652.203 136.34 646.396 136.34C640.503 136.34 635.216 135.56 630.536 134C625.943 132.44 622.043 130.057 618.836 126.85C615.629 123.557 613.203 119.353 611.556 114.24C609.909 109.127 609.086 103.06 609.086 96.04V41.18ZM701.043 41.18H720.413V134H701.043V41.18Z" fill="black"/>
</g>
<defs>
<filter id="filter0_d" x="-55.4341" y="18.4379" width="305.1" height="305.1" filterUnits="userSpaceOnUse" color-interpolation-filters="sRGB">
<feFlood flood-opacity="0" result="BackgroundImageFix"/>
<feColorMatrix in="SourceAlpha" type="matrix" values="0 0 0 0 0 0 0 0 0 0 0 0 0 0 0 0 0 0 127 0"/>
<feOffset/>
<feGaussianBlur stdDeviation="10.4227"/>
<feColorMatrix type="matrix" values="0 0 0 0 0 0 0 0 0 0 0 0 0 0 0 0 0 0 0.2 0"/>
<feBlend mode="normal" in2="BackgroundImageFix" result="effect1_dropShadow"/>
<feBlend mode="normal" in="SourceGraphic" in2="effect1_dropShadow" result="shape"/>
</filter>
<filter id="filter1_d" x="-46.8973" y="54.4135" width="305.1" height="305.1" filterUnits="userSpaceOnUse" color-interpolation-filters="sRGB">
<feFlood flood-opacity="0" result="BackgroundImageFix"/>
<feColorMatrix in="SourceAlpha" type="matrix" values="0 0 0 0 0 0 0 0 0 0 0 0 0 0 0 0 0 0 127 0"/>
<feOffset/>
<feGaussianBlur stdDeviation="10.4227"/>
<feColorMatrix type="matrix" values="0 0 0 0 0 0 0 0 0 0 0 0 0 0 0 0 0 0 0.2 0"/>
<feBlend mode="normal" in2="BackgroundImageFix" result="effect1_dropShadow"/>
<feBlend mode="normal" in="SourceGraphic" in2="effect1_dropShadow" result="shape"/>
</filter>
<clipPath id="clip0">
<rect width="900" height="180" fill="white"/>
</clipPath>
</defs>
</svg>
