<svg width="900" height="180" viewBox="0 0 900 180" fill="none" xmlns="http://www.w3.org/2000/svg">
<g clip-path="url(#clip0)">
<rect x="14" width="886" height="180" rx="90" fill="white"/>
<g clip-path="url(#clip1)">
<path d="M87.7108 92.9463L87.7108 92.9463C86.8437 94.3554 86.3846 95.9774 86.3846 97.6318C86.3846 102.569 90.3872 106.572 95.3247 106.572H113.553C117.08 106.572 119.84 109.612 119.498 113.124L114.454 165.007C113.946 170.232 118.053 174.758 123.303 174.758C126.39 174.758 129.256 173.156 130.874 170.527L130.874 170.527L182.155 87.1959C182.155 87.1959 182.155 87.1959 182.155 87.1959C183.022 85.7868 183.481 84.1649 183.481 82.5104C183.481 77.5729 179.478 73.5703 174.541 73.5703H156.312C152.785 73.5703 150.026 70.5298 150.367 67.019L155.411 15.1353C155.92 9.90992 151.813 5.38461 146.563 5.38461C143.476 5.38461 140.609 6.98626 138.991 9.61553L138.991 9.61556L87.7108 92.9463Z" fill="#EEF0F2" stroke="white" stroke-width="3"/>
<mask id="mask0" mask-type="alpha" maskUnits="userSpaceOnUse" x="87" y="6" width="95" height="168">
<path fill-rule="evenodd" clip-rule="evenodd" d="M88.9883 93.7325C88.2667 94.9051 87.8846 96.255 87.8846 97.6318C87.8846 101.741 91.2157 105.072 95.3247 105.072H113.553C117.966 105.072 121.418 108.876 120.991 113.269L115.947 165.152C115.525 169.496 118.938 173.258 123.303 173.258C125.869 173.258 128.252 171.926 129.597 169.741L180.877 86.4097C181.599 85.2371 181.981 83.8873 181.981 82.5104C181.981 78.4013 178.65 75.0703 174.541 75.0703H156.312C151.899 75.0703 148.447 71.2663 148.874 66.8739L153.919 14.9901C154.341 10.6464 150.927 6.88461 146.563 6.88461C143.997 6.88461 141.614 8.21602 140.269 10.4017L88.9883 93.7325Z" fill="#EEF0F2"/>
</mask>
<g mask="url(#mask0)">
<path fill-rule="evenodd" clip-rule="evenodd" d="M88.7002 94.2005C88.167 95.0672 87.8846 96.0647 87.8846 97.0821V99.5738C87.8846 102.61 90.3462 105.072 93.3828 105.072H115.729C118.976 105.072 121.516 107.871 121.202 111.102L115.745 167.227C115.431 170.459 117.971 173.258 121.218 173.258H124.36C126.269 173.258 128.042 172.267 129.042 170.641L181.165 85.9416C181.699 85.0751 181.981 84.0775 181.981 83.06V80.5685C181.981 77.5319 179.519 75.0703 176.483 75.0703H154.136C150.889 75.0703 148.349 72.2716 148.664 69.0401L154.12 12.9149C154.434 9.68326 151.895 6.88461 148.648 6.88461H145.505C143.596 6.88461 141.824 7.87514 140.823 9.50122L88.7002 94.2005Z" fill="#1641AC"/>
<g filter="url(#filter0_d)">
<path d="M179.392 292.096C247.93 292.096 303.49 236.535 303.49 167.998C303.49 99.4601 247.93 43.8993 179.392 43.8993C110.854 43.8993 55.2935 99.4601 55.2935 167.998C55.2935 236.535 110.854 292.096 179.392 292.096Z" fill="#2567D8"/>
</g>
<g filter="url(#filter1_d)">
<path d="M187.436 325.994C255.973 325.994 311.534 270.433 311.534 201.896C311.534 133.358 255.973 77.7973 187.436 77.7973C118.898 77.7973 63.3372 133.358 63.3372 201.896C63.3372 270.433 118.898 325.994 187.436 325.994Z" fill="#3388FF"/>
</g>
</g>
</g>
<path d="M323.79 101.89C323.357 106.83 322.187 111.423 320.28 115.67C318.46 119.83 315.903 123.47 312.61 126.59C309.403 129.623 305.417 132.007 300.65 133.74C295.97 135.473 290.51 136.34 284.27 136.34C277.25 136.34 271.053 135.17 265.68 132.83C260.393 130.49 255.93 127.197 252.29 122.95C248.737 118.703 246.05 113.59 244.23 107.61C242.41 101.543 241.5 94.87 241.5 87.59C241.5 80.05 242.497 73.29 244.49 67.31C246.483 61.33 249.343 56.2167 253.07 51.97C256.797 47.7233 261.303 44.4733 266.59 42.22C271.877 39.9667 277.857 38.84 284.53 38.84C290.423 38.84 295.537 39.5767 299.87 41.05C304.29 42.5233 307.973 44.6467 310.92 47.42C313.953 50.1933 316.38 53.53 318.2 57.43C320.02 61.33 321.363 65.7067 322.23 70.56L302.99 73.03C302.037 67.57 300.173 63.28 297.4 60.16C294.713 57.04 290.423 55.48 284.53 55.48C277.077 55.48 271.4 58.2967 267.5 63.93C263.687 69.4767 261.78 77.3633 261.78 87.59C261.78 97.9033 263.817 105.833 267.89 111.38C272.05 116.927 277.597 119.7 284.53 119.7C290.51 119.7 294.887 118.183 297.66 115.15C300.52 112.03 302.297 107.61 302.99 101.89H323.79ZM335.866 66.14H354.066V134H335.866V66.14ZM335.606 41.18H354.326V57.56H335.606V41.18ZM370.267 66.14H387.947V75.63C390.2 72.0767 392.93 69.4333 396.137 67.7C399.344 65.88 402.724 64.97 406.277 64.97C408.01 64.97 409.44 65.0567 410.567 65.23C411.694 65.3167 412.69 65.4467 413.557 65.62L411.347 82.13C409.267 81.61 406.71 81.35 403.677 81.35C401.684 81.35 399.777 81.61 397.957 82.13C396.137 82.5633 394.49 83.43 393.017 84.73C391.457 86.1167 390.287 87.6767 389.507 89.41C388.814 91.1433 388.467 92.92 388.467 94.74V134H370.267V66.14ZM482.399 109.43C481.706 117.577 478.889 124.077 473.949 128.93C469.096 133.697 461.772 136.08 451.979 136.08C446.259 136.08 441.319 135.213 437.159 133.48C432.999 131.747 429.576 129.32 426.889 126.2C424.289 123.08 422.339 119.31 421.039 114.89C419.739 110.47 419.089 105.573 419.089 100.2C419.089 94.8267 419.826 89.93 421.299 85.51C422.859 81.0033 425.069 77.19 427.929 74.07C430.789 70.8633 434.299 68.3933 438.459 66.66C442.619 64.9267 447.386 64.06 452.759 64.06C457.352 64.06 461.339 64.6667 464.719 65.88C468.186 67.0067 471.089 68.61 473.429 70.69C475.769 72.77 477.589 75.2833 478.889 78.23C480.189 81.09 481.056 84.2533 481.489 87.72L463.159 90.19C462.726 86.7233 461.729 83.95 460.169 81.87C458.609 79.7033 455.922 78.62 452.109 78.62C449.336 78.62 447.039 79.2267 445.219 80.44C443.399 81.5667 441.926 83.1267 440.799 85.12C439.759 87.1133 439.022 89.41 438.589 92.01C438.156 94.5233 437.939 97.1667 437.939 99.94C437.939 102.8 438.156 105.53 438.589 108.13C439.022 110.73 439.759 113.027 440.799 115.02C441.839 117.013 443.269 118.617 445.089 119.83C446.909 120.957 449.206 121.52 451.979 121.52C455.619 121.52 458.436 120.48 460.429 118.4C462.422 116.32 463.592 113.33 463.939 109.43H482.399ZM494.793 66.14H512.993V108.52C512.993 113.373 513.859 116.667 515.593 118.4C517.326 120.047 519.709 120.87 522.743 120.87C525.083 120.87 526.989 120.523 528.463 119.83C530.023 119.137 531.496 118.14 532.883 116.84C534.269 115.627 535.353 114.197 536.133 112.55C536.999 110.817 537.433 108.953 537.433 106.96V66.14H555.633V134H537.953V124.64C535.179 128.627 532.016 131.53 528.463 133.35C524.996 135.17 521.269 136.08 517.283 136.08C509.569 136.08 503.893 134.087 500.253 130.1C496.613 126.027 494.793 119.657 494.793 110.99V66.14ZM571.872 66.14H590.072V134H571.872V66.14ZM571.612 41.18H590.332V57.56H571.612V41.18ZM610.433 80.31H599.773V66.14H610.433V48.07H628.633V66.14H644.233V80.31H628.633V111.64C628.633 115.193 629.37 117.62 630.843 118.92C632.316 120.133 634.223 120.74 636.563 120.74C637.776 120.74 638.99 120.697 640.203 120.61C641.503 120.437 642.76 120.177 643.973 119.83L646.573 133.22C644.06 134 641.59 134.52 639.163 134.78C636.823 135.127 634.57 135.3 632.403 135.3C624.95 135.3 619.403 133.523 615.763 129.97C612.21 126.417 610.433 120.437 610.433 112.03V80.31ZM684.086 41.18H703.456V96.43C703.456 104.317 704.843 110.167 707.616 113.98C710.389 117.793 715.026 119.7 721.526 119.7C728.026 119.7 732.619 117.793 735.306 113.98C738.079 110.167 739.466 104.317 739.466 96.43V41.18H758.836V96.43C758.836 103.45 757.969 109.473 756.236 114.5C754.503 119.527 752.033 123.687 748.826 126.98C745.619 130.187 741.676 132.527 736.996 134C732.403 135.56 727.203 136.34 721.396 136.34C715.503 136.34 710.216 135.56 705.536 134C700.943 132.44 697.043 130.057 693.836 126.85C690.629 123.557 688.203 119.353 686.556 114.24C684.909 109.127 684.086 103.06 684.086 96.04V41.18ZM776.043 41.18H795.413V134H776.043V41.18Z" fill="black"/>
</g>
<defs>
<filter id="filter0_d" x="34.4481" y="23.0539" width="289.888" height="289.888" filterUnits="userSpaceOnUse" color-interpolation-filters="sRGB">
<feFlood flood-opacity="0" result="BackgroundImageFix"/>
<feColorMatrix in="SourceAlpha" type="matrix" values="0 0 0 0 0 0 0 0 0 0 0 0 0 0 0 0 0 0 127 0"/>
<feOffset/>
<feGaussianBlur stdDeviation="10.4227"/>
<feColorMatrix type="matrix" values="0 0 0 0 0 0 0 0 0 0 0 0 0 0 0 0 0 0 0.2 0"/>
<feBlend mode="normal" in2="BackgroundImageFix" result="effect1_dropShadow"/>
<feBlend mode="normal" in="SourceGraphic" in2="effect1_dropShadow" result="shape"/>
</filter>
<filter id="filter1_d" x="42.4918" y="56.9519" width="289.888" height="289.888" filterUnits="userSpaceOnUse" color-interpolation-filters="sRGB">
<feFlood flood-opacity="0" result="BackgroundImageFix"/>
<feColorMatrix in="SourceAlpha" type="matrix" values="0 0 0 0 0 0 0 0 0 0 0 0 0 0 0 0 0 0 127 0"/>
<feOffset/>
<feGaussianBlur stdDeviation="10.4227"/>
<feColorMatrix type="matrix" values="0 0 0 0 0 0 0 0 0 0 0 0 0 0 0 0 0 0 0.2 0"/>
<feBlend mode="normal" in2="BackgroundImageFix" result="effect1_dropShadow"/>
<feBlend mode="normal" in="SourceGraphic" in2="effect1_dropShadow" result="shape"/>
</filter>
<clipPath id="clip0">
<rect width="900" height="180" fill="white"/>
</clipPath>
<clipPath id="clip1">
<rect width="100" height="173.721" fill="white" transform="translate(85 4)"/>
</clipPath>
</defs>
</svg>
