<svg xmlns="http://www.w3.org/2000/svg" width="24" height="24" fill="#fff" viewBox="0 0 50 50">
    <path d="M34.555 3.984c-.78-.026-1.596.11-2.414.375-1.637.53-3.352 1.565-5.112 2.996a32 32 0 0 0-2.084 1.883A32 32 0 0 0 22.906 7.4c-1.758-1.43-3.468-2.462-5.101-2.992s-3.258-.546-4.592.225c-1.334.77-2.132 2.184-2.49 3.863s-.32 3.678.039 5.916c.125.778.305 1.593.508 2.424-.763.231-1.503.474-2.19.742-2.072.81-3.787 1.778-5.035 2.93s-2.055 2.55-2.055 4.086c0 1.535.806 2.932 2.055 4.084C5.293 29.83 7.008 30.8 9.08 31.609c.734.287 1.53.545 2.35.79a32 32 0 0 0-.698 3.187c-.36 2.24-.397 4.24-.039 5.922.36 1.682 1.157 3.105 2.498 3.879s2.973.755 4.61.224c1.636-.53 3.35-1.562 5.11-2.994a32 32 0 0 0 2.066-1.863c.695.677 1.39 1.315 2.076 1.873 1.758 1.43 3.47 2.463 5.103 2.992 1.633.53 3.256.546 4.59-.224s2.132-2.185 2.49-3.864.319-3.678-.04-5.916a32 32 0 0 0-.7-3.195c.848-.25 1.668-.515 2.424-.81 2.072-.81 3.787-1.78 5.035-2.932s2.055-2.549 2.055-4.084c0-1.536-.806-2.934-2.055-4.086-1.248-1.152-2.963-2.12-5.035-2.93a30 30 0 0 0-2.223-.752c.205-.836.386-1.657.512-2.44.36-2.24.398-4.24.039-5.923s-1.159-3.103-2.5-3.877c-.67-.387-1.414-.575-2.193-.602m-.092 2.036c.49.013.907.13 1.264.335.714.413 1.241 1.215 1.523 2.536s.272 3.104-.06 5.173c-.114.709-.28 1.46-.467 2.229a46.4 46.4 0 0 0-6.674-1.072 48 48 0 0 0-3.676-4.518 29 29 0 0 1 1.947-1.76c1.626-1.322 3.165-2.222 4.45-2.638.642-.209 1.204-.299 1.693-.285m-18.977.005c.492-.013 1.055.077 1.7.286 1.288.417 2.83 1.317 4.457 2.64a29 29 0 0 1 1.906 1.72 48 48 0 0 0-3.701 4.56c-2.38.218-4.613.587-6.649 1.082a29 29 0 0 1-.463-2.22c-.332-2.07-.34-3.857-.058-5.18.282-1.325.814-2.132 1.535-2.548.36-.208.781-.326 1.273-.34m9.49 6.118c.815.886 1.63 1.856 2.438 2.9A58 58 0 0 0 25 14.99q-1.249.001-2.46.055a45 45 0 0 1 2.437-2.902M25 17.01c1.36 0 2.685.056 3.975.15a57 57 0 0 1 2.58 4.057 57 57 0 0 1 1.98 3.752 57 57 0 0 1-2.008 3.802 57 57 0 0 1-2.011 3.215c-1.457.122-2.966.19-4.516.19a54 54 0 0 1-4.62-.2 57 57 0 0 1-1.978-3.167 57 57 0 0 1-2.002-3.793 57 57 0 0 1 2.012-3.817 57 57 0 0 1 2.568-4.035A54 54 0 0 1 25 17.01m6.55.4c1.649.206 3.196.492 4.636.834a45 45 0 0 1-1.592 4.375c-.414-.798-.843-1.6-1.307-2.402a60 60 0 0 0-1.736-2.807m-13.206.016c-.58.89-1.15 1.799-1.7 2.752-.469.813-.907 1.625-1.326 2.433a45 45 0 0 1-1.58-4.35 43 43 0 0 1 4.606-.835m19.82 1.35c.709.214 1.394.438 2.022.683 1.91.746 3.42 1.63 4.4 2.533.98.904 1.404 1.766 1.404 2.602s-.425 1.698-1.404 2.601c-.98.904-2.49 1.787-4.4 2.534-.698.272-1.465.52-2.262.753a50 50 0 0 0-2.158-5.466 48.4 48.4 0 0 0 2.398-6.24m-26.361.01a48 48 0 0 0 2.367 6.177A50 50 0 0 0 12 30.46a28 28 0 0 1-2.186-.732c-1.91-.747-3.42-1.63-4.4-2.534S4.01 25.43 4.01 24.594s.425-1.698 1.404-2.602c.98-.904 2.49-1.787 4.4-2.533a28 28 0 0 1 1.989-.674M25 20c-2.75 0-5 2.25-5 5s2.25 5 5 5 5-2.25 5-5-2.25-5-5-5m0 2c1.669 0 3 1.331 3 3s-1.331 3-3 3-3-1.331-3-3 1.331-3 3-3m9.62 5.363c.524 1.241.98 2.456 1.362 3.627a43 43 0 0 1-3.83.7q.583-.928 1.145-1.897c.469-.812.904-1.623 1.322-2.43m-19.278.002c.42.812.858 1.627 1.33 2.444q.555.958 1.129 1.875a43 43 0 0 1-3.819-.702c.382-1.167.838-2.38 1.36-3.617m-1.936 5.559a46 46 0 0 0 5.852.972 49 49 0 0 0 4.29 5.391 29 29 0 0 1-1.927 1.744c-1.626 1.323-3.167 2.22-4.451 2.637s-2.243.361-2.957-.05c-.714-.413-1.24-1.215-1.522-2.536-.281-1.32-.273-3.103.059-5.172.15-.939.376-1.944.656-2.986m23.155.008c.282 1.048.508 2.058.66 3.002.332 2.07.34 3.855.058 5.18s-.812 2.132-1.533 2.548-1.686.472-2.975.055c-1.288-.418-2.83-1.32-4.457-2.643a29 29 0 0 1-1.941-1.756 49 49 0 0 0 4.32-5.418 46 46 0 0 0 5.868-.968m-14.694 1.17c1.027.056 2.067.093 3.133.093 1.03 0 2.037-.035 3.031-.088a46 46 0 0 1-3.084 3.74 46 46 0 0 1-3.08-3.745"/>
</svg>
