<svg width="24" height="24" viewBox="0 0 24 24" fill="none" xmlns="http://www.w3.org/2000/svg">
<path fill-rule="evenodd" clip-rule="evenodd" d="M4 5.25C4 4.55964 4.55964 4 5.25 4H9.75C10.4404 4 11 4.55964 11 5.25V9.75C11 10.4404 10.4404 11 9.75 11H5.25C4.55964 11 4 10.4404 4 9.75V5.25ZM6 6V9H9V6H6Z" fill="#212933"/>
<path fill-rule="evenodd" clip-rule="evenodd" d="M4 14.25C4 13.5596 4.55964 13 5.25 13H9.75C10.4404 13 11 13.5596 11 14.25V18.75C11 19.4404 10.4404 20 9.75 20H5.25C4.55964 20 4 19.4404 4 18.75V14.25ZM6 15V18H9V15H6Z" fill="#212933"/>
<path fill-rule="evenodd" clip-rule="evenodd" d="M13 5.25C13 4.55964 13.5596 4 14.25 4H18.75C19.4404 4 20 4.55964 20 5.25V9.75C20 10.4404 19.4404 11 18.75 11H14.25C13.5596 11 13 10.4404 13 9.75V5.25ZM15 6V9H18V6H15Z" fill="#212933"/>
<path fill-rule="evenodd" clip-rule="evenodd" d="M13 16.5C13 15.9477 13.4477 15.5 14 15.5H19C19.5523 15.5 20 15.9477 20 16.5C20 17.0523 19.5523 17.5 19 17.5H14C13.4477 17.5 13 17.0523 13 16.5Z" fill="#212933"/>
<path fill-rule="evenodd" clip-rule="evenodd" d="M16.5 13C17.0523 13 17.5 13.4477 17.5 14V19C17.5 19.5523 17.0523 20 16.5 20C15.9477 20 15.5 19.5523 15.5 19V14C15.5 13.4477 15.9477 13 16.5 13Z" fill="#212933"/>
</svg>
