<svg width="24" height="24" fill="none" xmlns="http://www.w3.org/2000/svg">
    <path fill-rule="evenodd" clip-rule="evenodd" d="M11.5 4a1.5 1.5 0 100 3 1.5 1.5 0 000-3zM8 5.5a3.5 3.5 0 117 0 3.5 3.5 0 01-7 0zm-3 11a6.5 6.5 0 0111.227-4.461 1 1 0 11-1.454 1.373A4.5 4.5 0 007 16.5v1h4.5a1 1 0 110 2H7a2 2 0 01-2-2v-1zm9 2a1 1 0 011-1h5a1 1 0 110 2h-5a1 1 0 01-1-1z" fill="currentColor"/>
    <path fill-rule="evenodd" clip-rule="evenodd" d="M17.5 15a1 1 0 011 1v5a1 1 0 11-2 0v-5a1 1 0 011-1z" fill="currentColor"/>
</svg>
