<svg width="24" height="24" viewBox="0 0 24 24" fill="none" xmlns="http://www.w3.org/2000/svg">
    <path fill-rule="evenodd" clip-rule="evenodd" d="M4 5.25C4 4.56 4.56 4 5.25 4h4.5c.69 0 1.25.56 1.25 1.25v4.5c0 .69-.56 1.25-1.25 1.25h-4.5C4.56 11 4 10.44 4 9.75v-4.5zM6 6v3h3V6H6zM4 14.25c0-.69.56-1.25 1.25-1.25h4.5c.69 0 1.25.56 1.25 1.25v4.5c0 .69-.56 1.25-1.25 1.25h-4.5C4.56 20 4 19.44 4 18.75v-4.5zM6 15v3h3v-3H6zM13 5.25c0-.69.56-1.25 1.25-1.25h4.5c.69 0 1.25.56 1.25 1.25v4.5c0 .69-.56 1.25-1.25 1.25h-4.5c-.69 0-1.25-.56-1.25-1.25v-4.5zM15 6v3h3V6h-3zM13 16.5a1 1 0 011-1h5a1 1 0 110 2h-5a1 1 0 01-1-1z" fill="currentColor"/>
    <path fill-rule="evenodd" clip-rule="evenodd" d="M16.5 13a1 1 0 011 1v5a1 1 0 11-2 0v-5a1 1 0 011-1z" fill="currentColor"/>
</svg>
