<svg width="24" height="24" viewBox="0 0 24 24" fill="none" xmlns="http://www.w3.org/2000/svg">
    <path d="M21.049 16.591H19.51v-.086c-.181.086-.362.086-.543.086h-4.706v-.78h-.09v.78h-1.539v-.866c-.263.085-.538.13-.815.13h-.134v.736h-1.81s-.271-.303-.452-.476a6.432 6.432 0 01-.453.476h-2.85v-3.16h2.895s.317.346.498.52c.181-.174.497-.52.497-.52h2.082c.09 0 .317 0 .543.087v-.087h1.9c.09 0 .318 0 .589.087v-.087h2.805v.087c.272-.087.498-.087.543-.087h1.584v.087c.272-.087.498-.087.543-.087h1.13V3H2.045v8.094l.68-1.515h1.447l.18.39v-.39h1.72s.271.563.362.822c.136-.26.362-.822.362-.822h5.294c.09 0 .317 0 .588.086V9.58h1.539v.173c.226-.13.497-.217.723-.217 0 0 .815 0 .86.044h1.448s.136.346.182.39v-.39h1.583s.226.346.272.39v-.39h1.538v3.16h-1.538s-.227-.347-.272-.433v.433h-1.946s-.18-.39-.226-.476h-.498c-.045.086-.226.476-.226.476h-1.311c-.182 0-.362-.087-.543-.173v.216h-2.444v-.78h-.09v.78H6.976c0-.043-1.13 0-1.13 0s0-.043-.045-.043l-1.947.043s-.181-.39-.226-.476h-.497c-.045.13-.226.476-.226.476H2v8.7h19.683v-4.977c-.09.043-.317.086-.543.086h-.091z" fill="#0087B1"/>
    <path d="M12.361 12.262v-.432s-.045-.347-.406-.347h-.589v.78h-.588V9.968h1.493s.77-.086.77.693c0 .39-.363.52-.363.52s.317.129.317.519v.563h-.634v-.001zm-.995-1.34H12c.18 0 .316-.088.316-.217 0-.13-.135-.217-.316-.217h-.634v.433zm8.235 1.34l-.95-1.557v1.558H17.43l-.227-.477h-1.131l-.226.477h-.906s-.814-.13-.814-1.083c0-1.298.95-1.212.95-1.254h.77v.519h-.634s-.407 0-.452.52v.173c0 .778.723.518.723.518l.77-1.73h.86l.904 2.077V9.925h.86l.95 1.516V9.925h.634v2.294h-.86v.043zm-3.257-1.039h.588l-.272-.692-.317.692zm-8.778 1.039v-1.6l-.77 1.601h-.498l-.769-1.602v1.602H4.306l-.226-.477H2.951l-.226.477h-.68l.996-2.295h.86l.95 2.122V9.97h.95l.679 1.427.678-1.428h.95v2.294h-.542v-.001zm-4.299-1.038h.588l-.317-.692-.27.692zm5.294 1.038V9.969h1.9v.563H9.15v.347h1.267v.518H9.149v.39h1.312v.476h-1.9v-.001zm4.706 0V9.969h.633v2.294h-.633v-.001zm1.447 3.896v-.433s-.045-.346-.406-.346h-.589v.78h-.633v-2.295h1.493s.769-.087.769.693c0 .39-.362.519-.362.519s.271.13.271.52v.562h-.543zm-.995-1.299h.634c.18 0 .316-.086.316-.216s-.135-.217-.316-.217h-.634v.433zm-3.077 1.3h-.543l-.634-.694-.633.693H6.57v-2.294h2.217l.678.736.725-.736h1.945s.77-.087.77.693c0 .692-.272.908-1.042.908h-.588v.736h-.633v-.043zm-.723-1.127l.769.823v-1.601l-.77.778zm-2.76.65h1.266l.588-.65-.588-.65H7.158v.348h1.267v.519H7.158v.433zm4.116-.866h.634c.181 0 .317-.086.317-.217 0-.129-.136-.216-.317-.216h-.634v.433zm7.602 1.342h-1.086v-.52h.95s.362.044.362-.173c0-.216-.497-.173-.497-.173s-.86.087-.86-.692c0-.736.77-.693.77-.693h1.175v.52h-.95s-.316-.043-.316.173c0 .173.452.173.452.173s.95-.086.95.606c0 .736-.588.822-.814.822-.09-.043-.135-.043-.135-.043zm-3.257 0v-2.294h1.9v.563h-1.267v.346h1.267v.52h-1.267v.389h1.267v.476h-1.9zm5.429 0h-1.086v-.52h.951s.361.044.361-.173c0-.216-.497-.173-.497-.173s-.86.087-.86-.692c0-.736.77-.693.77-.693h1.175v.52h-.95s-.316-.043-.316.173c0 .173.452.173.452.173s.951-.086.951.606c0 .736-.589.822-.815.822-.09-.043-.136-.043-.136-.043z" fill="#0087B1"/>
</svg>
