<svg width="240" height="150" viewBox="0 0 240 150" xmlns="http://www.w3.org/2000/svg">
    <g fill="#000" fill-rule="evenodd">
        <path d="M64.159 65.443c.118 12.342 11.177 16.448 11.3 16.5-.093.292-1.767 5.854-5.826 11.602-3.51 4.967-7.154 9.917-12.889 10.02-5.638.102-7.45-3.236-13.897-3.236-6.444 0-8.46 3.133-13.796 3.338-5.537.203-9.755-5.374-13.293-10.325C8.526 83.216 3 64.73 10.42 52.251c3.687-6.198 10.272-10.123 17.423-10.222 5.438-.101 10.572 3.543 13.897 3.543 3.322 0 9.561-4.383 16.12-3.739 2.745.112 10.45 1.074 15.399 8.09-.401.24-9.198 5.201-9.101 15.52m-10.597-30.31c2.94-3.447 4.92-8.246 4.38-13.02-4.239.164-9.364 2.734-12.402 6.18-2.727 3.05-5.111 7.933-4.468 12.616 4.725.354 9.55-2.326 12.49-5.776M96.12 29.232c2.18-.367 4.582-.696 7.212-.99 2.628-.295 5.519-.44 8.677-.44 4.506 0 8.392.531 11.659 1.595 3.268 1.063 5.952 2.586 8.053 4.567 1.804 1.76 3.215 3.85 4.227 6.271 1.012 2.421 1.516 5.21 1.516 8.365 0 3.814-.692 7.153-2.082 10.015-1.387 2.86-3.283 5.263-5.687 7.207-2.406 1.944-5.259 3.391-8.564 4.346-3.307.953-6.91 1.43-10.818 1.43-3.529 0-6.494-.256-8.896-.769v31.696H96.12V29.232zm5.297 36.978c1.277.365 2.703.621 4.28.767 1.578.146 3.267.22 5.069.22 6.76 0 11.999-1.542 15.716-4.622 3.717-3.08 5.576-7.593 5.576-13.535 0-2.861-.487-5.358-1.462-7.485-.978-2.129-2.366-3.87-4.168-5.228-1.802-1.358-3.943-2.384-6.422-3.082-2.48-.697-5.222-1.045-8.228-1.045-2.402 0-4.469.092-6.196.275-1.727.184-3.117.386-4.167.605v33.13h.002zM179.585 89.98c0 2.128.036 4.257.111 6.384.075 2.127.299 4.18.677 6.16h-4.958l-.787-7.482h-.229c-.675 1.028-1.54 2.054-2.59 3.08-1.05 1.026-2.271 1.963-3.659 2.807-1.39.845-2.968 1.523-4.733 2.036-1.766.51-3.698.77-5.801.77-2.628 0-4.94-.424-6.932-1.265-1.99-.844-3.623-1.945-4.9-3.301a13.469 13.469 0 01-2.872-4.678c-.638-1.76-.956-3.52-.956-5.282 0-6.236 2.684-11.04 8.053-14.417 5.372-3.377 13.465-4.989 24.283-4.843v-1.43c0-1.396-.132-2.993-.395-4.79a14.795 14.795 0 00-1.748-5.117c-.901-1.612-2.253-2.97-4.054-4.068-1.802-1.101-4.245-1.652-7.323-1.652-2.33 0-4.638.348-6.928 1.045-2.291.696-4.375 1.668-6.252 2.915L145.902 53c2.401-1.612 4.882-2.767 7.433-3.464 2.556-.696 5.22-1.044 8-1.044 3.756 0 6.817.623 9.183 1.87 2.365 1.247 4.225 2.862 5.576 4.84 1.352 1.982 2.274 4.2 2.76 6.66.488 2.458.735 4.899.735 7.318v20.8h-.004zm-5.295-15.737a74.615 74.615 0 00-8.96.33c-3.115.292-5.989.936-8.617 1.925-2.63.99-4.806 2.44-6.533 4.348-1.727 1.908-2.592 4.438-2.592 7.593 0 3.74 1.089 6.492 3.269 8.252 2.175 1.76 4.616 2.643 7.32 2.643 2.178 0 4.132-.292 5.859-.882 1.727-.588 3.226-1.377 4.505-2.365a15.127 15.127 0 003.21-3.356 15.586 15.586 0 001.976-3.854c.375-1.468.565-2.532.565-3.195V74.243h-.002zM189.942 49.7l13.74 34.335c.754 1.908 1.467 3.87 2.144 5.89a266.79 266.79 0 011.802 5.555h.226a771.961 771.961 0 011.802-5.447c.677-2.017 1.429-4.09 2.253-6.222l12.846-34.114h5.63l-15.656 38.74a443.64 443.64 0 01-4.451 11.17c-1.388 3.339-2.8 6.346-4.226 9.024-1.428 2.678-2.871 5.043-4.34 7.099-1.462 2.052-3.1 3.852-4.9 5.39-2.1 1.834-4.037 3.175-5.803 4.02-1.763.844-2.946 1.376-3.548 1.595l-1.806-4.292c1.353-.588 2.856-1.358 4.509-2.31 1.652-.956 3.269-2.2 4.844-3.742 1.354-1.32 2.838-3.061 4.452-5.228 1.614-2.163 3.059-4.787 4.338-7.869.45-1.174.677-1.946.677-2.313 0-.51-.225-1.282-.677-2.31l-19.493-48.974h5.637v.002z"/>
    </g>
</svg>
