<svg width="24" height="24" viewBox="0 0 24 24" fill="none" xmlns="http://www.w3.org/2000/svg">
    <path d="M21.7 14.42c-1.336 5.356-6.761 8.616-12.12 7.281C4.224 20.365.963 14.94 2.3 9.582 3.634 4.224 9.062.963 14.418 2.3c5.358 1.337 8.619 6.762 7.283 12.12z" fill="#F5922F"/>
    <path d="M16.345 10.57c.19-1.332-.779-2.047-2.104-2.524l.43-1.802-1.05-.273-.419 1.754c-.279-.072-.559-.14-.84-.207l.421-1.766-1.048-.274-.43 1.802a33.706 33.706 0 01-.671-.164l.002-.006-1.448-.377-.28 1.171s.78.187.762.198c.426.112.503.405.49.638l-.49 2.054c.03.007.067.019.11.037l-.112-.029-.686 2.876c-.052.135-.183.337-.48.26.01.016-.764-.199-.764-.199l-.521 1.257 1.366.356c.254.066.503.136.748.201l-.434 1.823 1.048.274.43-1.804c.287.082.565.156.837.227l-.429 1.796 1.05.273.434-1.82c1.79.354 3.136.212 3.703-1.48.456-1.363-.023-2.15-.965-2.662.686-.165 1.202-.637 1.34-1.61zm-2.398 3.514c-.324 1.363-2.519.627-3.23.442l.576-2.415c.711.185 2.993.552 2.654 1.974v-.001zm.324-3.534c-.295 1.239-2.122.61-2.714.455l.523-2.19c.592.154 2.5.441 2.192 1.735h-.001z" fill="#fff"/>
</svg>
