<svg width="24" height="24" fill="none" xmlns="http://www.w3.org/2000/svg">
    <path d="M7 7.95v-1.4a.05.05 0 01.05-.05h9.9a.05.05 0 01.05.05v1.4a.05.05 0 01-.05.05h-9.9A.05.05 0 017 7.95z" stroke="currentColor" stroke-width="2"/>
    <circle cx="8" cy="11.5" r=".5" stroke="currentColor" stroke-miterlimit="16"/>
    <circle cx="8" cy="17" r=".5" stroke="currentColor" stroke-miterlimit="16"/>
    <circle cx="8" cy="14.25" r=".5" stroke="currentColor" stroke-miterlimit="16"/>
    <circle cx="12" cy="11.5" r=".5" stroke="currentColor" stroke-miterlimit="16"/>
    <circle cx="12" cy="17" r=".5" stroke="currentColor" stroke-miterlimit="16"/>
    <circle cx="12" cy="14.25" r=".5" stroke="currentColor" stroke-miterlimit="16"/>
    <circle cx="16" cy="11.5" r=".5" stroke="currentColor" stroke-miterlimit="16"/>
    <circle cx="16" cy="17" r=".5" stroke="currentColor" stroke-miterlimit="16"/>
    <circle cx="16" cy="14.25" r=".5" stroke="currentColor" stroke-miterlimit="16"/>
    <path d="M19 3H5a2 2 0 00-2 2v14a2 2 0 002 2h14a2 2 0 002-2V5a2 2 0 00-2-2z" stroke="currentColor" stroke-width="2"/>
</svg>
