<svg width="24" height="24" viewBox="0 0 24 24" fill="none" xmlns="http://www.w3.org/2000/svg">
<path fill-rule="evenodd" clip-rule="evenodd" d="M22 12C22 17.5228 17.5228 22 12 22C6.47715 22 2 17.5228 2 12C2 6.47715 6.47715 2 12 2C17.5228 2 22 6.47715 22 12ZM13 6.85712C13 6.30484 12.5523 5.85712 12 5.85712C11.4477 5.85712 11 6.30484 11 6.85712V12.6428C11 13.1951 11.4477 13.6428 12 13.6428C12.5523 13.6428 13 13.1951 13 12.6428V6.85712ZM13 16.5C13 15.9477 12.5523 15.5 12 15.5C11.4477 15.5 11 15.9477 11 16.5V17.1428C11 17.6951 11.4477 18.1428 12 18.1428C12.5523 18.1428 13 17.6951 13 17.1428V16.5Z" fill="#212933"/>
</svg>
