<svg width="24" height="24" fill="none" xmlns="http://www.w3.org/2000/svg">
    <path fill-rule="evenodd" clip-rule="evenodd" d="M12 4h.007C16.421 4 20 7.583 20 12c0 4.418-3.58 8-7.993 8h-.014C7.579 20 4 16.418 4 12c0-4.417 3.58-8 7.993-8H12zm-.553 4.994a1.338 1.338 0 011.242.073.97.97 0 01.36.388c.069.141.09.29.068.432a.812.812 0 01-.212.423 1.143 1.143 0 01-.5.31c-.35.11-.671.318-.907.614a1.698 1.698 0 00-.373 1.058V13a.875.875 0 001.75 0v-.683a.15.15 0 01.054-.028 2.891 2.891 0 001.265-.796c.343-.373.573-.834.652-1.336a2.475 2.475 0 00-.224-1.469 2.712 2.712 0 00-1.002-1.102 3.088 3.088 0 00-2.905-.182 2.8 2.8 0 00-1.145.955c-.287.419-.445.91-.445 1.418a.875.875 0 101.75 0c0-.142.044-.29.139-.43.095-.139.241-.265.433-.353zm1.428 6.506a.875.875 0 00-1.75 0v.5a.875.875 0 001.75 0v-.5z" fill="currentColor"/>
</svg>
