<svg width="24" height="24" viewBox="0 0 24 24" fill="none" xmlns="http://www.w3.org/2000/svg">
<path fill-rule="evenodd" clip-rule="evenodd" d="M22 12C22 17.5228 17.5228 22 12 22C6.47715 22 2 17.5228 2 12C2 6.47715 6.47715 2 12 2C17.5228 2 22 6.47715 22 12ZM9.49275 8.0786C9.10223 7.68807 8.46906 7.68807 8.07854 8.0786C7.68801 8.46912 7.68801 9.10229 8.07854 9.49281L10.5857 12L8.07854 14.5072C7.68801 14.8977 7.68801 15.5309 8.07854 15.9214C8.46906 16.3119 9.10223 16.3119 9.49275 15.9214L11.9999 13.4142L14.5071 15.9214C14.8976 16.3119 15.5308 16.3119 15.9213 15.9214C16.3118 15.5309 16.3118 14.8977 15.9213 14.5072L13.4141 12L15.9213 9.49281C16.3118 9.10229 16.3118 8.46912 15.9213 8.0786C15.5308 7.68807 14.8976 7.68807 14.5071 8.0786L11.9999 10.5858L9.49275 8.0786Z" fill="#212933"/>
</svg>
