<svg width="24" height="24" viewBox="0 0 24 24" fill="none" xmlns="http://www.w3.org/2000/svg">
<path fill-rule="evenodd" clip-rule="evenodd" d="M22 12C22 17.5228 17.5228 22 12 22C6.47715 22 2 17.5228 2 12C2 6.47715 6.47715 2 12 2C17.5228 2 22 6.47715 22 12ZM16.6783 9.45137C17.0233 9.02011 16.9533 8.39082 16.5221 8.04581C16.0908 7.7008 15.4615 7.77072 15.1165 8.20198L10.6716 13.7581L8.89021 11.9767C8.49969 11.5862 7.86652 11.5862 7.476 11.9767C7.08547 12.3672 7.08547 13.0004 7.476 13.3909L10.0474 15.9624C10.2486 16.1635 10.5258 16.2694 10.8098 16.2537C11.0938 16.238 11.3577 16.1021 11.5354 15.8799L16.6783 9.45137Z" fill="#212933"/>
</svg>
