<svg width="24" height="24" fill="none" xmlns="http://www.w3.org/2000/svg">
    <path fill-rule="evenodd" clip-rule="evenodd" d="M12 2C6.477 2 2 6.477 2 12s4.477 10 10 10 10-4.477 10-10S17.523 2 12 2zm-1.581 6.468c-.264.238-.419.58-.419 1.032a1 1 0 11-2 0c0-.947.345-1.856 1.081-2.518C9.809 6.326 10.821 6 12 6c1.18 0 2.19.326 2.919.982C15.655 7.644 16 8.552 16 9.5c0 .802-.32 1.396-.772 1.834-.346.337-.788.591-1.107.774l-.117.068c-.377.22-.61.38-.768.567-.126.15-.236.36-.236.757a1 1 0 11-2 0c0-.852.265-1.519.702-2.04.405-.484.92-.793 1.294-1.011l.11-.064c.362-.21.572-.333.728-.485A.479.479 0 0014 9.5c0-.453-.155-.794-.419-1.032C13.309 8.224 12.821 8 12 8c-.82 0-1.31.224-1.581.468zM13 16.5a1 1 0 10-2 0v.6a1 1 0 102 0v-.6z" fill="currentColor"/>
</svg>
