<svg width="24" height="24" fill="none" xmlns="http://www.w3.org/2000/svg">
    <path fill-rule="evenodd" clip-rule="evenodd" d="M12 6a6 6 0 100 12 6 6 0 000-12zm-8 6a8 8 0 1116 0 8 8 0 01-16 0z" fill="currentColor"/>
    <path d="M10 9.777c0-.325.1-.645.291-.924.191-.278.464-.504.79-.654a2.213 2.213 0 012.074.127c.3.188.535.446.68.745.146.3.196.628.146.951-.05.323-.2.627-.431.88a2.016 2.016 0 01-.883.552.997.997 0 00-.484.325.823.823 0 00-.183.513M12 15v.5" stroke="currentColor" stroke-width="2" stroke-linecap="round" stroke-linejoin="round"/>
</svg>
