<svg width="24" height="24" fill="none" xmlns="http://www.w3.org/2000/svg">
    <path d="M17 17h1.033s3.217.051 3.217-3.214a3.19 3.19 0 00-.266-1.359 3.119 3.119 0 00-.815-1.107c-.35-.302-.76-.52-1.202-.637a2.98 2.98 0 00-1.353-.042 5.929 5.929 0 00-1.711-3.964A5.66 5.66 0 0012 5a5.523 5.523 0 00-3.036.95 5.718 5.718 0 00-2.048 2.485 4.007 4.007 0 00-1.609.305 4.08 4.08 0 00-1.364.926 4.2 4.2 0 00-.9 1.399 4.279 4.279 0 00-.293 1.648 4.364 4.364 0 001.023 2.84A4.175 4.175 0 006.37 17H7" stroke="currentColor" stroke-width="2" stroke-linecap="round" stroke-linejoin="round"/>
    <path d="M12 13v7m0 0l2-2.143M12 20l-2-2.143" stroke="currentColor" stroke-width="1.75" stroke-linecap="round" stroke-linejoin="round"/>
</svg>
