<svg width="537" height="315" xmlns="http://www.w3.org/2000/svg">
    <path d="M423.442 146.094l84.832 100.888c17.57-25.39 27.888-56.168 27.888-89.321 0-34.991-11.496-67.351-30.895-93.507l-81.825 81.94zM183.055 55.638c63.35 0 111.084 16.118 115.997 69.494l66.672-69.502h132.759C469.603 21.827 426.685.354 378.847.354h-255.11C75.881.354 32.956 21.827 4.075 55.638h178.98zM78.676 122.925l-22.622 62.2h91.273c26.983 0 35.147-11.17 41.185-32.676 5.976-21.27-9.034-29.524-27.474-29.524H78.676zm287.602 132.549l-70.513-89.113c-13.044 60.758-55.723 89.102-135.73 89.102H.586c28.845 36.247 73.327 59.53 123.15 59.53h255.111c49.807 0 94.279-23.274 123.126-59.519H366.278z" fill="#E41D27"/>
</svg>
