<svg width="24" height="24" viewBox="0 0 24 24" fill="none" xmlns="http://www.w3.org/2000/svg">
    <path d="M16 18.5H8a6 6 0 110-12h8a6 6 0 010 12z" fill="#fff"/>
    <path d="M17.422 12.133l2.693 3.202A4.966 4.966 0 0021 12.5c0-1.111-.365-2.138-.98-2.968l-2.598 2.6zM9.792 9.261c2.01 0 3.526.512 3.682 2.206l2.116-2.206h4.214a4.985 4.985 0 00-3.797-1.754H7.909A4.985 4.985 0 004.111 9.26h5.68zM6.479 11.397l-.718 1.974h2.897c.856 0 1.115-.354 1.307-1.037.19-.675-.287-.937-.872-.937H6.479zM15.608 15.604l-2.239-2.828c-.414 1.928-1.768 2.828-4.308 2.828H4a4.987 4.987 0 003.909 1.89h8.098c1.58 0 2.992-.74 3.908-1.89h-4.307z" fill="#E41D27"/>
</svg>
