<svg width="24" height="24" fill="none" xmlns="http://www.w3.org/2000/svg">
    <path fill-rule="evenodd" clip-rule="evenodd" d="M3.381 4.911C3 5.66 3 6.64 3 8.6v6.8c0 1.96 0 2.94.381 3.689a3.5 3.5 0 001.53 1.53C5.66 21 6.64 21 8.6 21h6.8c1.96 0 2.94 0 3.689-.381a3.5 3.5 0 001.53-1.53C21 18.34 21 17.36 21 15.4V8.6c0-1.96 0-2.94-.381-3.689a3.5 3.5 0 00-1.53-1.53C18.34 3 17.36 3 15.4 3H8.6c-1.96 0-2.94 0-3.689.381a3.5 3.5 0 00-1.53 1.53zM13 8a1 1 0 10-2 0v9h2V8zm3.5 2a1 1 0 10-2 0v7h2v-7zm-7 2a1 1 0 10-2 0v5h2v-5z" fill="currentColor"/>
</svg>
