<svg width="24" height="24" fill="none" xmlns="http://www.w3.org/2000/svg">
    <path fill-rule="evenodd" clip-rule="evenodd" d="M8 3h-.04c-.666 0-1.226 0-1.683.037-.48.04-.934.124-1.366.344a3.5 3.5 0 00-1.53 1.53c-.22.432-.304.887-.344 1.366C3 6.734 3 7.294 3 7.96v8.08c0 .666 0 1.226.037 1.683.04.48.124.934.344 1.366a3.5 3.5 0 001.53 1.53c.432.22.887.305 1.366.344C6.734 21 7.294 21 7.96 21h8.08c.666 0 1.226 0 1.683-.037.48-.04.934-.124 1.366-.345a3.5 3.5 0 001.53-1.529c.22-.432.305-.887.344-1.366.037-.457.037-1.017.037-1.683V7.96c0-.666 0-1.226-.037-1.683-.04-.48-.124-.934-.345-1.366a3.5 3.5 0 00-1.529-1.53c-.432-.22-.887-.304-1.366-.344C17.266 3 16.706 3 16.04 3H8zM5.819 5.163c.103-.052.265-.103.62-.132C6.806 5 7.283 5 8 5h8c.717 0 1.194 0 1.56.03.356.03.518.081.621.133a1.5 1.5 0 01.655.656c.053.103.104.265.133.62C19 6.806 19 7.283 19 8v8c0 .717 0 1.194-.03 1.56-.03.356-.081.518-.133.621a1.5 1.5 0 01-.656.655c-.103.053-.265.104-.62.133C17.194 19 16.717 19 16 19H8c-.717 0-1.194 0-1.56-.03-.356-.03-.518-.081-.621-.133a1.5 1.5 0 01-.656-.656c-.052-.103-.103-.265-.132-.62C5 17.194 5 16.717 5 16V8c0-.717 0-1.194.03-1.56.03-.356.081-.518.133-.621a1.5 1.5 0 01.656-.656zM13 8a1 1 0 10-2 0v9h2V8zm3.5 2a1 1 0 10-2 0v7h2v-7zm-7 2a1 1 0 10-2 0v5h2v-5z" fill="currentColor"/>
</svg>
