<svg width="24" height="24" viewBox="0 0 24 24" fill="none" xmlns="http://www.w3.org/2000/svg">
    <path d="M4.914 15.634c0 .245.189.274.357.274.741 0 .985-.519.985-.993 0-.594-.412-1.023-1.074-1.023-.14 0-.206.01-.268.013v1.73zm-.336-1.49c0-.287-.16-.268-.315-.271v-.083c.133.006.27.006.405.006.144 0 .339-.006.593-.006.888 0 1.372.55 1.372 1.112 0 .316-.199 1.108-1.413 1.108-.175 0-.336-.007-.497-.007-.155 0-.306.003-.46.007v-.083c.205-.02.305-.026.315-.242v-1.543.001zm2.543-.077c-.09 0-.168-.077-.168-.159 0-.08.082-.153.168-.153.088 0 .168.067.168.153 0 .085-.076.159-.168.159zm-.368 1.86h.066c.096 0 .165 0 .165-.105v-.862c0-.14-.052-.16-.179-.222v-.051c.161-.045.353-.105.367-.115a.133.133 0 01.062-.016c.017 0 .024.02.024.045v1.22c0 .105.075.105.171.105h.059v.084c-.117 0-.237-.007-.36-.007-.124 0-.248.003-.374.007v-.083zm1.061-.948c0-.118-.038-.15-.2-.21v-.06c.148-.044.289-.086.454-.153.01 0 .02.007.02.032v.207c.196-.13.364-.238.594-.238.292 0 .394.196.394.445v.82c0 .104.076.104.172.104h.062v.084c-.12 0-.24-.007-.363-.007-.124 0-.248.003-.371.007v-.083h.061c.096 0 .165 0 .165-.105v-.824c0-.181-.12-.27-.315-.27-.11 0-.285.083-.4.154v.94c0 .104.077.104.173.104h.062v.084c-.12 0-.24-.007-.365-.007-.122 0-.246.003-.37.007v-.083h.062c.096 0 .165 0 .165-.105v-.843zm2.364.05c.086 0 .096-.04.096-.078 0-.163-.106-.293-.298-.293-.21 0-.354.143-.395.372h.597zm-.607.103a.695.695 0 000 .185c.02.302.23.55.504.55.189 0 .337-.096.464-.214l.048.045c-.159.193-.354.36-.635.36-.546 0-.656-.49-.656-.694 0-.623.453-.807.693-.807.278 0 .576.16.58.499 0 .019 0 .037-.003.057l-.032.02h-.963zm1.077.795h.093c.096 0 .164 0 .164-.105v-.895c0-.098-.127-.117-.178-.143v-.047c.25-.099.388-.181.419-.181.02 0 .03.009.03.041v.286h.008c.085-.124.23-.327.439-.327.085 0 .195.053.195.168a.159.159 0 01-.16.162c-.108 0-.108-.076-.228-.076-.058 0-.25.072-.25.264v.746c0 .105.068.105.164.105h.192v.084c-.188-.003-.332-.007-.48-.007-.14 0-.284.004-.408.007v-.082zm1.321-.36c.045.21.182.389.432.389.203 0 .278-.115.278-.226 0-.376-.747-.255-.747-.766 0-.18.154-.407.532-.407.11 0 .256.028.39.092l.024.324H12.8c-.035-.2-.155-.315-.375-.315-.137 0-.267.073-.267.21 0 .372.796.258.796.757 0 .21-.182.432-.59.432a.955.955 0 01-.419-.108l-.037-.366.061-.016zm4.083-1.201h-.086c-.065-.373-.35-.522-.734-.522-.395 0-.968.245-.968 1.008 0 .643.495 1.104 1.023 1.104.34 0 .621-.216.69-.55l.079.019-.08.464c-.144.083-.532.168-.758.168-.802 0-1.31-.48-1.31-1.196 0-.65.628-1.119 1.3-1.119.278 0 .545.083.81.17l.034.454zm.124 1.56h.065c.096 0 .165 0 .165-.104v-1.77c0-.208-.052-.214-.182-.249v-.052a2.22 2.22 0 00.353-.137c.038-.019.065-.035.075-.035.021 0 .028.02.028.045v2.196c0 .105.076.105.172.105h.058v.084c-.116 0-.237-.007-.36-.007-.124 0-.247.004-.374.007v-.082zm2.203-.092c0 .058.037.06.096.06l.137-.002v.067a3.775 3.775 0 00-.495.098l-.016-.01v-.257c-.206.156-.365.267-.608.267-.185 0-.377-.111-.377-.378v-.814c0-.083-.014-.162-.206-.178v-.06c.124-.004.398-.023.442-.023.039 0 .039.023.039.092v.82c0 .096 0 .37.298.37.116 0 .27-.083.415-.194v-.856c0-.064-.164-.098-.288-.13v-.057c.308-.02.501-.045.536-.045.027 0 .027.023.027.058v1.172zm.682-.184c0 .121.123.324.354.324.368 0 .521-.333.521-.617 0-.342-.281-.629-.548-.629-.128 0-.234.076-.327.15v.772zm0-.865c.138-.107.323-.228.512-.228.398 0 .638.321.638.667 0 .417-.329.833-.821.833-.254 0-.387-.076-.476-.111l-.104.073-.071-.035c.031-.187.047-.376.048-.566v-1.366c0-.208-.051-.214-.182-.249v-.052c.138-.04.281-.098.354-.137.037-.019.064-.035.075-.035.02 0 .027.02.027.045v1.16zM4.26 17.858h.026c.067 0 .138-.009.138-.099v-.906c0-.09-.071-.099-.138-.099H4.26v-.052c.073 0 .185.007.277.007.092 0 .204-.007.292-.007v.052h-.026c-.067 0-.138.008-.138.1v.905c0 .09.072.099.138.099h.026v.052c-.09 0-.202-.006-.295-.006-.091 0-.201.006-.274.006v-.052z" fill="#1A1918"/>
    <path d="M4.82 17.903v-.037h-.018c-.066 0-.146-.01-.146-.107v-.905c0-.096.08-.107.146-.107h.019v-.037c-.087 0-.195.006-.285.006-.089 0-.196-.006-.269-.006v.037h.018c.067 0 .146.01.146.107v.905c0 .096-.08.107-.146.107h-.018v.037c.072-.001.178-.008.266-.008.092 0 .2.007.288.008zm.009.014c-.09 0-.203-.006-.296-.006-.09 0-.2.006-.274.006h-.008v-.066h.034c.068-.002.13-.007.13-.092v-.905c0-.085-.062-.09-.13-.092h-.034v-.067h.008c.074 0 .185.007.277.007.093 0 .204-.007.293-.007h.008v.067h-.035c-.068.001-.13.007-.13.091v.906c0 .085.062.09.13.092h.035v.066h-.008zm1.283-.348l.003-.003v-.649c0-.142-.106-.163-.163-.163h-.04v-.052c.087 0 .173.007.26.007.077 0 .154-.007.23-.007v.052h-.028c-.078 0-.166.014-.166.22v.788c0 .06.002.12.011.174h-.071l-.961-.993v.712c0 .152.031.203.175.203h.032v.052c-.08 0-.16-.006-.241-.006-.084 0-.17.006-.254.006v-.052h.026c.13 0 .168-.081.168-.22v-.728c0-.097-.086-.156-.17-.156H4.9v-.052c.07 0 .143.007.213.007.056 0 .112-.007.167-.007l.832.867z" fill="#1A1918"/>
    <path d="M6.107 17.566l-.002-.002.002.002zm.004.003l.006-.005-.006.005zm.036.36h.063a1.045 1.045 0 01-.01-.167v-.788c0-.207.094-.227.174-.227h.02v-.037c-.074 0-.147.006-.222.006-.085 0-.168-.006-.253-.006v.037h.032c.058 0 .172.024.172.17l-.003.654-.004.003-.006.006-.83-.87c-.056 0-.11.006-.167.006-.068 0-.138-.006-.206-.006v.037h.016c.088 0 .178.062.178.163v.728c0 .139-.042.228-.176.228h-.018v.037c.08-.001.164-.008.245-.008.079 0 .156.007.233.008v-.037h-.024c-.146 0-.182-.06-.182-.21v-.733l.968 1.006zm.072.015l-.077-.003-.948-.979v.693c.003.151.027.194.168.196h.04v.066h-.008c-.081 0-.162-.006-.242-.006-.083 0-.169.006-.253.006H4.89v-.066h.034c.123-.002.158-.075.16-.213v-.728c0-.092-.082-.148-.162-.148h-.032v-.067h.008c.072 0 .144.007.214.007.056 0 .11-.007.173-.004l.82.855v-.637c-.001-.137-.1-.153-.155-.154h-.048v-.067h.008c.088 0 .175.007.262.007.076 0 .152-.007.23-.007h.008v.067h-.036c-.077.002-.156.008-.159.212v.788c0 .06.003.12.011.173l.002.008h-.01zm.462-1.155c-.14 0-.145.031-.173.157h-.056l.023-.147a.975.975 0 00.01-.147h.046c.015.052.061.05.112.05h.963c.05 0 .097-.002.1-.053l.045.007c-.007.046-.015.093-.02.14-.004.046-.004.094-.004.14l-.056.019c-.004-.064-.013-.166-.138-.166h-.306v.92c0 .134.065.149.155.149h.035v.052c-.072 0-.203-.006-.304-.006-.112 0-.243.006-.316.006v-.052h.036c.102 0 .154-.009.154-.146v-.923h-.306z" fill="#1A1918"/>
    <path d="M7.419 17.917c-.075 0-.205-.006-.305-.006-.112 0-.243.006-.316.006H6.79v-.066h.044c.102-.002.144-.004.146-.138v-.917h-.298v-.014h.314v.931c0 .139-.06.153-.162.153h-.028v.037c.074-.001.2-.008.308-.008.097 0 .221.007.296.008v-.037h-.027c-.09 0-.164-.02-.164-.157v-.928h.315c.125 0 .141.098.145.163l.041-.014c0-.045 0-.09.003-.136l.02-.133-.028-.004c-.01.05-.062.053-.108.052h-.973c-.044 0-.092-.001-.109-.05h-.031a.896.896 0 01-.01.14c-.006.048-.015.094-.021.14h.04c.024-.122.04-.16.179-.158v.015c-.138.002-.135.024-.166.151v.006h-.073l.001-.008c.008-.049.018-.097.023-.148a.885.885 0 00.012-.145v-.008h.059v.006c.013.043.048.043.096.044h.973c.05 0 .09-.002.092-.047v-.008l.01.002.052.008v.007a2.088 2.088 0 00-.02.14c-.005.045-.005.093-.005.139v.006l-.005.001-.067.023v-.01c-.005-.065-.013-.16-.13-.16h-.299v.913c.003.131.059.14.148.142h.043v.066h-.008v.001zm.392-.06h.027c.067 0 .138-.007.138-.098v-.905c0-.09-.071-.1-.138-.1H7.81v-.052c.114 0 .31.007.465.007.158 0 .351-.007.478-.007-.003.089-.001.177.005.265l-.056.014c-.01-.113-.032-.202-.228-.202h-.26v.453h.222c.112 0 .137-.059.147-.152h.056a3.7 3.7 0 000 .4l-.056.01c-.01-.104-.016-.171-.145-.171h-.223v.402c0 .113.108.113.227.113.224 0 .324-.013.38-.21l.052.011a4.258 4.258 0 00-.064.275c-.119 0-.334-.006-.502-.006-.168 0-.39.006-.496.006v-.052" fill="#1A1918"/>
    <path d="M8.803 17.903a3.34 3.34 0 01.06-.262l-.036-.008c-.056.193-.164.21-.384.208-.119 0-.236 0-.237-.12v-.41h.232c.131-.001.144.072.153.17l.04-.008a3.765 3.765 0 010-.387h-.04c-.01.091-.04.154-.155.154h-.23v-.469h.268c.194-.001.226.092.234.2l.04-.01a2.7 2.7 0 01-.003-.251c-.127 0-.316.006-.47.006-.152 0-.342-.006-.455-.006v.037h.017c.067 0 .147.01.147.107v.905c0 .096-.08.107-.147.107H7.82v.037c.109 0 .325-.008.488-.008.165 0 .376.007.496.008zm.007.014c-.12 0-.334-.007-.502-.007-.168 0-.39.008-.496.008h-.008v-.067h.033c.067-.002.13-.007.13-.092v-.905c0-.085-.063-.09-.13-.092h-.034v-.067h.008c.114 0 .309.007.465.007.156 0 .35-.007.477-.007h.008v.008c-.003.088-.002.175.003.263l.001.007-.005.001-.066.017v-.01c-.012-.112-.027-.193-.22-.195h-.252v.438h.214c.108 0 .127-.052.14-.145v-.007h.072v.008a3.331 3.331 0 000 .4v.005l-.006.002-.066.011v-.008c-.013-.105-.014-.163-.138-.164h-.216v.395c0 .106.098.104.22.106.225-.002.315-.012.371-.206l.002-.008.008.002.06.015-.002.007a4.233 4.233 0 00-.064.274v.006H8.81zm.554-.63h.092c.187 0 .288-.065.288-.27 0-.153-.108-.252-.273-.252-.056 0-.08.005-.107.006v.516zm-.239-.401c0-.127-.074-.132-.132-.132H8.96v-.052c.06 0 .176.007.29.007.111 0 .2-.007.3-.007.235 0 .444.059.444.305 0 .156-.112.25-.26.305l.32.442c.052.074.089.094.18.104v.052c-.06 0-.12-.006-.181-.006-.059 0-.119.006-.176.006a4.79 4.79 0 01-.388-.56h-.124v.37c0 .134.068.138.153.138h.035v.052c-.108 0-.216-.006-.322-.006-.09 0-.178.006-.271.006v-.052h.034c.068 0 .132-.03.132-.093v-.88z" fill="#1A1918"/>
    <path d="M9.456 17.28c.185-.002.278-.062.28-.262-.002-.152-.102-.245-.265-.246-.051 0-.074.004-.098.007v.5h.083zm-.091.014h-.008v-.53h.006c.026-.002.051-.006.108-.006.17 0 .28.102.28.26 0 .206-.107.276-.295.276h-.091zm0 .049h.128l.001.003c.122.199.244.385.382.557.058 0 .118-.008.175-.008.06 0 .118.006.175.008v-.039a.215.215 0 01-.179-.105l-.325-.451.01-.003c.146-.054.254-.146.254-.298 0-.24-.202-.296-.436-.297-.099 0-.19.006-.301.006-.11 0-.22-.006-.282-.006v.037h.027c.057 0 .14.008.14.139v.878c0 .07-.07.102-.14.102h-.027v.037c.09 0 .175-.008.263-.008.104 0 .21.007.313.008v-.037h-.025c-.085 0-.161-.01-.161-.146v-.378h.008zm.87.574c-.063 0-.122-.006-.185-.006-.056 0-.116.006-.18.004a4.86 4.86 0 01-.387-.558h-.11v.363c.001.13.058.129.145.131h.041v.066h-.008c-.107 0-.216-.006-.321-.006-.09 0-.176.006-.27.006H8.95v-.066h.043c.066 0 .123-.028.124-.086v-.878c-.002-.124-.067-.124-.124-.125H8.95v-.067h.008c.061 0 .176.007.29.007.112 0 .201-.007.3-.007.236 0 .453.06.453.312 0 .156-.112.253-.256.307l.314.436c.052.072.085.09.176.101h.006v.066h-.008zm1.267-.348l.004-.003v-.649c0-.142-.107-.163-.163-.163h-.04v-.052c.087 0 .172.007.261.007.076 0 .152-.007.23-.007v.052h-.028c-.079 0-.167.014-.167.22v.788c0 .06.002.12.011.174h-.07l-.962-.993v.712c0 .152.032.203.176.203h.032v.052c-.08 0-.161-.006-.242-.006-.084 0-.17.006-.254.006v-.052h.026c.13 0 .168-.081.168-.22v-.728c0-.097-.086-.156-.17-.156h-.024v-.052c.07 0 .144.007.215.007.056 0 .11-.007.166-.007l.83.867z" fill="#1A1918"/>
    <path d="M11.497 17.566l-.001-.002.001.002zm.004.003l.007-.005-.007.005zm.038.36h.062a1.162 1.162 0 01-.01-.167v-.788c0-.207.094-.226.174-.227h.02v-.037c-.073 0-.148.006-.221.006-.086 0-.17-.006-.254-.006v.037h.033c.058 0 .171.024.171.17l-.003.654-.003.003-.007.006-.83-.87c-.056 0-.11.006-.166.006-.07 0-.139-.006-.207-.006v.037h.016c.088 0 .179.061.179.163v.728c0 .139-.043.228-.176.228h-.019v.037c.081-.001.164-.008.246-.008.078 0 .156.007.233.008v-.037h-.024c-.147 0-.184-.06-.184-.21v-.733l.97 1.006zm.071.015l-.077-.003-.948-.979v.693c.003.152.028.194.168.196h.04v.066h-.008c-.081 0-.161-.007-.241-.007-.083 0-.17.008-.254.008h-.008v-.067h.034c.123 0 .159-.075.16-.213v-.728c0-.092-.081-.148-.162-.148h-.032v-.067h.008c.071 0 .144.007.215.007.056 0 .11-.007.172-.005l.82.856v-.637c0-.137-.1-.153-.154-.154h-.049v-.067h.008c.088 0 .175.007.262.007.076 0 .152-.007.23-.007h.007v.067h-.036c-.076.001-.156.008-.158.212v.788c0 .06.002.12.011.173l.001.008h-.009zm.756-1.048h-.004l-.173.49h.348l-.17-.49zm-.272.767c-.019.058-.042.104-.042.134 0 .053.08.06.14.06h.021v.053a3.868 3.868 0 00-.428 0v-.052h.012a.168.168 0 00.162-.112l.298-.794c.024-.065.059-.15.07-.215a.962.962 0 00.17-.074c.005-.002.008-.004.015-.004.005 0 .009 0 .013.005l.016.044.344.905c.022.06.045.125.07.177.022.048.06.068.122.068h.012v.052a6.1 6.1 0 00-.538 0v-.052h.02c.043 0 .116-.007.116-.05a.498.498 0 00-.038-.124l-.072-.202h-.424l-.059.18z" fill="#1A1918"/>
    <path d="M12.358 16.899l.004-.002-.004.002zm-.158.48h.326l-.162-.464-.164.463zm-.022.015l.178-.505h.01v.007h-.001.001v-.008h.006l.177.505h-.371v.001zm.381.508c.092-.003.183-.007.272-.007.087 0 .168.005.25.007v-.036h-.003c-.064 0-.108-.023-.132-.074-.024-.052-.046-.117-.069-.177l-.344-.905-.015-.042c-.002-.002 0-.002-.003-.002h-.003a.034.034 0 00-.011.003.744.744 0 01-.167.07c-.01.064-.044.15-.069.215l-.299.794a.178.178 0 01-.17.118h-.002v.036c.063-.003.127-.007.193-.007.072 0 .146.005.218.007v-.036h-.012c-.061 0-.147-.007-.148-.068 0-.035.022-.079.04-.137l.008.002-.008-.003.062-.185h.435l.075.206a.47.47 0 01.038.127c-.002.053-.082.057-.123.058h-.013v.036zm.529.016a5.329 5.329 0 00-.256-.008c-.092 0-.185.004-.28.008h-.009v-.068h.029c.043 0 .107-.009.107-.042a.51.51 0 00-.037-.122l-.07-.196h-.412l-.059.175c-.019.059-.04.105-.04.133 0 .042.07.052.133.052h.027v.068h-.008a4.351 4.351 0 00-.225-.008c-.067 0-.134.004-.202.008h-.008v-.068h.02a.158.158 0 00.154-.107l.3-.794c.023-.064.057-.15.073-.219.058-.018.133-.054.17-.075.005-.001.01-.004.018-.004.004 0 .014.002.02.01l.017.044.343.905c.023.06.045.124.07.176.02.046.055.064.115.064h.02v.068h-.01zm.083-1.129c-.14 0-.146.031-.173.157h-.056c.007-.048.015-.097.021-.147a.895.895 0 00.012-.147h.045c.014.052.062.05.112.05h.963c.05 0 .096-.002.1-.053l.045.007c-.008.047-.014.094-.02.14-.004.046-.004.094-.004.14l-.056.019c-.003-.064-.013-.166-.138-.166h-.306v.92c0 .134.066.149.155.149h.035v.052c-.072 0-.203-.006-.304-.006-.112 0-.243.006-.316.006v-.052h.036c.104 0 .155-.009.155-.146v-.923h-.306z" fill="#1A1918"/>
    <path d="M13.906 17.917c-.073 0-.204-.006-.304-.006-.112 0-.242.006-.316.006h-.008v-.066h.043c.104-.002.144-.004.147-.138v-.917h-.297v-.014h.313v.931c0 .139-.06.153-.163.153h-.027v.037c.074-.001.2-.008.308-.008.097 0 .222.007.296.008v-.037h-.028c-.09 0-.162-.02-.162-.157v-.928h.314c.126 0 .142.098.145.163l.04-.014c0-.045 0-.09.005-.136a2.39 2.39 0 01.019-.132l-.028-.005c-.009.05-.062.053-.108.052h-.973c-.045 0-.092-.001-.109-.05h-.03a.905.905 0 01-.012.14c-.005.049-.014.094-.021.14h.04c.024-.122.04-.16.18-.158v.015c-.138.002-.135.024-.166.151v.006h-.072v-.008c.008-.049.017-.097.023-.147a.892.892 0 00.011-.147v-.008h.06v.007c.014.043.049.043.096.044h.973c.051 0 .09-.002.092-.047v-.008l.01.002.052.008-.001.007a2.85 2.85 0 00-.02.14c-.004.045-.004.093-.004.139v.006l-.006.001-.066.023v-.01c-.004-.065-.012-.16-.13-.16h-.298v.913c.001.131.057.14.146.142h.044v.066h-.008v.001zm.403-.06h.026c.068 0 .138-.007.138-.098v-.905c0-.09-.07-.1-.138-.1h-.026v-.052c.072 0 .184.007.276.007.093 0 .205-.007.294-.007v.052h-.027c-.067 0-.139.008-.139.1v.905c0 .09.072.099.14.099h.026v.052c-.09 0-.202-.006-.296-.006-.091 0-.201.006-.274.006v-.052z" fill="#1A1918"/>
    <path d="M14.87 17.903v-.037h-.017c-.067 0-.146-.01-.146-.107v-.906c0-.096.08-.106.146-.106h.018v-.037c-.087 0-.194.006-.285.006-.089 0-.196-.006-.268-.006v.037h.017c.067 0 .147.01.147.106v.906c0 .096-.08.107-.147.107h-.017v.037c.072-.002.177-.008.266-.008.09 0 .199.007.287.008zm.009.014c-.09 0-.202-.007-.295-.007-.092 0-.201.008-.274.008h-.008v-.067h.033c.068-.002.13-.007.13-.092v-.906c0-.084-.062-.09-.13-.091h-.033v-.067h.008c.072 0 .184.007.276.007.093 0 .205-.007.293-.007h.008v.067h-.034c-.068.001-.13.007-.13.091v.906c0 .085.062.09.13.092h.034v.066h-.008zm.772-.057c.364 0 .426-.296.426-.548 0-.253-.147-.56-.457-.56-.327 0-.424.27-.424.502 0 .31.154.606.456.606zm-.028-1.184c.399 0 .716.229.716.597 0 .398-.308.663-.706.663-.396 0-.698-.248-.698-.62 0-.361.3-.64.688-.64z" fill="#1A1918"/>
    <path d="M15.188 17.254c0-.233.1-.51.432-.51.317.002.464.313.465.568 0 .252-.064.555-.433.555v-.014c.356 0 .416-.289.417-.541 0-.252-.145-.551-.449-.552-.32 0-.416.263-.416.494 0 .309.152.598.448.599v.014c-.31 0-.464-.301-.464-.612v-.001zm-.261.06c0-.363.304-.644.697-.645v.015c-.384 0-.681.274-.681.63 0 .369.298.614.69.614.394 0 .698-.26.699-.655 0-.364-.313-.588-.708-.589v-.016c.4.002.722.232.723.605 0 .402-.312.67-.714.67-.399 0-.705-.252-.706-.628zm2.67.255l.004-.003v-.649c0-.142-.106-.163-.163-.163h-.04v-.052c.087 0 .174.007.26.007.078 0 .154-.007.23-.007v.052h-.028c-.078 0-.166.014-.166.22v.788c0 .06.002.12.011.174h-.071l-.96-.993v.712c0 .152.031.203.175.203h.031v.052c-.08 0-.16-.006-.24-.006-.084 0-.17.006-.255.006v-.052h.027c.128 0 .168-.081.168-.22v-.728c0-.097-.086-.156-.17-.156h-.025v-.052c.071 0 .144.007.215.007.056 0 .11-.007.166-.007l.832.867z" fill="#1A1918"/>
    <path d="M17.592 17.566l-.001-.002.001.002zm.005.003l.006-.005-.006.005zm.037.36h.061a1.081 1.081 0 01-.01-.167v-.788c0-.207.095-.226.175-.227h.02v-.037c-.073 0-.147.006-.222.006-.084 0-.168-.006-.253-.006v.037h.033c.058 0 .171.024.171.17l-.002.654-.004.003-.006.006-.831-.87c-.055 0-.11.006-.166.006-.07 0-.139-.006-.207-.006v.037h.016c.088 0 .178.061.178.163v.728c0 .139-.041.228-.176.228h-.018v.037c.082-.001.164-.008.246-.008.078 0 .156.007.232.008v-.037h-.024c-.146 0-.182-.06-.182-.21v-.733l.969 1.006zm.072.015l-.078-.003-.948-.979v.693c.003.152.027.194.168.195h.04v.067h-.008c-.08 0-.16-.006-.24-.006-.085 0-.17.006-.255.006h-.008v-.067h.034c.124 0 .159-.074.16-.212v-.728c0-.092-.081-.148-.162-.148h-.032v-.067h.008c.072 0 .144.007.215.007.055 0 .109-.007.172-.004l.82.855v-.637c0-.137-.099-.153-.154-.154h-.048v-.067h.008c.088 0 .173.007.26.007.077 0 .153-.007.23-.007h.008v.067h-.036c-.077.002-.156.008-.157.212v.788c0 .06.001.12.01.173v.008h-.007zm.755-1.048h-.004l-.174.49h.35l-.172-.49zm-.273.767c-.018.058-.04.104-.04.134 0 .053.079.06.14.06h.02v.053a3.853 3.853 0 00-.427 0v-.052h.01a.168.168 0 00.163-.112l.299-.794c.024-.065.058-.15.069-.215a.936.936 0 00.17-.074c.006-.002.009-.004.015-.004.005 0 .008 0 .012.005l.018.044.344.905c.02.06.044.125.068.177.022.048.062.068.124.068h.01v.052a6.1 6.1 0 00-.537 0v-.052h.02c.043 0 .117-.007.117-.05a.526.526 0 00-.038-.124l-.073-.202h-.424l-.06.18z" fill="#1A1918"/>
    <path d="M18.454 16.899l.003-.002-.003.002zm-.16.48h.328l-.163-.464-.164.463zm-.022.014l.18-.504h.008v.007h.001v-.008h.006l.176.505h-.37zm.382.509c.092-.003.184-.007.272-.007.087 0 .168.004.25.007v-.036h-.004c-.063 0-.107-.023-.13-.074-.025-.052-.047-.117-.07-.177l-.343-.905a1.842 1.842 0 01-.016-.041l-.003-.003h-.003c-.004 0-.006.001-.01.003a.723.723 0 01-.168.07c-.01.064-.045.15-.069.215l-.299.794a.176.176 0 01-.17.118h-.003v.036c.064-.003.129-.007.194-.007.072 0 .146.004.218.007v-.036h-.013c-.06 0-.145-.007-.148-.069 0-.034.024-.078.042-.137l.007.003-.007-.003.062-.185h.435l.074.206a.49.49 0 01.038.127c-.003.053-.081.057-.124.058h-.012v.036zm.53.016c-.085-.003-.169-.008-.258-.008-.091 0-.184.005-.28.008h-.008v-.067h.028c.044 0 .108-.01.109-.043a.505.505 0 00-.038-.122l-.071-.196h-.412l-.058.175c-.018.06-.04.105-.04.132 0 .043.07.054.131.054h.028v.067h-.008c-.074-.003-.15-.008-.225-.008-.067 0-.134.005-.201.008h-.008v-.067h.018a.162.162 0 00.156-.108l.298-.794c.024-.064.058-.15.074-.219a.997.997 0 00.17-.075.05.05 0 01.018-.003.02.02 0 01.02.01c.006.013.01.03.017.043l.344.905c.022.06.044.124.069.176.022.046.056.064.115.064h.02v.068h-.009zm.47-.178c0 .07.053.09.113.097.076.006.16.006.246-.003a.27.27 0 00.178-.093.388.388 0 00.059-.125h.053c-.02.099-.046.196-.068.294-.165 0-.33-.006-.493-.006-.164 0-.328.006-.493.006v-.052h.026c.068 0 .14-.009.14-.116v-.889c0-.09-.072-.099-.14-.099h-.026v-.052c.098 0 .196.007.294.007.096 0 .19-.007.285-.007v.052h-.048c-.07 0-.125.003-.125.094v.893-.001z" fill="#1A1918"/>
    <path d="M20.228 17.903c.022-.095.046-.186.066-.28h-.039a.362.362 0 01-.057.122.279.279 0 01-.185.096 1.36 1.36 0 01-.248.004c-.06-.007-.12-.03-.12-.105v-.892c0-.097.066-.1.136-.1h.038v-.038c-.092 0-.183.006-.276.006-.096 0-.192-.006-.286-.006v.037h.018c.066 0 .148.01.148.106v.89c0 .11-.081.123-.148.123h-.018v.037c.16 0 .322-.008.485-.008.162 0 .324.007.486.008zm.007.014c-.165 0-.33-.006-.493-.006-.164 0-.328.006-.494.006h-.008v-.066h.035c.068-.001.132-.006.132-.109v-.89c0-.083-.064-.089-.132-.09h-.034v-.067h.008c.1 0 .196.007.294.007.096 0 .19-.007.285-.007h.007v.067h-.054c-.072.001-.118-.001-.12.086v.893c.002.064.046.081.106.088.081.006.163.005.244-.002a.267.267 0 00.174-.09.37.37 0 00.056-.123l.002-.006h.07l-.002.01c-.02.099-.046.195-.068.294l-.003.005h-.005zm.017-1.062h.024c.026 0 .038-.02.038-.05 0-.033-.02-.044-.04-.044h-.022v.094zm-.067.107v-.01c.024-.003.029-.003.029-.018v-.149c0-.022-.003-.029-.028-.027v-.01h.102c.035 0 .067.016.067.052 0 .031-.019.053-.047.062l.032.046a.221.221 0 00.045.047v.007h-.04c-.018 0-.034-.04-.071-.093h-.022v.067c0 .013.005.013.029.016v.01h-.096zm.1.057a.161.161 0 00.158-.164.162.162 0 00-.159-.164.162.162 0 00-.158.164.162.162 0 00.158.164zm0-.365c.114 0 .2.088.2.201a.197.197 0 01-.2.202.198.198 0 01-.2-.201c0-.114.086-.202.2-.202z" fill="#1A1918"/>
    <path d="M2.48 20.44h19.04V4.484H2.48V20.44zM2 4h20v16.923H2V4z" fill="#0069AA"/>
    <path d="M13.02 10.249a1.923 1.923 0 00-1.193-1.793v3.586a1.923 1.923 0 001.193-1.793zm-2.523 1.792V8.455a1.924 1.924 0 00-1.192 1.794 1.923 1.923 0 001.192 1.792zm.666-4.824c-1.62 0-2.93 1.357-2.93 3.032 0 1.673 1.311 3.03 2.93 3.03 1.618 0 2.93-1.357 2.93-3.03 0-1.675-1.311-3.031-2.93-3.032zm-.008 6.349c-1.77.008-3.23-1.476-3.23-3.283 0-1.974 1.46-3.34 3.23-3.34h.83c1.75 0 3.349 1.365 3.349 3.34 0 1.805-1.599 3.283-3.348 3.283h-.83z" fill="#0069AA"/>
</svg>
