<svg width="24" height="24" fill="none" xmlns="http://www.w3.org/2000/svg">
    <path d="M21.857 13.021s-5.426 3.784-15.364 5.477h15.364V13.02z" fill="#E7792B"/>
    <path d="M21.928 6L2 6.003v12.638h20L21.999 6h-.071zm-.072.144v12.353H2.146L2.143 6.144h19.712z" fill="#1A1918"/>
    <path d="M3.749 9.868H2.92v2.86h.824c.438 0 .755-.103 1.033-.33.33-.27.523-.672.525-1.098 0-.844-.638-1.432-1.554-1.432zm.66 2.148c-.178.158-.408.227-.773.227h-.151v-1.89h.15c.366 0 .587.065.774.231a.958.958 0 01.312.712.975.975 0 01-.312.72zm1.153-2.148h.565v2.86h-.565v-2.86zm1.946 1.097c-.34-.123-.439-.206-.439-.36 0-.18.177-.317.42-.317.17 0 .308.069.455.232l.296-.383a1.275 1.275 0 00-.85-.316c-.513 0-.903.351-.903.82 0 .393.182.595.712.783.22.077.334.128.39.163.105.062.17.174.17.296 0 .232-.187.403-.438.403a.67.67 0 01-.617-.381l-.364.347c.26.377.572.544 1.001.544.587 0 .999-.385.999-.939 0-.454-.19-.66-.833-.892zm1.01.335c0 .84.668 1.492 1.527 1.492.243 0 .452-.047.709-.167v-.656c-.226.223-.426.313-.683.313-.568 0-.971-.408-.971-.986 0-.55.416-.983.945-.983.27 0 .474.095.709.322v-.656a1.457 1.457 0 00-.696-.176c-.854 0-1.54.665-1.54 1.497zm6.711.488l-.772-1.92h-.616l1.228 2.933h.303l1.25-2.933h-.61l-.783 1.92zm1.65.94h1.6v-.485h-1.036v-.771h.998v-.485h-.999v-.635h1.037v-.484h-1.6v2.86zm3.835-2.016c0-.535-.373-.844-1.024-.844h-.837v2.86h.564v-1.15h.074l.78 1.15h.695l-.91-1.205c.424-.086.658-.373.658-.811zm-1.132.473h-.165v-.867h.174c.351 0 .542.146.542.424 0 .287-.19.443-.551.443z" fill="#1A1918"/>
    <path d="M12.462 12.82c.842 0 1.524-.676 1.524-1.51 0-.835-.682-1.512-1.524-1.512s-1.524.677-1.524 1.511c0 .835.682 1.511 1.524 1.511z" fill="#E7792B"/>
</svg>
