<svg width="24" height="24" viewBox="0 0 24 24" fill="none" xmlns="http://www.w3.org/2000/svg">
    <mask id="a" maskUnits="userSpaceOnUse" x="2" y="3" width="20" height="19">
        <path d="M21.608 3H2.392A.392.392 0 002 3.392v17.55c0 .216.175.391.392.391h19.216a.392.392 0 00.392-.391V3.392A.392.392 0 0021.608 3z" fill="#fff"/>
    </mask>
    <g mask="url(#a)">
        <path d="M21.608 3H2.392A.392.392 0 002 3.392v17.55c0 .216.175.391.392.391h19.216a.392.392 0 00.392-.391V3.392A.392.392 0 0021.608 3z" stroke="#01509B" stroke-width="1.56"/>
    </g>
    <g opacity=".9">
        <path opacity=".9" d="M19.321 19.034h-7.8c-.64 0-1.074-.627-1.074-1.075 0-.414.012-11.403 0-11.829-.01-.425.748-1.085 1.258-1.085.509.01 7.605 0 7.605 0v5.541h-4.137V7.96s-.271-.01-.618 0c-.174.012-.466.182-.466.458-.01.574 0 7.213 0 7.383 0 .159.108.372.466.383.357.021.628 0 .628 0v-2.841h4.139v5.692" fill="#E11A1D"/>
        <path opacity=".9" d="M9.115 7.938s-.314-.02-.596-.01c-.292.01-.541.287-.541.458v2.201h1.137V7.938zm-3.51-2.893c.857.01 7.096 0 7.096 0v8.298l-4.724-.012v2.436c0 .043.12.405.542.426h.586V14.14h3.606l-.01 4.893H5.572s-1.073-.171-1.17-1.191c.012-.383 0-11.543 0-11.734 0-.18.413-1.064 1.204-1.064v.001z" fill="#00509B"/>
    </g>
</svg>
