<svg width="24" height="24" viewBox="0 0 24 24" fill="none" xmlns="http://www.w3.org/2000/svg">
    <path fill-rule="evenodd" clip-rule="evenodd" d="M20.02 6.025A9.955 9.955 0 0122 12c0 5.522-4.478 10-10 10S2 17.522 2 12C2 6.477 6.478 2 12 2a9.988 9.988 0 018.02 4.025z" fill="#050013"/>
    <path fill-rule="evenodd" clip-rule="evenodd" d="M7.703 9.32a3.074 3.074 0 012.988 2.35l-1.238.543v-.003l-1.268.557-3.04 1.328a3.074 3.074 0 012.56-4.776h-.002zm1.32 1.91l-3.07 1.323a1.758 1.758 0 013.07-1.322v-.001zm.828 3.361c-1.101 1.044-2.557 1.146-3.835.37l.722-1.099c.728.435 1.46.364 2.194-.211l.92.94zm1.25-.761l-.007-5.81h1.101v5.654c0 .053.007.101.078.13l.957.372-.43 1.122-1.123-.475c-.425-.18-.574-.44-.574-.993" fill="#fff"/>
    <path fill-rule="evenodd" clip-rule="evenodd" d="M15.248 13.732a1.751 1.751 0 01-.132-2.656l-.711-1.153a3.089 3.089 0 00.17 4.976l.673-1.167" fill="#009DD7"/>
    <path fill-rule="evenodd" clip-rule="evenodd" d="M15.73 10.697a1.754 1.754 0 012.235 1.032l1.362-.113a3.093 3.093 0 00-4.166-2.133l.569 1.214" fill="#FFF200"/>
    <path fill-rule="evenodd" clip-rule="evenodd" d="M18.075 12.433a1.755 1.755 0 01-2.18 1.616l-.534 1.237a3.09 3.09 0 004.05-2.811l-1.336-.042z" fill="#E33206"/>
</svg>
