<svg width="24" height="24" viewBox="0 0 24 24" fill="none" xmlns="http://www.w3.org/2000/svg">
    <path d="M5 4a1 1 0 011-1h8.614a1 1 0 01.672.259l3.386 3.068a1 1 0 01.328.741V20a1 1 0 01-1 1H6a1 1 0 01-1-1V4z" stroke="currentColor" stroke-width="2"/>
    <path d="M11.75 5c0 .265-.132.52-.366.707A1.424 1.424 0 0110.5 6a1.42 1.42 0 01-.884-.293C9.382 5.52 9.25 5.265 9.25 5V3h2.5v2z" stroke="currentColor" stroke-width="1.75" stroke-linecap="round" stroke-linejoin="round"/>
    <path d="M10.75 9h-.5m.5 3h-.5m.5 3h-.5m.5 3h-.5" stroke="currentColor" stroke-width="2" stroke-linecap="round" stroke-linejoin="round"/>
</svg>
