<svg width="24" height="24" viewBox="0 0 24 24" fill="none" xmlns="http://www.w3.org/2000/svg">
    <path fill-rule="evenodd" clip-rule="evenodd" d="M5.5 6h13a2 2 0 012 2v8a2 2 0 01-2 2h-13a2 2 0 01-2-2V8a2 2 0 012-2zm0 .5A1.5 1.5 0 004 8v8a1.5 1.5 0 001.5 1.5h13A1.5 1.5 0 0020 16V8a1.5 1.5 0 00-1.5-1.5h-13z" fill="#D8DDE1"/>
    <g clip-path="url(#flag_mt_small_svg__clip0)" fill-rule="evenodd" clip-rule="evenodd">
        <path d="M4 7.895v8.21c0 .77.614 1.395 1.37 1.395H12v-11H5.37C4.614 6.5 4 7.125 4 7.895z" fill="#fff"/>
        <path d="M18.654 6.5H12v11h6.654c.744 0 1.346-.624 1.346-1.395v-8.21c0-.77-.602-1.395-1.346-1.395z" fill="#EE2734"/>
        <path d="M6.967 8.711a.221.221 0 00-.19-.19.27.27 0 01.118.074c.037.037.062.08.073.116h-.001zm.59.033v.576h-.584a.152.152 0 00-.003.02h.608v-.615H6.97l.002.021h.584l.001-.002zm-2.193.576v-.575h.584c0-.008.001-.013.003-.02h-.608v.614h.608a.08.08 0 01-.003-.02h-.584zm1.38.82h-.568v-.59c-.008 0-.013 0-.02-.003v.615h.61v-.615a.097.097 0 01-.022.002v.59zm.032-.596a.223.223 0 00.19-.19.298.298 0 01-.073.115.275.275 0 01-.116.076v-.001zm-.822-.191a.221.221 0 00.189.19.277.277 0 01-.115-.074.266.266 0 01-.074-.115v-.001zm.19-.833a.224.224 0 00-.192.191.312.312 0 01.075-.116.266.266 0 01.115-.074l.002-.001zm.032-.596h.568v.59l.02.003v-.614h-.61v.614a.096.096 0 01.02-.002v-.59l.002-.001z" fill="#FF172D"/>
        <path d="M7.516 8.786H6.96c0-.042-.012-.105-.083-.178-.072-.071-.122-.083-.173-.085v-.558h-.488v.563c-.036.008-.096.01-.168.082-.072.073-.083.131-.084.178h-.56v.492h.556c0 .032.002.094.074.166.072.073.124.087.186.091-.001 0-.003.19-.005.565h.488v-.56a.27.27 0 00.184-.096.224.224 0 00.068-.17l.56.005v-.494l.001-.001z" fill="#CECCCC"/>
    </g>
    <defs>
        <clipPath id="flag_mt_small_svg__clip0">
            <path fill="#fff" d="M4 6.5h16v11H4z"/>
        </clipPath>
    </defs>
</svg>
