<svg width="24" height="24" fill="none" xmlns="http://www.w3.org/2000/svg">
    <path fill-rule="evenodd" clip-rule="evenodd" d="M5.5 6h13a2 2 0 012 2v8a2 2 0 01-2 2h-13a2 2 0 01-2-2V8a2 2 0 012-2zm0 .5A1.5 1.5 0 004 8v8a1.5 1.5 0 001.5 1.5h13A1.5 1.5 0 0020 16V8a1.5 1.5 0 00-1.5-1.5h-13z" fill="#D8DDE1"/>
    <g clip-path="url(#clip0)">
        <path d="M18.4 6.5H5.6c-.884 0-1.6.724-1.6 1.618v7.764c0 .894.716 1.618 1.6 1.618h12.8c.884 0 1.6-.724 1.6-1.618V8.118c0-.894-.716-1.618-1.6-1.618z" fill="#fff"/>
        <path fill-rule="evenodd" clip-rule="evenodd" d="M12.627 13.684c-.298.137-.428.48-.376.809.23-.169.445-.573.377-.81zm.387-.162c-.208.175-.49.531-.323.809.25-.146.417-.642.323-.81zm.397-.243c-.202.162-.39.575-.23.81.23-.163.309-.578.23-.81zm.438-.242c-.222.228-.33.582-.176.808.2-.21.34-.62.176-.808zm.495-.355c-.219.148-.388.68-.25.9.274-.147.346-.704.25-.9zm-.02.76c.463-.113.694-.392.717-.648-.22-.008-.758.336-.718.647zm-.244.383c.28.262.835-.052.88-.194-.168-.052-.637-.052-.88.194zm-.32.27c.072.17.65.219.8.043-.213-.206-.444-.132-.8-.044v.001zm-.56.21c-.008.036.428.377.8.229-.062-.148-.465-.4-.8-.23zm-.4.226c.204.38.635.293.8.214-.14-.174-.494-.332-.8-.214zm-.448.203c.146.3.323.44.79.396-.077-.16-.425-.437-.79-.396zm-1.164-.243c.054-.329-.077-.671-.376-.809-.068.235.147.64.376.809zm-.518-.162c.166-.277-.116-.635-.323-.809-.095.166.073.664.323.81zm-.49-.243c.16-.234-.028-.647-.23-.808-.08.23 0 .647.23.808zm-.668-1.05c-.163.19-.024.6.176.81.155-.227.047-.581-.176-.81zm-.392-.354c-.096.197-.024.753.252.9.137-.221-.032-.752-.252-.9zm-.099.742c.039-.306-.485-.638-.7-.63.023.247.246.52.7.63zm.26.4c-.243-.247-.713-.247-.88-.194.045.141.6.456.88.194zm.4.27c-.357-.09-.587-.162-.8.043.151.177.727.126.8-.044zm.48.21c-.335-.17-.738.08-.8.229.371.149.807-.192.8-.229zm.48.226c-.306-.118-.66.041-.8.215.164.08.595.166.8-.214zm-.32.519c.423.045.587-.093.72-.392-.333-.04-.651.234-.72.392z" fill="#006750"/>
        <path fill-rule="evenodd" clip-rule="evenodd" d="M8.32 11.532c.234.26.243.322.248.464.045.022.516.312.736.407.221.096.861.01.861.01s.086-.02.152.018c.068.039.22.222.22.3 0 .077-.009.116-.009.116s.132-.008.344.028c-.013-.052-.219-.202-.028-.415.192-.213 1.882-.827 2.143-.734.01-.065-.047-.484.22-.669.272-.206.664.093.736.068.035-.012.756-.088.776-.117.017-.029-.596-.585-.661-1.015-.066-.43.363-.59.43-.59s.124 0 .192-.049c.066-.048-.01-.144.162-.3.172-.153.776-.55.851-.608.077-.058.755-.494.794-.532.038-.038.038-.184.076-.212.039-.03-.124.067-.21.105-.085.04-1.022.513-1.07.534-.048.018-.192.008-.192.008s-.124.165-.18.223c-.058.057-1.57.704-1.732.716a11.415 11.415 0 01-2.696-.154c0 .154.048.763-.03.908-.08.146-.773.04-1.228.09-.456.048-.38.619-.666.606-.104-.004-.392-.27-.42-.27-.03 0-.052.804.182 1.063v.001z" fill="#FF810C"/>
    </g>
    <defs>
        <clipPath id="clip0">
            <path fill="#fff" d="M4 6.5h16v11H4z"/>
        </clipPath>
    </defs>
</svg>
