<svg width="24" height="24" viewBox="0 0 24 24" fill="none" xmlns="http://www.w3.org/2000/svg">
<path fill-rule="evenodd" clip-rule="evenodd" d="M5.5 6H18.5C19.6046 6 20.5 6.89543 20.5 8V16C20.5 17.1046 19.6046 18 18.5 18H5.5C4.39543 18 3.5 17.1046 3.5 16V8C3.5 6.89543 4.39543 6 5.5 6ZM5.5 6.5C4.67157 6.5 4 7.17157 4 8V16C4 16.8284 4.67157 17.5 5.5 17.5H18.5C19.3284 17.5 20 16.8284 20 16V8C20 7.17157 19.3284 6.5 18.5 6.5H5.5Z" fill="#D8DDE1"/>
<g clip-path="url(#clip0)">
<path fill-rule="evenodd" clip-rule="evenodd" d="M10.9242 17.5H18.6402C19.3911 17.5 20 16.8752 20 16.1044V13.1038H10.9242V17.5ZM18.6402 6.5H10.9242V10.8962H20V7.89554C20 7.12474 19.3911 6.5 18.6402 6.5ZM4 13.1038V16.1044C4 16.8752 4.60896 17.5 5.35984 17.5H8.7728V13.1038H4ZM8.7728 6.5H5.36C4.6088 6.5 4 7.12474 4 7.89554V10.8963H8.77288V6.5" fill="#EF2130"/>
<path fill-rule="evenodd" clip-rule="evenodd" d="M8.78223 6.5H10.9755V17.5H8.78223V6.5Z" fill="white"/>
<path fill-rule="evenodd" clip-rule="evenodd" d="M4 13.0795V10.8621H20V13.0795H4Z" fill="white"/>
<path fill-rule="evenodd" clip-rule="evenodd" d="M4 12.5705V11.4436H20V12.5705H4Z" fill="#002868"/>
<path fill-rule="evenodd" clip-rule="evenodd" d="M9.32129 6.5H10.4359V17.5H9.32129V6.5Z" fill="#002968"/>
</g>
<defs>
<clipPath id="clip0">
<rect x="4" y="6.5" width="16" height="11" fill="white"/>
</clipPath>
</defs>
</svg>
