<svg width="24" height="24" viewBox="0 0 24 24" fill="none" xmlns="http://www.w3.org/2000/svg">
    <path fill-rule="evenodd" clip-rule="evenodd" d="M5.5 6h13a2 2 0 012 2v8a2 2 0 01-2 2h-13a2 2 0 01-2-2V8a2 2 0 012-2zm0 .5A1.5 1.5 0 004 8v8a1.5 1.5 0 001.5 1.5h13A1.5 1.5 0 0020 16V8a1.5 1.5 0 00-1.5-1.5h-13z" fill="#D8DDE1"/>
    <g clip-path="url(#clip0)" fill-rule="evenodd" clip-rule="evenodd">
        <path d="M10.924 17.5h7.716c.751 0 1.36-.625 1.36-1.396v-3h-9.076V17.5zm7.716-11h-7.716v4.396H20v-3c0-.771-.609-1.396-1.36-1.396zM4 13.104v3c0 .771.609 1.396 1.36 1.396h3.413v-4.396H4zM8.773 6.5H5.36C4.609 6.5 4 7.125 4 7.896v3h4.773V6.5" fill="#EF2130"/>
        <path d="M8.782 6.5h2.194v11H8.782v-11z" fill="#fff"/>
        <path d="M4 13.08v-2.218h16v2.217H4z" fill="#fff"/>
        <path d="M4 12.57v-1.126h16v1.126H4z" fill="#002868"/>
        <path d="M9.321 6.5h1.115v11H9.32v-11z" fill="#002968"/>
    </g>
    <defs>
        <clipPath id="clip0">
            <path fill="#fff" d="M4 6.5h16v11H4z"/>
        </clipPath>
    </defs>
</svg>
