<svg width="24" height="24" fill="none" xmlns="http://www.w3.org/2000/svg">
    <path fill-rule="evenodd" clip-rule="evenodd" d="M5.5 6h13a2 2 0 012 2v8a2 2 0 01-2 2h-13a2 2 0 01-2-2V8a2 2 0 012-2zm0 .5A1.5 1.5 0 004 8v8a1.5 1.5 0 001.5 1.5h13A1.5 1.5 0 0020 16V8a1.5 1.5 0 00-1.5-1.5h-13z" fill="#D8DDE1"/>
    <g clip-path="url(#clip0)" fill-rule="evenodd" clip-rule="evenodd">
        <path d="M13.336 17.5h4.69l-4.69-3.303V17.5zM4 13.806v2.299c0 .087.009.173.024.256l3.583-2.495L4 13.806zm.024-6.168A1.422 1.422 0 004 7.896v2.185l3.579.06-3.555-2.503zM18.18 6.5h-4.844v3.374L18.18 6.5zM20 10.08V7.896c0-.088-.009-.175-.025-.258l-3.554 2.503 3.579-.06zm-.024 6.28c.015-.083.024-.169.024-.256v-2.3l-3.607.06 3.583 2.496zM10.663 6.5H5.82l4.844 3.374V6.5zm-4.69 11h4.69v-3.304L5.973 17.5" fill="#1A3179"/>
        <path d="M10.663 9.874L5.82 6.5h-.46c-.288 0-.57.095-.802.27l4.77 3.422H8.13l-4-2.893c-.05.107-.085.22-.107.338L7.58 10.14 4 10.08v.745l4.654.073 2.544.039V6.5h-.535v3.374zm2.139 3.297v4.328h.534v-3.303l4.69 3.303h.614c.329 0 .63-.12.865-.319l-4.831-3.264h1.195l4.034 2.701c.033-.083.057-.169.073-.257l-3.583-2.495 3.607-.06v-.745l-4.66.072-2.538.039zM4 13.06v.745l3.607.06-3.583 2.495a1.4 1.4 0 00.47.82l4.832-3.264h1.196L5.378 17.5h.595l4.69-3.303V17.5h.535v-4.328l-2.54-.04L4 13.06zm12.42-2.92l3.555-2.503a1.399 1.399 0 00-.533-.866l-4.768 3.42h-1.197l5.147-3.69h-.444l-4.844 3.373V6.5h-.534v4.437l2.544-.04L20 10.826v-.744l-3.58.06z" fill="#fff"/>
        <path d="M15.346 10.898l-2.544.039V6.5h-1.604v4.437l-2.544-.04L4 10.826v2.235l4.659.072 2.539.039V17.5h1.604v-4.328l2.539-.04L20 13.06v-2.235l-4.654.073" fill="#FF2B2D"/>
        <path d="M8.13 10.192h1.196L4.556 6.77a1.395 1.395 0 00-.425.528l4 2.893zm5.347 0h1.196l4.769-3.421a1.33 1.33 0 00-.803-.271h-.016l-5.146 3.692zm1.196 3.724l4.831 3.264a1.39 1.39 0 00.398-.563l-4.034-2.7h-1.195zm-5.347 0L4.494 17.18c.243.207.55.32.865.32h.018l5.144-3.584H9.326z" fill="#FF2B2D"/>
    </g>
    <defs>
        <clipPath id="clip0">
            <path fill="#fff" d="M4 6.5h16v11H4z"/>
        </clipPath>
    </defs>
</svg>
