<svg width="24" height="24" viewBox="0 0 24 24" fill="none" xmlns="http://www.w3.org/2000/svg">
    <path fill-rule="evenodd" clip-rule="evenodd" d="M5.5 6h13a2 2 0 012 2v8a2 2 0 01-2 2h-13a2 2 0 01-2-2V8a2 2 0 012-2zm0 .5A1.5 1.5 0 004 8v8a1.5 1.5 0 001.5 1.5h13A1.5 1.5 0 0020 16V8a1.5 1.5 0 00-1.5-1.5h-13z" fill="#D8DDE1"/>
    <g clip-path="url(#clip0)" fill-rule="evenodd" clip-rule="evenodd">
        <path d="M4 10.159h16V8.113c0-.89-.716-1.613-1.6-1.613H5.6c-.884 0-1.6.723-1.6 1.613v2.046z" fill="#fff"/>
        <path d="M4 13.898h16V10.13H4v3.768z" fill="#00966E"/>
        <path d="M4 15.887c0 .89.716 1.613 1.6 1.613h12.8c.884 0 1.6-.723 1.6-1.613v-2.046H4v2.046z" fill="#D62612"/>
    </g>
    <defs>
        <clipPath id="clip0">
            <path fill="#fff" d="M4 6.5h16v11H4z"/>
        </clipPath>
    </defs>
</svg>
