<svg width="24" height="24" fill="none" xmlns="http://www.w3.org/2000/svg">
    <path fill-rule="evenodd" clip-rule="evenodd" d="M5.5 6h13a2 2 0 012 2v8a2 2 0 01-2 2h-13a2 2 0 01-2-2V8a2 2 0 012-2zm0 .5A1.5 1.5 0 004 8v8a1.5 1.5 0 001.5 1.5h13A1.5 1.5 0 0020 16V8a1.5 1.5 0 00-1.5-1.5h-13z" fill="#D8DDE1"/>
    <g clip-path="url(#clip0)" fill-rule="evenodd" clip-rule="evenodd">
        <path d="M5.6 6.5h12.72c.928 0 1.68.76 1.68 1.699v7.603a1.69 1.69 0 01-1.68 1.698H5.68A1.69 1.69 0 014 15.802V8.117C4 7.224 4.716 6.5 5.6 6.5z" fill="#fff"/>
        <path d="M19.786 7.309H12V6.5h6.4c.592 0 1.11.325 1.386.809zM12 8.986h8v-.81h-8v.81zm0 1.702h8V9.88h-8v.808zm0 1.703h8v-.808h-8v.808zm-8 1.703h16v-.809H4v.81zm0 1.703h16v-.809H4v.81zm15.786.894H4.214c.276.484.794.809 1.386.809h12.8c.593 0 1.11-.325 1.386-.809z" fill="#FF2B2D"/>
        <path d="M4 12.391h8V6.5H5.6c-.884 0-1.6.724-1.6 1.618v4.273z" fill="#1A3179"/>
        <path d="M5.18 7.273a.18.18 0 01-.052.127.177.177 0 01-.304-.127.18.18 0 01.054-.124.177.177 0 01.302.124zm1.166 0a.18.18 0 01-.053.125.177.177 0 01-.302-.125.18.18 0 01.053-.124.177.177 0 01.302.124zm1.244 0a.18.18 0 01-.052.127.177.177 0 01-.304-.127.18.18 0 01.053-.124.177.177 0 01.303.124zm1.183 0a.18.18 0 01-.052.127.177.177 0 01-.303-.127.18.18 0 01.053-.124.177.177 0 01.302.124zm1.243 0a.18.18 0 01-.052.127.177.177 0 01-.303-.127.18.18 0 01.053-.124.177.177 0 01.303.124zm1.167 0a.18.18 0 01-.178.18.177.177 0 01-.125-.053.18.18 0 01.125-.306c.099 0 .178.08.178.18zm-5.378.513a.18.18 0 01-.053.125.177.177 0 01-.302-.125c0-.1.08-.18.178-.18.098 0 .177.08.177.18zm1.243 0a.18.18 0 01-.053.125.177.177 0 01-.302-.125c0-.1.08-.18.178-.18.098 0 .177.08.177.18zm1.184 0a.18.18 0 01-.053.125.177.177 0 01-.303-.125.178.178 0 11.355 0zm1.243 0a.181.181 0 01-.109.17.176.176 0 01-.234-.1.181.181 0 01-.012-.07.18.18 0 01.052-.127.177.177 0 01.303.127zm1.167 0a.18.18 0 01-.053.125.177.177 0 01-.303-.125c0-.1.08-.18.178-.18.098 0 .178.08.178.18zM5.18 8.36a.181.181 0 01-.11.166.176.176 0 01-.194-.04.18.18 0 01.126-.306c.098 0 .178.08.178.18zm1.166 0a.18.18 0 01-.053.125.177.177 0 01-.302-.125.18.18 0 01.052-.127.177.177 0 01.303.127zm1.244 0a.181.181 0 01-.11.166.176.176 0 01-.194-.04.18.18 0 01.126-.306c.098 0 .178.08.178.18zm1.183 0a.181.181 0 01-.11.166.176.176 0 01-.193-.04.18.18 0 01.125-.306.18.18 0 01.178.18zm1.243 0a.182.182 0 01-.11.166.176.176 0 01-.193-.04.18.18 0 01.126-.306.18.18 0 01.177.18zm1.167 0a.18.18 0 01-.178.18.175.175 0 01-.164-.111.18.18 0 01-.013-.07.182.182 0 01.109-.169.176.176 0 01.234.1.18.18 0 01.012.07zm-5.378.513a.18.18 0 01-.053.125.177.177 0 01-.302-.125c0-.1.08-.18.178-.18.098 0 .177.08.177.18zm1.243 0a.18.18 0 01-.053.125.177.177 0 01-.302-.125.181.181 0 01.109-.17.176.176 0 01.234.1.181.181 0 01.012.07zm1.184 0a.18.18 0 01-.053.125.177.177 0 01-.303-.125.178.178 0 11.355 0zm1.243 0a.182.182 0 01-.109.17.176.176 0 01-.234-.1.181.181 0 01-.012-.07.18.18 0 01.052-.127.177.177 0 01.303.127zm1.167 0a.18.18 0 01-.053.125.177.177 0 01-.303-.125c0-.1.08-.18.178-.18.098 0 .178.08.178.18zm-5.462.573a.181.181 0 01-.11.165.176.176 0 01-.232-.097.181.181 0 01.039-.196.177.177 0 01.303.128zm1.166 0a.18.18 0 01-.053.124.177.177 0 01-.302-.124c0-.1.08-.18.178-.18.098 0 .177.08.177.18zm1.244 0a.18.18 0 01-.053.127.177.177 0 01-.303-.128.18.18 0 01.052-.127.177.177 0 01.304.128zm1.183 0a.181.181 0 01-.11.165.176.176 0 01-.232-.097.181.181 0 01.04-.196.177.177 0 01.302.128zm1.243 0a.18.18 0 01-.052.127.177.177 0 01-.303-.128.18.18 0 01.052-.127.177.177 0 01.303.128zm1.167 0a.18.18 0 01-.178.179.175.175 0 01-.164-.11.18.18 0 01.164-.25.176.176 0 01.165.112.182.182 0 01.013.069zm-5.378.513a.178.178 0 01-.276.149.179.179 0 01-.076-.184.18.18 0 01.14-.141.176.176 0 01.182.076c.02.03.03.064.03.1zm1.243 0a.178.178 0 01-.276.149.179.179 0 01-.076-.184.18.18 0 01.14-.141.176.176 0 01.182.076c.02.03.03.064.03.1zm1.184 0a.181.181 0 01-.11.166.175.175 0 01-.194-.04.179.179 0 01-.052-.126.18.18 0 01.052-.128.177.177 0 01.304.128zm1.243 0a.181.181 0 01-.11.166.176.176 0 01-.193-.04.18.18 0 01.125-.306c.098 0 .178.08.178.18zm1.167 0a.18.18 0 01-.052.127.177.177 0 01-.252 0 .18.18 0 01.126-.307c.047 0 .092.019.126.052a.18.18 0 01.052.128zm-5.462.572a.18.18 0 01-.052.127.177.177 0 01-.252 0 .18.18 0 01-.052-.127.177.177 0 01.355 0zm1.166 0a.18.18 0 01-.053.125.177.177 0 01-.249 0 .18.18 0 01-.053-.125.177.177 0 01.355 0zm1.244 0a.18.18 0 01-.052.127.177.177 0 01-.252 0 .18.18 0 01-.052-.127.177.177 0 01.355 0zm1.183 0a.18.18 0 01-.052.127.177.177 0 01-.251 0 .18.18 0 01-.052-.127.177.177 0 01.355 0zm1.243 0a.18.18 0 01-.052.127.177.177 0 01-.25 0 .18.18 0 01-.053-.127.177.177 0 01.355 0zm1.167 0a.18.18 0 01-.11.166.176.176 0 01-.193-.039.18.18 0 01.125-.306.177.177 0 01.165.11.18.18 0 01.013.07zm-5.378.513a.18.18 0 01-.053.125.177.177 0 01-.249 0 .18.18 0 01-.053-.125c0-.1.08-.18.178-.18.098 0 .177.08.177.18zm1.243 0a.18.18 0 01-.053.125.177.177 0 01-.249 0 .18.18 0 01-.053-.125c0-.1.08-.18.178-.18.098 0 .177.08.177.18zm1.184 0a.177.177 0 01-.303.127.18.18 0 01.126-.306c.098 0 .177.08.177.18zm1.243 0a.18.18 0 01-.054.124.177.177 0 01-.247 0 .18.18 0 01-.054-.124.178.178 0 01.245-.166.177.177 0 01.097.098.18.18 0 01.013.068zm1.167 0c0 .1-.08.18-.178.18a.177.177 0 01-.125-.053.18.18 0 01.125-.306c.098 0 .178.08.178.18zm-5.462.573a.18.18 0 01-.054.124.177.177 0 01-.248 0 .18.18 0 01-.054-.124.18.18 0 01.052-.127.177.177 0 01.126-.053c.098 0 .178.08.178.18zm1.166 0a.18.18 0 01-.053.124.177.177 0 01-.249 0 .18.18 0 01-.053-.124c0-.1.08-.18.178-.18a.18.18 0 01.177.18zm1.244 0a.18.18 0 01-.054.124.177.177 0 01-.248 0 .18.18 0 01-.054-.124.18.18 0 01.052-.127.177.177 0 01.126-.053c.098 0 .178.08.178.18zm1.183 0a.18.18 0 01-.053.124.177.177 0 01-.249 0 .18.18 0 01-.053-.124.18.18 0 01.052-.127.177.177 0 01.125-.053c.098 0 .178.08.178.18zm1.243 0a.18.18 0 01-.054.123.177.177 0 11-.123-.303c.098 0 .177.08.177.18zm1.167 0a.18.18 0 01-.178.18.176.176 0 01-.125-.053.18.18 0 010-.254.176.176 0 01.29.058.18.18 0 01.013.069z" fill="#fff"/>
    </g>
    <defs>
        <clipPath id="clip0">
            <path fill="#fff" d="M4 6.5h16v11H4z"/>
        </clipPath>
    </defs>
</svg>
