<svg width="24" height="24" fill="none" xmlns="http://www.w3.org/2000/svg">
    <path fill-rule="evenodd" clip-rule="evenodd" d="M5.5 6h13a2 2 0 012 2v8a2 2 0 01-2 2h-13a2 2 0 01-2-2V8a2 2 0 012-2zm0 .5A1.5 1.5 0 004 8v8a1.5 1.5 0 001.5 1.5h13A1.5 1.5 0 0020 16V8a1.5 1.5 0 00-1.5-1.5h-13z" fill="#D8DDE1"/>
    <g clip-path="url(#clip0)" fill-rule="evenodd" clip-rule="evenodd">
        <path d="M18.64 6.5H5.36C4.609 6.5 4 7.125 4 7.895v8.21c0 .77.609 1.395 1.36 1.395h13.28c.751 0 1.36-.625 1.36-1.396V7.895c0-.77-.609-1.395-1.36-1.395zm-2.92 6.645h-2.604v2.672h-2.232v-2.672H8.28v-2.29h2.604V8.183h2.232v2.672h2.604v2.29z" fill="#F92728"/>
        <path d="M13.117 8.183h-2.233v2.672H8.28v2.29h2.604v2.673h2.232v-2.673h2.604v-2.29h-2.604V8.183z" fill="#fff"/>
    </g>
    <defs>
        <clipPath id="clip0">
            <path fill="#fff" d="M4 6.5h16v11H4z"/>
        </clipPath>
    </defs>
</svg>
