<svg width="24" height="24" fill="none" xmlns="http://www.w3.org/2000/svg">
    <path fill-rule="evenodd" clip-rule="evenodd" d="M5.5 6h13a2 2 0 012 2v8a2 2 0 01-2 2h-13a2 2 0 01-2-2V8a2 2 0 012-2zm0 .5A1.5 1.5 0 004 8v8a1.5 1.5 0 001.5 1.5h13A1.5 1.5 0 0020 16V8a1.5 1.5 0 00-1.5-1.5h-13z" fill="#D8DDE1"/>
    <g clip-path="url(#clip0)">
        <path d="M18.4 6.5H5.6c-.884 0-1.6.724-1.6 1.618v7.764c0 .894.716 1.618 1.6 1.618h12.8c.884 0 1.6-.724 1.6-1.618V8.118c0-.894-.716-1.618-1.6-1.618z" fill="#0D5EAF"/>
        <path d="M7.023 6.5v6.725M4 9.557h6.047m0-1.223h9.952m-9.952 2.446h9.952M4 13.225h15.999M4 15.67h15.999" stroke="#fff" stroke-width="1.051"/>
    </g>
    <defs>
        <clipPath id="clip0">
            <path fill="#fff" d="M4 6.5h16v11H4z"/>
        </clipPath>
    </defs>
</svg>
