<svg width="24" height="24" viewBox="0 0 24 24" fill="none" xmlns="http://www.w3.org/2000/svg">
<path fill-rule="evenodd" clip-rule="evenodd" d="M5.5 6H18.5C19.6046 6 20.5 6.89543 20.5 8V16C20.5 17.1046 19.6046 18 18.5 18H5.5C4.39543 18 3.5 17.1046 3.5 16V8C3.5 6.89543 4.39543 6 5.5 6ZM5.5 6.5C4.67157 6.5 4 7.17157 4 8V16C4 16.8284 4.67157 17.5 5.5 17.5H18.5C19.3284 17.5 20 16.8284 20 16V8C20 7.17157 19.3284 6.5 18.5 6.5H5.5Z" fill="#D8DDE1"/>
<g clip-path="url(#clip0)">
<path fill-rule="evenodd" clip-rule="evenodd" d="M5.6 6.5H18.32C19.2478 6.5 20 7.26046 20 8.19853V15.8015C20 16.7395 19.2478 17.5 18.32 17.5H5.68C4.75216 17.5 4 16.7395 4 15.8015V8.11765C4 7.22422 4.71632 6.5 5.6 6.5Z" fill="white"/>
<path fill-rule="evenodd" clip-rule="evenodd" d="M19.7862 7.30882H12V6.5H18.4C18.9923 6.5 19.5095 6.82531 19.7862 7.30882ZM12 8.9856H20V8.17677H12V8.9856ZM12 10.6885H20V9.87967H12V10.6885ZM12 12.3914H20V11.5826H12V12.3914ZM4 14.0942H20V13.2854H4V14.0942ZM4 15.7971H20V14.9883H4V15.7971ZM19.7862 16.6912H4.21384C4.49048 17.1747 5.00768 17.5 5.6 17.5H18.4C18.9926 17.5 19.5096 17.1747 19.7862 16.6912Z" fill="#FF2B2D"/>
<path fill-rule="evenodd" clip-rule="evenodd" d="M4 12.3914H12V6.5H5.59968C4.71624 6.5 4 7.2239 4 8.11765V12.3914Z" fill="#1A3179"/>
<path fill-rule="evenodd" clip-rule="evenodd" d="M5.17966 7.27331C5.17966 7.32096 5.16093 7.36667 5.12761 7.40036C5.09428 7.43406 5.04907 7.45299 5.00194 7.45299C4.9548 7.45299 4.9096 7.43406 4.87627 7.40036C4.84294 7.36667 4.82422 7.32096 4.82422 7.27331C4.8252 7.22631 4.84436 7.18158 4.87758 7.1487C4.91081 7.11582 4.95545 7.0974 5.00194 7.0974C5.04843 7.0974 5.09307 7.11582 5.12629 7.1487C5.15952 7.18158 5.17867 7.22631 5.17966 7.27331ZM6.34638 7.27331C6.34539 7.3203 6.32624 7.36504 6.29301 7.39792C6.25979 7.4308 6.21515 7.44922 6.16866 7.44922C6.12217 7.44922 6.07753 7.4308 6.0443 7.39792C6.01108 7.36504 5.99193 7.3203 5.99094 7.27331C5.99193 7.22631 6.01108 7.18158 6.0443 7.1487C6.07753 7.11582 6.12217 7.0974 6.16866 7.0974C6.21515 7.0974 6.25979 7.11582 6.29301 7.1487C6.32624 7.18158 6.34539 7.22631 6.34638 7.27331ZM7.58958 7.27331C7.58958 7.32096 7.57085 7.36667 7.53753 7.40036C7.5042 7.43406 7.45899 7.45299 7.41186 7.45299C7.36472 7.45299 7.31952 7.43406 7.28619 7.40036C7.25286 7.36667 7.23414 7.32096 7.23414 7.27331C7.23513 7.22631 7.25428 7.18158 7.2875 7.1487C7.32073 7.11582 7.36537 7.0974 7.41186 7.0974C7.45835 7.0974 7.50299 7.11582 7.53621 7.1487C7.56944 7.18158 7.58859 7.22631 7.58958 7.27331ZM8.77326 7.27331C8.77326 7.32096 8.75453 7.36667 8.72121 7.40036C8.68788 7.43406 8.64267 7.45299 8.59554 7.45299C8.5484 7.45299 8.5032 7.43406 8.46987 7.40036C8.43654 7.36667 8.41782 7.32096 8.41782 7.27331C8.41881 7.22631 8.43796 7.18158 8.47118 7.1487C8.50441 7.11582 8.54905 7.0974 8.59554 7.0974C8.64203 7.0974 8.68667 7.11582 8.71989 7.1487C8.75312 7.18158 8.77227 7.22631 8.77326 7.27331ZM10.0164 7.27331C10.0164 7.32095 9.99766 7.36664 9.96434 7.40033C9.93102 7.43402 9.88582 7.45295 9.8387 7.45295C9.79158 7.45295 9.74638 7.43402 9.71306 7.40033C9.67974 7.36664 9.66102 7.32095 9.66102 7.27331C9.66201 7.22631 9.68116 7.18158 9.71438 7.1487C9.74761 7.11582 9.79225 7.0974 9.83874 7.0974C9.88523 7.0974 9.92987 7.11582 9.96309 7.1487C9.99632 7.18158 10.0155 7.22631 10.0165 7.27331H10.0164ZM11.1832 7.27331C11.1832 7.2969 11.1786 7.32026 11.1696 7.34205C11.1607 7.36385 11.1476 7.38364 11.1311 7.4003C11.1145 7.41697 11.0949 7.43017 11.0734 7.43917C11.0518 7.44816 11.0287 7.45276 11.0053 7.45271C10.9583 7.45271 10.9131 7.4338 10.8798 7.40014C10.8465 7.36648 10.8278 7.32083 10.8278 7.27323C10.8278 7.22563 10.8465 7.17998 10.8798 7.14632C10.9131 7.11266 10.9583 7.09375 11.0053 7.09375C11.1037 7.09375 11.1832 7.17399 11.1832 7.27331ZM5.8051 7.78643C5.80411 7.83342 5.78496 7.87815 5.75173 7.91104C5.71851 7.94392 5.67387 7.96233 5.62738 7.96233C5.58089 7.96233 5.53625 7.94392 5.50302 7.91104C5.4698 7.87815 5.45064 7.83342 5.44966 7.78643C5.44966 7.68694 5.5295 7.60662 5.62766 7.60662C5.72574 7.60662 5.8051 7.68694 5.8051 7.78643ZM7.0483 7.78643C7.04731 7.83342 7.02816 7.87815 6.99493 7.91104C6.96171 7.94392 6.91707 7.96233 6.87058 7.96233C6.82409 7.96233 6.77945 7.94392 6.74622 7.91104C6.713 7.87815 6.69384 7.83342 6.69286 7.78643C6.69286 7.68694 6.77262 7.60662 6.87086 7.60662C6.96886 7.60662 7.0483 7.68694 7.0483 7.78643ZM8.2319 7.78643C8.23091 7.83342 8.21176 7.87815 8.17853 7.91104C8.14531 7.94392 8.10067 7.96233 8.05418 7.96233C8.00769 7.96233 7.96305 7.94392 7.92982 7.91104C7.8966 7.87815 7.87745 7.83342 7.87646 7.78643C7.87646 7.68694 7.9563 7.60662 8.05454 7.60662C8.15254 7.60662 8.2319 7.68694 8.2319 7.78643ZM9.4751 7.78643C9.47556 7.81033 9.4713 7.83409 9.46256 7.85631C9.45383 7.87853 9.44079 7.89876 9.42422 7.91582C9.40765 7.93288 9.38787 7.94642 9.36606 7.95565C9.34424 7.96489 9.32082 7.96962 9.29717 7.96958C9.27352 7.96955 9.25012 7.96474 9.22833 7.95543C9.20655 7.94613 9.18681 7.93253 9.1703 7.91542C9.15378 7.8983 9.1408 7.87803 9.13214 7.85578C9.12347 7.83354 9.11928 7.80976 9.11982 7.78586C9.11989 7.73822 9.13868 7.69255 9.17206 7.65892C9.20543 7.62528 9.25066 7.60643 9.29778 7.6065C9.3449 7.60658 9.39007 7.62558 9.42334 7.65932C9.4566 7.69306 9.47525 7.73878 9.47518 7.78643H9.4751ZM10.6418 7.78643C10.6408 7.83342 10.6217 7.87815 10.5885 7.91104C10.5552 7.94392 10.5106 7.96233 10.4641 7.96233C10.4176 7.96233 10.373 7.94392 10.3397 7.91104C10.3065 7.87815 10.2874 7.83342 10.2864 7.78643C10.2864 7.68694 10.3662 7.60662 10.4645 7.60662C10.5625 7.60662 10.6418 7.68694 10.6418 7.78643ZM5.17966 8.35891C5.17963 8.39443 5.16918 8.42914 5.14964 8.45866C5.1301 8.48818 5.10235 8.51118 5.06988 8.52475C5.03742 8.53833 5.0017 8.54187 4.96725 8.53492C4.93279 8.52798 4.90115 8.51087 4.87631 8.48575C4.85148 8.46062 4.83456 8.42862 4.82771 8.39379C4.82086 8.35895 4.82438 8.32284 4.83782 8.29002C4.85126 8.25721 4.87402 8.22915 4.90322 8.20941C4.93243 8.18967 4.96677 8.17913 5.0019 8.17911C5.0999 8.17911 5.17966 8.25983 5.17966 8.35891ZM6.34638 8.35891C6.34539 8.40591 6.32624 8.45064 6.29301 8.48352C6.25979 8.5164 6.21515 8.53482 6.16866 8.53482C6.12217 8.53482 6.07753 8.5164 6.0443 8.48352C6.01108 8.45064 5.99193 8.40591 5.99094 8.35891C5.99094 8.31126 6.00966 8.26556 6.04299 8.23186C6.07632 8.19816 6.12152 8.17923 6.16866 8.17923C6.21579 8.17923 6.261 8.19816 6.29433 8.23186C6.32765 8.26556 6.34638 8.31126 6.34638 8.35891ZM7.58958 8.35891C7.58955 8.39443 7.5791 8.42914 7.55956 8.45866C7.54002 8.48818 7.51227 8.51118 7.4798 8.52475C7.44734 8.53833 7.41162 8.54187 7.37717 8.53492C7.34271 8.52798 7.31107 8.51087 7.28623 8.48575C7.2614 8.46062 7.24448 8.42862 7.23763 8.39379C7.23078 8.35895 7.2343 8.32284 7.24774 8.29002C7.26118 8.25721 7.28394 8.22915 7.31314 8.20941C7.34235 8.18967 7.37669 8.17913 7.41182 8.17911C7.50982 8.17911 7.58958 8.25983 7.58958 8.35891ZM8.77326 8.35891C8.77323 8.39443 8.76278 8.42914 8.74325 8.45865C8.72371 8.48817 8.69596 8.51117 8.6635 8.52475C8.63104 8.53832 8.59533 8.54187 8.56088 8.53493C8.52642 8.52799 8.49478 8.51089 8.46994 8.48577C8.4451 8.46066 8.42818 8.42867 8.42132 8.39384C8.41446 8.359 8.41796 8.3229 8.43139 8.29008C8.44482 8.25726 8.46757 8.2292 8.49677 8.20945C8.52596 8.1897 8.56029 8.17914 8.59542 8.17911C8.69342 8.17911 8.77326 8.25983 8.77326 8.35891ZM10.0164 8.35891C10.0163 8.39443 10.0059 8.42914 9.98636 8.45866C9.96682 8.48818 9.93907 8.51118 9.9066 8.52475C9.87414 8.53833 9.83842 8.54187 9.80397 8.53492C9.76951 8.52798 9.73787 8.51087 9.71303 8.48575C9.6882 8.46062 9.67128 8.42862 9.66443 8.39379C9.65758 8.35895 9.6611 8.32284 9.67454 8.29002C9.68798 8.25721 9.71074 8.22915 9.73994 8.20941C9.76915 8.18967 9.80349 8.17913 9.83862 8.17911C9.93662 8.17911 10.0164 8.25983 10.0164 8.35891ZM11.1832 8.35891C11.1832 8.3825 11.1786 8.40587 11.1696 8.42766C11.1607 8.44945 11.1476 8.46924 11.1311 8.48591C11.1145 8.50257 11.0949 8.51578 11.0734 8.52477C11.0518 8.53376 11.0287 8.53836 11.0053 8.53831C10.982 8.53833 10.9589 8.53371 10.9374 8.5247C10.9158 8.51569 10.8963 8.50248 10.8798 8.48582C10.8633 8.46916 10.8502 8.44938 10.8413 8.4276C10.8323 8.40583 10.8277 8.38248 10.8277 8.35891C10.8272 8.335 10.8315 8.31122 10.8402 8.28897C10.8489 8.26673 10.8619 8.24647 10.8784 8.22937C10.895 8.21228 10.9148 8.1987 10.9366 8.18943C10.9584 8.18015 10.9818 8.17538 11.0055 8.17538C11.0291 8.17538 11.0525 8.18015 11.0744 8.18943C11.0962 8.1987 11.1159 8.21228 11.1325 8.22937C11.149 8.24647 11.162 8.26673 11.1707 8.28897C11.1795 8.31122 11.1837 8.335 11.1832 8.35891ZM5.8051 8.87195C5.80411 8.91894 5.78496 8.96368 5.75173 8.99656C5.71851 9.02944 5.67387 9.04786 5.62738 9.04786C5.58089 9.04786 5.53625 9.02944 5.50302 8.99656C5.4698 8.96368 5.45064 8.91894 5.44966 8.87195C5.44966 8.77246 5.5295 8.69223 5.62766 8.69223C5.72574 8.69223 5.8051 8.77254 5.8051 8.87203V8.87195ZM7.0483 8.87195C7.04731 8.91894 7.02816 8.96368 6.99493 8.99656C6.96171 9.02944 6.91707 9.04786 6.87058 9.04786C6.82409 9.04786 6.77945 9.02944 6.74622 8.99656C6.713 8.96368 6.69384 8.91894 6.69286 8.87195C6.69236 8.84803 6.69659 8.82426 6.7053 8.80201C6.71401 8.77977 6.72703 8.75951 6.74359 8.74242C6.76014 8.72533 6.77991 8.71175 6.80172 8.70249C6.82353 8.69322 6.84696 8.68845 6.87062 8.68846C6.89428 8.68846 6.9177 8.69324 6.93951 8.70252C6.96132 8.7118 6.98108 8.72538 6.99763 8.74248C7.01418 8.75958 7.02718 8.77984 7.03588 8.80209C7.04459 8.82433 7.04881 8.84811 7.0483 8.87203V8.87195ZM8.2319 8.87195C8.23091 8.91894 8.21176 8.96368 8.17853 8.99656C8.14531 9.02944 8.10067 9.04786 8.05418 9.04786C8.00769 9.04786 7.96305 9.02944 7.92982 8.99656C7.8966 8.96368 7.87745 8.91894 7.87646 8.87195C7.87646 8.77246 7.9563 8.69223 8.05454 8.69223C8.15254 8.69223 8.2319 8.77254 8.2319 8.87203V8.87195ZM9.4751 8.87195C9.47557 8.89585 9.47132 8.91962 9.4626 8.94184C9.45387 8.96406 9.44084 8.9843 9.42428 9.00137C9.40771 9.01844 9.38795 9.03199 9.36613 9.04123C9.34432 9.05047 9.32091 9.05522 9.29726 9.05519C9.2736 9.05517 9.2502 9.05036 9.22841 9.04107C9.20662 9.03178 9.18688 9.01818 9.17035 9.00108C9.15383 8.98397 9.14084 8.96371 9.13217 8.94146C9.12349 8.91922 9.11929 8.89545 9.11982 8.87154C9.11989 8.8239 9.13868 8.77824 9.17206 8.7446C9.20543 8.71097 9.25066 8.69211 9.29778 8.69219C9.3449 8.69226 9.39007 8.71126 9.42334 8.745C9.4566 8.77874 9.47525 8.82447 9.47518 8.87211L9.4751 8.87195ZM10.6418 8.87195C10.6408 8.91894 10.6217 8.96368 10.5885 8.99656C10.5552 9.02944 10.5106 9.04786 10.4641 9.04786C10.4176 9.04786 10.373 9.02944 10.3397 8.99656C10.3065 8.96368 10.2874 8.91894 10.2864 8.87195C10.2864 8.77246 10.3662 8.69223 10.4645 8.69223C10.5625 8.69223 10.6418 8.77254 10.6418 8.87203V8.87195ZM5.17966 9.4446C5.17962 9.46819 5.17498 9.49154 5.16601 9.51332C5.15704 9.53509 5.14392 9.55487 5.12739 9.57153C5.11086 9.58818 5.09125 9.60137 5.06968 9.61036C5.04811 9.61935 5.02499 9.62395 5.00166 9.62391C4.97833 9.62387 4.95523 9.61918 4.93369 9.61011C4.91215 9.60105 4.89258 9.58778 4.87611 9.57107C4.85964 9.55436 4.84659 9.53453 4.8377 9.51272C4.82881 9.49091 4.82426 9.46754 4.8243 9.44395C4.82437 9.39631 4.84316 9.35064 4.87654 9.31701C4.90991 9.28337 4.95514 9.26452 5.00226 9.26459C5.04938 9.26467 5.09455 9.28367 5.12782 9.31741C5.16108 9.35115 5.17973 9.39687 5.17966 9.44451V9.4446ZM6.34638 9.4446C6.34539 9.49159 6.32624 9.53632 6.29301 9.56921C6.25979 9.60209 6.21515 9.6205 6.16866 9.6205C6.12217 9.6205 6.07753 9.60209 6.0443 9.56921C6.01108 9.53632 5.99193 9.49159 5.99094 9.4446C5.99094 9.34511 6.07078 9.26479 6.16894 9.26479C6.26702 9.26479 6.34638 9.34503 6.34638 9.44451V9.4446ZM7.58958 9.4446C7.58949 9.49224 7.57069 9.5379 7.53731 9.57153C7.50393 9.60515 7.4587 9.624 7.41158 9.62391C7.36446 9.62383 7.3193 9.60482 7.28603 9.57107C7.25277 9.53732 7.23413 9.49159 7.23422 9.44395C7.23429 9.39631 7.25308 9.35064 7.28646 9.31701C7.31983 9.28337 7.36506 9.26452 7.41218 9.26459C7.4593 9.26467 7.50447 9.28367 7.53774 9.31741C7.571 9.35115 7.58965 9.39687 7.58958 9.44451V9.4446ZM8.77326 9.4446C8.77322 9.46819 8.76858 9.49155 8.75961 9.51333C8.75064 9.53512 8.73751 9.5549 8.72098 9.57155C8.70445 9.58821 8.68483 9.60141 8.66325 9.6104C8.64168 9.61939 8.61856 9.62399 8.59522 9.62395C8.57188 9.62391 8.54878 9.61922 8.52723 9.61015C8.50569 9.60108 8.48612 9.58781 8.46965 9.5711C8.45317 9.55438 8.44012 9.53455 8.43122 9.51273C8.42233 9.49092 8.41778 9.46754 8.41782 9.44395C8.41789 9.39629 8.43669 9.35062 8.47007 9.31698C8.50345 9.28333 8.54868 9.26448 8.59582 9.26455C8.64295 9.26463 8.68813 9.28363 8.7214 9.31738C8.75468 9.35113 8.77333 9.39686 8.77326 9.44451V9.4446ZM10.0164 9.4446C10.0163 9.49224 9.99749 9.5379 9.96411 9.57153C9.93073 9.60515 9.8855 9.624 9.83838 9.62391C9.79126 9.62383 9.7461 9.60482 9.71283 9.57107C9.67957 9.53732 9.66093 9.49159 9.66102 9.44395C9.66109 9.39631 9.67988 9.35064 9.71326 9.31701C9.74663 9.28337 9.79186 9.26452 9.83898 9.26459C9.8861 9.26467 9.93127 9.28367 9.96454 9.31741C9.9978 9.35115 10.0165 9.39687 10.0164 9.44451V9.4446ZM11.1832 9.4446C11.1832 9.46818 11.1786 9.49153 11.1696 9.51332C11.1607 9.5351 11.1476 9.55488 11.131 9.57154C11.1145 9.58819 11.0949 9.60139 11.0733 9.61038C11.0518 9.61937 11.0287 9.62396 11.0053 9.62391C10.982 9.62393 10.9589 9.61931 10.9374 9.6103C10.9158 9.6013 10.8963 9.58809 10.8798 9.57142C10.8633 9.55476 10.8502 9.53498 10.8413 9.5132C10.8323 9.49143 10.8277 9.46809 10.8277 9.44451C10.8277 9.34503 10.9072 9.26479 11.0053 9.26479C11.0287 9.26476 11.0518 9.26939 11.0734 9.27841C11.095 9.28743 11.1146 9.30066 11.1311 9.31736C11.1477 9.33405 11.1608 9.35388 11.1697 9.37569C11.1786 9.39751 11.1832 9.4209 11.1832 9.44451V9.4446ZM5.8051 9.95763C5.8051 10.0571 5.72574 10.1372 5.62766 10.1372C5.59253 10.1372 5.55817 10.1267 5.52895 10.107C5.49972 10.0873 5.47693 10.0593 5.46346 10.0265C5.45 9.99365 5.44646 9.95754 5.45329 9.9227C5.46013 9.88786 5.47703 9.85585 5.50186 9.83072C5.52669 9.80559 5.55834 9.78848 5.59279 9.78154C5.62725 9.77459 5.66296 9.77814 5.69543 9.79173C5.72789 9.80531 5.75563 9.82833 5.77516 9.85786C5.79468 9.88739 5.8051 9.92211 5.8051 9.95763ZM7.0483 9.95763C7.0483 10.0571 6.96886 10.1372 6.87086 10.1372C6.83573 10.1372 6.80137 10.1267 6.77215 10.107C6.74292 10.0873 6.72013 10.0593 6.70666 10.0265C6.6932 9.99365 6.68966 9.95754 6.69649 9.9227C6.70333 9.88786 6.72023 9.85585 6.74506 9.83072C6.76989 9.80559 6.80154 9.78848 6.83599 9.78154C6.87045 9.77459 6.90617 9.77814 6.93863 9.79173C6.97109 9.80531 6.99883 9.82833 7.01836 9.85786C7.03788 9.88739 7.0483 9.92211 7.0483 9.95763ZM8.2319 9.95763C8.23189 9.98123 8.22729 10.0046 8.21835 10.0264C8.20941 10.0482 8.19632 10.068 8.17981 10.0847C8.1633 10.1014 8.1437 10.1146 8.12213 10.1236C8.10056 10.1327 8.07744 10.1373 8.0541 10.1373C8.03076 10.1373 8.00764 10.1327 7.98608 10.1236C7.96451 10.1146 7.94492 10.1013 7.92842 10.0846C7.91191 10.068 7.89882 10.0481 7.88989 10.0263C7.88097 10.0045 7.87637 9.98115 7.87638 9.95755C7.87638 9.90989 7.89511 9.86417 7.92844 9.83047C7.96178 9.79677 8.00699 9.77783 8.05414 9.77783C8.10128 9.77783 8.1465 9.79677 8.17983 9.83047C8.21317 9.86417 8.2319 9.90989 8.2319 9.95755V9.95763ZM9.4751 9.95763C9.4751 9.98123 9.4705 10.0046 9.46156 10.0264C9.45263 10.0482 9.43953 10.068 9.42302 10.0847C9.40652 10.1013 9.38692 10.1146 9.36535 10.1236C9.34379 10.1326 9.32068 10.1372 9.29734 10.1372C9.25024 10.1372 9.20506 10.1183 9.17176 10.0846C9.13845 10.0509 9.11974 10.0053 9.11974 9.95763C9.11974 9.91001 9.13845 9.86434 9.17176 9.83066C9.20506 9.79699 9.25024 9.77807 9.29734 9.77807C9.39534 9.77807 9.4751 9.85831 9.4751 9.95763ZM10.6418 9.95763C10.6418 10.0053 10.6231 10.051 10.5897 10.0847C10.5564 10.1184 10.5112 10.1373 10.464 10.1373C10.4169 10.1373 10.3717 10.1184 10.3383 10.0846C10.305 10.0509 10.2863 10.0052 10.2863 9.95755C10.2863 9.90989 10.305 9.86417 10.3384 9.83047C10.3717 9.79677 10.4169 9.77783 10.4641 9.77783C10.5112 9.77783 10.5564 9.79677 10.5898 9.83047C10.6231 9.86417 10.6418 9.90989 10.6418 9.95755V9.95763ZM5.17966 10.5304C5.17966 10.578 5.16093 10.6237 5.12761 10.6574C5.09428 10.6911 5.04907 10.71 5.00194 10.71C4.9548 10.71 4.9096 10.6911 4.87627 10.6574C4.84294 10.6237 4.82422 10.578 4.82422 10.5304C4.8252 10.4834 4.84436 10.4386 4.87758 10.4057C4.91081 10.3729 4.95545 10.3545 5.00194 10.3545C5.04843 10.3545 5.09307 10.3729 5.12629 10.4057C5.15952 10.4386 5.17867 10.4834 5.17966 10.5304ZM6.34638 10.5304C6.34539 10.5774 6.32624 10.6221 6.29301 10.655C6.25979 10.6879 6.21515 10.7063 6.16866 10.7063C6.12217 10.7063 6.07753 10.6879 6.0443 10.655C6.01108 10.6221 5.99193 10.5774 5.99094 10.5304C5.99193 10.4834 6.01108 10.4386 6.0443 10.4057C6.07753 10.3729 6.12217 10.3545 6.16866 10.3545C6.21515 10.3545 6.25979 10.3729 6.29301 10.4057C6.32624 10.4386 6.34539 10.4834 6.34638 10.5304ZM7.58958 10.5304C7.58958 10.578 7.57085 10.6237 7.53753 10.6574C7.5042 10.6911 7.45899 10.71 7.41186 10.71C7.36472 10.71 7.31952 10.6911 7.28619 10.6574C7.25286 10.6237 7.23414 10.578 7.23414 10.5304C7.23513 10.4834 7.25428 10.4386 7.2875 10.4057C7.32073 10.3729 7.36537 10.3545 7.41186 10.3545C7.45835 10.3545 7.50299 10.3729 7.53621 10.4057C7.56944 10.4386 7.58859 10.4834 7.58958 10.5304ZM8.77326 10.5304C8.77326 10.578 8.75453 10.6237 8.72121 10.6574C8.68788 10.6911 8.64267 10.71 8.59554 10.71C8.5484 10.71 8.5032 10.6911 8.46987 10.6574C8.43654 10.6237 8.41782 10.578 8.41782 10.5304C8.41881 10.4834 8.43796 10.4386 8.47118 10.4057C8.50441 10.3729 8.54905 10.3545 8.59554 10.3545C8.64203 10.3545 8.68667 10.3729 8.71989 10.4057C8.75312 10.4386 8.77227 10.4834 8.77326 10.5304ZM10.0164 10.5304C10.0164 10.578 9.99766 10.6237 9.96434 10.6574C9.93102 10.6911 9.88582 10.71 9.8387 10.71C9.79158 10.71 9.74638 10.6911 9.71306 10.6574C9.67974 10.6237 9.66102 10.578 9.66102 10.5304C9.66201 10.4834 9.68116 10.4386 9.71438 10.4057C9.74761 10.3729 9.79225 10.3545 9.83874 10.3545C9.88523 10.3545 9.92987 10.3729 9.96309 10.4057C9.99632 10.4386 10.0155 10.4834 10.0165 10.5304H10.0164ZM11.1832 10.5304C11.1832 10.5539 11.1786 10.5773 11.1696 10.5991C11.1607 10.6209 11.1476 10.6406 11.131 10.6573C11.1145 10.674 11.0949 10.6872 11.0733 10.6961C11.0518 10.7051 11.0287 10.7097 11.0053 10.7097C10.9583 10.7097 10.9131 10.6908 10.8798 10.6571C10.8465 10.6234 10.8278 10.5778 10.8278 10.5302C10.8278 10.4826 10.8465 10.4369 10.8798 10.4033C10.9131 10.3696 10.9583 10.3507 11.0053 10.3507C11.0287 10.3507 11.0518 10.3553 11.0734 10.3643C11.095 10.3733 11.1146 10.3865 11.1311 10.4032C11.1476 10.4199 11.1607 10.4397 11.1696 10.4615C11.1786 10.4833 11.1832 10.5067 11.1832 10.5303V10.5304ZM5.8051 11.0432C5.80411 11.0902 5.78496 11.135 5.75173 11.1678C5.71851 11.2007 5.67387 11.2191 5.62738 11.2191C5.58089 11.2191 5.53625 11.2007 5.50302 11.1678C5.4698 11.135 5.45064 11.0902 5.44966 11.0432C5.44966 10.9437 5.5295 10.8637 5.62766 10.8637C5.72574 10.8637 5.8051 10.9437 5.8051 11.0432ZM7.0483 11.0432C7.04731 11.0902 7.02816 11.135 6.99493 11.1678C6.96171 11.2007 6.91707 11.2191 6.87058 11.2191C6.82409 11.2191 6.77945 11.2007 6.74622 11.1678C6.713 11.135 6.69384 11.0902 6.69286 11.0432C6.69286 10.9437 6.77262 10.8637 6.87086 10.8637C6.96886 10.8637 7.0483 10.9437 7.0483 11.0432ZM8.2319 11.0432C8.2319 11.1426 8.15254 11.2228 8.05454 11.2228C8.00744 11.2228 7.96226 11.2039 7.92896 11.1702C7.89565 11.1365 7.87694 11.0909 7.87694 11.0432C7.87694 10.9956 7.89565 10.9499 7.92896 10.9163C7.96226 10.8826 8.00744 10.8637 8.05454 10.8637C8.15254 10.8637 8.2319 10.9437 8.2319 11.0432ZM9.4751 11.0432C9.47371 11.0899 9.45439 11.1343 9.42122 11.1668C9.38804 11.1994 9.34364 11.2176 9.29742 11.2176C9.2512 11.2176 9.20679 11.1994 9.17362 11.1668C9.14045 11.1343 9.12113 11.0899 9.11974 11.0432C9.11974 10.9437 9.1995 10.8637 9.29734 10.8637C9.32068 10.8637 9.34379 10.8683 9.36535 10.8773C9.38692 10.8863 9.40652 10.8995 9.42302 10.9162C9.43953 10.9329 9.45263 10.9527 9.46156 10.9745C9.4705 10.9963 9.4751 11.0196 9.4751 11.0432ZM10.6418 11.0432C10.6418 11.1426 10.5625 11.2228 10.4645 11.2228C10.4174 11.2228 10.3722 11.2039 10.3389 11.1702C10.3056 11.1365 10.2869 11.0909 10.2869 11.0432C10.2869 10.9956 10.3056 10.9499 10.3389 10.9163C10.3722 10.8826 10.4174 10.8637 10.4645 10.8637C10.5625 10.8637 10.6418 10.9437 10.6418 11.0432ZM5.17966 11.6157C5.17867 11.6627 5.15952 11.7074 5.12629 11.7403C5.09307 11.7732 5.04843 11.7916 5.00194 11.7916C4.95545 11.7916 4.91081 11.7732 4.87758 11.7403C4.84436 11.7074 4.8252 11.6627 4.82422 11.6157C4.82422 11.5681 4.84293 11.5224 4.87624 11.4888C4.90954 11.4551 4.95472 11.4362 5.00182 11.4362C5.0999 11.4362 5.17966 11.5166 5.17966 11.6157ZM6.34638 11.6157C6.34539 11.6627 6.32624 11.7074 6.29301 11.7403C6.25979 11.7732 6.21515 11.7916 6.16866 11.7916C6.12217 11.7916 6.07753 11.7732 6.0443 11.7403C6.01108 11.7074 5.99193 11.6627 5.99094 11.6157C5.99094 11.5166 6.07078 11.4362 6.16894 11.4362C6.21601 11.4362 6.26115 11.4551 6.29442 11.4888C6.32769 11.5225 6.34638 11.5681 6.34638 11.6157ZM7.58958 11.6157C7.58859 11.6627 7.56944 11.7074 7.53621 11.7403C7.50299 11.7732 7.45835 11.7916 7.41186 11.7916C7.36537 11.7916 7.32073 11.7732 7.2875 11.7403C7.25428 11.7074 7.23513 11.6627 7.23414 11.6157C7.23414 11.5681 7.25285 11.5224 7.28616 11.4888C7.31946 11.4551 7.36464 11.4362 7.41174 11.4362C7.50982 11.4362 7.58958 11.5166 7.58958 11.6157ZM8.77326 11.6157C8.77227 11.6627 8.75312 11.7074 8.71989 11.7403C8.68667 11.7732 8.64203 11.7916 8.59554 11.7916C8.54905 11.7916 8.50441 11.7732 8.47118 11.7403C8.43796 11.7074 8.41881 11.6627 8.41782 11.6157C8.41782 11.5681 8.43653 11.5224 8.46984 11.4888C8.50314 11.4551 8.54832 11.4362 8.59542 11.4362C8.69342 11.4362 8.77326 11.5166 8.77326 11.6157ZM10.0164 11.6157C10.015 11.6624 9.99567 11.7068 9.96249 11.7393C9.92932 11.7718 9.88492 11.79 9.8387 11.79C9.79248 11.79 9.74807 11.7718 9.7149 11.7393C9.68173 11.7068 9.66241 11.6624 9.66102 11.6157C9.66102 11.5681 9.67973 11.5224 9.71304 11.4888C9.74634 11.4551 9.79152 11.4362 9.83862 11.4362C9.93662 11.4362 10.0164 11.5166 10.0164 11.6157ZM11.1832 11.6157C11.1832 11.715 11.1037 11.7953 11.0053 11.7953C10.9582 11.7953 10.9131 11.7764 10.8798 11.7427C10.8465 11.709 10.8277 11.6633 10.8277 11.6157C10.8277 11.5681 10.8465 11.5224 10.8798 11.4888C10.9131 11.4551 10.9582 11.4362 11.0053 11.4362C11.0287 11.4361 11.0518 11.4408 11.0734 11.4498C11.095 11.4588 11.1146 11.472 11.1311 11.4887C11.1476 11.5053 11.1607 11.5251 11.1696 11.5469C11.1786 11.5688 11.1832 11.5921 11.1832 11.6157Z" fill="white"/>
</g>
<defs>
<clipPath id="clip0">
<rect x="4" y="6.5" width="16" height="11" fill="white"/>
</clipPath>
</defs>
</svg>
