<svg width="24" height="24" viewBox="0 0 24 24" fill="none" xmlns="http://www.w3.org/2000/svg">
    <path fill-rule="evenodd" clip-rule="evenodd" d="M5.5 6h13a2 2 0 012 2v8a2 2 0 01-2 2h-13a2 2 0 01-2-2V8a2 2 0 012-2zm0 .5A1.5 1.5 0 004 8v8a1.5 1.5 0 001.5 1.5h13A1.5 1.5 0 0020 16V8a1.5 1.5 0 00-1.5-1.5h-13z" fill="#D8DDE1"/>
    <g clip-path="url(#clip0)" fill-rule="evenodd" clip-rule="evenodd">
        <path d="M5.36 6.5C4.609 6.5 4 7.115 4 7.873v4.282h16V7.873c0-.758-.609-1.373-1.36-1.373H5.36z" fill="#fff"/>
        <path d="M4 16.127c0 .758.609 1.373 1.36 1.373h13.28c.751 0 1.36-.615 1.36-1.373v-4.039H4v4.039z" fill="#EE2734"/>
        <path d="M4.622 6.757A1.462 1.462 0 004 7.957v8.099c0 .265.071.526.207.754.135.227.33.413.562.537l7.412-5.243-7.559-5.347z" fill="#11457E"/>
    </g>
    <defs>
        <clipPath id="clip0">
            <path fill="#fff" d="M4 6.5h16v11H4z"/>
        </clipPath>
    </defs>
</svg>
