<svg width="24" height="24" viewBox="0 0 24 24" fill="none" xmlns="http://www.w3.org/2000/svg">
    <path fill-rule="evenodd" clip-rule="evenodd" d="M5.5 6h13a2 2 0 012 2v8a2 2 0 01-2 2h-13a2 2 0 01-2-2V8a2 2 0 012-2zm0 .5A1.5 1.5 0 004 8v8a1.5 1.5 0 001.5 1.5h13A1.5 1.5 0 0020 16V8a1.5 1.5 0 00-1.5-1.5h-13z" fill="#D8DDE1"/>
    <g clip-path="url(#clip0)">
        <mask id="a" maskUnits="userSpaceOnUse" x="4" y="6" width="16" height="12">
            <path d="M18.48 6.5H5.52C4.68 6.5 4 7.188 4 8.037v7.926c0 .849.68 1.537 1.52 1.537h12.96c.84 0 1.52-.688 1.52-1.537V8.037c0-.849-.68-1.537-1.52-1.537z" fill="#fff"/>
        </mask>
        <g mask="url(#a)" fill-rule="evenodd" clip-rule="evenodd">
            <path d="M4 17.5h16v-11H4v11z" fill="#EE1C25"/>
            <path d="M4 13.833h16V6.5H4v7.333z" fill="#0B4EA2"/>
            <path d="M4 10.167h16V6.5H4v3.667z" fill="#fff"/>
            <path d="M9.623 14.998c-.957-.475-2.324-1.418-2.324-3.283 0-1.864.086-2.712.086-2.712h4.475s.086.848.086 2.712c0 1.865-1.367 2.808-2.324 3.283" fill="#fff"/>
            <path d="M9.622 14.75c-.877-.436-2.132-1.3-2.132-3.011 0-1.71.08-2.489.08-2.489h4.105s.08.778.08 2.489c0 1.71-1.256 2.575-2.133 3.011z" fill="#EE1C25"/>
            <path d="M9.81 11.29c.237.004.7.014 1.114-.129 0 0-.011.152-.011.33 0 .177.01.33.01.33-.378-.131-.845-.134-1.113-.13v.945h-.375v-.945c-.268-.004-.735-.001-1.114.13 0 0 .011-.153.011-.33 0-.177-.01-.33-.01-.33.412.143.875.133 1.113.13v-.594a2.562 2.562 0 00-.881.13s.01-.152.01-.33c0-.177-.01-.33-.01-.33.352.122.663.133.88.131-.011-.376-.117-.85-.117-.85s.218.018.305.018c.088 0 .306-.017.306-.017s-.106.473-.117.85c.216.001.528-.01.88-.131 0 0-.01.152-.01.33 0 .177.01.329.01.329a2.56 2.56 0 00-.881-.13v.593z" fill="#fff"/>
            <path d="M9.622 12.534c-.442 0-.678.632-.678.632s-.132-.3-.492-.3c-.244 0-.424.224-.538.43.444.729 1.152 1.178 1.708 1.454.556-.276 1.265-.725 1.708-1.453-.114-.207-.294-.431-.538-.431-.36 0-.492.3-.492.3s-.236-.632-.678-.632z" fill="#0B4EA2"/>
        </g>
    </g>
    <defs>
        <clipPath id="clip0">
            <path fill="#fff" d="M4 6.5h16v11H4z"/>
        </clipPath>
    </defs>
</svg>
