<svg width="24" height="24" fill="none" xmlns="http://www.w3.org/2000/svg">
    <path fill-rule="evenodd" clip-rule="evenodd" d="M5.5 6h13a2 2 0 012 2v8a2 2 0 01-2 2h-13a2 2 0 01-2-2V8a2 2 0 012-2zm0 .5A1.5 1.5 0 004 8v8a1.5 1.5 0 001.5 1.5h13A1.5 1.5 0 0020 16V8a1.5 1.5 0 00-1.5-1.5h-13z" fill="#D8DDE1"/>
    <g clip-path="url(#clip0)" fill-rule="evenodd" clip-rule="evenodd">
        <path d="M18.64 6.5h-3.973v11h3.973c.751 0 1.36-.625 1.36-1.396V7.895c0-.77-.609-1.395-1.36-1.395" fill="#FF6301"/>
        <path d="M5.36 6.501c-.751 0-1.36.625-1.36 1.395v8.209c0 .77.609 1.395 1.36 1.395h3.972V6.501H5.36z" fill="#039400"/>
        <path d="M9.332 6.5h5.335v11H9.332v-11z" fill="#F9F9F9"/>
    </g>
    <defs>
        <clipPath id="clip0">
            <path fill="#fff" d="M4 6.5h16v11H4z"/>
        </clipPath>
    </defs>
</svg>
