<svg width="24" height="24" viewBox="0 0 24 24" fill="none" xmlns="http://www.w3.org/2000/svg">
    <path fill-rule="evenodd" clip-rule="evenodd" d="M11 14.2H4.51v5.4a1.6 1.6 0 001.6 1.6H11v-7zm2 0v7h4.91a1.6 1.6 0 001.6-1.6v-5.4H13zm-9.3-7a.7.7 0 00-.7.7v3.6a.7.7 0 00.7.7H11v-5H3.7zm9.3 0v5h7.3a.7.7 0 00.7-.7V7.9a.7.7 0 00-.7-.7H13z" fill="currentColor"/>
    <path fill-rule="evenodd" clip-rule="evenodd" d="M5.234 7.2C4.42 5.369 5.8 3 8.235 3 9.74 3 10.99 3.97 12 5.81 13.011 3.97 14.26 3 15.765 3c2.435 0 3.815 2.369 3 4.2h-2.274c.297-.082.514-.196.65-.339.757-.794.11-2.25-1.376-2.25-.988 0-1.906.817-2.73 2.581l.058.008h-2.186l.057-.008c-.824-1.764-1.741-2.58-2.729-2.58-1.486 0-2.133 1.455-1.376 2.249.136.143.353.257.65.339H5.234z" fill="currentColor"/>
</svg>
