<svg width="24" height="24" viewBox="0 0 24 24" fill="none" xmlns="http://www.w3.org/2000/svg">
<path d="M12 19C15.866 19 19 15.866 19 12C19 8.13401 15.866 5 12 5C8.13401 5 5 8.13401 5 12C5 15.866 8.13401 19 12 19Z" stroke="#212933" stroke-width="2" stroke-linecap="round" stroke-linejoin="round"/>
<path d="M5.5 14H18.5" stroke="#212933" stroke-width="1.6" stroke-linecap="round" stroke-linejoin="round"/>
<path d="M5.5 10H18.5" stroke="#212933" stroke-width="1.6" stroke-linecap="round" stroke-linejoin="round"/>
<path d="M11 5C11 5 9.5 8 9.5 12C9.5 16 11 19 11 19" stroke="#212933" stroke-width="1.6" stroke-linecap="round" stroke-linejoin="round"/>
<path d="M13 5C13 5 14.5 8 14.5 12C14.5 16 13 19 13 19" stroke="#212933" stroke-width="1.6" stroke-linecap="round" stroke-linejoin="round"/>
</svg>
