<svg width="24" height="24" viewBox="0 0 24 24" fill="none" xmlns="http://www.w3.org/2000/svg">
    <path d="M11.459 12.88v2.328h-.739v-5.75h1.959a1.772 1.772 0 011.268.499 1.6 1.6 0 01.53 1.213 1.593 1.593 0 01-.53 1.22c-.342.327-.765.49-1.268.49h-1.22zm0-2.713v2.007h1.238a.974.974 0 00.73-.298.98.98 0 000-1.405.962.962 0 00-.73-.305H11.46zM16.179 11.146c.546 0 .977.146 1.293.438.315.292.473.691.473 1.2v2.424h-.707v-.546h-.032c-.305.45-.712.674-1.22.674-.433 0-.796-.128-1.088-.385a1.23 1.23 0 01-.437-.963c0-.407.154-.73.461-.971.308-.24.719-.361 1.232-.362.439 0 .8.08 1.084.241v-.169a.841.841 0 00-.305-.653 1.046 1.046 0 00-.713-.27c-.412 0-.739.174-.98.522l-.65-.41c.358-.513.888-.77 1.589-.77zm-.956 2.858a.59.59 0 00.245.482.902.902 0 00.574.192c.312 0 .61-.124.83-.345.245-.23.368-.5.368-.81-.23-.184-.552-.275-.963-.275-.3 0-.55.072-.751.216-.202.147-.303.326-.303.54zM22 11.274l-2.466 5.668h-.762l.915-1.983-1.622-3.684h.803L20.04 14.1h.016l1.14-2.825H22z" fill="#5F6368"/>
    <path d="M8.474 12.378c0-.225-.019-.45-.057-.671H5.303v1.272h1.784a1.528 1.528 0 01-.66 1.003v.826h1.065c.623-.575.982-1.425.982-2.43z" fill="#4285F4"/>
    <path d="M5.303 15.606c.89 0 1.641-.293 2.189-.797l-1.065-.826c-.296.2-.678.315-1.124.315-.862 0-1.593-.58-1.855-1.363H2.352v.851a3.302 3.302 0 002.95 1.82z" fill="#34A853"/>
    <path d="M3.448 12.935a1.979 1.979 0 010-1.264v-.851H2.352a3.303 3.303 0 000 2.966l1.096-.85z" fill="#FBBC04"/>
    <path d="M5.303 10.308c.47-.008.926.17 1.267.495l.942-.943A3.173 3.173 0 005.302 9a3.303 3.303 0 00-2.95 1.82l1.096.85c.262-.782.993-1.362 1.855-1.362z" fill="#EA4335"/>
</svg>
