<svg width="24" height="24" viewBox="0 0 24 24" fill="none" xmlns="http://www.w3.org/2000/svg">
    <path d="M19.612 6.415a4.73 4.73 0 00-1.537-1.047 4.659 4.659 0 00-3.626 0 4.731 4.731 0 00-1.536 1.047l-.913.93-.913-.93A4.693 4.693 0 007.737 5a4.693 4.693 0 00-3.35 1.415A4.875 4.875 0 003 9.828c0 1.28.5 2.509 1.388 3.414l.912.93L12 21l6.7-6.828.912-.93c.44-.448.79-.98 1.027-1.566a4.908 4.908 0 000-3.695 4.834 4.834 0 00-1.027-1.566v0z" stroke="currentColor" stroke-width="2" stroke-linecap="round" stroke-linejoin="round"/>
</svg>
