<svg width="24" height="24" viewBox="0 0 24 24" fill="none" xmlns="http://www.w3.org/2000/svg">
    <path d="M4.351 6.54l11.216-2.674a3.068 3.068 0 013.684 2.276l2.666 11.25a3.07 3.07 0 01-.43 2.405H4.348l-2.266-9.56A3.078 3.078 0 014.35 6.54z" fill="#E46C2A"/>
    <path d="M4.327 11.14v4.807h1.088v-2.011h1.784v2.01h1.08V11.14H7.2v1.847H5.415V11.14H4.327zM17.639 14.549c.014-.079.035-.242.035-.428 0-.863-.427-1.74-1.55-1.74-1.208 0-1.756.977-1.756 1.861 0 1.091.676 1.776 1.856 1.776.469 0 .903-.071 1.258-.214l-.142-.735a3.05 3.05 0 01-.96.143c-.505 0-.945-.214-.981-.663h2.24zm-2.247-.742c.028-.292.213-.706.668-.706.498 0 .612.442.612.706h-1.28zm2.628 2.14h1.081v-1.769c0-.086.007-.171.021-.242.072-.336.342-.55.74-.55.12 0 .213.015.291.029v-1.02c-.078-.014-.128-.014-.227-.014-.334 0-.76.214-.939.72h-.028l-.036-.642h-.931c.014.3.028.635.028 1.149v2.339z" fill="#FFFFFE"/>
    <path d="M9.38 10.947a.557.557 0 11-.002 1.113.557.557 0 01.002-1.114z" fill="#FFE80F"/>
    <path d="M11.662 15.134h.542c.545 0 .791-.35.791-.714 0-.365-.026-1.19-.699-1.19-.773 0-.648 1.024-.644 1.56 0 .115.007.23.01.344zm-2.838-2.68h1.111v1.966c0 .364.202.714.648.714.003-.885 0-1.795-.03-2.68h.928c.02.17.039.341.056.513.438-.88 1.82-.686 2.285.056.48.767.644 2.963-1.617 2.963h-.527c.005.447.006.893.006 1.34h-1.111c0-.429.003-.878.005-1.34-1.2-.004-1.754-.769-1.754-1.566v-1.966z" fill="#FFFFFE"/>
</svg>
