<svg width="24" height="24" fill="none" xmlns="http://www.w3.org/2000/svg">
    <path d="M7.49 7H5.418c-.916.05-1.665.473-1.881 1.347-.113.456-.175.956-.263 1.429C2.826 12.178 2.429 14.646 2 17h16.137c1.248 0 2.105-.303 2.336-1.44.108-.529.21-1.127.314-1.708L22 7H7.49z" fill="#B82126"/>
    <path d="M15.433 13.083c-.222.23-.848.297-.784-.256.053-.459.525-.556 1.036-.49-.038.25-.082.57-.252.746zm-.703-1.79c-.022.126-.054.24-.08.362.254-.068 1.049-.276 1.125.085.026.12-.018.247-.05.341-.718-.072-1.304.054-1.458.597-.103.363.012.72.231.82.424.193.938-.028 1.116-.33-.018.105-.036.21-.03.341h.372c.004-.378.056-.683.11-1.023.048-.29.135-.576.122-.831-.032-.585-.947-.378-1.458-.362zm3.73 1.97c-.291.008-.436-.183-.443-.5-.011-.554.218-1.17.684-1.226.217-.025.374.028.533.086-.146.623-.093 1.625-.774 1.64zm.965-2.93a11.09 11.09 0 01-.15.991c-1.061-.355-1.712.472-1.7 1.492.002.198.034.393.15.533.201.24.776.298 1.066.096a.778.778 0 00.151-.16c.028-.037.073-.134.08-.106-.014.108-.037.208-.04.33h.393c.075-1.149.309-2.13.482-3.176h-.432zm-11.07 2.76c-.231.26-.8.256-.844-.18-.02-.19.047-.39.08-.587.034-.199.058-.39.09-.565.228-.294.898-.33.966.16.059.426-.1.957-.292 1.172zm.342-1.8c-.366-.146-.812.028-1.005.193 0 .007-.005.008-.01.009l.01-.009v-.002c.003-.07.027-.12.03-.191H7.35a77.897 77.897 0 01-.533 3.207h.432c.063-.41.104-.842.191-1.225.099.403.744.326 1.016.17.561-.322.994-1.853.241-2.152zm2.051.767H9.733a.613.613 0 01.573-.533c.311-.013.534.121.442.533zm-.412-.81c-.313.025-.577.12-.764.33-.23.257-.417.825-.362 1.343.078.738.945.712 1.639.533.011-.13.041-.24.06-.363-.286.114-.782.272-1.076.075-.222-.149-.223-.525-.15-.852.466-.016.95-.013 1.417 0 .03-.232.114-.485.04-.715-.098-.302-.448-.38-.804-.351zm-3.8.043c-.012.001-.011.016-.01.031a33.158 33.158 0 01-.363 2.185h.433c.104-.76.223-1.504.372-2.216h-.433zm11.28.01c-.382-.202-.7.137-.824.341.035-.104.037-.244.07-.351h-.382a34.68 34.68 0 01-.372 2.216h.442c.003-.294.058-.511.101-.8.093-.614.228-1.29.905-1.086.022-.104.032-.222.06-.32zm-4.856 1.684c-.04-.11-.05-.29-.04-.426.022-.308.128-.683.291-.853.226-.234.671-.195 1.026-.064.011-.127.035-.24.05-.362-.582-.101-1.135-.038-1.428.287-.286.32-.474 1.052-.341 1.514.155.54.853.569 1.417.362.025-.108.038-.23.06-.341-.308.17-.898.258-1.035-.117zm-.241-1.694c-.384-.165-.685.113-.825.372.032-.115.045-.25.07-.372h-.381c-.094.767-.231 1.488-.362 2.216h.432c.06-.432.087-1.015.221-1.428.108-.33.389-.612.794-.458.006-.122.04-.215.05-.33zm-6.968-.896c-.062.425-.131.841-.2 1.258-.449.005-.906.023-1.338-.01.082-.408.14-.84.221-1.248h-.482c-.173 1.04-.33 2.095-.523 3.112h.492c.078-.522.15-1.05.252-1.545.42-.011.923-.03 1.327.01-.083.516-.184 1.013-.262 1.535h.493c.158-1.054.325-2.1.523-3.112H5.75zm1.227.47c.086-.064.197-.35.07-.47-.04-.037-.107-.048-.2-.032-.088.016-.138.047-.172.096-.054.08-.104.317-.02.405.082.086.267.04.322 0z" fill="#fff"/>
</svg>
