<svg width="24" height="24" fill="none" xmlns="http://www.w3.org/2000/svg">
    <path d="M19.04 19.04h-2.962V14.4c0-1.107-.02-2.531-1.542-2.531-1.543 0-1.78 1.206-1.78 2.45v4.722H9.794V9.497h2.845v1.304h.04a3.118 3.118 0 012.807-1.541c3.003 0 3.557 1.975 3.557 4.546l-.001 5.235zM6.45 8.194a1.72 1.72 0 110-3.44 1.72 1.72 0 010 3.44zM7.93 19.04H4.965V9.497H7.93v9.544zM20.518 2H3.476A1.46 1.46 0 002 3.443v17.113A1.46 1.46 0 003.476 22h17.042A1.463 1.463 0 0022 20.556V3.442A1.463 1.463 0 0020.518 2" fill="currentColor"/>
</svg>
