<svg width="24" height="24" fill="none" xmlns="http://www.w3.org/2000/svg">
    <path d="M8.051 20.3v-1.02a.6.6 0 00-.175-.465.614.614 0 00-.468-.178.637.637 0 00-.578.29.604.604 0 00-.543-.29.545.545 0 00-.48.241v-.2H5.45V20.3h.36v-.9a.376.376 0 01.098-.31.385.385 0 01.304-.12c.237 0 .357.151.357.427v.902h.36V19.4a.38.38 0 01.1-.308.39.39 0 01.303-.123c.244 0 .36.152.36.428v.902h.359zm2.009-.81v-.81h-.361v.197a.624.624 0 00-.515-.238.854.854 0 00-.833.849c0 .46.369.835.833.849.2.007.392-.081.515-.238v.197h.357l.004-.806zm-1.328 0a.494.494 0 01.514-.462c.27.01.482.231.478.498a.494.494 0 01-.493.483.493.493 0 01-.367-.15.483.483 0 01-.135-.37h.003zm8.957-.85c.117 0 .234.023.343.065.21.082.378.244.465.45.09.218.09.461 0 .679a.825.825 0 01-.465.45.982.982 0 01-.703 0 .833.833 0 01-.462-.45.892.892 0 010-.68.833.833 0 01.461-.449.93.93 0 01.357-.07l.004.006zm0 .34a.54.54 0 00-.204.037.48.48 0 00-.272.277.583.583 0 000 .422.478.478 0 00.272.276.562.562 0 00.578-.107.492.492 0 00.109-.17.583.583 0 000-.421.492.492 0 00-.109-.17.493.493 0 00-.171-.107.538.538 0 00-.206-.047l.003.01zm-5.69.51c0-.51-.319-.85-.777-.85a.86.86 0 00-.738.436.841.841 0 00.013.849.86.86 0 00.75.414 1.01 1.01 0 00.67-.228l-.17-.262a.787.787 0 01-.478.17.454.454 0 01-.491-.398h1.217c.005-.041.005-.084.005-.132zm-1.22-.143a.42.42 0 01.431-.392.405.405 0 01.416.393l-.847-.001zm2.723-.255a1.065 1.065 0 00-.515-.14c-.196 0-.312.073-.312.192 0 .118.123.138.277.159l.172.023c.357.052.573.201.573.486s-.274.53-.746.53a1.193 1.193 0 01-.71-.21l.172-.276c.158.116.35.176.547.17.243 0 .374-.071.374-.197 0-.091-.093-.142-.289-.17l-.171-.024c-.368-.05-.567-.213-.567-.478 0-.323.268-.52.687-.52a1.24 1.24 0 01.667.17l-.16.285zM15.219 19h-.583v.733c0 .169.06.272.238.272a.664.664 0 00.315-.093l.104.302a.838.838 0 01-.447.126c-.422 0-.57-.224-.57-.6V19h-.333v-.322h.333v-.493h.36v.493h.583V19zm1.234-.363c.086 0 .173.015.254.044l-.11.34a.587.587 0 00-.223-.04c-.233 0-.343.149-.343.417v.908h-.357v-1.621h.353v.197a.485.485 0 01.433-.238l-.008-.007h.001zm2.469 1.427a.17.17 0 01.119.045.157.157 0 01-.054.261.164.164 0 01-.065.014.171.171 0 01-.155-.098.158.158 0 01.036-.177.172.172 0 01.11-.045h.009zm0 .287a.122.122 0 00.089-.037.124.124 0 00.029-.138.13.13 0 00-.209-.04.124.124 0 000 .17.128.128 0 00.09.038v.006zm.01-.203a.07.07 0 01.045.014.04.04 0 01.014.036.037.037 0 01-.01.03.06.06 0 01-.037.015l.05.057h-.04l-.046-.057h-.016v.057h-.032v-.157l.072.005zm-.037.03v.04h.037a.037.037 0 00.02 0 .017.017 0 000-.015.017.017 0 000-.016.037.037 0 00-.02 0l-.037-.01z" fill="#000"/>
    <path d="M9.296 6.31h5.408v9.608H9.296V6.31z" fill="#7673C0"/>
    <path d="M9.64 11.114A6.078 6.078 0 0112 6.307c-2.534-1.97-6.173-1.683-8.36.659a6.063 6.063 0 000 8.294c2.187 2.342 5.826 2.629 8.36.659a6.078 6.078 0 01-2.36-4.805z" fill="#EB001B"/>
    <path d="M21.999 11.114a6.107 6.107 0 01-3.48 5.495A6.237 6.237 0 0112 15.92a6.089 6.089 0 002.361-4.806c0-1.876-.87-3.647-2.361-4.806a6.237 6.237 0 016.52-.693A6.107 6.107 0 0122 11.111l-.001.003z" fill="#00A1DF"/>
</svg>
