<svg width="24" height="24" fill="none" xmlns="http://www.w3.org/2000/svg">
    <path d="M19.761 7.5c.156.273.239.584.239.9v7.2c0 .316-.083.627-.239.9-.156.273-.38.5-.65.658l-6.222 3.6A1.76 1.76 0 0112 21m7.761-13.5a1.79 1.79 0 00-.65-.658L16 5.042M19.761 7.5L12 12M4.239 7.5c.156-.273.38-.5.65-.658l6.222-3.6a1.76 1.76 0 011.778 0L16 5.041M4.239 7.5A1.818 1.818 0 004 8.4v7.2c0 .316.083.627.239.9.156.273.38.5.65.658l6.222 3.6c.27.159.577.242.889.242M4.239 7.5L8 9.75M12 21v-9m0 0L8 9.75m0 0l8-4.708" stroke="currentColor" stroke-width="2" stroke-linecap="round" stroke-linejoin="round"/>
</svg>
