<svg width="24" height="24" viewBox="0 0 24 24" fill="none" xmlns="http://www.w3.org/2000/svg">
    <path fill-rule="evenodd" clip-rule="evenodd" d="M2 10h9.643l-1.124 4.034H2V10z" fill="#BE0811"/>
    <path fill-rule="evenodd" clip-rule="evenodd" d="M22 10l-1.141 4.034h-10.34L11.642 10H22z" fill="#001D7E"/>
    <path d="M13.09 11.914c.022-.134.03-.246.026-.34a.669.669 0 00-.047-.23.364.364 0 00-.231-.22.532.532 0 00-.152-.023.711.711 0 00-.285.062.759.759 0 00-.26.191 1.409 1.409 0 00-.228.333c-.068.137-.13.3-.18.487-.05.191-.083.354-.09.495a.886.886 0 00.04.343c.032.09.082.155.15.198a.436.436 0 00.246.065.675.675 0 00.477-.173c.076-.065.145-.155.217-.27.069-.116.133-.264.195-.445h-.343a.959.959 0 01-.105.22.65.65 0 01-.134.145.261.261 0 01-.148.05c-.068 0-.122-.025-.155-.072-.036-.047-.054-.119-.054-.213s.018-.206.054-.336a1.55 1.55 0 01.13-.336.675.675 0 01.166-.21.318.318 0 01.195-.071c.047 0 .083.01.116.032.029.022.05.058.065.112.01.05.014.123.003.21.105-.004.217-.004.333-.004zm.044.264c-.05.191-.076.354-.08.494a.877.877 0 00.047.343.39.39 0 00.163.2.496.496 0 00.26.064.69.69 0 00.293-.065.831.831 0 00.263-.199 1.41 1.41 0 00.224-.343c.065-.137.123-.303.173-.494.047-.192.073-.354.073-.488a.823.823 0 00-.05-.336.374.374 0 00-.163-.191.508.508 0 00-.257-.062.711.711 0 00-.285.062.833.833 0 00-.26.191 1.36 1.36 0 00-.224.336c-.069.134-.13.296-.177.488zm.343 0c.033-.134.076-.242.127-.336a.726.726 0 01.162-.21.318.318 0 01.195-.072c.069 0 .12.025.155.072a.362.362 0 01.058.21 1.28 1.28 0 01-.047.336 1.493 1.493 0 01-.123.335.694.694 0 01-.166.214.318.318 0 01-.195.072.191.191 0 01-.159-.072.375.375 0 01-.057-.213c0-.09.014-.203.05-.336zm2.51 1.018h.336l.159-.693c.054-.228.105-.459.159-.683a1.58 1.58 0 00.043-.332.487.487 0 00-.04-.213.247.247 0 00-.1-.116.274.274 0 00-.142-.036c-.09 0-.18.033-.263.098a.98.98 0 00-.239.278.818.818 0 00-.021-.199.247.247 0 00-.083-.13.23.23 0 00-.152-.047.413.413 0 00-.145.029.755.755 0 00-.256.188c-.036.04-.065.083-.094.123h-.003c.025-.098.046-.192.072-.29H14.9l-.25 1.001c-.082.336-.165.679-.252 1.019h.336c.047-.185.09-.369.133-.553l.134-.549c.018-.08.043-.148.069-.206a.663.663 0 01.09-.144.37.37 0 01.101-.087.228.228 0 01.105-.029c.025 0 .047.004.065.015.022.01.036.028.05.054a.216.216 0 01.022.104.809.809 0 01-.022.167c-.046.202-.097.404-.144.606-.05.203-.098.408-.148.614h.336l.13-.552.13-.55c.018-.079.043-.147.068-.205a.67.67 0 01.087-.145.371.371 0 01.101-.086.215.215 0 01.101-.03c.026 0 .047.004.069.015.022.011.04.03.05.055a.216.216 0 01.022.104.617.617 0 01-.021.166l-.141.607c-.04.224-.087.426-.134.632zm1.116-1.008c.022-.097.05-.18.083-.252a.773.773 0 01.108-.18.485.485 0 01.123-.11.241.241 0 01.127-.035c.043 0 .079.01.111.036a.244.244 0 01.076.108.51.51 0 01.03.18 1.422 1.422 0 01-.11.506.888.888 0 01-.107.184.438.438 0 01-.123.112.253.253 0 01-.13.037.173.173 0 01-.112-.037.238.238 0 01-.076-.111.555.555 0 01-.025-.185.823.823 0 01.025-.253zm-.726 1.777h.34l.111-.502c.037-.166.076-.332.112-.498h.004a.394.394 0 00.054.162.284.284 0 00.108.109.385.385 0 00.163.04c.08 0 .163-.03.242-.08a.947.947 0 00.227-.224c.073-.097.138-.213.195-.346.058-.134.105-.282.141-.448.04-.177.058-.333.055-.463a.856.856 0 00-.055-.328.456.456 0 00-.14-.195.363.363 0 00-.213-.065.37.37 0 00-.138.025.464.464 0 00-.144.098c-.05.046-.105.111-.166.202h-.004c.022-.09.04-.18.061-.271h-.317l-.315 1.376c-.108.466-.213.935-.321 1.408zm1.658-.769h.335c.033-.148.062-.296.094-.44.033-.149.062-.293.094-.438.03-.13.065-.242.109-.335a.567.567 0 01.155-.21.315.315 0 01.202-.072c.03 0 .062.007.087.018.029.01.054.025.083.043.043-.206.083-.411.126-.614a.27.27 0 00-.058-.014c-.021-.004-.04-.004-.057-.004a.31.31 0 00-.13.026.457.457 0 00-.12.08 1.2 1.2 0 00-.115.136c-.04.055-.083.123-.13.199h-.004c.03-.13.055-.26.084-.39h-.318l-.217 1c-.072.336-.148.676-.22 1.015zm2.018-.827a.849.849 0 01-.057.184.852.852 0 01-.083.141.67.67 0 01-.102.101.544.544 0 01-.108.062.28.28 0 01-.105.018.165.165 0 01-.104-.033.162.162 0 01-.055-.097.457.457 0 01.004-.156.42.42 0 01.05-.144.243.243 0 01.077-.083.3.3 0 01.104-.036l.199-.033a.62.62 0 00.105-.025.332.332 0 00.108-.062c-.007.055-.022.109-.033.163zm-.415-.581c.025-.069.05-.123.072-.163a.393.393 0 01.073-.09.177.177 0 01.079-.036c.029-.008.061-.008.094-.008a.33.33 0 01.148.026c.033.018.058.043.065.08.01.035.01.079 0 .133a.508.508 0 01-.036.123.13.13 0 01-.054.061.245.245 0 01-.087.025c-.12.018-.242.033-.361.047a.59.59 0 00-.253.09.65.65 0 00-.12.109.954.954 0 00-.176.426c-.025.12-.033.22-.029.303a.48.48 0 00.05.206.246.246 0 00.12.116c.05.025.108.036.177.036a.719.719 0 00.267-.061.771.771 0 00.14-.09.723.723 0 00.13-.145c-.003.036-.01.072-.014.108-.003.036-.003.072-.007.109h.336c-.003-.051 0-.112.007-.178a2.36 2.36 0 01.036-.234l.098-.506.097-.498a1.65 1.65 0 00.03-.213.633.633 0 00-.015-.188.363.363 0 00-.072-.144.39.39 0 00-.145-.098.712.712 0 00-.235-.036c-.054 0-.108.003-.162.01a.533.533 0 00-.318.167.799.799 0 00-.137.198c-.043.083-.08.185-.112.307.101.008.206.008.314.008zm-13.546-.81h.567c.029 0 .054.004.08.015.024.01.043.029.06.054a.262.262 0 01.026.105.72.72 0 01-.18.44.32.32 0 01-.087.062.229.229 0 01-.08.018H5.89c.058-.231.13-.462.203-.693zm-.542.308H2v.332h3.449l-.058.184H2v.336h3.286l-.057.184H2v.332h3.127l-.068.22H2v.333h3.41l.331-1.015h.535c.036 0 .065.007.09.022.025.014.044.04.05.076.012.036.012.083.004.148-.007.061-.025.14-.054.238-.021.072-.04.134-.058.188-.014.054-.028.1-.036.137a.716.716 0 00-.029.206h.488a.503.503 0 01-.007-.134c.003-.054.014-.108.025-.17.01-.057.025-.115.04-.17l.036-.13c.018-.053.032-.111.05-.176.015-.062.03-.123.04-.184a.99.99 0 00.015-.174.352.352 0 00-.026-.133.11.11 0 00-.076-.069c0-.004 0-.004.004-.007a.76.76 0 00.278-.25c.076-.108.141-.248.192-.415a1.37 1.37 0 00.043-.184.938.938 0 00.014-.198.487.487 0 00-.036-.181.279.279 0 00-.112-.13.395.395 0 00-.213-.05H5.81l-.26.834zm2.622 1.303a.648.648 0 01-.192.203.4.4 0 01-.227.068.25.25 0 01-.163-.05.284.284 0 01-.086-.127.403.403 0 01-.022-.162.766.766 0 01.025-.163c0-.003 0-.003.004-.007h1.188l.018-.061c.08-.26.116-.48.116-.665-.004-.184-.047-.321-.134-.419-.086-.097-.22-.144-.397-.144a.958.958 0 00-.35.065 1.036 1.036 0 00-.318.198c-.098.09-.188.206-.271.347a2.41 2.41 0 00-.213.502 2 2 0 00-.094.502.71.71 0 00.061.347c.044.09.109.159.195.198a.697.697 0 00.315.065.96.96 0 00.69-.3c.104-.104.202-.234.288-.4-.144.003-.289.003-.433.003zm-.538-.635c0-.004 0-.004.003-.008l.03-.064c.017-.037.039-.073.068-.116a.693.693 0 01.108-.126.59.59 0 01.145-.105.367.367 0 01.177-.043.24.24 0 01.14.036.223.223 0 01.08.093c.018.04.029.08.032.12a.655.655 0 010 .119.283.283 0 01-.018.09c0 .004 0 .004-.003.007-.253-.003-.506-.003-.762-.003zm1.683.23c.029-.097.065-.183.108-.26a.876.876 0 01.14-.187.543.543 0 01.156-.112.369.369 0 01.16-.04c.05 0 .093.011.133.04a.253.253 0 01.086.112c.022.05.03.112.03.188a1.224 1.224 0 01-.155.52.88.88 0 01-.142.188.543.543 0 01-.155.112.366.366 0 01-.155.04.233.233 0 01-.134-.04.21.21 0 01-.087-.112.424.424 0 01-.025-.188.8.8 0 01.04-.26zm.455 1.027h.393c.141-.47.279-.936.42-1.402.137-.466.277-.931.415-1.394h-.405c-.05.163-.097.329-.148.491-.05.163-.097.33-.148.492h-.004a.35.35 0 00-.057-.163.308.308 0 00-.127-.108.458.458 0 00-.195-.04.595.595 0 00-.292.08c-.098.05-.195.126-.286.223-.09.098-.173.213-.249.35a2.359 2.359 0 00-.281.932.8.8 0 00.043.34c.036.09.087.159.155.206a.43.43 0 00.25.068.582.582 0 00.187-.028.575.575 0 00.195-.105c.065-.05.134-.12.206-.206h.004l-.076.264z" fill="#fff"/>
</svg>
