<svg width="24" height="24" viewBox="0 0 24 24" fill="none" xmlns="http://www.w3.org/2000/svg">
    <path d="M12 5v7.5" stroke="currentColor" stroke-width="2"/>
    <path d="M9 4a1 1 0 000 2V4zm0 2h2V4H9v2zM15 6a1 1 0 100-2v2zm-2 0h2V4h-2v2zM9 11.5a1 1 0 100 2v-2zm0 2h2v-2H9v2zM15 13.5a1 1 0 100-2v2zm-2 0h2v-2h-2v2zM16 7.5a1 1 0 100 2v-2zm-8 2a1 1 0 000-2v2zm10 7H6v2h12v-2zm-12 0v-7H4v7h2zm12-7v7h2v-7h-2zm-2 0h2v-2h-2v2zm-10 0h2v-2H6v2zm14 0a2 2 0 00-2-2v2h2zm-14 7H4a2 2 0 002 2v-2zm12 2a2 2 0 002-2h-2v2zm-12-9v-2a2 2 0 00-2 2h2z" fill="currentColor"/>
</svg>
