<svg width="24" height="24" fill="none" xmlns="http://www.w3.org/2000/svg">
    <path fill-rule="evenodd" clip-rule="evenodd" d="M21.995 12.642c.06 1.158-.457 1.838-1.548 2.045-.381.077-.76.147-1.139.209-.029.076-.06.148-.09.222l-.002.003c.274.36.532.728.774 1.107.013.02.025.042.036.063l.012.022c.106.209.17.428.192.657l-.007-.022a1.714 1.714 0 01-.449 1.41.307.307 0 00-.024.03c-.374.385-.753.77-1.138 1.154l-.03.031c-.782.84-1.624.938-2.525.295h.015a61.87 61.87 0 01-1.107-.768l-.015-.015a9.971 9.971 0 00-.03.217c-.073.448-.158.892-.256 1.332l-.009.046a1.618 1.618 0 01-.356.66 1.785 1.785 0 01-1.255.642h-.062a95.884 95.884 0 01-1.672.015c-1.139.042-1.8-.48-1.984-1.572v.023a28.38 28.38 0 01-.208-1.146 5.84 5.84 0 01-.224-.093c-.357.265-.726.518-1.108.759l-.023.015a1.6 1.6 0 01-.72.248h-.008c-.511.042-.97-.11-1.378-.457l-.054-.047a129.845 129.845 0 00-1.155-1.137c-.831-.772-.937-1.611-.317-2.517a5.419 5.419 0 01.782-1.123l-.112-.017-.097-.014a16.18 16.18 0 01-1.363-.272l.062.008a1.47 1.47 0 01-.79-.41 1.787 1.787 0 01-.596-1.216v-.078a83.756 83.756 0 00-.015-1.626c-.039-1.128.485-1.8 1.572-2.013l-.016.008c.376-.08.755-.149 1.139-.209a4.22 4.22 0 01.085-.217A19.578 19.578 0 014 7.75l-.016-.034a1.694 1.694 0 01-.216-.688l.007.024a1.714 1.714 0 01.449-1.41l.022-.028.002-.003c.372-.381.749-.764 1.13-1.145.772-.868 1.624-.979 2.555-.333h-.007c.318.214.634.434.944.658.054.035.106.072.159.11l.02.014.03-.217c.07-.447.156-.892.256-1.332l.008-.047a1.631 1.631 0 01.356-.658 1.783 1.783 0 011.254-.642h.063a86.133 86.133 0 011.672-.016c1.14-.042 1.799.48 1.982 1.572v-.023c.078.38.148.759.21 1.139a8.739 8.739 0 01.046.247c.535-.403.969-.713 1.3-.929l.038-.021.018-.01c.2-.114.426-.184.672-.21h.008c.512-.041.97.11 1.38.458l.032.027.021.02a116.01 116.01 0 001.153 1.137c.848.785.949 1.629.303 2.533v-.016l-.02.03c-.206.304-.413.609-.623.915-.04.053-.077.106-.116.16l-.024.034.233.03a20.01 20.01 0 011.332.256 1.438 1.438 0 01.696.356c.02.015.036.03.054.046.38.333.579.75.598 1.255v.023c.009.537.014 1.074.014 1.61zM11.146 3.767a.23.23 0 01-.007.032v.015l.007-.047zm-.039.11v-.01l-.007.01h.007zm-7.24 8.997l.008.007v-.007h-.008zm8.987 7.34l.004-.015v-.015l-.009.047a.174.174 0 00.005-.017zm.034-.092v.009l.008-.009h-.008zm5.615-6.992l.302-.031h-.054c.442-.07.883-.15 1.324-.24.044-.02.065-.062.062-.124v-.047c0-.516-.005-1.032-.015-1.548-.448-.097-.9-.177-1.356-.24a.55.55 0 01-.061-.016h-.009a.875.875 0 01-.587-.147.91.91 0 01-.38-.511 5.78 5.78 0 00-.427-1.038.916.916 0 01.163-1.092.582.582 0 00.07-.085v.008c.265-.377.526-.754.781-1.13v-.016c.011-.036-.005-.073-.046-.109-.008-.008-.015-.017-.023-.023-.376-.368-.749-.734-1.114-1.1-.395.257-.78.523-1.154.798l-.009.008a.24.24 0 00-.038.03.91.91 0 01-.534.31.903.903 0 01-.612-.093 5.375 5.375 0 00-1.015-.425.915.915 0 01-.48-.333.92.92 0 01-.186-.558.436.436 0 00-.007-.077 1.585 1.585 0 01-.016-.054c-.07-.442-.15-.883-.24-1.325V3.9c-.02-.03-.056-.043-.109-.039h-.046c-.527.001-1.047.006-1.564.016-.098.448-.177.9-.24 1.355a.732.732 0 01-.015.062v.008a.88.88 0 01-.149.588.914.914 0 01-.51.38 4.959 4.959 0 00-.991.418.908.908 0 01-.581.109.903.903 0 01-.527-.264.762.762 0 00-.093-.07.38.38 0 00-.023-.023c-.364-.263-.733-.52-1.107-.774h-.008c-.038-.016-.074-.003-.109.039a1.42 1.42 0 01-.017.017l-.022.021c-.368.37-.732.739-1.09 1.107.245.392.508.774.789 1.147.004.006.009.01.016.016a.91.91 0 01.348.557.888.888 0 01-.101.643c-.177.313-.31.644-.403.99a.901.901 0 01-.333.496.911.911 0 01-.565.194.642.642 0 00-.108.015.93.93 0 01-.045.006l-.017.002c-.43.058-.857.13-1.278.217l-.015.008c-.06.012-.084.053-.07.123v.032c.01.52.015 1.042.015 1.565.448.105.9.19 1.355.254a.218.218 0 00.063 0 .893.893 0 01.619.155.91.91 0 01.38.52 4.8 4.8 0 00.402.999c.097.18.131.37.101.572a.926.926 0 01-.264.526.423.423 0 00-.038.055l-.036.05-.01.012c-.266.354-.516.713-.752 1.077l-.002.002a.11.11 0 00-.013.021c-.018.046-.003.09.046.132a.445.445 0 01.023.023c.375.364.744.727 1.108 1.091.393-.247.772-.508 1.138-.781l.063-.047h.007a.917.917 0 01.527-.31.906.906 0 01.604.085c.337.175.689.322 1.054.442a.922.922 0 01.464.341.894.894 0 01.178.542.602.602 0 00.016.092 30.533 30.533 0 00.248 1.364v.023c.019.03.055.042.107.038h.047c.527 0 1.048-.006 1.565-.016.095-.448.177-.9.24-1.355a.478.478 0 01.015-.062v-.007a.88.88 0 01.147-.589.917.917 0 01.511-.38c.353-.105.69-.242 1.007-.41a.92.92 0 011.092.163l.01.006a1.29 1.29 0 01.1.067l.005.005c.365.263.734.52 1.108.774h.015c.037.01.073-.006.108-.047l.031-.03c.372-.373.739-.744 1.1-1.116-.245-.377-.51-.747-.79-1.108a3.698 3.698 0 01-.054-.077v-.007a.918.918 0 01-.31-.535.907.907 0 01.093-.612 5.38 5.38 0 00.427-1.014.935.935 0 01.293-.45c.14-.117.3-.187.48-.208zM14 12a2 2 0 11-4 0 2 2 0 014 0zm2 0a4 4 0 11-8 0 4 4 0 018 0z" fill="currentColor"/>
</svg>
