<svg width="24" height="24" viewBox="0 0 24 24" fill="none" xmlns="http://www.w3.org/2000/svg">
    <path fill-rule="evenodd" clip-rule="evenodd" d="M20.452 14.69c1.09-.206 1.608-.887 1.548-2.045 0-.536-.005-1.073-.015-1.61v-.023a1.685 1.685 0 00-.65-1.302l-.006-.005a1.438 1.438 0 00-.73-.358c-.428-.097-.86-.18-1.293-.248a9.668 9.668 0 00-.233-.03l.024-.034c.039-.055.077-.108.116-.16l.623-.916.02-.03v.016c.646-.904.545-1.748-.303-2.532-.387-.377-.771-.756-1.153-1.138l-.021-.019-.033-.027c-.41-.348-.867-.5-1.38-.458h-.007a1.708 1.708 0 00-.672.21l-.018.01-.037.02a24.61 24.61 0 00-1.301.93 27.95 27.95 0 00-.256-1.386v.023c-.183-1.092-.842-1.615-1.982-1.572-.579 0-1.157.004-1.736.015a1.783 1.783 0 00-1.27.658c-.16.186-.276.406-.34.643a1.7 1.7 0 00-.007.047 19.783 19.783 0 00-.286 1.548l-.02-.014a6.399 6.399 0 00-.16-.11c-.31-.224-.625-.443-.943-.658h.007c-.93-.645-1.783-.535-2.555.333-.381.382-.758.765-1.13 1.146l-.002.002c-.007.01-.013.02-.022.029a1.714 1.714 0 00-.45 1.41l-.006-.024c.022.242.095.477.216.688l.016.033c.246.39.507.772.782 1.146-.031.072-.06.144-.085.217-.384.06-.763.13-1.14.208l.017-.008c-1.087.214-1.61.886-1.572 2.014-.002.171-.002.171-.002.671s.015.5.015 1c0 .223.08.5.08.5s.097.33.518.747c.222.22.485.357.79.412l-.062-.008c.45.11.905.2 1.363.271l.097.015.112.016a20.86 20.86 0 00-.767 1.101l-.015.022c-.62.906-.514 1.746.317 2.517l.007.007.017.015c.38.373.758.744 1.13 1.116l.055.047c.408.347.867.499 1.378.457h.008a1.6 1.6 0 00.74-.261l.003-.003c.382-.24.75-.493 1.108-.758.073.032.148.062.224.092.06.383.13.764.208 1.146v-.022c.184 1.09.845 1.614 1.984 1.571h.046c.547 0 1.09-.006 1.626-.015h.062a1.786 1.786 0 001.27-.658 1.62 1.62 0 00.34-.643l.01-.047c.098-.44.183-.883.255-1.332l.03-.216.016.015c.055.037.11.076.163.117.31.218.627.436.944.65h-.015c.9.643 1.743.546 2.525-.294l.03-.031c.385-.384.764-.77 1.138-1.154a.315.315 0 01.024-.03c.364-.406.514-.877.449-1.41l.007.022a1.85 1.85 0 00-.192-.657l-.012-.022a1.416 1.416 0 00-.035-.064 17.048 17.048 0 00-.775-1.107v-.002c.033-.073.063-.147.092-.222.378-.062.758-.133 1.139-.21zM16.005 12a4 4 0 11-8 0 4 4 0 018 0z" fill="currentColor"/>
</svg>
