<svg width="24" height="24" viewBox="0 0 24 24" fill="none" xmlns="http://www.w3.org/2000/svg">
    <path fill-rule="evenodd" clip-rule="evenodd" d="M5.46 3.719A1 1 0 004.5 3H3a1 1 0 100 2h.751l3.29 11.219a1 1 0 00.959.718h9a1 1 0 100-2H8.749L5.459 3.72zM9.25 18a1.25 1.25 0 110 2.5 1.25 1.25 0 010-2.5zM15.75 18a1.25 1.25 0 110 2.5 1.25 1.25 0 010-2.5z" fill="currentColor"/>
    <path fill-rule="evenodd" clip-rule="evenodd" d="M20.811 5.415A1 1 0 0020 5H6a1 1 0 000 2h12.613l-1.334 4H7v2h11a1 1 0 00.949-.684l2-6a1 1 0 00-.138-.9z" fill="currentColor"/>
</svg>
