<svg width="24" height="24" viewBox="0 0 24 24" fill="none" xmlns="http://www.w3.org/2000/svg">
    <path fill-rule="evenodd" clip-rule="evenodd" d="M6 10.5a1 1 0 011 1v2a.5.5 0 00.5.5h9a.5.5 0 00.5-.5v-2a1 1 0 112 0v2a2.5 2.5 0 01-2.5 2.5h-9A2.5 2.5 0 015 13.5v-2a1 1 0 011-1z" fill="currentColor"/>
    <path fill-rule="evenodd" clip-rule="evenodd" d="M4.064 15.846A3 3 0 016.833 14h10.333a3 3 0 012.77 1.846l1.121 2.692C21.744 20.185 20.534 22 18.75 22H5.25a2.5 2.5 0 01-2.308-3.462l1.122-2.692zM6.833 16a1 1 0 00-.923.615l-1.122 2.693A.5.5 0 005.25 20h13.5a.5.5 0 00.461-.692l-1.122-2.693a1 1 0 00-.923-.615H6.833zM4.071 2.629A1 1 0 015 2h14a1 1 0 01.929.629l.054.136.143.363c.12.304.283.72.455 1.165.336.87.728 1.914.878 2.425A1 1 0 0121.5 7c0 .835-.455 1.444-.85 1.838a2.688 2.688 0 01-3.587.191 2.687 2.687 0 01-3.375 0 2.687 2.687 0 01-3.376 0 2.688 2.688 0 01-3.374 0 2.688 2.688 0 01-3.588-.191C2.955 8.444 2.5 7.835 2.5 7a1 1 0 01.04-.282c.15-.511.543-1.555.879-2.425a167.07 167.07 0 01.598-1.528l.054-.136zM5.68 4c-.112.283-.25.638-.395 1.013-.301.78-.61 1.605-.766 2.08.027.072.092.178.245.33a.688.688 0 001.173-.486 1 1 0 112 0 .688.688 0 001.375 0 1 1 0 112 0 .687.687 0 101.376 0 1 1 0 112 0 .687.687 0 101.374 0 1 1 0 112 0 .687.687 0 001.174.487c.152-.153.218-.259.245-.331-.156-.475-.465-1.3-.766-2.08-.145-.376-.283-.73-.395-1.013H5.68z" fill="currentColor"/>
    <path fill-rule="evenodd" clip-rule="evenodd" d="M10.125 18c0-.483.392-.875.875-.875h2a.875.875 0 010 1.75h-2a.875.875 0 01-.875-.875z" fill="currentColor"/>
</svg>
