<svg width="24" height="24" fill="none" xmlns="http://www.w3.org/2000/svg">
    <path d="M5.917 6h4.992c.696 0 1.13.568.967 1.267l-2.324 9.979c-.164.696-.861 1.265-1.559 1.265H3.002c-.696 0-1.13-.569-.968-1.265L4.36 7.267C4.522 6.568 5.22 6 5.917 6z" fill="#E21836"/>
    <path d="M10.494 6h5.74c.697 0 .383.568.219 1.267l-2.324 9.978c-.163.697-.112 1.265-.81 1.265h-5.74c-.699 0-1.131-.568-.967-1.265l2.324-9.978C9.1 6.568 9.796 6 10.494 6z" fill="#00447C"/>
    <path d="M16.006 6h4.992c.698 0 1.131.568.967 1.267l-2.323 9.978c-.165.697-.863 1.265-1.56 1.265h-4.99c-.698 0-1.131-.568-.968-1.265l2.324-9.978c.163-.699.86-1.267 1.558-1.267z" fill="#007B84"/>
    <path d="M7.22 9.198c-.513.005-.665 0-.713-.012a806.99 806.99 0 01-.366 1.688c-.075.323-.129.554-.313.703a.558.558 0 01-.369.128c-.227 0-.36-.113-.382-.328l-.004-.073.069-.436s.364-1.456.429-1.648a.14.14 0 00.005-.022c-.708.006-.833 0-.842-.012a2.733 2.733 0 00-.022.106l-.371 1.642-.032.139-.062.455a.67.67 0 00.08.339c.169.295.651.34.924.34.352 0 .681-.075.904-.212.387-.228.488-.586.579-.903l.042-.163s.374-1.513.438-1.71c.002-.01.003-.016.006-.021zm1.275 1.22a.99.99 0 00-.404.094c-.054.028-.104.06-.158.092l.048-.175-.026-.03c-.314.064-.385.073-.675.113l-.024.017c-.034.28-.064.49-.189 1.039-.048.202-.097.406-.147.608l.014.026c.297-.016.388-.016.646-.011l.021-.023c.033-.168.037-.208.11-.549.034-.161.105-.516.14-.643a.48.48 0 01.19-.059c.145 0 .127.126.121.177-.006.084-.059.36-.113.598l-.036.153c-.025.113-.053.223-.078.335l.011.022c.293-.016.383-.016.633-.011l.03-.023c.045-.263.058-.333.139-.716l.04-.176c.078-.344.118-.518.058-.66-.062-.16-.213-.198-.351-.198zm1.423.36c-.156.03-.255.05-.354.063-.098.016-.193.03-.344.05l-.012.012-.01.008c-.017.112-.028.21-.048.323a5.92 5.92 0 01-.09.445 1.745 1.745 0 01-.07.25c-.02.052-.04.102-.079.247l.01.014.007.012c.14-.007.232-.011.327-.012.095-.004.193 0 .344 0l.014-.01.014-.012c.022-.13.025-.166.038-.23.014-.068.036-.163.093-.416.026-.118.056-.237.083-.358l.087-.358-.004-.015-.006-.013zm.003-.486c-.141-.083-.39-.057-.557.059-.167.113-.186.274-.045.358.14.082.39.057.555-.06.166-.115.187-.274.047-.357zm.857 1.936c.287 0 .58-.079.801-.313.17-.19.248-.473.275-.59.088-.385.02-.565-.066-.675-.13-.168-.362-.221-.601-.221-.144 0-.487.014-.755.261-.193.178-.282.42-.336.652-.054.236-.116.662.275.82.12.052.295.066.407.066zm-.022-.868c.066-.292.144-.538.343-.538.156 0 .167.183.098.476-.013.065-.07.307-.147.41-.054.076-.117.122-.187.122-.021 0-.146 0-.148-.184a1.26 1.26 0 01.04-.286zm1.815.83l.022-.022c.032-.168.037-.208.107-.549.036-.161.108-.516.143-.643.064-.03.127-.06.19-.06.144 0 .126.127.12.178a5.78 5.78 0 01-.113.598l-.034.153c-.026.113-.055.223-.08.335l.011.022c.294-.016.38-.016.632-.011l.03-.023c.045-.263.057-.333.14-.716l.039-.176c.079-.344.119-.518.06-.66-.064-.16-.216-.198-.352-.198a.985.985 0 00-.561.186l.045-.175-.024-.03c-.314.064-.386.073-.676.113l-.022.017c-.036.28-.064.49-.19 1.039-.047.202-.096.407-.146.609l.014.025c.298-.016.387-.016.645-.011zm2.161.012l.13-.625s.093-.393.099-.407c0 0 .03-.041.059-.057h.043c.409 0 .87 0 1.232-.266a1.32 1.32 0 00.49-.78c.02-.08.033-.176.033-.271a.57.57 0 00-.098-.347c-.184-.258-.551-.263-.975-.265l-.21.002c-.542.007-.76.005-.85-.006l-.021.11-.194.903-.488 2.006c.474-.006.669-.006.75.003zm.36-1.6l.206-.897.007-.046.003-.035.083.009.436.037c.168.065.238.233.19.452a.657.657 0 01-.342.45c-.137.069-.305.075-.479.075h-.112l.009-.046zm1.288.774c-.055.233-.118.659.272.81a.76.76 0 00.348.063.575.575 0 00.332-.152l-.027.106.017.023c.28-.012.367-.012.67-.01l.028-.02c.044-.261.086-.514.201-1.012.056-.239.112-.475.17-.712l-.01-.027c-.313.058-.396.07-.698.114l-.022.018-.01.07a.431.431 0 00-.219-.18c-.134-.052-.449.015-.72.262-.19.176-.28.417-.332.648zm.658.015c.067-.287.144-.53.343-.53.126 0 .193.116.18.315l-.037.16c-.02.086-.041.17-.063.255a.616.616 0 01-.073.15.349.349 0 01-.244.117c-.02 0-.143 0-.147-.181a1.26 1.26 0 01.04-.286zm3.434-.948l-.024-.028a7.33 7.33 0 01-.65.112l-.021.02-.004.014v-.005c-.213.49-.206.384-.379.769 0-.018 0-.029-.002-.047l-.043-.835-.027-.028c-.325.063-.332.073-.632.112l-.024.02c-.003.01-.003.021-.005.033l.002.005c.038.191.029.148.066.45.018.149.041.298.059.445.029.245.046.366.082.74-.203.334-.25.46-.446.753l.002.003-.137.217c-.016.023-.03.04-.05.046a.208.208 0 01-.09.012h-.076l-.113.377.387.006c.228 0 .371-.107.448-.25l.244-.418h-.004l.026-.03c.164-.353 1.411-2.493 1.411-2.493zm-4.092 4.938h-.165l.61-2.014h.201l.064-.207.006.23c-.007.143.105.27.4.248h.34l.118-.387h-.128c-.074 0-.108-.019-.104-.059l-.006-.235h-.631v.002c-.204.004-.814.02-.937.052-.15.039-.307.152-.307.152l.062-.208h-.59l-.123.412-.617 2.045h-.12l-.117.385h1.175l-.04.128h.58l.039-.128h.162l.128-.416zm-.483-1.605c-.094.026-.27.106-.27.106l.156-.515h.47l-.114.375s-.145.009-.242.034zm.01.736s-.148.018-.245.04a2.4 2.4 0 00-.275.12l.162-.536h.471l-.114.376zm-.264.874h-.47l.136-.452h.47l-.136.452zm1.134-1.25h.678l-.098.316h-.687l-.103.345h.601l-.455.641a.187.187 0 01-.092.077.27.27 0 01-.122.035h-.167l-.115.378h.436a.53.53 0 00.46-.238l.312-.428.067.434a.204.204 0 00.113.148c.043.022.088.06.152.065.069.003.118.005.15.005h.215l.129-.423h-.085c-.048 0-.132-.008-.146-.023-.014-.019-.014-.047-.022-.09l-.068-.435h-.279l.123-.146h.686l.105-.345h-.635l.099-.316h.633l.117-.389h-1.887l-.115.39zm-5.729 1.338l.159-.527h.65l.12-.392h-.652l.1-.324h.636l.118-.38h-1.593l-.115.38h.362l-.097.324h-.363l-.12.399h.362l-.211.696c-.029.092.013.128.04.17.027.042.054.07.116.086a.704.704 0 00.167.022h.733l.131-.434-.325.045c-.063 0-.237-.007-.218-.066zm.075-2.521l-.165.298a.345.345 0 01-.095.124.334.334 0 01-.148.022h-.086l-.115.381h.286a.65.65 0 00.293-.075c.054-.03.069-.013.11-.053l.097-.084h.892l.118-.397h-.653l.114-.216h-.648zm1.317 2.528c-.015-.022-.004-.06.019-.14l.244-.808h.867c.127-.002.218-.003.277-.007a.568.568 0 00.209-.07.391.391 0 00.152-.14c.037-.052.098-.165.15-.34l.306-1.021-.9.005s-.277.041-.4.086c-.123.05-.299.191-.299.191l.082-.28h-.556l-.779 2.582a1.6 1.6 0 00-.05.217c-.002.047.06.094.099.129.046.035.115.03.181.035.07.005.168.008.305.008h.427l.131-.443-.382.037a.1.1 0 01-.083-.04zm.42-1.493h.911l-.058.182c-.008.004-.027-.01-.12.002h-.789l.056-.184zm.183-.609h.918l-.066.219s-.433-.004-.502.008a1.024 1.024 0 00-.483.216l.133-.443zm.69 1.399a.097.097 0 01-.035.056c-.019.012-.049.016-.094.016h-.13l.008-.221h-.54l-.021 1.08c-.001.079.006.124.063.16.057.045.233.05.47.05h.338l.122-.404-.294.016-.098.006c-.014-.006-.026-.01-.04-.025-.013-.012-.034-.005-.03-.083l.002-.277.309-.013a.4.4 0 00.299-.106c.058-.05.077-.106.099-.183l.051-.245h-.424l-.054.173z" fill="#FEFEFE"/>
</svg>
