<svg width="24" height="24" fill="none" xmlns="http://www.w3.org/2000/svg">
    <path fill-rule="evenodd" clip-rule="evenodd" d="M10.67 15.38H9.038l1.02-6.268h1.633l-1.02 6.269zM7.665 9.112L6.11 13.423l-.184-.928-.549-2.818s-.066-.565-.774-.565H2.03L2 9.218s.787.164 1.707.717l1.418 5.445h1.7l2.597-6.268H7.665zm11.04 4.051l.858-2.346.483 2.346h-1.34zm1.797 2.217H22l-1.306-6.268H19.38c-.605 0-.753.467-.753.467l-2.434 5.801h1.701l.34-.93h2.075l.192.93zm-4.18-4.76l.233-1.347S15.836 9 15.087 9c-.81 0-2.733.354-2.733 2.075 0 1.62 2.257 1.64 2.257 2.49 0 .85-2.025.699-2.693.162l-.242 1.407s.728.354 1.842.354c1.113 0 2.794-.576 2.794-2.146 0-1.63-2.278-1.781-2.278-2.49 0-.708 1.59-.617 2.288-.232z" fill="#005C9C"/>
    <path fill-rule="evenodd" clip-rule="evenodd" d="M5.925 12.495l-.549-2.818s-.066-.565-.774-.565H2.03L2 9.218s1.236.257 2.422 1.216c1.134.918 1.503 2.061 1.503 2.061z" fill="#EE9F3F"/>
</svg>
