<svg width="24" height="24" fill="none" xmlns="http://www.w3.org/2000/svg">
    <path d="M2 16.7h20v1.8H2v-1.8z" fill="#F8B600"/>
    <path d="M2 6h20v1.799H2V6zm8.005 3.782L7.94 14.728H6.592L5.575 10.78c-.061-.242-.115-.331-.302-.434-.307-.167-.814-.323-1.259-.42l.031-.144h2.169c.277 0 .525.185.589.504l.537 2.863 1.326-3.367h1.34zm5.282 3.331c.005-1.305-1.799-1.378-1.787-1.96.005-.178.172-.367.541-.415a2.392 2.392 0 011.258.221l.223-1.049a3.426 3.426 0 00-1.193-.218c-1.26 0-2.147.671-2.154 1.634-.008.713.633 1.11 1.116 1.347.497.242.664.398.661.615-.003.331-.397.478-.763.484-.64.01-1.013-.174-1.309-.313l-.231 1.085c.299.136.848.256 1.417.262 1.34 0 2.216-.664 2.22-1.693h.001zm3.329 1.615h1.178l-1.03-4.946h-1.087a.58.58 0 00-.544.363l-1.913 4.583h1.339l.266-.739h1.636l.154.74zm-1.424-1.752l.671-1.858.386 1.858h-1.057zm-5.364-3.194l-1.055 4.946H9.498l1.054-4.946h1.276zm1.814 5.328h.913v.151h-.748v.375h.692v.142h-.692v.42h.76v.145h-.925V15.11zm1.131 0h.154v1.233h-.154V15.11zm.953.36a.33.33 0 01.138.115.399.399 0 01.062.159c.008.042.013.107.013.198h-.67a.382.382 0 00.067.22c.04.055.104.083.19.083a.247.247 0 00.25-.184h.15a.311.311 0 01-.04.11.358.358 0 01-.247.191.538.538 0 01-.126.014.387.387 0 01-.289-.122.472.472 0 01-.118-.343c0-.145.04-.262.119-.352a.396.396 0 01.312-.135c.065 0 .127.015.189.045zm.056.352a.387.387 0 00-.044-.157c-.042-.073-.112-.11-.21-.11a.235.235 0 00-.177.076.282.282 0 00-.077.191h.508zm.948-.33c.065.05.104.134.117.254h-.15a.27.27 0 00-.062-.138c-.032-.037-.084-.055-.156-.055-.097 0-.167.047-.21.141a.555.555 0 00-.04.227c0 .09.02.166.058.227.038.062.1.093.182.093a.201.201 0 00.152-.058.315.315 0 00.077-.158h.149a.395.395 0 01-.127.262.403.403 0 01-.263.083.352.352 0 01-.285-.129.489.489 0 01-.107-.322.54.54 0 01.117-.37.38.38 0 01.297-.13c.104 0 .187.024.251.072v.001zm.301-.3h.155v.252h.145v.123h-.145v.587c0 .032.011.054.032.064a.144.144 0 00.06.009.737.737 0 00.054-.003v.12a.527.527 0 01-.117.014c-.072 0-.12-.018-.146-.054a.239.239 0 01-.038-.14v-.597h-.124v-.123h.124v-.252zm.459.252h.145v.155a.344.344 0 01.087-.11.23.23 0 01.176-.064l.035.003v.16a.228.228 0 00-.05-.005.222.222 0 00-.178.073.254.254 0 00-.062.17v.517h-.154v-.899zm1.148.688a.56.56 0 00.056-.253.445.445 0 00-.04-.205c-.044-.083-.118-.124-.224-.124-.094 0-.162.035-.204.106a.484.484 0 00-.064.255.42.42 0 00.064.24c.042.063.11.095.203.095.101 0 .171-.038.209-.113zm.095-.599c.081.078.121.192.121.342a.58.58 0 01-.107.36c-.071.095-.182.142-.333.142a.378.378 0 01-.3-.126.494.494 0 01-.11-.338.53.53 0 01.117-.36.395.395 0 01.314-.135c.11-.002.218.04.298.116zm.304-.089h.145v.128a.409.409 0 01.138-.113.37.37 0 01.161-.035c.13 0 .217.044.262.133a.467.467 0 01.038.21v.576h-.156v-.566a.305.305 0 00-.025-.133c-.027-.056-.076-.084-.148-.084a.23.23 0 00-.2.085.22.22 0 00-.05.092.607.607 0 00-.012.135v.471h-.154v-.899h.001z" fill="#1A1F71"/>
</svg>
