<svg width="24" height="24" fill="none" xmlns="http://www.w3.org/2000/svg">
    <path d="M3 7l-.275-.962L2 6.246V7h1zm12.725-3.636l-.274-.961.274.961zM2 7v12h2V7H2zm2 14h16v-2H4v2zm18-2V8h-2v11h2zM20 6h-3v2h3V6zm-3 0H3v2h14V6zm1 1V4.326h-2V7h2zm-2.55-4.597L2.726 6.038l.55 1.924L16 4.326l-.55-1.923zM18 4.326a2 2 0 00-2.55-1.923L16 4.326h2zM22 8a2 2 0 00-2-2v2h2zm-2 13a2 2 0 002-2h-2v2zM2 19a2 2 0 002 2v-2H2z" fill="currentColor"/>
    <path d="M17 11.5h3a1 1 0 011 1v2a1 1 0 01-1 1h-3a1 1 0 01-1-1v-2a1 1 0 011-1z" stroke="currentColor" stroke-width="2"/>
</svg>
