<svg width="24" height="24" viewBox="0 0 24 24" fill="none" xmlns="http://www.w3.org/2000/svg">
    <g clip-path="url(#american_express_large_svg__clip0)">
        <path d="M22 21.988H2V2h20v19.988z" fill="#fff"/>
        <path d="M22 12.83V2H2v20h20v-5.846c-.043 0 0-3.335 0-3.335" fill="#2E70B5"/>
        <path d="M19.555 11.717h1.534v-3.52H19.42v.492l-.314-.492h-1.423v.615l-.27-.615h-2.63c-.086 0-.178.043-.264.043-.087 0-.136.05-.222.092-.086.043-.136.043-.222.086v-.221h-7.53l-.235.572-.221-.578H4.315v.615l-.265-.615H2.616L2 9.71v2.006h1.022l.21-.486h.357l.178.492h7.814v-.45l.308.45h2.186v-.27c.043.049.13.049.179.092.049.043.129.043.178.086a.56.56 0 00.265.043h1.601l.179-.486h.357l.178.486h2.186v-.443l.357.486zm2.463 4.45v-3.293H9.752l-.314.443-.307-.443H5.565v3.514h3.566l.307-.443.314.443h2.23v-.757h-.093c.273.007.544-.037.8-.13v.936h1.626v-.45l.308.45h6.626a3.87 3.87 0 00.751-.283l.018.012z" fill="#fff"/>
        <path d="M21.249 15.323h-1.232v.486h1.158a.733.733 0 00.8-.757.616.616 0 00-.708-.664h-.535a.228.228 0 010-.45h1.022l.221-.486H20.8a.728.728 0 00-.8.714c0 .443.265.665.714.665h.536a.215.215 0 01.221.221c.044.179-.049.271-.221.271zm-2.186 0h-1.2v.486h1.157a.74.74 0 00.8-.757c0-.443-.265-.664-.714-.664h-.536a.229.229 0 01-.136-.372.229.229 0 01.136-.078H19.6l.221-.486h-1.194a.732.732 0 00-.807.714.615.615 0 00.714.665h.536a.247.247 0 010 .492h-.006zm-1.558-1.428v-.486h-1.847v2.357h1.847v-.492h-1.342v-.486h1.293v-.48h-1.293v-.443h1.336l.006.03zm-3.03 0a.271.271 0 01.308.271c0 .13-.086.265-.308.265h-.67v-.579l.67.043zm-.67 1.028h.27l.708.843h.671l-.8-.892a.708.708 0 00.616-.708.738.738 0 00-.8-.757h-1.232v2.357h.535l.031-.843zm-1.423-.714a.284.284 0 01-.314.308h-.715v-.615h.672a.321.321 0 01.357.313v-.006zm-1.558-.8v2.357h.53v-.8h.714a.789.789 0 00.85-.8.775.775 0 00-.807-.806l-1.287.05zm-.82 2.357h.672l-.936-1.2.936-1.157h-.671l-.579.757-.579-.757h-.652l.936 1.157-.936 1.157h.665l.578-.757.567.8zm-2-1.846v-.486H6.156v2.357h1.848v-.493H6.68v-.486h1.287v-.504H6.68v-.443h1.336l-.012.055zm10.825-4.185l.936 1.428h.708V8.769h-.536v1.557l-.13-.221-.88-1.336h-.708v2.363h.53v-1.6l.08.203zm-2.316-.043l.18-.492.171.492.228.536h-.794l.216-.536zm.936 1.471h.58l-1.017-2.394h-.714l-1.022 2.363h.579l.221-.492h1.158l.215.523zm-2.5 0l.228-.492h-.123a.616.616 0 01-.616-.665v-.05a.615.615 0 01.616-.664h.579V8.77h-.616a1.066 1.066 0 00-1.114 1.157V10a1.033 1.033 0 001.065 1.157l-.018.006zm-2 0h.535V8.818h-.523v2.32l-.013.025zM11.79 9.317c.221 0 .307.13.307.264a.27.27 0 01-.307.271h-.66v-.578l.672.043h-.012zm-.671 1.021h.27l.708.85h.672l-.8-.893a.714.714 0 00.615-.713.739.739 0 00-.782-.813h-1.232v2.363h.536l.043-.849-.03.055zm-.98-1.021v-.548H8.293v2.363h1.847v-.492H8.816v-.492h1.294v-.486H8.817v-.444h1.336l-.013.099zM6.09 11.163h.486l.671-1.914v1.914h.536V8.769h-.856l-.536 1.606-.56-1.606h-.887v2.363h.53V9.225l.616 1.938zM3.232 9.668l.178-.493.179.493.221.535h-.83l.252-.535zm.935 1.47h.58L3.692 8.77h-.67L2 11.14h.579l.221-.493h1.158l.21.492z" fill="#2E70B5"/>
    </g>
    <defs>
        <clipPath id="american_express_large_svg__clip0">
            <path fill="#fff" d="M2 2h20v20H2z"/>
        </clipPath>
    </defs>
</svg>
