<svg width="24" height="24" viewBox="0 0 24 24" fill="none" xmlns="http://www.w3.org/2000/svg">
    <path d="M20.983 20.989H3V3h17.983v17.989z" fill="#fff"/>
    <path d="M20.983 12.748V3H3v18h17.983v-5.261c-.038 0 0-3.002 0-3.002" fill="#2E70B5"/>
    <path d="M18.785 11.745h1.379V8.577h-1.5v.443l-.283-.443h-1.279v.554l-.244-.554h-2.364c-.077 0-.16.039-.238.039-.077 0-.122.044-.2.083-.077.039-.12.039-.198.078v-.2H7.086l-.21.515-.2-.52H5.082v.554l-.238-.554h-1.29L3 9.94v1.805h.92l.187-.437h.321l.161.443h7.026v-.405l.277.405h1.966v-.244c.038.044.116.044.16.083.044.039.116.039.16.078a.503.503 0 00.239.038h1.44l.16-.437h.321l.16.437h1.966v-.398l.321.437zM21 15.75v-2.964H9.97l-.282.4-.276-.4H6.206v3.163h3.206l.276-.399.283.399h2.004v-.681h-.083c.245.006.49-.034.72-.117v.842h1.461v-.404l.277.404h5.958c.233-.061.46-.146.675-.255l.017.011z" fill="#fff"/>
    <path d="M20.308 14.99H19.2v.438h1.04a.657.657 0 00.72-.68.553.553 0 00-.636-.6h-.482a.205.205 0 010-.403h.919l.2-.438h-1.058a.651.651 0 00-.72.643c0 .398.238.598.642.598h.482a.194.194 0 01.2.2c.038.16-.045.243-.2.243zm-1.966 0h-1.08v.438h1.042a.664.664 0 00.72-.68c0-.4-.239-.6-.643-.6H17.9a.205.205 0 010-.403h.925l.2-.438h-1.075a.659.659 0 00-.725.643.556.556 0 00.642.598h.482a.221.221 0 110 .443h-.006zm-1.4-1.284v-.438H15.28v2.121h1.662v-.442h-1.207v-.438h1.162v-.432h-1.162v-.399h1.201l.006.028zm-2.725 0a.243.243 0 01.277.244c0 .116-.077.238-.277.238h-.603v-.52l.603.038zm-.603.925h.244l.636.758h.604l-.72-.803a.637.637 0 00.554-.636.664.664 0 00-.72-.682h-1.107v2.121h.481l.028-.758zm-1.279-.643a.256.256 0 01-.282.277h-.643v-.554h.604a.286.286 0 01.295.166.289.289 0 01.026.117v-.006zm-1.4-.72v2.121h.475v-.72h.643a.708.708 0 00.764-.72.698.698 0 00-.726-.725l-1.157.044zm-.737 2.121h.603l-.841-1.08.841-1.04h-.603l-.52.68-.521-.68H8.57l.842 1.04-.842 1.042h.598l.52-.682.51.72zm-1.8-1.661v-.438h-1.66v2.122h1.66v-.443h-1.19v-.438h1.157v-.454H7.208v-.399h1.201l-.01.05zm9.734-3.766l.841 1.285h.637V9.092h-.481v1.401l-.117-.199-.791-1.202h-.637v2.127h.476V9.78l.072.183zm-2.082-.039l.16-.443.156.443.205.482h-.715l.194-.482zm.842 1.324h.52L16.5 9.092h-.643l-.919 2.127h.52l.2-.443h1.04l.195.47zm-2.248 0l.205-.443h-.111a.553.553 0 01-.554-.598v-.045a.552.552 0 01.554-.598h.52v-.47h-.553a.957.957 0 00-1.002 1.04v.067a.932.932 0 00.957 1.041l-.016.006zm-1.8 0h.482v-2.11h-.47v2.088l-.012.022zm-1.04-1.662c.199 0 .276.117.276.238a.244.244 0 01-.277.244h-.592v-.52l.604.038h-.012zm-.604.92h.244l.636.764h.604l-.72-.803a.642.642 0 00.554-.643.666.666 0 00-.704-.73h-1.107v2.126h.482l.039-.764-.028.05zm-.88-.92v-.493H8.659v2.127h1.66v-.443H9.13v-.443h1.163v-.438H9.129v-.398h1.202l-.011.088zm-3.644 1.662h.438l.603-1.723v1.723H8.2V9.092h-.77l-.481 1.446-.504-1.446h-.797v2.127h.476V9.502l.553 1.745zM4.107 9.9l.16-.443.161.443.2.482H3.88l.227-.482zm.842 1.324h.52l-.946-2.133h-.604L3 11.225h.52l.2-.444h1.04l.189.444z" fill="#2E70B5"/>
</svg>
