<svg width="42" height="24" viewBox="0 0 42 24" fill="none" xmlns="http://www.w3.org/2000/svg">
    <path d="M9.87 5a2.99 2.99 0 00-1.94.983 2.71 2.71 0 00-.678 1.982 2.253 2.253 0 001.957-.847c.49-.592.728-1.353.66-2.118zM10.819 11.912a2.856 2.856 0 011.389-2.456A2.93 2.93 0 009.87 8.16c-1.067-.068-1.99.6-2.49.6-.5 0-1.296-.567-2.152-.567a3.16 3.16 0 00-2.685 1.635c-1.135 1.99-.314 4.93.847 6.54.542.787 1.203 1.694 2.058 1.643.856-.05 1.135-.534 2.11-.534.974 0 1.27.534 2.151.5.88-.034 1.448-.788 1.99-1.61a6.413 6.413 0 00.848-1.83 2.855 2.855 0 01-1.728-2.625zM16.536 13.776h2.541a3.795 3.795 0 004.024-3.948 3.753 3.753 0 00-3.947-3.913h-4.447V17.85h1.863l-.034-4.074zm0-6.277h2.152c1.61 0 2.541.847 2.541 2.363a2.236 2.236 0 01-2.541 2.372h-2.186l.034-4.735zM34.723 18.451a1.448 1.448 0 01-1.542 1.237 3.201 3.201 0 01-.567 0v1.406c.152 0 .593 0 .72.068 1.804 0 2.66-.66 3.388-2.778L40 9.235h-1.897l-2.22 7.073-2.227-7.073h-1.932l3.16 8.717-.161.5zM26.828 12.835c-2.084.127-3.253 1.068-3.253 2.584s1.203 2.626 2.974 2.626a3.092 3.092 0 002.744-1.584v1.423h1.694v-5.997c0-1.77-1.355-2.88-3.473-2.88-2.117 0-3.49 1.168-3.557 2.77h1.694a1.694 1.694 0 011.846-1.28c1.068 0 1.694.568 1.694 1.542v.67l-2.363.126zm2.406 1.796a2.095 2.095 0 01-2.245 1.99c-.949 0-1.576-.508-1.576-1.261 0-.754.593-1.237 1.695-1.296l2.151-.127-.025.694z" fill="#000"/>
</svg>
