<svg width="24" height="24" viewBox="0 0 24 24" fill="none" xmlns="http://www.w3.org/2000/svg">
    <path d="M6.142 8.49a1.574 1.574 0 00-1.02.517 1.427 1.427 0 00-.358 1.043 1.186 1.186 0 001.03-.445c.258-.312.383-.712.348-1.115zM6.641 12.128a1.502 1.502 0 01.732-1.293 1.543 1.543 0 00-1.23-.682c-.563-.036-1.049.316-1.312.316-.263 0-.682-.298-1.132-.298a1.663 1.663 0 00-1.413.86c-.598 1.048-.165 2.595.446 3.442.285.415.633.892 1.083.865.45-.027.597-.281 1.11-.281.513 0 .669.28 1.132.263.464-.018.763-.415 1.048-.847.198-.296.349-.62.446-.963a1.503 1.503 0 01-.91-1.382zM9.65 13.109h1.338a1.997 1.997 0 002.118-2.078 1.976 1.976 0 00-2.078-2.06h-2.34v6.282h.98l-.017-2.144zm0-3.304h1.133c.847 0 1.338.446 1.338 1.244a1.177 1.177 0 01-1.338 1.248h-1.15l.018-2.492zM19.223 15.57a.762.762 0 01-.812.65c-.1.01-.2.01-.299 0v.74c.08 0 .313 0 .38.036.949 0 1.4-.347 1.783-1.462L22 10.719h-.999l-1.168 3.723-1.172-3.723h-1.017l1.663 4.588-.084.263zM15.067 12.614c-1.096.067-1.712.562-1.712 1.36s.633 1.382 1.565 1.382a1.628 1.628 0 001.445-.834v.749h.891v-3.156c0-.932-.713-1.516-1.828-1.516-1.114 0-1.836.615-1.872 1.458h.892a.892.892 0 01.972-.674c.561 0 .891.3.891.812v.352l-1.244.067zm1.267.945a1.1 1.1 0 01-1.182 1.048c-.5 0-.83-.268-.83-.665 0-.396.313-.65.893-.682l1.132-.067-.013.366z" fill="#000"/>
</svg>
