<svg width="24" height="24" viewBox="0 0 24 24" fill="none" xmlns="http://www.w3.org/2000/svg">
    <path fill-rule="evenodd" clip-rule="evenodd" d="M9.984 8.637c.195-.033.41-.062.646-.088.235-.027.494-.04.776-.04.404 0 .751.048 1.044.143.292.095.532.231.72.409.162.157.288.344.379.56.09.218.135.467.135.75 0 .34-.062.64-.186.896a1.864 1.864 0 01-.509.645c-.215.174-.47.303-.766.389a3.484 3.484 0 01-.968.128 3.89 3.89 0 01-.797-.07v2.837h-.474V8.637zm.474 3.31c.115.032.242.055.383.068.142.013.293.02.454.02.605 0 1.074-.138 1.406-.414.333-.276.5-.68.5-1.211 0-.256-.044-.48-.131-.67a1.204 1.204 0 00-.373-.468 1.72 1.72 0 00-.575-.276 2.72 2.72 0 00-.736-.093c-.215 0-.4.008-.555.024a3.946 3.946 0 00-.373.055v2.964zM17.454 14.074c0 .19.003.38.01.57.007.191.027.375.06.552h-.443l-.07-.67h-.021a1.826 1.826 0 01-.56.527 1.753 1.753 0 01-.423.183c-.158.045-.33.068-.52.068-.234 0-.441-.037-.62-.113a1.205 1.205 0 01-.695-.714 1.379 1.379 0 01-.086-.473c0-.557.24-.987.721-1.29.48-.302 1.205-.446 2.173-.433v-.128c0-.125-.012-.268-.035-.429a1.323 1.323 0 00-.157-.458 1 1 0 00-.362-.364c-.162-.098-.38-.147-.656-.147-.208 0-.415.03-.62.093a2.12 2.12 0 00-.56.26l-.15-.344c.215-.144.437-.247.665-.31a2.71 2.71 0 01.716-.093c.336 0 .61.055.821.167.212.112.379.256.5.433.12.178.203.376.247.596.043.22.065.439.065.655v1.862zm-.474-1.409a6.643 6.643 0 00-.802.03 2.971 2.971 0 00-.771.172c-.235.089-.43.218-.585.39-.154.17-.232.396-.232.679 0 .334.098.58.293.738.195.158.413.237.655.237.195 0 .37-.027.524-.08a1.354 1.354 0 00.69-.512c.079-.111.137-.226.178-.344.033-.131.05-.227.05-.286v-1.024zM18.38 10.469l1.23 3.072c.068.171.132.347.192.528.06.18.114.346.161.497h.02l.162-.488c.06-.18.128-.366.201-.556l1.15-3.053H22l-1.401 3.466c-.142.368-.274.701-.398 1-.125.299-.251.568-.379.808-.127.24-.257.451-.388.635-.13.184-.277.345-.439.482a2.381 2.381 0 01-.519.36 4.49 4.49 0 01-.317.143l-.162-.384c.121-.053.256-.122.404-.207.147-.085.292-.197.433-.335.121-.118.254-.274.398-.468a3.27 3.27 0 00.389-.704.781.781 0 00.06-.207.582.582 0 00-.06-.207l-1.745-4.382h.505zM7.124 11.878c.01 1.104 1 1.472 1.011 1.476-.008.027-.158.524-.52 1.039-.315.444-.641.887-1.154.896-.505.01-.667-.29-1.244-.29s-.757.281-1.235.3c-.495.018-.873-.481-1.19-.925-.646-.906-1.141-2.56-.477-3.677.33-.554.92-.906 1.56-.915.486-.009.945.318 1.243.318.297 0 .856-.393 1.443-.335.245.01.935.096 1.378.724-.036.021-.823.465-.815 1.389zm-.948-2.713c.263-.308.44-.738.392-1.165-.38.015-.838.245-1.11.553-.244.273-.457.71-.4 1.13.423.03.855-.209 1.118-.518z" fill="#000"/>
</svg>
