<svg width="16" height="16" viewBox="0 0 16 16" fill="none" xmlns="http://www.w3.org/2000/svg">
    <path fill-rule="evenodd" clip-rule="evenodd" d="M8 0h.007C12.421 0 16 3.583 16 8c0 4.418-3.58 8-7.993 8h-.014C3.579 16 0 12.418 0 8c0-4.417 3.58-8 7.993-8H8zm-.554 4.994a1.338 1.338 0 011.243.073c.17.107.29.245.36.388.069.141.09.29.067.432a.813.813 0 01-.211.423 1.142 1.142 0 01-.5.31c-.35.11-.671.318-.907.614a1.698 1.698 0 00-.373 1.058V9a.875.875 0 101.75 0v-.683a.151.151 0 01.054-.028 2.89 2.89 0 001.265-.796c.343-.373.573-.834.652-1.336a2.475 2.475 0 00-.224-1.469A2.712 2.712 0 009.62 3.586a3.088 3.088 0 00-2.905-.182c-.46.212-.86.538-1.146.955-.287.419-.445.91-.445 1.418a.875.875 0 001.75 0c0-.142.044-.29.139-.43.095-.139.241-.265.432-.353zM8.875 11.5a.875.875 0 00-1.75 0v.5a.875.875 0 001.75 0v-.5z" fill="currentColor"/>
</svg>
