<svg width="24" height="24" viewBox="0 0 24 24" fill="none" xmlns="http://www.w3.org/2000/svg">
    <path d="M6 7C6 6.44772 6.44772 6 7 6H8C8.55229 6 9 6.44772 9 7C9 7.55228 8.55228 8 8 8H7C6.44772 8 6 7.55228 6 7Z" fill="currentColor"/>
    <path d="M7 10C6.44772 10 6 10.4477 6 11C6 11.5523 6.44772 12 7 12H8C8.55228 12 9 11.5523 9 11C9 10.4477 8.55229 10 8 10H7Z" fill="currentColor"/>
    <path d="M10 7C10 6.44772 10.4477 6 11 6H12C12.5523 6 13 6.44772 13 7C13 7.55228 12.5523 8 12 8H11C10.4477 8 10 7.55228 10 7Z" fill="currentColor"/>
    <path d="M11 10C10.4477 10 10 10.4477 10 11C10 11.5523 10.4477 12 11 12H12C12.5523 12 13 11.5523 13 11C13 10.4477 12.5523 10 12 10H11Z" fill="currentColor"/>
    <path fill-rule="evenodd" clip-rule="evenodd" d="M4 2C2.89543 2 2 2.89543 2 4V22H22V10C22 8.89543 21.1046 8 20 8H17V4C17 2.89543 16.1046 2 15 2H4ZM20 10H17V20H20V10ZM15 4L4 4V20H7V16C7 15.4477 7.44772 15 8 15H11C11.5523 15 12 15.4477 12 16V20H15V4Z" fill="currentColor"/>
</svg>
