<svg width="32" height="24" viewBox="0 0 32 24" fill="none" xmlns="http://www.w3.org/2000/svg">
    <path d="M21.6 20.8H10.4a8.4 8.4 0 110-16.8h11.2a8.4 8.4 0 110 16.8z" fill="#fff"/>
    <path d="M23.59 11.886l3.77 4.483a6.953 6.953 0 001.24-3.97c0-1.554-.51-2.992-1.373-4.155l-3.636 3.642zM12.909 7.866c2.815 0 4.936.716 5.154 3.088l2.963-3.089h5.9a6.979 6.979 0 00-5.317-2.456H10.273a6.98 6.98 0 00-5.318 2.457h7.954zM8.27 10.856L7.265 13.62h4.056c1.199 0 1.562-.496 1.83-1.452.266-.945-.402-1.312-1.22-1.312H8.27zM21.05 16.746l-3.133-3.96c-.58 2.7-2.476 3.96-6.031 3.96H4.8a6.982 6.982 0 005.473 2.645h11.336a6.981 6.981 0 005.472-2.645h-6.03z" fill="#E41D27"/>
</svg>
