<svg width="26" height="24" viewBox="0 0 26 24" fill="none" xmlns="http://www.w3.org/2000/svg">
    <path d="M23.874 18.58a1.45 1.45 0 01-1.473 1.438H3.6a1.454 1.454 0 01-1.473-1.438V5.569a1.458 1.458 0 011.473-1.443H22.4a1.458 1.458 0 011.473 1.443v13.01z" fill="#fff"/>
    <path d="M2.251 5.569v13.01A1.332 1.332 0 003.6 19.898H22.4a1.337 1.337 0 001.348-1.317V5.569A1.332 1.332 0 0022.4 4.25H3.6A1.327 1.327 0 002.25 5.57zM3.6 20.149A1.586 1.586 0 012 18.578V5.57A1.584 1.584 0 013.599 4H22.4A1.584 1.584 0 0124 5.57v13.01a1.584 1.584 0 01-1.599 1.564L3.6 20.148z" fill="#005288"/>
    <path d="M4.514 15.588c0 .307.216.342.407.342a1.1 1.1 0 001.136-1.236 1.191 1.191 0 00-1.237-1.278 2.752 2.752 0 00-.306 0v2.172zm-.392-1.855c0-.357-.186-.337-.362-.337v-.105H4.91a1.444 1.444 0 011.584 1.387c0 .382-.232 1.388-1.63 1.388h-1.08v-.106c.236 0 .352-.03.362-.296l-.025-1.93zM7.058 13.638a.206.206 0 01-.197-.201.206.206 0 01.197-.191.201.201 0 01.196.19.201.201 0 01-.196.202zm-.423 2.312h.076c.11 0 .186 0 .186-.13v-1.071c0-.176-.056-.196-.206-.277v-.065c.186-.055.412-.13.427-.14a.138.138 0 01.07 0v1.563c0 .13.09.13.201.13h.066v.106H6.61l.025-.116zM7.857 14.774c0-.146-.045-.186-.231-.261v-.076c.17-.054.339-.118.502-.19v.31c.19-.17.43-.274.684-.296.337 0 .458.247.458.553v1.006c0 .13.085.13.196.13h.07v.116h-.844v-.106h.07c.11 0 .19 0 .19-.13v-1.006c0-.221-.14-.332-.366-.332a1.065 1.065 0 00-.458.186v1.172c0 .13.086.13.197.13H8.4v.086h-.794v-.106h.07c.11 0 .191 0 .191-.13l-.01-1.056zM10.587 14.834c.095 0 .11-.05.11-.095a.338.338 0 00-.346-.367c-.242 0-.408.18-.453.462h.689zm-.704.131c-.006.075-.006.15 0 .226a.663.663 0 00.583.684.754.754 0 00.533-.261l.055.055a.924.924 0 01-.729.447.8.8 0 01-.759-.864.885.885 0 01.8-1.006.623.623 0 01.683.623v.07h-.035l-1.131.026zM11.13 15.95h.105c.111 0 .191 0 .191-.13v-1.111c0-.121-.15-.146-.206-.176v-.06c.287-.126.448-.227.503-.227.055 0 .035 0 .035.05v.357c.1-.156.267-.407.503-.407a.214.214 0 01.158.058.215.215 0 01.057.228.19.19 0 01-.175.126c-.12 0-.12-.095-.261-.095a.332.332 0 00-.287.327v.93c0 .13.076.13.186.13h.221v.116h-1.02l-.01-.116zM12.653 15.503a.503.503 0 00.503.503c.231 0 .322-.141.322-.277 0-.467-.865-.317-.865-.955a.542.542 0 01.613-.503c.158.004.313.043.453.116l.025.402h-.09a.407.407 0 00-.433-.392.277.277 0 00-.307.261c0 .463.92.322.92.945 0 .262-.21.538-.683.538a1.04 1.04 0 01-.503-.135l-.05-.483.095-.02zM17.364 14.01h-.1a.749.749 0 00-.845-.649 1.126 1.126 0 00-1.122 1.252 1.292 1.292 0 001.182 1.373.8.8 0 00.794-.684l.096.025-.096.578c-.274.128-.572.2-.875.211a1.41 1.41 0 01-1.508-1.508 1.458 1.458 0 011.508-1.398 2.9 2.9 0 01.936.211l.03.589zM17.505 15.95h.08c.11 0 .191 0 .191-.13v-2.202c0-.257-.06-.267-.211-.312v-.06c.14-.045.277-.102.407-.171a.352.352 0 01.09-.046s.03.026.03.056v2.735c0 .13.086.13.197.13h.07v.116h-.849l-.006-.116zM20.048 15.84c0 .07.04.07.111.07h.156v.08a3.653 3.653 0 00-.568.126V15.8a1.085 1.085 0 01-.704.331.427.427 0 01-.432-.472v-1.006c0-.1 0-.2-.237-.22v-.076c.141 0 .458-.025.503-.025.045 0 .045.025.045.115v1.006c0 .115 0 .457.342.457a.87.87 0 00.503-.241v-1.076c0-.075-.191-.12-.332-.16v-.071c.352-.026.578-.056.613-.056.036 0 .036.026.036.07l-.036 1.464zM20.833 15.608a.428.428 0 00.412.403c.422 0 .598-.413.598-.77a.748.748 0 00-.633-.779.604.604 0 00-.377.186v.96zm0-1.075c.16-.16.369-.26.593-.287a.77.77 0 01.734.814 1.006 1.006 0 01-.945 1.041c-.192 0-.38-.048-.548-.14l-.12.09-.086-.04c.038-.235.057-.472.055-.71v-1.683c0-.257-.055-.267-.206-.312v-.06a2.86 2.86 0 00.407-.171.349.349 0 01.086-.025c.025 0 .03.025.03.055v1.428zM3.755 18.358h.03c.08 0 .16 0 .16-.125v-1.126c0-.111-.08-.126-.16-.126h-.03v-.06h.658v.06h-.03c-.08 0-.16 0-.16.126v1.126c0 .115.08.125.16.125h.03v.066h-.658v-.066zM5.891 17.997v-.805a.181.181 0 00-.186-.206h-.05v-.065h.573v.06h-.03c-.09 0-.196 0-.196.276v.98a1.457 1.457 0 000 .217h-.065l-1.112-1.237v.89c0 .186.036.251.202.251h.04v.066h-.573v-.066h.02c.15 0 .196-.1.196-.276v-.905a.196.196 0 00-.196-.196v-.06h.437l.94 1.076zM6.55 17.026c-.161 0-.166.04-.201.196h-.066l.03-.18v-.187h.05c0 .066.076.066.131.066h1.112c.06 0 .115 0 .115-.07h.055v.346l-.065.025c0-.08 0-.206-.156-.206h-.377v1.146c0 .166.076.186.181.186h.04v.066h-.713v-.066h.04c.12 0 .176 0 .176-.18v-1.142H6.55zM7.852 18.358h.03c.08 0 .161 0 .161-.125v-1.126c0-.111-.08-.126-.16-.126h-.031v-.06h1.09a2.38 2.38 0 000 .326h-.064c0-.14-.036-.256-.262-.256h-.302v.583h.257c.13 0 .156-.075.17-.19h.066v.497h-.065c0-.126 0-.211-.171-.211h-.257v.502c0 .141.126.141.262.141.261 0 .372 0 .437-.261h.06c-.025.115-.055.231-.07.347H7.847l.005-.04zM9.647 17.645h.105c.216 0 .332-.08.332-.337a.297.297 0 00-.317-.312.593.593 0 00-.12 0v.649zm-.277-.503c0-.156-.085-.166-.15-.166h-.04v-.055h.678c.271 0 .503.07.503.377a.398.398 0 01-.297.377l.367.553a.245.245 0 00.211.13v.066h-.417a6.615 6.615 0 01-.448-.699h-.14v.462c0 .166.075.171.176.171h.04v.066H9.169v-.066h.04c.076 0 .151-.04.151-.115l.01-1.101zM12.11 17.997v-.805a.18.18 0 00-.186-.206h-.045v-.065h.563v.06h-.03c-.09 0-.191 0-.191.276v.98a1.499 1.499 0 000 .217h-.066l-1.106-1.237v.89c0 .186.04.251.207.251h.035v.066h-.573v-.066h.03c.15 0 .196-.1.196-.276v-.905a.196.196 0 00-.196-.196h-.03v-.06h.442l.95 1.076zM13.11 17.162l-.2.608h.402l-.201-.608zm-.316.95a.972.972 0 00-.045.171c0 .065.09.075.16.075h.026v.066h-.498v-.066a.192.192 0 00.186-.14l.347-1.006c.031-.087.058-.176.08-.266.068-.026.133-.056.196-.09h.03v.055l.433 1.166c.023.075.05.149.08.221a.135.135 0 00.141.086v.065h-.623v-.065h.025c.05 0 .13 0 .13-.066a.631.631 0 00-.04-.156l-.085-.246h-.503l-.04.196zM14.036 17.026c-.161 0-.166.04-.196.196h-.066v-.18a1.155 1.155 0 000-.187h.056c0 .066.07.066.125.066h1.116c.056 0 .11 0 .116-.07h.05v.346l-.065.025c0-.08 0-.206-.156-.206h-.352v1.146c0 .166.075.186.176.186h.04v.066h-.714v-.066h.04c.121 0 .182 0 .182-.18v-1.142h-.352zM15.353 18.358h.03c.075 0 .156 0 .156-.125v-1.126c0-.111-.08-.126-.156-.126h-.03v-.06h.653v.06h-.03c-.075 0-.156 0-.156.126v1.126c0 .115.08.125.156.125h.03v.066h-.653v-.066zM16.901 18.358c.418 0 .503-.367.503-.683 0-.317-.166-.694-.528-.694s-.503.337-.503.623c0 .387.176.755.528.755zm-.035-1.473a.755.755 0 01.825.744.784.784 0 01-.81.825.766.766 0 01-.804-.774.786.786 0 01.794-.794M19.143 17.997v-.805a.18.18 0 00-.186-.206h-.05v-.065h.568v.06h-.03c-.09 0-.196 0-.196.276v.98a1.443 1.443 0 000 .217h-.08l-1.081-1.237v.89c0 .186.035.251.2.251h.041v.066h-.573v-.066h.03c.15 0 .196-.1.196-.276v-.905a.196.196 0 00-.196-.196h-.03v-.06h.437l.95 1.076zM20.144 17.162l-.201.608h.402l-.201-.608zm-.317.95a.972.972 0 00-.045.171c0 .065.09.075.16.075v.066h-.492v-.066a.192.192 0 00.186-.14l.347-1.006c.032-.087.057-.176.075-.266.07-.026.137-.056.202-.09h.03v.055l.452 1.166c.023.075.05.149.08.221a.135.135 0 00.142.086v.065h-.619v-.065h.025c.046 0 .13 0 .13-.066a.998.998 0 00-.04-.156l-.085-.246h-.503l-.045.196zM21.516 18.213c0 .085.06.11.131.12.096.008.191.008.287 0a.321.321 0 00.206-.115.574.574 0 00.065-.156h.06c0 .12-.05.241-.075.367H21.05v-.066h.055c.08 0 .161 0 .161-.145v-1.106c0-.111-.08-.126-.16-.126h-.031v-.065h.669v.06h-.056c-.08 0-.146 0-.146.12l-.025 1.112zM22.205 17.071h.025c.03 0 .046-.025.046-.06 0-.006 0-.013-.002-.019a.045.045 0 00-.025-.027.046.046 0 00-.019-.004h-.025v.11zm-.075.116h.03v-.166c0-.025 0-.035-.03-.03h.115c.04 0 .076 0 .076.06a.07.07 0 01-.05.07l.035.051c.012.022.03.04.05.055h-.045s-.04-.04-.08-.1h-.026v.075h.035l-.11-.015zm.11.065a.181.181 0 00.181-.18.182.182 0 00-.11-.172.181.181 0 00-.07-.015.185.185 0 00-.112.304.185.185 0 00.111.063zm0-.412a.231.231 0 11-.226.231.223.223 0 01.138-.215.22.22 0 01.088-.016" fill="#231F20"/>
    <path d="M8.787 9.314a3.65 3.65 0 117.3 0 3.65 3.65 0 01-7.3 0z" fill="#fff"/>
    <path d="M12.442 13.05a3.79 3.79 0 01-3.816-3.746 3.73 3.73 0 013.816-3.81h.975a3.86 3.86 0 013.952 3.81c0 2.061-1.886 3.745-3.952 3.745h-.975zm0-7.245A3.459 3.459 0 1015.9 9.264a3.458 3.458 0 00-3.454-3.484l-.005.025zm-.784 5.53V7.193a2.192 2.192 0 000 4.092v.05zm2.976-2.046a2.196 2.196 0 00-1.408-2.046v4.047a2.196 2.196 0 001.413-2.051l-.005.05z" fill="#005288"/>
</svg>
