<svg width="24" height="24" viewBox="0 0 24 24" fill="none" xmlns="http://www.w3.org/2000/svg">
    <g clip-path="url(#diners_club_large_svg__clip0)">
        <path d="M21.886 18.254a1.318 1.318 0 01-1.34 1.307H3.454a1.32 1.32 0 01-1.339-1.307V6.426a1.325 1.325 0 011.34-1.312h17.093a1.325 1.325 0 011.339 1.312v11.828z" fill="#fff"/>
        <path d="M2.229 6.426v11.828a1.21 1.21 0 001.224 1.197h17.094a1.216 1.216 0 001.224-1.197V6.426a1.212 1.212 0 00-1.224-1.198H3.453A1.207 1.207 0 002.23 6.426zM3.453 19.68A1.44 1.44 0 012 18.254V6.426A1.44 1.44 0 013.453 5h17.094A1.44 1.44 0 0122 6.426v11.828a1.44 1.44 0 01-1.453 1.421l-17.094.005z" fill="#005288"/>
        <path d="M4.285 15.535c0 .278.197.31.37.31a1.003 1.003 0 001.033-1.124 1.083 1.083 0 00-1.124-1.16 2.493 2.493 0 00-.279 0v1.974zm-.356-1.687c0-.324-.17-.306-.33-.306v-.096h1.047a1.31 1.31 0 011.44 1.261c0 .348-.21 1.262-1.48 1.262h-.984v-.096c.215 0 .32-.027.33-.27l-.023-1.755zM6.598 13.761a.187.187 0 01-.178-.182.187.187 0 01.178-.174.183.183 0 01.178.174.183.183 0 01-.178.182zm-.384 2.103h.068c.101 0 .17 0 .17-.12v-.973c0-.16-.05-.178-.188-.25v-.06c.17-.05.375-.12.389-.128a.124.124 0 01.064 0v1.421c0 .119.082.119.182.119h.06v.096H6.19l.023-.105zM7.324 14.794c0-.132-.04-.169-.21-.237v-.069c.156-.05.308-.107.457-.173v.283c.173-.155.39-.25.622-.27.306 0 .416.224.416.503v.914c0 .119.077.119.178.119h.064v.105h-.768v-.096h.064c.1 0 .174 0 .174-.119v-.914c0-.201-.128-.302-.334-.302a.97.97 0 00-.416.17v1.064c0 .12.078.12.179.12h.068v.077h-.722v-.096h.064c.1 0 .174 0 .174-.119l-.01-.96zM9.806 14.85c.087 0 .1-.046.1-.088a.306.306 0 00-.315-.333c-.219 0-.37.164-.41.42h.625zm-.64.118a1.374 1.374 0 000 .206.603.603 0 00.53.621.685.685 0 00.485-.237l.05.05a.84.84 0 01-.662.407.726.726 0 01-.69-.787.804.804 0 01.726-.914.568.568 0 01.622.567v.064h-.032l-1.029.023zM10.3 15.864h.096c.1 0 .173 0 .173-.119v-1.01c0-.11-.137-.133-.187-.16v-.055c.26-.114.407-.206.457-.206.05 0 .032 0 .032.046v.325c.091-.142.242-.37.457-.37a.196.196 0 01.206.191.174.174 0 01-.17.183c-.109 0-.109-.087-.237-.087a.301.301 0 00-.26.297v.846c0 .119.068.119.169.119h.2v.105h-.927l-.01-.105zM11.685 15.457a.457.457 0 00.457.457c.21 0 .292-.128.292-.251 0-.425-.786-.288-.786-.869a.493.493 0 01.558-.457c.143.004.284.04.411.105l.023.366h-.082a.371.371 0 00-.393-.356.25.25 0 00-.28.237c0 .42.837.293.837.86 0 .237-.192.489-.621.489a.946.946 0 01-.458-.124l-.045-.439.087-.018zM15.967 14.1h-.091a.68.68 0 00-.768-.59 1.026 1.026 0 00-1.02 1.138 1.175 1.175 0 001.075 1.248.727.727 0 00.722-.622l.087.023-.087.526c-.25.116-.52.181-.795.192a1.282 1.282 0 01-1.371-1.372 1.326 1.326 0 011.37-1.27c.293.016.58.081.85.192l.028.535zM16.095 15.864h.073c.1 0 .174 0 .174-.119v-2.002c0-.233-.055-.242-.192-.283v-.055c.128-.04.252-.092.37-.155a.321.321 0 01.082-.041s.028.022.028.05v2.486c0 .119.078.119.178.119h.064v.105H16.1l-.005-.105zM18.408 15.763c0 .064.036.064.1.064h.142v.073a3.339 3.339 0 00-.516.115v-.288a.987.987 0 01-.64.301.39.39 0 01-.376-.267c-.017-.052-.023-.108-.017-.162v-.914c0-.092 0-.183-.215-.202v-.068c.128 0 .416-.023.457-.023.04 0 .04.023.04.105v.914c0 .105 0 .416.312.416a.79.79 0 00.457-.22v-.977c0-.069-.174-.11-.302-.147v-.064c.32-.022.526-.05.558-.05.032 0 .032.023.032.064l-.032 1.33zM19.12 15.553a.389.389 0 00.375.366c.384 0 .544-.375.544-.7a.68.68 0 00-.576-.708.548.548 0 00-.342.17v.872zm0-.978a.915.915 0 01.54-.26.7.7 0 01.667.74.914.914 0 01-.859.946c-.174 0-.346-.044-.498-.128l-.11.082-.078-.036c.035-.213.052-.429.05-.645v-1.53c0-.234-.05-.243-.187-.284v-.055c.128-.042.251-.094.37-.155a.325.325 0 01.078-.023c.023 0 .028.022.028.05v1.298zM3.595 18.053h.028c.073 0 .146 0 .146-.114v-1.024c0-.1-.073-.114-.146-.114h-.028v-.055h.599v.055h-.028c-.073 0-.146 0-.146.114v1.024c0 .105.073.114.146.114h.028v.06h-.599v-.06z" fill="#231F20"/>
        <path d="M4.185 18.103v-.04c-.073 0-.156 0-.156-.124v-1.024c0-.11.083-.119.156-.119v-.046h-.581v.046c.069 0 .156 0 .156.119v1.024c0 .11-.087.123-.156.123v.041h.581zm0 0h-.6v-.068h.038c.073 0 .137 0 .137-.105v-1.015c0-.096-.064-.1-.137-.105h-.037v-.073h.617v.073h-.037c-.073 0-.137 0-.137.105v1.024c0 .096.064.105.137.105h.037v.073l-.018-.014zM5.538 17.724v-.731a.165.165 0 00-.17-.188h-.045v-.06h.52v.056h-.027c-.082 0-.178 0-.178.251v.891a1.326 1.326 0 000 .197h-.06l-1.01-1.125v.81c0 .169.033.228.183.228h.037v.06h-.521v-.06h.018c.137 0 .178-.091.178-.251v-.823a.178.178 0 00-.178-.178v-.055h.398l.855.978z" fill="#231F20"/>
        <path d="M5.574 18.126h.082a1.258 1.258 0 010-.187v-.887c0-.238.096-.256.183-.26v-.042h-.498v.041h.037a.175.175 0 01.171.122c.008.025.01.05.007.075v.74l-.891-.978h-.389v.041h.01a.187.187 0 01.182.188v.818c0 .16-.041.26-.183.26v.042h.503v-.041h-.046c-.15 0-.192-.069-.192-.238v-.827l1.024 1.133zm.073 0H5.57l-.992-1.088v.786c0 .17.027.215.173.22h.042v.073h-.535v-.069h.027c.128 0 .165-.082.17-.242v-.823a.169.169 0 00-.17-.173h-.027v-.073h.416l.859.969v-.718a.156.156 0 00-.16-.178h-.055v-.073h.535v.073h-.037c-.082 0-.164 0-.169.242v.891a1.326 1.326 0 000 .197v-.014zM6.136 16.842c-.146 0-.15.036-.183.178h-.06l.028-.164v-.17h.046c0 .06.069.06.119.06h1.01c.055 0 .105 0 .105-.064h.05v.315l-.06.023c0-.073 0-.187-.14-.187h-.344v1.042c0 .15.069.169.165.169h.037v.06h-.65v-.06h.037c.11 0 .16 0 .16-.165v-1.037h-.32z" fill="#231F20"/>
        <path d="M6.909 18.117H6.25v-.069h.046c.11 0 .15 0 .155-.155v-1.042h-.315.33v1.037c0 .156-.065.174-.17.174H6.27v.041h.63v-.04h-.027c-.096 0-.174 0-.174-.18v-1.05h.33c.127 0 .146.114.15.187h.041v-.155c0-.055 0-.1.023-.151H7.21c0 .06-.064.064-.114.06h-1.01c-.046 0-.096 0-.114-.056H5.94v.316h.04c.028-.137.042-.178.188-.178-.146 0-.142.027-.174.169h-.11c0-.055 0-.11.024-.17a.993.993 0 000-.164h.064c0 .046.05.046.1.05h1.02c.054 0 .095 0 .1-.055h.055v.316l-.069.027c0-.073 0-.178-.137-.178h-.315v1.033c0 .146.06.155.155.16h.046v.073h-.018zM7.32 18.053h.027c.073 0 .147 0 .147-.114v-1.024c0-.1-.074-.114-.147-.114H7.32v-.055h.992a2.163 2.163 0 000 .297h-.06c0-.128-.032-.233-.237-.233H7.74v.53h.233c.12 0 .142-.069.156-.174h.06v.453h-.06c0-.114 0-.192-.156-.192H7.74v.457c0 .128.115.128.238.128.238 0 .338 0 .398-.238h.054c-.022.105-.05.21-.063.316H7.315l.005-.037z" fill="#231F20"/>
        <path d="M8.362 18.103c0-.1.041-.2.064-.297l-.028-.009c-.054.22-.169.238-.402.238-.123 0-.247 0-.247-.137v-.457h.243c.137 0 .15.082.16.192h.045v-.215-.22h-.045c0 .1-.041.174-.16.17h-.243v-.549h.284c.201 0 .233.105.242.229h.046v-.192-.097h-.974v.042c.073 0 .156 0 .156.123v1.024c0 .11-.083.123-.156.123v.041H8.38l-.018-.009zm.018.01H7.315v-.07h.032c.073 0 .137 0 .137-.104v-1.024c0-.096-.064-.1-.137-.105h-.032v-.073h1.006a.677.677 0 000 .1v.197h-.069c0-.128-.027-.22-.228-.224h-.265v.53h.224c.114 0 .132-.06.146-.165h.078v.453h-.069c0-.119 0-.188-.146-.188h-.224v.458c0 .118.1.118.228.118.238 0 .33 0 .389-.233h.06c-.028.105-.051.206-.07.311l.005.018zM8.952 17.404h.095c.197 0 .302-.073.302-.306a.27.27 0 00-.288-.284.53.53 0 00-.11 0v.59zm-.252-.457c0-.142-.078-.15-.137-.15h-.037v-.051h.617c.247 0 .458.064.458.343a.36.36 0 01-.27.342l.334.503a.224.224 0 00.191.119v.06h-.379a6.008 6.008 0 01-.407-.636h-.128v.42c0 .151.069.156.16.156h.037v.06h-.622v-.06h.037c.068 0 .137-.037.137-.105l.01-1.001z" fill="#231F20"/>
        <path d="M9.048 17.395c.192 0 .292-.069.292-.293a.256.256 0 00-.279-.279h-.1v.567l.087.005zm-.096 0v-.58a.503.503 0 01.11 0 .278.278 0 01.296.296c0 .234-.114.311-.31.311l-.096-.027zm0 .055h.137c.121.217.254.427.397.63h.371v-.045a.223.223 0 01-.192-.12l-.352-.484a.36.36 0 00.265-.338c0-.274-.21-.334-.457-.338h-.608v.041h.027c.06 0 .146 0 .146.16v.996c0 .078-.073.115-.146.115h-.004v.04h.603v-.04h-.027c-.092 0-.17 0-.17-.17v-.424l.01-.023zm.914.649h-.384c-.15-.201-.286-.412-.407-.631h-.114v.407c0 .15.06.146.15.15h.046v.074h-.64v-.069h.046c.069 0 .128-.032.128-.096v-.983c0-.137-.068-.137-.128-.141h-.046v-.073h.627c.246 0 .457.068.457.352a.365.365 0 01-.266.347l.325.494a.215.215 0 00.187.114v.073l.019-.018zM11.191 17.724v-.731a.163.163 0 00-.04-.133.165.165 0 00-.13-.055h-.04v-.06h.512v.056h-.028c-.082 0-.173 0-.173.251v.891a1.371 1.371 0 000 .197h-.06l-1.005-1.125v.81c0 .169.036.228.187.228h.032v.06h-.521v-.06h.027c.138 0 .179-.091.179-.251v-.823a.178.178 0 00-.179-.178h-.027v-.055h.402l.864.978z" fill="#231F20"/>
        <path d="M11.227 18.126h.064a1.247 1.247 0 010-.187v-.887c0-.238.101-.256.183-.26v-.042h-.498v.041h.037a.176.176 0 01.135.057.174.174 0 01.043.14v.74l-.868-.987h-.394v.041a.192.192 0 01.188.188v.827c0 .16-.046.26-.187.26v.042h.502v-.041h-.023c-.155 0-.196-.069-.196-.238v-.827l1.014 1.133zm.074 0h-.078l-.996-1.088v.786c0 .17.027.215.178.22h.041v.073h-.535v-.069h.037c.132 0 .169-.082.169-.242v-.823a.17.17 0 00-.17-.169h-.036v-.073h.416l.86.965v-.718c0-.155-.106-.178-.16-.178h-.05v-.073h.53v.073h-.037c-.083 0-.165 0-.165.242v.891a1.371 1.371 0 000 .197l-.004-.014zM12.1 16.965l-.182.553h.365l-.182-.553zm-.287.864a.888.888 0 00-.042.155c0 .06.083.069.147.069h.023v.06H11.488v-.06a.174.174 0 00.17-.128l.315-.914c.028-.08.053-.16.073-.242.061-.023.12-.05.178-.083h.027v.05l.394 1.061c.02.068.045.135.073.201a.124.124 0 00.128.078v.06h-.567v-.06h.023c.045 0 .119 0 .119-.06a.57.57 0 00-.037-.141l-.078-.224h-.457l-.036.178z" fill="#231F20"/>
        <path d="M11.927 17.51h.343l-.174-.526-.17.525zm-.027 0l.187-.572.187.571H11.9zm.402.575h.548v-.041a.133.133 0 01-.137-.087 1.695 1.695 0 01-.073-.201l-.361-1.024v-.046a.634.634 0 01-.178.078 1.518 1.518 0 01-.069.247l-.315.914a.188.188 0 01-.179.137v.041h.435v-.04c-.064 0-.156 0-.156-.078a.72.72 0 01.041-.156l.064-.21h.457l.083.233a.796.796 0 01.036.142c0 .06-.082.064-.128.068l-.068.023zm.553 0h-.572v-.078h.032c.046 0 .115 0 .115-.05a.643.643 0 00-.041-.137l-.074-.22h-.434l-.06.197a.97.97 0 00-.045.15c0 .047.078.06.142.06h.027v.078h-.457v-.078a.165.165 0 00.16-.123l.316-.914c.03-.082.056-.166.077-.252a.818.818 0 00.178-.082h.023a.163.163 0 000 .05l.361 1.024c.023.069.046.142.069.201a.119.119 0 00.123.073v.078l.06.023zM12.941 16.842c-.146 0-.15.036-.178.178h-.06v-.164a1.06 1.06 0 000-.17h.051c0 .06.064.06.114.06h1.015c.05 0 .1 0 .105-.064h.046v.315l-.06.023c0-.073 0-.187-.141-.187h-.32v1.042c0 .15.068.169.16.169h.036v.06h-.649v-.06h.037c.11 0 .164 0 .164-.165v-1.037h-.32z" fill="#231F20"/>
        <path d="M13.714 18.117h-.658v-.069h.046c.11 0 .15 0 .155-.155v-1.042h-.316.334v1.038c0 .155-.064.173-.174.173h-.027v.041h.63v-.04h-.027c-.096 0-.169 0-.169-.18v-1.05h.33c.132 0 .146.114.15.187h.041v-.155c0-.055 0-.1.023-.146h-.032c0 .059-.064.063-.11.059h-1.019c-.046 0-.096 0-.114-.055h-.032v.315h.041c.027-.137.041-.178.188-.178-.142 0-.142.028-.174.17h-.105c0-.056 0-.11.023-.17.004-.055.004-.11 0-.164h.063c0 .045.05.045.101.05h1.024c.05 0 .091 0 .096-.055h.055c0 .055 0 .105-.023.16-.023.055 0 .105 0 .155l-.069.028c0-.073 0-.178-.137-.178h-.315v1.032c0 .147.064.156.155.16h.046v.074-.005zM14.139 18.053h.027c.069 0 .142 0 .142-.114v-1.024c0-.1-.073-.114-.142-.114h-.027v-.055h.594v.055h-.027c-.069 0-.142 0-.142.114v1.024c0 .105.073.114.142.114h.027v.06h-.594v-.06z" fill="#231F20"/>
        <path d="M14.724 18.103v-.04c-.069 0-.15 0-.15-.124v-1.024c0-.11.081-.119.15-.123v-.042H14.148v.041c.069 0 .15 0 .15.124v1.024c0 .11-.081.123-.15.123v.041H14.724zm0 0h-.594v-.068h.036c.069 0 .133 0 .137-.105v-1.015c0-.096-.068-.1-.137-.105h-.036v-.073h.612v.073h-.036c-.069 0-.133 0-.133.105v1.024c0 .096.064.105.133.105h.036v.073l-.018-.014zM15.547 18.053c.379 0 .457-.334.457-.622s-.151-.63-.48-.63c-.33 0-.457.306-.457.567 0 .351.16.685.48.685zm-.032-1.34a.686.686 0 01.75.677.713.713 0 01-.737.75.694.694 0 01-.73-.704.712.712 0 01.721-.722" fill="#231F20"/>
        <path d="M15.058 17.367c0-.26.105-.575.457-.575.352 0 .489.351.489.64 0 .287-.069.63-.457.63.37 0 .434-.324.457-.612.022-.288-.156-.622-.457-.622-.302 0-.435.297-.435.558 0 .352.16.676.457.676-.324 0-.489-.343-.489-.695h-.022zm-.252.069a.726.726 0 01.732-.731.704.704 0 00-.74.731.685.685 0 00.726.695.71.71 0 00.731-.74.68.68 0 00-.745-.668.692.692 0 01.759.686.721.721 0 01-.745.758.708.708 0 01-.727-.731M17.585 17.724v-.731a.166.166 0 00-.099-.175.164.164 0 00-.07-.013h-.046v-.06h.517v.056h-.028c-.082 0-.178 0-.178.251v.891a1.315 1.315 0 000 .197h-.073l-.983-1.125v.81c0 .169.032.228.183.228h.037v.06h-.521v-.06h.027c.137 0 .178-.091.178-.251v-.823a.178.178 0 00-.178-.178h-.027v-.055h.397l.864.978z" fill="#231F20"/>
        <path d="M17.622 18.126h.064a1.247 1.247 0 010-.187v-.887c0-.238.096-.256.182-.26v-.042h-.498v.041h.037a.175.175 0 01.172.122c.007.025.01.05.006.075v.74l-.873-.987h-.388v.041a.187.187 0 01.182.188v.827c0 .16-.04.26-.182.26v.042h.502v-.041H16.8c-.15 0-.192-.069-.192-.238v-.827l1.015 1.133zm.073 0h-.083l-.987-1.088v.786c0 .17.028.215.174.22h.046v.073h-.54v-.069h.037c.128 0 .164-.082.169-.242v-.823a.17.17 0 00-.17-.169h-.036v-.073h.416l.86.97v-.723a.155.155 0 00-.16-.178h-.055v-.073h.534v.073h-.036c-.082 0-.165 0-.17.242v.891a1.315 1.315 0 000 .197v-.014zM18.494 16.965l-.182.553h.365l-.183-.553zm-.288.864a.896.896 0 00-.04.155c0 .06.082.069.146.069v.06h-.448v-.06a.174.174 0 00.169-.128l.315-.914c.03-.079.052-.16.069-.242a1.42 1.42 0 00.183-.083h.027v.05l.411 1.061c.021.068.046.135.073.201a.124.124 0 00.128.078v.06h-.562v-.06h.023c.041 0 .119 0 .119-.06a.913.913 0 00-.037-.141l-.077-.224h-.457l-.042.178z" fill="#231F20"/>
        <path d="M18.979 18.085h-.302v-.078h.032c.046 0 .11 0 .11-.05a.551.551 0 00-.037-.137l-.067-.201h-.399l-.064.21a.714.714 0 00-.04.155V18c.024.005.05.007.077.007h.027v.054a.725.725 0 00.05.001v.041h-.434V18.062a.192.192 0 00.179-.137l.31-.914c.034-.08.058-.162.073-.247a.635.635 0 00.179-.078v.046l.36 1.029c.022.066.046.132.074.196a.132.132 0 00.137.087v.041h-.265zM19.742 17.92c0 .078.055.101.12.11.086.007.173.007.26 0a.292.292 0 00.187-.105.52.52 0 00.06-.142h.054c0 .11-.045.22-.068.334h-1.038v-.06h.05c.074 0 .147 0 .147-.132v-1.006c0-.1-.073-.114-.146-.114h-.028v-.06h.608v.056h-.05c-.073 0-.133 0-.133.11l-.023 1.01z" fill="#231F20"/>
        <path d="M20.346 18.103c0-.11.05-.21.068-.315h-.041a.387.387 0 01-.06.137.306.306 0 01-.191.11h-.26c-.065 0-.129-.032-.129-.114v-1.01c0-.11.069-.12.142-.12h.04v-.04h-.589v.04c.073 0 .156 0 .156.124v1.006c0 .128-.082.141-.156.141v.041h1.02zm0 0h-1.038v-.068h.06c.073 0 .137 0 .141-.124v-1.005c0-.096-.068-.1-.142-.105h-.036v-.073h.626v.073h-.06c-.072 0-.123 0-.123.1v1.01c0 .073.05.092.11.1h.256a.265.265 0 00.183-.1c.029-.042.05-.09.06-.141h.077c0 .114-.046.224-.073.333h-.041zM20.368 16.883h.023c.028 0 .041-.023.041-.055a.04.04 0 00-.01-.032.04.04 0 00-.03-.014h-.024v.101zm-.068.105h.027v-.15c0-.024 0-.033-.027-.028h.105c.037 0 .069 0 .069.055a.064.064 0 01-.046.064l.032.045c.011.02.027.037.046.05h-.042s-.036-.036-.073-.09h-.023v.068h.032l-.1-.014zm.1.06a.165.165 0 00.165-.165.164.164 0 00-.165-.17.17.17 0 000 .335zm0-.375a.21.21 0 11-.205.21.199.199 0 01.057-.15.201.201 0 01.148-.06" fill="#231F20"/>
        <path d="M8.17 9.83a3.318 3.318 0 116.636.001 3.318 3.318 0 01-6.636 0z" fill="#fff"/>
        <path d="M11.493 13.227a3.446 3.446 0 01-3.47-3.405 3.391 3.391 0 013.47-3.465h.886a3.51 3.51 0 013.593 3.465c0 1.874-1.714 3.405-3.593 3.405h-.886zm0-6.586a3.144 3.144 0 103.144 3.144 3.144 3.144 0 00-3.14-3.167l-.004.023zm-.713 5.027V7.902a1.993 1.993 0 000 3.72v.046zm2.705-1.86a1.998 1.998 0 00-1.28-1.86v3.68a1.998 1.998 0 001.285-1.866l-.005.046z" fill="#005288"/>
    </g>
    <defs>
        <clipPath id="diners_club_large_svg__clip0">
            <path fill="#fff" d="M2 5h20v14.657H2z"/>
        </clipPath>
    </defs>
</svg>
