<svg width="28" height="24" viewBox="0 0 28 24" fill="none" xmlns="http://www.w3.org/2000/svg">
    <path fill-rule="evenodd" clip-rule="evenodd" d="M2.084 4.488l23.83-.001V19.48H2.086L2.084 4.489z" fill="#fff"/>
    <path fill-rule="evenodd" clip-rule="evenodd" d="M25.829 12.826s-6.511 4.54-18.437 6.571h18.437v-6.571" fill="#E7792B"/>
    <path fill-rule="evenodd" clip-rule="evenodd" d="M25.913 4.4L2 4.404v15.165h24L25.998 4.4h-.085zm-.086.173v14.823H2.174L2.173 4.573h23.654z" fill="#1A1918"/>
    <path fill-rule="evenodd" clip-rule="evenodd" d="M4.098 9.042h-.993v3.43h.99c.525 0 .905-.122 1.238-.395a1.713 1.713 0 00.63-1.317c0-1.013-.765-1.718-1.864-1.718zm.792 2.577c-.213.19-.49.273-.927.273H3.78V9.624h.182c.438 0 .703.077.927.277.234.206.375.526.375.855 0 .329-.14.658-.375.864zm1.384-2.577h.678v3.43h-.678v-3.43zm2.335 1.316c-.407-.148-.526-.247-.526-.432 0-.216.212-.38.505-.38.203 0 .369.082.545.278l.355-.459a1.53 1.53 0 00-1.02-.38c-.615 0-1.084.422-1.084.984 0 .472.218.714.854.94.265.092.402.154.47.196a.409.409 0 01.202.354c0 .279-.224.484-.525.484a.803.803 0 01-.74-.457l-.438.416c.313.453.687.654 1.202.654.705 0 1.198-.463 1.198-1.127 0-.546-.228-.792-.999-1.07h.001zm1.212.402c0 1.008.802 1.79 1.833 1.79.291 0 .542-.056.85-.2v-.787c-.271.267-.511.375-.819.375-.681 0-1.165-.489-1.165-1.183 0-.659.499-1.179 1.134-1.179.324 0 .568.114.85.386v-.787a1.748 1.748 0 00-.835-.211c-1.025 0-1.848.798-1.848 1.796zm8.054.586l-.927-2.304h-.74l1.475 3.52h.364l1.5-3.52h-.734l-.939 2.304h.001zm1.979 1.127h1.92v-.581h-1.243v-.926h1.198v-.581H20.53v-.762h1.245v-.581h-1.921v3.43zm4.603-2.419c0-.641-.448-1.012-1.23-1.012h-1.004v3.43h.677v-1.378h.089l.937 1.379h.834l-1.094-1.445c.51-.103.791-.448.791-.974zm-1.36.568H22.9v-1.04h.209c.421 0 .65.175.65.508 0 .346-.229.532-.661.532z" fill="#1A1918"/>
    <path d="M14.555 12.584c1.01 0 1.83-.812 1.83-1.813 0-1.002-.82-1.814-1.83-1.814-1.01 0-1.83.812-1.83 1.814 0 1.001.82 1.813 1.83 1.813z" fill="#E7792B"/>
</svg>
