<svg width="24" height="24" viewBox="0 0 24 24" fill="none" xmlns="http://www.w3.org/2000/svg">
    <path fill-rule="evenodd" clip-rule="evenodd" d="M2.07 6.074l19.858-.002v12.495l-19.855.001L2.07 6.074z" fill="#fff"/>
    <path fill-rule="evenodd" clip-rule="evenodd" d="M21.858 13.021s-5.427 3.784-15.365 5.477h15.365V13.02" fill="#E7792B"/>
    <path fill-rule="evenodd" clip-rule="evenodd" d="M21.928 6L2 6.003v12.638h20L21.999 6h-.071zm-.072.144v12.353H2.146L2.143 6.144h19.712z" fill="#1A1918"/>
    <path fill-rule="evenodd" clip-rule="evenodd" d="M3.748 9.868h-.827v2.86h.824c.438 0 .755-.103 1.032-.33a1.429 1.429 0 00.526-1.098c0-.844-.638-1.432-1.554-1.432zm.66 2.148c-.177.158-.407.227-.773.227h-.15v-1.89h.15c.366 0 .587.065.773.231a.958.958 0 01.313.712.975.975 0 01-.313.72zm1.154-2.148h.565v2.86h-.565v-2.86zm1.946 1.098c-.34-.124-.439-.207-.439-.36 0-.18.177-.318.42-.318.17 0 .308.069.455.232l.296-.382a1.275 1.275 0 00-.85-.317c-.513 0-.903.351-.903.82 0 .393.181.595.712.783.22.077.334.129.39.163a.341.341 0 01.17.296c0 .232-.187.403-.439.403a.67.67 0 01-.616-.381l-.365.347c.26.377.573.544 1.002.544.587 0 .998-.385.998-.939 0-.454-.19-.66-.832-.891zm1.01.334c0 .84.668 1.492 1.527 1.492.243 0 .451-.047.708-.167v-.656c-.226.223-.426.313-.682.313-.568 0-.971-.408-.971-.986 0-.55.416-.982.945-.982.27 0 .473.095.708.321V9.98a1.456 1.456 0 00-.695-.176c-.855 0-1.54.666-1.54 1.497zm6.711.489l-.772-1.92h-.617L15.07 12.8h.303l1.25-2.933h-.611l-.782 1.92zm1.65.938h1.6v-.484h-1.037v-.771h.999v-.484h-1v-.636h1.038v-.484h-1.6v2.86zm3.835-2.015c0-.535-.373-.844-1.024-.844h-.837v2.86h.564v-1.15h.073l.782 1.15h.694l-.911-1.205c.425-.085.66-.373.66-.811zm-1.133.473h-.164v-.867h.174c.35 0 .542.146.542.424 0 .288-.191.443-.552.443z" fill="#1A1918"/>
    <path d="M12.462 12.82c.842 0 1.525-.676 1.525-1.511 0-.835-.683-1.511-1.525-1.511-.842 0-1.524.676-1.524 1.511 0 .835.682 1.511 1.524 1.511z" fill="#E7792B"/>
</svg>
