<svg width="24" height="24" viewBox="0 0 24 24" fill="none" xmlns="http://www.w3.org/2000/svg">
    <path d="M3.899 3.385a1.147 1.147 0 011.146-1.146h13.89a1.147 1.147 0 011.146 1.146v17.228a1.147 1.147 0 01-1.146 1.148H5.045a1.148 1.148 0 01-1.146-1.148V3.385z" fill="#fff"/>
    <path d="M18.935 22H5.045a1.388 1.388 0 01-1.385-1.387V3.385A1.387 1.387 0 015.045 2h13.89a1.387 1.387 0 011.385 1.385v17.228A1.388 1.388 0 0118.935 22zM5.045 2.478a.909.909 0 00-.907.907v17.228a.909.909 0 00.907.91h13.89a.91.91 0 00.907-.91V3.385a.909.909 0 00-.907-.907H5.045z" fill="#007FC3"/>
    <path d="M8.782 7.023v1.836h1.025V6.468H9.34a.557.557 0 00-.557.555zm0 6.344a.573.573 0 00.563.584h.462v-1.87h3.2v4.414H7.023c-.794 0-1.368-.644-1.368-1.434V5.358c0-.793.576-1.435 1.368-1.435h5.984v7.42H8.782v2.027" fill="#007FC3"/>
    <path fill-rule="evenodd" clip-rule="evenodd" d="M5.937 19.013h.298v-.164c-.005-.183-.039-.244-.157-.244-.144 0-.14.165-.14.335v.073zm-.292.44v-.488c-.016-.44.14-.69.428-.69.41 0 .453.306.453.818v.249h-.589v.271c.006.244.07.292.157.292.106 0 .141-.114.136-.352h.292c.012.416-.106.678-.405.678-.34 0-.48-.233-.472-.78" fill="#007FC3"/>
    <path fill-rule="evenodd" clip-rule="evenodd" d="M18.357 16.495h-5.87l-.068-.008-.061-.008-.07-.013-.06-.016-.061-.023-.061-.02-.061-.021a1.424 1.424 0 01-.778-.806l-.022-.06-.017-.07-.017-.06-.016-.062-.01-.069-.008-.06v-.072l-.005-.061v-9.72c0-.367.143-.72.398-.985.128-.138.283-.247.456-.322l.06-.027.062-.02.06-.017.062-.017.067-.013.064-.007.061-.01.068-.004h5.83v4.93h-3.066V6.462c-.474-.075-.985.033-1.014.588v-.217.224-.007 6.309-.01.056-.046c.03.557.54.666 1.021.586V11.38l.014-.046h3.042v5.158" fill="red"/>
    <path d="M15.364 18.972h-.292v-.207c-.004-.102-.042-.161-.102-.161-.112 0-.112.19-.112.414v.442c-.01.363.024.43.112.447.09-.005.095-.127.102-.275v-.172h.292v.172c0 .389-.11.601-.401.601-.259 0-.406-.199-.394-.694v-.6c-.004-.525.17-.661.394-.661.296 0 .407.27.401.546v.148z" fill="red"/>
    <path fill-rule="evenodd" clip-rule="evenodd" d="M12.514 16.495a1.436 1.436 0 01-.944-.43 1.512 1.512 0 01-.306-.485l-.021-.06-.018-.07-.016-.06-.017-.062-.009-.069-.009-.06v-.072l-.004-.061V12.08h1.84v4.415h-.496zM11.166 5.347c.036-1.013.865-1.552 1.84-1.423v7.419h-1.84V5.347z" fill="#292526"/>
    <path d="M7.047 17.71h-.296v2.477h.296V17.71z" fill="#292526"/>
    <path fill-rule="evenodd" clip-rule="evenodd" d="M7.55 19.013h.292v-.164c0-.183-.033-.244-.151-.244-.15 0-.14.165-.14.335v.073zm-.291.44v-.488c-.014-.44.139-.69.427-.69.412 0 .455.306.455.818v.249h-.59v.271c.004.244.068.292.152.292.11 0 .14-.114.136-.352h.295c.014.416-.105.678-.405.678-.339 0-.475-.233-.47-.78" fill="#292526"/>
    <path d="M9.104 18.972h-.292v-.207c-.004-.102-.037-.161-.1-.161-.113 0-.113.19-.113.414v.442c0 .363.027.43.113.447.088-.005.09-.127.1-.275v-.172h.292v.172c0 .389-.105.601-.398.601-.262 0-.41-.199-.398-.694v-.6c0-.525.173-.661.398-.661.298 0 .402.27.398.546v.148zM9.701 19.856v.34c-.178.026-.419.053-.419-.294v-1.265h-.118v-.312h.114v-.513h.297v.513h.127v.312h-.128v1.16c.009.076.09.06.127.058M10.103 18.325v.33h.005a.69.69 0 01.114-.263.215.215 0 01.183-.101v.512c-.165-.026-.288.034-.292.31v1.074h-.297v-1.862h.285" fill="#292526"/>
    <path fill-rule="evenodd" clip-rule="evenodd" d="M10.933 20.233c-.385.014-.454-.266-.45-.91.006-.643.005-1.045.45-1.045.444 0 .441.406.441 1.046 0 .639-.06.923-.441.91zm-.157-1.273v.618c0 .227.018.33.157.33s.148-.103.148-.33v-.618c0-.174 0-.356-.148-.356-.149 0-.157.183-.157.356z" fill="#292526"/>
    <path d="M11.852 18.325v.19h.004c.067-.217.199-.237.266-.237.165 0 .301.139.292.47v1.439h-.292v-1.24c0-.184-.016-.3-.127-.31-.11-.01-.148.15-.143.344v1.206h-.292v-1.862h.292z" fill="#292526"/>
    <path fill-rule="evenodd" clip-rule="evenodd" d="M12.942 18.1h-.297v-.39h.297v.39zm0 2.087h-.297v-1.863h.297v1.863z" fill="#292526"/>
    <path d="M13.943 18.972h-.295v-.207c-.006-.102-.04-.161-.1-.161-.113 0-.113.19-.11.414v.442c-.008.363.022.43.11.447.09-.005.09-.127.1-.275v-.172h.295v.172c0 .389-.112.601-.403.601-.258 0-.41-.199-.399-.694v-.6c0-.525.176-.661.399-.661.296 0 .403.27.403.546v.148z" fill="#292526"/>
    <path fill-rule="evenodd" clip-rule="evenodd" d="M16.063 19.403v-.2c-.072.073-.16.148-.241.237a.42.42 0 00-.046.225c0 .143.034.241.139.241.17.001.14-.32.148-.503zm.317.783h-.278a.709.709 0 01-.017-.19c-.071.15-.161.236-.263.236-.236 0-.338-.169-.338-.558 0-.42.203-.526.435-.664a.268.268 0 00.144-.31c-.012-.084-.061-.098-.135-.098-.135 0-.157.102-.157.272h-.28c0-.352.076-.598.445-.598.402 0 .423.3.423.55v1.1c0 .086.006.173.021.258" fill="#292526"/>
    <path d="M16.507 19.573h.292c-.02.343.072.334.136.334.089 0 .144-.093.122-.21-.004-.107-.088-.167-.143-.22l-.157-.163a.775.775 0 01-.244-.588c0-.287.156-.448.435-.448.289 0 .42.215.412.61h-.294c.006-.206-.032-.287-.138-.287-.069 0-.122.047-.122.153a.277.277 0 00.11.215l.245.237c.1.1.168.227.195.366.03.326-.026.66-.437.66-.152 0-.444-.093-.41-.66M17.808 20.187h-.296V17.71h.296v.805h.003c.08-.22.203-.237.263-.237.17 0 .305.139.297.47v1.439h-.297v-1.273c0-.183-.012-.299-.122-.305-.11-.006-.148.144-.144.347v1.236" fill="#292526"/>
</svg>
