<svg width="24" height="24" viewBox="0 0 24 24" fill="none" xmlns="http://www.w3.org/2000/svg">
    <path d="M21.377 2.85H2.623a.373.373 0 00-.373.373v17.512c0 .206.167.373.373.373h18.754a.373.373 0 00.373-.373V3.223a.373.373 0 00-.373-.373z" fill="#fff" stroke="#01509B" stroke-width=".5"/>
    <path opacity=".9" fill-rule="evenodd" clip-rule="evenodd" d="M19.034 18.746h-7.519c-.616 0-1.034-.618-1.034-1.06 0-.408.01-11.236 0-11.655-.01-.42.72-1.07 1.212-1.07.49.011 7.33 0 7.33 0v5.461h-3.989V7.834s-.261-.01-.595 0c-.167.01-.45.178-.45.45-.01.566 0 7.107 0 7.275 0 .157.105.367.45.377.344.021.605 0 .605 0v-2.798h3.99v5.608z" fill="#E11A1D"/>
    <path opacity=".9" fill-rule="evenodd" clip-rule="evenodd" d="M9.197 7.813s-.303-.021-.574-.01c-.282.01-.522.283-.522.45v2.17h1.096v-2.61zM5.814 4.962c.825.01 6.84 0 6.84 0v8.175l-4.553-.01v2.4a.55.55 0 00.522.42h.564v-2.023h3.477l-.01 4.822H5.781s-1.034-.169-1.127-1.174c.01-.378 0-11.374 0-11.562 0-.178.397-1.048 1.16-1.048z" fill="#00509B"/>
</svg>
