<svg width="24" height="24" viewBox="0 0 24 24" fill="none" xmlns="http://www.w3.org/2000/svg">
    <path d="M20.656 3.5H3.344A.344.344 0 003 3.844V20.01c0 .19.154.343.344.343h17.312c.19 0 .344-.154.344-.343V3.844a.344.344 0 00-.344-.344z" fill="#fff" stroke="#01509B" stroke-width=".5"/>
    <path opacity=".9" fill-rule="evenodd" clip-rule="evenodd" d="M18.493 18.173h-6.94c-.57 0-.955-.57-.955-.977 0-.377.01-10.373 0-10.76-.01-.386.665-.986 1.118-.986.453.009 6.767 0 6.767 0v5.04H14.8V8.1s-.242-.009-.55 0c-.154.01-.414.165-.414.417-.01.522 0 6.56 0 6.715 0 .145.096.338.414.348.318.02.56 0 .56 0v-2.583h3.682v5.176z" fill="#E11A1D"/>
    <path opacity=".9" fill-rule="evenodd" clip-rule="evenodd" d="M9.412 8.08s-.279-.018-.53-.008c-.26.009-.481.261-.481.416v2.002h1.011V8.08zM6.29 5.45c.762.01 6.313 0 6.313 0v7.546L8.4 12.987v2.216c0 .038.106.367.482.387h.52v-1.868h3.21l-.01 4.451H6.26s-.955-.155-1.041-1.083c.01-.349 0-10.5 0-10.673 0-.165.366-.968 1.07-.968z" fill="#00509B"/>
</svg>
