<svg width="16" height="16" viewBox="0 0 16 16" fill="none" xmlns="http://www.w3.org/2000/svg">
    <path fill-rule="evenodd" clip-rule="evenodd" d="M1.882 2h12.236C15.158 2 16 2.843 16 3.882v7.53c0 1.04-.843 1.882-1.882 1.882H1.882A1.882 1.882 0 010 11.412v-7.53C0 2.842.843 2 1.882 2zm0 .47c-.78 0-1.411.633-1.411 1.412v7.53c0 .78.632 1.411 1.411 1.411h12.236c.78 0 1.411-.632 1.411-1.411v-7.53c0-.78-.632-1.411-1.411-1.411H1.882z" fill="#D8DDE1"/>
    <g fill-rule="evenodd" clip-rule="evenodd">
        <path d="M2 2.5h11.925c.87 0 1.575.713 1.575 1.592v7.128c0 .88-.705 1.592-1.575 1.592H2.075C1.205 12.813.5 12.1.5 11.22V4.017C.5 3.179 1.172 2.5 2 2.5z" fill="#fff"/>
        <path d="M15.3 3.258H8V2.5h6c.555 0 1.04.305 1.3.758zM8 4.83h7.5v-.758H8v.758zm0 1.597h7.5v-.759H8v.759zm0 1.596h7.5v-.758H8v.758zM.5 9.62h15V8.86H.5v.759zm0 1.596h15v-.758H.5v.758zm14.8.838H.7c.26.454.745.758 1.3.758h12c.556 0 1.04-.304 1.3-.758z" fill="#FF2B2D"/>
        <path d="M.5 8.023H8V2.5H2C1.17 2.5.5 3.179.5 4.017v4.006z" fill="#1A3179"/>
        <path d="M1.606 3.225a.17.17 0 01-.049.12.166.166 0 01-.284-.12.17.17 0 01.05-.117.166.166 0 01.283.117zm1.094 0a.17.17 0 01-.05.117.166.166 0 01-.283-.117.17.17 0 01.05-.117.166.166 0 01.283.117zm1.165 0a.17.17 0 01-.049.12.166.166 0 01-.284-.12.17.17 0 01.05-.117.166.166 0 01.283.117zm1.11 0a.17.17 0 01-.049.12.166.166 0 01-.284-.12.17.17 0 01.05-.117.166.166 0 01.283.117zm1.165 0a.17.17 0 01-.048.12.166.166 0 01-.285-.12.17.17 0 01.05-.117.166.166 0 01.283.117zm1.094 0a.17.17 0 01-.103.156.165.165 0 01-.181-.037.17.17 0 01.118-.287c.092 0 .166.075.166.168zm-5.042.481a.17.17 0 01-.05.117.166.166 0 01-.283-.117c0-.093.075-.168.167-.168.092 0 .166.075.166.168zm1.166 0a.17.17 0 01-.05.117.166.166 0 01-.283-.117c0-.093.074-.168.166-.168.092 0 .167.075.167.168zm1.11 0a.17.17 0 01-.05.117.166.166 0 01-.284-.117c0-.093.075-.168.167-.168.092 0 .166.075.166.168zm1.165 0a.17.17 0 01-.102.159.165.165 0 01-.22-.094.17.17 0 01-.011-.065.17.17 0 01.049-.12.166.166 0 01.235.001.17.17 0 01.049.12zm1.094 0a.17.17 0 01-.05.117.166.166 0 01-.283-.117c0-.093.074-.168.166-.168.092 0 .167.075.167.168zm-5.121.537a.17.17 0 01-.103.155.165.165 0 01-.181-.036.169.169 0 01.117-.288c.092 0 .167.076.167.169zm1.094 0a.17.17 0 01-.05.117.166.166 0 01-.283-.117.17.17 0 01.048-.12.166.166 0 01.285.12zm1.165 0a.17.17 0 01-.103.155.165.165 0 01-.181-.036.169.169 0 01.118-.288c.091 0 .166.076.166.169zm1.11 0a.17.17 0 01-.103.155.165.165 0 01-.181-.036.17.17 0 01.117-.288c.092 0 .167.076.167.169zm1.165 0a.17.17 0 01-.103.155.165.165 0 01-.181-.036.169.169 0 01.118-.288c.092 0 .166.076.166.169zm1.094 0a.17.17 0 01-.103.155.165.165 0 01-.181-.036.168.168 0 01-.049-.12.17.17 0 01.102-.158.165.165 0 01.22.093.17.17 0 01.011.066zm-5.042.48a.17.17 0 01-.05.118.166.166 0 01-.283-.117c0-.093.075-.169.167-.169.092 0 .166.076.166.169zm1.166 0a.17.17 0 01-.05.118.166.166 0 01-.283-.117.17.17 0 01.102-.16.165.165 0 01.22.094.17.17 0 01.01.066zm1.11 0a.17.17 0 01-.05.118.166.166 0 01-.284-.117c0-.093.075-.169.167-.169.092 0 .166.076.166.169zm1.165 0a.17.17 0 01-.102.16.165.165 0 01-.22-.094.17.17 0 01-.011-.066.17.17 0 01.049-.119.166.166 0 01.235 0 .17.17 0 01.049.12zm1.094 0a.17.17 0 01-.05.118.166.166 0 01-.283-.117c0-.093.074-.169.166-.169.092 0 .167.076.167.169zm-5.121.538a.17.17 0 01-.103.155.165.165 0 01-.218-.091.17.17 0 01.037-.184.166.166 0 01.235 0 .17.17 0 01.049.12zm1.094 0a.17.17 0 01-.05.117.166.166 0 01-.283-.117c0-.094.074-.169.166-.169.092 0 .167.075.167.169zm1.165 0a.17.17 0 01-.049.119.166.166 0 01-.284-.12.17.17 0 01.05-.119.166.166 0 01.235 0 .17.17 0 01.048.12zm1.11 0a.17.17 0 01-.103.155.165.165 0 01-.218-.091.17.17 0 01.037-.184.166.166 0 01.284.12zm1.165 0a.17.17 0 01-.049.119.166.166 0 01-.284-.12.17.17 0 01.05-.119.166.166 0 01.283.12zm1.094 0a.17.17 0 01-.103.155.165.165 0 01-.181-.036.168.168 0 01-.049-.12.167.167 0 01.23-.155.166.166 0 01.103.156zm-5.042.48a.167.167 0 01-.259.14.168.168 0 01-.07-.172.169.169 0 01.13-.132.165.165 0 01.171.071.17.17 0 01.028.094zm1.166 0a.167.167 0 01-.26.14.168.168 0 01-.07-.172.169.169 0 01.13-.132.165.165 0 01.172.071.17.17 0 01.028.094zm1.11 0a.17.17 0 01-.103.156.165.165 0 01-.218-.09.17.17 0 01.036-.185.166.166 0 01.284.12zm1.165 0a.17.17 0 01-.103.156.165.165 0 01-.181-.036.17.17 0 01.117-.288c.092 0 .167.076.167.169zm1.094 0a.17.17 0 01-.05.12.166.166 0 01-.284-.12.17.17 0 01.05-.119.166.166 0 01.284.12zm-5.121.538a.17.17 0 01-.049.119.166.166 0 01-.284-.12.17.17 0 01.05-.116.166.166 0 01.283.117zm1.094 0a.17.17 0 01-.05.116.166.166 0 01-.283-.116.17.17 0 01.05-.117.166.166 0 01.283.117zm1.165 0a.17.17 0 01-.049.119.166.166 0 01-.284-.12.17.17 0 01.05-.116.166.166 0 01.283.117zm1.11 0a.17.17 0 01-.049.119.166.166 0 01-.284-.12.17.17 0 01.05-.116.166.166 0 01.283.117zm1.165 0a.17.17 0 01-.048.119.166.166 0 01-.285-.12.17.17 0 01.05-.116.166.166 0 01.283.117zm1.094 0a.17.17 0 01-.103.155.165.165 0 01-.181-.037.17.17 0 01.118-.287.165.165 0 01.154.104.17.17 0 01.012.065zm-5.042.48a.17.17 0 01-.05.117.166.166 0 01-.283-.117c0-.093.075-.168.167-.168.092 0 .166.075.166.168zm1.166 0a.17.17 0 01-.05.117.166.166 0 01-.283-.117c0-.093.074-.168.166-.168.092 0 .167.075.167.168zm1.11 0a.166.166 0 01-.284.119.17.17 0 01.117-.287c.092 0 .166.075.166.168zm1.165 0a.17.17 0 01-.05.116.166.166 0 11.037-.18.17.17 0 01.013.064zm1.094 0a.166.166 0 01-.284.119.17.17 0 01.117-.287c.092 0 .167.075.167.168zm-5.121.537a.17.17 0 01-.05.117.166.166 0 01-.283-.117.17.17 0 01.048-.119.166.166 0 01.118-.05c.092 0 .167.076.167.17zm1.094 0a.17.17 0 01-.05.117.166.166 0 01-.283-.117.166.166 0 01.285-.119.17.17 0 01.048.12zm1.165 0a.17.17 0 01-.05.117.166.166 0 01-.283-.117.17.17 0 01.049-.119.166.166 0 01.118-.05c.091 0 .166.076.166.17zm1.11 0a.17.17 0 01-.05.117.166.166 0 01-.283-.117.17.17 0 01.048-.119.166.166 0 01.118-.05c.092 0 .167.076.167.17zm1.165 0a.17.17 0 01-.05.116.166.166 0 11-.116-.284c.092 0 .166.075.166.168zm1.094 0a.167.167 0 01-.166.168.166.166 0 01-.118-.049.17.17 0 01.118-.287.165.165 0 01.154.104.17.17 0 01.012.064z" fill="#fff"/>
    </g>
</svg>
