<svg width="16" height="16" viewBox="0 0 16 16" fill="none" xmlns="http://www.w3.org/2000/svg">
    <path fill-rule="evenodd" clip-rule="evenodd" d="M1.882 2h12.236C15.158 2 16 2.843 16 3.882v7.53c0 1.04-.843 1.882-1.882 1.882H1.882A1.882 1.882 0 010 11.412v-7.53C0 2.842.843 2 1.882 2zm0 .47c-.78 0-1.411.633-1.411 1.412v7.53c0 .78.632 1.411 1.411 1.411h12.236c.78 0 1.411-.632 1.411-1.411v-7.53c0-.78-.632-1.411-1.411-1.411H1.882z" fill="#D8DDE1"/>
    <g>
        <mask id="flag_sk_small_svg__a" maskUnits="userSpaceOnUse" x="0" y="2" width="16" height="11">
            <path d="M14.075 2.5H1.925C1.138 2.5.5 3.145.5 3.94v7.432c0 .796.638 1.44 1.425 1.44h12.15c.787 0 1.425-.644 1.425-1.44V3.94c0-.796-.638-1.441-1.425-1.441z" fill="#fff"/>
        </mask>
        <g mask="url(#flag_sk_small_svg__a)" fill-rule="evenodd" clip-rule="evenodd">
            <path d="M.5 12.813h15V2.5H.5v10.313z" fill="#EE1C25"/>
            <path d="M.5 9.375h15V2.5H.5v6.875z" fill="#0B4EA2"/>
            <path d="M.5 5.938h15V2.5H.5v3.438z" fill="#fff"/>
            <path d="M5.77 10.467c-.896-.446-2.178-1.33-2.178-3.078 0-1.748.081-2.543.081-2.543h4.195s.081.795.081 2.543c0 1.749-1.282 2.632-2.178 3.078" fill="#fff"/>
            <path d="M5.771 10.234c-.822-.408-1.999-1.219-1.999-2.823 0-1.603.075-2.333.075-2.333h3.848s.075.73.075 2.333c0 1.604-1.177 2.415-1.999 2.823z" fill="#EE1C25"/>
            <path d="M5.947 6.99c.222.004.657.013 1.044-.12 0 0-.01.143-.01.309s.01.309.01.309c-.355-.122-.793-.125-1.044-.122v.886h-.352v-.886c-.251-.003-.69 0-1.044.122 0 0 .01-.143.01-.31 0-.165-.01-.308-.01-.308.387.133.821.124 1.044.12v-.556a2.4 2.4 0 00-.826.123s.01-.143.01-.31c0-.166-.01-.308-.01-.308a2.4 2.4 0 00.825.122 5.098 5.098 0 00-.11-.797s.205.017.287.017c.082 0 .286-.017.286-.017s-.1.444-.11.797c.203.002.495-.009.826-.123 0 0-.01.143-.01.31 0 .166.01.309.01.309a2.398 2.398 0 00-.826-.123v.557z" fill="#fff"/>
            <path d="M5.77 8.156c-.413 0-.635.593-.635.593s-.123-.281-.461-.281c-.229 0-.397.21-.504.404.416.682 1.08 1.104 1.6 1.363.522-.26 1.186-.68 1.602-1.363-.107-.194-.275-.404-.504-.404-.338 0-.461.281-.461.281s-.222-.593-.636-.593" fill="#0B4EA2"/>
        </g>
    </g>
</svg>
