<svg width="16" height="16" viewBox="0 0 16 16" fill="none" xmlns="http://www.w3.org/2000/svg">
    <path fill-rule="evenodd" clip-rule="evenodd" d="M1.882 2h12.236C15.158 2 16 2.843 16 3.882v7.53c0 1.04-.843 1.882-1.882 1.882H1.882A1.882 1.882 0 010 11.412v-7.53C0 2.842.843 2 1.882 2zm0 .47c-.78 0-1.411.633-1.411 1.412v7.53c0 .78.632 1.411 1.411 1.411h12.236c.78 0 1.411-.632 1.411-1.411v-7.53c0-.78-.632-1.411-1.411-1.411H1.882z" fill="#D8DDE1"/>
    <g clip-path="url(#flag_br_small_svg__clip0)" fill-rule="evenodd" clip-rule="evenodd">
        <path d="M.5 11.296c0 .838.671 1.517 1.5 1.517h12c.829 0 1.5-.68 1.5-1.517v-7.28c0-.837-.671-1.516-1.5-1.516H2c-.828 0-1.5.679-1.5 1.516v7.28z" fill="#009B3A"/>
        <path d="M14.053 7.682l-6.07 3.935-6.07-3.935 6.07-3.935 6.07 3.935z" fill="#FEDF00"/>
        <path d="M6.774 6.673c1.386 0 2.629.516 3.477 1.332a2.62 2.62 0 01.024-.323c0-1.28-1.026-2.317-2.292-2.317-.937 0-1.74.569-2.097 1.383.288-.047.584-.075.888-.075" fill="#002776"/>
        <path d="M6.62 6.986c-.288 0-.568.024-.841.067a2.332 2.332 0 00-.088.63C5.69 8.962 6.717 10 7.983 10a2.295 2.295 0 002.184-1.613c-.849-.856-2.123-1.401-3.548-1.401" fill="#002776"/>
        <path d="M5.84 6.791c.014-.04.03-.08.046-.119-.017.04-.031.08-.047.12z" fill="#2880B9"/>
    </g>
    <defs>
        <clipPath id="flag_br_small_svg__clip0">
            <path fill="#fff" d="M0 2.5h16v11H0z"/>
        </clipPath>
    </defs>
</svg>
