<svg width="16" height="16" viewBox="0 0 16 16" fill="none" xmlns="http://www.w3.org/2000/svg">
    <path d="M.5 3.9a1.4 1.4 0 011.4-1.4h12.2a1.4 1.4 0 011.4 1.4v7.55a1.4 1.4 0 01-1.4 1.4H1.9a1.4 1.4 0 01-1.4-1.4V3.9z" fill="red"/>
    <path d="M4.25 2.5h7.5v10.35h-7.5V2.5zm3.89 8.458l-.07-1.396a.158.158 0 01.05-.122.147.147 0 01.124-.036l1.342.244-.181-.518a.109.109 0 01.03-.118l1.471-1.232-.331-.16a.104.104 0 01-.05-.053.108.108 0 01-.003-.075l.29-.925-.846.186a.099.099 0 01-.068-.01.104.104 0 01-.046-.051l-.165-.4-.66.735a.099.099 0 01-.12.021A.103.103 0 018.861 7a.108.108 0 01-.009-.066l.319-1.7-.511.305a.1.1 0 01-.142-.044L8 4.441l-.519 1.054a.105.105 0 01-.062.054.098.098 0 01-.08-.01l-.51-.306.318 1.701A.108.108 0 017.138 7a.103.103 0 01-.044.048.099.099 0 01-.12-.021l-.662-.735-.164.4a.104.104 0 01-.046.052.099.099 0 01-.068.01l-.846-.187.29.925a.109.109 0 01-.003.075.104.104 0 01-.05.053l-.331.16 1.47 1.232a.109.109 0 01.031.118l-.18.518 1.341-.244a.144.144 0 01.124.036.154.154 0 01.05.122l-.07 1.396h.28z" fill="#fff"/>
    <path fill-rule="evenodd" clip-rule="evenodd" d="M1.882 2h12.236C15.158 2 16 2.843 16 3.882v7.53c0 1.04-.843 1.882-1.882 1.882H1.882A1.882 1.882 0 010 11.412v-7.53C0 2.842.843 2 1.882 2zm0 .47c-.78 0-1.411.633-1.411 1.412v7.53c0 .78.632 1.411 1.411 1.411h12.236c.78 0 1.411-.632 1.411-1.411v-7.53c0-.78-.632-1.411-1.411-1.411H1.882z" fill="#D8DDE1"/>
</svg>
