<svg width="16" height="16" viewBox="0 0 16 16" fill="none" xmlns="http://www.w3.org/2000/svg">
    <path fill-rule="evenodd" clip-rule="evenodd" d="M1.88 2h12.24C15.16 2 16 2.84 16 3.88v7.53c0 1.04-.84 1.88-1.88 1.88H1.88A1.88 1.88 0 010 11.41V3.88C0 2.84.84 2 1.88 2zm0 .47c-.78 0-1.4.63-1.4 1.41v7.53c0 .78.62 1.41 1.4 1.41h12.24c.78 0 1.4-.63 1.4-1.4V3.87c0-.78-.62-1.4-1.4-1.4H1.88z" fill="#D8DDE1"/>
    <path d="M15.5 9.4H.5v2.05c0 .77.63 1.4 1.4 1.4h12.2c.77 0 1.4-.63 1.4-1.4V9.4z" fill="#171796"/>
    <path d="M15.5 5.95H.5V9.4h15V5.95z" fill="#fff"/>
    <path d="M14.1 2.5H1.9c-.77 0-1.4.63-1.4 1.4v2.05h15V3.9c0-.77-.63-1.4-1.4-1.4z" fill="red"/>
    <path d="M8 10.35c1.1 0 2.01-.9 2.01-2.01v-2.4H6v2.4c0 1.1.9 2.01 2.01 2.01z" fill="red"/>
    <path d="M8 10.32c1.09 0 1.97-.89 1.97-1.97V5.99H6.03v2.36c0 1.08.89 1.97 1.97 1.97z" fill="#fff"/>
    <path d="M6.86 6.06H6.1v.84h.76v-.84zm0 1.67h.76V6.9h-.76v.83zm-.76.61l.01.23h.75v-.84H6.1v.61zm2.28-.61h-.76v.84h.76v-.84zm0 1.67h.76v-.83h-.76v.83zm.76.46c.17-.13.31-.28.43-.46h-.43v.46zM6.86 9.4h.76v-.83h-.76v.83zm-.43 0c.11.18.26.33.43.46V9.4h-.43zm1.7.83c.09 0 .17-.01.25-.03v-.8h-.76v.8a1.87 1.87 0 00.51.03zm1.75-1.66l.02-.23v-.6h-.76v.83h.74zm-1.5-.84h.76V6.9h-.76v.83zm0-1.67h-.76v.84h.76v-.84zm1.52.84v-.84h-.76v.84h.76z" fill="red"/>
    <path d="M9.94 5.92l.47-1.06-.36-.58-.6.22-.41-.48-.55.32-.49-.4-.49.4-.55-.32-.42.48-.6-.22-.35.58.47 1.06a4.7 4.7 0 013.88 0z" fill="#fff"/>
    <path d="M6.56 4.54l-.6-.21-.32.53.12.29.32.72c.24-.1.49-.19.75-.25l-.27-1.08z" fill="#0093DD"/>
    <path fill-rule="evenodd" clip-rule="evenodd" d="M6.53 5.09v.03a.3.3 0 01-.54.16c.03.12.14.21.28.21a.29.29 0 00.26-.4z" fill="#fff"/>
    <path d="M6.26 4.67l-.02.11.08.07-.1.04-.03.1-.08-.06-.1.03.02-.1-.08-.08.1-.04.02-.1.08.07.1-.04z" fill="#F7DB17"/>
    <path d="M7.51 4.38l-.54-.3-.41.46.27 1.08c.25-.07.51-.11.78-.13l-.1-1.1z" fill="#171796"/>
    <path d="M6.76 5.35a5 5 0 01.82-.14l-.02-.28c-.3.03-.59.08-.87.15l.07.27zm-.14-.54c.3-.07.6-.12.92-.15l-.03-.27c-.32.02-.64.08-.95.16l.06.26z" fill="red"/>
    <path d="M8.49 4.38L8 3.99l-.49.4.1 1.1a4.78 4.78 0 01.79 0l.09-1.1z" fill="#0093DD"/>
    <path d="M8 4.88l-.03.04-.01.02c-.01 0-.02 0-.02.02 0-.02-.02-.03-.04-.02l-.02-.02h-.04l.04.06V5l.01.02h-.05c0 .03 0 .05.02.07a1.36 1.36 0 00-.03.01c0 .02.01.03.04.04a.03.03 0 00-.02.03l-.01.02.04.01v.04h.02v.04h.04v.03h.01a.1.1 0 01.03-.02v.01c.01 0 .02 0 .02.02l.03-.03.02.03.01-.04h.05v-.02l-.01-.02h.03l-.01-.04h.05v-.01l-.02-.02-.01-.03a.07.07 0 00.04-.04h-.04a.1.1 0 00.03-.1s0-.01 0 0H8.1h.01l.04-.08h-.01l-.03.01-.02.02c-.01 0-.03 0-.04.02 0-.01 0-.02-.02-.02v-.02L8 4.88zm-.22-.48l-.03.04-.01.02-.02.02c0-.02-.02-.02-.04-.01 0-.01 0-.02-.02-.02l-.02-.01h-.02l.04.06v.01l.01.03h-.03l-.02-.01c0 .03 0 .05.02.08a1.4 1.4 0 00-.04 0c.01.02.02.03.05.04a.03.03 0 00-.02.03l-.01.02c.01.02.03.02.04.01v.05h.02v.03h.04v.04h.01a.1.1 0 01.03-.03v.01l.02.02.03-.02.02.02.01-.04h.05v-.02l-.01-.02h.03l-.01-.04h.05l-.02-.03-.01-.03a.07.07 0 00.04-.04h-.04a.1.1 0 00.03-.08h-.02l-.04.01V4.5h.01l.04-.07s0-.01 0 0H7.9l-.02.03c-.01-.01-.03 0-.04.01 0 0 0-.02-.02-.02v-.02l-.04-.03zm.43 0c0 .02-.02.03-.03.04v.02c-.02 0-.02.01-.02.02-.01-.02-.03-.02-.04-.01l-.02-.02-.03-.01h-.01c0 .02.02.04.04.06v.04h-.03l-.02-.01c0 .03 0 .05.03.08a1.36 1.36 0 00-.04 0c0 .02.02.03.04.04a.03.03 0 00-.02.03v.02s-.01 0 0 0c0 .02.02.02.04.01l-.01.05h.03v.03c-.01 0-.01 0 0 0h.04v.04a.1.1 0 01.04-.03v.01l.01.02.03-.02c.01 0 .02 0 .03.02v-.04h.05v-.04h.03l-.01-.04h.04l-.01-.03c0-.01 0-.02-.02-.03a.07.07 0 00.04-.04h-.04a.1.1 0 00.03-.08h-.02l-.03.01V4.5s.01 0 0 0l.05-.07h-.04l-.02.03c-.02-.01-.03 0-.04.01 0-.01 0-.02-.02-.02v-.02l-.04-.03z" fill="#F7DB17"/>
    <path d="M9.45 4.55l-.42-.48-.54.31-.1 1.1c.27.03.53.07.78.14l.28-1.07z" fill="#171796"/>
    <path d="M8.6 4.61h.05l.02.02.02-.02.04-.02a.16.16 0 01.06-.02h.06c.02 0 .04 0 .05.02l.05.02.04.02a.2.2 0 00.1 0v.02c-.07.04-.12 0-.17-.01.02 0 .03.02.04.03.02.02.04.04.08.05a.18.18 0 00.1.02h.02v.01a.1.1 0 01-.06.02.22.22 0 01-.11-.03l-.08-.05a.16.16 0 00-.06-.03h-.06.01a.1.1 0 00.04.02v.01l-.04.02h-.04v.04l.01.02.02.02.02.03c.01 0 .02 0 .02.02h.07l.04.03h.1l.03.01c.01.02.03.01.04 0h.09l.02.01v.01l-.03.02-.01.01c0 .02 0 .03-.02.03h-.01l-.02.02v.01c.02.02 0 .02-.01.02v.03c.01 0 .02.02 0 .03v.03l-.01.02-.01.01v.03h-.01a.2.2 0 00-.04.03.2.2 0 01-.04.05c0 .01 0 .02-.02.02v.03l-.03.02h-.04v-.02l-.02-.01.03-.01v-.01l.03-.03L9 5.2l.02-.03v-.02H9l-.01-.02h-.02l-.03.02-.01.02c-.02 0-.03.02-.04.03l-.01.02-.01.02h-.01v.02H8.8l-.01-.01v-.01l.01-.01a.11.11 0 01.04-.03l.02-.02s0-.02.02-.03V5.1h-.1v.02l-.02.03a.2.2 0 01-.01.03v.01c0 .02-.01.02-.02.03v.01l-.01.03-.02.01h-.02l-.01-.01h-.01v-.02l.01-.01h.01l.01-.02.02-.04v-.04c.01-.01.02-.03.01-.04v-.02H8.7v.01l-.02.04v.02l-.01.02-.01.01v.03H8.6l-.02-.01c-.02 0-.01-.02 0-.02.02 0 .03-.02.04-.03 0-.02 0-.03.02-.03v-.03l.01-.03V5c-.02 0-.02 0-.01-.02v-.03l-.01-.02c-.02 0-.02 0-.02-.02l.02-.01v-.02l.02-.03v-.03c-.02 0-.02-.01 0-.03-.02 0-.01-.01 0-.03h-.04l-.01-.02c-.02 0-.02-.02-.01-.03l.01-.01c0-.02.02-.03.03-.03v-.02h-.01l-.02-.02V4.6z" fill="#F7DB17"/>
    <path d="M9.05 4.65h.04a.1.1 0 01-.04.01v-.01zm-.03-.01h.03v.02a.12.12 0 01-.03 0v-.02zM8.8 4.58h.05a.11.11 0 01.05.01l.04.02v.01h.03v.02s.01 0 0 0a.17.17 0 00.05 0v.02c-.04 0-.07-.02-.1-.03l-.04-.02h-.03a.13.13 0 00-.04 0v-.02l-.01-.01zm-.06.02l.05-.02.01.01v.01a.1.1 0 00-.03 0h-.02z" fill="red"/>
    <path d="M8.9 4.67a.15.15 0 00-.07-.02v-.04h.01l.04.01c.02 0 .02.01.03.02l.02.01v.02H8.9z" fill="red"/>
    <path d="M8.95 4.7l-.04-.02h.02v-.02a.3.3 0 01.04.03v.01h-.02z" fill="red"/>
    <path d="M9 4.74a.24.24 0 01-.05-.03h.02V4.7a.23.23 0 00.05.02v.01H9z" fill="red"/>
    <path d="M9.04 4.76A.26.26 0 019 4.74h.02v-.02l.03.02v.01zm.1-.01h.01a.09.09 0 01-.1 0l.01-.01a.2.2 0 00.03 0v.01a.2.2 0 00.06 0zm-.2.51v.01H8.9v.02h.01v.01h.04l.02-.01v-.02h-.04zm-.33-.1l-.02.01-.01.01c.01 0 .02 0 0 0l.01.01c.01.01.03.02.05 0v-.01h-.01l-.01-.01zm.22.08c-.01 0 0 0 0 0l.01.01c0 .02-.04.01-.05 0h.01v-.01h-.02.05zm-.16-.01l-.02.02h.01s.01 0 0 0v.01h.05v-.02h-.02v-.01h-.02zm.06-.57h.02a.1.1 0 01.04 0 .12.12 0 01.03-.01l.01-.02c0-.01 0-.02-.02-.02h-.04l.01.01.01.02-.01-.02H8.72h.02v.02c.01 0 .01 0 0 0H8.7l-.01.01h.04zm-.05-.01l.02-.02h.01l.02-.02h.03l-.01-.01h-.02a.13.13 0 00-.03.02.22.22 0 00-.03.02h.01z" fill="red"/>
    <path d="M9.92 5.87l.44-1.01-.32-.53-.6.22-.27 1.07c.26.06.5.15.75.25z" fill="#0093DD"/>
    <path d="M9.35 4.94c.3.07.58.17.85.3l-.17.38a5 5 0 00-.79-.27l.1-.41z" fill="#fff"/>
    <path d="M10.06 5.56l.11-.26a5.36 5.36 0 00-.84-.3l-.07.27c.28.07.54.17.8.28v.01z" fill="red"/>
    <path d="M9.41 5.21h.06v-.02l-.02-.03-.02-.01-.04-.01v-.01h-.01V5.1h.03c.01 0 .02 0 .02-.02h.03l.02.02.03.01-.01.01v.02l.03.01.1.04a.4.4 0 01.09.03h.02c.05 0 .1 0 .14.03l.05.02h.04l.05.02.06.02v.03h-.05l-.03.01a.22.22 0 01-.05-.03L9.9 5.3h-.02l.01.02v.02l.01.02h.03v.01l.01.04c.02.02.02.03 0 .03a.07.07 0 01-.03.02H9.9v-.01c-.02-.01-.01-.02.01-.02V5.4l-.02-.02-.05-.03-.04-.01h-.08l-.02.01h-.03l-.02-.02v-.01h.06l.01-.01-.04-.01c-.02-.02-.04-.02-.06 0H9.6l-.03-.01H9.5l-.01-.01h-.01v-.02h.08l-.01-.02-.04-.01h-.09l-.02-.01-.01-.01V5.2h.03z" fill="#000"/>
    <path d="M9.75 5.31H9.7l-.05-.02.02-.01h.07l.02.02a.08.08 0 01.02.02h-.03z" fill="#fff"/>
    <path d="M9.79 4.54l.02.11-.08.07.1.04.02.1.08-.06.1.03-.01-.1.08-.08-.1-.04-.02-.1-.09.07-.1-.04z" fill="#F7DB17"/>
</svg>
