<svg width="16" height="16" viewBox="0 0 16 16" fill="none" xmlns="http://www.w3.org/2000/svg">
<path fill-rule="evenodd" clip-rule="evenodd" d="M1.88235 2H14.1176C15.1572 2 16 2.84276 16 3.88235V11.4118C16 12.4514 15.1572 13.2941 14.1176 13.2941H1.88235C0.842758 13.2941 0 12.4514 0 11.4118V3.88235C0 2.84276 0.842758 2 1.88235 2ZM1.88235 2.47059C1.10266 2.47059 0.470588 3.10266 0.470588 3.88235V11.4118C0.470588 12.1915 1.10266 12.8235 1.88235 12.8235H14.1176C14.8973 12.8235 15.5294 12.1915 15.5294 11.4118V3.88235C15.5294 3.10266 14.8973 2.47059 14.1176 2.47059H1.88235Z" fill="#D8DDE1"/>
<g>
<path fill-rule="evenodd" clip-rule="evenodd" d="M0.5 11.2964C0.5 12.1337 1.17125 12.8125 2 12.8125H14C14.8285 12.8125 15.5 12.1338 15.5 11.2964V4.01609C15.5 3.17881 14.8288 2.5 14 2.5H2C1.17155 2.5 0.5 3.17865 0.5 4.01609V11.2964Z" fill="white"/>
<path fill-rule="evenodd" clip-rule="evenodd" d="M6.99148 6.62144V2.5H4.97458V6.62144H0.5V8.69106H4.97458V12.8125H6.99148V8.69106H15.5V6.62144H6.99148Z" fill="#003580"/>
</g>
</svg>
