<svg width="24" height="24" viewBox="0 0 24 24" fill="none" xmlns="http://www.w3.org/2000/svg">
    <path fill-rule="evenodd" clip-rule="evenodd" d="M3.75 7.2h16.5c.414 0 .75.373.75.833v3.334c0 .46-.336.833-.75.833h-.75v7.5a1.5 1.5 0 01-1.5 1.5H6a1.5 1.5 0 01-1.5-1.5v-7.5h-.75c-.414 0-.75-.373-.75-.833V8.033c0-.46.336-.833.75-.833zm14.25 5H6v7.5h12v-7.5zM4.5 10.7V8.45h15v2.25h-15z" fill="currentColor"/>
    <path fill-rule="evenodd" clip-rule="evenodd" d="M5.774 8c-1.755-1.842-.35-5 2.461-5C9.74 3 10.99 3.97 12 5.81 13.011 3.97 14.26 3 15.765 3c2.812 0 4.216 3.158 2.461 5a2.449 2.449 0 01-.588.45H6.362A2.449 2.449 0 015.774 8zm1.085-1.139c-.757-.794-.11-2.25 1.376-2.25.988 0 1.905.817 2.73 2.581-2.253.306-3.644.153-4.106-.331zm8.906-2.25c1.486 0 2.133 1.456 1.376 2.25-.462.484-1.853.637-4.105.331.823-1.764 1.741-2.58 2.729-2.58z" fill="currentColor"/>
    <path d="M11 7.2h2v14h-2v-14z" fill="currentColor"/>
</svg>
