<svg width="44" height="24" viewBox="0 0 44 24" fill="none" xmlns="http://www.w3.org/2000/svg">
    <path d="M20.917 13.26v4.656H19.44V6.418h3.918a3.543 3.543 0 012.536.995 3.2 3.2 0 011.06 2.427 3.186 3.186 0 01-1.06 2.44c-.685.654-1.53.98-2.536.98h-2.44zm0-5.427v4.014h2.477a1.953 1.953 0 001.462-.594 1.959 1.959 0 000-2.81 1.926 1.926 0 00-1.462-.61h-2.477zM30.358 9.792c1.091 0 1.953.292 2.585.875.632.584.948 1.384.947 2.4v4.85h-1.413v-1.093h-.064c-.612.9-1.425 1.349-2.44 1.349-.867 0-1.592-.257-2.176-.77a2.462 2.462 0 01-.875-1.927c0-.814.308-1.462.923-1.943.615-.48 1.437-.721 2.464-.722.877 0 1.6.16 2.167.481v-.337a1.681 1.681 0 00-.61-1.308c-.39-.352-.9-.544-1.426-.538-.825 0-1.478.348-1.958 1.044l-1.301-.82c.715-1.027 1.774-1.54 3.177-1.54zm-1.911 5.716a1.179 1.179 0 00.49.963c.326.257.732.393 1.147.386a2.356 2.356 0 001.662-.69c.49-.461.734-1.001.734-1.622-.46-.367-1.103-.55-1.927-.55-.6 0-1.1.145-1.5.434-.405.293-.606.65-.606 1.079zM42 10.05l-4.932 11.334h-1.525l1.83-3.966-3.243-7.369h1.606l2.344 5.652h.032l2.28-5.652H42z" fill="#5F6368"/>
    <path d="M14.948 12.257c.001-.45-.037-.9-.113-1.344h-6.23v2.544h3.568a3.058 3.058 0 01-1.32 2.008v1.651h2.13c1.247-1.15 1.965-2.85 1.965-4.86z" fill="#4285F4"/>
    <path d="M8.605 18.712c1.783 0 3.284-.586 4.378-1.595l-2.13-1.651c-.592.402-1.355.63-2.248.63-1.723 0-3.185-1.16-3.708-2.726H2.703v1.702a6.605 6.605 0 005.902 3.64z" fill="#34A853"/>
    <path d="M4.897 13.37a3.958 3.958 0 010-2.528V9.14H2.703a6.606 6.606 0 000 5.932l2.194-1.702z" fill="#FBBC04"/>
    <path d="M8.605 8.115a3.586 3.586 0 012.534.991l1.886-1.885a6.347 6.347 0 00-4.42-1.72A6.606 6.606 0 002.703 9.14l2.194 1.702c.523-1.565 1.985-2.727 3.708-2.727z" fill="#EA4335"/>
</svg>
