<svg width="16" height="16" viewBox="0 0 16 16" fill="none" xmlns="http://www.w3.org/2000/svg">
    <path fill-rule="evenodd" clip-rule="evenodd" d="M6.2 10.475a4 4 0 005.658 0l2.828-2.828a4 4 0 000-5.657l-.707-.707a4 4 0 00-5.657 0l-.353.353A1 1 0 009.383 3.05l.353-.353a2 2 0 012.829 0l.707.707a2 2 0 010 2.828l-2.829 2.829a2 2 0 01-2.828 0l-.353-.354a1 1 0 10-1.415 1.414l.354.354zm3.537-4.95a4 4 0 00-5.657 0L1.25 8.353a4 4 0 000 5.657l.707.707a4 4 0 005.657 0l.354-.353a1 1 0 10-1.414-1.414l-.354.353a2 2 0 01-2.828 0l-.707-.707a2 2 0 010-2.828l2.828-2.829a2 2 0 012.828 0l.354.354a1 1 0 001.414-1.414l-.353-.354z" fill="currentColor"/>
</svg>
