<svg width="24" height="24" viewBox="0 0 24 24" fill="none" xmlns="http://www.w3.org/2000/svg">
    <path fill-rule="evenodd" clip-rule="evenodd" d="M5 12c0-3.192 3.004-6 7-6s7 2.808 7 6c0 3.193-3.004 6-7 6a8.329 8.329 0 01-2.876-.527 4.763 4.763 0 01-.162-.066l-.035-.015-.005-.002-.32-.15-.346.087-2.217.558.371-1.668.116-.522-.365-.382-.002-.002a3.029 3.029 0 01-.148-.184 4.812 4.812 0 01-.407-.652A5.338 5.338 0 015 12zm7-8c-4.841 0-9 3.46-9 8 0 1.445.415 2.603.83 3.4.185.354.371.64.524.85l-.62 2.784-.352 1.584 1.573-.397 3.47-.875A10.324 10.324 0 0012 20c4.841 0 9-3.46 9-8s-4.159-8-9-8zm-4 9a1 1 0 100-2 1 1 0 000 2zm5-1a1 1 0 11-2 0 1 1 0 012 0zm3 1a1 1 0 100-2 1 1 0 000 2z" fill="currentColor"/>
</svg>
