<svg width="16" height="16" viewBox="0 0 16 16" fill="none" xmlns="http://www.w3.org/2000/svg">
    <path fill-rule="evenodd" clip-rule="evenodd" d="M8 0a5.9 5.9 0 00-4.257 1.833A6.32 6.32 0 002 6.21c0 2.46 1.426 4.882 2.7 6.582a24.123 24.123 0 002.559 2.886l.048.044.013.012.004.004.001.001c.001 0 .001.001.675-.738l-.674.739a1 1 0 001.373-.024L8 15l.7.715v-.002l.005-.003.013-.013.046-.047.17-.172a27.737 27.737 0 002.374-2.818c.648-.887 1.312-1.922 1.817-3.007.502-1.078.875-2.266.875-3.444a6.32 6.32 0 00-1.743-4.376A5.9 5.9 0 008 0zm.04 13.505l-.06.066-.036-.038a22.118 22.118 0 01-1.644-1.94C5.074 9.954 4 7.981 4 6.208c0-1.13.431-2.204 1.186-2.99A3.9 3.9 0 018 2a3.9 3.9 0 012.814 1.218A4.32 4.32 0 0112 6.208c0 .776-.252 1.664-.688 2.6-.432.93-1.018 1.849-1.62 2.671-.599.82-1.2 1.526-1.653 2.027zM8 4a2 2 0 100 4 2 2 0 000-4z" fill="currentColor"/>
</svg>
