<svg width="24" height="24" viewBox="0 0 24 24" fill="none" xmlns="http://www.w3.org/2000/svg">
    <path d="M8.051 19.6v-1.02a.6.6 0 00-.175-.465.614.614 0 00-.469-.178.638.638 0 00-.577.289.604.604 0 00-.543-.29.545.545 0 00-.48.242v-.2H5.45V19.6h.36V18.7a.376.376 0 01.098-.31.385.385 0 01.304-.12c.237 0 .357.151.357.427v.902h.36V18.7a.38.38 0 01.1-.308.389.389 0 01.303-.123c.244 0 .36.152.36.428v.902h.359zm2.009-.81v-.81h-.361v.197a.624.624 0 00-.515-.238.853.853 0 00-.833.849c0 .459.369.835.833.849.2.007.392-.081.515-.238v.197h.357l.004-.806zm-1.328 0a.494.494 0 01.514-.462c.27.01.482.231.478.498a.494.494 0 01-.493.483.494.494 0 01-.367-.15.483.483 0 01-.135-.37h.003zm8.957-.85c.117 0 .234.023.343.065.21.082.378.244.465.45.09.218.09.461 0 .679a.825.825 0 01-.465.45.981.981 0 01-.703 0 .834.834 0 01-.462-.45.892.892 0 010-.68.834.834 0 01.46-.449.934.934 0 01.358-.07l.004.006zm0 .34a.536.536 0 00-.204.037.479.479 0 00-.272.277.582.582 0 000 .421.478.478 0 00.272.277.563.563 0 00.578-.107.492.492 0 00.109-.17.583.583 0 000-.421.494.494 0 00-.11-.17.49.49 0 00-.17-.107.537.537 0 00-.206-.047l.003.01zm-5.69.51c0-.51-.32-.85-.777-.85a.86.86 0 00-.738.436.84.84 0 00.013.849.86.86 0 00.75.414c.243.007.483-.074.67-.228l-.17-.262a.787.787 0 01-.479.17.454.454 0 01-.49-.398h1.217c.005-.042.005-.084.005-.132zm-1.22-.143a.42.42 0 01.431-.392.405.405 0 01.416.393l-.847-.001zm2.723-.255a1.066 1.066 0 00-.515-.14c-.196 0-.312.073-.312.192 0 .118.123.138.277.159l.172.023c.357.052.573.201.573.486s-.274.53-.746.53a1.193 1.193 0 01-.71-.21l.172-.276c.158.116.35.176.546.17.244 0 .375-.071.375-.197 0-.091-.093-.142-.289-.17l-.171-.024c-.368-.05-.567-.213-.567-.478 0-.323.268-.52.687-.52a1.24 1.24 0 01.667.17l-.16.285zm1.717-.092h-.583v.732c0 .17.06.273.238.273a.665.665 0 00.315-.093l.104.302a.84.84 0 01-.447.126c-.422 0-.57-.224-.57-.6V18.3h-.333v-.322h.333v-.493h.36v.493h.583v.322zm1.234-.363c.086 0 .173.015.254.044l-.11.34a.585.585 0 00-.223-.04c-.233 0-.343.149-.343.417v.908h-.358v-1.621h.354v.197a.485.485 0 01.433-.238l-.008-.007h.001zm2.468 1.426c.045 0 .087.016.12.046a.157.157 0 01-.054.261.162.162 0 01-.066.014.17.17 0 01-.154-.098.158.158 0 01.036-.177.172.172 0 01.11-.046h.008zm0 .288a.123.123 0 00.09-.037.124.124 0 00.029-.138.13.13 0 00-.209-.04.124.124 0 000 .17.127.127 0 00.09.038v.007zm.01-.203c.017 0 .033.004.046.014.01.009.016.022.014.035a.038.038 0 01-.01.031.06.06 0 01-.037.015l.05.057h-.04l-.046-.057h-.016v.057h-.032v-.157l.072.005zm-.036.03v.04h.037a.037.037 0 00.02 0 .017.017 0 000-.015.017.017 0 000-.016.037.037 0 00-.02 0l-.037-.01z" fill="#000"/>
    <path d="M9.296 5.61h5.408v9.608H9.296V5.61z" fill="#7673C0"/>
    <path d="M9.64 10.414A6.078 6.078 0 0112 5.607c-2.534-1.97-6.173-1.683-8.36.659a6.064 6.064 0 000 8.294c2.187 2.342 5.826 2.629 8.36.659a6.078 6.078 0 01-2.36-4.805z" fill="#EB001B"/>
    <path d="M21.999 10.414a6.107 6.107 0 01-3.48 5.495A6.237 6.237 0 0112 15.22a6.089 6.089 0 002.361-4.806c0-1.876-.87-3.647-2.361-4.806a6.237 6.237 0 016.52-.692A6.107 6.107 0 0122 10.412l-.001.002z" fill="#00A1DF"/>
</svg>
