<svg width="24" height="24" viewBox="0 0 24 24" fill="none" xmlns="http://www.w3.org/2000/svg">
    <path d="M8.316 18.843c3.488 0 6.315-2.875 6.315-6.421C14.631 8.875 11.804 6 8.316 6 4.828 6 2 8.875 2 12.422c0 3.546 2.828 6.421 6.316 6.421z" fill="#FF2F05"/>
    <path d="M15.684 18.95c3.488 0 6.316-2.875 6.316-6.421 0-3.547-2.828-6.422-6.316-6.422s-6.316 2.875-6.316 6.422c0 3.546 2.828 6.421 6.316 6.421z" fill="#FFBC37"/>
    <path fill-rule="evenodd" clip-rule="evenodd" d="M12.092 7.247a6.447 6.447 0 012.54 5.147 6.445 6.445 0 01-2.724 5.283 6.448 6.448 0 01-2.54-5.148 6.445 6.445 0 012.724-5.282z" fill="#FF8729"/>
</svg>
