<svg width="24" height="24" viewBox="0 0 24 24" fill="none" xmlns="http://www.w3.org/2000/svg">
    <path d="M21.59 19.545v.04h.038a.04.04 0 00.02-.005.018.018 0 00.008-.015.017.017 0 00-.007-.015.036.036 0 00-.02-.005h-.038zm.039-.029c.019 0 .034.005.044.014.011.008.016.02.016.035a.04.04 0 01-.012.03.06.06 0 01-.036.016l.05.057h-.04l-.045-.057h-.015v.057h-.032v-.151h.07zm-.01.204a.13.13 0 00.116-.078.13.13 0 000-.099.13.13 0 00-.067-.067.133.133 0 00-.099 0 .122.122 0 00-.068.068.123.123 0 00-.01.049c0 .017.004.034.01.05a.118.118 0 00.027.04.128.128 0 00.09.037zm0-.29a.164.164 0 01.117.048.16.16 0 01.036.178.168.168 0 01-.088.087.167.167 0 01-.219-.087.155.155 0 01-.013-.063.158.158 0 01.048-.115.167.167 0 01.119-.048zm-15.315-.583c0-.289.189-.526.498-.526.295 0 .494.227.494.526 0 .299-.199.525-.494.525-.309 0-.498-.237-.498-.525zm1.329 0v-.82h-.357v.199a.622.622 0 00-.518-.24c-.46 0-.822.36-.822.86 0 .502.361.863.822.863a.622.622 0 00.518-.24v.198h.357v-.82zm12.061 0c0-.289.19-.526.498-.526.296 0 .495.227.495.526 0 .299-.2.525-.495.525-.309 0-.498-.237-.498-.525zm1.33 0v-1.48h-.358v.859a.622.622 0 00-.518-.24c-.46 0-.821.36-.821.86 0 .502.36.863.82.863a.622.622 0 00.52-.24v.198h.357v-.82zm-8.96-.542c.23 0 .377.144.415.398h-.852c.038-.237.182-.398.436-.398zm.006-.32c-.48 0-.817.35-.817.862 0 .522.35.862.841.862a.998.998 0 00.673-.23l-.175-.265a.785.785 0 01-.477.172c-.23 0-.44-.106-.491-.402h1.219c.003-.044.007-.09.007-.137-.004-.512-.32-.862-.78-.862zm4.31.862c0-.289.19-.526.498-.526.295 0 .495.227.495.526 0 .299-.2.525-.495.525-.309 0-.498-.237-.498-.525zm1.33 0v-.82h-.358v.199a.623.623 0 00-.518-.24c-.46 0-.821.36-.821.86 0 .502.36.863.82.863a.623.623 0 00.52-.24v.198h.356v-.82zm-3.346 0c0 .498.347.862.876.862a.86.86 0 00.59-.196l-.17-.289a.722.722 0 01-.43.148c-.285-.003-.495-.21-.495-.525 0-.316.21-.522.495-.526.154 0 .295.052.43.148l.17-.288a.86.86 0 00-.59-.196c-.529 0-.876.364-.876.862zm4.602-.862a.485.485 0 00-.433.24v-.199h-.353v1.641h.357v-.92c0-.271.117-.422.35-.422.073 0 .148.01.223.041l.11-.336a.761.761 0 00-.254-.045zm-9.568.172c-.171-.113-.408-.172-.67-.172-.415 0-.683.2-.683.526 0 .267.2.432.567.484l.168.024c.196.027.288.079.288.171 0 .127-.13.2-.374.2a.875.875 0 01-.546-.172l-.168.278c.196.144.443.213.71.213.475 0 .75-.224.75-.536 0-.288-.217-.44-.574-.49l-.168-.025c-.155-.02-.278-.051-.278-.161 0-.12.116-.192.312-.192.21 0 .412.079.512.14l.154-.288zm4.606-.172a.483.483 0 00-.433.24v-.199h-.354v1.641h.357v-.92c0-.271.117-.422.35-.422a.58.58 0 01.224.041l.11-.336a.761.761 0 00-.254-.045zm-3.046.041h-.584v-.497h-.36v.497H9.68v.327h.333v.748c0 .38.148.608.57.608a.838.838 0 00.447-.127l-.103-.306a.661.661 0 01-.316.093c-.179 0-.237-.11-.237-.275v-.741h.584v-.327zM5.62 19.667v-1.03c0-.387-.247-.648-.646-.652a.636.636 0 00-.577.292.603.603 0 00-.543-.292.543.543 0 00-.48.244v-.203h-.358v1.641h.36v-.91c0-.284.159-.436.403-.436.237 0 .357.155.357.433v.913h.36v-.91c0-.284.165-.436.402-.436.244 0 .36.155.36.433v.913h.362z" fill="#231F20"/>
    <path d="M21.811 14.21v-.24h-.062l-.073.165-.072-.165h-.062v.24h.044v-.18l.068.155h.046l.067-.156v.181h.044zm-.396 0v-.199h.08v-.04h-.204v.04h.08v.199h.044z" fill="#F79410"/>
    <path d="M14.704 15.241H9.295V5.522h5.41v9.72z" fill="#FF5F00"/>
    <path d="M9.642 10.38a6.17 6.17 0 012.36-4.858 6.181 6.181 0 100 9.719 6.17 6.17 0 01-2.36-4.86z" fill="#EB001B"/>
    <path d="M22 10.38a6.181 6.181 0 01-10.003 4.86 6.17 6.17 0 002.361-4.86 6.169 6.169 0 00-2.361-4.858A6.181 6.181 0 0122 10.382z" fill="#F79E1B"/>
</svg>
