<svg width="24" height="24" viewBox="0 0 24 24" fill="none" xmlns="http://www.w3.org/2000/svg">
    <path d="M8 11h8M8 8h8" stroke="currentColor" stroke-width="2" stroke-linecap="round" stroke-linejoin="round"/>
    <path d="M5 3V2a1 1 0 00-1 1h1zm0 18H4a1 1 0 001.518.856L5 21zm3.5-2.118l.518-.855a1 1 0 00-1.036 0l.518.855zM12 21l-.518.856a1 1 0 001.036 0L12 21zm3.5-2.118l.518-.855a1 1 0 00-1.036 0l.518.855zM19 21l-.518.856A1 1 0 0020 21h-1zm0-18h1a1 1 0 00-1-1v1zM4 3v18h2V3H4zm1.518 18.856l3.5-2.118-1.036-1.711-3.5 2.117 1.036 1.712zm2.464-2.118l3.5 2.118 1.036-1.712-3.5-2.117-1.036 1.71zm4.536 2.118l3.5-2.118-1.036-1.711-3.5 2.117 1.036 1.712zm2.464-2.118l3.5 2.118 1.036-1.712-3.5-2.117-1.036 1.71zM20 21V3h-2v18h2zM19 2H5v2h14V2z" fill="currentColor"/>
</svg>
