<svg width="48" height="24" viewBox="0 0 48 24" fill="none" xmlns="http://www.w3.org/2000/svg">
    <path fill-rule="evenodd" clip-rule="evenodd" d="M2 8h21.213l-2.47 8.875H2V8z" fill="#BE0811"/>
    <path fill-rule="evenodd" clip-rule="evenodd" d="M46 8l-2.51 8.875H20.741L23.213 8H46z" fill="#001D7E"/>
    <path d="M26.4 12.21c.047-.293.063-.54.055-.746a1.474 1.474 0 00-.103-.508.8.8 0 00-.509-.485 1.167 1.167 0 00-.333-.048c-.215 0-.43.048-.628.135-.207.088-.397.23-.572.421a3.1 3.1 0 00-.5.731 5.74 5.74 0 00-.398 1.073c-.111.421-.183.779-.198 1.088-.016.302.015.557.087.755a.823.823 0 00.334.437.96.96 0 00.54.143c.183 0 .365-.024.54-.08.175-.055.342-.158.509-.301.166-.143.317-.342.476-.596.151-.254.294-.58.43-.977h-.755c-.064.19-.143.35-.23.484-.096.135-.192.239-.295.318a.575.575 0 01-.326.111c-.15 0-.27-.055-.341-.158-.08-.104-.12-.263-.12-.47 0-.206.04-.452.12-.738.08-.294.175-.532.286-.74.111-.198.23-.357.365-.46a.7.7 0 01.43-.159c.103 0 .182.024.254.072.063.047.11.127.143.246.023.111.031.27.008.46.23-.007.476-.007.73-.007zm.095.58a4.789 4.789 0 00-.175 1.09c-.008.301.024.555.103.754a.86.86 0 00.358.437c.159.095.35.143.572.143.222 0 .437-.048.643-.143.207-.095.398-.238.58-.437.183-.199.342-.445.493-.755.143-.302.27-.667.381-1.088.104-.421.16-.779.16-1.073.007-.302-.032-.548-.112-.739a.821.821 0 00-.358-.42 1.118 1.118 0 00-.564-.136c-.214 0-.429.048-.627.135-.199.088-.39.23-.572.421a2.99 2.99 0 00-.493.74 4.92 4.92 0 00-.39 1.072zm.755 0c.071-.293.166-.531.278-.738a1.6 1.6 0 01.357-.46.7.7 0 01.43-.16c.15 0 .261.056.34.16.08.102.12.253.128.46.008.199-.032.445-.103.739-.072.294-.167.54-.27.739-.112.206-.23.357-.366.469a.7.7 0 01-.429.158.42.42 0 01-.35-.159c-.079-.103-.119-.262-.127-.468 0-.199.032-.445.112-.74zm5.521 2.241h.74c.118-.508.23-1.017.349-1.525.12-.5.23-1.01.35-1.502.063-.286.095-.532.095-.73a1.07 1.07 0 00-.087-.47.543.543 0 00-.223-.254.6.6 0 00-.31-.08.938.938 0 00-.58.215 2.154 2.154 0 00-.524.612c0-.167-.016-.31-.048-.437a.543.543 0 00-.183-.286.508.508 0 00-.333-.103.904.904 0 00-.318.063 1.646 1.646 0 00-.564.414c-.08.087-.143.182-.207.27h-.008c.056-.215.103-.421.16-.636h-.7l-.548 2.2c-.183.74-.366 1.495-.556 2.242h.739c.103-.406.198-.81.293-1.216.096-.405.2-.803.294-1.208.04-.175.096-.326.151-.453a1.46 1.46 0 01.199-.318.814.814 0 01.222-.19c.08-.04.151-.064.23-.064.056 0 .104.008.144.032.048.024.08.064.111.12a.473.473 0 01.048.23c0 .095-.016.222-.048.365-.103.445-.214.89-.318 1.335-.11.445-.214.898-.325 1.35h.739l.286-1.215.286-1.208c.04-.175.095-.325.15-.453.056-.127.128-.238.191-.317a.815.815 0 01.223-.191.474.474 0 01.222-.064c.056 0 .103.008.151.032a.234.234 0 01.111.12.474.474 0 01.048.23c0 .095-.008.222-.048.365l-.31 1.335c-.087.493-.19.938-.294 1.39zm2.456-2.216c.047-.215.11-.397.182-.556.072-.16.151-.294.239-.398.087-.103.174-.182.27-.238a.531.531 0 01.278-.08c.095 0 .175.024.246.08a.538.538 0 01.167.238c.04.104.063.239.063.398 0 .159-.023.341-.063.556a2.861 2.861 0 01-.175.556c-.071.159-.15.294-.238.405a.964.964 0 01-.27.246.558.558 0 01-.286.08.382.382 0 01-.247-.08.521.521 0 01-.166-.246 1.219 1.219 0 01-.056-.405 1.802 1.802 0 01.056-.556zm-1.597 3.909h.746c.08-.366.167-.74.247-1.105.08-.365.166-.73.246-1.096h.008a.865.865 0 00.12.357.624.624 0 00.237.239c.104.055.223.08.358.087.175 0 .358-.063.532-.175.175-.119.342-.278.5-.492a3.84 3.84 0 00.43-.763c.127-.294.23-.62.31-.985.087-.39.127-.731.119-1.017 0-.294-.04-.532-.12-.723a1 1 0 00-.31-.43.798.798 0 00-.468-.142.81.81 0 00-.302.056c-.103.04-.206.11-.318.214-.11.103-.23.246-.365.445h-.008c.048-.199.087-.397.135-.596h-.7c-.23 1.001-.46 2.01-.69 3.027-.239 1.025-.47 2.058-.708 3.099zm3.646-1.693h.74c.07-.325.134-.651.206-.969.071-.326.135-.643.206-.961.064-.286.143-.533.239-.74.095-.198.206-.357.341-.46a.693.693 0 01.445-.159c.064 0 .135.016.191.04.064.024.12.056.183.095.095-.453.183-.906.278-1.35a.598.598 0 00-.127-.032c-.048-.008-.088-.008-.128-.008a.682.682 0 00-.285.055c-.088.04-.175.096-.263.175a2.66 2.66 0 00-.254.302c-.087.12-.183.27-.286.437h-.008c.064-.286.12-.572.183-.858h-.7l-.476 2.2c-.159.74-.326 1.487-.485 2.233zm4.442-1.819a1.87 1.87 0 01-.128.405c-.055.12-.119.223-.182.31a1.47 1.47 0 01-.223.223 1.21 1.21 0 01-.238.135.614.614 0 01-.23.04.363.363 0 01-.23-.072.356.356 0 01-.12-.215 1.004 1.004 0 01.008-.341.925.925 0 01.111-.318.534.534 0 01.167-.183.659.659 0 01.23-.08l.437-.07c.072-.009.151-.033.23-.056a.727.727 0 00.24-.136c-.017.12-.048.239-.072.358zm-.914-1.28c.056-.15.111-.27.159-.357a.868.868 0 01.159-.198.387.387 0 01.175-.08c.063-.016.135-.016.206-.016.143 0 .246.016.326.056.071.04.127.095.143.175a.608.608 0 010 .294c-.024.119-.048.206-.08.27a.289.289 0 01-.119.135.544.544 0 01-.19.056c-.263.04-.533.071-.795.103a1.286 1.286 0 00-.556.199 1.423 1.423 0 00-.262.238c-.08.103-.151.23-.223.381a2.727 2.727 0 00-.167.556 2.672 2.672 0 00-.063.668c.008.182.047.333.111.453.064.119.151.206.262.254.111.055.239.08.39.08.087 0 .174-.009.278-.033.103-.023.206-.055.31-.103.103-.048.206-.119.31-.198.103-.088.198-.191.285-.318-.008.08-.023.159-.031.238-.008.08-.008.159-.016.239h.739c-.008-.112 0-.247.015-.39.016-.15.04-.326.08-.516l.215-1.113.214-1.096a3.66 3.66 0 00.064-.469c.008-.15 0-.286-.032-.413a.798.798 0 00-.16-.318.862.862 0 00-.317-.214 1.57 1.57 0 00-.516-.08c-.12 0-.239.008-.358.024a1.166 1.166 0 00-.357.111 1.23 1.23 0 00-.342.255 1.75 1.75 0 00-.302.437 3.283 3.283 0 00-.246.675c.222.016.453.016.691.016zm-29.802-1.779h1.247c.064 0 .12.008.175.032a.32.32 0 01.135.12.578.578 0 01.056.23c0 .095-.024.222-.064.373a1.51 1.51 0 01-.15.357c-.056.096-.12.175-.184.239a.702.702 0 01-.19.135.5.5 0 01-.175.04h-1.295c.127-.509.286-1.017.445-1.526zm-1.192.675H2v.731h7.588l-.128.406H2v.739h7.23l-.127.405H2v.73h6.88l-.15.485H2v.731h7.5l.731-2.232h1.176c.08 0 .143.015.199.047a.235.235 0 01.11.167c.025.08.025.183.009.326a3.29 3.29 0 01-.12.524c-.047.16-.087.294-.127.413-.031.12-.063.223-.079.302-.024.088-.04.167-.048.239-.008.071-.016.143-.016.214h1.073c-.016-.08-.024-.175-.016-.294s.032-.238.056-.373c.024-.127.055-.254.087-.374.032-.11.056-.206.08-.286.04-.119.071-.246.11-.389.033-.135.065-.27.088-.405.024-.135.032-.262.032-.381a.774.774 0 00-.056-.294.244.244 0 00-.166-.151c0-.008 0-.008.008-.016.238-.127.444-.302.611-.549.167-.238.31-.548.421-.913.04-.127.072-.262.096-.405.024-.151.04-.294.032-.437 0-.143-.032-.278-.08-.398a.614.614 0 00-.246-.286c-.111-.071-.27-.11-.469-.11h-2.614l-.572 1.834zm5.768 2.869a1.423 1.423 0 01-.42.445.88.88 0 01-.501.15.55.55 0 01-.358-.11.625.625 0 01-.19-.279.885.885 0 01-.048-.357 1.68 1.68 0 01.055-.358c0-.008 0-.008.008-.016h2.614c.016-.047.024-.087.04-.135.175-.572.254-1.057.254-1.462-.008-.405-.103-.707-.294-.921-.19-.215-.485-.318-.874-.318-.27 0-.524.047-.77.143a2.279 2.279 0 00-.7.437 3.348 3.348 0 00-.595.763c-.183.31-.334.675-.47 1.104-.126.429-.198.794-.206 1.104-.008.31.032.564.135.763.096.199.239.35.43.437.19.095.42.143.69.143.27 0 .54-.056.795-.159.254-.103.5-.27.723-.5.23-.23.445-.517.636-.882-.318.008-.636.008-.954.008zm-1.184-1.399c0-.008 0-.008.008-.016.008-.023.032-.071.064-.143.04-.08.087-.159.15-.254a1.53 1.53 0 01.24-.278 1.3 1.3 0 01.317-.23.808.808 0 01.39-.096c.126 0 .23.024.31.08a.49.49 0 01.174.206.81.81 0 01.072.262 1.45 1.45 0 010 .263.626.626 0 01-.04.198c0 .008 0 .008-.008.016-.556-.008-1.113-.008-1.677-.008zm3.703.509a2.69 2.69 0 01.238-.572c.095-.167.199-.302.31-.413.111-.112.223-.191.342-.247a.812.812 0 01.35-.087c.11 0 .206.024.293.087.08.056.143.135.19.247.049.11.064.246.064.413-.008.167-.04.357-.103.572a2.688 2.688 0 01-.238.572 1.933 1.933 0 01-.31.413c-.111.111-.223.19-.342.246a.807.807 0 01-.341.088.514.514 0 01-.294-.088.465.465 0 01-.191-.246.933.933 0 01-.056-.413 1.763 1.763 0 01.088-.572zm1 2.256h.867c.31-1.033.612-2.058.922-3.083.302-1.024.611-2.05.913-3.066h-.89c-.11.357-.214.723-.325 1.08-.112.358-.215.723-.326 1.08h-.008a.773.773 0 00-.127-.357.678.678 0 00-.278-.238 1.007 1.007 0 00-.43-.087 1.31 1.31 0 00-.643.174 2.343 2.343 0 00-.627.493 3.904 3.904 0 00-.549.77c-.167.302-.31.636-.42 1.002-.12.397-.184.746-.2 1.048-.015.302.016.549.096.747.08.199.19.35.341.453.151.103.334.151.549.151.135 0 .27-.016.413-.064.143-.04.286-.119.429-.23.143-.111.294-.262.453-.453h.008a55.6 55.6 0 01-.167.58z" fill="#fff"/>
</svg>
