<svg width="44" height="24" viewBox="0 0 44 24" fill="none" xmlns="http://www.w3.org/2000/svg">
    <path d="M13.927 13.148h2.266c1.371 0 2.385 1.281 2.385 2.777 0 1.566-1.014 2.777-2.385 2.777h-1.014v2.278h-1.252v-7.832zm1.252 1.353v2.92h.954c.716 0 1.253-.642 1.253-1.425s-.477-1.424-1.253-1.424h-.954V14.5zM18.877 17.847c0-2.065 1.252-3.275 2.624-3.275.715 0 1.312.356 1.67.854v-.783h1.192v6.266h-1.192v-.712c-.418.57-1.014.926-1.73.926-1.193 0-2.564-1.21-2.564-3.276zm4.413 0c0-1.068-.656-1.922-1.55-1.922-.895 0-1.611.854-1.611 1.922 0 1.069.716 1.994 1.61 1.994.835 0 1.55-.925 1.55-1.994zM27.107 20.696l-2.147-5.982h1.312l1.49 4.273 1.373-4.273h1.252l-3.16 9.186h-1.253l1.133-3.204zM2.118 2.965v-.356c.06-.214.179-.498.537-.498.358 0 .596.284.596.64v.428h1.55V2.75C4.802 1.185 3.61.9 2.715.9 1.641.9.746 1.327.567 2.538c-.06.285-.06.57 0 .925.239 1.496 2.446 1.923 2.744 2.92a.93.93 0 010 .57c-.06.213-.18.498-.597.498-.358 0-.596-.285-.596-.64v-.713H.448v.57c0 1.638 1.074 2.136 2.266 2.136 1.133 0 2.028-.427 2.147-1.709.06-.64 0-1.068 0-1.21-.238-1.567-2.564-2.065-2.743-2.92zm19.98.071V2.68c.059-.285.178-.57.596-.57.357 0 .536.285.536.641v.428h1.491V2.75C24.721 1.185 23.53.9 22.694.9c-1.074 0-1.969.427-2.147 1.638-.06.356-.06.64 0 .997.238 1.495 2.445 1.922 2.743 2.848.06.142.06.427 0 .57-.06.213-.179.498-.596.498-.358 0-.597-.285-.597-.64v-.713h-1.61v.57c0 1.638 1.073 2.136 2.207 2.136 1.073 0 2.027-.427 2.146-1.638.06-.64 0-1.068 0-1.21-.238-1.638-2.564-2.065-2.743-2.92zm14.014 3.988l-1.49-5.91h-2.267v7.263h1.491l-.06-6.124 1.551 6.124h2.207V1.114h-1.491l.06 5.91zM7.068 1.114L5.935 8.448h1.67l.835-6.836.835 6.836h1.67L9.81 1.114H7.068zm9.304 0l-.776 5.767-.775-5.767h-2.505l-.119 7.334h1.55V1.612l1.074 6.836h1.55l1.074-6.836.06 6.836h1.55l-.178-7.334h-2.505zm14.313 0h-1.55V6.81c-.06.214-.18.499-.597.499s-.537-.356-.596-.499V1.114h-1.55V6.88c.118 1.353 1.013 1.852 2.146 1.852s2.028-.427 2.147-1.852V1.113zm10.676 3.204v1.068h.656V6.74c0 .214-.18.57-.656.57-.418 0-.597-.356-.656-.57V3.107v-.356c.06-.213.178-.498.596-.498.477 0 .596.356.596.498v.712h1.551V3.18 2.68C43.328 1.327 42.374.9 41.301.9c-1.074 0-2.028.427-2.147 1.78 0 .143-.06.356-.06.499V6.739c.12 1.353 1.074 1.78 2.147 1.78 1.074 0 2.088-.498 2.147-1.78V4.247h-2.027v.071z" fill="#000"/>
</svg>
