<svg width="16" height="16" viewBox="0 0 16 16" fill="none" xmlns="http://www.w3.org/2000/svg">
    <g clip-path="url(#share_small_svg__clip0)">
        <path fill-rule="evenodd" clip-rule="evenodd" d="M8.313.125a.875.875 0 00-.9 0L4.97 1.59a.875.875 0 00.9 1.501l1.118-.67v6.76a.875.875 0 001.75 0V2.42l1.117.67a.875.875 0 10.9-1.5L8.313.124zM3.066 6.272A.139.139 0 003 6.287v7.74a.138.138 0 00.066.016h9.593c.03 0 .053-.008.066-.015v-7.74a.139.139 0 00-.066-.016h-1.066a1 1 0 010-2h1.066c.521 0 1.037.189 1.43.549.395.363.636.874.636 1.428v7.817c0 .554-.24 1.065-.636 1.428-.393.36-.909.549-1.43.549H3.066a2.117 2.117 0 01-1.43-.55A1.937 1.937 0 011 14.067V6.249c0-.554.24-1.065.636-1.428.393-.36.909-.549 1.43-.549h1.066a1 1 0 110 2H3.066z" fill="currentColor"/>
    </g>
    <defs>
        <clipPath id="share_small_svg__clip0">
            <path d="M0 0h16v16H0V0z" fill="#fff"/>
        </clipPath>
    </defs>
</svg>
