<svg width="24" height="24" viewBox="0 0 24 24" fill="none" xmlns="http://www.w3.org/2000/svg">
    <path fill-rule="evenodd" clip-rule="evenodd" d="M6 10.5a1 1 0 011 1v2a.5.5 0 00.5.5h9a.5.5 0 00.5-.5v-2a1 1 0 112 0v2a2.5 2.5 0 01-2.5 2.5h-9A2.5 2.5 0 015 13.5v-2a1 1 0 011-1z" fill="currentColor"/>
    <path fill-rule="evenodd" clip-rule="evenodd" d="M7.237 14.25a2.75 2.75 0 00-2.46 1.52l-1.362 2.724c-.748 1.496.34 3.256 2.013 3.256h13.146c1.672 0 2.76-1.76 2.012-3.256l-1.362-2.724a2.75 2.75 0 00-2.46-1.52H7.238zM11 16.75a1.25 1.25 0 100 2.5h2a1.25 1.25 0 000-2.5h-2zM11.25 2H8.673L7.45 8.932C7.818 9.453 8.454 10 9.5 10c.804 0 1.366-.323 1.75-.71V2zm1.5 7.29c.384.387.945.71 1.75.71 1.002 0 1.628-.503 2.003-1.004L15.398 2H12.75v7.29zM19.5 9a1.885 1.885 0 01-1.497-.12L16.917 2h1.406a1 1 0 01.928.629l1.605 4.013c.095.237.148.49.094.739-.105.479-.432 1.28-1.45 1.619zM7.15 2H5.677a1 1 0 00-.929.629L3.143 6.642c-.095.237-.148.49-.094.739.105.479.432 1.28 1.45 1.619a1.875 1.875 0 001.431-.087L7.15 2z" fill="currentColor"/>
</svg>
