<svg width="24" height="24" viewBox="0 0 24 24" fill="none" xmlns="http://www.w3.org/2000/svg">
    <path d="M23.075 5.13a9.072 9.072 0 01-2.61.716 4.552 4.552 0 001.998-2.514c-.878.52-1.85.9-2.886 1.103A4.536 4.536 0 0016.26 3c-2.933 0-5.09 2.737-4.427 5.579a12.9 12.9 0 01-9.365-4.747 4.55 4.55 0 001.405 6.067 4.525 4.525 0 01-2.057-.569c-.05 2.105 1.46 4.075 3.645 4.513-.64.174-1.34.214-2.053.078a4.548 4.548 0 004.246 3.155 9.137 9.137 0 01-6.728 1.883A12.864 12.864 0 007.892 21c8.437 0 13.204-7.126 12.916-13.517a9.252 9.252 0 002.267-2.352z" fill="currentColor"/>
</svg>
