<svg width="24" height="24" viewBox="0 0 24 24" fill="none" xmlns="http://www.w3.org/2000/svg">
    <path d="M22 18.704H2V6h20v12.704z" fill="#fff"/>
    <path d="M2.333 16.639h19.334v1.731H2.333V16.64z" fill="#F6AF1A"/>
    <path d="M2.333 8.065h19.334V6.333H2.333v1.732zM11.616 9.629l-.973 4.528H9.467l.973-4.528h1.176zm4.925 2.926l.62-1.704.353 1.704h-.973zm1.315 1.602h1.084l-.954-4.528h-1a.534.534 0 00-.5.333l-1.76 4.195h1.241l.241-.676h1.5l.148.676zm-3.065-1.482c.01-1.194-1.648-1.26-1.638-1.787 0-.166.157-.333.5-.38.166-.018.63-.036 1.157.204l.204-.963a3.146 3.146 0 00-1.093-.203c-1.166 0-1.981.62-1.99 1.5-.01.648.583 1.018 1.027 1.231.454.222.611.361.611.565 0 .305-.36.435-.703.444-.593.01-.936-.157-1.204-.287l-.213.991c.278.13.778.232 1.306.24 1.231 0 2.036-.61 2.036-1.555zM9.94 9.63l-1.898 4.528H6.8l-.935-3.611c-.056-.223-.102-.306-.278-.399-.278-.157-.75-.296-1.158-.389l.028-.13h1.99c.25 0 .482.168.538.464l.49 2.62L8.709 9.63H9.94zM13.115 15.405h-.472v.444h.537v.13h-.694v-1.231h.666v.138h-.509v.39h.472v.129zM13.417 14.685h.157v1.296h-.157v-1.296zM14.454 15.454c0-.102-.047-.26-.223-.26-.166 0-.231.15-.25.26h.473zm-.473.111c0 .213.14.306.306.306a.527.527 0 00.24-.046l.028.11a.523.523 0 01-.287.065c-.268 0-.435-.185-.435-.444 0-.26.158-.472.408-.472.287 0 .36.25.36.417 0 .037 0 .055-.009.074.01-.01-.61-.01-.61-.01zM15.482 15.95c-.046.019-.14.056-.25.056-.269 0-.435-.185-.435-.454 0-.268.185-.472.472-.472.092 0 .176.028.222.046l-.037.12a.48.48 0 00-.194-.036c-.204 0-.315.148-.315.333 0 .204.13.333.305.333a.353.353 0 00.195-.046l.037.12zM15.932 14.887v.213h.232v.12h-.232v.473c0 .11.028.175.12.175.047 0 .065 0 .093-.009l.01.12a.578.578 0 01-.149.019c-.074 0-.13-.018-.167-.065-.046-.046-.064-.13-.064-.231v-.482h-.14v-.12h.14v-.167l.157-.046zM16.386 15.374c0-.102 0-.195-.01-.278h.14l.009.176h.01c.036-.12.138-.194.24-.194h.046v.157h-.055c-.111 0-.195.083-.213.204 0 .018-.01.046-.01.074v.472h-.157v-.611zM17.11 15.542c0 .194.111.342.268.342.158 0 .269-.148.269-.342 0-.148-.074-.333-.269-.333-.185-.01-.268.166-.268.333zm.694-.01c0 .325-.222.473-.435.473-.24 0-.426-.176-.426-.454 0-.296.195-.463.435-.463.26-.01.426.176.426.445zM18.054 15.337c0-.092 0-.166-.009-.24h.139l.018.148a.334.334 0 01.297-.167c.12 0 .315.074.315.38v.528h-.167v-.51c0-.139-.056-.259-.204-.259a.228.228 0 00-.213.167c-.009.009-.018.037-.018.065v.537h-.158v-.649z" fill="#243C7B"/>
</svg>
