<svg width="28" height="24" viewBox="0 0 28 24" fill="none" xmlns="http://www.w3.org/2000/svg">
    <path d="M26 19.6H2V4.356h24V19.6z" fill="#fff"/>
    <path d="M2.4 17.122h23.2V19.2H2.4v-2.078z" fill="#F6AF1A"/>
    <path d="M2.4 6.833h23.2V4.756H2.4v2.077zM13.539 8.71l-1.167 5.433H10.96l1.166-5.433h1.412zm5.91 3.511l.745-2.044.422 2.044H19.45zm1.578 1.922h1.3L21.183 8.71h-1.2c-.267 0-.5.156-.6.4l-2.111 5.034h1.489l.289-.812h1.8l.177.811zm-3.677-1.777c.01-1.434-1.978-1.511-1.967-2.145 0-.2.189-.4.6-.455.2-.023.755-.045 1.389.244l.244-1.155a3.775 3.775 0 00-1.31-.245c-1.4 0-2.379.745-2.39 1.8-.01.778.7 1.222 1.234 1.478.544.267.733.433.733.678 0 .366-.433.522-.844.533-.712.011-1.123-.189-1.445-.344l-.255 1.188c.333.156.933.278 1.566.29 1.478 0 2.445-.734 2.445-1.867zM11.527 8.71L9.25 14.143H7.76L6.64 9.81c-.067-.267-.123-.367-.334-.478-.333-.189-.9-.355-1.389-.466l.034-.156h2.389c.3 0 .577.2.644.556l.589 3.144 1.478-3.7h1.477zM15.338 15.641h-.566v.534h.644v.155h-.833v-1.477h.8v.166h-.611v.467h.566v.155zM15.7 14.778h.189v1.555h-.19v-1.555zM16.944 15.7c0-.122-.055-.31-.267-.31-.2 0-.277.177-.3.31h.567zm-.567.134c0 .255.167.367.367.367a.632.632 0 00.289-.056l.033.133c-.066.045-.177.078-.344.078-.322 0-.522-.222-.522-.533 0-.311.189-.567.489-.567.344 0 .433.3.433.5 0 .044 0 .067-.011.089.01-.011-.734-.011-.734-.011zM18.178 16.296a.8.8 0 01-.3.067c-.322 0-.522-.223-.522-.545 0-.322.222-.567.567-.567.11 0 .21.034.266.056l-.044.144a.576.576 0 00-.233-.044c-.245 0-.378.178-.378.4 0 .244.155.4.366.4a.424.424 0 00.234-.056l.044.145zM18.718 15.02v.255h.278v.145h-.278v.566c0 .134.034.212.145.212.055 0 .078 0 .111-.012l.011.145a.697.697 0 01-.178.022c-.089 0-.155-.022-.2-.078-.055-.055-.078-.155-.078-.277v-.578h-.166v-.145h.166v-.2l.19-.055zM19.263 15.604c0-.122 0-.233-.011-.333h.167l.01.211h.012c.044-.144.167-.233.289-.233h.055v.189h-.066c-.134 0-.234.1-.256.244 0 .022-.011.056-.011.089v.567h-.189v-.734zM20.132 15.806c0 .233.133.41.322.41s.322-.177.322-.41c0-.178-.089-.4-.322-.4-.222-.011-.322.2-.322.4zm.833-.011c0 .388-.267.566-.522.566-.29 0-.511-.211-.511-.544 0-.356.233-.556.522-.556.311-.011.511.211.511.534zM21.265 15.56c0-.11 0-.2-.011-.289h.167l.022.178c.055-.1.178-.2.355-.2.145 0 .378.09.378.456v.633h-.2v-.61c0-.168-.066-.312-.244-.312a.273.273 0 00-.256.2c-.01.011-.022.044-.022.078v.644h-.189v-.778z" fill="#243C7B"/>
</svg>
