<svg width="24" height="24" viewBox="0 0 24 24" fill="none" xmlns="http://www.w3.org/2000/svg">
    <path d="M22 6H2v12.704h20V6z" fill="#fff"/>
    <path d="M21.67 16.64H2.334v1.734H21.67V16.64z" fill="#F8B600"/>
    <path d="M21.67 6.334H2.334v1.734H21.67V6.334zM11.835 9.976l-1.022 4.764H9.58L10.6 9.976h1.235zm5.183 3.078l.652-1.79.37 1.79h-1.022zm1.376 1.686h1.143l-.998-4.764h-1.05a.563.563 0 00-.527.35l-1.847 4.426h1.295l.254-.704h1.581l.15.692zm-3.219-1.553c0-1.26-1.738-1.328-1.726-1.891 0-.17.165-.35.523-.403a2.33 2.33 0 011.207.214l.213-1.01a3.267 3.267 0 00-1.15-.21c-1.208 0-2.077.644-2.085 1.574 0 .684.611 1.066 1.078 1.296.467.229.644.382.64.591 0 .322-.382.463-.736.467a2.531 2.531 0 01-1.268-.302l-.213 1.05c.436.17.9.255 1.368.254 1.296 0 2.145-.64 2.149-1.63zm-5.107-3.22l-2.012 4.765H6.773l-.982-3.794a.527.527 0 00-.294-.403 5.12 5.12 0 00-1.207-.402l.028-.141h2.108a.58.58 0 01.572.487l.519 2.756 1.28-3.243 1.271-.024z" fill="#1A1F71"/>
</svg>
