<svg width="24" height="24" viewBox="0 0 24 24" fill="none" xmlns="http://www.w3.org/2000/svg">
    <path d="M3 2h18.07v20H3V2z" fill="#272756"/>
    <path fill-rule="evenodd" clip-rule="evenodd" d="M3.452 2.463h17.166v12.525H3.453V2.463z" fill="#FAFBFC"/>
    <path d="M16.377 4.736l-3.368 8.213H10.81L9.152 6.394c-.1-.403-.189-.55-.494-.724-.502-.275-1.326-.535-2.053-.697l.05-.237h3.538c.451 0 .857.306.96.836l.876 4.752 2.164-5.588h2.185" fill="#272756"/>
    <path d="M7.589 16.42a5.34 5.34 0 011-.079c.477 0 .828.107 1.056.31.213.188.352.487.352.845 0 .362-.107.662-.31.867-.26.276-.668.407-1.13.407-.123 0-.235-.007-.32-.023v1.44H7.59v-3.768zm.648 1.778c.08.023.186.03.32.03.488 0 .786-.257.786-.704 0-.424-.277-.651-.73-.651-.18 0-.307.017-.376.034v1.29zm3.194.906l-.308 1.082h-.675l1.15-3.818h.833l1.164 3.818h-.702l-.324-1.082H11.43zm1.026-.527l-.281-.939c-.07-.234-.128-.494-.183-.715h-.008c-.054.221-.107.488-.17.715l-.277.939h.92-.001zm2.515 1.61v-1.594l-1.132-2.226h.743l.431.98c.122.283.212.497.309.76h.01c.09-.244.192-.483.313-.76l.431-.98h.739l-1.19 2.209v1.61h-.654z" fill="#fff"/>
</svg>
