<svg width="24" height="24" viewBox="0 0 24 24" fill="none" xmlns="http://www.w3.org/2000/svg">
    <path d="M21.26 2H2.8v20h18.46V2z" fill="#253A7A"/>
    <path d="M20.804 2.462H3.262v12.529h17.542V2.462z" fill="#fff"/>
    <path d="M16.466 4.732l-3.438 8.22h-2.251L9.085 6.393a.925.925 0 00-.505-.742 8.975 8.975 0 00-2.093-.676l.049-.243h3.614a.992.992 0 01.98.84l.894 4.752 2.215-5.592h2.227z" fill="#253A7A"/>
    <path d="M8.148 18.197c.108.025.219.035.329.03.499 0 .803-.255.803-.7 0-.443-.28-.65-.742-.65a1.823 1.823 0 00-.39.03v1.29zm-.657-1.776a5.746 5.746 0 011.016-.08c.387-.03.771.08 1.083.31a1.096 1.096 0 01.36.846c.013.32-.101.634-.317.87a1.584 1.584 0 01-1.156.402c-.11.007-.22.007-.329 0v1.436h-.657v-3.784zM12.462 18.58l-.286-.943c-.073-.23-.133-.492-.188-.712-.055.22-.11.487-.177.712l-.28.944h.931zm-1.046.524l-.317 1.083h-.687l1.174-3.815h.852l1.186 3.815h-.718l-.328-1.083h-1.162zM15.036 20.187v-1.588l-1.162-2.227h.76l.445.98c.121.28.213.498.31.76.091-.25.195-.487.322-.76l.475-.98h.73L15.7 18.58v1.606h-.663z" fill="#fff"/>
</svg>
