<svg width="32" height="23" viewBox="0 0 32 23" xmlns="http://www.w3.org/2000/svg">
    <title>
        American Express
    </title>
    <g fill="none" fill-rule="evenodd">
        <path fill="#FFF" d="M5.38-.88h26.28v24.64H5.38z"/>
        <path d="M30.577 17.329h-2.054v-.116c-.242.116-.483.116-.725.116h-6.284v-1.044h-.12v1.044h-2.055v-1.16a3.552 3.552 0 0 1-1.088.174h-.18v.986h-2.418s-.362-.406-.604-.638c-.181.232-.604.638-.604.638h-3.807v-4.233h3.867s.423.464.665.696c.242-.232.664-.696.664-.696h2.78c.12 0 .423 0 .725.116v-.116h2.538c.12 0 .423 0 .785.116v-.116h3.746v.116c.363-.116.665-.116.725-.116h2.115v.116c.363-.116.665-.116.725-.116h1.51V-.876H5.2V9.966l.907-2.03H8.04l.242.522v-.522h2.296s.362.754.483 1.102c.181-.348.484-1.102.484-1.102h7.069c.12 0 .423 0 .785.116v-.116H21.454v.232c.302-.174.664-.29.966-.29 0 0 1.088 0 1.148.058h1.934s.181.464.242.522v-.522h2.114s.302.464.363.522v-.522h2.054v4.233h-2.054s-.302-.464-.363-.58v.58H25.26s-.241-.522-.302-.638h-.665c-.06.116-.302.638-.302.638H22.24c-.242 0-.483-.116-.725-.232v.29h-3.263v-1.044h-.12v1.044H11.785c0-.058-1.51 0-1.51 0s0-.058-.06-.058l-2.599.058s-.242-.522-.302-.638H6.65c-.06.174-.302.638-.302.638H5.14V23.88h26.283v-6.667c-.12.058-.423.116-.725.116h-.12z" fill="#0087B1"/>
        <path d="M18.976 11.53v-.579s-.06-.464-.543-.464h-.786v1.044h-.785V8.458h1.994s1.027-.116 1.027.928c0 .522-.484.695-.484.695s.423.174.423.696v.754h-.846m-1.329-1.797h.846c.242 0 .423-.116.423-.29s-.181-.29-.423-.29h-.846v.58M28.644 11.53l-1.269-2.086v2.087h-1.631l-.303-.638h-1.51l-.302.638H22.42s-1.087-.174-1.087-1.45c0-1.739 1.269-1.623 1.269-1.68h1.027v.695h-.846s-.544 0-.604.696v.232c0 1.043.966.695.966.695L24.173 8.4h1.148l1.208 2.783V8.4h1.148l1.269 2.03V8.4h.846v3.073h-1.148m-4.35-1.334h.785l-.363-.927-.423.927M12.572 11.53V9.387l-1.027 2.145h-.665L9.853 9.386v2.145H8.22l-.302-.638H6.41l-.302.638H5.2l1.33-3.073h1.148L8.946 11.3v-2.84h1.27l.906 1.912.906-1.913h1.269v3.073h-.725m-5.74-1.392h.785l-.423-.927-.362.927M13.901 11.53V8.459h2.538v.754h-1.753v.464h1.692v.695h-1.692v.522h1.753v.638H13.9M20.185 11.53V8.459h.846v3.073h-.846M22.118 16.749v-.58s-.06-.464-.543-.464h-.786v1.044h-.846v-3.073h1.994s1.027-.116 1.027.928c0 .522-.483.695-.483.695s.362.174.362.696v.754h-.725m-1.329-1.74h.846c.242 0 .423-.115.423-.29 0-.173-.181-.29-.423-.29h-.846v.58M16.68 16.749h-.725l-.846-.928-.846.928h-3.021v-3.073h2.961l.906.986.967-.986h2.598s1.027-.116 1.027.928c0 .927-.362 1.217-1.39 1.217h-.785v.986h-.846m-.966-1.566l1.027 1.102v-2.145l-1.027 1.043m-3.686.87h1.692l.785-.87-.785-.87h-1.692v.465h1.692v.695h-1.692v.58m5.498-1.16h.846c.242 0 .423-.115.423-.29 0-.173-.181-.29-.423-.29h-.846v.58M27.677 16.749h-1.45v-.696h1.269s.483.058.483-.232c0-.29-.664-.232-.664-.232s-1.148.116-1.148-.927c0-.986 1.027-.928 1.027-.928h1.57v.696h-1.268s-.423-.058-.423.232c0 .232.604.232.604.232s1.269-.116 1.269.811c0 .986-.786 1.102-1.088 1.102-.12-.058-.18-.058-.18-.058M23.327 16.749v-3.073h2.537v.754h-1.691v.464h1.691v.695h-1.691v.522h1.691v.638h-2.537M30.577 16.749h-1.45v-.696h1.27s.482.058.482-.232c0-.29-.664-.232-.664-.232s-1.148.116-1.148-.927c0-.986 1.027-.928 1.027-.928h1.57v.696h-1.268s-.423-.058-.423.232c0 .232.604.232.604.232s1.27-.116 1.27.811c0 .986-.786 1.102-1.088 1.102-.121-.058-.182-.058-.182-.058" fill="#0087B1"/>
    </g>
</svg>
