<svg width="32" height="23" viewBox="0 0 32 23" xmlns="http://www.w3.org/2000/svg">
    <title>
        SumUp Balance
    </title>
    <path d="M22.731 3.525c.678-.163 1.069.132 1.069.802V5.695H12.754l9.977-2.17zm3.136 7.099c-.853 0-1.534.663-1.534 1.48v1.486c0 .824.687 1.48 1.534 1.48h3.066v1.968c0 .811-.687 1.47-1.54 1.47H13.075c-.848 0-1.543-.666-1.543-1.47v-8.39c0-.811.689-1.47 1.543-1.47h14.316c.848 0 1.541.666 1.541 1.47v1.976h-3.066zm4.6 2.965h-4.6v-1.483h4.6v1.483zm.001-2.965l-.001-1.976c0-1.628-1.377-2.962-3.075-2.962h-2.059v-1.36c0-1.636-1.33-2.636-2.973-2.239l-9.385 2.268C11.334 4.75 10 6.397 10 8.032v9.006C10 18.664 11.378 20 13.076 20h14.316c1.7 0 3.075-1.322 3.075-2.953l.001-1.976c.426 0 .81-.166 1.086-.434.276-.269.446-.64.446-1.047v-1.485c0-.414-.17-.783-.448-1.051a1.558 1.558 0 0 0-1.084-.43z" fill="#47494D" fill-rule="evenodd"/>
</svg>
