<?xml version="1.0" encoding="UTF-8" standalone="no"?>
<svg width="160px" height="150px" viewBox="0 0 160 150" version="1.1" xmlns="http://www.w3.org/2000/svg" xmlns:xlink="http://www.w3.org/1999/xlink" xmlns:sketch="http://www.bohemiancoding.com/sketch/ns">
    <title>Elektronisches Lastschriftverfahren</title>
    <g id="Card-icons" stroke="none" stroke-width="1" fill="none" fill-rule="evenodd" sketch:type="MSPage">
        <g id="card-ec" sketch:type="MSArtboardGroup">
            <g id="Rectangle-1-+-Fill-1-+-Fill-2" sketch:type="MSLayerGroup" transform="translate(2.000000, 2.000000)">
                <rect id="Rectangle-1" stroke="#01509B" stroke-width="5" fill="#FFFFFF" sketch:type="MSShapeGroup" x="0" y="0" width="157" height="147" rx="3"></rect>
                <g id="Fill-1-+-Fill-2" transform="translate(19.000000, 17.000000)" opacity="0.9" sketch:type="MSShapeGroup">
                    <path d="M116.132251,110.983278 L55.5970763,110.983278 C50.6354466,110.983278 47.273387,106.004305 47.273387,102.455919 C47.273387,99.1668887 47.3589607,11.9869448 47.273387,8.61036151 C47.1878133,5.23708213 53.0742974,0.0037084564 57.0254991,0.0037084564 C60.9767008,0.0863058945 116.043386,0.0037084564 116.043386,0.0037084564 L116.043386,43.9670209 L83.9318495,43.9670209 L83.9318495,23.1260353 C83.9318495,23.1260353 81.8254197,23.0434378 79.1364303,23.1260353 C77.7902899,23.2119366 75.5209408,24.5632307 75.5209408,26.7553667 C75.4370128,31.3114414 75.5209408,83.972264 75.5209408,85.3252101 C75.5209408,86.5906028 76.3602215,88.2772425 79.1364303,88.3614919 C81.9109934,88.5316426 84.0124863,88.3614919 84.0124863,88.3614919 L84.0124863,65.8305627 L116.132251,65.8305627 L116.132251,110.983278" id="Fill-1" fill="#E11A1D"></path>
                    <path d="M36.9304871,22.9558846 C36.9304871,22.9558846 34.4949276,22.7873858 32.3078609,22.8749391 C30.0385118,22.9558846 28.104875,25.1546284 28.104875,26.5026185 L28.104875,43.9670209 L36.9304871,43.9670209 L36.9304871,22.9558846 L36.9304871,22.9558846 Z M9.69665263,0.0037084564 C16.3384894,0.0879578433 64.7584007,0.0037084564 64.7584007,0.0037084564 L64.7584007,65.8289108 L28.104875,65.7496172 L28.104875,85.0724619 C28.104875,85.4094594 29.0297294,88.2772425 32.3078609,88.4490452 L36.8498504,88.4490452 L36.8498504,72.1591784 L64.8423287,72.1591784 L64.7584007,110.983278 L9.43828584,110.983278 C9.43828584,110.983278 1.11459651,109.625376 0.359243915,101.532479 C0.448108925,98.4912417 0.359243915,9.96000364 0.359243915,8.44186273 C0.359243915,7.00797121 3.5583843,0.0037084564 9.69665263,0.0037084564 L9.69665263,0.0037084564 Z" id="Fill-2" fill="#00509B"></path>
                </g>
            </g>
        </g>
    </g>
</svg>
