<svg width="32" height="23" viewBox="0 0 32 23" xmlns="http://www.w3.org/2000/svg">
    <title>
      Maestro
    </title>
    <g fill-rule="nonzero" fill="none">
        <path d="M13.167 21.825V20.44a.82.82 0 0 0-.865-.875.854.854 0 0 0-.776.393.81.81 0 0 0-.73-.393.73.73 0 0 0-.645.328v-.272h-.48v2.204h.484v-1.221a.515.515 0 0 1 .54-.586c.319 0 .48.207.48.581v1.226h.485v-1.221a.52.52 0 0 1 .54-.586c.328 0 .485.207.485.581v1.226h.482zm2.7-1.101v-1.1h-.485v.267a.835.835 0 0 0-.692-.323 1.154 1.154 0 0 0 0 2.307c.27.01.527-.11.692-.323v.268h.48l.005-1.096zm-1.784 0a.667.667 0 1 1 .67.706.66.66 0 0 1-.675-.706h.005zm12.04-1.154c.157 0 .314.03.46.088a1.117 1.117 0 0 1 .625.612c.122.295.122.626.001.922a1.115 1.115 0 0 1-.625.612 1.306 1.306 0 0 1-.946 0 1.126 1.126 0 0 1-.62-.612 1.225 1.225 0 0 1-.001-.923 1.126 1.126 0 0 1 .62-.611c.153-.063.316-.096.48-.095l.005.007zm0 .462a.715.715 0 0 0-.275.05.648.648 0 0 0-.365.376.8.8 0 0 0 0 .573.646.646 0 0 0 .365.376.75.75 0 0 0 .777-.145.67.67 0 0 0 .146-.231.8.8 0 0 0 0-.573.67.67 0 0 0-.146-.23.66.66 0 0 0-.23-.146.715.715 0 0 0-.277-.064l.004.014zm-7.648.692c0-.692-.43-1.154-1.046-1.154a1.154 1.154 0 0 0 .033 2.308c.328.01.65-.1.902-.31l-.23-.355a1.05 1.05 0 0 1-.642.23.612.612 0 0 1-.66-.54h1.636c.007-.057.007-.115.007-.18zm-1.641-.194a.568.568 0 0 1 .58-.533.547.547 0 0 1 .558.535l-1.138-.002zm3.66-.346a1.42 1.42 0 0 0-.692-.19c-.264 0-.42.098-.42.26 0 .16.166.188.373.216l.231.032c.48.07.77.273.77.66 0 .388-.368.72-1.003.72a1.59 1.59 0 0 1-.953-.286l.23-.374c.213.157.471.239.735.231.327 0 .503-.097.503-.268 0-.124-.125-.193-.388-.23l-.23-.033c-.495-.069-.762-.29-.762-.65 0-.439.36-.707.923-.707.315-.01.626.07.897.231l-.214.388zm2.308-.125h-.783v.995c0 .23.079.37.319.37a.886.886 0 0 0 .424-.126l.139.411c-.18.113-.388.172-.6.171-.568 0-.766-.305-.766-.817V20.06h-.448v-.438h.448v-.67h.484v.67h.783v.438zm1.659-.494c.116 0 .232.021.341.06l-.147.462a.78.78 0 0 0-.3-.055c-.314 0-.462.203-.462.567v1.235h-.48V19.63h.475v.268a.65.65 0 0 1 .582-.323l-.01-.01zm3.318 1.939a.23.23 0 0 1 .16.062.215.215 0 0 1-.072.355.217.217 0 0 1-.088.019.23.23 0 0 1-.207-.134.217.217 0 0 1 .048-.24.23.23 0 0 1 .148-.062h.011zm0 .39a.164.164 0 0 0 .12-.05.17.17 0 0 0-.12-.292.173.173 0 0 0-.122.051.17.17 0 0 0 0 .23.17.17 0 0 0 .122.052v.009zm.014-.275a.092.092 0 0 1 .06.019c.014.012.022.03.02.048.002.016-.004.03-.015.042a.08.08 0 0 1-.049.02l.067.077h-.053l-.062-.077h-.021v.077h-.044v-.213l.097.007zm-.05.04v.055h.05a.048.048 0 0 0 .028 0 .023.023 0 0 0 0-.02.023.023 0 0 0 0-.022.048.048 0 0 0-.028 0l-.05-.014z" fill="#000"/>
        <path fill="#7673C0" d="M14.84 2.81h7.27v13.06h-7.27z"/>
        <path d="M15.302 9.34a8.294 8.294 0 0 1 3.173-6.533 8.308 8.308 0 1 0 0 13.064 8.294 8.294 0 0 1-3.173-6.531z" fill="#EB001B"/>
        <path d="M31.915 9.34a8.308 8.308 0 0 1-13.44 6.53 8.308 8.308 0 0 0 0-13.063 8.308 8.308 0 0 1 13.442 6.53l-.002.003z" fill="#00A1DF"/>
    </g>
</svg>
