<svg width="18" height="22" viewBox="0 0 18 22" fill="none" xmlns="http://www.w3.org/2000/svg">
<path fill-rule="evenodd" clip-rule="evenodd" d="M5.81802 2.81802C6.66193 1.97411 7.80653 1.5 9 1.5C10.1935 1.5 11.3381 1.97411 12.182 2.81802C13.0259 3.66193 13.5 4.80653 13.5 6V9.5H4.5V6C4.5 4.80653 4.97411 3.66193 5.81802 2.81802ZM3.5 9.5V6C3.5 4.54131 4.07946 3.14236 5.11091 2.11091C6.14236 1.07946 7.54131 0.5 9 0.5C10.4587 0.5 11.8576 1.07946 12.8891 2.11091C13.9205 3.14236 14.5 4.54131 14.5 6V9.5H17C17.2761 9.5 17.5 9.72386 17.5 10V21C17.5 21.2761 17.2761 21.5 17 21.5H1C0.723858 21.5 0.5 21.2761 0.5 21V10C0.5 9.72386 0.723858 9.5 1 9.5H3.5ZM14 10.5H4H1.5V20.5H16.5V10.5H14Z" fill="#5C656F"/>
</svg>
