<svg width="24" height="24" viewBox="0 0 24 24" fill="none" xmlns="http://www.w3.org/2000/svg">
<path fill-rule="evenodd" clip-rule="evenodd" d="M8.81802 3.81802C9.66193 2.97411 10.8065 2.5 12 2.5C13.1935 2.5 14.3381 2.97411 15.182 3.81802C16.0259 4.66193 16.5 5.80653 16.5 7V10.5H7.5V7C7.5 5.80653 7.97411 4.66193 8.81802 3.81802ZM6.5 10.5V7C6.5 5.54131 7.07946 4.14236 8.11091 3.11091C9.14236 2.07946 10.5413 1.5 12 1.5C13.4587 1.5 14.8576 2.07946 15.8891 3.11091C16.9205 4.14236 17.5 5.54131 17.5 7V10.5H20C20.2761 10.5 20.5 10.7239 20.5 11V22C20.5 22.2761 20.2761 22.5 20 22.5H4C3.72386 22.5 3.5 22.2761 3.5 22V11C3.5 10.7239 3.72386 10.5 4 10.5H6.5ZM17 11.5H7H4.5V21.5H19.5V11.5H17Z" fill="#5C656F"/>
</svg>
