<svg width="24" height="24" viewBox="0 0 24 24" fill="none" xmlns="http://www.w3.org/2000/svg">
<path fill-rule="evenodd" clip-rule="evenodd" d="M9.17157 4.17157C9.92172 3.42143 10.9391 3 12 3C13.0609 3 14.0783 3.42143 14.8284 4.17157C15.5786 4.92172 16 5.93913 16 7V10H8V7C8 5.93913 8.42143 4.92172 9.17157 4.17157ZM6 10V7C6 5.4087 6.63214 3.88258 7.75736 2.75736C8.88258 1.63214 10.4087 1 12 1C13.5913 1 15.1174 1.63214 16.2426 2.75736C17.3679 3.88258 18 5.4087 18 7V10H20C20.5523 10 21 10.4477 21 11V22C21 22.5523 20.5523 23 20 23H4C3.44772 23 3 22.5523 3 22V11C3 10.4477 3.44772 10 4 10H6ZM17 12H7H5V21H19V12H17Z" fill="#9DA7B1"/>
</svg>
