<svg
  xmlns="http://www.w3.org/2000/svg"
  width="24"
  height="24"
  viewBox="0 0 24 24"
>
  <g fill="none" fill-rule="evenodd">
    <circle cx="12" cy="12" r="12" />
    <path
      fill="#9DA7B1"
      fill-rule="nonzero"
      d="M7.21218305,6 L11.7489487,10.5367656 C12.0836838,10.8715007 12.0836838,11.4142136 11.7489487,11.7489487 C11.4142136,12.0836838 10.8715007,12.0836838 10.5367656,11.7489487 L6,7.21218305 L1.46323438,11.7489487 C1.12849928,12.0836838 0.585786438,12.0836838 0.25105133,11.7489487 C-0.0836837768,11.4142136 -0.0836837768,10.8715007 0.25105133,10.5367656 L4.78781695,6 L0.25105133,1.46323438 C-0.0836837768,1.12849928 -0.0836837768,0.585786438 0.25105133,0.25105133 C0.585786438,-0.0836837768 1.12849928,-0.0836837768 1.46323438,0.25105133 L6,4.78781695 L10.5367656,0.25105133 C10.8715007,-0.0836837768 11.4142136,-0.0836837768 11.7489487,0.25105133 C12.0836838,0.585786438 12.0836838,1.12849928 11.7489487,1.46323438 L7.21218305,6 Z"
      transform="translate(6 6)"
    />
  </g>
</svg>
