<svg width="24" height="24" viewBox="0 0 24 24" fill="none" xmlns="http://www.w3.org/2000/svg">
<path fill-rule="evenodd" clip-rule="evenodd" d="M12 24C18.6274 24 24 18.6274 24 12C24 5.37259 18.6274 0 12 0C5.37259 0 0 5.37259 0 12C0 18.6274 5.37259 24 12 24ZM18.3535 9.06065C18.5488 8.8654 18.5488 8.54881 18.3535 8.35355L17.6464 7.64644C17.4512 7.45119 17.1346 7.45119 16.9393 7.64644L10 14.5858L7.56065 12.1464C7.3654 11.9512 7.04881 11.9512 6.85355 12.1464L6.14644 12.8535C5.95119 13.0488 5.95119 13.3654 6.14644 13.5607L9.64644 17.0607C9.84171 17.2559 10.1583 17.2559 10.3535 17.0607L18.3535 9.06065Z" fill="white"/>
</svg>
