<svg xmlns="http://www.w3.org/2000/svg" xmlns:xlink="http://www.w3.org/1999/xlink" width="24" height="24" viewBox="0 0 24 24">
  <defs>
    <path id="favorite-a" d="M17.3749568,11.981879 C18.504644,10.8272271 18.504644,8.95748501 17.3749568,7.80283302 C16.2422715,6.64511672 14.4035971,6.64511672 13.2709118,7.80283302 L12.052042,9.04863837 L10.7290882,7.69644882 C9.5964029,6.53873252 7.7577285,6.53873252 6.62504321,7.69644882 C5.49535597,8.85110081 5.49535597,10.7208429 6.62504321,11.8754948 L12.052042,17.4224239 L17.3749568,11.981879 Z M18.6282028,6.50619823 C20.4572657,8.37568125 20.4572657,11.4090308 18.6282028,13.2785138 L12.052042,20 L5.37179717,13.1721296 C3.54273428,11.3026466 3.54273428,8.26929705 5.37179717,6.39981403 C7.19786201,4.53339532 10.1562694,4.53339532 11.9823342,6.39981403 L12.0522169,6.47124104 C13.8808592,4.63985319 16.8136105,4.65150559 18.6282028,6.50619823 Z"/>
  </defs>
  <g fill="none" fill-rule="evenodd">
    <use fill="#FFF" fill-rule="nonzero" xlink:href="#favorite-a"/>
  </g>
</svg>
