<svg xmlns="http://www.w3.org/2000/svg" viewBox="0 0 32.48 32.5">
  <title>
    American Express
  </title>
  <defs>
    <style>
      .amex-cls-1 {
        fill: #fff;
      }
      .amex-cls-2 {
        fill: #2e70b5;
      }
    </style>
  </defs>
  <g id="Layer_2" data-name="Layer 2">
    <g id="Layer_1-2" data-name="Layer 1">
      <polygon
        id="logo-blue-box-small-45-9x45-a"
        class="amex-cls-1"
        points="32.48 32.48 0 32.48 0 0 32.48 0 32.48 32.48"
      />
      <path
        class="amex-cls-2"
        d="M32.48,17.6V0H0V32.5H32.48V23c-.07,0,0-5.42,0-5.42"
      />
      <path
        class="amex-cls-1"
        d="M28.51,15.79H31V10.07H28.29v.8l-.51-.8H25.47v1l-.44-1H20.76c-.14,0-.29.07-.43.07s-.22.08-.36.15-.22.07-.36.14v-.36H7.38L7,11l-.36-.94H3.76v1l-.43-1H1L0,12.53v3.26H1.66L2,15h.58l.29.8H15.56v-.73l.5.73h3.55v-.44c.07.08.21.08.29.15s.21.07.29.14a.91.91,0,0,0,.43.07h2.6l.29-.79h.58l.29.79h3.55V15Zm4,7.23V17.67H12.59l-.51.72-.5-.72H5.79v5.71h5.79l.5-.72.51.72h3.62V22.15h-.15a3.58,3.58,0,0,0,1.3-.21v1.52H20v-.73l.5.73H31.26A6.27,6.27,0,0,0,32.48,23Z"
      />
      <path
        class="amex-cls-2"
        d="M31.26,21.65h-2v.79h1.88a1.19,1.19,0,0,0,1.3-1.23,1,1,0,0,0-1.15-1.08h-.87a.37.37,0,0,1,0-.73h1.66l.36-.79H30.53a1.18,1.18,0,0,0-1.3,1.16c0,.72.43,1.08,1.16,1.08h.87a.35.35,0,0,1,.36.36c.07.29-.08.44-.36.44Zm-3.55,0H25.76v.79h1.88a1.2,1.2,0,0,0,1.3-1.23c0-.72-.43-1.08-1.16-1.08h-.87a.37.37,0,0,1,0-.73h1.67l.36-.79H27a1.19,1.19,0,0,0-1.31,1.16,1,1,0,0,0,1.16,1.08h.87a.4.4,0,0,1,0,.8Zm-2.53-2.32v-.79h-3v3.83h3v-.8H23v-.79h2.1V20H23v-.72h2.17Zm-4.92,0a.44.44,0,0,1,.5.44c0,.21-.14.43-.5.43H19.17v-.94l1.09.07ZM19.17,21h.44l1.15,1.37h1.09l-1.3-1.45a1.15,1.15,0,0,0,1-1.15,1.2,1.2,0,0,0-1.3-1.23h-2v3.83h.87L19.17,21Zm-2.31-1.16a.46.46,0,0,1-.51.5H15.19v-1h1.09a.52.52,0,0,1,.58.51Zm-2.53-1.3v3.83h.86v-1.3h1.16a1.28,1.28,0,0,0,1.38-1.3,1.26,1.26,0,0,0-1.31-1.31l-2.09.08ZM13,22.37h1.09l-1.52-1.95,1.52-1.88H13l-.94,1.23-.94-1.23H10.06l1.52,1.88L10.06,22.3h1.08l.94-1.23Zm-3.25-3v-.79h-3v3.83h3v-.8H7.6v-.79H9.69V20H7.6v-.72H9.77Zm17.58-6.8,1.52,2.32H30V11h-.87v2.53l-.21-.36L27.49,11H26.34v3.84h.86V12.24Zm-3.76-.07.29-.8.28.8.37.87H23.22Zm1.52,2.39h.94L24.38,11H23.22l-1.66,3.84h.94l.36-.8h1.88Zm-4.06,0h0l.37-.8H21.2a1,1,0,0,1-1-1.08v-.08a1,1,0,0,1,1-1.08h.94V11h-1a1.73,1.73,0,0,0-1.81,1.88V13a1.68,1.68,0,0,0,1.73,1.88Zm-3.25,0h.87V11.08H17.8v3.77Zm-1.88-3c.36,0,.5.21.5.43a.44.44,0,0,1-.5.44H14.83v-.94l1.09.07Zm-1.09,1.66h.44l1.15,1.38h1.09l-1.3-1.45a1.16,1.16,0,0,0,1-1.16A1.2,1.2,0,0,0,15.92,11h-2v3.84h.87l.07-1.38Zm-1.59-1.66V11h-3v3.84h3v-.8H11.07v-.8h2.1v-.79h-2.1v-.72h2.17Zm-6.58,3h.79l1.09-3.11v3.11h.87V11H8l-.87,2.61L6.22,11H4.78v3.84h.86V11.74ZM2,12.46l.29-.8.29.8.36.87H1.59Zm1.52,2.39h.94L2.75,11H1.66L0,14.85H.94l.36-.8H3.18Z"
      />
    </g>
  </g>
</svg>
