<svg xmlns="http://www.w3.org/2000/svg" width="36" height="36" viewBox="0 0 36 36">
  <g fill="none" fill-rule="evenodd">
    <path fill="#FFFFFF" d="M36,18 C36,8.05885714 27.9411429,0 18,0 C8.05885714,0 0,8.05885714 0,18 C0,27.9411429 8.05885714,36 18,36 C27.9411429,36 36,27.9411429 36,18"/>
    <path fill="#C7C7C7" d="M18,0 C8.05885714,0 0,8.05885714 0,18 C0,27.9411429 8.05885714,36 18,36 C27.9411429,36 36,27.9411429 36,18 C36,8.05885714 27.9411429,0 18,0 M18,0.578057143 C22.6532571,0.578057143 27.0288,2.3904 30.3202286,5.6808 C33.6106286,8.9712 35.4219429,13.3467429 35.4219429,18 C35.4219429,22.6532571 33.6106286,27.0288 30.3202286,30.3202286 C27.0288,33.6106286 22.6532571,35.4219429 18,35.4219429 C13.3467429,35.4219429 8.9712,33.6106286 5.6808,30.3202286 C2.3904,27.0288 0.578057143,22.6532571 0.578057143,18 C0.578057143,13.3467429 2.3904,8.9712 5.6808,5.6808 C8.9712,2.3904 13.3467429,0.578057143 18,0.578057143"/>
    <path fill="#3EC44D" d="M14.3412686,10.5649714 L14.3001257,10.5649714 L14.3001257,15.9577714 C14.3001257,16.4072571 14.6683543,16.7754857 15.1188686,16.7754857 L15.82344,16.7754857 L15.82344,17.2640571 L15.82344,18.6546857 C15.8244686,19.1072571 16.19064,19.4724 16.6421829,19.4724 C17.0937257,19.4724 17.4598971,19.1072571 17.4598971,18.6546857 L17.4598971,17.2640571 L17.4598971,16.7754857 L18.5625257,16.7754857 L18.5625257,17.2640571 L18.5625257,18.6546857 C18.5625257,19.1072571 18.9286971,19.4724 19.38024,19.4724 C19.8317829,19.4724 20.1979543,19.1072571 20.1989829,18.6546857 L20.1989829,17.2640571 L20.1989829,16.7754857 L20.8860686,16.7754857 C21.3355543,16.7754857 21.7037829,16.4072571 21.7037829,15.9577714 L21.7037829,10.5649714 L21.6904114,10.5649714 L14.3412686,10.5649714 Z M15.9705257,8.622 C15.9705257,8.81434286 16.1268686,8.96965714 16.3181829,8.96965714 C16.5105257,8.96965714 16.66584,8.81434286 16.66584,8.622 C16.66584,8.43068571 16.5105257,8.27434286 16.3181829,8.27434286 C16.1268686,8.27434286 15.9705257,8.43068571 15.9705257,8.622 L15.9705257,8.622 Z M19.3380686,8.622 C19.3380686,8.81434286 19.4933829,8.96965714 19.6867543,8.96965714 C19.8780686,8.96965714 20.0344114,8.81434286 20.0344114,8.622 C20.0344114,8.43068571 19.8780686,8.27434286 19.6867543,8.27434286 C19.4933829,8.27434286 19.3380686,8.43068571 19.3380686,8.622 L19.3380686,8.622 Z M14.3104114,10.2790286 C14.3083543,10.242 14.3073257,10.2039429 14.3073257,10.1669143 C14.3073257,9.91594286 14.3392114,9.67114286 14.3988686,9.43662857 C14.62824,8.53251429 15.27624,7.76931429 16.1505257,7.31571429 L15.5837829,6.26862857 C15.5477829,6.20382857 15.5724686,6.1236 15.63624,6.0876 C15.70104,6.05365714 15.7812686,6.07731429 15.8172686,6.14211429 L16.3912114,7.20154286 C16.8797829,6.98965714 17.42904,6.87034286 18.0091543,6.87034286 C18.5841257,6.87034286 19.1302971,6.9876 19.6157829,7.19742857 L20.1876686,6.14211429 C20.22264,6.07731429 20.3028686,6.05365714 20.3676686,6.0876 C20.4324686,6.1236 20.4561257,6.20382857 20.4221829,6.26862857 L19.8564686,7.30954286 C20.7739543,7.78165714 21.4445829,8.59422857 21.6461829,9.55388571 C21.66984,9.66291429 21.6862971,9.77194286 21.6965829,9.88405714 L21.6965829,10.2790286 L14.3104114,10.2790286 Z M23.62824,11.2397143 C23.62824,10.7881714 23.2620686,10.422 22.8105257,10.422 C22.3579543,10.422 21.9928114,10.7881714 21.9928114,11.2397143 L21.9928114,12.6303429 L21.9928114,13.2855429 L21.9928114,14.6761714 C21.9928114,15.1277143 22.3579543,15.4938857 22.8105257,15.4938857 C23.2620686,15.4938857 23.62824,15.1277143 23.62824,14.6761714 L23.62824,13.2855429 L23.62824,12.6303429 L23.62824,11.2397143 Z M14.0080114,11.2397143 L14.0080114,11.2397143 L14.0080114,12.6303429 L14.0080114,13.2855429 L14.0080114,14.6761714 C14.0069829,15.1277143 13.6408114,15.4938857 13.1892686,15.4938857 C12.7377257,15.4938857 12.3715543,15.1277143 12.3715543,14.6761714 L12.3715543,13.2855429 L12.3715543,12.6303429 L12.3715543,11.2397143 C12.3715543,10.7881714 12.7377257,10.422 13.1892686,10.422 C13.6408114,10.422 14.0069829,10.7881714 14.0080114,11.2397143 L14.0080114,11.2397143 Z"/>
    <path fill="#767676" d="M28.6815086,21.2806286 L27.6261943,21.2806286 L25.3335086,26.7711429 L25.8015086,26.7711429 L23.5160229,21.2868 L22.4288229,21.2868 L25.0208229,27.3018857 L24.81408,27.7709143 C24.58368,28.2882857 24.1465371,28.5135429 23.7279086,28.5135429 L23.3843657,28.5135429 L23.3843657,29.4567429 L23.7155657,29.4567429 C24.6464229,29.4567429 25.38288,28.9578857 25.7768229,28.0074857 L28.6815086,21.2806286 Z M21.8661943,27.5333143 L21.8661943,21.2868 L20.9291657,21.2868 L20.9291657,21.9985714 C20.4045943,21.4729714 19.68048,21.1623429 18.8555657,21.1623429 C17.0689371,21.1623429 15.66288,22.6105714 15.66288,24.4033714 C15.66288,26.2023429 17.0689371,27.6577714 18.8555657,27.6577714 C19.68048,27.6577714 20.4045943,27.3399429 20.9291657,26.8215429 L20.9291657,27.5333143 L21.8661943,27.5333143 Z M18.92448,26.7454286 C17.6439086,26.7454286 16.6071086,25.6962857 16.6071086,24.4033714 C16.6071086,23.1166286 17.6439086,22.0674857 18.92448,22.0674857 C19.72368,22.0674857 20.47968,22.4418857 20.8664229,23.0857714 C20.8859657,23.1228 20.9291657,23.1855429 20.9291657,23.2914857 L20.9291657,25.5090857 C20.9229943,25.6222286 20.8859657,25.6901143 20.8602514,25.7209714 C20.4416229,26.3463429 19.72368,26.7454286 18.92448,26.7454286 L18.92448,26.7454286 Z M9.76608,29.4063429 L9.76608,26.8215429 C10.29168,27.3450857 11.0157943,27.6639429 11.83968,27.6639429 C13.6201371,27.6639429 15.0323657,26.2085143 15.0323657,24.4167429 C15.0323657,22.6177714 13.6201371,21.1623429 11.83968,21.1623429 C11.0157943,21.1623429 10.29168,21.4801714 9.76608,21.9985714 L9.76608,21.2868 L8.82905143,21.2868 L8.82905143,29.4063429 L9.76608,29.4063429 Z M11.7717943,26.7516 C10.9725943,26.7516 10.2289371,26.3710286 9.82882286,25.7343429 C9.80413714,25.6962857 9.76608,25.6335429 9.76608,25.5286286 L9.76608,23.2853143 C9.77328,23.1793714 9.81030857,23.1104571 9.83499429,23.0796 C10.2536229,22.4552571 10.9725943,22.0736571 11.7717943,22.0736571 C13.0461943,22.0736571 14.0829943,23.1228 14.0829943,24.4167429 C14.0829943,25.7034857 13.0461943,26.7516 11.7717943,26.7516 L11.7717943,26.7516 Z"/>
  </g>
</svg>
