<svg xmlns="http://www.w3.org/2000/svg" viewBox="0 0 44.86 19.09">
  <title>Apple Pay</title>
  <g id="Layer_2" data-name="Layer 2">
    <g id="Layer_1-2" data-name="Layer 1">
      <path
        d="M9.29,0A3.53,3.53,0,0,0,7,1.16,3.2,3.2,0,0,0,6.2,3.5a2.66,2.66,0,0,0,2.31-1A3.45,3.45,0,0,0,9.29,0Z"
      />
      <path
        d="M10.41,8.16a3.37,3.37,0,0,1,1.64-2.9A3.46,3.46,0,0,0,9.29,3.73c-1.26-.08-2.35.71-2.94.71s-1.53-.67-2.54-.67A3.73,3.73,0,0,0,.64,5.7c-1.34,2.35-.37,5.82,1,7.72.64.93,1.42,2,2.43,1.94s1.34-.63,2.49-.63,1.5.63,2.54.59,1.71-.93,2.35-1.9a7.57,7.57,0,0,0,1-2.16A3.37,3.37,0,0,1,10.41,8.16Z"
      />
      <path
        d="M17.16,10.36h3A4.48,4.48,0,0,0,24.91,5.7a4.43,4.43,0,0,0-4.66-4.62H15V15.17h2.2Zm0-7.41h2.54c1.9,0,3,1,3,2.79a2.64,2.64,0,0,1-3,2.8H17.12Z"
      />
      <path
        d="M38.63,15.88a1.71,1.71,0,0,1-1.82,1.46,3.77,3.77,0,0,1-.67,0V19c.18,0,.7,0,.85.08,2.13,0,3.14-.78,4-3.28L44.86,5H42.62L40,13.35h0L37.37,5H35.09l3.73,10.29Z"
      />
      <path
        d="M29.31,9.25c-2.46.15-3.84,1.26-3.84,3.05s1.42,3.1,3.51,3.1a3.65,3.65,0,0,0,3.24-1.87h0v1.68h2V8.13c0-2.09-1.6-3.4-4.1-3.4S26,6.11,25.92,8h2A2,2,0,0,1,30.1,6.49c1.26,0,2,.67,2,1.82V9.1Zm2.84,2.12a2.47,2.47,0,0,1-2.65,2.35c-1.12,0-1.86-.6-1.86-1.49s.7-1.46,2-1.53l2.54-.15Z"
      />
    </g>
  </g>
</svg>
