<?xml version="1.0" encoding="UTF-8" standalone="no"?>
<svg width="240px" height="150px" viewBox="0 0 240 150" version="1.1" xmlns="http://www.w3.org/2000/svg" xmlns:xlink="http://www.w3.org/1999/xlink">
    <!-- Generator: Sketch 39.1 (31720) - http://www.bohemiancoding.com/sketch -->
    <title>card-apple-pay</title>
    <desc>Created with Sketch.</desc>
    <defs></defs>
    <g id="Card-icons" stroke="none" stroke-width="1" fill="none" fill-rule="evenodd">
        <g id="card-apple-pay" fill="#000000">
            <g id="apple-pay" transform="translate(5.000000, 20.000000)">
                <g id="svg3000">
                    <g id="g3051" transform="translate(0.673574, 2.090959)">
                        <g id="layer1">
                            <path d="M58.4854128,43.3518349 C58.603578,55.6937615 69.6625688,59.8 69.7849541,59.8527523 C69.6921101,60.143945 68.0188073,65.7061468 63.9589908,71.4540367 C60.4499083,76.4211927 56.8057798,81.3714679 51.0705505,81.4748624 C45.4323853,81.5761468 43.6198165,78.2379817 37.1734862,78.2379817 C30.7292661,78.2379817 28.7141284,81.3714679 23.3777064,81.5761468 C17.8408257,81.7787156 13.6227523,76.2017431 10.0841284,71.2514679 C2.85284404,61.1251376 -2.67348624,42.6386239 4.74770642,30.1595413 C8.4340367,23.9622018 15.019633,20.0374312 22.1707339,19.9382569 C27.6084404,19.8369725 32.7422936,23.4811009 36.0677982,23.4811009 C39.3890826,23.4811009 45.6286239,19.0984404 52.186789,19.7420183 C54.9320183,19.8538532 62.6380734,20.816055 67.5862385,27.8321101 C67.1853211,28.0726606 58.3883486,33.0334862 58.4854128,43.3518349 M47.8885321,13.0424771 C50.8278899,9.59458716 52.8092661,4.79623853 52.2690826,0.0211009174 C48.0299083,0.185688073 42.9044954,2.75577982 39.8659633,6.20155963 C37.1397248,9.25275229 34.7553211,14.1355046 35.3988991,18.8177982 C40.1233945,19.1722936 44.9491743,16.4924771 47.8885321,13.0424771" id="path2997"></path>
                        </g>
                        <g id="text3006" transform="translate(89.669278, 4.146381)">
                            <path d="M0.777133742,2.99476475 C2.95695119,2.62771838 5.35880685,2.29821083 7.98910567,2.00415663 C10.6172695,1.71010243 13.5080362,1.56411808 16.6656758,1.56411808 C21.1726245,1.56411808 25.0582932,2.09591823 28.3248169,3.15951852 C31.5934756,4.22311882 34.277149,5.74552708 36.3779721,7.72674332 C38.1820325,9.48689753 39.5932562,11.5765593 40.605238,13.9978141 C41.6172199,16.4190689 42.1210758,19.20737 42.1210758,22.3627176 C42.1210758,26.1770802 41.4293414,29.5159509 40.0394676,32.3772443 C38.6517287,35.2385376 36.755864,37.641023 34.3518734,39.5847004 C31.9457477,41.5283778 29.0934107,42.9757084 25.7884573,43.9308632 C22.481369,44.8839324 18.877518,45.3615098 14.9704994,45.3615098 C11.4413729,45.3615098 8.47588175,45.1049945 6.07402609,44.5919637 L6.07402609,76.2872525 L0.777133742,76.2872525 L0.777133742,2.99476475 L0.777133742,2.99476475 Z M6.07402609,39.9726017 C7.35074581,40.3375626 8.77691432,40.5940779 10.3546666,40.7400623 C11.9324189,40.8860466 13.6211903,40.9590388 15.4231158,40.9590388 C22.1824714,40.9590388 27.4217192,39.4178611 31.1387242,36.3375913 C34.8557293,33.2573214 36.7152993,28.7443193 36.7152993,22.8027561 C36.7152993,19.9414628 36.2285233,17.4451303 35.2528361,15.3179297 C34.275014,13.1886437 32.8872752,11.4472589 31.0853497,10.0896044 C29.2834242,8.73194987 27.1420364,7.70588841 24.6633214,7.007249 C22.1824714,6.31069508 19.4411534,5.96241812 16.4350977,5.96241812 C14.033242,5.96241812 11.9665786,6.05417972 10.2393775,6.23770291 C8.51217645,6.42122609 7.12230265,6.6235187 6.0718911,6.84249523 L6.0718911,39.9726017 L6.07402609,39.9726017 Z" id="path2995"></path>
                            <path d="M84.2421516,63.7430255 C84.2421516,65.8702261 84.2784463,67.9995122 84.3531707,70.1267128 C84.4278951,72.2539134 84.6520683,74.3060363 85.0299603,76.2872525 L80.0725302,76.2872525 L79.2847215,68.8045116 L79.0562784,68.8045116 C78.3816238,69.8326586 77.5169558,70.85872 76.4665442,71.8847815 C75.4161327,72.910843 74.1949225,73.8472283 72.8071837,74.6918521 C71.4173099,75.5364758 69.8395576,76.2142603 68.0739268,76.7272911 C66.308296,77.2382363 64.3761366,77.4968372 62.2731785,77.4968372 C59.6450147,77.4968372 57.3328283,77.0734825 55.3408893,76.2330298 C53.3510854,75.388406 51.7178235,74.2872669 50.4411038,72.9316979 C49.1643841,71.5719579 48.2079118,70.0140963 47.5695519,68.2539421 C46.9311921,66.4937878 46.6130796,64.7336336 46.6130796,62.9713939 C46.6130796,56.7357765 49.296753,51.9308058 54.6662348,48.5543962 C60.0378515,45.1779866 68.1315713,43.5659023 78.9495292,43.7118866 L78.9495292,42.28124 C78.9495292,40.8860466 78.8171603,39.2885607 78.5545574,37.4908676 C78.2898195,35.6931746 77.7091042,33.9872431 76.8060065,32.3751588 C75.9050437,30.7630744 74.5535996,29.4054199 72.7516741,28.3063663 C70.9497487,27.2052272 68.5073283,26.6546576 65.4286831,26.6546576 C63.0994169,26.6546576 60.7915005,27.0029345 58.5006639,27.6994885 C56.2098274,28.3960424 54.1260841,29.3678811 52.2494342,30.6150046 L50.5585279,26.7631031 C52.9603835,25.1510187 55.4412335,23.9956568 57.992538,23.2991029 C60.5481124,22.602549 63.212571,22.2542721 65.9923186,22.2542721 C69.7477533,22.2542721 72.8093187,22.8778338 75.1748796,24.1249573 C77.5404406,25.3720808 79.4000106,26.9862506 80.7514547,28.9653814 C82.1028988,30.9465976 83.0252114,33.1655598 83.5119875,35.6243534 C83.9987636,38.083147 84.2464216,40.5231712 84.2464216,42.9423405 L84.2464216,63.7430255 L84.2421516,63.7430255 Z M78.9473942,48.0059121 C76.0907873,47.9308345 73.1039463,48.0413655 69.9868714,48.3354197 C66.8719315,48.6273884 63.9982446,49.271805 61.3700808,50.2603277 C58.739782,51.2509358 56.5642345,52.7003519 54.8370334,54.6085759 C53.1098323,56.5168 52.2451643,59.0465003 52.2451643,62.2018478 C52.2451643,65.9411328 53.3340055,68.6939806 55.513823,70.4541348 C57.6893704,72.214289 60.1296558,73.0964516 62.834679,73.0964516 C65.0123615,73.0964516 66.9658707,72.8044829 68.6930718,72.214289 C70.4202729,71.6261806 71.9190308,70.8378651 73.1978855,69.8493425 C74.4767403,68.8608199 75.5442317,67.7409113 76.4088997,66.4937878 C77.2757027,65.2445789 77.9311424,63.9640875 78.3837588,62.6398009 C78.7595158,61.1716154 78.9495292,60.1080151 78.9495292,59.444829 L78.9495292,48.0059121 L78.9473942,48.0059121 Z" id="path2998"></path>
                            <path d="M94.5989532,23.4617712 L108.339703,57.7972913 C109.093351,59.7055154 109.806436,61.6679622 110.483225,63.6867173 C111.160015,65.7013014 111.759945,67.5573881 112.285151,69.2424647 L112.511459,69.2424647 C113.0388,67.6303803 113.636595,65.8139179 114.313384,63.7951628 C114.990174,61.7784932 115.741688,59.7055154 116.565791,57.5741438 L129.411983,23.4596857 L135.041933,23.4596857 L119.386104,62.1997623 C117.806216,66.3060937 116.324538,70.0328657 114.934664,73.3696509 C113.546926,76.7085217 112.135702,79.7157994 110.709533,82.3935695 C109.28123,85.0713397 107.837982,87.4362862 106.369113,89.4925801 C104.90665,91.544703 103.269118,93.3444816 101.469328,94.8835738 C99.3685048,96.7167201 97.4320754,98.0576907 95.6664446,98.9023145 C93.9029488,99.7469382 92.7201683,100.278738 92.1181032,100.497715 L90.3119077,96.2057749 C91.6654868,95.6176665 93.1685147,94.8481204 94.8209914,93.8950511 C96.4734681,92.9398964 98.0896501,91.6948584 99.6652674,90.1536807 C101.018847,88.833565 102.50266,87.0921802 104.116707,84.9253553 C105.730754,82.7627014 107.176137,80.139154 108.454992,77.0567986 C108.905473,75.8826673 109.131781,75.1110357 109.131781,74.7439894 C109.131781,74.2330441 108.907608,73.4614125 108.454992,72.4332656 L88.9625986,23.4596857 L94.5989532,23.4596857 L94.5989532,23.4617712 Z" id="path3000"></path>
                        </g>
                    </g>
                </g>
            </g>
        </g>
    </g>
</svg>