<svg width="20" height="20" viewBox="0 0 20 20" xmlns="http://www.w3.org/2000/svg">
    <title>
        web/cash
    </title>
    <path d="M17 8.42c-.7-.18-1.25-.72-1.43-1.42h1.42C17 7 17 7 17 6.99v1.43zm0 3.13A2.985 2.985 0 0 0 14.55 14h-9.1A2.985 2.985 0 0 0 3 11.55V9.44A2.985 2.985 0 0 0 5.45 7h9.1c.21 1.25 1.2 2.23 2.45 2.44v2.11zM17 14h-1.43c.18-.71.73-1.25 1.43-1.43V14zM3.01 14H3v-1.43c.7.18 1.25.72 1.43 1.43H3.01zM3 6.99C3 7 3 7 3.01 7h1.42C4.25 7.7 3.7 8.24 3 8.42V6.99zM16.99 6H3.01C2.45 6 2 6.44 2 6.99V14c0 .54.45 1 1.01 1h13.98c.56 0 1.01-.45 1.01-1V6.99c0-.54-.45-.99-1.01-.99zM10 8a2.5 2.5 0 1 0 0 5 2.5 2.5 0 0 0 0-5m0 4a1.5 1.5 0 1 1 .001-3.001A1.5 1.5 0 0 1 10 12"  fill-rule="evenodd"/>
</svg>
