<svg
  xmlns="http://www.w3.org/2000/svg"
  xmlns:xlink="http://www.w3.org/1999/xlink"
  viewBox="0 0 481.23 289.89"
>
  <title>Dankort</title>
  <defs>
    <style>
      .dankort-a {
        fill: none;
      }
      .dankort-b {
        clip-path: url(#a);
      }
      .dankort-c {
        fill: #fff;
      }
      .dankort-d {
        fill: #dc0d19;
      }
    </style>
    <clipPath id="a" transform="translate(-0.03 -14.11)">
      <rect class="dankort-a" width="481.23" height="318.12" />
    </clipPath>
  </defs>
  <g class="dankort-b">
    <g class="dankort-b">
      <path
        class="dankort-c"
        d="M145,17C66.65,17,2.91,80.73,2.91,159.05S66.65,301.12,145,301.12H336.32c78.33,0,142.05-63.73,142.05-142.07s-63.72-142-142-142Z"
        transform="translate(-0.03 -14.11)"
      />
      <path
        class="dankort-c"
        d="M336.32,304H145C65.05,304,0,239,0,159.05s65-144.94,145-144.94H336.32c79.92,0,144.94,65,144.94,144.94s-65,145-144.94,145M145,17C66.65,17,2.91,80.73,2.91,159.05S66.65,301.12,145,301.12H336.32c78.33,0,142.05-63.73,142.05-142.07s-63.72-142-142-142Z"
        transform="translate(-0.03 -14.11)"
      />
      <path
        class="dankort-d"
        d="M369.76,150.38l63.63,75.67a117.76,117.76,0,0,0-2.26-137.13Z"
        transform="translate(-0.03 -14.11)"
      />
      <path
        class="dankort-d"
        d="M189.47,82.54c47.52,0,83.32,12.09,87,52.12l50-52.13H426a117.78,117.78,0,0,0-89.72-41.46H145A117.78,117.78,0,0,0,55.24,82.54Z"
        transform="translate(-0.03 -14.11)"
      />
      <path
        class="dankort-d"
        d="M111.19,133l-17,46.65h68.46c20.23,0,26.36-8.38,30.89-24.51C198.05,139.19,186.79,133,173,133Z"
        transform="translate(-0.03 -14.11)"
      />
      <path
        class="dankort-d"
        d="M326.89,232.41,274,165.58c-9.79,45.57-41.8,66.83-101.8,66.83H52.62A117.85,117.85,0,0,0,145,277.05H336.32a117.79,117.79,0,0,0,92.34-44.64Z"
        transform="translate(-0.03 -14.11)"
      />
    </g>
  </g>
</svg>
