<?xml version="1.0" encoding="UTF-8"?>
<svg width="537px" height="315px" viewBox="0 0 537 315" version="1.1" xmlns="http://www.w3.org/2000/svg" xmlns:xlink="http://www.w3.org/1999/xlink">
    <!-- Generator: Sketch 48.2 (47327) - http://www.bohemiancoding.com/sketch -->
    <title>Group</title>
    <desc>Created with Sketch.</desc>
    <defs></defs>
    <g id="Page-1" stroke="none" stroke-width="1" fill="none" fill-rule="evenodd">
        <g id="Group" fill="#E41D27" fill-rule="nonzero">
            <path d="M423.441986,165.041876 L508.273984,64.1538785 C525.843317,89.5445445 536.161984,120.321877 536.161984,153.47521 C536.161984,188.465875 524.665984,220.825875 505.267318,246.981874 L423.441986,165.041876 Z" id="path30" transform="translate(479.801985, 155.567876) scale(-1, 1) rotate(-180.000000) translate(-479.801985, -155.567876) "></path>
            <path d="M183.054659,69.8482783 C246.405324,69.8482783 294.138656,53.7296121 299.051989,0.353613408 L365.723988,69.8562783 L498.482651,69.8562783 C469.602652,103.658944 426.68532,125.132277 378.846654,125.132277 L123.737327,125.132277 C75.8813284,125.132277 32.9559961,103.658944 4.07466349,69.8482783 L183.054659,69.8482783 Z" id="path34" transform="translate(251.278657, 62.742945) scale(-1, 1) rotate(-180.000000) translate(-251.278657, -62.742945) "></path>
            <path d="M78.676395,185.125342 L56.0537289,122.925344 L147.32706,122.925344 C174.309726,122.925344 182.473726,134.09601 188.512392,155.601343 C194.488392,176.872009 179.477726,185.125342 161.037726,185.125342 L78.676395,185.125342 Z" id="path38" transform="translate(122.949104, 154.025343) scale(-1, 1) rotate(-180.000000) translate(-122.949104, -154.025343) "></path>
            <path d="M366.277988,225.879474 L295.764656,314.992806 C282.720657,254.23414 240.041991,225.890141 160.035326,225.890141 L0.58599691,225.890141 C29.4313295,189.643475 73.9126617,166.360809 123.73666,166.360809 L378.847321,166.360809 C428.653986,166.360809 473.125985,189.634142 501.972651,225.879474 L366.277988,225.879474 Z" id="path42" transform="translate(251.279324, 240.676807) scale(-1, 1) rotate(-180.000000) translate(-251.279324, -240.676807) "></path>
        </g>
    </g>
</svg>