<svg width="32" height="23" viewBox="0 0 32 23" xmlns="http://www.w3.org/2000/svg">
    <title>
        Diners
    </title>
    <g fill="none" fill-rule="evenodd">
        <path d="M10.643 15.437c0 .304.236.34.446.34.927 0 1.231-.644 1.231-1.232 0-.737-.514-1.27-1.342-1.27-.176 0-.257.012-.335.016v2.146zm-.42-1.85c0-.355-.201-.332-.394-.336v-.102c.167.007.338.007.506.007.18 0 .424-.007.742-.007 1.11 0 1.715.682 1.715 1.38 0 .391-.249 1.374-1.767 1.374-.218 0-.42-.008-.621-.008-.194 0-.382.004-.575.008V15.8c.257-.024.381-.032.394-.3v-1.914.001zm3.179-.095c-.112 0-.21-.095-.21-.197 0-.099.102-.19.21-.19.11 0 .21.083.21.19 0 .106-.095.197-.21.197zm-.46 2.308h.082c.12 0 .206 0 .206-.13V14.6c0-.173-.064-.197-.223-.275v-.064c.201-.055.441-.13.459-.142a.166.166 0 0 1 .077-.02c.021 0 .03.024.03.056v1.514c0 .13.094.13.214.13h.073v.104c-.146 0-.296-.008-.45-.008-.154 0-.309.004-.467.008V15.8h-.001zm1.326-1.176c0-.146-.047-.185-.249-.26v-.075c.184-.055.36-.107.566-.19.013 0 .025.009.025.04v.257c.245-.162.456-.296.743-.296.365 0 .493.244.493.552v1.017c0 .13.095.13.214.13h.078v.104c-.15 0-.3-.008-.454-.008-.155 0-.31.004-.464.008V15.8h.077c.12 0 .206 0 .206-.13v-1.022c0-.225-.15-.335-.394-.335-.138 0-.356.102-.499.19v1.166c0 .13.096.13.216.13h.077v.104c-.15 0-.3-.008-.456-.008-.153 0-.308.004-.462.008V15.8h.077c.12 0 .206 0 .206-.13v-1.046zm2.955.063c.107 0 .12-.05.12-.098 0-.202-.133-.363-.373-.363-.262 0-.442.177-.493.461h.746zm-.759.127a.856.856 0 0 0 0 .229c.025.375.287.682.63.682.236 0 .421-.118.58-.264l.06.055c-.198.24-.442.446-.794.446-.682 0-.82-.608-.82-.86 0-.774.567-1.002.867-1.002.347 0 .72.2.725.619 0 .024 0 .047-.004.071l-.04.024h-1.204zm1.346.986h.117c.12 0 .205 0 .205-.13v-1.11c0-.122-.159-.146-.223-.178v-.058c.313-.123.485-.225.524-.225.025 0 .038.011.038.051v.355h.01c.106-.154.286-.406.548-.406.107 0 .244.066.244.209a.199.199 0 0 1-.201.201c-.134 0-.134-.095-.284-.095-.073 0-.313.09-.313.328v.926c0 .13.086.13.206.13h.24v.104c-.236-.004-.415-.008-.6-.008-.176 0-.356.004-.51.008V15.8h-.001zm1.652-.446c.056.26.227.482.54.482.253 0 .347-.143.347-.28 0-.466-.934-.317-.934-.951 0-.222.193-.505.665-.505.137 0 .321.035.488.114l.03.402H20.5c-.043-.248-.193-.39-.468-.39-.172 0-.334.09-.334.26 0 .462.995.32.995.94 0 .26-.228.536-.738.536a1.2 1.2 0 0 1-.523-.134l-.047-.454.077-.02zm5.103-1.491h-.107c-.081-.462-.437-.647-.917-.647-.494 0-1.21.304-1.21 1.25 0 .798.618 1.37 1.278 1.37.425 0 .777-.268.862-.683l.099.024-.099.576c-.18.103-.665.209-.948.209-1.003 0-1.638-.596-1.638-1.484 0-.808.785-1.389 1.626-1.389.347 0 .681.103 1.012.21l.042.564zm.155 1.937h.082c.12 0 .206 0 .206-.13v-2.197c0-.257-.065-.265-.228-.308V13.1c.152-.044.3-.101.442-.17.047-.023.081-.043.094-.043.026 0 .034.024.034.056v2.725c0 .13.095.13.215.13h.073v.104c-.145 0-.296-.008-.45-.008-.155 0-.309.004-.468.008V15.8zm2.754-.115c0 .072.047.075.12.075l.172-.003v.083a4.734 4.734 0 0 0-.619.122l-.02-.012v-.32c-.258.194-.456.332-.76.332-.232 0-.472-.138-.472-.47v-1.01c0-.102-.017-.201-.257-.22v-.075c.155-.005.497-.028.553-.028.048 0 .048.028.048.114v1.018c0 .118 0 .458.373.458.145 0 .338-.103.518-.24v-1.062c0-.08-.205-.122-.36-.162v-.071c.386-.024.627-.055.67-.055.034 0 .034.028.034.071v1.455zm.853-.228c0 .15.154.402.442.402.46 0 .652-.414.652-.766 0-.425-.352-.78-.686-.78-.16 0-.292.094-.408.186v.958zm0-1.074c.172-.133.404-.283.64-.283.497 0 .797.399.797.828 0 .517-.411 1.034-1.026 1.034-.317 0-.484-.095-.595-.138l-.13.09-.089-.043a4.3 4.3 0 0 0 .06-.702v-1.696c0-.257-.064-.265-.227-.308V13.1c.172-.05.351-.121.442-.17.046-.023.08-.043.094-.043.026 0 .034.024.034.056v1.44zM9.824 18.196h.033c.083 0 .172-.01.172-.122V16.95c0-.112-.089-.123-.172-.123h-.033v-.065c.091 0 .231.009.346.009.116 0 .256-.009.366-.009v.065h-.033c-.084 0-.173.01-.173.123v1.124c0 .112.09.122.173.122h.033v.065c-.112 0-.253-.008-.369-.008-.114 0-.252.008-.343.008v-.065z" fill="#1A1918"/>
        <path d="M10.526 18.252v-.046h-.023c-.083 0-.183-.013-.183-.132V16.95c0-.119.1-.132.183-.132h.023v-.046c-.108 0-.243.008-.356.008-.111 0-.245-.008-.336-.008v.046h.023c.083 0 .182.013.182.132v1.124c0 .119-.1.132-.182.132h-.023v.046c.09-.001.223-.009.333-.009.114 0 .249.008.359.009zm.01.018c-.113 0-.253-.008-.369-.008-.114 0-.251.008-.343.008h-.01v-.082h.043c.084-.002.162-.009.162-.114V16.95c0-.105-.078-.112-.162-.114h-.043v-.083h.01c.092 0 .231.009.346.009.116 0 .255-.009.366-.009h.01v.083h-.043c-.085.002-.162.009-.163.114v1.124c0 .105.078.112.163.114h.043v.082h-.01zm1.604-.432l.004-.004v-.805c0-.176-.133-.202-.204-.202h-.05v-.065c.109 0 .216.009.326.009.096 0 .192-.009.287-.009v.065h-.035c-.098 0-.208.017-.208.272v.978c0 .075.003.15.014.216h-.089l-1.201-1.232v.884c0 .188.039.251.219.251h.04v.065c-.1 0-.201-.008-.302-.008-.104 0-.212.008-.317.008v-.065h.033c.161 0 .21-.1.21-.272v-.904c0-.12-.108-.193-.212-.193h-.03v-.065c.088 0 .179.009.267.009.07 0 .139-.009.208-.009l1.04 1.076z" fill="#1A1918"/>
        <path d="M12.134 17.834v-.001l-.002-.001.002.002zm.005.004l.008-.006-.008.006zm.046.446h.078a1.287 1.287 0 0 1-.013-.207v-.978c0-.257.118-.281.218-.281h.025v-.046c-.092 0-.184.008-.277.008-.107 0-.21-.008-.317-.008v.046h.041c.072 0 .214.03.214.21l-.003.812-.005.004-.008.007-1.038-1.079c-.069 0-.137.008-.208.008-.085 0-.173-.008-.257-.008v.046h.02c.11 0 .222.077.222.202v.904c0 .172-.052.282-.22.282h-.022v.046c.1-.001.204-.009.306-.009.098 0 .195.008.291.009v-.046h-.03c-.183 0-.228-.074-.228-.26v-.91l1.211 1.248zm.09.019l-.097-.003-1.185-1.215v.86c.004.187.034.24.21.243h.05v.082h-.01c-.101 0-.202-.008-.302-.008-.104 0-.211.008-.317.008h-.01v-.082h.043c.154-.002.198-.093.2-.264v-.904c0-.114-.102-.184-.202-.184h-.041v-.083h.01c.09 0 .18.009.268.009.07 0 .137-.009.216-.005l1.026 1.061v-.79c-.002-.17-.125-.19-.194-.192h-.06v-.083h.01c.11 0 .218.009.327.009.095 0 .19-.009.287-.009h.01v.083h-.045c-.096.003-.195.01-.198.263v.978c0 .074.003.15.014.215l.002.01h-.012v.001zm.577-1.433c-.175 0-.181.039-.216.195h-.07c.009-.06.02-.12.028-.182a1.2 1.2 0 0 0 .014-.183h.056c.019.065.077.062.14.062h1.204c.063 0 .121-.002.126-.066l.056.009c-.009.057-.019.115-.026.174-.005.057-.005.116-.005.173l-.07.024c-.004-.08-.016-.206-.172-.206h-.383v1.142c0 .166.082.184.194.184h.044v.065c-.09 0-.254-.008-.38-.008-.14 0-.304.008-.395.008v-.065h.045c.128 0 .193-.01.193-.18V16.87h-.383z" fill="#1A1918"/>
        <path d="M13.773 18.27c-.093 0-.256-.008-.381-.008-.14 0-.303.008-.395.008h-.01v-.082h.055c.128-.003.18-.005.183-.171v-1.138h-.373v-.018h.393v1.156c0 .172-.075.19-.203.19h-.035v.045c.093-.001.25-.009.385-.009.122 0 .277.008.37.009v-.046h-.034c-.113 0-.204-.025-.204-.194V16.86h.393c.157 0 .177.122.182.202l.051-.017c0-.056 0-.112.004-.169l.024-.165-.035-.005c-.012.062-.077.066-.135.065h-1.216c-.055 0-.115-.002-.136-.062h-.039c0 .06-.004.117-.013.174-.007.059-.018.116-.026.172h.05c.03-.15.05-.198.224-.195v.018c-.172.003-.168.03-.207.188v.008h-.091l.001-.011c.01-.06.022-.12.029-.183.01-.06.014-.12.014-.18v-.01h.074l.001.007c.016.054.059.054.119.055h1.216c.064 0 .112-.002.116-.058v-.01l.011.002.066.01-.001.009c-.01.058-.019.115-.025.173-.005.057-.005.116-.005.173v.007l-.007.002-.083.028v-.013c-.006-.08-.016-.197-.163-.197h-.373v1.133c.003.162.073.173.184.176h.054v.082h-.01m.492-.073h.033c.084 0 .173-.01.173-.122V16.95c0-.112-.089-.123-.173-.123h-.033v-.065c.142 0 .386.009.581.009.197 0 .439-.009.597-.009-.003.11-.001.22.006.329l-.07.017c-.012-.14-.04-.25-.285-.25h-.324v.561h.277c.14 0 .171-.072.184-.188h.07c-.009.165-.009.33 0 .496l-.07.012c-.013-.128-.02-.212-.182-.212h-.278v.5c0 .14.135.14.284.14.28 0 .404-.017.474-.262l.065.015c-.03.114-.058.227-.08.341-.148 0-.417-.008-.627-.008-.21 0-.488.008-.62.008v-.065" fill="#1A1918"/>
        <path d="M15.504 18.252c.02-.109.047-.217.076-.325l-.046-.01c-.07.24-.205.26-.48.259-.148 0-.295 0-.296-.15v-.508h.29c.164-.002.18.089.191.21l.05-.009a4.635 4.635 0 0 1 0-.48h-.05c-.013.113-.05.191-.193.19h-.288v-.581h.335c.243-.002.283.114.293.248l.05-.012a3.325 3.325 0 0 1-.004-.312c-.159 0-.395.008-.587.008-.191 0-.428-.008-.57-.008v.046h.022c.083 0 .183.013.183.132v1.124c0 .119-.1.132-.183.132h-.023v.046c.136 0 .406-.009.61-.009.207 0 .47.008.62.009zm.009.018c-.15 0-.418-.009-.628-.009-.21 0-.487.01-.62.01h-.01v-.083h.042c.084-.002.162-.009.162-.114V16.95c0-.105-.078-.112-.162-.114h-.043v-.083h.01c.143 0 .386.009.581.009.196 0 .439-.009.597-.009h.01v.01c-.004.109-.003.218.004.327l.001.008-.007.002-.082.02v-.011c-.015-.14-.034-.24-.275-.243h-.315v.544h.268c.135 0 .158-.065.174-.18l.001-.009h.09v.01c-.01.165-.01.33 0 .496v.007l-.008.002-.082.014v-.01c-.017-.13-.018-.202-.173-.204h-.27v.49c0 .132.123.13.275.132.281-.002.394-.015.464-.256l.002-.009.01.002.075.018-.002.009c-.03.113-.058.227-.08.34v.008h-.01.001zm.693-.782h.114c.234 0 .36-.081.36-.335 0-.19-.134-.313-.341-.313-.07 0-.1.007-.133.008v.64zm-.299-.498c0-.157-.093-.163-.165-.163h-.043v-.065c.075 0 .22.009.362.009.14 0 .252-.009.376-.009.293 0 .555.073.555.378 0 .194-.14.311-.324.379l.4.548c.064.092.11.117.225.13v.064c-.077 0-.151-.008-.228-.008-.073 0-.148.008-.22.008a5.938 5.938 0 0 1-.485-.696h-.154v.46c0 .166.084.171.191.171h.043v.065c-.134 0-.27-.008-.402-.008-.112 0-.222.008-.339.008v-.065h.043c.085 0 .165-.036.165-.115V16.99z" fill="#1A1918"/>
        <path d="M16.32 17.479c.231-.002.348-.076.35-.325-.002-.188-.128-.304-.331-.305-.064 0-.093.005-.123.008v.622h.104zm-.114.018h-.01v-.657h.008c.032-.004.064-.009.135-.009.212 0 .35.127.35.323 0 .256-.134.343-.369.343h-.114zm0 .06h.16l.002.004c.152.247.305.478.477.691.072 0 .147-.009.219-.009.074 0 .147.007.219.009v-.048a.269.269 0 0 1-.224-.13l-.407-.56.012-.004c.183-.067.318-.181.318-.37 0-.297-.252-.367-.545-.368-.123 0-.236.008-.376.008-.137 0-.275-.008-.352-.008v.046h.033c.072 0 .175.01.175.172v1.09c0 .087-.087.126-.175.126h-.033v.046c.113 0 .219-.009.328-.009.131 0 .262.008.392.009v-.046h-.032c-.106 0-.201-.012-.201-.181v-.469h.01v.001zm1.087.713c-.078 0-.152-.008-.23-.008-.07 0-.145.008-.226.005a6.03 6.03 0 0 1-.483-.692h-.138v.45c.002.161.073.16.181.163h.052v.082h-.01c-.134 0-.27-.008-.402-.008-.111 0-.22.008-.338.008h-.01v-.082h.053c.083-.001.154-.035.155-.107v-1.09c-.002-.153-.083-.153-.155-.155h-.053v-.083h.01c.076 0 .22.009.362.009.14 0 .252-.009.376-.009.294 0 .565.076.566.387 0 .194-.14.315-.32.382l.392.54c.065.09.106.112.22.126h.008v.082h-.01zm1.584-.432l.005-.004v-.805c0-.176-.133-.202-.203-.202h-.051v-.065c.11 0 .216.009.327.009.095 0 .19-.009.287-.009v.065h-.035c-.098 0-.208.017-.208.272v.978c0 .075.002.15.014.216h-.089l-1.201-1.232v.884c0 .188.04.251.22.251h.039v.065c-.1 0-.201-.008-.302-.008-.105 0-.212.008-.317.008v-.065h.032c.162 0 .21-.1.21-.272v-.904c0-.12-.107-.193-.212-.193h-.03v-.065c.088 0 .18.009.268.009.07 0 .138-.009.208-.009l1.038 1.076z" fill="#1A1918"/>
        <path d="M18.872 17.834v-.001l-.002-.001.002.002zm.005.004l.008-.006-.008.006zm.047.446h.077a1.414 1.414 0 0 1-.012-.207v-.978c0-.257.118-.28.218-.281h.024v-.046c-.091 0-.184.008-.276.008-.107 0-.212-.008-.317-.008v.046h.041c.072 0 .214.03.214.21l-.004.812-.004.004-.008.008-1.038-1.08c-.07 0-.137.008-.208.008-.086 0-.173-.008-.258-.008v.046h.02c.11 0 .223.076.223.202v.904c0 .172-.053.282-.22.282h-.023v.046c.101-.001.205-.009.307-.009.098 0 .195.008.291.009v-.046h-.029c-.184 0-.23-.073-.23-.26v-.91l1.212 1.248zm.089.019l-.096-.003-1.185-1.215v.86c.003.188.034.24.21.243h.05v.082h-.01c-.102 0-.202-.009-.302-.009-.104 0-.212.01-.317.01h-.01v-.083h.042c.154-.001.199-.093.2-.264v-.904c0-.114-.101-.184-.202-.184h-.04v-.083h.01c.089 0 .18.009.268.009.07 0 .137-.009.215-.006l1.026 1.062v-.79c0-.17-.125-.19-.193-.192h-.061v-.083h.01c.11 0 .218.009.327.009.095 0 .19-.009.287-.009h.01v.083h-.045c-.096.002-.195.01-.198.263v.978c0 .074.002.149.014.215l.001.01h-.011v.001zm.945-1.3h-.005l-.217.608h.436l-.214-.608zm-.34.951c-.024.073-.053.13-.053.167 0 .065.1.075.176.075h.026v.065a4.902 4.902 0 0 0-.535 0v-.065h.014a.21.21 0 0 0 .203-.139l.373-.985c.03-.08.073-.187.087-.267.074-.023.168-.066.212-.092.007-.002.011-.004.019-.004.007 0 .011 0 .016.006l.021.054.43 1.123c.027.075.056.155.086.22.028.06.077.084.154.084h.014v.065a7.707 7.707 0 0 0-.672 0v-.065h.026c.053 0 .144-.008.144-.061a.619.619 0 0 0-.047-.155l-.09-.25h-.53l-.074.224z" fill="#1A1918"/>
        <path d="M19.948 17.006l.005-.002-.005.002zm-.198.595h.408l-.203-.575-.205.575zm-.028.02l.223-.627h.013v.009h-.002.002v-.01h.007l.221.627h-.464v.001zm.477.63c.115-.003.229-.008.34-.008.109 0 .21.005.312.008v-.045h-.004c-.08 0-.135-.028-.164-.091-.03-.065-.058-.145-.086-.22l-.43-1.123-.02-.052c-.002-.002 0-.002-.003-.002h-.004a.04.04 0 0 0-.014.003.93.93 0 0 1-.208.086c-.014.081-.056.188-.086.268l-.374.985a.222.222 0 0 1-.212.146h-.004v.045c.08-.003.16-.008.242-.008.09 0 .182.005.272.008v-.045h-.015c-.076 0-.183-.008-.185-.084 0-.043.028-.098.051-.17l.01.002-.01-.003.077-.23h.544l.093.256a.583.583 0 0 1 .048.158c-.003.065-.102.07-.154.071h-.016v.045zm.661.02a6.59 6.59 0 0 0-.32-.01c-.115 0-.231.005-.35.01h-.011v-.084h.036c.054 0 .134-.011.134-.052a.631.631 0 0 0-.046-.152l-.089-.243H19.7l-.073.217c-.024.073-.051.13-.051.165 0 .052.088.065.166.065h.035v.084h-.01a5.35 5.35 0 0 0-.282-.01c-.084 0-.168.005-.252.01h-.01v-.084h.024a.198.198 0 0 0 .193-.133l.374-.985c.03-.08.072-.187.092-.272.073-.023.167-.067.212-.093.007-.002.013-.005.023-.005.005 0 .018.002.025.013l.021.054.43 1.123c.028.075.056.154.086.218.027.057.07.08.145.08h.024v.084h-.012zm.104-1.401c-.176 0-.182.039-.217.195h-.07c.009-.06.02-.12.027-.182.01-.06.015-.12.015-.183h.056c.018.065.077.062.14.062h1.204c.063 0 .12-.002.125-.066l.056.009c-.01.058-.017.116-.025.174-.005.057-.005.116-.005.173l-.07.024c-.004-.08-.016-.206-.172-.206h-.383v1.142c0 .166.082.184.194.184h.044v.065c-.091 0-.254-.008-.38-.008-.14 0-.304.008-.395.008v-.065h.044c.13 0 .194-.01.194-.18V16.87h-.382z" fill="#1A1918"/>
        <path d="M21.883 18.27c-.091 0-.255-.008-.38-.008-.14 0-.303.008-.395.008h-.01v-.082h.054c.13-.003.18-.005.184-.171v-1.138h-.372v-.018h.392v1.156c0 .172-.075.189-.204.19h-.034v.045c.092-.001.249-.009.385-.009.121 0 .278.008.37.009v-.046h-.035c-.112 0-.203-.025-.203-.194V16.86h.393c.157 0 .177.122.181.202l.051-.017c0-.056 0-.112.005-.169.006-.055.015-.11.024-.164l-.035-.006c-.011.062-.077.066-.135.065h-1.216c-.056 0-.115-.002-.136-.063h-.038c-.001.06-.005.118-.015.175-.006.06-.017.116-.026.172h.05c.03-.15.05-.198.226-.195v.018c-.174.003-.17.03-.208.188l-.001.008h-.09l.001-.011c.01-.06.021-.12.028-.182.01-.06.014-.12.014-.182v-.01h.074l.002.008c.016.054.06.054.119.055h1.216c.064 0 .112-.002.115-.058v-.01l.012.002.066.01-.002.009a3.43 3.43 0 0 0-.025.173c-.005.057-.005.116-.005.173v.007l-.007.002-.082.028v-.013c-.006-.08-.016-.197-.163-.197h-.373v1.133c.002.162.072.173.183.176h.055v.082h-.01m.504-.073h.032c.085 0 .173-.01.173-.122V16.95c0-.112-.088-.123-.173-.123h-.032v-.065c.09 0 .23.009.345.009.116 0 .256-.009.367-.009v.065h-.033c-.084 0-.174.01-.174.123v1.124c0 .112.09.122.174.122h.033v.065c-.113 0-.252-.008-.37-.008-.114 0-.251.008-.342.008v-.065" fill="#1A1918"/>
        <path d="M23.088 18.252v-.046h-.022c-.084 0-.183-.013-.183-.132V16.95c0-.119.1-.132.183-.132h.022v-.046c-.108 0-.242.008-.356.008-.111 0-.245-.008-.335-.008v.046h.022c.083 0 .183.013.183.132v1.124c0 .119-.1.132-.183.132h-.022v.046c.09-.002.222-.009.333-.009.113 0 .248.008.358.009zm.01.018c-.112 0-.252-.009-.368-.009-.115 0-.252.01-.343.01h-.01v-.083h.042c.085-.002.162-.009.162-.114V16.95c0-.105-.077-.112-.162-.114h-.042v-.083h.01c.09 0 .23.009.345.009.116 0 .256-.009.367-.009h.009v.083h-.042c-.085.002-.162.009-.163.114v1.124c0 .105.078.112.163.114h.042v.082h-.01zm.966-.071c.454 0 .532-.367.532-.68 0-.314-.184-.694-.571-.694-.409 0-.53.335-.53.622 0 .385.192.752.57.752h-.001zm-.035-1.469c.498 0 .894.284.894.741 0 .494-.385.822-.882.822-.495 0-.872-.308-.872-.77 0-.447.375-.793.86-.793z" fill="#1A1918"/>
        <path d="M23.485 17.447c0-.289.124-.632.54-.632.396.001.58.388.581.704 0 .313-.08.689-.542.689v-.018c.445 0 .521-.358.522-.671 0-.312-.182-.684-.561-.685-.4 0-.52.327-.52.613 0 .383.19.742.56.743v.018c-.388 0-.58-.374-.58-.76v-.001zm-.327.075c.001-.451.38-.8.871-.801v.019c-.48 0-.851.34-.851.782 0 .457.373.761.863.762.492 0 .872-.324.873-.813 0-.452-.391-.73-.885-.731v-.02c.501.002.903.288.904.75 0 .5-.39.832-.892.833-.499-.001-.882-.314-.883-.78v-.001zm3.338.316l.005-.004v-.805c0-.176-.133-.202-.204-.202h-.05v-.065c.109 0 .217.009.326.009.096 0 .192-.009.287-.009v.065h-.035c-.098 0-.208.017-.208.272v.978c0 .075.003.15.014.216h-.089l-1.201-1.232v.884c0 .188.04.251.22.251h.039v.065c-.1 0-.2-.008-.301-.008-.105 0-.213.008-.318.008v-.065h.033c.161 0 .21-.1.21-.272v-.904c0-.12-.107-.193-.213-.193h-.03v-.065c.089 0 .18.009.269.009.07 0 .137-.009.207-.009l1.04 1.076h-.001z" fill="#1A1918"/>
        <path d="M26.49 17.834v-.001l-.002-.001.002.002zm.006.004l.008-.006-.008.006zm.046.446h.077a1.336 1.336 0 0 1-.012-.207v-.978c0-.257.118-.28.218-.281h.025v-.046c-.092 0-.184.008-.278.008-.105 0-.21-.008-.316-.008v.046h.041c.073 0 .214.03.214.21l-.003.812-.004.004-.008.008-1.039-1.08c-.069 0-.137.008-.207.008-.087 0-.174-.008-.259-.008v.046h.02c.11 0 .223.076.223.202v.904c0 .172-.052.282-.22.282h-.023v.046c.102-.001.205-.009.308-.009.097 0 .194.008.29.009v-.046h-.03c-.183 0-.228-.073-.228-.26v-.91l1.211 1.248zm.09.019l-.097-.003-1.185-1.215v.86c.003.188.034.24.21.242h.05v.083h-.01c-.101 0-.201-.008-.301-.008-.105 0-.212.008-.318.008h-.01v-.083h.043c.154 0 .198-.092.2-.263v-.904c0-.114-.102-.184-.203-.184h-.04v-.083h.01c.09 0 .18.009.269.009.069 0 .136-.009.215-.005l1.025 1.061v-.79c0-.17-.124-.19-.193-.192h-.06v-.083h.01c.11 0 .217.009.325.009.096 0 .191-.009.288-.009h.01v.083h-.045c-.096.003-.195.01-.197.263v.978c0 .074.002.15.012.215l.002.01h-.01v.001zm.944-1.3h-.005l-.217.608h.437l-.215-.608zm-.341.951c-.023.073-.05.13-.05.167 0 .065.098.075.174.075h.026v.065a4.85 4.85 0 0 0-.534 0v-.065h.013a.21.21 0 0 0 .203-.139l.374-.985c.03-.08.072-.187.086-.267.075-.023.168-.066.212-.092.008-.002.012-.004.02-.004.006 0 .01 0 .015.006l.022.054.43 1.123c.026.075.055.155.085.22.028.06.078.084.155.084h.013v.065a7.717 7.717 0 0 0-.672 0v-.065h.026c.053 0 .145-.008.145-.061a.647.647 0 0 0-.047-.155l-.091-.25h-.53l-.075.224z" fill="#1A1918"/>
        <path d="M27.567 17.006l.004-.002-.004.002zm-.199.595h.409l-.204-.575-.205.575zm-.028.018l.225-.625h.01v.009h-.001.002v-.01h.007l.221.626h-.464zm.477.632c.115-.003.23-.008.34-.008.109 0 .21.005.312.008v-.045h-.004c-.079 0-.134-.028-.163-.091-.031-.065-.059-.145-.087-.22l-.429-1.123a1.816 1.816 0 0 1-.02-.051c-.002-.003-.002-.003-.004-.003h-.004c-.005 0-.007.001-.013.003a.91.91 0 0 1-.209.086c-.013.081-.056.188-.086.268l-.374.985a.22.22 0 0 1-.212.146h-.004v.045c.08-.003.161-.008.242-.008.09 0 .183.005.273.008v-.045h-.016c-.076 0-.182-.008-.185-.085 0-.042.03-.097.052-.17l.009.003-.009-.003.077-.23h.544l.093.256a.61.61 0 0 1 .047.158c-.003.065-.101.07-.155.071h-.015v.045zm.662.02c-.105-.004-.21-.01-.322-.01-.114 0-.23.006-.35.01h-.01v-.083h.035c.055 0 .135-.012.136-.053a.628.628 0 0 0-.047-.152l-.089-.243h-.515l-.072.217c-.023.074-.051.13-.05.164 0 .053.087.067.164.067h.035v.083h-.01c-.093-.004-.189-.01-.282-.01-.084 0-.167.006-.251.01h-.01v-.083h.023a.203.203 0 0 0 .194-.134l.373-.985c.03-.08.072-.187.092-.272.074-.023.168-.067.213-.093a.062.062 0 0 1 .022-.004.026.026 0 0 1 .026.012c.007.017.013.037.021.054l.43 1.123c.027.075.055.154.086.218.027.057.07.08.144.08h.024v.084h-.01zm.589-.221c0 .087.065.112.14.121.095.007.2.007.308-.004a.338.338 0 0 0 .223-.116.482.482 0 0 0 .073-.155h.067c-.025.123-.058.243-.086.365-.206 0-.411-.008-.616-.008-.205 0-.41.008-.616.008v-.065h.032c.085 0 .176-.01.176-.143V16.95c0-.112-.091-.123-.176-.123h-.032v-.065c.123 0 .245.009.368.009.12 0 .236-.009.356-.009v.065h-.06c-.088 0-.157.003-.157.116v1.108-.001z" fill="#1A1918"/>
        <path d="M29.785 18.252c.027-.117.057-.231.082-.347h-.048a.45.45 0 0 1-.072.151.35.35 0 0 1-.231.12 1.73 1.73 0 0 1-.31.004c-.076-.008-.15-.037-.149-.13v-1.107c0-.12.082-.125.169-.125h.048v-.046c-.115 0-.229.008-.345.008-.121 0-.24-.008-.358-.008v.046h.022c.083 0 .185.013.185.131v1.104c0 .138-.101.153-.185.153h-.022v.046c.2 0 .403-.009.606-.009.203 0 .405.008.608.009zm.008.018c-.206 0-.411-.008-.616-.008-.205 0-.41.008-.617.008h-.01v-.082h.043c.085-.002.165-.008.166-.135v-1.104c-.001-.104-.08-.111-.166-.113h-.042v-.083h.01c.124 0 .245.009.368.009.12 0 .236-.009.356-.009h.009v.083h-.068c-.09.002-.147-.001-.15.107v1.108c.002.08.058.101.132.11.102.007.204.006.306-.003a.335.335 0 0 0 .217-.112.459.459 0 0 0 .07-.152l.003-.008h.088l-.003.012c-.026.123-.058.243-.086.365l-.003.007h-.007zm.022-1.318h.03c.032 0 .047-.024.047-.063 0-.04-.024-.054-.05-.054h-.027v.117zm-.084.132v-.012c.03-.004.036-.003.036-.022v-.185c0-.027-.003-.036-.035-.034v-.013h.128c.043 0 .084.021.084.066 0 .038-.024.065-.059.076l.04.058a.27.27 0 0 0 .056.058v.008h-.049c-.023 0-.043-.049-.09-.115h-.027v.083c0 .017.006.016.036.02v.012h-.12zm.124.071c.11-.002.2-.092.198-.203a.201.201 0 0 0-.198-.204.202.202 0 0 0-.198.204.2.2 0 0 0 .198.203zm0-.453c.143 0 .25.11.25.25 0 .141-.107.25-.25.25a.245.245 0 0 1-.25-.25c0-.14.108-.25.25-.25z" fill="#1A1918"/>
        <path d="M7.6 21.4h23.8V1.6H7.6v19.8zM7 1h25v21H7V1z" fill="#0069AA"/>
        <path d="M20.775 8.754a2.386 2.386 0 0 0-1.491-2.225v4.45a2.386 2.386 0 0 0 1.491-2.225zm-3.154 2.224v-4.45a2.387 2.387 0 0 0-1.49 2.226 2.386 2.386 0 0 0 1.49 2.224zm.832-5.986c-2.024 0-3.663 1.684-3.663 3.762 0 2.077 1.64 3.76 3.663 3.76 2.023 0 3.663-1.683 3.664-3.76 0-2.078-1.64-3.761-3.664-3.762zm-.009 7.878c-2.214.01-4.037-1.831-4.037-4.073 0-2.45 1.823-4.145 4.037-4.145h1.038c2.187 0 4.185 1.694 4.185 4.145 0 2.24-1.998 4.073-4.185 4.073h-1.038z" fill="#0069AA"/>
    </g>
</svg>
