<svg xmlns="http://www.w3.org/2000/svg" viewBox="0 0 43.76 32.07">
  <title>
    Diners
  </title>
  <defs>
    <style>
      .diners-cls-1 {
        fill: #fff;
      }
      .diners-cls-2 {
        fill: #005288;
      }
      .diners-cls-3 {
        fill: #231f20;
      }
    </style>
  </defs>
  <g id="Layer_2" data-name="Layer 2">
    <g id="Layer_1-2" data-name="Layer 1">
      <path
        class="diners-cls-1"
        d="M43.51,29a2.89,2.89,0,0,1-2.93,2.86H3.18A2.89,2.89,0,0,1,.25,29V3.12A2.9,2.9,0,0,1,3.18.25h37.4a2.9,2.9,0,0,1,2.93,2.87Z"
      />
      <path
        class="diners-cls-2"
        d="M.5,3.12V29a2.65,2.65,0,0,0,2.68,2.62h37.4A2.66,2.66,0,0,0,43.26,29V3.12A2.65,2.65,0,0,0,40.58.5H3.18A2.64,2.64,0,0,0,.5,3.12m2.68,29A3.15,3.15,0,0,1,0,29V3.12A3.15,3.15,0,0,1,3.18,0h37.4a3.15,3.15,0,0,1,3.18,3.12V29a3.15,3.15,0,0,1-3.18,3.11Z"
      />
      <path
        class="diners-cls-3"
        d="M5,23.05c0,.61.43.68.81.68a2.19,2.19,0,0,0,2.26-2.46,2.37,2.37,0,0,0-2.46-2.54,5.45,5.45,0,0,0-.61,0Zm-.78-3.69c0-.71-.37-.67-.72-.67v-.21c.31,0,.62,0,.93,0l1.36,0a2.87,2.87,0,0,1,3.15,2.76C8.94,22,8.48,24,5.7,24L4.55,24l-1,0v-.21c.47,0,.7-.06.72-.59Z"
      />
      <path
        class="diners-cls-3"
        d="M10.06,19.17a.41.41,0,0,1-.39-.4.41.41,0,0,1,.39-.38.4.4,0,0,1,.39.38.4.4,0,0,1-.39.4m-.84,4.6h.15c.22,0,.37,0,.37-.26V21.38c0-.35-.11-.39-.41-.55V20.7c.37-.11.82-.26.85-.28a.27.27,0,0,1,.14,0s0,.05,0,.11v3c0,.26.18.26.4.26h.13V24l-.82,0-.86,0Z"
      />
      <path
        class="diners-cls-3"
        d="M11.65,21.43c0-.29-.09-.37-.46-.52v-.15a9.58,9.58,0,0,0,1-.38s0,0,0,.08V21a2.34,2.34,0,0,1,1.36-.59c.67,0,.91.49.91,1.1v2c0,.26.17.26.39.26h.14V24l-.83,0-.85,0v-.21h.14c.22,0,.38,0,.38-.26v-2c0-.44-.28-.66-.73-.66a2.12,2.12,0,0,0-.91.37v2.33c0,.26.17.26.39.26h.15V24L12,24l-.85,0v-.21h.14c.22,0,.38,0,.38-.26Z"
      />
      <path
        class="diners-cls-3"
        d="M17.08,21.55c.19,0,.22-.1.22-.19a.67.67,0,0,0-.69-.73c-.48,0-.81.36-.9.92Zm-1.4.26a3,3,0,0,0,0,.45,1.32,1.32,0,0,0,1.16,1.36,1.5,1.5,0,0,0,1.06-.52l.11.11a1.84,1.84,0,0,1-1.45.89,1.59,1.59,0,0,1-1.51-1.72,1.76,1.76,0,0,1,1.59-2A1.24,1.24,0,0,1,18,21.62v.14l-.07,0Z"
      />
      <path
        class="diners-cls-3"
        d="M18.16,23.77h.21c.22,0,.38,0,.38-.26V21.3c0-.24-.3-.29-.41-.35v-.12c.57-.25.89-.45,1-.45s.07,0,.07.1v.71h0c.2-.31.53-.81,1-.81a.43.43,0,0,1,.45.42.38.38,0,0,1-.37.4c-.24,0-.24-.19-.52-.19a.66.66,0,0,0-.57.65v1.85c0,.26.15.26.37.26h.44V24l-1.1,0-.93,0Z"
      />
      <path
        class="diners-cls-3"
        d="M21.19,22.88a1,1,0,0,0,1,1c.46,0,.64-.28.64-.55,0-.93-1.72-.63-1.72-1.9a1.08,1.08,0,0,1,1.22-1,2.07,2.07,0,0,1,.9.23l.05.8h-.18a.81.81,0,0,0-.86-.78.55.55,0,0,0-.61.52c0,.92,1.83.64,1.83,1.88,0,.52-.42,1.07-1.36,1.07a2.07,2.07,0,0,1-1-.27L21,22.92Z"
      />
      <path
        class="diners-cls-3"
        d="M30.56,19.91h-.2a1.49,1.49,0,0,0-1.68-1.29,2.24,2.24,0,0,0-2.23,2.49,2.57,2.57,0,0,0,2.35,2.73,1.59,1.59,0,0,0,1.58-1.36l.19.05-.19,1.15a4.5,4.5,0,0,1-1.74.42,2.8,2.8,0,0,1-3-3,2.9,2.9,0,0,1,3-2.78,5.77,5.77,0,0,1,1.86.42Z"
      />
      <path
        class="diners-cls-3"
        d="M30.84,23.77H31c.22,0,.38,0,.38-.26V19.13c0-.51-.12-.53-.42-.62v-.12a4.81,4.81,0,0,0,.81-.34.7.7,0,0,1,.18-.09s.06.05.06.11v5.44c0,.26.17.26.39.26h.14V24l-.83,0-.86,0Z"
      />
      <path
        class="diners-cls-3"
        d="M35.9,23.55c0,.14.08.14.22.14h.31v.16a7.28,7.28,0,0,0-1.13.25l0,0v-.63a2.16,2.16,0,0,1-1.4.66.85.85,0,0,1-.86-.94v-2c0-.2,0-.4-.47-.44v-.15c.28,0,.91-.05,1-.05s.09.05.09.23v2c0,.23,0,.91.68.91a1.73,1.73,0,0,0,1-.48V21.07c0-.15-.38-.24-.66-.32v-.14c.7-.05,1.15-.11,1.22-.11s.07.05.07.14Z"
      />
      <path
        class="diners-cls-3"
        d="M37.46,23.09a.85.85,0,0,0,.82.8c.84,0,1.19-.82,1.19-1.53a1.49,1.49,0,0,0-1.26-1.55,1.2,1.2,0,0,0-.75.37Zm0-2.14a2,2,0,0,1,1.18-.57A1.53,1.53,0,0,1,40.1,22a2,2,0,0,1-1.88,2.07,2.24,2.24,0,0,1-1.09-.28l-.24.18-.17-.08a8.29,8.29,0,0,0,.11-1.41V19.13c0-.51-.11-.53-.41-.62v-.12a5.66,5.66,0,0,0,.81-.34A.7.7,0,0,1,37.4,18c.05,0,.06.05.06.11Z"
      />
      <path
        class="diners-cls-3"
        d="M3.49,28.56h.06c.16,0,.32,0,.32-.25V26.07c0-.22-.16-.25-.32-.25H3.49V25.7H4.8v.12H4.74c-.16,0-.32,0-.32.25v2.24c0,.23.16.25.32.25H4.8v.13l-.68,0-.63,0Z"
      />
      <path
        class="diners-cls-3"
        d="M4.78,28.67v-.09h0c-.16,0-.34,0-.34-.27V26.07c0-.24.18-.26.34-.26h0v-.1l-.65,0-.62,0v.1h0c.15,0,.34,0,.34.26v2.24c0,.24-.19.27-.34.27h0v.09l.61,0,.66,0m0,0H3.47v-.15h.08c.16,0,.3,0,.3-.23V26.07c0-.21-.14-.22-.3-.23H3.47v-.16H4.82v.16H4.74c-.16,0-.3,0-.3.23v2.24c0,.21.14.23.3.23h.08v.16Z"
      />
      <path
        class="diners-cls-3"
        d="M7.74,27.84h0v-1.6a.36.36,0,0,0-.37-.41h-.1V25.7H8.41v.12H8.35c-.18,0-.39,0-.39.55v1.95a2.9,2.9,0,0,0,0,.43H7.83L5.62,26.29v1.77c0,.37.07.5.4.5H6.1v.13l-.56,0-.58,0v-.13H5c.3,0,.39-.2.39-.55v-1.8A.39.39,0,0,0,5,25.82H5V25.7h.87Z"
      />
      <path
        class="diners-cls-3"
        d="M7.73,27.83Zm0,0h0Zm.09.89H8a2.75,2.75,0,0,1,0-.41V26.37c0-.52.21-.56.4-.57h0v-.09l-.51,0-.58,0v.09h.08a.38.38,0,0,1,.39.43v1.62h0v0L5.83,25.71l-.38,0-.47,0v.09H5a.41.41,0,0,1,.4.41V28c0,.35-.09.57-.4.57H5v.09l.56,0,.54,0v-.09H6c-.33,0-.42-.15-.42-.52V26.24Zm.16,0H7.81L5.64,26.34v1.72c0,.37.06.47.38.48h.09v.16H4.94v-.15H5c.28,0,.36-.18.37-.53v-1.8A.37.37,0,0,0,5,25.84H4.94v-.16h.91L7.73,27.8V26.23a.34.34,0,0,0-.35-.39H7.26v-.16H8.43v.16H8.35c-.18,0-.36,0-.37.53v1.95a2.9,2.9,0,0,0,0,.43v0Z"
      />
      <path
        class="diners-cls-3"
        d="M9.05,25.91c-.32,0-.33.08-.4.39H8.52l.06-.36c0-.13,0-.24,0-.37h.1c0,.13.15.13.26.13h2.21c.12,0,.23,0,.23-.14l.11,0c0,.12,0,.23,0,.35s0,.23,0,.34l-.13.05c0-.16,0-.41-.31-.41H10.3v2.28c0,.33.15.37.36.37h.08v.13l-.7,0-.72,0v-.13H9.4c.24,0,.35,0,.35-.36V25.91Z"
      />
      <path
        class="diners-cls-3"
        d="M10.74,28.7H9.3v-.15h.1c.24,0,.33,0,.34-.34V25.93H9.05v0h.72V28.2c0,.34-.14.38-.37.38H9.34v.09l.7,0,.68,0v-.09h-.06c-.21,0-.38,0-.38-.39v-2.3H11c.28,0,.32.25.33.41l.09,0c0-.11,0-.22,0-.34s0-.22.05-.33h-.07c0,.13-.14.14-.25.13H8.94c-.1,0-.21,0-.25-.12H8.62c0,.12,0,.23,0,.35s0,.23,0,.34h.09c.06-.3.09-.39.41-.39v0c-.32,0-.31.06-.38.37v0H8.5v0c0-.12,0-.24.05-.37a2.17,2.17,0,0,0,0-.36v0h.14v0c0,.1.11.1.22.11h2.23c.12,0,.21,0,.22-.12v0h0l.12,0v0c0,.12,0,.23,0,.35s0,.23,0,.34v0h0l-.15.06v0c0-.16,0-.39-.3-.39h-.69v2.26c0,.32.13.34.34.35h.1v.16Z"
      />
      <path
        class="diners-cls-3"
        d="M11.64,28.56h.06c.16,0,.32,0,.32-.25V26.07c0-.22-.16-.25-.32-.25h-.06V25.7h2.17a4.73,4.73,0,0,0,0,.65l-.13,0c0-.28-.07-.51-.52-.51h-.6V27h.51c.26,0,.31-.15.34-.38h.13c0,.17,0,.33,0,.5s0,.33,0,.49l-.13,0c0-.25,0-.42-.34-.42h-.51v1c0,.28.25.28.52.28.52,0,.74,0,.87-.52l.12,0c-.05.23-.11.46-.14.69l-1.16,0-1.14,0Z"
      />
      <path
        class="diners-cls-3"
        d="M13.92,28.67c0-.22.09-.44.14-.65L14,28c-.12.48-.37.52-.88.52-.27,0-.54,0-.54-.3v-1h.53c.3,0,.33.18.35.42l.1,0c0-.15,0-.31,0-.47s0-.32,0-.48h-.1c0,.22-.09.38-.35.37h-.53V25.86h.62c.44,0,.51.23.53.5l.1,0c0-.12,0-.28,0-.42s0-.15,0-.21l-1.08,0-1.05,0v.09h0c.16,0,.34,0,.34.27v2.24c0,.24-.18.27-.34.27h0v.09l1.12,0,1.14,0m0,0H11.63v-.15h.07c.16,0,.3,0,.3-.23V26.07c0-.21-.14-.22-.3-.23h-.07v-.16h2.2v0a1.48,1.48,0,0,0,0,.22c0,.15,0,.31,0,.43h0l-.15,0v0c0-.28-.06-.48-.5-.49h-.58V27h.49c.25,0,.29-.13.32-.36v0h.17v0c0,.17,0,.33,0,.5s0,.33,0,.49h0l-.15,0v0c0-.26,0-.41-.32-.41h-.49v1c0,.26.22.26.5.26.52,0,.72,0,.85-.51v0h0l.13,0v0c-.06.23-.11.45-.15.68h0Z"
      />
      <path
        class="diners-cls-3"
        d="M15.21,27.14h.21c.43,0,.66-.16.66-.67a.59.59,0,0,0-.63-.62,1.17,1.17,0,0,0-.24,0Zm-.55-1c0-.31-.17-.33-.3-.33h-.08V25.7h1.35c.54,0,1,.14,1,.75a.79.79,0,0,1-.59.75l.73,1.1a.49.49,0,0,0,.42.26v.13l-.42,0-.41,0a13.16,13.16,0,0,1-.89-1.39h-.28v.92c0,.33.15.34.35.34h.08v.13l-.74,0-.62,0v-.13h.08c.15,0,.3-.08.3-.23Z"
      />
      <path
        class="diners-cls-3"
        d="M15.42,27.12c.42,0,.64-.15.64-.64a.56.56,0,0,0-.61-.61h-.22v1.24Zm-.21,0h0V25.85h0a1.1,1.1,0,0,1,.24,0,.61.61,0,0,1,.65.65c0,.51-.25.68-.68.68Zm0,.12h.3a15.47,15.47,0,0,0,.87,1.38l.4,0,.41,0v-.1a.49.49,0,0,1-.42-.26L16,27.2h0a.79.79,0,0,0,.58-.74c0-.6-.46-.73-1-.74l-.69,0-.64,0v.09h.06c.13,0,.32,0,.32.35v2.18c0,.17-.16.25-.32.25H14.3v.09l.6,0,.72,0v-.09h-.06c-.2,0-.37,0-.37-.37v-.93Zm2,1.42h-.84a12.07,12.07,0,0,1-.89-1.38h-.25v.89c0,.33.13.32.33.33h.1v.16h-1.4v-.15h.1c.15,0,.28-.07.28-.21V26.15c0-.3-.15-.3-.28-.31h-.1v-.16h1.37c.54,0,1,.15,1,.77a.8.8,0,0,1-.58.76l.71,1.08a.47.47,0,0,0,.41.25h0v.16Z"
      />
      <path
        class="diners-cls-3"
        d="M20.11,27.84h0v-1.6a.36.36,0,0,0-.37-.41h-.09V25.7h1.12v.12h-.06c-.18,0-.38,0-.38.55v1.95a3,3,0,0,0,0,.43H20.2L18,26.29v1.77c0,.37.08.5.41.5h.07v.13l-.55,0-.59,0v-.13h.06c.3,0,.39-.2.39-.55v-1.8a.39.39,0,0,0-.39-.39h-.06V25.7h.88Z"
      />
      <path
        class="diners-cls-3"
        d="M20.1,27.83Zm0,0h0Zm.09.89h.14a2.75,2.75,0,0,1,0-.41V26.37c0-.52.22-.56.4-.57h0v-.09l-.5,0-.59,0v.09h.08a.38.38,0,0,1,.39.43v1.62h0l0,0-1.9-2.16-.38,0-.48,0v.09h0a.42.42,0,0,1,.41.41V28c0,.35-.1.57-.41.57h0v.09l.57,0,.53,0v-.09H18.4c-.34,0-.43-.15-.43-.52V26.24Zm.16,0h-.17L18,26.34v1.72c0,.37.06.47.39.48h.09v.16H17.31v-.15h.08c.29,0,.37-.18.37-.53v-1.8a.37.37,0,0,0-.37-.37h-.08v-.16h.91L20.1,27.8V26.23c0-.34-.23-.39-.35-.39h-.11v-.16H20.8v.16h-.08c-.18,0-.36,0-.36.53v1.95a3,3,0,0,0,0,.43v0Z"
      />
      <path
        class="diners-cls-3"
        d="M22.1,26.18h0l-.4,1.21h.8Zm-.63,1.89a1.94,1.94,0,0,0-.09.34c0,.13.18.15.32.15h.05v.13l-.52,0-.47,0v-.13h0a.38.38,0,0,0,.37-.28l.69-2a5.34,5.34,0,0,0,.16-.53,2.92,2.92,0,0,0,.39-.18h.06s0,.07,0,.11L23.29,28a4.5,4.5,0,0,0,.16.44.27.27,0,0,0,.28.17h0v.13l-.6,0-.64,0v-.13h.05c.1,0,.26,0,.26-.13a1.25,1.25,0,0,0-.08-.31l-.17-.49h-1Z"
      />
      <path
        class="diners-cls-3"
        d="M22.08,26.18h0Zm-.36,1.19h.75l-.38-1.15Zm-.06,0,.41-1.25h0v0h0v0h0l.41,1.25Zm.88,1.26.62,0,.58,0v-.09h0a.29.29,0,0,1-.3-.19,3.72,3.72,0,0,1-.16-.44l-.79-2.24,0-.1h0a1.39,1.39,0,0,1-.39.17,3.32,3.32,0,0,1-.15.54l-.69,2a.41.41,0,0,1-.39.3h0v.09l.45,0,.5,0v-.09h0c-.14,0-.34,0-.34-.17a1.57,1.57,0,0,1,.09-.34h0l.14-.46h1l.18.51a1.75,1.75,0,0,1,.08.31c0,.13-.18.14-.28.15h0Zm1.21,0H22.5v-.17h.07c.1,0,.25,0,.25-.11a1.4,1.4,0,0,0-.09-.3l-.16-.48h-.95l-.13.43a2.14,2.14,0,0,0-.1.33c0,.1.17.13.31.13h.06v.17h-1v-.17h0a.36.36,0,0,0,.35-.27l.69-2a5,5,0,0,0,.17-.55,1.79,1.79,0,0,0,.39-.18h0s0,0,.05,0a.36.36,0,0,0,0,.11l.79,2.24c.05.15.1.31.15.44a.26.26,0,0,0,.27.16h0v.17Z"
      />
      <path
        class="diners-cls-3"
        d="M23.94,25.91c-.32,0-.33.08-.39.39h-.13c0-.12,0-.24,0-.36a2.3,2.3,0,0,0,0-.37h.11c0,.13.14.13.25.13h2.22c.11,0,.22,0,.23-.14l.1,0c0,.12,0,.23,0,.35s0,.23,0,.34l-.13.05c0-.16,0-.41-.31-.41h-.7v2.28c0,.33.15.37.35.37h.08v.13l-.7,0-.72,0v-.13h.08c.24,0,.36,0,.36-.36V25.91Z"
      />
      <path
        class="diners-cls-3"
        d="M25.63,28.7H24.19v-.15h.1c.24,0,.33,0,.34-.34V25.93h-.69v0h.73V28.2c0,.34-.14.38-.38.38h-.06v.09l.7,0,.68,0v-.09h-.06c-.21,0-.37,0-.37-.39v-2.3h.72c.29,0,.32.25.33.41l.09,0c0-.11,0-.22,0-.34s0-.22.05-.32l-.07,0c0,.13-.14.14-.24.13H23.83c-.1,0-.21,0-.25-.12h-.07c0,.12,0,.23,0,.35s0,.23,0,.34h.09c.06-.3.09-.39.41-.39v0c-.31,0-.31.06-.38.37v0H23.4v0c0-.12,0-.24.05-.37a2.17,2.17,0,0,0,0-.36v0h.14v0c0,.1.11.1.22.11h2.24c.11,0,.2,0,.21-.12v0h0l.12,0v0c0,.12,0,.23-.05.35s0,.23,0,.34v0h0l-.15.06v0c0-.16,0-.39-.3-.39h-.69v2.26c0,.32.14.34.34.35h.1v.16Z"
      />
      <path
        class="diners-cls-3"
        d="M26.56,28.56h.06c.15,0,.31,0,.31-.25V26.07c0-.22-.16-.25-.31-.25h-.06V25.7h1.3v.12H27.8c-.15,0-.31,0-.31.25v2.24c0,.23.16.25.31.25h.06v.13l-.67,0-.63,0Z"
      />
      <path
        class="diners-cls-3"
        d="M27.84,28.67v-.09h0c-.15,0-.33,0-.33-.27V26.07c0-.24.18-.26.33-.27h0v-.09l-.65,0-.61,0v.09h0c.15,0,.33,0,.33.27v2.24c0,.24-.18.27-.33.27h0v.09l.61,0,.65,0m0,0H26.54v-.15h.08c.15,0,.29,0,.3-.23V26.07c0-.21-.15-.22-.3-.23h-.08v-.16h1.34v.16H27.8c-.15,0-.29,0-.29.23v2.24c0,.21.14.23.29.23h.08v.16Z"
      />
      <path
        class="diners-cls-3"
        d="M29.64,28.56c.83,0,1-.73,1-1.36s-.33-1.38-1.05-1.38-1,.67-1,1.24c0,.77.35,1.5,1.05,1.5m-.07-2.93a1.5,1.5,0,0,1,1.64,1.48,1.56,1.56,0,0,1-1.61,1.64A1.52,1.52,0,0,1,28,27.21a1.56,1.56,0,0,1,1.58-1.58"
      />
      <path
        class="diners-cls-3"
        d="M28.57,27.06c0-.57.23-1.26,1-1.26s1.07.77,1.07,1.4-.15,1.38-1,1.38v0c.81,0,.95-.71,1-1.34s-.34-1.36-1-1.36-.95.65-.95,1.22c0,.77.35,1.48,1,1.48v0c-.71,0-1.07-.75-1.07-1.52m-.6.15a1.59,1.59,0,0,1,1.6-1.6v0A1.54,1.54,0,0,0,28,27.21a1.5,1.5,0,0,0,1.59,1.52,1.55,1.55,0,0,0,1.6-1.62,1.49,1.49,0,0,0-1.63-1.46v0a1.52,1.52,0,0,1,1.66,1.5,1.58,1.58,0,0,1-1.63,1.66A1.55,1.55,0,0,1,28,27.21"
      />
      <path
        class="diners-cls-3"
        d="M34.1,27.84h0v-1.6a.36.36,0,0,0-.37-.41h-.1V25.7h1.13v.12h-.06c-.18,0-.39,0-.39.55v1.95a2.9,2.9,0,0,0,0,.43h-.16L32,26.29v1.77c0,.37.07.5.4.5h.08v.13l-.56,0-.58,0v-.13h.06c.3,0,.39-.2.39-.55v-1.8a.39.39,0,0,0-.39-.39h-.06V25.7h.87Z"
      />
      <path
        class="diners-cls-3"
        d="M34.09,27.83Zm0,0h0Zm.09.89h.14a2.75,2.75,0,0,1,0-.41V26.37c0-.52.21-.56.4-.57h0v-.09l-.51,0-.58,0v.09h.08a.38.38,0,0,1,.39.43v1.62h0l0,0-1.91-2.16-.38,0-.47,0v.09h0a.41.41,0,0,1,.4.41V28c0,.35-.09.57-.4.57h0v.09l.56,0,.54,0v-.09h-.06c-.33,0-.42-.15-.42-.52V26.24Zm.16,0h-.18L32,26.34v1.72c0,.37.06.47.38.48h.1v.16H31.3v-.15h.08c.28,0,.36-.18.37-.53v-1.8a.37.37,0,0,0-.37-.37H31.3v-.16h.91l1.88,2.12V26.23a.34.34,0,0,0-.35-.39h-.12v-.16h1.17v.16h-.08c-.18,0-.36,0-.37.53v1.95a2.9,2.9,0,0,0,0,.43v0Z"
      />
      <path
        class="diners-cls-3"
        d="M36.09,26.18h0l-.4,1.21h.8Zm-.63,1.89a1.94,1.94,0,0,0-.09.34c0,.13.18.15.32.15h0v.13l-.51,0-.47,0v-.13h0a.38.38,0,0,0,.37-.28l.69-2a3.51,3.51,0,0,0,.15-.53,3.11,3.11,0,0,0,.4-.18h.06s0,.07,0,.11L37.28,28a4.5,4.5,0,0,0,.16.44.27.27,0,0,0,.28.17h0v.13l-.59,0-.64,0v-.13h.05c.09,0,.26,0,.26-.13a2,2,0,0,0-.08-.31l-.17-.49h-1Z"
      />
      <path
        class="diners-cls-3"
        d="M36.07,26.18h0Zm-.37,1.19h.75l-.37-1.15Zm-.05,0,.41-1.25h0v0h0v0h0l.4,1.25Zm.88,1.26.62,0,.58,0v-.09h0a.29.29,0,0,1-.3-.19,4.29,4.29,0,0,1-.16-.43l-.79-2.25,0-.1h0a1.39,1.39,0,0,1-.39.17,2.57,2.57,0,0,1-.16.54l-.68,2a.42.42,0,0,1-.39.3h0v.09l.45,0,.5,0v-.09h0c-.14,0-.34,0-.34-.17a1.57,1.57,0,0,1,.09-.34h0l.14-.46h1l.17.51a1.3,1.3,0,0,1,.09.31c0,.13-.19.14-.28.15h0Zm1.21,0H36.49v-.17h.07c.1,0,.24,0,.24-.11a1.21,1.21,0,0,0-.08-.3l-.16-.48h-1l-.13.43a1.55,1.55,0,0,0-.1.33c0,.1.16.13.31.13h.06v.17h-1v-.17h.05a.36.36,0,0,0,.35-.27l.69-2c0-.16.13-.38.17-.55a2,2,0,0,0,.39-.18h0a.06.06,0,0,1,0,0,.36.36,0,0,0,0,.11l.78,2.24c.06.15.11.31.16.44a.26.26,0,0,0,.27.16h0v.17Z"
      />
      <path
        class="diners-cls-3"
        d="M38.82,28.27c0,.17.12.22.26.24a3.66,3.66,0,0,0,.57,0,.64.64,0,0,0,.41-.23,1.14,1.14,0,0,0,.13-.31h.12c0,.24-.1.48-.15.73l-1.14,0-1.13,0v-.13H38c.16,0,.32,0,.32-.29v-2.2c0-.22-.16-.25-.32-.25h-.06V25.7h1.33v.12h-.11c-.16,0-.29,0-.29.24Z"
      />
      <path
        class="diners-cls-3"
        d="M40.14,28.67c0-.24.11-.46.15-.69H40.2a.85.85,0,0,1-.13.3.67.67,0,0,1-.42.24h-.57c-.14,0-.28-.07-.28-.25V26.06c0-.24.15-.26.31-.26h.09v-.09l-.63,0-.66,0v.09h0c.16,0,.34,0,.34.27v2.2c0,.28-.18.31-.34.31h0v.09l1.11,0,1.12,0m0,0H37.87v-.15H38c.16,0,.3,0,.31-.27v-2.2c0-.21-.15-.22-.31-.23h-.08v-.16h1.37v.16h-.13c-.16,0-.27,0-.27.22v2.21c0,.16.11.2.24.22h.24l.32,0a.58.58,0,0,0,.4-.22.82.82,0,0,0,.13-.31h.17v0c0,.25-.1.49-.16.73h0Z"
      />
      <path
        class="diners-cls-3"
        d="M40.19,26h.05c.06,0,.09-.05.09-.12a.09.09,0,0,0-.09-.1h-.05Zm-.15.23v0c.05,0,.06,0,.06,0v-.33c0-.05,0-.07-.06-.06v0h.23c.08,0,.15,0,.15.12a.14.14,0,0,1-.1.14l.07.1a.36.36,0,0,0,.1.11H40.4s-.08-.08-.16-.2h-.05v.15s0,0,.07,0v0Zm.22.13a.36.36,0,0,0,.36-.36.36.36,0,0,0-.36-.37.37.37,0,0,0,0,.73m0-.82a.46.46,0,1,1-.45.46.44.44,0,0,1,.45-.46"
      />
      <path
        class="diners-cls-1"
        d="M13.5,10.57a7.26,7.26,0,1,1,7.26,7.26A7.26,7.26,0,0,1,13.5,10.57Z"
      />
      <path
        class="diners-cls-2"
        d="M20.77,18a7.54,7.54,0,0,1-7.59-7.45,7.42,7.42,0,0,1,7.59-7.58h1.94a7.68,7.68,0,0,1,7.86,7.58c0,4.1-3.75,7.45-7.86,7.45Zm0-14.41a6.88,6.88,0,1,0,6.88,6.88A6.88,6.88,0,0,0,20.78,3.54Zm-1.56,11V6.35a4.36,4.36,0,0,0,0,8.14Zm5.92-4.07a4.37,4.37,0,0,0-2.8-4.07V14.5A4.37,4.37,0,0,0,25.14,10.42Z"
      />
    </g>
  </g>
</svg>
