<svg xmlns="http://www.w3.org/2000/svg" viewBox="0 0 272.83 327.53">
  <defs>
    <style>
      .ec-a {
        fill: #fff;
      }
      .ec-b,
      .ec-c {
        fill: #007fc3;
      }
      .ec-c,
      .ec-d,
      .ec-f {
        fill-rule: evenodd;
      }
      .ec-d,
      .ec-e {
        fill: red;
      }
      .ec-f,
      .ec-g {
        fill: #292526;
      }
    </style>
  </defs>
  <path
    class="ec-a"
    d="M3.91,22.68A18.78,18.78,0,0,1,22.68,3.91H250.15a18.78,18.78,0,0,1,18.77,18.77V304.82a18.78,18.78,0,0,1-18.77,18.8H22.68a18.78,18.78,0,0,1-18.77-18.8Z"
  />
  <path
    class="ec-b"
    d="M250.15,327.53H22.68A22.73,22.73,0,0,1,0,304.82V22.68A22.71,22.71,0,0,1,22.68,0H250.15a22.71,22.71,0,0,1,22.68,22.68V304.82A22.73,22.73,0,0,1,250.15,327.53ZM22.68,7.82A14.88,14.88,0,0,0,7.82,22.68V304.82a14.89,14.89,0,0,0,14.86,14.89H250.15A14.89,14.89,0,0,0,265,304.82V22.68A14.88,14.88,0,0,0,250.15,7.82Z"
  />
  <path
    class="ec-b"
    d="M83.88,82.26v30.07h16.79V73.17H93A9.12,9.12,0,0,0,83.88,82.26Zm0,103.89a9.38,9.38,0,0,0,9.22,9.56h7.57V165.08h52.4v72.3h-98c-13,0-22.4-10.54-22.4-23.48V55c0-13,9.43-23.5,22.4-23.5h98V153H83.88v33.2"
  />
  <path
    class="ec-c"
    d="M37.29,278.62h4.88v-2.69c-.08-3-.64-4-2.58-4-2.35,0-2.3,2.7-2.3,5.49Zm-4.78,7.21v-8c-.27-7.2,2.3-11.29,7-11.29,6.72,0,7.43,5,7.43,13.38V284H37.29v4.44c.1,4,1.13,4.78,2.57,4.78,1.74,0,2.31-1.87,2.23-5.76h4.78c.2,6.81-1.74,11.1-6.64,11.1-5.56,0-7.84-3.82-7.72-12.77"
  />
  <path
    class="ec-d"
    d="M240.69,237.38H144.54l-1.1-.13-1-.14-1.13-.2-1-.27-1-.37-1-.34-1-.34a23.33,23.33,0,0,1-12.74-13.19l-.35-1-.29-1.13-.27-1-.27-1-.15-1.13-.14-1,0-1.17-.08-1V54.81a23.41,23.41,0,0,1,6.52-16.15A22.34,22.34,0,0,1,137,33.39l1-.44,1-.34,1-.27,1-.27,1.1-.22,1.05-.12,1-.15,1.11-.07h95.46v80.75H190.52V73.05c-7.75-1.23-16.13.54-16.6,9.63V79.13l0,3.67,0-.12V186l0-.15,0,.91V186c.49,9.12,8.83,10.91,16.72,9.61v-42l.22-.76h49.83v84.48"
  />
  <path
    class="ec-e"
    d="M191.67,277.94h-4.78v-3.38c-.07-1.67-.69-2.65-1.67-2.65-1.84,0-1.84,3.11-1.84,6.79v7.23c-.17,5.95.4,7.06,1.84,7.33,1.47-.08,1.55-2.09,1.67-4.51v-2.82h4.78v2.82c0,6.37-1.79,9.85-6.57,9.85-4.24,0-6.64-3.26-6.45-11.37V277.4c-.07-8.6,2.77-10.83,6.45-10.83,4.85,0,6.67,4.43,6.57,8.94v2.43"
  />
  <path
    class="ec-f"
    d="M145,237.38a23.51,23.51,0,0,1-15.47-7.06,24.75,24.75,0,0,1-5-7.92l-.35-1-.29-1.13-.27-1-.27-1-.15-1.13-.14-1,0-1.17-.08-1V165.08h30.15v72.3ZM122.92,54.81c.59-16.59,14.17-25.41,30.15-23.3V153H122.92V54.81"
  />
  <rect class="ec-g" x="50.62" y="257.28" width="4.85" height="40.56" />
  <path
    class="ec-f"
    d="M63.71,278.62h4.78v-2.69c0-3-.54-4-2.48-4-2.45,0-2.3,2.7-2.3,5.49Zm-4.78,7.21v-8c-.22-7.2,2.28-11.29,7-11.29,6.74,0,7.45,5,7.45,13.38V284H63.71v4.44c.07,4,1.13,4.78,2.5,4.78,1.81,0,2.28-1.87,2.23-5.76h4.83c.22,6.81-1.72,11.1-6.64,11.1-5.54,0-7.77-3.82-7.7-12.77"
  />
  <path
    class="ec-g"
    d="M89.15,277.94H84.37v-3.38c-.07-1.67-.61-2.65-1.64-2.65-1.84,0-1.84,3.11-1.84,6.79v7.23c0,5.95.44,7.06,1.84,7.33,1.44-.08,1.49-2.09,1.64-4.51v-2.82h4.78v2.82c0,6.37-1.72,9.85-6.52,9.85-4.29,0-6.71-3.26-6.52-11.37V277.4c0-8.6,2.84-10.83,6.52-10.83,4.88,0,6.59,4.43,6.52,8.94v2.43"
  />
  <path
    class="ec-g"
    d="M98.93,292.42V298c-2.92.42-6.86.86-6.86-4.83V272.45H90.13v-5.1H92v-8.41h4.86v8.41h2.08v5.1H96.85v19c.14,1.25,1.47,1,2.08.95"
  />
  <path
    class="ec-g"
    d="M105.52,267.35v5.39h.08a11.3,11.3,0,0,1,1.86-4.29,3.53,3.53,0,0,1,3-1.66v8.38c-2.7-.42-4.71.56-4.78,5.07v17.6h-4.86V267.35h4.66"
  />
  <path
    class="ec-f"
    d="M119.1,298.6c-6.3.22-7.43-4.36-7.35-14.9s.07-17.13,7.35-17.13,7.23,6.66,7.23,17.13S125.35,298.82,119.1,298.6Zm-2.57-20.86v10.12c0,3.73.29,5.4,2.57,5.4s2.43-1.67,2.43-5.4V277.74c0-2.84,0-5.83-2.43-5.83s-2.57,3-2.57,5.83"
  />
  <path
    class="ec-g"
    d="M134.15,267.35v3.11h.07c1.1-3.55,3.26-3.89,4.36-3.89,2.7,0,4.93,2.28,4.78,7.69v23.58h-4.78V277.52c0-3-.27-4.9-2.08-5.07s-2.43,2.45-2.35,5.64v19.75h-4.78V267.35h4.78"
  />
  <path
    class="ec-f"
    d="M152,263.65h-4.86v-6.37H152Zm0,34.19h-4.86V267.33H152Z"
  />
  <path
    class="ec-g"
    d="M168.39,277.94h-4.83v-3.38c-.1-1.67-.64-2.65-1.62-2.65-1.86,0-1.86,3.11-1.81,6.79v7.23c-.13,5.95.36,7.06,1.81,7.33,1.47-.08,1.47-2.09,1.62-4.51v-2.82h4.83v2.82c0,6.37-1.82,9.85-6.6,9.85-4.21,0-6.71-3.26-6.52-11.37V277.4c0-8.6,2.87-10.83,6.52-10.83,4.86,0,6.6,4.43,6.6,8.94v2.43"
  />
  <path
    class="ec-f"
    d="M203.11,285v-3.26c-1.17,1.18-2.62,2.4-3.94,3.87a6.89,6.89,0,0,0-.76,3.68c0,2.35.56,3.95,2.28,3.95C203.48,293.26,203,288,203.11,285Zm5.2,12.82h-4.56a11.67,11.67,0,0,1-.27-3.11c-1.17,2.47-2.64,3.87-4.31,3.87-3.87,0-5.54-2.77-5.54-9.14,0-6.87,3.33-8.61,7.13-10.88a4.39,4.39,0,0,0,2.35-5.08c-.19-1.37-1-1.59-2.2-1.59-2.21,0-2.57,1.67-2.57,4.44h-4.59c0-5.76,1.25-9.78,7.28-9.78,6.59,0,6.94,4.92,6.94,9v18a22.93,22.93,0,0,0,.34,4.24"
  />
  <path
    class="ec-g"
    d="M210.39,287.79h4.78c-.34,5.61,1.18,5.47,2.23,5.47,1.45,0,2.36-1.52,2-3.46-.07-1.74-1.44-2.72-2.35-3.6l-2.57-2.65a12.68,12.68,0,0,1-4-9.63c0-4.71,2.57-7.35,7.13-7.35,4.73,0,6.89,3.53,6.74,10h-4.81c.1-3.38-.53-4.7-2.25-4.7-1.13,0-2,.76-2,2.5a4.54,4.54,0,0,0,1.81,3.53l4,3.87a11.49,11.49,0,0,1,3.19,6c.49,5.34-.42,10.81-7.16,10.81-2.48,0-7.26-1.52-6.72-10.81"
  />
  <path
    class="ec-g"
    d="M231.69,297.84h-4.85V257.28h4.85v13.18h.05c1.32-3.6,3.33-3.89,4.31-3.89,2.77,0,5,2.28,4.86,7.69v23.58h-4.86V277c0-3-.19-4.9-2-5s-2.42,2.35-2.35,5.68v20.25"
  />
</svg>
