<svg width="32" height="23" viewBox="0 0 32 23" xmlns="http://www.w3.org/2000/svg">
    <title>
        elo
    </title>
    <g fill="none" fill-rule="evenodd">
        <path d="M29.906 5.232a10.396 10.396 0 0 1 2.068 6.24c0 5.767-4.676 10.443-10.443 10.443-5.767 0-10.443-4.676-10.443-10.443 0-5.768 4.676-10.443 10.443-10.443 3.428 0 6.47 1.652 8.375 4.203z" fill="#050013"/>
        <path d="M31.324 7.837c.42 1.132.65 2.357.65 3.635 0 5.767-4.676 10.443-10.443 10.443-5.767 0-10.443-4.676-10.443-10.443 0-5.768 4.676-10.443 10.443-10.443 4.49 0 8.317 2.833 9.793 6.808z"/>
        <path d="M17.044 8.673a3.21 3.21 0 0 1 3.12 2.455l-1.293.566v-.003l-1.324.582-3.174 1.387a3.21 3.21 0 0 1 2.672-4.988zm1.378 1.995l-3.206 1.382a1.836 1.836 0 0 1 3.206-1.381zM19.287 14.178c-1.15 1.09-2.67 1.197-4.005.386l.754-1.147c.76.454 1.524.38 2.291-.221l.96.982M20.593 13.383l-.008-6.068h1.15v5.905c0 .056.007.106.081.135l1 .389-.45 1.172-1.172-.496c-.444-.188-.6-.46-.6-1.037" fill="#FFF"/>
        <path d="M24.923 13.281a1.828 1.828 0 0 1-.138-2.774l-.743-1.204a3.225 3.225 0 0 0 .179 5.196l.702-1.218" fill="#009DD7"/>
        <path d="M25.426 10.111a1.832 1.832 0 0 1 2.334 1.078l1.423-.118a3.23 3.23 0 0 0-4.351-2.228l.594 1.268" fill="#FFF200"/>
        <path d="M27.875 11.924a1.832 1.832 0 0 1-2.276 1.688l-.558 1.292a3.227 3.227 0 0 0 4.23-2.936l-1.396-.044" fill="#E33206"/>
    </g>
</svg>
