<svg xmlns="http://www.w3.org/2000/svg" viewBox="0 0 51.37 20.4">
  <title>Google Pay</title>
  <defs>
    <style>
      .google-pay-cls-1 {
        fill: #5b6063;
      }
      .google-pay-cls-2 {
        fill: #1081c4;
      }
      .google-pay-cls-3 {
        fill: #08ae65;
      }
      .google-pay-cls-4 {
        fill: #f9a72e;
      }
      .google-pay-cls-5 {
        fill: #f0583e;
      }
    </style>
  </defs>
  <g id="Layer_2" data-name="Layer 2">
    <g id="Layer_1-2" data-name="Layer 1">
      <path
        class="google-pay-cls-1"
        d="M24.3,3V8.15h3.17a2.49,2.49,0,0,0,1.88-.76,2.49,2.49,0,0,0,.76-1.82,2.45,2.45,0,0,0-.76-1.79A2.47,2.47,0,0,0,27.47,3Zm0,7v6H22.4V1.18h5a4.55,4.55,0,0,1,3.26,1.28,4.09,4.09,0,0,1,1.36,3.11,4.08,4.08,0,0,1-1.36,3.14A4.55,4.55,0,0,1,27.43,10Z"
      />
      <path
        class="google-pay-cls-1"
        d="M34,12.85a1.51,1.51,0,0,0,.63,1.24,2.31,2.31,0,0,0,1.47.5,3,3,0,0,0,2.14-.89,2.79,2.79,0,0,0,.93-2.08,3.86,3.86,0,0,0-2.47-.7,3.24,3.24,0,0,0-1.93.55A1.66,1.66,0,0,0,34,12.85m2.45-7.34a4.69,4.69,0,0,1,3.32,1.13A4,4,0,0,1,41,9.72V16H39.15v-1.4h-.09a3.62,3.62,0,0,1-3.13,1.73,4.08,4.08,0,0,1-2.8-1A3.2,3.2,0,0,1,32,12.81a3,3,0,0,1,1.19-2.49,5,5,0,0,1,3.16-.93,5.58,5.58,0,0,1,2.78.62V9.57a2.16,2.16,0,0,0-.78-1.68,2.67,2.67,0,0,0-1.83-.69A2.92,2.92,0,0,0,34,8.54l-1.67-1a4.65,4.65,0,0,1,4.08-2"
      />
      <polygon
        class="google-pay-cls-1"
        points="51.37 5.84 45.04 20.4 43.08 20.4 45.43 15.31 41.27 5.84 43.33 5.84 46.34 13.1 46.38 13.1 49.31 5.84 51.37 5.84"
      />
      <path
        class="google-pay-cls-2"
        d="M16.63,8.68A10.73,10.73,0,0,0,16.49,7h-8v3.27h4.59a4,4,0,0,1-1.7,2.58v2.12h2.74a8.3,8.3,0,0,0,2.52-6.24"
      />
      <path
        class="google-pay-cls-3"
        d="M8.48,17a8.13,8.13,0,0,0,5.63-2L11.37,12.8a5.13,5.13,0,0,1-2.89.81,5.07,5.07,0,0,1-4.76-3.5H.9v2.18A8.48,8.48,0,0,0,8.48,17"
      />
      <path
        class="google-pay-cls-4"
        d="M3.72,10.11a5,5,0,0,1,0-3.25V4.67H.9a8.51,8.51,0,0,0,0,7.62Z"
      />
      <path
        class="google-pay-cls-5"
        d="M8.48,3.36a4.64,4.64,0,0,1,3.26,1.27h0l2.42-2.42A8.15,8.15,0,0,0,8.48,0,8.49,8.49,0,0,0,.9,4.67L3.72,6.86a5.07,5.07,0,0,1,4.76-3.5"
      />
    </g>
  </g>
</svg>
