<?xml version="1.0" encoding="UTF-8"?>
<svg width="242px" height="193px" viewBox="0 0 242 193" version="1.1" xmlns="http://www.w3.org/2000/svg" xmlns:xlink="http://www.w3.org/1999/xlink">
    <!-- Generator: Sketch 49 (51002) - http://www.bohemiancoding.com/sketch -->
    <title>hiper</title>
    <desc>Created with Sketch.</desc>
    <defs></defs>
    <g id="Page-1" stroke="none" stroke-width="1" fill="none" fill-rule="evenodd">
        <g id="hiper">
            <path d="M28.618,33.764 L163.687,1.65 C183.402,-3.037 203.368,9.258 208.055,28.973 L240.17,164.041 C242.618,174.338 240.432,184.701 234.978,192.922 L28.588,192.922 L1.295,78.133 C-3.392,58.418 8.903,38.452 28.618,33.764" id="Fill-1" fill="#E46C2A"></path>
            <polyline id="Fill-2" fill="#FFFFFE" points="28.328 88.984 28.328 146.694 41.429 146.694 41.429 122.548 62.92 122.548 62.92 146.694 75.935 146.694 75.935 88.984 62.92 88.984 62.92 111.16 41.429 111.16 41.429 88.984 28.328 88.984"></polyline>
            <path d="M188.647,129.912 C188.818,128.97 189.075,127.001 189.075,124.774 C189.075,114.414 183.937,103.882 170.409,103.882 C155.853,103.882 149.26,115.613 149.26,126.23 C149.26,139.331 157.394,147.551 171.607,147.551 C177.259,147.551 182.482,146.694 186.763,144.982 L185.05,136.162 C181.54,137.276 177.944,137.875 173.491,137.875 C167.412,137.875 162.103,135.306 161.675,129.912 L188.647,129.912 Z M161.589,121.007 C161.932,117.496 164.158,112.53 169.638,112.53 C175.632,112.53 177.002,117.839 177.002,121.007 L161.589,121.007 Z" id="Fill-3" fill="#FFFFFE"></path>
            <path d="M193.245,146.694 L206.26,146.694 L206.26,125.46 C206.26,124.432 206.346,123.404 206.517,122.548 C207.373,118.524 210.627,115.955 215.422,115.955 C216.878,115.955 217.991,116.126 218.932,116.298 L218.932,104.053 C217.991,103.882 217.391,103.882 216.192,103.882 C212.168,103.882 207.031,106.451 204.89,112.53 L204.548,112.53 L204.12,104.824 L192.903,104.824 C193.074,108.42 193.245,112.445 193.245,118.61 L193.245,146.694" id="Fill-4" fill="#FFFFFE"></path>
            <path d="M89.174,86.661 C92.869,86.661 95.865,89.657 95.865,93.352 C95.865,97.046 92.869,100.042 89.174,100.042 C85.479,100.042 82.483,97.046 82.483,93.352 C82.483,89.657 85.479,86.661 89.174,86.661" id="Fill-5" fill="#FFE80F"></path>
            <path d="M116.66,136.94 L123.193,136.94 C129.751,136.94 132.718,132.74 132.718,128.36 C132.718,123.98 132.403,114.073 124.295,114.073 C114.983,114.073 116.493,126.37 116.533,132.809 C116.541,134.185 116.623,135.562 116.66,136.94 Z M82.483,104.765 L95.865,104.765 L95.865,128.36 C95.865,132.737 98.294,136.934 103.664,136.94 C103.702,126.317 103.66,115.381 103.303,104.765 L114.482,104.765 C114.728,106.81 114.949,108.86 115.148,110.915 C120.43,100.352 137.074,102.678 142.675,111.594 C148.461,120.804 150.43,147.172 123.193,147.172 L116.851,147.172 C116.912,152.526 116.922,157.888 116.922,163.251 L103.541,163.251 C103.541,158.105 103.576,152.712 103.61,147.171 C89.148,147.121 82.483,137.937 82.483,128.36 L82.483,104.765 Z" id="Fill-6" fill="#FFFFFE"></path>
        </g>
    </g>
</svg>