<svg xmlns="http://www.w3.org/2000/svg" viewBox="0 0 52.29 42.98">
  <title>
    Maestro
  </title>
  <defs>
    <style>
      .maestro-cls-1 {
        fill: none;
      }
      .maestro-cls-2 {
        fill: #7773b5;
      }
      .maestro-cls-3 {
        fill: #e91d25;
      }
      .maestro-cls-4 {
        fill: #11a0db;
      }
    </style>
  </defs>
  <g id="Layer_2" data-name="Layer 2">
    <g id="Layer_1-2" data-name="Layer 1">
      <rect class="maestro-cls-1" width="52.29" height="42.98" />
      <path
        d="M17.94,37.49V35.36A1.27,1.27,0,0,0,16.6,34a1.32,1.32,0,0,0-1.19.61A1.26,1.26,0,0,0,14.28,34a1.11,1.11,0,0,0-1,.51v-.42h-.74v3.4h.74V35.6a.8.8,0,0,1,.84-.9c.49,0,.74.32.74.9v1.89h.74V35.6a.8.8,0,0,1,.84-.9c.5,0,.74.32.74.9v1.89Zm4.17-1.7v-1.7h-.74v.41a1.32,1.32,0,0,0-1.08-.5,1.79,1.79,0,0,0,0,3.57,1.31,1.31,0,0,0,1.08-.49v.41h.74Zm-2.75,0a1,1,0,1,1,1,1.09A1,1,0,0,1,19.36,35.79ZM37.94,34a1.9,1.9,0,0,1,1.31.51,1.73,1.73,0,0,1,.38.57,1.67,1.67,0,0,1,.14.71,1.7,1.7,0,0,1-.14.71,1.73,1.73,0,0,1-.38.57,1.75,1.75,0,0,1-.58.37,2,2,0,0,1-1.46,0,1.75,1.75,0,0,1-.58-.37,1.73,1.73,0,0,1-.38-.57,1.87,1.87,0,0,1-.14-.71,1.83,1.83,0,0,1,.14-.71,1.73,1.73,0,0,1,.38-.57A1.9,1.9,0,0,1,37.94,34Zm0,.7a1.16,1.16,0,0,0-.42.08,1.11,1.11,0,0,0-.34.22A1.21,1.21,0,0,0,37,36.23a1.15,1.15,0,0,0,.22.35,1.11,1.11,0,0,0,.34.22,1.14,1.14,0,0,0,.84,0,1,1,0,0,0,.34-.22,1.18,1.18,0,0,0,.23-.35,1.25,1.25,0,0,0,0-.88A1.07,1.07,0,0,0,38.7,35a1,1,0,0,0-.34-.22A1.16,1.16,0,0,0,37.94,34.7ZM26.13,35.79A1.63,1.63,0,0,0,24.52,34a1.79,1.79,0,0,0,.05,3.57A2,2,0,0,0,26,37.1l-.36-.55a1.61,1.61,0,0,1-1,.36,1,1,0,0,1-1-.84h2.53A2.53,2.53,0,0,0,26.13,35.79Zm-2.53-.3a.88.88,0,0,1,.91-.83.85.85,0,0,1,.86.83ZM29.25,35a2.19,2.19,0,0,0-1.06-.3c-.41,0-.65.15-.65.4s.26.3.58.34l.35.05c.74.1,1.19.42,1.19,1s-.57,1.11-1.55,1.11a2.47,2.47,0,0,1-1.48-.44l.35-.57a1.83,1.83,0,0,0,1.13.35c.51,0,.78-.15.78-.41s-.19-.3-.6-.36l-.35,0c-.76-.11-1.17-.45-1.17-1S27.32,34,28.18,34a2.52,2.52,0,0,1,1.39.36Zm3.56-.2H31.6V36.3c0,.34.12.57.49.57a1.33,1.33,0,0,0,.65-.19l.22.63a1.71,1.71,0,0,1-.93.26c-.87,0-1.18-.46-1.18-1.25V34.76h-.69v-.67h.69v-1h.75v1h1.21ZM35.37,34a1.41,1.41,0,0,1,.52.1l-.22.69a1.33,1.33,0,0,0-.47-.08c-.48,0-.72.31-.72.87v1.91h-.74v-3.4h.73v.41a1,1,0,0,1,.9-.5Zm5.12,3a.28.28,0,0,1,.13,0,.41.41,0,0,1,.11.07.44.44,0,0,1,.08.11.59.59,0,0,1,0,.13.51.51,0,0,1,0,.13.44.44,0,0,1-.08.11.26.26,0,0,1-.11.07.28.28,0,0,1-.13,0,.32.32,0,0,1-.14,0,.26.26,0,0,1-.11-.07.41.41,0,0,1-.07-.11.28.28,0,0,1,0-.13.31.31,0,0,1,0-.13.3.3,0,0,1,.18-.18A.32.32,0,0,1,40.49,37Zm0,.61.1,0,.08-.06a.16.16,0,0,0,.06-.08.43.43,0,0,0,0-.11.36.36,0,0,0,0-.1.35.35,0,0,0-.14-.14l-.1,0-.11,0a.16.16,0,0,0-.08.06l-.06.08a.36.36,0,0,0,0,.1.43.43,0,0,0,0,.11l.06.08.08.06Zm0-.43a.12.12,0,0,1,.09,0,.09.09,0,0,1,0,.07.08.08,0,0,1,0,.07.1.1,0,0,1-.08,0l.11.12h-.08l-.1-.12h0v.12h-.07v-.32Zm-.08.06v.09h.12a.05.05,0,0,0,0,0s0,0,0,0h-.12Z"
      />
      <rect
        class="maestro-cls-2"
        x="20.53"
        y="8.13"
        width="11.22"
        height="20.16"
      />
      <path
        class="maestro-cls-3"
        d="M21.24,18.22a12.83,12.83,0,0,1,4.9-10.09,12.83,12.83,0,1,0,0,20.17A12.81,12.81,0,0,1,21.24,18.22Z"
      />
      <path
        class="maestro-cls-4"
        d="M45.67,26.16v-.41h.16v-.08h-.42v.08h.17v.41Zm.82,0v-.49h-.13l-.15.34-.15-.34h-.13v.49H46v-.37l.14.32h.1l.14-.32v.37Z"
      />
      <path
        class="maestro-cls-4"
        d="M46.89,18.22A12.83,12.83,0,0,1,26.14,28.3a12.83,12.83,0,0,0,0-20.17A12.83,12.83,0,0,1,46.89,18.22Z"
      />
    </g>
  </g>
</svg>
