<svg xmlns="http://www.w3.org/2000/svg" viewBox="0 0 51.9 42.57">
  <title>
    Mastercard
  </title>
  <defs>
    <style>
      .mastercard-cls-1 {
        fill: none;
      }
      .mastercard-cls-2 {
        fill: #231f20;
      }
      .mastercard-cls-3 {
        fill: #f16122;
      }
      .mastercard-cls-4 {
        fill: #e91d25;
      }
      .mastercard-cls-5 {
        fill: #f59d1e;
      }
    </style>
  </defs>
  <g id="Layer_2" data-name="Layer 2">
    <g id="Layer_1-2" data-name="Layer 1">
      <g id="Layer_1-2-2" data-name="Layer 1-2">
        <rect class="mastercard-cls-1" width="51.9" height="42.57" />
        <path
          class="mastercard-cls-2"
          d="M12.85,37.21V35.09a1.25,1.25,0,0,0-1.17-1.34h-.16a1.33,1.33,0,0,0-1.19.6,1.23,1.23,0,0,0-1.11-.6,1.1,1.1,0,0,0-1,.5v-.42H7.49v3.38h.74V35.35a.8.8,0,0,1,.68-.89h.15c.49,0,.74.31.74.89v1.88h.74V35.35a.8.8,0,0,1,.68-.89h.15c.5,0,.74.31.74.89v1.88Zm11-3.38H22.63v-1h-.75v1h-.67v.68h.69v1.55c0,.79.3,1.25,1.17,1.25a1.73,1.73,0,0,0,.92-.26l-.21-.63a1.26,1.26,0,0,1-.65.19c-.35,0-.49-.22-.49-.56V34.51h1.2Zm6.27-.08a1,1,0,0,0-.89.49v-.41h-.73v3.38h.73V35.32c0-.56.24-.87.71-.87a1.44,1.44,0,0,1,.46.08l.23-.7a1.6,1.6,0,0,0-.53-.09Zm-9.48.35a2.58,2.58,0,0,0-1.38-.35c-.86,0-1.42.41-1.42,1.08s.41.89,1.17,1l.35.05c.41,0,.6.16.6.35s-.27.41-.77.41a1.83,1.83,0,0,1-1.13-.35l-.35.57a2.46,2.46,0,0,0,1.46.44c1,0,1.54-.46,1.54-1.1s-.44-.91-1.18-1l-.35,0c-.32,0-.57-.11-.57-.34s.24-.39.64-.39a2.09,2.09,0,0,1,1.06.29Zm19.69-.35a1,1,0,0,0-.89.49v-.41H38.7v3.38h.74V35.32c0-.56.24-.87.71-.87a1.38,1.38,0,0,1,.45.08l.23-.7a1.54,1.54,0,0,0-.52-.09Zm-9.47,1.77a1.71,1.71,0,0,0,1.64,1.77h.16a1.81,1.81,0,0,0,1.22-.41l-.36-.59a1.46,1.46,0,0,1-.88.3,1.08,1.08,0,0,1,0-2.16,1.46,1.46,0,0,1,.88.3l.36-.59a1.75,1.75,0,0,0-1.22-.4,1.7,1.7,0,0,0-1.8,1.6v.18Zm6.88,0V33.83H37v.41a1.28,1.28,0,0,0-1.06-.49,1.77,1.77,0,0,0,0,3.54,1.29,1.29,0,0,0,1.06-.5v.41h.73Zm-2.73,0a1,1,0,0,1,1.08-1,1,1,0,0,1-.06,2,1,1,0,0,1-1-1Zm-8.88-1.77a1.77,1.77,0,0,0,.05,3.54h0a2.12,2.12,0,0,0,1.41-.46l-.36-.55a1.59,1.59,0,0,1-1,.35.93.93,0,0,1-1-.82h2.51v-.29a1.6,1.6,0,0,0-1.61-1.76Zm0,.66a.83.83,0,0,1,.86.82H25.21a.87.87,0,0,1,.9-.82Zm18.43,1.11v-3h-.71v1.76a1.28,1.28,0,0,0-1.06-.49,1.77,1.77,0,0,0,0,3.54,1.29,1.29,0,0,0,1.06-.5v.41h.71Zm1.22,1.2a.32.32,0,0,1,.14,0,.26.26,0,0,1,.11.07.61.61,0,0,1,.07.1.32.32,0,0,1,0,.27.36.36,0,0,1-.07.1.26.26,0,0,1-.11.07.32.32,0,0,1-.14,0,.34.34,0,0,1-.31-.2.32.32,0,0,1,0-.27.3.3,0,0,1,.07-.1.26.26,0,0,1,.11-.07.35.35,0,0,1,.14,0Zm0,.6.11,0a.21.21,0,0,0,.08-.06.26.26,0,0,0,0-.35l-.08-.06-.11,0-.1,0a.26.26,0,0,0-.08.41.16.16,0,0,0,.08.06l.11,0Zm0-.42a.16.16,0,0,1,.09,0,.1.1,0,0,1,0,.14.15.15,0,0,1-.07,0l.1.11h-.08l-.09-.11h0v.11h-.06V36.9Zm-.08.06V37h.12V37h0Zm-3.89-1.44a1,1,0,0,1,1.08-1,1,1,0,0,1-.06,2,1,1,0,0,1-1-1ZM17,35.52V33.83h-.74v.41a1.27,1.27,0,0,0-1.06-.49,1.77,1.77,0,0,0,0,3.54,1.28,1.28,0,0,0,1.06-.5v.41H17Zm-2.74,0a1,1,0,0,1,1.08-1,1,1,0,1,1-1.09,1v-.09Z"
        />
        <g id="_Group_" data-name=" Group ">
          <rect
            class="mastercard-cls-3"
            x="20.38"
            y="8.08"
            width="11.14"
            height="20.01"
          />
          <path
            id="_Path_"
            data-name=" Path "
            class="mastercard-cls-4"
            d="M21.09,18.09A12.69,12.69,0,0,1,26,8.08a12.73,12.73,0,1,0,0,20A12.72,12.72,0,0,1,21.09,18.09Z"
          />
          <path
            class="mastercard-cls-5"
            d="M46.54,18.09A12.72,12.72,0,0,1,26,28.09a12.72,12.72,0,0,0,2.14-17.87A12,12,0,0,0,26,8.08a12.72,12.72,0,0,1,20.59,10Z"
          />
          <path
            class="mastercard-cls-5"
            d="M45.33,26v-.41h.16v-.08h-.42v.08h.18V26Zm.82,0v-.49H46l-.15.35-.15-.35h-.11V26h.09V25.6l.14.32h.09l.14-.32V26Z"
          />
        </g>
      </g>
    </g>
  </g>
</svg>
