<svg width="32" height="23" viewBox="0 0 32 23" xmlns="http://www.w3.org/2000/svg">
    <title>
        Mastercard
    </title>
    <g fill-rule="nonzero" fill="none">
        <path d="M10.011 21.795v-1.37c0-.525-.32-.867-.87-.867-.274 0-.572.09-.777.388-.16-.251-.39-.388-.733-.388a.74.74 0 0 0-.64.32v-.275h-.48v2.192h.48v-1.21c0-.388.206-.57.526-.57.32 0 .48.205.48.57v1.21h.481v-1.21c0-.388.229-.57.526-.57.32 0 .48.205.48.57v1.21h.527zm7.116-2.192h-.778v-.662h-.48v.662h-.435v.434h.435v1.004c0 .502.206.8.755.8.206 0 .434-.07.595-.16l-.138-.411a.754.754 0 0 1-.412.114c-.228 0-.32-.137-.32-.366v-.981h.778v-.434zm4.073-.045a.645.645 0 0 0-.572.32v-.275h-.48v2.192h.48v-1.233c0-.365.16-.57.458-.57.091 0 .206.022.297.045l.137-.457c-.091-.022-.228-.022-.32-.022zm-6.155.228c-.229-.16-.55-.228-.892-.228-.55 0-.916.274-.916.707 0 .365.275.57.755.64l.23.022c.25.046.388.114.388.228 0 .16-.183.274-.503.274s-.572-.114-.732-.228l-.23.365c.252.183.596.274.939.274.64 0 1.007-.297 1.007-.707 0-.388-.298-.594-.755-.662l-.23-.023c-.205-.023-.365-.069-.365-.206 0-.16.16-.25.412-.25.274 0 .549.113.686.182l.206-.388zm12.768-.228a.645.645 0 0 0-.572.32v-.275h-.48v2.192h.48v-1.233c0-.365.16-.57.457-.57.092 0 .206.022.298.045l.137-.457c-.091-.022-.229-.022-.32-.022zm-6.132 1.14c0 .663.457 1.142 1.166 1.142.32 0 .55-.068.778-.25l-.228-.389a.926.926 0 0 1-.572.206c-.39 0-.664-.274-.664-.708 0-.411.275-.685.664-.708.206 0 .389.069.572.206l.228-.388c-.228-.183-.457-.251-.778-.251-.709 0-1.166.479-1.166 1.14zm4.438 0v-1.095h-.48v.274a.827.827 0 0 0-.686-.32c-.618 0-1.099.48-1.099 1.142 0 .662.48 1.141 1.099 1.141.32 0 .549-.114.686-.32v.275h.48v-1.096zm-1.761 0c0-.387.251-.707.663-.707.39 0 .664.297.664.708 0 .388-.275.708-.664.708-.412-.023-.663-.32-.663-.708zm-5.744-1.14c-.64 0-1.098.456-1.098 1.14 0 .686.458 1.142 1.121 1.142.32 0 .641-.091.893-.297l-.23-.342a1.095 1.095 0 0 1-.64.228c-.297 0-.595-.137-.663-.525h1.624v-.182c.023-.708-.389-1.164-1.007-1.164zm0 .41c.298 0 .504.183.55.525h-1.145c.046-.296.252-.525.595-.525zm11.922.73v-1.962h-.48v1.141a.827.827 0 0 0-.687-.32c-.618 0-1.099.48-1.099 1.142 0 .662.48 1.141 1.099 1.141.32 0 .549-.114.686-.32v.275h.48v-1.096zm-1.762 0c0-.387.251-.707.663-.707.39 0 .664.297.664.708 0 .388-.275.708-.664.708-.412-.023-.663-.32-.663-.708zm-16.063 0v-1.095h-.48v.274a.827.827 0 0 0-.687-.32c-.618 0-1.098.48-1.098 1.142 0 .662.48 1.141 1.098 1.141.32 0 .55-.114.687-.32v.275h.48v-1.096zm-1.785 0c0-.387.252-.707.664-.707.389 0 .663.297.663.708 0 .388-.274.708-.663.708-.412-.023-.664-.32-.664-.708z" fill="#000"/>
        <path fill="#FF5F00" d="M14.88 2.96h7.21v12.92h-7.21z"/>
        <path d="M15.342 9.423a8.232 8.232 0 0 1 3.135-6.46 8.2 8.2 0 0 0-5.08-1.758c-4.553 0-8.237 3.675-8.237 8.218 0 4.542 3.684 8.217 8.237 8.217a8.2 8.2 0 0 0 5.08-1.757 8.198 8.198 0 0 1-3.135-6.46z" fill="#EB001B"/>
        <path d="M31.817 9.423c0 4.542-3.684 8.217-8.237 8.217a8.2 8.2 0 0 1-5.08-1.757 8.163 8.163 0 0 0 3.135-6.46 8.232 8.232 0 0 0-3.135-6.46 8.2 8.2 0 0 1 5.08-1.758c4.553 0 8.237 3.698 8.237 8.218z" fill="#F79E1B"/>
    </g>
</svg>
