<svg width="13" height="16" viewBox="0 0 13 16" xmlns="http://www.w3.org/2000/svg">
  <g id="card-nfc" fill="none">
    <path d="M.03 10.133c0-.2.068-.334.273-.667.342-.6.41-.933.41-1.667 0-.733-.068-1.066-.41-1.666C.235 6 .03 5.666.03 5.466c0-.4.341-.8.751-.8.342 0 .615.134.889.667.478.733.751 1.6.751 2.533 0 .933-.273 1.867-.751 2.6-.274.4-.547.6-.889.6-.41-.133-.751-.533-.751-.933zm2.87 1.466c0-.2.068-.333.341-.8.547-1 .752-2 .752-3.066 0-1-.205-2-.752-3-.273-.467-.341-.667-.341-.867 0-.2.273-.666.751-.666.479 0 .684.2 1.094 1 .615 1.133.888 2.2.888 3.533 0 1.4-.205 2.4-.956 3.8-.205.466-.479.866-.957.866-.479-.067-.82-.4-.82-.8zm3.075 1.533c0-.333.205-.6.41-1 .683-1.4 1.025-2.866 1.025-4.333 0-1.533-.342-3-1.093-4.466-.274-.533-.342-.8-.342-1 0-.266.342-.666.82-.666.547 0 .683.4 1.025.933.683 1.333 1.299 3.133 1.299 5.2 0 1.533-.342 3.133-1.162 4.932-.342.8-.684 1.2-1.094 1.2-.546 0-.888-.4-.888-.8zm3.007 1.534c0-.267.137-.534.342-.867 1.025-1.867 1.503-3.733 1.503-6.066 0-2.2-.41-3.933-1.435-6C9.255 1.4 9.05 1.067 9.05.8c0-.4.342-.733.752-.733.478 0 .683.266 1.025 1 1.162 2.2 1.64 4.333 1.64 6.666 0 2.4-.615 4.6-1.708 6.733-.205.466-.41 1-1.025 1-.342 0-.752-.334-.752-.8z" fill="#000000" fill-rule="evenodd"/>
  </g>
</svg>
