<svg xmlns="http://www.w3.org/2000/svg" viewBox="0 0 20.55 26.08">
  <title>NFC</title>
  <g id="Layer_2" data-name="Layer 2">
    <g id="Layer_1-2" data-name="Layer 1">
      <path
        d="M0,17.05a2.09,2.09,0,0,1,.45-1.13,4.72,4.72,0,0,0,.68-2.82,4.72,4.72,0,0,0-.68-2.82A3.47,3.47,0,0,1,0,9.15,1.36,1.36,0,0,1,1.24,7.79c.57,0,1,.23,1.47,1.13A8,8,0,0,1,4,13.21a8.39,8.39,0,0,1-1.24,4.41,1.81,1.81,0,0,1-1.47,1A1.81,1.81,0,0,1,0,17.05"
      />
      <path
        d="M4.74,19.53c0-.33.12-.56.57-1.35A10.7,10.7,0,0,0,6.55,13,10.62,10.62,0,0,0,5.31,7.9a3,3,0,0,1-.57-1.46A1.32,1.32,0,0,1,6,5.31c.8,0,1.13.34,1.81,1.69a12,12,0,0,1,1.47,6,12.35,12.35,0,0,1-1.58,6.43c-.34.79-.79,1.47-1.58,1.47a1.46,1.46,0,0,1-1.36-1.36"
      />
      <path
        d="M9.82,22.13a4.1,4.1,0,0,1,.68-1.69,17,17,0,0,0,1.69-7.34,16.61,16.61,0,0,0-1.8-7.57,4,4,0,0,1-.57-1.69,1.37,1.37,0,0,1,1.36-1.13c.9,0,1.13.68,1.69,1.58A19.84,19.84,0,0,1,15,13.1a20.25,20.25,0,0,1-1.92,8.35c-.57,1.36-1.13,2-1.81,2a1.41,1.41,0,0,1-1.47-1.36"
      />
      <path
        d="M14.79,24.73a3,3,0,0,1,.57-1.47A20.68,20.68,0,0,0,17.84,13,21.72,21.72,0,0,0,15.47,2.82a5.2,5.2,0,0,1-.56-1.58A1.25,1.25,0,0,1,16.15,0c.79,0,1.13.45,1.69,1.69A23.79,23.79,0,0,1,20.55,13a25.12,25.12,0,0,1-2.82,11.4c-.34.79-.68,1.69-1.7,1.69a1.35,1.35,0,0,1-1.24-1.35"
      />
    </g>
  </g>
</svg>
