<svg width="554" height="112" viewBox="0 0 554 112" fill="none" xmlns="http://www.w3.org/2000/svg"><title>Red Compra</title><path fill-rule="evenodd" clip-rule="evenodd" d="M0 .3h267L235.9 112H0V.3z" fill="#BE0811"/><path fill-rule="evenodd" clip-rule="evenodd" d="M553.8.3L522.2 112H235.9L267 .3h286.8z" fill="#001D7E"/><path d="M307.1 53.3c.6-3.7.8-6.8.7-9.4-.1-2.6-.6-4.7-1.3-6.4-.7-1.7-1.6-3.1-2.7-4-1.1-1-2.3-1.7-3.7-2.1-1.4-.4-2.7-.6-4.2-.6-2.7 0-5.4.6-7.9 1.7-2.6 1.1-5 2.9-7.2 5.3-2.3 2.4-4.4 5.5-6.3 9.2-1.9 3.8-3.6 8.3-5 13.5-1.4 5.3-2.3 9.8-2.5 13.7-.2 3.8.2 7 1.1 9.5.9 2.5 2.3 4.3 4.2 5.5 1.8 1.2 4.1 1.8 6.8 1.8 2.3 0 4.6-.3 6.8-1s4.3-2 6.4-3.8c2.1-1.8 4-4.3 6-7.5 1.9-3.2 3.7-7.3 5.4-12.3h-9.5c-.8 2.4-1.8 4.4-2.9 6.1-1.2 1.7-2.4 3-3.7 4-1.3.9-2.7 1.4-4.1 1.4-1.9 0-3.4-.7-4.3-2-1-1.3-1.5-3.3-1.5-5.9 0-2.6.5-5.7 1.5-9.3 1-3.7 2.2-6.7 3.6-9.3 1.4-2.5 2.9-4.5 4.6-5.8 1.7-1.3 3.5-2 5.4-2 1.3 0 2.3.3 3.2.9.8.6 1.4 1.6 1.8 3.1.3 1.4.4 3.4.1 5.8 2.9-.1 6-.1 9.2-.1zm1.2 7.3c-1.4 5.3-2.1 9.8-2.2 13.7-.1 3.8.3 7 1.3 9.5s2.5 4.3 4.5 5.5c2 1.2 4.4 1.8 7.2 1.8s5.5-.6 8.1-1.8c2.6-1.2 5-3 7.3-5.5s4.3-5.6 6.2-9.5c1.8-3.8 3.4-8.4 4.8-13.7 1.3-5.3 2-9.8 2-13.5.1-3.8-.4-6.9-1.4-9.3-1-2.4-2.5-4.2-4.5-5.3-1.9-1.1-4.3-1.7-7.1-1.7-2.7 0-5.4.6-7.9 1.7s-4.9 2.9-7.2 5.3-4.3 5.5-6.2 9.3c-1.9 3.7-3.6 8.2-4.9 13.5zm9.5 0c.9-3.7 2.1-6.7 3.5-9.3 1.4-2.5 2.9-4.5 4.5-5.8 1.7-1.3 3.5-2 5.4-2 1.9 0 3.3.7 4.3 2s1.5 3.2 1.6 5.8c.1 2.5-.4 5.6-1.3 9.3-.9 3.7-2.1 6.8-3.4 9.3-1.4 2.6-2.9 4.5-4.6 5.9-1.7 1.3-3.5 2-5.4 2-1.9 0-3.4-.7-4.4-2-1-1.3-1.5-3.3-1.6-5.9 0-2.5.4-5.6 1.4-9.3zm69.5 28.2h9.3c1.5-6.4 2.9-12.8 4.4-19.2 1.5-6.3 2.9-12.7 4.4-18.9.8-3.6 1.2-6.7 1.2-9.2 0-2.5-.4-4.5-1.1-5.9-.7-1.5-1.6-2.5-2.8-3.2-1.2-.7-2.5-1-3.9-1-2.5 0-5 .9-7.3 2.7-2.3 1.8-4.6 4.3-6.6 7.7 0-2.1-.2-3.9-.6-5.5-.4-1.5-1.2-2.7-2.3-3.6-1.1-.9-2.5-1.3-4.2-1.3-1.3 0-2.7.3-4 .8-1.3.6-2.6 1.3-3.8 2.2-1.2.9-2.3 1.9-3.3 3s-1.8 2.3-2.6 3.4h-.1c.7-2.7 1.3-5.3 2-8h-8.8c-2.3 9.2-4.6 18.4-6.9 27.7-2.3 9.3-4.6 18.8-7 28.2h9.3c1.3-5.1 2.5-10.2 3.7-15.3 1.2-5.1 2.5-10.1 3.7-15.2.5-2.2 1.2-4.1 1.9-5.7.8-1.6 1.6-3 2.5-4 .9-1.1 1.8-1.8 2.8-2.4 1-.5 1.9-.8 2.9-.8.7 0 1.3.1 1.8.4.6.3 1 .8 1.4 1.5.4.7.6 1.7.6 2.9s-.2 2.8-.6 4.6c-1.3 5.6-2.7 11.2-4 16.8-1.4 5.6-2.7 11.3-4.1 17h9.3l3.6-15.3c1.2-5.1 2.4-10.1 3.6-15.2.5-2.2 1.2-4.1 1.9-5.7.7-1.6 1.6-3 2.4-4 .9-1.1 1.8-1.8 2.8-2.4.9-.5 1.9-.8 2.8-.8.7 0 1.3.1 1.9.4.6.3 1.1.8 1.4 1.5.4.7.6 1.7.6 2.9s-.1 2.8-.6 4.6L391 71.3c-1.1 6.2-2.4 11.8-3.7 17.5zm30.9-27.9c.6-2.7 1.4-5 2.3-7 .9-2 1.9-3.7 3-5 1.1-1.3 2.2-2.3 3.4-3 1.2-.7 2.3-1 3.5-1 1.2 0 2.2.3 3.1 1 .9.7 1.6 1.7 2.1 3s.8 3 .8 5-.3 4.3-.8 7c-.6 2.7-1.3 5-2.2 7-.9 2-1.9 3.7-3 5.1-1.1 1.4-2.2 2.4-3.4 3.1-1.2.7-2.4 1-3.6 1-1.2 0-2.2-.3-3.1-1-.9-.7-1.6-1.7-2.1-3.1-.5-1.4-.7-3.1-.7-5.1-.2-2 .1-4.3.7-7zm-20.1 49.2h9.4c1-4.6 2.1-9.3 3.1-13.9s2.1-9.2 3.1-13.8h.1c.2 1.7.7 3.2 1.5 4.5.7 1.3 1.8 2.3 3 3 1.3.7 2.8 1 4.5 1.1 2.2 0 4.5-.8 6.7-2.2 2.2-1.5 4.3-3.5 6.3-6.2s3.8-5.9 5.4-9.6c1.6-3.7 2.9-7.8 3.9-12.4 1.1-4.9 1.6-9.2 1.5-12.8 0-3.7-.5-6.7-1.5-9.1-1-2.4-2.3-4.2-3.9-5.4-1.7-1.2-3.7-1.8-5.9-1.8-1.3 0-2.5.2-3.8.7-1.3.5-2.6 1.4-4 2.7-1.4 1.3-2.9 3.1-4.6 5.6h-.1c.6-2.5 1.1-5 1.7-7.5h-8.8c-2.9 12.6-5.8 25.3-8.7 38.1-3 12.9-5.9 25.9-8.9 39zM444 88.8h9.3c.9-4.1 1.7-8.2 2.6-12.2.9-4.1 1.7-8.1 2.6-12.1.8-3.6 1.8-6.7 3-9.3 1.2-2.5 2.6-4.5 4.3-5.8 1.6-1.3 3.5-2 5.6-2 .8 0 1.7.2 2.4.5.8.3 1.5.7 2.3 1.2 1.2-5.7 2.3-11.4 3.5-17-.5-.2-1-.3-1.6-.4-.6-.1-1.1-.1-1.6-.1-1.3 0-2.5.2-3.6.7-1.1.5-2.2 1.2-3.3 2.2-1 1-2.1 2.3-3.2 3.8s-2.3 3.4-3.6 5.5h-.1c.8-3.6 1.5-7.2 2.3-10.8h-8.8c-2 9.2-4 18.4-6 27.7S446 79.4 444 88.8zm55.9-22.9c-.4 1.9-.9 3.6-1.6 5.1-.7 1.5-1.5 2.8-2.3 3.9-.9 1.1-1.8 2-2.8 2.8-1 .7-2 1.3-3 1.7-1 .4-2 .5-2.9.5-1.2 0-2.1-.3-2.9-.9-.7-.6-1.3-1.5-1.5-2.7-.2-1.2-.2-2.6.1-4.3.3-1.7.8-3 1.4-4 .6-1 1.3-1.8 2.1-2.3.8-.5 1.8-.8 2.9-1 1.8-.3 3.7-.6 5.5-.9.9-.1 1.9-.4 2.9-.7 1-.3 2-.9 3-1.7-.2 1.5-.6 3-.9 4.5zm-11.5-16.1c.7-1.9 1.4-3.4 2-4.5.7-1.1 1.3-1.9 2-2.5.7-.5 1.4-.9 2.2-1 .8-.2 1.7-.2 2.6-.2 1.8 0 3.1.2 4.1.7.9.5 1.6 1.2 1.8 2.2.3 1 .3 2.2 0 3.7s-.6 2.6-1 3.4c-.4.8-.9 1.4-1.5 1.7-.6.3-1.4.6-2.4.7-3.3.5-6.7.9-10 1.3-1.2.1-2.3.4-3.5.8-1.2.4-2.4 1-3.5 1.7s-2.2 1.8-3.3 3c-1 1.3-1.9 2.9-2.8 4.8-.8 1.9-1.6 4.3-2.1 7-.7 3.3-.9 6.1-.8 8.4.1 2.3.6 4.2 1.4 5.7.8 1.5 1.9 2.6 3.3 3.2 1.4.7 3 1 4.9 1 1.1 0 2.2-.1 3.5-.4 1.3-.3 2.6-.7 3.9-1.3 1.3-.6 2.6-1.5 3.9-2.5 1.3-1.1 2.5-2.4 3.6-4-.1 1-.3 2-.4 3-.1 1-.1 2-.2 3h9.3c-.1-1.4 0-3.1.2-4.9.2-1.9.5-4.1 1-6.5.9-4.7 1.8-9.3 2.7-14l2.7-13.8c.4-2.1.7-4.1.8-5.9.1-1.9 0-3.6-.4-5.2s-1.1-2.9-2-4c-1-1.1-2.3-2-4-2.7-1.7-.6-3.9-1-6.5-1-1.5 0-3 .1-4.5.3-1.6.2-3 .7-4.5 1.4s-2.9 1.8-4.3 3.2c-1.4 1.4-2.6 3.2-3.8 5.5-1.2 2.3-2.2 5.1-3.1 8.5 2.8.2 5.7.2 8.7.2zM113.3 27.4H129c.8 0 1.5.1 2.2.4.7.3 1.2.8 1.7 1.5.4.7.6 1.7.7 2.9 0 1.2-.3 2.8-.8 4.7-.5 1.8-1.2 3.3-1.9 4.5-.7 1.2-1.5 2.2-2.3 3-.8.8-1.6 1.3-2.4 1.7-.8.3-1.5.5-2.2.5h-16.3c1.6-6.4 3.6-12.8 5.6-19.2zm-15 8.5H0v9.2h95.5l-1.6 5.1H0v9.3h91l-1.6 5.1H0v9.2h86.6l-1.9 6.1H0v9.2h94.4l9.2-28.1h14.8c1 0 1.8.2 2.5.6.7.4 1.2 1.1 1.4 2.1.3 1 .3 2.3.1 4.1-.2 1.7-.7 3.9-1.5 6.6-.6 2-1.1 3.7-1.6 5.2-.4 1.5-.8 2.8-1 3.8-.3 1.1-.5 2.1-.6 3-.1.9-.2 1.8-.2 2.7H131c-.2-1-.3-2.2-.2-3.7.1-1.5.4-3 .7-4.7.3-1.6.7-3.2 1.1-4.7.4-1.4.7-2.6 1-3.6.5-1.5.9-3.1 1.4-4.9.4-1.7.8-3.4 1.1-5.1.3-1.7.4-3.3.4-4.8s-.3-2.7-.7-3.7c-.4-1-1.1-1.6-2.1-1.9 0-.1 0-.1.1-.2 3-1.6 5.6-3.8 7.7-6.9 2.1-3 3.9-6.9 5.3-11.5.5-1.6.9-3.3 1.2-5.1.3-1.9.5-3.7.4-5.5 0-1.8-.4-3.5-1-5s-1.7-2.7-3.1-3.6c-1.4-.9-3.4-1.4-5.9-1.4h-32.9l-7.2 23.1zM170.9 72c-1.6 2.5-3.3 4.3-5.3 5.6-1.9 1.3-4.1 1.9-6.3 1.9-1.9 0-3.4-.5-4.5-1.4-1.1-.9-1.9-2.1-2.4-3.5s-.7-2.9-.6-4.5c.1-1.6.3-3.1.7-4.5 0-.1 0-.1.1-.2h32.9c.2-.6.3-1.1.5-1.7 2.2-7.2 3.2-13.3 3.2-18.4-.1-5.1-1.3-8.9-3.7-11.6-2.4-2.7-6.1-4-11-4-3.4 0-6.6.6-9.7 1.8-3.1 1.2-6 3-8.8 5.5-2.7 2.5-5.2 5.7-7.5 9.6-2.3 3.9-4.2 8.5-5.9 13.9-1.6 5.4-2.5 10-2.6 13.9-.1 3.9.4 7.1 1.7 9.6 1.2 2.5 3 4.4 5.4 5.5 2.4 1.2 5.3 1.8 8.7 1.8 3.4 0 6.8-.7 10-2s6.3-3.4 9.1-6.3c2.9-2.9 5.6-6.5 8-11.1-4 .1-8 .1-12 .1zM156 54.4c0-.1 0-.1.1-.2.1-.3.4-.9.8-1.8.5-1 1.1-2 1.9-3.2.8-1.2 1.8-2.4 3-3.5 1.2-1.2 2.5-2.1 4-2.9 1.5-.8 3.1-1.2 4.9-1.2 1.6 0 2.9.3 3.9 1s1.7 1.5 2.2 2.6c.5 1.1.8 2.2.9 3.3.1 1.2.1 2.3 0 3.3s-.2 1.9-.5 2.5c0 .1 0 .1-.1.2-7-.1-14-.1-21.1-.1zm46.6 6.4c.8-2.7 1.8-5.1 3-7.2 1.2-2.1 2.5-3.8 3.9-5.2 1.4-1.4 2.8-2.4 4.3-3.1 1.5-.7 2.9-1.1 4.4-1.1 1.4 0 2.6.3 3.7 1.1 1 .7 1.8 1.7 2.4 3.1.6 1.4.8 3.1.8 5.2-.1 2.1-.5 4.5-1.3 7.2s-1.8 5.1-3 7.2c-1.2 2.1-2.5 3.8-3.9 5.2-1.4 1.4-2.8 2.4-4.3 3.1-1.5.7-2.9 1.1-4.3 1.1s-2.7-.4-3.7-1.1c-1.1-.7-1.9-1.7-2.4-3.1-.6-1.4-.8-3.1-.7-5.2-.1-2.1.3-4.5 1.1-7.2zm12.6 28.4h10.9c3.9-13 7.7-25.9 11.6-38.8 3.8-12.9 7.7-25.8 11.5-38.6H238c-1.4 4.5-2.7 9.1-4.1 13.6-1.4 4.5-2.7 9.1-4.1 13.6h-.1c-.2-1.7-.7-3.2-1.6-4.5-.9-1.3-2-2.3-3.5-3-1.5-.7-3.3-1.1-5.4-1.1-2.7 0-5.4.7-8.1 2.2-2.7 1.4-5.4 3.5-7.9 6.2s-4.8 5.9-6.9 9.7c-2.1 3.8-3.9 8-5.3 12.6-1.5 5-2.3 9.4-2.5 13.2-.2 3.8.2 6.9 1.2 9.4s2.4 4.4 4.3 5.7c1.9 1.3 4.2 1.9 6.9 1.9 1.7 0 3.4-.2 5.2-.8 1.8-.5 3.6-1.5 5.4-2.9 1.8-1.4 3.7-3.3 5.7-5.7h.1c-.7 2.5-1.4 4.9-2.1 7.3z" fill="#fff"/></svg>