<svg xmlns="http://www.w3.org/2000/svg" viewBox="0 0 51.25 32.06">
  <title>Union Pay</title>
  <defs>
    <style>
      .union-pay-cls-1 {
        fill: #e22242;
      }
      .union-pay-cls-2 {
        fill: #005183;
      }
      .union-pay-cls-3 {
        fill: #00848c;
      }
      .union-pay-cls-4,
      .union-pay-cls-5 {
        fill: #fff;
      }
      .union-pay-cls-4 {
        fill-rule: evenodd;
      }
    </style>
  </defs>
  <g id="Layer_2" data-name="Layer 2">
    <g id="Layer_1-2" data-name="Layer 1">
      <path
        class="union-pay-cls-1"
        d="M10,0H22.83a2.5,2.5,0,0,1,2.48,3.25l-6,25.57a4.35,4.35,0,0,1-4,3.24H2.57A2.49,2.49,0,0,1,.09,28.82l6-25.57A4.33,4.33,0,0,1,10,0Z"
      />
      <path
        class="union-pay-cls-2"
        d="M21.76,0H36.47c1.79,0,1,1.46.56,3.25l-6,25.57c-.42,1.78-.29,3.24-2.08,3.24H14.29a2.48,2.48,0,0,1-2.47-3.24L17.77,3.25A4.35,4.35,0,0,1,21.76,0Z"
      />
      <path
        class="union-pay-cls-3"
        d="M35.89,0H48.68a2.49,2.49,0,0,1,2.48,3.25L45.21,28.82a4.35,4.35,0,0,1-4,3.24H28.42a2.49,2.49,0,0,1-2.48-3.24l6-25.57A4.34,4.34,0,0,1,35.89,0Z"
      />
      <path
        class="union-pay-cls-4"
        d="M33.76,24.05H35l.35-1.16h-1.2Zm1-3.2-.42,1.37a7,7,0,0,1,.71-.31l.62-.1.3-1H34.72m.6-2-.4,1.32a5.44,5.44,0,0,1,.69-.27,3.56,3.56,0,0,1,.62-.09l.29-1h-1.2m2.67,0L36.43,24h.42l-.33,1.06h-.41l-.1.33H34.52l.1-.33h-3l.3-1h.31l1.58-5.24.31-1.06h1.52l-.16.53a2.64,2.64,0,0,1,.78-.38,24.64,24.64,0,0,1,2.58-.14l-.33,1.05H38"
      />
      <path
        class="union-pay-cls-5"
        d="M38.65,17.83h1.62l0,.6c0,.1.07.15.26.15h.33l-.3,1h-.87c-.76.06-1-.27-1-.63Z"
      />
      <path
        class="union-pay-cls-5"
        d="M38.87,22.54H37.33l.26-.88h1.76l.25-.81H37.86l.3-1H43l-.3,1H41.07l-.25.81h1.63l-.27.88H40.42l-.31.38h.71L41,24a.54.54,0,0,0,.06.23.91.91,0,0,0,.38.06h.21l-.33,1.08h-.93a.87.87,0,0,1-.39-.17.52.52,0,0,1-.29-.37l-.17-1.12-.8,1.1a1.36,1.36,0,0,1-1.18.61H36.43l.29-1h.43a.75.75,0,0,0,.32-.09.43.43,0,0,0,.23-.19Z"
      />
      <path
        class="union-pay-cls-5"
        d="M22,20.12h4.08l-.3,1H24.15l-.25.83h1.66l-.3,1H23.59l-.4,1.35c-.05.14.39.16.55.16l.84-.11-.34,1.11H22.36a1.58,1.58,0,0,1-.42-.06.44.44,0,0,1-.3-.22.42.42,0,0,1-.11-.43l.55-1.79h-.93l.31-1h.93l.24-.83h-.92Z"
      />
      <path
        class="union-pay-cls-5"
        d="M24.75,18.37h1.67l-.3,1H23.83l-.25.21c-.1.11-.14.06-.28.14a1.74,1.74,0,0,1-.75.19h-.73l.29-1h.22a.83.83,0,0,0,.38-.05.92.92,0,0,0,.24-.32l.43-.76H25Z"
      />
      <path
        class="union-pay-cls-4"
        d="M28,20a2.64,2.64,0,0,1,1.23-.55c.18,0,1.29,0,1.29,0l.17-.56H28.3Zm2.2.43H27.83l-.14.47h2c.23,0,.28,0,.31,0l.14-.46m-3-2.64h1.42l-.2.72a3.78,3.78,0,0,1,.76-.49,6.61,6.61,0,0,1,1-.22l2.31,0-.78,2.62a3,3,0,0,1-.39.87,1,1,0,0,1-.39.36,1.58,1.58,0,0,1-.53.18l-.71,0H27.43l-.63,2.06c-.06.21-.09.31-.05.37a.28.28,0,0,0,.21.1l1-.09-.33,1.13h-1.1l-.78,0a1,1,0,0,1-.46-.09c-.1-.09-.26-.21-.26-.33s.06-.3.13-.56l2-6.61"
      />
      <path
        class="union-pay-cls-5"
        d="M31.29,22.05l-.13.63a.83.83,0,0,1-.25.47,1,1,0,0,1-.77.27l-.79,0v.71c0,.2.05.18.08.21a.46.46,0,0,0,.1.07l.26,0,.75,0-.31,1h-.87a2.83,2.83,0,0,1-1.2-.13c-.15-.09-.17-.21-.17-.41L28,22.11h1.38l0,.57h.34a.49.49,0,0,0,.24,0,.32.32,0,0,0,.09-.15l.14-.44Z"
      />
      <path
        class="union-pay-cls-5"
        d="M11.55,8.16l-.94,4.33a3,3,0,0,1-.8,1.8,1.45,1.45,0,0,1-1,.33.88.88,0,0,1-1-.84v-.19l.18-1.11S9,8.74,9.15,8.25a.15.15,0,0,0,0-.06A12.58,12.58,0,0,1,7,8.16c0,.05-.06.28-.06.28l-1,4.2L5.92,13l-.16,1.17A1.76,1.76,0,0,0,6,15c.43.76,1.67.87,2.37.87a4.6,4.6,0,0,0,2.32-.54,3.42,3.42,0,0,0,1.48-2.31l.11-.42s1-3.88,1.12-4.38a.42.42,0,0,1,0-.06A12.18,12.18,0,0,1,11.55,8.16Z"
      />
      <path
        class="union-pay-cls-5"
        d="M16.86,15.86c-.64,0-.87,0-1.62,0l0-.05c.06-.29.13-.57.2-.86l.09-.4a13.68,13.68,0,0,0,.29-1.53c0-.13.06-.45-.31-.45a1.2,1.2,0,0,0-.49.15c-.09.33-.27,1.24-.36,1.65-.18.87-.19,1-.28,1.4l0,.06c-.66,0-.89,0-1.66,0l0-.06c.13-.52.25-1,.37-1.56a23.22,23.22,0,0,0,.49-2.67l.06,0c.74-.1.92-.12,1.73-.29l.07.08-.13.45c.14-.08.27-.17.41-.24a2.62,2.62,0,0,1,1-.24.87.87,0,0,1,.9.51c.16.36.05.81-.15,1.69l-.1.45c-.21,1-.24,1.16-.36,1.83Z"
      />
      <path
        class="union-pay-cls-5"
        d="M19.47,15.86h-.88l-.84,0,0,0,0,0a6.69,6.69,0,0,1,.2-.64,3.51,3.51,0,0,0,.18-.64,10.37,10.37,0,0,0,.23-1.14c.05-.29.08-.54.12-.83l0,0,0,0,.88-.13c.26,0,.51-.08.91-.16v0l0,0c-.08.31-.15.61-.23.92l-.21.92c-.15.65-.2.89-.24,1.07s0,.25-.1.58l0,0Z"
      />
      <path
        class="union-pay-cls-5"
        d="M23.57,13.58a3.66,3.66,0,0,1-.38,1.05.63.63,0,0,1-.48.31c-.05,0-.37,0-.38-.47a3.32,3.32,0,0,1,.11-.74c.17-.74.37-1.37.88-1.37S23.74,12.82,23.57,13.58Zm1.68.07a1.93,1.93,0,0,0-.17-1.74,1.91,1.91,0,0,0-1.54-.56,2.82,2.82,0,0,0-1.93.67,3.1,3.1,0,0,0-.86,1.67c-.14.6-.3,1.69.7,2.1a3,3,0,0,0,1,.17,2.74,2.74,0,0,0,2.06-.8,3.71,3.71,0,0,0,.7-1.51"
      />
      <path
        class="union-pay-cls-5"
        d="M41,15.93c-.78,0-1,0-1.72,0l0,0c.19-.74.39-1.48.56-2.23a14.62,14.62,0,0,0,.35-1.94l.06-.05c.77-.11,1-.14,1.79-.29l0,.07c-.15.61-.29,1.21-.43,1.82-.3,1.28-.41,1.93-.52,2.6Z"
      />
      <path
        class="union-pay-cls-5"
        d="M39.81,13.66a3.29,3.29,0,0,1-.38,1.05.86.86,0,0,1-.62.3c-.05,0-.37,0-.38-.46a3.36,3.36,0,0,1,.1-.74c.18-.73.37-1.35.88-1.35S40,12.91,39.81,13.66Zm1.54.07c.22-1-.69-.08-.83-.41-.22-.5-.08-1.53-1-1.87a2.13,2.13,0,0,0-1.84.67,3.09,3.09,0,0,0-.85,1.66c-.14.59-.3,1.68.69,2.07a1.85,1.85,0,0,0,.9.16c1-.05,1.76-1.57,2.33-2.16s.51.17.58-.12"
      />
      <path
        class="union-pay-cls-5"
        d="M29.65,15.86c-.65,0-.87,0-1.62,0l0-.05c.06-.29.14-.57.2-.86l.09-.4a13.68,13.68,0,0,0,.29-1.53c0-.13.06-.45-.31-.45a1.2,1.2,0,0,0-.49.15c-.08.33-.27,1.24-.36,1.65-.18.87-.19,1-.28,1.4l-.05.06c-.66,0-.89,0-1.66,0l0-.06c.13-.52.25-1,.38-1.56a22.61,22.61,0,0,0,.48-2.67l.06,0c.74-.1.92-.12,1.73-.29l.06.08L28,11.8c.14-.08.27-.17.41-.24a2.62,2.62,0,0,1,1-.24.9.9,0,0,1,.91.51c.15.36,0,.81-.16,1.69l-.1.45c-.21,1-.24,1.16-.36,1.83Z"
      />
      <path
        class="union-pay-cls-5"
        d="M35.22,8.16h-.54c-1.39,0-1.94,0-2.17,0l-.06.28L32,10.74s-1.19,4.91-1.25,5.14c1.22,0,1.72,0,1.93,0,0-.23.33-1.6.33-1.6s.24-1,.25-1a.66.66,0,0,1,.15-.15h.11a5.18,5.18,0,0,0,3.16-.68,3.42,3.42,0,0,0,1.26-2A3,3,0,0,0,38,9.73a1.43,1.43,0,0,0-.25-.89C37.25,8.18,36.31,8.16,35.22,8.16Zm.7,2.4A1.71,1.71,0,0,1,35,11.72a2.82,2.82,0,0,1-1.22.19h-.29l0-.12.53-2.3v-.2l.21,0,1.12.09a.92.92,0,0,1,.49,1.16"
      />
      <path
        class="union-pay-cls-5"
        d="M47.34,11.39l-.07-.08a16.14,16.14,0,0,1-1.66.29l-.06.05a.08.08,0,0,1,0,0v0c-.54,1.26-.53,1-1,2v-.12l-.11-2.13-.07-.08a16,16,0,0,1-1.62.29l-.06.05s0,.06,0,.09h0c.09.49.07.38.17,1.15,0,.38.1.77.15,1.14.07.63.12.94.21,1.9-.52.85-.64,1.18-1.14,1.93l0,.07c.75,0,.92,0,1.48,0l.12-.14C44.14,16.87,47.34,11.39,47.34,11.39Z"
      />
      <path
        class="union-pay-cls-5"
        d="M20.18,11.91c.42-.29.48-.7.12-.91a1.44,1.44,0,0,0-1.43.15c-.43.29-.48.7-.11.92A1.45,1.45,0,0,0,20.18,11.91Z"
      />
      <path
        class="union-pay-cls-5"
        d="M43.66,17.85,43,18.92a1.22,1.22,0,0,1-1.15.64h-1l.29-1h.19a.49.49,0,0,0,.23,0,.29.29,0,0,0,.13-.12l.37-.58Z"
      />
    </g>
  </g>
</svg>
