<svg width="256" height="160" viewBox="0 0 256 160" xmlns="http://www.w3.org/2000/svg" preserveAspectRatio="xMidYMid">
    <path d="M50.042 0h63.778c8.903 0 14.44 7.257 12.364 16.19L96.49 143.675c-2.095 8.902-11.01 16.165-19.918 16.165H12.799c-8.89 0-14.44-7.263-12.363-16.165L30.142 16.19C32.219 7.257 41.128 0 50.042 0" fill="#E21836"/>
    <path d="M108.513 0h73.344c8.901 0 4.888 7.257 2.794 16.19l-29.69 127.485c-2.082 8.902-1.433 16.165-10.353 16.165H71.265c-8.92 0-14.44-7.263-12.345-16.165L88.607 16.19C90.715 7.257 99.606 0 108.513 0" fill="#00447C"/>
    <path d="M178.948 0h63.778c8.916 0 14.453 7.257 12.36 16.19l-29.69 127.485c-2.095 8.902-11.015 16.165-19.93 16.165h-63.748c-8.92 0-14.453-7.263-12.363-16.165L159.048 16.19C161.125 7.257 170.028 0 178.948 0" fill="#007B84"/>
    <path d="M66.698 40.856c-6.558.067-8.495 0-9.114-.146-.238 1.13-4.664 21.546-4.676 21.563-.953 4.13-1.646 7.075-4.002 8.976-1.336 1.105-2.897 1.639-4.707 1.639-2.908 0-4.603-1.445-4.887-4.184l-.055-.94s.886-5.533.886-5.564c0 0 4.645-18.605 5.477-21.064.044-.14.056-.213.067-.28-9.041.08-10.644 0-10.754-.146-.061.2-.285 1.354-.285 1.354l-4.743 20.97-.407 1.778-.788 5.817c0 1.725.339 3.134 1.013 4.325 2.161 3.776 8.325 4.342 11.812 4.342 4.492 0 8.707-.955 11.555-2.698 4.943-2.92 6.237-7.486 7.39-11.544l.535-2.081S65.8 43.65 66.613 41.136c.03-.14.043-.213.085-.28zm16.28 15.588c-1.153 0-3.26.28-5.154 1.208-.687.353-1.337.76-2.023 1.166l.619-2.234-.339-.376c-4.015.813-4.914.922-8.623 1.444l-.31.207c-.431 3.57-.814 6.255-2.41 13.274-.608 2.587-1.24 5.199-1.872 7.78l.17.327c3.802-.2 4.955-.2 8.259-.146l.267-.29c.42-2.15.474-2.654 1.404-7.009.437-2.064 1.348-6.6 1.797-8.215.825-.383 1.64-.759 2.417-.759 1.852 0 1.626 1.615 1.555 2.259-.08 1.08-.754 4.609-1.446 7.639l-.462 1.955c-.321 1.445-.674 2.848-.996 4.28l.14.286c3.746-.2 4.889-.2 8.088-.146l.376-.29c.579-3.358.748-4.257 1.774-9.146l.516-2.246c1.003-4.397 1.507-6.626.748-8.442-.802-2.035-2.727-2.526-4.494-2.526zm18.188 4.603c-1.992.383-3.262.637-4.524.802-1.251.2-2.472.383-4.396.65l-.153.138-.14.11c-.2 1.434-.34 2.673-.606 4.13-.225 1.506-.572 3.218-1.136 5.677-.437 1.882-.662 2.538-.911 3.2-.243.663-.51 1.307-1.001 3.158l.115.171.096.157c1.799-.085 2.976-.146 4.185-.157 1.208-.043 2.46 0 4.396.01l.17-.137.182-.153c.28-1.67.321-2.119.492-2.933.17-.874.462-2.083 1.179-5.314.339-1.517.716-3.03 1.068-4.578.365-1.542.747-3.06 1.111-4.578l-.054-.183-.073-.17zm.042-6.206c-1.81-1.068-4.985-.729-7.123.746-2.131 1.446-2.374 3.498-.57 4.58 1.778 1.038 4.966.729 7.085-.759 2.127-1.477 2.393-3.51.608-4.567zm10.943 24.734c3.661 0 7.414-1.01 10.239-4.003 2.173-2.428 3.17-6.041 3.515-7.529 1.123-4.931.248-7.233-.85-8.635-1.67-2.138-4.621-2.824-7.682-2.824-1.84 0-6.224.182-9.649 3.34-2.46 2.277-3.596 5.368-4.281 8.33-.692 3.02-1.488 8.454 3.51 10.477 1.542.662 3.765.844 5.198.844zm-.286-11.095c.844-3.734 1.841-6.868 4.384-6.868 1.993 0 2.138 2.332 1.252 6.078-.159.832-.886 3.924-1.87 5.24-.688.972-1.5 1.561-2.4 1.561-.267 0-1.857 0-1.882-2.361-.012-1.166.226-2.357.516-3.65zm23.191 10.615l.286-.291c.406-2.15.473-2.655 1.371-7.008.45-2.065 1.38-6.6 1.816-8.216.827-.384 1.628-.76 2.43-.76 1.839 0 1.615 1.615 1.542 2.259-.067 1.082-.742 4.609-1.446 7.639l-.437 1.955c-.334 1.446-.698 2.848-1.02 4.282l.14.286c3.76-.2 4.858-.2 8.076-.146l.389-.291c.564-3.36.717-4.258 1.774-9.146l.503-2.247c1.008-4.397 1.518-6.624.771-8.44-.825-2.035-2.762-2.526-4.505-2.526-1.155 0-3.273.278-5.156 1.208-.673.352-1.348.758-2.01 1.166l.577-2.234-.31-.378c-4.014.814-4.93.923-8.635 1.446l-.285.206c-.449 3.571-.814 6.254-2.41 13.275-.609 2.586-1.24 5.198-1.871 7.779l.17.328c3.807-.2 4.943-.2 8.24-.146zm27.618.145c.236-1.154 1.64-7.99 1.652-7.99 0 0 1.195-5.017 1.269-5.199 0 0 .376-.522.752-.729h.553c5.222 0 11.119 0 15.74-3.4 3.145-2.332 5.295-5.775 6.254-9.96.249-1.026.432-2.246.432-3.466 0-1.603-.321-3.189-1.251-4.428-2.357-3.297-7.05-3.358-12.468-3.383l-2.67.025c-6.935.086-9.716.061-10.859-.079-.096.505-.278 1.404-.278 1.404s-2.484 11.513-2.484 11.531l-6.225 25.632c6.055-.073 8.538-.073 9.583.042zm4.603-20.452s2.64-11.49 2.628-11.446l.086-.59.037-.448 1.056.108s5.447.468 5.574.48c2.15.832 3.036 2.976 2.418 5.774-.565 2.558-2.223 4.708-4.355 5.746-1.755.88-3.905.953-6.12.953h-1.433l.109-.577zm16.444 9.905c-.698 2.975-1.5 8.41 3.473 10.347 1.586.674 3.007.875 4.45.802 1.526-.082 2.939-.847 4.248-1.948l-.355 1.359.226.29c3.577-.15 4.687-.15 8.562-.12l.352-.268c.565-3.327 1.099-6.557 2.57-12.922.716-3.048 1.431-6.067 2.166-9.103l-.115-.334c-4.001.741-5.07.9-8.92 1.445l-.292.238c-.039.31-.08.607-.117.904-.598-.967-1.466-1.793-2.804-2.307-1.712-.674-5.732.194-9.187 3.34-2.429 2.247-3.595 5.325-4.257 8.277zm8.404.182c.857-3.668 1.84-6.77 4.39-6.77 1.612 0 2.461 1.487 2.288 4.024-.136.633-.284 1.3-.46 2.054-.255 1.09-.531 2.17-.8 3.252-.274.74-.593 1.438-.942 1.903-.656.93-2.217 1.506-3.116 1.506-.255 0-1.828 0-1.882-2.32-.013-1.154.225-2.344.522-3.65zm43.886-12.109l-.31-.353c-3.959.802-4.676.93-8.313 1.421l-.268.267c-.012.044-.023.11-.042.171l-.012-.06c-2.708 6.248-2.629 4.9-4.833 9.818-.013-.224-.013-.363-.025-.601l-.552-10.663-.346-.353c-4.148.802-4.246.93-8.076 1.421l-.299.267c-.042.128-.042.268-.067.42l.025.055c.479 2.446.364 1.9.844 5.762.224 1.895.523 3.801.746 5.673.378 3.132.59 4.674 1.051 9.455-2.586 4.268-3.199 5.884-5.69 9.63l.018.037-1.754 2.774c-.2.292-.382.492-.637.578-.28.138-.644.163-1.149.163h-.972l-1.444 4.804 4.955.085c2.908-.012 4.736-1.372 5.72-3.2l3.116-5.339h-.05l.328-.376c2.096-4.511 18.036-31.856 18.036-31.856zm-52.29 63.088h-2.102l7.78-25.73h2.58l.82-2.65.078 2.947c-.096 1.822 1.337 3.437 5.102 3.17h4.355l1.498-4.954h-1.638c-.942 0-1.38-.238-1.325-.748l-.079-2.999h-8.063v.016c-2.607.054-10.393.25-11.969.67-1.907.49-3.917 1.937-3.917 1.937l.79-2.654h-7.543l-1.572 5.265-7.883 26.123h-1.53l-1.5 4.919h15.023l-.503 1.64h7.402l.492-1.64h2.076l1.628-5.312zm-6.164-20.502c-1.208.334-3.455 1.348-3.455 1.348l1.999-6.576h5.992l-1.445 4.791s-1.852.11-3.09.437zm.115 9.394s-1.882.237-3.121.516c-1.22.37-3.509 1.536-3.509 1.536l2.065-6.843h6.023l-1.458 4.791zm-3.358 11.168h-6.011l1.743-5.775h5.992l-1.724 5.775zm14.477-15.959h8.665l-1.245 4.033h-8.78l-1.318 4.408h7.683l-5.818 8.191c-.407.602-.772.815-1.178.984-.407.207-.942.45-1.56.45h-2.132l-1.464 4.828h5.574c2.898 0 4.61-1.318 5.873-3.048l3.99-5.46.856 5.544c.182 1.038.928 1.646 1.433 1.882.558.28 1.135.76 1.95.832.873.037 1.504.067 1.924.067h2.74l1.644-5.404h-1.08c-.62 0-1.689-.104-1.87-.298-.183-.237-.183-.6-.28-1.154l-.87-5.556h-3.558l1.561-1.858h8.763l1.348-4.408h-8.113l1.263-4.033h8.089l1.5-4.973h-24.114l-1.476 4.973zm-73.185 17.082l2.022-6.728h8.313l1.518-5.004h-8.32l1.27-4.141h8.13l1.507-4.846h-20.343l-1.475 4.846h4.622l-1.233 4.14h-4.634l-1.536 5.09h4.62l-2.696 8.902c-.363 1.178.171 1.627.51 2.175.347.533.698.886 1.488 1.086.815.182 1.373.291 2.131.291h9.371l1.67-5.544-4.154.571c-.802 0-3.024-.096-2.781-.838zm.953-32.208l-2.106 3.807c-.45.831-.857 1.348-1.222 1.585-.322.2-.96.285-1.883.285h-1.099l-1.469 4.87h3.65c1.756 0 3.103-.643 3.747-.965.692-.37.874-.159 1.408-.675l1.233-1.068h11.398l1.513-5.07h-8.344l1.457-2.77h-8.283zm16.827 32.306c-.194-.28-.054-.773.243-1.799l3.115-10.311h11.083c1.615-.023 2.78-.042 3.54-.096.814-.086 1.7-.377 2.665-.899.997-.547 1.507-1.124 1.937-1.786.48-.66 1.252-2.107 1.914-4.336l3.916-13.049-11.5.067s-3.542.522-5.101 1.1c-1.573.643-3.821 2.44-3.821 2.44l1.038-3.577h-7.104l-9.946 32.986c-.353 1.28-.59 2.21-.644 2.769-.018.601.759 1.197 1.263 1.646.595.449 1.475.376 2.319.449.888.067 2.15.109 3.893.109h5.46l1.675-5.659-4.887.462c-.523 0-.9-.28-1.058-.516zm5.368-19.074h11.64l-.74 2.319c-.103.054-.352-.115-1.537.025h-10.08l.717-2.344zm2.332-7.78h11.739l-.845 2.794s-5.532-.054-6.418.109c-3.9.675-6.177 2.758-6.177 2.758l1.701-5.66zm8.83 17.866c-.097.347-.25.558-.462.717-.237.152-.62.206-1.19.206h-1.658l.098-2.824h-6.9l-.28 13.809c-.01.996.086 1.573.815 2.035.73.576 2.976.65 6 .65h4.323l1.56-5.17-3.763.207-1.252.073c-.17-.073-.334-.14-.516-.321-.158-.157-.426-.061-.382-1.057l.03-3.54 3.946-.163c2.132 0 3.043-.694 3.82-1.354.741-.633.984-1.36 1.264-2.345l.662-3.134h-5.424l-.692 2.21z" fill="#FEFEFE"/>
</svg>
