<svg width="32" height="23" viewBox="0 0 32 23" xmlns="http://www.w3.org/2000/svg">
    <title>
      Visa
    </title>
    <g fill="none" fill-rule="evenodd">
        <path fill="#F8B600" d="M2.115 18.182h29.877v2.703H2.115z"/>
        <path fill="#1A1F71" d="M2.115 2.11h29.877v2.702H2.115zM14.074 7.79l-3.086 7.43H8.975L7.456 9.29c-.092-.364-.172-.498-.452-.652-.458-.251-1.215-.486-1.88-.632l.046-.216h3.24c.414 0 .785.278.88.757l.802 4.3 1.981-5.057h2.001zm7.89 5.004c.008-1.96-2.687-2.07-2.669-2.945.006-.266.257-.55.808-.622.273-.036 1.025-.065 1.878.332l.334-1.576a5.093 5.093 0 0 0-1.782-.328c-1.883 0-3.207 1.009-3.218 2.455-.012 1.07.946 1.666 1.667 2.023.743.364.992.597.988.923-.005.498-.593.719-1.14.727-.957.015-1.513-.261-1.955-.47l-.346 1.63c.446.205 1.267.384 2.117.393 2.002 0 3.311-.997 3.317-2.542zm4.972 2.426h1.76l-1.538-7.43h-1.624a.867.867 0 0 0-.812.545l-2.858 6.885h2l.398-1.11h2.443l.23 1.11zm-2.126-2.632l1.002-2.79.577 2.79h-1.58zM16.796 7.79l-1.575 7.43h-1.905l1.575-7.43h1.905z"/>
    </g>
</svg>
