<?xml version="1.0" encoding="utf-8"?>
<!-- Generator: Adobe Illustrator 24.1.2, SVG Export Plug-In . SVG Version: 6.00 Build 0)  -->
<svg
  version="1.1"
  id="svg2"
  xmlns:cc="http://creativecommons.org/ns#"
  xmlns:dc="http://purl.org/dc/elements/1.1/"
  xmlns:rdf="http://www.w3.org/1999/02/22-rdf-syntax-ns#"
  xmlns:svg="http://www.w3.org/2000/svg"
  xmlns="http://www.w3.org/2000/svg"
  xmlns:xlink="http://www.w3.org/1999/xlink"
  x="0px"
  y="0px"
  viewBox="0 0 200 127"
  style="enable-background: new 0 0 200 127;"
  xml:space="preserve"
>
  <style type="text/css">
    .visa-electron-st0 {
      fill: #ffffff;
    }
    .visa-electron-st1 {
      fill: #f6af1a;
    }
    .visa-electron-st2 {
      fill: #243c7b;
    }
  </style>
  <g id="layer1" transform="translate(-296.42982,-428.21443)">
    <g
      id="g4145"
      transform="matrix(0.92593451,0,0,-0.92593451,112.53737,857.68971)"
    >
      <path
        id="path4147"
        class="visa-electron-st0"
        d="M414.6,326.6h-216v137.2h216V326.6L414.6,326.6z"
      />
      <path
        id="path4149"
        class="visa-electron-st1"
        d="M202.2,348.9H411v-18.7H202.2V348.9z"
      />
      <path
        id="path4151"
        class="visa-electron-st2"
        d="M202.2,441.5H411v18.7H202.2V441.5z"
      />
      <g id="g4153">
        <g>
          <g id="g4155">
            <g id="g4161" transform="translate(302.4478,424.6084)">
              <path
                id="path4163"
                class="visa-electron-st2"
                d="M0,0l-10.5-48.9h-12.7L-12.7,0H0z M53.2-31.6l6.7,18.4l3.8-18.4H53.2z M67.4-48.9h11.7
							L68.8,0H58c-2.4,0-4.5-1.4-5.4-3.6l-19-45.3H47l2.6,7.3h16.2C65.8-41.6,67.4-48.9,67.4-48.9z M34.3-32.9
							C34.4-20,16.5-19.3,16.6-13.6c0,1.8,1.7,3.6,5.4,4.1c1.8,0.2,6.8,0.4,12.5-2.2l2.2,10.4c-3,1.1-7,2.2-11.8,2.2
							C12.3,0.9,3.5-5.8,3.4-15.3c-0.1-7,6.3-11,11.1-13.3c4.9-2.4,6.6-3.9,6.6-6.1c0-3.3-3.9-4.7-7.6-4.8c-6.4-0.1-10.1,1.7-13,3.1
							l-2.3-10.7c3-1.4,8.4-2.5,14.1-2.6C25.6-49.7,34.3-43.1,34.3-32.9 M-18.1,0l-20.5-48.9H-52l-10.1,39c-0.6,2.4-1.1,3.3-3,4.3
							c-3,1.7-8.1,3.2-12.5,4.2l0.3,1.4h21.5c2.7,0,5.2-1.8,5.8-5l5.3-28.3L-31.4,0H-18.1z"
              />
            </g>
            <g id="g4165" transform="translate(318.6445,362.2266)">
              <path
                id="path4167"
                class="visa-electron-st2"
                d="M0,0h-5.1v-4.8h5.8v-1.4h-7.5V7.1h7.2V5.6h-5.5V1.4l5.1,0V0z"
              />
            </g>
            <path
              id="path4169"
              class="visa-electron-st2"
              d="M321.9,370h1.7v-14h-1.7V370z"
            />
            <g id="g4171" transform="translate(333.0977,361.6953)">
              <path
                id="path4173"
                class="visa-electron-st2"
                d="M0,0c0,1.1-0.5,2.8-2.4,2.8c-1.8,0-2.5-1.6-2.7-2.8H0z M-5.1-1.2c0-2.3,1.5-3.3,3.3-3.3
							c1.2,0,2,0.2,2.6,0.5l0.3-1.2C0.5-5.6-0.5-5.9-2-5.9c-2.9,0-4.7,2-4.7,4.8S-5,4-2.3,4c3.1,0,3.9-2.7,3.9-4.5
							c0-0.4,0-0.6-0.1-0.8C1.6-1.2-5.1-1.2-5.1-1.2z"
              />
            </g>
            <g id="g4175" transform="translate(344.2041,356.3369)">
              <path
                id="path4177"
                class="visa-electron-st2"
                d="M0,0c-0.5-0.2-1.5-0.6-2.7-0.6c-2.9,0-4.7,2-4.7,4.9c0,2.9,2,5.1,5.1,5.1
							c1,0,1.9-0.3,2.4-0.5l-0.4-1.3C-0.8,7.8-1.4,8-2.4,8c-2.2,0-3.4-1.6-3.4-3.6c0-2.2,1.4-3.6,3.3-3.6c1,0,1.6,0.2,2.1,0.5L0,0z"
              />
            </g>
            <g id="g4179" transform="translate(349.0664,367.8213)">
              <path
                id="path4181"
                class="visa-electron-st2"
                d="M0,0v-2.3h2.5v-1.3H0v-5.1c0-1.2,0.3-1.9,1.3-1.9c0.5,0,0.7,0,1,0.1l0.1-1.3
							C2-11.9,1.5-12,0.8-12C0-12-0.6-11.8-1-11.3c-0.5,0.5-0.7,1.4-0.7,2.5v5.2h-1.5v1.3h1.5v1.8L0,0z"
              />
            </g>
            <g id="g4183" transform="translate(353.9688,362.5615)">
              <path
                id="path4185"
                class="visa-electron-st2"
                d="M0,0c0,1.1,0,2.1-0.1,3h1.5l0.1-1.9h0.1C2,2.4,3.1,3.2,4.2,3.2c0.2,0,0.3,0,0.5,0V1.5
							c-0.2,0-0.4,0-0.6,0C2.9,1.5,2,0.6,1.8-0.7c0-0.2-0.1-0.5-0.1-0.8v-5.1H0V0z"
              />
            </g>
            <g id="g4187" transform="translate(361.7861,360.749)">
              <path
                id="path4189"
                class="visa-electron-st2"
                d="M0,0c0-2.1,1.2-3.7,2.9-3.7c1.7,0,2.9,1.6,2.9,3.7c0,1.6-0.8,3.6-2.9,3.6
							C0.9,3.7,0,1.8,0,0 M7.5,0.1C7.5-3.4,5.1-5,2.8-5C0.2-5-1.8-3.1-1.8-0.1c0,3.2,2.1,5,4.7,5C5.7,5,7.5,3,7.5,0.1"
              />
            </g>
            <g id="g4191" transform="translate(371.9873,362.9561)">
              <path
                id="path4193"
                class="visa-electron-st2"
                d="M0,0c0,1,0,1.8-0.1,2.6h1.5L1.6,1h0c0.5,0.9,1.6,1.8,3.2,1.8c1.3,0,3.4-0.8,3.4-4.1V-7H6.4
							v5.5c0,1.5-0.6,2.8-2.2,2.8c-1.1,0-2-0.8-2.3-1.8C1.8-0.6,1.7-0.9,1.7-1.2V-7L0-7V0z"
              />
            </g>
          </g>
        </g>
      </g>
    </g>
  </g>
</svg>
