<svg xmlns="http://www.w3.org/2000/svg" viewBox="0 0 49.7 31.57">
  <title>
    Visa
  </title>
  <defs>
    <style>
      .visa-white-color {
        fill: #fff;
      }
      .visa-orange-color {
        fill: #F8B600;
      }
      .visa-blue-color {
        fill: #1A1F71;
      }
    </style>
  </defs>
  <g id="Layer_2" data-name="Layer 2">
    <g id="Layer_1-2" data-name="Layer 1">
      <rect class="visa-white-color" width="49.7" height="31.57" />
      <rect class="visa-orange-color" x="0.83" y="26.44" width="48.05" height="4.31" />
      <rect class="visa-blue-color" x="0.83" y="0.83" width="48.05" height="4.31" />
      <path
        class="visa-blue-color"
        d="M24.44,9.88,21.9,21.72H18.84L21.37,9.88Zm12.88,7.65,1.62-4.45.92,4.45Zm3.42,4.19h2.84L41.1,9.88H38.49a1.4,1.4,0,0,0-1.31.87l-4.59,11h3.22L36.44,20h3.93Zm-8-3.86c0-3.13-4.32-3.3-4.29-4.7,0-.42.41-.87,1.3-1a5.79,5.79,0,0,1,3,.53l.53-2.51a8.12,8.12,0,0,0-2.86-.52c-3,0-5.16,1.6-5.18,3.91,0,1.7,1.52,2.65,2.68,3.22s1.6.95,1.59,1.47c0,.8-.95,1.15-1.83,1.16a6.29,6.29,0,0,1-3.15-.75L24,21.28a9.35,9.35,0,0,0,3.4.63c3.22,0,5.33-1.59,5.34-4.05m-12.69-8-5,11.84H11.86L9.42,12.27a1.31,1.31,0,0,0-.73-1,12.73,12.73,0,0,0-3-1l.07-.35H11a1.44,1.44,0,0,1,1.42,1.21l1.29,6.85,3.18-8.06Z"
      />
    </g>
  </g>
</svg>
