<svg width="32" height="23" viewBox="0 0 32 23" xmlns="http://www.w3.org/2000/svg">
    <title>
      V Pay
    </title>
    <g fill="none" fill-rule="evenodd">
        <path d="M11.089.031H31.88v22.912H11.089V.03zm.52.529h19.752v14.35H11.61V.56z" fill="#272756"/>
        <path d="M26.48 3.164l-3.875 9.41h-2.53l-1.908-7.51c-.116-.462-.217-.631-.568-.829-.578-.316-1.526-.614-2.362-.799l.056-.272h4.072c.519 0 .986.351 1.105.958l1.007 5.444 2.49-6.402h2.514" fill="#272756"/>
        <path d="M16.369 16.55c.269-.052.642-.09 1.15-.09.55 0 .954.122 1.216.356.245.214.405.557.405.967 0 .415-.123.758-.356.993-.299.317-.77.466-1.302.466-.14 0-.27-.007-.367-.026v1.649h-.746v-4.316zm.746 2.037c.091.027.214.034.367.034.562 0 .905-.294.905-.806 0-.486-.318-.746-.839-.746-.207 0-.354.02-.433.039v1.479zM20.79 19.625l-.354 1.24h-.777l1.322-4.374h.959l1.34 4.374h-.808l-.373-1.24H20.79zm1.18-.604l-.323-1.075c-.08-.268-.147-.566-.21-.819h-.01c-.062.253-.123.559-.196.819l-.318 1.075h1.058zM24.864 20.865V19.04l-1.302-2.55h.855l.496 1.122c.14.325.244.57.355.87h.011c.105-.279.222-.552.361-.87l.496-1.122h.85l-1.37 2.53v1.844h-.752" fill="#FFF"/>
    </g>
</svg>
