<svg xmlns="http://www.w3.org/2000/svg" viewBox="0 0 30.34 32.87">
  <title>
    V Pay
  </title>
  <defs>
    <style>
      .vpay-cls-1 {
        fill: #253a7a;
      }
      .vpay-cls-2 {
        fill: #fff;
      }
    </style>
  </defs>
  <g id="Layer_2" data-name="Layer 2">
    <g id="Layer_1-2" data-name="Layer 1">
      <rect class="vpay-cls-1" width="30.34" height="32.87" />
      <rect class="vpay-cls-2" x="0.76" y="0.76" width="28.83" height="20.59" />
      <path
        class="vpay-cls-1"
        d="M22.46,4.49,16.81,18h-3.7L10.33,7.22A1.52,1.52,0,0,0,9.5,6,14.75,14.75,0,0,0,6.06,4.89l.08-.4h5.94a1.63,1.63,0,0,1,1.61,1.38l1.47,7.81L18.8,4.49Z"
      />
      <path
        class="vpay-cls-2"
        d="M8.79,26.62a2.06,2.06,0,0,0,.54.05c.82,0,1.32-.42,1.32-1.15s-.46-1.07-1.22-1.07a3,3,0,0,0-.64.05ZM7.71,23.7a9.44,9.44,0,0,1,1.67-.13,2.66,2.66,0,0,1,1.78.51,1.8,1.8,0,0,1,.59,1.39,2,2,0,0,1-.52,1.43,2.6,2.6,0,0,1-1.9.66,4.27,4.27,0,0,1-.54,0v2.36H7.71Z"
      />
      <path
        class="vpay-cls-2"
        d="M15.88,27.25l-.47-1.55c-.12-.38-.22-.81-.31-1.17h0c-.09.36-.18.8-.29,1.17l-.46,1.55Zm-1.72.86-.52,1.78H12.51l1.93-6.27h1.4l1.95,6.27H16.61l-.54-1.78Z"
      />
      <path
        class="vpay-cls-2"
        d="M20.11,29.89V27.28L18.2,23.62h1.25l.73,1.61c.2.46.35.82.51,1.25h0c.15-.41.32-.8.53-1.25L22,23.62H23.2l-2,3.63v2.64Z"
      />
    </g>
  </g>
</svg>
