<svg xmlns="http://www.w3.org/2000/svg" xmlns:xlink="http://www.w3.org/1999/xlink" width="24" height="24" viewBox="0 0 24 24">
  <defs>
    <path id="empty-a" d="M6,11.1084953 L6,18 L18,18 L18,11.1084953 L12,6.64155575 L6,11.1084953 Z M12,4 L20,10 L20,19 C20,19.5522847 19.5522847,20 19,20 L5,20 C4.44771525,20 4,19.5522847 4,19 L4,10 L12,4 Z M9,12 L15,12 L15,20 L9,20 L9,12 Z M11,14 L11,18 L13,18 L13,14 L11,14 Z"/>
  </defs>
  <g fill="none" fill-rule="evenodd">
    <mask id="empty-b" fill="#fff">
      <use xlink:href="#empty-a"/>
    </mask>
    <use fill="#FFF" fill-rule="nonzero" xlink:href="#empty-a"/>
    <g fill="#FFF" mask="url(#empty-b)">
      <rect width="64" height="64" transform="translate(-20 -20)"/>
    </g>
  </g>
</svg>
