<?xml version="1.0" encoding="UTF-8"?>
<svg width="24px" height="24px" viewBox="0 0 24 24" version="1.1" xmlns="http://www.w3.org/2000/svg" xmlns:xlink="http://www.w3.org/1999/xlink">
    <!-- Generator: Sketch 50.2 (55047) - http://www.bohemiancoding.com/sketch -->
    <desc>Created with Sketch.</desc>
    <defs>
        <path d="M6,4 L18,4 C19.1045695,4 20,4.8954305 20,6 L20,18 C20,19.1045695 19.1045695,20 18,20 L6,20 C4.8954305,20 4,19.1045695 4,18 L4,6 C4,4.8954305 4.8954305,4 6,4 Z M6,6 L6,18 L18,18 L18,6 L6,6 Z M8,8 L16,8 L16,10 L8,10 L8,8 Z M8,11 L16,11 L16,13 L8,13 L8,11 Z M8,14 L16,14 L16,16 L8,16 L8,14 Z" id="path-1"></path>
    </defs>
    <g id="Icon/-24-/-Transaction-History-/-Empty" stroke="none" stroke-width="1" fill="none" fill-rule="evenodd">
        <mask id="mask-2" fill="white">
            <use xlink:href="#path-1"></use>
        </mask>
        <use id="Combined-Shape" fill="#EBEBEB" xlink:href="#path-1"></use>
        <g id="Colours/Neutral/White" mask="url(#mask-2)" fill="#FFFFFF">
            <g transform="translate(-20.000000, -20.000000)" id="White">
                <rect x="0" y="0" width="64" height="64"></rect>
            </g>
        </g>
    </g>
</svg>