<svg width="24" height="24" viewBox="0 0 24 24" fill="none" xmlns="http://www.w3.org/2000/svg">
<circle cx="12" cy="12" r="12" fill="#FF7559"/>
<path fill-rule="evenodd" clip-rule="evenodd" d="M13 4.5C13 4.22386 12.7761 4 12.5 4H11.5C11.2239 4 11 4.22386 11 4.5V15.5C11 15.7761 11.2239 16 11.5 16H12.5C12.7761 16 13 15.7761 13 15.5L13 4.5ZM13 18.2C13 18.0895 12.9105 18 12.8 18H11.2C11.0895 18 11 18.0895 11 18.2V19.8C11 19.9105 11.0895 20 11.2 20H12.8C12.9105 20 13 19.9105 13 19.8L13 18.2Z" fill="#FAFBFC"/>
</svg>
